<svg width="506" height="386" viewBox="0 0 506 386" fill="none" xmlns="http://www.w3.org/2000/svg">
    <path d="M481.003 130.693L470.369 128.485L483.83 63.7234C484.331 60.3277 483.585 56.8656 481.73 53.9775C464.782 30.5145 437.214 40.0451 432.987 60.3177L420.872 118.201L410.237 115.98L423.82 50.8006C424.52 47.4287 425.961 44.255 428.041 41.5098C430.12 38.7646 432.784 36.5169 435.841 34.9298C470.086 17.2822 498.826 44.7161 492.97 72.8367L481.003 130.693Z" fill="url(#paint0_linear_1843_63017)"/>
    <path d="M481.003 130.693C481.003 130.693 481.07 130.289 481.232 129.535C481.393 128.782 481.609 127.637 481.905 126.17L484.597 113.288C485.755 107.701 487.155 100.876 488.783 92.9477L491.476 80.2672C492.31 75.7712 493.697 71.0598 493.751 65.9714C493.832 60.6446 492.699 55.3692 490.439 50.5448C490.143 49.9256 489.86 49.2795 489.551 48.6603L488.474 46.843C487.74 45.6254 486.936 44.4523 486.064 43.3296C485.634 42.7373 485.122 42.2258 484.651 41.6739C484.18 41.122 483.722 40.5566 483.17 40.072C482.124 39.0289 481.009 38.0575 479.832 37.1644C477.444 35.2955 474.83 33.7351 472.051 32.5202L469.884 31.7126L468.659 31.3087L467.528 31.0126L465.253 30.4203C464.472 30.2453 463.692 30.1645 462.911 30.0299C456.418 29.0631 449.784 29.911 443.742 32.4799C438.946 34.5178 434.654 37.5798 431.166 41.4515C427.678 45.3232 425.078 49.9108 423.55 54.8928C422.568 58.3254 421.935 61.9196 421.168 65.5003C418.179 79.8634 415.07 94.7381 411.906 109.922C411.476 111.955 411.058 113.961 410.641 115.993L410.439 115.684L421.073 117.905L420.777 118.107C423.173 106.597 425.529 95.3304 427.804 84.4537C428.944 78.9884 430.07 73.6039 431.183 68.3002L432.825 60.4119C433.402 57.8064 434.344 55.2956 435.625 52.9544C438.22 48.4361 442.125 44.8122 446.825 42.5623C447.404 42.3066 447.956 41.9969 448.561 41.795L450.338 41.1758C451.529 40.8177 452.744 40.5434 453.973 40.3547C455.194 40.1691 456.426 40.0702 457.661 40.0585C458.267 40.0585 458.886 40.0585 459.492 40.1393H460.394L461.296 40.2874C463.665 40.6102 465.976 41.2674 468.161 42.2393C470.272 43.2114 472.249 44.451 474.043 45.9276C477.475 48.8247 480.088 52.57 481.622 56.7908C483.104 60.7411 483.535 65.0083 482.874 69.1752L482.632 70.6694C482.537 71.154 482.43 71.6386 482.335 72.1232L481.73 75.0039C481.326 76.9019 480.936 78.7596 480.559 80.5903C479.024 87.8863 477.611 94.6035 476.345 100.648C473.788 112.763 471.795 122.186 470.476 128.499L470.409 128.405L478.486 130.114L480.451 130.545L481.097 130.693L480.464 130.572L478.513 130.195L470.436 128.553V128.472L476.17 100.607C477.422 94.5496 478.862 87.8324 480.33 80.523C480.707 78.7057 481.097 76.8346 481.487 74.9366C481.676 73.9943 481.878 73.0251 482.08 72.0693C482.187 71.5847 482.282 71.1001 482.389 70.6021C482.497 70.104 482.537 69.6194 482.618 69.1348C483.263 65.0297 482.832 60.8274 481.366 56.9389C479.848 52.7875 477.267 49.1069 473.882 46.2642C472.107 44.8126 470.152 43.5956 468.067 42.6431C465.922 41.698 463.657 41.0547 461.336 40.7316L460.448 40.597H459.546C458.953 40.597 458.361 40.5162 457.755 40.597C455.319 40.6245 452.899 40.9961 450.567 41.7008L448.817 42.32C448.237 42.538 447.671 42.7897 447.121 43.0738C442.504 45.2811 438.672 48.8459 436.137 53.2909C434.891 55.5846 433.984 58.0466 433.444 60.6004C432.906 63.2119 432.358 65.8413 431.802 68.4887C430.698 73.7924 429.576 79.1769 428.437 84.6421L421.423 118.295V118.551H421.168L410.533 116.33H410.291V116.074C410.708 114.068 411.126 112.036 411.556 110.003C414.733 94.7784 417.829 79.9038 420.831 65.581C421.598 61.9869 422.177 58.4197 423.227 54.9197C424.321 51.4986 425.884 48.2459 427.871 45.2546C431.81 39.4698 437.335 34.9452 443.783 32.2241C449.902 29.6298 456.62 28.7772 463.194 29.7607C463.988 29.8953 464.782 29.9895 465.563 30.1511L468.255 30.851L469.695 31.3087L471.849 32.1164L472.845 32.5337C475.479 33.7273 477.96 35.2322 480.236 37.0163C481.416 37.9304 482.539 38.9149 483.601 39.9643C484.026 40.4264 484.43 40.907 484.812 41.4047C485.284 41.97 485.808 42.4815 486.226 43.0738C487.112 44.2134 487.93 45.4046 488.676 46.6411L489.753 48.4718C490.076 49.1045 490.345 49.8179 490.655 50.3833C492.925 55.2658 494.053 60.6013 493.953 65.9849C493.953 71.1271 492.485 75.852 491.637 80.3615C490.789 84.871 489.793 89.1113 488.945 93.0823C487.276 101.011 485.822 107.89 484.651 113.422C483.48 118.955 482.551 123.316 481.959 126.251L481.245 129.576C481.097 130.33 481.003 130.693 481.003 130.693Z" fill="#263238"/>
    <path d="M405.649 75.6602L500.651 95.4551C501.958 95.7275 503.104 96.508 503.835 97.6249C504.567 98.7417 504.825 100.104 504.553 101.411L489.544 173.443C489.296 174.631 488.587 175.672 487.571 176.338C486.556 177.003 485.318 177.237 484.13 176.99L388.68 157.101L405.649 75.6602Z" fill="#455A64"/>
    <g opacity="0.3">
        <path d="M405.698 75.7366L500.199 95.4272C501.639 95.7272 502.901 96.587 503.707 97.8174C504.513 99.0478 504.797 100.548 504.497 101.988L489.697 173.018C489.422 174.34 488.633 175.497 487.504 176.237C486.375 176.976 484.999 177.237 483.678 176.962L388.729 157.178L405.698 75.7366Z" fill="black"/>
    </g>
    <path d="M406.458 75.8319L488.4 92.9057C489.819 93.2014 491.062 94.0486 491.857 95.2611C492.651 96.4735 492.931 97.9519 492.635 99.3709L478.145 168.912C477.781 170.66 476.738 172.191 475.245 173.169C473.752 174.148 471.931 174.493 470.183 174.128L389.717 157.362C388.99 157.211 388.301 156.918 387.687 156.499C387.073 156.081 386.548 155.547 386.141 154.926C385.734 154.304 385.454 153.609 385.316 152.88C385.177 152.15 385.184 151.401 385.336 150.674L400.045 80.0784C400.339 78.6684 401.177 77.4314 402.378 76.6363C403.579 75.8411 405.045 75.552 406.458 75.8319Z" fill="url(#paint1_linear_1843_63017)"/>
    <g opacity="0.3">
        <path d="M453.328 120.637C453.645 119.115 453.654 117.545 453.353 116.019C453.053 114.493 452.449 113.044 451.578 111.756C450.707 110.468 449.586 109.368 448.282 108.521C446.977 107.674 445.516 107.098 443.985 106.826C441.031 106.339 438.003 106.997 435.517 108.665C433.031 110.333 431.274 112.887 430.605 115.805C430.074 118.286 430.373 120.874 431.455 123.169C432.538 125.465 434.343 127.342 436.595 128.512L425.894 142.66L445.426 147.102L442.734 129.804C445.259 129.644 447.661 128.661 449.575 127.005C451.488 125.35 452.806 123.113 453.328 120.637Z" fill="black"/>
    </g>
    <path d="M478.472 167.873C478.338 167.873 481.245 153.658 484.961 136.185C488.676 118.713 491.812 104.551 491.947 104.578C492.082 104.605 489.174 118.807 485.459 136.307C481.743 153.806 478.607 167.9 478.472 167.873Z" fill="#263238"/>
    <path d="M471.849 92.0727C471.849 92.2073 459.29 89.8785 443.863 86.8767C428.437 83.8748 415.931 81.3306 415.958 81.196C415.985 81.0614 428.517 83.3767 443.957 86.3786C459.398 89.3805 471.876 91.8842 471.849 92.0727Z" fill="white"/>
    <path d="M428.949 121.943C428.949 121.943 428.787 121.674 428.626 121.136C428.395 120.378 428.25 119.597 428.195 118.807C427.982 116.169 428.569 113.528 429.878 111.228C431.209 108.943 433.192 107.106 435.572 105.951C436.288 105.609 437.037 105.338 437.806 105.144C438.085 105.057 438.376 105.016 438.668 105.023C438.668 105.117 437.47 105.359 435.733 106.275C433.475 107.464 431.601 109.272 430.331 111.486C429.06 113.7 428.446 116.23 428.559 118.78C428.626 120.745 429.043 121.917 428.949 121.943Z" fill="white"/>
    <path d="M432.314 128.23C432.219 128.338 431.6 127.92 430.967 127.301C430.335 126.682 429.85 126.103 429.944 125.955C430.039 125.807 430.658 126.278 431.29 126.884C431.923 127.49 432.408 128.23 432.314 128.23Z" fill="white"/>
    <path d="M461.054 32.305C461.054 32.305 460.354 32.305 459.089 32.1703C457.294 32.0581 455.494 32.0897 453.704 32.2646C447.814 32.797 442.195 34.9913 437.503 38.5922C432.811 42.193 429.238 47.0522 427.199 52.6045C426.574 54.2769 426.084 55.9964 425.732 57.7467C425.489 58.9851 425.382 59.6851 425.341 59.6851C425.321 59.5152 425.321 59.3435 425.341 59.1736C425.341 58.837 425.341 58.339 425.516 57.7063C425.804 55.9276 426.254 54.1792 426.863 52.4833C428.842 46.8088 432.437 41.8369 437.207 38.1799C441.976 34.5228 447.71 32.3404 453.704 31.9011C455.498 31.7566 457.301 31.7837 459.089 31.9819C459.721 31.9819 460.206 32.1434 460.542 32.1838C460.718 32.1996 460.89 32.2403 461.054 32.305Z" fill="white"/>
    <path d="M423.093 68.3809C423.059 67.3604 423.196 66.3413 423.497 65.3656C423.63 64.3583 423.931 63.3803 424.385 62.4714C424.427 63.487 424.295 64.5022 423.995 65.4733C423.862 66.4867 423.557 67.47 423.093 68.3809Z" fill="white"/>
    <path d="M16.182 337.254L0.420898 358.655L26.9612 378.407C28.7154 375.775 18.743 360.444 18.743 360.444L29.4083 347.148L16.182 337.254Z" fill="#465867"/>
    <path d="M11.4283 353.199C11.1162 353.086 10.773 353.092 10.4652 353.217C10.1574 353.341 9.90676 353.576 9.76182 353.875C9.63854 354.184 9.63797 354.529 9.76022 354.838C9.88247 355.148 10.1183 355.399 10.4196 355.541C10.7503 355.658 11.1124 355.648 11.4362 355.513C11.76 355.379 12.0227 355.13 12.1738 354.813C12.2707 354.477 12.2334 354.116 12.0698 353.807C11.9062 353.498 11.6291 353.264 11.2967 353.156" fill="white"/>
    <path d="M0.385742 358.707L2.06096 356.409L26.8559 376.372C26.8559 376.372 27.6453 377.775 26.8559 378.503L0.385742 358.707Z" fill="#263238"/>
    <path d="M19.3214 360.637C19.225 360.769 18.5321 360.348 17.5673 360.286C16.6025 360.225 15.8745 360.523 15.8131 360.383C15.7517 360.242 16.4885 359.637 17.6287 359.725C18.7689 359.813 19.3916 360.541 19.3214 360.637Z" fill="#263238"/>
    <path d="M21.2072 363.865C21.1371 364.014 20.4179 363.812 19.5671 364.031C18.7163 364.251 18.1638 364.742 18.0322 364.637C17.9007 364.531 18.3743 363.76 19.4355 363.488C20.4968 363.216 21.2949 363.742 21.2072 363.865Z" fill="#263238"/>
    <path d="M20.3041 368.373C20.1638 368.311 20.4708 367.496 21.3303 367.066C22.1898 366.636 23.0055 366.777 22.9792 366.926C22.9529 367.075 22.2951 367.171 21.6022 367.566C20.9093 367.961 20.4444 368.452 20.3041 368.373Z" fill="#263238"/>
    <path d="M21.374 357.339C21.2249 357.418 20.7688 356.795 19.9969 356.304C19.2251 355.813 18.4884 355.611 18.4971 355.427C18.5059 355.243 19.3742 355.208 20.3039 355.804C21.2336 356.401 21.5143 357.286 21.374 357.339Z" fill="#263238"/>
    <path d="M80.3484 247.67C80.822 250.353 81.5763 273.184 82.0587 285.226C82.5411 297.268 81.3395 303.189 79.9624 305.89C78.5854 308.591 26.6537 346.858 22.6981 356.024L9.54199 345.42C9.54199 345.42 28.8377 310.784 37.0646 304.487C45.2916 298.189 61.1229 292.409 61.1229 292.409L56.6234 226.462L78.1908 225.287L80.3484 247.67Z" fill="#263238"/>
    <path d="M32.0835 358.418L31.8555 384.967L64.93 385.423C64.7809 382.266 47.7569 375.679 47.7569 375.679L48.6339 358.655L32.0835 358.418Z" fill="#465867"/>
    <path d="M37.5478 374.144C37.2286 374.236 36.9547 374.443 36.7783 374.724C36.602 375.006 36.5355 375.343 36.5918 375.67C36.6731 375.993 36.8745 376.272 37.1548 376.451C37.4351 376.631 37.7733 376.696 38.1003 376.635C38.4373 376.535 38.7256 376.314 38.9101 376.015C39.0945 375.715 39.1622 375.358 39.1002 375.012C38.9826 374.684 38.7421 374.415 38.4295 374.261C38.1168 374.107 37.7566 374.081 37.425 374.188" fill="white"/>
    <path d="M31.8467 385.063V382.213L63.6407 383.862C63.6407 383.862 65.0966 384.537 64.9125 385.572L31.8467 385.063Z" fill="#263238"/>
    <path d="M48.2656 375.556C48.2656 375.723 47.45 375.784 46.6518 376.293C45.8537 376.801 45.4151 377.468 45.266 377.407C45.1169 377.345 45.3713 376.407 46.3536 375.81C47.3359 375.214 48.3358 375.407 48.2656 375.556Z" fill="#263238"/>
    <path d="M51.7732 377.073C51.7732 377.231 51.0979 377.494 50.5453 378.17C49.9928 378.845 49.8173 379.573 49.6682 379.555C49.5191 379.538 49.4139 378.634 50.1243 377.801C50.8348 376.968 51.7732 376.889 51.7732 377.073Z" fill="#263238"/>
    <path d="M53.6592 381.222C53.5101 381.222 53.2996 380.441 53.7206 379.564C54.1416 378.687 54.9134 378.345 54.9748 378.477C55.0362 378.608 54.5714 379.082 54.2293 379.81C53.8873 380.538 53.8171 381.204 53.6592 381.222Z" fill="#263238"/>
    <path d="M48.055 371.653C47.9848 371.802 47.2481 371.565 46.3008 371.653C45.3536 371.741 44.6695 371.978 44.5467 371.837C44.4239 371.697 45.1519 371.136 46.2307 371.092C47.3095 371.048 48.1339 371.53 48.055 371.653Z" fill="#263238"/>
    <path d="M82.7348 222.559C82.7348 224.111 85.252 263.413 72.4029 291.848C72.4029 291.848 67.9561 300.742 67.1404 304.627C66.3247 308.512 49.7041 372.96 49.7041 372.96L30.4962 372.258C30.4962 372.258 27.4264 339.973 30.4962 321.283C33.5659 302.592 39.2669 304.785 39.2669 292.716C39.2669 280.648 36.3989 255.625 36.3989 255.625C36.3989 255.625 32.2065 248.792 30.7768 235.54C29.6103 224.778 34.6798 213.244 34.6798 213.244L39.6879 204.377L82.0595 202.158L82.7348 222.559Z" fill="#263238"/>
    <path d="M82.7344 222.559C82.7344 222.559 82.7344 222.103 82.7344 221.217C82.7344 220.331 82.6818 219.016 82.6467 217.288C82.5678 213.823 82.4362 208.719 82.2783 202.123V202.027H82.1731L39.8015 204.184H39.7138L39.6612 204.263C38.1088 207.017 36.3985 210.026 34.6443 213.13C33.3397 216.278 32.3211 219.536 31.6009 222.866C30.8052 226.372 30.4487 229.963 30.5396 233.557C30.8066 237.311 31.3934 241.034 32.2938 244.688C33.1623 248.523 34.5274 252.23 36.3546 255.712V255.625C37.0826 262.168 37.7579 268.948 38.328 275.929C38.6087 279.437 38.8543 282.946 39.0297 286.55C39.1174 288.305 39.1876 290.146 39.1964 291.962C39.1964 292.839 39.1963 293.778 39.1437 294.681C39.0813 295.587 38.97 296.489 38.8104 297.382C38.4514 299.183 37.8153 300.917 36.9247 302.522C36.0476 304.162 35.1706 305.785 34.2935 307.495C32.705 310.966 31.5475 314.618 30.8466 318.371C29.3205 325.914 29.0135 333.755 28.9258 341.657C28.9258 352.086 29.4169 362.33 30.2765 372.232V372.443H30.4782L49.6862 373.144H49.8704L49.9142 372.96C55.4837 351.375 60.6759 331.202 65.2543 313.064L66.912 306.355C67.2014 305.241 67.3856 304.136 67.7276 303.083C68.0697 302.031 68.4556 300.987 68.8591 299.97C69.6835 297.935 70.6132 295.961 71.4903 294.041L72.1744 292.611C72.4174 292.144 72.6341 291.664 72.8235 291.173C73.2181 290.199 73.6128 289.243 74.0075 288.287C76.7351 281.213 78.765 273.89 80.0681 266.422C81.9465 255.782 82.9148 245.002 82.9625 234.198C83.0151 226.637 82.7081 222.533 82.7081 222.533C82.7081 222.533 82.7081 222.787 82.7081 223.287C82.7081 223.787 82.7081 224.55 82.7607 225.532C82.8134 227.506 82.8484 230.418 82.7607 234.198C82.6796 244.993 81.7027 255.762 79.8401 266.395C78.5068 273.84 76.4506 281.137 73.7005 288.182L72.5252 291.05C72.3323 291.541 72.113 292.006 71.8762 292.479C71.6394 292.953 71.4114 293.435 71.1833 293.918C70.3062 295.839 69.3765 297.812 68.5521 299.856C68.1399 300.882 67.7452 301.926 67.4031 302.996C67.0611 304.066 66.8593 305.197 66.5787 306.285C66.0261 308.495 65.4736 310.723 64.9035 312.994C60.2462 331.115 55.0627 351.287 49.5108 372.872L49.7388 372.706L30.5308 371.995L30.7589 372.206C29.8818 362.321 29.3731 352.086 29.4082 341.675C29.4959 333.781 29.8029 325.975 31.3202 318.485C32.0189 314.767 33.1645 311.148 34.732 307.706C35.5214 306.013 36.4862 304.408 37.3633 302.741C38.2479 301.092 38.875 299.318 39.2227 297.479C39.389 296.565 39.5032 295.643 39.5647 294.716C39.5647 293.839 39.6524 292.874 39.6173 291.971C39.6173 290.146 39.5384 288.331 39.4507 286.533C39.2753 282.937 39.0209 279.393 38.7315 275.903C38.1468 268.886 37.4831 262.112 36.7405 255.581V255.528C34.9127 252.09 33.5417 248.428 32.6621 244.635C31.7669 241.007 31.1801 237.31 30.908 233.584C30.8135 230.023 31.1612 226.464 31.9429 222.989C32.6496 219.692 33.6446 216.464 34.9162 213.341L39.9156 204.465L39.7752 204.553L82.1468 202.263L82.0328 202.167C82.2433 208.754 82.4011 213.858 82.5064 217.323C82.5678 219.077 82.6116 220.357 82.6467 221.252C82.6818 222.147 82.7344 222.559 82.7344 222.559Z" fill="#465867"/>
    <path d="M69.4105 142.094C69.4105 142.094 58.0085 140.077 59.0697 154.75C59.7363 163.521 62.3149 178.571 63.7446 188.175C64.2357 191.5 65.3233 197.446 69.7174 200.937L101.204 222.723L111.142 210.839L83.0227 184.062L78.6373 157.574L69.4105 142.094Z" fill="url(#paint2_linear_1843_63017)"/>
    <path d="M70.2974 89.1907C72.1047 90.6459 73.5346 92.5154 74.466 94.6407C75.3973 96.7659 75.8026 99.0844 75.6476 101.4C75.4722 103.645 74.8495 106.197 76.3142 107.907C77.7789 109.618 80.5855 109.556 81.9713 111.293C83.5939 113.345 82.2344 116.398 82.8484 118.95C83.1613 120.142 83.8882 121.184 84.8989 121.889C85.9096 122.595 87.1383 122.918 88.3652 122.8C85.4868 125.156 82.0153 126.673 78.3315 127.186L75.4547 123.598C76.5247 124.861 76.2353 126.87 75.2091 128.159C74.0943 129.359 72.6568 130.212 71.0693 130.615C67.2908 131.777 63.295 132.052 59.393 131.418C55.4909 130.783 51.7879 129.257 48.5723 126.958" fill="#263238"/>
    <path d="M28.1711 108.986C28.7324 107.232 29.6797 105.68 30.0568 103.917C30.8637 100.119 29.0131 95.8389 30.8549 92.4183C32.1706 89.9888 34.9597 88.796 37.6084 87.9803C40.2572 87.1646 43.0814 86.4805 45.0548 84.5422C46.4932 83.1213 47.3177 81.1566 48.7561 79.7358C50.8084 77.701 53.8431 77.0081 56.7199 76.8326C59.6905 76.5456 62.6848 77.032 65.4117 78.2447C66.7658 78.8625 67.9556 79.7901 68.885 80.9526C69.8144 82.1151 70.4574 83.48 70.7619 84.9368C70.99 86.3577 70.8145 87.8575 71.2706 89.2345C71.7618 90.7431 72.9458 91.9184 73.6826 93.3305C74.4205 94.8469 74.6339 96.5655 74.2895 98.2164C73.945 99.8674 73.0621 101.357 71.7793 102.452L51.4487 128.712C47.1773 130.326 36.8278 128.378 33.53 125.203C30.2322 122.028 26.759 113.328 28.1711 108.986Z" fill="#263238"/>
    <path d="M71.2448 99.1191C70.3677 93.155 65.8683 86.1121 59.9481 87.1997L41.6698 93.3392C39.9156 93.6725 41.1611 96.6107 41.3365 98.4263L45.3097 139.649C45.3097 139.649 42.8363 141.403 41.9592 141.07C41.9093 141.052 41.8551 141.051 41.8043 141.066C41.7535 141.08 41.7086 141.111 41.6758 141.152C41.643 141.194 41.6239 141.244 41.6213 141.297C41.6186 141.35 41.6325 141.402 41.661 141.447C43.88 144.648 54.2207 158.567 64.9298 154.296C67.3155 153.34 64.6755 145.823 64.9298 143.043L64.6141 135.93C64.3773 132.299 64.2633 130.808 64.2633 130.843C64.2633 130.878 71.8237 128.984 72.6393 118.871C73.0516 113.863 72.1745 105.741 71.2448 99.1191Z" fill="#FFBF9D"/>
    <path d="M64.2635 130.86C59.5667 131.292 54.8423 130.411 50.6162 128.317C50.6162 128.317 54.5192 135.07 64.4389 133.369L64.2635 130.86Z" fill="#FF9A6C"/>
    <path d="M37.6267 94.7777C38.5038 93.3568 40.2053 92.6288 41.7841 92.0237C48.6023 89.391 55.7099 87.5802 62.9567 86.6296C63.8337 88.1119 63.0268 90.1379 61.6674 91.2168C60.3079 92.2956 58.5537 92.7253 56.9312 93.3305C55.3086 93.9357 53.6334 94.8829 52.958 96.488C52.2827 98.093 52.8528 100.207 52.2213 101.943C51.1425 104.943 46.9588 105.908 45.9151 108.899C45.1082 111.17 46.4238 113.582 46.7922 115.968C46.9606 117.179 46.8688 118.411 46.523 119.584C46.1772 120.756 45.5853 121.842 44.7867 122.767C43.9882 123.693 43.0014 124.437 41.8922 124.951C40.7831 125.465 39.5771 125.736 38.3547 125.747C37.8635 117.158 37.3694 108.574 36.8724 99.9963C36.7233 98.207 36.6532 96.2775 37.6267 94.7777Z" fill="#263238"/>
    <path d="M20.33 116.468C21.6895 115.249 23.391 114.196 23.926 112.459C24.7154 109.925 22.6806 106.951 23.9962 104.645C25.189 102.54 28.7061 102.654 29.82 100.505C30.6971 98.8209 29.6884 97.3386 30.013 95.8651C30.3375 94.3917 32.4425 93.1023 33.9335 93.2778L45.6337 110.267C46.7213 115.968 47.8176 119.037 46.5985 122.335C45.7921 124.111 45.1833 125.97 44.7829 127.878C44.5198 129.808 45.0197 131.992 46.5897 133.141C39.5731 133.693 33.0126 130.027 26.9432 126.475L20.5493 122.721C19.8494 122.386 19.2458 121.879 18.7951 121.248C17.8391 119.687 18.9793 117.678 20.33 116.468Z" fill="#263238"/>
    <path d="M26.7939 124.747C27.0388 124.826 27.2919 124.876 27.5482 124.896C28.2799 124.966 29.0181 124.913 29.7322 124.739C30.8719 124.466 31.9208 123.9 32.7756 123.098C33.9046 122.012 34.613 120.561 34.7753 119.003C34.8808 118.099 34.8032 117.183 34.5473 116.31C34.2328 115.379 33.7963 114.495 33.2492 113.679C32.6692 112.851 32.2168 111.94 31.9073 110.977C31.7429 110.485 31.6915 109.962 31.7568 109.448C31.8221 108.933 32.0024 108.44 32.2844 108.004C32.9159 107.127 34.1 106.943 35.2051 106.504C35.802 106.29 36.3212 105.902 36.6961 105.39C37.0414 104.843 37.2098 104.203 37.1785 103.557C37.0268 102.319 36.7596 101.097 36.3804 99.9086C36.2457 99.3316 36.2457 98.7314 36.3804 98.1544C36.5348 97.5726 36.8927 97.0654 37.389 96.7248C38.4563 96.1095 39.6654 95.783 40.8973 95.7776C42.1723 95.7354 43.4156 95.3703 44.5109 94.7163C45.5766 94.0667 46.4418 93.1347 47.0106 92.0237C47.4774 90.9569 47.7734 89.8233 47.8876 88.6645C48.0093 87.5917 48.2385 86.5339 48.5717 85.507C48.9411 84.5731 49.503 83.7274 50.2207 83.0249C51.5444 81.7687 53.2534 80.9961 55.0709 80.8322C56.5863 80.7026 58.1073 81.0068 59.4563 81.7093C60.4709 82.2284 61.3855 82.9233 62.1577 83.7616C62.803 84.4933 63.3621 85.2967 63.8241 86.156C63.8241 86.156 63.8241 86.0946 63.7627 85.9718C63.6907 85.7977 63.6087 85.6278 63.5171 85.4631C63.1822 84.8264 62.773 84.2317 62.298 83.6915C61.5264 82.8194 60.6058 82.0918 59.5791 81.5426C58.2159 80.7933 56.6669 80.4494 55.1147 80.5515C53.21 80.691 51.411 81.4806 50.0189 82.7881C49.2519 83.5289 48.6536 84.4264 48.2648 85.4193C47.917 86.4652 47.6761 87.5437 47.5456 88.6382C47.4239 89.7589 47.1279 90.8538 46.6685 91.8833C46.1337 92.9186 45.3272 93.7888 44.3355 94.4006C43.2905 95.0135 42.1083 95.3543 40.8973 95.3916C39.5776 95.3888 38.2812 95.7402 37.1434 96.4091C36.5743 96.7963 36.1633 97.3753 35.9857 98.0404C35.832 98.6892 35.832 99.365 35.9857 100.014C36.3571 101.18 36.6214 102.378 36.7751 103.592C36.8112 104.156 36.6702 104.718 36.3716 105.197C36.0328 105.642 35.573 105.98 35.0472 106.171C34.5298 106.39 33.9684 106.539 33.4246 106.767C32.8584 106.981 32.359 107.341 31.9775 107.811C31.6677 108.295 31.4692 108.842 31.3964 109.413C31.3236 109.983 31.3783 110.562 31.5565 111.109C31.8849 112.102 32.3577 113.042 32.9598 113.898C33.494 114.673 33.9218 115.517 34.2316 116.406C34.4801 117.236 34.5635 118.106 34.4771 118.967C34.3334 120.467 33.6694 121.87 32.6002 122.932C31.7818 123.724 30.7728 124.292 29.6708 124.581C28.7323 124.826 27.7545 124.882 26.7939 124.747Z" fill="#465867"/>
    <path d="M17.4451 112.67C17.3304 112.842 17.2527 113.036 17.2171 113.24C17.1005 113.841 17.2064 114.465 17.5153 114.994C17.7293 115.372 18.0299 115.694 18.3924 115.933C18.8442 116.206 19.3642 116.346 19.8922 116.336C20.5338 116.322 21.1593 116.132 21.7006 115.787C22.2418 115.442 22.6781 114.956 22.9619 114.38C23.2956 113.72 23.4669 112.989 23.4619 112.249C23.4407 111.454 23.2742 110.669 22.9707 109.933C22.4182 108.416 21.4008 106.934 21.3832 105.162C21.35 104.726 21.4052 104.287 21.5453 103.873C21.6855 103.459 21.9078 103.077 22.1989 102.75C22.91 102.163 23.8238 101.879 24.7424 101.961C25.7647 102.035 26.7921 101.929 27.7771 101.645C28.2932 101.435 28.7293 101.066 29.0225 100.593C29.3049 100.122 29.4814 99.5948 29.54 99.0489C29.5906 98.0014 29.5051 96.9519 29.2857 95.9265C29.1286 94.964 29.1855 93.9788 29.4523 93.0409C29.9494 91.2504 31.114 89.7186 32.7063 88.7608C34.2177 87.9909 35.8956 87.6053 37.5916 87.6381C39.0988 87.6415 40.5969 87.4047 42.0296 86.9364C43.1944 86.509 44.262 85.853 45.1695 85.0069C45.8645 84.3648 46.4562 83.6193 46.9237 82.7966C47.3351 82.1143 47.6175 81.3621 47.7569 80.5776C47.4958 81.3182 47.17 82.0343 46.7833 82.7177C45.6784 84.5618 43.9763 85.973 41.9594 86.7172C40.5388 87.1518 39.0596 87.3648 37.574 87.3487C35.8288 87.2995 34.0987 87.6853 32.5396 88.4713C30.8652 89.4532 29.6291 91.0376 29.0839 92.9006C28.8033 93.8898 28.7404 94.9281 28.8998 95.944C29.1051 96.9359 29.1904 97.9489 29.1541 98.9612C29.1334 99.4424 28.9809 99.9087 28.7133 100.309C28.4458 100.71 28.0734 101.029 27.6368 101.233C26.6995 101.499 25.7226 101.597 24.7512 101.522C23.7339 101.433 22.7225 101.748 21.9358 102.399C21.6145 102.765 21.3711 103.192 21.2203 103.655C21.0695 104.118 21.0145 104.607 21.0587 105.092C21.0974 106.003 21.315 106.897 21.699 107.723C22.041 108.513 22.4182 109.249 22.7076 109.986C23.0019 110.684 23.1683 111.43 23.1988 112.187C23.2107 112.879 23.0606 113.564 22.7602 114.187C22.5057 114.725 22.1087 115.182 21.6123 115.51C21.116 115.838 20.5392 116.024 19.9448 116.047C19.4572 116.064 18.9744 115.946 18.5503 115.705C18.1872 115.493 17.885 115.191 17.6732 114.827C17.3657 114.339 17.2385 113.759 17.3136 113.187C17.3574 112.872 17.4715 112.679 17.4451 112.67Z" fill="#263238"/>
    <path d="M91.3208 116.854C91.5294 117.447 91.5294 118.093 91.3208 118.687C91.205 119.027 91.014 119.337 90.7619 119.594C90.5099 119.851 90.2032 120.047 89.8648 120.169C89.4135 120.302 88.9342 120.307 88.4803 120.183C88.0264 120.059 87.616 119.811 87.295 119.467C86.9266 119.062 86.7124 118.541 86.6898 117.994C86.6729 117.397 86.7651 116.803 86.9617 116.24C87.3301 115.056 88.0931 113.766 87.9791 112.214C87.9237 111.427 87.7048 110.66 87.3363 109.962C86.9678 109.264 86.4579 108.651 85.839 108.162C85.191 107.643 84.4497 107.253 83.6551 107.013C82.8434 106.788 82.0064 106.667 81.1642 106.653C80.3481 106.646 79.5345 106.561 78.7347 106.399C77.9881 106.245 77.3201 105.832 76.849 105.232C76.4318 104.617 76.1977 103.897 76.1737 103.154C76.1346 102.43 76.1936 101.704 76.3491 100.996C76.7341 99.6604 76.9463 98.281 76.9806 96.8914C76.9099 95.6576 76.4733 94.4728 75.7263 93.4883C75.0947 92.707 74.321 92.0523 73.4459 91.5587C72.8066 91.1804 72.1941 90.7584 71.6129 90.2957C71.1362 89.8876 70.7481 89.3861 70.4727 88.8223C70.4727 88.8223 70.4727 88.8223 70.4727 88.9451C70.5073 89.0637 70.5543 89.1784 70.613 89.2871C70.8317 89.7134 71.1294 90.0944 71.4901 90.4098C72.0586 90.9047 72.6657 91.3534 73.3056 91.7517C74.1424 92.2494 74.8798 92.8977 75.4808 93.6637C76.176 94.6075 76.5731 95.7377 76.621 96.9089C76.5689 98.2671 76.3479 99.6135 75.9632 100.917C75.7935 101.659 75.7256 102.42 75.7614 103.18C75.7941 103.999 76.0554 104.792 76.5157 105.469C77.0386 106.146 77.7844 106.615 78.6207 106.794C79.4435 106.962 80.2805 107.054 81.1204 107.065C81.9322 107.076 82.7395 107.188 83.5235 107.399C84.2678 107.63 84.9634 107.996 85.5759 108.478C86.1524 108.932 86.6285 109.501 86.9741 110.149C87.3198 110.796 87.5276 111.508 87.5844 112.24C87.7072 113.652 87.0055 114.871 86.6196 116.143C86.4169 116.753 86.3277 117.395 86.3565 118.038C86.3947 118.651 86.646 119.231 87.0669 119.678C87.4272 120.055 87.8864 120.324 88.392 120.452C88.8977 120.581 89.4293 120.565 89.9262 120.406C90.2892 120.265 90.6153 120.043 90.8797 119.758C91.1442 119.472 91.34 119.13 91.4523 118.757C91.6114 118.3 91.6357 117.807 91.5225 117.336C91.4844 117.165 91.4161 117.001 91.3208 116.854Z" fill="#263238"/>
    <path d="M82.7472 185.888V176.188C83.8348 170.741 83.3173 164.286 80.7826 159.313C78.9437 156.107 76.911 153.017 74.6957 150.06L65.0478 137.526C59.7328 141.394 51.4093 138.596 44.2699 136C44.2699 136 37.2533 139.903 33.9379 143.569C30.491 147.428 42.2789 195.711 42.2789 195.711C36.9375 206.394 30.0437 215.884 29 225.62L84.7821 227.769L82.4139 202.193L82.7472 185.888Z" fill="url(#paint3_linear_1843_63017)"/>
    <path d="M82.1639 202.132C82.1085 201.769 82.0938 201.401 82.1201 201.035C82.1201 200.237 82.1201 199.281 82.1201 198.062C82.1639 195.431 82.2166 192.037 82.278 188.256C82.3393 184.476 82.4534 180.959 82.5762 178.451C82.6375 177.197 82.699 176.179 82.7516 175.477C82.7577 175.114 82.8047 174.752 82.8919 174.399C82.9274 174.76 82.9274 175.125 82.8919 175.486C82.8919 176.284 82.8919 177.24 82.8919 178.46C82.848 181.091 82.7867 184.485 82.7253 188.265C82.6639 192.045 82.5586 195.563 82.4358 198.071C82.3744 199.325 82.313 200.343 82.2516 201.044C82.2654 201.409 82.2359 201.774 82.1639 202.132Z" fill="#263238"/>
    <path d="M107.643 210.955C107.643 210.955 113.081 211.253 116.414 213.358C119.747 215.463 125.185 218.743 127.421 222.804C128.447 224.673 125.527 225.067 124.08 223.988C122.632 222.91 120.431 220.857 119.335 220.612L118.238 220.357C119.239 222.623 120.354 224.836 121.58 226.988C122.711 228.742 123.694 231.654 120.291 231.786C120.291 231.786 118.001 234.768 115.686 232.557C115.686 232.557 113.879 235.268 110.967 231.514C110.967 231.514 109.266 233.663 108.564 232.838C107.862 232.014 105.538 230.716 104.863 228.032C103.849 224.908 102.679 221.837 101.354 218.831L107.643 210.955Z" fill="#FFBF9D"/>
    <path d="M229.391 135.579C229.996 135.579 254.896 132.948 254.896 132.948C254.896 132.948 257.01 122.827 256.896 120.195C256.782 117.564 255.01 100.154 255.01 100.154L264.333 95.7688C264.333 95.7688 276.797 137.798 274.078 141.289C271.359 144.78 266.245 147.911 265.807 147.929C265.368 147.946 241.679 158.453 225.198 152.989C208.718 147.525 229.391 135.579 229.391 135.579Z" fill="#FFBF9D"/>
    <path d="M207.568 158.269C211.235 161.909 217.549 164.935 228.092 162.304C248.931 157.094 264.552 152.656 270.762 149.323C276.971 145.99 274.551 131.097 275.077 130.422C276.647 128.387 274.919 124.019 272.682 123.335C266.306 121.406 255.211 122.169 254.65 122.748C251.378 126.186 254.36 130.361 254.36 130.361L226.882 133.965C223.503 133.807 220.118 134.022 216.786 134.606" fill="url(#paint4_linear_1843_63017)"/>
    <path d="M142.387 163.17L131.195 143.061L342.895 25.2298C345.334 23.8723 348.213 23.5392 350.897 24.304C353.582 25.0687 355.853 26.8685 357.21 29.3076L358.17 31.0319C359.528 33.4709 359.861 36.3494 359.096 39.0339C358.331 41.7185 356.531 43.9894 354.092 45.3469L142.392 163.178L142.387 163.17Z" fill="url(#paint5_linear_1843_63017)"/>
    <path fill-rule="evenodd" clip-rule="evenodd" d="M301.734 24.1677L293.986 10.2478C293.861 10.0223 293.781 9.77438 293.751 9.51809C293.722 9.2618 293.743 9.00217 293.813 8.75404C293.884 8.50591 294.003 8.27413 294.163 8.07194C294.324 7.86974 294.522 7.7011 294.747 7.57563L306.641 0.955522C306.867 0.830047 307.115 0.750195 307.371 0.720541C307.627 0.690887 307.887 0.711999 308.135 0.782681C308.383 0.853363 308.615 0.972234 308.817 1.13249C309.019 1.29275 309.188 1.49126 309.314 1.71669L335.235 48.2887L319.908 56.8198L313.43 45.1814L299.04 53.1908L303.133 60.5446C303.897 61.9159 303.404 63.6463 302.032 64.4096L291.671 70.1766C290.3 70.9399 288.569 70.447 287.806 69.0756L268.914 35.1333C268.151 33.762 268.644 32.0315 270.015 31.2683L280.376 25.5013C281.747 24.738 283.478 25.2309 284.241 26.6023L287.344 32.177L301.734 24.1677Z" fill="url(#paint6_linear_1843_63017)"/>
    <path d="M56.6501 202.018C72.262 230.084 105.179 241.486 130.175 227.585C155.172 213.683 162.803 179.652 147.191 151.621C131.579 123.59 98.6708 112.153 73.6653 126.054C48.6599 139.956 41.0469 173.986 56.6501 202.018ZM133.649 159.164C144.586 178.81 139.244 202.641 121.72 212.385C104.196 222.129 81.138 214.139 70.2009 194.475C59.2638 174.811 64.6052 150.998 82.1204 141.245C99.6356 131.492 122.711 139.517 133.649 159.164Z" fill="url(#paint7_linear_1843_63017)"/>
    <path d="M166.83 122.984L178.381 143.737C179.917 146.496 183.399 147.488 186.159 145.952L187.094 145.432C189.853 143.896 190.845 140.414 189.309 137.654L177.758 116.901C176.222 114.141 172.74 113.149 169.98 114.685L169.045 115.206C166.286 116.742 165.294 120.224 166.83 122.984Z" fill="url(#paint8_linear_1843_63017)"/>
    <path d="M189.014 110.635L200.566 131.388C202.102 134.148 205.584 135.14 208.343 133.604L209.278 133.083C212.038 131.548 213.03 128.065 211.494 125.306L199.943 104.553C198.407 101.793 194.925 100.801 192.165 102.337L191.23 102.857C188.47 104.393 187.479 107.876 189.014 110.635Z" fill="url(#paint9_linear_1843_63017)"/>
    <path d="M252.739 79.1919C253.76 79.3122 254.789 79.048 255.626 78.4509C256.464 77.8538 257.049 76.9665 257.267 75.9618C257.486 74.957 257.324 73.9068 256.811 73.0155C256.298 72.1243 255.471 71.4558 254.493 71.1404C255.125 70.4926 255.538 69.6622 255.673 68.7669C255.807 67.8715 255.657 66.9565 255.243 66.1513C254.828 65.3462 254.171 64.6917 253.365 64.2806C252.558 63.8695 251.642 63.7226 250.748 63.8606C250.711 62.9701 250.444 62.1042 249.974 61.3472C249.503 60.5902 248.845 59.9678 248.063 59.5405C247.28 59.1132 246.401 58.8956 245.51 58.9087C244.619 58.9219 243.746 59.1654 242.977 59.6156C241.974 58.7955 240.725 58.3345 239.43 58.3059C238.134 58.2773 236.867 58.6827 235.828 59.4577C234.956 59.2912 234.053 59.4102 233.254 59.7972C232.455 60.1842 231.801 60.8184 231.391 61.606C230.98 62.3935 230.834 63.2924 230.975 64.1694C231.116 65.0463 231.535 65.8545 232.171 66.4743" fill="#263238"/>
    <path d="M234.942 63.5449H235.82C240.242 63.5486 244.501 65.2176 247.748 68.2195C250.995 71.2214 252.993 75.3361 253.344 79.7445C254.001 88.2434 254.615 97.6369 254.545 102.198C254.378 111.67 244.959 113.073 244.959 113.073L245.722 124.423L222.804 123.677L220.9 82.5424C220.094 72.7279 225.119 64.0887 234.942 63.5449Z" fill="#FFBF9D"/>
    <path d="M245.038 113.073C240.653 113.061 236.364 111.792 232.68 109.416C232.68 109.416 235.714 116.564 245.134 115.74L245.038 113.073Z" fill="#FF9A6C"/>
    <path d="M252.449 75.4469C252.449 75.4469 249.976 69.5266 247.125 68.1408C243.678 66.4568 242.187 70.237 238.898 69.3073C235.609 68.3776 232.32 66.7726 228.952 69.3073C225.268 72.0789 226.987 74.0348 226.742 78.2272C225.777 95.2074 222.655 99.9962 221.804 91.9973C221.707 91.1202 219.278 90.4186 218.927 86.7348C218.471 81.9372 218.304 76.1047 219.392 72.7016C220.269 69.8336 221.944 67.8514 224.883 65.685C229.531 62.2469 235.899 62.1767 240.223 62.6416C244.547 63.1064 252.861 68.0443 252.449 75.4469Z" fill="#263238"/>
    <path d="M222.4 91.7341C222.39 91.3876 222.31 91.0467 222.165 90.732C222.02 90.4173 221.812 90.1353 221.554 89.9033C221.297 89.6712 220.995 89.4938 220.667 89.3819C220.339 89.2699 219.992 89.2257 219.646 89.252C217.892 89.4186 215.918 90.4097 216.024 94.0496C216.208 100.505 222.654 98.9875 222.663 98.7946C222.672 98.6016 222.505 94.4355 222.4 91.7341Z" fill="#FFBF9D"/>
    <path d="M221.181 96.4089C221.181 96.4089 221.076 96.4966 220.883 96.5844C220.621 96.7046 220.323 96.7203 220.049 96.6282C219.623 96.3762 219.273 96.0147 219.034 95.5813C218.795 95.1479 218.676 94.6584 218.69 94.1636C218.656 93.6128 218.746 93.0614 218.953 92.5498C219.009 92.3476 219.113 92.162 219.257 92.0091C219.4 91.8563 219.579 91.7408 219.778 91.6727C219.906 91.6336 220.044 91.6412 220.168 91.6941C220.292 91.7471 220.393 91.842 220.453 91.9622C220.541 92.1376 220.506 92.2691 220.541 92.2779C220.576 92.2867 220.672 92.1639 220.611 91.9008C220.576 91.7407 220.482 91.5997 220.348 91.5061C220.259 91.441 220.158 91.3942 220.051 91.3686C219.944 91.343 219.833 91.3391 219.725 91.357C219.461 91.4165 219.216 91.5429 219.015 91.7242C218.814 91.9054 218.663 92.1354 218.576 92.3919C218.315 92.957 218.198 93.5775 218.234 94.1987C218.313 95.4968 219.015 96.6984 219.988 96.944C220.162 96.9897 220.344 96.9954 220.52 96.9604C220.696 96.9255 220.862 96.8509 221.005 96.7422C221.181 96.5668 221.207 96.4089 221.181 96.4089Z" fill="#FF9A6C"/>
    <path d="M222.567 79.2271C223.357 79.8708 224.294 80.3079 225.295 80.4989C225.797 80.5777 226.311 80.4718 226.742 80.2009C227.172 79.9301 227.49 79.5125 227.637 79.0254C227.716 78.5781 227.637 78.0519 227.9 77.7098C228.163 77.3677 228.908 77.4291 229.443 77.4905C231.32 77.6923 233.522 75.6224 234.004 73.798C234.248 74.1479 234.616 74.3917 235.033 74.4797C235.45 74.5677 235.885 74.4933 236.249 74.2717C236.846 73.9071 237.374 73.4411 237.811 72.8947C238.065 72.5467 238.399 72.2653 238.786 72.0744C239.172 71.8835 239.599 71.7888 240.03 71.7983C240.484 71.9552 240.955 72.0582 241.433 72.1053C242.31 72.0351 242.696 71.044 242.828 70.202C242.959 69.36 243.064 68.3865 243.784 67.9304C244.522 67.6412 245.338 67.6195 246.09 67.869C246.871 67.9918 247.844 67.8076 248.081 67.0446C248.113 66.8406 248.104 66.6323 248.055 66.432C248.005 66.2316 247.916 66.0433 247.792 65.878C247.27 65.0957 246.499 64.5125 245.605 64.2228C244.71 63.933 243.744 63.9538 242.863 64.2818C242.552 63.2023 241.928 62.2397 241.068 61.5166C240.209 60.7934 239.154 60.3425 238.037 60.2211C236.92 60.0998 235.793 60.3135 234.798 60.8352C233.804 61.3569 232.987 62.1628 232.452 63.1503C231.769 62.5247 230.944 62.0736 230.049 61.8354C229.154 61.5971 228.215 61.5789 227.311 61.7822C226.407 61.9855 225.566 62.4044 224.859 63.003C224.152 63.6016 223.601 64.3623 223.251 65.2202C222.462 65.0096 221.628 65.0359 220.853 65.2957C220.078 65.5555 219.397 66.0375 218.894 66.6816C218.391 67.3257 218.088 68.1035 218.024 68.9181C217.96 69.7328 218.137 70.5483 218.533 71.2633C217.932 71.5601 217.416 72.0048 217.034 72.5555C216.652 73.1063 216.416 73.7451 216.349 74.412C216.349 75.7451 217.62 77.0432 218.91 76.7275C218.642 77.2528 218.586 77.8606 218.753 78.426C218.92 78.9914 219.296 79.4715 219.806 79.7679C220.315 80.0642 220.919 80.1542 221.493 80.0194C222.067 79.8846 222.567 79.5352 222.892 79.043" fill="#263238"/>
    <path d="M243.336 66.1763C243.336 66.1763 243.336 66.1763 243.336 66.2991C243.336 66.4219 243.336 66.492 243.292 66.6411C243.201 67.0788 243.041 67.4993 242.818 67.8866C242.462 68.4935 241.973 69.0122 241.388 69.4039C240.615 69.9311 239.692 70.1928 238.757 70.1494L238.862 70.0091C239.052 70.5882 239.005 71.2189 238.731 71.7632C238.441 72.3403 238.069 72.8721 237.626 73.342C237.411 73.616 237.167 73.8659 236.898 74.0875C236.421 74.4014 235.848 74.5358 235.281 74.4667C234.714 74.3976 234.19 74.1296 233.802 73.7104L234.039 73.6402C233.948 74.3104 233.718 74.9541 233.363 75.5298C233.008 76.1054 232.536 76.6001 231.977 76.9818C231.364 77.4378 230.619 77.6811 229.855 77.6747C229.138 77.6356 228.433 77.4786 227.767 77.2099L227.943 77.1309C227.605 77.912 227.077 78.5963 226.408 79.1219C226.102 79.3836 225.742 79.5738 225.354 79.6785C224.965 79.7832 224.558 79.7998 224.163 79.7271C223.484 79.5795 222.864 79.2369 222.378 78.7414C221.892 78.2459 221.561 77.619 221.426 76.938L221.575 77.0082C220.893 77.3616 220.11 77.473 219.356 77.3239C218.795 77.2168 218.266 76.9795 217.813 76.631C217.531 76.4098 217.288 76.143 217.093 75.8417C217.022 75.737 216.969 75.6215 216.936 75.4996C217.181 75.9029 217.499 76.2569 217.874 76.5433C218.321 76.8666 218.838 77.0799 219.383 77.166C220.099 77.3016 220.84 77.1838 221.479 76.8327L221.602 76.7626V76.9029C221.734 77.5368 222.049 78.1182 222.507 78.5762C222.965 79.0341 223.546 79.3487 224.18 79.4815C224.542 79.5447 224.913 79.5263 225.266 79.4276C225.62 79.329 225.947 79.1526 226.224 78.9114C226.852 78.4118 227.346 77.7638 227.662 77.0257L227.715 76.9117H227.838C228.472 77.167 229.145 77.3152 229.829 77.3502C230.536 77.3559 231.225 77.1312 231.793 76.71C232.319 76.3492 232.763 75.8829 233.099 75.3408C233.434 74.7986 233.652 74.1926 233.74 73.5612V73.2543L233.942 73.4911C234.17 73.7431 234.457 73.9355 234.776 74.0516C235.095 74.1678 235.438 74.2042 235.775 74.1577C236.089 74.1158 236.39 74.0017 236.652 73.8244C236.906 73.6202 237.135 73.3878 237.336 73.1315C237.77 72.684 238.136 72.1758 238.424 71.6229C238.553 71.3767 238.632 71.1072 238.656 70.8301C238.68 70.553 238.649 70.274 238.564 70.0091L238.512 69.8512H238.678C239.574 69.9068 240.464 69.6698 241.213 69.1759C241.788 68.8053 242.274 68.3109 242.634 67.7287C242.958 67.2568 243.195 66.7312 243.336 66.1763Z" fill="#465867"/>
    <path d="M290.891 345.604L297.118 366.82C297.118 366.82 320.799 367.61 322.317 371.425L281.568 384.967L270.499 352.296L290.891 345.604Z" fill="#465867"/>
    <path d="M283.945 369.25C283.593 369.5 283.346 369.871 283.251 370.291C283.155 370.712 283.218 371.153 283.427 371.53C283.663 371.891 284.028 372.147 284.448 372.247C284.867 372.347 285.308 372.281 285.681 372.065C286.054 371.799 286.315 371.405 286.414 370.958C286.513 370.511 286.442 370.043 286.216 369.645C285.931 369.293 285.52 369.066 285.07 369.01C284.621 368.955 284.167 369.075 283.804 369.346" fill="#E0E0E0"/>
    <path d="M320.018 369.89C320.018 369.89 322.097 370.074 322.316 371.425L281.567 384.967L280.585 381.625L319.983 369.873" fill="#263238"/>
    <path d="M297.706 366.391C297.767 366.592 296.829 367.013 296.039 367.978C295.25 368.943 295.03 369.952 294.82 369.934C294.609 369.916 294.531 368.671 295.478 367.522C296.425 366.373 297.688 366.198 297.706 366.391Z" fill="white"/>
    <path d="M302.565 366.733C302.679 366.917 301.933 367.539 301.53 368.601C301.126 369.662 301.24 370.627 301.038 370.679C300.837 370.732 300.337 369.653 300.854 368.338C301.372 367.022 302.503 366.548 302.565 366.733Z" fill="white"/>
    <path d="M306.696 371.039C306.529 371.144 305.924 370.241 306.073 368.987C306.222 367.732 307.003 366.978 307.143 367.119C307.284 367.259 306.898 367.996 306.792 369.066C306.687 370.136 306.889 370.934 306.696 371.039Z" fill="white"/>
    <path d="M295.75 361.716C295.75 361.926 294.724 361.953 293.628 362.4C292.531 362.847 291.768 363.496 291.611 363.365C291.453 363.233 292.058 362.242 293.365 361.725C294.671 361.207 295.803 361.523 295.75 361.716Z" fill="white"/>
    <path d="M195.869 345.788L187.002 366.049C187.002 366.049 204.622 381.836 203.35 385.765L163.443 369.978L175.959 337.842L195.869 345.788Z" fill="#465867"/>
    <path d="M175.345 359.444C174.916 359.41 174.489 359.536 174.146 359.796C173.803 360.056 173.568 360.434 173.486 360.856C173.437 361.284 173.553 361.715 173.81 362.061C174.068 362.406 174.447 362.64 174.871 362.716C175.327 362.749 175.779 362.614 176.142 362.336C176.504 362.058 176.751 361.656 176.836 361.207C176.836 360.33 176.038 359.33 175.178 359.453" fill="#E0E0E0"/>
    <path d="M202.57 383.117C202.57 383.117 204.043 384.599 203.35 385.748L163.443 369.96L164.838 366.777L202.552 383.09" fill="#263238"/>
    <path d="M187.72 366.101C187.642 366.294 186.633 365.996 185.423 366.241C184.212 366.487 183.379 367.119 183.23 366.961C183.081 366.803 183.817 365.803 185.282 365.531C186.747 365.259 187.843 365.934 187.72 366.101Z" fill="white"/>
    <path d="M191.229 369.487C191.229 369.688 190.229 369.688 189.238 370.25C188.247 370.811 187.72 371.609 187.484 371.53C187.247 371.451 187.606 370.294 188.843 369.618C190.08 368.943 191.299 369.303 191.229 369.487Z" fill="white"/>
    <path d="M191.633 375.433C191.44 375.433 191.554 374.328 192.51 373.46C193.466 372.591 194.509 372.521 194.527 372.714C194.544 372.907 193.755 373.258 193.01 373.986C192.264 374.714 191.834 375.495 191.633 375.433Z" fill="white"/>
    <path d="M189.238 361.286C189.089 361.426 188.3 360.812 187.168 360.409C186.037 360.006 185.046 360.058 185.011 359.856C184.976 359.655 186.072 359.278 187.396 359.716C188.721 360.155 189.396 361.146 189.238 361.286Z" fill="white"/>
    <path d="M210.805 234.487L196.824 291.199C196.824 291.199 171.608 333.649 167.337 354.892L190.404 363.961C190.404 363.961 207.182 323.045 212.103 315.538C214.317 312.173 216.861 309.038 219.698 306.179C221.543 304.349 222.866 302.06 223.531 299.549L234.118 259.089L210.805 234.487Z" fill="#263238"/>
    <path d="M204.85 225.418C204.85 225.418 206.797 240.609 221.418 247.345L252.221 297.514C252.221 297.514 254.632 313.827 259.237 327.571C263.842 341.315 273.148 367.803 273.148 367.803L298.486 358.33L282.339 303.127L279.708 283.98L254.571 219.954L232.977 207.008L204.85 225.418Z" fill="#263238"/>
    <path d="M204.85 225.418L205.314 225.102L206.709 224.173L212.182 220.559L232.934 206.921L233.004 206.877L233.074 206.921L254.685 219.84V219.893L279.875 283.858V283.902C280.708 289.953 281.629 296.435 282.506 303.048C286.891 317.958 291.54 333.912 296.346 350.349C297.124 352.998 297.896 355.629 298.662 358.243L298.723 358.444L298.521 358.514L273.183 367.987L272.963 368.066L272.893 367.847C268.508 355.12 264.263 342.867 260.255 331.246C259.246 328.343 258.255 325.466 257.43 322.589C256.606 319.713 255.86 316.853 255.185 314.029C253.852 308.381 252.782 302.864 251.94 297.514V297.584L221.312 247.398L221.365 247.441C217.661 245.709 214.371 243.203 211.717 240.092C209.772 237.807 208.176 235.248 206.981 232.496C206.241 230.797 205.654 229.036 205.227 227.234C205.078 226.637 204.99 226.172 204.937 225.857C204.885 225.541 204.876 225.383 204.876 225.383C204.876 225.383 204.876 225.541 204.972 225.848C205.069 226.155 205.122 226.62 205.288 227.225C205.741 229.004 206.345 230.741 207.095 232.417C208.305 235.141 209.907 237.673 211.849 239.934C214.512 243.013 217.801 245.488 221.497 247.196L252.361 297.33V297.373C253.238 302.706 254.29 308.214 255.624 313.854C256.299 316.669 257.036 319.52 257.869 322.388C258.702 325.256 259.684 328.115 260.693 331.018C264.719 342.639 268.955 354.892 273.358 367.61L273.069 367.478L298.407 358.006L298.267 358.278C297.507 355.664 296.735 353.033 295.952 350.384L282.129 303.074C281.252 296.461 280.322 289.98 279.498 283.928V283.98L254.404 219.954L254.475 220.033L232.899 207.061H233.03L212.278 220.638L206.753 224.199L205.332 225.12L204.85 225.418Z" fill="#465867"/>
    <path d="M218.418 117.038C218.418 117.038 211.033 122.721 207.446 129.071C203.148 136.675 202.683 147.946 202.552 165.452C202.42 181.643 204.841 186.143 203.911 192.247C202.078 204.166 200.719 244.17 200.719 244.17C200.719 244.17 224.4 235.075 228.996 231.014L233.618 226.997L263.254 236.794L257.273 200.377L253.168 154.989L247.905 130.913L247.028 121.467L221.576 111.24L218.418 117.038Z" fill="url(#paint10_linear_1843_63017)"/>
    <path d="M246.073 120.967C246.38 121.028 245.345 123.107 243.52 126.159L243.441 126.282L243.301 126.23C240.731 125.23 237.328 123.975 233.609 122.616C229.417 121.09 225.628 119.669 222.918 118.564C221.558 118.011 220.471 117.546 219.725 117.204C219.329 117.051 218.948 116.863 218.585 116.643C219.001 116.736 219.407 116.871 219.795 117.047L223.032 118.266L233.767 122.186C237.486 123.546 240.88 124.817 243.415 125.905L243.204 125.975C245.117 122.984 246.248 121.011 246.073 120.967Z" fill="#EF7100"/>
    <path d="M276.7 102.057C276.7 102.057 274.823 99.1368 273.051 96.4441C271.28 93.7515 268.596 92.4271 268.166 91.0238C267.736 89.6205 265.377 83.3669 265 81.8145C264.672 80.311 264.519 78.7747 264.544 77.2362C264.544 77.2362 266.482 76.4117 267.412 79.1833C267.973 80.8497 269.762 86.5069 270.148 86.7875C270.534 87.0682 271.025 86.656 271.025 86.656C270.229 84.5378 269.541 82.3803 268.964 80.1919C268.876 79.1657 269.236 72.3596 269.236 72.3596C269.717 72.2627 270.217 72.3412 270.645 72.5809C271.072 72.8207 271.4 73.2058 271.569 73.6665C272.49 75.4206 272.525 79.806 272.525 79.806L273.92 84.7001L273.428 79.8586L274.13 70.9563C274.811 71.0535 275.446 71.3581 275.949 71.8289C276.451 72.2997 276.796 72.9138 276.937 73.5875C277.524 75.9907 276.744 79.3411 277.138 80.0516C277.533 80.762 277.963 85.0597 277.963 85.0597C277.963 85.0597 278.445 74.6225 279.559 74.3243C280.673 74.0261 281.585 75.1312 281.427 77.2362C281.269 79.3411 281.226 83.7967 281.804 85.7613C282.383 87.726 288.321 95.4092 287.839 98.7772C287.543 100.812 287.359 102.862 287.286 104.917H277.112L276.7 102.057Z" fill="#FFBF9D"/>
    <path d="M241.012 128.343C241.582 128.562 265.886 134.579 265.886 134.579C265.886 134.579 271.315 125.808 272.113 123.265C272.911 120.721 277.182 103.776 277.182 103.776L287.453 102.812C287.453 102.812 284.822 146.569 281.103 148.928C277.384 151.288 271.455 152.48 271.069 152.349C270.683 152.217 244.801 154.015 231.162 143.271C217.524 132.527 241.012 128.343 241.012 128.343Z" fill="#FFBF9D"/>
    <g opacity="0.3">
        <path d="M223.593 151.507C226.201 154.46 229.682 156.505 233.53 157.348C239.977 158.769 253.703 161.286 253.703 161.286L253.036 154.55L223.216 151.358" fill="black"/>
    </g>
    <path d="M212.77 142.245C214.98 146.911 219.891 151.893 230.688 153.024C252.063 155.235 268.245 156.41 275.235 155.357C282.225 154.305 285.006 139.509 285.76 139.052C287.935 137.684 287.795 132.983 285.918 131.58C280.585 127.589 269.894 124.563 269.174 124.888C264.92 127.001 266.306 131.948 266.306 131.948L239.205 125.967C236.083 124.668 232.826 123.721 229.495 123.142" fill="url(#paint11_linear_1843_63017)"/>
    <path d="M229.496 123.142C229.496 123.142 229.724 123.142 230.162 123.23C230.601 123.318 231.258 123.423 232.1 123.607C234.545 124.162 236.939 124.919 239.257 125.87L266.341 131.764L266.113 132.01C265.712 130.455 265.836 128.812 266.464 127.335C266.811 126.578 267.334 125.917 267.99 125.405C268.323 125.146 268.678 124.917 269.052 124.721C269.18 124.683 269.313 124.662 269.446 124.66H269.771C269.99 124.66 270.183 124.73 270.394 124.765C273.726 125.553 276.977 126.654 280.103 128.054C281.75 128.772 283.342 129.61 284.865 130.562C285.242 130.808 285.62 131.08 285.997 131.343C286.387 131.639 286.705 132.02 286.926 132.457C287.354 133.318 287.576 134.267 287.575 135.228C287.598 136.202 287.381 137.165 286.944 138.035C286.702 138.484 286.36 138.871 285.944 139.167C285.839 139.219 285.769 139.447 285.681 139.658L285.453 140.315C284.874 142.07 284.295 143.947 283.594 145.753C282.675 148.344 281.329 150.763 279.612 152.91C278.989 153.726 278.195 154.396 277.286 154.872C276.377 155.347 275.374 155.618 274.349 155.664C273.691 155.761 273.034 155.778 272.385 155.831C269.753 155.989 267.227 155.954 264.728 155.884C262.228 155.813 259.781 155.682 257.404 155.533C247.87 154.919 239.319 154.05 232.144 153.305C230.43 153.155 228.726 152.909 227.04 152.568C225.543 152.248 224.076 151.802 222.654 151.235C220.351 150.34 218.24 149.012 216.436 147.323C215.31 146.246 214.341 145.014 213.559 143.666C213.279 143.203 213.036 142.719 212.831 142.219C212.831 142.219 213.077 142.719 213.638 143.622C214.448 144.937 215.431 146.137 216.559 147.192C218.361 148.844 220.463 150.136 222.751 150.998C224.175 151.548 225.641 151.979 227.136 152.288C228.818 152.61 230.516 152.841 232.223 152.98C239.398 153.691 247.949 154.524 257.465 155.121C259.851 155.261 262.289 155.384 264.78 155.445C267.271 155.506 269.823 155.542 272.402 155.392C273.042 155.331 273.7 155.313 274.34 155.217C274.98 155.183 275.611 155.062 276.217 154.857C277.429 154.39 278.499 153.616 279.322 152.612C281.002 150.507 282.319 148.135 283.216 145.595C283.918 143.841 284.488 141.991 285.067 140.184L285.313 139.5C285.313 139.395 285.4 139.281 285.453 139.158C285.485 139.09 285.523 139.025 285.567 138.965C285.6 138.923 285.639 138.884 285.681 138.851L285.742 138.798C286.106 138.546 286.407 138.213 286.619 137.825C287.029 137.01 287.228 136.105 287.198 135.193C287.201 134.306 287 133.43 286.611 132.632C286.419 132.256 286.147 131.926 285.813 131.668C285.435 131.413 285.076 131.141 284.699 130.904C283.197 129.959 281.625 129.129 279.998 128.422C276.907 127.029 273.691 125.931 270.394 125.142C270.192 125.142 269.99 125.054 269.797 125.037H269.508H269.315C268.969 125.221 268.641 125.436 268.332 125.677C267.721 126.138 267.231 126.74 266.903 127.431C266.322 128.819 266.202 130.356 266.561 131.817L266.64 132.124L266.333 132.053L239.292 126.002C236.995 125.035 234.625 124.249 232.206 123.651C231.329 123.449 230.723 123.309 230.285 123.221C229.846 123.134 229.496 123.142 229.496 123.142Z" fill="#FF9D44"/>
    <path d="M275.235 140.412C274.612 140.257 274.019 139.999 273.481 139.649C272.136 138.899 270.897 137.972 269.797 136.895C268.691 135.821 267.725 134.613 266.92 133.299C266.554 132.76 266.273 132.169 266.087 131.545C267.289 133.316 268.636 134.985 270.113 136.535C271.701 137.978 273.415 139.275 275.235 140.412Z" fill="#EF7100"/>
    <path d="M84.4185 212.648C84.4185 212.648 89.8564 212.937 93.1893 215.051C96.5222 217.165 101.96 220.428 104.197 224.497C105.223 226.365 102.302 226.76 100.864 225.673C99.4253 224.585 97.2063 222.55 96.1099 222.296L95.0136 222.05C96.0132 224.313 97.1286 226.524 98.3553 228.672C99.4867 230.426 100.469 233.338 97.0747 233.479C97.0747 233.479 94.7768 236.461 92.4613 234.25C92.4613 234.25 90.6545 236.952 87.7426 233.207C87.7426 233.207 86.0499 235.347 85.3395 234.531C84.629 233.715 82.3135 232.408 81.6382 229.725C80.6305 226.599 79.4594 223.527 78.1299 220.524L84.4185 212.648Z" fill="#FFBF9D"/>
    <path d="M38.1434 141.14C35.356 142.038 32.9502 143.844 31.311 146.271C29.2235 149.481 28.5832 155.042 29.1797 159.181C30.4426 167.908 34.4421 182.634 36.6962 192.089C37.468 195.352 39.0555 201.193 43.7128 204.289L76.9452 224.217L85.83 211.06L55.5358 186.371L49.5454 152.533L38.1434 141.14Z" fill="url(#paint12_linear_1843_63017)"/>
    <path d="M32.3994 174.399C32.445 174.509 32.4802 174.624 32.5047 174.741L32.7853 175.767C33.0221 176.697 33.3554 178.03 33.794 179.74C34.671 183.248 35.9165 188.23 37.4689 194.431C38.3702 197.809 40.2793 200.831 42.9419 203.097C44.4628 204.314 46.0889 205.394 47.8009 206.324L53.1423 209.552L77.0777 224.006L76.7707 224.076L79.972 219.331L85.6555 210.885L85.6993 211.192L55.677 186.467H55.6244V186.406C53.6422 178.065 52.2038 171.232 51.2916 166.479C50.8443 164.102 50.5286 162.251 50.3268 160.988C50.2391 160.374 50.169 159.892 50.1164 159.55C50.0637 159.208 50.055 159.059 50.055 159.059C50.1026 159.217 50.1407 159.378 50.169 159.541C50.2304 159.883 50.3181 160.357 50.4233 160.971C50.6601 162.225 51.0022 164.075 51.4934 166.444C52.4494 171.18 53.9404 177.995 55.9664 186.327L55.9051 186.23L85.98 210.841L86.1379 210.973L86.0239 211.139L80.3404 219.586L77.1391 224.331L77.025 224.506L76.8321 224.401L52.9318 209.903L47.5991 206.666C45.8758 205.727 44.2382 204.638 42.7051 203.412C39.9965 201.092 38.0648 197.997 37.1707 194.545C35.6709 188.327 34.4693 183.301 33.6624 179.819C33.2677 178.065 32.952 176.758 32.7327 175.828L32.4783 174.75C32.4438 174.635 32.4175 174.517 32.3994 174.399Z" fill="#263238"/>
    <path d="M32.9424 145.815C33.1487 145.679 33.3773 145.581 33.6177 145.525C34.2544 145.329 34.9054 145.182 35.5648 145.087C37.7647 144.747 40.0158 145.052 42.0464 145.964C44.009 146.987 45.6761 148.497 46.8879 150.349C47.2553 150.909 47.5501 151.513 47.765 152.147C47.8591 152.373 47.9126 152.613 47.9228 152.858C47.5438 152.052 47.107 151.276 46.616 150.533C45.3675 148.805 43.7341 147.391 41.8447 146.402C39.8851 145.534 37.7302 145.201 35.5999 145.437C33.9598 145.569 32.9687 145.894 32.9424 145.815Z" fill="#263238"/>
    <defs>
        <linearGradient id="paint0_linear_1843_63017" x1="451.985" y1="29.3555" x2="451.985" y2="130.693" gradientUnits="userSpaceOnUse">
            <stop stop-color="#EE575C"/>
            <stop offset="1" stop-color="#F67147"/>
        </linearGradient>
        <linearGradient id="paint1_linear_1843_63017" x1="447.455" y1="84.3743" x2="430.477" y2="165.855" gradientUnits="userSpaceOnUse">
            <stop stop-color="#465867"/>
            <stop offset="1" stop-color="#728594"/>
        </linearGradient>
        <linearGradient id="paint2_linear_1843_63017" x1="85.0709" y1="142" x2="85.0709" y2="222.723" gradientUnits="userSpaceOnUse">
            <stop stop-color="#465867"/>
            stop offset="1" stop-color="#728594"/>
        </linearGradient>
        <linearGradient id="paint3_linear_1843_63017" x1="56.891" y1="136" x2="56.891" y2="227.769" gradientUnits="userSpaceOnUse">
            <stop stop-color="#465867"/>
            <stop offset="1" stop-color="#728594"/>
        </linearGradient>
        <linearGradient id="paint4_linear_1843_63017" x1="241.625" y1="122.1" x2="241.625" y2="163.298" gradientUnits="userSpaceOnUse">
            <stop stop-color="#FF9D44"/>
            <stop offset="1" stop-color="#F5C58D"/>
        </linearGradient>
        <linearGradient id="paint5_linear_1843_63017" x1="136.793" y1="153.119" x2="357.69" y2="30.1697" gradientUnits="userSpaceOnUse">
            <stop stop-color="#EE575C"/>
            <stop offset="1" stop-color="#F67147"/>
        </linearGradient>
        <linearGradient id="paint6_linear_1843_63017" x1="301.895" y1="0.70752" x2="301.895" y2="70.5358" gradientUnits="userSpaceOnUse">
            <stop stop-color="#EE575C"/>
            <stop offset="1" stop-color="#F67147"/>
        </linearGradient>
        <linearGradient id="paint7_linear_1843_63017" x1="101.921" y1="120.139" x2="101.921" y2="233.506" gradientUnits="userSpaceOnUse">
            <stop stop-color="#EE575C"/>
            <stop offset="1" stop-color="#F67147"/>
        </linearGradient>
        <linearGradient id="paint8_linear_1843_63017" x1="172.605" y1="133.36" x2="183.534" y2="127.277" gradientUnits="userSpaceOnUse">
            <stop stop-color="#EE575C"/>
            <stop offset="1" stop-color="#F67147"/>
        </linearGradient>
        <linearGradient id="paint9_linear_1843_63017" x1="194.79" y1="121.012" x2="205.718" y2="114.929" gradientUnits="userSpaceOnUse">
            <stop stop-color="#EE575C"/>
            <stop offset="1" stop-color="#F67147"/>
        </linearGradient>
        <linearGradient id="paint10_linear_1843_63017" x1="231.987" y1="111.24" x2="231.987" y2="244.17" gradientUnits="userSpaceOnUse">
            <stop stop-color="#FF9D44"/>
            <stop offset="1" stop-color="#F5C58D"/>
        </linearGradient>
        <linearGradient id="paint11_linear_1843_63017" x1="250.064" y1="123.142" x2="250.064" y2="155.748" gradientUnits="userSpaceOnUse">
            <stop stop-color="#FF9D44"/>
            <stop offset="1" stop-color="#F5C58D"/>
        </linearGradient>
        <linearGradient id="paint12_linear_1843_63017" x1="57.3984" y1="141.14" x2="57.3984" y2="224.217" gradientUnits="userSpaceOnUse">
            <stop stop-color="#465867"/>
            <stop offset="1" stop-color="#728594"/>
        </linearGradient>
    </defs>
</svg>
