<svg width="839" height="259" viewBox="0 0 839 259" fill="none" xmlns="http://www.w3.org/2000/svg">
<path d="M47.2075 203.198L47.1636 203.205C45.9917 203.205 44.9883 202.897 44.146 202.29C43.3037 201.682 42.7324 200.927 42.4321 200.034L43.9702 199.572C44.2119 200.209 44.6221 200.737 45.2007 201.147C45.7793 201.557 46.4604 201.762 47.2515 201.762C47.9473 201.762 48.5186 201.594 48.9653 201.264C49.4121 200.935 49.6392 200.554 49.6392 200.122C49.6392 199.77 49.5146 199.477 49.2583 199.235C49.002 198.994 48.5771 198.781 47.9766 198.591L45.3398 197.749C43.7651 197.258 42.9814 196.401 42.9814 195.178C42.9814 194.387 43.3257 193.706 44.0142 193.142C44.7026 192.578 45.5669 192.292 46.6069 192.292C47.6763 192.292 48.5991 192.541 49.3755 193.039C50.1519 193.537 50.7012 194.16 51.0234 194.907L49.5073 195.361C49.2583 194.87 48.8848 194.475 48.3794 194.174C47.874 193.874 47.2881 193.728 46.6216 193.728C46.043 193.728 45.5669 193.867 45.1934 194.145C44.8198 194.423 44.6294 194.753 44.6294 195.134C44.6294 195.434 44.7393 195.683 44.9517 195.881C45.1641 196.079 45.5083 196.247 45.9771 196.386L48.5552 197.207C49.4634 197.492 50.1519 197.844 50.6133 198.261C51.0747 198.679 51.3091 199.257 51.3091 200.004C51.3091 200.905 50.9282 201.66 50.1665 202.275C49.4048 202.89 48.416 203.198 47.2075 203.198ZM56.978 201.469L57.3662 202.758C56.7949 203 56.2383 203.117 55.7036 203.117C54.9126 203.117 54.3193 202.89 53.9312 202.436C53.543 201.982 53.3452 201.352 53.3452 200.554V196.848H51.9683V195.456H53.3452V192.937H54.9053V195.456H57.3076V196.848H54.9053V200.554C54.9053 201.323 55.2642 201.711 55.9893 201.711C56.3188 201.711 56.6484 201.63 56.978 201.469ZM62.0464 203.198L62.061 203.212C60.8672 203.212 59.9004 202.846 59.1533 202.114C58.4062 201.381 58.0327 200.422 58.0327 199.243C58.0327 198.107 58.3916 197.163 59.1094 196.408C59.8271 195.654 60.7646 195.273 61.9146 195.273C63.1084 195.273 64.0459 195.632 64.7344 196.357C65.4229 197.082 65.7671 197.99 65.7671 199.089C65.7671 199.279 65.7524 199.492 65.7158 199.719H59.5854C59.6367 200.356 59.8784 200.869 60.3179 201.257C60.7573 201.645 61.3506 201.843 62.0903 201.843C63.1304 201.843 63.8481 201.44 64.2363 200.627L65.6719 201.052C65.4009 201.645 64.9541 202.15 64.3315 202.568C63.709 202.985 62.9473 203.198 62.0464 203.198ZM59.5854 198.679H64.2217C64.1704 198.078 63.9434 197.587 63.5405 197.207C63.1377 196.826 62.5957 196.635 61.9219 196.635C61.27 196.635 60.7354 196.833 60.3105 197.229C59.8857 197.624 59.644 198.107 59.5854 198.679ZM71.6411 195.258V195.266C72.7104 195.266 73.604 195.639 74.3218 196.394C75.0396 197.148 75.3984 198.093 75.3984 199.228C75.3984 200.363 75.0396 201.308 74.3218 202.062C73.604 202.817 72.7104 203.198 71.6411 203.198C70.4692 203.198 69.5684 202.751 68.9385 201.857V206.149H67.3638V195.456H68.9385V196.599C69.5684 195.705 70.4692 195.258 71.6411 195.258ZM71.3848 201.792L71.3774 201.784C72.0952 201.784 72.6885 201.542 73.1499 201.059C73.6113 200.576 73.8457 199.96 73.8457 199.221C73.8457 198.481 73.6187 197.873 73.1572 197.397C72.6958 196.921 72.1025 196.679 71.3774 196.679C70.6816 196.679 70.0957 196.921 69.6123 197.404C69.1289 197.888 68.8872 198.496 68.8872 199.228C68.8872 199.968 69.1289 200.583 69.6123 201.066C70.0957 201.55 70.689 201.792 71.3848 201.792ZM83.228 192.497H84.6123V203H82.957V194.328L80.4668 195.529L80.064 194.123L83.228 192.497Z" fill="#5567D5"/>
<path d="M503.208 203.198L503.164 203.205C501.992 203.205 500.988 202.897 500.146 202.29C499.304 201.682 498.732 200.927 498.432 200.034L499.97 199.572C500.212 200.209 500.622 200.737 501.201 201.147C501.779 201.557 502.46 201.762 503.251 201.762C503.947 201.762 504.519 201.594 504.965 201.264C505.412 200.935 505.639 200.554 505.639 200.122C505.639 199.77 505.515 199.477 505.258 199.235C505.002 198.994 504.577 198.781 503.977 198.591L501.34 197.749C499.765 197.258 498.981 196.401 498.981 195.178C498.981 194.387 499.326 193.706 500.014 193.142C500.703 192.578 501.567 192.292 502.607 192.292C503.676 192.292 504.599 192.541 505.375 193.039C506.152 193.537 506.701 194.16 507.023 194.907L505.507 195.361C505.258 194.87 504.885 194.475 504.379 194.174C503.874 193.874 503.288 193.728 502.622 193.728C502.043 193.728 501.567 193.867 501.193 194.145C500.82 194.423 500.629 194.753 500.629 195.134C500.629 195.434 500.739 195.683 500.952 195.881C501.164 196.079 501.508 196.247 501.977 196.386L504.555 197.207C505.463 197.492 506.152 197.844 506.613 198.261C507.075 198.679 507.309 199.257 507.309 200.004C507.309 200.905 506.928 201.66 506.167 202.275C505.405 202.89 504.416 203.198 503.208 203.198ZM512.978 201.469L513.366 202.758C512.795 203 512.238 203.117 511.704 203.117C510.913 203.117 510.319 202.89 509.931 202.436C509.543 201.982 509.345 201.352 509.345 200.554V196.848H507.968V195.456H509.345V192.937H510.905V195.456H513.308V196.848H510.905V200.554C510.905 201.323 511.264 201.711 511.989 201.711C512.319 201.711 512.648 201.63 512.978 201.469ZM518.046 203.198L518.061 203.212C516.867 203.212 515.9 202.846 515.153 202.114C514.406 201.381 514.033 200.422 514.033 199.243C514.033 198.107 514.392 197.163 515.109 196.408C515.827 195.654 516.765 195.273 517.915 195.273C519.108 195.273 520.046 195.632 520.734 196.357C521.423 197.082 521.767 197.99 521.767 199.089C521.767 199.279 521.752 199.492 521.716 199.719H515.585C515.637 200.356 515.878 200.869 516.318 201.257C516.757 201.645 517.351 201.843 518.09 201.843C519.13 201.843 519.848 201.44 520.236 200.627L521.672 201.052C521.401 201.645 520.954 202.15 520.332 202.568C519.709 202.985 518.947 203.198 518.046 203.198ZM515.585 198.679H520.222C520.17 198.078 519.943 197.587 519.541 197.207C519.138 196.826 518.596 196.635 517.922 196.635C517.27 196.635 516.735 196.833 516.311 197.229C515.886 197.624 515.644 198.107 515.585 198.679ZM527.641 195.258V195.266C528.71 195.266 529.604 195.639 530.322 196.394C531.04 197.148 531.398 198.093 531.398 199.228C531.398 200.363 531.04 201.308 530.322 202.062C529.604 202.817 528.71 203.198 527.641 203.198C526.469 203.198 525.568 202.751 524.938 201.857V206.149H523.364V195.456H524.938V196.599C525.568 195.705 526.469 195.258 527.641 195.258ZM527.385 201.792L527.377 201.784C528.095 201.784 528.688 201.542 529.15 201.059C529.611 200.576 529.846 199.96 529.846 199.221C529.846 198.481 529.619 197.873 529.157 197.397C528.696 196.921 528.103 196.679 527.377 196.679C526.682 196.679 526.096 196.921 525.612 197.404C525.129 197.888 524.887 198.496 524.887 199.228C524.887 199.968 525.129 200.583 525.612 201.066C526.096 201.55 526.689 201.792 527.385 201.792ZM541.03 196.547L541.059 196.555C541.96 196.621 542.685 196.943 543.227 197.521C543.769 198.1 544.04 198.84 544.04 199.741C544.04 200.722 543.688 201.55 542.978 202.224C542.268 202.897 541.374 203.234 540.297 203.234C539.147 203.234 538.232 202.934 537.551 202.326C536.87 201.718 536.445 200.993 536.276 200.144L537.727 199.741C537.851 200.319 538.137 200.803 538.583 201.198C539.03 201.594 539.572 201.792 540.209 201.792C540.898 201.792 541.44 201.594 541.843 201.191C542.246 200.788 542.443 200.305 542.443 199.733C542.443 199.162 542.26 198.686 541.894 198.312C541.528 197.939 541.037 197.749 540.415 197.749C539.953 197.749 539.55 197.866 539.199 198.093L538.913 197.075L541.491 193.955H536.577V192.497H543.623V193.64L541.03 196.547Z" fill="#5567D5"/>
<path d="M48.0571 227.198L48.0425 227.22C46.4824 227.22 45.1787 226.7 44.1313 225.652C43.084 224.605 42.564 223.309 42.564 221.756C42.564 220.203 43.084 218.907 44.124 217.874C45.1641 216.841 46.4604 216.321 48.0205 216.321C49.2803 216.321 50.3569 216.636 51.2432 217.273C52.1294 217.911 52.7227 218.687 53.0229 219.603L51.4482 219.998C51.2212 219.375 50.8037 218.863 50.1958 218.453C49.5879 218.042 48.8701 217.837 48.0425 217.837C46.9146 217.837 45.999 218.211 45.2959 218.965C44.5928 219.72 44.2412 220.643 44.2412 221.734C44.2412 222.833 44.5928 223.763 45.2959 224.532C45.999 225.301 46.9146 225.682 48.0425 225.682C48.8701 225.682 49.5879 225.484 50.1958 225.081C50.8037 224.678 51.2212 224.166 51.4409 223.543L53.0156 223.946C52.7153 224.854 52.1294 225.623 51.2505 226.253C50.3716 226.883 49.3096 227.198 48.0571 227.198ZM56.2969 220.657L56.2896 220.665C56.5166 220.196 56.8535 219.844 57.3003 219.61C57.7471 219.375 58.2744 219.295 58.875 219.375V220.84C58.0474 220.716 57.4102 220.877 56.9634 221.324C56.5166 221.771 56.2969 222.525 56.2969 223.594V227H54.7222V219.456H56.2969V220.657ZM63.3794 227.198L63.394 227.212C62.2002 227.212 61.2334 226.846 60.4863 226.114C59.7393 225.381 59.3657 224.422 59.3657 223.243C59.3657 222.107 59.7246 221.163 60.4424 220.408C61.1602 219.654 62.0977 219.273 63.2476 219.273C64.4414 219.273 65.3789 219.632 66.0674 220.357C66.7559 221.082 67.1001 221.99 67.1001 223.089C67.1001 223.279 67.0854 223.492 67.0488 223.719H60.9185C60.9697 224.356 61.2114 224.869 61.6509 225.257C62.0903 225.645 62.6836 225.843 63.4233 225.843C64.4634 225.843 65.1812 225.44 65.5693 224.627L67.0049 225.052C66.7339 225.645 66.2871 226.15 65.6646 226.568C65.042 226.985 64.2803 227.198 63.3794 227.198ZM60.9185 222.679H65.5547C65.5034 222.078 65.2764 221.587 64.8735 221.207C64.4707 220.826 63.9287 220.635 63.2549 220.635C62.603 220.635 62.0684 220.833 61.6436 221.229C61.2188 221.624 60.9771 222.107 60.9185 222.679ZM71.9854 227.198V227.19C70.916 227.19 70.0225 226.81 69.3047 226.055C68.5869 225.301 68.228 224.356 68.228 223.221C68.228 222.093 68.5869 221.148 69.3047 220.394C70.0225 219.639 70.916 219.258 71.9854 219.258C73.1646 219.258 74.0728 219.705 74.7026 220.599V219.456H76.2627V227H74.7026V225.857C74.0728 226.751 73.1646 227.198 71.9854 227.198ZM72.2417 225.777L72.2197 225.784C72.9155 225.784 73.5088 225.542 73.9922 225.059C74.4756 224.576 74.7173 223.96 74.7173 223.221C74.7173 222.488 74.4756 221.88 73.9922 221.397C73.5088 220.914 72.9229 220.672 72.2271 220.672C71.5093 220.672 70.9233 220.914 70.4619 221.39C70.0005 221.866 69.7734 222.474 69.7734 223.213C69.7734 223.953 70.0078 224.568 70.4692 225.052C70.9307 225.535 71.5239 225.777 72.2417 225.777ZM82.5835 225.469L82.9717 226.758C82.4004 227 81.8438 227.117 81.3091 227.117C80.5181 227.117 79.9248 226.89 79.5366 226.436C79.1484 225.982 78.9507 225.352 78.9507 224.554V220.848H77.5737V219.456H78.9507V216.937H80.5107V219.456H82.9131V220.848H80.5107V224.554C80.5107 225.323 80.8696 225.711 81.5947 225.711C81.9243 225.711 82.2539 225.63 82.5835 225.469ZM87.6519 227.198L87.6665 227.212C86.4727 227.212 85.5059 226.846 84.7588 226.114C84.0117 225.381 83.6382 224.422 83.6382 223.243C83.6382 222.107 83.9971 221.163 84.7148 220.408C85.4326 219.654 86.3701 219.273 87.52 219.273C88.7139 219.273 89.6514 219.632 90.3398 220.357C91.0283 221.082 91.3726 221.99 91.3726 223.089C91.3726 223.279 91.3579 223.492 91.3213 223.719H85.1909C85.2422 224.356 85.4839 224.869 85.9233 225.257C86.3628 225.645 86.9561 225.843 87.6958 225.843C88.7358 225.843 89.4536 225.44 89.8418 224.627L91.2773 225.052C91.0063 225.645 90.5596 226.15 89.937 226.568C89.3145 226.985 88.5527 227.198 87.6519 227.198ZM85.1909 222.679H89.8271C89.7759 222.078 89.5488 221.587 89.146 221.207C88.7432 220.826 88.2012 220.635 87.5273 220.635C86.8755 220.635 86.3408 220.833 85.916 221.229C85.4912 221.624 85.2495 222.107 85.1909 222.679ZM100.052 227.198V227.19C98.9824 227.19 98.0889 226.81 97.3711 226.055C96.6533 225.301 96.2944 224.356 96.2944 223.221C96.2944 222.093 96.6533 221.148 97.3711 220.394C98.0889 219.639 98.9824 219.258 100.052 219.258C101.231 219.258 102.139 219.705 102.769 220.599V219.456H104.329V227H102.769V225.857C102.139 226.751 101.231 227.198 100.052 227.198ZM100.308 225.777L100.286 225.784C100.982 225.784 101.575 225.542 102.059 225.059C102.542 224.576 102.784 223.96 102.784 223.221C102.784 222.488 102.542 221.88 102.059 221.397C101.575 220.914 100.989 220.672 100.293 220.672C99.5757 220.672 98.9897 220.914 98.5283 221.39C98.0669 221.866 97.8398 222.474 97.8398 223.213C97.8398 223.953 98.0742 224.568 98.5356 225.052C98.9971 225.535 99.5903 225.777 100.308 225.777ZM46.5483 251.198V251.22C45.4131 251.22 44.4683 250.839 43.7139 250.077C42.9595 249.315 42.5859 248.371 42.5859 247.243C42.5859 246.115 42.9595 245.17 43.7065 244.416C44.4536 243.661 45.3984 243.28 46.5337 243.28C47.4785 243.28 48.2695 243.522 48.9141 244.005C49.5586 244.489 49.9614 245.038 50.1226 245.661L48.665 246.078C48.5552 245.705 48.3062 245.382 47.918 245.104C47.5298 244.826 47.0757 244.687 46.5557 244.687C45.8379 244.687 45.252 244.936 44.7979 245.426C44.3438 245.917 44.1167 246.518 44.1167 247.228C44.1167 247.924 44.3438 248.524 44.7979 249.03C45.252 249.535 45.8379 249.784 46.5483 249.784C47.0684 249.784 47.5225 249.652 47.9106 249.389C48.2988 249.125 48.5479 248.81 48.6577 248.437L50.1152 248.839C49.9541 249.447 49.5586 249.989 48.9214 250.473C48.2842 250.956 47.4932 251.198 46.5483 251.198ZM55.2715 251.198H55.2642C54.1143 251.198 53.1621 250.817 52.4004 250.062C51.6387 249.308 51.2578 248.363 51.2578 247.228C51.2578 246.1 51.6387 245.155 52.4004 244.401C53.1621 243.646 54.1143 243.266 55.2642 243.266C56.4141 243.266 57.3735 243.639 58.1353 244.394C58.897 245.148 59.2778 246.093 59.2778 247.228C59.2778 248.363 58.897 249.308 58.1353 250.062C57.3735 250.817 56.4214 251.198 55.2715 251.198ZM55.2642 249.77C55.9819 249.77 56.5752 249.528 57.0439 249.044C57.5127 248.561 57.7471 247.96 57.7471 247.243C57.7471 246.51 57.5127 245.902 57.0439 245.419C56.5752 244.936 55.9819 244.694 55.2642 244.694C54.5464 244.694 53.9531 244.936 53.4917 245.419C53.0303 245.902 52.7959 246.51 52.7959 247.243C52.7959 247.96 53.0303 248.561 53.4917 249.044C53.9531 249.528 54.5464 249.77 55.2642 249.77ZM65.0786 243.258V243.244C66.0381 243.244 66.7778 243.537 67.2979 244.13C67.8179 244.723 68.0742 245.536 68.0742 246.569V250.993H66.5142V246.854C66.5142 246.188 66.3604 245.668 66.0454 245.294C65.7305 244.921 65.269 244.73 64.6611 244.73C64.002 244.73 63.4746 244.958 63.0791 245.419C62.6836 245.88 62.4858 246.488 62.4858 247.25V251H60.9111V243.456H62.4858V244.577C63.1084 243.698 63.9727 243.258 65.0786 243.258ZM74.2778 243.258V243.244C75.2373 243.244 75.9771 243.537 76.4971 244.13C77.0171 244.723 77.2734 245.536 77.2734 246.569V250.993H75.7134V246.854C75.7134 246.188 75.5596 245.668 75.2446 245.294C74.9297 244.921 74.4683 244.73 73.8604 244.73C73.2012 244.73 72.6738 244.958 72.2783 245.419C71.8828 245.88 71.6851 246.488 71.6851 247.25V251H70.1104V243.456H71.6851V244.577C72.3076 243.698 73.1719 243.258 74.2778 243.258ZM82.8618 251.198L82.8765 251.212C81.6826 251.212 80.7158 250.846 79.9688 250.114C79.2217 249.381 78.8481 248.422 78.8481 247.243C78.8481 246.107 79.207 245.163 79.9248 244.408C80.6426 243.654 81.5801 243.273 82.73 243.273C83.9238 243.273 84.8613 243.632 85.5498 244.357C86.2383 245.082 86.5825 245.99 86.5825 247.089C86.5825 247.279 86.5679 247.492 86.5312 247.719H80.4009C80.4521 248.356 80.6938 248.869 81.1333 249.257C81.5728 249.645 82.166 249.843 82.9058 249.843C83.9458 249.843 84.6636 249.44 85.0518 248.627L86.4873 249.052C86.2163 249.645 85.7695 250.15 85.147 250.568C84.5244 250.985 83.7627 251.198 82.8618 251.198ZM80.4009 246.679H85.0371C84.9858 246.078 84.7588 245.587 84.356 245.207C83.9531 244.826 83.4111 244.635 82.7373 244.635C82.0854 244.635 81.5508 244.833 81.126 245.229C80.7012 245.624 80.4595 246.107 80.4009 246.679ZM91.6802 251.198V251.22C90.5449 251.22 89.6001 250.839 88.8457 250.077C88.0913 249.315 87.7178 248.371 87.7178 247.243C87.7178 246.115 88.0913 245.17 88.8384 244.416C89.5854 243.661 90.5303 243.28 91.6655 243.28C92.6104 243.28 93.4014 243.522 94.0459 244.005C94.6904 244.489 95.0933 245.038 95.2544 245.661L93.7969 246.078C93.687 245.705 93.438 245.382 93.0498 245.104C92.6616 244.826 92.2075 244.687 91.6875 244.687C90.9697 244.687 90.3838 244.936 89.9297 245.426C89.4756 245.917 89.2485 246.518 89.2485 247.228C89.2485 247.924 89.4756 248.524 89.9297 249.03C90.3838 249.535 90.9697 249.784 91.6802 249.784C92.2002 249.784 92.6543 249.652 93.0425 249.389C93.4307 249.125 93.6797 248.81 93.7896 248.437L95.2471 248.839C95.0859 249.447 94.6904 249.989 94.0532 250.473C93.416 250.956 92.625 251.198 91.6802 251.198ZM101.099 249.469L101.487 250.758C100.916 251 100.359 251.117 99.8247 251.117C99.0337 251.117 98.4404 250.89 98.0522 250.436C97.6641 249.982 97.4663 249.352 97.4663 248.554V244.848H96.0894V243.456H97.4663V240.937H99.0264V243.456H101.429V244.848H99.0264V248.554C99.0264 249.323 99.3853 249.711 100.11 249.711C100.44 249.711 100.77 249.63 101.099 249.469ZM103.86 242.226C103.582 242.226 103.348 242.13 103.157 241.947C102.967 241.764 102.872 241.53 102.872 241.251C102.872 240.995 102.967 240.768 103.157 240.578C103.348 240.387 103.582 240.292 103.86 240.292C104.139 240.292 104.373 240.387 104.563 240.578C104.754 240.768 104.849 240.995 104.849 241.251C104.849 241.53 104.754 241.764 104.563 241.947C104.373 242.13 104.139 242.226 103.86 242.226ZM103.062 251V243.456H104.622V251H103.062ZM110.306 251.198H110.298C109.148 251.198 108.196 250.817 107.435 250.062C106.673 249.308 106.292 248.363 106.292 247.228C106.292 246.1 106.673 245.155 107.435 244.401C108.196 243.646 109.148 243.266 110.298 243.266C111.448 243.266 112.408 243.639 113.169 244.394C113.931 245.148 114.312 246.093 114.312 247.228C114.312 248.363 113.931 249.308 113.169 250.062C112.408 250.817 111.456 251.198 110.306 251.198ZM110.298 249.77C111.016 249.77 111.609 249.528 112.078 249.044C112.547 248.561 112.781 247.96 112.781 247.243C112.781 246.51 112.547 245.902 112.078 245.419C111.609 244.936 111.016 244.694 110.298 244.694C109.581 244.694 108.987 244.936 108.526 245.419C108.064 245.902 107.83 246.51 107.83 247.243C107.83 247.96 108.064 248.561 108.526 249.044C108.987 249.528 109.581 249.77 110.298 249.77ZM120.113 243.258V243.244C121.072 243.244 121.812 243.537 122.332 244.13C122.852 244.723 123.108 245.536 123.108 246.569V250.993H121.548V246.854C121.548 246.188 121.395 245.668 121.08 245.294C120.765 244.921 120.303 244.73 119.695 244.73C119.036 244.73 118.509 244.958 118.113 245.419C117.718 245.88 117.52 246.488 117.52 247.25V251H115.945V243.456H117.52V244.577C118.143 243.698 119.007 243.258 120.113 243.258Z" fill="#40404B"/>
<path d="M505.888 227L503.339 223.096H500.688V226.993H499.062V216.49H504.057C505.104 216.49 505.939 216.827 506.562 217.5C507.185 218.174 507.5 218.943 507.5 219.815C507.5 220.533 507.287 221.185 506.855 221.778C506.423 222.371 505.822 222.767 505.053 222.964L507.763 227H505.888ZM500.688 217.947L500.673 221.646H503.955C504.548 221.646 505.024 221.463 505.383 221.104C505.742 220.745 505.925 220.313 505.925 219.808C505.925 219.302 505.749 218.863 505.397 218.497C505.046 218.13 504.584 217.947 504.013 217.947H500.688ZM512.583 227.198L512.597 227.212C511.403 227.212 510.437 226.846 509.689 226.114C508.942 225.381 508.569 224.422 508.569 223.243C508.569 222.107 508.928 221.163 509.646 220.408C510.363 219.654 511.301 219.273 512.451 219.273C513.645 219.273 514.582 219.632 515.271 220.357C515.959 221.082 516.303 221.99 516.303 223.089C516.303 223.279 516.289 223.492 516.252 223.719H510.122C510.173 224.356 510.415 224.869 510.854 225.257C511.293 225.645 511.887 225.843 512.626 225.843C513.667 225.843 514.384 225.44 514.772 224.627L516.208 225.052C515.937 225.645 515.49 226.15 514.868 226.568C514.245 226.985 513.483 227.198 512.583 227.198ZM510.122 222.679H514.758C514.707 222.078 514.479 221.587 514.077 221.207C513.674 220.826 513.132 220.635 512.458 220.635C511.806 220.635 511.271 220.833 510.847 221.229C510.422 221.624 510.18 222.107 510.122 222.679ZM520.039 218.643V219.456H522.529V220.848H520.039V227H518.464V220.848H516.962V219.456H518.464V218.614C518.464 217.742 518.676 217.061 519.108 216.578C519.541 216.094 520.163 215.853 520.983 215.853C521.606 215.853 522.141 215.955 522.587 216.167L522.214 217.442C521.884 217.288 521.54 217.215 521.181 217.222C520.419 217.215 520.039 217.691 520.039 218.643ZM526.748 227.198L526.762 227.212C525.568 227.212 524.602 226.846 523.854 226.114C523.107 225.381 522.734 224.422 522.734 223.243C522.734 222.107 523.093 221.163 523.811 220.408C524.528 219.654 525.466 219.273 526.616 219.273C527.81 219.273 528.747 219.632 529.436 220.357C530.124 221.082 530.468 221.99 530.468 223.089C530.468 223.279 530.454 223.492 530.417 223.719H524.287C524.338 224.356 524.58 224.869 525.019 225.257C525.458 225.645 526.052 225.843 526.792 225.843C527.832 225.843 528.549 225.44 528.938 224.627L530.373 225.052C530.102 225.645 529.655 226.15 529.033 226.568C528.41 226.985 527.648 227.198 526.748 227.198ZM524.287 222.679H528.923C528.872 222.078 528.645 221.587 528.242 221.207C527.839 220.826 527.297 220.635 526.623 220.635C525.971 220.635 525.437 220.833 525.012 221.229C524.587 221.624 524.345 222.107 524.287 222.679ZM533.64 220.657L533.632 220.665C533.859 220.196 534.196 219.844 534.643 219.61C535.09 219.375 535.617 219.295 536.218 219.375V220.84C535.39 220.716 534.753 220.877 534.306 221.324C533.859 221.771 533.64 222.525 533.64 223.594V227H532.065V219.456H533.64V220.657ZM544.912 227.198V227.22C543.776 227.22 542.832 226.839 542.077 226.077C541.323 225.315 540.949 224.371 540.949 223.243C540.949 222.115 541.323 221.17 542.07 220.416C542.817 219.661 543.762 219.28 544.897 219.28C545.842 219.28 546.633 219.522 547.277 220.005C547.922 220.489 548.325 221.038 548.486 221.661L547.028 222.078C546.918 221.705 546.669 221.382 546.281 221.104C545.893 220.826 545.439 220.687 544.919 220.687C544.201 220.687 543.615 220.936 543.161 221.426C542.707 221.917 542.48 222.518 542.48 223.228C542.48 223.924 542.707 224.524 543.161 225.03C543.615 225.535 544.201 225.784 544.912 225.784C545.432 225.784 545.886 225.652 546.274 225.389C546.662 225.125 546.911 224.81 547.021 224.437L548.479 224.839C548.317 225.447 547.922 225.989 547.285 226.473C546.647 226.956 545.856 227.198 544.912 227.198ZM553.635 227.198H553.627C552.478 227.198 551.525 226.817 550.764 226.062C550.002 225.308 549.621 224.363 549.621 223.228C549.621 222.1 550.002 221.155 550.764 220.401C551.525 219.646 552.478 219.266 553.627 219.266C554.777 219.266 555.737 219.639 556.499 220.394C557.26 221.148 557.641 222.093 557.641 223.228C557.641 224.363 557.26 225.308 556.499 226.062C555.737 226.817 554.785 227.198 553.635 227.198ZM553.627 225.77C554.345 225.77 554.938 225.528 555.407 225.044C555.876 224.561 556.11 223.96 556.11 223.243C556.11 222.51 555.876 221.902 555.407 221.419C554.938 220.936 554.345 220.694 553.627 220.694C552.91 220.694 552.316 220.936 551.855 221.419C551.394 221.902 551.159 222.51 551.159 223.243C551.159 223.96 551.394 224.561 551.855 225.044C552.316 225.528 552.91 225.77 553.627 225.77ZM563.442 219.258V219.244C564.401 219.244 565.141 219.537 565.661 220.13C566.181 220.723 566.438 221.536 566.438 222.569V226.993H564.877V222.854C564.877 222.188 564.724 221.668 564.409 221.294C564.094 220.921 563.632 220.73 563.024 220.73C562.365 220.73 561.838 220.958 561.442 221.419C561.047 221.88 560.849 222.488 560.849 223.25V227H559.274V219.456H560.849V220.577C561.472 219.698 562.336 219.258 563.442 219.258ZM572.641 219.258V219.244C573.601 219.244 574.34 219.537 574.86 220.13C575.38 220.723 575.637 221.536 575.637 222.569V226.993H574.077V222.854C574.077 222.188 573.923 221.668 573.608 221.294C573.293 220.921 572.832 220.73 572.224 220.73C571.564 220.73 571.037 220.958 570.642 221.419C570.246 221.88 570.048 222.488 570.048 223.25V227H568.474V219.456H570.048V220.577C570.671 219.698 571.535 219.258 572.641 219.258ZM581.225 227.198L581.24 227.212C580.046 227.212 579.079 226.846 578.332 226.114C577.585 225.381 577.211 224.422 577.211 223.243C577.211 222.107 577.57 221.163 578.288 220.408C579.006 219.654 579.943 219.273 581.093 219.273C582.287 219.273 583.225 219.632 583.913 220.357C584.602 221.082 584.946 221.99 584.946 223.089C584.946 223.279 584.931 223.492 584.895 223.719H578.764C578.815 224.356 579.057 224.869 579.497 225.257C579.936 225.645 580.529 225.843 581.269 225.843C582.309 225.843 583.027 225.44 583.415 224.627L584.851 225.052C584.58 225.645 584.133 226.15 583.51 226.568C582.888 226.985 582.126 227.198 581.225 227.198ZM578.764 222.679H583.4C583.349 222.078 583.122 221.587 582.719 221.207C582.316 220.826 581.774 220.635 581.101 220.635C580.449 220.635 579.914 220.833 579.489 221.229C579.064 221.624 578.823 222.107 578.764 222.679ZM590.043 227.198V227.22C588.908 227.22 587.963 226.839 587.209 226.077C586.455 225.315 586.081 224.371 586.081 223.243C586.081 222.115 586.455 221.17 587.202 220.416C587.949 219.661 588.894 219.28 590.029 219.28C590.974 219.28 591.765 219.522 592.409 220.005C593.054 220.489 593.457 221.038 593.618 221.661L592.16 222.078C592.05 221.705 591.801 221.382 591.413 221.104C591.025 220.826 590.571 220.687 590.051 220.687C589.333 220.687 588.747 220.936 588.293 221.426C587.839 221.917 587.612 222.518 587.612 223.228C587.612 223.924 587.839 224.524 588.293 225.03C588.747 225.535 589.333 225.784 590.043 225.784C590.563 225.784 591.018 225.652 591.406 225.389C591.794 225.125 592.043 224.81 592.153 224.437L593.61 224.839C593.449 225.447 593.054 225.989 592.417 226.473C591.779 226.956 590.988 227.198 590.043 227.198ZM599.462 225.469L599.851 226.758C599.279 227 598.723 227.117 598.188 227.117C597.397 227.117 596.804 226.89 596.416 226.436C596.027 225.982 595.83 225.352 595.83 224.554V220.848H594.453V219.456H595.83V216.937H597.39V219.456H599.792V220.848H597.39V224.554C597.39 225.323 597.749 225.711 598.474 225.711C598.803 225.711 599.133 225.63 599.462 225.469ZM602.224 218.226C601.945 218.226 601.711 218.13 601.521 217.947C601.33 217.764 601.235 217.53 601.235 217.251C601.235 216.995 601.33 216.768 601.521 216.578C601.711 216.387 601.945 216.292 602.224 216.292C602.502 216.292 602.736 216.387 602.927 216.578C603.117 216.768 603.212 216.995 603.212 217.251C603.212 217.53 603.117 217.764 602.927 217.947C602.736 218.13 602.502 218.226 602.224 218.226ZM601.425 227V219.456H602.985V227H601.425ZM608.669 227.198H608.662C607.512 227.198 606.56 226.817 605.798 226.062C605.036 225.308 604.655 224.363 604.655 223.228C604.655 222.1 605.036 221.155 605.798 220.401C606.56 219.646 607.512 219.266 608.662 219.266C609.812 219.266 610.771 219.639 611.533 220.394C612.294 221.148 612.675 222.093 612.675 223.228C612.675 224.363 612.294 225.308 611.533 226.062C610.771 226.817 609.819 227.198 608.669 227.198ZM608.662 225.77C609.379 225.77 609.973 225.528 610.441 225.044C610.91 224.561 611.145 223.96 611.145 223.243C611.145 222.51 610.91 221.902 610.441 221.419C609.973 220.936 609.379 220.694 608.662 220.694C607.944 220.694 607.351 220.936 606.889 221.419C606.428 221.902 606.193 222.51 606.193 223.243C606.193 223.96 606.428 224.561 606.889 225.044C607.351 225.528 607.944 225.77 608.662 225.77ZM618.476 219.258V219.244C619.436 219.244 620.175 219.537 620.695 220.13C621.215 220.723 621.472 221.536 621.472 222.569V226.993H619.912V222.854C619.912 222.188 619.758 221.668 619.443 221.294C619.128 220.921 618.667 220.73 618.059 220.73C617.399 220.73 616.872 220.958 616.477 221.419C616.081 221.88 615.883 222.488 615.883 223.25V227H614.309V219.456H615.883V220.577C616.506 219.698 617.37 219.258 618.476 219.258ZM501.42 242.643V243.456H503.911V244.848H501.42V251H499.846V244.848H498.344V243.456H499.846V242.614C499.846 241.742 500.058 241.061 500.49 240.578C500.922 240.094 501.545 239.853 502.365 239.853C502.988 239.853 503.522 239.955 503.969 240.167L503.596 241.442C503.266 241.288 502.922 241.215 502.563 241.222C501.801 241.215 501.42 241.691 501.42 242.643ZM506.569 244.657L506.562 244.665C506.789 244.196 507.126 243.844 507.573 243.61C508.02 243.375 508.547 243.295 509.147 243.375V244.84C508.32 244.716 507.683 244.877 507.236 245.324C506.789 245.771 506.569 246.525 506.569 247.594V251H504.995V243.456H506.569V244.657ZM513.63 251.198H513.623C512.473 251.198 511.521 250.817 510.759 250.062C509.997 249.308 509.616 248.363 509.616 247.228C509.616 246.1 509.997 245.155 510.759 244.401C511.521 243.646 512.473 243.266 513.623 243.266C514.772 243.266 515.732 243.639 516.494 244.394C517.255 245.148 517.636 246.093 517.636 247.228C517.636 248.363 517.255 249.308 516.494 250.062C515.732 250.817 514.78 251.198 513.63 251.198ZM513.623 249.77C514.34 249.77 514.934 249.528 515.402 249.044C515.871 248.561 516.105 247.96 516.105 247.243C516.105 246.51 515.871 245.902 515.402 245.419C514.934 244.936 514.34 244.694 513.623 244.694C512.905 244.694 512.312 244.936 511.85 245.419C511.389 245.902 511.154 246.51 511.154 247.243C511.154 247.96 511.389 248.561 511.85 249.044C512.312 249.528 512.905 249.77 513.623 249.77ZM528.176 243.258H528.168C529.069 243.258 529.787 243.544 530.322 244.115C530.856 244.687 531.127 245.478 531.127 246.488V251H529.553V246.789C529.553 246.137 529.414 245.631 529.128 245.272C528.842 244.914 528.417 244.73 527.854 244.73C527.275 244.73 526.813 244.943 526.477 245.36C526.14 245.778 525.971 246.342 525.971 247.052V251H524.411V246.789C524.411 246.137 524.272 245.631 523.994 245.272C523.715 244.914 523.312 244.73 522.778 244.73C522.177 244.73 521.701 244.95 521.357 245.39C521.013 245.829 520.837 246.43 520.837 247.191V251H519.262V243.456H520.837V244.503C521.408 243.676 522.199 243.258 523.21 243.258C524.309 243.258 525.085 243.69 525.532 244.547C526.103 243.69 526.982 243.258 528.176 243.258ZM539.814 251.198L539.777 251.205C538.92 251.205 538.166 250.978 537.507 250.531C536.848 250.084 536.423 249.542 536.225 248.905L537.653 248.488C537.792 248.898 538.063 249.235 538.459 249.506C538.854 249.777 539.316 249.909 539.836 249.909C540.305 249.909 540.686 249.806 540.979 249.608C541.271 249.411 541.418 249.169 541.418 248.883C541.418 248.656 541.345 248.473 541.191 248.341C541.037 248.209 540.788 248.092 540.444 247.99L538.415 247.389C537.214 247.03 536.613 246.386 536.613 245.456C536.613 244.855 536.892 244.342 537.456 243.91C538.02 243.478 538.701 243.266 539.499 243.266C540.29 243.266 540.979 243.441 541.557 243.793C542.136 244.145 542.539 244.606 542.766 245.17L541.374 245.58C541.22 245.28 540.979 245.031 540.649 244.826C540.319 244.621 539.931 244.518 539.484 244.518C539.104 244.518 538.789 244.613 538.54 244.796C538.291 244.979 538.166 245.192 538.166 245.434C538.166 245.763 538.437 246.012 538.979 246.181L540.986 246.759C541.608 246.942 542.092 247.184 542.443 247.492C542.795 247.799 542.971 248.239 542.971 248.817C542.971 249.499 542.67 250.062 542.077 250.517C541.484 250.971 540.729 251.198 539.814 251.198ZM548.083 251.198H548.076C546.926 251.198 545.974 250.817 545.212 250.062C544.45 249.308 544.069 248.363 544.069 247.228C544.069 246.1 544.45 245.155 545.212 244.401C545.974 243.646 546.926 243.266 548.076 243.266C549.226 243.266 550.185 243.639 550.947 244.394C551.708 245.148 552.089 246.093 552.089 247.228C552.089 248.363 551.708 249.308 550.947 250.062C550.185 250.817 549.233 251.198 548.083 251.198ZM548.076 249.77C548.793 249.77 549.387 249.528 549.855 249.044C550.324 248.561 550.559 247.96 550.559 247.243C550.559 246.51 550.324 245.902 549.855 245.419C549.387 244.936 548.793 244.694 548.076 244.694C547.358 244.694 546.765 244.936 546.303 245.419C545.842 245.902 545.607 246.51 545.607 247.243C545.607 247.96 545.842 248.561 546.303 249.044C546.765 249.528 547.358 249.77 548.076 249.77ZM559.252 243.456L560.812 243.471V251.015H559.252V249.872C558.645 250.758 557.773 251.205 556.645 251.212C555.693 251.212 554.953 250.919 554.426 250.326C553.898 249.733 553.635 248.92 553.635 247.887V243.463H555.209V247.602C555.209 248.268 555.371 248.788 555.686 249.162C556 249.535 556.462 249.726 557.07 249.726C557.722 249.726 558.249 249.499 558.652 249.037C559.055 248.576 559.252 247.968 559.252 247.206V243.456ZM564.489 244.657L564.482 244.665C564.709 244.196 565.046 243.844 565.493 243.61C565.939 243.375 566.467 243.295 567.067 243.375V244.84C566.24 244.716 565.603 244.877 565.156 245.324C564.709 245.771 564.489 246.525 564.489 247.594V251H562.915V243.456H564.489V244.657ZM571.513 251.198V251.22C570.378 251.22 569.433 250.839 568.679 250.077C567.924 249.315 567.551 248.371 567.551 247.243C567.551 246.115 567.924 245.17 568.671 244.416C569.418 243.661 570.363 243.28 571.499 243.28C572.443 243.28 573.234 243.522 573.879 244.005C574.523 244.489 574.926 245.038 575.087 245.661L573.63 246.078C573.52 245.705 573.271 245.382 572.883 245.104C572.495 244.826 572.041 244.687 571.521 244.687C570.803 244.687 570.217 244.936 569.763 245.426C569.309 245.917 569.082 246.518 569.082 247.228C569.082 247.924 569.309 248.524 569.763 249.03C570.217 249.535 570.803 249.784 571.513 249.784C572.033 249.784 572.487 249.652 572.875 249.389C573.264 249.125 573.513 248.81 573.623 248.437L575.08 248.839C574.919 249.447 574.523 249.989 573.886 250.473C573.249 250.956 572.458 251.198 571.513 251.198ZM580.258 251.198L580.273 251.212C579.079 251.212 578.112 250.846 577.365 250.114C576.618 249.381 576.245 248.422 576.245 247.243C576.245 246.107 576.604 245.163 577.321 244.408C578.039 243.654 578.977 243.273 580.126 243.273C581.32 243.273 582.258 243.632 582.946 244.357C583.635 245.082 583.979 245.99 583.979 247.089C583.979 247.279 583.964 247.492 583.928 247.719H577.797C577.849 248.356 578.09 248.869 578.53 249.257C578.969 249.645 579.562 249.843 580.302 249.843C581.342 249.843 582.06 249.44 582.448 248.627L583.884 249.052C583.613 249.645 583.166 250.15 582.543 250.568C581.921 250.985 581.159 251.198 580.258 251.198ZM577.797 246.679H582.434C582.382 246.078 582.155 245.587 581.752 245.207C581.35 244.826 580.808 244.635 580.134 244.635C579.482 244.635 578.947 244.833 578.522 245.229C578.098 245.624 577.856 246.107 577.797 246.679ZM592.871 251.198V251.22C591.735 251.22 590.791 250.839 590.036 250.077C589.282 249.315 588.908 248.371 588.908 247.243C588.908 246.115 589.282 245.17 590.029 244.416C590.776 243.661 591.721 243.28 592.856 243.28C593.801 243.28 594.592 243.522 595.236 244.005C595.881 244.489 596.284 245.038 596.445 245.661L594.987 246.078C594.877 245.705 594.628 245.382 594.24 245.104C593.852 244.826 593.398 244.687 592.878 244.687C592.16 244.687 591.574 244.936 591.12 245.426C590.666 245.917 590.439 246.518 590.439 247.228C590.439 247.924 590.666 248.524 591.12 249.03C591.574 249.535 592.16 249.784 592.871 249.784C593.391 249.784 593.845 249.652 594.233 249.389C594.621 249.125 594.87 248.81 594.98 248.437L596.438 248.839C596.276 249.447 595.881 249.989 595.244 250.473C594.606 250.956 593.815 251.198 592.871 251.198ZM601.594 251.198H601.586C600.437 251.198 599.484 250.817 598.723 250.062C597.961 249.308 597.58 248.363 597.58 247.228C597.58 246.1 597.961 245.155 598.723 244.401C599.484 243.646 600.437 243.266 601.586 243.266C602.736 243.266 603.696 243.639 604.458 244.394C605.219 245.148 605.6 246.093 605.6 247.228C605.6 248.363 605.219 249.308 604.458 250.062C603.696 250.817 602.744 251.198 601.594 251.198ZM601.586 249.77C602.304 249.77 602.897 249.528 603.366 249.044C603.835 248.561 604.069 247.96 604.069 247.243C604.069 246.51 603.835 245.902 603.366 245.419C602.897 244.936 602.304 244.694 601.586 244.694C600.869 244.694 600.275 244.936 599.814 245.419C599.353 245.902 599.118 246.51 599.118 247.243C599.118 247.96 599.353 248.561 599.814 249.044C600.275 249.528 600.869 249.77 601.586 249.77ZM613.232 240.05L614.792 240.043V250.993H613.232V249.85C612.602 250.736 611.694 251.183 610.515 251.19C609.445 251.19 608.552 250.81 607.834 250.055C607.116 249.301 606.757 248.356 606.757 247.221C606.757 246.093 607.116 245.148 607.834 244.394C608.552 243.639 609.445 243.258 610.515 243.258C611.694 243.258 612.602 243.705 613.232 244.599V240.05ZM610.771 249.777L610.749 249.784C611.445 249.784 612.038 249.542 612.521 249.059C613.005 248.576 613.247 247.96 613.247 247.221C613.247 246.488 613.005 245.88 612.521 245.397C612.038 244.914 611.452 244.672 610.756 244.672C610.039 244.672 609.453 244.914 608.991 245.39C608.53 245.866 608.303 246.474 608.303 247.213C608.303 247.953 608.537 248.568 608.999 249.052C609.46 249.535 610.053 249.777 610.771 249.777ZM620.439 251.198L620.454 251.212C619.26 251.212 618.293 250.846 617.546 250.114C616.799 249.381 616.425 248.422 616.425 247.243C616.425 246.107 616.784 245.163 617.502 244.408C618.22 243.654 619.157 243.273 620.307 243.273C621.501 243.273 622.438 243.632 623.127 244.357C623.815 245.082 624.16 245.99 624.16 247.089C624.16 247.279 624.145 247.492 624.108 247.719H617.978C618.029 248.356 618.271 248.869 618.71 249.257C619.15 249.645 619.743 249.843 620.483 249.843C621.523 249.843 622.241 249.44 622.629 248.627L624.064 249.052C623.793 249.645 623.347 250.15 622.724 250.568C622.102 250.985 621.34 251.198 620.439 251.198ZM617.978 246.679H622.614C622.563 246.078 622.336 245.587 621.933 245.207C621.53 244.826 620.988 244.635 620.314 244.635C619.663 244.635 619.128 244.833 618.703 245.229C618.278 245.624 618.037 246.107 617.978 246.679Z" fill="#40404B"/>
<path d="M23.3234 123.249C21.9028 109 25.9429 96.3436 32.8259 86.5028C39.7301 76.6815 55.3235 75.1109 67.7598 70.3778C80.1587 65.6414 89.3992 57.7413 103.477 62.9776C117.577 68.2334 130.688 81.2094 136.72 95.0376C142.728 108.844 141.665 123.542 140.512 138.714C139.359 153.886 129.339 161.015 120.309 166.018C111.278 171.021 97.2765 170.955 80.8582 168.278C64.4559 165.584 54.4582 168.835 43.0315 161.077C31.6195 153.302 24.7439 137.497 23.3234 123.249Z" fill="white"/>
<path d="M488.691 87.1511C495.81 74.727 506.45 66.7706 517.768 62.7573C529.093 58.7723 542.699 66.5504 555.571 69.9204C568.416 73.2661 580.526 72.2019 588.945 84.6412C597.37 97.1083 600.507 115.287 597.386 130.047C594.258 144.775 584.856 156.123 575.106 167.804C565.355 179.485 553.058 179.469 542.801 178.296C532.544 177.124 521.184 168.938 509.374 157.223C497.586 145.504 487.559 142.344 482.763 129.392C477.989 116.435 481.572 99.5753 488.691 87.1511Z" fill="white"/>
<path fill-rule="evenodd" clip-rule="evenodd" d="M538.98 120.935C538.71 120.992 538.538 121.257 538.595 121.528C538.652 121.798 538.917 121.971 539.187 121.913C539.469 121.854 539.763 121.863 540.065 121.919C539.933 122.514 539.884 123.129 539.925 123.745C539.944 124.021 540.182 124.229 540.457 124.211C540.733 124.193 540.942 123.954 540.923 123.679C540.89 123.186 540.925 122.695 541.024 122.218C541.225 122.299 541.42 122.387 541.612 122.473L541.612 122.473L541.612 122.473C541.666 122.497 541.72 122.522 541.774 122.546C542.043 122.666 542.327 122.788 542.586 122.855C542.853 122.925 543.126 122.765 543.196 122.498C543.266 122.231 543.106 121.958 542.838 121.888C542.67 121.844 542.458 121.756 542.181 121.632C542.132 121.611 542.082 121.588 542.031 121.565L542.031 121.565C541.814 121.467 541.57 121.358 541.318 121.258C541.446 120.945 541.604 120.643 541.791 120.357C541.941 120.125 541.876 119.815 541.644 119.665C541.413 119.514 541.103 119.58 540.953 119.811C540.716 120.175 540.518 120.559 540.36 120.959C539.924 120.866 539.456 120.835 538.98 120.935Z" fill="#1D2028"/>
<path d="M168 122.685C179.333 118.685 204.7 108.985 215.5 102.185" stroke="#E0E2E9" stroke-width="16" stroke-linecap="round"/>
<path d="M623 122.685C634.333 118.685 659.7 108.985 670.5 102.185" stroke="#E0E2E9" stroke-width="16" stroke-linecap="round"/>
<path d="M168 122.685C179.333 118.685 204.7 108.985 215.5 102.185" stroke="white" stroke-width="2" stroke-linecap="round" stroke-dasharray="2 8"/>
<path d="M623 122.685C634.333 118.685 659.7 108.985 670.5 102.185" stroke="white" stroke-width="2" stroke-linecap="round" stroke-dasharray="2 8"/>
<path d="M229.734 117.5C229.738 117.224 229.518 116.996 229.242 116.992L224.742 116.918C224.466 116.914 224.239 117.134 224.234 117.41C224.23 117.686 224.45 117.914 224.726 117.918L228.725 117.984L228.66 121.983C228.656 122.259 228.876 122.487 229.152 122.491C229.428 122.496 229.655 122.275 229.66 121.999L229.734 117.5ZM220.735 123.697C220.501 123.844 220.43 124.152 220.576 124.386C220.722 124.621 221.031 124.692 221.265 124.545L220.735 123.697ZM221.265 124.545C225.308 122.018 226.337 120.991 229.581 117.851L228.886 117.133C225.663 120.252 224.692 121.224 220.735 123.697L221.265 124.545Z" fill="#5567D5"/>
<path d="M684.734 117.5C684.738 117.224 684.518 116.996 684.242 116.992L679.742 116.918C679.466 116.914 679.239 117.134 679.234 117.41C679.23 117.686 679.45 117.914 679.726 117.918L683.725 117.984L683.66 121.983C683.656 122.259 683.876 122.487 684.152 122.491C684.428 122.496 684.655 122.275 684.66 121.999L684.734 117.5ZM675.735 123.697C675.501 123.844 675.43 124.152 675.576 124.386C675.722 124.621 676.031 124.692 676.265 124.545L675.735 123.697ZM676.265 124.545C680.308 122.018 681.337 120.991 684.581 117.851L683.886 117.133C680.663 120.252 679.692 121.224 675.735 123.697L676.265 124.545Z" fill="#5567D5"/>
<path d="M262.26 107.637C254.521 97.391 251.684 85.7787 252.329 74.9779C252.998 64.1818 264.14 55.5937 271.4 46.0771C278.63 36.5757 281.976 26.1456 295.144 23.4913C308.337 20.842 324.385 24.5766 335.439 32.317C346.465 40.0521 352.523 51.8191 358.733 63.992C364.944 76.1648 360.643 86.3731 356.103 94.4836C351.563 102.594 340.869 109.174 327.115 114.898C313.364 120.601 307.269 127.827 294.942 127.294C282.619 126.74 269.998 117.884 262.26 107.637Z" fill="white"/>
<path d="M280.64 73.9173C279.523 72.5151 279.801 70.5264 281.261 69.4755C282.721 68.4245 284.81 68.7094 285.928 70.1116L297.468 84.8087M292.184 93.998L284.611 100.283C283.232 101.428 281.128 101.281 279.913 99.9542C278.698 98.6277 278.832 96.6241 280.211 95.4791L290.693 86.7793L285.667 80.3483" stroke="#1D2028" stroke-linecap="round"/>
<path fill-rule="evenodd" clip-rule="evenodd" d="M281.11 96.5053C279.925 95.2116 280.055 93.2575 281.401 92.1408L291.623 83.6561L283.346 73.2652C282.256 71.8976 282.527 69.958 283.951 68.9331C285.375 67.9082 287.412 68.186 288.502 69.5535L299.852 83.8003C300.191 84.2261 300.127 84.8451 299.708 85.1928L285.692 96.8259C284.346 97.9426 282.295 97.7991 281.11 96.5053Z" fill="#A6B3FF"/>
<rect x="298.968" y="94.3501" width="14.6758" height="5.06087" rx="2.53044" transform="rotate(-0.205994 298.968 94.3501)" fill="#CCD1F2"/>
<path d="M310.968 97.3086V97.3086C311.189 98.9066 309.95 100.333 308.337 100.339L299.569 100.37C298.171 100.375 297.034 99.2463 297.029 97.8488V97.8488C297.024 96.4513 298.153 95.3143 299.551 95.3093L304.193 95.2926" stroke="#1D2028" stroke-linecap="round"/>
<path d="M762.973 130.971C750.139 131.371 739.021 126.979 730.575 120.216C722.149 113.434 721.572 99.3782 717.996 87.9553C714.415 76.5657 707.833 67.81 713.271 55.5271C718.728 43.2268 731.045 32.2827 743.748 27.7289C756.431 23.1951 769.536 25.0458 783.06 27.0061C796.584 28.9665 802.434 38.373 806.433 46.7635C810.432 55.1541 809.627 67.6845 806.357 82.2188C803.071 96.7378 805.45 105.887 797.895 115.642C790.325 125.382 775.807 130.571 762.973 130.971Z" fill="white"/>
<path d="M771.417 41.9089C769.347 44.6493 764.258 52.4588 761.578 62.0847" stroke="#1D2028"/>
<path d="M789.296 47.2646L783.082 61.329L787.387 68.5583C788.3 65.2817 788.847 62.0429 789.158 59.0848" stroke="#1D2028"/>
<path d="M788.606 22.0863C784.754 24.7035 776.026 32.5288 772.779 42.5801C769.513 52.6893 770.459 58.2896 771.383 59.6947L783.919 63.1852C785.437 62.46 789.14 58.1541 791.569 47.8117C793.983 37.5287 790.551 26.3175 788.606 22.0863Z" fill="#A6B3FF"/>
<path d="M762.076 64.5504C762.076 64.5504 766.666 51.926 768.908 48.301L770.874 60.9902L762.076 64.5504Z" fill="#CCD1F2"/>
<path d="M773.984 73.4487L771.913 66.1341L778.063 52.4016L779.007 68.866L773.984 73.4487Z" fill="#CCD1F2"/>
<path d="M778.65 61.2054L782.233 61.8525C783.701 61.1666 787.273 57.0707 789.582 47.2047C791.878 37.3953 788.501 26.674 786.597 22.6248C782.874 25.1073 774.447 32.5422 771.343 42.1266C770.535 46.1668 769.332 55.1156 770.985 58.5889" stroke="#1D2028"/>
<path d="M773.347 72.9633L771.133 66.0522L778.681 50.0917L779.003 63.3941" stroke="#1D2028"/>
<circle cx="782.615" cy="36.842" r="4.14102" transform="rotate(15.559 782.615 36.842)" fill="white" stroke="#1D2028"/>
<path d="M780.959 68C787.31 75.8846 796.026 99.658 784.457 110.213C772.888 120.768 766.305 114.213 763.457 110.213C760.609 106.213 762.457 96.0809 770.457 94.5809C778.457 93.081 782.457 97.5809 780.959 102.581" stroke="black" stroke-linecap="round" stroke-dasharray="1 5"/>
<path d="M735.642 67.0281C734.675 64.4407 737.994 62.4552 739.778 64.5531C741.006 65.9965 743.315 65.5606 743.936 63.7682C744.838 61.163 748.649 61.8026 748.686 64.5655C748.711 66.4664 750.761 67.6338 752.378 66.6677C754.727 65.2637 757.247 68.2292 755.519 70.3643C754.33 71.8332 755.163 74.0576 757.018 74.37C759.715 74.8241 759.766 78.7279 757.081 79.2361C755.234 79.5858 754.46 81.8264 755.686 83.271C757.469 85.3708 755.026 88.3862 752.641 87.0298C751 86.0966 748.981 87.305 749.005 89.2059C749.039 91.9688 745.246 92.685 744.276 90.0986C743.609 88.3192 741.29 87.9299 740.1 89.3977C738.37 91.5309 735.001 89.6127 735.901 87.0065C736.52 85.2135 734.986 83.4088 733.139 83.7565C730.454 84.262 729.086 80.607 731.434 79.2004C733.049 78.2328 733.018 75.857 731.378 74.9221C728.995 73.5633 730.268 69.8816 732.965 70.3329C734.821 70.6434 736.307 68.8083 735.642 67.0281Z" fill="#CCD1F2"/>
<path d="M734.61 97.1662C734.054 95.6765 735.964 94.5333 736.992 95.7412C737.699 96.5722 739.028 96.3213 739.385 95.2893C739.905 93.7893 742.099 94.1575 742.12 95.7483C742.135 96.8427 743.315 97.5149 744.246 96.9587C745.598 96.1503 747.049 97.8577 746.055 99.087C745.37 99.9328 745.849 101.213 746.918 101.393C748.47 101.655 748.5 103.902 746.954 104.195C745.891 104.396 745.445 105.686 746.151 106.518C747.177 107.727 745.771 109.463 744.398 108.682C743.453 108.145 742.29 108.841 742.304 109.935C742.324 111.526 740.14 111.938 739.582 110.449C739.197 109.425 737.862 109.201 737.177 110.046C736.181 111.274 734.241 110.169 734.759 108.669C735.116 107.637 734.233 106.597 733.169 106.798C731.623 107.089 730.836 104.984 732.187 104.174C733.117 103.617 733.099 102.249 732.155 101.711C730.783 100.929 731.516 98.8091 733.069 99.0689C734.137 99.2477 734.993 98.1911 734.61 97.1662Z" fill="#A6B3FF"/>
<ellipse cx="5.77216" cy="5.74607" rx="5.77216" ry="5.74607" transform="matrix(0.8581 -0.513483 0.506418 0.862288 736.202 74.6201)" fill="white"/>
<ellipse cx="2.66407" cy="2.65203" rx="2.66407" ry="2.65203" transform="matrix(0.8581 -0.513483 0.506418 0.862288 735.674 102.374)" fill="white"/>
<path d="M747.423 82.3282C750.579 80.4394 751.635 76.3487 749.78 73.1912C747.926 70.0338 743.864 69.0053 740.708 70.8941C737.551 72.7828 736.496 76.8736 738.35 80.031" stroke="#1D2028" stroke-width="1.00299" stroke-linecap="round" stroke-linejoin="round"/>
<path d="M741.027 105.352C742.5 104.47 742.992 102.561 742.127 101.088C741.261 99.6144 739.366 99.1345 737.893 100.016C736.42 100.897 735.927 102.806 736.793 104.28" stroke="#1D2028" stroke-width="1.00299" stroke-linecap="round" stroke-linejoin="round"/>
<path d="M270.084 155.042L270.04 155.049C268.868 155.049 267.865 154.742 267.022 154.134C266.18 153.526 265.609 152.771 265.308 151.878L266.846 151.417C267.088 152.054 267.498 152.581 268.077 152.991C268.656 153.401 269.337 153.606 270.128 153.606C270.823 153.606 271.395 153.438 271.842 153.108C272.288 152.779 272.515 152.398 272.515 151.966C272.515 151.614 272.391 151.321 272.135 151.08C271.878 150.838 271.453 150.625 270.853 150.435L268.216 149.593C266.641 149.102 265.858 148.245 265.858 147.022C265.858 146.231 266.202 145.55 266.89 144.986C267.579 144.422 268.443 144.136 269.483 144.136C270.552 144.136 271.475 144.385 272.252 144.883C273.028 145.381 273.577 146.004 273.9 146.751L272.384 147.205C272.135 146.714 271.761 146.319 271.256 146.019C270.75 145.718 270.164 145.572 269.498 145.572C268.919 145.572 268.443 145.711 268.07 145.989C267.696 146.268 267.506 146.597 267.506 146.978C267.506 147.278 267.615 147.527 267.828 147.725C268.04 147.923 268.385 148.091 268.853 148.23L271.431 149.051C272.34 149.336 273.028 149.688 273.49 150.105C273.951 150.523 274.185 151.102 274.185 151.849C274.185 152.75 273.804 153.504 273.043 154.119C272.281 154.734 271.292 155.042 270.084 155.042ZM279.854 153.313L280.242 154.603C279.671 154.844 279.115 154.961 278.58 154.961C277.789 154.961 277.196 154.734 276.807 154.28C276.419 153.826 276.221 153.196 276.221 152.398V148.692H274.844V147.3H276.221V144.781H277.781V147.3H280.184V148.692H277.781V152.398C277.781 153.167 278.14 153.555 278.865 153.555C279.195 153.555 279.525 153.475 279.854 153.313ZM284.923 155.042L284.937 155.057C283.743 155.057 282.777 154.69 282.03 153.958C281.282 153.226 280.909 152.266 280.909 151.087C280.909 149.952 281.268 149.007 281.986 148.252C282.703 147.498 283.641 147.117 284.791 147.117C285.985 147.117 286.922 147.476 287.611 148.201C288.299 148.926 288.643 149.834 288.643 150.933C288.643 151.124 288.629 151.336 288.592 151.563H282.462C282.513 152.2 282.755 152.713 283.194 153.101C283.634 153.489 284.227 153.687 284.967 153.687C286.007 153.687 286.724 153.284 287.113 152.471L288.548 152.896C288.277 153.489 287.83 153.995 287.208 154.412C286.585 154.83 285.823 155.042 284.923 155.042ZM282.462 150.523H287.098C287.047 149.922 286.82 149.432 286.417 149.051C286.014 148.67 285.472 148.479 284.798 148.479C284.146 148.479 283.612 148.677 283.187 149.073C282.762 149.468 282.52 149.952 282.462 150.523ZM294.517 147.103V147.11C295.587 147.11 296.48 147.483 297.198 148.238C297.916 148.992 298.275 149.937 298.275 151.072C298.275 152.208 297.916 153.152 297.198 153.907C296.48 154.661 295.587 155.042 294.517 155.042C293.345 155.042 292.445 154.595 291.815 153.702V157.994H290.24V147.3H291.815V148.443C292.445 147.549 293.345 147.103 294.517 147.103ZM294.261 153.636L294.254 153.628C294.971 153.628 295.565 153.387 296.026 152.903C296.488 152.42 296.722 151.805 296.722 151.065C296.722 150.325 296.495 149.717 296.033 149.241C295.572 148.765 294.979 148.523 294.254 148.523C293.558 148.523 292.972 148.765 292.489 149.249C292.005 149.732 291.763 150.34 291.763 151.072C291.763 151.812 292.005 152.427 292.489 152.911C292.972 153.394 293.565 153.636 294.261 153.636ZM305.687 153.357L310.631 153.372V154.859H303.248V153.702L307.386 149.761C307.884 149.292 308.25 148.89 308.485 148.545C308.719 148.201 308.836 147.842 308.836 147.461C308.836 146.89 308.66 146.436 308.309 146.106C307.957 145.777 307.481 145.608 306.873 145.608C306.324 145.608 305.855 145.784 305.467 146.128C305.079 146.473 304.823 146.934 304.698 147.513L303.24 147.088C303.35 146.29 303.739 145.601 304.398 145.022C305.057 144.444 305.87 144.151 306.837 144.151C307.913 144.151 308.785 144.437 309.451 145.008C310.118 145.579 310.455 146.37 310.455 147.381C310.455 148.003 310.294 148.56 309.971 149.058C309.649 149.556 309.158 150.113 308.492 150.721L305.687 153.357Z" fill="#5567D5"/>
<path d="M273.695 178.844L272.691 176.295H267.696L266.693 178.844H264.993L269.154 168.341H271.234L275.394 178.844H273.695ZM268.253 174.853H272.135L270.201 169.887L268.253 174.853ZM282.359 167.895L283.919 167.887V178.837H282.359V177.694C281.729 178.581 280.821 179.027 279.642 179.035C278.573 179.035 277.679 178.654 276.961 177.899C276.243 177.145 275.885 176.2 275.885 175.065C275.885 173.937 276.243 172.992 276.961 172.238C277.679 171.483 278.573 171.103 279.642 171.103C280.821 171.103 281.729 171.549 282.359 172.443V167.895ZM279.898 177.621L279.876 177.628C280.572 177.628 281.165 177.387 281.649 176.903C282.132 176.42 282.374 175.805 282.374 175.065C282.374 174.333 282.132 173.725 281.649 173.241C281.165 172.758 280.579 172.516 279.884 172.516C279.166 172.516 278.58 172.758 278.118 173.234C277.657 173.71 277.43 174.318 277.43 175.058C277.43 175.797 277.664 176.413 278.126 176.896C278.587 177.379 279.18 177.621 279.898 177.621ZM292.012 167.895L293.573 167.887V178.837H292.012V177.694C291.383 178.581 290.474 179.027 289.295 179.035C288.226 179.035 287.332 178.654 286.615 177.899C285.897 177.145 285.538 176.2 285.538 175.065C285.538 173.937 285.897 172.992 286.615 172.238C287.332 171.483 288.226 171.103 289.295 171.103C290.474 171.103 291.383 171.549 292.012 172.443V167.895ZM289.552 177.621L289.53 177.628C290.225 177.628 290.819 177.387 291.302 176.903C291.785 176.42 292.027 175.805 292.027 175.065C292.027 174.333 291.785 173.725 291.302 173.241C290.819 172.758 290.233 172.516 289.537 172.516C288.819 172.516 288.233 172.758 287.772 173.234C287.31 173.71 287.083 174.318 287.083 175.058C287.083 175.797 287.318 176.413 287.779 176.896C288.24 177.379 288.834 177.621 289.552 177.621ZM303.687 177.313L304.075 178.603C303.504 178.844 302.948 178.961 302.413 178.961C301.622 178.961 301.029 178.734 300.64 178.28C300.252 177.826 300.054 177.196 300.054 176.398V172.692H298.677V171.3H300.054V168.781H301.615V171.3H304.017V172.692H301.615V176.398C301.615 177.167 301.973 177.555 302.698 177.555C303.028 177.555 303.358 177.475 303.687 177.313ZM309.737 171.103V171.088C310.697 171.088 311.436 171.381 311.956 171.974C312.476 172.567 312.733 173.38 312.733 174.413V178.837H311.173V174.699C311.173 174.032 311.019 173.512 310.704 173.139C310.389 172.765 309.927 172.575 309.32 172.575C308.66 172.575 308.133 172.802 307.738 173.263C307.342 173.725 307.144 174.333 307.144 175.094V178.844H305.57V167.895H307.144V172.421C307.767 171.542 308.631 171.103 309.737 171.103ZM318.321 179.042L318.336 179.057C317.142 179.057 316.175 178.69 315.428 177.958C314.681 177.226 314.307 176.266 314.307 175.087C314.307 173.952 314.666 173.007 315.384 172.252C316.102 171.498 317.039 171.117 318.189 171.117C319.383 171.117 320.321 171.476 321.009 172.201C321.698 172.926 322.042 173.834 322.042 174.933C322.042 175.124 322.027 175.336 321.99 175.563H315.86C315.911 176.2 316.153 176.713 316.593 177.101C317.032 177.489 317.625 177.687 318.365 177.687C319.405 177.687 320.123 177.284 320.511 176.471L321.947 176.896C321.676 177.489 321.229 177.995 320.606 178.412C319.984 178.83 319.222 179.042 318.321 179.042ZM315.86 174.523H320.496C320.445 173.922 320.218 173.432 319.815 173.051C319.412 172.67 318.87 172.479 318.197 172.479C317.545 172.479 317.01 172.677 316.585 173.073C316.16 173.468 315.919 173.952 315.86 174.523ZM330.933 179.042V179.064C329.798 179.064 328.853 178.683 328.099 177.921C327.344 177.16 326.971 176.215 326.971 175.087C326.971 173.959 327.344 173.014 328.092 172.26C328.839 171.505 329.783 171.125 330.919 171.125C331.864 171.125 332.655 171.366 333.299 171.85C333.944 172.333 334.346 172.882 334.508 173.505L333.05 173.922C332.94 173.549 332.691 173.227 332.303 172.948C331.915 172.67 331.461 172.531 330.941 172.531C330.223 172.531 329.637 172.78 329.183 173.271C328.729 173.761 328.502 174.362 328.502 175.072C328.502 175.768 328.729 176.369 329.183 176.874C329.637 177.379 330.223 177.628 330.933 177.628C331.453 177.628 331.907 177.497 332.296 177.233C332.684 176.969 332.933 176.654 333.043 176.281L334.5 176.684C334.339 177.292 333.944 177.833 333.306 178.317C332.669 178.8 331.878 179.042 330.933 179.042ZM339.656 179.042H339.649C338.499 179.042 337.547 178.661 336.785 177.907C336.024 177.152 335.643 176.208 335.643 175.072C335.643 173.944 336.024 173 336.785 172.245C337.547 171.491 338.499 171.11 339.649 171.11C340.799 171.11 341.759 171.483 342.52 172.238C343.282 172.992 343.663 173.937 343.663 175.072C343.663 176.208 343.282 177.152 342.52 177.907C341.759 178.661 340.806 179.042 339.656 179.042ZM339.649 177.614C340.367 177.614 340.96 177.372 341.429 176.889C341.898 176.405 342.132 175.805 342.132 175.087C342.132 174.354 341.898 173.747 341.429 173.263C340.96 172.78 340.367 172.538 339.649 172.538C338.931 172.538 338.338 172.78 337.877 173.263C337.415 173.747 337.181 174.354 337.181 175.087C337.181 175.805 337.415 176.405 337.877 176.889C338.338 177.372 338.931 177.614 339.649 177.614ZM349.464 171.103V171.088C350.423 171.088 351.163 171.381 351.683 171.974C352.203 172.567 352.459 173.38 352.459 174.413V178.837H350.899V174.699C350.899 174.032 350.745 173.512 350.43 173.139C350.115 172.765 349.654 172.575 349.046 172.575C348.387 172.575 347.86 172.802 347.464 173.263C347.069 173.725 346.871 174.333 346.871 175.094V178.844H345.296V171.3H346.871V172.421C347.493 171.542 348.358 171.103 349.464 171.103ZM358.663 171.103V171.088C359.622 171.088 360.362 171.381 360.882 171.974C361.402 172.567 361.658 173.38 361.658 174.413V178.837H360.098V174.699C360.098 174.032 359.945 173.512 359.63 173.139C359.315 172.765 358.853 172.575 358.245 172.575C357.586 172.575 357.059 172.802 356.663 173.263C356.268 173.725 356.07 174.333 356.07 175.094V178.844H354.495V171.3H356.07V172.421C356.693 171.542 357.557 171.103 358.663 171.103ZM367.247 179.042L367.261 179.057C366.068 179.057 365.101 178.69 364.354 177.958C363.607 177.226 363.233 176.266 363.233 175.087C363.233 173.952 363.592 173.007 364.31 172.252C365.028 171.498 365.965 171.117 367.115 171.117C368.309 171.117 369.246 171.476 369.935 172.201C370.623 172.926 370.968 173.834 370.968 174.933C370.968 175.124 370.953 175.336 370.916 175.563H364.786C364.837 176.2 365.079 176.713 365.518 177.101C365.958 177.489 366.551 177.687 367.291 177.687C368.331 177.687 369.049 177.284 369.437 176.471L370.872 176.896C370.601 177.489 370.155 177.995 369.532 178.412C368.909 178.83 368.148 179.042 367.247 179.042ZM364.786 174.523H369.422C369.371 173.922 369.144 173.432 368.741 173.051C368.338 172.67 367.796 172.479 367.122 172.479C366.47 172.479 365.936 172.677 365.511 173.073C365.086 173.468 364.844 173.952 364.786 174.523ZM376.065 179.042V179.064C374.93 179.064 373.985 178.683 373.231 177.921C372.476 177.16 372.103 176.215 372.103 175.087C372.103 173.959 372.476 173.014 373.223 172.26C373.97 171.505 374.915 171.125 376.051 171.125C376.995 171.125 377.786 171.366 378.431 171.85C379.075 172.333 379.478 172.882 379.639 173.505L378.182 173.922C378.072 173.549 377.823 173.227 377.435 172.948C377.047 172.67 376.593 172.531 376.073 172.531C375.355 172.531 374.769 172.78 374.315 173.271C373.861 173.761 373.634 174.362 373.634 175.072C373.634 175.768 373.861 176.369 374.315 176.874C374.769 177.379 375.355 177.628 376.065 177.628C376.585 177.628 377.039 177.497 377.427 177.233C377.816 176.969 378.065 176.654 378.175 176.281L379.632 176.684C379.471 177.292 379.075 177.833 378.438 178.317C377.801 178.8 377.01 179.042 376.065 179.042ZM385.484 177.313L385.872 178.603C385.301 178.844 384.744 178.961 384.21 178.961C383.419 178.961 382.825 178.734 382.437 178.28C382.049 177.826 381.851 177.196 381.851 176.398V172.692H380.474V171.3H381.851V168.781H383.411V171.3H385.814V172.692H383.411V176.398C383.411 177.167 383.77 177.555 384.495 177.555C384.825 177.555 385.155 177.475 385.484 177.313ZM388.245 170.07C387.967 170.07 387.733 169.975 387.542 169.792C387.352 169.608 387.257 169.374 387.257 169.096C387.257 168.839 387.352 168.612 387.542 168.422C387.733 168.231 387.967 168.136 388.245 168.136C388.524 168.136 388.758 168.231 388.948 168.422C389.139 168.612 389.234 168.839 389.234 169.096C389.234 169.374 389.139 169.608 388.948 169.792C388.758 169.975 388.524 170.07 388.245 170.07ZM387.447 178.844V171.3H389.007V178.844H387.447ZM394.691 179.042H394.683C393.533 179.042 392.581 178.661 391.82 177.907C391.058 177.152 390.677 176.208 390.677 175.072C390.677 173.944 391.058 173 391.82 172.245C392.581 171.491 393.533 171.11 394.683 171.11C395.833 171.11 396.793 171.483 397.554 172.238C398.316 172.992 398.697 173.937 398.697 175.072C398.697 176.208 398.316 177.152 397.554 177.907C396.793 178.661 395.841 179.042 394.691 179.042ZM394.683 177.614C395.401 177.614 395.994 177.372 396.463 176.889C396.932 176.405 397.166 175.805 397.166 175.087C397.166 174.354 396.932 173.747 396.463 173.263C395.994 172.78 395.401 172.538 394.683 172.538C393.966 172.538 393.372 172.78 392.911 173.263C392.449 173.747 392.215 174.354 392.215 175.087C392.215 175.805 392.449 176.405 392.911 176.889C393.372 177.372 393.966 177.614 394.683 177.614ZM404.498 171.103V171.088C405.457 171.088 406.197 171.381 406.717 171.974C407.237 172.567 407.493 173.38 407.493 174.413V178.837H405.933V174.699C405.933 174.032 405.78 173.512 405.465 173.139C405.15 172.765 404.688 172.575 404.08 172.575C403.421 172.575 402.894 172.802 402.498 173.263C402.103 173.725 401.905 174.333 401.905 175.094V178.844H400.33V171.3H401.905V172.421C402.528 171.542 403.392 171.103 404.498 171.103ZM268.795 203.042L268.758 203.049C267.901 203.049 267.147 202.822 266.488 202.375C265.828 201.929 265.404 201.387 265.206 200.75L266.634 200.332C266.773 200.742 267.044 201.079 267.44 201.35C267.835 201.621 268.297 201.753 268.817 201.753C269.285 201.753 269.666 201.65 269.959 201.453C270.252 201.255 270.399 201.013 270.399 200.728C270.399 200.5 270.325 200.317 270.172 200.186C270.018 200.054 269.769 199.937 269.425 199.834L267.396 199.233C266.195 198.875 265.594 198.23 265.594 197.3C265.594 196.699 265.872 196.187 266.436 195.754C267 195.322 267.681 195.11 268.48 195.11C269.271 195.11 269.959 195.286 270.538 195.637C271.116 195.989 271.519 196.45 271.746 197.014L270.355 197.424C270.201 197.124 269.959 196.875 269.63 196.67C269.3 196.465 268.912 196.362 268.465 196.362C268.084 196.362 267.769 196.458 267.52 196.641C267.271 196.824 267.147 197.036 267.147 197.278C267.147 197.607 267.418 197.856 267.96 198.025L269.967 198.604C270.589 198.787 271.073 199.028 271.424 199.336C271.776 199.644 271.951 200.083 271.951 200.662C271.951 201.343 271.651 201.907 271.058 202.361C270.465 202.815 269.71 203.042 268.795 203.042ZM277.818 195.103V195.088C278.778 195.088 279.517 195.381 280.037 195.974C280.557 196.567 280.814 197.38 280.814 198.413V202.837H279.254V198.699C279.254 198.032 279.1 197.512 278.785 197.139C278.47 196.765 278.009 196.575 277.401 196.575C276.741 196.575 276.214 196.802 275.819 197.263C275.423 197.725 275.225 198.333 275.225 199.094V202.844H273.651V195.3H275.225V196.421C275.848 195.542 276.712 195.103 277.818 195.103ZM283.67 194.07C283.392 194.07 283.157 193.975 282.967 193.792C282.777 193.608 282.681 193.374 282.681 193.096C282.681 192.839 282.777 192.612 282.967 192.422C283.157 192.231 283.392 192.136 283.67 192.136C283.948 192.136 284.183 192.231 284.373 192.422C284.564 192.612 284.659 192.839 284.659 193.096C284.659 193.374 284.564 193.608 284.373 193.792C284.183 193.975 283.948 194.07 283.67 194.07ZM282.872 202.844V195.3H284.432V202.844H282.872ZM290.855 195.103V195.11C291.925 195.11 292.818 195.483 293.536 196.238C294.254 196.992 294.613 197.937 294.613 199.072C294.613 200.208 294.254 201.152 293.536 201.907C292.818 202.661 291.925 203.042 290.855 203.042C289.683 203.042 288.782 202.595 288.153 201.702V205.994H286.578V195.3H288.153V196.443C288.782 195.549 289.683 195.103 290.855 195.103ZM290.599 201.636L290.592 201.628C291.309 201.628 291.903 201.387 292.364 200.903C292.825 200.42 293.06 199.805 293.06 199.065C293.06 198.325 292.833 197.717 292.371 197.241C291.91 196.765 291.317 196.523 290.592 196.523C289.896 196.523 289.31 196.765 288.826 197.249C288.343 197.732 288.101 198.34 288.101 199.072C288.101 199.812 288.343 200.427 288.826 200.911C289.31 201.394 289.903 201.636 290.599 201.636ZM300.509 195.103V195.11C301.578 195.11 302.471 195.483 303.189 196.238C303.907 196.992 304.266 197.937 304.266 199.072C304.266 200.208 303.907 201.152 303.189 201.907C302.471 202.661 301.578 203.042 300.509 203.042C299.337 203.042 298.436 202.595 297.806 201.702V205.994H296.231V195.3H297.806V196.443C298.436 195.549 299.337 195.103 300.509 195.103ZM300.252 201.636L300.245 201.628C300.963 201.628 301.556 201.387 302.017 200.903C302.479 200.42 302.713 199.805 302.713 199.065C302.713 198.325 302.486 197.717 302.025 197.241C301.563 196.765 300.97 196.523 300.245 196.523C299.549 196.523 298.963 196.765 298.48 197.249C297.996 197.732 297.755 198.34 297.755 199.072C297.755 199.812 297.996 200.427 298.48 200.911C298.963 201.394 299.556 201.636 300.252 201.636ZM309.444 203.042L309.459 203.057C308.265 203.057 307.298 202.69 306.551 201.958C305.804 201.226 305.43 200.266 305.43 199.087C305.43 197.952 305.789 197.007 306.507 196.252C307.225 195.498 308.162 195.117 309.312 195.117C310.506 195.117 311.444 195.476 312.132 196.201C312.821 196.926 313.165 197.834 313.165 198.933C313.165 199.124 313.15 199.336 313.114 199.563H306.983C307.034 200.2 307.276 200.713 307.716 201.101C308.155 201.489 308.748 201.687 309.488 201.687C310.528 201.687 311.246 201.284 311.634 200.471L313.07 200.896C312.799 201.489 312.352 201.995 311.729 202.412C311.107 202.83 310.345 203.042 309.444 203.042ZM306.983 198.523H311.619C311.568 197.922 311.341 197.432 310.938 197.051C310.535 196.67 309.993 196.479 309.32 196.479C308.668 196.479 308.133 196.677 307.708 197.073C307.283 197.468 307.042 197.952 306.983 198.523ZM318.76 201.313L319.149 202.603C318.577 202.844 318.021 202.961 317.486 202.961C316.695 202.961 316.102 202.734 315.714 202.28C315.325 201.826 315.128 201.196 315.128 200.398V196.692H313.751V195.3H315.128V192.781H316.688V195.3H319.09V196.692H316.688V200.398C316.688 201.167 317.047 201.555 317.772 201.555C318.101 201.555 318.431 201.475 318.76 201.313ZM328.721 201.313L329.11 202.603C328.538 202.844 327.982 202.961 327.447 202.961C326.656 202.961 326.063 202.734 325.675 202.28C325.286 201.826 325.089 201.196 325.089 200.398V196.692H323.712V195.3H325.089V192.781H326.649V195.3H329.051V196.692H326.649V200.398C326.649 201.167 327.008 201.555 327.733 201.555C328.062 201.555 328.392 201.475 328.721 201.313ZM333.768 203.042H333.76C332.611 203.042 331.658 202.661 330.897 201.907C330.135 201.152 329.754 200.208 329.754 199.072C329.754 197.944 330.135 197 330.897 196.245C331.658 195.491 332.611 195.11 333.76 195.11C334.91 195.11 335.87 195.483 336.632 196.238C337.393 196.992 337.774 197.937 337.774 199.072C337.774 200.208 337.393 201.152 336.632 201.907C335.87 202.661 334.918 203.042 333.768 203.042ZM333.76 201.614C334.478 201.614 335.072 201.372 335.54 200.889C336.009 200.405 336.243 199.805 336.243 199.087C336.243 198.354 336.009 197.747 335.54 197.263C335.072 196.78 334.478 196.538 333.76 196.538C333.043 196.538 332.449 196.78 331.988 197.263C331.527 197.747 331.292 198.354 331.292 199.087C331.292 199.805 331.527 200.405 331.988 200.889C332.449 201.372 333.043 201.614 333.76 201.614ZM346.695 203.042V203.064C345.56 203.064 344.615 202.683 343.861 201.921C343.106 201.16 342.733 200.215 342.733 199.087C342.733 197.959 343.106 197.014 343.853 196.26C344.6 195.505 345.545 195.125 346.68 195.125C347.625 195.125 348.416 195.366 349.061 195.85C349.705 196.333 350.108 196.882 350.269 197.505L348.812 197.922C348.702 197.549 348.453 197.227 348.065 196.948C347.677 196.67 347.222 196.531 346.702 196.531C345.985 196.531 345.399 196.78 344.945 197.271C344.49 197.761 344.263 198.362 344.263 199.072C344.263 199.768 344.49 200.369 344.945 200.874C345.399 201.379 345.985 201.628 346.695 201.628C347.215 201.628 347.669 201.497 348.057 201.233C348.446 200.969 348.695 200.654 348.804 200.281L350.262 200.684C350.101 201.292 349.705 201.833 349.068 202.317C348.431 202.8 347.64 203.042 346.695 203.042ZM355.418 203.042H355.411C354.261 203.042 353.309 202.661 352.547 201.907C351.785 201.152 351.405 200.208 351.405 199.072C351.405 197.944 351.785 197 352.547 196.245C353.309 195.491 354.261 195.11 355.411 195.11C356.561 195.11 357.52 195.483 358.282 196.238C359.044 196.992 359.425 197.937 359.425 199.072C359.425 200.208 359.044 201.152 358.282 201.907C357.52 202.661 356.568 203.042 355.418 203.042ZM355.411 201.614C356.129 201.614 356.722 201.372 357.191 200.889C357.659 200.405 357.894 199.805 357.894 199.087C357.894 198.354 357.659 197.747 357.191 197.263C356.722 196.78 356.129 196.538 355.411 196.538C354.693 196.538 354.1 196.78 353.638 197.263C353.177 197.747 352.943 198.354 352.943 199.087C352.943 199.805 353.177 200.405 353.638 200.889C354.1 201.372 354.693 201.614 355.411 201.614ZM365.225 195.103V195.088C366.185 195.088 366.925 195.381 367.445 195.974C367.965 196.567 368.221 197.38 368.221 198.413V202.837H366.661V198.699C366.661 198.032 366.507 197.512 366.192 197.139C365.877 196.765 365.416 196.575 364.808 196.575C364.149 196.575 363.621 196.802 363.226 197.263C362.83 197.725 362.633 198.333 362.633 199.094V202.844H361.058V195.3H362.633V196.421C363.255 195.542 364.119 195.103 365.225 195.103ZM377.406 195.3L377.398 202.844H375.838V196.692H372.615V202.844H371.041V196.692H369.539V195.3H371.041V194.458C371.041 193.586 371.282 192.905 371.766 192.422C372.249 191.938 372.96 191.697 373.897 191.697C374.871 191.697 375.714 191.946 376.424 192.437L376.036 193.711C375.399 193.279 374.74 193.066 374.058 193.066C373.597 193.066 373.245 193.191 372.996 193.44C372.747 193.689 372.623 194.041 372.623 194.487V195.3H377.406ZM385.301 195.3L386.883 195.33V202.603C386.883 203.665 386.531 204.529 385.828 205.203C385.125 205.876 384.202 206.213 383.06 206.213C381.39 206.213 380.189 205.554 379.464 204.243L380.841 203.738C381.302 204.507 382.049 204.888 383.089 204.88C383.785 204.88 384.327 204.668 384.715 204.243C385.103 203.818 385.301 203.269 385.308 202.603V201.497C384.678 202.346 383.792 202.771 382.657 202.771C381.566 202.771 380.665 202.405 379.954 201.672C379.244 200.94 378.892 200.024 378.892 198.933C378.892 197.812 379.244 196.897 379.947 196.179C380.65 195.461 381.551 195.103 382.65 195.103C383.785 195.103 384.671 195.52 385.301 196.362V195.3ZM382.899 201.372H382.884C383.58 201.372 384.166 201.145 384.635 200.684C385.103 200.222 385.338 199.644 385.338 198.955C385.338 198.267 385.103 197.695 384.635 197.241C384.166 196.787 383.58 196.56 382.884 196.56C382.166 196.56 381.58 196.787 381.119 197.234C380.657 197.681 380.43 198.252 380.43 198.955C380.43 199.658 380.665 200.237 381.126 200.691C381.588 201.145 382.181 201.372 382.899 201.372ZM273.079 219.3L273.072 226.844H271.512V220.692H268.289V226.844H266.715V220.692H265.213V219.3H266.715V218.458C266.715 217.586 266.956 216.905 267.44 216.422C267.923 215.938 268.634 215.697 269.571 215.697C270.545 215.697 271.387 215.946 272.098 216.437L271.71 217.711C271.073 217.279 270.413 217.066 269.732 217.066C269.271 217.066 268.919 217.191 268.67 217.44C268.421 217.689 268.297 218.041 268.297 218.487V219.3H273.079ZM275.02 226.844V215.895H276.595V226.844H275.02ZM282.257 227.042L282.271 227.057C281.077 227.057 280.111 226.69 279.364 225.958C278.616 225.226 278.243 224.266 278.243 223.087C278.243 221.952 278.602 221.007 279.32 220.252C280.037 219.498 280.975 219.117 282.125 219.117C283.319 219.117 284.256 219.476 284.945 220.201C285.633 220.926 285.977 221.834 285.977 222.933C285.977 223.124 285.963 223.336 285.926 223.563H279.796C279.847 224.2 280.089 224.713 280.528 225.101C280.968 225.489 281.561 225.687 282.301 225.687C283.341 225.687 284.058 225.284 284.447 224.471L285.882 224.896C285.611 225.489 285.164 225.995 284.542 226.412C283.919 226.83 283.157 227.042 282.257 227.042ZM279.796 222.523H284.432C284.381 221.922 284.154 221.432 283.751 221.051C283.348 220.67 282.806 220.479 282.132 220.479C281.48 220.479 280.946 220.677 280.521 221.073C280.096 221.468 279.854 221.952 279.796 222.523Z" fill="#40404B"/>
<path d="M726.084 155.042L726.04 155.049C724.868 155.049 723.865 154.742 723.022 154.134C722.18 153.526 721.609 152.771 721.308 151.878L722.846 151.417C723.088 152.054 723.498 152.581 724.077 152.991C724.656 153.401 725.337 153.606 726.128 153.606C726.823 153.606 727.395 153.438 727.842 153.108C728.288 152.779 728.515 152.398 728.515 151.966C728.515 151.614 728.391 151.321 728.135 151.08C727.878 150.838 727.453 150.625 726.853 150.435L724.216 149.593C722.641 149.102 721.858 148.245 721.858 147.022C721.858 146.231 722.202 145.55 722.89 144.986C723.579 144.422 724.443 144.136 725.483 144.136C726.552 144.136 727.475 144.385 728.252 144.883C729.028 145.381 729.577 146.004 729.9 146.751L728.384 147.205C728.135 146.714 727.761 146.319 727.256 146.019C726.75 145.718 726.164 145.572 725.498 145.572C724.919 145.572 724.443 145.711 724.07 145.989C723.696 146.268 723.506 146.597 723.506 146.978C723.506 147.278 723.615 147.527 723.828 147.725C724.04 147.923 724.385 148.091 724.853 148.23L727.431 149.051C728.34 149.336 729.028 149.688 729.49 150.105C729.951 150.523 730.185 151.102 730.185 151.849C730.185 152.75 729.804 153.504 729.043 154.119C728.281 154.734 727.292 155.042 726.084 155.042ZM735.854 153.313L736.242 154.603C735.671 154.844 735.115 154.961 734.58 154.961C733.789 154.961 733.196 154.734 732.807 154.28C732.419 153.826 732.221 153.196 732.221 152.398V148.692H730.844V147.3H732.221V144.781H733.781V147.3H736.184V148.692H733.781V152.398C733.781 153.167 734.14 153.555 734.865 153.555C735.195 153.555 735.525 153.475 735.854 153.313ZM740.923 155.042L740.937 155.057C739.743 155.057 738.777 154.69 738.03 153.958C737.282 153.226 736.909 152.266 736.909 151.087C736.909 149.952 737.268 149.007 737.986 148.252C738.703 147.498 739.641 147.117 740.791 147.117C741.985 147.117 742.922 147.476 743.611 148.201C744.299 148.926 744.643 149.834 744.643 150.933C744.643 151.124 744.629 151.336 744.592 151.563H738.462C738.513 152.2 738.755 152.713 739.194 153.101C739.634 153.489 740.227 153.687 740.967 153.687C742.007 153.687 742.724 153.284 743.113 152.471L744.548 152.896C744.277 153.489 743.83 153.995 743.208 154.412C742.585 154.83 741.823 155.042 740.923 155.042ZM738.462 150.523H743.098C743.047 149.922 742.82 149.432 742.417 149.051C742.014 148.67 741.472 148.479 740.798 148.479C740.146 148.479 739.612 148.677 739.187 149.073C738.762 149.468 738.52 149.952 738.462 150.523ZM750.517 147.103V147.11C751.587 147.11 752.48 147.483 753.198 148.238C753.916 148.992 754.275 149.937 754.275 151.072C754.275 152.208 753.916 153.152 753.198 153.907C752.48 154.661 751.587 155.042 750.517 155.042C749.345 155.042 748.445 154.595 747.815 153.702V157.994H746.24V147.3H747.815V148.443C748.445 147.549 749.345 147.103 750.517 147.103ZM750.261 153.636L750.254 153.628C750.971 153.628 751.565 153.387 752.026 152.903C752.488 152.42 752.722 151.805 752.722 151.065C752.722 150.325 752.495 149.717 752.033 149.241C751.572 148.765 750.979 148.523 750.254 148.523C749.558 148.523 748.972 148.765 748.489 149.249C748.005 149.732 747.763 150.34 747.763 151.072C747.763 151.812 748.005 152.427 748.489 152.911C748.972 153.394 749.565 153.636 750.261 153.636ZM767.341 151.211V152.654H765.971V154.844H764.338V152.654H759.087V151.453L762.851 144.341H764.609L760.998 151.211H764.338V148.816H765.971V151.211H767.341Z" fill="#5567D5"/>
<path d="M726.201 168.341V168.349C727.746 168.349 728.984 168.839 729.907 169.813C730.83 170.788 731.291 172.047 731.291 173.593C731.291 175.131 730.83 176.391 729.914 177.372C728.999 178.354 727.761 178.844 726.201 178.844H721.924V168.341H726.201ZM726.172 177.379V177.394C727.241 177.394 728.091 177.035 728.72 176.325C729.35 175.614 729.665 174.699 729.665 173.578C729.665 172.479 729.35 171.579 728.72 170.875C728.091 170.172 727.241 169.821 726.172 169.821H723.55V177.379H726.172ZM736.499 179.042L736.513 179.057C735.32 179.057 734.353 178.69 733.606 177.958C732.859 177.226 732.485 176.266 732.485 175.087C732.485 173.952 732.844 173.007 733.562 172.252C734.28 171.498 735.217 171.117 736.367 171.117C737.561 171.117 738.498 171.476 739.187 172.201C739.875 172.926 740.219 173.834 740.219 174.933C740.219 175.124 740.205 175.336 740.168 175.563H734.038C734.089 176.2 734.331 176.713 734.77 177.101C735.21 177.489 735.803 177.687 736.543 177.687C737.583 177.687 738.301 177.284 738.689 176.471L740.124 176.896C739.853 177.489 739.406 177.995 738.784 178.412C738.161 178.83 737.4 179.042 736.499 179.042ZM734.038 174.523H738.674C738.623 173.922 738.396 173.432 737.993 173.051C737.59 172.67 737.048 172.479 736.374 172.479C735.722 172.479 735.188 172.677 734.763 173.073C734.338 173.468 734.096 173.952 734.038 174.523ZM746.094 171.103V171.11C747.163 171.11 748.056 171.483 748.774 172.238C749.492 172.992 749.851 173.937 749.851 175.072C749.851 176.208 749.492 177.152 748.774 177.907C748.056 178.661 747.163 179.042 746.094 179.042C744.922 179.042 744.021 178.595 743.391 177.702V181.994H741.816V171.3H743.391V172.443C744.021 171.549 744.922 171.103 746.094 171.103ZM745.837 177.636L745.83 177.628C746.548 177.628 747.141 177.387 747.602 176.903C748.064 176.42 748.298 175.805 748.298 175.065C748.298 174.325 748.071 173.717 747.61 173.241C747.148 172.765 746.555 172.523 745.83 172.523C745.134 172.523 744.548 172.765 744.065 173.249C743.581 173.732 743.34 174.34 743.34 175.072C743.34 175.812 743.581 176.427 744.065 176.911C744.548 177.394 745.141 177.636 745.837 177.636ZM751.469 178.844V167.895H753.044V178.844H751.469ZM758.684 179.042H758.677C757.527 179.042 756.574 178.661 755.813 177.907C755.051 177.152 754.67 176.208 754.67 175.072C754.67 173.944 755.051 173 755.813 172.245C756.574 171.491 757.527 171.11 758.677 171.11C759.826 171.11 760.786 171.483 761.548 172.238C762.309 172.992 762.69 173.937 762.69 175.072C762.69 176.208 762.309 177.152 761.548 177.907C760.786 178.661 759.834 179.042 758.684 179.042ZM758.677 177.614C759.394 177.614 759.988 177.372 760.456 176.889C760.925 176.405 761.159 175.805 761.159 175.087C761.159 174.354 760.925 173.747 760.456 173.263C759.988 172.78 759.394 172.538 758.677 172.538C757.959 172.538 757.365 172.78 756.904 173.263C756.443 173.747 756.208 174.354 756.208 175.087C756.208 175.805 756.443 176.405 756.904 176.889C757.365 177.372 757.959 177.614 758.677 177.614ZM769.575 171.3H771.26L766.667 181.994H765.049L766.455 178.676L763.005 171.3H764.719L767.239 176.911L769.575 171.3ZM779.514 179.042V179.035C778.445 179.035 777.551 178.654 776.833 177.899C776.115 177.145 775.757 176.2 775.757 175.065C775.757 173.937 776.115 172.992 776.833 172.238C777.551 171.483 778.445 171.103 779.514 171.103C780.693 171.103 781.601 171.549 782.231 172.443V171.3H783.791V178.844H782.231V177.702C781.601 178.595 780.693 179.042 779.514 179.042ZM779.77 177.621L779.748 177.628C780.444 177.628 781.037 177.387 781.521 176.903C782.004 176.42 782.246 175.805 782.246 175.065C782.246 174.333 782.004 173.725 781.521 173.241C781.037 172.758 780.451 172.516 779.756 172.516C779.038 172.516 778.452 172.758 777.99 173.234C777.529 173.71 777.302 174.318 777.302 175.058C777.302 175.797 777.536 176.413 777.998 176.896C778.459 177.379 779.052 177.621 779.77 177.621ZM790.053 171.103V171.088C791.013 171.088 791.753 171.381 792.273 171.974C792.793 172.567 793.049 173.38 793.049 174.413V178.837H791.489V174.699C791.489 174.032 791.335 173.512 791.02 173.139C790.705 172.765 790.244 172.575 789.636 172.575C788.977 172.575 788.449 172.802 788.054 173.263C787.658 173.725 787.461 174.333 787.461 175.094V178.844H785.886V171.3H787.461V172.421C788.083 171.542 788.948 171.103 790.053 171.103ZM801.084 167.895L802.644 167.887V178.837H801.084V177.694C800.454 178.581 799.546 179.027 798.366 179.035C797.297 179.035 796.404 178.654 795.686 177.899C794.968 177.145 794.609 176.2 794.609 175.065C794.609 173.937 794.968 172.992 795.686 172.238C796.404 171.483 797.297 171.103 798.366 171.103C799.546 171.103 800.454 171.549 801.084 172.443V167.895ZM798.623 177.621L798.601 177.628C799.297 177.628 799.89 177.387 800.373 176.903C800.857 176.42 801.098 175.805 801.098 175.065C801.098 174.333 800.857 173.725 800.373 173.241C799.89 172.758 799.304 172.516 798.608 172.516C797.89 172.516 797.304 172.758 796.843 173.234C796.382 173.71 796.155 174.318 796.155 175.058C796.155 175.797 796.389 176.413 796.85 176.896C797.312 177.379 797.905 177.621 798.623 177.621ZM727.461 195.3L729.021 195.315V202.859H727.461V201.716C726.853 202.603 725.981 203.049 724.853 203.057C723.901 203.057 723.161 202.764 722.634 202.17C722.107 201.577 721.843 200.764 721.843 199.731V195.308H723.418V199.446C723.418 200.112 723.579 200.632 723.894 201.006C724.209 201.379 724.67 201.57 725.278 201.57C725.93 201.57 726.457 201.343 726.86 200.881C727.263 200.42 727.461 199.812 727.461 199.05V195.3ZM733.994 203.042L733.957 203.049C733.1 203.049 732.346 202.822 731.687 202.375C731.028 201.929 730.603 201.387 730.405 200.75L731.833 200.332C731.972 200.742 732.243 201.079 732.639 201.35C733.034 201.621 733.496 201.753 734.016 201.753C734.485 201.753 734.865 201.65 735.158 201.453C735.451 201.255 735.598 201.013 735.598 200.728C735.598 200.5 735.525 200.317 735.371 200.186C735.217 200.054 734.968 199.937 734.624 199.834L732.595 199.233C731.394 198.875 730.793 198.23 730.793 197.3C730.793 196.699 731.072 196.187 731.635 195.754C732.199 195.322 732.881 195.11 733.679 195.11C734.47 195.11 735.158 195.286 735.737 195.637C736.316 195.989 736.719 196.45 736.946 197.014L735.554 197.424C735.4 197.124 735.158 196.875 734.829 196.67C734.499 196.465 734.111 196.362 733.664 196.362C733.283 196.362 732.969 196.458 732.719 196.641C732.47 196.824 732.346 197.036 732.346 197.278C732.346 197.607 732.617 197.856 733.159 198.025L735.166 198.604C735.788 198.787 736.272 199.028 736.623 199.336C736.975 199.644 737.151 200.083 737.151 200.662C737.151 201.343 736.85 201.907 736.257 202.361C735.664 202.815 734.909 203.042 733.994 203.042ZM742.285 203.042L742.3 203.057C741.106 203.057 740.139 202.69 739.392 201.958C738.645 201.226 738.271 200.266 738.271 199.087C738.271 197.952 738.63 197.007 739.348 196.252C740.066 195.498 741.003 195.117 742.153 195.117C743.347 195.117 744.284 195.476 744.973 196.201C745.661 196.926 746.006 197.834 746.006 198.933C746.006 199.124 745.991 199.336 745.954 199.563H739.824C739.875 200.2 740.117 200.713 740.556 201.101C740.996 201.489 741.589 201.687 742.329 201.687C743.369 201.687 744.087 201.284 744.475 200.471L745.91 200.896C745.639 201.489 745.193 201.995 744.57 202.412C743.948 202.83 743.186 203.042 742.285 203.042ZM739.824 198.523H744.46C744.409 197.922 744.182 197.432 743.779 197.051C743.376 196.67 742.834 196.479 742.16 196.479C741.509 196.479 740.974 196.677 740.549 197.073C740.124 197.468 739.883 197.952 739.824 198.523ZM754.897 203.042V203.064C753.762 203.064 752.817 202.683 752.063 201.921C751.308 201.16 750.935 200.215 750.935 199.087C750.935 197.959 751.308 197.014 752.055 196.26C752.802 195.505 753.747 195.125 754.883 195.125C755.827 195.125 756.618 195.366 757.263 195.85C757.907 196.333 758.31 196.882 758.471 197.505L757.014 197.922C756.904 197.549 756.655 197.227 756.267 196.948C755.879 196.67 755.425 196.531 754.905 196.531C754.187 196.531 753.601 196.78 753.147 197.271C752.693 197.761 752.466 198.362 752.466 199.072C752.466 199.768 752.693 200.369 753.147 200.874C753.601 201.379 754.187 201.628 754.897 201.628C755.417 201.628 755.871 201.497 756.26 201.233C756.648 200.969 756.897 200.654 757.007 200.281L758.464 200.684C758.303 201.292 757.907 201.833 757.27 202.317C756.633 202.8 755.842 203.042 754.897 203.042ZM763.62 203.042H763.613C762.463 203.042 761.511 202.661 760.749 201.907C759.988 201.152 759.607 200.208 759.607 199.072C759.607 197.944 759.988 197 760.749 196.245C761.511 195.491 762.463 195.11 763.613 195.11C764.763 195.11 765.722 195.483 766.484 196.238C767.246 196.992 767.627 197.937 767.627 199.072C767.627 200.208 767.246 201.152 766.484 201.907C765.722 202.661 764.77 203.042 763.62 203.042ZM763.613 201.614C764.331 201.614 764.924 201.372 765.393 200.889C765.862 200.405 766.096 199.805 766.096 199.087C766.096 198.354 765.862 197.747 765.393 197.263C764.924 196.78 764.331 196.538 763.613 196.538C762.895 196.538 762.302 196.78 761.841 197.263C761.379 197.747 761.145 198.354 761.145 199.087C761.145 199.805 761.379 200.405 761.841 200.889C762.302 201.372 762.895 201.614 763.613 201.614ZM773.427 195.103V195.088C774.387 195.088 775.127 195.381 775.647 195.974C776.167 196.567 776.423 197.38 776.423 198.413V202.837H774.863V198.699C774.863 198.032 774.709 197.512 774.394 197.139C774.079 196.765 773.618 196.575 773.01 196.575C772.351 196.575 771.823 196.802 771.428 197.263C771.032 197.725 770.835 198.333 770.835 199.094V202.844H769.26V195.3H770.835V196.421C771.457 195.542 772.322 195.103 773.427 195.103ZM782.627 195.103V195.088C783.586 195.088 784.326 195.381 784.846 195.974C785.366 196.567 785.622 197.38 785.622 198.413V202.837H784.062V198.699C784.062 198.032 783.908 197.512 783.594 197.139C783.279 196.765 782.817 196.575 782.209 196.575C781.55 196.575 781.023 196.802 780.627 197.263C780.232 197.725 780.034 198.333 780.034 199.094V202.844H778.459V195.3H780.034V196.421C780.656 195.542 781.521 195.103 782.627 195.103ZM791.211 203.042L791.225 203.057C790.031 203.057 789.065 202.69 788.318 201.958C787.571 201.226 787.197 200.266 787.197 199.087C787.197 197.952 787.556 197.007 788.274 196.252C788.991 195.498 789.929 195.117 791.079 195.117C792.273 195.117 793.21 195.476 793.899 196.201C794.587 196.926 794.931 197.834 794.931 198.933C794.931 199.124 794.917 199.336 794.88 199.563H788.75C788.801 200.2 789.043 200.713 789.482 201.101C789.922 201.489 790.515 201.687 791.255 201.687C792.295 201.687 793.012 201.284 793.401 200.471L794.836 200.896C794.565 201.489 794.118 201.995 793.496 202.412C792.873 202.83 792.112 203.042 791.211 203.042ZM788.75 198.523H793.386C793.335 197.922 793.108 197.432 792.705 197.051C792.302 196.67 791.76 196.479 791.086 196.479C790.434 196.479 789.9 196.677 789.475 197.073C789.05 197.468 788.808 197.952 788.75 198.523ZM800.029 203.042V203.064C798.894 203.064 797.949 202.683 797.195 201.921C796.44 201.16 796.067 200.215 796.067 199.087C796.067 197.959 796.44 197.014 797.187 196.26C797.934 195.505 798.879 195.125 800.014 195.125C800.959 195.125 801.75 195.366 802.395 195.85C803.039 196.333 803.442 196.882 803.603 197.505L802.146 197.922C802.036 197.549 801.787 197.227 801.399 196.948C801.01 196.67 800.556 196.531 800.036 196.531C799.319 196.531 798.733 196.78 798.279 197.271C797.824 197.761 797.597 198.362 797.597 199.072C797.597 199.768 797.824 200.369 798.279 200.874C798.733 201.379 799.319 201.628 800.029 201.628C800.549 201.628 801.003 201.497 801.391 201.233C801.78 200.969 802.029 200.654 802.138 200.281L803.596 200.684C803.435 201.292 803.039 201.833 802.402 202.317C801.765 202.8 800.974 203.042 800.029 203.042ZM809.448 201.313L809.836 202.603C809.265 202.844 808.708 202.961 808.174 202.961C807.383 202.961 806.789 202.734 806.401 202.28C806.013 201.826 805.815 201.196 805.815 200.398V196.692H804.438V195.3H805.815V192.781H807.375V195.3H809.778V196.692H807.375V200.398C807.375 201.167 807.734 201.555 808.459 201.555C808.789 201.555 809.118 201.475 809.448 201.313ZM812.209 194.07C811.931 194.07 811.697 193.975 811.506 193.792C811.316 193.608 811.22 193.374 811.22 193.096C811.22 192.839 811.316 192.612 811.506 192.422C811.697 192.231 811.931 192.136 812.209 192.136C812.488 192.136 812.722 192.231 812.912 192.422C813.103 192.612 813.198 192.839 813.198 193.096C813.198 193.374 813.103 193.608 812.912 193.792C812.722 193.975 812.488 194.07 812.209 194.07ZM811.411 202.844V195.3H812.971V202.844H811.411ZM818.655 203.042H818.647C817.497 203.042 816.545 202.661 815.783 201.907C815.022 201.152 814.641 200.208 814.641 199.072C814.641 197.944 815.022 197 815.783 196.245C816.545 195.491 817.497 195.11 818.647 195.11C819.797 195.11 820.757 195.483 821.518 196.238C822.28 196.992 822.661 197.937 822.661 199.072C822.661 200.208 822.28 201.152 821.518 201.907C820.757 202.661 819.804 203.042 818.655 203.042ZM818.647 201.614C819.365 201.614 819.958 201.372 820.427 200.889C820.896 200.405 821.13 199.805 821.13 199.087C821.13 198.354 820.896 197.747 820.427 197.263C819.958 196.78 819.365 196.538 818.647 196.538C817.929 196.538 817.336 196.78 816.875 197.263C816.413 197.747 816.179 198.354 816.179 199.087C816.179 199.805 816.413 200.405 816.875 200.889C817.336 201.372 817.929 201.614 818.647 201.614ZM828.462 195.103V195.088C829.421 195.088 830.161 195.381 830.681 195.974C831.201 196.567 831.457 197.38 831.457 198.413V202.837H829.897V198.699C829.897 198.032 829.743 197.512 829.428 197.139C829.114 196.765 828.652 196.575 828.044 196.575C827.385 196.575 826.858 196.802 826.462 197.263C826.067 197.725 825.869 198.333 825.869 199.094V202.844H824.294V195.3H825.869V196.421C826.491 195.542 827.356 195.103 828.462 195.103Z" fill="#40404B"/>
<path d="M390.376 92.5291C401.543 95.3624 427.076 103.329 439.876 112.529" stroke="#E0E2E9" stroke-width="16" stroke-linecap="round"/>
<path d="M390.376 92.5291C401.543 95.3624 427.076 103.329 439.876 112.529" stroke="white" stroke-width="2" stroke-linecap="round" stroke-dasharray="2 8"/>
<path d="M449.333 94.9356C446.355 92.2925 442.318 89.8792 438.551 88.0291M438.551 88.0291V88.0291C437.519 87.5219 437.476 87.6203 438.551 88.0291V88.0291Z" stroke="#5567D5"/>
<path d="M307.822 61.1941C305.162 60.4484 305.517 56.5978 308.263 56.3942C310.153 56.2542 311.163 54.1331 310.082 52.5745C308.511 50.3091 311.275 47.6094 313.528 49.2093C315.078 50.31 317.23 49.3434 317.404 47.4684C317.656 44.7433 321.537 44.4577 322.242 47.1124C322.727 48.9389 325.014 49.5789 326.361 48.265C328.318 46.3553 331.5 48.6175 330.327 51.0848C329.52 52.7824 330.872 54.7297 332.762 54.5916C335.509 54.3908 336.503 58.1422 334.001 59.2677C332.279 60.0421 332.064 62.3854 333.612 63.4877C335.864 65.0899 334.204 68.5753 331.544 67.8323C329.714 67.3211 328.031 68.964 328.514 70.791C329.216 73.4464 325.68 75.0348 324.106 72.771C323.024 71.2135 320.662 71.3873 319.853 73.084C318.677 75.5502 314.919 74.4985 315.168 71.7731C315.339 69.898 313.403 68.5213 311.681 69.2939C309.177 70.4168 306.955 67.2171 308.911 65.3054C310.257 63.9901 309.652 61.7071 307.822 61.1941Z" fill="#CCD1F2"/>
<ellipse cx="5.77216" cy="5.74607" rx="5.77216" ry="5.74607" transform="matrix(0.0916035 -0.995796 0.99501 0.099779 314.283 65.2207)" fill="white"/>
<ellipse cx="2.66407" cy="2.65203" rx="2.66407" ry="2.65203" transform="matrix(0.0916035 -0.995796 0.99501 0.099779 336.381 82.0203)" fill="white"/>
<path d="M327.126 60.7078C327.463 57.0449 324.782 53.7794 321.139 53.414C317.496 53.0487 314.269 55.7218 313.932 59.3847C313.595 63.0475 316.275 66.313 319.919 66.6784" stroke="#1D2028" stroke-width="1.00299" stroke-linecap="round" stroke-linejoin="round"/>
<path d="M563.589 115L542 95.9091L544.214 92.0909L563.589 105.182V93.1818L555.839 98.6364L551.964 95.9091L565.25 85L573 89.3636V111.727L563.589 115Z" fill="#CCD1F2"/>
<path d="M573 111.727L563.589 115V86.5L565.25 85L573 89.3636V111.727Z" fill="#A6B3FF"/>
<rect x="82.8994" y="108.799" width="28" height="14" rx="7" transform="rotate(-45 82.8994 108.799)" fill="#A6B3FF"/>
<rect x="56.2485" y="134.349" width="25.456" height="12.728" rx="6.364" transform="rotate(-45 56.2485 134.349)" fill="#CCD1F2"/>
<path d="M544 104L547.5 101L549.5 103L546 106L544 104Z" fill="#CCD1F2"/>
<path d="M62.3994 128.601L60 131C57.2664 133.734 57.2664 138.166 60.0001 140.899V140.899C62.7337 143.633 67.1659 143.633 69.8996 140.899L79.776 131.023C82.5224 128.277 82.5224 123.824 79.776 121.077V121.077C77.0477 118.349 72.6306 118.329 69.8769 121.031L69.3994 121.5" stroke="#1D2028" stroke-linecap="round"/>
<path d="M99.6984 108.799L94.7487 113.749C92.015 116.482 87.5828 116.482 84.8492 113.749V113.749C82.1155 111.015 82.1155 106.583 84.8492 103.849L94.7487 93.9498C97.4823 91.2162 101.914 91.2162 104.648 93.9498V93.9498C107.382 96.6835 107.382 101.116 104.648 103.849V103.849" stroke="#1D2028" stroke-linecap="round"/>
<path d="M85.0064 116.056L78.483 122.868C77.8884 123.489 76.8995 123.5 76.2916 122.892V122.892C75.7271 122.328 75.6902 121.425 76.2068 120.816L76.8994 120M87.0003 114.5L88.103 113.327C88.6625 112.732 88.6482 111.8 88.0707 111.223V111.223C87.4798 110.632 86.5215 110.633 85.9314 111.224L81.1464 116.023" stroke="#1D2028" stroke-linecap="round"/>
<path d="M572 113.727L562.589 117L549.5 105.425M552.5 96.5L564.25 87L572 91.3636V102.545M562.589 107.182L543.214 94.0909L541 97.9091L544.751 101.226L542 104L544 106" stroke="#1D2028" stroke-linecap="round"/>
<rect x="519.623" y="128.248" width="19.1344" height="9.56721" rx="4.78361" transform="rotate(-135.395 519.623 128.248)" fill="#A6B3FF"/>
<rect x="537.209" y="146.34" width="17.3959" height="8.69797" rx="4.34898" transform="rotate(-135.395 537.209 146.34)" fill="#CCD1F2"/>
<path d="M533.251 142.164L534.902 143.792C536.783 145.647 539.812 145.626 541.667 143.745V143.745C543.522 141.864 543.502 138.836 541.621 136.981L534.825 130.278C532.935 128.414 529.892 128.435 528.029 130.325V130.325C526.177 132.202 526.184 135.221 528.044 137.09L528.366 137.414" stroke="#1D2028" stroke-linecap="round"/>
<path d="M519.544 116.769L522.95 120.128C524.831 121.983 524.852 125.012 522.996 126.893V126.893C521.141 128.774 518.112 128.794 516.231 126.939L509.42 120.221C507.539 118.366 507.518 115.337 509.373 113.456V113.456C511.228 111.575 514.257 111.554 516.138 113.409V113.409" stroke="#1D2028" stroke-linecap="round"/>
<path d="M524.572 126.774L529.258 131.2C529.685 131.603 529.697 132.279 529.285 132.697V132.697C528.902 133.086 528.285 133.115 527.867 132.765L527.306 132.296M523.5 125.419L522.693 124.671C522.284 124.291 521.647 124.306 521.255 124.703V124.703C520.854 125.11 520.859 125.764 521.266 126.165L524.568 129.412" stroke="#1D2028" stroke-linecap="round"/>
<path d="M105.574 121.143C102.458 132.285 90.8989 138.791 79.7568 135.675M91.0417 95.3256C79.8996 92.2093 68.341 98.7156 65.2247 109.858C63.9643 114.364 64.2781 118.939 65.8361 122.996" stroke="#1D2028" stroke-linecap="round"/>
<path d="M79.641 89.9286L78.885 87.0254" stroke="#1D2028" stroke-linecap="round"/>
<path d="M67.0355 96.2038L65 94" stroke="#1D2028" stroke-linecap="round"/>
<path d="M59.9229 109.536L56.9258 109.405" stroke="#1D2028" stroke-linecap="round"/>
<path d="M93.9999 142L94.7869 144.895" stroke="#1D2028" stroke-linecap="round"/>
<path d="M83.9088 143L83 145.859" stroke="#1D2028" stroke-linecap="round"/>
<path d="M103.195 137.829L104.967 140.25" stroke="#1D2028" stroke-linecap="round"/>
<path d="M109 130L111.948 130.558" stroke="#1D2028" stroke-linecap="round"/>
</svg>
