<svg width="48" height="48" viewBox="0 0 48 48" fill="none" xmlns="http://www.w3.org/2000/svg">
<path d="M1 13C1 6.37258 6.37258 1 13 1H18H23C29.6274 1 35 6.37258 35 13V25C35 31.6274 29.6274 37 23 37H18H13C6.37258 37 1 31.6274 1 25V13Z" fill="#F0F1F4"/>
<ellipse cx="18" cy="8.5" rx="17" ry="7.5" fill="white"/>
<ellipse cx="18" cy="9.5" rx="17" ry="7.5" stroke="#40404B" stroke-width="1.5" stroke-linecap="round"/>
<path d="M18 26C8.61116 26 1 22.4183 1 18" stroke="#40404B" stroke-width="1.5" stroke-linecap="round"/>
<path d="M1 10V29.6557C1 33.7119 8.61116 37 18 37C27.3888 37 35 33.7119 35 29.6557V10" stroke="#40404B" stroke-width="1.5" stroke-linecap="round"/>
<path d="M41.9438 32.808C44.9775 33.8217 47 36.6601 47 39.8026C47 43.7561 43.6629 47 39.7191 47H18.2809C14.236 47 11 43.7561 11 39.8026C11 36.0519 13.7303 32.9094 17.4719 32.5039C17.8764 29.9696 19.4944 27.9422 21.8202 27.0299C24.0449 26.1175 26.573 26.3203 28.4944 27.6381C30.3146 24.2929 34.0562 23.2791 37.3933 24.4956C40.8315 25.8134 42.8539 29.1587 41.9438 32.808Z" fill="#CBCEDB"/>
</svg>
