<svg width="80" height="81" viewBox="0 0 80 81" fill="none" xmlns="http://www.w3.org/2000/svg">
<rect x="1.60001" y="1.62" width="76.8" height="77.76" rx="6" fill="url(#paint0_linear_355_235)"/>
<path d="M30.7879 40.0582C32.3142 40.0582 33.5515 38.8054 33.5515 37.26C33.5515 35.7146 32.3142 34.4618 30.7879 34.4618C29.2616 34.4618 28.0242 35.7146 28.0242 37.26C28.0242 38.8054 29.2616 40.0582 30.7879 40.0582Z" fill="white"/>
<path d="M38.1576 40.0582C39.6839 40.0582 40.9212 38.8054 40.9212 37.26C40.9212 35.7146 39.6839 34.4619 38.1576 34.4619C36.6313 34.4619 35.3939 35.7146 35.3939 37.26C35.3939 38.8054 36.6313 40.0582 38.1576 40.0582Z" fill="white"/>
<path d="M48.2909 37.26C48.2909 38.8054 47.0536 40.0582 45.5273 40.0582C44.001 40.0582 42.7636 38.8054 42.7636 37.26C42.7636 35.7146 44.001 34.4619 45.5273 34.4619C47.0536 34.4619 48.2909 35.7146 48.2909 37.26Z" fill="white"/>
<path fill-rule="evenodd" clip-rule="evenodd" d="M59.3455 25.1345C64.4332 25.1345 68.5576 20.9586 68.5576 15.8073C68.5576 10.656 64.4332 6.48 59.3455 6.48C54.2577 6.48 50.1333 10.656 50.1333 15.8073C50.1333 17.6461 50.6589 19.3606 51.5661 20.8052L48.9014 23.2686C45.9358 20.9307 42.2073 19.5382 38.1576 19.5382C34.0723 19.5382 30.3139 20.9553 27.3358 23.3305L23.4801 18.8055C24.0242 17.9388 24.3394 16.9103 24.3394 15.8073C24.3394 12.7165 21.8648 10.2109 18.8121 10.2109C15.7595 10.2109 13.2849 12.7165 13.2849 15.8073C13.2849 18.8981 15.7595 21.4036 18.8121 21.4036C19.6116 21.4036 20.3715 21.2318 21.0576 20.9225L25.0101 25.561C22.2988 28.6822 20.6546 32.7767 20.6546 37.26C20.6546 40.7829 21.6698 44.0657 23.4202 46.8249L21.2039 48.8738C20.0059 48.0208 18.5456 47.52 16.9697 47.52C12.8995 47.52 9.60001 50.8608 9.60001 54.9818C9.60001 59.1029 12.8995 62.4436 16.9697 62.4436C21.0399 62.4436 24.3394 59.1029 24.3394 54.9818C24.3394 53.6289 23.9838 52.3601 23.3621 51.266L25.3944 49.3872C28.5874 52.8308 33.1244 54.9818 38.1576 54.9818C41.6613 54.9818 44.9246 53.9394 47.6615 52.1443L51.3979 56.5293C49.4745 58.5432 48.2909 61.2862 48.2909 64.3091C48.2909 70.4907 53.2402 75.5018 59.3455 75.5018C65.4507 75.5018 70.4 70.4907 70.4 64.3091C70.4 58.1275 65.4507 53.1164 59.3455 53.1164C57.3799 53.1164 55.5341 53.6358 53.9347 54.5464L50.1799 50.1399C53.5548 46.9093 55.6606 42.3336 55.6606 37.26C55.6606 32.7429 53.9915 28.6206 51.2437 25.4907L53.7243 23.1974C55.2797 24.4121 57.2293 25.1345 59.3455 25.1345ZM38.1576 51.7418C46.0569 51.7418 52.4606 45.2581 52.4606 37.26C52.4606 29.2619 46.0569 22.7782 38.1576 22.7782C30.2582 22.7782 23.8546 29.2619 23.8546 37.26C23.8546 45.2581 30.2582 51.7418 38.1576 51.7418Z" fill="white"/>
<defs>
<linearGradient id="paint0_linear_355_235" x1="54.4" y1="1.62" x2="22.5287" y2="79.1039" gradientUnits="userSpaceOnUse">
<stop stop-color="#4A5ED9"/>
<stop offset="1" stop-color="#7D38C2"/>
</linearGradient>
</defs>
</svg>
