<svg width="172" height="168" viewBox="0 0 172 168" fill="none" xmlns="http://www.w3.org/2000/svg">
<path d="M65.0756 24.7602C79.8512 20.8396 97.9673 31.3004 110.181 36.7511C122.38 42.2272 134.69 39.613 142.897 51.7021C151.097 63.7516 152.052 78.9663 150.085 94.4707C148.103 110 139.903 121.373 121.086 134.897C102.27 148.422 79.2107 152.602 60.8901 137.514C42.5695 122.427 21.85 116.281 20.3231 96.5112C18.7962 76.7413 20.7594 67.5254 29.9197 51.702C39.0799 35.8787 50.3 28.6807 65.0756 24.7602Z" fill="white"/>
<rect x="47.6" y="47.62" width="76.8" height="77.76" rx="6" fill="url(#paint0_linear_338_2662)"/>
<path d="M76.7879 86.0582C78.3142 86.0582 79.5515 84.8054 79.5515 83.26C79.5515 81.7146 78.3142 80.4618 76.7879 80.4618C75.2616 80.4618 74.0242 81.7146 74.0242 83.26C74.0242 84.8054 75.2616 86.0582 76.7879 86.0582Z" fill="white"/>
<path d="M84.1576 86.0582C85.6839 86.0582 86.9212 84.8054 86.9212 83.26C86.9212 81.7146 85.6839 80.4619 84.1576 80.4619C82.6313 80.4619 81.3939 81.7146 81.3939 83.26C81.3939 84.8054 82.6313 86.0582 84.1576 86.0582Z" fill="white"/>
<path d="M94.2909 83.26C94.2909 84.8054 93.0536 86.0582 91.5273 86.0582C90.001 86.0582 88.7636 84.8054 88.7636 83.26C88.7636 81.7146 90.001 80.4619 91.5273 80.4619C93.0536 80.4619 94.2909 81.7146 94.2909 83.26Z" fill="white"/>
<path fill-rule="evenodd" clip-rule="evenodd" d="M105.345 71.1345C110.433 71.1345 114.558 66.9586 114.558 61.8073C114.558 56.656 110.433 52.48 105.345 52.48C100.258 52.48 96.1333 56.656 96.1333 61.8073C96.1333 63.6461 96.6589 65.3606 97.5661 66.8052L94.9014 69.2686C91.9358 66.9307 88.2073 65.5382 84.1576 65.5382C80.0723 65.5382 76.3139 66.9553 73.3358 69.3305L69.4801 64.8055C70.0242 63.9388 70.3394 62.9103 70.3394 61.8073C70.3394 58.7165 67.8648 56.2109 64.8121 56.2109C61.7595 56.2109 59.2849 58.7165 59.2849 61.8073C59.2849 64.8981 61.7595 67.4036 64.8121 67.4036C65.6116 67.4036 66.3715 67.2318 67.0576 66.9225L71.0101 71.561C68.2988 74.6822 66.6546 78.7767 66.6546 83.26C66.6546 86.7829 67.6698 90.0657 69.4202 92.8249L67.2039 94.8738C66.0059 94.0208 64.5456 93.52 62.9697 93.52C58.8995 93.52 55.6 96.8608 55.6 100.982C55.6 105.103 58.8995 108.444 62.9697 108.444C67.0399 108.444 70.3394 105.103 70.3394 100.982C70.3394 99.6289 69.9838 98.3601 69.3621 97.266L71.3944 95.3872C74.5874 98.8308 79.1244 100.982 84.1576 100.982C87.6613 100.982 90.9246 99.9394 93.6615 98.1443L97.3979 102.529C95.4745 104.543 94.2909 107.286 94.2909 110.309C94.2909 116.491 99.2402 121.502 105.345 121.502C111.451 121.502 116.4 116.491 116.4 110.309C116.4 104.128 111.451 99.1164 105.345 99.1164C103.38 99.1164 101.534 99.6358 99.9347 100.546L96.1799 96.1399C99.5548 92.9093 101.661 88.3336 101.661 83.26C101.661 78.7429 99.9915 74.6206 97.2437 71.4907L99.7243 69.1974C101.28 70.4121 103.229 71.1345 105.345 71.1345ZM84.1576 97.7418C92.0569 97.7418 98.4606 91.2581 98.4606 83.26C98.4606 75.2619 92.0569 68.7782 84.1576 68.7782C76.2582 68.7782 69.8546 75.2619 69.8546 83.26C69.8546 91.2581 76.2582 97.7418 84.1576 97.7418Z" fill="white"/>
<defs>
<linearGradient id="paint0_linear_338_2662" x1="100.4" y1="47.62" x2="68.5287" y2="125.104" gradientUnits="userSpaceOnUse">
<stop stop-color="#4A5ED9"/>
<stop offset="1" stop-color="#7D38C2"/>
</linearGradient>
</defs>
</svg>
