<svg width="280" height="220" viewBox="0 0 280 220" fill="none" xmlns="http://www.w3.org/2000/svg">
<path d="M214.755 213.474C179.076 225.738 125.447 205.648 93 181.5C45.5312 146.173 34.4938 153.174 16.4677 119.065C-1.55841 84.9557 12.0078 55.9504 32.0903 40.9818C52.5199 25.7546 82.875 22.4662 117.5 31C158 40.9818 226.566 32.6819 250 54C273.434 75.3181 276.5 96 278.5 129C280.161 156.415 274 193.109 214.755 213.474Z" fill="white"/>
<path opacity="0.503674" d="M36.9282 116.551L60.8987 140.473C62.3647 141.936 62.3671 144.31 60.9042 145.776C60.9024 145.778 60.9005 145.78 60.8987 145.781L36.9282 169.703C35.4644 171.163 33.0942 171.163 31.6304 169.703L7.65986 145.781C6.19388 144.318 6.19144 141.944 7.6544 140.478C7.65622 140.476 7.65804 140.474 7.65986 140.473L31.6304 116.551C33.0942 115.091 35.4644 115.091 36.9282 116.551Z" stroke="#C8CEF0" stroke-width="1.3444" stroke-linecap="round" stroke-linejoin="round"/>
<path d="M45 40.908H275V187.908H45V40.908Z" fill="#F0F1FB"/>
<path d="M155.785 81.4568C157.668 78.1245 162.445 78.0584 164.42 81.3373L205.536 149.589C207.521 152.885 205.196 157.094 201.35 157.168L120.763 158.737C116.892 158.813 114.408 154.648 116.314 151.278L155.785 81.4568Z" fill="white"/>
<path d="M165.546 80.7325L206.096 149.873C207.773 152.731 206.815 156.407 203.956 158.083C203.036 158.623 201.988 158.908 200.921 158.908H119.821C116.507 158.908 113.821 156.222 113.821 152.908C113.821 151.841 114.105 150.793 114.645 149.873L155.195 80.7325C156.872 77.8741 160.548 76.916 163.406 78.5924C164.291 79.1112 165.028 79.848 165.546 80.7325Z" stroke="#FF7B7C" stroke-width="5" stroke-miterlimit="10"/>
<path d="M183.269 100.246C189.604 111.047 199.106 127.248 211.775 148.849C214.569 153.613 212.972 159.74 208.208 162.534C206.674 163.434 204.927 163.908 203.149 163.908C179.737 163.908 162.178 163.908 150.473 163.908M107.593 153.908C107.593 152.129 108.067 150.383 108.967 148.849L150.745 77.6155" stroke="#41415B" stroke-miterlimit="10"/>
<path d="M150.795 129.487H148.622V125.91H145.204V129.487H140.773L146.474 118.403H142.775L136.745 130.012V132.502H145.204V135.908H148.622V132.502H150.795V129.487ZM159.45 136.262C161.72 136.262 163.49 135.42 164.76 133.723C166.029 132.026 166.664 129.841 166.664 127.156C166.664 124.458 166.029 122.273 164.76 120.588C163.49 118.904 161.72 118.061 159.45 118.061C157.179 118.061 155.409 118.904 154.127 120.588C152.846 122.273 152.199 124.47 152.199 127.168C152.199 129.853 152.833 132.038 154.115 133.735C155.397 135.432 157.167 136.274 159.438 136.274L159.45 136.262ZM159.438 133.149C158.192 133.149 157.24 132.612 156.593 131.55C155.946 130.488 155.617 129.035 155.617 127.18C155.617 125.324 155.946 123.872 156.593 122.81C157.24 121.748 158.192 121.211 159.438 121.211C160.683 121.211 161.623 121.748 162.27 122.81C162.917 123.872 163.234 125.337 163.234 127.192C163.234 129.048 162.917 130.512 162.27 131.574C161.623 132.636 160.67 133.174 159.425 133.174L159.438 133.149ZM182.362 129.487H180.189V125.91H176.771V129.487H172.34L178.041 118.403H174.342L168.312 130.012V132.502H176.771V135.908H180.189V132.502H182.362V129.487Z" fill="#A6B3FF"/>
<path d="M41.904 91.3345V43M271.904 43V163.103M189.216 190H41.904V127.422" stroke="#41415B" stroke-miterlimit="10"/>
<path d="M44.904 41H274.904V60H44.904V41Z" fill="#D7DFFF"/>
<path d="M91.904 46H233.904V55H91.904V46Z" fill="white"/>
<path d="M243.904 46H266.904V55H243.904V46Z" fill="#B2C3FB"/>
<path d="M49.904 48H55.904V54H49.904V48Z" fill="white"/>
<path d="M60.904 48H66.904V54H60.904V48Z" fill="white"/>
<path d="M71.904 48H77.904V54H71.904V48Z" fill="white"/>
</svg>
