<svg width="220" height="220" viewBox="0 0 220 220" fill="none" xmlns="http://www.w3.org/2000/svg">
<path d="M97.5001 25.0366C125.9 11.8366 162.405 16.3131 180.5 44.5C206.5 85 190.911 79.5689 209.911 106.069C228.42 131.884 209.623 151.281 192.911 163.569C175.911 176.069 152.547 181.642 125.047 170.642C100.973 161.013 55.5 170.642 32.0466 160.142C8.13261 149.436 -0.953308 117.642 4.04669 95.6421C9.04669 73.6421 62.0001 41.5366 97.5001 25.0366Z" fill="white"/>
<path d="M138.056 36.4109L178.244 59.6139C184.432 63.1866 188.244 69.7891 188.244 76.9344V123.34C188.244 130.486 184.432 137.088 178.244 140.661L138.056 163.864C131.868 167.437 124.244 167.437 118.056 163.864L77.8668 140.661C71.6787 137.088 67.8668 130.486 67.8668 123.34V76.9344C67.8668 69.7891 71.6787 63.1866 77.8668 59.6139L118.056 36.4109C124.244 32.8383 131.868 32.8383 138.056 36.4109Z" fill="#F0F1FB"/>
<path d="M128.056 46.4109L168.244 69.6139C174.432 73.1866 178.244 79.7891 178.244 86.9344V133.34C178.244 140.486 174.432 147.088 168.244 150.661L128.056 173.864C121.868 177.437 114.244 177.437 108.056 173.864L67.8668 150.661C61.6787 147.088 57.8668 140.486 57.8668 133.34V86.9344C57.8668 79.7891 61.6787 73.1866 67.8668 69.6139L108.056 46.4109C114.244 42.8383 121.868 42.8383 128.056 46.4109Z" stroke="#FF7B7C" stroke-width="5" stroke-miterlimit="5"/>
<path d="M43 134.909V85.697C43 74.1085 49.1824 63.4003 59.2183 57.606L101.837 33" stroke="#41415B" stroke-miterlimit="10"/>
<path d="M193.111 85.697V134.909C193.111 146.498 186.929 157.206 176.893 163" stroke="#41415B" stroke-miterlimit="10"/>
<path d="M145.462 140.7C140.051 135.924 129.793 132.7 118.03 132.7C106.295 132.7 96.0588 135.908 90.6373 140.666" stroke="#43435B" stroke-width="5" stroke-miterlimit="10" stroke-linecap="round"/>
<path d="M91.8563 91.1395L101.856 101.139" stroke="#43435B" stroke-width="5" stroke-miterlimit="10" stroke-linecap="round"/>
<path d="M133.856 91.1395L143.856 101.139" stroke="#43435B" stroke-width="5" stroke-miterlimit="10" stroke-linecap="round"/>
<path d="M101.856 91.1395L91.8563 101.139" stroke="#43435B" stroke-width="5" stroke-miterlimit="10" stroke-linecap="round"/>
<path d="M143.856 91.1395L133.856 101.139" stroke="#43435B" stroke-width="5" stroke-miterlimit="10" stroke-linecap="round"/>
</svg>
