<svg width="141" height="80" viewBox="0 0 141 80" fill="none" xmlns="http://www.w3.org/2000/svg">
<mask id="mask0_2255_18176" style="mask-type:alpha" maskUnits="userSpaceOnUse" x="1" y="0" width="140" height="80">
<rect x="1" width="140" height="80" fill="#D9D9D9"/>
</mask>
<g mask="url(#mask0_2255_18176)">
<path d="M71.1321 -1.46849C82.7416 3.94884 89.8773 7.57821 102.387 11.5178C114.862 15.4552 132.724 19.724 137.903 29.3366C143.084 38.9153 135.613 53.8445 126.536 67.0285C117.437 80.2275 106.771 91.6897 94.343 94.9332C81.934 98.1564 67.7709 93.1674 58.1397 85.4742C48.5085 77.7809 43.3892 67.3996 37.8235 57.2173C32.2578 47.035 26.2385 37.0861 24.4338 24.0386C22.5944 10.987 24.9896 -5.17942 34.2159 -9.63265C43.4266 -14.1073 59.5245 -6.88366 71.1321 -1.46849Z" fill="white"/>
<path d="M82.0525 28.0196L54.3159 38.8917L58.2679 17.579L82.0525 28.0196Z" stroke="#F8C2C2" stroke-width="2" stroke-linecap="round" stroke-linejoin="round"/>
<path opacity="0.71" d="M95.2946 76.5893C103.189 76.5893 109.589 70.1893 109.589 62.2946C109.589 54.3999 103.189 48 95.2946 48C87.3999 48 81 54.3999 81 62.2946C81 70.1893 87.3999 76.5893 95.2946 76.5893Z" fill="#F0F1FB"/>
<path d="M64.7863 53.9289C63.7311 53.5232 57.6872 52.4545 48.0724 59.0968L47.9737 59.089C47.438 58.0954 46.2386 56.7729 44.1673 55.0397C45.2541 54.1631 46.4975 51.8137 47.5186 50.6269C51.2322 46.309 56.9161 37.0665 58.1989 34.2614C62.2834 25.33 57.8761 22.7352 54.9894 26.3212C53.9158 27.6543 49.6335 32.2902 45.0957 37.5264C42.6778 35.9682 40.6383 36.4466 39.8179 36.9271C39.5131 37.1053 38.0565 38.3728 36.1478 40.0947C35.0095 39.0218 33.8969 38.3429 31.8004 38.9547C29.7587 39.5499 23.3876 42.8443 17.9713 51.3323C15.339 55.4639 15.7319 60.856 12.0835 67.7503L12.1164 67.7138L12.0743 67.7905C12.0809 67.7651 12.0847 67.7506 12.0847 67.7506C9.9716 71.7435 5.78695 77.3704 0.306489 81.2894C0.81845 81.5873 1.38022 81.7897 1.96448 81.8868C5.80135 83.5267 18.0375 88.1552 29.2483 85.846C29.3025 85.7159 29.3384 85.5789 29.355 85.439L29.4244 85.4404C32.8867 84.5414 44.1542 71.1049 50.0495 69.2952C53.8226 67.7033 58.6585 60.5822 65.3396 56.2682C66.1536 55.7382 65.4851 54.1974 64.7863 53.9289Z" fill="white"/>
</g>
<path d="M121 6H102V25H121V6Z" fill="#A6B3FF"/>
<path d="M56.8661 52.7801C54.2596 53.5162 51.0099 54.933 47.1814 57.5726" stroke="#40404B" stroke-linecap="round" stroke-linejoin="round"/>
<path d="M39.1747 73.7976C42.8477 70.9882 46.6509 68.5382 49.1543 67.7672C52.9275 66.1754 57.7634 59.0543 64.4445 54.7402C65.2633 54.2115 64.5996 52.672 63.896 52.4023C63.5441 52.2674 62.6544 52.0625 61.2688 52.085" stroke="#40404B" stroke-linecap="round" stroke-linejoin="round"/>
<path d="M47.4723 33.4298C50.6227 29.2908 53.2283 25.8763 54.0985 24.797C56.9852 21.211 60.8966 23.4822 57.308 32.7373" stroke="#40404B" stroke-linecap="round" stroke-linejoin="round"/>
<path d="M31.6924 53.6399C33.2995 51.8917 38.1882 45.5731 43.0212 39.2605" stroke="#40404B" stroke-linecap="round" stroke-linejoin="round"/>
<path d="M39.334 57.9669C40.0387 57.2483 44.7935 51.9128 46.6721 49.1788" stroke="#40404B" stroke-linecap="round" stroke-linejoin="round"/>
<path d="M28.7949 44.4907C33.0979 40.4797 38.3126 35.7579 38.9223 35.4015C39.8369 34.867 42.2616 34.3322 45.0372 36.6179" stroke="#40404B" stroke-linecap="round" stroke-linejoin="round"/>
<path d="M23.809 49.2494C24.3035 48.7518 24.991 48.0841 25.8035 47.3086" stroke="#40404B" stroke-linecap="round" stroke-linejoin="round"/>
<path d="M13.99 58.9938C14.9774 55.4104 15.4463 52.3674 17.0803 49.808C22.4966 41.3201 28.8678 38.0257 30.9095 37.4305C33.0059 36.8186 34.1101 37.4954 35.2569 38.5705" stroke="#40404B" stroke-linecap="round" stroke-linejoin="round"/>
<path d="M1.41555 76.7651C6.58535 72.5543 9.85665 68.7271 12.0241 65.2557" stroke="#40404B" stroke-linecap="round" stroke-linejoin="round"/>
<path d="M35.5 32C38.5376 32 41 29.5376 41 26.5C41 23.4624 38.5376 21 35.5 21C32.4624 21 30 23.4624 30 26.5C30 29.5376 32.4624 32 35.5 32Z" fill="#CCD1F2"/>
</svg>
