<svg width="359" height="341" viewBox="0 0 359 341" fill="none" xmlns="http://www.w3.org/2000/svg">
<path d="M185.474 74.7553C221.935 60.9561 235.21 51.9168 263.209 61.8893C291.177 71.9235 315.566 122.679 309.228 156.817C303.879 193.504 291.11 205.863 272.608 232.697C254.083 259.446 209.229 274.448 198.675 276.406C155.327 284.449 134.672 279.497 115.771 269.886C96.7845 260.313 48.7341 250.248 39.8288 209.406C33.1854 154.383 42.9763 140.862 77.9938 107.595C108.876 78.2559 149.044 88.4914 185.474 74.7553Z" fill="white"/>
<path d="M205.5 82L208.39 86M333 258.5H349.658C353.099 258.5 354.934 254.443 352.662 251.859L318.5 213L303.75 195.988M280 168.595L265.612 152" stroke="#41415B" stroke-miterlimit="10" stroke-linecap="round"/>
<path d="M189.795 81.6611L187.362 81.6421L187.241 83.5408L189.886 83.5619L189.795 81.6611Z" fill="#E0E2E9"/>
<path d="M189.993 85.8073L187.098 85.7847L186.923 88.5198L190.124 88.5457L189.993 85.8073Z" fill="#E0E2E9"/>
<path d="M190.285 91.902L186.709 91.8735L186.436 96.1529L190.491 96.1851L190.285 91.902Z" fill="#CBCEDB"/>
<path d="M190.757 101.743L186.081 101.705L185.594 109.332L191.122 109.376L190.757 101.743Z" fill="#CBCEDB"/>
<path d="M191.646 120.313L184.896 120.259L183.792 137.551L192.474 137.62L191.646 120.313Z" fill="#8D91A3"/>
<path d="M193.953 168.494L181.823 168.398L177.202 240.777L197.422 240.938L193.953 168.494Z" fill="#8D91A3"/>
<path d="M185.709 91.8735L185.503 95.0977C185.467 95.6707 185.919 96.1568 186.493 96.1613L189.491 96.1851" stroke="#41415B" stroke-miterlimit="10" stroke-linecap="round"/>
<path d="M184.081 102.705L183.662 109.277C183.625 109.85 184.077 110.336 184.652 110.34L189.122 110.376" stroke="#41415B" stroke-miterlimit="10" stroke-linecap="round"/>
<path d="M182.896 121.259L188.7 121.306C189.23 121.31 189.665 121.728 189.691 122.258L190.474 138.62" stroke="#41415B" stroke-miterlimit="10" stroke-linecap="round"/>
<path d="M179.823 169.398L175.269 240.721C175.232 241.294 175.685 241.781 176.259 241.785L195.422 241.938" stroke="#41415B" stroke-miterlimit="10" stroke-linecap="round"/>
<path d="M170.5 81.5L165.127 87.5M35 258.5H20.9513C17.493 258.5 15.6644 254.408 17.9714 251.832L76.0268 187M97.5184 163L102 157.995" stroke="#41415B" stroke-miterlimit="10" stroke-linecap="round"/>
<path d="M165.217 105.005L166.096 105.151L166.417 106.007L166.525 106.298H168.7V109.671C168.7 110.293 169.202 110.795 169.825 110.795H172.074C172.696 110.795 173.2 110.293 173.2 109.671V106.298H174.324V105.005H174.323H165.217Z" fill="#E0E2E9"/>
<path d="M154.204 103.422H174.323V97.6931C174.323 97.6931 173.899 97.5518 173.142 97.3408L169.526 87.6918C169.526 87.6918 162.018 86.4424 159.703 86.4424C157.387 86.4424 149.879 87.6918 149.879 87.6918L146.261 97.3408C145.503 97.5518 145.08 97.6931 145.08 97.6931V103.422H146.679C148.208 103.25 149.557 103.136 150.443 103.136C151.327 103.137 152.675 103.25 154.204 103.422ZM149.387 98.3793C150.434 98.3793 151.283 99.2274 151.283 100.274C151.283 101.321 150.434 102.17 149.387 102.17C148.34 102.17 147.492 101.321 147.492 100.274C147.492 99.2279 148.34 98.3793 149.387 98.3793ZM151.528 89.7013C153.25 89.4244 157.965 88.6944 159.703 88.6944C161.439 88.6944 166.155 89.4244 167.876 89.6981L170.45 96.5655C170.45 96.5655 163.63 95.4442 159.701 95.4442C155.772 95.4442 148.949 96.5655 148.949 96.5655L151.528 89.7013ZM170.016 102.17C168.969 102.17 168.121 101.321 168.121 100.274C168.121 99.2274 168.969 98.3793 170.016 98.3793C171.063 98.3793 171.911 99.2274 171.911 100.274C171.911 101.321 171.063 102.17 170.016 102.17Z" fill="#E0E2E9"/>
<path d="M166.983 93.2243C167.311 91.8167 166.435 90.4099 165.028 90.0821C163.62 89.7543 162.213 90.6296 161.886 92.0372C161.558 93.4449 162.433 94.8517 163.841 95.1795C165.248 95.5073 166.655 94.6319 166.983 93.2243Z" fill="#E0E2E9"/>
<path d="M208.271 105.15L209.145 105.005H200.043V106.298H201.167V109.671C201.167 110.293 201.67 110.795 202.292 110.795H204.543C205.164 110.795 205.667 110.292 205.667 109.671V106.298H207.84L207.95 106.006L208.271 105.15Z" fill="#CCD1F2"/>
<path d="M200.043 103.422H220.161C221.69 103.251 223.039 103.137 223.924 103.137C224.809 103.137 226.159 103.25 227.689 103.422H229.287V97.6932C229.287 97.6932 228.863 97.5518 228.106 97.3403L224.488 87.6913C224.488 87.6913 216.979 86.4419 214.664 86.4419C212.349 86.4419 204.841 87.6913 204.841 87.6913L201.224 97.3403C200.466 97.5518 200.044 97.6932 200.044 97.6932V103.422H200.043ZM201.401 99.0966H202.91V101.766H201.401V99.0966ZM225.722 101.766H222.704V99.0966H225.722V101.766ZM225.417 96.5655C225.417 96.5655 218.594 95.4448 214.664 95.4448C210.735 95.4448 203.915 96.5655 203.915 96.5655L206.49 89.6981C208.21 89.4244 212.927 88.6945 214.663 88.6945C216.4 88.6945 221.117 89.4244 222.837 89.7013L225.417 96.5655ZM206.625 99.0966V101.766H203.606V99.0966H206.625ZM227.927 101.766H226.419V99.0966H227.927V101.766Z" fill="#CCD1F2"/>
<path d="M210.534 95.1675C211.941 94.8397 212.817 93.4327 212.489 92.025C212.161 90.6172 210.754 89.7417 209.347 90.0696C207.939 90.3974 207.063 91.8043 207.391 93.2121C207.719 94.6198 209.126 95.4953 210.534 95.1675Z" fill="#CCD1F2"/>
<path d="M161.519 131.353L162.516 134.013H163.716V137.215L164.984 140.598C165.11 140.629 165.239 140.649 165.375 140.649H168.693C169.611 140.649 170.354 139.908 170.354 138.991V134.013H172.013V131.353H172.012H161.519Z" fill="#CCD1F2"/>
<path d="M132.672 126.263C132.517 125.915 132.426 125.532 132.426 125.126C132.426 123.582 133.678 122.33 135.223 122.33C136.767 122.33 138.019 123.582 138.019 125.126C138.019 125.406 137.965 125.67 137.889 125.924C143.468 126.038 159.016 128.616 159.691 128.728L160.591 128.878L160.912 129.733L160.926 129.771H172.013V121.318C172.013 121.318 171.389 121.11 170.27 120.798L164.935 106.562C164.935 106.562 153.856 104.719 150.442 104.719C147.025 104.719 135.947 106.562 135.947 106.562L130.61 120.798C129.49 121.11 128.866 121.318 128.866 121.318V126.715C130.184 126.546 131.475 126.39 132.672 126.263ZM134.576 119.655L138.381 109.527C140.92 109.118 147.878 108.041 150.442 108.041C153.003 108.041 159.963 109.118 162.5 109.523L166.298 119.655C166.298 119.655 156.235 118.001 150.44 118.001C144.642 118 134.576 119.655 134.576 119.655ZM168.454 125.126C168.454 126.671 167.202 127.923 165.657 127.923C164.113 127.923 162.861 126.671 162.861 125.126C162.861 123.582 164.113 122.33 165.657 122.33C167.202 122.33 168.454 123.582 168.454 125.126Z" fill="#CCD1F2"/>
<path d="M161.179 114.72C161.662 112.643 160.371 110.567 158.294 110.083C156.217 109.6 154.142 110.891 153.658 112.968C153.174 115.045 154.466 117.121 156.543 117.604C158.619 118.088 160.695 116.796 161.179 114.72Z" fill="#CCD1F2"/>
<path d="M210.65 134.013H211.849L212.846 131.353H202.353V134.013H204.012V138.99C204.012 139.907 204.755 140.649 205.672 140.649H208.991C209.127 140.649 209.256 140.628 209.381 140.597L210.65 137.213V134.013Z" fill="#E0E2E9"/>
<path d="M223.924 104.719C220.509 104.719 209.431 106.562 209.431 106.562L204.096 120.798C202.977 121.11 202.353 121.318 202.353 121.318V129.771H213.439L213.453 129.732L213.774 128.877L214.675 128.726C215.323 128.619 229.714 126.233 235.786 125.947V123.388H240.24V126.117C240.572 126.148 240.915 126.182 241.267 126.218V123.388H243.494V126.465C244.149 126.543 244.82 126.627 245.499 126.714V121.318C245.499 121.318 244.874 121.11 243.756 120.798L238.418 106.562C238.419 106.562 227.341 104.719 223.924 104.719ZM207.612 123.389H212.065V127.328H207.612V123.389ZM204.358 123.389H206.584V127.328H204.358V123.389ZM223.926 118C218.13 118 208.068 119.655 208.068 119.655L211.865 109.522C214.404 109.118 221.363 108.041 223.924 108.041C226.487 108.041 233.447 109.118 235.985 109.527L239.79 119.655C239.79 119.655 229.724 118 223.926 118Z" fill="#E0E2E9"/>
<path d="M223.924 104.719C220.509 104.719 209.431 106.562 209.431 106.562M213.453 129.732L213.571 129.417C213.697 129.083 213.991 128.841 214.343 128.782L214.675 128.726C215.323 128.619 229.714 126.233 235.786 125.947M245.499 126.714V122.039C245.499 121.609 245.224 121.228 244.812 121.104C244.65 121.055 244.46 120.999 244.245 120.936C243.938 120.848 243.69 120.621 243.577 120.322L238.418 106.562M212.065 123.389V126.328C212.065 126.88 211.618 127.328 211.065 127.328H207.612M204.358 123.389V127.328M208.067 119.655L211.865 109.522M223.924 108.041C226.314 108.041 232.527 108.977 235.413 109.435C235.768 109.492 236.063 109.734 236.189 110.07L239.79 119.655" stroke="#41415B" stroke-miterlimit="10" stroke-linecap="round"/>
<path d="M217.808 117.602C219.885 117.118 221.177 115.042 220.693 112.966C220.209 110.889 218.134 109.597 216.057 110.081C213.98 110.564 212.688 112.64 213.172 114.717C213.656 116.794 215.731 118.085 217.808 117.602Z" fill="#E0E2E9"/>
<path d="M152.111 171.786H157.588V179.311C157.588 180.697 158.71 181.818 160.097 181.818H165.113C166.5 181.818 167.625 180.696 167.625 179.311V171.786H170.132V166.955H150.301L152.111 171.786Z" fill="#E0E2E9"/>
<path d="M111.715 161.515C110.84 160.74 110.286 159.612 110.286 158.352C110.286 156.017 112.178 154.125 114.514 154.125C116.849 154.125 118.742 156.017 118.742 158.352C118.742 159.366 118.384 160.297 117.789 161.025C118.092 161.015 118.379 161.009 118.643 161.009C125.701 161.009 147.72 164.661 148.653 164.816L149.554 164.967L149.707 165.373H170.131V152.596C170.131 152.596 169.188 152.281 167.497 151.809L159.431 130.288C159.431 130.288 142.683 127.501 137.522 127.501C132.357 127.501 115.609 130.288 115.609 130.288L107.54 151.809C105.849 152.281 104.906 152.596 104.906 152.596V162.358C107.248 162.041 109.583 161.747 111.715 161.515ZM113.536 150.08L119.289 134.77C123.126 134.152 133.646 132.524 137.522 132.524C141.393 132.524 151.914 134.152 155.751 134.763L161.492 150.08C161.492 150.08 146.281 147.579 137.519 147.579C128.753 147.579 113.536 150.08 113.536 150.08ZM164.751 158.352C164.751 160.687 162.858 162.58 160.523 162.58C158.188 162.58 156.296 160.688 156.296 158.352C156.296 156.018 158.188 154.125 160.523 154.125C162.858 154.125 164.751 156.018 164.751 158.352Z" fill="#E0E2E9"/>
<path d="M150.707 166H171C171.552 166 172 165.552 172 165V153.565C172 153.133 171.723 152.751 171.31 152.626C170.932 152.511 170.405 152.354 169.742 152.168C169.435 152.081 169.186 151.855 169.073 151.557L160.844 129.869M138.003 127C133.188 127 118.715 129.295 115.71 129.78C115.362 129.836 115.08 130.07 114.951 130.397L109 145.5M118.995 134.485L113.614 148.631C113.34 149.35 113.949 150.1 114.711 149.985C116.298 149.744 118.856 149.372 121.822 148.995M138.001 147.676C145.319 147.676 156.952 149.329 161.29 149.987C162.051 150.102 162.652 149.352 162.379 148.632L157.214 135.021C157.086 134.685 156.789 134.444 156.435 134.388C154.339 134.061 150.92 133.541 147.5 133.087M161.983 163.124C164.417 163.124 166.391 161.174 166.391 158.77C166.391 156.366 164.417 154.417 161.983 154.417C159.549 154.417 157.576 156.366 157.576 158.77" stroke="#41415B" stroke-miterlimit="10" stroke-linecap="round"/>
<path d="M153.757 142.618C154.488 139.479 152.535 136.341 149.396 135.61C146.256 134.879 143.119 136.831 142.388 139.971C141.656 143.11 143.609 146.248 146.748 146.979C149.888 147.71 153.025 145.758 153.757 142.618Z" fill="#E0E2E9"/>
<path d="M204.235 166.957V171.786H206.742V179.311C206.742 180.697 207.867 181.818 209.253 181.818H214.271C215.657 181.818 216.779 180.697 216.779 179.311V171.786H222.256L224.066 166.957H204.235Z" fill="#CCD1F2"/>
<path d="M236.845 127.502C231.683 127.502 214.936 130.288 214.936 130.288L206.87 151.809C205.179 152.281 204.235 152.596 204.235 152.596V165.373H224.659L224.812 164.966L225.713 164.815C226.608 164.667 246.887 161.305 254.778 161.029V155.724H261.511V161.395C262.015 161.447 262.534 161.502 263.064 161.561V155.724H266.43V161.68H264.105C265.826 161.88 267.641 162.112 269.461 162.357V152.596C269.461 152.596 268.516 152.281 266.826 151.809L258.756 130.288C258.756 130.288 242.01 127.502 236.845 127.502ZM212.185 155.725H218.918V161.68H212.185V155.725ZM207.266 155.725H210.632V161.68H207.266V155.725ZM236.848 147.579C228.086 147.579 212.875 150.08 212.875 150.08L218.617 134.763C222.452 134.152 232.973 132.524 236.845 132.524C240.721 132.524 251.24 134.152 255.078 134.77L260.83 150.08C260.83 150.08 245.613 147.579 236.848 147.579Z" fill="#CCD1F2"/>
<path d="M227.604 146.975C230.743 146.244 232.696 143.106 231.965 139.967C231.234 136.827 228.096 134.875 224.956 135.606C221.816 136.337 219.864 139.475 220.595 142.615C221.326 145.754 224.464 147.706 227.604 146.975Z" fill="#CCD1F2"/>
<path d="M74.3506 222.728H77.7556V232.947C77.7556 234.829 79.2787 236.351 81.1647 236.351H87.9741C89.857 236.351 91.3838 234.829 91.3838 232.947V222.728H145.892V232.947C145.892 234.829 147.415 236.351 149.298 236.351H156.111C157.994 236.351 159.521 234.829 159.521 232.947V222.728H162.926V215.912H74.3506V222.728Z" fill="#A6B3FF"/>
<path d="M77.9296 195.601C75.6332 196.242 74.3506 196.67 74.3506 196.67V214.021H162.926V196.67C162.926 196.67 161.643 196.242 159.347 195.601L148.394 166.377C148.394 166.377 125.652 162.593 118.643 162.593C111.629 162.593 88.8866 166.377 88.8866 166.377L77.9296 195.601ZM143.397 172.454L151.193 193.253C151.193 193.253 130.536 189.857 118.638 189.857C106.735 189.857 86.0712 193.253 86.0712 193.253L93.8827 172.463C99.0935 171.624 113.378 169.413 118.642 169.413C123.9 169.413 138.186 171.623 143.397 172.454ZM87.3987 198.746C90.569 198.746 93.1396 201.316 93.1396 204.486C93.1396 207.657 90.569 210.227 87.3987 210.227C84.2269 210.227 81.6579 207.657 81.6579 204.486C81.6579 201.316 84.2269 198.746 87.3987 198.746ZM149.877 210.227C146.707 210.227 144.138 207.657 144.138 204.487C144.138 201.316 146.707 198.747 149.877 198.747C153.048 198.747 155.619 201.316 155.619 204.487C155.619 207.657 153.048 210.227 149.877 210.227Z" fill="#A6B3FF"/>
<path d="M140.692 183.12C141.685 178.857 139.034 174.596 134.77 173.603C130.507 172.61 126.246 175.261 125.253 179.525C124.26 183.788 126.911 188.049 131.175 189.042C135.438 190.035 139.699 187.383 140.692 183.12Z" fill="#CCD1F2"/>
<path d="M211.44 222.728H214.846V232.947C214.846 234.829 216.373 236.351 218.256 236.351H225.069C226.951 236.351 228.475 234.829 228.475 232.947V222.728H282.983V232.947C282.983 234.829 284.509 236.351 286.392 236.351H293.202C295.088 236.351 296.611 234.829 296.611 232.947V222.728H300.016V215.912H211.44V222.728Z" fill="#8D91A3"/>
<path d="M255.723 162.593C248.714 162.593 225.972 166.376 225.972 166.376L215.019 195.601C212.723 196.242 211.441 196.669 211.441 196.669V214.021H300.016V196.669C300.016 196.669 298.733 196.242 296.437 195.601L285.48 166.376C285.48 166.376 262.737 162.593 255.723 162.593ZM215.557 200.918H220.128V209.005H215.557V200.918ZM222.238 200.918H231.38V209.005H222.238V200.918ZM289.219 209.005H280.077V200.918H289.219V209.005ZM255.728 189.857C243.83 189.857 223.173 193.253 223.173 193.253L230.969 172.454C236.18 171.623 250.466 169.413 255.723 169.413C260.987 169.413 275.272 171.623 280.483 172.462L288.295 193.253C288.295 193.253 267.631 189.857 255.728 189.857ZM295.899 209.005H291.328V200.918H295.899V209.005Z" fill="#8D91A3"/>
<path d="M243.177 189.036C247.44 188.044 250.092 183.783 249.099 179.519C248.106 175.256 243.845 172.604 239.581 173.597C235.318 174.59 232.667 178.851 233.66 183.115C234.652 187.378 238.913 190.029 243.177 189.036Z" fill="#8D91A3"/>
</svg>
