<svg width="221" height="220" viewBox="0 0 221 220" fill="none" xmlns="http://www.w3.org/2000/svg">
<g clip-path="url(#clip0_83_12402)">
<path d="M65.1629 52.0351C42.6062 71.3657 14.6859 84.539 4.75908 106.697C-5.11743 128.856 3.04985 159.895 20.3357 179.479C37.6216 199.013 63.9758 207.082 88.4405 213.296C112.897 219.557 135.404 223.948 150.45 214.659C165.505 205.322 173.102 182.268 184.309 161.461C195.516 140.72 210.38 122.195 213.751 99.5348C217.121 76.8215 209.002 49.8691 191.811 29.5781C174.573 9.23639 148.219 -4.50315 126.47 1.3639C104.767 7.21686 87.672 32.7074 65.1629 52.0351Z" fill="white"/>
<path d="M73.1124 66.6479C73.1124 41.8161 73.6027 16.8322 106.975 16.8322C137.439 16.8322 140.026 51.3335 140.181 63.7217C140.335 76.2933 144.349 83.5871 149.343 89.2126L162.873 101.262C168.151 105.963 171.778 112.235 173.22 119.154C175.038 127.882 174.413 136.942 171.415 145.338L168.5 153.5C151.992 168.206 110.572 177.772 99.8303 177.772C90.0645 177.772 61.2357 169.798 46.5 161.5L41.5 153L40.6982 151.396C35.4068 140.814 36.8298 128.109 44.3316 118.959L57.2096 103.252C65.6219 93.5005 73.1124 82.3968 73.1124 66.6479Z" fill="#EE8280"/>
<path d="M167.5 154C167.49 157.765 152.5 169.5 149 170C146.297 172.663 138.74 179.99 134.916 180H128L132 194C115.648 198.579 98.3522 198.579 82 194L84.5 180H71.6363C67.8129 179.99 64.149 178.49 61.4456 175.827C58.7423 173.165 66.5097 168.265 66.5 164.5L65.1374 164.37C59.4134 163.825 54.319 160.512 51.5 155.5L49.5 150.5L57.2096 135.82C67.9977 115.964 85.3741 103.076 104.974 103.076C122.628 103.076 142.133 114.406 153 131L160 141L167.5 154Z" fill="#A6B3FF"/>
<path d="M48.7593 152.209L43 165.5L40.2922 171.367C40.1166 171.747 40.1968 172.197 40.4931 172.493L53.4093 185.409C53.4696 185.47 53.5373 185.522 53.6107 185.565L82.3325 202.402C82.4432 202.467 82.5653 202.51 82.6922 202.528L112.8 206.971C112.932 206.99 113.066 206.983 113.195 206.95L147.824 198.045C147.941 198.015 148.05 197.965 148.149 197.896L157.941 191.041C157.98 191.014 158.018 190.983 158.053 190.95L174.479 175.49C174.791 175.197 174.881 174.738 174.704 174.348L167.59 158.697C167.531 158.567 167.5 158.426 167.5 158.283V156C167.5 155.262 166.767 155.027 166.503 155.716C165.696 157.828 165.157 160.854 161 163.5C157.067 166.003 150.631 170.023 148.5 170.475C148.189 170.541 147.929 170.326 147.808 170.033L133.075 134.183C133.026 134.062 133 133.933 133 133.803V130.186C133 130.063 133.023 129.941 133.067 129.827L137 119.601C139.318 113.574 142.609 107.97 146.742 103.009L148 101.5L149.3 99.7667C149.43 99.5936 149.5 99.383 149.5 99.1667V98.5V98.3198C149.5 97.8431 149.16 97.4552 148.685 97.4117C147.484 97.3017 145.688 97.0596 146 95.5C146.304 93.9789 146.049 93.3254 145.763 93.0997C145.616 92.9837 145.416 93.0527 145.257 93.152L141.683 95.3859C141.562 95.4611 141.459 95.5611 141.381 95.6792L138.797 99.5547C138.611 99.8329 138.432 99.8201 138.492 99.4911C138.693 98.3815 139.5 95.7447 139.5 94.5C139.5 92.9565 138.569 93.7706 138.055 94.4285C138.018 94.4758 137.987 94.527 137.96 94.5806L136.492 97.5157C132.173 106.154 127.085 114.387 121.29 122.114L119.743 124.176C119.587 124.384 119.518 124.644 119.551 124.902L123 152C126.589 172.19 130.581 191.171 131.363 195.218C131.452 195.68 131.171 196.072 130.712 196.171C109.723 200.677 89.7889 202.044 82.2362 199.75C81.7978 199.617 81.5376 199.181 81.5911 198.726L82.5001 191L94.9348 127.334C94.9771 127.118 94.9465 126.893 94.8477 126.695L93.0001 123L89.4027 117.379C86.4736 112.802 83.965 107.97 81.9076 102.941L80.6918 99.9687C80.5713 99.674 80.3176 99.4544 80.0088 99.3772L79.7426 99.3106C79.1115 99.1528 78.5001 99.6302 78.5001 100.281V103.114C78.5001 104.11 77.1961 104.499 76.6426 103.671C74.2733 100.124 70.8161 95.2107 69.0001 94C66.6287 92.4191 67.9672 98.1927 68.9641 101.385C68.9882 101.463 69.0214 101.535 69.0636 101.604L74.4545 110.425C74.4848 110.475 74.5107 110.527 74.532 110.581L80.0001 124.5L81.4321 129.751C81.4767 129.914 81.4803 130.082 81.4393 130.246C78.2612 142.965 67.1477 163.052 66.0599 163.968C66.0194 164.002 65.9721 163.996 65.9198 163.987C55.2083 162.244 52.3696 155.957 50.4055 152.124C50.0418 151.415 49.0765 151.478 48.7593 152.209Z" fill="white"/>
<path d="M171.307 118.395C170.027 91.5545 142.312 95.5358 141.885 62.0388C141.816 56.6306 141.287 47.0094 138.175 37.8831" stroke="#40404B" stroke-linecap="round" stroke-linejoin="round"/>
<path d="M61.1965 98.8628C51.4553 110.787 39.5687 120.377 36.5749 133.164" stroke="#40404B" stroke-linecap="round" stroke-linejoin="round"/>
<path d="M128.625 22.3273C123.873 17.9815 117.43 15.1494 108.691 15.1494C75.3141 15.1494 74.8286 40.1333 74.8286 64.9651C74.8286 75.5883 71.4107 84.1158 66.6002 91.5231" stroke="#40404B" stroke-linecap="round" stroke-linejoin="round"/>
<path d="M127.659 106.922C121.073 103.503 113.928 101.627 106.445 101.627C98.9691 101.627 91.8172 103.502 85.2309 106.922M70.376 118.197C72.0183 116.489 73.7284 114.895 75.5 113.423" stroke="#40404B" stroke-linecap="round" stroke-linejoin="round"/>
<path d="M149.343 126.51C146.021 121.744 142.089 117.42 137.643 113.646" stroke="#40404B" stroke-linecap="round" stroke-linejoin="round"/>
<path d="M122.858 83.1694C121.877 88.7225 121.323 104.203 122.15 112.267C119.006 114.875 105.195 117.236 96.0127 113.733C97.2534 109.254 97.9154 98.5852 96.839 92.0688C102.714 89.9514 122.858 83.1694 122.858 83.1694Z" fill="white"/>
<path d="M122.978 99.7609C122.951 103.962 123.067 108.033 123.375 111.06C121.485 112.63 115.723 114.11 109.437 114.276" stroke="#40404B" stroke-linecap="round" stroke-linejoin="round"/>
<path d="M97.2386 112.521C98.4792 108.042 99.1412 97.3731 98.0648 90.8568C103.949 88.7394 124.084 81.9574 124.084 81.9574C123.706 84.1038 123.39 87.7302 123.194 91.8394" stroke="#40404B" stroke-linecap="round" stroke-linejoin="round"/>
<path d="M103.12 95.9655C87.8865 95.9655 75.537 79.7513 75.537 59.75C75.537 39.7487 87.8865 23.5345 103.12 23.5345C118.354 23.5345 130.704 39.7487 130.704 59.75C130.704 79.7513 118.354 95.9655 103.12 95.9655Z" fill="white"/>
<path d="M81.7112 77.8071C86.6321 87.7229 95.1523 94.2755 104.837 94.2755C107.035 94.2757 109.219 93.9376 111.31 93.2735" stroke="#40404B" stroke-linecap="round" stroke-linejoin="round"/>
<path d="M130.177 72.3917C131.679 67.7589 132.436 62.9232 132.421 58.06C132.421 38.0594 120.073 21.8445 104.837 21.8445C89.6013 21.8445 77.2537 38.0594 77.2537 58.06C77.2466 61.9119 77.7176 65.7502 78.6562 69.4896" stroke="#40404B" stroke-linecap="round" stroke-linejoin="round"/>
<path d="M93.5268 65.0748C92.6849 65.2626 91.6661 63.9072 91.2512 62.0475C90.8363 60.1878 91.1825 58.5279 92.0243 58.3401C92.8662 58.1523 93.885 59.5076 94.2999 61.3674C94.7148 63.2271 94.3687 64.887 93.5268 65.0748Z" fill="#40404B"/>
<path d="M100.423 66.7539C99.7732 69.3325 98.5718 72.1911 96.5 73.997" stroke="#40404B" stroke-linecap="round" stroke-linejoin="round"/>
<path d="M101.08 62C101.076 62.5276 101.045 63.0546 100.985 63.579" stroke="#40404B" stroke-linecap="round" stroke-linejoin="round"/>
<path d="M101.5 85C99.8431 85 98.5 83.2091 98.5 81C98.5 78.7909 99.8431 77 101.5 77C103.157 77 104.5 78.7909 104.5 81C104.5 83.2091 103.157 85 101.5 85Z" stroke="#40404B" stroke-linecap="round" stroke-linejoin="round"/>
<path d="M95.8961 31.3469C95.8754 31.4747 95.8417 31.6 95.7956 31.7211C94.4324 35.7048 80.2434 60.935 73.67 65.445C73.4371 61.5 73.0472 45.2754 75.6119 40.6833C78.1765 36.0912 88.825 24 92.1668 24C95.5087 24 95.8863 31.4338 95.8863 31.4338" fill="#EE8280"/>
<path d="M82.3878 57.256C81.177 58.9214 79.8627 60.5115 78.4526 62.0171" stroke="#40404B" stroke-linecap="round" stroke-linejoin="round"/>
<path d="M98.5803 29.7684C98.5596 29.8962 98.5259 30.0215 98.4798 30.1427C97.6192 32.6536 91.6612 43.61 85.7301 52.4949" stroke="#40404B" stroke-linecap="round" stroke-linejoin="round"/>
<path d="M90.6063 23.5369C90.6063 25.9513 112.977 67.7054 124.388 73.5433C129.086 76.6265 138.133 77.7274 138.133 75.3058C138.133 72.8842 133.771 31.3643 124.486 26.6201C115.201 21.8759 101.569 16.3759 90.6063 23.5369Z" fill="#EE8280"/>
<path d="M102.155 42.2435C109.545 54.7547 119.271 69.0912 125.614 72.3362C127.681 73.693 130.597 74.666 133.215 75.1247" stroke="#40404B" stroke-linecap="round" stroke-linejoin="round"/>
<path d="M91.8322 22.3297C91.8322 22.9574 93.3327 26.2193 95.7551 30.8138" stroke="#40404B" stroke-linecap="round" stroke-linejoin="round"/>
<path d="M127.593 79.0143C123.684 79.0143 120.514 75.8936 120.514 72.044C120.514 68.1944 123.684 65.0737 127.593 65.0737C131.502 65.0737 134.671 68.1944 134.671 72.044C134.671 75.8936 131.502 79.0143 127.593 79.0143Z" fill="white"/>
<path d="M131.682 64.4604C130.587 63.9844 129.387 63.7894 128.194 63.8937C127.001 63.998 125.854 64.3981 124.861 65.0568" stroke="#40404B" stroke-linecap="round" stroke-linejoin="round"/>
<path d="M126.813 77.5246C128.023 77.8732 129.305 77.8979 130.527 77.596C131.75 77.2942 132.868 76.6767 133.768 75.8073C134.667 74.938 135.315 73.8481 135.644 72.6502C135.973 71.4522 135.971 70.1895 135.64 68.9922" stroke="#40404B" stroke-linecap="round" stroke-linejoin="round"/>
<path d="M81.9999 194.5L95.9782 128.603C95.9927 128.534 96 128.465 96 128.395V126.846C96 126.622 95.9247 126.404 95.7863 126.228L90.5 119.5M85 107.5L81.07 100.131C81.0236 100.044 80.9651 99.9646 80.8943 99.8959C80.0338 99.0597 78.5 97.8488 78.5 99C78.5 100.2 78.1666 102.833 78 104M84.5 114L70.5446 95.0606C70.5149 95.0202 70.4825 94.9822 70.4465 94.9473C69.7595 94.2811 68.3896 93.3311 68 94.5C67.5 96 67.5 98.5 68 101M74.5 111L75.758 114M71.5 154.5C74.3333 148 80.2 134.4 81 132C81.8 129.6 81.3333 127.333 81 126.5L75.758 114M68 161.5L57.4999 183.5M63 163.5C59 162 50.7001 157.3 49.5 150.5C49.3892 149.872 57.9999 134.5 61 131.5M70.5 118L75.758 114" stroke="#40404B" stroke-linecap="round"/>
<path d="M48 153.5L40.5 170" stroke="#40404B"/>
<path d="M85.5 107.5C87.8333 106.167 93.3 103.4 96.5 103" stroke="#40404B" stroke-linecap="round"/>
<path d="M123 105L128 107M172.5 168.5C172.5 168.5 170.5 164 166.5 159C166.194 158.617 167.295 156.769 168.137 155.524C168.354 155.201 168.378 154.785 168.186 154.447C165.235 149.244 159.429 139.087 157.5 136M131.5 195L128 178M125 163.5C123.192 153.965 119.599 133.176 119.502 125.318C119.499 125.105 119.568 124.908 119.694 124.736L125 117.5M126 114L137.937 94.1056C137.979 94.0354 138.029 93.9706 138.088 93.9142C138.769 93.2676 139.883 92.5851 139.5 94.5C139 97 137 106.5 133.5 113M141.5 95.5C142.5 94.5 144.7 92.5 145.5 92.5C146.5 92.5 147.5 94.5 146.5 97C146.385 97.2868 146.242 97.6251 146.077 98M142.5 105.5C143.357 103.787 145.094 100.239 146.077 98M146.077 98C147.551 97.3333 150.3 96.5 149.5 98.5C148.5 101 142.5 107.5 142.5 108.5M140.5 112L133.539 129.403C133.513 129.468 133.48 129.528 133.446 129.588C133.121 130.161 132.743 131.606 133.5 133.5C134.3 135.5 139.167 148.667 141.5 155M142.5 158.5C144.034 161.567 146.186 165.94 148.373 170.5M156 187C154.989 183.714 152.129 178.33 148.373 170.5M148.373 170.5C151.082 170 157.7 167.6 162.5 162" stroke="#40404B" stroke-linecap="round"/>
<path d="M201.5 103C201.5 155.467 159.191 198 107 198C54.8091 198 12.5 155.467 12.5 103C12.5 75.599 24.0397 50.9075 42.5 33.5689M107 8C130.015 8 151.109 16.2712 167.5 30.0181" stroke="#40404B"/>
</g>
<defs>
<clipPath id="clip0_83_12402">
<rect width="220" height="220" fill="white" transform="translate(0.5)"/>
</clipPath>
</defs>
</svg>
