<svg width="281" height="220" viewBox="0 0 281 220" fill="none" xmlns="http://www.w3.org/2000/svg">
<path d="M68.5133 19.0935C104.192 6.82955 157.821 26.9194 190.268 51.0671C237.737 86.3942 248.774 79.3933 266.8 113.502C284.827 147.611 271.26 176.617 251.178 191.585C230.748 206.812 200.393 210.101 165.768 201.567C125.268 191.585 56.7021 199.885 33.2682 178.567C9.83427 157.249 6.76826 136.567 4.76823 103.567C3.10669 76.1521 9.26819 39.4579 68.5133 19.0935Z" fill="white"/>
<path opacity="0.503674" d="M180.428 5.64347L204.399 29.5647C205.865 31.0276 205.867 33.402 204.404 34.868C204.402 34.8698 204.4 34.8716 204.399 34.8734L180.428 58.7946C178.964 60.2555 176.594 60.2555 175.13 58.7946L151.16 34.8734C149.694 33.4105 149.691 31.0361 151.154 29.5701C151.156 29.5683 151.158 29.5665 151.16 29.5647L175.13 5.64347C176.594 4.18264 178.964 4.18264 180.428 5.64347Z" stroke="#C8CEF0" stroke-width="1.3444" stroke-linecap="round" stroke-linejoin="round"/>
<path d="M36.4038 34.0921H266.404V181.092H36.4038V34.0921Z" fill="#F0F1FB"/>
<path d="M141.742 69.5897C146.877 66.7355 153.123 66.7355 158.258 69.5897L187.591 85.8917C192.986 88.8903 196.332 94.5782 196.332 100.751V132.249C196.332 138.422 192.986 144.11 187.591 147.108L158.258 163.41C153.123 166.265 146.877 166.265 141.742 163.41L112.409 147.108C107.014 144.11 103.668 138.422 103.668 132.249V100.751C103.668 94.5781 107.014 88.8903 112.409 85.8917L141.742 69.5897Z" fill="white"/>
<path d="M33.4038 84.4265V36.0921M263.404 36.0921V156.195M180.716 183.092H33.4038V120.514" stroke="#41415B" stroke-miterlimit="10"/>
<path d="M36.4038 34.0921H266.404V53.0921H36.4038V34.0921Z" fill="#D7DFFF"/>
<path d="M83.4038 39.0921H225.404V48.0921H83.4038V39.0921Z" fill="white"/>
<path d="M235.404 39.0921H258.404V48.0921H235.404V39.0921Z" fill="#B2C3FB"/>
<path d="M41.4038 41.0921H47.4038V47.0921H41.4038V41.0921Z" fill="white"/>
<path d="M52.4038 41.0921H58.4038V47.0921H52.4038V41.0921Z" fill="white"/>
<path d="M63.4038 41.0921H69.4038V47.0921H63.4038V41.0921Z" fill="white"/>
<rect width="46" height="8" rx="4" transform="matrix(-1 8.74228e-08 8.74228e-08 1 171.5 86)" fill="#A6B3FF"/>
<rect width="46" height="8" rx="4" transform="matrix(-1 8.74228e-08 8.74228e-08 1 171.5 138)" fill="#A6B3FF"/>
<path d="M165.5 102.712C165.5 105.965 163.587 108.932 160.574 110.355L152.614 114.114C151.673 114.558 151.076 115.484 151.076 116.5C151.076 117.516 151.673 118.442 152.614 118.886L160.574 122.645C163.587 124.068 165.5 127.035 165.5 130.288V139C165.5 140.657 164.157 142 162.5 142L134.5 142C132.843 142 131.5 140.657 131.5 139V130.288C131.5 127.035 133.413 124.068 136.426 122.645L144.386 118.886C145.327 118.442 145.924 117.516 145.924 116.5C145.924 115.484 145.327 114.558 144.386 114.114L136.426 110.355C133.413 108.932 131.5 105.965 131.5 102.712V94C131.5 92.3431 132.843 91 134.5 91L162.5 91C164.157 91 165.5 92.3431 165.5 94V102.712Z" fill="#F0F1FB"/>
<path d="M140.25 120.479L135.933 122.63C133.217 123.983 131.5 126.756 131.5 129.79L131.5 133.919M153.375 118.299L157.75 120.479L162.067 122.63C164.783 123.983 166.5 126.756 166.5 129.79L166.5 140C166.5 141.657 165.157 143 163.5 143L149 143" stroke="#40404B" stroke-linecap="round"/>
<path d="M166.5 97L166.5 102.751C166.5 105.869 164.689 108.703 161.859 110.012L157.75 111.912M145.813 117V117C145.813 115.749 145.086 114.612 143.95 114.087L143.625 113.936L139.25 111.912L135.141 110.012C132.311 108.703 130.5 105.869 130.5 102.751L130.5 94C130.5 92.3431 131.843 91 133.5 91L148 91" stroke="#40404B" stroke-linecap="round"/>
<path d="M161.783 140H136.113C131.177 134.902 139.075 130.569 139.816 130.569C143.765 130.365 147.549 128.105 148.948 127C149.195 128.02 151.17 128.529 153.391 129.294C158.821 130.059 160.796 132.098 161.289 132.608C165.041 137.094 163.182 139.405 161.783 140Z" fill="#FF9133"/>
<circle cx="145.25" cy="110.75" r="0.75" fill="#40404B"/>
<circle cx="152.25" cy="126.75" r="0.75" fill="#40404B"/>
<circle cx="148.25" cy="112.75" r="0.75" fill="#40404B"/>
<circle cx="145.25" cy="131.75" r="0.75" fill="#40404B"/>
<circle cx="149.25" cy="115.75" r="0.75" fill="#40404B"/>
<circle cx="149.25" cy="119.75" r="0.75" fill="#40404B"/>
<path d="M152 110.75C152 111.164 151.664 111.5 151.25 111.5C150.836 111.5 150.5 111.164 150.5 110.75C150.5 110.336 150.836 110 151.25 110C151.664 110 152 110.336 152 110.75Z" fill="#40404B"/>
<circle cx="155.25" cy="108.75" r="0.75" fill="#40404B"/>
<circle cx="145.25" cy="125.75" r="0.75" fill="#40404B"/>
</svg>
