<svg width="221" height="220" viewBox="0 0 221 220" fill="none" xmlns="http://www.w3.org/2000/svg">
<g clip-path="url(#clip0_615_12679)">
<path d="M76.0127 29.1294C116.781 24.4501 154.084 46.3515 173.245 67.6521C192.406 88.9528 201.007 101.235 207.568 124.572C215.023 151.093 202.271 170.108 184.196 180.327C165.809 190.724 132.53 184.588 101.471 172.238C71.2082 160.205 56.4834 169.706 28.4215 151.638C5.83229 137.094 2.31166 119.886 3.98191 92.6636C5.36949 70.0487 24.0787 35.0904 76.0127 29.1294Z" fill="white"/>
<path d="M140 159C125.917 159 114.5 147.583 114.5 133.5" stroke="#41415B" stroke-miterlimit="10"/>
<path d="M106 159C135.547 159 159.5 135.047 159.5 105.5C159.5 75.9528 135.547 52 106 52C76.4528 52 52.5 75.9528 52.5 105.5C52.5 135.047 76.4528 159 106 159Z" stroke="#FF7B7C" stroke-width="5" stroke-miterlimit="10"/>
<path d="M105.5 46C72.9152 46 46.5 72.7249 46.5 105.692C46.5 113.01 47.8018 120.021 50.1838 126.5" stroke="#41415B" stroke-miterlimit="10"/>
<path d="M106 159C135.547 159 159.5 135.047 159.5 105.5C159.5 75.9528 135.547 52 106 52C76.4528 52 52.5 75.9528 52.5 105.5C52.5 135.047 76.4528 159 106 159Z" stroke="#FF7B7C" stroke-width="5" stroke-miterlimit="10"/>
<path d="M106 159C135.547 159 159.5 135.047 159.5 105.5C159.5 75.9528 135.547 52 106 52C76.4528 52 52.5 75.9528 52.5 105.5" stroke="#FF7B7C" stroke-width="5" stroke-miterlimit="10"/>
<path d="M142.5 142L68.5 68" stroke="#FF7B7C" stroke-width="5" stroke-miterlimit="10"/>
<path d="M54.8535 132.893C54.8535 144.355 64.1452 153.647 75.607 153.647C87.0689 153.647 96.3606 144.355 96.3606 132.893C96.3606 121.431 87.0689 112.139 75.607 112.139C64.1452 112.139 54.8535 121.431 54.8535 132.893Z" fill="white"/>
<path d="M118.468 132.893C118.468 144.355 127.759 153.647 139.221 153.647C150.683 153.647 159.975 144.355 159.975 132.893C159.975 121.431 150.683 112.139 139.221 112.139C127.759 112.139 118.468 121.431 118.468 132.893Z" fill="white"/>
<path d="M76.5095 78.535L59.8164 116.884C61.9218 114.628 68.6592 110.387 78.7653 111.47C88.8714 112.553 94.1049 120.944 95.4584 125.005L97.2631 83.9489L95.4584 80.3396C88.2398 68.7898 79.818 74.3241 76.5095 78.535Z" fill="#CCD1F2"/>
<path d="M139.221 79.4372L155.914 117.786C153.809 115.53 147.071 111.289 136.965 112.372C126.859 113.455 121.626 121.847 120.272 125.907L118.468 84.8512L120.272 81.2419C127.491 69.6921 135.913 75.2264 139.221 79.4372Z" fill="#CCD1F2"/>
<path d="M87.3374 66.3535L84.1792 72.6698L91.3978 74.9256L91.849 69.9628L91.3978 66.8047L87.3374 66.3535Z" fill="#A6B3FF"/>
<path d="M128.393 67.2558L131.552 73.5721L124.333 75.8279L123.882 70.8651L124.333 67.707L128.393 67.2558Z" fill="#A6B3FF"/>
<path fill-rule="evenodd" clip-rule="evenodd" d="M89.142 67.707C90.6206 67.707 91.3978 68.6696 91.3978 69.3807V74.3293C89.6451 73.4088 87.6497 72.8881 85.5327 72.8881C85.4844 72.8881 85.4361 72.8883 85.3879 72.8889L86.801 69.0964L86.8149 69.0591L86.8266 69.021C87.0064 68.4352 87.8795 67.707 89.142 67.707ZM82.3487 73.2927L84.2519 68.1847C84.8906 66.1846 87.0555 65 89.142 65C91.6501 65 94.1048 66.748 94.1048 69.3807V76.2415C96.5018 78.457 98.0386 81.5897 98.1578 85.0821L98.1652 85.0822L98.1632 85.2923C98.1646 85.3683 98.1653 85.4444 98.1653 85.5207H98.1611L98.1527 86.423H117.578L117.57 85.5207H117.565C117.565 85.4444 117.566 85.3683 117.567 85.2923L117.565 85.0822L117.573 85.0821C117.692 81.5897 119.229 78.457 121.626 76.2415V69.3807C121.626 66.748 124.081 65 126.589 65C128.675 65 130.84 66.1846 131.479 68.1847L133.382 73.2927C136.833 74.1888 139.71 76.5071 141.35 79.5827L141.368 79.5751L141.468 79.8084C141.66 80.186 141.833 80.5745 141.987 80.9728L141.968 80.9799L159.866 122.887L159.846 122.895C161.371 125.898 162.231 129.295 162.231 132.893C162.231 145.102 152.333 155 140.124 155C128.069 155 118.268 145.352 118.021 133.357L118.017 133.357L117.937 124.845C111.355 122.91 104.348 122.956 97.7924 124.978L97.7141 133.357L97.7093 133.357C97.4625 145.352 87.6615 155 75.6071 155C63.3977 155 53.5 145.102 53.5 132.893C53.5 129.295 54.3595 125.898 55.8845 122.895L55.8646 122.887L73.7624 80.9799L73.7439 80.9728C73.8976 80.5745 74.0709 80.186 74.2627 79.8084L74.3623 79.5751L74.3802 79.5827C76.0211 76.5071 78.8977 74.1888 82.3487 73.2927ZM97.8188 122.148C104.381 120.287 111.326 120.244 117.911 122.025L117.814 111.688H97.9166L97.8188 122.148ZM117.603 89.13L117.789 108.981H97.9419L98.1274 89.13H117.603ZM85.5327 75.5951C90.9428 75.5951 95.3419 79.9235 95.456 85.3062L95.1087 122.472C91.3843 115.517 84.0482 110.786 75.6071 110.786C70.459 110.786 65.7219 112.546 61.9645 115.496L76.7154 80.9577C78.3683 77.7703 81.6979 75.5951 85.5327 75.5951ZM95.0071 132.893C95.0071 122.179 86.3214 113.493 75.6071 113.493C64.8927 113.493 56.207 122.179 56.207 132.893C56.207 143.607 64.8927 152.293 75.6071 152.293C86.3214 152.293 95.0071 143.607 95.0071 132.893ZM126.589 67.707C125.11 67.707 124.333 68.6696 124.333 69.3807V74.3293C126.085 73.4088 128.081 72.8881 130.198 72.8881C130.246 72.8881 130.295 72.8883 130.343 72.8889L128.93 69.0964L128.916 69.0591L128.904 69.021C128.724 68.4352 127.851 67.707 126.589 67.707ZM130.198 75.5951C124.788 75.5951 120.389 79.9235 120.275 85.3062L120.622 122.472C124.346 115.517 131.682 110.786 140.124 110.786C145.272 110.786 150.009 112.546 153.766 115.496L139.015 80.9577C137.362 77.7703 134.033 75.5951 130.198 75.5951ZM120.723 132.893C120.723 122.179 129.409 113.493 140.124 113.493C150.838 113.493 159.524 122.179 159.524 132.893C159.524 143.607 150.838 152.293 140.124 152.293C129.409 152.293 120.723 143.607 120.723 132.893Z" fill="#5567D5"/>
<path fill-rule="evenodd" clip-rule="evenodd" d="M77.4438 87.1963C78.1421 87.4633 78.4916 88.2457 78.2247 88.9439L72.3595 104.284C72.0926 104.982 71.3101 105.331 70.6119 105.064C69.9137 104.797 69.5641 104.015 69.8311 103.317L75.6962 87.9772C75.9632 87.2789 76.7456 86.9294 77.4438 87.1963Z" fill="#5567D5"/>
<path fill-rule="evenodd" clip-rule="evenodd" d="M66.7323 69.7678L113.732 116.768L117.268 113.232L70.2678 66.2322L66.7323 69.7678Z" fill="#FF7B7C"/>
<path fill-rule="evenodd" clip-rule="evenodd" d="M50 105.5C50 74.5721 75.0721 49.5 106 49.5V54.5C77.8335 54.5 55 77.3335 55 105.5H50Z" fill="#FF7B7C"/>
<path d="M60.5 133C60.5 124.716 67.2157 118 75.5 118" stroke="#5567D5" stroke-width="3" stroke-linecap="round"/>
<path d="M155.5 133C155.5 141.284 148.784 148 140.5 148" stroke="#5567D5" stroke-width="3" stroke-linecap="round"/>
</g>
<defs>
<clipPath id="clip0_615_12679">
<rect width="220" height="220" fill="white" transform="translate(0.5)"/>
</clipPath>
</defs>
</svg>
