<svg width="281" height="220" viewBox="0 0 281 220" fill="none" xmlns="http://www.w3.org/2000/svg">
<path d="M68.5131 19.0935C104.192 6.82955 157.821 26.9194 190.268 51.0671C237.737 86.3942 248.774 79.3933 266.8 113.502C284.826 147.611 271.26 176.617 251.178 191.585C230.748 206.812 200.393 210.101 165.768 201.567C125.268 191.585 56.7019 199.885 33.268 178.567C9.83403 157.249 6.76802 136.567 4.76798 103.567C3.10645 76.1521 9.26795 39.4579 68.5131 19.0935Z" fill="white"/>
<path opacity="0.503674" d="M180.428 5.64347L204.399 29.5647C205.865 31.0276 205.867 33.402 204.404 34.868C204.402 34.8698 204.4 34.8716 204.399 34.8734L180.428 58.7946C178.964 60.2555 176.594 60.2555 175.13 58.7946L151.16 34.8734C149.694 33.4105 149.691 31.0361 151.154 29.5701C151.156 29.5683 151.158 29.5665 151.16 29.5647L175.13 5.64347C176.594 4.18264 178.964 4.18264 180.428 5.64347Z" stroke="#C8CEF0" stroke-width="1.3444" stroke-linecap="round" stroke-linejoin="round"/>
<path d="M36.4039 34.0921H266.404V181.092H36.4039V34.0921Z" fill="#F0F1FB"/>
<path d="M33.4039 84.4265V36.0921M263.404 36.0921V156.195M180.716 183.092H33.4039V120.514" stroke="#41415B" stroke-miterlimit="10"/>
<path d="M36.4039 34.0921H266.404V53.0921H36.4039V34.0921Z" fill="#D7DFFF"/>
<path d="M83.4039 39.0921H225.404V48.0921H83.4039V39.0921Z" fill="white"/>
<path d="M235.404 39.0921H258.404V48.0921H235.404V39.0921Z" fill="#B2C3FB"/>
<path d="M41.4039 41.0921H47.4039V47.0921H41.4039V41.0921Z" fill="white"/>
<path d="M52.4039 41.0921H58.4039V47.0921H52.4039V41.0921Z" fill="white"/>
<path d="M63.4039 41.0921H69.4039V47.0921H63.4039V41.0921Z" fill="white"/>
<path d="M107.5 114.092C107.5 89.7915 127.199 70.0921 151.5 70.0921C175.801 70.0921 195.5 89.7915 195.5 114.092C195.5 138.393 175.801 158.092 151.5 158.092C127.199 158.092 107.5 138.393 107.5 114.092Z" fill="white"/>
<path d="M151.5 158.092C175.801 158.092 195.5 138.393 195.5 114.092C195.5 89.7915 175.801 70.0921 151.5 70.0921C127.199 70.0921 107.5 89.7915 107.5 114.092C107.5 138.393 127.199 158.092 151.5 158.092Z" stroke="#FF7B7C" stroke-width="5" stroke-miterlimit="10"/>
<path d="M150.5 66.0921C123.99 66.0921 102.5 87.5824 102.5 114.092C102.5 126.983 107.581 138.686 115.85 147.309" stroke="#41415B" stroke-miterlimit="10"/>
<path d="M133.5 112.092H169.5V143.092H133.5V112.092Z" fill="#A6B3FF"/>
<path d="M148.5 124.092H154.5V130.092H148.5V124.092Z" fill="#D7DFFF"/>
<path d="M120.805 144.065L181.444 83.4265" stroke="#FF7B7C" stroke-width="5" stroke-miterlimit="10"/>
<path d="M148.404 111.336L176.491 82.3795" stroke="#41415B" stroke-miterlimit="10"/>
<path d="M141.5 112.092V102.092C141.5 96.5692 145.977 92.0921 151.5 92.0921C157.023 92.0921 161.5 96.5692 161.5 102.092V112.092" stroke="#D7DFFF" stroke-width="4" stroke-miterlimit="10"/>
</svg>
