<svg width="941" height="265" viewBox="0 0 941 265" fill="none" xmlns="http://www.w3.org/2000/svg">
<path d="M15.6895 208.266L15.6455 208.274C14.4736 208.274 13.4702 207.966 12.6279 207.358C11.7856 206.75 11.2144 205.996 10.9141 205.102L12.4521 204.641C12.6938 205.278 13.104 205.805 13.6826 206.216C14.2612 206.626 14.9424 206.831 15.7334 206.831C16.4292 206.831 17.0005 206.662 17.4473 206.333C17.894 206.003 18.1211 205.622 18.1211 205.19C18.1211 204.839 17.9966 204.546 17.7402 204.304C17.4839 204.062 17.0591 203.85 16.4585 203.659L13.8218 202.817C12.2471 202.326 11.4634 201.469 11.4634 200.246C11.4634 199.455 11.8076 198.774 12.4961 198.21C13.1846 197.646 14.0488 197.361 15.0889 197.361C16.1582 197.361 17.0811 197.61 17.8574 198.108C18.6338 198.606 19.1831 199.228 19.5054 199.975L17.9893 200.429C17.7402 199.939 17.3667 199.543 16.8613 199.243C16.356 198.943 15.77 198.796 15.1035 198.796C14.5249 198.796 14.0488 198.935 13.6753 199.214C13.3018 199.492 13.1113 199.822 13.1113 200.202C13.1113 200.503 13.2212 200.752 13.4336 200.949C13.646 201.147 13.9902 201.316 14.459 201.455L17.0371 202.275C17.9453 202.561 18.6338 202.912 19.0952 203.33C19.5566 203.747 19.791 204.326 19.791 205.073C19.791 205.974 19.4102 206.728 18.6484 207.344C17.8867 207.959 16.8979 208.266 15.6895 208.266ZM25.46 206.538L25.8481 207.827C25.2769 208.069 24.7202 208.186 24.1855 208.186C23.3945 208.186 22.8013 207.959 22.4131 207.505C22.0249 207.051 21.8271 206.421 21.8271 205.622V201.916H20.4502V200.525H21.8271V198.005H23.3872V200.525H25.7896V201.916H23.3872V205.622C23.3872 206.391 23.7461 206.78 24.4712 206.78C24.8008 206.78 25.1304 206.699 25.46 206.538ZM30.5283 208.266L30.543 208.281C29.3491 208.281 28.3823 207.915 27.6353 207.182C26.8882 206.45 26.5146 205.49 26.5146 204.311C26.5146 203.176 26.8735 202.231 27.5913 201.477C28.3091 200.722 29.2466 200.342 30.3965 200.342C31.5903 200.342 32.5278 200.7 33.2163 201.426C33.9048 202.151 34.249 203.059 34.249 204.157C34.249 204.348 34.2344 204.56 34.1978 204.787H28.0674C28.1187 205.425 28.3604 205.937 28.7998 206.325C29.2393 206.714 29.8325 206.911 30.5723 206.911C31.6123 206.911 32.3301 206.509 32.7183 205.696L34.1538 206.12C33.8828 206.714 33.436 207.219 32.8135 207.636C32.1909 208.054 31.4292 208.266 30.5283 208.266ZM28.0674 203.747H32.7036C32.6523 203.147 32.4253 202.656 32.0225 202.275C31.6196 201.894 31.0776 201.704 30.4038 201.704C29.752 201.704 29.2173 201.902 28.7925 202.297C28.3677 202.693 28.126 203.176 28.0674 203.747ZM40.123 200.327V200.334C41.1924 200.334 42.0859 200.708 42.8037 201.462C43.5215 202.217 43.8804 203.161 43.8804 204.297C43.8804 205.432 43.5215 206.377 42.8037 207.131C42.0859 207.885 41.1924 208.266 40.123 208.266C38.9512 208.266 38.0503 207.82 37.4204 206.926V211.218H35.8457V200.525H37.4204V201.667C38.0503 200.774 38.9512 200.327 40.123 200.327ZM39.8667 206.86L39.8594 206.853C40.5771 206.853 41.1704 206.611 41.6318 206.128C42.0933 205.644 42.3276 205.029 42.3276 204.289C42.3276 203.55 42.1006 202.942 41.6392 202.466C41.1777 201.99 40.5845 201.748 39.8594 201.748C39.1636 201.748 38.5776 201.99 38.0942 202.473C37.6108 202.956 37.3691 203.564 37.3691 204.297C37.3691 205.036 37.6108 205.652 38.0942 206.135C38.5776 206.618 39.1709 206.86 39.8667 206.86ZM51.71 197.566H53.0942V208.069H51.439V199.397L48.9487 200.598L48.5459 199.192L51.71 197.566Z" fill="#5567D5"/>
<path d="M16.9585 237.28L16.9663 237.295C15.3179 237.295 13.9351 236.733 12.8257 235.615C11.7163 234.498 11.1616 233.108 11.1616 231.451C11.1616 229.819 11.7163 228.451 12.8257 227.342C13.9351 226.233 15.3101 225.678 16.9507 225.678C18.2319 225.678 19.3413 225.99 20.2788 226.623C21.2163 227.256 21.8647 228.061 22.2163 229.045L20.9663 229.35C20.6772 228.623 20.1772 228.03 19.4663 227.561C18.7554 227.092 17.9116 226.858 16.9351 226.858C15.6147 226.858 14.5366 227.303 13.6929 228.186C12.8491 229.069 12.4272 230.147 12.4272 231.42C12.4272 232.725 12.8491 233.826 13.6851 234.725C14.521 235.623 15.6069 236.076 16.9429 236.076C17.9116 236.076 18.7554 235.85 19.4663 235.389C20.1772 234.928 20.6772 234.334 20.9663 233.6L22.1851 233.92C21.8179 234.897 21.1694 235.701 20.2397 236.334C19.3101 236.967 18.2163 237.28 16.9585 237.28ZM25.396 230.459H25.4038C25.646 229.92 26.0132 229.514 26.5054 229.248C26.9976 228.983 27.5835 228.897 28.2632 228.998V230.147C27.3647 230.03 26.6616 230.225 26.1538 230.74C25.646 231.256 25.396 232.123 25.396 233.342V237.069H24.1694V229.084H25.396V230.459ZM32.9897 237.28C31.7476 237.28 30.7397 236.897 29.9585 236.131C29.1772 235.365 28.7866 234.342 28.7866 233.069C28.7866 231.873 29.1694 230.881 29.9272 230.084C30.6851 229.287 31.6616 228.889 32.8569 228.889C34.0991 228.889 35.0757 229.264 35.7866 230.022C36.4976 230.78 36.8569 231.733 36.8569 232.881C36.8569 233.123 36.8491 233.319 36.8257 233.459H30.0132C30.0679 234.272 30.3647 234.928 30.896 235.428C31.4272 235.928 32.1304 236.178 33.0054 236.178C33.6538 236.178 34.2007 236.03 34.646 235.74C35.0913 235.451 35.4194 235.084 35.6304 234.639L36.7632 234.975C36.4663 235.623 35.9976 236.17 35.3569 236.615C34.7163 237.061 33.9272 237.28 32.9897 237.28ZM29.9976 232.553L35.6226 232.537C35.5679 231.772 35.2944 231.155 34.8022 230.686C34.3101 230.217 33.6538 229.983 32.8335 229.983C32.0444 229.983 31.3882 230.233 30.8647 230.733C30.3413 231.233 30.0522 231.842 29.9976 232.553ZM42.2476 237.28H42.2397C41.0913 237.28 40.1304 236.881 39.3647 236.076C38.5991 235.272 38.2163 234.272 38.2163 233.069C38.2163 231.873 38.5991 230.881 39.3647 230.084C40.1304 229.287 41.0913 228.889 42.2397 228.889C43.6382 228.889 44.6929 229.436 45.4038 230.522V229.084H46.6304V237.069H45.4038V235.615C44.7085 236.725 43.6538 237.28 42.2476 237.28ZM42.4194 236.155L42.4116 236.17C43.2476 236.17 43.9585 235.873 44.5444 235.287C45.1304 234.701 45.4272 233.967 45.4272 233.092C45.4272 232.217 45.1304 231.483 44.5444 230.897C43.9585 230.311 43.2476 230.014 42.4194 230.014C41.5444 230.014 40.8257 230.303 40.2632 230.881C39.7007 231.459 39.4194 232.194 39.4194 233.092C39.4194 233.975 39.7007 234.709 40.2632 235.287C40.8257 235.865 41.5444 236.155 42.4194 236.155ZM53.4116 235.772L53.7476 236.826C53.2085 237.061 52.6538 237.178 52.0835 237.178C51.3022 237.178 50.7163 236.951 50.3257 236.498C49.9351 236.045 49.7397 235.428 49.7397 234.639V230.201H48.1538V229.084H49.7397V226.334H50.9663V229.084H53.7085V230.201H50.9663V234.639C50.9663 235.576 51.396 236.045 52.2632 236.045C52.6616 236.045 53.0444 235.951 53.4116 235.772ZM58.771 237.28C57.5288 237.28 56.521 236.897 55.7397 236.131C54.9585 235.365 54.5679 234.342 54.5679 233.069C54.5679 231.873 54.9507 230.881 55.7085 230.084C56.4663 229.287 57.4429 228.889 58.6382 228.889C59.8804 228.889 60.8569 229.264 61.5679 230.022C62.2788 230.78 62.6382 231.733 62.6382 232.881C62.6382 233.123 62.6304 233.319 62.6069 233.459H55.7944C55.8491 234.272 56.146 234.928 56.6772 235.428C57.2085 235.928 57.9116 236.178 58.7866 236.178C59.4351 236.178 59.9819 236.03 60.4272 235.74C60.8726 235.451 61.2007 235.084 61.4116 234.639L62.5444 234.975C62.2476 235.623 61.7788 236.17 61.1382 236.615C60.4976 237.061 59.7085 237.28 58.771 237.28ZM55.7788 232.553L61.4038 232.537C61.3491 231.772 61.0757 231.155 60.5835 230.686C60.0913 230.217 59.4351 229.983 58.6147 229.983C57.8257 229.983 57.1694 230.233 56.646 230.733C56.1226 231.233 55.8335 231.842 55.7788 232.553ZM72.1694 237.28H72.1616C71.0132 237.28 70.0522 236.881 69.2866 236.076C68.521 235.272 68.1382 234.272 68.1382 233.069C68.1382 231.873 68.521 230.881 69.2866 230.084C70.0522 229.287 71.0132 228.889 72.1616 228.889C73.5601 228.889 74.6147 229.436 75.3257 230.522V229.084H76.5522V237.069H75.3257V235.615C74.6304 236.725 73.5757 237.28 72.1694 237.28ZM72.3413 236.155L72.3335 236.17C73.1694 236.17 73.8804 235.873 74.4663 235.287C75.0522 234.701 75.3491 233.967 75.3491 233.092C75.3491 232.217 75.0522 231.483 74.4663 230.897C73.8804 230.311 73.1694 230.014 72.3413 230.014C71.4663 230.014 70.7476 230.303 70.1851 230.881C69.6226 231.459 69.3413 232.194 69.3413 233.092C69.3413 233.975 69.6226 234.709 70.1851 235.287C70.7476 235.865 71.4663 236.155 72.3413 236.155ZM86.7397 237.28H86.7788C85.5835 237.28 84.5913 236.873 83.8022 236.069C83.0132 235.264 82.6147 234.256 82.6147 233.053C82.6147 231.873 83.0132 230.881 83.8022 230.084C84.5913 229.287 85.5835 228.889 86.7788 228.889C87.7241 228.889 88.5288 229.139 89.1929 229.639C89.8569 230.139 90.2788 230.694 90.4585 231.311L89.3022 231.647C89.1616 231.209 88.8569 230.826 88.3882 230.498C87.9194 230.17 87.3804 230.006 86.7632 230.006C85.8882 230.006 85.1772 230.303 84.6304 230.905C84.0835 231.506 83.8101 232.233 83.8101 233.084C83.8101 233.928 84.0835 234.647 84.6304 235.248C85.1772 235.85 85.8882 236.147 86.7554 236.147C87.3882 236.147 87.9351 235.99 88.396 235.678C88.8569 235.365 89.1538 234.99 89.2866 234.553L90.4429 234.858C90.2632 235.49 89.8413 236.053 89.1772 236.545C88.5132 237.037 87.7007 237.28 86.7397 237.28ZM96.0288 237.28H96.021C94.8179 237.28 93.8101 236.873 93.0054 236.069C92.2007 235.264 91.8022 234.264 91.8022 233.069C91.8022 231.873 92.2085 230.881 93.0132 230.084C93.8179 229.287 94.8257 228.889 96.0288 228.889C97.2319 228.889 98.2319 229.287 99.0288 230.084C99.8257 230.881 100.224 231.873 100.224 233.069C100.224 234.264 99.8257 235.264 99.0288 236.069C98.2319 236.873 97.2319 237.28 96.0288 237.28ZM96.021 236.139L96.0132 236.155C96.8647 236.155 97.5757 235.865 98.146 235.287C98.7163 234.709 99.0054 233.983 99.0054 233.108C99.0054 232.233 98.7241 231.498 98.1538 230.912C97.5835 230.326 96.8726 230.03 96.021 230.03C95.1538 230.03 94.4351 230.319 93.8569 230.905C93.2788 231.49 92.9897 232.217 92.9897 233.092C92.9897 233.967 93.2788 234.694 93.8569 235.272C94.4351 235.85 95.1538 236.139 96.021 236.139ZM106.326 228.889V228.897C107.318 228.897 108.099 229.209 108.669 229.826C109.24 230.444 109.529 231.295 109.529 232.381V237.069H108.294V232.553C108.294 231.764 108.099 231.147 107.708 230.709C107.318 230.272 106.763 230.053 106.044 230.053C105.24 230.053 104.591 230.326 104.099 230.881C103.607 231.436 103.357 232.162 103.357 233.061V237.076H102.13V229.092H103.357V230.498C103.654 230.022 104.06 229.631 104.568 229.334C105.076 229.037 105.662 228.889 106.326 228.889ZM118.927 229.084L118.919 237.076H117.685V230.209H113.958V237.076H112.74V230.209H111.06V229.092H112.74V228.037C112.74 227.131 112.982 226.428 113.466 225.928C113.951 225.428 114.662 225.178 115.599 225.178C116.591 225.178 117.435 225.459 118.138 226.014L117.841 227.053C117.162 226.545 116.443 226.287 115.693 226.287C115.123 226.287 114.693 226.436 114.404 226.74C114.115 227.045 113.966 227.483 113.966 228.061V229.084H118.927ZM127.81 229.084L129.029 229.1V236.811C129.029 237.92 128.662 238.834 127.927 239.561C127.193 240.287 126.24 240.647 125.076 240.647C123.326 240.647 122.06 239.944 121.287 238.545L122.373 238.147C122.943 239.092 123.849 239.569 125.091 239.569C125.927 239.569 126.583 239.311 127.06 238.787C127.537 238.264 127.787 237.6 127.81 236.795V235.436C127.115 236.459 126.068 236.975 124.669 236.975C123.505 236.975 122.544 236.584 121.779 235.811C121.013 235.037 120.63 234.076 120.63 232.928C120.63 231.764 121.013 230.803 121.779 230.037C122.544 229.272 123.505 228.889 124.669 228.889C126.076 228.889 127.123 229.397 127.81 230.412V229.084ZM124.857 235.865L124.849 235.889C125.685 235.889 126.388 235.608 126.966 235.045C127.544 234.483 127.833 233.795 127.833 232.975C127.833 232.139 127.544 231.444 126.966 230.881C126.388 230.319 125.685 230.037 124.857 230.037C123.982 230.037 123.263 230.311 122.701 230.858C122.138 231.405 121.857 232.108 121.857 232.959C121.857 233.803 122.138 234.498 122.701 235.045C123.263 235.592 123.982 235.865 124.857 235.865ZM137.498 229.084L138.732 229.1V237.084H137.498V235.694C136.849 236.764 135.865 237.295 134.552 237.295C133.544 237.295 132.755 236.983 132.185 236.365C131.615 235.748 131.333 234.889 131.333 233.787V229.1H132.568V233.615C132.568 234.405 132.763 235.022 133.154 235.459C133.544 235.897 134.099 236.115 134.81 236.115C135.623 236.115 136.271 235.834 136.763 235.28C137.255 234.725 137.498 233.998 137.498 233.1V229.084ZM142.365 230.459H142.373C142.615 229.92 142.982 229.514 143.474 229.248C143.966 228.983 144.552 228.897 145.232 228.998V230.147C144.333 230.03 143.63 230.225 143.123 230.74C142.615 231.256 142.365 232.123 142.365 233.342V237.069H141.138V229.084H142.365V230.459ZM149.779 237.28H149.771C148.623 237.28 147.662 236.881 146.896 236.076C146.13 235.272 145.748 234.272 145.748 233.069C145.748 231.873 146.13 230.881 146.896 230.084C147.662 229.287 148.623 228.889 149.771 228.889C151.169 228.889 152.224 229.436 152.935 230.522V229.084H154.162V237.069H152.935V235.615C152.24 236.725 151.185 237.28 149.779 237.28ZM149.951 236.155L149.943 236.17C150.779 236.17 151.49 235.873 152.076 235.287C152.662 234.701 152.958 233.967 152.958 233.092C152.958 232.217 152.662 231.483 152.076 230.897C151.49 230.311 150.779 230.014 149.951 230.014C149.076 230.014 148.357 230.303 147.794 230.881C147.232 231.459 146.951 232.194 146.951 233.092C146.951 233.975 147.232 234.709 147.794 235.287C148.357 235.865 149.076 236.155 149.951 236.155ZM160.943 235.772L161.279 236.826C160.74 237.061 160.185 237.178 159.615 237.178C158.833 237.178 158.248 236.951 157.857 236.498C157.466 236.045 157.271 235.428 157.271 234.639V230.201H155.685V229.084H157.271V226.334H158.498V229.084H161.24V230.201H158.498V234.639C158.498 235.576 158.927 236.045 159.794 236.045C160.193 236.045 160.576 235.951 160.943 235.772ZM163.779 227.6L163.763 227.608C163.521 227.608 163.318 227.53 163.154 227.365C162.99 227.201 162.912 226.998 162.912 226.756C162.912 226.53 162.998 226.334 163.162 226.178C163.326 226.022 163.529 225.944 163.763 225.944C163.998 225.944 164.201 226.022 164.365 226.178C164.529 226.334 164.615 226.522 164.615 226.748C164.615 226.99 164.537 227.194 164.38 227.358C164.224 227.522 164.021 227.6 163.779 227.6ZM163.154 237.076V229.092H164.38V237.076H163.154ZM170.576 237.28H170.568C169.365 237.28 168.357 236.873 167.552 236.069C166.748 235.264 166.349 234.264 166.349 233.069C166.349 231.873 166.755 230.881 167.56 230.084C168.365 229.287 169.373 228.889 170.576 228.889C171.779 228.889 172.779 229.287 173.576 230.084C174.373 230.881 174.771 231.873 174.771 233.069C174.771 234.264 174.373 235.264 173.576 236.069C172.779 236.873 171.779 237.28 170.576 237.28ZM170.568 236.139L170.56 236.155C171.412 236.155 172.123 235.865 172.693 235.287C173.263 234.709 173.552 233.983 173.552 233.108C173.552 232.233 173.271 231.498 172.701 230.912C172.13 230.326 171.419 230.03 170.568 230.03C169.701 230.03 168.982 230.319 168.404 230.905C167.826 231.49 167.537 232.217 167.537 233.092C167.537 233.967 167.826 234.694 168.404 235.272C168.982 235.85 169.701 236.139 170.568 236.139ZM180.873 228.889V228.897C181.865 228.897 182.646 229.209 183.216 229.826C183.787 230.444 184.076 231.295 184.076 232.381V237.069H182.841V232.553C182.841 231.764 182.646 231.147 182.255 230.709C181.865 230.272 181.31 230.053 180.591 230.053C179.787 230.053 179.138 230.326 178.646 230.881C178.154 231.436 177.904 232.162 177.904 233.061V237.076H176.677V229.092H177.904V230.498C178.201 230.022 178.607 229.631 179.115 229.334C179.623 229.037 180.208 228.889 180.873 228.889ZM18.3413 253.084L19.5601 253.1V260.811C19.5601 261.92 19.1929 262.834 18.4585 263.561C17.7241 264.287 16.771 264.647 15.6069 264.647C13.8569 264.647 12.5913 263.944 11.8179 262.545L12.9038 262.147C13.4741 263.092 14.3804 263.569 15.6226 263.569C16.4585 263.569 17.1147 263.311 17.5913 262.787C18.0679 262.264 18.3179 261.6 18.3413 260.795V259.436C17.646 260.459 16.5991 260.975 15.2007 260.975C14.0366 260.975 13.0757 260.584 12.3101 259.811C11.5444 259.037 11.1616 258.076 11.1616 256.928C11.1616 255.764 11.5444 254.803 12.3101 254.037C13.0757 253.272 14.0366 252.889 15.2007 252.889C16.6069 252.889 17.6538 253.397 18.3413 254.412V253.084ZM15.3882 259.865L15.3804 259.889C16.2163 259.889 16.9194 259.608 17.4976 259.045C18.0757 258.483 18.3647 257.795 18.3647 256.975C18.3647 256.139 18.0757 255.444 17.4976 254.881C16.9194 254.319 16.2163 254.037 15.3882 254.037C14.5132 254.037 13.7944 254.311 13.2319 254.858C12.6694 255.405 12.3882 256.108 12.3882 256.959C12.3882 257.803 12.6694 258.498 13.2319 259.045C13.7944 259.592 14.5132 259.865 15.3882 259.865ZM23.1772 254.459H23.1851C23.4272 253.92 23.7944 253.514 24.2866 253.248C24.7788 252.983 25.3647 252.897 26.0444 252.998V254.147C25.146 254.03 24.4429 254.225 23.9351 254.74C23.4272 255.256 23.1772 256.123 23.1772 257.342V261.069H21.9507V253.084H23.1772V254.459ZM30.7788 261.28H30.771C29.5679 261.28 28.5601 260.873 27.7554 260.069C26.9507 259.264 26.5522 258.264 26.5522 257.069C26.5522 255.873 26.9585 254.881 27.7632 254.084C28.5679 253.287 29.5757 252.889 30.7788 252.889C31.9819 252.889 32.9819 253.287 33.7788 254.084C34.5757 254.881 34.9741 255.873 34.9741 257.069C34.9741 258.264 34.5757 259.264 33.7788 260.069C32.9819 260.873 31.9819 261.28 30.7788 261.28ZM30.771 260.139L30.7632 260.155C31.6147 260.155 32.3257 259.865 32.896 259.287C33.4663 258.709 33.7554 257.983 33.7554 257.108C33.7554 256.233 33.4741 255.498 32.9038 254.912C32.3335 254.326 31.6226 254.03 30.771 254.03C29.9038 254.03 29.1851 254.319 28.6069 254.905C28.0288 255.49 27.7397 256.217 27.7397 257.092C27.7397 257.967 28.0288 258.694 28.6069 259.272C29.1851 259.85 29.9038 260.139 30.771 260.139ZM42.9663 253.084L44.2007 253.1V261.084H42.9663V259.694C42.3179 260.764 41.3335 261.295 40.021 261.295C39.0132 261.295 38.2241 260.983 37.6538 260.365C37.0835 259.748 36.8022 258.889 36.8022 257.787V253.1H38.0366V257.615C38.0366 258.405 38.2319 259.022 38.6226 259.459C39.0132 259.897 39.5679 260.115 40.2788 260.115C41.0913 260.115 41.7397 259.834 42.2319 259.28C42.7241 258.725 42.9663 257.998 42.9663 257.1V253.084ZM50.9897 252.889L50.9819 252.897C52.1304 252.897 53.0913 253.295 53.8569 254.092C54.6226 254.889 55.0054 255.881 55.0054 257.076C55.0054 258.28 54.6226 259.28 53.8569 260.084C53.0913 260.889 52.1304 261.287 50.9819 261.287C50.2788 261.287 49.6616 261.139 49.1226 260.842C48.5835 260.545 48.1538 260.139 47.8335 259.615V264.428H46.6069V253.084H47.8335V254.522C48.521 253.436 49.5757 252.889 50.9897 252.889ZM50.8022 260.162L50.7944 260.178C51.6694 260.178 52.3882 259.889 52.9507 259.311C53.5132 258.733 53.7944 257.998 53.7944 257.115C53.7944 256.217 53.5132 255.483 52.9507 254.905C52.3882 254.326 51.6694 254.037 50.7944 254.037C49.9585 254.037 49.2476 254.326 48.6616 254.912C48.0757 255.498 47.7866 256.225 47.7866 257.1C47.7866 257.975 48.0835 258.701 48.6694 259.287C49.2554 259.873 49.9663 260.162 50.8022 260.162Z" fill="#40404B"/>
<path d="M300.265 12.1244C313.26 4.62178 329.27 4.62178 342.265 12.1244L361.993 23.5142C374.988 31.0168 382.993 44.8821 382.993 59.8873V82.667C382.993 97.6721 374.988 111.537 361.993 119.04L342.265 130.43C329.27 137.932 313.26 137.932 300.265 130.43L280.537 119.04C267.542 111.537 259.537 97.6721 259.537 82.667V59.8873C259.537 44.8821 267.542 31.0168 280.537 23.5142L300.265 12.1244Z" fill="white"/>
<path d="M249.436 189.399L249.393 189.406C248.221 189.406 247.217 189.099 246.375 188.491C245.533 187.883 244.961 187.128 244.661 186.235L246.199 185.773C246.441 186.411 246.851 186.938 247.43 187.348C248.008 187.758 248.689 187.963 249.48 187.963C250.176 187.963 250.747 187.795 251.194 187.465C251.641 187.136 251.868 186.755 251.868 186.323C251.868 185.971 251.744 185.678 251.487 185.437C251.231 185.195 250.806 184.982 250.206 184.792L247.569 183.95C245.994 183.459 245.21 182.602 245.21 181.379C245.21 180.588 245.555 179.907 246.243 179.343C246.932 178.779 247.796 178.493 248.836 178.493C249.905 178.493 250.828 178.742 251.604 179.24C252.381 179.738 252.93 180.361 253.252 181.108L251.736 181.562C251.487 181.071 251.114 180.676 250.608 180.375C250.103 180.075 249.517 179.929 248.851 179.929C248.272 179.929 247.796 180.068 247.422 180.346C247.049 180.625 246.858 180.954 246.858 181.335C246.858 181.635 246.968 181.884 247.181 182.082C247.393 182.28 247.737 182.448 248.206 182.587L250.784 183.408C251.692 183.693 252.381 184.045 252.842 184.462C253.304 184.88 253.538 185.458 253.538 186.206C253.538 187.106 253.157 187.861 252.395 188.476C251.634 189.091 250.645 189.399 249.436 189.399ZM259.207 187.67L259.595 188.959C259.024 189.201 258.467 189.318 257.933 189.318C257.142 189.318 256.548 189.091 256.16 188.637C255.772 188.183 255.574 187.553 255.574 186.755V183.049H254.197V181.657H255.574V179.138H257.134V181.657H259.537V183.049H257.134V186.755C257.134 187.524 257.493 187.912 258.218 187.912C258.548 187.912 258.877 187.832 259.207 187.67ZM264.275 189.399L264.29 189.414C263.096 189.414 262.129 189.047 261.382 188.315C260.635 187.583 260.262 186.623 260.262 185.444C260.262 184.309 260.621 183.364 261.338 182.609C262.056 181.855 262.994 181.474 264.143 181.474C265.337 181.474 266.275 181.833 266.963 182.558C267.652 183.283 267.996 184.191 267.996 185.29C267.996 185.48 267.981 185.693 267.945 185.92H261.814C261.866 186.557 262.107 187.07 262.547 187.458C262.986 187.846 263.58 188.044 264.319 188.044C265.359 188.044 266.077 187.641 266.465 186.828L267.901 187.253C267.63 187.846 267.183 188.352 266.56 188.769C265.938 189.187 265.176 189.399 264.275 189.399ZM261.814 184.88H266.451C266.399 184.279 266.172 183.789 265.769 183.408C265.367 183.027 264.825 182.836 264.151 182.836C263.499 182.836 262.964 183.034 262.539 183.43C262.115 183.825 261.873 184.309 261.814 184.88ZM273.87 181.459V181.467C274.939 181.467 275.833 181.84 276.551 182.595C277.268 183.349 277.627 184.294 277.627 185.429C277.627 186.564 277.268 187.509 276.551 188.264C275.833 189.018 274.939 189.399 273.87 189.399C272.698 189.399 271.797 188.952 271.167 188.059V192.351H269.593V181.657H271.167V182.8C271.797 181.906 272.698 181.459 273.87 181.459ZM273.614 187.993L273.606 187.985C274.324 187.985 274.917 187.744 275.379 187.26C275.84 186.777 276.075 186.162 276.075 185.422C276.075 184.682 275.848 184.074 275.386 183.598C274.925 183.122 274.331 182.88 273.606 182.88C272.911 182.88 272.325 183.122 271.841 183.605C271.358 184.089 271.116 184.697 271.116 185.429C271.116 186.169 271.358 186.784 271.841 187.268C272.325 187.751 272.918 187.993 273.614 187.993ZM285.039 187.714L289.983 187.729V189.216H282.601V188.059L286.739 184.118C287.237 183.649 287.603 183.247 287.837 182.902C288.072 182.558 288.189 182.199 288.189 181.818C288.189 181.247 288.013 180.793 287.662 180.463C287.31 180.134 286.834 179.965 286.226 179.965C285.677 179.965 285.208 180.141 284.82 180.485C284.432 180.83 284.175 181.291 284.051 181.87L282.593 181.445C282.703 180.646 283.091 179.958 283.75 179.379C284.41 178.801 285.223 178.508 286.189 178.508C287.266 178.508 288.138 178.793 288.804 179.365C289.471 179.936 289.808 180.727 289.808 181.738C289.808 182.36 289.646 182.917 289.324 183.415C289.002 183.913 288.511 184.47 287.845 185.078L285.039 187.714Z" fill="#5567D5"/>
<path d="M249.682 206.998C251.377 206.998 252.721 207.521 253.706 208.568C254.69 209.615 255.182 210.959 255.182 212.6C255.182 214.24 254.69 215.584 253.706 216.631C252.721 217.678 251.377 218.201 249.682 218.201H245.432V206.998H249.682ZM249.666 217.029L249.651 217.014C250.987 217.014 252.026 216.6 252.776 215.771C253.526 214.943 253.901 213.873 253.901 212.561C253.901 211.279 253.526 210.225 252.776 209.396C252.026 208.568 250.987 208.154 249.666 208.154H246.69V217.029H249.666ZM260.752 218.412C259.51 218.412 258.502 218.029 257.721 217.264C256.94 216.498 256.549 215.475 256.549 214.201C256.549 213.006 256.932 212.014 257.69 211.217C258.448 210.42 259.424 210.021 260.62 210.021C261.862 210.021 262.838 210.396 263.549 211.154C264.26 211.912 264.62 212.865 264.62 214.014C264.62 214.256 264.612 214.451 264.588 214.592H257.776C257.831 215.404 258.127 216.061 258.659 216.561C259.19 217.061 259.893 217.311 260.768 217.311C261.416 217.311 261.963 217.162 262.409 216.873C262.854 216.584 263.182 216.217 263.393 215.771L264.526 216.107C264.229 216.756 263.76 217.303 263.12 217.748C262.479 218.193 261.69 218.412 260.752 218.412ZM257.76 213.686L263.385 213.67C263.331 212.904 263.057 212.287 262.565 211.818C262.073 211.35 261.416 211.115 260.596 211.115C259.807 211.115 259.151 211.365 258.627 211.865C258.104 212.365 257.815 212.975 257.76 213.686ZM273.268 210.217L273.26 218.209H272.026V211.342H268.299V218.209H267.081V211.342H265.401V210.225H267.081V209.17C267.081 208.264 267.323 207.561 267.807 207.061C268.291 206.561 269.002 206.311 269.94 206.311C270.932 206.311 271.776 206.592 272.479 207.146L272.182 208.186C271.502 207.678 270.784 207.42 270.034 207.42C269.463 207.42 269.034 207.568 268.745 207.873C268.456 208.178 268.307 208.615 268.307 209.193V210.217H273.268ZM279.682 210.021V210.029C280.674 210.029 281.456 210.342 282.026 210.959C282.596 211.576 282.885 212.428 282.885 213.514V218.201H281.651V213.686C281.651 212.896 281.456 212.279 281.065 211.842C280.674 211.404 280.12 211.186 279.401 211.186C278.596 211.186 277.948 211.459 277.456 212.014C276.963 212.568 276.713 213.295 276.713 214.193V218.209H275.487V210.225H276.713V211.631C277.01 211.154 277.416 210.764 277.924 210.467C278.432 210.17 279.018 210.021 279.682 210.021ZM288.909 218.412C287.666 218.412 286.659 218.029 285.877 217.264C285.096 216.498 284.706 215.475 284.706 214.201C284.706 213.006 285.088 212.014 285.846 211.217C286.604 210.42 287.581 210.021 288.776 210.021C290.018 210.021 290.995 210.396 291.706 211.154C292.416 211.912 292.776 212.865 292.776 214.014C292.776 214.256 292.768 214.451 292.745 214.592H285.932C285.987 215.404 286.284 216.061 286.815 216.561C287.346 217.061 288.049 217.311 288.924 217.311C289.573 217.311 290.12 217.162 290.565 216.873C291.01 216.584 291.338 216.217 291.549 215.771L292.682 216.107C292.385 216.756 291.916 217.303 291.276 217.748C290.635 218.193 289.846 218.412 288.909 218.412ZM285.916 213.686L291.541 213.67C291.487 212.904 291.213 212.287 290.721 211.818C290.229 211.35 289.573 211.115 288.752 211.115C287.963 211.115 287.307 211.365 286.784 211.865C286.26 212.365 285.971 212.975 285.916 213.686ZM302.44 218.412H302.479C301.284 218.412 300.291 218.006 299.502 217.201C298.713 216.396 298.315 215.389 298.315 214.186C298.315 213.006 298.713 212.014 299.502 211.217C300.291 210.42 301.284 210.021 302.479 210.021C303.424 210.021 304.229 210.271 304.893 210.771C305.557 211.271 305.979 211.826 306.159 212.443L305.002 212.779C304.862 212.342 304.557 211.959 304.088 211.631C303.62 211.303 303.081 211.139 302.463 211.139C301.588 211.139 300.877 211.436 300.331 212.037C299.784 212.639 299.51 213.365 299.51 214.217C299.51 215.061 299.784 215.779 300.331 216.381C300.877 216.982 301.588 217.279 302.456 217.279C303.088 217.279 303.635 217.123 304.096 216.811C304.557 216.498 304.854 216.123 304.987 215.686L306.143 215.99C305.963 216.623 305.541 217.186 304.877 217.678C304.213 218.17 303.401 218.412 302.44 218.412ZM311.729 218.412H311.721C310.518 218.412 309.51 218.006 308.706 217.201C307.901 216.396 307.502 215.396 307.502 214.201C307.502 213.006 307.909 212.014 308.713 211.217C309.518 210.42 310.526 210.021 311.729 210.021C312.932 210.021 313.932 210.42 314.729 211.217C315.526 212.014 315.924 213.006 315.924 214.201C315.924 215.396 315.526 216.396 314.729 217.201C313.932 218.006 312.932 218.412 311.729 218.412ZM311.721 217.271L311.713 217.287C312.565 217.287 313.276 216.998 313.846 216.42C314.416 215.842 314.706 215.115 314.706 214.24C314.706 213.365 314.424 212.631 313.854 212.045C313.284 211.459 312.573 211.162 311.721 211.162C310.854 211.162 310.135 211.451 309.557 212.037C308.979 212.623 308.69 213.35 308.69 214.225C308.69 215.1 308.979 215.826 309.557 216.404C310.135 216.982 310.854 217.271 311.721 217.271ZM322.026 210.021V210.029C323.018 210.029 323.799 210.342 324.37 210.959C324.94 211.576 325.229 212.428 325.229 213.514V218.201H323.995V213.686C323.995 212.896 323.799 212.279 323.409 211.842C323.018 211.404 322.463 211.186 321.745 211.186C320.94 211.186 320.291 211.459 319.799 212.014C319.307 212.568 319.057 213.295 319.057 214.193V218.209H317.831V210.225H319.057V211.631C319.354 211.154 319.76 210.764 320.268 210.467C320.776 210.17 321.362 210.021 322.026 210.021ZM334.627 210.217L334.62 218.209H333.385V211.342H329.659V218.209H328.44V211.342H326.76V210.225H328.44V209.17C328.44 208.264 328.682 207.561 329.166 207.061C329.651 206.561 330.362 206.311 331.299 206.311C332.291 206.311 333.135 206.592 333.838 207.146L333.541 208.186C332.862 207.678 332.143 207.42 331.393 207.42C330.823 207.42 330.393 207.568 330.104 207.873C329.815 208.178 329.666 208.615 329.666 209.193V210.217H334.627ZM343.51 210.217L344.729 210.232V217.943C344.729 219.053 344.362 219.967 343.627 220.693C342.893 221.42 341.94 221.779 340.776 221.779C339.026 221.779 337.76 221.076 336.987 219.678L338.073 219.279C338.643 220.225 339.549 220.701 340.791 220.701C341.627 220.701 342.284 220.443 342.76 219.92C343.237 219.396 343.487 218.732 343.51 217.928V216.568C342.815 217.592 341.768 218.107 340.37 218.107C339.206 218.107 338.245 217.717 337.479 216.943C336.713 216.17 336.331 215.209 336.331 214.061C336.331 212.896 336.713 211.936 337.479 211.17C338.245 210.404 339.206 210.021 340.37 210.021C341.776 210.021 342.823 210.529 343.51 211.545V210.217ZM340.557 216.998L340.549 217.021C341.385 217.021 342.088 216.74 342.666 216.178C343.245 215.615 343.534 214.928 343.534 214.107C343.534 213.271 343.245 212.576 342.666 212.014C342.088 211.451 341.385 211.17 340.557 211.17C339.682 211.17 338.963 211.443 338.401 211.99C337.838 212.537 337.557 213.24 337.557 214.092C337.557 214.936 337.838 215.631 338.401 216.178C338.963 216.725 339.682 216.998 340.557 216.998ZM353.198 210.217L354.432 210.232V218.217H353.198V216.826C352.549 217.896 351.565 218.428 350.252 218.428C349.245 218.428 348.456 218.115 347.885 217.498C347.315 216.881 347.034 216.021 347.034 214.92V210.232H348.268V214.748C348.268 215.537 348.463 216.154 348.854 216.592C349.245 217.029 349.799 217.248 350.51 217.248C351.323 217.248 351.971 216.967 352.463 216.412C352.956 215.857 353.198 215.131 353.198 214.232V210.217ZM358.065 211.592H358.073C358.315 211.053 358.682 210.646 359.174 210.381C359.666 210.115 360.252 210.029 360.932 210.131V211.279C360.034 211.162 359.331 211.357 358.823 211.873C358.315 212.389 358.065 213.256 358.065 214.475V218.201H356.838V210.217H358.065V211.592ZM365.479 218.412H365.471C364.323 218.412 363.362 218.014 362.596 217.209C361.831 216.404 361.448 215.404 361.448 214.201C361.448 213.006 361.831 212.014 362.596 211.217C363.362 210.42 364.323 210.021 365.471 210.021C366.87 210.021 367.924 210.568 368.635 211.654V210.217H369.862V218.201H368.635V216.748C367.94 217.857 366.885 218.412 365.479 218.412ZM365.651 217.287L365.643 217.303C366.479 217.303 367.19 217.006 367.776 216.42C368.362 215.834 368.659 215.1 368.659 214.225C368.659 213.35 368.362 212.615 367.776 212.029C367.19 211.443 366.479 211.146 365.651 211.146C364.776 211.146 364.057 211.436 363.495 212.014C362.932 212.592 362.651 213.326 362.651 214.225C362.651 215.107 362.932 215.842 363.495 216.42C364.057 216.998 364.776 217.287 365.651 217.287ZM376.643 216.904L376.979 217.959C376.44 218.193 375.885 218.311 375.315 218.311C374.534 218.311 373.948 218.084 373.557 217.631C373.166 217.178 372.971 216.561 372.971 215.771V211.334H371.385V210.217H372.971V207.467H374.198V210.217H376.94V211.334H374.198V215.771C374.198 216.709 374.627 217.178 375.495 217.178C375.893 217.178 376.276 217.084 376.643 216.904ZM379.479 208.732L379.463 208.74C379.221 208.74 379.018 208.662 378.854 208.498C378.69 208.334 378.612 208.131 378.612 207.889C378.612 207.662 378.698 207.467 378.862 207.311C379.026 207.154 379.229 207.076 379.463 207.076C379.698 207.076 379.901 207.154 380.065 207.311C380.229 207.467 380.315 207.654 380.315 207.881C380.315 208.123 380.237 208.326 380.081 208.49C379.924 208.654 379.721 208.732 379.479 208.732ZM378.854 218.209V210.225H380.081V218.209H378.854ZM386.276 218.412H386.268C385.065 218.412 384.057 218.006 383.252 217.201C382.448 216.396 382.049 215.396 382.049 214.201C382.049 213.006 382.456 212.014 383.26 211.217C384.065 210.42 385.073 210.021 386.276 210.021C387.479 210.021 388.479 210.42 389.276 211.217C390.073 212.014 390.471 213.006 390.471 214.201C390.471 215.396 390.073 216.396 389.276 217.201C388.479 218.006 387.479 218.412 386.276 218.412ZM386.268 217.271L386.26 217.287C387.112 217.287 387.823 216.998 388.393 216.42C388.963 215.842 389.252 215.115 389.252 214.24C389.252 213.365 388.971 212.631 388.401 212.045C387.831 211.459 387.12 211.162 386.268 211.162C385.401 211.162 384.682 211.451 384.104 212.037C383.526 212.623 383.237 213.35 383.237 214.225C383.237 215.1 383.526 215.826 384.104 216.404C384.682 216.982 385.401 217.271 386.268 217.271ZM396.573 210.021V210.029C397.565 210.029 398.346 210.342 398.916 210.959C399.487 211.576 399.776 212.428 399.776 213.514V218.201H398.541V213.686C398.541 212.896 398.346 212.279 397.956 211.842C397.565 211.404 397.01 211.186 396.291 211.186C395.487 211.186 394.838 211.459 394.346 212.014C393.854 212.568 393.604 213.295 393.604 214.193V218.209H392.377V210.225H393.604V211.631C393.901 211.154 394.307 210.764 394.815 210.467C395.323 210.17 395.909 210.021 396.573 210.021ZM411.76 218.201L408.69 214.521L407.471 215.787V218.201H406.245V206.521H407.471V214.201L411.284 210.217H412.799L409.487 213.686L413.221 218.201H411.76ZM417.877 218.412C416.635 218.412 415.627 218.029 414.846 217.264C414.065 216.498 413.674 215.475 413.674 214.201C413.674 213.006 414.057 212.014 414.815 211.217C415.573 210.42 416.549 210.021 417.745 210.021C418.987 210.021 419.963 210.396 420.674 211.154C421.385 211.912 421.745 212.865 421.745 214.014C421.745 214.256 421.737 214.451 421.713 214.592H414.901C414.956 215.404 415.252 216.061 415.784 216.561C416.315 217.061 417.018 217.311 417.893 217.311C418.541 217.311 419.088 217.162 419.534 216.873C419.979 216.584 420.307 216.217 420.518 215.771L421.651 216.107C421.354 216.756 420.885 217.303 420.245 217.748C419.604 218.193 418.815 218.412 417.877 218.412ZM414.885 213.686L420.51 213.67C420.456 212.904 420.182 212.287 419.69 211.818C419.198 211.35 418.541 211.115 417.721 211.115C416.932 211.115 416.276 211.365 415.752 211.865C415.229 212.365 414.94 212.975 414.885 213.686ZM429.26 210.217H430.573L425.659 221.561H424.362L425.885 218.045L422.19 210.217H423.549L426.502 216.662L429.26 210.217ZM434.604 218.412L434.588 218.451C433.706 218.451 432.924 218.217 432.245 217.748C431.565 217.279 431.127 216.701 430.924 216.021L432.081 215.701C432.229 216.178 432.534 216.576 432.995 216.889C433.456 217.201 433.995 217.357 434.612 217.357C435.198 217.357 435.682 217.232 436.057 216.975C436.432 216.717 436.62 216.404 436.62 216.037C436.62 215.732 436.534 215.498 436.354 215.334C436.174 215.17 435.877 215.021 435.463 214.889L433.19 214.217C431.948 213.85 431.331 213.201 431.338 212.271C431.338 211.662 431.62 211.139 432.182 210.693C432.745 210.248 433.44 210.029 434.26 210.029C435.081 210.029 435.784 210.217 436.377 210.592C436.971 210.967 437.393 211.443 437.643 212.014L436.518 212.35C436.37 211.982 436.096 211.678 435.69 211.436C435.284 211.193 434.807 211.068 434.252 211.068C433.752 211.068 433.346 211.193 433.034 211.436C432.721 211.678 432.565 211.951 432.565 212.248C432.565 212.678 432.924 212.998 433.635 213.209L435.909 213.881C436.518 214.061 436.995 214.311 437.338 214.623C437.682 214.936 437.854 215.381 437.854 215.951C437.854 216.654 437.549 217.24 436.932 217.709C436.315 218.178 435.541 218.412 434.604 218.412Z" fill="#40404B"/>
<path d="M511.677 224.572L511.634 224.579C510.462 224.579 509.458 224.272 508.616 223.664C507.774 223.056 507.202 222.302 506.902 221.408L508.44 220.947C508.682 221.584 509.092 222.111 509.671 222.521C510.249 222.931 510.93 223.136 511.721 223.136C512.417 223.136 512.989 222.968 513.435 222.638C513.882 222.309 514.109 221.928 514.109 221.496C514.109 221.144 513.985 220.851 513.728 220.61C513.472 220.368 513.047 220.156 512.447 219.965L509.81 219.123C508.235 218.632 507.451 217.775 507.451 216.552C507.451 215.761 507.796 215.08 508.484 214.516C509.173 213.952 510.037 213.666 511.077 213.666C512.146 213.666 513.069 213.915 513.845 214.413C514.622 214.911 515.171 215.534 515.493 216.281L513.977 216.735C513.728 216.244 513.355 215.849 512.849 215.549C512.344 215.248 511.758 215.102 511.092 215.102C510.513 215.102 510.037 215.241 509.663 215.519C509.29 215.798 509.099 216.127 509.099 216.508C509.099 216.808 509.209 217.057 509.422 217.255C509.634 217.453 509.978 217.621 510.447 217.76L513.025 218.581C513.933 218.866 514.622 219.218 515.083 219.635C515.545 220.053 515.779 220.632 515.779 221.379C515.779 222.28 515.398 223.034 514.636 223.649C513.875 224.264 512.886 224.572 511.677 224.572ZM521.448 222.844L521.836 224.133C521.265 224.374 520.708 224.491 520.174 224.491C519.383 224.491 518.789 224.264 518.401 223.81C518.013 223.356 517.815 222.726 517.815 221.928V218.222H516.438V216.83H517.815V214.311H519.375V216.83H521.778V218.222H519.375V221.928C519.375 222.697 519.734 223.085 520.459 223.085C520.789 223.085 521.118 223.005 521.448 222.844ZM526.516 224.572L526.531 224.587C525.337 224.587 524.37 224.22 523.623 223.488C522.876 222.756 522.503 221.796 522.503 220.617C522.503 219.482 522.862 218.537 523.579 217.782C524.297 217.028 525.235 216.647 526.385 216.647C527.578 216.647 528.516 217.006 529.204 217.731C529.893 218.456 530.237 219.365 530.237 220.463C530.237 220.654 530.222 220.866 530.186 221.093H524.055C524.107 221.73 524.348 222.243 524.788 222.631C525.227 223.019 525.821 223.217 526.56 223.217C527.6 223.217 528.318 222.814 528.706 222.001L530.142 222.426C529.871 223.019 529.424 223.525 528.802 223.942C528.179 224.36 527.417 224.572 526.516 224.572ZM524.055 220.053H528.692C528.64 219.452 528.413 218.962 528.01 218.581C527.608 218.2 527.066 218.01 526.392 218.01C525.74 218.01 525.205 218.207 524.781 218.603C524.356 218.998 524.114 219.482 524.055 220.053ZM536.111 216.633V216.64C537.18 216.64 538.074 217.013 538.792 217.768C539.51 218.522 539.868 219.467 539.868 220.602C539.868 221.738 539.51 222.682 538.792 223.437C538.074 224.191 537.18 224.572 536.111 224.572C534.939 224.572 534.038 224.125 533.408 223.232V227.524H531.834V216.83H533.408V217.973C534.038 217.079 534.939 216.633 536.111 216.633ZM535.855 223.166L535.847 223.158C536.565 223.158 537.158 222.917 537.62 222.433C538.081 221.95 538.316 221.335 538.316 220.595C538.316 219.855 538.089 219.247 537.627 218.771C537.166 218.295 536.573 218.053 535.847 218.053C535.152 218.053 534.566 218.295 534.082 218.779C533.599 219.262 533.357 219.87 533.357 220.602C533.357 221.342 533.599 221.957 534.082 222.441C534.566 222.924 535.159 223.166 535.855 223.166ZM549.5 217.922L549.529 217.929C550.43 217.995 551.155 218.317 551.697 218.896C552.239 219.474 552.51 220.214 552.51 221.115C552.51 222.096 552.158 222.924 551.448 223.598C550.738 224.272 549.844 224.609 548.767 224.609C547.617 224.609 546.702 224.308 546.021 223.7C545.34 223.093 544.915 222.367 544.746 221.518L546.197 221.115C546.321 221.694 546.607 222.177 547.053 222.573C547.5 222.968 548.042 223.166 548.679 223.166C549.368 223.166 549.91 222.968 550.313 222.565C550.716 222.162 550.913 221.679 550.913 221.108C550.913 220.536 550.73 220.06 550.364 219.687C549.998 219.313 549.507 219.123 548.885 219.123C548.423 219.123 548.02 219.24 547.669 219.467L547.383 218.449L549.961 215.329H545.047V213.871H552.093V215.014L549.5 217.922Z" fill="#5567D5"/>
<path d="M516.056 253.374L514.837 250.366H509.22L508.009 253.374H506.65L511.236 242.171H512.822L517.415 253.374H516.056ZM509.689 249.218H514.376L512.04 243.452L509.689 249.218ZM521.72 253.585L521.704 253.624C520.822 253.624 520.04 253.39 519.361 252.921C518.681 252.452 518.243 251.874 518.04 251.195L519.197 250.874C519.345 251.351 519.65 251.749 520.111 252.062C520.572 252.374 521.111 252.531 521.728 252.531C522.314 252.531 522.798 252.406 523.173 252.148C523.548 251.89 523.736 251.577 523.736 251.21C523.736 250.906 523.65 250.671 523.47 250.507C523.29 250.343 522.993 250.195 522.579 250.062L520.306 249.39C519.064 249.023 518.447 248.374 518.454 247.445C518.454 246.835 518.736 246.312 519.298 245.866C519.861 245.421 520.556 245.202 521.376 245.202C522.197 245.202 522.9 245.39 523.493 245.765C524.087 246.14 524.509 246.616 524.759 247.187L523.634 247.523C523.486 247.156 523.212 246.851 522.806 246.609C522.4 246.366 521.923 246.241 521.368 246.241C520.868 246.241 520.462 246.366 520.15 246.609C519.837 246.851 519.681 247.124 519.681 247.421C519.681 247.851 520.04 248.171 520.751 248.382L523.025 249.054C523.634 249.234 524.111 249.484 524.454 249.796C524.798 250.109 524.97 250.554 524.97 251.124C524.97 251.827 524.665 252.413 524.048 252.882C523.431 253.351 522.657 253.585 521.72 253.585ZM529.72 253.585L529.704 253.624C528.822 253.624 528.04 253.39 527.361 252.921C526.681 252.452 526.243 251.874 526.04 251.195L527.197 250.874C527.345 251.351 527.65 251.749 528.111 252.062C528.572 252.374 529.111 252.531 529.728 252.531C530.314 252.531 530.798 252.406 531.173 252.148C531.548 251.89 531.736 251.577 531.736 251.21C531.736 250.906 531.65 250.671 531.47 250.507C531.29 250.343 530.993 250.195 530.579 250.062L528.306 249.39C527.064 249.023 526.447 248.374 526.454 247.445C526.454 246.835 526.736 246.312 527.298 245.866C527.861 245.421 528.556 245.202 529.376 245.202C530.197 245.202 530.9 245.39 531.493 245.765C532.087 246.14 532.509 246.616 532.759 247.187L531.634 247.523C531.486 247.156 531.212 246.851 530.806 246.609C530.4 246.366 529.923 246.241 529.368 246.241C528.868 246.241 528.462 246.366 528.15 246.609C527.837 246.851 527.681 247.124 527.681 247.421C527.681 247.851 528.04 248.171 528.751 248.382L531.025 249.054C531.634 249.234 532.111 249.484 532.454 249.796C532.798 250.109 532.97 250.554 532.97 251.124C532.97 251.827 532.665 252.413 532.048 252.882C531.431 253.351 530.657 253.585 529.72 253.585ZM535.626 243.906L535.611 243.913C535.368 243.913 535.165 243.835 535.001 243.671C534.837 243.507 534.759 243.304 534.759 243.062C534.759 242.835 534.845 242.64 535.009 242.484C535.173 242.327 535.376 242.249 535.611 242.249C535.845 242.249 536.048 242.327 536.212 242.484C536.376 242.64 536.462 242.827 536.462 243.054C536.462 243.296 536.384 243.499 536.228 243.663C536.072 243.827 535.868 243.906 535.626 243.906ZM535.001 253.382V245.398H536.228V253.382H535.001ZM545.376 245.39L546.595 245.406V253.116C546.595 254.226 546.228 255.14 545.493 255.866C544.759 256.593 543.806 256.952 542.642 256.952C540.892 256.952 539.626 256.249 538.853 254.851L539.939 254.452C540.509 255.398 541.415 255.874 542.657 255.874C543.493 255.874 544.15 255.616 544.626 255.093C545.103 254.57 545.353 253.906 545.376 253.101V251.741C544.681 252.765 543.634 253.281 542.236 253.281C541.072 253.281 540.111 252.89 539.345 252.116C538.579 251.343 538.197 250.382 538.197 249.234C538.197 248.07 538.579 247.109 539.345 246.343C540.111 245.577 541.072 245.195 542.236 245.195C543.642 245.195 544.689 245.702 545.376 246.718V245.39ZM542.423 252.171L542.415 252.195C543.251 252.195 543.954 251.913 544.532 251.351C545.111 250.788 545.4 250.101 545.4 249.281C545.4 248.445 545.111 247.749 544.532 247.187C543.954 246.624 543.251 246.343 542.423 246.343C541.548 246.343 540.829 246.616 540.267 247.163C539.704 247.71 539.423 248.413 539.423 249.265C539.423 250.109 539.704 250.804 540.267 251.351C540.829 251.898 541.548 252.171 542.423 252.171ZM553.173 245.195V245.202C554.165 245.202 554.947 245.515 555.517 246.132C556.087 246.749 556.376 247.601 556.376 248.687V253.374H555.142V248.859C555.142 248.07 554.947 247.452 554.556 247.015C554.165 246.577 553.611 246.359 552.892 246.359C552.087 246.359 551.439 246.632 550.947 247.187C550.454 247.741 550.204 248.468 550.204 249.366V253.382H548.978V245.398H550.204V246.804C550.501 246.327 550.907 245.937 551.415 245.64C551.923 245.343 552.509 245.195 553.173 245.195ZM568.79 245.39H570.118L566.65 253.374H565.29L561.822 245.39H563.15L565.978 252.031L568.79 245.39ZM574.72 253.585H574.712C573.564 253.585 572.603 253.187 571.837 252.382C571.072 251.577 570.689 250.577 570.689 249.374C570.689 248.179 571.072 247.187 571.837 246.39C572.603 245.593 573.564 245.195 574.712 245.195C576.111 245.195 577.165 245.741 577.876 246.827V245.39H579.103V253.374H577.876V251.921C577.181 253.031 576.126 253.585 574.72 253.585ZM574.892 252.46L574.884 252.476C575.72 252.476 576.431 252.179 577.017 251.593C577.603 251.007 577.9 250.273 577.9 249.398C577.9 248.523 577.603 247.788 577.017 247.202C576.431 246.616 575.72 246.32 574.892 246.32C574.017 246.32 573.298 246.609 572.736 247.187C572.173 247.765 571.892 248.499 571.892 249.398C571.892 250.281 572.173 251.015 572.736 251.593C573.298 252.171 574.017 252.46 574.892 252.46ZM581.501 253.374V241.695H582.728V253.374H581.501ZM591.204 245.39L592.439 245.406V253.39H591.204V251.999C590.556 253.07 589.572 253.601 588.259 253.601C587.251 253.601 586.462 253.288 585.892 252.671C585.322 252.054 585.04 251.195 585.04 250.093V245.406H586.275V249.921C586.275 250.71 586.47 251.327 586.861 251.765C587.251 252.202 587.806 252.421 588.517 252.421C589.329 252.421 589.978 252.14 590.47 251.585C590.962 251.031 591.204 250.304 591.204 249.406V245.39ZM598.54 253.585C597.298 253.585 596.29 253.202 595.509 252.437C594.728 251.671 594.337 250.648 594.337 249.374C594.337 248.179 594.72 247.187 595.478 246.39C596.236 245.593 597.212 245.195 598.407 245.195C599.65 245.195 600.626 245.57 601.337 246.327C602.048 247.085 602.407 248.038 602.407 249.187C602.407 249.429 602.4 249.624 602.376 249.765H595.564C595.618 250.577 595.915 251.234 596.447 251.734C596.978 252.234 597.681 252.484 598.556 252.484C599.204 252.484 599.751 252.335 600.197 252.046C600.642 251.757 600.97 251.39 601.181 250.945L602.314 251.281C602.017 251.929 601.548 252.476 600.907 252.921C600.267 253.366 599.478 253.585 598.54 253.585ZM595.548 248.859L601.173 248.843C601.118 248.077 600.845 247.46 600.353 246.991C599.861 246.523 599.204 246.288 598.384 246.288C597.595 246.288 596.939 246.538 596.415 247.038C595.892 247.538 595.603 248.148 595.548 248.859ZM607.204 253.585L607.189 253.624C606.306 253.624 605.525 253.39 604.845 252.921C604.165 252.452 603.728 251.874 603.525 251.195L604.681 250.874C604.829 251.351 605.134 251.749 605.595 252.062C606.056 252.374 606.595 252.531 607.212 252.531C607.798 252.531 608.282 252.406 608.657 252.148C609.032 251.89 609.22 251.577 609.22 251.21C609.22 250.906 609.134 250.671 608.954 250.507C608.775 250.343 608.478 250.195 608.064 250.062L605.79 249.39C604.548 249.023 603.931 248.374 603.939 247.445C603.939 246.835 604.22 246.312 604.782 245.866C605.345 245.421 606.04 245.202 606.861 245.202C607.681 245.202 608.384 245.39 608.978 245.765C609.572 246.14 609.993 246.616 610.243 247.187L609.118 247.523C608.97 247.156 608.697 246.851 608.29 246.609C607.884 246.366 607.407 246.241 606.853 246.241C606.353 246.241 605.947 246.366 605.634 246.609C605.322 246.851 605.165 247.124 605.165 247.421C605.165 247.851 605.525 248.171 606.236 248.382L608.509 249.054C609.118 249.234 609.595 249.484 609.939 249.796C610.282 250.109 610.454 250.554 610.454 251.124C610.454 251.827 610.15 252.413 609.532 252.882C608.915 253.351 608.142 253.585 607.204 253.585Z" fill="#40404B"/>
<path d="M546.265 64.1244C559.26 56.6218 575.27 56.6218 588.265 64.1244L607.993 75.5142C620.988 83.0168 628.993 96.8821 628.993 111.887V134.667C628.993 149.672 620.988 163.537 607.993 171.04L588.265 182.43C575.27 189.932 559.26 189.932 546.265 182.43L526.537 171.04C513.543 163.537 505.537 149.672 505.537 134.667V111.887C505.537 96.8821 513.543 83.0168 526.537 75.5142L546.265 64.1244Z" fill="white"/>
<path d="M172.988 124C184.918 119.902 211.62 109.966 222.988 103" stroke="#E0E2E9" stroke-width="16" stroke-linecap="round"/>
<path d="M413.988 103C425.493 105.975 451.8 114.34 464.988 124" stroke="#E0E2E9" stroke-width="16" stroke-linecap="round"/>
<path d="M172.988 124C184.918 119.902 211.62 109.966 222.988 103" stroke="white" stroke-width="2" stroke-linecap="round" stroke-dasharray="2 8"/>
<path d="M413.988 103C425.493 105.975 451.8 114.34 464.988 124" stroke="white" stroke-width="2" stroke-linecap="round" stroke-dasharray="2 8"/>
<path d="M50.2771 47.8187C63.272 40.3161 79.2823 40.3161 92.2771 47.8187L112.005 59.2085C125 66.7111 133.005 80.5765 133.005 95.5816V118.361C133.005 133.366 125 147.232 112.005 154.734L92.2771 166.124C79.2823 173.627 63.272 173.627 50.2771 166.124L30.5493 154.734C17.5545 147.232 9.54932 133.366 9.54932 118.361V95.5816C9.54932 80.5764 17.5545 66.7111 30.5493 59.2085L50.2771 47.8187Z" fill="white"/>
<path fill-rule="evenodd" clip-rule="evenodd" d="M66.3411 94.6236C64.418 92.3632 60.8429 94.5026 61.8846 97.2904C62.6013 99.2084 60.9995 101.186 59 100.851C56.0938 100.365 54.7223 104.332 57.2904 105.796C59.0573 106.803 59.0905 109.363 57.3501 110.406C54.8206 111.921 56.2944 115.859 59.1873 115.315C61.1777 114.94 62.8302 116.884 62.1634 118.816C61.1941 121.624 64.8237 123.691 66.6877 121.393C67.9702 119.811 70.469 120.231 71.1876 122.148C72.2322 124.935 76.3192 124.163 76.2822 121.186C76.2567 119.138 78.4324 117.836 80.2003 118.841C81.2305 119.427 81.7913 117.369 82.3962 115.149C82.9676 113.051 83.5782 110.81 84.6608 110.519C84.7705 110.489 84.8786 110.464 84.9843 110.444C87.8766 109.896 87.8222 105.69 84.9164 105.201C82.9172 104.864 82.0203 102.468 83.3011 100.885C85.1628 98.5845 82.4473 95.3893 79.9162 96.9021C78.1748 97.9429 75.9659 96.6851 75.9384 94.637C75.8983 91.6601 71.7924 90.9709 70.8202 93.778C70.1514 95.7092 67.6642 96.1788 66.3411 94.6236ZM71 115.562C74.866 115.562 78 112.428 78 108.562C78 104.696 74.866 101.562 71 101.562C67.134 101.562 64 104.696 64 108.562C64 112.428 67.134 115.562 71 115.562Z" fill="#A6B3FF"/>
<rect x="301" y="51" width="39" height="15" rx="7" fill="#E0E2E9"/>
<rect x="301" y="75" width="39" height="15" rx="7" fill="#E0E2E9"/>
<path d="M61.4971 96.6959C62.2799 98.7908 60.5304 100.95 58.3466 100.585C55.1724 100.054 53.6745 104.386 56.4794 105.985C58.4092 107.086 58.4454 109.881 56.5446 111.02C53.7818 112.675 55.3916 116.976 58.5511 116.382M81.1909 96.2719C83.9553 94.6196 86.9211 98.1093 84.8878 100.622C83.4889 102.351 84.4686 104.968 86.652 105.336C89.1302 105.753 89.8691 108.468 88.5 110M71.6577 123.845C70.8727 121.751 68.1437 121.293 66.743 123.02" stroke="#1D2028" stroke-linecap="round"/>
<path d="M67.5 134H58C51.3726 134 46 128.627 46 122V95C46 88.3726 51.3726 83 58 83H85C91.6274 83 97 88.3726 97 95V116.5" stroke="black" stroke-linecap="round" stroke-dasharray="1 5"/>
<path d="M316.5 96H307C300.373 96 295 90.6274 295 84V57C295 50.3726 300.373 45 307 45H334C340.627 45 346 50.3726 346 57V70.5" stroke="black" stroke-linecap="round" stroke-dasharray="1 5"/>
<path fill-rule="evenodd" clip-rule="evenodd" d="M331.353 76.157C329.772 74.2986 326.833 76.0574 327.69 78.3494C328.279 79.9262 326.962 81.5518 325.318 81.2768C322.929 80.877 321.801 84.1383 323.913 85.342C325.365 86.1701 325.392 88.2746 323.962 89.1318C321.882 90.3777 323.094 93.6154 325.472 93.1676C327.108 92.8596 328.467 94.4582 327.919 96.0465C327.122 98.3551 330.106 100.054 331.638 98.1646C332.693 96.8645 334.747 97.2092 335.338 98.7855C336.197 101.077 339.557 100.442 339.526 97.9947C339.505 96.3109 341.294 95.2405 342.747 96.0672C344.86 97.2687 347.024 94.5975 345.445 92.7375C344.358 91.4579 345.045 89.4732 346.681 89.1634C349.058 88.7132 349.014 85.2552 346.625 84.8529C344.981 84.5762 344.244 82.6058 345.297 81.3046C346.827 79.4133 344.595 76.7864 342.514 78.0302C341.082 78.8859 339.266 77.8518 339.244 76.1679C339.211 73.7205 335.835 73.154 335.036 75.4617C334.486 77.0495 332.441 77.4355 331.353 76.157ZM335.184 93.3711C338.362 93.3711 340.939 90.7946 340.939 87.6162C340.939 84.4378 338.362 81.8613 335.184 81.8613C332.005 81.8613 329.429 84.4378 329.429 87.6162C329.429 90.7946 332.005 93.3711 335.184 93.3711Z" fill="#A6B3FF"/>
<path d="M327.34 77.7128C327.984 79.465 326.546 81.2712 324.751 80.9656C322.142 80.5214 320.91 84.1452 323.216 85.4827C324.802 86.403 324.832 88.7413 323.27 89.6938C320.999 91.0782 322.322 94.6759 324.919 94.1783M343.528 77.3581C345.801 75.9761 348.239 78.895 346.567 80.9965C345.417 82.4424 346.223 84.6318 348.017 84.9393C350.626 85.3863 350.675 89.2287 348.078 89.729C346.292 90.0732 345.543 92.2785 346.729 93.7004C348.453 95.7672 346.09 98.7353 343.783 97.4002C342.196 96.4816 340.243 97.671 340.266 99.5421C340.299 102.262 336.63 102.966 335.692 100.421C335.047 98.6692 332.804 98.2861 331.652 99.7308" stroke="#1D2028" stroke-linecap="round"/>
<circle cx="335" cy="88" r="5.5" stroke="#1D2028" stroke-linecap="round"/>
<path d="M593 135.5V114C593 107.373 587.627 102 581 102H554C547.373 102 542 107.373 542 114V141C542 147.627 547.373 153 554 153H562" stroke="black" stroke-linecap="round" stroke-dasharray="1 5"/>
<circle cx="71" cy="108.844" r="6.5" stroke="#1D2028" stroke-linecap="round"/>
<path fill-rule="evenodd" clip-rule="evenodd" d="M78.2 116.281C78.2 113.385 80.3 110 84.5 110C88.7 110 90.6427 113.232 90.7922 115.993L90.8 116.281V120.025H92C93.6569 120.025 95 121.366 95 123.021V128.513V134.004C95 135.659 93.6569 137 92 137H77C75.3431 137 74 135.659 74 134.004V123.021C74 121.366 75.3431 120.025 77 120.025H78.2V116.281ZM86.75 116.321V120.025H82.25V116.281C82.25 115.04 83.2574 114.034 84.5 114.034C85.6894 114.034 86.6648 114.957 86.7446 116.123L86.75 116.321ZM84.5 133C86.9853 133 89 130.985 89 128.5C89 126.015 86.9853 124 84.5 124C82.0147 124 80 126.015 80 128.5C80 130.985 82.0147 133 84.5 133Z" fill="#CCD1F2"/>
<path d="M92.8571 120.383H91.6V116.505L91.5919 116.207C91.4352 113.347 88.9 110 84.5 110C80.1 110 77.4 113.506 77.4 116.505V120.383H76.1429C74.4071 120.383 73 121.772 73 123.486V134.897C73 136.611 74.4071 138 76.1429 138H92.8571C94.5929 138 96 136.611 96 134.897V128" stroke="#1D2028" stroke-linecap="round"/>
<path d="M475.809 105.989C475.826 106.265 475.616 106.501 475.34 106.518L470.848 106.786C470.572 106.802 470.336 106.592 470.319 106.316C470.303 106.041 470.513 105.804 470.789 105.787L474.782 105.549L474.544 101.556C474.527 101.281 474.737 101.044 475.013 101.028C475.289 101.011 475.525 101.221 475.542 101.497L475.809 105.989ZM463.788 99.2281C463.54 99.1063 463.438 98.8067 463.56 98.5589C463.682 98.311 463.981 98.2088 464.229 98.3305L463.788 99.2281ZM464.229 98.3305C468.198 100.28 472.474 102.833 475.642 105.645L474.978 106.393C471.904 103.664 467.716 101.157 463.788 99.2281L464.229 98.3305Z" fill="#5567D5"/>
<path d="M237.636 119.025C237.641 118.749 237.421 118.521 237.145 118.517L232.645 118.443C232.369 118.439 232.142 118.659 232.137 118.935C232.133 119.211 232.353 119.439 232.629 119.443L236.628 119.509L236.563 123.508C236.558 123.784 236.779 124.012 237.055 124.016C237.331 124.021 237.558 123.801 237.563 123.524L237.636 119.025ZM228.241 125.542C228.007 125.688 227.936 125.997 228.082 126.231C228.228 126.465 228.537 126.536 228.771 126.39L228.241 125.542ZM228.771 126.39C233.007 123.743 234.084 122.667 237.484 119.376L236.789 118.658C233.41 121.928 232.391 122.948 228.241 125.542L228.771 126.39Z" fill="#5567D5"/>
<path d="M552.814 129.122C549.841 127.777 550.941 123.344 554.185 123.596C556.416 123.769 557.974 121.472 556.989 119.46C555.558 116.534 559.267 113.875 561.613 116.144C563.226 117.706 565.912 116.961 566.448 114.802C567.228 111.665 571.812 112.023 572.161 115.249C572.402 117.468 574.958 118.623 576.765 117.329C579.392 115.448 582.704 118.657 580.894 121.329C579.649 123.167 580.881 125.682 583.112 125.857C586.356 126.113 586.848 130.67 583.725 131.538C581.577 132.136 580.908 134.834 582.52 136.397C584.863 138.669 582.304 142.443 579.33 141.101C577.284 140.178 575.027 141.797 575.265 144.016C575.611 147.242 571.199 148.466 569.765 145.542C568.778 143.531 565.989 143.313 564.742 145.15C562.93 147.82 558.729 145.922 559.506 142.784C560.04 140.625 558.024 138.672 555.876 139.267C552.752 140.133 550.728 136 553.352 134.116C555.158 132.82 554.859 130.047 552.814 129.122Z" fill="#CCD1F2"/>
<path d="M569.756 122.387C573.959 123.466 576.514 127.771 575.465 132.001C574.996 133.888 572.707 136.488 572.433 136.488C572.16 136.488 571.57 135.898 566.845 135.898C566.164 135.723 564.636 137.271 564.05 136.941C561.019 135.233 559.367 131.636 560.247 128.092C561.296 123.862 565.554 121.308 569.756 122.387Z" fill="white"/>
<path d="M561.613 135.379C560.512 134.189 559.762 132.654 559.556 130.925C559.042 126.61 562.11 122.726 566.409 122.25C569.33 121.926 572.067 123.259 573.683 125.5" stroke="#1D2028" stroke-width="1.00299" stroke-linecap="round" stroke-linejoin="round"/>
<path d="M86.3231 124.386C84.0509 123.379 81.3927 124.405 80.3858 126.677C79.379 128.949 80.4048 131.607 82.677 132.614C84.9492 133.621 87.6073 132.595 88.6142 130.323" stroke="#1D2028" stroke-linecap="round"/>
<rect x="306" y="56" width="29" height="5" rx="2.5" fill="white"/>
<rect x="306" y="68" width="13" height="5" rx="2.5" fill="#CCD1F2"/>
<rect x="306" y="80" width="9" height="5" rx="2.5" fill="#CCD1F2"/>
<path d="M320.5 61H332.5C333.881 61 335 59.8807 335 58.5V58.5C335 57.1193 333.881 56 332.5 56H330M312 61H308.5C307.119 61 306 59.8807 306 58.5V58.5C306 57.1193 307.119 56 308.5 56H322.75" stroke="#1D2028" stroke-linecap="round"/>
<path d="M310.5 80H308.5C307.119 80 306 81.1193 306 82.5V82.5C306 83.8807 307.119 85 308.5 85H312.5C313.881 85 315 83.8807 315 82.5V82.5" stroke="#1D2028" stroke-linecap="round"/>
<path d="M312.5 68H308.5C307.119 68 306 69.1193 306 70.5V70.5C306 71.8807 307.119 73 308.5 73H312.5H316.5C317.881 73 319 71.8807 319 70.5V70.5C319 69.1193 317.881 68 316.5 68H315.75" stroke="#1D2028" stroke-linecap="round"/>
<path d="M309 61V68" stroke="#1D2028" stroke-linecap="round"/>
<path d="M332 61V67.5C332 69.1569 330.657 70.5 329 70.5H319" stroke="#1D2028" stroke-linecap="round"/>
<path d="M309 73V80" stroke="#1D2028" stroke-linecap="round"/>
<path d="M553.367 140.331C549.945 141.166 547.97 136.562 550.906 134.592C552.925 133.237 552.746 130.185 550.582 129.096C547.438 127.514 548.857 122.694 552.352 123.087C554.756 123.358 556.559 120.897 555.599 118.654C554.203 115.395 558.352 112.614 560.771 115.187C562.434 116.957 565.377 116.238 566.069 113.891C567.075 110.479 572.013 111.038 572.223 114.587C572.368 117.029 575.073 118.388 577.094 117.035" stroke="#1D2028" stroke-linecap="round"/>
<path d="M579.103 142.907C579.953 142.364 581.047 142.364 581.897 142.907L596.263 152.073C596.579 152.275 596.579 152.725 596.263 152.927L581.897 162.093C581.047 162.636 579.953 162.636 579.103 162.093L564.737 152.927C564.421 152.725 564.421 152.275 564.737 152.073L579.103 142.907Z" stroke="#1D2028" stroke-linecap="round"/>
<path d="M578.733 134.508C579.808 133.831 581.192 133.831 582.267 134.508L597.504 144.112C598.165 144.528 598.165 145.472 597.504 145.888L582.267 155.492C581.192 156.169 579.808 156.169 578.733 155.492L563.496 145.888C562.835 145.472 562.835 144.528 563.496 144.112L578.733 134.508Z" fill="#A6B3FF"/>
<path d="M563.51 143.571L571.346 138.551L579.182 133.532C580.289 132.823 581.711 132.823 582.818 133.532L591 138.5M581.818 156.468C580.711 157.177 579.289 157.177 578.182 156.468L570.346 151.449" stroke="#1D2028" stroke-linecap="round"/>
<path d="M655 124C666.93 119.902 693.632 109.966 705 103" stroke="#E0E2E9" stroke-width="16" stroke-linecap="round"/>
<path d="M655 124C666.93 119.902 693.632 109.966 705 103" stroke="white" stroke-width="2" stroke-linecap="round" stroke-dasharray="2 8"/>
<path d="M731.448 189.399L731.405 189.406C730.233 189.406 729.229 189.099 728.387 188.491C727.545 187.883 726.973 187.128 726.673 186.235L728.211 185.773C728.453 186.411 728.863 186.938 729.442 187.348C730.02 187.758 730.701 187.963 731.492 187.963C732.188 187.963 732.76 187.795 733.206 187.465C733.653 187.136 733.88 186.755 733.88 186.323C733.88 185.971 733.756 185.678 733.499 185.437C733.243 185.195 732.818 184.982 732.218 184.792L729.581 183.95C728.006 183.459 727.222 182.602 727.222 181.379C727.222 180.588 727.567 179.907 728.255 179.343C728.944 178.779 729.808 178.493 730.848 178.493C731.917 178.493 732.84 178.742 733.616 179.24C734.393 179.738 734.942 180.361 735.264 181.108L733.748 181.562C733.499 181.071 733.126 180.676 732.62 180.375C732.115 180.075 731.529 179.929 730.863 179.929C730.284 179.929 729.808 180.068 729.434 180.346C729.061 180.625 728.87 180.954 728.87 181.335C728.87 181.635 728.98 181.884 729.193 182.082C729.405 182.28 729.749 182.448 730.218 182.587L732.796 183.408C733.704 183.693 734.393 184.045 734.854 184.462C735.316 184.88 735.55 185.458 735.55 186.206C735.55 187.106 735.169 187.861 734.407 188.476C733.646 189.091 732.657 189.399 731.448 189.399ZM741.219 187.67L741.607 188.959C741.036 189.201 740.479 189.318 739.945 189.318C739.154 189.318 738.56 189.091 738.172 188.637C737.784 188.183 737.586 187.553 737.586 186.755V183.049H736.209V181.657H737.586V179.138H739.146V181.657H741.549V183.049H739.146V186.755C739.146 187.524 739.505 187.912 740.23 187.912C740.56 187.912 740.889 187.832 741.219 187.67ZM746.287 189.399L746.302 189.414C745.108 189.414 744.141 189.047 743.394 188.315C742.647 187.583 742.274 186.623 742.274 185.444C742.274 184.309 742.633 183.364 743.35 182.609C744.068 181.855 745.006 181.474 746.156 181.474C747.349 181.474 748.287 181.833 748.975 182.558C749.664 183.283 750.008 184.191 750.008 185.29C750.008 185.48 749.993 185.693 749.957 185.92H743.826C743.878 186.557 744.119 187.07 744.559 187.458C744.998 187.846 745.592 188.044 746.331 188.044C747.371 188.044 748.089 187.641 748.477 186.828L749.913 187.253C749.642 187.846 749.195 188.352 748.573 188.769C747.95 189.187 747.188 189.399 746.287 189.399ZM743.826 184.88H748.463C748.411 184.279 748.184 183.789 747.781 183.408C747.379 183.027 746.837 182.836 746.163 182.836C745.511 182.836 744.976 183.034 744.552 183.43C744.127 183.825 743.885 184.309 743.826 184.88ZM755.882 181.459V181.467C756.951 181.467 757.845 181.84 758.563 182.595C759.281 183.349 759.639 184.294 759.639 185.429C759.639 186.564 759.281 187.509 758.563 188.264C757.845 189.018 756.951 189.399 755.882 189.399C754.71 189.399 753.809 188.952 753.179 188.059V192.351H751.605V181.657H753.179V182.8C753.809 181.906 754.71 181.459 755.882 181.459ZM755.626 187.993L755.618 187.985C756.336 187.985 756.929 187.744 757.391 187.26C757.852 186.777 758.087 186.162 758.087 185.422C758.087 184.682 757.86 184.074 757.398 183.598C756.937 183.122 756.344 182.88 755.618 182.88C754.923 182.88 754.337 183.122 753.853 183.605C753.37 184.089 753.128 184.697 753.128 185.429C753.128 186.169 753.37 186.784 753.853 187.268C754.337 187.751 754.93 187.993 755.626 187.993ZM772.706 185.568V187.011H771.336V189.201H769.703V187.011H764.451V185.81L768.216 178.698H769.974L766.363 185.568H769.703V183.173H771.336V185.568H772.706Z" fill="#5567D5"/>
<path d="M735.233 206.998H736.499V213.756C736.499 215.162 736.093 216.287 735.272 217.139C734.452 217.99 733.327 218.412 731.889 218.412C730.452 218.412 729.327 217.99 728.507 217.139C727.686 216.287 727.28 215.162 727.28 213.756V206.998H728.577V213.725C728.577 214.795 728.866 215.646 729.436 216.279C730.007 216.912 730.827 217.225 731.897 217.225C732.968 217.225 733.788 216.904 734.366 216.271C734.944 215.639 735.233 214.787 735.233 213.725V206.998ZM741.553 218.412L741.538 218.451C740.655 218.451 739.874 218.217 739.194 217.748C738.514 217.279 738.077 216.701 737.874 216.021L739.03 215.701C739.178 216.178 739.483 216.576 739.944 216.889C740.405 217.201 740.944 217.357 741.561 217.357C742.147 217.357 742.632 217.232 743.007 216.975C743.382 216.717 743.569 216.404 743.569 216.037C743.569 215.732 743.483 215.498 743.303 215.334C743.124 215.17 742.827 215.021 742.413 214.889L740.139 214.217C738.897 213.85 738.28 213.201 738.288 212.271C738.288 211.662 738.569 211.139 739.132 210.693C739.694 210.248 740.389 210.029 741.21 210.029C742.03 210.029 742.733 210.217 743.327 210.592C743.921 210.967 744.343 211.443 744.593 212.014L743.468 212.35C743.319 211.982 743.046 211.678 742.639 211.436C742.233 211.193 741.757 211.068 741.202 211.068C740.702 211.068 740.296 211.193 739.983 211.436C739.671 211.678 739.514 211.951 739.514 212.248C739.514 212.678 739.874 212.998 740.585 213.209L742.858 213.881C743.468 214.061 743.944 214.311 744.288 214.623C744.632 214.936 744.803 215.381 744.803 215.951C744.803 216.654 744.499 217.24 743.882 217.709C743.264 218.178 742.491 218.412 741.553 218.412ZM750.343 218.412C749.1 218.412 748.093 218.029 747.311 217.264C746.53 216.498 746.139 215.475 746.139 214.201C746.139 213.006 746.522 212.014 747.28 211.217C748.038 210.42 749.014 210.021 750.21 210.021C751.452 210.021 752.428 210.396 753.139 211.154C753.85 211.912 754.21 212.865 754.21 214.014C754.21 214.256 754.202 214.451 754.178 214.592H747.366C747.421 215.404 747.718 216.061 748.249 216.561C748.78 217.061 749.483 217.311 750.358 217.311C751.007 217.311 751.553 217.162 751.999 216.873C752.444 216.584 752.772 216.217 752.983 215.771L754.116 216.107C753.819 216.756 753.35 217.303 752.71 217.748C752.069 218.193 751.28 218.412 750.343 218.412ZM747.35 213.686L752.975 213.67C752.921 212.904 752.647 212.287 752.155 211.818C751.663 211.35 751.007 211.115 750.186 211.115C749.397 211.115 748.741 211.365 748.218 211.865C747.694 212.365 747.405 212.975 747.35 213.686ZM764.608 216.904L764.944 217.959C764.405 218.193 763.85 218.311 763.28 218.311C762.499 218.311 761.913 218.084 761.522 217.631C761.132 217.178 760.936 216.561 760.936 215.771V211.334H759.35V210.217H760.936V207.467H762.163V210.217H764.905V211.334H762.163V215.771C762.163 216.709 762.593 217.178 763.46 217.178C763.858 217.178 764.241 217.084 764.608 216.904ZM770.928 210.021V210.029C771.921 210.029 772.702 210.342 773.272 210.959C773.843 211.576 774.132 212.428 774.132 213.514V218.201H772.897V213.686C772.897 212.896 772.702 212.279 772.311 211.842C771.921 211.404 771.366 211.186 770.647 211.186C769.843 211.186 769.194 211.459 768.702 212.014C768.21 212.568 767.96 213.295 767.96 214.193V218.209H766.733V206.529H767.96V211.631C768.257 211.154 768.663 210.764 769.171 210.467C769.678 210.17 770.264 210.021 770.928 210.021ZM780.155 218.412C778.913 218.412 777.905 218.029 777.124 217.264C776.343 216.498 775.952 215.475 775.952 214.201C775.952 213.006 776.335 212.014 777.093 211.217C777.85 210.42 778.827 210.021 780.022 210.021C781.264 210.021 782.241 210.396 782.952 211.154C783.663 211.912 784.022 212.865 784.022 214.014C784.022 214.256 784.014 214.451 783.991 214.592H777.178C777.233 215.404 777.53 216.061 778.061 216.561C778.593 217.061 779.296 217.311 780.171 217.311C780.819 217.311 781.366 217.162 781.811 216.873C782.257 216.584 782.585 216.217 782.796 215.771L783.928 216.107C783.632 216.756 783.163 217.303 782.522 217.748C781.882 218.193 781.093 218.412 780.155 218.412ZM777.163 213.686L782.788 213.67C782.733 212.904 782.46 212.287 781.968 211.818C781.475 211.35 780.819 211.115 779.999 211.115C779.21 211.115 778.553 211.365 778.03 211.865C777.507 212.365 777.218 212.975 777.163 213.686ZM793.686 218.412H793.725C792.53 218.412 791.538 218.006 790.749 217.201C789.96 216.396 789.561 215.389 789.561 214.186C789.561 213.006 789.96 212.014 790.749 211.217C791.538 210.42 792.53 210.021 793.725 210.021C794.671 210.021 795.475 210.271 796.139 210.771C796.803 211.271 797.225 211.826 797.405 212.443L796.249 212.779C796.108 212.342 795.803 211.959 795.335 211.631C794.866 211.303 794.327 211.139 793.71 211.139C792.835 211.139 792.124 211.436 791.577 212.037C791.03 212.639 790.757 213.365 790.757 214.217C790.757 215.061 791.03 215.779 791.577 216.381C792.124 216.982 792.835 217.279 793.702 217.279C794.335 217.279 794.882 217.123 795.343 216.811C795.803 216.498 796.1 216.123 796.233 215.686L797.389 215.99C797.21 216.623 796.788 217.186 796.124 217.678C795.46 218.17 794.647 218.412 793.686 218.412ZM802.975 218.412H802.968C801.764 218.412 800.757 218.006 799.952 217.201C799.147 216.396 798.749 215.396 798.749 214.201C798.749 213.006 799.155 212.014 799.96 211.217C800.764 210.42 801.772 210.021 802.975 210.021C804.178 210.021 805.178 210.42 805.975 211.217C806.772 212.014 807.171 213.006 807.171 214.201C807.171 215.396 806.772 216.396 805.975 217.201C805.178 218.006 804.178 218.412 802.975 218.412ZM802.968 217.271L802.96 217.287C803.811 217.287 804.522 216.998 805.093 216.42C805.663 215.842 805.952 215.115 805.952 214.24C805.952 213.365 805.671 212.631 805.1 212.045C804.53 211.459 803.819 211.162 802.968 211.162C802.1 211.162 801.382 211.451 800.803 212.037C800.225 212.623 799.936 213.35 799.936 214.225C799.936 215.1 800.225 215.826 800.803 216.404C801.382 216.982 802.1 217.271 802.968 217.271ZM813.272 210.021V210.029C814.264 210.029 815.046 210.342 815.616 210.959C816.186 211.576 816.475 212.428 816.475 213.514V218.201H815.241V213.686C815.241 212.896 815.046 212.279 814.655 211.842C814.264 211.404 813.71 211.186 812.991 211.186C812.186 211.186 811.538 211.459 811.046 212.014C810.553 212.568 810.303 213.295 810.303 214.193V218.209H809.077V210.225H810.303V211.631C810.6 211.154 811.007 210.764 811.514 210.467C812.022 210.17 812.608 210.021 813.272 210.021ZM825.874 210.217L825.866 218.209H824.632V211.342H820.905V218.209H819.686V211.342H818.007V210.225H819.686V209.17C819.686 208.264 819.928 207.561 820.413 207.061C820.897 206.561 821.608 206.311 822.546 206.311C823.538 206.311 824.382 206.592 825.085 207.146L824.788 208.186C824.108 207.678 823.389 207.42 822.639 207.42C822.069 207.42 821.639 207.568 821.35 207.873C821.061 208.178 820.913 208.615 820.913 209.193V210.217H825.874ZM834.757 210.217L835.975 210.232V217.943C835.975 219.053 835.608 219.967 834.874 220.693C834.139 221.42 833.186 221.779 832.022 221.779C830.272 221.779 829.007 221.076 828.233 219.678L829.319 219.279C829.889 220.225 830.796 220.701 832.038 220.701C832.874 220.701 833.53 220.443 834.007 219.92C834.483 219.396 834.733 218.732 834.757 217.928V216.568C834.061 217.592 833.014 218.107 831.616 218.107C830.452 218.107 829.491 217.717 828.725 216.943C827.96 216.17 827.577 215.209 827.577 214.061C827.577 212.896 827.96 211.936 828.725 211.17C829.491 210.404 830.452 210.021 831.616 210.021C833.022 210.021 834.069 210.529 834.757 211.545V210.217ZM831.803 216.998L831.796 217.021C832.632 217.021 833.335 216.74 833.913 216.178C834.491 215.615 834.78 214.928 834.78 214.107C834.78 213.271 834.491 212.576 833.913 212.014C833.335 211.451 832.632 211.17 831.803 211.17C830.928 211.17 830.21 211.443 829.647 211.99C829.085 212.537 828.803 213.24 828.803 214.092C828.803 214.936 829.085 215.631 829.647 216.178C830.21 216.725 830.928 216.998 831.803 216.998ZM844.444 210.217L845.678 210.232V218.217H844.444V216.826C843.796 217.896 842.811 218.428 841.499 218.428C840.491 218.428 839.702 218.115 839.132 217.498C838.561 216.881 838.28 216.021 838.28 214.92V210.232H839.514V214.748C839.514 215.537 839.71 216.154 840.1 216.592C840.491 217.029 841.046 217.248 841.757 217.248C842.569 217.248 843.218 216.967 843.71 216.412C844.202 215.857 844.444 215.131 844.444 214.232V210.217ZM849.311 211.592H849.319C849.561 211.053 849.928 210.646 850.421 210.381C850.913 210.115 851.499 210.029 852.178 210.131V211.279C851.28 211.162 850.577 211.357 850.069 211.873C849.561 212.389 849.311 213.256 849.311 214.475V218.201H848.085V210.217H849.311V211.592ZM856.725 218.412H856.718C855.569 218.412 854.608 218.014 853.843 217.209C853.077 216.404 852.694 215.404 852.694 214.201C852.694 213.006 853.077 212.014 853.843 211.217C854.608 210.42 855.569 210.021 856.718 210.021C858.116 210.021 859.171 210.568 859.882 211.654V210.217H861.108V218.201H859.882V216.748C859.186 217.857 858.132 218.412 856.725 218.412ZM856.897 217.287L856.889 217.303C857.725 217.303 858.436 217.006 859.022 216.42C859.608 215.834 859.905 215.1 859.905 214.225C859.905 213.35 859.608 212.615 859.022 212.029C858.436 211.443 857.725 211.146 856.897 211.146C856.022 211.146 855.303 211.436 854.741 212.014C854.178 212.592 853.897 213.326 853.897 214.225C853.897 215.107 854.178 215.842 854.741 216.42C855.303 216.998 856.022 217.287 856.897 217.287ZM867.889 216.904L868.225 217.959C867.686 218.193 867.132 218.311 866.561 218.311C865.78 218.311 865.194 218.084 864.803 217.631C864.413 217.178 864.218 216.561 864.218 215.771V211.334H862.632V210.217H864.218V207.467H865.444V210.217H868.186V211.334H865.444V215.771C865.444 216.709 865.874 217.178 866.741 217.178C867.139 217.178 867.522 217.084 867.889 216.904ZM870.725 208.732L870.71 208.74C870.468 208.74 870.264 208.662 870.1 208.498C869.936 208.334 869.858 208.131 869.858 207.889C869.858 207.662 869.944 207.467 870.108 207.311C870.272 207.154 870.475 207.076 870.71 207.076C870.944 207.076 871.147 207.154 871.311 207.311C871.475 207.467 871.561 207.654 871.561 207.881C871.561 208.123 871.483 208.326 871.327 208.49C871.171 208.654 870.968 208.732 870.725 208.732ZM870.1 218.209V210.225H871.327V218.209H870.1ZM877.522 218.412H877.514C876.311 218.412 875.303 218.006 874.499 217.201C873.694 216.396 873.296 215.396 873.296 214.201C873.296 213.006 873.702 212.014 874.507 211.217C875.311 210.42 876.319 210.021 877.522 210.021C878.725 210.021 879.725 210.42 880.522 211.217C881.319 212.014 881.718 213.006 881.718 214.201C881.718 215.396 881.319 216.396 880.522 217.201C879.725 218.006 878.725 218.412 877.522 218.412ZM877.514 217.271L877.507 217.287C878.358 217.287 879.069 216.998 879.639 216.42C880.21 215.842 880.499 215.115 880.499 214.24C880.499 213.365 880.218 212.631 879.647 212.045C879.077 211.459 878.366 211.162 877.514 211.162C876.647 211.162 875.928 211.451 875.35 212.037C874.772 212.623 874.483 213.35 874.483 214.225C874.483 215.1 874.772 215.826 875.35 216.404C875.928 216.982 876.647 217.271 877.514 217.271ZM887.819 210.021V210.029C888.811 210.029 889.593 210.342 890.163 210.959C890.733 211.576 891.022 212.428 891.022 213.514V218.201H889.788V213.686C889.788 212.896 889.593 212.279 889.202 211.842C888.811 211.404 888.257 211.186 887.538 211.186C886.733 211.186 886.085 211.459 885.593 212.014C885.1 212.568 884.85 213.295 884.85 214.193V218.209H883.624V210.225H884.85V211.631C885.147 211.154 885.553 210.764 886.061 210.467C886.569 210.17 887.155 210.021 887.819 210.021ZM904.147 210.217L905.366 210.232V217.943C905.366 219.053 904.999 219.967 904.264 220.693C903.53 221.42 902.577 221.779 901.413 221.779C899.663 221.779 898.397 221.076 897.624 219.678L898.71 219.279C899.28 220.225 900.186 220.701 901.428 220.701C902.264 220.701 902.921 220.443 903.397 219.92C903.874 219.396 904.124 218.732 904.147 217.928V216.568C903.452 217.592 902.405 218.107 901.007 218.107C899.843 218.107 898.882 217.717 898.116 216.943C897.35 216.17 896.968 215.209 896.968 214.061C896.968 212.896 897.35 211.936 898.116 211.17C898.882 210.404 899.843 210.021 901.007 210.021C902.413 210.021 903.46 210.529 904.147 211.545V210.217ZM901.194 216.998L901.186 217.021C902.022 217.021 902.725 216.74 903.303 216.178C903.882 215.615 904.171 214.928 904.171 214.107C904.171 213.271 903.882 212.576 903.303 212.014C902.725 211.451 902.022 211.17 901.194 211.17C900.319 211.17 899.6 211.443 899.038 211.99C898.475 212.537 898.194 213.24 898.194 214.092C898.194 214.936 898.475 215.631 899.038 216.178C899.6 216.725 900.319 216.998 901.194 216.998ZM908.983 211.592H908.991C909.233 211.053 909.6 210.646 910.093 210.381C910.585 210.115 911.171 210.029 911.85 210.131V211.279C910.952 211.162 910.249 211.357 909.741 211.873C909.233 212.389 908.983 213.256 908.983 214.475V218.201H907.757V210.217H908.983V211.592ZM916.585 218.412H916.577C915.374 218.412 914.366 218.006 913.561 217.201C912.757 216.396 912.358 215.396 912.358 214.201C912.358 213.006 912.764 212.014 913.569 211.217C914.374 210.42 915.382 210.021 916.585 210.021C917.788 210.021 918.788 210.42 919.585 211.217C920.382 212.014 920.78 213.006 920.78 214.201C920.78 215.396 920.382 216.396 919.585 217.201C918.788 218.006 917.788 218.412 916.585 218.412ZM916.577 217.271L916.569 217.287C917.421 217.287 918.132 216.998 918.702 216.42C919.272 215.842 919.561 215.115 919.561 214.24C919.561 213.365 919.28 212.631 918.71 212.045C918.139 211.459 917.428 211.162 916.577 211.162C915.71 211.162 914.991 211.451 914.413 212.037C913.835 212.623 913.546 213.35 913.546 214.225C913.546 215.1 913.835 215.826 914.413 216.404C914.991 216.982 915.71 217.271 916.577 217.271ZM928.772 210.217L930.007 210.232V218.217H928.772V216.826C928.124 217.896 927.139 218.428 925.827 218.428C924.819 218.428 924.03 218.115 923.46 217.498C922.889 216.881 922.608 216.021 922.608 214.92V210.232H923.843V214.748C923.843 215.537 924.038 216.154 924.428 216.592C924.819 217.029 925.374 217.248 926.085 217.248C926.897 217.248 927.546 216.967 928.038 216.412C928.53 215.857 928.772 215.131 928.772 214.232V210.217ZM936.796 210.021L936.788 210.029C937.936 210.029 938.897 210.428 939.663 211.225C940.428 212.021 940.811 213.014 940.811 214.209C940.811 215.412 940.428 216.412 939.663 217.217C938.897 218.021 937.936 218.42 936.788 218.42C936.085 218.42 935.468 218.271 934.928 217.975C934.389 217.678 933.96 217.271 933.639 216.748V221.561H932.413V210.217H933.639V211.654C934.327 210.568 935.382 210.021 936.796 210.021ZM936.608 217.295L936.6 217.311C937.475 217.311 938.194 217.021 938.757 216.443C939.319 215.865 939.6 215.131 939.6 214.248C939.6 213.35 939.319 212.615 938.757 212.037C938.194 211.459 937.475 211.17 936.6 211.17C935.764 211.17 935.053 211.459 934.468 212.045C933.882 212.631 933.593 213.357 933.593 214.232C933.593 215.107 933.889 215.834 934.475 216.42C935.061 217.006 935.772 217.295 936.608 217.295ZM734.116 230.521H735.343V242.201H734.116V240.748C733.421 241.857 732.366 242.412 730.952 242.412C729.803 242.412 728.843 242.014 728.077 241.209C727.311 240.404 726.928 239.404 726.928 238.201C726.928 237.006 727.311 236.014 728.077 235.217C728.843 234.42 729.803 234.021 730.952 234.021C732.35 234.021 733.405 234.568 734.116 235.654V230.521ZM731.139 241.287L731.132 241.303C731.968 241.303 732.678 241.006 733.264 240.42C733.85 239.834 734.147 239.1 734.147 238.225C734.147 237.35 733.85 236.615 733.264 236.029C732.678 235.443 731.968 235.146 731.139 235.146C730.264 235.146 729.546 235.436 728.983 236.014C728.421 236.592 728.139 237.326 728.139 238.225C728.139 239.107 728.421 239.842 728.983 240.42C729.546 240.998 730.264 241.287 731.139 241.287ZM743.819 234.217L745.053 234.232V242.217H743.819V240.826C743.171 241.896 742.186 242.428 740.874 242.428C739.866 242.428 739.077 242.115 738.507 241.498C737.936 240.881 737.655 240.021 737.655 238.92V234.232H738.889V238.748C738.889 239.537 739.085 240.154 739.475 240.592C739.866 241.029 740.421 241.248 741.132 241.248C741.944 241.248 742.593 240.967 743.085 240.412C743.577 239.857 743.819 239.131 743.819 238.232V234.217ZM748.686 235.592H748.694C748.936 235.053 749.303 234.646 749.796 234.381C750.288 234.115 750.874 234.029 751.553 234.131V235.279C750.655 235.162 749.952 235.357 749.444 235.873C748.936 236.389 748.686 237.256 748.686 238.475V242.201H747.46V234.217H748.686V235.592ZM753.788 232.732L753.772 232.74C753.53 232.74 753.327 232.662 753.163 232.498C752.999 232.334 752.921 232.131 752.921 231.889C752.921 231.662 753.007 231.467 753.171 231.311C753.335 231.154 753.538 231.076 753.772 231.076C754.007 231.076 754.21 231.154 754.374 231.311C754.538 231.467 754.624 231.654 754.624 231.881C754.624 232.123 754.546 232.326 754.389 232.49C754.233 232.654 754.03 232.732 753.788 232.732ZM753.163 242.209V234.225H754.389V242.209H753.163ZM761.069 234.021V234.029C762.061 234.029 762.843 234.342 763.413 234.959C763.983 235.576 764.272 236.428 764.272 237.514V242.201H763.038V237.686C763.038 236.896 762.843 236.279 762.452 235.842C762.061 235.404 761.507 235.186 760.788 235.186C759.983 235.186 759.335 235.459 758.843 236.014C758.35 236.568 758.1 237.295 758.1 238.193V242.209H756.874V234.225H758.1V235.631C758.397 235.154 758.803 234.764 759.311 234.467C759.819 234.17 760.405 234.021 761.069 234.021ZM773.257 234.217L774.475 234.232V241.943C774.475 243.053 774.108 243.967 773.374 244.693C772.639 245.42 771.686 245.779 770.522 245.779C768.772 245.779 767.507 245.076 766.733 243.678L767.819 243.279C768.389 244.225 769.296 244.701 770.538 244.701C771.374 244.701 772.03 244.443 772.507 243.92C772.983 243.396 773.233 242.732 773.257 241.928V240.568C772.561 241.592 771.514 242.107 770.116 242.107C768.952 242.107 767.991 241.717 767.225 240.943C766.46 240.17 766.077 239.209 766.077 238.061C766.077 236.896 766.46 235.936 767.225 235.17C767.991 234.404 768.952 234.021 770.116 234.021C771.522 234.021 772.569 234.529 773.257 235.545V234.217ZM770.303 240.998L770.296 241.021C771.132 241.021 771.835 240.74 772.413 240.178C772.991 239.615 773.28 238.928 773.28 238.107C773.28 237.271 772.991 236.576 772.413 236.014C771.835 235.451 771.132 235.17 770.303 235.17C769.428 235.17 768.71 235.443 768.147 235.99C767.585 236.537 767.303 237.24 767.303 238.092C767.303 238.936 767.585 239.631 768.147 240.178C768.71 240.725 769.428 240.998 770.303 240.998ZM787.678 230.521H788.905V242.201H787.678V240.748C786.983 241.857 785.928 242.412 784.514 242.412C783.366 242.412 782.405 242.014 781.639 241.209C780.874 240.404 780.491 239.404 780.491 238.201C780.491 237.006 780.874 236.014 781.639 235.217C782.405 234.42 783.366 234.021 784.514 234.021C785.913 234.021 786.968 234.568 787.678 235.654V230.521ZM784.702 241.287L784.694 241.303C785.53 241.303 786.241 241.006 786.827 240.42C787.413 239.834 787.71 239.1 787.71 238.225C787.71 237.35 787.413 236.615 786.827 236.029C786.241 235.443 785.53 235.146 784.702 235.146C783.827 235.146 783.108 235.436 782.546 236.014C781.983 236.592 781.702 237.326 781.702 238.225C781.702 239.107 781.983 239.842 782.546 240.42C783.108 240.998 783.827 241.287 784.702 241.287ZM794.999 242.412C793.757 242.412 792.749 242.029 791.968 241.264C791.186 240.498 790.796 239.475 790.796 238.201C790.796 237.006 791.178 236.014 791.936 235.217C792.694 234.42 793.671 234.021 794.866 234.021C796.108 234.021 797.085 234.396 797.796 235.154C798.507 235.912 798.866 236.865 798.866 238.014C798.866 238.256 798.858 238.451 798.835 238.592H792.022C792.077 239.404 792.374 240.061 792.905 240.561C793.436 241.061 794.139 241.311 795.014 241.311C795.663 241.311 796.21 241.162 796.655 240.873C797.1 240.584 797.428 240.217 797.639 239.771L798.772 240.107C798.475 240.756 798.007 241.303 797.366 241.748C796.725 242.193 795.936 242.412 794.999 242.412ZM792.007 237.686L797.632 237.67C797.577 236.904 797.303 236.287 796.811 235.818C796.319 235.35 795.663 235.115 794.843 235.115C794.053 235.115 793.397 235.365 792.874 235.865C792.35 236.365 792.061 236.975 792.007 237.686ZM805.124 234.021L805.116 234.029C806.264 234.029 807.225 234.428 807.991 235.225C808.757 236.021 809.139 237.014 809.139 238.209C809.139 239.412 808.757 240.412 807.991 241.217C807.225 242.021 806.264 242.42 805.116 242.42C804.413 242.42 803.796 242.271 803.257 241.975C802.718 241.678 802.288 241.271 801.968 240.748V245.561H800.741V234.217H801.968V235.654C802.655 234.568 803.71 234.021 805.124 234.021ZM804.936 241.295L804.928 241.311C805.803 241.311 806.522 241.021 807.085 240.443C807.647 239.865 807.928 239.131 807.928 238.248C807.928 237.35 807.647 236.615 807.085 236.037C806.522 235.459 805.803 235.17 804.928 235.17C804.093 235.17 803.382 235.459 802.796 236.045C802.21 236.631 801.921 237.357 801.921 238.232C801.921 239.107 802.218 239.834 802.803 240.42C803.389 241.006 804.1 241.295 804.936 241.295ZM811.038 242.201V230.521H812.264V242.201H811.038ZM818.366 242.412H818.358C817.155 242.412 816.147 242.006 815.343 241.201C814.538 240.396 814.139 239.396 814.139 238.201C814.139 237.006 814.546 236.014 815.35 235.217C816.155 234.42 817.163 234.021 818.366 234.021C819.569 234.021 820.569 234.42 821.366 235.217C822.163 236.014 822.561 237.006 822.561 238.201C822.561 239.396 822.163 240.396 821.366 241.201C820.569 242.006 819.569 242.412 818.366 242.412ZM818.358 241.271L818.35 241.287C819.202 241.287 819.913 240.998 820.483 240.42C821.053 239.842 821.343 239.115 821.343 238.24C821.343 237.365 821.061 236.631 820.491 236.045C819.921 235.459 819.21 235.162 818.358 235.162C817.491 235.162 816.772 235.451 816.194 236.037C815.616 236.623 815.327 237.35 815.327 238.225C815.327 239.1 815.616 239.826 816.194 240.404C816.772 240.982 817.491 241.271 818.358 241.271ZM830.116 234.217H831.428L826.514 245.561H825.218L826.741 242.045L823.046 234.217H824.405L827.358 240.662L830.116 234.217ZM842.069 234.021L842.061 234.037C843.022 234.037 843.78 234.334 844.335 234.928C844.889 235.521 845.171 236.35 845.171 237.42V242.217H843.936V237.607C843.936 236.842 843.764 236.248 843.413 235.826C843.061 235.404 842.546 235.193 841.866 235.193C841.186 235.193 840.632 235.443 840.21 235.943C839.788 236.443 839.577 237.107 839.577 237.943V242.217H838.343V237.607C838.343 236.85 838.178 236.256 837.843 235.826C837.507 235.396 837.022 235.186 836.382 235.186C835.678 235.186 835.108 235.451 834.663 235.99C834.218 236.529 833.999 237.24 833.999 238.123V242.201H832.772V234.217H833.999V235.529C834.6 234.521 835.483 234.021 836.655 234.021C837.866 234.021 838.718 234.537 839.21 235.561C839.796 234.537 840.749 234.021 842.069 234.021ZM851.186 242.412C849.944 242.412 848.936 242.029 848.155 241.264C847.374 240.498 846.983 239.475 846.983 238.201C846.983 237.006 847.366 236.014 848.124 235.217C848.882 234.42 849.858 234.021 851.053 234.021C852.296 234.021 853.272 234.396 853.983 235.154C854.694 235.912 855.053 236.865 855.053 238.014C855.053 238.256 855.046 238.451 855.022 238.592H848.21C848.264 239.404 848.561 240.061 849.093 240.561C849.624 241.061 850.327 241.311 851.202 241.311C851.85 241.311 852.397 241.162 852.843 240.873C853.288 240.584 853.616 240.217 853.827 239.771L854.96 240.107C854.663 240.756 854.194 241.303 853.553 241.748C852.913 242.193 852.124 242.412 851.186 242.412ZM848.194 237.686L853.819 237.67C853.764 236.904 853.491 236.287 852.999 235.818C852.507 235.35 851.85 235.115 851.03 235.115C850.241 235.115 849.585 235.365 849.061 235.865C848.538 236.365 848.249 236.975 848.194 237.686ZM861.116 234.021V234.029C862.108 234.029 862.889 234.342 863.46 234.959C864.03 235.576 864.319 236.428 864.319 237.514V242.201H863.085V237.686C863.085 236.896 862.889 236.279 862.499 235.842C862.108 235.404 861.553 235.186 860.835 235.186C860.03 235.186 859.382 235.459 858.889 236.014C858.397 236.568 858.147 237.295 858.147 238.193V242.209H856.921V234.225H858.147V235.631C858.444 235.154 858.85 234.764 859.358 234.467C859.866 234.17 860.452 234.021 861.116 234.021ZM871.03 240.904L871.366 241.959C870.827 242.193 870.272 242.311 869.702 242.311C868.921 242.311 868.335 242.084 867.944 241.631C867.553 241.178 867.358 240.561 867.358 239.771V235.334H865.772V234.217H867.358V231.467H868.585V234.217H871.327V235.334H868.585V239.771C868.585 240.709 869.014 241.178 869.882 241.178C870.28 241.178 870.663 241.084 871.03 240.904Z" fill="#40404B"/>
<path d="M782.277 12.1244C795.272 4.62178 811.282 4.62178 824.277 12.1244L844.005 23.5142C857 31.0168 865.005 44.8821 865.005 59.8873V82.667C865.005 97.6721 857 111.537 844.005 119.04L824.277 130.43C811.282 137.932 795.272 137.932 782.277 130.43L762.549 119.04C749.554 111.537 741.549 97.6721 741.549 82.667V59.8873C741.549 44.8821 749.554 31.0168 762.549 23.5142L782.277 12.1244Z" fill="white"/>
<path d="M815 48H788C781.373 48 776 53.3726 776 60V87C776 93.6274 781.373 99 788 99H805.5" stroke="black" stroke-linecap="round" stroke-dasharray="1 5"/>
<path d="M804.993 36.5507C804.825 39.9807 805.014 49.3 808.216 58.765" stroke="#1D2028"/>
<path d="M822.785 30.9149L825.566 46.0373L833.193 49.5898C832.103 46.368 830.732 43.3829 829.324 40.7627" stroke="#1D2028"/>
<path d="M808.044 10.4915C806.333 14.8227 803.524 26.2032 806.497 36.3389C809.487 46.5329 813.421 50.63 814.976 51.2712L827.302 47.1005C828.149 45.6469 828.786 40.0033 824.972 30.0878C821.181 20.2291 812.033 12.8942 808.044 10.4915Z" fill="#A6B3FF"/>
<path d="M810.016 60.523C810.016 60.523 806.704 47.5047 806.517 43.2463L815.284 52.6281L810.016 60.523Z" fill="#CCD1F2"/>
<path d="M824.866 61.176L819.038 56.2956L816.392 41.4829L826.439 54.5608L824.866 61.176Z" fill="#CCD1F2"/>
<path d="M821.833 48.4294L825.158 46.9479C825.986 45.5546 826.632 40.159 822.988 30.7044C819.365 21.304 810.54 14.3425 806.687 12.0673C805.007 16.2145 802.226 27.1028 805.055 36.772C806.661 40.5665 810.703 48.6406 814.024 50.5813" stroke="#1D2028"/>
<path d="M824.067 61.1329L818.347 56.667L815.603 39.2261L823.356 50.0398" stroke="#1D2028"/>
<circle cx="811.397" cy="26.06" r="4.14102" transform="rotate(-18.693 811.397 26.06)" fill="white" stroke="#1D2028"/>
<path d="M828.052 57C836.193 63.0197 850.644 83.8116 842.124 96.9519C833.605 110.092 825.576 105.418 821.809 102.269" stroke="black" stroke-linecap="round" stroke-dasharray="1 5"/>
<path d="M829.458 78.1929C832.215 78.0142 833.158 81.7642 830.634 82.8675C828.898 83.6265 828.649 85.9624 830.186 87.0742C832.419 88.6901 830.707 92.154 828.051 91.392C826.224 90.8677 824.514 92.4936 824.972 94.3198C825.639 96.9743 822.072 98.5312 820.526 96.2606C819.463 94.6984 817.093 94.8533 816.258 96.5396C815.045 98.9905 811.293 97.912 811.581 95.1952C811.78 93.326 809.858 91.9375 808.121 92.6947C805.596 93.7954 803.414 90.5861 805.401 88.6943C806.768 87.3927 806.194 85.1105 804.367 84.5844C801.712 83.8197 802.121 79.9813 804.878 79.7997C806.774 79.6748 807.816 77.5668 806.754 76.0035C805.211 73.7313 808.02 71.0598 810.256 72.6734C811.794 73.7836 813.965 72.8361 814.165 70.9671C814.456 68.2505 818.35 67.996 819.019 70.6497C819.479 72.4756 821.763 73.1319 823.131 71.8317C825.12 69.942 828.278 72.2235 827.067 74.6757C826.234 76.3628 827.562 78.3159 829.458 78.1929Z" fill="#CCD1F2"/>
<path d="M800.901 68.5046C802.488 68.4017 803.031 70.5608 801.578 71.196C800.578 71.633 800.435 72.978 801.32 73.6181C802.606 74.5484 801.62 76.5428 800.091 76.1041C799.039 75.8022 798.055 76.7383 798.318 77.7898C798.702 79.3181 796.648 80.2145 795.759 78.9072C795.146 78.0077 793.782 78.0969 793.301 79.0678C792.603 80.479 790.442 79.858 790.608 78.2938C790.723 77.2176 789.616 76.4182 788.616 76.8541C787.162 77.4878 785.906 75.6401 787.05 74.5508C787.837 73.8014 787.507 72.4875 786.455 72.1846C784.926 71.7443 785.162 69.5343 786.749 69.4297C787.84 69.3578 788.44 68.1441 787.829 67.244C786.941 65.9358 788.558 64.3976 789.845 65.3267C790.731 65.9659 791.981 65.4204 792.096 64.3443C792.263 62.7802 794.506 62.6336 794.891 64.1616C795.156 65.2128 796.47 65.5907 797.258 64.8421C798.404 63.7541 800.222 65.0677 799.524 66.4795C799.045 67.4509 799.809 68.5754 800.901 68.5046Z" fill="#A6B3FF"/>
<ellipse cx="5.77216" cy="5.74607" rx="5.77216" ry="5.74607" transform="matrix(0.243911 0.969798 -0.971768 0.235937 822.028 76.5374)" fill="white"/>
<ellipse cx="2.66407" cy="2.65203" rx="2.66407" ry="2.65203" transform="matrix(0.243911 0.969798 -0.971768 0.235937 795.608 68.0195)" fill="white"/>
<path d="M811.409 85.0551C812.306 88.6223 815.918 90.8138 819.476 89.9499C823.035 89.0859 825.192 85.4938 824.295 81.9266C823.398 78.3593 819.786 76.1679 816.227 77.0318" stroke="#1D2028" stroke-width="1.00299" stroke-linecap="round" stroke-linejoin="round"/>
<path d="M791.212 72.285C791.631 73.9497 793.316 74.9724 794.977 74.5692C796.637 74.166 797.644 72.4897 797.225 70.825C796.807 69.1603 795.121 68.1376 793.461 68.5408" stroke="#1D2028" stroke-width="1.00299" stroke-linecap="round" stroke-linejoin="round"/>
<path d="M719.648 119.025C719.653 118.749 719.433 118.521 719.157 118.517L714.657 118.443C714.381 118.439 714.154 118.659 714.149 118.935C714.145 119.211 714.365 119.439 714.641 119.443L718.64 119.509L718.575 123.508C718.57 123.784 718.791 124.012 719.067 124.016C719.343 124.021 719.57 123.801 719.575 123.524L719.648 119.025ZM710.253 125.542C710.019 125.688 709.948 125.997 710.094 126.231C710.24 126.465 710.549 126.536 710.783 126.39L710.253 125.542ZM710.783 126.39C715.019 123.743 716.096 122.667 719.496 119.376L718.801 118.658C715.422 121.928 714.403 122.948 710.253 125.542L710.783 126.39Z" fill="#5567D5"/>
</svg>
