<?xml version="1.0" encoding="UTF-8"?>
<svg width="241px" height="189px" viewBox="0 0 241 189" version="1.1" xmlns="http://www.w3.org/2000/svg" xmlns:xlink="http://www.w3.org/1999/xlink">
    <title>94D05B77-A607-4FFC-B3B3-2F4D04A39DF6</title>
    <g id="Home" stroke="none" stroke-width="1" fill="none" fill-rule="evenodd">
        <g id="auth-error" transform="translate(-600.000000, -214.000000)">
            <g id="drawkit-grape-pack-illustration-11" transform="translate(600.251417, 214.182982)">
                <path d="M221.470751,45.8896678 C238.302588,59.3001562 243.060628,83.5435699 238.122673,104.223741 C233.230912,124.927779 218.686921,142.094827 200.870411,151.343028 C183.075782,160.650895 177.546527,169.004105 157.960036,174.085245 C138.349232,179.202186 120.19234,188.039886 99.9493997,188 C79.6845777,188 57.401783,179.101947 37.6791392,164.498142 C17.9710832,149.961163 0.879097759,129.729679 0.0135576721,109.987454 C-0.80578786,90.2643227 35.7313234,26.7564358 50.1124178,14.0142045 C64.4935123,1.27197317 87.2139395,-3.97384523 106.275272,3.31493066 C125.336604,10.6037065 204.658364,32.5555516 221.470751,45.8896678 Z" id="Path" fill="#FFFFFF" fill-rule="nonzero"></path>
                <path d="M145.248583,6.74055128 L191.499526,33.4435459 C197.687548,37.0162018 201.499526,43.6187422 201.499526,50.764054 L201.499526,104.170043 C201.499526,111.315355 197.687548,117.917895 191.499526,121.490551 L145.248583,148.193546 C139.060562,151.766202 131.436605,151.766202 125.248583,148.193546 L78.9976397,121.490551 C72.8096181,117.917895 68.9976397,111.315355 68.9976397,104.170043 L68.9976397,50.764054 C68.9976397,43.6187422 72.8096181,37.0162018 78.9976397,33.4435459 L125.248583,6.74055128 C131.436605,3.16789538 139.060562,3.16789538 145.248583,6.74055128 Z" id="Polygon" fill="#F0F1FB" fill-rule="nonzero"></path>
                <path d="M119.248583,27.0610594 C123.737476,27.0610594 128.226369,28.2221725 132.248583,30.5443989 L132.248583,30.5443989 L172.437349,53.7473935 C176.459563,56.0696198 179.709563,59.3765586 181.954009,63.264054 C184.198456,67.1515493 185.437349,71.6196013 185.437349,76.264054 L185.437349,76.264054 L185.437349,122.670043 C185.437349,127.314496 184.198456,131.782548 181.954009,135.670043 C179.709563,139.557539 176.459563,142.864477 172.437349,145.186704 L172.437349,145.186704 L132.248583,168.389698 C128.226369,170.711925 123.737476,171.873038 119.248583,171.873038 C114.75969,171.873038 110.270797,170.711925 106.248583,168.389698 L106.248583,168.389698 L66.0598175,145.186704 C58.0153895,140.542251 53.0598175,131.958949 53.0598175,122.670043 L53.0598175,122.670043 L53.0598175,76.264054 C53.0598175,66.9751486 58.0153895,58.3918461 66.0598175,53.7473935 L66.0598175,53.7473935 L106.248583,30.5443989 C110.270797,28.2221725 114.75969,27.0610594 119.248583,27.0610594 Z" id="Polygon" stroke="#FF7B7C" stroke-width="12"></path>
                <path d="M44.1930481,124.238692 L44.1930481,75.0266397 C44.1930481,63.4381418 50.3754381,52.7299282 60.4113716,46.9356793 L103.030259,22.3296529" id="Path" stroke="#42425B"></path>
                <path d="M194.304118,75.0266397 L194.304118,124.238692 C194.304118,135.82719 188.121728,146.535404 178.085794,152.329653" id="Path" stroke="#42425B"></path>
                <path d="M146.65507,130.029898 C141.24381,125.253304 130.986376,122.029898 119.223207,122.029898 C107.488264,122.029898 97.2518372,125.237854 91.8303808,129.995541" id="Path" stroke="#43435B" stroke-width="5" stroke-linecap="round"></path>
                <line x1="93.0493271" y1="80.4691362" x2="103.049327" y2="90.4691362" id="Path-2" stroke="#43435B" stroke-width="5" stroke-linecap="round"></line>
                <line x1="135.049327" y1="80.4691362" x2="145.049327" y2="90.4691362" id="Path-2-Copy" stroke="#43435B" stroke-width="5" stroke-linecap="round"></line>
                <line x1="93.0493271" y1="80.4691362" x2="103.049327" y2="90.4691362" id="Path-2" stroke="#43435B" stroke-width="5" stroke-linecap="round" transform="translate(98.049327, 85.469136) scale(-1, 1) translate(-98.049327, -85.469136) "></line>
                <line x1="135.049327" y1="80.4691362" x2="145.049327" y2="90.4691362" id="Path-2-Copy-2" stroke="#43435B" stroke-width="5" stroke-linecap="round" transform="translate(140.049327, 85.469136) scale(-1, 1) translate(-140.049327, -85.469136) "></line>
            </g>
        </g>
    </g>
</svg>