<svg width="56" height="56" viewBox="0 0 56 56" fill="none" xmlns="http://www.w3.org/2000/svg">
<path d="M0 6.16666C0 3.40523 2.23858 1.16666 5 1.16666H51C53.7614 1.16666 56 3.40523 56 6.16666V38.1667C56 40.9281 53.7614 43.1667 51 43.1667H5C2.23858 43.1667 0 40.9281 0 38.1667V6.16666Z" fill="#E0E8ED"/>
<path d="M4.66669 7.83331C4.66669 6.72874 5.56212 5.83331 6.66669 5.83331H23.6667C24.7713 5.83331 25.6667 6.72874 25.6667 7.83331V20.1666C25.6667 21.2712 24.7713 22.1666 23.6667 22.1666H6.66669C5.56212 22.1666 4.66669 21.2712 4.66669 20.1666V7.83331Z" fill="url(#paint0_linear_1_3300)"/>
<path d="M4.66669 26.5C4.66669 25.3954 5.56212 24.5 6.66669 24.5H23.6667C24.7713 24.5 25.6667 25.3954 25.6667 26.5V31.8333C25.6667 32.9379 24.7713 33.8333 23.6667 33.8333H6.66669C5.56212 33.8333 4.66669 32.9379 4.66669 31.8333V26.5Z" fill="url(#paint1_linear_1_3300)"/>
<path d="M28 7.83331C28 6.72874 28.8954 5.83331 30 5.83331H47C48.1046 5.83331 49 6.72874 49 7.83331V16.6666C49 17.7712 48.1046 18.6666 47 18.6666H30C28.8954 18.6666 28 17.7712 28 16.6666V7.83331Z" fill="url(#paint2_linear_1_3300)"/>
<path d="M42.9219 47.8206L47.8271 52.7259L51.5592 48.9938L46.654 44.0886L50.7726 39.97L35.1513 36.3179L38.8033 51.9392L42.9219 47.8206Z" stroke="#40404B" stroke-width="1.5"/>
<defs>
<linearGradient id="paint0_linear_1_3300" x1="15.1667" y1="5.83331" x2="15.1667" y2="22.1666" gradientUnits="userSpaceOnUse">
<stop stop-color="#74B2D0"/>
<stop offset="1" stop-color="#1D7098"/>
</linearGradient>
<linearGradient id="paint1_linear_1_3300" x1="15.1667" y1="24.5" x2="15.1667" y2="33.8333" gradientUnits="userSpaceOnUse">
<stop stop-color="#84D2BA"/>
<stop offset="1" stop-color="#308068"/>
</linearGradient>
<linearGradient id="paint2_linear_1_3300" x1="38.5" y1="5.83331" x2="38.5" y2="18.6666" gradientUnits="userSpaceOnUse">
<stop stop-color="#6AAAC9"/>
<stop offset="1" stop-color="#27789E"/>
</linearGradient>
</defs>
</svg>
