<svg width="57" height="57" viewBox="0 0 57 57" fill="none" xmlns="http://www.w3.org/2000/svg">
<path d="M28.486 0.86975C28.615 0.868387 28.744 0.867023 28.8769 0.865619C30.41 0.862991 30.41 0.862991 30.901 1.25135C31.1051 1.50213 31.1683 1.73067 31.2583 2.04087C31.6188 3.30118 31.6188 3.30118 32.4094 4.29363C32.9496 4.5344 33.5226 4.61796 34.102 4.71862C34.6228 4.83819 35.086 5.07179 35.5623 5.30896C35.6936 5.37277 35.6936 5.37277 35.8275 5.43787C36.1741 5.60879 36.5024 5.78044 36.826 5.99258C37.0582 6.14376 37.0582 6.14376 37.2909 6.10609C37.3996 6.06282 37.3996 6.06282 37.5105 6.01868C37.5962 5.98596 37.6819 5.95324 37.7701 5.91952C38.0004 5.82071 38.2295 5.71937 38.4581 5.61685C38.5256 5.58685 38.5932 5.55685 38.6627 5.52594C38.8596 5.43765 39.0553 5.34661 39.2509 5.25547C39.6673 5.10892 39.9737 5.08523 40.412 5.12109C41.4187 5.63563 42.27 6.58869 42.9725 7.45898C43.0658 7.5509 43.0658 7.5509 43.1608 7.64468C43.3947 8.06136 43.3855 8.4405 43.3065 8.90625C43.1902 9.19445 43.0516 9.46125 42.9047 9.7351C42.4396 10.5732 42.4396 10.5732 42.3338 11.5002C42.4962 11.9873 42.7731 12.4016 43.0625 12.8222C43.2656 13.1331 43.4061 13.4632 43.5501 13.8047C43.6056 13.9303 43.6611 14.0558 43.7184 14.1852C43.8293 14.4907 43.8936 14.7276 43.9419 15.0419C44.0648 15.7507 44.0648 15.7507 44.4198 16.3652C44.9973 16.7434 45.6459 16.9458 46.2985 17.1563C46.8144 17.3276 47.095 17.492 47.4257 17.9238C47.6184 18.502 47.5621 19.1216 47.5637 19.7269C47.5648 19.9679 47.5683 20.2087 47.5718 20.4496C47.5725 20.6035 47.5731 20.7575 47.5735 20.9114C47.5746 21.051 47.5756 21.1905 47.5767 21.3343C47.5338 21.7396 47.4462 21.9426 47.203 22.2656C46.6863 22.6771 46.117 22.8985 45.5053 23.1284C45.3692 23.1812 45.3692 23.1812 45.2304 23.235C44.563 23.4902 44.563 23.4902 44.3085 23.4902C44.288 23.5917 44.2674 23.6932 44.2463 23.7977C44.0413 24.7375 43.7485 25.6117 43.3691 26.4961C43.3072 26.6415 43.3072 26.6415 43.2439 26.7899C43.0059 27.3308 42.7438 27.8183 42.3996 28.2995C42.2766 28.559 42.3128 28.6886 42.395 28.9592C42.4717 29.1421 42.5536 29.3228 42.6386 29.502C43.4186 31.2089 43.4186 31.2089 43.3065 31.9512C43.233 32.0614 43.1596 32.1716 43.0839 32.2852C41.0124 31.6933 39.2399 30.4545 37.6288 29.0566C37.5602 29.0012 37.4916 28.9459 37.4209 28.8888C37.2948 28.7227 37.2948 28.7227 37.3044 28.5074C37.4304 28.2224 37.5929 28.049 37.8097 27.8251C40.1241 25.292 40.7636 22.0605 40.6564 18.7424C40.6084 17.9191 40.4382 17.1493 40.1893 16.3652C40.1661 16.2896 40.1428 16.214 40.1188 16.1361C39.2244 13.3055 37.2062 10.7567 34.5929 9.32438C32.6473 8.31481 30.7315 7.74664 28.5277 7.75818C28.4011 7.75881 28.2745 7.75943 28.144 7.76008C24.8227 7.80775 21.8413 9.2607 19.5178 11.5994C17.1419 14.1049 16.2822 17.3404 16.3303 20.7092C16.3616 21.6785 16.5163 22.5681 16.8104 23.4902C16.8343 23.5664 16.8582 23.6426 16.8827 23.7212C17.4104 25.3586 18.241 27.0941 19.5741 28.2273C19.705 28.3887 19.705 28.3887 19.6997 28.6031C18.959 30.2151 15.955 31.5506 14.4086 32.2056C14.1386 32.2852 14.1386 32.2852 13.8046 32.1738C13.6227 31.81 13.6395 31.4541 13.6932 31.0605C13.873 30.5416 14.1201 30.0531 14.3586 29.5591C14.4045 29.4595 14.4505 29.3598 14.4978 29.2571C14.5409 29.1678 14.5841 29.0784 14.6285 28.9863C14.7587 28.4715 14.4036 28.0236 14.1701 27.5742C13.5017 26.2832 12.8937 24.9421 12.6913 23.4902C12.629 23.4739 12.5667 23.4575 12.5026 23.4407C11.9053 23.2736 11.3292 23.068 10.757 22.8292C10.5628 22.7485 10.5628 22.7485 10.3647 22.6661C9.89336 22.4233 9.63172 22.2158 9.46278 21.709C9.43737 21.2216 9.43736 20.7339 9.43603 20.246C9.43496 20.0063 9.4315 19.7667 9.42799 19.527C9.42726 19.3734 9.42668 19.2198 9.42625 19.0662C9.42521 18.9273 9.42417 18.7883 9.4231 18.6452C9.46675 18.219 9.5732 17.9531 9.79676 17.5898C10.0707 17.3981 10.0707 17.3981 10.3952 17.2489C10.5137 17.1911 10.6322 17.1332 10.7544 17.0736C11.1327 16.9219 11.1327 16.9219 11.511 16.8501C11.9642 16.7514 12.2176 16.6606 12.58 16.3652C12.8431 15.8647 12.9881 15.3254 13.1383 14.7824C13.3789 13.918 13.7146 13.2161 14.1733 12.4479C14.592 11.7309 14.592 11.7309 14.6648 10.9236C14.5224 10.5512 14.3554 10.242 14.1386 9.9082C13.8074 9.26228 13.4977 8.64043 13.6932 7.9043C13.9136 7.56519 14.1858 7.29693 14.4725 7.01367C14.5828 6.88248 14.6918 6.75031 14.7996 6.61706C15.342 5.98325 16.0619 5.18357 16.9209 5.08152C17.6152 5.09192 18.2423 5.49017 18.8533 5.78645C19.4362 6.06585 19.4362 6.06585 20.0659 6.06782C20.1672 6.01257 20.2685 5.95732 20.3729 5.90039C20.4879 5.83796 20.6028 5.77554 20.7213 5.71122C20.8474 5.63817 20.9736 5.56513 21.1035 5.48987C22.0622 4.95449 23.083 4.63319 24.1294 4.31315C24.2124 4.28586 24.2953 4.25858 24.3807 4.23047C24.4778 4.20209 24.5749 4.17371 24.6749 4.14447C25.023 3.96324 25.0652 3.80845 25.1914 3.4416C25.2323 3.32881 25.2732 3.21601 25.3153 3.09979C25.3559 2.98154 25.3965 2.86329 25.4384 2.74145C25.9384 1.29626 25.9384 1.29626 26.496 1.00195C27.1514 0.83778 27.8146 0.870121 28.486 0.86975Z" fill="url(#paint0_linear_178_1726)"/>
<path d="M27.6094 27.498C27.6094 35.36 27.6094 43.222 27.6094 51.3223C21.9149 51.3223 16.2205 51.3223 10.3535 51.3223C10.3535 45.9585 10.3535 40.5947 10.3535 35.0684C11.2202 34.8207 11.2202 34.8207 11.6381 34.7335C15.051 33.9917 18.0777 32.5225 20.6244 30.1173C22.5961 28.3001 24.9532 27.498 27.6094 27.498ZM24.0252 30.7389C23.7842 31.1246 23.768 31.3434 23.7669 31.7957C23.7658 31.9043 23.7658 31.9043 23.7646 32.015C23.7625 32.2567 23.7637 32.4982 23.7648 32.7398C23.764 32.9134 23.7631 33.087 23.7619 33.2605C23.7594 33.7314 23.7597 34.2022 23.7607 34.673C23.7613 35.0662 23.7605 35.4593 23.7597 35.8525C23.7578 36.7799 23.7582 37.7073 23.76 38.6347C23.7619 39.5915 23.7602 40.5482 23.7566 41.5049C23.7536 42.3266 23.7528 43.1482 23.7537 43.9698C23.7543 44.4604 23.754 44.951 23.7518 45.4417C23.7497 45.903 23.7504 46.3642 23.7531 46.8255C23.7537 46.9947 23.7533 47.164 23.7519 47.3332C23.7501 47.5644 23.7518 47.7953 23.7543 48.0265C23.7543 48.1558 23.7544 48.2851 23.7545 48.4183C23.8458 48.8679 24.0273 49.0354 24.3809 49.3184C24.7196 49.4019 24.7196 49.4019 25.0488 49.3184C25.3052 49.1105 25.4583 48.9447 25.6055 48.6504C25.6167 48.4217 25.6205 48.1927 25.6211 47.9638C25.6217 47.8172 25.6224 47.6707 25.623 47.5197C25.6232 47.3563 25.6233 47.1929 25.6234 47.0295C25.6239 46.8581 25.6245 46.6868 25.6251 46.5155C25.6265 46.0492 25.6273 45.583 25.6278 45.1167C25.6281 44.8255 25.6285 44.5344 25.629 44.2432C25.6306 43.3325 25.6316 42.4217 25.6321 41.511C25.6326 40.4591 25.6345 39.4073 25.6377 38.3554C25.6401 37.5428 25.6413 36.7301 25.6414 35.9175C25.6415 35.4319 25.6422 34.9464 25.6442 34.4609C25.646 34.0041 25.6463 33.5473 25.6453 33.0905C25.6452 32.9229 25.6457 32.7553 25.6468 32.5876C25.6482 32.3587 25.6475 32.1298 25.6464 31.9009C25.6465 31.7728 25.6467 31.6447 25.6469 31.5127C25.6005 31.1314 25.4995 30.9216 25.2715 30.6152C24.8183 30.3887 24.3935 30.3846 24.0252 30.7389ZM20.1504 33.6211C20.0073 33.9072 20.0238 34.1126 20.0219 34.4331C20.021 34.5581 20.02 34.6832 20.019 34.812C20.0186 34.9498 20.0181 35.0876 20.0176 35.2296C20.0167 35.3743 20.0158 35.5189 20.0148 35.6679C20.0119 36.1484 20.0102 36.6288 20.0086 37.1092C20.008 37.2746 20.0074 37.4399 20.0068 37.6052C20.0044 38.293 20.0023 38.9807 20.0011 39.6684C19.9993 40.6542 19.9956 41.64 19.9892 42.6259C19.9849 43.3189 19.9827 44.0119 19.9822 44.705C19.9818 45.119 19.9804 45.5329 19.9768 45.9469C19.9728 46.4089 19.9733 46.8707 19.9741 47.3326C19.9723 47.4698 19.9705 47.6069 19.9686 47.7482C19.95 48.4978 19.95 48.4978 20.3001 49.1254C20.6627 49.3621 20.8389 49.3997 21.2637 49.3184C21.52 49.1105 21.6732 48.9447 21.8203 48.6504C21.8314 48.4584 21.8354 48.266 21.8359 48.0737C21.8366 47.9515 21.8372 47.8293 21.8379 47.7034C21.838 47.5687 21.8381 47.434 21.8383 47.2952C21.8388 47.1538 21.8394 47.0124 21.8399 46.8667C21.8414 46.4782 21.8421 46.0897 21.8426 45.7012C21.8429 45.4585 21.8434 45.2158 21.8439 44.9731C21.8454 44.2139 21.8465 43.4546 21.8469 42.6954C21.8474 41.8188 21.8494 40.9422 21.8526 40.0656C21.855 39.3882 21.8561 38.7107 21.8563 38.0333C21.8564 37.6286 21.857 37.224 21.859 36.8193C21.8612 36.3678 21.8607 35.9164 21.86 35.4648C21.861 35.3308 21.862 35.1968 21.8631 35.0587C21.8625 34.9356 21.8619 34.8124 21.8612 34.6855C21.8615 34.5254 21.8615 34.5254 21.8617 34.362C21.8118 34.0053 21.698 33.7993 21.4863 33.5098C20.9499 33.1521 20.6453 33.2733 20.1504 33.6211ZM16.3652 35.5137C16.2302 35.7836 16.2387 35.9571 16.2368 36.2588C16.2358 36.369 16.2349 36.4792 16.2339 36.5928C16.2334 36.7141 16.2329 36.8354 16.2324 36.9604C16.2315 37.0879 16.2306 37.2153 16.2297 37.3467C16.2269 37.7698 16.2251 38.1929 16.2235 38.6161C16.2229 38.7602 16.2223 38.9044 16.2217 39.053C16.2193 39.6586 16.2172 40.2643 16.2159 40.87C16.2141 41.7383 16.2104 42.6065 16.2041 43.4748C16.1993 44.1587 16.1975 44.8427 16.1968 45.5266C16.196 45.8177 16.1943 46.1088 16.1916 46.3999C16.1881 46.8067 16.1881 47.2133 16.1889 47.6201C16.1871 47.741 16.1853 47.8619 16.1834 47.9864C16.1765 48.6381 16.1765 48.6381 16.515 49.1705C16.8759 49.351 17.0803 49.3861 17.4785 49.3184C17.7956 49.0699 17.9071 48.9232 18.0352 48.5391C18.046 48.3682 18.0507 48.197 18.0515 48.0258C18.0523 47.9205 18.0531 47.8151 18.054 47.7066C18.0543 47.5912 18.0546 47.4758 18.0549 47.3569C18.0556 47.2353 18.0563 47.1136 18.0571 46.9882C18.0593 46.5848 18.0606 46.1814 18.0617 45.778C18.0621 45.6404 18.0626 45.5027 18.0631 45.3609C18.0651 44.7076 18.0668 44.0544 18.0677 43.4011C18.0688 42.6478 18.0717 41.8944 18.0762 41.1411C18.08 40.488 18.0813 39.8349 18.0817 39.1818C18.0823 38.9043 18.0836 38.6267 18.0856 38.3492C18.0883 37.9609 18.0883 37.5726 18.0875 37.1843C18.0889 37.0696 18.0903 36.9549 18.0918 36.8367C18.087 36.1789 18.0386 35.7865 17.5898 35.291C17.0695 35.1028 16.7977 35.18 16.3652 35.5137ZM12.4688 36.627C12.3661 36.935 12.343 37.1192 12.3418 37.4369C12.3412 37.534 12.3405 37.6311 12.3399 37.7311C12.3397 37.8373 12.3396 37.9434 12.3395 38.0529C12.3389 38.1649 12.3384 38.277 12.3378 38.3925C12.3362 38.7639 12.3354 39.1353 12.3348 39.5067C12.3342 39.7645 12.3335 40.0222 12.3329 40.28C12.3317 40.8208 12.3311 41.3615 12.3307 41.9023C12.3301 42.5955 12.3274 43.2887 12.3242 43.9818C12.3222 44.5144 12.3216 45.0469 12.3214 45.5795C12.3211 45.835 12.3202 46.0906 12.3187 46.3462C12.3168 46.7036 12.317 47.0609 12.3177 47.4183C12.3167 47.5241 12.3157 47.6298 12.3146 47.7388C12.319 48.4262 12.4146 48.8189 12.9141 49.3184C13.3369 49.3747 13.5297 49.3509 13.8951 49.1235C14.2487 48.7599 14.2638 48.4399 14.2649 47.9468C14.2654 47.8515 14.2658 47.7561 14.2663 47.6579C14.2662 47.5023 14.2662 47.5023 14.2662 47.3436C14.2665 47.2337 14.2669 47.1238 14.2673 47.0105C14.2684 46.6469 14.2686 46.2834 14.2687 45.9198C14.2691 45.6672 14.2694 45.4146 14.2698 45.1619C14.2705 44.6323 14.2707 44.1027 14.2706 43.5731C14.2706 42.8943 14.2721 42.2155 14.2741 41.5366C14.2753 41.0149 14.2755 40.4931 14.2755 39.9714C14.2756 39.7211 14.2761 39.4708 14.2769 39.2205C14.278 38.8706 14.2777 38.5207 14.277 38.1708C14.278 38.0156 14.278 38.0156 14.2789 37.8572C14.276 37.2592 14.2695 36.7664 13.8325 36.3138C13.256 36.0096 12.8569 36.1238 12.4688 36.627Z" fill="#1A4C6D"/>
<path d="M29.3906 27.498C32.4417 27.498 34.7046 28.5598 36.9122 30.65C39.3469 32.8574 42.4272 34.1037 45.5977 34.7817C45.9503 34.8654 46.298 34.9688 46.6465 35.0684C46.6465 40.4321 46.6465 45.7959 46.6465 51.3223C40.9521 51.3223 35.2576 51.3223 29.3906 51.3223C29.3906 43.4603 29.3906 35.5983 29.3906 27.498ZM31.5059 30.8379C31.3827 31.2074 31.3799 31.4826 31.3789 31.8718C31.3783 32.0186 31.3776 32.1653 31.377 32.3165C31.3768 32.4794 31.3767 32.6424 31.3766 32.8054C31.3761 32.9768 31.3755 33.1481 31.3749 33.3195C31.3735 33.7853 31.3727 34.251 31.3722 34.7168C31.3719 35.0078 31.3715 35.2987 31.371 35.5897C31.3694 36.4998 31.3684 37.4099 31.3679 38.32C31.3674 39.371 31.3655 40.4219 31.3623 41.4728C31.3599 42.285 31.3587 43.0971 31.3586 43.9093C31.3585 44.3945 31.3578 44.8796 31.3558 45.3648C31.354 45.8211 31.3537 46.2775 31.3547 46.7338C31.3548 46.9012 31.3543 47.0687 31.3532 47.2361C31.3518 47.4648 31.3525 47.6934 31.3536 47.9221C31.3535 48.0501 31.3533 48.178 31.3531 48.3099C31.3995 48.691 31.5007 48.9007 31.7285 49.207C32.0501 49.3678 32.2625 49.3603 32.6191 49.3184C32.9743 49.0366 33.1541 48.8683 33.2455 48.4183C33.2456 48.289 33.2456 48.1597 33.2457 48.0265C33.2465 47.9542 33.2473 47.8818 33.2481 47.8072C33.2501 47.5656 33.2481 47.3241 33.246 47.0824C33.2466 46.9089 33.2474 46.7353 33.2485 46.5617C33.2505 46.0909 33.2491 45.6201 33.2469 45.1492C33.2451 44.6563 33.246 44.1635 33.2466 43.6706C33.2471 42.8429 33.2453 42.0152 33.2422 41.1875C33.2387 40.2308 33.2387 39.2741 33.2406 38.3173C33.2424 37.3968 33.2416 36.4762 33.2397 35.5556C33.2389 35.1639 33.2391 34.7723 33.2399 34.3806C33.2407 33.9193 33.2394 33.458 33.2363 32.9968C33.2356 32.8275 33.2356 32.6583 33.2364 32.489C33.2373 32.2579 33.2355 32.0269 33.2331 31.7957C33.2328 31.6664 33.2325 31.5371 33.2321 31.4039C33.1633 30.9847 33.0336 30.7976 32.7305 30.5039C32.2106 30.4296 31.8778 30.4516 31.5059 30.8379ZM35.5345 33.4819C35.1701 33.8568 35.1657 34.1561 35.1648 34.6572C35.1643 34.7798 35.1639 34.9023 35.1634 35.0285C35.1634 35.163 35.1635 35.2975 35.1635 35.436C35.1631 35.5776 35.1628 35.7192 35.1624 35.865C35.1614 36.2535 35.1611 36.642 35.1611 37.0305C35.161 37.3548 35.1606 37.679 35.1602 38.0033C35.1593 38.7682 35.159 39.5332 35.1591 40.2981C35.1591 41.0874 35.1579 41.8766 35.1562 42.6659C35.1547 43.3435 35.1541 44.021 35.1542 44.6985C35.1542 45.1032 35.1539 45.5079 35.1527 45.9126C35.1515 46.3639 35.152 46.8151 35.1526 47.2664C35.152 47.4006 35.1514 47.5349 35.1507 47.6732C35.1512 47.796 35.1517 47.9189 35.1522 48.0454C35.1521 48.1521 35.152 48.2588 35.152 48.3688C35.1815 48.6691 35.2373 48.8443 35.4023 49.0957C35.794 49.3568 35.9431 49.3829 36.4043 49.3184C36.6877 49.1341 36.8014 49.0491 36.9609 48.7617C37.0453 48.2873 37.0358 47.817 37.0312 47.3362C37.032 47.1913 37.0328 47.0464 37.0336 46.8972C37.0357 46.5006 37.0342 46.1041 37.032 45.7076C37.0302 45.2923 37.0312 44.8771 37.0318 44.4619C37.0323 43.7648 37.0305 43.0677 37.0274 42.3705C37.0238 41.5647 37.0238 40.7589 37.0257 39.953C37.0275 39.1774 37.0268 38.4019 37.0249 37.6264C37.0241 37.2964 37.0242 36.9665 37.025 36.6366C37.026 36.176 37.0234 35.7155 37.0203 35.2549C37.0211 35.1179 37.0218 34.9809 37.0225 34.8397C37.0211 34.7144 37.0197 34.589 37.0182 34.4599C37.0179 34.351 37.0176 34.2421 37.0173 34.13C36.9446 33.7608 36.8062 33.6303 36.5156 33.3984C36.0798 33.2501 35.93 33.2359 35.5345 33.4819ZM39.1875 35.5137C38.9812 35.846 38.9368 36.0983 38.9358 36.4864C38.935 36.592 38.9342 36.6977 38.9334 36.8066C38.9337 36.9217 38.934 37.0369 38.9343 37.1555C38.9337 37.2774 38.9331 37.3993 38.9325 37.5248C38.931 37.9282 38.9311 38.3315 38.9314 38.7348C38.9309 39.0149 38.9304 39.295 38.9299 39.575C38.9291 40.1623 38.9291 40.7495 38.9297 41.3368C38.9304 42.0151 38.929 42.6934 38.9266 43.3717C38.9244 44.0248 38.9241 44.678 38.9245 45.3311C38.9244 45.6088 38.9238 45.8864 38.9227 46.164C38.9214 46.5521 38.9221 46.9401 38.9234 47.3281C38.9225 47.4431 38.9217 47.558 38.9208 47.6764C38.9261 48.3903 39.0023 48.7992 39.5215 49.3184C39.9104 49.3702 40.133 49.3464 40.4856 49.1712C40.8962 48.7012 40.8229 48.228 40.8164 47.6236C40.8171 47.4962 40.8179 47.3687 40.8188 47.2373C40.8207 46.8154 40.8185 46.3935 40.8161 45.9716C40.8162 45.6787 40.8165 45.3859 40.8169 45.0931C40.8174 44.4791 40.8157 43.8652 40.8125 43.2513C40.809 42.5417 40.809 41.8323 40.8109 41.1227C40.8127 40.4398 40.8119 39.757 40.81 39.0741C40.8094 38.7836 40.8095 38.4931 40.8102 38.2027C40.8108 37.797 40.8085 37.3914 40.8055 36.9857C40.8062 36.8652 40.8069 36.7447 40.8077 36.6205C40.8106 35.9901 40.8106 35.9901 40.5367 35.4421C40.0064 35.1025 39.6843 35.1243 39.1875 35.5137ZM43.0422 36.3765C42.7689 36.7549 42.7362 37.0941 42.7351 37.5532C42.7346 37.6485 42.7342 37.7439 42.7337 37.8421C42.7337 37.9458 42.7338 38.0495 42.7338 38.1564C42.7335 38.2663 42.7331 38.3762 42.7327 38.4895C42.7316 38.8531 42.7314 39.2166 42.7313 39.5802C42.7309 39.8328 42.7306 40.0854 42.7302 40.3381C42.7295 40.8677 42.7293 41.3973 42.7294 41.9269C42.7294 42.6057 42.7279 43.2845 42.7259 43.9634C42.7247 44.4851 42.7245 45.0069 42.7245 45.5286C42.7244 45.7789 42.7239 46.0292 42.7231 46.2795C42.722 46.6294 42.7223 46.9793 42.723 47.3292C42.722 47.4844 42.722 47.4844 42.7211 47.6428C42.724 48.2408 42.7305 48.7336 43.1675 49.1862C43.5028 49.3632 43.7116 49.3729 44.0859 49.3184C44.403 49.0699 44.5145 48.9232 44.6426 48.5391C44.6531 48.3807 44.6576 48.2218 44.6582 48.0631C44.6588 47.966 44.6595 47.8689 44.6601 47.7689C44.6603 47.6627 44.6604 47.5566 44.6605 47.4471C44.6611 47.3351 44.6616 47.223 44.6622 47.1075C44.6638 46.7361 44.6646 46.3647 44.6652 45.9933C44.6658 45.7355 44.6665 45.4778 44.6671 45.22C44.6683 44.6792 44.6689 44.1385 44.6693 43.5977C44.6699 42.9045 44.6726 42.2113 44.6758 41.5182C44.6778 40.9856 44.6784 40.4531 44.6786 39.9205C44.6789 39.665 44.6798 39.4094 44.6813 39.1538C44.6832 38.7964 44.683 38.4391 44.6823 38.0817C44.6833 37.9759 44.6843 37.8702 44.6854 37.7612C44.681 37.0738 44.5854 36.6811 44.0859 36.1816C43.647 36.1329 43.4041 36.1099 43.0422 36.3765Z" fill="#1A4C6D"/>
<path d="M3.51821 53.0889C3.64936 53.0886 3.64936 53.0886 3.78316 53.0882C4.07859 53.0876 4.374 53.0877 4.66942 53.0879C4.88239 53.0876 5.09535 53.0873 5.30831 53.0869C5.89545 53.086 6.48258 53.0858 7.06971 53.0857C7.70218 53.0855 8.33464 53.0847 8.96711 53.0839C10.3509 53.0824 11.7346 53.0817 13.1184 53.0813C13.9818 53.0809 14.8453 53.0805 15.7087 53.08C18.0978 53.0786 20.4869 53.0775 22.8759 53.0771C23.0305 53.0771 23.185 53.077 23.3395 53.077C23.4944 53.077 23.6493 53.077 23.8042 53.0769C24.115 53.0769 24.4257 53.0768 24.7365 53.0768C24.8135 53.0768 24.8906 53.0768 24.97 53.0768C27.4693 53.0764 29.9686 53.0746 32.4679 53.072C35.1093 53.0692 37.7507 53.0677 40.3922 53.0676C41.8324 53.0675 43.2727 53.0668 44.713 53.0648C45.9392 53.0631 47.1653 53.0625 48.3915 53.0635C49.0175 53.0639 49.6434 53.0638 50.2694 53.0622C50.842 53.0608 51.4145 53.0609 51.9871 53.0623C52.1947 53.0625 52.4023 53.0622 52.6099 53.0612C52.8913 53.06 53.1725 53.0608 53.4539 53.0621C53.5759 53.0609 53.5759 53.0609 53.7003 53.0596C54.3214 53.066 54.673 53.2257 55.1075 53.6602C55.1449 53.8854 55.1449 53.8854 55.1492 54.1472C55.1524 54.2331 55.1555 54.3189 55.1588 54.4073C55.0857 54.7703 54.9553 54.8824 54.6622 55.1074C54.357 55.1511 54.0965 55.1673 53.7915 55.1635C53.7027 55.1641 53.614 55.1648 53.5226 55.1654C53.2234 55.1671 52.9244 55.1655 52.6252 55.164C52.4093 55.1645 52.1934 55.1652 51.9775 55.1661C51.3828 55.168 50.7881 55.167 50.1934 55.1657C49.5526 55.1647 48.9118 55.1662 48.2709 55.1674C47.015 55.1694 45.7591 55.169 44.5032 55.1677C43.4828 55.1667 42.4624 55.1666 41.442 55.167C41.297 55.1671 41.152 55.1672 41.0026 55.1672C40.708 55.1674 40.4134 55.1675 40.1188 55.1677C37.4329 55.1689 34.7471 55.1676 32.0613 55.1653C29.6083 55.1632 27.1554 55.1634 24.7024 55.1655C21.9478 55.1679 19.1933 55.1688 16.4387 55.1675C16.1451 55.1673 15.8516 55.1672 15.5581 55.167C15.4137 55.167 15.2692 55.1669 15.1204 55.1668C14.1008 55.1664 13.0812 55.1671 12.0617 55.1681C10.8197 55.1694 9.57781 55.1691 8.33588 55.1667C7.7018 55.1655 7.06773 55.1651 6.43365 55.1665C5.8538 55.1678 5.27398 55.1671 4.69414 55.1648C4.48377 55.1643 4.27341 55.1645 4.06305 55.1656C3.7782 55.1669 3.4935 55.1656 3.20867 55.1635C3.12602 55.1645 3.04337 55.1656 2.95822 55.1666C2.57417 55.161 2.37283 55.1343 2.06457 54.8967C1.8132 54.5537 1.8304 54.3092 1.84872 53.8968C1.89264 53.6602 1.89264 53.6602 2.09442 53.3819C2.55285 53.0675 2.98401 53.0876 3.51821 53.0889Z" fill="#40404B"/>
<path d="M48.4277 32.2852C49.7136 32.2852 50.9994 32.2852 52.3242 32.2852C52.3242 38.5674 52.3242 44.8496 52.3242 51.3223C51.0384 51.3223 49.7525 51.3223 48.4277 51.3223C48.4277 45.04 48.4277 38.7578 48.4277 32.2852Z" fill="#40404B"/>
<path d="M4.67578 32.2852C5.96162 32.2852 7.24746 32.2852 8.57227 32.2852C8.57227 38.5674 8.57227 44.8496 8.57227 51.3223C7.28643 51.3223 6.00059 51.3223 4.67578 51.3223C4.67578 45.04 4.67578 38.7578 4.67578 32.2852Z" fill="#40404B"/>
<path d="M24.2069 16.3582C24.9499 16.7902 25.443 17.422 25.6702 18.2498C25.7579 18.6835 25.7531 19.1186 25.7542 19.5597C25.755 19.6611 25.7557 19.7624 25.7565 19.8669C25.7576 20.08 25.7581 20.2931 25.7581 20.5063C25.7586 20.832 25.7626 21.1575 25.7668 21.4832C25.7675 21.6909 25.7679 21.8986 25.7681 22.1063C25.7697 22.2033 25.7713 22.3003 25.773 22.4002C25.7695 22.8601 25.7547 23.0959 25.5044 23.4939C25.1993 23.7806 25.0156 23.8285 24.6079 23.8506C24.2933 23.8139 24.0604 23.7017 23.8303 23.484C23.573 23.0094 23.6786 22.4517 23.7129 21.9315C23.1251 21.9315 22.5373 21.9315 21.9317 21.9315C21.9386 22.1037 21.9454 22.2759 21.9525 22.4534C21.9519 22.9298 21.9224 23.2304 21.5977 23.6014C21.3 23.8353 21.1476 23.8239 20.7627 23.8102C20.3143 23.6981 20.1929 23.6415 19.9278 23.2675C19.8596 22.9011 19.8627 22.539 19.8647 22.1672C19.864 22.0593 19.8633 21.9514 19.8626 21.8402C19.8618 21.6117 19.8622 21.3831 19.8636 21.1546C19.8651 20.8078 19.8614 20.4614 19.8571 20.1146C19.857 19.892 19.8572 19.6693 19.8577 19.4466C19.8555 19.293 19.8555 19.293 19.8533 19.1362C19.8657 18.258 20.147 17.5501 20.7101 16.8731C20.7803 16.8156 20.8505 16.7582 20.9228 16.6991C20.9926 16.6394 21.0625 16.5797 21.1345 16.5182C22.0162 15.957 23.2638 15.9393 24.2069 16.3582ZM22.1682 18.3481C21.8132 18.8807 21.8936 19.2955 21.9317 19.9276C22.5195 19.9276 23.1073 19.9276 23.7129 19.9276C23.7772 19.0296 23.7772 19.0296 23.3789 18.2577C22.9251 18.0308 22.5901 18.0822 22.1682 18.3481Z" fill="black"/>
<path d="M28.7518 16.0686C28.8856 16.0679 29.0194 16.0671 29.1573 16.0664C29.3658 16.0696 29.3658 16.0696 29.5785 16.0729C29.7153 16.0708 29.8522 16.0686 29.9931 16.0664C30.9648 16.0716 31.7576 16.2252 32.497 16.8894C33.0897 17.5085 33.3017 18.1784 33.3428 19.0231C33.315 19.9422 32.9746 20.6241 32.313 21.2566C31.4437 21.9443 30.5803 21.9808 29.502 21.9316C29.5071 22.0135 29.5123 22.0955 29.5176 22.1799C29.5507 23.0749 29.5507 23.0749 29.2932 23.5041C29.0115 23.7526 28.8951 23.8174 28.5209 23.8589C28.0847 23.8162 27.9197 23.6803 27.6094 23.3788C27.4644 23.0888 27.4807 22.8718 27.4766 22.547C27.4748 22.4195 27.473 22.2921 27.4712 22.1608C27.4662 21.5776 27.4616 20.9944 27.4591 20.4112C27.4576 20.1033 27.4545 19.7955 27.4499 19.4877C27.4434 19.0445 27.4414 18.6014 27.4398 18.1582C27.4373 18.0205 27.4347 17.8828 27.4321 17.741C27.4345 16.7965 27.4345 16.7965 27.7364 16.3343C28.1064 16.1113 28.3215 16.0708 28.7518 16.0686ZM29.502 18.1464C29.502 18.7342 29.502 19.322 29.502 19.9277C30.3406 19.9804 30.3406 19.9804 31.0606 19.5937C31.3216 19.2725 31.3216 19.2725 31.2693 18.87C31.2082 18.4846 31.2082 18.4846 30.9831 18.2904C30.6623 18.1104 30.4518 18.1125 30.0864 18.1255C29.8936 18.1324 29.7007 18.1393 29.502 18.1464Z" fill="black"/>
<path d="M36.5157 16.1425C36.795 16.3259 36.912 16.4151 37.0724 16.6992C37.1569 17.1903 37.1476 17.6774 37.1424 18.1747C37.1426 18.3187 37.1429 18.4626 37.1432 18.6109C37.1435 18.915 37.1419 19.219 37.1388 19.523C37.135 19.9122 37.1357 20.3013 37.1378 20.6906C37.1392 21.0627 37.1372 21.4347 37.1354 21.8068C37.136 21.9464 37.1365 22.086 37.1371 22.2299C37.1353 22.3596 37.1336 22.4893 37.1317 22.6229C37.1311 22.7369 37.1304 22.8509 37.1297 22.9684C37.057 23.3479 36.9289 23.4781 36.627 23.7128C36.1926 23.8313 35.9525 23.8684 35.5346 23.692C35.2001 23.4148 35.0834 23.1923 35.0394 22.7584C35.0389 22.6503 35.0384 22.5422 35.0379 22.4309C35.0368 22.3079 35.0358 22.1849 35.0347 22.0582C35.0348 21.9258 35.0349 21.7935 35.035 21.6572C35.0345 21.5208 35.034 21.3843 35.0335 21.2438C35.0329 20.9553 35.0328 20.6668 35.0333 20.3782C35.0337 19.9367 35.031 19.4953 35.0282 19.0538C35.028 18.7735 35.0279 18.4933 35.028 18.213C35.027 18.0809 35.026 17.9488 35.0249 17.8127C35.0256 17.6893 35.0263 17.566 35.027 17.4389C35.0269 17.3307 35.0269 17.2226 35.0268 17.1111C35.0762 16.7543 35.1922 16.544 35.4024 16.2539C35.754 16.0781 36.1379 16.0513 36.5157 16.1425Z" fill="black"/>
<path d="M51.5302 26.8311C51.9704 27.1618 52.1664 27.5373 52.3243 28.0548C52.402 28.7545 52.296 29.2604 51.879 29.8361C51.4702 30.2541 51.0298 30.4816 50.4439 30.5179C49.8945 30.4854 49.4126 30.3562 48.9992 29.9817C48.4679 29.3729 48.3887 28.9736 48.3965 28.1644C48.4511 27.5851 48.7291 27.3043 49.1306 26.9137C49.9014 26.4117 50.7207 26.3941 51.5302 26.8311Z" fill="#40404B"/>
<path d="M8.19254 27.2049C8.63002 27.7114 8.61923 28.1954 8.60741 28.8435C8.54561 29.4126 8.26726 29.6915 7.88334 30.0863C7.32899 30.4313 6.74876 30.5713 6.10209 30.4412C5.49293 30.2495 5.11484 29.9103 4.80094 29.3557C4.60248 28.7052 4.57944 28.208 4.84965 27.5884C5.16745 27.0179 5.60538 26.7035 6.22038 26.503C7.02739 26.4868 7.59097 26.6616 8.19254 27.2049Z" fill="#40404B"/>
<defs>
<linearGradient id="paint0_linear_178_1726" x1="28.4999" y1="0.865234" x2="28.4999" y2="32.2852" gradientUnits="userSpaceOnUse">
<stop stop-color="#1A4C6D"/>
<stop offset="1" stop-color="#179C69"/>
</linearGradient>
</defs>
</svg>
