<?xml version="1.0" standalone="no"?>
<!DOCTYPE svg PUBLIC "-//W3C//DTD SVG 20010904//EN"
 "http://www.w3.org/TR/2001/REC-SVG-20010904/DTD/svg10.dtd">
<svg version="1.0" xmlns="http://www.w3.org/2000/svg"
 width="1024.000000pt" height="1024.000000pt" viewBox="0 0 1024.000000 1024.000000"
 preserveAspectRatio="xMidYMid meet">

<g transform="translate(0.000000,1024.000000) scale(0.100000,-0.100000)"
fill="#000000" stroke="none">
<path d="M5465 10205 c-269 -70 -510 -193 -715 -364 -41 -35 -1014 -984 -2162
-2110 -1773 -1738 -2092 -2055 -2120 -2106 -31 -56 -33 -66 -33 -160 0 -95 2
-103 34 -163 40 -74 93 -124 171 -161 47 -22 68 -26 150 -26 157 0 150 -5 583
418 204 201 1148 1126 2097 2057 949 930 1754 1714 1790 1741 90 69 266 154
385 186 92 26 114 28 280 27 162 0 190 -3 277 -26 196 -53 359 -149 503 -294
351 -355 405 -892 134 -1315 -71 -110 105 66 -1852 -1853 -1242 -1218 -1441
-1417 -1465 -1465 -24 -50 -27 -67 -27 -156 0 -86 4 -107 25 -150 95 -195 352
-264 531 -142 25 18 758 731 1629 1585 1006 988 1608 1571 1654 1603 378 267
872 277 1251 24 402 -267 582 -725 465 -1180 -30 -117 -117 -285 -197 -383
-37 -46 -923 -921 -1968 -1946 -1975 -1937 -1945 -1906 -2010 -2051 -87 -197
-87 -462 0 -660 58 -130 106 -184 540 -612 502 -494 494 -488 659 -488 90 0
107 3 158 28 180 88 252 296 166 476 -23 49 -43 70 -540 558 -348 342 -350
346 -312 417 11 18 857 855 1881 1859 1023 1004 1896 1862 1938 1908 202 220
353 523 417 841 20 97 23 143 23 328 0 185 -3 231 -23 328 -155 768 -785 1353
-1567 1457 -115 15 -339 18 -438 6 l-59 -7 6 29 c25 123 15 393 -20 565 -129
631 -581 1136 -1199 1341 -203 67 -235 71 -592 71 l-318 -1 -130 -34z"/>
<path d="M5816 8824 c-27 -8 -66 -27 -88 -40 -49 -31 -3148 -3070 -3224 -3162
-217 -261 -354 -583 -394 -925 -19 -155 -8 -399 24 -548 115 -540 455 -980
950 -1229 390 -197 807 -249 1235 -154 145 33 257 72 397 139 118 57 284 163
374 240 30 26 758 736 1618 1578 1769 1734 1627 1581 1627 1747 0 76 -3 93
-33 152 -64 131 -179 201 -327 202 -70 0 -90 -4 -150 -32 -58 -28 -94 -58
-249 -211 -1086 -1071 -2952 -2892 -3004 -2931 -89 -67 -246 -144 -357 -175
-538 -153 -1107 120 -1315 632 -130 321 -90 689 107 986 59 88 -29 0 1751
1745 1561 1532 1495 1463 1522 1587 32 143 -54 306 -196 376 -79 39 -188 49
-268 23z"/>
</g>
</svg>
