<svg width="33" height="33" viewBox="0 0 33 33" fill="none" xmlns="http://www.w3.org/2000/svg">
<rect width="32.5" height="32.5" rx="16.25" fill="#E0E8ED"/>
<g clip-path="url(#clip0_185_1793)">
<path d="M16.6738 6.06835C16.1484 6.20507 15.6777 6.44531 15.2773 6.77929C15.1973 6.84765 13.2969 8.70117 11.0547 10.9004C7.5918 14.2949 6.96875 14.9141 6.91406 15.0137C6.85352 15.123 6.84961 15.1426 6.84961 15.3262C6.84961 15.5117 6.85352 15.5273 6.91602 15.6445C6.99414 15.7891 7.09766 15.8867 7.25 15.959C7.3418 16.0019 7.38281 16.0098 7.54297 16.0098C7.84961 16.0098 7.83594 16.0195 8.68164 15.1934C9.08008 14.8008 10.9238 12.9941 12.7773 11.1758C14.6309 9.35937 16.2031 7.82812 16.2734 7.77538C16.4492 7.64062 16.793 7.4746 17.0254 7.4121C17.2051 7.36132 17.248 7.35742 17.5723 7.35937C17.8887 7.35937 17.9434 7.36523 18.1133 7.41015C18.4961 7.51367 18.8145 7.70117 19.0957 7.98437C19.7812 8.67773 19.8867 9.72656 19.3574 10.5527C19.2188 10.7676 19.5625 10.4238 15.7402 14.1719C13.3145 16.5508 12.9258 16.9394 12.8789 17.0332C12.832 17.1309 12.8262 17.1641 12.8262 17.3379C12.8262 17.5059 12.834 17.5469 12.875 17.6309C13.0605 18.0117 13.5625 18.1465 13.9121 17.9082C13.9609 17.873 15.3926 16.4805 17.0938 14.8125C19.0586 12.8828 20.2344 11.7441 20.3242 11.6816C21.0625 11.1601 22.0273 11.1406 22.7676 11.6348C23.5527 12.1562 23.9043 13.0508 23.6758 13.9394C23.6172 14.168 23.4473 14.4961 23.291 14.6875C23.2188 14.7773 21.4883 16.4863 19.4473 18.4883C15.5898 22.2715 15.6484 22.2109 15.5215 22.4941C15.3516 22.8789 15.3516 23.3965 15.5215 23.7832C15.6348 24.0371 15.7285 24.1426 16.5762 24.9785C17.5566 25.9434 17.541 25.9316 17.8633 25.9316C18.0391 25.9316 18.0723 25.9258 18.1719 25.8769C18.5234 25.7051 18.6641 25.2988 18.4961 24.9473C18.4512 24.8516 18.4121 24.8105 17.4414 23.8574C16.7617 23.1894 16.7578 23.1816 16.832 23.043C16.8535 23.0078 18.5059 21.373 20.5059 19.4121C22.5039 17.4512 24.209 15.7754 24.291 15.6855C24.6855 15.2559 24.9805 14.6641 25.1055 14.043C25.1445 13.8535 25.1504 13.7637 25.1504 13.4023C25.1504 13.041 25.1445 12.9512 25.1055 12.7617C24.8027 11.2617 23.5723 10.1191 22.0449 9.91601C21.8203 9.88671 21.3828 9.88085 21.1895 9.90429L21.0742 9.91796L21.0859 9.86132C21.1348 9.62109 21.1152 9.09374 21.0469 8.75781C20.7949 7.52538 19.9121 6.53906 18.7051 6.13867C18.3086 6.00781 18.2461 5.99999 17.5488 5.99999L16.9277 6.00195L16.6738 6.06835Z" fill="black"/>
<path d="M17.3593 8.76565C17.3066 8.78127 17.2304 8.81838 17.1874 8.84377C17.0917 8.90432 11.039 14.8399 10.8905 15.0196C10.4667 15.5293 10.1991 16.1582 10.121 16.8262C10.0839 17.1289 10.1054 17.6055 10.1679 17.8965C10.3925 18.9512 11.0566 19.8106 12.0234 20.2969C12.7851 20.6817 13.5995 20.7832 14.4355 20.5977C14.7187 20.5332 14.9374 20.4571 15.2109 20.3262C15.4413 20.2149 15.7655 20.0078 15.9413 19.8574C15.9999 19.8067 17.4218 18.4199 19.1015 16.7754C22.5566 13.3887 22.2792 13.6875 22.2792 13.3633C22.2792 13.2149 22.2734 13.1817 22.2148 13.0664C22.0898 12.8106 21.8652 12.6738 21.5761 12.6719C21.4394 12.6719 21.4003 12.6797 21.2831 12.7344C21.1698 12.7891 21.0995 12.8477 20.7968 13.1465C18.6757 15.2383 15.0312 18.7949 14.9296 18.8711C14.7558 19.002 14.4491 19.1524 14.2323 19.2129C13.1816 19.5117 12.0702 18.9785 11.664 17.9785C11.4101 17.3516 11.4882 16.6328 11.873 16.0528C11.9882 15.8809 11.8163 16.0528 15.2929 12.6446C18.3417 9.65236 18.2128 9.78713 18.2655 9.54494C18.328 9.26565 18.1601 8.94729 17.8827 8.81057C17.7284 8.7344 17.5155 8.71486 17.3593 8.76565Z" fill="black"/>
</g>
<defs>
<clipPath id="clip0_185_1793">
<rect width="20" height="20" fill="white" transform="translate(6 6)"/>
</clipPath>
</defs>
</svg>
