<svg width="50" height="33" viewBox="0 0 50 33" fill="none" xmlns="http://www.w3.org/2000/svg">
<g clip-path="url(#clip0_177_428)">
<path d="M34.0202 1.53857H16.749C15.8821 1.53857 15.0576 1.91355 14.4879 2.56691L7 11.154L9.6154 13.4616L23.0769 18.077H31.9231L39.2308 14.6155L43.7693 11.154L36.2813 2.5669C35.7116 1.91355 34.8871 1.53857 34.0202 1.53857Z" fill="#E7EBE8"/>
<ellipse cx="25.3845" cy="26.5385" rx="25" ry="5.76923" fill="#F7F8FB"/>
<path d="M6.9231 11.7693C6.9231 11.217 7.37081 10.7693 7.9231 10.7693H14.5143C15.4676 10.7693 16.2884 11.4422 16.4754 12.3771L16.6015 13.0077C16.7885 13.9425 17.6093 14.6154 18.5627 14.6154H32.2066C33.1599 14.6154 33.9808 13.9425 34.1677 13.0077L34.2939 12.3771C34.4808 11.4422 35.3016 10.7693 36.255 10.7693H42.8462C43.3985 10.7693 43.8462 11.217 43.8462 11.7693V22.9231C43.8462 25.1323 42.0553 26.9231 39.8462 26.9231H25.3846H16.1539H10.9231C8.71396 26.9231 6.9231 25.1323 6.9231 22.9231V11.7693Z" fill="#EFFDF2"/>
<path d="M23.0769 26.9231H39.8462C42.0553 26.9231 43.8462 25.1323 43.8462 22.9231V11.7693C43.8462 11.217 43.3985 10.7693 42.8462 10.7693H36.255C35.3016 10.7693 34.4808 11.4422 34.2939 12.3771L34.1677 13.0077C33.9808 13.9425 33.1599 14.6154 32.2066 14.6154H31.9231M13.0769 26.9231H10.9231C8.71396 26.9231 6.9231 25.1323 6.9231 22.9231V11.7693C6.9231 11.217 7.37081 10.7693 7.9231 10.7693H14.5143C15.4676 10.7693 16.2884 11.4422 16.4754 12.3771L16.6015 13.0077C16.7885 13.9425 17.6093 14.6154 18.5627 14.6154H26.1539" stroke="black" stroke-linecap="round"/>
<path d="M43.7693 11.154L36.2813 2.5669C35.7116 1.91355 34.8871 1.53857 34.0202 1.53857H23.0769M7 11.154L14.4879 2.56691C15.0576 1.91355 15.8821 1.53857 16.749 1.53857H19.6153" stroke="black" stroke-linecap="round"/>
</g>
<defs>
<clipPath id="clip0_177_428">
<rect width="50" height="32.3077" fill="white"/>
</clipPath>
</defs>
</svg>
