<svg width="39" height="39" viewBox="0 0 39 39" fill="none" xmlns="http://www.w3.org/2000/svg">
<g clip-path="url(#clip0_175_326)">
<rect y="6.5" width="32.5" height="32.5" rx="16.25" fill="#E0E8ED"/>
<path d="M25.3721 24.8389C24.5929 24.4725 24.0522 23.6759 24.0522 22.7519C24.0522 21.8279 24.5929 21.0313 25.3881 20.6648C25.8652 20.4418 26.1196 19.932 25.9447 19.4381C25.8015 19.0079 25.6266 18.5937 25.4198 18.1954C25.1972 17.7334 24.6565 17.5422 24.1635 17.7175C23.3684 17.9883 22.446 17.813 21.8099 17.1758C21.1738 16.5385 20.983 15.6145 21.2692 14.8179C21.4282 14.3399 21.2533 13.7983 20.7921 13.5752C20.3787 13.3681 19.9493 13.1929 19.5358 13.0494C19.0587 12.8901 18.5499 13.1291 18.3113 13.5752C17.9296 14.3081 17.1663 14.802 16.2757 14.802C15.3852 14.802 14.6218 14.3081 14.2402 13.5752C14.0016 13.1291 13.4928 12.8902 13.0156 13.0494C12.6022 13.1928 12.1887 13.3521 11.7911 13.5593C11.3458 13.7823 11.1232 14.2921 11.2663 14.7701C11.5048 15.5507 11.314 16.4429 10.6938 17.0483C10.0736 17.6696 9.18304 17.8608 8.40378 17.6218C7.91081 17.4784 7.386 17.6856 7.14748 18.1476C6.95664 18.5459 6.78173 18.9442 6.63859 19.3584C6.47956 19.8204 6.7022 20.3303 7.13156 20.5692C7.8472 20.9516 8.34017 21.7163 8.34017 22.5925C8.34017 23.5006 7.81536 24.2813 7.06795 24.6477C6.62267 24.8708 6.40003 25.3647 6.54313 25.8267C6.67036 26.2409 6.82938 26.6551 7.02022 27.0534C7.24286 27.5314 7.79948 27.7544 8.30837 27.611C9.08762 27.3721 9.96226 27.5632 10.5825 28.1686C11.2345 28.8218 11.4094 29.7618 11.1073 30.5743C10.9323 31.0363 11.1232 31.5621 11.5525 31.8011C11.966 32.0241 12.3954 32.1994 12.8407 32.3586C13.3178 32.5339 13.8267 32.2949 14.0334 31.8329C14.3991 31.0682 15.1943 30.5265 16.1007 30.5265C17.0231 30.5265 17.8183 31.0682 18.184 31.8647C18.4066 32.3427 18.9314 32.6135 19.4244 32.4542C19.8538 32.3108 20.2832 32.1515 20.6807 31.9444C21.1419 31.7214 21.3328 31.1797 21.1578 30.7017C20.8557 29.8892 21.0306 28.9333 21.6826 28.2801C22.3347 27.6269 23.3047 27.4517 24.1158 27.7544C24.6087 27.9455 25.1654 27.7544 25.4039 27.2923C25.6107 26.894 25.7856 26.4798 25.9287 26.0496C26.0878 25.5717 25.8333 25.046 25.3721 24.8389ZM16.2441 27.7226C13.5088 27.7226 11.2824 25.4921 11.2824 22.7519C11.2824 20.0116 13.5088 17.7812 16.2441 17.7812C18.9794 17.7812 21.2058 20.0116 21.2058 22.7519C21.2058 25.4921 18.9794 27.7226 16.2441 27.7226Z" fill="url(#paint0_linear_175_326)"/>
<path d="M27.2049 7.39932C27.6919 7.17031 28.0299 6.67242 28.0299 6.09492C28.0299 5.51742 27.6919 5.01953 27.195 4.79052C26.8968 4.65112 26.7378 4.33249 26.8471 4.0238C26.9365 3.75496 27.0459 3.49605 27.1751 3.24713C27.3143 2.95836 27.6522 2.83887 27.9603 2.94841C28.4573 3.11768 29.0337 3.00815 29.4313 2.60986C29.8289 2.21157 29.9481 1.63404 29.7692 1.13618C29.6698 0.837458 29.7792 0.498909 30.0674 0.359507C30.3258 0.230062 30.5942 0.120531 30.8526 0.030904C31.1508 -0.0686691 31.4688 0.0806906 31.6179 0.359507C31.8565 0.817543 32.3336 1.12623 32.8902 1.12623C33.4468 1.12623 33.9238 0.817566 34.1624 0.359507C34.3115 0.080702 34.6295 -0.0686464 34.9277 0.030904C35.1861 0.12052 35.4446 0.220093 35.6931 0.349538C35.9714 0.488941 36.1105 0.807575 36.0211 1.10629C35.872 1.59421 35.9913 2.15182 36.3789 2.53018C36.7665 2.9185 37.3231 3.03799 37.8101 2.88864C38.1182 2.79903 38.4462 2.92847 38.5953 3.21725C38.7146 3.46619 38.8239 3.71511 38.9134 3.974C39.0128 4.26278 38.8736 4.58141 38.6053 4.73076C38.158 4.96973 37.8499 5.44769 37.8499 5.99533C37.8499 6.5629 38.1779 7.0508 38.645 7.27983C38.9233 7.41923 39.0625 7.72792 38.973 8.01667C38.8935 8.27556 38.7941 8.53445 38.6749 8.7834C38.5357 9.08212 38.1878 9.22152 37.8698 9.13189C37.3827 8.98253 36.8361 9.10202 36.4485 9.48039C36.0409 9.88865 35.9316 10.4761 36.1205 10.9839C36.2298 11.2727 36.1105 11.6013 35.8422 11.7507C35.5837 11.8901 35.3154 11.9996 35.0371 12.0992C34.7389 12.2087 34.4208 12.0593 34.2916 11.7705C34.063 11.2926 33.5661 10.954 32.9995 10.954C32.4231 10.954 31.9261 11.2926 31.6975 11.7905C31.5583 12.0892 31.2304 12.2584 30.9222 12.1589C30.6539 12.0693 30.3855 11.9697 30.137 11.8403C29.8488 11.7009 29.7295 11.3623 29.8389 11.0636C30.0277 10.5558 29.9184 9.95834 29.5109 9.55008C29.1033 9.14182 28.4971 9.0323 27.9901 9.22147C27.682 9.34096 27.3342 9.22147 27.1851 8.9327C27.0558 8.68376 26.9465 8.42489 26.857 8.15603C26.7577 7.85731 26.9167 7.52873 27.2049 7.39927V7.39932ZM32.9099 9.2016C34.6195 9.2016 36.011 7.80758 36.011 6.09492C36.011 4.38226 34.6195 2.98824 32.9099 2.98824C31.2004 2.98824 29.8089 4.38226 29.8089 6.09492C29.8089 7.80758 31.2004 9.2016 32.9099 9.2016Z" fill="#407893"/>
<rect x="12.1875" y="18.6875" width="8.125" height="8.125" rx="4.0625" fill="white"/>
<rect x="30.0625" y="3.25" width="5.6875" height="5.6875" rx="2.84375" fill="white"/>
<path d="M32.9062 6.09375L16.25 22.75" stroke="#40404B" stroke-width="1.5" stroke-linecap="round"/>
</g>
<defs>
<linearGradient id="paint0_linear_175_326" x1="16.25" y1="13" x2="16.25" y2="32.5" gradientUnits="userSpaceOnUse">
<stop stop-color="#86D5BD"/>
<stop offset="1" stop-color="#3B829B"/>
</linearGradient>
<clipPath id="clip0_175_326">
<rect width="39" height="39" fill="white"/>
</clipPath>
</defs>
</svg>
