<svg width="48" height="48" viewBox="0 0 48 48" fill="none" xmlns="http://www.w3.org/2000/svg">
    <path fill-rule="evenodd" clip-rule="evenodd" d="M8.07428 13.6715C8.11475 13.2766 8.28472 12.7526 8.82948 12.3194C8.8271 12.29 8.82473 12.2594 8.82241 12.2275C8.72405 10.876 8.70271 7.24089 10.9494 4.64475C12.5133 2.83685 14.837 1.92004 17.8535 1.92004H17.8563C20.8754 1.92077 23.1991 2.83829 24.764 4.64718C27.0094 7.24312 26.9885 10.8758 26.8903 12.2268C26.8879 12.2589 26.8856 12.2896 26.8832 12.319C27.4272 12.7516 27.5967 13.2749 27.6375 13.6695L27.6377 13.6711L27.6381 13.6758C27.815 15.4586 25.5701 17.6288 24.7867 18.3272L24.7848 18.3289C24.7402 18.3686 24.7005 18.4035 24.6662 18.4333C24.6428 18.4808 24.6192 18.5282 24.5954 18.5753L24.5928 18.5804C23.8422 20.0636 22.8785 21.3137 21.7938 22.2084L21.7922 22.2097C20.501 23.271 19.2239 23.808 17.9936 23.808C17.9408 23.808 17.8887 23.8074 17.8359 23.8051C17.834 23.8051 17.8321 23.805 17.8301 23.8049C16.4594 23.7517 15.1431 23.2156 13.9209 22.2107L13.9191 22.2092C12.7983 21.2844 11.807 19.9814 11.0462 18.4336C11.0118 18.4038 10.9719 18.3687 10.9272 18.3289C10.9134 18.3166 10.8992 18.3038 10.8845 18.2906C10.1838 17.6605 8.49336 16.009 8.13251 14.4466C8.07186 14.184 8.04878 13.9238 8.07428 13.6715ZM11.2875 14.4606C11.3567 14.5629 11.4359 14.672 11.5252 14.7871C12.0454 15.4574 12.6758 16.0344 12.9347 16.2593L13.3742 16.6409L13.6309 17.1633C14.2445 18.4118 14.9996 19.3667 15.7515 19.9874C16.564 20.655 17.2919 20.9018 17.9413 20.927L17.9501 20.9274L17.9578 20.9277C17.9578 20.9277 17.9673 20.928 17.9936 20.928C18.3524 20.928 19.0029 20.7739 19.9614 19.9865C20.7124 19.367 21.4676 18.412 22.0815 17.1629L22.3384 16.6402L22.7782 16.2584C23.0367 16.034 23.6672 15.457 24.1873 14.7868C24.2295 14.7325 24.2694 14.6794 24.3071 14.6279C21.527 14.2113 19.4831 12.9354 17.9569 11.9826L17.9413 11.9729C17.335 11.5941 16.8543 11.296 16.421 11.0853C15.9835 10.8726 15.7332 10.8209 15.5969 10.8209C15.5308 10.8209 15.4408 10.8311 15.2467 10.9898C15.0105 11.1829 14.7664 11.4724 14.3787 11.9463M22.586 6.53148C23.9021 8.05319 24.0808 10.3398 24.0372 11.6495ZM24.0372 11.6495C22.2398 11.242 20.8116 10.3696 19.4664 9.52984L19.4334 9.50921C18.8713 9.15806 18.2663 8.78014 17.6802 8.49519C17.0866 8.2066 16.3724 7.94094 15.5969 7.94094C14.6828 7.94094 13.9695 8.31396 13.4236 8.76029C12.9403 9.15551 12.5228 9.66618 12.1911 10.0719C12.1771 10.089 12.1633 10.1059 12.1496 10.1226C11.9875 10.3208 11.8349 10.5037 11.6881 10.6701C11.7639 9.37678 12.0978 7.71883 13.1271 6.52935C14.0063 5.51305 15.4367 4.80004 17.8535 4.80004H17.8556C20.2743 4.80076 21.7056 5.51393 22.586 6.53148M11.2875 14.4606C12.7657 13.921 13.6995 12.7778 14.3256 12.0112C14.3435 11.9893 14.3613 11.9675 14.3787 11.9463" fill="#5567D5"/>
    <path fill-rule="evenodd" clip-rule="evenodd" d="M29.7685 18.4329C29.8023 18.1039 29.9439 17.6671 30.3979 17.3061C30.3959 17.2817 30.3939 17.2562 30.392 17.2296C30.31 16.1034 30.2922 13.0741 32.1645 10.9106C33.4677 9.40404 35.4041 8.64004 37.9179 8.64004H37.9203C40.4362 8.64064 42.3725 9.40525 43.6767 10.9127C45.5479 13.0759 45.5304 16.1032 45.4485 17.229C45.4466 17.2557 45.4446 17.2813 45.4426 17.3058C45.896 17.6664 46.0373 18.1024 46.0712 18.4313L46.0714 18.4326L46.0718 18.4365C46.2192 19.9221 44.3484 21.7306 43.6956 22.3127L43.694 22.3141C43.6568 22.3472 43.6237 22.3763 43.5951 22.4011C43.5756 22.4407 43.556 22.4802 43.5361 22.5194L43.534 22.5236C42.9085 23.7597 42.1054 24.8014 41.2015 25.547L41.2001 25.5481C40.1242 26.4325 39.0599 26.88 38.0347 26.88C37.9907 26.88 37.9472 26.8795 37.9032 26.8776C37.9016 26.8776 37.9 26.8775 37.8984 26.8774C36.7562 26.8331 35.6592 26.3864 34.6408 25.549L34.6392 25.5477C33.7052 24.777 32.8791 23.6912 32.2452 22.4014C32.2165 22.3765 32.1833 22.3473 32.146 22.3141C32.1345 22.3038 32.1226 22.2932 32.1104 22.2822C31.5265 21.7571 30.1178 20.3808 29.8171 19.0788C29.7665 18.86 29.7473 18.6432 29.7685 18.4329ZM32.4462 19.0905C32.5039 19.1757 32.5699 19.2667 32.6443 19.3626C33.0778 19.9211 33.6032 20.402 33.8189 20.5894L34.1851 20.9074L34.399 21.3427C34.9104 22.3831 35.5396 23.1789 36.1663 23.6962C36.8433 24.2525 37.4499 24.4582 37.9911 24.4792L37.9984 24.4795L38.0048 24.4798C38.0048 24.4798 38.0127 24.48 38.0347 24.48C38.3336 24.48 38.8757 24.3516 39.6745 23.6954C40.3004 23.1791 40.9296 22.3833 41.4412 21.3425L41.6553 20.9069L42.0218 20.5887C42.2372 20.4017 42.7626 19.9209 43.1961 19.3624C43.2312 19.3171 43.2645 19.2729 43.2959 19.2299C40.9791 18.8827 39.2759 17.8195 38.0041 17.0255L37.9911 17.0174C37.4858 16.7018 37.0853 16.4533 36.7241 16.2778C36.3596 16.1005 36.151 16.0575 36.0374 16.0575C35.9824 16.0575 35.9073 16.066 35.7456 16.1982C35.5488 16.3591 35.3453 16.6003 35.0222 16.9952M41.8616 12.4829C42.9584 13.751 43.1074 15.6565 43.071 16.7479ZM43.071 16.7479C41.5732 16.4084 40.383 15.6813 39.262 14.9815L39.2345 14.9644C38.7661 14.6717 38.2619 14.3568 37.7735 14.1193C37.2788 13.8788 36.6836 13.6575 36.0374 13.6575C35.2757 13.6575 34.6812 13.9683 34.2263 14.3402C33.8236 14.6696 33.4756 15.0952 33.1992 15.4333C33.1876 15.4475 33.176 15.4616 33.1646 15.4755C33.0295 15.6407 32.9024 15.7931 32.7801 15.9317C32.8432 14.854 33.1215 13.4724 33.9793 12.4811C34.7119 11.6342 35.9039 11.04 37.9179 11.04H37.9197C39.9353 11.0406 41.1279 11.635 41.8616 12.4829M32.4462 19.0905C33.6781 18.6408 34.4562 17.6882 34.978 17.0493C34.9929 17.0311 35.0077 17.0129 35.0222 16.9952" fill="#5567D5"/>
    <path fill-rule="evenodd" clip-rule="evenodd" d="M14.1415 24.8931L14.139 24.887C14.139 24.887 14.1582 24.9248 14.2085 25.0174C14.2711 25.1324 14.3651 25.2999 14.4872 25.504C14.7326 25.9141 15.0847 26.4603 15.5171 27.0213C16.331 28.0774 17.2525 28.9517 18.1264 29.3099C18.8511 29.0206 19.6371 28.3995 20.3752 27.5653C21.217 26.6139 21.8309 25.5732 22.0834 24.9503L22.0842 24.9484C22.4577 24.0308 23.5813 23.1128 24.9039 23.6904C25.2348 23.8334 25.494 23.9357 25.7293 24.0286L25.8473 24.0752C26.1046 24.1772 26.3803 24.2883 26.6561 24.4367C27.2502 24.7564 27.2456 24.8674 27.919 25.5647C28.4715 26.1368 28.4556 27.0484 27.8835 27.6008C27.3114 28.1533 26.3998 28.1374 25.8473 27.5653C25.2099 26.9052 25.4711 27.0695 25.2915 26.9729C25.1804 26.9131 25.0477 26.8562 24.7864 26.7527L24.6765 26.7093C24.6152 26.6851 24.5495 26.6591 24.4791 26.6312C24.0412 27.5025 23.3604 28.5376 22.5321 29.4737C21.522 30.6154 20.1218 31.8044 18.4757 32.2185L18.1256 32.3066L17.7753 32.2191C15.7888 31.7228 14.2144 30.049 13.2359 28.7793C12.7177 28.1069 12.3028 27.4623 12.0159 26.9829C11.943 26.861 11.8779 26.7491 11.8211 26.6493C6.96766 29.1448 3.49702 35.3649 3.36397 42.72H6.76683C7.56212 42.72 8.20683 43.3648 8.20683 44.16C8.20683 44.9553 7.56212 45.6 6.76683 45.6H2.68264C1.92677 45.6 1.34432 45.1944 0.99769 44.7392C0.652029 44.2853 0.480011 43.7216 0.480011 43.1586C0.480011 34.5059 4.68582 26.5705 11.3475 23.6892C12.6527 23.1232 13.7486 24.0003 14.1415 24.8931Z" fill="#5567D5"/>
    <path fill-rule="evenodd" clip-rule="evenodd" d="M34.5837 29.1023L34.5814 29.0968C34.5814 29.0968 34.599 29.1312 34.6451 29.2158C34.7023 29.3208 34.7883 29.4736 34.9001 29.6599C35.1247 30.0341 35.447 30.5326 35.8427 31.0445C36.5877 32.0084 37.431 32.8064 38.2309 33.1332C38.8942 32.8692 39.6136 32.3024 40.2891 31.5411C41.0596 30.6728 41.6215 29.723 41.8526 29.1546L41.8533 29.1528C42.1952 28.3154 43.2236 27.4776 44.4341 28.0047C44.7369 28.1352 44.9741 28.2286 45.1895 28.3133L45.2975 28.3559C45.533 28.4489 45.7853 28.5504 46.0377 28.6858C46.5815 28.9775 47.0137 29.3664 47.6301 30.0028C48.1357 30.5248 48.1212 31.3568 47.5976 31.861C47.074 32.3652 46.2396 32.3507 45.734 31.8286C45.1505 31.2261 44.9532 31.0886 44.7888 31.0004C44.6871 30.9458 44.5656 30.8939 44.3265 30.7994L44.2259 30.7598C44.1698 30.7377 44.1096 30.7141 44.0453 30.6885C43.6445 31.4837 43.0213 32.4284 42.2632 33.2828C41.3387 34.3247 40.0572 35.4097 38.5506 35.7877L38.2302 35.8681L37.9096 35.7882C36.0914 35.3353 34.6504 33.8077 33.7549 32.649C33.2806 32.0353 32.9008 31.447 32.6382 31.0095C32.5715 30.8983 32.512 30.7962 32.4599 30.7051C28.733 32.6159 25.8969 36.9195 25.0084 42.2201C24.8952 42.8958 24.3178 43.4089 23.6329 43.3955C22.8606 43.3803 22.2622 42.7084 22.3853 41.9459C23.4072 35.6175 26.9323 30.2007 32.0265 28.0036C33.2211 27.4871 34.2241 28.2876 34.5837 29.1023Z" fill="#5567D5"/>
</svg>
