<svg width="48" height="48" viewBox="0 0 48 48" fill="none" xmlns="http://www.w3.org/2000/svg">
<path fill-rule="evenodd" clip-rule="evenodd" d="M24 9.11994C21.0839 9.11994 18.72 11.4839 18.72 14.3999C18.72 17.316 21.0839 19.6799 24 19.6799C26.916 19.6799 29.28 17.316 29.28 14.3999C29.28 11.4839 26.916 9.11994 24 9.11994ZM21.6 14.3999C21.6 13.0745 22.6745 11.9999 24 11.9999C25.3255 11.9999 26.4 13.0745 26.4 14.3999C26.4 15.7254 25.3255 16.7999 24 16.7999C22.6745 16.7999 21.6 15.7254 21.6 14.3999Z" fill="#5567D5"/>
<path fill-rule="evenodd" clip-rule="evenodd" d="M24.7718 2.29676C25.6586 1.04081 27.2965 0.567158 28.7165 1.15391L29.1341 1.32644C29.4251 1.44664 29.6751 1.54993 30.0293 1.69648C31.4513 2.28488 32.2748 3.77987 32.0142 5.29542C31.9916 5.42729 32.0343 5.56195 32.129 5.65656L32.7434 6.27097C32.838 6.36558 32.9726 6.40836 33.1045 6.38569C34.62 6.12517 36.1151 6.94858 36.7034 8.37082C36.8303 8.67761 36.9249 8.90669 37.0261 9.15173L37.2457 9.68338C37.8325 11.1032 37.3592 12.7413 36.1031 13.6282C35.9944 13.7049 35.9298 13.8296 35.9298 13.9626V14.8371C35.9298 14.9702 35.9944 15.095 36.1032 15.1718C37.3591 16.0586 37.8328 17.6964 37.246 19.1164L37.073 19.5352C36.953 19.8257 36.8498 20.0756 36.7034 20.4293C36.115 21.8513 34.6201 22.6747 33.1045 22.4142C32.9726 22.3915 32.838 22.4343 32.7434 22.5289L32.129 23.1433C32.0343 23.2379 31.9916 23.3726 32.0142 23.5045C32.2748 25.02 31.4513 26.5151 30.0291 27.1034C29.7233 27.2299 29.4947 27.3243 29.2505 27.4251L28.7165 27.6457C27.2967 28.2325 25.6587 27.7591 24.7718 26.503C24.695 26.3944 24.5703 26.3297 24.4373 26.3297H23.5628C23.4297 26.3297 23.3049 26.3944 23.2281 26.5031C22.3414 27.7591 20.7035 28.2327 19.2835 27.646L18.8672 27.474C18.5756 27.3536 18.3254 27.2502 17.9707 27.1034C16.5487 26.515 15.7252 25.02 15.9857 23.5045C16.0084 23.3726 15.9656 23.2379 15.871 23.1433L15.2566 22.5289C15.162 22.4343 15.0273 22.3915 14.8955 22.4142C13.38 22.6747 11.8848 21.8513 11.2965 20.4291C11.1698 20.1227 11.0753 19.8939 10.9743 19.6492L10.7542 19.1165C10.1674 17.6966 10.6408 16.0586 11.8969 15.1717C12.0056 15.095 12.0702 14.9703 12.0702 14.8372V13.9628C12.0702 13.8297 12.0055 13.7049 11.8968 13.6281C10.6409 12.7413 10.1672 11.1034 10.754 9.68346L10.9296 9.25828C11.0485 8.9705 11.1512 8.72172 11.2965 8.37061C11.8849 6.94863 13.3799 6.12516 14.8955 6.38569C15.0273 6.40836 15.162 6.36558 15.2566 6.27097L15.871 5.65656C15.9656 5.56195 16.0084 5.42729 15.9857 5.29542C15.7252 3.77993 16.5486 2.28479 17.9709 1.6965C18.2774 1.5697 18.5064 1.47515 18.7512 1.37404L19.2834 1.15418C20.7033 0.567389 22.3413 1.04074 23.2282 2.29686C23.3049 2.40553 23.4297 2.47015 23.5627 2.47015H24.4372C24.5703 2.47015 24.6951 2.40549 24.7718 2.29676ZM27.6166 3.81562C27.439 3.74222 27.2348 3.80171 27.1245 3.95789C26.5081 4.83096 25.5059 5.35015 24.4372 5.35015H23.5627C22.494 5.35015 21.4919 4.83099 20.8755 3.95799C20.7653 3.80193 20.5612 3.74237 20.3834 3.81584L19.8484 4.03686C19.6047 4.13749 19.3774 4.23136 19.0717 4.35782C18.8948 4.43099 18.7914 4.61748 18.8241 4.80749C19.0052 5.86111 18.6634 6.93708 17.9075 7.69303L17.2931 8.30743C16.5371 9.06339 15.4612 9.40518 14.4075 9.22405C14.2176 9.1914 14.031 9.29471 13.9577 9.47177C13.8114 9.82532 13.7085 10.0743 13.5884 10.3652L13.4157 10.7833C13.3423 10.961 13.4018 11.1652 13.5579 11.2754C14.431 11.8919 14.9502 12.894 14.9502 13.9628V14.8372C14.9502 15.9059 14.431 16.908 13.558 17.5244C13.402 17.6346 13.3424 17.8387 13.4159 18.0165L13.6421 18.564C13.7407 18.803 13.8336 19.0277 13.9579 19.3282C14.031 19.5051 14.2175 19.6085 14.4075 19.5758C15.4612 19.3947 16.5371 19.7365 17.2931 20.4924L17.9075 21.1069C18.6634 21.8628 19.0052 22.9388 18.8241 23.9924C18.7914 24.1824 18.8948 24.369 19.0718 24.4422C19.4256 24.5886 19.6747 24.6915 19.9658 24.8118L20.3834 24.9843C20.561 25.0577 20.7652 24.9982 20.8755 24.842C21.4919 23.9689 22.4941 23.4497 23.5628 23.4497H24.4373C25.506 23.4497 26.508 23.9689 27.1244 24.8419C27.2346 24.998 27.4388 25.0575 27.6166 24.984L28.1496 24.7638L28.1513 24.7632L28.1554 24.7615C28.3976 24.6614 28.6241 24.5679 28.9283 24.4421C29.1052 24.3689 29.2085 24.1824 29.1759 23.9924C28.9948 22.9388 29.3365 21.8628 30.0925 21.1069L30.7069 20.4925C31.4628 19.7365 32.5388 19.3947 33.5924 19.5758C33.7824 19.6085 33.969 19.5052 34.0423 19.3281C34.1887 18.9743 34.2916 18.7251 34.4119 18.434L34.5843 18.0166C34.6577 17.8389 34.5982 17.6347 34.442 17.5245C33.569 16.908 33.0498 15.9059 33.0498 14.8371V13.9626C33.0498 12.894 33.5689 11.8919 34.4419 11.2755C34.598 11.1653 34.6576 10.9611 34.5841 10.7834L34.3516 10.2205C34.2552 9.98718 34.1637 9.76569 34.0421 9.47163C33.9689 9.29474 33.7824 9.19139 33.5924 9.22405C32.5388 9.40518 31.4628 9.06339 30.7069 8.30744L30.0925 7.69303C29.3365 6.93708 28.9948 5.86111 29.1759 4.80749C29.2085 4.61752 29.1052 4.43092 28.9282 4.35766C28.5757 4.2118 28.3271 4.10911 28.0373 3.98944L27.6166 3.81562Z" fill="#5567D5"/>
<path fill-rule="evenodd" clip-rule="evenodd" d="M2.40305 24.1524C1.85016 24.4302 1.41408 24.9007 1.18014 25.4784C0.651388 26.7844 1.28016 28.2686 2.58455 28.7935L6.88587 30.645L2.59155 32.3837L2.40305 32.4691C1.85016 32.7469 1.41408 33.2173 1.18014 33.7951C0.651388 35.1011 1.28016 36.5853 2.58455 37.1101L23.0311 45.9116L23.2166 45.978C23.7787 46.155 24.3878 46.1318 24.9389 45.9087L45.4087 37.0496L45.5972 36.9642C46.1501 36.6864 46.5862 36.2159 46.8201 35.6381C47.3489 34.3322 46.7201 32.848 45.4157 32.3231L41.1134 30.5919L45.4087 28.7329L45.5972 28.6475C46.1501 28.3697 46.5862 27.8993 46.8201 27.3215C47.3489 26.0155 46.7201 24.5313 45.4157 24.0064L39.7809 21.739C39.0963 21.4635 38.3123 21.7023 37.8976 22.3126C37.3291 23.149 37.6888 24.2967 38.6328 24.6592L43.0952 26.3724L23.9886 34.6813L4.90439 26.4268L9.09144 24.7314C9.98788 24.3685 10.3256 23.2743 9.78983 22.4692C9.38802 21.8654 8.61707 21.6274 7.94484 21.8996L2.59155 24.067L2.40305 24.1524ZM37.1624 32.3018L24.9389 37.5921C24.3878 37.8152 23.7787 37.8383 23.2166 37.6613L23.0311 37.5949L10.7917 32.3263L4.90439 34.7435L23.9886 42.998L43.0952 34.689L37.1624 32.3018Z" fill="#5567D5"/>
</svg>
