<svg width="32" height="32" viewBox="0 0 32 32" fill="none" xmlns="http://www.w3.org/2000/svg">
    <path fill-rule="evenodd" clip-rule="evenodd" d="M4.4 4.80002C4.4 3.69545 5.29543 2.80002 6.4 2.80002H22.8V6.80002H6.4C5.29543 6.80002 4.4 5.90459 4.4 4.80002ZM25.2 6.80002V0.400024H6.4C3.96995 0.400024 2 2.36997 2 4.80002V8.00002V25.6C2 28.9137 4.68629 31.6 8 31.6H28.4V6.80002H25.2ZM4.4 8.72026V25.6C4.4 27.5883 6.01177 29.2 8 29.2H26V9.20002H6.4C5.67982 9.20002 5.00005 9.027 4.4 8.72026ZM18.6715 16.3686C17.1077 14.8048 14.5724 14.8048 13.0086 16.3686C11.4448 17.9323 11.4448 20.4677 13.0086 22.0315C14.5724 23.5952 17.1077 23.5952 18.6715 22.0315C19.1401 21.5628 19.8999 21.5628 20.3685 22.0315C20.8372 22.5001 20.8372 23.2599 20.3685 23.7285C17.8675 26.2296 13.8126 26.2296 11.3115 23.7285C8.8105 21.2275 8.8105 17.1725 11.3115 14.6715C13.8126 12.1705 17.8675 12.1705 20.3685 14.6715C20.8372 15.1401 20.8372 15.8999 20.3685 16.3686C19.8999 16.8372 19.1401 16.8372 18.6715 16.3686Z" fill="#A6B3FF"/>
</svg>
