<svg width="32" height="32" viewBox="0 0 32 32" fill="none" xmlns="http://www.w3.org/2000/svg">
    <path fill-rule="evenodd" clip-rule="evenodd" d="M23 0C20.349 0 18.1799 2.06307 18.0106 4.67125L18 5V14.7929C18 14.9255 18.0527 15.0527 18.1464 15.1464C18.3092 15.3092 18.5561 15.3363 18.7469 15.2278L18.8536 15.1464L24 10H27C29.5405 10 31.6385 8.10527 31.9579 5.65182L31.9894 5.32875L32 5C32 2.34903 29.9369 0.179923 27.3288 0.0106354L27 0H23ZM22.999 2H26.999C28.5583 2 29.8399 3.18978 29.9852 4.71108L29.9985 4.98962L29.9925 5.19921C29.8966 6.6766 28.7318 7.854 27.2753 7.9874L26.999 8H23.1705L19.999 11.172V5C19.999 3.44061 21.1887 2.1591 22.71 2.01373L22.999 2ZM29.9985 4.98962L30 4.93533L29.999 5L29.9985 4.98962ZM6 13C6 10.2386 8.23858 8 11 8C13.7614 8 16 10.2386 16 13C16 15.7614 13.7614 18 11 18C8.23858 18 6 15.7614 6 13ZM14 13C14 11.3431 12.6569 10 11 10C9.34315 10 8 11.3431 8 13C8 14.6569 9.34315 16 11 16C12.6569 16 14 14.6569 14 13ZM2 32H0V31.1429C0 30.7572 0.0193611 30.3759 0.0571734 30C0.619701 24.4074 5.26587 20 11 20C16.7341 20 21.3803 24.4074 21.9428 30C21.9806 30.3759 22 30.7572 22 31.1429V32H20H2ZM19.9306 30C19.3786 25.4882 15.6002 22 11 22C6.39979 22 2.62138 25.4882 2.06939 30H19.9306Z" fill="#A6B3FF"/>
</svg>
