<svg width="32" height="32" viewBox="0 0 32 32" fill="none" xmlns="http://www.w3.org/2000/svg">
    <g clip-path="url(#clip0_142_18311)">
        <path fill-rule="evenodd" clip-rule="evenodd" d="M0 1.44984C4.60537 -0.483279 9.79463 -0.483279 14.4 1.44984C19.0054 -0.483279 24.1946 -0.483279 28.8 1.44984V25.6276C28.015 25.2981 27.2131 25.0248 26.4 24.8076C22.4426 23.7507 18.2204 24.024 14.4 25.6276C10.5796 24.024 6.35738 23.7507 2.4 24.8076C1.58689 25.0248 0.784964 25.2981 0 25.6276V1.44984ZM15.3289 3.66279C18.8565 2.18205 22.7775 2.00354 26.4 3.12726V22.3335C22.4334 21.4024 18.2609 21.6413 14.4 23.0504C10.5391 21.6413 6.36659 21.4024 2.4 22.3335V3.12726C6.02248 2.00354 9.94346 2.18205 13.4711 3.66279L14.4 4.0527L15.3289 3.66279ZM11.6 7.2C12.2627 7.2 12.8 7.73218 12.8 8.38866C12.8 8.99043 12.3486 9.48776 11.7628 9.56647L11.6 9.57732H7.6C6.93726 9.57732 6.4 9.04514 6.4 8.38866C6.4 7.78689 6.85145 7.28956 7.43717 7.21085L7.6 7.2H11.6ZM17.9221 12.7471C18.5849 12.7471 19.1221 13.2793 19.1221 13.9357C19.1221 14.5375 18.6707 15.0348 18.085 15.1135L17.9221 15.1244H7.60006C6.93732 15.1244 6.40006 14.5922 6.40006 13.9357C6.40006 13.334 6.8515 12.8366 7.43722 12.7579L7.60006 12.7471H17.9221Z" fill="#A6B3FF"/>
        <path d="M20.4 8.79999C13.9935 8.79999 8.80005 13.9935 8.80005 20.4C8.80005 26.8065 13.9935 32 20.4 32C26.8066 32 32 26.8065 32 20.4C32 13.9935 26.8066 8.79999 20.4 8.79999Z" fill="#A6B3FF"/>
        <path d="M20.4 11.2C25.481 11.2 29.6 15.319 29.6 20.4C29.6 25.481 25.481 29.6 20.4 29.6C15.3189 29.6 11.2 25.481 11.2 20.4C11.2 15.319 15.3189 11.2 20.4 11.2Z" fill="white"/>
        <path d="M20.4 17.2C21.2836 17.2 22 16.4837 22 15.6C22 14.7163 21.2836 14 20.4 14C19.5163 14 18.8 14.7163 18.8 15.6C18.8 16.4837 19.5163 17.2 20.4 17.2Z" fill="#A6B3FF"/>
        <path d="M20 25.6C20 26.2627 20.5372 26.8 21.2 26.8C21.8627 26.8 22.4 26.2627 22.4 25.6L22.4 19.6L18.8 19.6C18.1372 19.6 17.6 20.1373 17.6 20.8C17.6 21.4627 18.1372 22 18.8 22H20L20 25.6Z" fill="#A6B3FF"/>
    </g>
    <defs>
        <clipPath id="clip0_142_18311">
            <rect width="32" height="32" fill="white"/>
        </clipPath>
    </defs>
</svg>
