<?xml version="1.0" encoding="UTF-8"?>
<svg width="146px" height="178px" viewBox="0 0 146 178" version="1.1" xmlns="http://www.w3.org/2000/svg" xmlns:xlink="http://www.w3.org/1999/xlink">
    <title>api-document-icon</title>
    <g id="Portal" stroke="none" stroke-width="1" fill="none" fill-rule="evenodd">
        <g id="Portal-Documentation" transform="translate(-535.000000, -183.000000)" fill="#5567E5" fill-rule="nonzero">
            <path d="M645.928932,183.5 C647.387623,183.5 648.786569,184.079463 649.818019,185.110913 L649.818019,185.110913 L678.889087,214.181981 C679.920537,215.213431 680.5,216.612377 680.5,218.071068 L680.5,218.071068 L680.5,352 C680.5,356.69442 676.69442,360.5 672,360.5 L672,360.5 L544,360.5 C539.30558,360.5 535.5,356.69442 535.5,352 L535.5,352 L535.5,192 C535.5,187.30558 539.30558,183.5 544,183.5 L544,183.5 Z M645.928932,184.5 L544,184.5 C539.857864,184.5 536.5,187.857864 536.5,192 L536.5,192 L536.5,352 C536.5,356.142136 539.857864,359.5 544,359.5 L544,359.5 L672,359.5 C676.142136,359.5 679.5,356.142136 679.5,352 L679.5,352 L679.5,218.071068 C679.5,217.771408 679.470111,217.474829 679.411985,217.185318 L655,217.185574 C650.390933,217.185574 646.638679,213.517121 646.503757,208.940735 L646.5,208.685574 L646.500418,184.536419 C646.31189,184.512285 646.121044,184.5 645.928932,184.5 L645.928932,184.5 Z M649.110913,185.818019 C648.650133,185.35724 648.099716,185.006708 647.500646,184.783399 L647.5,208.685574 C647.5,212.746492 650.727474,216.053592 654.757269,216.181721 L655,216.185574 L679.085714,216.185079 C678.865338,215.70765 678.560946,215.268052 678.181981,214.889087 L678.181981,214.889087 Z" id="Combined-Shape"></path>
        </g>
    </g>
</svg>
