<svg width="858" height="270" viewBox="0 0 858 270" fill="none" xmlns="http://www.w3.org/2000/svg">
<path d="M23.3234 133.83C21.9028 119.581 25.943 106.925 32.8259 97.0843C39.7302 87.2629 55.3235 85.6924 67.7599 80.9593C80.1587 76.2229 89.3993 68.3228 103.478 73.5591C117.577 78.8149 130.688 91.7909 136.72 105.619C142.728 119.425 141.665 134.124 140.512 149.296C139.359 164.468 129.339 171.597 120.309 176.6C111.278 181.602 97.2765 181.536 80.8582 178.86C64.4559 176.165 54.4582 179.416 43.0315 171.659C31.6195 163.884 24.7439 148.079 23.3234 133.83Z" fill="white"/>
<path d="M83 109H68C62.4772 109 58 113.477 58 119V119M80.9458 149H69C62.9249 149 58 144.075 58 138V129" stroke="#1D2028" stroke-linecap="round"/>
<rect x="61" y="112" width="38" height="34" rx="8" fill="#CCD1F2"/>
<circle cx="101" cy="145" r="14" fill="white"/>
<path d="M104.302 130.255C112.722 131.803 118.292 139.883 116.745 148.302C115.197 156.722 107.117 162.292 98.6977 160.745C94.9363 160.053 91.7435 158.058 89.5 155.311" stroke="#1D2028" stroke-linecap="round"/>
<path d="M47.2075 213.779L47.1636 213.787C45.9917 213.787 44.9883 213.479 44.146 212.871C43.3037 212.263 42.7324 211.509 42.4321 210.615L43.9702 210.154C44.2119 210.791 44.6221 211.318 45.2007 211.728C45.7793 212.139 46.4605 212.344 47.2515 212.344C47.9473 212.344 48.5186 212.175 48.9653 211.846C49.4121 211.516 49.6392 211.135 49.6392 210.703C49.6392 210.352 49.5147 210.059 49.2583 209.817C49.002 209.575 48.5772 209.363 47.9766 209.172L45.3399 208.33C43.7652 207.839 42.9815 206.982 42.9815 205.759C42.9815 204.968 43.3257 204.287 44.0142 203.723C44.7027 203.159 45.5669 202.873 46.6069 202.873C47.6763 202.873 48.5991 203.122 49.3755 203.621C50.1519 204.119 50.7012 204.741 51.0235 205.488L49.5073 205.942C49.2583 205.452 48.8848 205.056 48.3794 204.756C47.874 204.456 47.2881 204.309 46.6216 204.309C46.043 204.309 45.5669 204.448 45.1934 204.727C44.8198 205.005 44.6294 205.334 44.6294 205.715C44.6294 206.016 44.7393 206.265 44.9517 206.462C45.1641 206.66 45.5083 206.829 45.9771 206.968L48.5552 207.788C49.4634 208.074 50.1519 208.425 50.6133 208.843C51.0747 209.26 51.3091 209.839 51.3091 210.586C51.3091 211.487 50.9282 212.241 50.1665 212.856C49.4048 213.472 48.416 213.779 47.2075 213.779ZM56.978 212.051L57.3662 213.34C56.7949 213.581 56.2383 213.699 55.7036 213.699C54.9126 213.699 54.3194 213.472 53.9312 213.018C53.543 212.563 53.3452 211.934 53.3452 211.135V207.429H51.9683V206.038H53.3452V203.518H54.9053V206.038H57.3076V207.429H54.9053V211.135C54.9053 211.904 55.2642 212.292 55.9893 212.292C56.3189 212.292 56.6485 212.212 56.978 212.051ZM62.0464 213.779L62.0611 213.794C60.8672 213.794 59.9004 213.428 59.1533 212.695C58.4063 211.963 58.0327 211.003 58.0327 209.824C58.0327 208.689 58.3916 207.744 59.1094 206.99C59.8272 206.235 60.7647 205.854 61.9146 205.854C63.1084 205.854 64.0459 206.213 64.7344 206.938C65.4229 207.664 65.7671 208.572 65.7671 209.67C65.7671 209.861 65.7525 210.073 65.7158 210.3H59.5855C59.6367 210.937 59.8784 211.45 60.3179 211.838C60.7573 212.227 61.3506 212.424 62.0903 212.424C63.1304 212.424 63.8482 212.021 64.2363 211.208L65.6719 211.633C65.4009 212.227 64.9541 212.732 64.3316 213.149C63.709 213.567 62.9473 213.779 62.0464 213.779ZM59.5855 209.26H64.2217C64.1704 208.66 63.9434 208.169 63.5405 207.788C63.1377 207.407 62.5957 207.217 61.9219 207.217C61.27 207.217 60.7354 207.414 60.3106 207.81C59.8858 208.206 59.6441 208.689 59.5855 209.26ZM71.6411 205.84V205.847C72.7105 205.847 73.604 206.221 74.3218 206.975C75.0396 207.729 75.3985 208.674 75.3985 209.81C75.3985 210.945 75.0396 211.89 74.3218 212.644C73.604 213.398 72.7105 213.779 71.6411 213.779C70.4693 213.779 69.5684 213.332 68.9385 212.439V216.731H67.3638V206.038H68.9385V207.18C69.5684 206.287 70.4693 205.84 71.6411 205.84ZM71.3848 212.373L71.3775 212.366C72.0952 212.366 72.6885 212.124 73.1499 211.641C73.6113 211.157 73.8457 210.542 73.8457 209.802C73.8457 209.062 73.6187 208.455 73.1572 207.978C72.6958 207.502 72.1026 207.261 71.3775 207.261C70.6817 207.261 70.0957 207.502 69.6123 207.986C69.1289 208.469 68.8872 209.077 68.8872 209.81C68.8872 210.549 69.1289 211.164 69.6123 211.648C70.0957 212.131 70.689 212.373 71.3848 212.373ZM83.228 203.079H84.6123V213.581H82.957V204.91L80.4668 206.111L80.064 204.705L83.228 203.079Z" fill="#5567D5"/>
<path d="M503.208 213.779L503.164 213.787C501.992 213.787 500.988 213.479 500.146 212.871C499.304 212.263 498.732 211.509 498.432 210.615L499.97 210.154C500.212 210.791 500.622 211.318 501.201 211.728C501.779 212.139 502.46 212.344 503.251 212.344C503.947 212.344 504.519 212.175 504.965 211.846C505.412 211.516 505.639 211.135 505.639 210.703C505.639 210.352 505.515 210.059 505.258 209.817C505.002 209.575 504.577 209.363 503.977 209.172L501.34 208.33C499.765 207.839 498.981 206.982 498.981 205.759C498.981 204.968 499.326 204.287 500.014 203.723C500.703 203.159 501.567 202.873 502.607 202.873C503.676 202.873 504.599 203.122 505.375 203.621C506.152 204.119 506.701 204.741 507.023 205.488L505.507 205.942C505.258 205.452 504.885 205.056 504.379 204.756C503.874 204.456 503.288 204.309 502.622 204.309C502.043 204.309 501.567 204.448 501.193 204.727C500.82 205.005 500.629 205.334 500.629 205.715C500.629 206.016 500.739 206.265 500.952 206.462C501.164 206.66 501.508 206.829 501.977 206.968L504.555 207.788C505.463 208.074 506.152 208.425 506.613 208.843C507.075 209.26 507.309 209.839 507.309 210.586C507.309 211.487 506.928 212.241 506.167 212.856C505.405 213.472 504.416 213.779 503.208 213.779ZM512.978 212.051L513.366 213.34C512.795 213.581 512.238 213.699 511.704 213.699C510.913 213.699 510.319 213.472 509.931 213.018C509.543 212.563 509.345 211.934 509.345 211.135V207.429H507.968V206.038H509.345V203.518H510.905V206.038H513.308V207.429H510.905V211.135C510.905 211.904 511.264 212.292 511.989 212.292C512.319 212.292 512.648 212.212 512.978 212.051ZM518.046 213.779L518.061 213.794C516.867 213.794 515.9 213.428 515.153 212.695C514.406 211.963 514.033 211.003 514.033 209.824C514.033 208.689 514.392 207.744 515.109 206.99C515.827 206.235 516.765 205.854 517.915 205.854C519.108 205.854 520.046 206.213 520.734 206.938C521.423 207.664 521.767 208.572 521.767 209.67C521.767 209.861 521.752 210.073 521.716 210.3H515.585C515.637 210.937 515.878 211.45 516.318 211.838C516.757 212.227 517.351 212.424 518.09 212.424C519.13 212.424 519.848 212.021 520.236 211.208L521.672 211.633C521.401 212.227 520.954 212.732 520.332 213.149C519.709 213.567 518.947 213.779 518.046 213.779ZM515.585 209.26H520.222C520.17 208.66 519.943 208.169 519.541 207.788C519.138 207.407 518.596 207.217 517.922 207.217C517.27 207.217 516.735 207.414 516.311 207.81C515.886 208.206 515.644 208.689 515.585 209.26ZM527.641 205.84V205.847C528.71 205.847 529.604 206.221 530.322 206.975C531.04 207.729 531.398 208.674 531.398 209.81C531.398 210.945 531.04 211.89 530.322 212.644C529.604 213.398 528.71 213.779 527.641 213.779C526.469 213.779 525.568 213.332 524.938 212.439V216.731H523.364V206.038H524.938V207.18C525.568 206.287 526.469 205.84 527.641 205.84ZM527.385 212.373L527.377 212.366C528.095 212.366 528.688 212.124 529.15 211.641C529.611 211.157 529.846 210.542 529.846 209.802C529.846 209.062 529.619 208.455 529.157 207.978C528.696 207.502 528.103 207.261 527.377 207.261C526.682 207.261 526.096 207.502 525.612 207.986C525.129 208.469 524.887 209.077 524.887 209.81C524.887 210.549 525.129 211.164 525.612 211.648C526.096 212.131 526.689 212.373 527.385 212.373ZM541.03 207.129L541.059 207.136C541.96 207.202 542.685 207.524 543.227 208.103C543.769 208.682 544.04 209.421 544.04 210.322C544.04 211.304 543.688 212.131 542.978 212.805C542.268 213.479 541.374 213.816 540.297 213.816C539.147 213.816 538.232 213.516 537.551 212.908C536.87 212.3 536.445 211.575 536.276 210.725L537.727 210.322C537.851 210.901 538.137 211.384 538.583 211.78C539.03 212.175 539.572 212.373 540.209 212.373C540.898 212.373 541.44 212.175 541.843 211.772C542.246 211.37 542.443 210.886 542.443 210.315C542.443 209.744 542.26 209.268 541.894 208.894C541.528 208.52 541.037 208.33 540.415 208.33C539.953 208.33 539.55 208.447 539.199 208.674L538.913 207.656L541.491 204.536H536.577V203.079H543.623V204.221L541.03 207.129Z" fill="#5567D5"/>
<path d="M49.8882 237.581L47.3394 233.678H44.688V237.574H43.062V227.071H48.0571C49.1045 227.071 49.9395 227.408 50.562 228.082C51.1846 228.756 51.4995 229.525 51.4995 230.396C51.4995 231.114 51.2871 231.766 50.855 232.359C50.4229 232.953 49.8223 233.348 49.0532 233.546L51.7632 237.581H49.8882ZM44.688 228.529L44.6734 232.227H47.9546C48.5479 232.227 49.0239 232.044 49.3828 231.685C49.7417 231.327 49.9248 230.894 49.9248 230.389C49.9248 229.884 49.749 229.444 49.3975 229.078C49.0459 228.712 48.5845 228.529 48.0132 228.529H44.688ZM56.5825 237.779L56.5972 237.794C55.4033 237.794 54.4365 237.428 53.6895 236.695C52.9424 235.963 52.5689 235.003 52.5689 233.824C52.5689 232.689 52.9277 231.744 53.6455 230.99C54.3633 230.235 55.3008 229.854 56.4507 229.854C57.6445 229.854 58.582 230.213 59.2705 230.938C59.959 231.664 60.3032 232.572 60.3032 233.67C60.3032 233.861 60.2886 234.073 60.252 234.3H54.1216C54.1729 234.937 54.4146 235.45 54.854 235.838C55.2935 236.227 55.8867 236.424 56.6265 236.424C57.6665 236.424 58.3843 236.021 58.7725 235.208L60.208 235.633C59.937 236.227 59.4902 236.732 58.8677 237.149C58.2451 237.567 57.4834 237.779 56.5825 237.779ZM54.1216 233.26H58.7578C58.7066 232.66 58.4795 232.169 58.0767 231.788C57.6738 231.407 57.1319 231.217 56.458 231.217C55.8062 231.217 55.2715 231.414 54.8467 231.81C54.4219 232.206 54.1802 232.689 54.1216 233.26ZM67.8545 230.038L69.4365 230.067V237.34C69.4365 238.402 69.085 239.266 68.3819 239.94C67.6787 240.614 66.7559 240.951 65.6133 240.951C63.9434 240.951 62.7422 240.291 62.0171 238.98L63.3941 238.475C63.8555 239.244 64.6026 239.625 65.6426 239.618C66.3384 239.618 66.8804 239.405 67.2686 238.98C67.6568 238.556 67.8545 238.006 67.8618 237.34V236.234C67.2319 237.083 66.3457 237.508 65.2105 237.508C64.1192 237.508 63.2183 237.142 62.5078 236.41C61.7974 235.677 61.4458 234.762 61.4458 233.67C61.4458 232.55 61.7974 231.634 62.5005 230.916C63.2036 230.199 64.1045 229.84 65.2031 229.84C66.3384 229.84 67.2246 230.257 67.8545 231.1V230.038ZM65.4522 236.109H65.4375C66.1333 236.109 66.7193 235.882 67.188 235.421C67.6568 234.959 67.8911 234.381 67.8911 233.692C67.8911 233.004 67.6568 232.433 67.188 231.978C66.7193 231.524 66.1333 231.297 65.4375 231.297C64.7197 231.297 64.1338 231.524 63.6724 231.971C63.211 232.418 62.9839 232.989 62.9839 233.692C62.9839 234.395 63.2183 234.974 63.6797 235.428C64.1411 235.882 64.7344 236.109 65.4522 236.109ZM72.3516 228.807C72.0733 228.807 71.8389 228.712 71.6485 228.529C71.458 228.346 71.3628 228.111 71.3628 227.833C71.3628 227.577 71.458 227.35 71.6485 227.159C71.8389 226.969 72.0733 226.873 72.3516 226.873C72.6299 226.873 72.8643 226.969 73.0547 227.159C73.2451 227.35 73.3403 227.577 73.3403 227.833C73.3403 228.111 73.2451 228.346 73.0547 228.529C72.8643 228.712 72.6299 228.807 72.3516 228.807ZM71.5532 237.581V230.038H73.1133V237.581H71.5532ZM78.1304 237.779L78.0938 237.787C77.2368 237.787 76.4824 237.56 75.8233 237.113C75.1641 236.666 74.7393 236.124 74.5415 235.487L75.9697 235.069C76.1089 235.479 76.3799 235.816 76.7754 236.087C77.1709 236.358 77.6323 236.49 78.1524 236.49C78.6211 236.49 79.002 236.388 79.2949 236.19C79.5879 235.992 79.7344 235.75 79.7344 235.465C79.7344 235.238 79.6611 235.055 79.5073 234.923C79.3535 234.791 79.1045 234.674 78.7603 234.571L76.7315 233.971C75.5303 233.612 74.9297 232.967 74.9297 232.037C74.9297 231.436 75.208 230.924 75.772 230.492C76.336 230.06 77.0171 229.847 77.8154 229.847C78.6065 229.847 79.2949 230.023 79.8736 230.374C80.4522 230.726 80.855 231.187 81.082 231.751L79.6904 232.162C79.5366 231.861 79.2949 231.612 78.9653 231.407C78.6358 231.202 78.2476 231.1 77.8008 231.1C77.4199 231.1 77.105 231.195 76.856 231.378C76.6069 231.561 76.4824 231.773 76.4824 232.015C76.4824 232.345 76.7534 232.594 77.2954 232.762L79.3023 233.341C79.9248 233.524 80.4082 233.766 80.7598 234.073C81.1113 234.381 81.2871 234.82 81.2871 235.399C81.2871 236.08 80.9868 236.644 80.3936 237.098C79.8003 237.552 79.0459 237.779 78.1304 237.779ZM87.0659 236.051L87.4541 237.34C86.8828 237.581 86.3262 237.699 85.7915 237.699C85.0005 237.699 84.4072 237.472 84.0191 237.018C83.6309 236.563 83.4331 235.934 83.4331 235.135V231.429H82.0562V230.038H83.4331V227.518H84.9932V230.038H87.3955V231.429H84.9932V235.135C84.9932 235.904 85.3521 236.292 86.0772 236.292C86.4068 236.292 86.7363 236.212 87.0659 236.051ZM92.1343 237.779L92.1489 237.794C90.9551 237.794 89.9883 237.428 89.2412 236.695C88.4942 235.963 88.1206 235.003 88.1206 233.824C88.1206 232.689 88.4795 231.744 89.1973 230.99C89.9151 230.235 90.8526 229.854 92.0025 229.854C93.1963 229.854 94.1338 230.213 94.8223 230.938C95.5108 231.664 95.855 232.572 95.855 233.67C95.855 233.861 95.8403 234.073 95.8037 234.3H89.6734C89.7246 234.937 89.9663 235.45 90.4058 235.838C90.8452 236.227 91.4385 236.424 92.1782 236.424C93.2183 236.424 93.9361 236.021 94.3242 235.208L95.7598 235.633C95.4888 236.227 95.042 236.732 94.4194 237.149C93.7969 237.567 93.0352 237.779 92.1343 237.779ZM89.6734 233.26H94.3096C94.2583 232.66 94.0313 232.169 93.6284 231.788C93.2256 231.407 92.6836 231.217 92.0098 231.217C91.3579 231.217 90.8233 231.414 90.3985 231.81C89.9736 232.206 89.7319 232.689 89.6734 233.26ZM99.0264 231.239L99.0191 231.246C99.2461 230.777 99.583 230.426 100.03 230.191C100.477 229.957 101.004 229.876 101.605 229.957V231.422C100.777 231.297 100.14 231.458 99.6929 231.905C99.2461 232.352 99.0264 233.106 99.0264 234.176V237.581H97.4517V230.038H99.0264V231.239ZM111.031 236.051L111.419 237.34C110.848 237.581 110.291 237.699 109.756 237.699C108.965 237.699 108.372 237.472 107.984 237.018C107.596 236.563 107.398 235.934 107.398 235.135V231.429H106.021V230.038H107.398V227.518H108.958V230.038H111.36V231.429H108.958V235.135C108.958 235.904 109.317 236.292 110.042 236.292C110.372 236.292 110.701 236.212 111.031 236.051ZM117.081 229.84V229.825C118.04 229.825 118.78 230.118 119.3 230.711C119.82 231.305 120.076 232.118 120.076 233.15V237.574H118.516V233.436C118.516 232.769 118.362 232.249 118.047 231.876C117.732 231.502 117.271 231.312 116.663 231.312C116.004 231.312 115.477 231.539 115.081 232C114.686 232.462 114.488 233.07 114.488 233.831V237.581H112.913V226.632H114.488V231.158C115.11 230.279 115.975 229.84 117.081 229.84ZM125.665 237.779L125.679 237.794C124.485 237.794 123.519 237.428 122.771 236.695C122.024 235.963 121.651 235.003 121.651 233.824C121.651 232.689 122.01 231.744 122.728 230.99C123.445 230.235 124.383 229.854 125.533 229.854C126.727 229.854 127.664 230.213 128.353 230.938C129.041 231.664 129.385 232.572 129.385 233.67C129.385 233.861 129.371 234.073 129.334 234.3H123.204C123.255 234.937 123.497 235.45 123.936 235.838C124.376 236.227 124.969 236.424 125.709 236.424C126.749 236.424 127.466 236.021 127.855 235.208L129.29 235.633C129.019 236.227 128.572 236.732 127.95 237.149C127.327 237.567 126.565 237.779 125.665 237.779ZM123.204 233.26H127.84C127.789 232.66 127.562 232.169 127.159 231.788C126.756 231.407 126.214 231.217 125.54 231.217C124.888 231.217 124.354 231.414 123.929 231.81C123.504 232.206 123.262 232.689 123.204 233.26ZM47.2075 261.779L47.1636 261.787C45.9917 261.787 44.9883 261.479 44.146 260.871C43.3037 260.263 42.7324 259.509 42.4321 258.615L43.9702 258.154C44.2119 258.791 44.6221 259.318 45.2007 259.728C45.7793 260.139 46.4605 260.344 47.2515 260.344C47.9473 260.344 48.5186 260.175 48.9653 259.846C49.4121 259.516 49.6392 259.135 49.6392 258.703C49.6392 258.352 49.5147 258.059 49.2583 257.817C49.002 257.575 48.5772 257.363 47.9766 257.172L45.3399 256.33C43.7652 255.839 42.9815 254.982 42.9815 253.759C42.9815 252.968 43.3257 252.287 44.0142 251.723C44.7027 251.159 45.5669 250.873 46.6069 250.873C47.6763 250.873 48.5991 251.122 49.3755 251.621C50.1519 252.119 50.7012 252.741 51.0235 253.488L49.5073 253.942C49.2583 253.452 48.8848 253.056 48.3794 252.756C47.874 252.456 47.2881 252.309 46.6216 252.309C46.043 252.309 45.5669 252.448 45.1934 252.727C44.8198 253.005 44.6294 253.334 44.6294 253.715C44.6294 254.016 44.7393 254.265 44.9517 254.462C45.1641 254.66 45.5083 254.829 45.9771 254.968L48.5552 255.788C49.4634 256.074 50.1519 256.425 50.6133 256.843C51.0747 257.26 51.3091 257.839 51.3091 258.586C51.3091 259.487 50.9282 260.241 50.1665 260.856C49.4048 261.472 48.416 261.779 47.2075 261.779ZM56.5825 261.779L56.5972 261.794C55.4033 261.794 54.4365 261.428 53.6895 260.695C52.9424 259.963 52.5689 259.003 52.5689 257.824C52.5689 256.689 52.9277 255.744 53.6455 254.99C54.3633 254.235 55.3008 253.854 56.4507 253.854C57.6445 253.854 58.582 254.213 59.2705 254.938C59.959 255.664 60.3032 256.572 60.3032 257.67C60.3032 257.861 60.2886 258.073 60.252 258.3H54.1216C54.1729 258.937 54.4146 259.45 54.854 259.838C55.2935 260.227 55.8867 260.424 56.6265 260.424C57.6665 260.424 58.3843 260.021 58.7725 259.208L60.208 259.633C59.937 260.227 59.4902 260.732 58.8677 261.149C58.2451 261.567 57.4834 261.779 56.5825 261.779ZM54.1216 257.26H58.7578C58.7066 256.66 58.4795 256.169 58.0767 255.788C57.6738 255.407 57.1319 255.217 56.458 255.217C55.8062 255.217 55.2715 255.414 54.8467 255.81C54.4219 256.206 54.1802 256.689 54.1216 257.26ZM63.4746 255.239L63.4673 255.246C63.6944 254.777 64.0313 254.426 64.478 254.191C64.9248 253.957 65.4522 253.876 66.0527 253.957V255.422C65.2251 255.297 64.5879 255.458 64.1411 255.905C63.6944 256.352 63.4746 257.106 63.4746 258.176V261.581H61.8999V254.038H63.4746V255.239ZM73.106 254.038H74.8125L71.6192 261.581H69.8687L66.668 254.038H68.3819L70.7329 259.875L73.106 254.038ZM76.7901 252.807C76.5117 252.807 76.2774 252.712 76.0869 252.529C75.8965 252.346 75.8013 252.111 75.8013 251.833C75.8013 251.577 75.8965 251.35 76.0869 251.159C76.2774 250.969 76.5117 250.873 76.7901 250.873C77.0684 250.873 77.3027 250.969 77.4932 251.159C77.6836 251.35 77.7788 251.577 77.7788 251.833C77.7788 252.111 77.6836 252.346 77.4932 252.529C77.3027 252.712 77.0684 252.807 76.7901 252.807ZM75.9917 261.581V254.038H77.5518V261.581H75.9917ZM83.1987 261.779V261.801C82.0635 261.801 81.1187 261.42 80.3643 260.659C79.6099 259.897 79.2363 258.952 79.2363 257.824C79.2363 256.696 79.6099 255.751 80.3569 254.997C81.104 254.243 82.0488 253.862 83.1841 253.862C84.1289 253.862 84.9199 254.103 85.5645 254.587C86.209 255.07 86.6118 255.62 86.773 256.242L85.3154 256.66C85.2056 256.286 84.9566 255.964 84.5684 255.685C84.1802 255.407 83.7261 255.268 83.2061 255.268C82.4883 255.268 81.9024 255.517 81.4483 256.008C80.9942 256.498 80.7671 257.099 80.7671 257.81C80.7671 258.505 80.9942 259.106 81.4483 259.611C81.9024 260.117 82.4883 260.366 83.1987 260.366C83.7188 260.366 84.1729 260.234 84.5611 259.97C84.9492 259.706 85.1983 259.392 85.3081 259.018L86.7656 259.421C86.6045 260.029 86.209 260.571 85.5718 261.054C84.9346 261.538 84.1436 261.779 83.1987 261.779ZM91.9439 261.779L91.9585 261.794C90.7647 261.794 89.7979 261.428 89.0508 260.695C88.3037 259.963 87.9302 259.003 87.9302 257.824C87.9302 256.689 88.2891 255.744 89.0069 254.99C89.7246 254.235 90.6621 253.854 91.812 253.854C93.0059 253.854 93.9434 254.213 94.6319 254.938C95.3203 255.664 95.6646 256.572 95.6646 257.67C95.6646 257.861 95.6499 258.073 95.6133 258.3H89.4829C89.5342 258.937 89.7759 259.45 90.2153 259.838C90.6548 260.227 91.2481 260.424 91.9878 260.424C93.0278 260.424 93.7456 260.021 94.1338 259.208L95.5694 259.633C95.2984 260.227 94.8516 260.732 94.229 261.149C93.6065 261.567 92.8447 261.779 91.9439 261.779ZM89.4829 257.26H94.1192C94.0679 256.66 93.8408 256.169 93.438 255.788C93.0352 255.407 92.4932 255.217 91.8194 255.217C91.1675 255.217 90.6328 255.414 90.208 255.81C89.7832 256.206 89.5415 256.689 89.4829 257.26Z" fill="#40404B"/>
<path d="M504.057 238.198L504.042 238.22C502.482 238.22 501.179 237.7 500.131 236.652C499.084 235.605 498.564 234.309 498.564 232.756C498.564 231.203 499.084 229.907 500.124 228.874C501.164 227.841 502.46 227.321 504.021 227.321C505.28 227.321 506.357 227.636 507.243 228.273C508.129 228.911 508.723 229.687 509.023 230.603L507.448 230.998C507.221 230.375 506.804 229.863 506.196 229.453C505.588 229.042 504.87 228.837 504.042 228.837C502.915 228.837 501.999 229.211 501.296 229.965C500.593 230.72 500.241 231.643 500.241 232.734C500.241 233.833 500.593 234.763 501.296 235.532C501.999 236.301 502.915 236.682 504.042 236.682C504.87 236.682 505.588 236.484 506.196 236.081C506.804 235.678 507.221 235.166 507.441 234.543L509.016 234.946C508.715 235.854 508.129 236.623 507.25 237.253C506.372 237.883 505.31 238.198 504.057 238.198ZM512.297 231.657L512.29 231.665C512.517 231.196 512.854 230.844 513.3 230.61C513.747 230.375 514.274 230.295 514.875 230.375V231.84C514.047 231.716 513.41 231.877 512.963 232.324C512.517 232.771 512.297 233.525 512.297 234.594V238H510.722V230.456H512.297V231.657ZM519.379 238.198L519.394 238.212C518.2 238.212 517.233 237.846 516.486 237.114C515.739 236.381 515.366 235.422 515.366 234.243C515.366 233.107 515.725 232.163 516.442 231.408C517.16 230.654 518.098 230.273 519.248 230.273C520.441 230.273 521.379 230.632 522.067 231.357C522.756 232.082 523.1 232.99 523.1 234.089C523.1 234.279 523.085 234.492 523.049 234.719H516.918C516.97 235.356 517.211 235.869 517.651 236.257C518.09 236.645 518.684 236.843 519.423 236.843C520.463 236.843 521.181 236.44 521.569 235.627L523.005 236.052C522.734 236.645 522.287 237.15 521.665 237.568C521.042 237.985 520.28 238.198 519.379 238.198ZM516.918 233.679H521.555C521.503 233.078 521.276 232.587 520.874 232.207C520.471 231.826 519.929 231.635 519.255 231.635C518.603 231.635 518.068 231.833 517.644 232.229C517.219 232.624 516.977 233.107 516.918 233.679ZM527.985 238.198V238.19C526.916 238.19 526.022 237.81 525.305 237.055C524.587 236.301 524.228 235.356 524.228 234.221C524.228 233.093 524.587 232.148 525.305 231.394C526.022 230.639 526.916 230.258 527.985 230.258C529.165 230.258 530.073 230.705 530.703 231.599V230.456H532.263V238H530.703V236.857C530.073 237.751 529.165 238.198 527.985 238.198ZM528.242 236.777L528.22 236.784C528.916 236.784 529.509 236.542 529.992 236.059C530.476 235.576 530.717 234.96 530.717 234.221C530.717 233.488 530.476 232.88 529.992 232.397C529.509 231.914 528.923 231.672 528.227 231.672C527.509 231.672 526.923 231.914 526.462 232.39C526 232.866 525.773 233.474 525.773 234.213C525.773 234.953 526.008 235.568 526.469 236.052C526.931 236.535 527.524 236.777 528.242 236.777ZM538.583 236.469L538.972 237.758C538.4 238 537.844 238.117 537.309 238.117C536.518 238.117 535.925 237.89 535.537 237.436C535.148 236.982 534.951 236.352 534.951 235.554V231.848H533.574V230.456H534.951V227.937H536.511V230.456H538.913V231.848H536.511V235.554C536.511 236.323 536.87 236.711 537.595 236.711C537.924 236.711 538.254 236.63 538.583 236.469ZM543.652 238.198L543.667 238.212C542.473 238.212 541.506 237.846 540.759 237.114C540.012 236.381 539.638 235.422 539.638 234.243C539.638 233.107 539.997 232.163 540.715 231.408C541.433 230.654 542.37 230.273 543.52 230.273C544.714 230.273 545.651 230.632 546.34 231.357C547.028 232.082 547.373 232.99 547.373 234.089C547.373 234.279 547.358 234.492 547.321 234.719H541.191C541.242 235.356 541.484 235.869 541.923 236.257C542.363 236.645 542.956 236.843 543.696 236.843C544.736 236.843 545.454 236.44 545.842 235.627L547.277 236.052C547.006 236.645 546.56 237.15 545.937 237.568C545.314 237.985 544.553 238.198 543.652 238.198ZM541.191 233.679H545.827C545.776 233.078 545.549 232.587 545.146 232.207C544.743 231.826 544.201 231.635 543.527 231.635C542.875 231.635 542.341 231.833 541.916 232.229C541.491 232.624 541.25 233.107 541.191 233.679ZM556.052 238.198V238.19C554.982 238.19 554.089 237.81 553.371 237.055C552.653 236.301 552.294 235.356 552.294 234.221C552.294 233.093 552.653 232.148 553.371 231.394C554.089 230.639 554.982 230.258 556.052 230.258C557.231 230.258 558.139 230.705 558.769 231.599V230.456H560.329V238H558.769V236.857C558.139 237.751 557.231 238.198 556.052 238.198ZM556.308 236.777L556.286 236.784C556.982 236.784 557.575 236.542 558.059 236.059C558.542 235.576 558.784 234.96 558.784 234.221C558.784 233.488 558.542 232.88 558.059 232.397C557.575 231.914 556.989 231.672 556.293 231.672C555.576 231.672 554.99 231.914 554.528 232.39C554.067 232.866 553.84 233.474 553.84 234.213C553.84 234.953 554.074 235.568 554.536 236.052C554.997 236.535 555.59 236.777 556.308 236.777ZM566.591 230.258V230.244C567.551 230.244 568.291 230.537 568.811 231.13C569.331 231.723 569.587 232.536 569.587 233.569V237.993H568.027V233.854C568.027 233.188 567.873 232.668 567.558 232.294C567.243 231.921 566.782 231.73 566.174 231.73C565.515 231.73 564.987 231.958 564.592 232.419C564.196 232.88 563.999 233.488 563.999 234.25V238H562.424V230.456H563.999V231.577C564.621 230.698 565.485 230.258 566.591 230.258ZM577.622 227.05L579.182 227.043V237.993H577.622V236.85C576.992 237.736 576.083 238.183 574.904 238.19C573.835 238.19 572.941 237.81 572.224 237.055C571.506 236.301 571.147 235.356 571.147 234.221C571.147 233.093 571.506 232.148 572.224 231.394C572.941 230.639 573.835 230.258 574.904 230.258C576.083 230.258 576.992 230.705 577.622 231.599V227.05ZM575.161 236.777L575.139 236.784C575.834 236.784 576.428 236.542 576.911 236.059C577.395 235.576 577.636 234.96 577.636 234.221C577.636 233.488 577.395 232.88 576.911 232.397C576.428 231.914 575.842 231.672 575.146 231.672C574.428 231.672 573.842 231.914 573.381 232.39C572.919 232.866 572.692 233.474 572.692 234.213C572.692 234.953 572.927 235.568 573.388 236.052C573.85 236.535 574.443 236.777 575.161 236.777ZM588.564 238.198V238.22C587.429 238.22 586.484 237.839 585.729 237.077C584.975 236.315 584.602 235.371 584.602 234.243C584.602 233.115 584.975 232.17 585.722 231.416C586.469 230.661 587.414 230.28 588.549 230.28C589.494 230.28 590.285 230.522 590.93 231.005C591.574 231.489 591.977 232.038 592.138 232.661L590.681 233.078C590.571 232.705 590.322 232.382 589.934 232.104C589.545 231.826 589.091 231.687 588.571 231.687C587.854 231.687 587.268 231.936 586.813 232.426C586.359 232.917 586.132 233.518 586.132 234.228C586.132 234.924 586.359 235.524 586.813 236.03C587.268 236.535 587.854 236.784 588.564 236.784C589.084 236.784 589.538 236.652 589.926 236.389C590.314 236.125 590.563 235.81 590.673 235.437L592.131 235.839C591.97 236.447 591.574 236.989 590.937 237.473C590.3 237.956 589.509 238.198 588.564 238.198ZM597.287 238.198H597.28C596.13 238.198 595.178 237.817 594.416 237.062C593.654 236.308 593.273 235.363 593.273 234.228C593.273 233.1 593.654 232.155 594.416 231.401C595.178 230.646 596.13 230.266 597.28 230.266C598.43 230.266 599.389 230.639 600.151 231.394C600.913 232.148 601.293 233.093 601.293 234.228C601.293 235.363 600.913 236.308 600.151 237.062C599.389 237.817 598.437 238.198 597.287 238.198ZM597.28 236.77C597.998 236.77 598.591 236.528 599.06 236.044C599.528 235.561 599.763 234.96 599.763 234.243C599.763 233.51 599.528 232.902 599.06 232.419C598.591 231.936 597.998 231.694 597.28 231.694C596.562 231.694 595.969 231.936 595.507 232.419C595.046 232.902 594.812 233.51 594.812 234.243C594.812 234.96 595.046 235.561 595.507 236.044C595.969 236.528 596.562 236.77 597.28 236.77ZM607.094 230.258V230.244C608.054 230.244 608.793 230.537 609.313 231.13C609.833 231.723 610.09 232.536 610.09 233.569V237.993H608.53V233.854C608.53 233.188 608.376 232.668 608.061 232.294C607.746 231.921 607.285 231.73 606.677 231.73C606.018 231.73 605.49 231.958 605.095 232.419C604.699 232.88 604.501 233.488 604.501 234.25V238H602.927V230.456H604.501V231.577C605.124 230.698 605.988 230.258 607.094 230.258ZM619.274 230.456L619.267 238H617.707V231.848H614.484V238H612.91V231.848H611.408V230.456H612.91V229.614C612.91 228.742 613.151 228.061 613.635 227.578C614.118 227.094 614.829 226.853 615.766 226.853C616.74 226.853 617.583 227.102 618.293 227.592L617.905 228.867C617.268 228.435 616.608 228.222 615.927 228.222C615.466 228.222 615.114 228.347 614.865 228.596C614.616 228.845 614.492 229.196 614.492 229.643V230.456H619.274ZM627.17 230.456L628.752 230.485V237.758C628.752 238.82 628.4 239.685 627.697 240.358C626.994 241.032 626.071 241.369 624.929 241.369C623.259 241.369 622.058 240.71 621.333 239.399L622.709 238.894C623.171 239.663 623.918 240.043 624.958 240.036C625.654 240.036 626.196 239.824 626.584 239.399C626.972 238.974 627.17 238.425 627.177 237.758V236.652C626.547 237.502 625.661 237.927 624.526 237.927C623.435 237.927 622.534 237.561 621.823 236.828C621.113 236.096 620.761 235.18 620.761 234.089C620.761 232.968 621.113 232.053 621.816 231.335C622.519 230.617 623.42 230.258 624.519 230.258C625.654 230.258 626.54 230.676 627.17 231.518V230.456ZM624.768 236.528H624.753C625.449 236.528 626.035 236.301 626.503 235.839C626.972 235.378 627.207 234.799 627.207 234.111C627.207 233.422 626.972 232.851 626.503 232.397C626.035 231.943 625.449 231.716 624.753 231.716C624.035 231.716 623.449 231.943 622.988 232.39C622.526 232.836 622.299 233.408 622.299 234.111C622.299 234.814 622.534 235.393 622.995 235.847C623.457 236.301 624.05 236.528 624.768 236.528ZM636.376 230.456L637.937 230.471V238.015H636.376V236.872C635.769 237.758 634.897 238.205 633.769 238.212C632.817 238.212 632.077 237.919 631.55 237.326C631.022 236.733 630.759 235.92 630.759 234.887V230.463H632.333V234.602C632.333 235.268 632.495 235.788 632.81 236.162C633.125 236.535 633.586 236.726 634.194 236.726C634.846 236.726 635.373 236.499 635.776 236.037C636.179 235.576 636.376 234.968 636.376 234.206V230.456ZM641.613 231.657L641.606 231.665C641.833 231.196 642.17 230.844 642.617 230.61C643.063 230.375 643.591 230.295 644.191 230.375V231.84C643.364 231.716 642.727 231.877 642.28 232.324C641.833 232.771 641.613 233.525 641.613 234.594V238H640.039V230.456H641.613V231.657ZM648.696 238.198L648.71 238.212C647.517 238.212 646.55 237.846 645.803 237.114C645.056 236.381 644.682 235.422 644.682 234.243C644.682 233.107 645.041 232.163 645.759 231.408C646.477 230.654 647.414 230.273 648.564 230.273C649.758 230.273 650.695 230.632 651.384 231.357C652.072 232.082 652.417 232.99 652.417 234.089C652.417 234.279 652.402 234.492 652.365 234.719H646.235C646.286 235.356 646.528 235.869 646.967 236.257C647.407 236.645 648 236.843 648.74 236.843C649.78 236.843 650.498 236.44 650.886 235.627L652.321 236.052C652.05 236.645 651.604 237.15 650.981 237.568C650.358 237.985 649.597 238.198 648.696 238.198ZM646.235 233.679H650.871C650.82 233.078 650.593 232.587 650.19 232.207C649.787 231.826 649.245 231.635 648.571 231.635C647.919 231.635 647.385 231.833 646.96 232.229C646.535 232.624 646.293 233.107 646.235 233.679ZM502.336 262.198V262.19C501.267 262.19 500.373 261.81 499.655 261.055C498.938 260.301 498.579 259.356 498.579 258.221C498.579 257.093 498.938 256.148 499.655 255.394C500.373 254.639 501.267 254.258 502.336 254.258C503.515 254.258 504.423 254.705 505.053 255.599V254.456H506.613V262H505.053V260.857C504.423 261.751 503.515 262.198 502.336 262.198ZM502.592 260.777L502.57 260.784C503.266 260.784 503.859 260.542 504.343 260.059C504.826 259.576 505.068 258.96 505.068 258.221C505.068 257.488 504.826 256.88 504.343 256.397C503.859 255.914 503.273 255.672 502.578 255.672C501.86 255.672 501.274 255.914 500.812 256.39C500.351 256.866 500.124 257.474 500.124 258.213C500.124 258.953 500.358 259.568 500.82 260.052C501.281 260.535 501.875 260.777 502.592 260.777ZM515.996 262.198V262.22C514.86 262.22 513.916 261.839 513.161 261.077C512.407 260.315 512.033 259.371 512.033 258.243C512.033 257.115 512.407 256.17 513.154 255.416C513.901 254.661 514.846 254.28 515.981 254.28C516.926 254.28 517.717 254.522 518.361 255.005C519.006 255.489 519.409 256.038 519.57 256.661L518.112 257.078C518.002 256.705 517.753 256.382 517.365 256.104C516.977 255.826 516.523 255.687 516.003 255.687C515.285 255.687 514.699 255.936 514.245 256.426C513.791 256.917 513.564 257.518 513.564 258.228C513.564 258.924 513.791 259.524 514.245 260.03C514.699 260.535 515.285 260.784 515.996 260.784C516.516 260.784 516.97 260.652 517.358 260.389C517.746 260.125 517.995 259.81 518.105 259.437L519.562 259.839C519.401 260.447 519.006 260.989 518.369 261.473C517.731 261.956 516.94 262.198 515.996 262.198ZM524.719 262.198H524.711C523.562 262.198 522.609 261.817 521.848 261.062C521.086 260.308 520.705 259.363 520.705 258.228C520.705 257.1 521.086 256.155 521.848 255.401C522.609 254.646 523.562 254.266 524.711 254.266C525.861 254.266 526.821 254.639 527.583 255.394C528.344 256.148 528.725 257.093 528.725 258.228C528.725 259.363 528.344 260.308 527.583 261.062C526.821 261.817 525.869 262.198 524.719 262.198ZM524.711 260.77C525.429 260.77 526.022 260.528 526.491 260.044C526.96 259.561 527.194 258.96 527.194 258.243C527.194 257.51 526.96 256.902 526.491 256.419C526.022 255.936 525.429 255.694 524.711 255.694C523.994 255.694 523.4 255.936 522.939 256.419C522.478 256.902 522.243 257.51 522.243 258.243C522.243 258.96 522.478 259.561 522.939 260.044C523.4 260.528 523.994 260.77 524.711 260.77ZM534.526 254.258V254.244C535.485 254.244 536.225 254.537 536.745 255.13C537.265 255.723 537.521 256.536 537.521 257.569V261.993H535.961V257.854C535.961 257.188 535.808 256.668 535.493 256.294C535.178 255.921 534.716 255.73 534.108 255.73C533.449 255.73 532.922 255.958 532.526 256.419C532.131 256.88 531.933 257.488 531.933 258.25V262H530.358V254.456H531.933V255.577C532.556 254.698 533.42 254.258 534.526 254.258ZM543.725 254.258V254.244C544.685 254.244 545.424 254.537 545.944 255.13C546.464 255.723 546.721 256.536 546.721 257.569V261.993H545.161V257.854C545.161 257.188 545.007 256.668 544.692 256.294C544.377 255.921 543.916 255.73 543.308 255.73C542.648 255.73 542.121 255.958 541.726 256.419C541.33 256.88 541.132 257.488 541.132 258.25V262H539.558V254.456H541.132V255.577C541.755 254.698 542.619 254.258 543.725 254.258ZM552.309 262.198L552.324 262.212C551.13 262.212 550.163 261.846 549.416 261.114C548.669 260.381 548.295 259.422 548.295 258.243C548.295 257.107 548.654 256.163 549.372 255.408C550.09 254.654 551.027 254.273 552.177 254.273C553.371 254.273 554.309 254.632 554.997 255.357C555.686 256.082 556.03 256.99 556.03 258.089C556.03 258.279 556.015 258.492 555.979 258.719H549.848C549.899 259.356 550.141 259.869 550.581 260.257C551.02 260.645 551.613 260.843 552.353 260.843C553.393 260.843 554.111 260.44 554.499 259.627L555.935 260.052C555.664 260.645 555.217 261.15 554.594 261.568C553.972 261.985 553.21 262.198 552.309 262.198ZM549.848 257.679H554.484C554.433 257.078 554.206 256.587 553.803 256.207C553.4 255.826 552.858 255.635 552.185 255.635C551.533 255.635 550.998 255.833 550.573 256.229C550.148 256.624 549.907 257.107 549.848 257.679ZM561.127 262.198V262.22C559.992 262.22 559.047 261.839 558.293 261.077C557.539 260.315 557.165 259.371 557.165 258.243C557.165 257.115 557.539 256.17 558.286 255.416C559.033 254.661 559.978 254.28 561.113 254.28C562.058 254.28 562.849 254.522 563.493 255.005C564.138 255.489 564.541 256.038 564.702 256.661L563.244 257.078C563.134 256.705 562.885 256.382 562.497 256.104C562.109 255.826 561.655 255.687 561.135 255.687C560.417 255.687 559.831 255.936 559.377 256.426C558.923 256.917 558.696 257.518 558.696 258.228C558.696 258.924 558.923 259.524 559.377 260.03C559.831 260.535 560.417 260.784 561.127 260.784C561.647 260.784 562.102 260.652 562.49 260.389C562.878 260.125 563.127 259.81 563.237 259.437L564.694 259.839C564.533 260.447 564.138 260.989 563.5 261.473C562.863 261.956 562.072 262.198 561.127 262.198ZM570.546 260.469L570.935 261.758C570.363 262 569.807 262.117 569.272 262.117C568.481 262.117 567.888 261.89 567.5 261.436C567.111 260.982 566.914 260.352 566.914 259.554V255.848H565.537V254.456H566.914V251.937H568.474V254.456H570.876V255.848H568.474V259.554C568.474 260.323 568.833 260.711 569.558 260.711C569.887 260.711 570.217 260.63 570.546 260.469ZM573.308 253.226C573.029 253.226 572.795 253.13 572.604 252.947C572.414 252.764 572.319 252.53 572.319 252.251C572.319 251.995 572.414 251.768 572.604 251.578C572.795 251.387 573.029 251.292 573.308 251.292C573.586 251.292 573.82 251.387 574.011 251.578C574.201 251.768 574.296 251.995 574.296 252.251C574.296 252.53 574.201 252.764 574.011 252.947C573.82 253.13 573.586 253.226 573.308 253.226ZM572.509 262V254.456H574.069V262H572.509ZM579.753 262.198H579.746C578.596 262.198 577.644 261.817 576.882 261.062C576.12 260.308 575.739 259.363 575.739 258.228C575.739 257.1 576.12 256.155 576.882 255.401C577.644 254.646 578.596 254.266 579.746 254.266C580.896 254.266 581.855 254.639 582.617 255.394C583.378 256.148 583.759 257.093 583.759 258.228C583.759 259.363 583.378 260.308 582.617 261.062C581.855 261.817 580.903 262.198 579.753 262.198ZM579.746 260.77C580.463 260.77 581.057 260.528 581.525 260.044C581.994 259.561 582.229 258.96 582.229 258.243C582.229 257.51 581.994 256.902 581.525 256.419C581.057 255.936 580.463 255.694 579.746 255.694C579.028 255.694 578.435 255.936 577.973 256.419C577.512 256.902 577.277 257.51 577.277 258.243C577.277 258.96 577.512 259.561 577.973 260.044C578.435 260.528 579.028 260.77 579.746 260.77ZM589.56 254.258V254.244C590.52 254.244 591.259 254.537 591.779 255.13C592.299 255.723 592.556 256.536 592.556 257.569V261.993H590.996V257.854C590.996 257.188 590.842 256.668 590.527 256.294C590.212 255.921 589.75 255.73 589.143 255.73C588.483 255.73 587.956 255.958 587.561 256.419C587.165 256.88 586.967 257.488 586.967 258.25V262H585.393V254.456H586.967V255.577C587.59 254.698 588.454 254.258 589.56 254.258Z" fill="#40404B"/>
<path d="M69 127H90" stroke="white" stroke-width="6" stroke-linecap="round"/>
<path d="M69 136H80" stroke="white" stroke-width="6" stroke-linecap="round"/>
<path d="M69 118H90" stroke="white" stroke-width="6" stroke-linecap="round"/>
<path d="M70 118H83" stroke="#1D2028" stroke-linecap="round"/>
<path d="M72 127H90" stroke="#1D2028" stroke-linecap="round"/>
<path d="M65 136H80" stroke="#1D2028" stroke-linecap="round"/>
<path d="M247.323 87.6725C245.903 73.4239 249.943 60.7675 256.826 50.9267C263.73 41.1053 279.324 39.5348 291.76 34.8017C304.159 30.0653 313.399 22.1652 327.477 27.4015C341.577 32.6573 354.688 45.6333 360.72 59.4615C366.728 73.2679 365.665 87.9662 364.512 103.138C363.359 118.31 353.339 125.439 344.309 130.442C335.278 135.445 321.277 135.379 304.858 132.702C288.456 130.008 278.458 133.259 267.031 125.501C255.619 117.726 248.744 101.921 247.323 87.6725Z" fill="white"/>
<path d="M488.691 91.9288C495.81 79.5047 506.45 71.5483 517.768 67.5351C529.093 63.55 542.699 71.3281 555.571 74.6981C568.416 78.0438 580.526 76.9796 588.945 89.4189C597.37 101.886 600.507 120.064 597.386 134.824C594.258 149.553 584.856 160.901 575.106 172.582C565.355 184.263 553.058 184.247 542.801 183.074C532.544 181.902 521.184 173.716 509.374 162.001C497.586 150.281 487.559 147.121 482.763 134.17C477.989 121.212 481.572 104.353 488.691 91.9288Z" fill="white"/>
<path d="M168 133.266C179.333 129.266 204.7 119.566 215.5 112.766" stroke="#E0E2E9" stroke-width="16" stroke-linecap="round"/>
<path d="M623 133.266C634.333 129.266 659.7 119.566 670.5 112.766" stroke="#E0E2E9" stroke-width="16" stroke-linecap="round"/>
<path d="M168 133.266C179.333 129.266 204.7 119.566 215.5 112.766" stroke="white" stroke-width="2" stroke-linecap="round" stroke-dasharray="2 8"/>
<path d="M623 133.266C634.333 129.266 659.7 119.566 670.5 112.766" stroke="white" stroke-width="2" stroke-linecap="round" stroke-dasharray="2 8"/>
<path d="M229.734 128.081C229.738 127.805 229.518 127.578 229.242 127.573L224.742 127.5C224.466 127.495 224.239 127.715 224.234 127.992C224.23 128.268 224.45 128.495 224.726 128.5L228.725 128.565L228.66 132.565C228.656 132.841 228.876 133.068 229.152 133.073C229.428 133.077 229.655 132.857 229.66 132.581L229.734 128.081ZM220.735 134.279C220.501 134.425 220.43 134.734 220.576 134.968C220.722 135.202 221.031 135.273 221.265 135.127L220.735 134.279ZM221.265 135.127C225.308 132.6 226.337 131.573 229.581 128.433L228.886 127.714C225.663 130.833 224.692 131.806 220.735 134.279L221.265 135.127Z" fill="#5567D5"/>
<path d="M684.734 128.081C684.738 127.805 684.518 127.578 684.242 127.573L679.742 127.5C679.466 127.495 679.239 127.715 679.234 127.992C679.23 128.268 679.45 128.495 679.726 128.5L683.725 128.565L683.66 132.565C683.656 132.841 683.876 133.068 684.152 133.073C684.428 133.077 684.655 132.857 684.66 132.581L684.734 128.081ZM675.735 134.279C675.501 134.425 675.43 134.734 675.576 134.968C675.722 135.202 676.031 135.273 676.265 135.127L675.735 134.279ZM676.265 135.127C680.308 132.6 681.337 131.573 684.581 128.433L683.886 127.714C680.663 130.833 679.692 131.806 675.735 134.279L676.265 135.127Z" fill="#5567D5"/>
<path d="M768.789 146.008C755.015 146.375 743.059 141.605 733.961 134.3C724.882 126.977 724.194 111.881 720.3 99.5983C716.4 87.3509 709.291 77.9169 715.068 64.7546C720.865 51.5737 734.032 39.8829 747.646 35.0556C761.237 30.2497 775.313 32.3013 789.839 34.4729C804.365 36.6444 810.691 46.7735 815.025 55.8028C819.358 64.832 818.556 78.2828 815.117 93.8733C811.662 109.447 814.26 119.283 806.199 129.72C798.122 140.142 782.563 145.642 768.789 146.008Z" fill="white"/>
<path d="M746.592 106.453V84.1966C746.592 83.4406 747.399 82.958 748.065 83.3155L768.754 94.4157C769.078 94.5899 769.281 94.9284 769.281 95.2969V117.418C769.281 118.171 768.479 118.654 767.813 118.301L747.124 107.337C746.797 107.163 746.592 106.824 746.592 106.453Z" fill="#A6B3FF"/>
<path d="M791.97 105.823V83.5664C791.97 82.8104 791.163 82.3278 790.497 82.6852L769.808 93.7855C769.484 93.9596 769.281 94.2982 769.281 94.6666V116.787C769.281 117.541 770.083 118.024 770.749 117.671L791.438 106.707C791.765 106.533 791.97 106.193 791.97 105.823Z" fill="#CCD1F2"/>
<path d="M768.021 121.6L789.229 109.145C790.146 108.606 790.709 107.622 790.709 106.558V83.3421C790.709 82.2783 790.146 81.294 789.229 80.7553L785.037 78.2936M756.676 114.938L746.812 109.145C745.895 108.606 745.332 107.622 745.332 106.558V83.3421C745.332 82.2783 745.895 81.294 746.812 80.7553L751.004 78.2936" stroke="#1D2028" stroke-linecap="round"/>
<path d="M769.281 95.3102V117.819" stroke="#1D2028" stroke-linecap="round"/>
<path d="M765.343 101.362L768.808 94.9288C769.069 94.4431 768.888 93.8373 768.403 93.575L746.72 81.8548C746.285 81.6192 745.742 81.7382 745.445 82.1345L740.987 88.0782C740.62 88.5675 740.774 89.2687 741.313 89.5587L763.989 101.769C764.475 102.031 765.082 101.849 765.343 101.362Z" fill="white"/>
<circle cx="788.81" cy="47.8123" r="3.28805" fill="#A6B3FF"/>
<path d="M752.58 95.6253L741.313 89.5587C740.774 89.2687 740.62 88.5675 740.987 88.0782L745.445 82.1345C745.742 81.7382 746.285 81.6192 746.72 81.8548L768.403 93.575C768.888 93.8373 769.069 94.4431 768.808 94.9288L765.343 101.362C765.082 101.849 764.475 102.031 763.989 101.769L758.724 98.9341" stroke="#1D2028" stroke-linecap="round"/>
<path d="M772.835 100.736L769.758 95.0457C769.495 94.5592 769.676 93.9516 770.163 93.6895L789.816 83.1123C790.251 82.8782 790.792 82.9967 791.089 83.3912L795.049 88.649C795.418 89.1388 795.264 89.8422 794.723 90.1319L774.187 101.142C773.702 101.402 773.097 101.221 772.835 100.736Z" fill="white"/>
<path d="M771.802 98.4614L769.727 94.406C769.479 93.9215 769.664 93.3278 770.143 93.0699L789.816 82.482C790.251 82.248 790.792 82.3664 791.089 82.7609L795.049 88.0187C795.418 88.5085 795.264 89.2119 794.723 89.5017C791.372 91.2985 787.452 93.3999 783.889 95.3102" stroke="#1D2028" stroke-linecap="round"/>
<circle cx="761.088" cy="58.7561" r="0.630244" fill="#1D2028"/>
<circle cx="786.298" cy="62.5376" r="0.630244" fill="#1D2028"/>
<path d="M789.175 49.639C790.789 49.639 792.098 48.3305 792.098 46.7163C792.098 45.1021 790.789 43.7936 789.175 43.7936C787.561 43.7936 786.252 45.1021 786.252 46.7163" stroke="#1D2028" stroke-linecap="round"/>
<circle cx="777.891" cy="53.8907" r="1.39073" stroke="#1D2028"/>
<circle cx="749.743" cy="62.5376" r="1.39073" fill="#CCD1F2" stroke="#1D2028"/>
<path d="M270.084 165.623L270.04 165.631C268.868 165.631 267.865 165.323 267.022 164.715C266.18 164.107 265.609 163.353 265.308 162.459L266.846 161.998C267.088 162.635 267.498 163.163 268.077 163.573C268.656 163.983 269.337 164.188 270.128 164.188C270.823 164.188 271.395 164.019 271.842 163.69C272.288 163.36 272.515 162.979 272.515 162.547C272.515 162.196 272.391 161.903 272.135 161.661C271.878 161.419 271.453 161.207 270.853 161.017L268.216 160.174C266.641 159.684 265.858 158.827 265.858 157.603C265.858 156.812 266.202 156.131 266.89 155.567C267.579 155.003 268.443 154.718 269.483 154.718C270.552 154.718 271.475 154.967 272.252 155.465C273.028 155.963 273.577 156.585 273.9 157.332L272.384 157.787C272.135 157.296 271.761 156.9 271.256 156.6C270.75 156.3 270.164 156.153 269.498 156.153C268.919 156.153 268.443 156.292 268.07 156.571C267.696 156.849 267.506 157.179 267.506 157.56C267.506 157.86 267.615 158.109 267.828 158.307C268.04 158.504 268.385 158.673 268.853 158.812L271.431 159.632C272.34 159.918 273.028 160.269 273.49 160.687C273.951 161.104 274.185 161.683 274.185 162.43C274.185 163.331 273.804 164.085 273.043 164.701C272.281 165.316 271.292 165.623 270.084 165.623ZM279.854 163.895L280.242 165.184C279.671 165.426 279.115 165.543 278.58 165.543C277.789 165.543 277.196 165.316 276.807 164.862C276.419 164.408 276.221 163.778 276.221 162.979V159.273H274.844V157.882H276.221V155.362H277.781V157.882H280.184V159.273H277.781V162.979C277.781 163.748 278.14 164.137 278.865 164.137C279.195 164.137 279.525 164.056 279.854 163.895ZM284.923 165.623L284.937 165.638C283.743 165.638 282.777 165.272 282.03 164.539C281.282 163.807 280.909 162.848 280.909 161.668C280.909 160.533 281.268 159.588 281.986 158.834C282.703 158.08 283.641 157.699 284.791 157.699C285.985 157.699 286.922 158.058 287.611 158.783C288.299 159.508 288.643 160.416 288.643 161.515C288.643 161.705 288.629 161.917 288.592 162.144H282.462C282.513 162.782 282.755 163.294 283.194 163.683C283.634 164.071 284.227 164.268 284.967 164.268C286.007 164.268 286.724 163.866 287.113 163.053L288.548 163.477C288.277 164.071 287.83 164.576 287.208 164.994C286.585 165.411 285.823 165.623 284.923 165.623ZM282.462 161.104H287.098C287.047 160.504 286.82 160.013 286.417 159.632C286.014 159.251 285.472 159.061 284.798 159.061C284.146 159.061 283.612 159.259 283.187 159.654C282.762 160.05 282.52 160.533 282.462 161.104ZM294.517 157.684V157.691C295.587 157.691 296.48 158.065 297.198 158.819C297.916 159.574 298.275 160.518 298.275 161.654C298.275 162.789 297.916 163.734 297.198 164.488C296.48 165.243 295.587 165.623 294.517 165.623C293.345 165.623 292.445 165.177 291.815 164.283V168.575H290.24V157.882H291.815V159.024C292.445 158.131 293.345 157.684 294.517 157.684ZM294.261 164.217L294.254 164.21C294.971 164.21 295.565 163.968 296.026 163.485C296.488 163.001 296.722 162.386 296.722 161.646C296.722 160.907 296.495 160.299 296.033 159.823C295.572 159.347 294.979 159.105 294.254 159.105C293.558 159.105 292.972 159.347 292.489 159.83C292.005 160.313 291.763 160.921 291.763 161.654C291.763 162.393 292.005 163.009 292.489 163.492C292.972 163.976 293.565 164.217 294.261 164.217ZM305.687 163.939L310.631 163.954V165.44H303.248V164.283L307.386 160.343C307.884 159.874 308.25 159.471 308.485 159.127C308.719 158.783 308.836 158.424 308.836 158.043C308.836 157.472 308.66 157.018 308.309 156.688C307.957 156.358 307.481 156.19 306.873 156.19C306.324 156.19 305.855 156.366 305.467 156.71C305.079 157.054 304.823 157.516 304.698 158.094L303.24 157.669C303.35 156.871 303.739 156.183 304.398 155.604C305.057 155.025 305.87 154.732 306.837 154.732C307.913 154.732 308.785 155.018 309.451 155.589C310.118 156.161 310.455 156.952 310.455 157.962C310.455 158.585 310.294 159.142 309.971 159.64C309.649 160.138 309.158 160.694 308.492 161.302L305.687 163.939Z" fill="#5567D5"/>
<path d="M270.201 178.923V178.93C271.746 178.93 272.984 179.421 273.907 180.395C274.83 181.369 275.291 182.629 275.291 184.174C275.291 185.712 274.83 186.972 273.914 187.954C272.999 188.935 271.761 189.426 270.201 189.426H265.924V178.923H270.201ZM270.172 187.961V187.976C271.241 187.976 272.091 187.617 272.72 186.906C273.35 186.196 273.665 185.28 273.665 184.16C273.665 183.061 273.35 182.16 272.72 181.457C272.091 180.754 271.241 180.402 270.172 180.402H267.55V187.961H270.172ZM280.499 189.623L280.513 189.638C279.32 189.638 278.353 189.272 277.606 188.539C276.859 187.807 276.485 186.848 276.485 185.668C276.485 184.533 276.844 183.588 277.562 182.834C278.28 182.08 279.217 181.699 280.367 181.699C281.561 181.699 282.498 182.058 283.187 182.783C283.875 183.508 284.219 184.416 284.219 185.515C284.219 185.705 284.205 185.917 284.168 186.144H278.038C278.089 186.782 278.331 187.294 278.77 187.683C279.21 188.071 279.803 188.268 280.543 188.268C281.583 188.268 282.301 187.866 282.689 187.053L284.124 187.477C283.853 188.071 283.406 188.576 282.784 188.994C282.161 189.411 281.4 189.623 280.499 189.623ZM278.038 185.104H282.674C282.623 184.504 282.396 184.013 281.993 183.632C281.59 183.251 281.048 183.061 280.374 183.061C279.722 183.061 279.188 183.259 278.763 183.654C278.338 184.05 278.096 184.533 278.038 185.104ZM292.738 181.882L292.73 189.426H291.17V183.273H287.948V189.426H286.373V183.273H284.871V181.882H286.373V181.039C286.373 180.168 286.615 179.487 287.098 179.003C287.581 178.52 288.292 178.278 289.229 178.278C290.203 178.278 291.046 178.527 291.756 179.018L291.368 180.292C290.731 179.86 290.072 179.648 289.39 179.648C288.929 179.648 288.577 179.772 288.328 180.021C288.079 180.27 287.955 180.622 287.955 181.069V181.882H292.738ZM298.853 181.684V181.669C299.813 181.669 300.552 181.962 301.073 182.556C301.593 183.149 301.849 183.962 301.849 184.995V189.418H300.289V185.28C300.289 184.614 300.135 184.094 299.82 183.72C299.505 183.347 299.044 183.156 298.436 183.156C297.777 183.156 297.249 183.383 296.854 183.845C296.458 184.306 296.26 184.914 296.26 185.676V189.426H294.686V181.882H296.26V183.002C296.883 182.123 297.747 181.684 298.853 181.684ZM307.437 189.623L307.452 189.638C306.258 189.638 305.291 189.272 304.544 188.539C303.797 187.807 303.424 186.848 303.424 185.668C303.424 184.533 303.782 183.588 304.5 182.834C305.218 182.08 306.156 181.699 307.305 181.699C308.499 181.699 309.437 182.058 310.125 182.783C310.814 183.508 311.158 184.416 311.158 185.515C311.158 185.705 311.143 185.917 311.107 186.144H304.976C305.028 186.782 305.269 187.294 305.709 187.683C306.148 188.071 306.741 188.268 307.481 188.268C308.521 188.268 309.239 187.866 309.627 187.053L311.063 187.477C310.792 188.071 310.345 188.576 309.722 188.994C309.1 189.411 308.338 189.623 307.437 189.623ZM304.976 185.104H309.613C309.561 184.504 309.334 184.013 308.931 183.632C308.529 183.251 307.987 183.061 307.313 183.061C306.661 183.061 306.126 183.259 305.701 183.654C305.277 184.05 305.035 184.533 304.976 185.104ZM320.05 189.623V189.645C318.914 189.645 317.969 189.265 317.215 188.503C316.461 187.741 316.087 186.796 316.087 185.668C316.087 184.54 316.461 183.596 317.208 182.841C317.955 182.087 318.9 181.706 320.035 181.706C320.98 181.706 321.771 181.948 322.415 182.431C323.06 182.914 323.463 183.464 323.624 184.086L322.166 184.504C322.056 184.13 321.807 183.808 321.419 183.53C321.031 183.251 320.577 183.112 320.057 183.112C319.339 183.112 318.753 183.361 318.299 183.852C317.845 184.343 317.618 184.943 317.618 185.654C317.618 186.35 317.845 186.95 318.299 187.456C318.753 187.961 319.339 188.21 320.05 188.21C320.57 188.21 321.024 188.078 321.412 187.814C321.8 187.551 322.049 187.236 322.159 186.862L323.616 187.265C323.455 187.873 323.06 188.415 322.423 188.898C321.785 189.382 320.994 189.623 320.05 189.623ZM328.773 189.623H328.765C327.615 189.623 326.663 189.243 325.902 188.488C325.14 187.734 324.759 186.789 324.759 185.654C324.759 184.526 325.14 183.581 325.902 182.827C326.663 182.072 327.615 181.691 328.765 181.691C329.915 181.691 330.875 182.065 331.636 182.819C332.398 183.574 332.779 184.518 332.779 185.654C332.779 186.789 332.398 187.734 331.636 188.488C330.875 189.243 329.923 189.623 328.773 189.623ZM328.765 188.195C329.483 188.195 330.076 187.954 330.545 187.47C331.014 186.987 331.248 186.386 331.248 185.668C331.248 184.936 331.014 184.328 330.545 183.845C330.076 183.361 329.483 183.12 328.765 183.12C328.048 183.12 327.454 183.361 326.993 183.845C326.531 184.328 326.297 184.936 326.297 185.668C326.297 186.386 326.531 186.987 326.993 187.47C327.454 187.954 328.048 188.195 328.765 188.195ZM338.58 181.684V181.669C339.539 181.669 340.279 181.962 340.799 182.556C341.319 183.149 341.575 183.962 341.575 184.995V189.418H340.015V185.28C340.015 184.614 339.862 184.094 339.547 183.72C339.232 183.347 338.77 183.156 338.162 183.156C337.503 183.156 336.976 183.383 336.58 183.845C336.185 184.306 335.987 184.914 335.987 185.676V189.426H334.412V181.882H335.987V183.002C336.61 182.123 337.474 181.684 338.58 181.684ZM347.779 181.684V181.669C348.739 181.669 349.478 181.962 349.998 182.556C350.518 183.149 350.775 183.962 350.775 184.995V189.418H349.215V185.28C349.215 184.614 349.061 184.094 348.746 183.72C348.431 183.347 347.969 183.156 347.362 183.156C346.702 183.156 346.175 183.383 345.78 183.845C345.384 184.306 345.186 184.914 345.186 185.676V189.426H343.612V181.882H345.186V183.002C345.809 182.123 346.673 181.684 347.779 181.684ZM356.363 189.623L356.378 189.638C355.184 189.638 354.217 189.272 353.47 188.539C352.723 187.807 352.349 186.848 352.349 185.668C352.349 184.533 352.708 183.588 353.426 182.834C354.144 182.08 355.081 181.699 356.231 181.699C357.425 181.699 358.363 182.058 359.051 182.783C359.74 183.508 360.084 184.416 360.084 185.515C360.084 185.705 360.069 185.917 360.032 186.144H353.902C353.953 186.782 354.195 187.294 354.635 187.683C355.074 188.071 355.667 188.268 356.407 188.268C357.447 188.268 358.165 187.866 358.553 187.053L359.989 187.477C359.718 188.071 359.271 188.576 358.648 188.994C358.026 189.411 357.264 189.623 356.363 189.623ZM353.902 185.104H358.538C358.487 184.504 358.26 184.013 357.857 183.632C357.454 183.251 356.912 183.061 356.239 183.061C355.587 183.061 355.052 183.259 354.627 183.654C354.202 184.05 353.961 184.533 353.902 185.104ZM365.181 189.623V189.645C364.046 189.645 363.101 189.265 362.347 188.503C361.593 187.741 361.219 186.796 361.219 185.668C361.219 184.54 361.593 183.596 362.34 182.841C363.087 182.087 364.031 181.706 365.167 181.706C366.112 181.706 366.903 181.948 367.547 182.431C368.192 182.914 368.594 183.464 368.756 184.086L367.298 184.504C367.188 184.13 366.939 183.808 366.551 183.53C366.163 183.251 365.709 183.112 365.189 183.112C364.471 183.112 363.885 183.361 363.431 183.852C362.977 184.343 362.75 184.943 362.75 185.654C362.75 186.35 362.977 186.95 363.431 187.456C363.885 187.961 364.471 188.21 365.181 188.21C365.701 188.21 366.156 188.078 366.544 187.814C366.932 187.551 367.181 187.236 367.291 186.862L368.748 187.265C368.587 187.873 368.192 188.415 367.554 188.898C366.917 189.382 366.126 189.623 365.181 189.623ZM374.6 187.895L374.989 189.184C374.417 189.426 373.861 189.543 373.326 189.543C372.535 189.543 371.942 189.316 371.553 188.862C371.165 188.408 370.968 187.778 370.968 186.979V183.273H369.591V181.882H370.968V179.362H372.528V181.882H374.93V183.273H372.528V186.979C372.528 187.748 372.886 188.137 373.612 188.137C373.941 188.137 374.271 188.056 374.6 187.895ZM377.362 180.651C377.083 180.651 376.849 180.556 376.658 180.373C376.468 180.19 376.373 179.956 376.373 179.677C376.373 179.421 376.468 179.194 376.658 179.003C376.849 178.813 377.083 178.718 377.362 178.718C377.64 178.718 377.874 178.813 378.065 179.003C378.255 179.194 378.35 179.421 378.35 179.677C378.35 179.956 378.255 180.19 378.065 180.373C377.874 180.556 377.64 180.651 377.362 180.651ZM376.563 189.426V181.882H378.123V189.426H376.563ZM383.807 189.623H383.8C382.65 189.623 381.698 189.243 380.936 188.488C380.174 187.734 379.793 186.789 379.793 185.654C379.793 184.526 380.174 183.581 380.936 182.827C381.698 182.072 382.65 181.691 383.8 181.691C384.949 181.691 385.909 182.065 386.671 182.819C387.432 183.574 387.813 184.518 387.813 185.654C387.813 186.789 387.432 187.734 386.671 188.488C385.909 189.243 384.957 189.623 383.807 189.623ZM383.8 188.195C384.517 188.195 385.111 187.954 385.579 187.47C386.048 186.987 386.282 186.386 386.282 185.668C386.282 184.936 386.048 184.328 385.579 183.845C385.111 183.361 384.517 183.12 383.8 183.12C383.082 183.12 382.489 183.361 382.027 183.845C381.566 184.328 381.331 184.936 381.331 185.668C381.331 186.386 381.566 186.987 382.027 187.47C382.489 187.954 383.082 188.195 383.8 188.195ZM393.614 181.684V181.669C394.573 181.669 395.313 181.962 395.833 182.556C396.353 183.149 396.61 183.962 396.61 184.995V189.418H395.05V185.28C395.05 184.614 394.896 184.094 394.581 183.72C394.266 183.347 393.804 183.156 393.197 183.156C392.537 183.156 392.01 183.383 391.615 183.845C391.219 184.306 391.021 184.914 391.021 185.676V189.426H389.447V181.882H391.021V183.002C391.644 182.123 392.508 181.684 393.614 181.684ZM270.201 205.684V205.691C271.27 205.691 272.164 206.065 272.882 206.819C273.599 207.574 273.958 208.518 273.958 209.654C273.958 210.789 273.599 211.734 272.882 212.488C272.164 213.243 271.27 213.623 270.201 213.623C269.029 213.623 268.128 213.177 267.498 212.283V216.575H265.924V205.882H267.498V207.024C268.128 206.131 269.029 205.684 270.201 205.684ZM269.945 212.217L269.937 212.21C270.655 212.21 271.248 211.968 271.71 211.485C272.171 211.001 272.406 210.386 272.406 209.646C272.406 208.907 272.178 208.299 271.717 207.823C271.256 207.347 270.662 207.105 269.937 207.105C269.241 207.105 268.656 207.347 268.172 207.83C267.689 208.313 267.447 208.921 267.447 209.654C267.447 210.393 267.689 211.009 268.172 211.492C268.656 211.976 269.249 212.217 269.945 212.217ZM278.865 213.623V213.616C277.796 213.616 276.903 213.235 276.185 212.481C275.467 211.727 275.108 210.782 275.108 209.646C275.108 208.518 275.467 207.574 276.185 206.819C276.903 206.065 277.796 205.684 278.865 205.684C280.045 205.684 280.953 206.131 281.583 207.024V205.882H283.143V213.426H281.583V212.283C280.953 213.177 280.045 213.623 278.865 213.623ZM279.122 212.203L279.1 212.21C279.796 212.21 280.389 211.968 280.872 211.485C281.356 211.001 281.597 210.386 281.597 209.646C281.597 208.914 281.356 208.306 280.872 207.823C280.389 207.339 279.803 207.098 279.107 207.098C278.389 207.098 277.803 207.339 277.342 207.815C276.881 208.291 276.654 208.899 276.654 209.639C276.654 210.379 276.888 210.994 277.349 211.477C277.811 211.961 278.404 212.203 279.122 212.203ZM286.805 207.083L286.798 207.09C287.025 206.622 287.362 206.27 287.808 206.036C288.255 205.801 288.782 205.721 289.383 205.801V207.266C288.555 207.142 287.918 207.303 287.471 207.749C287.025 208.196 286.805 208.951 286.805 210.02V213.426H285.23V205.882H286.805V207.083ZM293.616 213.623V213.616C292.547 213.616 291.654 213.235 290.936 212.481C290.218 211.727 289.859 210.782 289.859 209.646C289.859 208.518 290.218 207.574 290.936 206.819C291.654 206.065 292.547 205.684 293.616 205.684C294.796 205.684 295.704 206.131 296.334 207.024V205.882H297.894V213.426H296.334V212.283C295.704 213.177 294.796 213.623 293.616 213.623ZM293.873 212.203L293.851 212.21C294.547 212.21 295.14 211.968 295.623 211.485C296.107 211.001 296.348 210.386 296.348 209.646C296.348 208.914 296.107 208.306 295.623 207.823C295.14 207.339 294.554 207.098 293.858 207.098C293.14 207.098 292.554 207.339 292.093 207.815C291.632 208.291 291.405 208.899 291.405 209.639C291.405 210.379 291.639 210.994 292.1 211.477C292.562 211.961 293.155 212.203 293.873 212.203ZM308.895 205.684H308.887C309.788 205.684 310.506 205.97 311.041 206.541C311.575 207.112 311.846 207.903 311.846 208.914V213.426H310.272V209.214C310.272 208.562 310.133 208.057 309.847 207.698C309.561 207.339 309.136 207.156 308.573 207.156C307.994 207.156 307.532 207.369 307.196 207.786C306.859 208.204 306.69 208.768 306.69 209.478V213.426H305.13V209.214C305.13 208.562 304.991 208.057 304.713 207.698C304.434 207.339 304.031 207.156 303.497 207.156C302.896 207.156 302.42 207.376 302.076 207.815C301.732 208.255 301.556 208.855 301.556 209.617V213.426H299.981V205.882H301.556V206.929C302.127 206.102 302.918 205.684 303.929 205.684C305.028 205.684 305.804 206.116 306.251 206.973C306.822 206.116 307.701 205.684 308.895 205.684ZM317.427 213.623L317.442 213.638C316.248 213.638 315.281 213.272 314.534 212.539C313.787 211.807 313.414 210.848 313.414 209.668C313.414 208.533 313.773 207.588 314.49 206.834C315.208 206.08 316.146 205.699 317.296 205.699C318.49 205.699 319.427 206.058 320.115 206.783C320.804 207.508 321.148 208.416 321.148 209.515C321.148 209.705 321.134 209.917 321.097 210.144H314.967C315.018 210.782 315.26 211.294 315.699 211.683C316.138 212.071 316.732 212.268 317.471 212.268C318.511 212.268 319.229 211.866 319.617 211.053L321.053 211.477C320.782 212.071 320.335 212.576 319.713 212.994C319.09 213.411 318.328 213.623 317.427 213.623ZM314.967 209.104H319.603C319.552 208.504 319.324 208.013 318.922 207.632C318.519 207.251 317.977 207.061 317.303 207.061C316.651 207.061 316.116 207.259 315.692 207.654C315.267 208.05 315.025 208.533 314.967 209.104ZM326.744 211.895L327.132 213.184C326.561 213.426 326.004 213.543 325.469 213.543C324.678 213.543 324.085 213.316 323.697 212.862C323.309 212.408 323.111 211.778 323.111 210.979V207.273H321.734V205.882H323.111V203.362H324.671V205.882H327.073V207.273H324.671V210.979C324.671 211.748 325.03 212.137 325.755 212.137C326.085 212.137 326.414 212.056 326.744 211.895ZM331.812 213.623L331.827 213.638C330.633 213.638 329.666 213.272 328.919 212.539C328.172 211.807 327.799 210.848 327.799 209.668C327.799 208.533 328.157 207.588 328.875 206.834C329.593 206.08 330.531 205.699 331.68 205.699C332.874 205.699 333.812 206.058 334.5 206.783C335.189 207.508 335.533 208.416 335.533 209.515C335.533 209.705 335.518 209.917 335.482 210.144H329.351C329.403 210.782 329.644 211.294 330.084 211.683C330.523 212.071 331.116 212.268 331.856 212.268C332.896 212.268 333.614 211.866 334.002 211.053L335.438 211.477C335.167 212.071 334.72 212.576 334.097 212.994C333.475 213.411 332.713 213.623 331.812 213.623ZM329.351 209.104H333.988C333.936 208.504 333.709 208.013 333.306 207.632C332.904 207.251 332.362 207.061 331.688 207.061C331.036 207.061 330.501 207.259 330.076 207.654C329.652 208.05 329.41 208.533 329.351 209.104ZM338.704 207.083L338.697 207.09C338.924 206.622 339.261 206.27 339.708 206.036C340.155 205.801 340.682 205.721 341.282 205.801V207.266C340.455 207.142 339.818 207.303 339.371 207.749C338.924 208.196 338.704 208.951 338.704 210.02V213.426H337.13V205.882H338.704V207.083ZM345.435 213.623L345.399 213.631C344.542 213.631 343.787 213.404 343.128 212.957C342.469 212.51 342.044 211.968 341.846 211.331L343.275 210.914C343.414 211.324 343.685 211.661 344.08 211.932C344.476 212.203 344.937 212.334 345.457 212.334C345.926 212.334 346.307 212.232 346.6 212.034C346.893 211.836 347.039 211.595 347.039 211.309C347.039 211.082 346.966 210.899 346.812 210.767C346.658 210.635 346.409 210.518 346.065 210.415L344.036 209.815C342.835 209.456 342.235 208.811 342.235 207.881C342.235 207.281 342.513 206.768 343.077 206.336C343.641 205.904 344.322 205.691 345.12 205.691C345.911 205.691 346.6 205.867 347.178 206.219C347.757 206.57 348.16 207.032 348.387 207.596L346.995 208.006C346.842 207.706 346.6 207.456 346.27 207.251C345.941 207.046 345.552 206.944 345.106 206.944C344.725 206.944 344.41 207.039 344.161 207.222C343.912 207.405 343.787 207.618 343.787 207.859C343.787 208.189 344.058 208.438 344.6 208.606L346.607 209.185C347.23 209.368 347.713 209.61 348.065 209.917C348.416 210.225 348.592 210.664 348.592 211.243C348.592 211.924 348.292 212.488 347.698 212.942C347.105 213.396 346.351 213.623 345.435 213.623Z" fill="#40404B"/>
<path d="M726.084 165.623L726.04 165.631C724.868 165.631 723.865 165.323 723.022 164.715C722.18 164.107 721.609 163.353 721.308 162.459L722.846 161.998C723.088 162.635 723.498 163.163 724.077 163.573C724.656 163.983 725.337 164.188 726.128 164.188C726.823 164.188 727.395 164.019 727.842 163.69C728.288 163.36 728.515 162.979 728.515 162.547C728.515 162.196 728.391 161.903 728.135 161.661C727.878 161.419 727.453 161.207 726.853 161.017L724.216 160.174C722.641 159.684 721.858 158.827 721.858 157.603C721.858 156.812 722.202 156.131 722.89 155.567C723.579 155.003 724.443 154.718 725.483 154.718C726.552 154.718 727.475 154.967 728.252 155.465C729.028 155.963 729.577 156.585 729.9 157.332L728.384 157.787C728.135 157.296 727.761 156.9 727.256 156.6C726.75 156.3 726.164 156.153 725.498 156.153C724.919 156.153 724.443 156.292 724.07 156.571C723.696 156.849 723.506 157.179 723.506 157.56C723.506 157.86 723.615 158.109 723.828 158.307C724.04 158.504 724.385 158.673 724.853 158.812L727.431 159.632C728.34 159.918 729.028 160.269 729.49 160.687C729.951 161.104 730.185 161.683 730.185 162.43C730.185 163.331 729.804 164.085 729.043 164.701C728.281 165.316 727.292 165.623 726.084 165.623ZM735.854 163.895L736.242 165.184C735.671 165.426 735.115 165.543 734.58 165.543C733.789 165.543 733.196 165.316 732.807 164.862C732.419 164.408 732.221 163.778 732.221 162.979V159.273H730.844V157.882H732.221V155.362H733.781V157.882H736.184V159.273H733.781V162.979C733.781 163.748 734.14 164.137 734.865 164.137C735.195 164.137 735.525 164.056 735.854 163.895ZM740.923 165.623L740.937 165.638C739.743 165.638 738.777 165.272 738.03 164.539C737.282 163.807 736.909 162.848 736.909 161.668C736.909 160.533 737.268 159.588 737.986 158.834C738.703 158.08 739.641 157.699 740.791 157.699C741.985 157.699 742.922 158.058 743.611 158.783C744.299 159.508 744.643 160.416 744.643 161.515C744.643 161.705 744.629 161.917 744.592 162.144H738.462C738.513 162.782 738.755 163.294 739.194 163.683C739.634 164.071 740.227 164.268 740.967 164.268C742.007 164.268 742.724 163.866 743.113 163.053L744.548 163.477C744.277 164.071 743.83 164.576 743.208 164.994C742.585 165.411 741.823 165.623 740.923 165.623ZM738.462 161.104H743.098C743.047 160.504 742.82 160.013 742.417 159.632C742.014 159.251 741.472 159.061 740.798 159.061C740.146 159.061 739.612 159.259 739.187 159.654C738.762 160.05 738.52 160.533 738.462 161.104ZM750.517 157.684V157.691C751.587 157.691 752.48 158.065 753.198 158.819C753.916 159.574 754.275 160.518 754.275 161.654C754.275 162.789 753.916 163.734 753.198 164.488C752.48 165.243 751.587 165.623 750.517 165.623C749.345 165.623 748.445 165.177 747.815 164.283V168.575H746.24V157.882H747.815V159.024C748.445 158.131 749.345 157.684 750.517 157.684ZM750.261 164.217L750.254 164.21C750.971 164.21 751.565 163.968 752.026 163.485C752.488 163.001 752.722 162.386 752.722 161.646C752.722 160.907 752.495 160.299 752.033 159.823C751.572 159.347 750.979 159.105 750.254 159.105C749.558 159.105 748.972 159.347 748.489 159.83C748.005 160.313 747.763 160.921 747.763 161.654C747.763 162.393 748.005 163.009 748.489 163.492C748.972 163.976 749.565 164.217 750.261 164.217ZM767.341 161.793V163.236H765.971V165.426H764.338V163.236H759.087V162.035L762.851 154.923H764.609L760.998 161.793H764.338V159.398H765.971V161.793H767.341Z" fill="#5567D5"/>
<path d="M729.159 178.497L730.807 178.504V184.759C730.807 186.1 730.419 187.176 729.635 187.989C728.852 188.802 727.768 189.205 726.376 189.205C724.984 189.205 723.9 188.802 723.117 187.997C722.333 187.191 721.945 186.114 721.945 184.759V178.504H723.578V184.73C723.578 185.631 723.82 186.349 724.303 186.891C724.787 187.433 725.475 187.704 726.376 187.704C727.277 187.704 727.965 187.433 728.441 186.891C728.917 186.349 729.159 185.624 729.159 184.723V178.497ZM735.539 189.198L735.502 189.205C734.645 189.205 733.891 188.978 733.231 188.531C732.572 188.084 732.147 187.542 731.95 186.905L733.378 186.488C733.517 186.898 733.788 187.235 734.184 187.506C734.579 187.777 735.041 187.909 735.561 187.909C736.029 187.909 736.41 187.806 736.703 187.608C736.996 187.411 737.143 187.169 737.143 186.883C737.143 186.656 737.069 186.473 736.916 186.341C736.762 186.209 736.513 186.092 736.168 185.99L734.14 185.389C732.938 185.03 732.338 184.386 732.338 183.456C732.338 182.855 732.616 182.342 733.18 181.91C733.744 181.478 734.425 181.266 735.224 181.266C736.015 181.266 736.703 181.441 737.282 181.793C737.86 182.145 738.263 182.606 738.49 183.17L737.099 183.58C736.945 183.28 736.703 183.031 736.374 182.826C736.044 182.621 735.656 182.518 735.209 182.518C734.828 182.518 734.513 182.613 734.264 182.796C734.015 182.979 733.891 183.192 733.891 183.434C733.891 183.763 734.162 184.012 734.704 184.181L736.71 184.759C737.333 184.942 737.816 185.184 738.168 185.492C738.52 185.799 738.695 186.239 738.695 186.817C738.695 187.499 738.395 188.062 737.802 188.517C737.208 188.971 736.454 189.198 735.539 189.198ZM743.83 189.198L743.844 189.212C742.65 189.212 741.684 188.846 740.937 188.114C740.189 187.381 739.816 186.422 739.816 185.243C739.816 184.107 740.175 183.163 740.893 182.408C741.61 181.654 742.548 181.273 743.698 181.273C744.892 181.273 745.829 181.632 746.518 182.357C747.206 183.082 747.55 183.99 747.55 185.089C747.55 185.279 747.536 185.492 747.499 185.719H741.369C741.42 186.356 741.662 186.869 742.101 187.257C742.541 187.645 743.134 187.843 743.874 187.843C744.914 187.843 745.631 187.44 746.02 186.627L747.455 187.052C747.184 187.645 746.737 188.15 746.115 188.568C745.492 188.985 744.73 189.198 743.83 189.198ZM741.369 184.679H746.005C745.954 184.078 745.727 183.587 745.324 183.207C744.921 182.826 744.379 182.635 743.705 182.635C743.053 182.635 742.519 182.833 742.094 183.229C741.669 183.624 741.427 184.107 741.369 184.679ZM757.174 187.469L757.562 188.758C756.991 189 756.435 189.117 755.9 189.117C755.109 189.117 754.516 188.89 754.127 188.436C753.739 187.982 753.542 187.352 753.542 186.554V182.848H752.165V181.456H753.542V178.937H755.102V181.456H757.504V182.848H755.102V186.554C755.102 187.323 755.46 187.711 756.186 187.711C756.515 187.711 756.845 187.63 757.174 187.469ZM763.224 181.258V181.244C764.184 181.244 764.923 181.537 765.443 182.13C765.963 182.723 766.22 183.536 766.22 184.569V188.993H764.66V184.854C764.66 184.188 764.506 183.668 764.191 183.294C763.876 182.921 763.415 182.73 762.807 182.73C762.147 182.73 761.62 182.958 761.225 183.419C760.829 183.88 760.631 184.488 760.631 185.25V189H759.057V178.05H760.631V182.577C761.254 181.698 762.118 181.258 763.224 181.258ZM771.808 189.198L771.823 189.212C770.629 189.212 769.662 188.846 768.915 188.114C768.168 187.381 767.794 186.422 767.794 185.243C767.794 184.107 768.153 183.163 768.871 182.408C769.589 181.654 770.526 181.273 771.676 181.273C772.87 181.273 773.808 181.632 774.496 182.357C775.185 183.082 775.529 183.99 775.529 185.089C775.529 185.279 775.514 185.492 775.478 185.719H769.347C769.398 186.356 769.64 186.869 770.08 187.257C770.519 187.645 771.112 187.843 771.852 187.843C772.892 187.843 773.61 187.44 773.998 186.627L775.434 187.052C775.163 187.645 774.716 188.15 774.093 188.568C773.471 188.985 772.709 189.198 771.808 189.198ZM769.347 184.679H773.983C773.932 184.078 773.705 183.587 773.302 183.207C772.899 182.826 772.357 182.635 771.684 182.635C771.032 182.635 770.497 182.833 770.072 183.229C769.647 183.624 769.406 184.107 769.347 184.679ZM783.791 189.198L783.754 189.205C782.897 189.205 782.143 188.978 781.483 188.531C780.824 188.084 780.399 187.542 780.202 186.905L781.63 186.488C781.769 186.898 782.04 187.235 782.436 187.506C782.831 187.777 783.292 187.909 783.812 187.909C784.281 187.909 784.662 187.806 784.955 187.608C785.248 187.411 785.395 187.169 785.395 186.883C785.395 186.656 785.321 186.473 785.167 186.341C785.014 186.209 784.765 186.092 784.42 185.99L782.392 185.389C781.19 185.03 780.59 184.386 780.59 183.456C780.59 182.855 780.868 182.342 781.432 181.91C781.996 181.478 782.677 181.266 783.476 181.266C784.267 181.266 784.955 181.441 785.534 181.793C786.112 182.145 786.515 182.606 786.742 183.17L785.351 183.58C785.197 183.28 784.955 183.031 784.625 182.826C784.296 182.621 783.908 182.518 783.461 182.518C783.08 182.518 782.765 182.613 782.516 182.796C782.267 182.979 782.143 183.192 782.143 183.434C782.143 183.763 782.414 184.012 782.956 184.181L784.962 184.759C785.585 184.942 786.068 185.184 786.42 185.492C786.771 185.799 786.947 186.239 786.947 186.817C786.947 187.499 786.647 188.062 786.054 188.517C785.46 188.971 784.706 189.198 783.791 189.198ZM792.082 189.198L792.096 189.212C790.902 189.212 789.936 188.846 789.188 188.114C788.441 187.381 788.068 186.422 788.068 185.243C788.068 184.107 788.427 183.163 789.145 182.408C789.862 181.654 790.8 181.273 791.95 181.273C793.144 181.273 794.081 181.632 794.77 182.357C795.458 183.082 795.802 183.99 795.802 185.089C795.802 185.279 795.788 185.492 795.751 185.719H789.621C789.672 186.356 789.914 186.869 790.353 187.257C790.792 187.645 791.386 187.843 792.125 187.843C793.166 187.843 793.883 187.44 794.271 186.627L795.707 187.052C795.436 187.645 794.989 188.15 794.367 188.568C793.744 188.985 792.982 189.198 792.082 189.198ZM789.621 184.679H794.257C794.206 184.078 793.979 183.587 793.576 183.207C793.173 182.826 792.631 182.635 791.957 182.635C791.305 182.635 790.771 182.833 790.346 183.229C789.921 183.624 789.679 184.107 789.621 184.679ZM798.974 182.657L798.966 182.665C799.193 182.196 799.53 181.844 799.977 181.61C800.424 181.375 800.951 181.295 801.552 181.375V182.84C800.724 182.716 800.087 182.877 799.64 183.324C799.193 183.771 798.974 184.525 798.974 185.594V189H797.399V181.456H798.974V182.657ZM808.605 181.456H810.312L807.118 189H805.368L802.167 181.456H803.881L806.232 187.293L808.605 181.456ZM812.289 180.226C812.011 180.226 811.776 180.13 811.586 179.947C811.396 179.764 811.3 179.53 811.3 179.251C811.3 178.995 811.396 178.768 811.586 178.578C811.776 178.387 812.011 178.292 812.289 178.292C812.567 178.292 812.802 178.387 812.992 178.578C813.183 178.768 813.278 178.995 813.278 179.251C813.278 179.53 813.183 179.764 812.992 179.947C812.802 180.13 812.567 180.226 812.289 180.226ZM811.491 189V181.456H813.051V189H811.491ZM818.698 189.198V189.22C817.562 189.22 816.618 188.839 815.863 188.077C815.109 187.315 814.735 186.371 814.735 185.243C814.735 184.115 815.109 183.17 815.856 182.416C816.603 181.661 817.548 181.28 818.683 181.28C819.628 181.28 820.419 181.522 821.063 182.005C821.708 182.489 822.111 183.038 822.272 183.661L820.814 184.078C820.705 183.705 820.456 183.382 820.067 183.104C819.679 182.826 819.225 182.687 818.705 182.687C817.987 182.687 817.401 182.936 816.947 183.426C816.493 183.917 816.266 184.518 816.266 185.228C816.266 185.924 816.493 186.524 816.947 187.03C817.401 187.535 817.987 187.784 818.698 187.784C819.218 187.784 819.672 187.652 820.06 187.389C820.448 187.125 820.697 186.81 820.807 186.437L822.265 186.839C822.104 187.447 821.708 187.989 821.071 188.473C820.434 188.956 819.643 189.198 818.698 189.198ZM827.443 189.198L827.458 189.212C826.264 189.212 825.297 188.846 824.55 188.114C823.803 187.381 823.429 186.422 823.429 185.243C823.429 184.107 823.788 183.163 824.506 182.408C825.224 181.654 826.161 181.273 827.311 181.273C828.505 181.273 829.442 181.632 830.131 182.357C830.819 183.082 831.164 183.99 831.164 185.089C831.164 185.279 831.149 185.492 831.112 185.719H824.982C825.033 186.356 825.275 186.869 825.714 187.257C826.154 187.645 826.747 187.843 827.487 187.843C828.527 187.843 829.245 187.44 829.633 186.627L831.068 187.052C830.797 187.645 830.351 188.15 829.728 188.568C829.105 188.985 828.344 189.198 827.443 189.198ZM824.982 184.679H829.618C829.567 184.078 829.34 183.587 828.937 183.207C828.534 182.826 827.992 182.635 827.318 182.635C826.667 182.635 826.132 182.833 825.707 183.229C825.282 183.624 825.041 184.107 824.982 184.679ZM842.062 181.456H843.769L840.575 189H838.825L835.624 181.456H837.338L839.689 187.293L842.062 181.456ZM845.746 180.226C845.468 180.226 845.233 180.13 845.043 179.947C844.853 179.764 844.757 179.53 844.757 179.251C844.757 178.995 844.853 178.768 845.043 178.578C845.233 178.387 845.468 178.292 845.746 178.292C846.024 178.292 846.259 178.387 846.449 178.578C846.64 178.768 846.735 178.995 846.735 179.251C846.735 179.53 846.64 179.764 846.449 179.947C846.259 180.13 846.024 180.226 845.746 180.226ZM844.948 189V181.456H846.508V189H844.948ZM851.942 189.198V189.19C850.873 189.19 849.979 188.81 849.262 188.055C848.544 187.301 848.185 186.356 848.185 185.221C848.185 184.093 848.544 183.148 849.262 182.394C849.979 181.639 850.873 181.258 851.942 181.258C853.122 181.258 854.03 181.705 854.66 182.599V181.456H856.22V189H854.66V187.857C854.03 188.751 853.122 189.198 851.942 189.198ZM852.199 187.777L852.177 187.784C852.873 187.784 853.466 187.542 853.949 187.059C854.433 186.576 854.674 185.96 854.674 185.221C854.674 184.488 854.433 183.88 853.949 183.397C853.466 182.914 852.88 182.672 852.184 182.672C851.466 182.672 850.88 182.914 850.419 183.39C849.958 183.866 849.73 184.474 849.73 185.213C849.73 185.953 849.965 186.568 850.426 187.052C850.888 187.535 851.481 187.777 852.199 187.777ZM726.281 211.469L726.669 212.758C726.098 213 725.541 213.117 725.006 213.117C724.215 213.117 723.622 212.89 723.234 212.436C722.846 211.982 722.648 211.352 722.648 210.554V206.848H721.271V205.456H722.648V202.937H724.208V205.456H726.61V206.848H724.208V210.554C724.208 211.323 724.567 211.711 725.292 211.711C725.622 211.711 725.951 211.63 726.281 211.469ZM732.331 205.258V205.244C733.29 205.244 734.03 205.537 734.55 206.13C735.07 206.723 735.326 207.536 735.326 208.569V212.993H733.766V208.854C733.766 208.188 733.612 207.668 733.297 207.294C732.982 206.921 732.521 206.73 731.913 206.73C731.254 206.73 730.727 206.958 730.331 207.419C729.936 207.88 729.738 208.488 729.738 209.25V213H728.163V202.05H729.738V206.577C730.36 205.698 731.225 205.258 732.331 205.258ZM740.915 213.198L740.929 213.212C739.735 213.212 738.769 212.846 738.021 212.114C737.274 211.381 736.901 210.422 736.901 209.243C736.901 208.107 737.26 207.163 737.978 206.408C738.695 205.654 739.633 205.273 740.783 205.273C741.977 205.273 742.914 205.632 743.603 206.357C744.291 207.082 744.635 207.99 744.635 209.089C744.635 209.279 744.621 209.492 744.584 209.719H738.454C738.505 210.356 738.747 210.869 739.186 211.257C739.625 211.645 740.219 211.843 740.958 211.843C741.999 211.843 742.716 211.44 743.104 210.627L744.54 211.052C744.269 211.645 743.822 212.15 743.2 212.568C742.577 212.985 741.815 213.198 740.915 213.198ZM738.454 208.679H743.09C743.039 208.078 742.812 207.587 742.409 207.207C742.006 206.826 741.464 206.635 740.79 206.635C740.138 206.635 739.604 206.833 739.179 207.229C738.754 207.624 738.512 208.107 738.454 208.679ZM753.527 213.198V213.22C752.392 213.22 751.447 212.839 750.692 212.077C749.938 211.315 749.564 210.371 749.564 209.243C749.564 208.115 749.938 207.17 750.685 206.416C751.432 205.661 752.377 205.28 753.512 205.28C754.457 205.28 755.248 205.522 755.893 206.005C756.537 206.489 756.94 207.038 757.101 207.661L755.644 208.078C755.534 207.705 755.285 207.382 754.896 207.104C754.508 206.826 754.054 206.687 753.534 206.687C752.816 206.687 752.23 206.936 751.776 207.426C751.322 207.917 751.095 208.518 751.095 209.228C751.095 209.924 751.322 210.524 751.776 211.03C752.23 211.535 752.816 211.784 753.527 211.784C754.047 211.784 754.501 211.652 754.889 211.389C755.277 211.125 755.526 210.81 755.636 210.437L757.094 210.839C756.933 211.447 756.537 211.989 755.9 212.473C755.263 212.956 754.472 213.198 753.527 213.198ZM762.25 213.198H762.243C761.093 213.198 760.141 212.817 759.379 212.062C758.617 211.308 758.236 210.363 758.236 209.228C758.236 208.1 758.617 207.155 759.379 206.401C760.141 205.646 761.093 205.266 762.243 205.266C763.393 205.266 764.352 205.639 765.114 206.394C765.875 207.148 766.256 208.093 766.256 209.228C766.256 210.363 765.875 211.308 765.114 212.062C764.352 212.817 763.4 213.198 762.25 213.198ZM762.243 211.77C762.96 211.77 763.554 211.528 764.022 211.044C764.491 210.561 764.726 209.96 764.726 209.243C764.726 208.51 764.491 207.902 764.022 207.419C763.554 206.936 762.96 206.694 762.243 206.694C761.525 206.694 760.932 206.936 760.47 207.419C760.009 207.902 759.774 208.51 759.774 209.243C759.774 209.96 760.009 210.561 760.47 211.044C760.932 211.528 761.525 211.77 762.243 211.77ZM772.057 205.258V205.244C773.017 205.244 773.756 205.537 774.276 206.13C774.796 206.723 775.053 207.536 775.053 208.569V212.993H773.493V208.854C773.493 208.188 773.339 207.668 773.024 207.294C772.709 206.921 772.248 206.73 771.64 206.73C770.98 206.73 770.453 206.958 770.058 207.419C769.662 207.88 769.464 208.488 769.464 209.25V213H767.89V205.456H769.464V206.577C770.087 205.698 770.951 205.258 772.057 205.258ZM781.256 205.258V205.244C782.216 205.244 782.956 205.537 783.476 206.13C783.996 206.723 784.252 207.536 784.252 208.569V212.993H782.692V208.854C782.692 208.188 782.538 207.668 782.223 207.294C781.908 206.921 781.447 206.73 780.839 206.73C780.18 206.73 779.652 206.958 779.257 207.419C778.861 207.88 778.664 208.488 778.664 209.25V213H777.089V205.456H778.664V206.577C779.286 205.698 780.15 205.258 781.256 205.258ZM789.84 213.198L789.855 213.212C788.661 213.212 787.694 212.846 786.947 212.114C786.2 211.381 785.827 210.422 785.827 209.243C785.827 208.107 786.186 207.163 786.903 206.408C787.621 205.654 788.559 205.273 789.708 205.273C790.902 205.273 791.84 205.632 792.528 206.357C793.217 207.082 793.561 207.99 793.561 209.089C793.561 209.279 793.546 209.492 793.51 209.719H787.379C787.431 210.356 787.672 210.869 788.112 211.257C788.551 211.645 789.145 211.843 789.884 211.843C790.924 211.843 791.642 211.44 792.03 210.627L793.466 211.052C793.195 211.645 792.748 212.15 792.125 212.568C791.503 212.985 790.741 213.198 789.84 213.198ZM787.379 208.679H792.016C791.964 208.078 791.737 207.587 791.334 207.207C790.932 206.826 790.39 206.635 789.716 206.635C789.064 206.635 788.529 206.833 788.104 207.229C787.68 207.624 787.438 208.107 787.379 208.679ZM798.659 213.198V213.22C797.523 213.22 796.579 212.839 795.824 212.077C795.07 211.315 794.696 210.371 794.696 209.243C794.696 208.115 795.07 207.17 795.817 206.416C796.564 205.661 797.509 205.28 798.644 205.28C799.589 205.28 800.38 205.522 801.024 206.005C801.669 206.489 802.072 207.038 802.233 207.661L800.775 208.078C800.666 207.705 800.417 207.382 800.028 207.104C799.64 206.826 799.186 206.687 798.666 206.687C797.948 206.687 797.362 206.936 796.908 207.426C796.454 207.917 796.227 208.518 796.227 209.228C796.227 209.924 796.454 210.524 796.908 211.03C797.362 211.535 797.948 211.784 798.659 211.784C799.179 211.784 799.633 211.652 800.021 211.389C800.409 211.125 800.658 210.81 800.768 210.437L802.226 210.839C802.064 211.447 801.669 211.989 801.032 212.473C800.395 212.956 799.604 213.198 798.659 213.198ZM808.078 211.469L808.466 212.758C807.895 213 807.338 213.117 806.803 213.117C806.012 213.117 805.419 212.89 805.031 212.436C804.643 211.982 804.445 211.352 804.445 210.554V206.848H803.068V205.456H804.445V202.937H806.005V205.456H808.407V206.848H806.005V210.554C806.005 211.323 806.364 211.711 807.089 211.711C807.418 211.711 807.748 211.63 808.078 211.469ZM810.839 204.226C810.561 204.226 810.326 204.13 810.136 203.947C809.945 203.764 809.85 203.53 809.85 203.251C809.85 202.995 809.945 202.768 810.136 202.578C810.326 202.387 810.561 202.292 810.839 202.292C811.117 202.292 811.352 202.387 811.542 202.578C811.732 202.768 811.828 202.995 811.828 203.251C811.828 203.53 811.732 203.764 811.542 203.947C811.352 204.13 811.117 204.226 810.839 204.226ZM810.041 213V205.456H811.601V213H810.041ZM817.284 213.198H817.277C816.127 213.198 815.175 212.817 814.413 212.062C813.651 211.308 813.271 210.363 813.271 209.228C813.271 208.1 813.651 207.155 814.413 206.401C815.175 205.646 816.127 205.266 817.277 205.266C818.427 205.266 819.386 205.639 820.148 206.394C820.91 207.148 821.291 208.093 821.291 209.228C821.291 210.363 820.91 211.308 820.148 212.062C819.386 212.817 818.434 213.198 817.284 213.198ZM817.277 211.77C817.995 211.77 818.588 211.528 819.057 211.044C819.525 210.561 819.76 209.96 819.76 209.243C819.76 208.51 819.525 207.902 819.057 207.419C818.588 206.936 817.995 206.694 817.277 206.694C816.559 206.694 815.966 206.936 815.504 207.419C815.043 207.902 814.809 208.51 814.809 209.243C814.809 209.96 815.043 210.561 815.504 211.044C815.966 211.528 816.559 211.77 817.277 211.77ZM827.091 205.258V205.244C828.051 205.244 828.791 205.537 829.311 206.13C829.831 206.723 830.087 207.536 830.087 208.569V212.993H828.527V208.854C828.527 208.188 828.373 207.668 828.058 207.294C827.743 206.921 827.282 206.73 826.674 206.73C826.015 206.73 825.487 206.958 825.092 207.419C824.696 207.88 824.499 208.488 824.499 209.25V213H822.924V205.456H824.499V206.577C825.121 205.698 825.985 205.258 827.091 205.258Z" fill="#40404B"/>
<path d="M390.376 103.111C401.543 105.944 427.076 113.911 439.876 123.111" stroke="#E0E2E9" stroke-width="16" stroke-linecap="round"/>
<path d="M390.376 103.111C401.543 105.944 427.076 113.911 439.876 123.111" stroke="white" stroke-width="2" stroke-linecap="round" stroke-dasharray="2 8"/>
<path d="M449.333 105.517C446.355 102.874 442.318 100.461 438.551 98.6105M438.551 98.6105V98.6105C437.519 98.1034 437.476 98.2018 438.551 98.6105V98.6105Z" stroke="#5567D5"/>
<path d="M545.663 139.051V163.551" stroke="#1D2028" stroke-linecap="round"/>
<path d="M557.663 135V159.5" stroke="#1D2028" stroke-linecap="round"/>
<path d="M571.663 137.5V167.5" stroke="#1D2028" stroke-linecap="round"/>
<circle cx="547.163" cy="148.5" r="3.5" fill="#A6B3FF"/>
<circle cx="558.163" cy="153.5" r="3.5" fill="#CCD1F2"/>
<circle cx="572.163" cy="148.5" r="3.5" fill="#CCD1F2"/>
<path d="M550.604 147.779C551.002 150.233 549.336 152.544 546.883 152.942C544.43 153.34 542.119 151.674 541.721 149.221C541.323 146.767 542.989 144.456 545.442 144.058" stroke="#1D2028" stroke-linecap="round"/>
<path d="M560.282 156.933C558.2 158.29 555.412 157.702 554.055 155.619C552.698 153.537 553.286 150.749 555.369 149.392C557.451 148.036 560.239 148.624 561.595 150.706" stroke="#1D2028" stroke-linecap="round"/>
<path d="M575.309 146.302C576.925 148.19 576.703 151.031 574.815 152.646C572.926 154.262 570.086 154.041 568.47 152.152C567.73 151.288 567.376 150.223 567.39 149.168" stroke="#1D2028" stroke-linecap="round"/>
<rect x="293.45" y="66.0815" width="24.538" height="12.269" rx="6.1345" transform="rotate(-45 293.45 66.0815)" fill="#A6B3FF"/>
<rect x="523.45" y="110.082" width="24.538" height="12.269" rx="6.1345" transform="rotate(-45 523.45 110.082)" fill="#A6B3FF"/>
<rect x="270.094" y="88.4727" width="22.3086" height="11.1543" rx="5.57714" transform="rotate(-45 270.094 88.4727)" fill="#CCD1F2"/>
<rect x="500.094" y="132.473" width="22.3086" height="11.1543" rx="5.57714" transform="rotate(-45 500.094 132.473)" fill="#CCD1F2"/>
<path d="M275.485 83.4347L273.382 85.5375C270.986 87.9331 270.986 91.8173 273.382 94.213V94.213C275.778 96.6086 279.662 96.6086 282.057 94.213L290.713 85.5577C293.119 83.1509 293.119 79.2486 290.713 76.8418V76.8418C288.322 74.4508 284.451 74.4327 282.038 76.8013L281.619 77.2121" stroke="#1D2028" stroke-linecap="round"/>
<path d="M505.485 127.435L503.382 129.537C500.986 131.933 500.986 135.817 503.382 138.213V138.213C505.778 140.609 509.662 140.609 512.057 138.213L520.713 129.558C523.119 127.151 523.119 123.249 520.713 120.842V120.842C518.322 118.451 514.451 118.433 512.038 120.801L511.619 121.212" stroke="#1D2028" stroke-linecap="round"/>
<path d="M308.172 66.0815L303.834 70.4193C301.438 72.815 297.554 72.815 295.159 70.4193V70.4193C292.763 68.0236 292.763 64.1395 295.159 61.7438L303.834 53.0683C306.23 50.6726 310.114 50.6726 312.51 53.0683V53.0683C314.905 55.464 314.905 59.3481 312.51 61.7438V61.7438" stroke="#1D2028" stroke-linecap="round"/>
<path d="M538.172 110.082L533.834 114.419C531.438 116.815 527.554 116.815 525.159 114.419V114.419C522.763 112.024 522.763 108.139 525.159 105.744L533.834 97.0683C536.23 94.6726 540.114 94.6726 542.51 97.0683V97.0683C544.905 99.464 544.905 103.348 542.51 105.744V105.744" stroke="#1D2028" stroke-linecap="round"/>
<path d="M295.296 72.4407L289.579 78.4112C289.058 78.9554 288.192 78.9648 287.659 78.4321V78.4321C287.164 77.9374 287.132 77.1459 287.585 76.6126L288.192 75.8975M297.044 71.0776L298.01 70.0499C298.5 69.5284 298.488 68.7118 297.982 68.2057V68.2057C297.464 67.6878 296.624 67.6884 296.107 68.207L291.914 72.4121" stroke="#1D2028" stroke-linecap="round"/>
<path d="M525.296 116.441L519.579 122.411C519.058 122.955 518.192 122.965 517.659 122.432V122.432C517.164 121.937 517.132 121.146 517.585 120.613L518.192 119.898M527.044 115.078L528.01 114.05C528.5 113.528 528.488 112.712 527.982 112.206V112.206C527.464 111.688 526.624 111.688 526.107 112.207L521.914 116.412" stroke="#1D2028" stroke-linecap="round"/>
<path d="M309.799 75.914C307.612 83.7337 299.5 88.2999 291.681 86.1128M299.601 57.7952C291.781 55.6082 283.669 60.1744 281.482 67.9941C280.597 71.1569 280.817 74.3675 281.911 77.2146" stroke="#1D2028" stroke-linecap="round"/>
<path d="M539.799 119.914C537.612 127.734 529.5 132.3 521.681 130.113M529.601 101.795C521.781 99.6081 513.669 104.174 511.482 111.994C510.597 115.157 510.817 118.367 511.911 121.215" stroke="#1D2028" stroke-linecap="round"/>
<path d="M290.594 49.5442L289.932 47" stroke="#1D2028" stroke-linecap="round"/>
<path d="M520.594 93.5442L519.932 91" stroke="#1D2028" stroke-linecap="round"/>
<path d="M309.784 89.9313L308 88" stroke="#1D2028" stroke-linecap="round"/>
<path d="M541.784 131.931L540 130" stroke="#1D2028" stroke-linecap="round"/>
<path d="M273.314 66.7274L270.688 66.6125" stroke="#1D2028" stroke-linecap="round"/>
<path d="M503.314 110.727L500.688 110.613" stroke="#1D2028" stroke-linecap="round"/>
<path d="M330.019 79.7876C330.684 77.1069 334.544 77.3454 334.83 80.0849C335.026 81.9697 337.177 82.9155 338.702 81.7881C340.92 80.1494 343.701 82.8317 342.17 85.1315C341.116 86.7139 342.147 88.8359 344.026 88.953C346.757 89.1232 347.159 92.9942 344.527 93.7782C342.716 94.3177 342.145 96.623 343.499 97.9298C345.466 99.8292 343.301 103.078 340.799 101.979C339.078 101.223 337.172 102.633 337.367 104.518C337.65 107.258 333.93 108.364 332.73 105.897C331.904 104.199 329.556 104.054 328.5 105.635C326.966 107.934 323.433 106.38 324.096 103.698C324.552 101.853 322.859 100.221 321.047 100.759C318.414 101.54 316.72 98.053 318.936 96.4121C320.46 95.2831 320.216 92.9274 318.495 92.1697C315.995 91.0685 316.933 87.2804 319.665 87.4477C321.545 87.5629 322.862 85.586 322.039 83.8877C320.841 81.4192 323.973 79.1023 325.942 80.9996C327.297 82.305 329.561 81.632 330.019 79.7876Z" fill="#CCD1F2"/>
<path d="M312.127 104.062C312.51 102.519 314.732 102.656 314.897 104.233C315.01 105.318 316.248 105.863 317.126 105.214C318.403 104.27 320.004 105.815 319.123 107.139C318.516 108.05 319.109 109.272 320.191 109.339C321.764 109.437 321.996 111.666 320.48 112.117C319.437 112.428 319.108 113.755 319.888 114.507C321.021 115.601 319.774 117.471 318.334 116.839C317.343 116.404 316.245 117.215 316.358 118.301C316.521 119.878 314.379 120.515 313.688 119.094C313.212 118.117 311.86 118.034 311.252 118.944C310.369 120.267 308.335 119.372 308.716 117.829C308.979 116.766 308.004 115.827 306.961 116.136C305.445 116.586 304.47 114.578 305.746 113.634C306.623 112.984 306.482 111.627 305.492 111.191C304.052 110.557 304.593 108.376 306.166 108.472C307.248 108.539 308.006 107.4 307.532 106.423C306.843 105.001 308.646 103.667 309.78 104.76C310.56 105.511 311.863 105.124 312.127 104.062Z" fill="#A6B3FF"/>
<ellipse cx="5.77216" cy="5.74607" rx="5.77216" ry="5.74607" transform="matrix(0.998096 0.0616724 -0.0698678 0.997556 326.188 86.3661)" fill="white"/>
<ellipse cx="2.66407" cy="2.65203" rx="2.66407" ry="2.65203" transform="matrix(0.998096 0.0616724 -0.0698678 0.997556 310.059 108.959)" fill="white"/>
<path d="M331.084 99.068C334.756 99.2949 337.939 96.5176 338.195 92.8649C338.451 89.2121 335.682 86.0671 332.011 85.8403C328.34 85.6134 325.156 88.3906 324.9 92.0434" stroke="#1D2028" stroke-width="1.00299" stroke-linecap="round" stroke-linejoin="round"/>
<path d="M312.791 114.441C314.504 114.547 315.99 113.251 316.109 111.547C316.229 109.842 314.936 108.374 313.223 108.268C311.51 108.162 310.024 109.459 309.905 111.163" stroke="#1D2028" stroke-width="1.00299" stroke-linecap="round" stroke-linejoin="round"/>
<circle cx="557.891" cy="114.891" r="1.39073" stroke="#1D2028"/>
<path d="M287 110C288.105 110 289 109.105 289 108C289 106.895 288.105 106 287 106C285.895 106 285 106.895 285 108" stroke="#1D2028" stroke-linecap="round"/>
<path d="M764.31 64.3098L759 69.6195L764.31 74.9293" stroke="#1D2028" stroke-linecap="round"/>
<path d="M777.205 74.9293L782.514 69.6195L777.205 64.3097" stroke="#1D2028" stroke-linecap="round"/>
<path d="M768.102 79.4805L772.654 59" stroke="#1D2028" stroke-linecap="round"/>
<path d="M101 139V150.5" stroke="white" stroke-width="3" stroke-linecap="round"/>
<path d="M106.75 144.75L95.25 144.75" stroke="white" stroke-width="3" stroke-linecap="round"/>
<path d="M106.75 144.75L95.25 144.75" stroke="#A6B3FF" stroke-width="4" stroke-linecap="round"/>
<path d="M101 139V150.5" stroke="#A6B3FF" stroke-width="4" stroke-linecap="round"/>
</svg>
