<svg width="48" height="50" viewBox="0 0 48 50" fill="none" xmlns="http://www.w3.org/2000/svg">
<path d="M43.9533 26.92V25V15.212C43.9533 14.1402 43.3815 13.1498 42.4533 12.6139L25.5001 2.82599C24.5719 2.29009 23.4283 2.29009 22.5001 2.82599L5.54687 12.6139C4.61867 13.1498 4.04688 14.1402 4.04688 15.212V34.7879C4.04688 35.8597 4.61867 36.8501 5.54687 37.386L22.5001 47.1739C23.4283 47.7098 24.5719 47.7098 25.5001 47.1739L28.9884 45.16" stroke="#40404B" stroke-width="3" stroke-linecap="round"/>
<path d="M38.8799 30.76V45.16" stroke="#40404B" stroke-width="3" stroke-linecap="round"/>
<path d="M46.0801 37.96L31.6801 37.96" stroke="#40404B" stroke-width="3" stroke-linecap="round"/>
<path d="M4.32031 14.4399L24.0003 25.9599M24.0003 25.9599L43.2003 14.4399M24.0003 25.9599V47.5599" stroke="#40404B" stroke-width="3" stroke-linecap="round"/>
</svg>
