<svg width="124" height="124" viewBox="0 0 124 124" fill="none" xmlns="http://www.w3.org/2000/svg">
<path d="M48.2498 8.51562C56.6252 3.68004 66.9141 3.60471 75.3494 8.28906L75.7498 8.51562L101.044 23.1191C109.552 28.0315 114.794 37.1099 114.794 46.9346V76.1416C114.794 85.8128 109.715 94.7606 101.44 99.7236L101.044 99.957L75.7498 114.561C67.3741 119.396 57.0855 119.472 48.6501 114.787L48.2498 114.561L22.9558 99.957C14.4475 95.0446 9.20581 85.9662 9.20581 76.1416V46.9346C9.20594 37.2636 14.285 28.3155 22.5593 23.3525L22.9558 23.1191L48.2498 8.51562Z" fill="url(#paint0_linear_1907_511)" fill-opacity="0.25" stroke="#1D2028"/>
<path d="M35.2012 78.88V51.0198C35.2012 50.2638 36.0078 49.7812 36.674 50.1386L62.5457 64.0197C62.8704 64.1939 63.073 64.5325 63.073 64.9009V92.5913C63.073 93.345 62.2707 93.8278 61.6047 93.4749L35.7329 79.7636C35.4057 79.5902 35.2012 79.2503 35.2012 78.88Z" fill="#F7F8FB"/>
<path d="M90.9448 78.1058V50.2456C90.9448 49.4896 90.1382 49.007 89.472 49.3644L63.6003 63.2455C63.2756 63.4197 63.073 63.7583 63.073 64.1267V91.8171C63.073 92.5708 63.8753 93.0536 64.5413 92.7006L90.4131 78.9894C90.7402 78.816 90.9448 78.4761 90.9448 78.1058Z" fill="#E0E2E9"/>
<path d="M61.5246 97.3498L87.9157 81.8503C88.833 81.3116 89.3964 80.3273 89.3964 79.2635V49.9596C89.3964 48.8958 88.833 47.9115 87.9157 47.3728L82.4285 44.1501M47.5887 89.1653L35.1336 81.8503C34.2162 81.3116 33.6528 80.3273 33.6528 79.2635V49.9596C33.6528 48.8958 34.2162 47.9115 35.1336 47.3728L40.6208 44.1501" stroke="#1D2028" stroke-linecap="round"/>
<path d="M63.073 65.054V92.7045" stroke="#1D2028" stroke-linecap="round"/>
<path d="M58.1275 72.6899L62.5996 64.3846C62.8611 63.8989 62.6799 63.2931 62.1947 63.0308L35.1852 48.4311C34.7495 48.1956 34.2069 48.3145 33.9097 48.7108L28.1562 56.3822C27.7892 56.8715 27.9435 57.5727 28.4821 57.8627L56.773 73.0963C57.2592 73.3581 57.8657 73.1761 58.1275 72.6899Z" fill="white"/>
<path d="M87.0629 10.7448C89.2936 10.7448 91.102 8.93642 91.102 6.70565C91.102 4.47487 89.2936 2.66647 87.0629 2.66647C84.8321 2.66647 83.0237 4.47487 83.0237 6.70565" stroke="#1D2028" stroke-linecap="round"/>
<path d="M42.5562 65.4411L28.4821 57.8627C27.9435 57.5727 27.7892 56.8715 28.1562 56.3822L33.9097 48.7108C34.2069 48.3145 34.7495 48.1956 35.1852 48.4311L62.1947 63.0308C62.6799 63.2931 62.8611 63.8989 62.5996 64.3846L58.1275 72.6899C57.8657 73.1762 57.2592 73.3581 56.773 73.0962L50.1048 69.5057" stroke="#1D2028" stroke-linecap="round" stroke-dasharray="2 4"/>
<path d="M67.5473 71.9197L63.5497 64.5277C63.2866 64.0412 63.4683 63.4335 63.9553 63.1714L88.472 49.9765C88.9069 49.7425 89.4475 49.8609 89.7446 50.2554L94.8882 57.0838C95.2572 57.5736 95.1024 58.2771 94.562 58.5668L68.8994 72.3253C68.4139 72.5856 67.8093 72.4042 67.5473 71.9197Z" fill="white"/>
<path d="M66.1699 68.925L63.5191 63.744C63.2712 63.2595 63.4562 62.6658 63.9354 62.4079L88.472 49.2023C88.9069 48.9683 89.4475 49.0867 89.7446 49.4812L94.8882 56.3096C95.2572 56.7994 95.103 57.5025 94.5626 57.7923C90.3945 60.0269 85.4788 62.6624 81.018 65.054" stroke="#1D2028" stroke-linecap="round" stroke-dasharray="2 4"/>
<path d="M56.1051 32.5369L50.6855 37.9564L56.1051 43.3759" stroke="black" stroke-linecap="round"/>
<path d="M69.2665 43.3759L74.686 37.9564L69.2665 32.5369" stroke="black" stroke-linecap="round"/>
<path d="M59.9761 48.0212L64.6214 27.1174" stroke="black" stroke-linecap="round"/>
<circle cx="53.0081" cy="20.1494" r="0.774216" fill="#1D2028"/>
<circle cx="83.9769" cy="24.7948" r="0.774216" fill="#1D2028"/>
<circle cx="73.1378" cy="15.5041" r="1.82265" stroke="#1D2028"/>
<circle cx="39.0722" cy="24.7947" r="1.82265" stroke="#1D2028"/>
<circle cx="43.7175" cy="4.66512" r="3.37108" stroke="#1D2028"/>
<defs>
<linearGradient id="paint0_linear_1907_511" x1="123.538" y1="85.4698" x2="6.01721" y2="48.2904" gradientUnits="userSpaceOnUse">
<stop stop-color="#5567D5"/>
<stop offset="1" stop-color="#0095FF"/>
</linearGradient>
</defs>
</svg>
