<svg width="50" height="50" viewBox="0 0 50 50" fill="none" xmlns="http://www.w3.org/2000/svg">
<path d="M1.62268 2.08344C1.14942 2.07749 0.697681 2.28021 0.388644 2.63734C0.0796067 2.99448 -0.0550949 3.46947 0.0206726 3.93491L6.8212 45.0633C6.9961 46.1022 7.89452 46.866 8.95187 46.8748H41.5768C42.3704 46.8849 43.0519 46.3146 43.1788 45.5341L49.9793 3.94289C50.0551 3.47745 49.9204 3.00246 49.6114 2.64532C49.3023 2.28819 48.8506 2.08547 48.3773 2.09155L1.62268 2.08344ZM30.2586 31.8087H19.8455L17.026 17.1337H32.7818L30.2586 31.8087Z" fill="#2684FF"/>
<path d="M47.5 17.0139H32.5647L30.0582 31.748H19.714L7.5 46.346C7.88713 46.6831 8.38071 46.8705 8.89248 46.875H41.3094C42.0978 46.885 42.7748 46.3125 42.9008 45.5288L47.5 17.0139Z" fill="url(#paint0_linear_614_7060)"/>
<defs>
<linearGradient id="paint0_linear_614_7060" x1="50.9534" y1="25.9232" x2="30.4424" y2="42.0419" gradientUnits="userSpaceOnUse">
<stop offset="0.18" stop-color="#0052CC"/>
<stop offset="1" stop-color="#2684FF"/>
</linearGradient>
</defs>
</svg>
