<svg width="50" height="50" viewBox="0 0 50 50" fill="none" xmlns="http://www.w3.org/2000/svg">
<path d="M38.9125 40.2122C40.383 42.3114 40.9177 44.4711 40.1094 45.0372C39.301 45.6032 37.4546 44.3604 35.9841 42.2613C35.4431 41.4884 35.0317 40.7072 34.7643 40.0013C32.3497 41.6138 29.5571 42.6289 26.6224 42.9255C26.7916 43.6356 26.894 44.4649 26.894 45.3609C26.894 47.9238 26.094 50 25.106 50C24.1181 50 23.3181 47.9238 23.3181 45.3609C23.3181 44.4837 23.4162 43.6753 23.5792 42.9756C20.6257 42.7688 17.8038 41.8331 15.3412 40.2937C15.0759 40.9224 14.7146 41.5908 14.2467 42.2613C12.7763 44.3604 10.9298 45.6032 10.1215 45.0372C9.31314 44.4711 9.84786 42.3114 11.3183 40.2122C11.8113 39.5083 12.346 38.913 12.8702 38.4368C11.853 37.524 10.9319 36.4922 10.1361 35.3476L12.4838 33.7142C15.2932 37.7538 19.9072 40.1642 24.824 40.1642C29.7534 40.1642 34.3716 37.7454 37.181 33.6933L39.5308 35.3225C38.8039 36.371 37.9705 37.3214 37.0598 38.1757C37.6781 38.6791 38.3235 39.3725 38.9125 40.2122ZM13.0666 11.7449C11.8238 12.8311 10.7189 14.0906 9.79564 15.5193L12.1977 17.0712C14.9799 12.7642 19.7004 10.193 24.8261 10.193C30.1211 10.193 34.9251 12.8958 37.6739 17.4221L40.1177 15.937C39.2091 14.4415 38.1063 13.1193 36.8593 11.9789C37.536 11.4671 38.2608 10.7194 38.9125 9.78778C40.383 7.68861 40.9177 5.52887 40.1094 4.96282C39.301 4.39677 37.4546 5.63957 35.9841 7.73874C35.37 8.61392 34.9314 9.49327 34.6745 10.2703C32.2683 8.68076 29.484 7.69697 26.5284 7.42125C26.754 6.64425 26.894 5.68761 26.894 4.63698C26.894 2.0762 26.094 0 25.106 0C24.1181 0 23.3181 2.0762 23.3181 4.63907C23.3181 5.66463 23.4497 6.60456 23.6669 7.37113C20.7155 7.55911 17.9083 8.46771 15.4582 9.97577C15.1908 9.27396 14.7835 8.50322 14.2467 7.73874C12.7783 5.63957 10.9319 4.39886 10.1236 4.96491C9.31523 5.53095 9.84995 7.6907 11.3204 9.78987C11.8739 10.5794 12.4817 11.2478 13.0666 11.7449ZM1 31.8991H4.44223V26.7357H8.32517V31.9012H11.7674V18.8884H8.32726V23.7321H4.44223V18.8884H1V31.8991ZM14.6519 18.8884V31.8991H23.2596V29.0166H18.0942V26.694H22.3385V23.8115H18.0942V21.7687H23.0591V18.8863L14.6519 18.8884ZM25.7807 18.8884V31.8991H34.1481V29.0166H29.2229V18.8884H25.7807ZM36.3893 18.8884V31.8991H39.5517V28.0558C39.5517 27.7216 39.535 27.3561 39.5015 26.955C39.4681 26.554 39.4305 26.1446 39.3908 25.7248C39.3512 25.305 39.3031 24.8935 39.2509 24.4945C39.1966 24.0935 39.1506 23.7342 39.111 23.4147H39.1903L40.2305 26.4579L42.0331 30.8422H43.3135L45.114 26.4579L46.1938 23.4147H46.2732C46.2335 23.7342 46.1855 24.0956 46.1333 24.4966C46.079 24.8977 46.033 25.307 45.9933 25.7269C45.9536 26.1467 45.916 26.5582 45.8826 26.9571C45.8492 27.3582 45.8325 27.7237 45.8325 28.0579V31.9012H49.0408V18.8884H45.4774L43.5161 24.294L42.7955 26.4162H42.7161L41.9955 24.294L39.9527 18.8884H36.3893Z" fill="#101683"/>
</svg>
