<?xml version="1.0" encoding="UTF-8"?>
<svg width="284px" height="212px" viewBox="0 0 284 212" version="1.1" xmlns="http://www.w3.org/2000/svg" xmlns:xlink="http://www.w3.org/1999/xlink">
    <title>087CEE16-6DFA-4285-9FAD-B0898F29051F@1x</title>
    <g id="Home" stroke="none" stroke-width="1" fill="none" fill-rule="evenodd">
        <g id="404-error" transform="translate(-622.000000, -246.000000)">
            <g id="drawkit-grape-pack-illustration-11" transform="translate(622.000000, 246.000000)">
                <path d="M265.173868,71.3085198 C282.301979,85.2720386 287.14377,110.515218 282.118897,132.048211 C277.141031,153.606055 262.341037,171.481049 244.210919,181.110633 C226.103069,190.802344 204.689837,192.22131 184.758583,197.51199 C164.802589,202.839946 146.326099,212.042101 125.726842,212 C105.105318,212 82.4303011,202.735574 62.3604988,187.529528 C42.305541,172.393064 24.9127019,151.32726 24.0319265,130.770893 C23.1981589,110.234407 38.8764549,90.1849904 49.7896573,69.6385635 C60.7251266,49.0399505 66.860865,27.8598348 81.4950958,14.5921312 C96.1293267,1.32442761 119.24968,-4.1377212 138.64653,3.45163388 C158.04338,11.040989 173.69941,31.5302596 196.193818,43.1155816 C218.72039,54.7282392 248.065549,57.4245229 265.173868,71.3085198 Z" id="Path" fill="#FFFFFF" fill-rule="nonzero"></path>
                <path d="M31.9281981,108.551406 L55.8987076,132.472605 C57.3646808,133.935562 57.3671255,136.30993 55.9041681,137.775903 C55.9023498,137.777725 55.9005296,137.779545 55.8987076,137.781363 L31.9281981,161.702562 C30.4643591,163.16339 28.0941995,163.16339 26.6303605,161.702562 L2.65985094,137.781363 C1.19387776,136.318406 1.19143304,133.944038 2.6543905,132.478065 C2.65620877,132.476243 2.65802892,132.474423 2.65985094,132.472605 L26.6303605,108.551406 C28.0941995,107.090578 30.4643591,107.090578 31.9281981,108.551406 Z" id="Polygon" stroke="#C8CEF0" stroke-width="1.34439771" opacity="0.503673735" stroke-linecap="round" stroke-linejoin="round"></path>
                <rect id="Rectangle" fill="#F0F1FB" fill-rule="nonzero" x="40" y="32.9079365" width="230" height="147"></rect>
                <path d="M160.54633,72.7325107 L201.096404,141.872521 C202.772818,144.730895 201.81465,148.407066 198.956276,150.08348 C198.03579,150.623338 196.987979,150.907937 195.92086,150.907937 L114.820713,150.907937 C111.507004,150.907937 108.820713,148.221645 108.820713,144.907937 C108.820713,143.840818 109.105311,142.793007 109.645169,141.872521 L150.195243,72.7325107 C151.871657,69.8741369 155.547828,68.915969 158.406202,70.5923829 C159.290739,71.1111565 160.027556,71.8479743 160.54633,72.7325107 Z" id="Triangle" stroke="#FF7B7C" stroke-width="5" fill="#FFFFFF"></path>
                <path d="M178.269278,92.2460177 C184.603771,103.046661 194.105509,119.247625 206.774494,140.84891 C209.568517,145.612867 207.97157,151.739819 203.207614,154.533842 C201.67347,155.433606 199.927119,155.907937 198.148588,155.907937 C174.737015,155.907937 157.178336,155.907937 145.472549,155.907937 M102.592985,145.907937 C102.592985,144.129406 103.067316,142.383054 103.967079,140.84891 L145.744881,69.6155602" id="Shape" stroke="#42425B"></path>
                <text id="404" font-family="GilmerBold, Gilmer Bold" font-size="25" font-weight="bold" fill="#A6B3FF">
                    <tspan x="131" y="130.907937">404</tspan>
                </text>
                <path d="M36.903958,83.3344727 L36.903958,35 M266.903958,35 L266.903958,155.102814 M184.216309,182 L36.903958,182 L36.903958,119.421875" id="Shape" stroke="#42425B" fill-rule="nonzero"></path>
                <rect id="Rectangle" fill="#D7DFFF" fill-rule="nonzero" x="39.903958" y="33" width="230" height="19"></rect>
                <rect id="Rectangle" fill="#FFFFFF" fill-rule="nonzero" x="86.903958" y="38" width="142" height="9" rx="4.5"></rect>
                <rect id="Rectangle" fill="#B2C3FB" fill-rule="nonzero" x="238.903958" y="38" width="23" height="9" rx="4.5"></rect>
                <circle id="Oval" fill="#FFFFFF" fill-rule="nonzero" cx="47.903958" cy="43" r="3"></circle>
                <circle id="Oval" fill="#FFFFFF" fill-rule="nonzero" cx="58.903958" cy="43" r="3"></circle>
                <circle id="Oval" fill="#FFFFFF" fill-rule="nonzero" cx="69.903958" cy="43" r="3"></circle>
            </g>
        </g>
    </g>
</svg>
