<svg width="174" height="78" viewBox="0 0 174 78" fill="none" xmlns="http://www.w3.org/2000/svg">
    <mask id="mask0_2082_27599" style="mask-type:alpha" maskUnits="userSpaceOnUse" x="0" y="0" width="174" height="78">
        <rect x="0.0671387" width="173.409" height="78" fill="#D9D9D9"/>
    </mask>
    <g mask="url(#mask0_2082_27599)">
        <path d="M72.8586 1.43574C87.4348 7.15545 96.3967 11.0011 112.087 15.074C127.733 19.1453 150.125 23.4671 156.69 33.9442C163.257 44.384 154.037 60.9861 142.793 75.7002C131.52 90.4312 118.271 103.283 102.746 107.12C87.2447 110.934 69.4763 105.74 57.3559 97.4714C45.2356 89.2029 38.7384 77.8778 31.6844 66.7813C24.6303 55.6849 17.0106 44.8551 14.6383 30.5229C12.2227 16.1869 15.0795 -1.66988 26.5872 -6.77098C38.0754 -11.8953 58.2846 -4.28163 72.8586 1.43574Z" fill="#F7F8FB"/>
        <path d="M99.4351 27H65.467L78.5307 8.48901L99.4351 27Z" stroke="#F8C2C2" stroke-width="2" stroke-linecap="round" stroke-linejoin="round"/>
        <path opacity="0.71" d="M146.609 75.5893C155.557 75.5893 162.81 69.1893 162.81 61.2946C162.81 53.3999 155.557 47 146.609 47C137.661 47 130.407 53.3999 130.407 61.2946C130.407 69.1893 137.661 75.5893 146.609 75.5893Z" fill="#CCD1F2"/>
        <path d="M125.545 67.3644L100.769 54.7434L75.5825 93.2334L100.359 105.854L125.545 67.3644Z" fill="white"/>
        <path d="M84.8294 52.9289C83.6335 52.5232 76.7833 51.4545 65.8859 58.0968L65.7742 58.089C65.1669 57.0954 63.8075 55.7729 61.4599 54.0397C62.6918 53.1631 64.101 50.8137 65.2583 49.6269C69.4672 45.309 75.9094 36.0665 77.3633 33.2614C81.9927 24.33 76.9975 21.7352 73.7257 25.3212C72.5089 26.6543 67.6553 31.2902 62.5122 36.5264C59.7718 34.9682 57.4602 35.4466 56.5304 35.9271C56.1849 36.1053 54.5341 37.3728 52.3707 39.0947C51.0805 38.0218 49.8195 37.3429 47.4434 37.9547C45.1294 38.5499 37.9084 41.8443 31.7695 50.3323C28.7862 54.4639 29.2315 59.856 25.0964 66.7503L25.1336 66.7137L25.0859 66.7905C25.0935 66.7651 25.0978 66.7506 25.0978 66.7506C22.7028 70.7435 17.9599 76.3704 11.7484 80.2894C12.3286 80.5872 12.9653 80.7897 13.6275 80.8868C17.9762 82.5267 31.8446 87.1552 44.5509 84.846C44.6123 84.7159 44.653 84.5789 44.6718 84.439L44.7504 84.4404C48.6746 83.5414 61.4451 70.1049 68.1268 68.2951C72.4033 66.7033 77.8843 59.5822 85.4566 55.2682C86.3791 54.7382 85.6215 53.1974 84.8294 52.9289Z" fill="white"/>
    </g>
    <path d="M52.8104 9H28.4021V30.5356H52.8104V9Z" fill="white"/>
    <path d="M133.808 11H112.273V30H133.808V11Z" fill="#A6B3FF"/>
    <path d="M75.8529 51.7801C72.8986 52.5162 69.2154 53.933 64.8763 56.5726" stroke="#40404B" stroke-linecap="round" stroke-linejoin="round"/>
    <path d="M55.8016 72.7976C59.9645 69.9882 64.2751 67.5383 67.1124 66.7673C71.3889 65.1754 76.8699 58.0543 84.4422 53.7403C85.3702 53.2116 84.6181 51.672 83.8205 51.4023C83.4218 51.2675 82.4133 51.0626 80.8429 51.0851" stroke="#40404B" stroke-linecap="round" stroke-linejoin="round"/>
    <path d="M65.206 32.4298C68.7766 28.2908 71.7297 24.8763 72.7161 23.797C75.9878 20.211 80.421 22.4822 76.3537 31.7373" stroke="#40404B" stroke-linecap="round" stroke-linejoin="round"/>
    <path d="M47.321 52.6399C49.1425 50.8917 54.6834 44.5731 60.1611 38.2605" stroke="#40404B" stroke-linecap="round" stroke-linejoin="round"/>
    <path d="M55.9821 56.967C56.7809 56.2483 62.17 50.9129 64.2991 48.1789" stroke="#40404B" stroke-linecap="round" stroke-linejoin="round"/>
    <path d="M44.037 43.4907C48.914 39.4797 54.8243 34.7579 55.5154 34.4015C56.5519 33.867 59.3001 33.3322 62.446 35.6179" stroke="#40404B" stroke-linecap="round" stroke-linejoin="round"/>
    <path d="M38.3861 48.2494C38.9465 47.7518 39.7257 47.0841 40.6467 46.3086" stroke="#40404B" stroke-linecap="round" stroke-linejoin="round"/>
    <path d="M27.2573 57.9938C28.3765 54.4104 28.9079 51.3674 30.7598 48.808C36.8987 40.3201 44.1197 37.0257 46.4338 36.4305C48.8098 35.8186 50.0613 36.4954 51.3611 37.5705" stroke="#40404B" stroke-linecap="round" stroke-linejoin="round"/>
    <path d="M13.0054 75.7651C18.8648 71.5543 22.5725 67.7271 25.029 64.2557" stroke="#40404B" stroke-linecap="round" stroke-linejoin="round"/>
    <path d="M85.6385 48C89.0812 48 91.8721 45.5376 91.8721 42.5C91.8721 39.4624 89.0812 37 85.6385 37C82.1957 37 79.4048 39.4624 79.4048 42.5C79.4048 45.5376 82.1957 48 85.6385 48Z" fill="#CCD1F2"/>
</svg>