<svg width="16" height="16" viewBox="0 0 16 16" fill="none" xmlns="http://www.w3.org/2000/svg">
<path fill-rule="evenodd" clip-rule="evenodd" d="M8.46989 1.91645C8.5477 1.7233 8.7541 1.61507 8.95722 1.66091C9.63345 1.81353 10.084 2.45378 9.99929 3.14182L9.60374 6.35559L9.53469 6.91667H10.1H14.2349C14.5577 6.91667 14.7959 7.21804 14.7213 7.53214L13.3961 13.1155C13.3426 13.3409 13.1412 13.5 12.9096 13.5H6.39418C6.15075 13.5 5.91098 13.4408 5.69556 13.3274L4.5 12.6981V7.87738L5.5665 7.57334C6.01185 7.44637 6.37359 7.12081 6.54662 6.69125L8.46989 1.91645ZM4.48745 6.84112L5.29233 6.61165C5.44078 6.56933 5.56136 6.46081 5.61904 6.31763L7.54232 1.54283C7.80336 0.894757 8.49585 0.531631 9.17738 0.685447C10.3548 0.951187 11.1392 2.06597 10.9918 3.26398L10.6653 5.91667H14.2349C15.2033 5.91667 15.918 6.82079 15.6943 7.76309L14.369 13.3464C14.2085 14.0226 13.6046 14.5 12.9096 14.5H6.39418C5.98846 14.5 5.58884 14.4013 5.22982 14.2123L4.45311 13.8035C4.32461 14.2074 3.94647 14.5 3.5 14.5H1.5H0.5V13.5V7V6H1.5H3.5C3.99821 6 4.41133 6.36434 4.48745 6.84112ZM1.5 7H3.5V13.5H1.5V7Z" fill="#5567D5"/>
</svg>
