<svg width="40" height="40" viewBox="0 0 40 40" fill="none" xmlns="http://www.w3.org/2000/svg">
<path fill-rule="evenodd" clip-rule="evenodd" d="M17.9983 0C8.05992 0 0 8.26276 0 18.4561C0 26.6101 5.15706 33.5269 12.3098 35.9673C13.2104 36.1372 13.5385 35.5674 13.5385 35.0779C13.5385 34.6406 13.5231 33.4793 13.5142 31.9396C8.50744 33.0544 7.45106 29.4652 7.45106 29.4652C6.63225 27.3329 5.4521 26.7653 5.4521 26.7653C3.8178 25.621 5.57586 25.6437 5.57586 25.6437C7.38255 25.774 8.33285 27.5459 8.33285 27.5459C9.93843 30.3659 12.5462 29.5513 13.5717 29.0788C13.7352 27.8869 14.2004 27.0735 14.7143 26.6124C10.7175 26.1467 6.51512 24.5628 6.51512 17.4908C6.51512 15.4764 7.2168 13.8279 8.36821 12.5386C8.18257 12.0718 7.56487 10.1945 8.54501 7.65435C8.54501 7.65435 10.0556 7.15811 13.4943 9.54641C14.9297 9.13628 16.4701 8.93234 18.0006 8.92441C19.5299 8.93234 21.0692 9.13628 22.5068 9.54641C25.9433 7.15811 27.4517 7.65435 27.4517 7.65435C28.434 10.1945 27.8163 12.0718 27.6318 12.5386C28.7854 13.8279 29.4816 15.4764 29.4816 17.4908C29.4816 24.5809 25.2726 26.141 21.2636 26.5976C21.909 27.1675 22.4847 28.2937 22.4847 30.0158C22.4847 32.4823 22.4626 34.4729 22.4626 35.0779C22.4626 35.5719 22.7874 36.1463 23.7002 35.9662C30.8474 33.5201 36 26.6078 36 18.4561C36 8.26276 27.9401 0 17.9983 0Z" fill="#161514"/>
<circle cx="32" cy="32" r="8" fill="#36B475"/>
<path d="M34.4848 29.7348C34.6313 29.5884 34.8687 29.5884 35.0152 29.7348C35.1483 29.868 35.1604 30.0763 35.0515 30.2231L35.0152 30.2652L31.25 34.0303L28.9848 31.7652C28.8384 31.6187 28.8384 31.3813 28.9848 31.2348C29.118 31.1017 29.3263 31.0896 29.4731 31.1985L29.5152 31.2348L31.25 32.9695L34.4848 29.7348Z" fill="white" stroke="white"/>
</svg>
