<svg width="48" height="48" viewBox="0 0 48 48" fill="none" xmlns="http://www.w3.org/2000/svg">
<rect width="48" height="48" rx="24" fill="#F7F8FB"/>
<path fill-rule="evenodd" clip-rule="evenodd" d="M25.25 32.75V15.25H22.75V32.75H25.25ZM22.75 14C22.0596 14 21.5 14.5596 21.5 15.25V34H26.5V15.25C26.5 14.5596 25.9404 14 25.25 14H22.75Z" fill="#5567D5"/>
<path fill-rule="evenodd" clip-rule="evenodd" d="M32.75 32.75V19L30.25 19V32.75H32.75ZM30.25 17.75C29.5596 17.75 29 18.3096 29 19V34H34V19C34 18.3096 33.4404 17.75 32.75 17.75H30.25Z" fill="#5567D5"/>
<path fill-rule="evenodd" clip-rule="evenodd" d="M17.75 32.75V25.25H15.25V32.75H17.75ZM15.25 24C14.5596 24 14 24.5596 14 25.25V34H19V25.25C19 24.5596 18.4404 24 17.75 24H15.25Z" fill="#5567D5"/>
</svg>
