<?xml version="1.0" encoding="UTF-8"?>

<!-- 
~    Copyright (c) 2021, WSO2 Inc. (http://www.wso2.com). All Rights Reserved.
~   
~    This software is the property of WSO2 Inc. and its suppliers, if any. 
~    Dissemination of any information or reproduction of any material contained 
~    herein in any form is strictly forbidden, unless permitted by WSO2 in accordance with
~    the WSO2 Commercial License available at http://wso2.com/licenses.
~    For specific language governing the permissions and limitations under
~    this license, please see the license as well as any agreement you’ve
~    entered into with WSO2 governing the purchase of this software and any
~    associated services.
-->

<svg width="16px" height="16px" viewBox="0 0 16 16" version="1.1" xmlns="http://www.w3.org/2000/svg" xmlns:xlink="http://www.w3.org/1999/xlink">
    <g id="marketplace" stroke="none" stroke-width="1" fill="none" fill-rule="evenodd">
        <g id="marketplace-listing-view" transform="translate(-567.000000, -548.000000)" fill="#CBCEDB" fill-rule="nonzero">
            <g id="Icon/docs-Copy-36" transform="translate(567.500000, 548.500000)">
                <path d="M14.9946823,4.33562431 L15,4.5 L15,12.5 C15,13.8254834 13.9684641,14.9100387 12.6643757,14.9946823 L12.5,15 L2.5,15 C1.1745166,15 0.089961328,13.9684641 0.00531767968,12.6643757 L0,12.5 L0,4.5 C0,3.11928813 1.11928813,2 2.5,2 L4.002,2 L4.00262451,0.5 C4.00262451,0.223857625 4.22648214,2.27373675e-13 4.50262451,2.27373675e-13 C4.7480844,2.27373675e-13 4.95223288,0.176875161 4.99456884,0.410124368 L5.00262451,0.5 L5.002,2 L10.002,2 L10.0026245,0.5 C10.0026245,0.223857625 10.2264821,0 10.5026245,0 C10.7480844,0 10.9522329,0.176875161 10.9945688,0.410124368 L11.0026245,0.5 L11.002,2 L12.5,2 C13.8254834,2 14.9100387,3.03153594 14.9946823,4.33562431 Z M11.002,3 L11.0026245,3.5 C11.0026245,3.77614237 10.7787669,4 10.5026245,4 C10.2571646,4 10.0530161,3.82312484 10.0106802,3.58987563 L10.0026245,3.5 L10.002,3 L5.002,3 L5.00262451,3.5 C5.00262451,3.77614237 4.77876689,4 4.50262451,4 C4.25716462,4 4.05301614,3.82312484 4.01068018,3.58987563 L4.00262451,3.5 L4.002,3 L2.5,3 L2.5,3 C1.72030388,3 1.07955132,3.59488808 1.00686658,4.35553999 L1,4.5 L1,12.5 C1,13.2796961 1.59488808,13.9204487 2.35553999,13.9931334 L2.5,14 L12.5,14 C13.2796961,14 13.9204487,13.4051119 13.9931334,12.64446 L14,12.5 L14,4.5 C14,3.67157288 13.3284271,3 12.5,3 L11.002,3 Z M4.5,10 C4.77614237,10 5,10.2238576 5,10.5 C5,10.7761424 4.77614237,11 4.5,11 C4.22385763,11 4,10.7761424 4,10.5 C4,10.2238576 4.22385763,10 4.5,10 Z M7.5,10 C7.77614237,10 8,10.2238576 8,10.5 C8,10.7761424 7.77614237,11 7.5,11 C7.22385763,11 7,10.7761424 7,10.5 C7,10.2238576 7.22385763,10 7.5,10 Z M10.5,10 C10.7761424,10 11,10.2238576 11,10.5 C11,10.7761424 10.7761424,11 10.5,11 C10.2238576,11 10,10.7761424 10,10.5 C10,10.2238576 10.2238576,10 10.5,10 Z M4.5,6.5 C4.77614237,6.5 5,6.72385763 5,7 C5,7.27614237 4.77614237,7.5 4.5,7.5 C4.22385763,7.5 4,7.27614237 4,7 C4,6.72385763 4.22385763,6.5 4.5,6.5 Z M7.5,6.5 C7.77614237,6.5 8,6.72385763 8,7 C8,7.27614237 7.77614237,7.5 7.5,7.5 C7.22385763,7.5 7,7.27614237 7,7 C7,6.72385763 7.22385763,6.5 7.5,6.5 Z M10.5,6.5 C10.7761424,6.5 11,6.72385763 11,7 C11,7.27614237 10.7761424,7.5 10.5,7.5 C10.2238576,7.5 10,7.27614237 10,7 C10,6.72385763 10.2238576,6.5 10.5,6.5 Z" id="Combined-Shape"></path>
            </g>
        </g>
    </g>
</svg>
