<?xml version="1.0" encoding="UTF-8"?>
<svg width="16px" height="16px" viewBox="0 0 16 16" version="1.1" xmlns="http://www.w3.org/2000/svg" xmlns:xlink="http://www.w3.org/1999/xlink">
    <title>F8D4C6F5-2999-4C43-A2B7-94662C584208</title>
    <g id="Custom-URLs" stroke="none" stroke-width="1" fill="none" fill-rule="evenodd">
        <g id="Select-SSL-provider--" transform="translate(-493.000000, -376.000000)" fill="#5567D5" fill-rule="nonzero">
            <path d="M502.828571,376 C504.165743,376 505.259112,377.043844 505.338269,378.361122 L505.342857,378.514286 L505.343026,381.733678 C507.464005,382.410646 509,384.397376 509,386.742857 C509,389.646297 506.646297,392 503.742857,392 L503.742857,392 L503.742857,392 L495.514286,392 C494.177114,392 493.083745,390.956156 493.004589,389.638878 L493,389.485714 L493,378.514286 C493,377.177114 494.043844,376.083745 495.361122,376.004589 L495.514286,376 L502.828571,376 Z M502.828571,377.371429 L495.514286,377.371429 C494.922552,377.371429 494.435855,377.821143 494.377329,378.397435 L494.371429,378.514286 L494.371429,389.485714 C494.371429,390.077448 494.821143,390.564145 495.397435,390.622671 L495.514286,390.628571 L500.202389,390.629116 C499.147613,389.667639 498.485714,388.282546 498.485714,386.742857 C498.485714,386.012727 498.634556,385.317362 498.903554,384.685447 L496.428571,384.685714 C496.049862,384.685714 495.742857,384.37871 495.742857,384 C495.742857,383.65285 496.000826,383.365951 496.335524,383.320545 L496.428571,383.314286 L499.757304,383.314466 C500.721398,382.194712 502.14933,381.485714 503.742857,381.485714 C503.819494,381.485714 503.895749,381.487354 503.971587,381.490601 L503.971429,378.514286 C503.971429,377.922552 503.521715,377.435855 502.945422,377.377329 L502.828571,377.371429 Z M503.742857,382.857143 C501.596836,382.857143 499.857143,384.596836 499.857143,386.742857 C499.857143,388.888878 501.596836,390.628571 503.742857,390.628571 C505.888878,390.628571 507.628571,388.888878 507.628571,386.742857 C507.628571,384.596836 505.888878,382.857143 503.742857,382.857143 Z M506.009295,385.358224 C506.252739,385.601667 506.27487,385.982617 506.075689,386.251062 L506.009295,386.32797 L503.742857,388.594408 L502.376179,387.22773 C502.108391,386.959942 502.108391,386.525772 502.376179,386.257984 C502.619623,386.01454 503.000573,385.992409 503.269018,386.19159 L503.345926,386.257984 L503.742857,386.655086 L505.039549,385.358224 C505.307337,385.090436 505.741507,385.090436 506.009295,385.358224 Z M497.342857,386.971429 C497.721567,386.971429 498.028571,387.278433 498.028571,387.657143 C498.028571,388.004293 497.770602,388.291192 497.435905,388.336597 L497.342857,388.342857 L496.428571,388.342857 C496.049862,388.342857 495.742857,388.035852 495.742857,387.657143 C495.742857,387.309992 496.000826,387.023094 496.335524,386.977688 L496.428571,386.971429 L497.342857,386.971429 Z M501.914286,379.657143 C502.292995,379.657143 502.6,379.964148 502.6,380.342857 C502.6,380.690008 502.342031,380.976906 502.007333,381.022312 L501.914286,381.028571 L496.428571,381.028571 C496.049862,381.028571 495.742857,380.721567 495.742857,380.342857 C495.742857,379.995707 496.000826,379.708808 496.335524,379.663403 L496.428571,379.657143 L501.914286,379.657143 Z" id="Certificate"></path>
        </g>
    </g>
</svg>
