<svg width="120" height="64" viewBox="0 0 128 64" fill="none" xmlns="http://www.w3.org/2000/svg">
    <mask id="mask0_1265_30369" style="mask-type:alpha" maskUnits="userSpaceOnUse" x="-1" y="0" width="129" height="64">
        <rect x="-1" width="129" height="64" fill="#D9D9D9" />
    </mask>
    <g mask="url(#mask0_1265_30369)">
        <path d="M52.5866 2.51788C63.0119 7.84503 69.3576 11.3983 80.9851 15.3716C92.5783 19.342 101.342 27.4239 104.5 36.5C107.667 45.5447 105.257 55.5908 93.4933 67.6442C81.7033 79.711 68.7147 90.1226 55.6789 92.8391C42.6659 95.5371 29.6114 90.5464 21.6262 83.1486C13.641 75.7507 10.7018 65.9603 7.2773 56.3442C3.85281 46.7282 -0.0713362 37.3183 0.839897 25.1264C1.71757 12.9298 7.45394 -2.06342 17.5559 -5.9844C27.6471 -9.92571 42.1627 -2.80723 52.5866 2.51788Z" fill="white" />
    </g>
    <path d="M14 12C14 9.23857 16.2386 7 19 7H71C73.7614 7 76 9.23858 76 12V44.3729C76 47.1343 73.7614 49.3729 71 49.3729H43.2286L34.8143 57L26.8429 49.3729H19C16.2386 49.3729 14 47.1343 14 44.3729V12Z" fill="#D8DFFF" />
    <path d="M25 27H62" stroke="white" stroke-width="2" stroke-linecap="round" stroke-linejoin="round" />
    <path d="M25 18H62" stroke="white" stroke-width="2" stroke-linecap="round" stroke-linejoin="round" />
    <path d="M25 36H46.5" stroke="white" stroke-width="2" stroke-linecap="round" stroke-linejoin="round" />
    <circle cx="75" cy="47" r="14" fill="#EAF0FF" />
    <path fill-rule="evenodd" clip-rule="evenodd" d="M72.0303 42.9697C71.7374 42.6768 71.2626 42.6768 70.9697 42.9697C70.6768 43.2626 70.6768 43.7375 70.9697 44.0304L73.9393 47L70.9697 49.9696C70.6768 50.2625 70.6768 50.7374 70.9697 51.0303C71.2626 51.3232 71.7375 51.3232 72.0304 51.0303L75 48.0607L77.9696 51.0303C78.2625 51.3232 78.7373 51.3232 79.0302 51.0303C79.3231 50.7374 79.3231 50.2625 79.0302 49.9696L76.0606 47L79.0303 44.0304C79.3232 43.7375 79.3232 43.2626 79.0303 42.9697C78.7374 42.6768 78.2625 42.6768 77.9696 42.9697L75 45.9394L72.0303 42.9697Z" fill="#40404B" />
</svg>