<svg width="48" height="48" viewBox="0 0 48 48" fill="none" xmlns="http://www.w3.org/2000/svg">
<rect width="48" height="48" rx="24" fill="#F7F8FB"/>
<path fill-rule="evenodd" clip-rule="evenodd" d="M24 14C18.4772 14 14 18.4772 14 24C14 29.5228 18.4772 34 24 34C29.5228 34 34 29.5228 34 24C34 18.4772 29.5228 14 24 14ZM24 15.25C28.8325 15.25 32.75 19.1675 32.75 24C32.75 28.8325 28.8325 32.75 24 32.75C19.1675 32.75 15.25 28.8325 15.25 24C15.25 19.1675 19.1675 15.25 24 15.25ZM24.6149 17.0111C24.562 16.7196 24.3068 16.4985 24 16.4985C23.6548 16.4985 23.375 16.7783 23.375 17.1235V25.5088L26.6829 28.8187L26.7695 28.891C27.013 29.0599 27.3498 29.0358 27.5668 28.819L27.6392 28.7324C27.808 28.4889 27.784 28.1521 27.5671 27.9351L24.625 24.9913V17.1235L24.6149 17.0111Z" fill="#5567D5"/>
</svg>
