<svg width="48" height="48" viewBox="0 0 48 48" fill="none" xmlns="http://www.w3.org/2000/svg">
<rect width="48" height="48" rx="24" fill="#F7F8FB"/>
<path fill-rule="evenodd" clip-rule="evenodd" d="M14.9039 20.3734C14.6628 20.7922 14.8068 21.3271 15.2256 21.5682L19.3364 23.9349L15.2256 26.3016L15.1298 26.3656C15.0385 26.4356 14.9617 26.5231 14.9039 26.6234C14.6628 27.0422 14.8068 27.5771 15.2256 27.8182L23.1892 32.4032L23.343 32.4812C23.8135 32.6892 24.3591 32.6632 24.8108 32.4032L32.7744 27.8182L32.8702 27.7543C32.9615 27.6843 33.0383 27.5968 33.0961 27.4965C33.3372 27.0777 33.1932 26.5428 32.7744 26.3016L28.6636 23.9349L32.7744 21.5682C32.9081 21.4912 33.0191 21.3803 33.0961 21.2465C33.3372 20.8277 33.1932 20.2928 32.7744 20.0516L24.8108 15.4667C24.3089 15.1778 23.6911 15.1778 23.1892 15.4667L15.2256 20.0516C15.0919 20.1286 14.9809 20.2396 14.9039 20.3734ZM27.4109 24.6562L24.8108 26.1532C24.3089 26.4421 23.6911 26.4421 23.1892 26.1532L20.589 24.6561L16.4145 27.0599L23.8129 31.3199C23.9055 31.3732 24.0153 31.3839 24.1148 31.3519L24.1871 31.3199L31.5837 27.0599L27.4109 24.6562ZM16.4145 20.8099L23.8129 16.55L23.8852 16.518C23.9847 16.486 24.0944 16.4967 24.1871 16.55L31.5837 20.8099L24.1871 25.0699C24.0713 25.1366 23.9287 25.1366 23.8129 25.0699L16.4145 20.8099Z" fill="#40404B"/>
</svg>
