<!--
Copyright (c) 2022, WSO2 Inc. (http://www.wso2.com). All Rights Reserved.

This software is the property of WSO2 Inc. and its suppliers, if any.
Dissemination of any information or reproduction of any material contained
herein is strictly forbidden, unless permitted by WSO2 in accordance with
the WSO2 Commercial License available at http://wso2.com/licenses.
For specific language governing the permissions and limitations under
this license, please see the license as well as any agreement you’ve
entered into with WSO2 governing the purchase of this software and any
associated services.
-->
<svg width="20" height="20" viewBox="0 0 20 20" fill="none" xmlns="http://www.w3.org/2000/svg">
<g clip-path="url(#clip0_46_2722)">
<mask id="path-1-inside-1_46_2722" fill="white">
<path fill-rule="evenodd" clip-rule="evenodd" d="M10 0L10.05 0.000122288C10.0172 0.161639 10 0.32881 10 0.5C10 1.47117 10.5538 2.31301 11.3628 2.72696C11.1293 3.27104 11 3.87042 11 4.5C11 6.98528 13.0147 9 15.5 9C16.0302 9 16.539 8.90831 17.0114 8.73991C17.1321 10.0081 18.2002 11 19.5 11C19.6553 11 19.8072 10.9858 19.9546 10.9588C19.4721 16.0318 15.1994 20 10 20C4.47715 20 0 15.5228 0 10C0 4.47715 4.47715 0 10 0Z"/>
</mask>
<path fill-rule="evenodd" clip-rule="evenodd" d="M10 0L10.05 0.000122288C10.0172 0.161639 10 0.32881 10 0.5C10 1.47117 10.5538 2.31301 11.3628 2.72696C11.1293 3.27104 11 3.87042 11 4.5C11 6.98528 13.0147 9 15.5 9C16.0302 9 16.539 8.90831 17.0114 8.73991C17.1321 10.0081 18.2002 11 19.5 11C19.6553 11 19.8072 10.9858 19.9546 10.9588C19.4721 16.0318 15.1994 20 10 20C4.47715 20 0 15.5228 0 10C0 4.47715 4.47715 0 10 0Z" fill="#CCD1F2"/>
<path d="M10.05 0.000122288L11.52 0.298447L11.8841 -1.4954L10.0537 -1.49987L10.05 0.000122288ZM10 0L10.0037 -1.5H10V0ZM11.3628 2.72696L12.7412 3.31848L13.294 2.03021L12.046 1.39162L11.3628 2.72696ZM17.0114 8.73991L18.5046 8.59774L18.322 6.6802L16.5077 7.327L17.0114 8.73991ZM19.9546 10.9588L21.4479 11.1008L21.6359 9.12478L19.6836 9.48345L19.9546 10.9588ZM10.0537 -1.49987L10.0037 -1.5L9.99633 1.5L10.0463 1.50012L10.0537 -1.49987ZM11.5 0.5C11.5 0.429565 11.5071 0.362325 11.52 0.298447L8.57995 -0.298202C8.52736 -0.0390462 8.5 0.228056 8.5 0.5H11.5ZM12.046 1.39162C11.7187 1.22414 11.5 0.886318 11.5 0.5H8.5C8.5 2.05603 9.38881 3.40187 10.6795 4.0623L12.046 1.39162ZM12.5 4.5C12.5 4.07752 12.5865 3.67912 12.7412 3.31848L9.98433 2.13544C9.67213 2.86297 9.5 3.66333 9.5 4.5H12.5ZM15.5 7.5C13.8431 7.5 12.5 6.15685 12.5 4.5H9.5C9.5 7.81371 12.1863 10.5 15.5 10.5V7.5ZM16.5077 7.327C16.1947 7.43858 15.8562 7.5 15.5 7.5V10.5C16.2042 10.5 16.8833 10.378 17.5151 10.1528L16.5077 7.327ZM19.5 9.5C18.9809 9.5 18.5528 9.1034 18.5046 8.59774L15.5181 8.88208C15.7114 10.9127 17.4195 12.5 19.5 12.5V9.5ZM19.6836 9.48345C19.6251 9.49419 19.5639 9.5 19.5 9.5V12.5C19.7466 12.5 19.9893 12.4775 20.2257 12.4341L19.6836 9.48345ZM10 21.5C15.9802 21.5 20.8928 16.9364 21.4479 11.1008L18.4614 10.8167C18.0514 15.1272 14.4187 18.5 10 18.5V21.5ZM-1.5 10C-1.5 16.3513 3.64873 21.5 10 21.5V18.5C5.30558 18.5 1.5 14.6944 1.5 10H-1.5ZM10 -1.5C3.64873 -1.5 -1.5 3.64873 -1.5 10H1.5C1.5 5.30558 5.30558 1.5 10 1.5V-1.5Z" fill="#5567D5" mask="url(#path-1-inside-1_46_2722)"/>
<circle cx="6.5" cy="8.5" r="1.5" fill="#5567D5"/>
<circle cx="14.5" cy="1.5" r="1.5" fill="#5567D5"/>
<circle cx="8" cy="15" r="1" fill="#5567D5"/>
<circle cx="13" cy="13" r="1" fill="#5567D5"/>
<circle cx="18" cy="6" r="1" fill="#5567D5"/>
</g>
<defs>
<clipPath id="clip0_46_2722">
<rect width="20" height="20" fill="white"/>
</clipPath>
</defs>
</svg>
