<svg width="111" height="98" viewBox="0 0 111 98" fill="none" xmlns="http://www.w3.org/2000/svg">
<path d="M27.4622 42.2555C35.5651 35.795 38.4225 31.9105 45.7699 24.2815C53.1033 16.6769 62.6055 5.30673 71.467 4.95543C80.3046 4.59066 88.5175 15.2247 94.8839 26.4015C101.253 37.6001 105.795 49.3171 103.714 59.413C101.626 69.4883 92.9216 77.9397 83.8669 82.1743C74.8122 86.409 65.4115 86.4471 55.9962 86.8769C46.5809 87.3066 39.515 88.1641 29.3559 84.8762C19.1813 81.6117 10.592 74.2193 10.6453 66.0048C10.6775 57.794 19.3615 48.7155 27.4622 42.2555Z" fill="white"/>
<path d="M100.2 24.1569H67.8618V63.4372H100.2V24.1569Z" fill="#CCD1F2"/>
<path d="M100.2 24.1569H67.8618V29.7683H100.2V24.1569Z" fill="#A6B3FF"/>
<path d="M71.5001 28.1649C72.1698 28.1649 72.7128 27.6266 72.7128 26.9625C72.7128 26.2984 72.1698 25.76 71.5001 25.76C70.8303 25.76 70.2874 26.2984 70.2874 26.9625C70.2874 27.6266 70.8303 28.1649 71.5001 28.1649Z" fill="#F0F1FB"/>
<path d="M75.542 28.1649C76.2118 28.1649 76.7547 27.6266 76.7547 26.9625C76.7547 26.2984 76.2118 25.76 75.542 25.76C74.8723 25.76 74.3293 26.2984 74.3293 26.9625C74.3293 27.6266 74.8723 28.1649 75.542 28.1649Z" fill="#F0F1FB"/>
<path d="M79.5845 28.1649C80.2543 28.1649 80.7972 27.6266 80.7972 26.9625C80.7972 26.2984 80.2543 25.76 79.5845 25.76C78.9148 25.76 78.3718 26.2984 78.3718 26.9625C78.3718 27.6266 78.9148 28.1649 79.5845 28.1649Z" fill="#F0F1FB"/>
<path d="M73.9041 33.4747H77.9887C78.8171 33.4747 79.4887 34.1463 79.4887 34.9747V43.801C79.4887 44.6294 78.8171 45.301 77.9887 45.301H73.9041C73.0756 45.301 72.4041 44.6294 72.4041 43.801V34.9747C72.4041 34.1463 73.0756 33.4747 73.9041 33.4747Z" fill="#F0F1FB" stroke="#F0F1FB"/>
<path d="M84.8396 33.7765H96.1581" stroke="#F0F1FB" stroke-width="2" stroke-linecap="round" stroke-linejoin="round"/>
<path d="M73.521 50.611H96.1581" stroke="#F0F1FB" stroke-width="2" stroke-linecap="round" stroke-linejoin="round"/>
<path d="M73.521 56.2224H96.1581" stroke="#F0F1FB" stroke-width="2" stroke-linecap="round" stroke-linejoin="round"/>
<path d="M84.8396 39.3879H96.1581" stroke="#F0F1FB" stroke-width="2" stroke-linecap="round" stroke-linejoin="round"/>
<path d="M84.8396 44.9995H96.1581" stroke="#F0F1FB" stroke-width="2" stroke-linecap="round" stroke-linejoin="round"/>
<path d="M75.1381 45.801H23.3962V84.2797H75.1381V45.801Z" fill="#A6B3FF"/>
<path d="M52.5418 51.4126H33.0567C30.4003 51.4126 28.2468 53.566 28.2468 56.2224C28.2468 58.8788 30.4003 61.0323 33.0567 61.0323H52.5418C55.1982 61.0323 57.3516 58.8788 57.3516 56.2224C57.3516 53.566 55.1982 51.4126 52.5418 51.4126Z" fill="#F0F1FB"/>
<path d="M65.4363 61.0323C68.1153 61.0323 70.2871 58.8788 70.2871 56.2224C70.2871 53.566 68.1153 51.4126 65.4363 51.4126C62.7572 51.4126 60.5854 53.566 60.5854 56.2224C60.5854 58.8788 62.7572 61.0323 65.4363 61.0323Z" fill="#F0F1FB"/>
<path d="M29.0554 68.2469H58.1602" stroke="#F0F1FB" stroke-width="2" stroke-linecap="round" stroke-linejoin="round"/>
<path d="M29.0554 75.4617H46.4375" stroke="#F0F1FB" stroke-width="2" stroke-linecap="round" stroke-linejoin="round"/>
</svg>
