<svg id="Illustration_Deploy" data-name="Illustration/Deploy" xmlns="http://www.w3.org/2000/svg" width="90.5" height="86" viewBox="0 0 90.5 86">
  <g id="Group_4" data-name="Group 4" transform="translate(0 0)">
    <path id="Path" d="M56.155,0h3.31V59.477H0V56.619" transform="translate(16.875 14.467)" fill="none" stroke="#c8cef0" stroke-linecap="round" stroke-linejoin="round" stroke-miterlimit="10" stroke-width="0.609"/>
    <path id="Path-2" data-name="Path" d="M80.955.922c6.5,3.421,5.963,17.148,6.231,29.175s1.34,22.351-1.684,32.969-10.136,21.524-19.094,22.8c-8.985,1.3-19.841-7.008-32.116-11.44S8.331,69.432,2.9,62.823.331,43.552,6.054,34.877C11.8,26.2,20.414,21.525,27.794,18.26c7.354-3.265,13.5-5.123,23.318-9.5C60.953,4.4,74.458-2.5,80.955.922Z" transform="translate(0 0)" fill="#f7f8fb"/>
    <path id="Path-3" data-name="Path" d="M56.155,0h3.31V59.477H0V56.619" transform="translate(16.875 14.467)" fill="none" stroke="#ced4f7" stroke-linecap="round" stroke-linejoin="round" stroke-miterlimit="10" stroke-width="0.609"/>
    <path id="Path-4" data-name="Path" d="M4.018,2.065A12.315,12.315,0,0,1,.655.111c-.42-.489-1.419.7.394,2.3" transform="translate(5.625 49.028)" fill="#fff"/>
    <path id="Path-5" data-name="Path" d="M4.018,4.019A23.186,23.186,0,0,1,1.483.513C1.179-.207-.893-.926.447,4.019" transform="translate(12.857 49.832)" fill="#fff"/>
    <path id="Path-6" data-name="Path" d="M18.6.753c5.753,3-.686,17.92-4.223,21.7-2.9.63-13.11-4.3-14.373-7.565C1.062,11.662,10.4-3.521,18.6.753Z" transform="translate(26.518 45.813)" fill="#5567d5"/>
    <path id="Path-7" data-name="Path" d="M17.589,0,23.3,12.956,0,16.879,17.589,0Z" transform="translate(66.696 20.897)" fill="none" stroke="#d9ddf5" stroke-linecap="round" stroke-linejoin="round" stroke-miterlimit="10" stroke-width="1"/>
    <path id="Rectangle" d="M0,0,17.446.019l.017,15.354L.017,15.354Z" transform="matrix(0.644, -0.765, 0.765, 0.644, 7.82, 33.685)" fill="none" stroke="#d9ddf5" stroke-linecap="round" stroke-linejoin="round" stroke-miterlimit="10" stroke-width="1"/>
    <path id="Path-8" data-name="Path" d="M38.571,32.953C38.105,15.277,33.062,0,21.353,0,6.5,0,1.575,20.241,0,32.953Z" transform="translate(31.339 41.794)" fill="#5567d5"/>
    <path id="Path-9" data-name="Path" d="M12.054,12.056V3.987L10.332,0,0,6.28c.279.983,1.136,3.708,1.793,5.772Z" transform="translate(64.286 61.888)" fill="#fff"/>
    <path id="Path-10" data-name="Path" d="M4.09.353C9.828-2.373,17.636,11.444,18.482,16.426c-1.223,2.632-11.1,7.708-14.392,6.768C2.208,20.468-4.088,4.237,4.09.353Z" transform="translate(57.857 45.813)" fill="#5567d5"/>
    <path id="Path-11" data-name="Path" d="M0,4.822V0H43.393" transform="translate(16.875 13.664)" fill="none" stroke="#ced3f3" stroke-linecap="round" stroke-linejoin="round" stroke-miterlimit="10" stroke-width="0.609"/>
    <path id="Path-12" data-name="Path" d="M.059,20.9V0" transform="translate(16.816 33.757)" fill="none" stroke="#ced3f3" stroke-linecap="round" stroke-linejoin="round" stroke-miterlimit="10" stroke-width="0.609"/>
    <path id="Path-13" data-name="Path" d="M10.446,0A40.715,40.715,0,0,0,9.411,11.688C7.811,13.137,2.447,13.427,0,11.5A39.541,39.541,0,0,0,.376,3.671C.282,1.739,10.446,0,10.446,0Z" transform="translate(46.607 32.953)" fill="#fff"/>
    <ellipse id="Oval" cx="10.045" cy="12.458" rx="10.045" ry="12.458" transform="translate(39.375 13.664)" fill="#fff"/>
    <path id="Path-14" data-name="Path" d="M24.911,11.873c0-4.994-5.536-8.387-9.258-9.518C12.643,1.442,7.922,0,5.44,0,2.386,0,0,3.11,0,6.219c0,3.392,1.813,5.937,4.009,6.5.382-1.131.573-1.6.573-1.6.382.471,10.594,1.7,14.03,1.6-.286,1.225-.477,5.56,1.432,5.654C21.093,18.47,24.911,19.6,24.911,11.873Z" transform="translate(36.161 8.841)" fill="#ff9d52"/>
    <ellipse id="Oval-2" data-name="Oval" cx="2.411" cy="2.411" rx="2.411" ry="2.411" transform="translate(54.643 25.72)" fill="#fff"/>
    <g id="Group_3" data-name="Group 3" transform="translate(2.411 8.037)">
      <path id="Path-15" data-name="Path" d="M4.018,4.019A23.187,23.187,0,0,1,1.483.512C1.22-.107-.352-.726.072,2.275" transform="translate(9.643 40.187)" fill="none" stroke="#41415a" stroke-linecap="round" stroke-linejoin="round" stroke-miterlimit="10" stroke-width="1"/>
      <path id="Path-16" data-name="Path" d="M23.912,12.1c-.6,1.264-3.248,6.227-3.248,6.227S14.618,5.253,13.957,4.967,3.188,1.149,1.3.1C.543-.283-1.724.385,2.432,3.153s8.219,5.059,8.691,6.013S15,24.916,15,24.916h12.67c.839,0,3.673-9.354,3.673-9.354S24.61,11.318,23.912,12.1Z" transform="translate(0.804 42.598)" fill="#fff"/>
      <path id="Shape" d="M16.43,20.9H3.808c0-.018-.395-1.712-.9-3.892L19.758,12.8l-.009.033C19.329,14.177,17.191,20.9,16.43,20.9ZM9.455,14.333h0c-.039-.084-3.885-8.4-5.731-11.816l8.8,5.945c-.589,1.236-3.04,5.825-3.065,5.872ZM3.72,2.514,0,0,.577.209c1.173.425,2.02.732,2.2.808a5.869,5.869,0,0,1,.949,1.5Z" transform="translate(11.25 45.009)" fill="none" stroke="#41415a" stroke-linecap="round" stroke-linejoin="round" stroke-miterlimit="10" stroke-width="1"/>
      <path id="Path-17" data-name="Path" d="M0,0C3.305,1.95,6.069,3.507,6.463,4.244c.261.489,1.379,4.723,2.376,8.616" transform="translate(4.821 46.617)" fill="none" stroke="#41415a" stroke-linecap="round" stroke-linejoin="round" stroke-miterlimit="10" stroke-width="1"/>
      <path id="Path-18" data-name="Path" d="M8.839,3.215C5.776,2.046,2.349.7,1.32.1c-.7-.367-2.674.186.17,2.5" transform="translate(0 40.991)" fill="none" stroke="#41415a" stroke-linecap="round" stroke-linejoin="round" stroke-miterlimit="10" stroke-width="1"/>
      <path id="Shape-2" data-name="Shape" d="M8.8,21.16h0A31.965,31.965,0,0,1,3.273,18.19,8.746,8.746,0,0,1,0,14.885,26.915,26.915,0,0,1,3.131,9.318L8.8,21.158ZM7.928,3.725h0C10.625,1.253,13.2,0,15.566,0A6.5,6.5,0,0,1,18.6.752Z" transform="translate(22.5 36.972)" fill="none" stroke="#41415a" stroke-linecap="round" stroke-linejoin="round" stroke-miterlimit="10" stroke-width="1"/>
      <path id="Path-19" data-name="Path" d="M0,12.86C1.451,8.031,3.512,3.386,6.429,0" transform="translate(31.339 38.579)" fill="none" stroke="#41415a" stroke-linecap="round" stroke-linejoin="round" stroke-miterlimit="10" stroke-width="1"/>
      <path id="Shape-3" data-name="Shape" d="M2.105,6.812C1.459,4.772.326,1.174,0,0L2.107,6.812Z" transform="translate(60.268 59.683)" fill="none" stroke="#41415a" stroke-linecap="round" stroke-linejoin="round" stroke-miterlimit="10" stroke-width="1"/>
      <path id="Path-20" data-name="Path" d="M6.436,0c4.3,3.574,8.24,11.268,8.832,14.735-1.244,2.664-11.291,7.8-14.64,6.85A9.939,9.939,0,0,1,0,20.495" transform="translate(57.857 38.579)" fill="none" stroke="#41415a" stroke-linecap="round" stroke-linejoin="round" stroke-miterlimit="10" stroke-width="1"/>
      <path id="Path-21" data-name="Path" d="M.666,13.664C-.449,8.447-.507,2.6,3.214,0" transform="translate(54.643 36.972)" fill="none" stroke="#41415a" stroke-linecap="round" stroke-linejoin="round" stroke-miterlimit="10" stroke-width="1"/>
      <path id="Shape-4" data-name="Shape" d="M4.944,12.86c-.316,0-.635-.013-.946-.037L10.445,0A41.355,41.355,0,0,0,9.41,11.689,7.3,7.3,0,0,1,4.944,12.86ZM0,11.48H0L.376,3.671c.022.475.036.934.043,1.363A37.916,37.916,0,0,1,0,11.48Z" transform="translate(43.394 24.112)" fill="none" stroke="#41415a" stroke-linecap="round" stroke-linejoin="round" stroke-miterlimit="10" stroke-width="1"/>
      <path id="Path-22" data-name="Path" d="M12.054,3.4A7.841,7.841,0,0,1,7.61,4.822C4.557,4.822,1.826,2.949,0,0" transform="translate(38.571 24.916)" fill="none" stroke="#41415a" stroke-linecap="round" stroke-linejoin="round" stroke-miterlimit="10" stroke-width="1"/>
      <path id="Shape-5" data-name="Shape" d="M19.322,9.928h0l.769-4.9A15.753,15.753,0,0,1,19.322,9.928ZM.52,9.092A15.963,15.963,0,0,1,0,5.025,15.694,15.694,0,0,1,.808,0L.522,9.091Z" transform="translate(36.161 12.567)" fill="none" stroke="#41415a" stroke-linecap="round" stroke-linejoin="round" stroke-miterlimit="10" stroke-width="1"/>
      <path id="Path-23" data-name="Path" d="M2.411,0A12.1,12.1,0,0,1,0,4.822" transform="translate(40.179 16.075)" fill="none" stroke="#41415a" stroke-linecap="round" stroke-linejoin="round" stroke-miterlimit="10" stroke-width="1"/>
      <path id="Path-24" data-name="Path" d="M0,1.607A2.884,2.884,0,0,0,2.411,0" transform="translate(42.589 23.308)" fill="none" stroke="#41415a" stroke-linecap="round" stroke-linejoin="round" stroke-miterlimit="10" stroke-width="1"/>
      <ellipse id="Oval-3" data-name="Oval" cx="0.977" cy="0.454" rx="0.977" ry="0.454" transform="translate(38.853 17.657) rotate(-80.47)" fill="#4e4e65"/>
      <path id="Path-25" data-name="Path" d="M18.482,3.629A17.4,17.4,0,0,0,15.21,2.268C12.222,1.388,7.533,0,5.068,0A5.622,5.622,0,0,0,0,4.019" transform="translate(33.75)" fill="none" stroke="#41415a" stroke-linecap="round" stroke-linejoin="round" stroke-miterlimit="10" stroke-width="1"/>
      <path id="Path-26" data-name="Path" d="M.179,6.406c-.284,1.2-.473,5.45,1.42,5.542,1.042.092,4.829,1.2,4.829-6.373A7.813,7.813,0,0,0,3.777,0" transform="translate(51.429 6.43)" fill="none" stroke="#41415a" stroke-linecap="round" stroke-linejoin="round" stroke-miterlimit="10" stroke-width="1"/>
      <path id="Path-27" data-name="Path" d="M0,0C.576,2.536,2.088,4.339,3.84,4.822c.389-1.234.584-1.748.584-1.748.278.368,5.7,1.159,10.041,1.542" transform="translate(32.946 8.037)" fill="none" stroke="#41415a" stroke-linecap="round" stroke-linejoin="round" stroke-miterlimit="10" stroke-width="1"/>
      <path id="Path-28" data-name="Path" d="M0,.111a2.515,2.515,0,0,1,2.589.7A2.364,2.364,0,0,1,3,3.4,2.477,2.477,0,0,1,.745,4.822a2.566,2.566,0,0,1-.619-.076" transform="translate(53.036 16.879)" fill="none" stroke="#41415a" stroke-linecap="round" stroke-linejoin="round" stroke-miterlimit="10" stroke-width="1"/>
      <path id="Path-29" data-name="Path" d="M4.018,2.065A12.315,12.315,0,0,1,.655.111c-.42-.489-1.419.7.394,2.3" transform="translate(2.411 40.187)" fill="none" stroke="#41415a" stroke-linecap="round" stroke-linejoin="round" stroke-miterlimit="10" stroke-width="1"/>
      <path id="Shape-6" data-name="Shape" d="M17.121,3.471,12.34,0a12.761,12.761,0,0,1,4.783,3.47ZM0,1.651H0A14.354,14.354,0,0,1,2.468.3Z" transform="translate(40.996 33.763)" fill="none" stroke="#41415a" stroke-linecap="round" stroke-linejoin="round" stroke-miterlimit="10" stroke-width="1"/>
      <path id="Path-30" data-name="Path" d="M0,7.234C.185,5.032.444,2.569.8,0" transform="translate(28.125 58.673)" fill="none" stroke="#41415a" stroke-linecap="round" stroke-linejoin="round" stroke-miterlimit="10" stroke-width="1"/>
      <path id="Path-31" data-name="Path" d="M0,2.411A2.514,2.514,0,0,1,1.607,0" transform="translate(51.429 16.879)" fill="none" stroke="#41415a" stroke-linecap="round" stroke-linejoin="round" stroke-miterlimit="10" stroke-width="1"/>
    </g>
  </g>
</svg>
