<?xml version="1.0" encoding="utf-8"?>
<!-- Generator: Adobe Illustrator 17.0.0, SVG Export Plug-In . SVG Version: 6.00 Build 0)  -->
<!DOCTYPE svg PUBLIC "-//W3C//DTD SVG 1.1//EN" "http://www.w3.org/Graphics/SVG/1.1/DTD/svg11.dtd">
<svg version="1.1" id="Layer_1" xmlns="http://www.w3.org/2000/svg" xmlns:xlink="http://www.w3.org/1999/xlink" x="0px" y="0px"
	 width="35.558px" height="35.158px" viewBox="0 -0.158 35.558 35.158" enable-background="new 0 -0.158 35.558 35.158"
	 xml:space="preserve">
<title>B38C9BD4-9ABB-4D50-87AE-816EBC4C4217</title>
<g id="Project">
	<g id="DevOps-View" transform="translate(-18.000000, -323.000000)">
		<g id="Group" transform="translate(6.000000, 124.000000)">
			<g id="Icon_x2F_Develope" transform="translate(12.529437, 199.529437)">
				<g id="Combined-Shape" transform="translate(16.970563, 16.970563) rotate(45.000000) translate(-16.970563, -16.970563) ">
					<path id="path-1_1_" fill="#40404B" d="M14.772,31.774c0,1.154,0.491,2.276,2.121,3.97l0.359,0.366l0.364-0.374
						c1.505-1.602,2.053-2.701,2.124-3.725l0.008-0.237h2.487c0,1.994-0.962,3.886-3.603,6.49l-0.515,0.496l-0.838,0.789
						l-0.85-0.777c-2.916-2.669-4.021-4.585-4.135-6.633l-0.01-0.364L14.772,31.774z M17.265-4.912
						c7.083,1.431,11.992,7.96,11.438,15.216L28.51,12.74c3.526,2.681,5.576,6.322,5.576,10.291l0,0v1.253l-6.503-0.002
						l-0.212,2.678c-0.099,1.306-1.179,2.314-2.482,2.314H9.593c-1.148,0-2.124-0.785-2.408-1.869
						c-0.041-0.153-0.069-0.313-0.081-0.478l-0.091-1.181l-0.12-1.489h-7.386v-1.253c0-4.183,2.276-8.002,6.157-10.715l0.247-0.168
						l-0.142-1.757C5.229,3.273,9.888-3.128,16.694-4.787L17.265-4.912z M28.267,15.809l-0.481,5.968h3.722l-0.058-0.362
						C31.072,19.365,29.975,17.446,28.267,15.809z M17.262-2.346l-0.507,0.137C11.581-0.696,8.058,4.17,8.221,9.608l0.03,0.565
						l0.884,11.59l16.201-0.01l0.889-11.639c0.431-5.629-3.122-10.729-8.403-12.306L17.262-2.346z M2.143,21.387l-0.058,0.362
						l4.606,0.002l-0.543-6.696C3.974,16.838,2.581,19.029,2.143,21.387z M17.234,5.11c1.373,0,2.488,1.121,2.487,2.506
						c-0.002,1.385-1.113,2.506-2.487,2.506s-2.488-1.121-2.487-2.506C14.749,6.232,15.861,5.11,17.234,5.11z"/>
				</g>
			</g>
		</g>
	</g>
</g>
</svg>
