<?xml version="1.0" encoding="UTF-8"?>
<svg width="18px" height="18px" viewBox="0 0 18 18" version="1.1" xmlns="http://www.w3.org/2000/svg" xmlns:xlink="http://www.w3.org/1999/xlink">
    <title>7F837BA6-9137-4C2E-98F2-512CF203F35C</title>
    <g id="Home" stroke="none" stroke-width="1" fill="none" fill-rule="evenodd">
        <g id="Component-Develop-overview-colapsed" transform="translate(-1403.000000, -79.000000)" fill="#8D91A3" fill-rule="nonzero">
            <g id="Button/Code/Default" transform="translate(1392.000000, 68.000000)">
                <g id="Icon/Code" transform="translate(11.000000, 11.000000)">
                    <path d="M14.1,0.7 C15.7016258,0.7 17,1.99837423 17,3.6 L17,3.6 L17,12.0840729 C17,12.8532007 16.6944652,13.590827 16.1506097,14.1346825 L16.1506097,14.1346825 L13.6346825,16.6506097 C13.090827,17.1944652 12.3532007,17.5 11.5840729,17.5 L11.5840729,17.5 L4.1,17.5 C2.49837423,17.5 1.2,16.2016258 1.2,14.6 L1.2,14.6 L1.2,3.6 C1.2,1.99837423 2.49837423,0.7 4.1,0.7 L4.1,0.7 Z M14.1,2.5 L4.1,2.5 C3.49248678,2.5 3,2.99248678 3,3.6 L3,3.6 L3,14.6 C3,15.2075132 3.49248678,15.7 4.1,15.7 L4.1,15.7 L11.5840729,15.7 C11.875811,15.7 12.1556003,15.5841075 12.3618903,15.3778175 L12.3618903,15.3778175 L14.8778175,12.8618903 C15.0841075,12.6556003 15.2,12.375811 15.2,12.0840729 L15.2,12.0840729 L15.2,3.6 C15.2,2.99248678 14.7075132,2.5 14.1,2.5 L14.1,2.5 Z M8.6,10.2 C9.09705627,10.2 9.5,10.6029437 9.5,11.1 C9.5,11.5588212 9.15666333,11.9374518 8.71289409,11.9929877 L8.6,12 L6.6,12 C6.10294373,12 5.7,11.5970563 5.7,11.1 C5.7,10.6411788 6.04333667,10.2625482 6.48710591,10.2070123 L6.6,10.2 L8.6,10.2 Z M11.6,5.2 C12.0970563,5.2 12.5,5.60294373 12.5,6.1 C12.5,6.55882118 12.1566633,6.93745178 11.7128941,6.99298772 L11.6,7 L6.6,7 C6.10294373,7 5.7,6.59705627 5.7,6.1 C5.7,5.64117882 6.04333667,5.26254822 6.48710591,5.20701228 L6.6,5.2 L11.6,5.2 Z" id="Combined-Shape"></path>
                </g>
            </g>
        </g>
    </g>
</svg>