<svg width="48" height="48" viewBox="0 0 48 48" fill="none" xmlns="http://www.w3.org/2000/svg">
<g clip-path="url(#clip0_1684_7450)">
<path d="M0 19C0 16.7909 1.79086 15 4 15H9.67157C10.202 15 10.7107 15.2107 11.0858 15.5858L15.6213 20.1213C16.1839 20.6839 16.947 21 17.7426 21H38C40.2091 21 42 22.7909 42 25V44C42 46.2091 40.2091 48 38 48H4C1.79086 48 0 46.2091 0 44V19Z" fill="#F0F1F4"/>
<path fill-rule="evenodd" clip-rule="evenodd" d="M14.7146 32.7274C14.8402 32.3326 14.622 31.9109 14.2273 31.7853C13.8326 31.6597 13.4108 31.8778 13.2852 32.2726L9.78523 43.2726C9.65964 43.6673 9.87781 44.0891 10.2725 44.2147C10.6672 44.3402 11.089 44.1221 11.2146 43.7274L14.7146 32.7274ZM8.03025 33.9696C8.32315 34.2625 8.32315 34.7374 8.03025 35.0303L5.06058 38L8.03025 40.9696C8.32315 41.2625 8.32315 41.7374 8.03025 42.0303C7.73736 42.3232 7.26249 42.3232 6.96959 42.0303L3.82315 38.8838C3.33499 38.3957 3.33499 37.6042 3.82315 37.1161L6.96959 33.9696C7.26249 33.6767 7.73736 33.6767 8.03025 33.9696ZM16.4696 42.0303C16.1767 41.7374 16.1767 41.2625 16.4696 40.9696L19.4393 38L16.4696 35.0303C16.1767 34.7374 16.1767 34.2625 16.4696 33.9696C16.7625 33.6767 17.2374 33.6767 17.5303 33.9696L20.6767 37.1161C21.1649 37.6042 21.1649 38.3957 20.6767 38.8838L17.5303 42.0303C17.2374 42.3232 16.7625 42.3232 16.4696 42.0303Z" fill="#40404B"/>
<path d="M37.2632 2.24264C39.6064 -0.100505 43.4054 -0.100505 45.7485 2.24264C48.0916 4.58579 48.0916 8.38478 45.7485 10.7279L28.0583 28.4181C27.9581 28.5183 27.8239 28.5771 27.6824 28.5828L20.1418 28.8891C19.5581 28.9128 19.0784 28.4331 19.1021 27.8493L19.4083 20.3088C19.414 20.1672 19.4728 20.033 19.573 19.9329L37.2632 2.24264Z" fill="url(#paint0_angular_1684_7450)"/>
</g>
<defs>
<radialGradient id="paint0_angular_1684_7450" cx="0" cy="0" r="1" gradientUnits="userSpaceOnUse" gradientTransform="translate(41.2262 6.77381) rotate(135) scale(31.5574 26.9094)">
<stop stop-color="#C8D0FF"/>
<stop offset="0.0001" stop-color="#B1BDFF"/>
<stop offset="1" stop-color="#7E8FFA"/>
</radialGradient>
<clipPath id="clip0_1684_7450">
<rect width="48" height="48" fill="white"/>
</clipPath>
</defs>
</svg>
