<?xml version="1.0" encoding="UTF-8"?>
<svg width="16px" height="16px" viewBox="0 0 16 16" version="1.1" xmlns="http://www.w3.org/2000/svg" xmlns:xlink="http://www.w3.org/1999/xlink">
    <title>C6E73A8E-8941-4CC3-9062-83B0FFE10E6D</title>
    <g id="Custom-URLs" stroke="none" stroke-width="1" fill="none" fill-rule="evenodd">
        <g id="Select-SSL-provider--" transform="translate(-494.000000, -320.000000)" fill="#5567D5" fill-rule="nonzero">
            <path d="M502,320 C504.331869,320 506.234487,321.837843 506.338388,324.144066 L506.342857,324.342857 L506.342,324.571 L507.485714,324.571429 C508.818772,324.571429 509.909525,325.608859 509.994652,326.920399 L510,327.085714 L510,333.485714 C510,334.874316 508.874316,336 507.485714,336 L507.485714,336 L496.514286,336 C495.125684,336 494,334.874316 494,333.485714 L494,333.485714 L494,327.085714 C494,325.697113 495.125684,324.571429 496.514286,324.571429 L496.514286,324.571429 L497.657,324.571 L497.657143,324.342857 C497.657143,321.944363 499.601506,320 502,320 Z M507.485714,325.942857 L496.514286,325.942857 C495.883103,325.942857 495.371429,326.454532 495.371429,327.085714 L495.371429,327.085714 L495.371429,333.485714 C495.371429,334.116897 495.883103,334.628571 496.514286,334.628571 L496.514286,334.628571 L507.485714,334.628571 C508.116897,334.628571 508.628571,334.116897 508.628571,333.485714 L508.628571,333.485714 L508.628571,327.085714 C508.628571,326.454532 508.116897,325.942857 507.485714,325.942857 L507.485714,325.942857 Z M502,327.314286 C503.136129,327.314286 504.057143,328.2353 504.057143,329.371429 C504.057143,330.267179 503.484629,331.029213 502.685559,331.311571 L502.685714,332.32673 C502.685714,332.705439 502.37871,333.012444 502,333.012444 C501.65285,333.012444 501.365951,332.754475 501.320545,332.419777 L501.314286,332.32673 L501.314441,331.311571 C500.515371,331.029213 499.942857,330.267179 499.942857,329.371429 C499.942857,328.2353 500.863871,327.314286 502,327.314286 Z M502,328.685714 C501.62129,328.685714 501.314286,328.992719 501.314286,329.371429 C501.314286,329.750138 501.62129,330.057143 502,330.057143 C502.37871,330.057143 502.685714,329.750138 502.685714,329.371429 C502.685714,328.992719 502.37871,328.685714 502,328.685714 Z M502,321.371429 C500.415514,321.371429 499.120689,322.611616 499.033275,324.174241 L499.028571,324.342857 L499.028,324.571 L504.971,324.571 L504.971429,324.342857 C504.971429,322.701782 503.641075,321.371429 502,321.371429 Z" id="Encrypt"></path>
        </g>
    </g>
</svg>
