<svg width="16" height="17" viewBox="0 0 16 17" fill="none" xmlns="http://www.w3.org/2000/svg">
<path d="M2.16667 3.16666C2.16667 1.78595 3.28595 0.666664 4.66667 0.666664H11.3333C12.714 0.666664 13.8333 1.78595 13.8333 3.16666V5.5C13.8333 5.77614 13.6095 6 13.3333 6C13.0572 6 12.8333 5.77614 12.8333 5.5V3.16666C12.8333 2.33824 12.1618 1.66666 11.3333 1.66666H4.66667C3.83824 1.66666 3.16667 2.33824 3.16667 3.16666V5.5C3.16667 5.77614 2.94281 6 2.66667 6C2.39052 6 2.16667 5.77614 2.16667 5.5V3.16666Z" fill="black"/>
<path d="M2.66667 11C2.94281 11 3.16667 11.2239 3.16667 11.5V13.8333C3.16667 14.6618 3.83824 15.3333 4.66667 15.3333H11.3333C12.1618 15.3333 12.8333 14.6618 12.8333 13.8333V11.5C12.8333 11.2239 13.0572 11 13.3333 11C13.6095 11 13.8333 11.2239 13.8333 11.5V13.8333C13.8333 15.214 12.714 16.3333 11.3333 16.3333H4.66667C3.28595 16.3333 2.16667 15.214 2.16667 13.8333V11.5C2.16667 11.2239 2.39052 11 2.66667 11Z" fill="black"/>
<path fill-rule="evenodd" clip-rule="evenodd" d="M10 8.5C10 9.60457 9.10457 10.5 8 10.5C6.89543 10.5 6 9.60457 6 8.5C6 7.39543 6.89543 6.5 8 6.5C9.10457 6.5 10 7.39543 10 8.5ZM9 8.5C9 9.05228 8.55228 9.5 8 9.5C7.44771 9.5 7 9.05228 7 8.5C7 7.94771 7.44771 7.5 8 7.5C8.55228 7.5 9 7.94771 9 8.5Z" fill="black"/>
<path fill-rule="evenodd" clip-rule="evenodd" d="M14.9694 8.90548C15.1879 8.67432 15.1879 8.32568 14.9694 8.09451C14.0083 7.07764 11.2512 4.5 8 4.5C4.74878 4.5 1.99173 7.07764 1.03057 8.09451C0.812074 8.32568 0.812074 8.67432 1.03057 8.90548C1.99173 9.92235 4.74878 12.5 8 12.5C11.2512 12.5 14.0083 9.92235 14.9694 8.90548ZM13.968 8.5C13.4819 8.01702 12.7315 7.34652 11.8077 6.76027C10.68 6.04464 9.36548 5.5 8 5.5C6.63452 5.5 5.32004 6.04464 4.19231 6.76027C3.26847 7.34652 2.51812 8.01702 2.032 8.5C2.51812 8.98298 3.26847 9.65348 4.19231 10.2397C5.32004 10.9553 6.63452 11.5 8 11.5C9.36548 11.5 10.68 10.9553 11.8077 10.2397C12.7315 9.65348 13.4819 8.98298 13.968 8.5Z" fill="black"/>
</svg>

