<svg width="40" height="40" viewBox="0 0 40 40" fill="none" xmlns="http://www.w3.org/2000/svg">
<path d="M0.649073 0.833364C0.459768 0.830985 0.279072 0.912071 0.155458 1.05492C0.0318427 1.19778 -0.022038 1.38778 0.00826906 1.57395L2.72848 18.0253C2.79844 18.4409 3.15781 18.7464 3.58075 18.7499H16.6307C16.9482 18.7539 17.2207 18.5258 17.2715 18.2136L19.9917 1.57714C20.022 1.39097 19.9682 1.20097 19.8445 1.05812C19.7209 0.915263 19.5402 0.834177 19.3509 0.836609L0.649073 0.833364ZM12.1034 12.7235H7.93821L6.8104 6.85345H13.1127L12.1034 12.7235Z" fill="#2684FF"/>
<path d="M19 6.80554H13.0259L12.0233 12.6992H7.88562L3 18.5384C3.15485 18.6732 3.35228 18.7482 3.55699 18.75H16.5238C16.8391 18.754 17.1099 18.525 17.1603 18.2115L19 6.80554Z" fill="url(#paint0_linear_1596_8257)"/>
<path d="M21.0955 27.8902L26.3158 32.87V27.8902L24.0897 21.0956C23.9756 20.7459 23.4352 20.7459 23.3216 21.0956L21.0955 27.8902Z" fill="#E24329"/>
<path d="M38.9047 27.8902L33.6843 32.87V27.8902L35.9105 21.0956C36.0246 20.7459 36.565 20.7459 36.6785 21.0956L38.9047 27.8902Z" fill="#E24329"/>
<path d="M30 39.1666L21.6519 27.8902H38.3481L30 39.1666Z" fill="#E24329"/>
<path d="M30.0001 39.1666L26.3158 27.8902H21.0955L23.3216 33.9766L30.0001 39.1666Z" fill="#FC6D26"/>
<path d="M30 39.1666L33.6843 27.8902H38.9047L36.6785 33.9766L30 39.1666Z" fill="#FC6D26"/>
<path d="M21.0953 27.8902L20.0379 31.2986C19.9377 31.6112 20.0379 31.9625 20.3162 32.1617L30.0111 39.1666L21.0953 27.8902Z" fill="#FCA326"/>
<path d="M38.9047 27.8902L39.9621 31.2986C40.0622 31.6112 39.9621 31.9625 39.6838 32.1617L30 39.1666L38.9047 27.8902Z" fill="#FCA326"/>
<defs>
<linearGradient id="paint0_linear_1596_8257" x1="20.3813" y1="10.3693" x2="12.177" y2="16.8167" gradientUnits="userSpaceOnUse">
<stop offset="0.18" stop-color="#0052CC"/>
<stop offset="1" stop-color="#2684FF"/>
</linearGradient>
</defs>
</svg>
