<?xml version="1.0" encoding="UTF-8"?>
<svg width="16px" height="16px" viewBox="0 0 16 16" version="1.1" xmlns="http://www.w3.org/2000/svg" xmlns:xlink="http://www.w3.org/1999/xlink">
    <title>45276D5E-F20E-42E2-80C2-5AD8FEA19D0F</title>
    <g id="Page-1" stroke="none" stroke-width="1" fill="none" fill-rule="evenodd">
        <g id="AC-overview" transform="translate(-120.000000, -388.000000)" fill="#CBCEDB" fill-rule="nonzero">
            <g id="Icon/Time" transform="translate(120.500000, 388.500000)">
                <path d="M12.5,0 C13.8807119,0 15,1.11928813 15,2.5 C15,3.72023668 14.1257736,4.73628684 12.9694843,4.95598692 C12.7552601,6.6112544 11.3832781,7.90336965 9.6920352,7.99482114 L9.5,8 L3,8 L3.00043449,10.0500973 C4.14133817,10.2819003 5,11.2906746 5,12.5 C5,13.8807119 3.88071187,15 2.5,15 C1.11928813,15 0,13.8807119 0,12.5 C0,11.2903182 0.859167895,10.2813059 2.00057405,10.0498926 L2.00057405,4.9501074 C0.859167895,4.7186941 0,3.70968176 0,2.5 C0,1.11928813 1.11928813,0 2.5,0 C3.88071187,0 5,1.11928813 5,2.5 C5,3.70932545 4.14133817,4.71809967 3.00043449,4.94990271 L3,7 L9.5,7 C10.7303098,7 11.753048,6.11128043 11.9612647,4.94079127 C10.8390417,4.69488981 10,3.69542925 10,2.5 C10,1.11928813 11.1192881,0 12.5,0 Z M2.5,11 C1.67157288,11 1,11.6715729 1,12.5 C1,13.3284271 1.67157288,14 2.5,14 C3.32842712,14 4,13.3284271 4,12.5 C4,11.6715729 3.32842712,11 2.5,11 Z M2.5,1 C1.67157288,1 1,1.67157288 1,2.5 C1,3.32842712 1.67157288,4 2.5,4 C3.32842712,4 4,3.32842712 4,2.5 C4,1.67157288 3.32842712,1 2.5,1 Z M12.5,1 C11.6715729,1 11,1.67157288 11,2.5 C11,3.32842712 11.6715729,4 12.5,4 C13.3284271,4 14,3.32842712 14,2.5 C14,1.67157288 13.3284271,1 12.5,1 Z" id="Combined-Shape"></path>
            </g>
        </g>
    </g>
</svg>