<svg width="1090" height="254" viewBox="0 0 1090 254" fill="none" xmlns="http://www.w3.org/2000/svg">
<path d="M47.2075 198.382C48.416 198.382 49.4048 198.075 50.1665 197.46C50.9282 196.844 51.3091 196.09 51.3091 195.189C51.3091 194.442 51.0747 193.863 50.6133 193.446C50.1519 193.028 49.4634 192.677 48.5552 192.391L45.9771 191.571C45.5083 191.432 45.1641 191.263 44.9517 191.066C44.7393 190.868 44.6294 190.619 44.6294 190.318C44.6294 189.938 44.8198 189.608 45.1934 189.33C45.5669 189.051 46.043 188.912 46.6216 188.912C47.2881 188.912 47.874 189.059 48.3794 189.359C48.8848 189.659 49.2583 190.055 49.5073 190.546L51.0234 190.091C50.7012 189.344 50.1519 188.722 49.3755 188.224C48.5991 187.726 47.6763 187.477 46.6069 187.477C45.5669 187.477 44.7026 187.762 44.0142 188.326C43.3257 188.89 42.9814 189.571 42.9814 190.362C42.9814 191.586 43.7651 192.443 45.3398 192.933L47.9766 193.776C48.5771 193.966 49.002 194.178 49.2583 194.42C49.5146 194.662 49.6392 194.955 49.6392 195.306C49.6392 195.738 49.4121 196.119 48.9653 196.449C48.5186 196.778 47.9473 196.947 47.2515 196.947C46.4604 196.947 45.7793 196.742 45.2007 196.332C44.6221 195.922 44.2119 195.394 43.9702 194.757L42.4321 195.218C42.7324 196.112 43.3037 196.866 44.146 197.474C44.9883 198.082 45.9917 198.39 47.1636 198.39L47.2075 198.382ZM56.978 196.654C56.6484 196.815 56.3188 196.896 55.9893 196.896C55.2642 196.896 54.9053 196.507 54.9053 195.738V192.032H57.3076V190.641H54.9053V188.121H53.3452V190.641H51.9683V192.032H53.3452V195.738C53.3452 196.537 53.543 197.167 53.9312 197.621C54.3193 198.075 54.9126 198.302 55.7036 198.302C56.2383 198.302 56.7949 198.185 57.3662 197.943L56.978 196.654ZM62.0464 198.382C62.9473 198.382 63.709 198.17 64.3315 197.753C64.9541 197.335 65.4009 196.83 65.6719 196.236L64.2363 195.812C63.8481 196.625 63.1304 197.027 62.0903 197.027C61.3506 197.027 60.7573 196.83 60.3179 196.442C59.8784 196.053 59.6367 195.541 59.5854 194.903H65.7158C65.7524 194.676 65.7671 194.464 65.7671 194.274C65.7671 193.175 65.4229 192.267 64.7344 191.542C64.0459 190.817 63.1084 190.458 61.9146 190.458C60.7646 190.458 59.8271 190.839 59.1094 191.593C58.3916 192.347 58.0327 193.292 58.0327 194.427C58.0327 195.607 58.4062 196.566 59.1533 197.298C59.9004 198.031 60.8672 198.397 62.061 198.397L62.0464 198.382ZM59.5854 193.863C59.644 193.292 59.8857 192.809 60.3105 192.413C60.7354 192.018 61.27 191.82 61.9219 191.82C62.5957 191.82 63.1377 192.01 63.5405 192.391C63.9434 192.772 64.1704 193.263 64.2217 193.863H59.5854ZM71.6411 190.443C70.4692 190.443 69.5684 190.89 68.9385 191.783V190.641H67.3638V201.334H68.9385V197.042C69.5684 197.936 70.4692 198.382 71.6411 198.382C72.7104 198.382 73.604 198.002 74.3218 197.247C75.0396 196.493 75.3984 195.548 75.3984 194.413C75.3984 193.277 75.0396 192.333 74.3218 191.578C73.604 190.824 72.7104 190.45 71.6411 190.45V190.443ZM71.3848 196.976C70.689 196.976 70.0957 196.734 69.6123 196.251C69.1289 195.768 68.8872 195.152 68.8872 194.413C68.8872 193.68 69.1289 193.072 69.6123 192.589C70.0957 192.106 70.6816 191.864 71.3774 191.864C72.1025 191.864 72.6958 192.106 73.1572 192.582C73.6187 193.058 73.8457 193.666 73.8457 194.405C73.8457 195.145 73.6113 195.76 73.1499 196.244C72.6885 196.727 72.0952 196.969 71.3774 196.969L71.3848 196.976ZM83.228 187.682L80.064 189.308L80.4668 190.714L82.957 189.513V198.185H84.6123V187.682H83.228Z" fill="#5567D5"/>
<path d="M47.3247 211.682H43.0474V222.185H47.3247C48.8848 222.185 50.1226 221.694 51.0381 220.713C51.9536 219.731 52.415 218.471 52.415 216.933C52.415 215.388 51.9536 214.128 51.0308 213.154C50.1079 212.18 48.8701 211.689 47.3247 211.689V211.682ZM47.2954 220.72H44.6733V213.161H47.2954C48.3647 213.161 49.2144 213.513 49.8442 214.216C50.4741 214.919 50.7891 215.82 50.7891 216.919C50.7891 218.039 50.4741 218.955 49.8442 219.665C49.2144 220.376 48.3647 220.734 47.2954 220.734V220.72ZM57.6226 222.382C58.5234 222.382 59.2852 222.17 59.9077 221.753C60.5303 221.335 60.9771 220.83 61.248 220.236L59.8125 219.812C59.4243 220.625 58.7065 221.027 57.6665 221.027C56.9268 221.027 56.3335 220.83 55.894 220.442C55.4546 220.053 55.2129 219.541 55.1616 218.903H61.292C61.3286 218.676 61.3433 218.464 61.3433 218.274C61.3433 217.175 60.999 216.267 60.3105 215.542C59.6221 214.817 58.6846 214.458 57.4907 214.458C56.3408 214.458 55.4033 214.839 54.6855 215.593C53.9678 216.347 53.6089 217.292 53.6089 218.427C53.6089 219.607 53.9824 220.566 54.7295 221.298C55.4766 222.031 56.4434 222.397 57.6372 222.397L57.6226 222.382ZM55.1616 217.863C55.2202 217.292 55.4619 216.809 55.8867 216.413C56.3115 216.018 56.8462 215.82 57.498 215.82C58.1719 215.82 58.7139 216.01 59.1167 216.391C59.5195 216.772 59.7466 217.263 59.7979 217.863H55.1616ZM68.0669 214.641L65.6938 220.478L63.3428 214.641H61.6289L64.8296 222.185H66.5801L69.7734 214.641H68.0669ZM74.2046 222.382C75.1055 222.382 75.8672 222.17 76.4897 221.753C77.1123 221.335 77.5591 220.83 77.8301 220.236L76.3945 219.812C76.0063 220.625 75.2886 221.027 74.2485 221.027C73.5088 221.027 72.9155 220.83 72.4761 220.442C72.0366 220.053 71.7949 219.541 71.7437 218.903H77.874C77.9106 218.676 77.9253 218.464 77.9253 218.274C77.9253 217.175 77.5811 216.267 76.8926 215.542C76.2041 214.817 75.2666 214.458 74.0728 214.458C72.9229 214.458 71.9854 214.839 71.2676 215.593C70.5498 216.347 70.1909 217.292 70.1909 218.427C70.1909 219.607 70.5645 220.566 71.3115 221.298C72.0586 222.031 73.0254 222.397 74.2192 222.397L74.2046 222.382ZM71.7437 217.863C71.8022 217.292 72.0439 216.809 72.4688 216.413C72.8936 216.018 73.4282 215.82 74.0801 215.82C74.7539 215.82 75.2959 216.01 75.6987 216.391C76.1016 216.772 76.3286 217.263 76.3799 217.863H71.7437ZM79.522 222.185H81.0967V211.235H79.522V222.185ZM86.7363 222.382C87.8862 222.382 88.8384 222.002 89.6001 221.247C90.3618 220.493 90.7427 219.548 90.7427 218.413C90.7427 217.277 90.3618 216.333 89.6001 215.578C88.8384 214.824 87.8789 214.45 86.729 214.45C85.5791 214.45 84.627 214.831 83.8652 215.586C83.1035 216.34 82.7227 217.285 82.7227 218.413C82.7227 219.548 83.1035 220.493 83.8652 221.247C84.627 222.002 85.5791 222.382 86.729 222.382H86.7363ZM86.729 220.954C86.0112 220.954 85.418 220.713 84.9565 220.229C84.4951 219.746 84.2607 219.145 84.2607 218.427C84.2607 217.695 84.4951 217.087 84.9565 216.604C85.418 216.12 86.0112 215.879 86.729 215.879C87.4468 215.879 88.04 216.12 88.5088 216.604C88.9775 217.087 89.2119 217.695 89.2119 218.427C89.2119 219.145 88.9775 219.746 88.5088 220.229C88.04 220.713 87.4468 220.954 86.729 220.954ZM96.646 214.443C95.4741 214.443 94.5732 214.89 93.9434 215.783V214.641H92.3687V225.334H93.9434V221.042C94.5732 221.936 95.4741 222.382 96.646 222.382C97.7153 222.382 98.6089 222.002 99.3267 221.247C100.044 220.493 100.403 219.548 100.403 218.413C100.403 217.277 100.044 216.333 99.3267 215.578C98.6089 214.824 97.7153 214.45 96.646 214.45V214.443ZM96.3896 220.976C95.6938 220.976 95.1006 220.734 94.6172 220.251C94.1338 219.768 93.8921 219.152 93.8921 218.413C93.8921 217.68 94.1338 217.072 94.6172 216.589C95.1006 216.106 95.6865 215.864 96.3823 215.864C97.1074 215.864 97.7007 216.106 98.1621 216.582C98.6235 217.058 98.8506 217.666 98.8506 218.405C98.8506 219.145 98.6162 219.76 98.1548 220.244C97.6934 220.727 97.1001 220.969 96.3823 220.969L96.3896 220.976ZM106.644 213.41C106.922 213.41 107.156 213.315 107.347 213.132C107.537 212.949 107.632 212.714 107.632 212.436C107.632 212.18 107.537 211.953 107.347 211.762C107.156 211.572 106.922 211.477 106.644 211.477C106.365 211.477 106.131 211.572 105.94 211.762C105.75 211.953 105.655 212.18 105.655 212.436C105.655 212.714 105.75 212.949 105.94 213.132C106.131 213.315 106.365 213.41 106.644 213.41ZM105.845 222.185H107.405V214.641H105.845V222.185ZM113.726 214.443C112.62 214.443 111.756 214.882 111.133 215.761V214.641H109.559V222.185H111.133V218.435C111.133 217.673 111.331 217.065 111.727 216.604C112.122 216.142 112.649 215.915 113.309 215.915C113.917 215.915 114.378 216.106 114.693 216.479C115.008 216.853 115.162 217.373 115.162 218.039V222.177H116.722V217.754C116.722 216.721 116.465 215.908 115.945 215.315C115.425 214.721 114.686 214.428 113.726 214.428V214.443ZM130 211.682L126.719 220.163L123.431 211.682H121.644L125.833 222.185H127.583L131.773 211.682H130ZM136.607 222.382C137.815 222.382 138.804 222.075 139.566 221.46C140.328 220.844 140.708 220.09 140.708 219.189C140.708 218.442 140.474 217.863 140.013 217.446C139.551 217.028 138.863 216.677 137.955 216.391L135.376 215.571C134.908 215.432 134.563 215.263 134.351 215.066C134.139 214.868 134.029 214.619 134.029 214.318C134.029 213.938 134.219 213.608 134.593 213.33C134.966 213.051 135.442 212.912 136.021 212.912C136.688 212.912 137.273 213.059 137.779 213.359C138.284 213.659 138.658 214.055 138.907 214.546L140.423 214.091C140.101 213.344 139.551 212.722 138.775 212.224C137.999 211.726 137.076 211.477 136.006 211.477C134.966 211.477 134.102 211.762 133.414 212.326C132.725 212.89 132.381 213.571 132.381 214.362C132.381 215.586 133.165 216.443 134.739 216.933L137.376 217.776C137.977 217.966 138.401 218.178 138.658 218.42C138.914 218.662 139.039 218.955 139.039 219.306C139.039 219.738 138.812 220.119 138.365 220.449C137.918 220.778 137.347 220.947 136.651 220.947C135.86 220.947 135.179 220.742 134.6 220.332C134.021 219.922 133.611 219.394 133.37 218.757L131.832 219.218C132.132 220.112 132.703 220.866 133.545 221.474C134.388 222.082 135.391 222.39 136.563 222.39L136.607 222.382ZM147.154 222.382C148.406 222.382 149.468 222.068 150.347 221.438C151.226 220.808 151.812 220.039 152.112 219.13L150.538 218.728C150.318 219.35 149.9 219.863 149.292 220.266C148.685 220.669 147.967 220.866 147.139 220.866C146.011 220.866 145.096 220.485 144.393 219.716C143.689 218.947 143.338 218.017 143.338 216.919C143.338 215.827 143.689 214.904 144.393 214.15C145.096 213.396 146.011 213.022 147.139 213.022C147.967 213.022 148.685 213.227 149.292 213.637C149.9 214.047 150.318 214.56 150.545 215.183L152.12 214.787C151.819 213.872 151.226 213.095 150.34 212.458C149.454 211.821 148.377 211.506 147.117 211.506C145.557 211.506 144.261 212.026 143.221 213.059C142.181 214.091 141.661 215.388 141.661 216.941C141.661 218.493 142.181 219.79 143.228 220.837C144.275 221.884 145.579 222.404 147.139 222.404L147.154 222.382ZM157.225 222.382C158.375 222.382 159.327 222.002 160.088 221.247C160.85 220.493 161.231 219.548 161.231 218.413C161.231 217.277 160.85 216.333 160.088 215.578C159.327 214.824 158.367 214.45 157.217 214.45C156.067 214.45 155.115 214.831 154.354 215.586C153.592 216.34 153.211 217.285 153.211 218.413C153.211 219.548 153.592 220.493 154.354 221.247C155.115 222.002 156.067 222.382 157.217 222.382H157.225ZM157.217 220.954C156.5 220.954 155.906 220.713 155.445 220.229C154.983 219.746 154.749 219.145 154.749 218.427C154.749 217.695 154.983 217.087 155.445 216.604C155.906 216.12 156.5 215.879 157.217 215.879C157.935 215.879 158.528 216.12 158.997 216.604C159.466 217.087 159.7 217.695 159.7 218.427C159.7 219.145 159.466 219.746 158.997 220.229C158.528 220.713 157.935 220.954 157.217 220.954ZM168.863 211.235V215.783C168.233 214.89 167.325 214.443 166.146 214.443C165.076 214.443 164.183 214.824 163.465 215.578C162.747 216.333 162.388 217.277 162.388 218.405C162.388 219.541 162.747 220.485 163.465 221.24C164.183 221.994 165.076 222.375 166.146 222.375C167.325 222.368 168.233 221.921 168.863 221.035V222.177H170.423V211.228L168.863 211.235ZM166.402 220.962C165.684 220.962 165.091 220.72 164.629 220.236C164.168 219.753 163.934 219.138 163.934 218.398C163.934 217.658 164.161 217.05 164.622 216.574C165.083 216.098 165.669 215.857 166.387 215.857C167.083 215.857 167.669 216.098 168.152 216.582C168.636 217.065 168.877 217.673 168.877 218.405C168.877 219.145 168.636 219.76 168.152 220.244C167.669 220.727 167.076 220.969 166.38 220.969L166.402 220.962ZM176.07 222.382C176.971 222.382 177.732 222.17 178.355 221.753C178.978 221.335 179.424 220.83 179.695 220.236L178.26 219.812C177.872 220.625 177.154 221.027 176.114 221.027C175.374 221.027 174.781 220.83 174.341 220.442C173.902 220.053 173.66 219.541 173.609 218.903H179.739C179.776 218.676 179.791 218.464 179.791 218.274C179.791 217.175 179.446 216.267 178.758 215.542C178.069 214.817 177.132 214.458 175.938 214.458C174.788 214.458 173.851 214.839 173.133 215.593C172.415 216.347 172.056 217.292 172.056 218.427C172.056 219.607 172.43 220.566 173.177 221.298C173.924 222.031 174.891 222.397 176.084 222.397L176.07 222.382ZM173.609 217.863C173.667 217.292 173.909 216.809 174.334 216.413C174.759 216.018 175.293 215.82 175.945 215.82C176.619 215.82 177.161 216.01 177.564 216.391C177.967 216.772 178.194 217.263 178.245 217.863H173.609Z" fill="#40404B"/>
<path d="M23.3234 118.249C21.9028 104 25.9429 91.3436 32.8259 81.5028C39.7301 71.6815 55.3235 70.111 67.7598 65.3778C80.1587 60.6415 89.3992 52.7414 103.477 57.9777C117.577 63.2335 130.688 76.2095 136.72 90.0376C142.728 103.844 141.665 118.542 140.512 133.714C139.359 148.887 129.339 156.015 120.309 161.018C111.278 166.021 97.2765 165.955 80.8582 163.278C64.4559 160.584 54.4582 163.835 43.0315 156.077C31.6195 148.302 24.7439 132.497 23.3234 118.249Z" fill="white"/>
<path d="M494.787 95.4058C500.093 84.2171 508.73 76.6505 518.215 72.4408C527.707 68.2551 539.948 74.0671 551.264 76.1246C562.553 78.1629 572.917 76.4453 581 86.621C589.089 96.8205 593.003 112.296 591.298 125.236C589.584 138.149 582.239 148.56 574.617 159.282C566.994 170.003 556.397 170.801 547.482 170.466C538.566 170.132 528.233 163.82 517.276 154.493C506.339 145.161 497.49 143.096 492.494 132.239C487.517 121.376 489.481 106.594 494.787 95.4058Z" fill="white"/>
<path d="M508 103.782C508 103.085 508.396 102.449 509.021 102.142C518.428 97.5178 529.447 97.5178 538.854 102.142C539.479 102.449 539.875 103.085 539.875 103.782V106.829C539.875 117.098 535.062 126.772 526.872 132.966L523.938 135.185L521.003 132.966C512.813 126.772 508 117.098 508 106.829V103.782Z" fill="#A6B3FF"/>
<path d="M526.594 131.997L529.614 129.729C537.413 123.869 542 114.698 542 104.961V101.851C542 101.177 541.615 100.561 541.008 100.265M531.139 97.2503C524.735 96.3564 518.126 97.3613 512.18 100.265C511.573 100.561 511.188 101.177 511.188 101.851V104.961C511.188 110.642 512.749 116.131 515.599 120.881" stroke="#1D2028" stroke-linecap="round"/>
<path fill-rule="evenodd" clip-rule="evenodd" d="M534.029 106.975C534.729 107.623 534.742 108.687 534.058 109.35L524.961 118.185L519.084 112.043C518.427 111.356 518.482 110.293 519.206 109.67C519.93 109.047 521.05 109.098 521.707 109.785L525.056 113.285L531.525 107.003C532.208 106.34 533.329 106.327 534.029 106.975Z" fill="white"/>
<path d="M521.812 115.56L524.602 118.185L531.375 111.81" stroke="black" stroke-linecap="round"/>
<path d="M711.601 33.5786C717.552 21.1951 732.912 25.3672 743.5 20.6847C754.096 16.0286 762.019 9.85204 774.629 12.0909C787.21 14.3087 798.77 12.3779 807.751 23.6001C816.738 34.8486 821.054 51.942 819.112 66.2499C817.161 80.5284 808.94 92.0585 800.407 103.933C791.875 115.807 780.058 116.722 770.119 116.38C760.179 116.038 748.679 109.094 736.492 98.8188C724.327 88.5375 714.466 86.2833 708.93 74.2985C703.415 62.3064 705.65 45.9622 711.601 33.5786Z" fill="white"/>
<path d="M276.383 112.793C268.645 102.547 265.808 90.9345 266.453 80.1336C267.122 69.3376 278.264 60.7495 285.524 51.2328C292.753 41.7315 296.1 31.3014 309.268 28.647C322.461 25.9977 338.509 29.7323 349.563 37.4728C360.589 45.2078 366.647 56.9749 372.857 69.1477C379.068 81.3205 374.767 91.5289 370.227 99.6393C365.687 107.75 354.993 114.33 341.238 120.054C327.488 125.757 321.393 132.983 309.066 132.449C296.743 131.895 284.122 123.04 276.383 112.793Z" fill="white"/>
<path d="M272.208 160.382C273.416 160.382 274.405 160.075 275.167 159.46C275.928 158.844 276.309 158.09 276.309 157.189C276.309 156.442 276.075 155.863 275.613 155.446C275.152 155.028 274.463 154.677 273.555 154.391L270.977 153.571C270.508 153.432 270.164 153.263 269.952 153.066C269.739 152.868 269.629 152.619 269.629 152.318C269.629 151.938 269.82 151.608 270.193 151.33C270.567 151.051 271.043 150.912 271.622 150.912C272.288 150.912 272.874 151.059 273.379 151.359C273.885 151.659 274.258 152.055 274.507 152.546L276.023 152.091C275.701 151.344 275.152 150.722 274.375 150.224C273.599 149.726 272.676 149.477 271.607 149.477C270.567 149.477 269.703 149.762 269.014 150.326C268.326 150.89 267.981 151.571 267.981 152.362C267.981 153.586 268.765 154.443 270.34 154.933L272.977 155.776C273.577 155.966 274.002 156.178 274.258 156.42C274.515 156.662 274.639 156.955 274.639 157.306C274.639 157.738 274.412 158.119 273.965 158.449C273.519 158.778 272.947 158.947 272.251 158.947C271.46 158.947 270.779 158.742 270.201 158.332C269.622 157.922 269.212 157.394 268.97 156.757L267.432 157.218C267.732 158.112 268.304 158.866 269.146 159.474C269.988 160.082 270.992 160.39 272.164 160.39L272.208 160.382ZM281.978 158.654C281.648 158.815 281.319 158.896 280.989 158.896C280.264 158.896 279.905 158.507 279.905 157.738V154.032H282.308V152.641H279.905V150.121H278.345V152.641H276.968V154.032H278.345V157.738C278.345 158.537 278.543 159.167 278.931 159.621C279.319 160.075 279.913 160.302 280.704 160.302C281.238 160.302 281.795 160.185 282.366 159.943L281.978 158.654ZM287.046 160.382C287.947 160.382 288.709 160.17 289.332 159.753C289.954 159.335 290.401 158.83 290.672 158.236L289.236 157.812C288.848 158.625 288.13 159.027 287.09 159.027C286.351 159.027 285.757 158.83 285.318 158.442C284.878 158.053 284.637 157.541 284.585 156.903H290.716C290.752 156.676 290.767 156.464 290.767 156.274C290.767 155.175 290.423 154.267 289.734 153.542C289.046 152.817 288.108 152.458 286.915 152.458C285.765 152.458 284.827 152.839 284.109 153.593C283.392 154.347 283.033 155.292 283.033 156.427C283.033 157.607 283.406 158.566 284.153 159.298C284.9 160.031 285.867 160.397 287.061 160.397L287.046 160.382ZM284.585 155.863C284.644 155.292 284.886 154.809 285.311 154.413C285.735 154.018 286.27 153.82 286.922 153.82C287.596 153.82 288.138 154.01 288.541 154.391C288.943 154.772 289.17 155.263 289.222 155.863H284.585ZM296.641 152.443C295.469 152.443 294.568 152.89 293.938 153.783V152.641H292.364V163.334H293.938V159.042C294.568 159.936 295.469 160.382 296.641 160.382C297.71 160.382 298.604 160.002 299.322 159.247C300.04 158.493 300.398 157.548 300.398 156.413C300.398 155.277 300.04 154.333 299.322 153.578C298.604 152.824 297.71 152.45 296.641 152.45V152.443ZM296.385 158.976C295.689 158.976 295.096 158.734 294.612 158.251C294.129 157.768 293.887 157.152 293.887 156.413C293.887 155.68 294.129 155.072 294.612 154.589C295.096 154.106 295.682 153.864 296.377 153.864C297.103 153.864 297.696 154.106 298.157 154.582C298.619 155.058 298.846 155.666 298.846 156.405C298.846 157.145 298.611 157.76 298.15 158.244C297.688 158.727 297.095 158.969 296.377 158.969L296.385 158.976ZM307.811 158.698L310.616 156.061C311.282 155.453 311.773 154.897 312.095 154.399C312.417 153.901 312.579 153.344 312.579 152.721C312.579 151.711 312.242 150.92 311.575 150.348C310.909 149.777 310.037 149.491 308.96 149.491C307.994 149.491 307.181 149.784 306.521 150.363C305.862 150.942 305.474 151.63 305.364 152.428L306.822 152.853C306.946 152.275 307.203 151.813 307.591 151.469C307.979 151.125 308.448 150.949 308.997 150.949C309.605 150.949 310.081 151.117 310.433 151.447C310.784 151.776 310.96 152.231 310.96 152.802C310.96 153.183 310.843 153.542 310.608 153.886C310.374 154.23 310.008 154.633 309.51 155.102L305.372 159.042V160.199H312.754V158.713L307.811 158.698Z" fill="#5567D5"/>
<path d="M274.917 178.692C275.833 178.223 276.287 177.476 276.28 176.443C276.272 175.623 275.958 174.956 275.335 174.443C274.712 173.931 273.914 173.674 272.933 173.674H268.04V184.177H273.248C274.31 184.177 275.152 183.906 275.774 183.364C276.397 182.822 276.705 182.119 276.705 181.248C276.705 180.647 276.543 180.127 276.229 179.688C275.914 179.248 275.474 178.919 274.91 178.699L274.917 178.692ZM272.903 175.103C273.438 175.103 273.87 175.249 274.2 175.535C274.529 175.82 274.69 176.187 274.69 176.633C274.698 177.066 274.544 177.432 274.229 177.732C273.914 178.032 273.504 178.186 272.999 178.186H269.651V175.11L272.903 175.103ZM273.226 182.771H269.651V179.49H273.24C273.812 179.49 274.258 179.651 274.588 179.966C274.917 180.281 275.079 180.662 275.079 181.109C275.079 181.577 274.91 181.973 274.573 182.295C274.236 182.617 273.782 182.778 273.211 182.778L273.226 182.771ZM283.926 176.641V180.391C283.926 181.152 283.729 181.76 283.326 182.222C282.923 182.683 282.396 182.91 281.744 182.91C281.136 182.91 280.674 182.72 280.359 182.346C280.044 181.973 279.883 181.453 279.883 180.786V176.648H278.309V181.072C278.309 182.105 278.572 182.918 279.1 183.511C279.627 184.104 280.367 184.397 281.319 184.397C282.447 184.39 283.318 183.943 283.926 183.057V184.199H285.486V176.655L283.926 176.641ZM288.416 175.41C288.694 175.41 288.929 175.315 289.119 175.132C289.31 174.949 289.405 174.714 289.405 174.436C289.405 174.18 289.31 173.953 289.119 173.762C288.929 173.572 288.694 173.477 288.416 173.477C288.138 173.477 287.903 173.572 287.713 173.762C287.522 173.953 287.427 174.18 287.427 174.436C287.427 174.714 287.522 174.949 287.713 175.132C287.903 175.315 288.138 175.41 288.416 175.41ZM287.618 184.185H289.178V176.641H287.618V184.185ZM291.324 184.185H292.898V173.235H291.324V184.185ZM301.006 173.235V177.783C300.376 176.89 299.468 176.443 298.289 176.443C297.22 176.443 296.326 176.824 295.608 177.578C294.891 178.333 294.532 179.277 294.532 180.405C294.532 181.541 294.891 182.485 295.608 183.24C296.326 183.994 297.22 184.375 298.289 184.375C299.468 184.368 300.376 183.921 301.006 183.035V184.177H302.566V173.228L301.006 173.235ZM298.545 182.962C297.828 182.962 297.234 182.72 296.773 182.236C296.312 181.753 296.077 181.138 296.077 180.398C296.077 179.658 296.304 179.05 296.766 178.574C297.227 178.098 297.813 177.857 298.531 177.857C299.227 177.857 299.812 178.098 300.296 178.582C300.779 179.065 301.021 179.673 301.021 180.405C301.021 181.145 300.779 181.76 300.296 182.244C299.812 182.727 299.219 182.969 298.523 182.969L298.545 182.962ZM311.736 184.382C312.916 184.382 313.824 183.936 314.454 183.042V184.185H316.014V176.641H314.454V177.783C313.824 176.89 312.916 176.443 311.736 176.443C310.667 176.443 309.773 176.824 309.056 177.578C308.338 178.333 307.979 179.277 307.979 180.405C307.979 181.541 308.338 182.485 309.056 183.24C309.773 183.994 310.667 184.375 311.736 184.375V184.382ZM311.993 182.962C311.275 182.962 310.682 182.72 310.22 182.236C309.759 181.753 309.524 181.138 309.524 180.398C309.524 179.658 309.751 179.05 310.213 178.574C310.674 178.098 311.26 177.857 311.978 177.857C312.674 177.857 313.26 178.098 313.743 178.582C314.227 179.065 314.468 179.673 314.468 180.405C314.468 181.145 314.227 181.76 313.743 182.244C313.26 182.727 312.667 182.969 311.971 182.969L311.993 182.962ZM322.276 176.443C321.17 176.443 320.306 176.882 319.683 177.761V176.641H318.108V184.185H319.683V180.435C319.683 179.673 319.881 179.065 320.276 178.604C320.672 178.142 321.199 177.915 321.858 177.915C322.466 177.915 322.928 178.106 323.243 178.479C323.558 178.853 323.711 179.373 323.711 180.039V184.177H325.271V179.754C325.271 178.721 325.015 177.908 324.495 177.315C323.975 176.721 323.235 176.428 322.276 176.428V176.443ZM333.306 173.235V177.783C332.676 176.89 331.768 176.443 330.589 176.443C329.52 176.443 328.626 176.824 327.908 177.578C327.19 178.333 326.832 179.277 326.832 180.405C326.832 181.541 327.19 182.485 327.908 183.24C328.626 183.994 329.52 184.375 330.589 184.375C331.768 184.368 332.676 183.921 333.306 183.035V184.177H334.866V173.228L333.306 173.235ZM330.845 182.962C330.127 182.962 329.534 182.72 329.073 182.236C328.611 181.753 328.377 181.138 328.377 180.398C328.377 179.658 328.604 179.05 329.065 178.574C329.527 178.098 330.113 177.857 330.831 177.857C331.526 177.857 332.112 178.098 332.596 178.582C333.079 179.065 333.321 179.673 333.321 180.405C333.321 181.145 333.079 181.76 332.596 182.244C332.112 182.727 331.519 182.969 330.823 182.969L330.845 182.962ZM345.025 173.682H340.748V184.185H345.025C346.585 184.185 347.823 183.694 348.738 182.713C349.654 181.731 350.115 180.471 350.115 178.933C350.115 177.388 349.654 176.128 348.731 175.154C347.808 174.18 346.57 173.689 345.025 173.689V173.682ZM344.996 182.72H342.374V175.161H344.996C346.065 175.161 346.915 175.513 347.544 176.216C348.174 176.919 348.489 177.82 348.489 178.919C348.489 180.039 348.174 180.955 347.544 181.665C346.915 182.376 346.065 182.734 344.996 182.734V182.72ZM355.323 184.382C356.224 184.382 356.985 184.17 357.608 183.753C358.23 183.335 358.677 182.83 358.948 182.236L357.513 181.812C357.125 182.625 356.407 183.027 355.367 183.027C354.627 183.027 354.034 182.83 353.594 182.442C353.155 182.053 352.913 181.541 352.862 180.903H358.992C359.029 180.676 359.043 180.464 359.043 180.274C359.043 179.175 358.699 178.267 358.011 177.542C357.322 176.817 356.385 176.458 355.191 176.458C354.041 176.458 353.104 176.839 352.386 177.593C351.668 178.347 351.309 179.292 351.309 180.427C351.309 181.607 351.683 182.566 352.43 183.298C353.177 184.031 354.144 184.397 355.337 184.397L355.323 184.382ZM352.862 179.863C352.92 179.292 353.162 178.809 353.587 178.413C354.012 178.018 354.546 177.82 355.198 177.82C355.872 177.82 356.414 178.01 356.817 178.391C357.22 178.772 357.447 179.263 357.498 179.863H352.862ZM364.917 176.443C363.746 176.443 362.845 176.89 362.215 177.783V176.641H360.64V187.334H362.215V183.042C362.845 183.936 363.746 184.382 364.917 184.382C365.987 184.382 366.88 184.002 367.598 183.247C368.316 182.493 368.675 181.548 368.675 180.413C368.675 179.277 368.316 178.333 367.598 177.578C366.88 176.824 365.987 176.45 364.917 176.45V176.443ZM364.661 182.976C363.965 182.976 363.372 182.734 362.889 182.251C362.405 181.768 362.164 181.152 362.164 180.413C362.164 179.68 362.405 179.072 362.889 178.589C363.372 178.106 363.958 177.864 364.654 177.864C365.379 177.864 365.972 178.106 366.434 178.582C366.895 179.058 367.122 179.666 367.122 180.405C367.122 181.145 366.888 181.76 366.426 182.244C365.965 182.727 365.372 182.969 364.654 182.969L364.661 182.976ZM370.293 184.185H371.868V173.235H370.293V184.185ZM377.508 184.382C378.658 184.382 379.61 184.002 380.372 183.247C381.133 182.493 381.514 181.548 381.514 180.413C381.514 179.277 381.133 178.333 380.372 177.578C379.61 176.824 378.65 176.45 377.5 176.45C376.351 176.45 375.398 176.831 374.637 177.586C373.875 178.34 373.494 179.285 373.494 180.413C373.494 181.548 373.875 182.493 374.637 183.247C375.398 184.002 376.351 184.382 377.5 184.382H377.508ZM377.5 182.954C376.783 182.954 376.189 182.713 375.728 182.229C375.267 181.746 375.032 181.145 375.032 180.427C375.032 179.695 375.267 179.087 375.728 178.604C376.189 178.12 376.783 177.879 377.5 177.879C378.218 177.879 378.812 178.12 379.28 178.604C379.749 179.087 379.983 179.695 379.983 180.427C379.983 181.145 379.749 181.746 379.28 182.229C378.812 182.713 378.218 182.954 377.5 182.954ZM388.399 176.641L386.062 182.251L383.543 176.641H381.829L385.279 184.016L383.873 187.334H385.491L390.083 176.641H388.399Z" fill="#40404B"/>
<path d="M499.208 205.382C500.416 205.382 501.405 205.075 502.167 204.46C502.928 203.844 503.309 203.09 503.309 202.189C503.309 201.442 503.075 200.863 502.613 200.446C502.152 200.028 501.463 199.677 500.555 199.391L497.977 198.571C497.508 198.432 497.164 198.263 496.952 198.066C496.739 197.868 496.629 197.619 496.629 197.318C496.629 196.938 496.82 196.608 497.193 196.33C497.567 196.051 498.043 195.912 498.622 195.912C499.288 195.912 499.874 196.059 500.379 196.359C500.885 196.659 501.258 197.055 501.507 197.546L503.023 197.091C502.701 196.344 502.152 195.722 501.375 195.224C500.599 194.726 499.676 194.477 498.607 194.477C497.567 194.477 496.703 194.762 496.014 195.326C495.326 195.89 494.981 196.571 494.981 197.362C494.981 198.586 495.765 199.443 497.34 199.933L499.977 200.776C500.577 200.966 501.002 201.178 501.258 201.42C501.515 201.662 501.639 201.955 501.639 202.306C501.639 202.738 501.412 203.119 500.965 203.449C500.519 203.778 499.947 203.947 499.251 203.947C498.46 203.947 497.779 203.742 497.201 203.332C496.622 202.922 496.212 202.394 495.97 201.757L494.432 202.218C494.732 203.112 495.304 203.866 496.146 204.474C496.988 205.082 497.992 205.39 499.164 205.39L499.208 205.382ZM508.978 203.654C508.648 203.815 508.319 203.896 507.989 203.896C507.264 203.896 506.905 203.507 506.905 202.738V199.032H509.308V197.641H506.905V195.121H505.345V197.641H503.968V199.032H505.345V202.738C505.345 203.537 505.543 204.167 505.931 204.621C506.319 205.075 506.913 205.302 507.704 205.302C508.238 205.302 508.795 205.185 509.366 204.943L508.978 203.654ZM514.046 205.382C514.947 205.382 515.709 205.17 516.332 204.753C516.954 204.335 517.401 203.83 517.672 203.236L516.236 202.812C515.848 203.625 515.13 204.027 514.09 204.027C513.351 204.027 512.757 203.83 512.318 203.442C511.878 203.053 511.637 202.541 511.585 201.903H517.716C517.752 201.676 517.767 201.464 517.767 201.274C517.767 200.175 517.423 199.267 516.734 198.542C516.046 197.817 515.108 197.458 513.915 197.458C512.765 197.458 511.827 197.839 511.109 198.593C510.392 199.347 510.033 200.292 510.033 201.427C510.033 202.607 510.406 203.566 511.153 204.298C511.9 205.031 512.867 205.397 514.061 205.397L514.046 205.382ZM511.585 200.863C511.644 200.292 511.886 199.809 512.311 199.413C512.735 199.018 513.27 198.82 513.922 198.82C514.596 198.82 515.138 199.01 515.541 199.391C515.943 199.772 516.17 200.263 516.222 200.863H511.585ZM523.641 197.443C522.469 197.443 521.568 197.89 520.938 198.783V197.641H519.364V208.334H520.938V204.042C521.568 204.936 522.469 205.382 523.641 205.382C524.71 205.382 525.604 205.002 526.322 204.247C527.04 203.493 527.398 202.548 527.398 201.413C527.398 200.277 527.04 199.333 526.322 198.578C525.604 197.824 524.71 197.45 523.641 197.45V197.443ZM523.385 203.976C522.689 203.976 522.096 203.734 521.612 203.251C521.129 202.768 520.887 202.152 520.887 201.413C520.887 200.68 521.129 200.072 521.612 199.589C522.096 199.106 522.682 198.864 523.377 198.864C524.103 198.864 524.696 199.106 525.157 199.582C525.619 200.058 525.846 200.666 525.846 201.405C525.846 202.145 525.611 202.76 525.15 203.244C524.688 203.727 524.095 203.969 523.377 203.969L523.385 203.976ZM537.03 198.732L539.623 195.824V194.682H532.577V196.139H537.491L534.913 199.259L535.199 200.277C535.55 200.05 535.953 199.933 536.415 199.933C537.037 199.933 537.528 200.124 537.894 200.497C538.26 200.871 538.443 201.347 538.443 201.918C538.443 202.489 538.246 202.973 537.843 203.376C537.44 203.778 536.898 203.976 536.209 203.976C535.572 203.976 535.03 203.778 534.583 203.383C534.137 202.987 533.851 202.504 533.727 201.925L532.276 202.328C532.445 203.178 532.87 203.903 533.551 204.511C534.232 205.119 535.147 205.419 536.297 205.419C537.374 205.419 538.268 205.082 538.978 204.408C539.688 203.734 540.04 202.907 540.04 201.925C540.04 201.025 539.769 200.285 539.227 199.706C538.685 199.128 537.96 198.805 537.059 198.739L537.03 198.732Z" fill="#5567D5"/>
<path d="M503.946 222.682L500.284 227.963L496.607 222.682H495.047V233.185H496.688V225.502L500.27 230.548L503.873 225.502V233.185H505.506V222.682H503.946ZM510.89 233.382C512.069 233.382 512.977 232.936 513.607 232.042V233.185H515.167V225.641H513.607V226.783C512.977 225.89 512.069 225.443 510.89 225.443C509.82 225.443 508.927 225.824 508.209 226.578C507.491 227.333 507.132 228.277 507.132 229.405C507.132 230.541 507.491 231.485 508.209 232.24C508.927 232.994 509.82 233.375 510.89 233.375V233.382ZM511.146 231.962C510.428 231.962 509.835 231.72 509.374 231.236C508.912 230.753 508.678 230.138 508.678 229.398C508.678 228.658 508.905 228.05 509.366 227.574C509.828 227.098 510.414 226.857 511.131 226.857C511.827 226.857 512.413 227.098 512.896 227.582C513.38 228.065 513.622 228.673 513.622 229.405C513.622 230.145 513.38 230.76 512.896 231.244C512.413 231.727 511.82 231.969 511.124 231.969L511.146 231.962ZM521.429 225.443C520.323 225.443 519.459 225.882 518.836 226.761V225.641H517.262V233.185H518.836V229.435C518.836 228.673 519.034 228.065 519.43 227.604C519.825 227.142 520.353 226.915 521.012 226.915C521.62 226.915 522.081 227.106 522.396 227.479C522.711 227.853 522.865 228.373 522.865 229.039V233.177H524.425V228.754C524.425 227.721 524.168 226.908 523.648 226.315C523.128 225.721 522.389 225.428 521.429 225.428V225.443ZM529.742 233.382C530.921 233.382 531.83 232.936 532.459 232.042V233.185H534.02V225.641H532.459V226.783C531.83 225.89 530.921 225.443 529.742 225.443C528.673 225.443 527.779 225.824 527.062 226.578C526.344 227.333 525.985 228.277 525.985 229.405C525.985 230.541 526.344 231.485 527.062 232.24C527.779 232.994 528.673 233.375 529.742 233.375V233.382ZM529.999 231.962C529.281 231.962 528.688 231.72 528.226 231.236C527.765 230.753 527.53 230.138 527.53 229.398C527.53 228.658 527.757 228.05 528.219 227.574C528.68 227.098 529.266 226.857 529.984 226.857C530.68 226.857 531.266 227.098 531.749 227.582C532.232 228.065 532.474 228.673 532.474 229.405C532.474 230.145 532.232 230.76 531.749 231.244C531.266 231.727 530.672 231.969 529.977 231.969L529.999 231.962ZM542.062 225.641V226.703C541.432 225.86 540.545 225.443 539.41 225.443C538.312 225.443 537.411 225.802 536.708 226.52C536.004 227.237 535.653 228.153 535.653 229.274C535.653 230.365 536.004 231.28 536.715 232.013C537.425 232.745 538.326 233.111 539.417 233.111C540.553 233.111 541.439 232.687 542.069 231.837V232.943C542.062 233.609 541.864 234.159 541.476 234.584C541.087 235.008 540.545 235.221 539.85 235.221C538.81 235.228 538.062 234.847 537.601 234.078L536.224 234.584C536.949 235.895 538.15 236.554 539.82 236.554C540.963 236.554 541.886 236.217 542.589 235.543C543.292 234.869 543.644 234.005 543.644 232.943V225.67L542.062 225.641ZM539.659 231.713C538.941 231.713 538.348 231.485 537.887 231.031C537.425 230.577 537.191 229.999 537.191 229.296C537.191 228.592 537.418 228.021 537.879 227.574C538.341 227.128 538.927 226.901 539.645 226.901C540.34 226.901 540.926 227.128 541.395 227.582C541.864 228.036 542.098 228.607 542.098 229.296C542.098 229.984 541.864 230.563 541.395 231.024C540.926 231.485 540.34 231.713 539.645 231.713H539.659ZM549.291 233.382C550.191 233.382 550.953 233.17 551.576 232.753C552.198 232.335 552.645 231.83 552.916 231.236L551.48 230.812C551.092 231.625 550.375 232.027 549.334 232.027C548.595 232.027 548.001 231.83 547.562 231.442C547.123 231.053 546.881 230.541 546.83 229.903H552.96C552.997 229.676 553.011 229.464 553.011 229.274C553.011 228.175 552.667 227.267 551.979 226.542C551.29 225.817 550.353 225.458 549.159 225.458C548.009 225.458 547.071 225.839 546.354 226.593C545.636 227.347 545.277 228.292 545.277 229.427C545.277 230.607 545.65 231.566 546.397 232.298C547.145 233.031 548.111 233.397 549.305 233.397L549.291 233.382ZM546.83 228.863C546.888 228.292 547.13 227.809 547.555 227.413C547.979 227.018 548.514 226.82 549.166 226.82C549.84 226.82 550.382 227.01 550.785 227.391C551.188 227.772 551.415 228.263 551.466 228.863H546.83Z" fill="#40404B"/>
<path d="M719.208 146.382C720.416 146.382 721.405 146.075 722.167 145.46C722.928 144.844 723.309 144.09 723.309 143.189C723.309 142.442 723.075 141.863 722.613 141.446C722.152 141.028 721.463 140.677 720.555 140.391L717.977 139.571C717.508 139.432 717.164 139.263 716.952 139.066C716.739 138.868 716.629 138.619 716.629 138.318C716.629 137.938 716.82 137.608 717.193 137.33C717.567 137.051 718.043 136.912 718.622 136.912C719.288 136.912 719.874 137.059 720.379 137.359C720.885 137.659 721.258 138.055 721.507 138.546L723.023 138.091C722.701 137.344 722.152 136.722 721.375 136.224C720.599 135.726 719.676 135.477 718.607 135.477C717.567 135.477 716.703 135.762 716.014 136.326C715.326 136.89 714.981 137.571 714.981 138.362C714.981 139.586 715.765 140.443 717.34 140.933L719.977 141.776C720.577 141.966 721.002 142.178 721.258 142.42C721.515 142.662 721.639 142.955 721.639 143.306C721.639 143.738 721.412 144.119 720.965 144.449C720.519 144.778 719.947 144.947 719.251 144.947C718.46 144.947 717.779 144.742 717.201 144.332C716.622 143.922 716.212 143.394 715.97 142.757L714.432 143.218C714.732 144.112 715.304 144.866 716.146 145.474C716.988 146.082 717.992 146.39 719.164 146.39L719.208 146.382ZM728.978 144.654C728.648 144.815 728.319 144.896 727.989 144.896C727.264 144.896 726.905 144.507 726.905 143.738V140.032H729.308V138.641H726.905V136.121H725.345V138.641H723.968V140.032H725.345V143.738C725.345 144.537 725.543 145.167 725.931 145.621C726.319 146.075 726.913 146.302 727.704 146.302C728.238 146.302 728.795 146.185 729.366 145.943L728.978 144.654ZM734.046 146.382C734.947 146.382 735.709 146.17 736.332 145.753C736.954 145.335 737.401 144.83 737.672 144.236L736.236 143.812C735.848 144.625 735.13 145.027 734.09 145.027C733.351 145.027 732.757 144.83 732.318 144.442C731.878 144.053 731.637 143.541 731.585 142.903H737.716C737.752 142.676 737.767 142.464 737.767 142.274C737.767 141.175 737.423 140.267 736.734 139.542C736.046 138.817 735.108 138.458 733.915 138.458C732.765 138.458 731.827 138.839 731.109 139.593C730.392 140.347 730.033 141.292 730.033 142.427C730.033 143.607 730.406 144.566 731.153 145.298C731.9 146.031 732.867 146.397 734.061 146.397L734.046 146.382ZM731.585 141.863C731.644 141.292 731.886 140.809 732.311 140.413C732.735 140.018 733.27 139.82 733.922 139.82C734.596 139.82 735.138 140.01 735.541 140.391C735.943 140.772 736.17 141.263 736.222 141.863H731.585ZM743.641 138.443C742.469 138.443 741.568 138.89 740.938 139.783V138.641H739.364V149.334H740.938V145.042C741.568 145.936 742.469 146.382 743.641 146.382C744.71 146.382 745.604 146.002 746.322 145.247C747.04 144.493 747.398 143.548 747.398 142.413C747.398 141.277 747.04 140.333 746.322 139.578C745.604 138.824 744.71 138.45 743.641 138.45V138.443ZM743.385 144.976C742.689 144.976 742.096 144.734 741.612 144.251C741.129 143.768 740.887 143.152 740.887 142.413C740.887 141.68 741.129 141.072 741.612 140.589C742.096 140.106 742.682 139.864 743.377 139.864C744.103 139.864 744.696 140.106 745.157 140.582C745.619 141.058 745.846 141.666 745.846 142.405C745.846 143.145 745.611 143.76 745.15 144.244C744.688 144.727 744.095 144.969 743.377 144.969L743.385 144.976ZM760.465 142.552H759.095V140.157H757.462V142.552H754.122L757.733 135.682H755.975L752.21 142.794V143.995H757.462V146.185H759.095V143.995H760.465V142.552Z" fill="#5567D5"/>
<path d="M719.823 163.682H715.047V174.185H716.673V170.72H719.742C720.855 170.72 721.742 170.369 722.394 169.658C723.045 168.948 723.375 168.135 723.375 167.212C723.375 166.289 723.053 165.469 722.408 164.751C721.764 164.033 720.899 163.674 719.823 163.674V163.682ZM719.713 169.241H716.673V165.147H719.793C720.372 165.147 720.848 165.352 721.229 165.762C721.61 166.172 721.8 166.655 721.8 167.205C721.8 167.754 721.61 168.23 721.229 168.633C720.848 169.036 720.343 169.241 719.713 169.241ZM726.231 167.842V166.641H724.657V174.185H726.231V170.779C726.231 169.71 726.451 168.955 726.898 168.508C727.345 168.062 727.982 167.901 728.81 168.025V166.56C728.209 166.48 727.682 166.56 727.235 166.795C726.788 167.029 726.451 167.38 726.224 167.849L726.231 167.842ZM733.292 174.382C734.442 174.382 735.394 174.002 736.156 173.247C736.917 172.493 737.298 171.548 737.298 170.413C737.298 169.277 736.917 168.333 736.156 167.578C735.394 166.824 734.435 166.45 733.285 166.45C732.135 166.45 731.183 166.831 730.421 167.586C729.659 168.34 729.278 169.285 729.278 170.413C729.278 171.548 729.659 172.493 730.421 173.247C731.183 174.002 732.135 174.382 733.285 174.382H733.292ZM733.285 172.954C732.567 172.954 731.974 172.713 731.512 172.229C731.051 171.746 730.816 171.145 730.816 170.427C730.816 169.695 731.051 169.087 731.512 168.604C731.974 168.12 732.567 167.879 733.285 167.879C734.002 167.879 734.596 168.12 735.064 168.604C735.533 169.087 735.768 169.695 735.768 170.427C735.768 171.145 735.533 171.746 735.064 172.229C734.596 172.713 734.002 172.954 733.285 172.954ZM747.838 166.443C746.644 166.443 745.765 166.875 745.194 167.732C744.747 166.875 743.971 166.443 742.872 166.443C741.861 166.443 741.07 166.86 740.499 167.688V166.641H738.924V174.185H740.499V170.376C740.499 169.614 740.675 169.014 741.019 168.574C741.363 168.135 741.839 167.915 742.44 167.915C742.975 167.915 743.377 168.098 743.656 168.457C743.934 168.816 744.073 169.321 744.073 169.973V174.185H745.633V170.237C745.633 169.526 745.802 168.963 746.139 168.545C746.476 168.128 746.937 167.915 747.516 167.915C748.08 167.915 748.504 168.098 748.79 168.457C749.076 168.816 749.215 169.321 749.215 169.973V174.185H750.79V169.673C750.79 168.662 750.519 167.871 749.984 167.3C749.449 166.729 748.731 166.443 747.831 166.443H747.838ZM756.349 174.382C757.499 174.382 758.451 174.002 759.212 173.247C759.974 172.493 760.355 171.548 760.355 170.413C760.355 169.277 759.974 168.333 759.212 167.578C758.451 166.824 757.491 166.45 756.341 166.45C755.191 166.45 754.239 166.831 753.478 167.586C752.716 168.34 752.335 169.285 752.335 170.413C752.335 171.548 752.716 172.493 753.478 173.247C754.239 174.002 755.191 174.382 756.341 174.382H756.349ZM756.341 172.954C755.624 172.954 755.03 172.713 754.569 172.229C754.107 171.746 753.873 171.145 753.873 170.427C753.873 169.695 754.107 169.087 754.569 168.604C755.03 168.12 755.624 167.879 756.341 167.879C757.059 167.879 757.652 168.12 758.121 168.604C758.59 169.087 758.824 169.695 758.824 170.427C758.824 171.145 758.59 171.746 758.121 172.229C757.652 172.713 757.059 172.954 756.341 172.954ZM765.98 172.654C765.65 172.815 765.321 172.896 764.991 172.896C764.266 172.896 763.907 172.507 763.907 171.738V168.032H766.31V166.641H763.907V164.121H762.347V166.641H760.97V168.032H762.347V171.738C762.347 172.537 762.545 173.167 762.933 173.621C763.321 174.075 763.915 174.302 764.706 174.302C765.24 174.302 765.797 174.185 766.368 173.943L765.98 172.654ZM771.048 174.382C771.949 174.382 772.711 174.17 773.333 173.753C773.956 173.335 774.403 172.83 774.674 172.236L773.238 171.812C772.85 172.625 772.132 173.027 771.092 173.027C770.353 173.027 769.759 172.83 769.32 172.442C768.88 172.053 768.639 171.541 768.587 170.903H774.718C774.754 170.676 774.769 170.464 774.769 170.274C774.769 169.175 774.425 168.267 773.736 167.542C773.048 166.817 772.11 166.458 770.917 166.458C769.767 166.458 768.829 166.839 768.111 167.593C767.394 168.347 767.035 169.292 767.035 170.427C767.035 171.607 767.408 172.566 768.155 173.298C768.902 174.031 769.869 174.397 771.063 174.397L771.048 174.382ZM768.587 169.863C768.646 169.292 768.888 168.809 769.312 168.413C769.737 168.018 770.272 167.82 770.924 167.82C771.598 167.82 772.14 168.01 772.542 168.391C772.945 168.772 773.172 169.263 773.224 169.863H768.587Z" fill="#40404B"/>
<path d="M943.208 179.382C944.416 179.382 945.405 179.075 946.167 178.46C946.928 177.844 947.309 177.09 947.309 176.189C947.309 175.442 947.075 174.863 946.613 174.446C946.152 174.028 945.463 173.677 944.555 173.391L941.977 172.571C941.508 172.432 941.164 172.263 940.952 172.066C940.739 171.868 940.629 171.619 940.629 171.318C940.629 170.938 940.82 170.608 941.193 170.33C941.567 170.051 942.043 169.912 942.622 169.912C943.288 169.912 943.874 170.059 944.379 170.359C944.885 170.659 945.258 171.055 945.507 171.546L947.023 171.091C946.701 170.344 946.152 169.722 945.375 169.224C944.599 168.726 943.676 168.477 942.607 168.477C941.567 168.477 940.703 168.762 940.014 169.326C939.326 169.89 938.981 170.571 938.981 171.362C938.981 172.586 939.765 173.443 941.34 173.933L943.977 174.776C944.577 174.966 945.002 175.178 945.258 175.42C945.515 175.662 945.639 175.955 945.639 176.306C945.639 176.738 945.412 177.119 944.965 177.449C944.519 177.778 943.947 177.947 943.251 177.947C942.46 177.947 941.779 177.742 941.201 177.332C940.622 176.922 940.212 176.394 939.97 175.757L938.432 176.218C938.732 177.112 939.304 177.866 940.146 178.474C940.988 179.082 941.992 179.39 943.164 179.39L943.208 179.382ZM952.978 177.654C952.648 177.815 952.319 177.896 951.989 177.896C951.264 177.896 950.905 177.507 950.905 176.738V173.032H953.308V171.641H950.905V169.121H949.345V171.641H947.968V173.032H949.345V176.738C949.345 177.537 949.543 178.167 949.931 178.621C950.319 179.075 950.913 179.302 951.704 179.302C952.238 179.302 952.795 179.185 953.366 178.943L952.978 177.654ZM958.046 179.382C958.947 179.382 959.709 179.17 960.332 178.753C960.954 178.335 961.401 177.83 961.672 177.236L960.236 176.812C959.848 177.625 959.13 178.027 958.09 178.027C957.351 178.027 956.757 177.83 956.318 177.442C955.878 177.053 955.637 176.541 955.585 175.903H961.716C961.752 175.676 961.767 175.464 961.767 175.274C961.767 174.175 961.423 173.267 960.734 172.542C960.046 171.817 959.108 171.458 957.915 171.458C956.765 171.458 955.827 171.839 955.109 172.593C954.392 173.347 954.033 174.292 954.033 175.427C954.033 176.607 954.406 177.566 955.153 178.298C955.9 179.031 956.867 179.397 958.061 179.397L958.046 179.382ZM955.585 174.863C955.644 174.292 955.886 173.809 956.311 173.413C956.735 173.018 957.27 172.82 957.922 172.82C958.596 172.82 959.138 173.01 959.541 173.391C959.943 173.772 960.17 174.263 960.222 174.863H955.585ZM967.641 171.443C966.469 171.443 965.568 171.89 964.938 172.783V171.641H963.364V182.334H964.938V178.042C965.568 178.936 966.469 179.382 967.641 179.382C968.71 179.382 969.604 179.002 970.322 178.247C971.04 177.493 971.398 176.548 971.398 175.413C971.398 174.277 971.04 173.333 970.322 172.578C969.604 171.824 968.71 171.45 967.641 171.45V171.443ZM967.385 177.976C966.689 177.976 966.096 177.734 965.612 177.251C965.129 176.768 964.887 176.152 964.887 175.413C964.887 174.68 965.129 174.072 965.612 173.589C966.096 173.106 966.682 172.864 967.377 172.864C968.103 172.864 968.696 173.106 969.157 173.582C969.619 174.058 969.846 174.666 969.846 175.405C969.846 176.145 969.611 176.76 969.15 177.244C968.688 177.727 968.095 177.969 967.377 177.969L967.385 177.976ZM980.444 172.417C979.675 172.417 979.001 172.578 978.422 172.901L978.635 170.139H983.483V168.682H977.214L976.745 174.102L978.005 174.475C978.642 173.984 979.36 173.743 980.158 173.743C980.869 173.743 981.418 173.941 981.813 174.329C982.209 174.717 982.407 175.222 982.407 175.845C982.407 176.445 982.202 176.943 981.799 177.346C981.396 177.749 980.854 177.947 980.173 177.947C979.58 177.947 979.082 177.778 978.671 177.442C978.261 177.105 977.968 176.672 977.8 176.138L976.328 176.548C976.547 177.346 976.987 178.02 977.653 178.569C978.32 179.119 979.184 179.39 980.246 179.39C981.33 179.39 982.224 179.053 982.927 178.379C983.63 177.705 983.981 176.87 983.981 175.874C983.981 174.878 983.652 174.058 982.985 173.413C982.319 172.769 981.469 172.446 980.437 172.446L980.444 172.417Z" fill="#5567D5"/>
<path d="M944.057 207.382C945.617 207.382 946.914 206.862 947.954 205.815C948.994 204.768 949.514 203.471 949.514 201.919C949.514 200.366 948.994 199.077 947.954 198.044C946.914 197.011 945.61 196.491 944.05 196.491C942.482 196.491 941.179 197.011 940.139 198.044C939.099 199.077 938.579 200.373 938.579 201.926C938.579 203.479 939.099 204.775 940.146 205.822C941.193 206.87 942.497 207.39 944.057 207.39V207.382ZM944.057 205.888C942.929 205.888 942.006 205.507 941.289 204.738C940.571 203.969 940.212 203.025 940.212 201.904C940.212 200.805 940.571 199.882 941.289 199.128C942.006 198.374 942.929 198 944.057 198C945.178 198 946.093 198.381 946.811 199.135C947.529 199.89 947.888 200.82 947.888 201.919C947.888 203.039 947.529 203.984 946.818 204.753C946.108 205.522 945.185 205.903 944.057 205.903V205.888ZM955.424 199.443C954.252 199.443 953.352 199.89 952.722 200.783V196.235H951.147V207.185H952.722V206.042C953.352 206.936 954.252 207.382 955.424 207.382C956.494 207.382 957.387 207.002 958.105 206.247C958.823 205.493 959.182 204.548 959.182 203.413C959.182 202.277 958.823 201.333 958.105 200.578C957.387 199.824 956.494 199.45 955.424 199.45V199.443ZM955.168 205.976C954.472 205.976 953.879 205.734 953.396 205.251C952.912 204.768 952.67 204.152 952.67 203.413C952.67 202.68 952.912 202.072 953.396 201.589C953.879 201.106 954.465 200.864 955.161 200.864C955.886 200.864 956.479 201.106 956.94 201.582C957.402 202.058 957.629 202.666 957.629 203.405C957.629 204.145 957.395 204.76 956.933 205.244C956.472 205.727 955.878 205.969 955.161 205.969L955.168 205.976ZM963.671 207.382C964.587 207.382 965.341 207.155 965.935 206.701C966.528 206.247 966.828 205.683 966.828 205.002C966.828 204.423 966.652 203.984 966.301 203.676C965.949 203.369 965.466 203.127 964.843 202.944L962.836 202.365C962.294 202.197 962.023 201.948 962.023 201.618C962.023 201.377 962.148 201.164 962.397 200.981C962.646 200.798 962.961 200.703 963.342 200.703C963.789 200.703 964.177 200.805 964.506 201.01C964.836 201.215 965.078 201.464 965.231 201.765L966.623 201.355C966.396 200.791 965.993 200.329 965.415 199.978C964.836 199.626 964.147 199.45 963.356 199.45C962.558 199.45 961.877 199.663 961.313 200.095C960.749 200.527 960.471 201.04 960.471 201.64C960.471 202.57 961.071 203.215 962.272 203.574L964.301 204.174C964.646 204.277 964.895 204.394 965.048 204.526C965.202 204.658 965.275 204.841 965.275 205.068C965.275 205.354 965.129 205.595 964.836 205.793C964.543 205.991 964.162 206.093 963.693 206.093C963.173 206.093 962.712 205.962 962.316 205.691C961.921 205.42 961.65 205.083 961.511 204.672L960.083 205.09C960.28 205.727 960.705 206.269 961.364 206.716C962.023 207.163 962.778 207.39 963.635 207.39L963.671 207.382ZM971.962 207.382C972.863 207.382 973.625 207.17 974.248 206.753C974.87 206.335 975.317 205.83 975.588 205.236L974.152 204.812C973.764 205.625 973.046 206.027 972.006 206.027C971.267 206.027 970.673 205.83 970.234 205.442C969.794 205.053 969.553 204.541 969.501 203.903H975.632C975.668 203.676 975.683 203.464 975.683 203.274C975.683 202.175 975.339 201.267 974.65 200.542C973.962 199.817 973.024 199.458 971.831 199.458C970.681 199.458 969.743 199.839 969.025 200.593C968.308 201.347 967.949 202.292 967.949 203.427C967.949 204.607 968.322 205.566 969.069 206.298C969.816 207.031 970.783 207.397 971.977 207.397L971.962 207.382ZM969.501 202.863C969.56 202.292 969.802 201.809 970.227 201.413C970.651 201.018 971.186 200.82 971.838 200.82C972.512 200.82 973.054 201.01 973.457 201.391C973.859 201.772 974.086 202.263 974.138 202.863H969.501ZM978.854 200.842V199.641H977.28V207.185H978.854V203.779C978.854 202.71 979.074 201.955 979.521 201.508C979.968 201.062 980.605 200.901 981.433 201.025V199.56C980.832 199.48 980.305 199.56 979.858 199.795C979.411 200.029 979.074 200.38 978.847 200.849L978.854 200.842ZM988.486 199.641L986.113 205.478L983.762 199.641H982.048L985.249 207.185H986.999L990.192 199.641H988.486ZM994.624 207.382C995.524 207.382 996.286 207.17 996.909 206.753C997.531 206.335 997.978 205.83 998.249 205.236L996.813 204.812C996.425 205.625 995.708 206.027 994.667 206.027C993.928 206.027 993.334 205.83 992.895 205.442C992.456 205.053 992.214 204.541 992.163 203.903H998.293C998.33 203.676 998.344 203.464 998.344 203.274C998.344 202.175 998 201.267 997.312 200.542C996.623 199.817 995.686 199.458 994.492 199.458C993.342 199.458 992.404 199.839 991.687 200.593C990.969 201.347 990.61 202.292 990.61 203.427C990.61 204.607 990.983 205.566 991.73 206.298C992.478 207.031 993.444 207.397 994.638 207.397L994.624 207.382ZM992.163 202.863C992.221 202.292 992.463 201.809 992.888 201.413C993.312 201.018 993.847 200.82 994.499 200.82C995.173 200.82 995.715 201.01 996.118 201.391C996.521 201.772 996.748 202.263 996.799 202.863H992.163Z" fill="#40404B"/>
<path d="M49.6406 109.102C48.5235 107.7 48.8015 105.711 50.2615 104.66C51.7214 103.609 53.8106 103.894 54.9277 105.296L66.4682 119.993M61.1837 129.183L53.6113 135.468C52.2317 136.613 50.1283 136.465 48.9133 135.139C47.6983 133.812 47.8317 131.809 49.2113 130.664L59.6932 121.964L54.6669 115.533" stroke="#1D2028" stroke-linecap="round"/>
<path fill-rule="evenodd" clip-rule="evenodd" d="M50.1102 131.69C48.9252 130.396 49.0553 128.442 50.4008 127.326L60.6237 118.841L52.3457 108.45C51.2562 107.082 51.5273 105.143 52.9512 104.118C54.3751 103.093 56.4126 103.371 57.5021 104.738L68.8517 118.985C69.191 119.411 69.1272 120.03 68.7083 120.378L54.6921 132.011C53.3466 133.127 51.2952 132.984 50.1102 131.69Z" fill="#A6B3FF"/>
<rect x="67.9682" y="129.535" width="14.6758" height="5.06087" rx="2.53044" transform="rotate(-0.205994 67.9682 129.535)" fill="#CCD1F2"/>
<path d="M79.9682 132.493V132.493C80.1889 134.091 78.9506 135.518 77.3374 135.523L68.5692 135.555C67.1717 135.56 66.0347 134.431 66.0297 133.034V133.034C66.0246 131.636 67.1535 130.499 68.551 130.494L73.1937 130.477" stroke="#1D2028" stroke-linecap="round"/>
<path d="M331.417 39.0936C329.347 41.8341 324.258 49.6435 321.578 59.2694" stroke="#1D2028"/>
<path d="M349.296 44.4491L343.082 58.5135L347.387 65.7428C348.299 62.4662 348.847 59.2274 349.158 56.2693" stroke="#1D2028"/>
<path d="M348.606 19.2709C344.754 21.8881 336.026 29.7135 332.779 39.7647C329.513 49.8739 330.459 55.4742 331.383 56.8794L343.919 60.3699C345.437 59.6447 349.14 55.3387 351.569 44.9964C353.983 34.7133 350.551 23.5021 348.606 19.2709Z" fill="#A6B3FF"/>
<path d="M322.076 61.7351C322.076 61.7351 326.666 49.1107 328.908 45.4857L330.874 58.1749L322.076 61.7351Z" fill="#CCD1F2"/>
<path d="M333.984 70.6334L331.913 63.3187L338.063 49.5862L339.007 66.0507L333.984 70.6334Z" fill="#CCD1F2"/>
<path d="M338.65 58.39L342.233 59.0371C343.701 58.3512 347.273 54.2553 349.582 44.3893C351.878 34.5799 348.501 23.8586 346.597 19.8094C342.874 22.2919 334.447 29.7267 331.343 39.3112C330.535 43.3514 329.332 52.3002 330.985 55.7734" stroke="#1D2028"/>
<path d="M333.347 70.1478L331.133 63.2368L338.681 47.2763L339.003 60.5786" stroke="#1D2028"/>
<circle cx="342.615" cy="34.0265" r="4.14102" transform="rotate(15.559 342.615 34.0265)" fill="white" stroke="#1D2028"/>
<path d="M342.502 69.6038C348.853 77.4883 357.569 101.262 346 111.817C334.431 122.372 327.848 115.817 325 111.817C322.152 107.817 324 97.6847 332 96.1847C340 94.6847 344 99.1847 342.502 104.185" stroke="black" stroke-linecap="round" stroke-dasharray="1 5"/>
<path d="M280.925 78.2694C278.832 76.4259 280.784 73.0122 283.359 74.0142C285.13 74.7036 286.943 73.1763 286.625 71.2638C286.161 68.4841 289.809 67.1812 291.172 69.6398C292.11 71.3314 294.468 71.3686 295.42 69.7068C296.803 67.2915 300.44 68.7091 299.953 71.4739C299.618 73.3761 301.419 74.9604 303.195 74.3269C305.778 73.4062 307.701 76.881 305.593 78.6583C304.143 79.8811 304.542 82.2711 306.313 82.9624C308.886 83.9671 308.196 87.8731 305.453 87.8313C303.566 87.8026 302.377 89.88 303.313 91.5725C304.673 94.0325 301.693 96.5421 299.598 94.7008C298.157 93.4339 295.937 94.2268 295.6 96.1286C295.111 98.8929 291.235 98.8317 290.769 96.0524C290.448 94.1403 288.235 93.2775 286.783 94.4988C284.673 96.2738 281.715 93.6706 283.095 91.2538C284.045 89.591 282.875 87.4764 280.987 87.4456C278.244 87.4009 277.588 83.4737 280.169 82.5502C281.945 81.9149 282.365 79.5378 280.925 78.2694Z" fill="#CCD1F2"/>
<path d="M294.528 105.796C293.323 104.735 294.447 102.769 295.929 103.346C296.949 103.743 297.993 102.864 297.81 101.762C297.543 100.162 299.643 99.4119 300.428 100.827C300.968 101.801 302.326 101.823 302.874 100.866C303.67 99.4754 305.764 100.292 305.484 101.883C305.291 102.979 306.328 103.891 307.351 103.526C308.837 102.996 309.945 104.997 308.731 106.02C307.896 106.724 308.126 108.1 309.145 108.498C310.627 109.076 310.23 111.325 308.65 111.301C307.564 111.285 306.879 112.481 307.418 113.455C308.201 114.872 306.486 116.317 305.279 115.256C304.45 114.527 303.171 114.984 302.978 116.079C302.696 117.67 300.464 117.635 300.196 116.035C300.011 114.934 298.737 114.437 297.901 115.14C296.686 116.162 294.983 114.663 295.778 113.272C296.325 112.314 295.651 111.097 294.564 111.079C292.985 111.054 292.607 108.792 294.093 108.261C295.115 107.895 295.357 106.526 294.528 105.796Z" fill="#A6B3FF"/>
<ellipse cx="5.87043" cy="5.78069" rx="5.87043" ry="5.78069" transform="matrix(0.496504 -0.868034 0.853825 0.52056 285.07 84.8)" fill="white"/>
<ellipse cx="2.70943" cy="2.66801" rx="2.70943" ry="2.66801" transform="matrix(0.496504 -0.868034 0.853825 0.52056 297.967 109.941)" fill="white"/>
<path d="M298.616 86.1856C300.473 82.9384 299.429 78.7514 296.284 76.8338C293.138 74.9162 289.083 75.9941 287.226 79.2413C285.368 82.4886 286.412 86.6756 289.557 88.5932" stroke="#1D2028" stroke-width="1.00299" stroke-linecap="round" stroke-linejoin="round"/>
<path d="M304.092 109.975C304.959 108.46 304.472 106.506 303.004 105.611C301.536 104.716 299.644 105.219 298.777 106.734C297.91 108.25 298.397 110.204 299.865 111.099" stroke="#1D2028" stroke-width="1.00299" stroke-linecap="round" stroke-linejoin="round"/>
<path fill-rule="evenodd" clip-rule="evenodd" d="M736.731 90.9568L736.29 91.3635L732.627 96.8491C732.218 97.461 732 98.18 732 98.9154C732 100.973 733.67 102.64 735.731 102.64H751.636C752.372 102.64 753.092 102.423 753.705 102.015C755.42 100.874 755.883 98.5609 754.74 96.8491L750.806 90.9568H736.731Z" fill="white"/>
<path d="M748.282 64.5062C748.922 64.5062 749.441 63.9764 749.441 63.3229C749.441 62.6693 748.922 62.1395 748.282 62.1395C747.641 62.1395 747.123 62.6693 747.123 63.3229C747.123 63.9764 747.641 64.5062 748.282 64.5062Z" fill="#A6B3FF"/>
<path d="M742.164 67.8722C742.164 69.1793 741.126 70.2389 739.846 70.2389C738.565 70.2389 737.528 69.1793 737.528 67.8722C737.528 66.5651 738.565 65.5055 739.846 65.5055C741.126 65.5055 742.164 66.5651 742.164 67.8722Z" fill="#CCD1F2"/>
<path d="M729.543 96.9245C729.069 97.6836 728.817 98.5755 728.817 99.4878C728.817 102.04 730.754 104.109 733.144 104.109H751.59C752.444 104.109 753.279 103.839 753.99 103.333C755.979 101.917 756.516 99.048 755.19 96.9245L750.942 90.1191L741.915 90.1722L733.791 90.1191L729.543 96.9245Z" fill="#A6B3FF"/>
<path d="M747.991 82.9402L748.001 77.5779H749.034L749.222 77.5607C749.708 77.4706 750.077 76.0079 750.077 75.4851C750.077 74.8969 749.61 74.42 749.034 74.42H738.603L738.415 74.4372C737.929 74.5274 737.56 74.9622 737.56 75.4851C737.56 76.0732 738.027 77.5779 738.603 77.5779H739.665M731.453 95.4873L739.646 82.9402L739.656 80.259M730.752 97.8504C730.752 100.203 732.62 102.11 734.925 102.11H752.712C753.536 102.11 754.341 101.861 755.027 101.395C756.944 100.09 757.462 97.4449 756.184 95.4873L752.088 89.2137M736.076 89.2626H747.69" stroke="#1D2028" stroke-linecap="round"/>
<path d="M746.975 63.2045C746.975 63.5264 746.722 63.7696 746.432 63.7696C746.142 63.7696 745.889 63.5264 745.889 63.2045C745.889 62.8827 746.142 62.6395 746.432 62.6395C746.722 62.6395 746.975 62.8827 746.975 63.2045ZM742.168 66.3996C742.168 67.3097 741.448 68.0296 740.582 68.0296C739.715 68.0296 738.995 67.3097 738.995 66.3996C738.995 65.4895 739.715 64.7696 740.582 64.7696C741.448 64.7696 742.168 65.4895 742.168 66.3996Z" stroke="#1D2028"/>
<path d="M762 62.0435V44.8561C762 44.1001 762.807 43.6175 763.473 43.9749L779.473 52.5594C779.797 52.7336 780 53.0722 780 53.4406V70.523C780 71.2767 779.198 71.7595 778.532 71.4066L762.532 62.927C762.205 62.7537 762 62.4137 762 62.0435Z" fill="#A6B3FF"/>
<path d="M795 60.7203V45.8721C795 45.1124 794.186 44.6301 793.52 44.9949L780.52 52.1107C780.199 52.2861 780 52.6224 780 52.9879V68.4291C780 69.2041 780.843 69.6845 781.51 69.2893L794.51 61.5805C794.814 61.4004 795 61.0735 795 60.7203Z" fill="#CCD1F2"/>
<path d="M779 74.1847L795.519 64.4829C796.437 63.9442 797 62.9599 797 61.896V44.1876C797 43.1238 796.437 42.1395 795.519 41.6008L788 37.1847L784 34.6847M770 68.899L762.481 64.4829C761.563 63.9442 761 62.9599 761 61.896V44.1876C761 43.1238 761.563 42.1395 762.481 41.6008L765.5 39.8275" stroke="#1D2028" stroke-linecap="round"/>
<path d="M771.593 41.1847V34.1847M771.593 34.1847L769 37.0597M771.593 34.1847L774 37.0597" stroke="#1D2028" stroke-linecap="round"/>
<path d="M780.093 45.1847V27.1847M780.093 27.1847L777.5 30.0597M780.093 27.1847L782.5 30.0597" stroke="#1D2028" stroke-linecap="round"/>
<path d="M780 52.518L763 43.1847M780 52.518V71.1847M780 52.518L788.5 47.8514" stroke="#1D2028" stroke-linecap="round"/>
<path d="M560.663 129.685V154.185" stroke="black" stroke-linecap="round"/>
<path d="M571.663 124.185V148.685" stroke="black" stroke-linecap="round"/>
<path d="M585.663 126.685V156.685" stroke="black" stroke-linecap="round"/>
<circle cx="561.163" cy="137.685" r="3.5" fill="#A6B3FF"/>
<circle cx="572.163" cy="142.685" r="3.5" fill="#CCD1F2"/>
<circle cx="586.163" cy="137.685" r="3.5" fill="#CCD1F2"/>
<path d="M564.604 136.964C565.002 139.417 563.336 141.729 560.883 142.127C558.43 142.525 556.119 140.859 555.721 138.405C555.323 135.952 556.989 133.641 559.442 133.243" stroke="#1D2028" stroke-linecap="round"/>
<path d="M574.282 146.117C572.2 147.474 569.412 146.886 568.055 144.804C566.698 142.722 567.286 139.934 569.368 138.577C571.45 137.22 574.238 137.808 575.595 139.89" stroke="#1D2028" stroke-linecap="round"/>
<path d="M589.309 135.486C590.925 137.375 590.703 140.215 588.815 141.831C586.927 143.447 584.086 143.226 582.47 141.337C581.73 140.472 581.376 139.408 581.39 138.353" stroke="#1D2028" stroke-linecap="round"/>
<path d="M183 117.685C194.333 113.685 219.7 103.985 230.5 97.1847" stroke="#E0E2E9" stroke-width="16" stroke-linecap="round"/>
<path d="M412.5 97.6847C423.667 100.518 449.2 108.485 462 117.685" stroke="#E0E2E9" stroke-width="16" stroke-linecap="round"/>
<path d="M649.5 117.185C658.167 111.185 676.5 97.0847 680.5 88.6847" stroke="#E0E2E9" stroke-width="16" stroke-linecap="round"/>
<path d="M848 81.6847C856.5 84.018 876.3 90.4847 887.5 97.6847" stroke="#E0E2E9" stroke-width="16" stroke-linecap="round"/>
<path d="M183 117.685C194.333 113.685 219.7 103.985 230.5 97.1847" stroke="white" stroke-width="2" stroke-linecap="round" stroke-dasharray="2 8"/>
<path d="M412.5 97.6847C423.667 100.518 449.2 108.485 462 117.685" stroke="white" stroke-width="2" stroke-linecap="round" stroke-dasharray="2 8"/>
<path d="M649.5 117.185C658.167 111.185 676.5 97.0847 680.5 88.6847" stroke="white" stroke-width="2" stroke-linecap="round" stroke-dasharray="2 8"/>
<path d="M848 81.6847C856.5 84.018 876.3 90.4847 887.5 97.6847" stroke="white" stroke-width="2" stroke-linecap="round" stroke-dasharray="2 8"/>
<path d="M244.734 112.5C244.738 112.224 244.518 111.996 244.242 111.992L239.742 111.918C239.466 111.914 239.239 112.134 239.234 112.41C239.23 112.686 239.45 112.914 239.726 112.918L243.725 112.983L243.66 116.983C243.656 117.259 243.876 117.487 244.152 117.491C244.428 117.496 244.655 117.275 244.66 116.999L244.734 112.5ZM235.735 118.697C235.501 118.844 235.43 119.152 235.576 119.386C235.722 119.62 236.031 119.692 236.265 119.545L235.735 118.697ZM236.265 119.545C240.308 117.018 241.337 115.991 244.581 112.851L243.886 112.132C240.663 115.252 239.692 116.224 235.735 118.697L236.265 119.545Z" fill="#5567D5"/>
<path d="M471.457 100.091C468.479 97.4482 464.442 95.0348 460.675 93.1847M460.675 93.1847V93.1847C459.642 92.6775 459.6 92.7759 460.675 93.1847V93.1847Z" stroke="#5567D5"/>
<path d="M892.683 123.589C892.7 123.864 892.49 124.101 892.214 124.118L887.722 124.385C887.446 124.402 887.21 124.192 887.193 123.916C887.177 123.64 887.387 123.404 887.663 123.387L891.655 123.149L891.417 119.156C891.401 118.881 891.611 118.644 891.887 118.627C892.162 118.611 892.399 118.821 892.416 119.097L892.683 123.589ZM878.797 116.047C878.545 115.935 878.431 115.639 878.543 115.387C878.655 115.135 878.95 115.021 879.203 115.132L878.797 116.047ZM879.203 115.132C883.591 117.077 888.837 119.979 892.516 123.244L891.852 123.992C888.282 120.824 883.141 117.972 878.797 116.047L879.203 115.132Z" fill="#5567D5"/>
<path d="M669.122 69.0221C666.898 72.1837 663.653 75.364 660.5 77.9865M660.5 77.9865V77.9865C659.568 78.7616 660.5 77.9865 660.5 77.9865V77.9865Z" stroke="#5567D5"/>
<path fill-rule="evenodd" clip-rule="evenodd" d="M774.447 85.5862C774.324 85.3392 774.023 85.2391 773.776 85.3626C773.529 85.4861 773.429 85.7864 773.553 86.0334C773.682 86.2911 773.747 86.5775 773.769 86.8846C773.16 86.9065 772.553 87.0151 771.967 87.2104C771.705 87.2977 771.563 87.5808 771.651 87.8428C771.738 88.1048 772.021 88.2464 772.283 88.159C772.752 88.003 773.236 87.9125 773.723 87.8875C773.694 88.103 773.659 88.3129 773.624 88.5211L773.624 88.5211L773.624 88.5212C773.614 88.5795 773.604 88.6376 773.595 88.6957C773.547 88.9865 773.5 89.292 773.5 89.5596C773.5 89.8357 773.724 90.0596 774 90.0596C774.276 90.0596 774.5 89.8357 774.5 89.5596C774.5 89.3861 774.532 89.1585 774.581 88.8588C774.59 88.8066 774.599 88.7525 774.608 88.6968L774.608 88.6968C774.648 88.462 774.692 88.1989 774.725 87.9291C775.06 87.9743 775.392 88.0509 775.717 88.159C775.979 88.2464 776.262 88.1048 776.349 87.8428C776.437 87.5808 776.295 87.2977 776.033 87.2104C775.621 87.0731 775.199 86.9787 774.773 86.9271C774.753 86.4816 774.665 86.0209 774.447 85.5862Z" fill="#1D2028"/>
<path fill-rule="evenodd" clip-rule="evenodd" d="M85.9805 121.12C85.7103 121.177 85.5376 121.442 85.5947 121.712C85.6518 121.983 85.9171 122.155 86.1873 122.098C86.4691 122.039 86.7627 122.048 87.0654 122.104C86.9327 122.699 86.8845 123.314 86.9254 123.93C86.9437 124.205 87.1819 124.414 87.4575 124.396C87.733 124.377 87.9415 124.139 87.9232 123.864C87.8905 123.371 87.9252 122.88 88.0241 122.402C88.2255 122.484 88.4196 122.571 88.6122 122.658L88.6122 122.658L88.6123 122.658C88.6662 122.682 88.7199 122.706 88.7737 122.73C89.043 122.85 89.3268 122.972 89.5857 123.04C89.8529 123.11 90.1261 122.95 90.1958 122.683C90.2656 122.415 90.1055 122.142 89.8384 122.073C89.6704 122.029 89.4582 121.941 89.1808 121.817C89.1325 121.795 89.0824 121.773 89.0309 121.75L89.0309 121.75C88.8137 121.652 88.5704 121.543 88.3176 121.443C88.446 121.13 88.6041 120.828 88.7906 120.541C88.9413 120.31 88.8758 120 88.6444 119.85C88.413 119.699 88.1033 119.764 87.9526 119.996C87.7158 120.359 87.5178 120.744 87.3602 121.143C86.9241 121.05 86.456 121.019 85.9805 121.12Z" fill="#1D2028"/>
<path fill-rule="evenodd" clip-rule="evenodd" d="M538.98 140.12C538.71 140.177 538.538 140.442 538.595 140.712C538.652 140.983 538.917 141.155 539.187 141.098C539.469 141.039 539.763 141.048 540.065 141.104C539.933 141.699 539.884 142.314 539.925 142.93C539.944 143.205 540.182 143.414 540.457 143.396C540.733 143.377 540.942 143.139 540.923 142.864C540.89 142.371 540.925 141.88 541.024 141.402C541.225 141.484 541.42 141.571 541.612 141.658L541.612 141.658L541.612 141.658C541.666 141.682 541.72 141.706 541.774 141.73C542.043 141.85 542.327 141.972 542.586 142.04C542.853 142.11 543.126 141.95 543.196 141.683C543.266 141.415 543.106 141.142 542.838 141.073C542.67 141.029 542.458 140.941 542.181 140.817C542.132 140.795 542.082 140.773 542.031 140.75L542.031 140.75C541.814 140.652 541.57 140.543 541.318 140.443C541.446 140.13 541.604 139.828 541.791 139.541C541.941 139.31 541.876 139 541.644 138.85C541.413 138.699 541.103 138.764 540.953 138.996C540.716 139.359 540.518 139.744 540.36 140.143C539.924 140.05 539.456 140.019 538.98 140.12Z" fill="#1D2028"/>
<path d="M555 110.685C556 108.518 558 102.085 558 93.6847" stroke="black" stroke-linecap="round"/>
<path d="M561.905 111.459C564.097 108.712 567 103.685 567 98.6847" stroke="black" stroke-linecap="round"/>
<path d="M735 44.1847C732.562 42.8514 726.55 40.1847 722 40.1847" stroke="#1D2028" stroke-linecap="round"/>
<path d="M738 40.6847V40.6847C737.007 39.0298 735.743 37.5537 734.26 36.3183L733.5 35.6847" stroke="#1D2028" stroke-linecap="round"/>
<path d="M741 39.6847V36.6847" stroke="#1D2028" stroke-linecap="round"/>
<path d="M108.589 116.185L87 97.0938L89.2143 93.2756L108.589 106.367V94.3665L100.839 99.8211L96.9643 97.0938L110.25 86.1847L118 90.5483V112.912L108.589 116.185Z" fill="#CCD1F2"/>
<path d="M118 112.912L108.589 116.185V87.6847L110.25 86.1847L118 90.5483V112.912Z" fill="#A6B3FF"/>
<path d="M89 105.185L92.5 102.185L94.5 104.185L91 107.185L89 105.185Z" fill="#CCD1F2"/>
<path d="M117 114.912L107.589 118.185L94.5 106.61M97.5 97.6847L109.25 88.1847L117 92.5483V103.73M107.589 108.367L88.2143 95.2756L86 99.0938L89.7514 102.411L87 105.185L89 107.185" stroke="#1D2028" stroke-linecap="round"/>
<path d="M58 93.6847C58 93.6847 59.9999 87.1848 67.4999 84.6848C75 82.1847 82.4999 85.3514 83.4999 86.1848" stroke="black" stroke-linecap="round" stroke-dasharray="1 7"/>
<path d="M966.382 46.0118C976.053 37.1032 977.435 38.7371 988.096 38.6035C998.754 38.4968 1017.69 44.0807 1027.44 51.0012C1037.17 57.8913 1044.79 58.6324 1048.1 72.282C1051.41 85.9583 1049.61 94.15 1042.58 106.357C1035.56 118.534 1035.38 121.732 1023.73 129.178C1012.08 136.624 1003.61 134.649 991.006 133.867C978.405 133.085 961.458 135.458 955.096 121.423C948.756 107.39 941.323 101.522 941.194 88.5179C941.085 75.5154 956.711 54.9205 966.382 46.0118Z" fill="white"/>
<path d="M990.725 65.0703V90.0703" stroke="#F0F1FB" stroke-width="8" stroke-linecap="round"/>
<path d="M1002.72 65.0703V90.0703" stroke="#F0F1FB" stroke-width="8" stroke-linecap="round"/>
<path d="M1014.72 65.0703V90.0703" stroke="#F0F1FB" stroke-width="8" stroke-linecap="round"/>
<path d="M971.725 102.07C971.725 99.3758 970.999 96.731 969.624 94.4139C968.248 92.0968 966.274 90.193 963.909 88.9025C961.544 87.612 958.874 86.9825 956.181 87.0802C953.489 87.1778 950.872 87.999 948.606 89.4574C946.341 90.9158 944.509 92.9576 943.306 95.3682C942.102 97.7788 941.569 100.469 941.764 103.157C941.96 105.844 942.875 108.429 944.414 110.641C945.954 112.852 948.061 114.608 950.513 115.724L956.725 102.07H971.725Z" fill="#CCD1F2"/>
<path d="M972.725 100.57C972.725 97.6063 971.927 94.6971 970.414 92.1483C968.901 89.5995 966.729 87.5053 964.127 86.0858C961.525 84.6662 958.589 83.9738 955.627 84.0811M940.464 94.198C939.139 96.8496 938.554 99.8091 938.768 102.765C938.983 105.721 939.99 108.565 941.683 110.998C943.377 113.43 945.694 115.362 948.392 116.589L955.225 101.57" stroke="#1D2028"/>
<path d="M950.771 118.838C952.994 119.8 955.418 120.208 957.834 120.029C960.25 119.85 962.586 119.089 964.644 117.81C966.701 116.531 968.418 114.773 969.648 112.686C970.878 110.598 971.584 108.244 971.706 105.825L956.725 105.07L950.771 118.838Z" fill="#A6B3FF"/>
<path d="M951.771 120.838C953.994 121.8 956.418 122.208 958.834 122.029C961.25 121.85 963.586 121.089 965.644 119.81C967.701 118.531 969.418 116.773 970.648 114.685C971.878 112.598 972.584 110.244 972.706 107.825L960.725 106.57" stroke="#1D2028"/>
<path d="M985.725 82.0703L996.725 72.0703L1008.72 77.0703L1021.22 56.5703" stroke="#A6B3FF" stroke-width="5" stroke-linecap="round"/>
<path d="M986.725 88.5703L997.225 79.5703L1011.72 82.0703L1028.22 56.5703" stroke="black" stroke-linecap="round"/>
</svg>