<svg width="17" height="16" viewBox="0 0 17 16" fill="none" xmlns="http://www.w3.org/2000/svg">
<path fill-rule="evenodd" clip-rule="evenodd" d="M1 2C1 1.17157 1.67157 0.5 2.5 0.5H6.88197C7.45012 0.5 7.96952 0.821004 8.22361 1.32918L9.80902 4.5H14.5C15.3284 4.5 16 5.17157 16 6V14C16 14.8284 15.3284 15.5 14.5 15.5H2.5C1.67157 15.5 1 14.8284 1 14V10C1 9.72386 1.22386 9.5 1.5 9.5H8.29289L6.64645 7.85355C6.45118 7.65829 6.45118 7.34171 6.64645 7.14645C6.84171 6.95118 7.15829 6.95118 7.35355 7.14645L9.85355 9.64645L10.2071 10L9.85355 10.3536L7.35355 12.8536C7.15829 13.0488 6.84171 13.0488 6.64645 12.8536C6.45118 12.6583 6.45118 12.3417 6.64645 12.1464L8.29289 10.5H2V14C2 14.2761 2.22386 14.5 2.5 14.5H14.5C14.7761 14.5 15 14.2761 15 14V6C15 5.72386 14.7761 5.5 14.5 5.5H10.309H9.5H1.5H1V5V2ZM7.32918 1.77639L8.69098 4.5H2V2C2 1.72386 2.22386 1.5 2.5 1.5H6.88197C7.07135 1.5 7.24448 1.607 7.32918 1.77639Z" fill="#5567D5"/>
</svg>
