<?xml version="1.0" encoding="UTF-8"?>
<svg width="14px" height="14px" viewBox="0 0 14 14" version="1.1" xmlns="http://www.w3.org/2000/svg" xmlns:xlink="http://www.w3.org/1999/xlink">
    <title>480F46AB-7F6E-4ED9-B61C-2D7BC3B64B27</title>
    <defs>
        <path d="M3.59704862,5.45320392 C3.74891917,5.60507447 3.76579368,5.84082083 3.64767213,6.01133045 L3.59704862,6.07192235 L2.35961175,7.30935922 C1.1636311,8.50533986 1.1636311,10.4444076 2.35961175,11.6403883 C3.51572637,12.7965029 5.36621461,12.83504 6.56862081,11.7559997 L6.69064078,11.6403883 L7.92807765,10.4029514 C8.09893203,10.232097 8.37594171,10.232097 8.54679608,10.4029514 C8.69866664,10.5548219 8.71554115,10.7905683 8.5974196,10.9610779 L8.54679608,11.0216698 L7.30935922,12.2591067 C5.77166982,13.7967961 3.27858271,13.7967961 1.74089331,12.2591067 C0.247137899,10.7653513 0.204459173,8.37001239 1.61285714,6.82473791 L1.74089331,6.69064078 L2.97833018,5.45320392 C3.14918456,5.28234954 3.42619424,5.28234954 3.59704862,5.45320392 Z M9.93447559,4.0657572 C10.086289,4.21768489 10.1030748,4.45343757 9.98488911,4.62390274 L9.9342428,4.68447559 L4.68029077,9.93447559 C4.50937213,10.1052657 4.23236247,10.1051614 4.06157238,9.9342428 C3.90975898,9.78231511 3.89297317,9.54656243 4.01115886,9.37609726 L4.06180517,9.31552441 L9.3157572,4.06552441 C9.48667585,3.89473433 9.76368551,3.89483855 9.93447559,4.0657572 Z M12.2591067,1.74089331 C13.7528621,3.23464873 13.7955408,5.62998761 12.3871429,7.17526209 L12.2591067,7.30935922 L11.0216698,8.54679608 C10.8508154,8.71765046 10.5738058,8.71765046 10.4029514,8.54679608 C10.2510808,8.39492553 10.2342063,8.15917917 10.3523279,7.98866955 L10.4029514,7.92807765 L11.6403883,6.69064078 C12.8363689,5.49466014 12.8363689,3.55559239 11.6403883,2.35961175 C10.4842736,1.20349713 8.63378539,1.16495997 7.43137919,2.24400029 L7.30935922,2.35961175 L6.07192235,3.59704862 C5.90106797,3.76790299 5.62405829,3.76790299 5.45320392,3.59704862 C5.30133336,3.44517806 5.28445885,3.20943171 5.4025804,3.03892208 L5.45320392,2.97833018 L6.69064078,1.74089331 C8.22833018,0.203203916 10.7214173,0.203203916 12.2591067,1.74089331 Z" id="path-1"></path>
    </defs>
    <g id="API" stroke="none" stroke-width="1" fill="none" fill-rule="evenodd">
        <g id="api-proxy-manage" transform="translate(-1204.000000, -81.000000)">
            <g id="Button/Square/32-with-icon/Default-Copy" transform="translate(1195.000000, 72.000000)">
                <g id="Icon/Download" transform="translate(9.000000, 9.000000)">
                    <mask id="mask-2" fill="white">
                        <use xlink:href="#path-1"></use>
                    </mask>
                    <use id="Combined-Shape" fill="#979797" fill-rule="nonzero" xlink:href="#path-1"></use>
                    <rect id="Color" fill="#CBCEDB" fill-rule="nonzero" mask="url(#mask-2)" x="0" y="0" width="14" height="14"></rect>
                </g>
            </g>
        </g>
    </g>
</svg>
