<?xml version="1.0" encoding="UTF-8"?>
<svg width="12px" height="15px" viewBox="0 0 12 15" version="1.1" xmlns="http://www.w3.org/2000/svg" xmlns:xlink="http://www.w3.org/1999/xlink">
    <title>A796C6F7-220B-45A6-92B6-D957CD54586C</title>
    <g id="Apps" stroke="none" stroke-width="1" fill="none" fill-rule="evenodd">
        <g id="apps-preferences-configurations" transform="translate(-657.000000, -404.000000)" fill="#8D91A3" fill-rule="nonzero">
            <g id="Icon/Lock-Copy" transform="translate(657.000000, 404.000000)">
                <path d="M6,0.5 C7.8685634,0.5 9.39512645,1.9642776 9.49482114,3.8079648 L9.5,4 L9.5,6 L10,6 C11.1045695,6 12,6.8954305 12,8 L12,13 C12,14.1045695 11.1045695,15 10,15 L2,15 C0.8954305,15 1.3527075e-16,14.1045695 0,13 L0,8 C-1.3527075e-16,6.8954305 0.8954305,6 2,6 L2.5,6 L2.5,4 C2.5,2.06700338 4.06700338,0.5 6,0.5 Z M6,9 C5.44771525,9 5,9.44771525 5,10 C5,10.5522847 5.44771525,11 6,11 C6.55228475,11 7,10.5522847 7,10 C7,9.44771525 6.55228475,9 6,9 Z M6,1.5 C4.61928813,1.5 3.5,2.61928813 3.5,4 L3.5,6 L8.5,6 L8.5,4 C8.5,2.61928813 7.38071187,1.5 6,1.5 Z" id="Combined-Shape"></path>
            </g>
        </g>
    </g>
</svg>
