<svg width="140" height="80" viewBox="0 0 140 80" fill="none" xmlns="http://www.w3.org/2000/svg">
    <g clip-path="url(#clip0_3113_522)">
        <path
            d="M107.134 43.299C99.7245 55.0819 94.8475 62.2874 88.907 75.2177C82.9735 88.1109 75.9516 106.741 64.8978 111.111C53.88 115.487 38.8186 105.637 25.8543 94.2799C12.8771 82.8965 1.98266 70.0466 0.177388 56.3199C-1.60855 42.6157 5.6865 28.0415 15.2782 18.6603C24.8699 9.27916 36.7435 5.06747 48.4635 0.352643C60.1834 -4.36219 71.7136 -9.5922 86.0082 -9.92103C100.312 -10.2865 117.395 -5.72717 120.937 4.71534C124.505 15.144 114.541 31.5178 107.134 43.299Z"
            fill="white" />
        <path d="M28 8H9V27H28V8Z" fill="#EAF0FF" />
        <path
            d="M58.731 13.9122C57.775 12.5589 58.097 10.6869 59.4503 9.73095C60.8035 8.77496 62.6755 9.097 63.6315 10.4502L91.2943 49.6082C92.2503 50.9614 91.9283 52.8334 90.575 53.7894C89.2218 54.7454 87.3498 54.4234 86.3938 53.0701L58.731 13.9122Z"
            fill="#EAF0FF" />
        <circle cx="121.5" cy="64.5" r="16.5" fill="#F4F5FC" />
        <path d="M43 51H64.5" stroke="white" stroke-width="2" stroke-linecap="round"
            stroke-linejoin="round" />
        <path d="M60.9999 58.5L86 53.5L73.1496 34.6617" stroke="#40404B" stroke-linecap="round"
            stroke-linejoin="round" />
        <path d="M43.4653 39.0934L56.3678 57.5059L83.3443 52.2179L57.6433 15.5412L43.4653 39.0934Z"
            fill="#D8DFFF" />
        <path
            d="M41.7812 40.776L29.0461 49.7001C28.2725 50.2422 27.7512 51.0627 27.5854 52.0052C27.4196 52.9478 27.6262 53.8924 28.1715 54.6705L36.5088 66.5683C37.6374 68.1789 39.8649 68.5708 41.4755 67.4422L54.2107 58.5181L41.7812 40.776Z"
            fill="#D8DFFF" />
        <path d="M39 40.5L28.2144 48.1543C25.5828 50.0219 24.8997 53.6363 26.6681 56.3355L33 66"
            stroke="#40404B" stroke-width="1.5" stroke-linecap="round" />
        <path d="M77.3702 11.4293L80.1747 1.26143" stroke="#40404B" stroke-width="1.5"
            stroke-linecap="round" />
        <path d="M85.486 23.0109L94.7513 16.5183" stroke="#40404B" stroke-width="1.5"
            stroke-linecap="round" />
        <path d="M94.0075 35.1716L104.609 35.5139" stroke="#40404B" stroke-width="1.5"
            stroke-linecap="round" />
        <path
            d="M44.4564 67.515L50.9493 62.9282L57.2402 71.8333C58.5068 73.6262 58.0801 76.1065 56.2872 77.3731C54.4942 78.6397 52.014 78.2131 50.7474 76.4201L44.4564 67.515Z"
            fill="#EAF0FF" />
    </g>
    <defs>
        <clipPath id="clip0_3113_522">
            <rect width="140" height="80" fill="white" />
        </clipPath>
    </defs>
</svg>
