<svg id="Component_1_1" data-name="Component 1 – 1" xmlns="http://www.w3.org/2000/svg" xmlns:xlink="http://www.w3.org/1999/xlink" width="129" height="64" viewBox="0 0 129 64">
  <defs>
    <clipPath id="clip-path">
      <rect id="Rectangle_2" data-name="Rectangle 2" width="129" height="64" transform="translate(140 58)" fill="#fff"/>
    </clipPath>
    <clipPath id="clip-path-2">
      <rect id="Rectangle_3" data-name="Rectangle 3" width="15.442" height="15.442" fill="#fff"/>
    </clipPath>
  </defs>
  <g id="Mask_Group_4" data-name="Mask Group 4" transform="translate(-140 -58)" clip-path="url(#clip-path)">
    <g id="Mask_group" data-name="Mask group" transform="translate(141.005 54.961)">
      <g id="Group_55" data-name="Group 55" transform="translate(1.084 -4.528)">
        <path id="Path_77" data-name="Path 77" d="M51.155,4.778C61.216,9.92,67.341,13.349,78.562,17.184c11.189,3.832,19.647,11.632,22.695,20.391,3.057,8.729.731,18.425-10.623,30.058C79.256,79.278,66.72,89.327,54.139,91.949c-12.559,2.6-25.158-2.213-32.865-9.352S10.731,66.007,7.426,56.727.334,38.365,1.213,26.6C2.06,14.827,7.6.357,17.346-3.427,27.085-7.231,41.094-.361,51.155,4.778Z" transform="translate(-1.084 4.528)" fill="#fff"/>
        <path id="Path_78" data-name="Path 78" d="M9.533,9.274a4.826,4.826,0,0,1,4.826-4.826H64.544A4.826,4.826,0,0,1,69.37,9.274V40.518a4.826,4.826,0,0,1-4.826,4.826h-26.8L29.621,52.7l-7.693-7.361H14.358a4.826,4.826,0,0,1-4.826-4.826Z" transform="translate(3.297 9.184)" fill="#d8dfff"/>
        <path id="Path_79" data-name="Path 79" d="M16.523,17.159H52.233" transform="translate(6.923 15.775)" fill="none" stroke="#fff" stroke-linecap="round" stroke-linejoin="round" stroke-width="1.271"/>
        <path id="Path_80" data-name="Path 80" d="M16.523,11.439H52.233" transform="translate(6.923 12.809)" fill="none" stroke="#fff" stroke-linecap="round" stroke-linejoin="round" stroke-width="1.271"/>
        <path id="Path_81" data-name="Path 81" d="M16.523,22.879h20.75" transform="translate(6.923 18.742)" fill="none" stroke="#fff" stroke-linecap="round" stroke-linejoin="round" stroke-width="1.271"/>
        <circle id="Ellipse_2" data-name="Ellipse 2" cx="13.512" cy="13.512" r="13.512" transform="translate(58.19 38.725)" fill="#eaf0ff"/>
      </g>
      <g id="Group_56" data-name="Group 56" transform="translate(65.065 39.988)" clip-path="url(#clip-path-2)">
        <path id="Path_82" data-name="Path 82" d="M54.77,33.026l3.024,2.705a2.57,2.57,0,1,1-3.537,3.728l-.074-.078-3.3-3.6-3.37,3.64a2.453,2.453,0,0,1-1.772.805,2.485,2.485,0,0,1-1.725-4.3L45.967,34.1l2.467-2.251-.783-.782c-.45-.45-.909-.908-1.2-1.2-.115-.137-.353-.13-.549-.124-.058,0-.113,0-.159,0a1.194,1.194,0,0,1-.85-.351L43.6,28.1a.915.915,0,0,1,0-1.292l1.534-1.533a.936.936,0,0,1,1.292,0l1.291,1.291a1.533,1.533,0,0,1,.352,1.262.412.412,0,0,0,.122.295l2.06,2.06.272-.248a4.451,4.451,0,0,1-.111-1.325,4.118,4.118,0,0,1,5.541-3.532.391.391,0,0,1,0,.553L54.5,27.093a.375.375,0,0,0,0,.529l1.321,1.32a.382.382,0,0,0,.53,0c.022-.014.177-.173.384-.384a9.8,9.8,0,0,1,1.239-1.173.392.392,0,0,1,.487.264,4.167,4.167,0,0,1-3.622,5.373Zm-1.282-.094L51.415,35.2l3.4,3.707a1.785,1.785,0,1,0,2.46-2.588Zm-4.1-.9,1.838-1.677a.392.392,0,0,0,.112-.4,3.675,3.675,0,0,1-.142-1.284A3.362,3.362,0,0,1,54.884,25.6l-.938.941a1.158,1.158,0,0,0,0,1.637l1.321,1.32a1.186,1.186,0,0,0,1.639,0l.941-.941a3.361,3.361,0,0,1-3.066,3.682,3.684,3.684,0,0,1-1.292-.145.391.391,0,0,0-.405.111L46.934,38.89A1.69,1.69,0,1,1,44.545,36.5l1.95-1.825,2.878-2.626ZM47.04,29.348l1.975,1.973.662-.6-2.034-2.034a1.19,1.19,0,0,1-.352-.849c0-.048,0-.106,0-.169.006-.194.013-.43-.122-.539l-1.292-1.292a.131.131,0,0,0-.183,0l-1.534,1.534a.131.131,0,0,0,0,.183l1.291,1.291c.11.136.345.129.539.124.063,0,.121,0,.17,0a1.194,1.194,0,0,1,.85.352Zm-1.893,8.5a.524.524,0,0,0,1.048,0A.524.524,0,0,0,45.146,37.848Z" transform="translate(-43.215 -24.785)" fill="#40404b" fill-rule="evenodd"/>
      </g>
    </g>
  </g>
</svg>
