<?xml version="1.0" encoding="utf-8"?>
<!-- Generator: Adobe Illustrator 17.0.0, SVG Export Plug-In . SVG Version: 6.00 Build 0)  -->
<!DOCTYPE svg PUBLIC "-//W3C//DTD SVG 1.1//EN" "http://www.w3.org/Graphics/SVG/1.1/DTD/svg11.dtd">
<svg version="1.1" id="Layer_1" xmlns="http://www.w3.org/2000/svg" xmlns:xlink="http://www.w3.org/1999/xlink" x="0px" y="0px"
	 width="24px" height="24px" viewBox="0 0 24 24" enable-background="new 0 0 24 24" xml:space="preserve">
<title>DB63B795-BC45-4811-ABF7-4930AD155848</title>
<g id="Project">
	<g id="DevOps-View" transform="translate(-24.000000, -520.000000)">
		<g id="Group" transform="translate(6.000000, 124.000000)">
			<g id="Icon_x2F_Develope-Copy-5" transform="translate(18.250000, 396.250000)">
				<path id="Combined-Shape" fill="#FFFFFF" d="M12.75,0c0.841,0,1.553,0.596,1.719,1.439l0.023,0.151L14.5,1.749v0.646
					l0.213,0.063c0.392,0.125,0.775,0.275,1.147,0.448l0.368,0.181l0.191,0.104l0.458-0.457c0.552-0.552,1.389-0.662,2.079-0.29
					l0.136,0.081l0.131,0.094l0.128,0.115l1.414,1.414c0.589,0.589,0.675,1.502,0.209,2.215l-0.094,0.131l-0.115,0.128L20.308,7.08
					l0.105,0.192c0.189,0.364,0.354,0.741,0.496,1.126l0.133,0.389l0.062,0.212L21.75,9c0.792,0,1.469,0.528,1.684,1.293
					l0.035,0.146l0.023,0.151l0.008,0.16v2c0,0.841-0.596,1.553-1.439,1.719l-0.151,0.023L21.75,14.5l-0.646-0.001l-0.062,0.213
					c-0.125,0.392-0.275,0.776-0.448,1.148l-0.181,0.368l-0.105,0.19l0.458,0.459c0.603,0.603,0.674,1.537,0.213,2.217l-0.099,0.133
					l-0.114,0.125l-1.414,1.414c-0.643,0.643-1.663,0.681-2.35,0.114l-0.125-0.113l-0.459-0.458l-0.19,0.105
					c-0.365,0.189-0.741,0.354-1.127,0.496l-0.389,0.133l-0.213,0.062L14.5,21.75c0,0.867-0.631,1.587-1.458,1.726l-0.148,0.018
					L12.75,23.5h-2c-0.918,0-1.671-0.707-1.744-1.606L9,21.751l-0.001-0.647l-0.212-0.062c-0.392-0.125-0.775-0.275-1.147-0.448
					l-0.368-0.181L7.08,20.308l-0.457,0.458c-0.603,0.603-1.537,0.674-2.217,0.213l-0.133-0.099l-0.125-0.114l-1.414-1.414
					c-0.643-0.643-0.681-1.663-0.114-2.35l0.113-0.125l0.457-0.459l-0.104-0.19c-0.189-0.365-0.354-0.741-0.496-1.127l-0.133-0.389
					l-0.063-0.213L1.75,14.5c-0.867,0-1.587-0.631-1.726-1.458l-0.018-0.148L0,12.75v-2c0-0.918,0.707-1.671,1.606-1.744L1.749,9
					l0.646-0.001l0.063-0.212C2.583,8.395,2.733,8.012,2.906,7.64l0.181-0.368L3.191,7.08L2.734,6.623
					c-0.552-0.552-0.662-1.389-0.29-2.079l0.081-0.136l0.094-0.131l0.115-0.128l1.414-1.414c0.589-0.589,1.502-0.675,2.215-0.209
					l0.131,0.094l0.128,0.115l0.458,0.457l0.191-0.104c0.365-0.189,0.741-0.354,1.127-0.496l0.389-0.133L9,2.395V1.75
					c0-0.792,0.528-1.469,1.293-1.684l0.146-0.035l0.151-0.023L10.75,0H12.75z M10.793,1.499L10.72,1.502
					c-0.103,0.012-0.187,0.088-0.212,0.187L10.5,1.75l0,1.822L9.916,3.704C9.12,3.885,8.36,4.182,7.657,4.585L7.359,4.764
					L6.852,5.083L5.597,3.827L5.539,3.774C5.46,3.713,5.354,3.706,5.268,3.751L5.209,3.795l-1.382,1.38L3.774,5.234
					c-0.061,0.078-0.068,0.185-0.022,0.27l0.044,0.059l1.288,1.289L4.764,7.359C4.332,8.045,4.003,8.792,3.789,9.576L3.705,9.915
					l-0.132,0.584L1.75,10.5c-0.118,0-0.217,0.082-0.243,0.193L1.5,10.75v2c0,0.118,0.082,0.217,0.193,0.243L1.75,13l1.822,0
					l0.133,0.584c0.181,0.796,0.478,1.556,0.881,2.259l0.179,0.298l0.319,0.506l-1.288,1.289c-0.081,0.081-0.095,0.205-0.041,0.3
					l0.041,0.053l1.414,1.414c0.081,0.081,0.205,0.095,0.3,0.041l0.053-0.041l1.289-1.288l0.506,0.319
					c0.687,0.433,1.433,0.762,2.218,0.975l0.339,0.085l0.584,0.132L10.5,21.75c0,0.118,0.082,0.217,0.193,0.243L10.75,22h2
					c0.118,0,0.217-0.082,0.243-0.193L13,21.75l0-1.822l0.584-0.133c0.796-0.181,1.556-0.478,2.259-0.881l0.298-0.179l0.506-0.319
					l1.289,1.288c0.081,0.081,0.205,0.095,0.3,0.041l0.053-0.041l1.414-1.414c0.081-0.081,0.095-0.205,0.041-0.3l-0.041-0.053
					l-1.288-1.289l0.319-0.506c0.433-0.687,0.762-1.433,0.975-2.219l0.084-0.339L19.928,13l1.779,0.001l0.073-0.003
					c0.103-0.012,0.187-0.088,0.212-0.187L22,12.75l0.001-1.957l-0.003-0.073c-0.012-0.103-0.088-0.187-0.187-0.212L21.749,10.5
					l-1.822-0.001l-0.132-0.584c-0.181-0.795-0.478-1.555-0.881-2.259l-0.179-0.298l-0.319-0.506l1.257-1.256l0.053-0.058
					c0.061-0.078,0.068-0.185,0.022-0.27l-0.044-0.059l-1.38-1.382l-0.058-0.053c-0.078-0.061-0.185-0.068-0.27-0.022l-0.059,0.044
					l-1.289,1.288l-0.506-0.319c-0.687-0.433-1.433-0.762-2.218-0.975l-0.339-0.085l-0.584-0.132l0-1.779L12.998,1.72
					c-0.012-0.103-0.088-0.187-0.187-0.212L12.75,1.5L10.793,1.499z M11.75,6.75c2.761,0,5,2.239,5,5s-2.239,5-5,5s-5-2.239-5-5
					S8.989,6.75,11.75,6.75z M11.75,10.3c-0.828,0-1.5,0.672-1.5,1.5s0.672,1.5,1.5,1.5s1.5-0.672,1.5-1.5S12.578,10.3,11.75,10.3z"
					/>
			</g>
		</g>
	</g>
</g>
</svg>
