<?xml version="1.0" encoding="UTF-8"?>
<svg width="24px" height="24px" viewBox="0 0 24 24" version="1.1" xmlns="http://www.w3.org/2000/svg" xmlns:xlink="http://www.w3.org/1999/xlink">
    <title>DB63B795-BC45-4811-ABF7-4930AD155848</title>
    <g id="Project" stroke="none" stroke-width="1" fill="none" fill-rule="evenodd">
        <g id="DevOps-View" transform="translate(-24.000000, -520.000000)" fill="#40404B" fill-rule="nonzero">
            <g id="Group" transform="translate(6.000000, 124.000000)">
                <g id="Icon/Develope-Copy-5" transform="translate(18.250000, 396.250000)">
                    <path d="M12.75,0 C13.5911974,0 14.3029465,0.596198834 14.4685562,1.43897115 L14.4920274,1.5901841 L14.5,1.74944079 L14.5,2.395 L14.712688,2.45849173 C15.1048291,2.58342897 15.4879306,2.73303306 15.8599652,2.9061976 L16.2282357,3.08717466 L16.419,3.191 L16.8765242,2.73438854 C17.4286501,2.18226259 18.2656504,2.07193142 18.9559982,2.44447463 L19.0919846,2.52543376 L19.223293,2.61934258 L19.3513979,2.73438854 L20.7656115,4.1486021 C21.3545458,4.73753645 21.4408159,5.65059451 20.9745662,6.36406252 L20.8806574,6.49537097 L20.7658304,6.62325681 L20.308,7.08 L20.4128253,7.27176428 C20.6015739,7.63619574 20.7671309,8.01236977 20.9083897,8.3982592 L21.0415083,8.78731201 L21.104,8.999 L21.75,9 C22.5417152,9 23.2187634,9.52812077 23.4337465,10.2928774 L23.4685562,10.4389712 L23.4920274,10.5901841 L23.5,10.75 L23.5,12.75 C23.5,13.5911974 22.9038012,14.3029465 22.0610288,14.4685562 L21.9098159,14.4920274 L21.7499481,14.5 L21.104,14.499 L21.0417595,14.7118993 C20.9168136,15.1041835 20.7671836,15.4874236 20.5939769,15.8595903 L20.4129522,16.2279907 L20.308,16.418 L20.7656115,16.8765242 C21.3686269,17.4795396 21.4395699,18.4131425 20.9784404,19.0939432 L20.8791203,19.2265598 L20.7656115,19.3513979 L19.3513979,20.7656115 C18.7081814,21.4088279 17.6888299,21.4466642 17.0015448,20.8793028 L16.8767432,20.7658304 L16.418,20.308 L16.2279907,20.4129522 C15.8634317,20.6017538 15.4871229,20.7673477 15.1010936,20.9086266 L14.7118993,21.0417595 L14.499,21.104 L14.5,21.75 C14.5,22.6171638 13.8692751,23.3370138 13.0415526,23.4758229 L12.8935272,23.4941988 L12.75,23.5 L10.75,23.5 C9.8318266,23.5 9.07880766,22.7928897 9.0058012,21.8940067 L9,21.7505592 L8.999,21.104 L8.78731201,21.0415083 C8.3951709,20.916571 8.01206945,20.7669669 7.64003485,20.5938024 L7.27176428,20.4128253 L7.08,20.308 L6.62347584,20.7656115 C6.02046039,21.3686269 5.08685749,21.4395699 4.40605676,20.9784404 L4.27344017,20.8791203 L4.1486021,20.7656115 L2.73438854,19.3513979 C2.09117206,18.7081814 2.0533358,17.6888299 2.62069722,17.0015448 L2.73416961,16.8767432 L3.191,16.418 L3.08704777,16.2279907 C2.89824623,15.8634317 2.73265231,15.4871229 2.59137339,15.1010936 L2.45824049,14.7118993 L2.395,14.499 L1.75,14.5 C0.882836237,14.5 0.162986168,13.8692751 0.0241770733,13.0415526 L0.00580119953,12.8935272 L0,12.75 L0,10.75 C0,9.8318266 0.707110273,9.07880766 1.60599334,9.0058012 L1.74944079,9 L2.395,8.999 L2.45849173,8.78731201 C2.58342897,8.3951709 2.73303306,8.01206945 2.9061976,7.64003485 L3.08717466,7.27176428 L3.191,7.08 L2.73438854,6.62347584 C2.18226259,6.07134989 2.07193142,5.23434958 2.44447463,4.54400176 L2.52543376,4.40801542 L2.61934258,4.27670697 L2.73438854,4.1486021 L4.1486021,2.73438854 C4.73753645,2.1454542 5.65059451,2.05918413 6.36406252,2.52543376 L6.49537097,2.61934258 L6.62325681,2.73416961 L7.081,3.191 L7.27200926,3.08704777 C7.63656828,2.89824623 8.01287705,2.73265231 8.39890636,2.59137339 L8.7881007,2.45824049 L9,2.395 L9,1.75 C9,0.958284814 9.52812077,0.281236593 10.2928774,0.0662534779 L10.4389712,0.0314437833 L10.5901841,0.00797262352 L10.75,0 L12.75,0 Z M10.7931948,1.49875511 L10.7199085,1.50171943 C10.6164378,1.51373738 10.532704,1.5899036 10.507667,1.68846088 L10.5,1.74994811 L10.5001261,3.57187581 L9.91604249,3.70440544 C9.12041721,3.88493428 8.3601363,4.18246558 7.65669578,4.58531105 L7.35876397,4.76437284 L6.8523022,5.0834709 L5.59671319,3.82690606 L5.53856806,3.77361036 C5.4601902,3.71266789 5.35359196,3.70582317 5.26838318,3.75122758 L5.20926227,3.79504871 L3.82690606,5.17536475 L3.77361036,5.23350988 C3.71266789,5.31188774 3.70582317,5.41848598 3.75133967,5.5038069 L3.79526764,5.56303469 L5.0834709,6.8523022 L4.76437284,7.35876397 C4.33182172,8.04529462 4.00284451,8.79169762 3.78911903,9.57649809 L3.70461268,9.91512941 L3.57214256,10.4986416 L1.75,10.5 C1.63165327,10.5 1.53251318,10.5822334 1.50660268,10.6926773 L1.5,10.75 L1.5,12.75 C1.5,12.8683467 1.58223341,12.9674868 1.69264462,12.9933973 L1.74994811,13 L3.57187581,12.9998739 L3.70440544,13.5839575 C3.88493428,14.3795828 4.18246558,15.1398637 4.58531105,15.8433042 L4.76437284,16.141236 L5.0834709,16.6476978 L3.79504871,17.9371843 C3.71368948,18.0185436 3.70012961,18.1420279 3.7543691,18.2374288 L3.79504871,18.2907377 L5.20926227,19.7049513 C5.2906215,19.7863105 5.41410585,19.7998704 5.50963353,19.7455042 L5.56303469,19.7047324 L6.8523022,18.4165291 L7.35876397,18.7356272 C8.04529462,19.1681783 8.79169762,19.4971555 9.57649809,19.710881 L9.91512941,19.7953873 L10.4986416,19.9278574 L10.5,21.75 C10.5,21.8683467 10.5822334,21.9674868 10.6926773,21.9933973 L10.75,22 L12.75,22 C12.8683467,22 12.9674868,21.9177666 12.9933973,21.8073554 L13,21.7500519 L12.9998739,19.9281242 L13.5839575,19.7955946 C14.3795828,19.6150657 15.1398637,19.3175344 15.8433042,18.9146889 L16.141236,18.7356272 L16.6476978,18.4165291 L17.9371843,19.7049513 C18.0185436,19.7863105 18.1420279,19.7998704 18.2374288,19.7456309 L18.2907377,19.7049513 L19.7049513,18.2907377 C19.7863105,18.2093785 19.7998704,18.0858942 19.7455042,17.9903665 L19.7047324,17.9369653 L18.4165291,16.6476978 L18.7356272,16.141236 C19.1683239,15.4544743 19.4973761,14.7078014 19.7110957,13.9227132 L19.7955946,13.5839575 L19.9281242,12.9998739 L21.7068052,13.0012449 L21.7800915,12.9982806 C21.8835622,12.9862626 21.967296,12.9100964 21.992333,12.8115091 L22,12.75 L22.0012449,10.7931948 L21.9982806,10.7199085 C21.9862626,10.6164378 21.9100964,10.532704 21.8111855,10.5076668 L21.7494408,10.4999998 L19.9278574,10.4986416 L19.7953873,9.91512941 C19.6148292,9.11979649 19.3173512,8.35979321 18.9146309,7.65659443 L18.7356272,7.35876397 L18.4165291,6.8523022 L19.6730939,5.59671319 L19.7263896,5.53856806 C19.7873321,5.4601902 19.7941768,5.35359196 19.7487724,5.26838318 L19.7049513,5.20926227 L18.3246353,3.82690606 L18.2664901,3.77361036 C18.1881123,3.71266789 18.081514,3.70582317 17.9961931,3.75133967 L17.9369653,3.79526764 L16.6476978,5.0834709 L16.141236,4.76437284 C15.4547054,4.33182172 14.7083024,4.00284451 13.9235019,3.78911903 L13.5848706,3.70461268 L13.0013584,3.57214256 L13.0012449,1.79319477 L12.9982806,1.71990849 C12.9862626,1.61643783 12.9100964,1.53270404 12.8115091,1.50766696 L12.75,1.5 L10.7931948,1.49875511 Z M11.75,6.75 C14.5114237,6.75 16.75,8.98857625 16.75,11.75 C16.75,14.5114237 14.5114237,16.75 11.75,16.75 C8.98857625,16.75 6.75,14.5114237 6.75,11.75 C6.75,8.98857625 8.98857625,6.75 11.75,6.75 Z M11.75,10.3 C10.9215729,10.3 10.25,10.9715729 10.25,11.8 C10.25,12.6284271 10.9215729,13.3 11.75,13.3 C12.5784271,13.3 13.25,12.6284271 13.25,11.8 C13.25,10.9715729 12.5784271,10.3 11.75,10.3 Z" id="Combined-Shape"></path>
                </g>
            </g>
        </g>
    </g>
</svg>