<svg width="48" height="48" viewBox="0 0 48 48" fill="none" xmlns="http://www.w3.org/2000/svg">
<rect width="48" height="48" rx="24" fill="#F7F8FB"/>
<path fill-rule="evenodd" clip-rule="evenodd" d="M31.5 17.75C31.5 19.1307 30.3807 20.25 29 20.25C27.6193 20.25 26.5 19.1307 26.5 17.75C26.5 16.3693 27.6193 15.25 29 15.25C30.3807 15.25 31.5 16.3693 31.5 17.75ZM30.25 17.75C30.25 18.4404 29.6904 19 29 19C28.3096 19 27.75 18.4404 27.75 17.75C27.75 17.0596 28.3096 16.5 29 16.5C29.6904 16.5 30.25 17.0596 30.25 17.75Z" fill="#40404B"/>
<path fill-rule="evenodd" clip-rule="evenodd" d="M21.5 24C23.5711 24 25.25 22.3211 25.25 20.25C25.25 18.1789 23.5711 16.5 21.5 16.5C19.4289 16.5 17.75 18.1789 17.75 20.25C17.75 22.3211 19.4289 24 21.5 24ZM21.5 22.75C22.8807 22.75 24 21.6307 24 20.25C24 18.8693 22.8807 17.75 21.5 17.75C20.1193 17.75 19 18.8693 19 20.25C19 21.6307 20.1193 22.75 21.5 22.75Z" fill="#40404B"/>
<path d="M26.3494 23.4069C27.04 22.6018 27.9803 22.125 28.9996 22.125C30.8249 22.125 32.4487 23.696 32.7126 25.875H28.9996C28.6545 25.875 28.3746 26.1548 28.3746 26.5C28.3746 26.8452 28.6545 27.125 28.9996 27.125H34V26.5C34 23.4743 31.837 20.875 28.9996 20.875C27.5711 20.875 26.2982 21.5468 25.4006 22.5931C25.1759 22.855 25.2061 23.2496 25.4681 23.4744C25.7301 23.6991 26.1246 23.6689 26.3494 23.4069Z" fill="#40404B"/>
<path fill-rule="evenodd" clip-rule="evenodd" d="M28.924 32.75C28.9741 33.1581 29 33.5752 29 33.9994L14 34C14 33.5758 14.0259 33.158 14.076 32.75C14.5958 28.5096 17.7216 25.25 21.5 25.25C25.2784 25.25 28.4042 28.5096 28.924 32.75ZM15.3348 32.75C15.8415 29.0735 18.5466 26.5 21.5 26.5C24.4534 26.5 27.1585 29.0735 27.6652 32.75H15.3348Z" fill="#40404B"/>
</svg>
