<svg xmlns="http://www.w3.org/2000/svg" xmlns:xlink="http://www.w3.org/1999/xlink" width="35" height="35" viewBox="0 0 35 35">
  <defs>
    <linearGradient id="linear-gradient" x1="0.5" x2="0.5" y2="1" gradientUnits="objectBoundingBox">
      <stop offset="0" stop-color="#fff"/>
      <stop offset="1" stop-color="#f7f8fb"/>
    </linearGradient>
    <filter id="Oval_Copy_15" x="0" y="0" width="35" height="35" filterUnits="userSpaceOnUse">
      <feOffset dy="1" input="SourceAlpha"/>
      <feGaussianBlur stdDeviation="0.5" result="blur"/>
      <feFlood flood-color="#cbcfda"/>
      <feComposite operator="in" in2="blur"/>
      <feComposite in="SourceGraphic"/>
    </filter>
  </defs>
  <g id="Button_Close_Default" data-name="Button/Close/Default" transform="translate(1.5 0.5)">
    <g transform="matrix(1, 0, 0, 1, -1.5, -0.5)" filter="url(#Oval_Copy_15)">
      <circle id="Oval_Copy_15-2" data-name="Oval Copy 15" cx="16" cy="16" r="16" transform="translate(1.5 0.5)" fill="url(#linear-gradient)"/>
    </g>
    <path id="Combined_Shape" data-name="Combined Shape" d="M7.465,7.365a1,1,0,0,1,0-1.415L8.585,4.829H1a1,1,0,0,1,0-2H8.586L7.465,1.707A1,1,0,1,1,8.878.293L11.535,2.95a1,1,0,0,1,.278.879,1,1,0,0,1-.278.878L8.878,7.365a1,1,0,0,1-1.414,0Z" transform="translate(9 12.172)" fill="#8d91a3"/>
  </g>
</svg>
