<svg width="253" height="209" viewBox="0 0 253 209" fill="none" xmlns="http://www.w3.org/2000/svg">
    <path d="M90.0046 32.1052C135.508 27.2216 177.257 51.0742 198.746 74.1977C220.234 97.3213 229.893 110.644 237.32 135.916C245.76 164.634 231.604 185.146 211.466 196.121C190.98 207.286 153.792 200.504 119.056 187.01C85.2118 173.862 68.8111 184.075 37.3974 164.409C12.11 148.579 8.10366 129.95 9.84991 100.513C11.3006 76.0573 32.0393 38.3262 90.0046 32.1052Z" fill="#F0F1FB" fill-opacity="0.5" />
    <path d="M102.717 1C102.717 99.8392 102.717 102.161 102.717 201" stroke="#5567D5" stroke-miterlimit="10" stroke-linecap="round" />
    <path d="M106.296 115.44L134.234 143.378C136.211 145.355 136.211 148.56 134.234 150.537L106.296 178.475C104.319 180.452 101.114 180.452 99.1373 178.475L71.1994 150.537C69.2225 148.56 69.2225 145.355 71.1994 143.378L99.1373 115.44C101.114 113.463 104.319 113.463 106.296 115.44Z" fill="#E2E5FA" stroke="#5567D5" stroke-miterlimit="5" />
    <path d="M82.0211 28.1641H123.412C127.446 28.1641 130.717 31.4344 130.717 35.4685V76.8598C130.717 80.8939 127.446 84.1641 123.412 84.1641H82.0211C77.987 84.1641 74.7167 80.8939 74.7167 76.8598V35.4685C74.7167 31.4344 77.987 28.1641 82.0211 28.1641Z" fill="white" stroke="#5567D5" stroke-miterlimit="5" />
    <path d="M188.717 32.4576C188.717 131.297 188.717 75.8216 188.717 174.661" stroke="#5567D5" stroke-miterlimit="10" stroke-linecap="round" />
    <path d="M201.717 55.9578C131.217 55.9578 196.717 55.9576 131.217 55.9576" stroke="#5567D5" stroke-miterlimit="10" stroke-linecap="round" />
    <circle cx="188.717" cy="55.9576" r="25" fill="white" stroke="#5567D5" stroke-miterlimit="5" />
    <rect x="183.717" y="122.958" width="10" height="44" rx="5" fill="#F0F1FB" stroke="#5567D5" stroke-miterlimit="5" />
</svg>
    