<?xml version="1.0" encoding="UTF-8"?>

<!-- 
~    Copyright (c) 2021, WSO2 Inc. (http://www.wso2.com). All Rights Reserved.
~   
~    This software is the property of WSO2 Inc. and its suppliers, if any. 
~    Dissemination of any information or reproduction of any material contained 
~    herein in any form is strictly forbidden, unless permitted by WSO2 in accordance with
~    the WSO2 Commercial License available at http://wso2.com/licenses.
~    For specific language governing the permissions and limitations under
~    this license, please see the license as well as any agreement you’ve
~    entered into with WSO2 governing the purchase of this software and any
~    associated services.
-->

<svg width="160px" height="160px" viewBox="0 0 160 160" version="1.1" xmlns="http://www.w3.org/2000/svg" xmlns:xlink="http://www.w3.org/1999/xlink">
    <title>FC65F820-036C-4525-BAA1-F4E2539715C8</title>
    <g id="Test" stroke="none" stroke-width="1" fill="none" fill-rule="evenodd">
        <g id="test-no-collection" transform="translate(-1245.000000, -304.000000)">
            <g id="illustration/Why" transform="translate(1245.000000, 304.000000)">
                <g id="drawkit-grape-pack-illustration-7" transform="translate(6.000000, 10.000000)">
                    <path d="M9.87525,73.2275775 C9.87525,36.615915 39.554865,6.9358275 76.167,6.9358275 C112.779135,6.9358275 142.45875,36.61497 142.45875,73.2275775 C142.45875,109.840185 112.779135,139.519327 76.167,139.519327 C39.554865,139.519327 9.87525,109.83924 9.87525,73.2275775 Z" id="Path" fill="#F7F8FB"></path>
                    <path d="M14.2737525,96.449535 C16.1391825,94.7272725 22.6842525,88.7199075 24.03891,88.1075475 C25.3935675,87.4951875 41.10372,105.020685 39.55203,106.2747 C38.00034,107.528715 29.78829,115.09155 26.70003,117.014625 C20.53107,110.3004 16.241715,102.589673 14.2737525,96.449535 Z" id="Path" fill="#FFFFFF"></path>
                    <path d="M13.6458,94.92525 C15.51123,93.2029875 21.824775,87.379425 23.1813225,86.767065 C24.53787,86.154705 40.36095,104.977215 38.80926,106.230758 C37.25757,107.4843 29.021895,115.522943 26.5880475,117.064238" id="Path" stroke="#40404B" stroke-linecap="round" stroke-linejoin="round"></path>
                    <path d="M54.97065,76.653675 C63.97272,90.344835 41.864445,107.526825 38.4804,108.513878 C35.096355,109.50093 20.5254,89.53875 21.5804925,86.90976 C22.635585,84.28077 44.0998425,60.1204275 54.97065,76.653675 Z" id="Path" fill="#5567D5"></path>
                    <path d="M31.898475,74.0629575 C39.0459825,69.1045425 47.94174,66.243555 53.780895,75.1241925 C62.782965,88.8153525 40.67469,105.997343 37.290645,106.984395 C33.9066,107.971448 19.335645,88.006905 20.39121,85.3802775 C20.5958025,84.8718675 21.5653725,83.55501 23.0754825,81.8837775" id="Path" stroke="#40404B" stroke-linecap="round" stroke-linejoin="round"></path>
                    <path d="M73.05795,65.041515 C62.9185725,64.9805625 52.941735,66.931515 48.0244275,70.7516775 C40.0391775,76.9565475 34.7282775,115.312207 37.018485,126.72639 C47.988045,134.766922 61.5199725,139.51791 76.16322,139.51791 C87.7229325,139.51791 98.5894875,136.555335 108.0513,131.354055 C109.726313,117.102037 105.597608,76.3593075 99.0676575,71.4027825 C93.50019,67.17627 83.1978,65.1024675 73.05795,65.041515 Z" id="Path" fill="#5567D5"></path>
                    <path d="M38.99637,87.099705 C40.917555,78.66558 43.489845,71.631945 46.53747,69.26472 C56.372085,61.624395 86.44482,61.461855 97.5802275,69.91488 C104.50755,75.17475 109.040243,120.795098 106.195793,132.173842" id="Path" stroke="#40404B" stroke-linecap="round" stroke-linejoin="round"></path>
                    <path d="M35.565075,125.42796 C35.1053325,122.523975 35.07651,117.814567 35.423325,112.314195" id="Path" stroke="#40404B" stroke-linecap="round" stroke-linejoin="round"></path>
                    <path d="M115.668,127.05525 C114.255225,125.642475 104.517,112.3605 103.419855,111.110265 C102.32271,109.86003 123.14295,92.5953525 124.423425,94.10499 C125.7039,95.6146275 130.837613,102.79899 133.231298,106.74909 C131.30775,110.215823 120.671303,123.640493 115.668,127.05525 Z" id="Path" fill="#FFFFFF"></path>
                    <path d="M116.1405,126.002993 C114.95925,124.39224 104.405018,109.85247 103.3074,108.601763 C102.209783,107.351055 123.030968,90.08685 124.311443,91.5964875 C125.591918,93.106125 131.724495,101.499143 133.83657,105.606113" id="Path" stroke="#40404B" stroke-linecap="round" stroke-linejoin="round"></path>
                    <path d="M93.2946525,69.363 C103.80825,62.14887 129.183863,86.9253525 129.120666,94.311 C129.057233,101.696648 106.495358,115.117065 102.737093,113.17887 C98.594685,111.044588 77.162085,80.426115 93.2946525,69.363 Z" id="Path" fill="#5567D5"></path>
                    <path d="M86.9593725,85.48659 C85.5418725,78.619275 86.4519075,72.03168 92.304765,68.0177925 C102.820253,60.8055525 128.193975,85.5815625 128.130308,92.9691 C128.0664,100.356638 105.50547,113.774693 101.746733,111.83697 C100.54422,111.216578 97.884045,108.195885 95.1090525,103.949528" id="Path" stroke="#40404B" stroke-linecap="round" stroke-linejoin="round"></path>
                    <path d="M9.87525,73.2275775 C9.87525,36.615915 39.554865,6.9358275 76.167,6.9358275 C112.779135,6.9358275 142.45875,36.61497 142.45875,73.2275775 C142.45875,109.840185 112.779135,139.519327 76.167,139.519327 C39.554865,139.519327 9.87525,109.83924 9.87525,73.2275775 Z" id="Path" stroke="#40404B" stroke-linecap="round" stroke-linejoin="round"></path>
                    <path d="M133.1505,84.260925 C133.215705,82.3562775 136.927193,81.58374 141.440513,82.5348825 C145.953833,83.486025 149.559953,85.8008025 149.49522,87.7049775 C149.430487,89.6091525 145.718055,90.38169 141.204735,89.4305475 C136.691415,88.479405 133.083878,86.1651 133.1505,84.260925 Z" id="Path" fill="#F7F8FB"></path>
                    <path d="M134.489092,76.9754475 C134.554297,75.0712725 138.265785,74.2982625 142.779105,75.249405 C147.292425,76.2005475 150.899017,78.515325 150.833812,80.4195 C150.768607,82.323675 147.056647,83.096685 142.543327,82.1455425 C138.030007,81.1944 134.42625,78.8796225 134.489092,76.9754475 Z" id="Path" fill="#F7F8FB"></path>
                    <path d="M134.316158,69.44616 C134.381363,67.541985 138.09285,66.7694475 142.606643,67.7201175 C147.120435,68.6707875 150.726083,70.9860375 150.660878,72.8902125 C150.595673,74.7943875 146.883713,75.5673975 142.370393,74.616255 C137.857073,73.6651125 134.250953,71.350335 134.316158,69.44616 Z" id="Path" fill="#F7F8FB"></path>
                    <path d="M136.171192,66.68298 C137.65437,66.40893 139.639815,66.46752 141.810952,66.9249 C146.324273,67.8760425 149.930393,70.19082 149.865187,72.094995 C149.821245,73.3806675 148.114575,74.1508425 145.62072,74.221245" id="Path" stroke="#40404B" stroke-linecap="round" stroke-linejoin="round"></path>
                    <path d="M135.058928,74.5864875 C136.546357,73.94247 139.101638,73.8465525 141.983888,74.4541875 C146.497208,75.40533 150.103328,77.7201075 150.038123,79.6242825 C149.990873,81.0124875 148.006373,81.7977825 145.18224,81.7552575" id="Path" stroke="#40404B" stroke-linecap="round" stroke-linejoin="round"></path>
                    <path d="M135.9855,81.3706425 C137.31606,81.2648025 138.921143,81.376785 140.643405,81.739665 C145.156725,82.6908075 148.762845,85.0051125 148.69764,86.90976 C148.657005,88.099515 147.191783,88.84701 144.996548,89.00955" id="Path" stroke="#40404B" stroke-linecap="round" stroke-linejoin="round"></path>
                    <path d="M1.271025,72.210285 C1.33623,70.30611 5.04819,69.5335725 9.56151,70.484715 C14.07483,71.4358575 17.68095,73.7501625 17.615745,75.65481 C17.55054,77.5594575 13.8390525,78.3315225 9.32526,77.38038 C4.8114675,76.4292375 1.20582,74.11446 1.271025,72.210285 Z" id="Path" fill="#F7F8FB"></path>
                    <path d="M2.611035,64.9248075 C2.67624,63.0206325 6.3882,62.248095 10.90152,63.1992375 C15.41484,64.15038 19.02096,66.4651575 18.955755,68.37075 C18.89055,70.2763425 15.1790625,71.0474625 10.6657425,70.09632 C6.1524225,69.1451775 2.54583,66.829455 2.611035,64.9248075 Z" id="Path" fill="#F7F8FB"></path>
                    <path d="M2.4381,57.39552 C2.503305,55.491345 6.215265,54.7188075 10.728585,55.66995 C15.241905,56.6210925 18.848025,58.93587 18.78282,60.840045 C18.717615,62.74422 15.0061275,63.5167575 10.4928075,62.565615 C5.9794875,61.6144725 2.3733675,59.29875 2.4381,57.39552 Z" id="Path" fill="#F7F8FB"></path>
                    <path d="M3.3722325,59.1962175 C1.9830825,58.2795675 1.14534,57.2551875 1.1769975,56.328615 C1.2422025,54.42444 4.9541625,53.6519025 9.4674825,54.603045 C11.48931,55.028295 13.3287525,55.72854 14.73822,56.540295" id="Path" stroke="#40404B" stroke-linecap="round" stroke-linejoin="round"></path>
                    <path d="M5.2830225,67.6823175 C2.8893375,66.574305 1.3064625,65.1251475 1.3499325,63.8579025 C1.4151375,61.9537275 5.1270975,61.18119 9.6404175,62.13186 C11.5209675,62.5282875 13.244175,63.1614375 14.6097,63.90279" id="Path" stroke="#40404B" stroke-linecap="round" stroke-linejoin="round"></path>
                    <path d="M6.5389275,75.93075 C2.766015,74.831715 -0.0477225,72.8268975 0.0099225,71.1429075 C0.0751275,69.2387325 3.7870875,68.4657225 8.3004075,69.416865 C10.940265,69.97347 13.2701625,70.99596 14.7358575,72.1304325" id="Path" stroke="#40404B" stroke-linecap="round" stroke-linejoin="round"></path>
                    <path d="M83.20158,50.4748125 C82.7720775,52.9195275 80.79183,62.76312 82.3095,73.433115 C80.5588875,74.756115 70.35147,75.7119825 67.543875,73.433115 C67.6431,69.1054875 67.7418525,60.450705 67.3458975,58.237515 C66.9499425,56.024325 83.6325,48.03057 83.20158,50.4748125 Z" id="Path" fill="#FFFFFF"></path>
                    <path d="M66.39759,72.013725 C66.4963425,67.6860975 66.5955675,59.031315 66.19914,56.818125 C65.8027125,54.604935 82.484325,46.612125 82.055295,49.0554225 C81.626265,51.49872 79.645545,61.34373 81.163215,72.013725 C80.3708325,72.6114375 77.846265,73.1349675 75.0589875,73.317825" id="Path" stroke="#40404B" stroke-linecap="round" stroke-linejoin="round"></path>
                    <path d="M49.8681225,36.3102075 C50.8395825,24.3928125 59.783535,15.383655 69.8444775,16.1873775 C79.90542,16.9911 87.27453,27.3034125 86.3025975,39.2208075 C85.330665,51.1382025 76.387185,60.14925 66.3262425,59.346 C56.2653,58.54275 48.89619,48.2276025 49.8681225,36.3102075 Z" id="Path" fill="#FFFFFF"></path>
                    <path d="M75.94587,55.2574575 C72.83493,57.379455 69.195735,58.4742375 65.39778,58.1708925 C60.71247,57.7966725 56.60928,55.35999 53.663715,51.6598425" id="Path" stroke="#40404B" stroke-linecap="round" stroke-linejoin="round"></path>
                    <path d="M49.75425,43.8976125 C48.993525,41.174595 48.6897075,38.209185 48.9401325,35.1374625 C49.9115925,23.2200675 58.855545,14.21091 68.91696,15.0146325 C78.978375,15.818355 86.34654,26.1306675 85.37508,38.0480625 C85.08213,41.6390625 84.0657825,44.9654625 82.512675,47.8392075" id="Path" stroke="#40404B" stroke-linecap="round" stroke-linejoin="round"></path>
                    <path d="M67.5556875,31.9575375 C67.6946025,30.6695025 68.28003,29.6763075 68.863095,29.73915 C69.44616,29.8019925 69.8057325,30.89772 69.666345,32.1852825 C69.5269575,33.472845 68.94153,34.4665125 68.3589375,34.4031975 C67.776345,34.3398825 67.4163,33.2451 67.5556875,31.9575375 Z" id="Path" fill="#40404B"></path>
                    <path d="M59.53878,33.0367275 C59.0762025,35.0306775 57.79431,37.3090725 56.26341,38.5177275" id="Path" stroke="#40404B" stroke-linecap="round" stroke-linejoin="round"></path>
                    <path d="M63.2772,45.444105 C63.2772,44.2742458 64.2255583,43.3258875 65.3954175,43.3258875 C66.5652767,43.3258875 67.513635,44.2742458 67.513635,45.444105 C67.513635,46.6139642 66.5652767,47.5623225 65.3954175,47.5623225 C64.2256663,47.5620617 63.2774608,46.6138562 63.2772,45.444105 L63.2772,45.444105 Z" id="Path" stroke="#40404B" stroke-linecap="round" stroke-linejoin="round"></path>
                    <path d="M80.991225,39.560535 C79.7121675,39.4693425 76.0408425,34.2312075 79.80714,30.630285 C77.9591925,28.83006 67.088385,20.6931375 54.0280125,25.7394375 C52.331265,24.0138675 47.69982,17.0756775 51.6976425,14.08428 C55.695465,11.0928825 57.36528,14.7103425 57.88314,16.14816 C56.67543,12.352095 57.3553575,2.14137 67.52214,2.02812137 C77.6889225,1.915515 88.6197375,31.620645 88.17795,36.95139 C87.7361625,42.282135 87.713955,43.002225 80.991225,39.560535 Z" id="Path" fill="#FF9D52"></path>
                    <path d="M80.54991,15.8424525 C84.39606,23.814945 86.9338575,32.344515 86.7165075,34.9683075 C86.2742475,40.2990525 86.2525125,41.0191425 79.5297825,37.5774525 C78.2511975,37.48626 74.5794,32.248125 78.3456975,28.6472025 C76.8837825,27.222615 69.7707675,21.8295 60.3944775,22.1418225" id="Path" stroke="#40404B" stroke-linecap="round" stroke-linejoin="round"></path>
                    <path d="M52.56657,23.7568275 C50.8698225,22.0312575 46.2383775,15.0930675 50.2362,12.10167 C54.2340225,9.1102725 55.9062,12.72726 56.4216975,14.16555 C55.2139875,10.3690125 55.8943875,0.15876 66.0606975,0.04536 C68.6121975,0.01701 71.214255,1.8687375 73.671255,4.74201" id="Path" stroke="#40404B" stroke-linecap="round" stroke-linejoin="round"></path>
                    <path d="M78.0867675,42.091245 C78.0867675,39.5190161 80.1719711,37.4338125 82.7442,37.4338125 C85.3164289,37.4338125 87.4016325,39.5190161 87.4016325,42.091245 C87.4016325,44.6634739 85.3164289,46.7486775 82.7442,46.7486775 C80.1719711,46.7486775 78.0867675,44.6634739 78.0867675,42.091245 Z" id="Path" fill="#FFFFFF"></path>
                    <path d="M80.3755575,37.22922 C82.3633264,36.314774 84.7196276,36.9072919 86.0384189,38.6532089 C87.3572103,40.3991258 87.2828721,42.8276453 85.8597631,44.4896313 C84.4366541,46.1516173 82.0485239,46.5989057 80.1204075,45.5645925" id="Path" stroke="#40404B" stroke-linecap="round" stroke-linejoin="round"></path>
                </g>
            </g>
        </g>
    </g>
</svg>
