<?xml version="1.0" encoding="UTF-8"?>

<svg width="152" height="142" viewBox="0 0 152 142" fill="none" xmlns="http://www.w3.org/2000/svg">
<path fill-rule="evenodd" clip-rule="evenodd" d="M10.8752 74.2275C10.8752 37.6159 40.5549 7.93579 77.167 7.93579C113.779 7.93579 143.459 37.6149 143.459 74.2275C143.459 110.84 113.779 140.519 77.167 140.519C40.5549 140.519 10.8752 110.839 10.8752 74.2275Z" fill="#F7F8FB"/>
<path fill-rule="evenodd" clip-rule="evenodd" d="M15.2737 97.4496C17.1391 95.7273 23.6842 89.72 25.0388 89.1076C26.3935 88.4952 42.1036 106.021 40.552 107.275C39.0003 108.529 30.7882 116.092 27.7 118.015C21.531 111.3 17.2416 103.59 15.2737 97.4496Z" fill="white"/>
<path d="M14.6458 95.9252C16.5112 94.203 22.8247 88.3794 24.1813 87.7671C25.5378 87.1547 41.3609 105.977 39.8092 107.231C38.2575 108.484 30.0218 116.523 27.588 118.064" stroke="#40404B" stroke-linecap="round" stroke-linejoin="round"/>
<path fill-rule="evenodd" clip-rule="evenodd" d="M55.9707 77.6537C64.9727 91.3449 42.8645 108.527 39.4804 109.514C36.0964 110.501 21.5254 90.5388 22.5805 87.9098C23.6356 85.2808 45.0999 61.1205 55.9707 77.6537Z" fill="#5567D5"/>
<path d="M32.8985 75.063C40.046 70.1046 48.9418 67.2436 54.7809 76.1242C63.783 89.8154 41.6747 106.997 38.2907 107.984C34.9066 108.971 20.3357 89.0069 21.3912 86.3803C21.5958 85.8719 22.5654 84.555 24.0755 82.8838" stroke="#40404B" stroke-linecap="round" stroke-linejoin="round"/>
<path fill-rule="evenodd" clip-rule="evenodd" d="M74.0579 66.0415C63.9185 65.9806 53.9417 67.9316 49.0244 71.7517C41.0391 77.9566 35.7282 116.312 38.0184 127.726C48.988 135.767 62.5199 140.518 77.1631 140.518C88.7229 140.518 99.5894 137.555 109.051 132.354C110.726 118.102 106.598 77.3593 100.068 72.4028C94.5001 68.1763 84.1977 66.1025 74.0579 66.0415Z" fill="#5567D5"/>
<path d="M39.9963 88.0998C41.9175 79.6656 44.4898 72.632 47.5374 70.2648C57.3721 62.6245 87.4448 62.4619 98.5802 70.9149C105.508 76.1748 110.04 121.795 107.196 133.174" stroke="#40404B" stroke-linecap="round" stroke-linejoin="round"/>
<path d="M36.5651 126.428C36.1053 123.524 36.0765 118.815 36.4233 113.314" stroke="#40404B" stroke-linecap="round" stroke-linejoin="round"/>
<path fill-rule="evenodd" clip-rule="evenodd" d="M116.668 128.055C115.255 126.643 105.517 113.361 104.42 112.11C103.323 110.86 124.143 93.5954 125.423 95.105C126.704 96.6147 131.838 103.799 134.231 107.749C132.308 111.216 121.671 124.641 116.668 128.055Z" fill="white"/>
<path d="M117.141 127.003C115.959 125.392 105.405 110.852 104.307 109.602C103.21 108.351 124.031 91.0869 125.311 92.5965C126.592 94.1061 132.724 102.499 134.837 106.606" stroke="#40404B" stroke-linecap="round" stroke-linejoin="round"/>
<path fill-rule="evenodd" clip-rule="evenodd" d="M94.2947 70.363C104.808 63.1489 130.184 87.9253 130.121 95.311C130.057 102.697 107.495 116.117 103.737 114.179C99.5947 112.045 78.1621 81.4261 94.2947 70.363Z" fill="#5567D5"/>
<path d="M87.9593 86.4866C86.5418 79.6193 87.4519 73.0317 93.3047 69.0178C103.82 61.8055 129.194 86.5815 129.13 93.9691C129.066 101.357 106.505 114.775 102.747 112.837C101.544 112.217 98.884 109.196 96.109 104.95" stroke="#40404B" stroke-linecap="round" stroke-linejoin="round"/>
<path fill-rule="evenodd" clip-rule="evenodd" d="M10.8752 74.2275C10.8752 37.6159 40.5549 7.93579 77.167 7.93579C113.779 7.93579 143.459 37.6149 143.459 74.2275C143.459 110.84 113.779 140.519 77.167 140.519C40.5549 140.519 10.8752 110.839 10.8752 74.2275Z" stroke="#40404B" stroke-linecap="round" stroke-linejoin="round"/>
<path fill-rule="evenodd" clip-rule="evenodd" d="M134.15 85.2609C134.216 83.3562 137.927 82.5837 142.44 83.5348C146.954 84.486 150.56 86.8008 150.495 88.7049C150.43 90.6091 146.718 91.3817 142.205 90.4305C137.691 89.4794 134.084 87.1651 134.15 85.2609Z" fill="#F7F8FB"/>
<path fill-rule="evenodd" clip-rule="evenodd" d="M135.489 77.9754C135.554 76.0712 139.266 75.2982 143.779 76.2494C148.292 77.2005 151.899 79.5153 151.834 81.4195C151.769 83.3236 148.057 84.0966 143.543 83.1455C139.03 82.1944 135.426 79.8796 135.489 77.9754Z" fill="#F7F8FB"/>
<path fill-rule="evenodd" clip-rule="evenodd" d="M135.316 70.4461C135.381 68.542 139.093 67.7694 143.607 68.7201C148.12 69.6708 151.726 71.986 151.661 73.8902C151.596 75.7944 147.884 76.5674 143.37 75.6162C138.857 74.6651 135.251 72.3503 135.316 70.4461Z" fill="#F7F8FB"/>
<path d="M137.171 67.683C138.654 67.409 140.64 67.4676 142.811 67.925C147.324 68.8761 150.93 71.1909 150.865 73.0951C150.821 74.3807 149.115 75.1509 146.621 75.2213" stroke="#40404B" stroke-linecap="round" stroke-linejoin="round"/>
<path d="M136.059 75.5865C137.546 74.9425 140.102 74.8466 142.984 75.4542C147.497 76.4054 151.103 78.7201 151.038 80.6243C150.991 82.0125 149.006 82.7978 146.182 82.7553" stroke="#40404B" stroke-linecap="round" stroke-linejoin="round"/>
<path d="M136.985 82.3706C138.316 82.2648 139.921 82.3768 141.643 82.7396C146.157 83.6908 149.763 86.0051 149.698 87.9097C149.657 89.0995 148.192 89.847 145.997 90.0095" stroke="#40404B" stroke-linecap="round" stroke-linejoin="round"/>
<path fill-rule="evenodd" clip-rule="evenodd" d="M2.27101 73.2103C2.33622 71.3061 6.04818 70.5335 10.5615 71.4847C15.0748 72.4358 18.6809 74.7501 18.6157 76.6548C18.5505 78.5594 14.839 79.3315 10.3252 78.3803C5.81146 77.4292 2.20581 75.1144 2.27101 73.2103Z" fill="#F7F8FB"/>
<path fill-rule="evenodd" clip-rule="evenodd" d="M3.61098 65.9249C3.67618 64.0207 7.38814 63.2481 11.9015 64.1993C16.4148 65.1504 20.0209 67.4652 19.9557 69.3708C19.8905 71.2764 16.179 72.0475 11.6657 71.0964C7.15237 70.1452 3.54577 67.8295 3.61098 65.9249Z" fill="#F7F8FB"/>
<path fill-rule="evenodd" clip-rule="evenodd" d="M3.43811 58.3956C3.50332 56.4914 7.21528 55.7188 11.7286 56.67C16.2419 57.6211 19.848 59.9359 19.7828 61.8401C19.7176 63.7443 16.0061 64.5168 11.4928 63.5657C6.9795 62.6145 3.37338 60.2988 3.43811 58.3956Z" fill="#F7F8FB"/>
<path d="M4.37225 60.1963C2.9831 59.2796 2.14536 58.2552 2.17701 57.3287C2.24222 55.4245 5.95418 54.652 10.4675 55.6031C12.4893 56.0283 14.3288 56.7286 15.7382 57.5403" stroke="#40404B" stroke-linecap="round" stroke-linejoin="round"/>
<path d="M6.28296 68.6823C3.88928 67.5743 2.3064 66.1251 2.34987 64.8579C2.41508 62.9537 6.12704 62.1812 10.6404 63.1318C12.5209 63.5283 14.2441 64.1614 15.6096 64.9028" stroke="#40404B" stroke-linecap="round" stroke-linejoin="round"/>
<path d="M7.53891 76.9307C3.766 75.8317 0.952258 73.8269 1.0099 72.1429C1.07511 70.2387 4.78707 69.4657 9.30039 70.4168C11.9402 70.9734 14.2701 71.9959 15.7358 73.1304" stroke="#40404B" stroke-linecap="round" stroke-linejoin="round"/>
<path fill-rule="evenodd" clip-rule="evenodd" d="M84.2015 51.4748C83.772 53.9195 81.7917 63.7631 83.3094 74.4331C81.5588 75.7561 71.3514 76.712 68.5438 74.4331C68.643 70.1055 68.7418 61.4507 68.3458 59.2375C67.9499 57.0243 84.6324 49.0306 84.2015 51.4748Z" fill="white"/>
<path d="M67.3975 73.0138C67.4963 68.6861 67.5955 60.0314 67.1991 57.8182C66.8027 55.605 83.4843 47.6122 83.0553 50.0555C82.6262 52.4988 80.6455 62.3438 82.1632 73.0138C81.3708 73.6115 78.8462 74.135 76.0589 74.3179" stroke="#40404B" stroke-linecap="round" stroke-linejoin="round"/>
<path fill-rule="evenodd" clip-rule="evenodd" d="M50.8681 37.3103C51.8395 25.3929 60.7835 16.3837 70.8444 17.1874C80.9054 17.9912 88.2745 28.3035 87.3025 40.2209C86.3306 52.1383 77.3871 61.1493 67.3262 60.3461C57.2653 59.5428 49.8961 49.2277 50.8681 37.3103Z" fill="white"/>
<path d="M76.9459 56.2574C73.8349 58.3794 70.1957 59.4742 66.3978 59.1708C61.7125 58.7966 57.6093 56.3599 54.6637 52.6598" stroke="#40404B" stroke-linecap="round" stroke-linejoin="round"/>
<path d="M50.7543 44.8976C49.9935 42.1745 49.6897 39.2091 49.9401 36.1374C50.9116 24.22 59.8556 15.2109 69.917 16.0146C79.9784 16.8183 87.3466 27.1306 86.3751 39.048C86.0821 42.639 85.0658 45.9654 83.5127 48.8392" stroke="#40404B" stroke-linecap="round" stroke-linejoin="round"/>
<path fill-rule="evenodd" clip-rule="evenodd" d="M68.5556 32.9575C68.6945 31.6695 69.28 30.6763 69.863 30.7392C70.4461 30.802 70.8057 31.8977 70.6663 33.1853C70.5269 34.4729 69.9415 35.4665 69.3589 35.4032C68.7763 35.3399 68.4162 34.2451 68.5556 32.9575Z" fill="#40404B"/>
<path d="M60.5388 34.0367C60.0762 36.0307 58.7943 38.3091 57.2634 39.5177" stroke="#40404B" stroke-linecap="round" stroke-linejoin="round"/>
<path fill-rule="evenodd" clip-rule="evenodd" d="M64.2772 46.4441C64.2772 45.2743 65.2256 44.3259 66.3954 44.3259C67.5653 44.3259 68.5137 45.2743 68.5137 46.4441C68.5137 47.614 67.5653 48.5624 66.3954 48.5624C65.2257 48.5621 64.2775 47.6139 64.2772 46.4441Z" stroke="#40404B" stroke-linecap="round" stroke-linejoin="round"/>
<path fill-rule="evenodd" clip-rule="evenodd" d="M81.9912 40.5606C80.7122 40.4694 77.0408 35.2312 80.8071 31.6303C78.9592 29.8301 68.0884 21.6932 55.028 26.7395C53.3313 25.0139 48.6998 18.0757 52.6976 15.0843C56.6955 12.0929 58.3653 15.7104 58.8831 17.1482C57.6754 13.3521 58.3554 3.1414 68.5221 3.02815C78.6889 2.91554 89.6197 32.6207 89.178 37.9514C88.7362 43.2822 88.714 44.0023 81.9912 40.5606Z" fill="#FF9D52"/>
<path d="M81.5498 16.8424C85.396 24.8149 87.9338 33.3445 87.7164 35.9683C87.2742 41.299 87.2524 42.0191 80.5297 38.5774C79.2511 38.4862 75.5793 33.2481 79.3456 29.6472C77.8837 28.2226 70.7707 22.8295 61.3944 23.1418" stroke="#40404B" stroke-linecap="round" stroke-linejoin="round"/>
<path d="M53.5666 24.7568C51.8698 23.0313 47.2384 16.0931 51.2362 13.1017C55.234 10.1103 56.9062 13.7273 57.4217 15.1656C56.214 11.369 56.8944 1.15876 67.0607 1.04536C69.6122 1.01701 72.2143 2.86874 74.6713 5.74201" stroke="#40404B" stroke-linecap="round" stroke-linejoin="round"/>
<path fill-rule="evenodd" clip-rule="evenodd" d="M79.0868 43.0913C79.0868 40.519 81.172 38.4338 83.7442 38.4338C86.3165 38.4338 88.4017 40.519 88.4017 43.0913C88.4017 45.6635 86.3165 47.7487 83.7442 47.7487C81.172 47.7487 79.0868 45.6635 79.0868 43.0913Z" fill="white"/>
<path d="M81.3755 38.2292C83.3633 37.3148 85.7196 37.9073 87.0384 39.6532C88.3572 41.3991 88.2828 43.8277 86.8597 45.4896C85.4366 47.1516 83.0485 47.5989 81.1204 46.5646" stroke="#40404B" stroke-linecap="round" stroke-linejoin="round"/>
</svg>