<?xml version="1.0" encoding="utf-8"?>
<!-- Generator: Adobe Illustrator 17.0.0, SVG Export Plug-In . SVG Version: 6.00 Build 0)  -->
<!DOCTYPE svg PUBLIC "-//W3C//DTD SVG 1.1//EN" "http://www.w3.org/Graphics/SVG/1.1/DTD/svg11.dtd">
<svg version="1.1" id="Layer_1" xmlns="http://www.w3.org/2000/svg" xmlns:xlink="http://www.w3.org/1999/xlink" x="0px" y="0px"
	 width="24px" height="16px" viewBox="0 0 24 16" enable-background="new 0 0 24 16" xml:space="preserve">
<title>0856BDCB-2B50-45A2-B06E-70AA93C9FCB0</title>
<g id="Project">
	<g id="DevOps-View" transform="translate(-24.000000, -628.000000)">
		<g id="Group" transform="translate(6.000000, 124.000000)">
			<g id="Icon_x2F_Develope-Copy-6" transform="translate(18.000000, 504.000000)">
				<g id="Combined-Shape">
					<path id="path-1_1_" fill="#FFFFFF" d="M18.667,0c1.268,0,2.33,0.885,2.6,2.072l1.906,5.74C23.697,8.637,24,9.617,24,10.667
						C24,13.612,21.612,16,18.667,16c-1.957,0-3.669-1.055-4.596-2.626H9.93C9.002,14.945,7.291,16,5.333,16
						C2.388,16,0,13.612,0,10.667c0-0.982,0.265-1.902,0.728-2.692l2.046-6.06C3.099,0.808,4.122,0,5.333,0
						c0.881,0,1.662,0.427,2.148,1.086L8,1h2c0.308-0.667,0.975-1,2-1s1.692,0.333,2,1h2l0.519,0.086
						C17.005,0.427,17.786,0,18.667,0z M5.333,6.667c-2.209,0-4,1.791-4,4s1.791,4,4,4s4-1.791,4-4S7.542,6.667,5.333,6.667z
						 M18.667,6.667c-2.209,0-4,1.791-4,4s1.791,4,4,4s4-1.791,4-4S20.876,6.667,18.667,6.667z M13.501,9.333h-3.003
						c0.11,0.426,0.168,0.873,0.168,1.334c0,0.475-0.062,0.936-0.179,1.374h3.024c-0.117-0.438-0.179-0.899-0.179-1.374
						C13.333,10.206,13.392,9.759,13.501,9.333z M12.667,4h-1.333l-0.12,0.011c-0.311,0.056-0.547,0.329-0.547,0.656
						c0,0.368,0.298,0.667,0.667,0.667l0,0h1.333l0.12-0.011c0.311-0.056,0.547-0.329,0.547-0.656C13.333,4.299,13.035,4,12.667,4
						L12.667,4z"/>
				</g>
				<defs>
					<filter id="Adobe_OpacityMaskFilter" filterUnits="userSpaceOnUse" x="0" y="-4" width="24" height="24">
						<feColorMatrix  type="matrix" values="1 0 0 0 0  0 1 0 0 0  0 0 1 0 0  0 0 0 1 0"/>
					</filter>
				</defs>
				<mask maskUnits="userSpaceOnUse" x="0" y="-4" width="24" height="24" id="mask-2">
					<g filter="url(#Adobe_OpacityMaskFilter)">
						<path id="path-1" fill="#FFFFFF" d="M18.667,0c1.268,0,2.33,0.885,2.6,2.072l1.906,5.74C23.697,8.637,24,9.617,24,10.667
							C24,13.612,21.612,16,18.667,16c-1.957,0-3.669-1.055-4.596-2.626H9.93C9.002,14.945,7.291,16,5.333,16
							C2.388,16,0,13.612,0,10.667c0-0.982,0.265-1.902,0.728-2.692l2.046-6.06C3.099,0.808,4.122,0,5.333,0
							c0.881,0,1.662,0.427,2.148,1.086L8,1h2c0.308-0.667,0.975-1,2-1s1.692,0.333,2,1h2l0.519,0.086
							C17.005,0.427,17.786,0,18.667,0z M5.333,6.667c-2.209,0-4,1.791-4,4s1.791,4,4,4s4-1.791,4-4S7.542,6.667,5.333,6.667z
							 M18.667,6.667c-2.209,0-4,1.791-4,4s1.791,4,4,4s4-1.791,4-4S20.876,6.667,18.667,6.667z M13.501,9.333h-3.003
							c0.11,0.426,0.168,0.873,0.168,1.334c0,0.475-0.062,0.936-0.179,1.374h3.024c-0.117-0.438-0.179-0.899-0.179-1.374
							C13.333,10.206,13.392,9.759,13.501,9.333z M12.667,4h-1.333l-0.12,0.011c-0.311,0.056-0.547,0.329-0.547,0.656
							c0,0.368,0.298,0.667,0.667,0.667l0,0h1.333l0.12-0.011c0.311-0.056,0.547-0.329,0.547-0.656C13.333,4.299,13.035,4,12.667,4
							L12.667,4z"/>
					</g>
				</mask>
				<rect id="Color" y="-4" mask="url(#mask-2)" fill="#FFFFFF" width="24" height="24"/>
			</g>
		</g>
	</g>
</g>
</svg>
