<?xml version="1.0" encoding="UTF-8"?>
<svg width="24px" height="16px" viewBox="0 0 24 16" version="1.1" xmlns="http://www.w3.org/2000/svg" xmlns:xlink="http://www.w3.org/1999/xlink">
    <title>0856BDCB-2B50-45A2-B06E-70AA93C9FCB0</title>
    <defs>
        <path d="M18.6666667,-4.4408921e-16 C19.9349355,-4.4408921e-16 20.9964127,0.885379926 21.266731,2.07177244 L23.1724884,7.81197331 C23.6965223,8.63737584 24,9.61658075 24,10.6666667 C24,13.6121853 21.6121853,16 18.6666667,16 C16.7092281,16 14.998085,14.9454836 14.070339,13.3735523 L9.92966099,13.3735523 C9.00191503,14.9454836 7.29077194,16 5.33333333,16 C2.38781467,16 0,13.6121853 0,10.6666667 C0,9.68482711 0.265312741,8.76495467 0.728156346,7.97483121 L2.77412151,1.91483154 C3.09871303,0.808141 4.12164746,-4.4408921e-16 5.33333333,-4.4408921e-16 C6.21422361,-4.4408921e-16 6.99535448,0.427120761 7.48092381,1.08556014 L8,1 L10,1 C10.308431,0.333333333 10.9750977,-8.8817842e-16 12,-8.8817842e-16 C13.0249023,-8.8817842e-16 13.691569,0.333333333 14,1 L16,1 L16.5190762,1.08556014 C17.0046455,0.427120761 17.7857764,-4.4408921e-16 18.6666667,-4.4408921e-16 Z M5.33333333,6.66666667 C3.12419433,6.66666667 1.33333333,8.45752767 1.33333333,10.6666667 C1.33333333,12.8758057 3.12419433,14.6666667 5.33333333,14.6666667 C7.54247233,14.6666667 9.33333333,12.8758057 9.33333333,10.6666667 C9.33333333,8.45752767 7.54247233,6.66666667 5.33333333,6.66666667 Z M18.6666667,6.66666667 C16.4575277,6.66666667 14.6666667,8.45752767 14.6666667,10.6666667 C14.6666667,12.8758057 16.4575277,14.6666667 18.6666667,14.6666667 C20.8758057,14.6666667 22.6666667,12.8758057 22.6666667,10.6666667 C22.6666667,8.45752767 20.8758057,6.66666667 18.6666667,6.66666667 Z M13.5014988,9.3327812 L10.4985012,9.3327812 C10.6082789,9.75910733 10.6666667,10.2060684 10.6666667,10.6666667 C10.6666667,11.1417037 10.6045609,11.6022352 10.488026,12.0405845 L13.511974,12.0405845 C13.3954391,11.6022352 13.3333333,11.1417037 13.3333333,10.6666667 C13.3333333,10.2060684 13.3917211,9.75910733 13.5014988,9.3327812 Z M12.6666667,4.00044759 L11.3333333,4.00044759 L11.2134992,4.01118848 C10.9025002,4.06763643 10.6666667,4.33983441 10.6666667,4.66711426 C10.6666667,5.03530409 10.9651435,5.33378092 11.3333333,5.33378092 L11.3333333,5.33378092 L12.6666667,5.33378092 L12.7865008,5.32304003 C13.0974998,5.26659208 13.3333333,4.99439411 13.3333333,4.66711426 C13.3333333,4.29892442 13.0348565,4.00044759 12.6666667,4.00044759 L12.6666667,4.00044759 Z" id="path-1"></path>
    </defs>
    <g id="Project" stroke="none" stroke-width="1" fill="none" fill-rule="evenodd">
        <g id="DevOps-View" transform="translate(-24.000000, -628.000000)">
            <g id="Group" transform="translate(6.000000, 124.000000)">
                <g id="Icon/Develope-Copy-6" transform="translate(18.000000, 504.000000)">
                    <mask id="mask-2" fill="white">
                        <use xlink:href="#path-1"></use>
                    </mask>
                    <use id="Combined-Shape" fill="#1D1D27" fill-rule="nonzero" xlink:href="#path-1"></use>
                    <rect id="Color" fill="#40404B" fill-rule="nonzero" mask="url(#mask-2)" x="0" y="-4" width="24" height="24"></rect>
                </g>
            </g>
        </g>
    </g>
</svg>