<?xml version="1.0" encoding="UTF-8"?>
<svg width="80px" height="80px" viewBox="0 0 80 80" version="1.1" xmlns="http://www.w3.org/2000/svg" xmlns:xlink="http://www.w3.org/1999/xlink">
    <title>25F64BF3-357D-4274-944E-8C27622D8E69</title>
    <defs>
        <linearGradient x1="100%" y1="-16.2862778%" x2="-28.1136036%" y2="137.891006%" id="linearGradient-1">
            <stop stop-color="#5567D5" offset="0%"></stop>
            <stop stop-color="#7148CF" offset="44.714031%"></stop>
            <stop stop-color="#BB43B2" offset="78.0206527%"></stop>
            <stop stop-color="#ED477D" offset="100%"></stop>
        </linearGradient>
    </defs>
    <g id="Settings" stroke="none" stroke-width="1" fill="none" fill-rule="evenodd">
        <g id="apps-preferences-org-groups" transform="translate(-232.000000, -184.000000)">
            <g id="Avatar/32-deafult" transform="translate(232.000000, 184.000000)">
                <path d="M40,0 C62.0320856,0 80,17.9679144 80,40 C80,62.0320856 62.0320856,80 40,80 C17.9679144,80 0,62.0320856 0,40 C0,17.9679144 17.9679144,0 40,0 Z" id="Path" fill="url(#linearGradient-1)" opacity="0.197351"></path>
                <path d="M17.5,48.75 C20.9517797,48.75 23.75,51.5482203 23.75,55 C23.75,58.4517797 20.9517797,61.25 17.5,61.25 C14.0482203,61.25 11.25,58.4517797 11.25,55 C11.25,51.5482203 14.0482203,48.75 17.5,48.75 Z M62.5,48.75 C65.9517797,48.75 68.75,51.5482203 68.75,55 C68.75,58.4517797 65.9517797,61.25 62.5,61.25 C59.0482203,61.25 56.25,58.4517797 56.25,55 C56.25,51.5482203 59.0482203,48.75 62.5,48.75 Z M17.5,51.25 C15.4289322,51.25 13.75,52.9289322 13.75,55 C13.75,57.0710678 15.4289322,58.75 17.5,58.75 C19.5710678,58.75 21.25,57.0710678 21.25,55 C21.25,52.9289322 19.5710678,51.25 17.5,51.25 Z M62.5,51.25 C60.4289322,51.25 58.75,52.9289322 58.75,55 C58.75,57.0710678 60.4289322,58.75 62.5,58.75 C64.5710678,58.75 66.25,57.0710678 66.25,55 C66.25,52.9289322 64.5710678,51.25 62.5,51.25 Z M40,21.3005229 C40.6136497,21.3005229 41.1240209,21.7427108 41.2298608,22.3258339 L41.25,22.5505229 L41.25,26.25 L41.2476295,26.3058404 C48.2568866,26.9362616 53.75,32.8266381 53.75,40 C53.75,42.3740561 53.1483346,44.6075858 52.0891678,46.5564249 L55.6933752,48.9599371 C56.2677861,49.3428777 56.4230034,50.1189644 56.0400629,50.6933752 C55.6996712,51.2039627 55.0486457,51.3833355 54.5047486,51.1479411 L54.3066248,51.0400629 L50.7004536,48.6357184 C48.1798067,51.7551187 44.3228681,53.75 40,53.75 C35.6771319,53.75 31.8201933,51.7551187 29.2995464,48.6357184 L25.6933752,51.0400629 L25.4952514,51.1479411 C24.9513543,51.3833355 24.3003288,51.2039627 23.9599371,50.6933752 C23.5769966,50.1189644 23.7322139,49.3428777 24.3066248,48.9599371 L24.3066248,48.9599371 L27.9108322,46.5564249 C26.8516654,44.6075858 26.25,42.3740561 26.25,40 C26.25,32.8256116 31.7446858,26.9345757 38.7553798,26.30557 L38.75,26.25 L38.75,22.5505229 C38.75,21.860167 39.3096441,21.3005229 40,21.3005229 Z M40,28.75 C33.7867966,28.75 28.75,33.7867966 28.75,40 C28.75,46.2132034 33.7867966,51.25 40,51.25 C46.2132034,51.25 51.25,46.2132034 51.25,40 C51.25,33.7867966 46.2132034,28.75 40,28.75 Z M40,6.25 C43.4517797,6.25 46.25,9.04822031 46.25,12.5 C46.25,15.9517797 43.4517797,18.75 40,18.75 C36.5482203,18.75 33.75,15.9517797 33.75,12.5 C33.75,9.04822031 36.5482203,6.25 40,6.25 Z M40,8.75 C37.9289322,8.75 36.25,10.4289322 36.25,12.5 C36.25,14.5710678 37.9289322,16.25 40,16.25 C42.0710678,16.25 43.75,14.5710678 43.75,12.5 C43.75,10.4289322 42.0710678,8.75 40,8.75 Z" id="Combined-Shape" fill="#FFFFFF" fill-rule="nonzero"></path>
            </g>
        </g>
    </g>
</svg>
