<svg width="48" height="48" viewBox="0 0 48 48" fill="none" xmlns="http://www.w3.org/2000/svg">
<g clip-path="url(#clip0_779_35357)">
<path opacity="0.4" fill-rule="evenodd" clip-rule="evenodd" d="M24 0C37.2193 0 48 10.7807 48 24C48 37.2193 37.2193 48 24 48C10.7807 48 0 37.2193 0 24C0 10.7807 10.7807 0 24 0Z" fill="url(#paint0_linear_779_35357)"/>
<path fill-rule="evenodd" clip-rule="evenodd" d="M24.5001 7.44336L38.0885 15.2887C38.3912 15.4634 38.5802 15.7831 38.5883 16.1314C38.4371 15.9927 38.2093 15.9565 38.0174 16.0575L32.3174 19.0575C32.073 19.1861 31.9792 19.4885 32.1078 19.7328C32.2364 19.9772 32.5387 20.071 32.7831 19.9424L38.4831 16.9424C38.5222 16.9218 38.5574 16.8968 38.5885 16.8683V31.8453C38.5885 32.2026 38.3979 32.5327 38.0885 32.7113L24.5001 40.5566L24.4968 40.5585C24.4991 40.5393 24.5002 40.5197 24.5002 40.5V33.75C24.5002 33.4738 24.2764 33.25 24.0002 33.25C23.7241 33.25 23.5002 33.4738 23.5002 33.75V40.5C23.5002 40.5198 23.5014 40.5394 23.5036 40.5587L23.5001 40.5566L9.91162 32.7113C9.60222 32.5327 9.41162 32.2026 9.41162 31.8453V16.868C9.44279 16.8966 9.47813 16.9218 9.51736 16.9424L15.2174 19.9424C15.4617 20.071 15.7641 19.9772 15.8927 19.7328C16.0213 19.4885 15.9275 19.1861 15.6831 19.0575L9.9831 16.0575C9.79101 15.9564 9.56308 15.9928 9.41189 16.1316C9.41989 15.7833 9.60889 15.4634 9.91162 15.2887L23.5001 7.44336C23.8095 7.26473 24.1907 7.26473 24.5001 7.44336ZM23.0001 6.57734C23.6189 6.22007 24.3813 6.22007 25.0001 6.57734L38.5885 14.4226C39.2073 14.7799 39.5885 15.4402 39.5885 16.1547V31.8453C39.5885 32.5598 39.2073 33.2201 38.5885 33.5773L25.0001 41.4226C24.3813 41.7799 23.6189 41.7799 23.0001 41.4226L9.41162 33.5773C8.79282 33.2201 8.41162 32.5598 8.41162 31.8453V16.1547C8.41162 15.4402 8.79282 14.7799 9.41162 14.4226L23.0001 6.57734ZM24.0001 17.6547L29.4953 20.8273V27.1726L24.0001 30.3453L18.5049 27.1726V20.8273L24.0001 17.6547ZM23.5001 16.7887C23.8095 16.61 24.1907 16.61 24.5001 16.7887L29.9953 19.9613C30.3047 20.1399 30.4953 20.4701 30.4953 20.8273V27.1726C30.4953 27.5299 30.3047 27.86 29.9953 28.0387L24.5001 31.2113C24.1907 31.3899 23.8095 31.3899 23.5001 31.2113L18.0049 28.0387C17.6955 27.86 17.5049 27.5299 17.5049 27.1726V20.8273C17.5049 20.4701 17.6955 20.1399 18.0049 19.9613L23.5001 16.7887ZM24.0001 24.75C24.4143 24.75 24.7501 24.4142 24.7501 24C24.7501 23.5858 24.4143 23.25 24.0001 23.25C23.5859 23.25 23.2501 23.5858 23.2501 24C23.2501 24.4142 23.5859 24.75 24.0001 24.75Z" fill="white"/>
</g>
<defs>
<linearGradient id="paint0_linear_779_35357" x1="18.8669" y1="-8.12439" x2="24" y2="60.1031" gradientUnits="userSpaceOnUse">
<stop stop-color="#ED477D"/>
<stop offset="0.664273" stop-color="#7148CF"/>
<stop offset="1" stop-color="#5567D5"/>
</linearGradient>
<clipPath id="clip0_779_35357">
<rect width="48" height="48" fill="white"/>
</clipPath>
</defs>
</svg>
