<svg width="48" height="48" viewBox="0 0 48 48" fill="none" xmlns="http://www.w3.org/2000/svg">
    <rect width="48" height="48" rx="24" fill="#F7F8FB" />
    <g clip-path="url(#clip0_523_5638)">
        <path fill-rule="evenodd" clip-rule="evenodd"
            d="M15.0731 26.0013C12.864 22.175 14.175 17.2823 18.0013 15.0731C21.7632 12.9012 26.5559 14.1318 28.8157 17.8102V15.6895C28.8157 15.4292 29.0068 15.2127 29.2589 15.1678L29.356 15.1593C29.6213 15.1593 29.8419 15.3468 29.8877 15.5942L29.8964 15.6895V19.4006H26.1139C25.8155 19.4006 25.5736 19.1632 25.5736 18.8704C25.5736 18.6101 25.7647 18.3937 26.0168 18.3488L26.1139 18.3402L27.8898 18.3409C25.9242 15.1749 21.7854 14.1201 18.5347 15.9969C15.2185 17.9115 14.0823 22.1518 15.9969 25.468C17.9115 28.7842 22.1518 29.9204 25.468 28.0058C27.2522 26.9757 28.4566 25.2375 28.8215 23.2498C28.8747 22.9601 29.1527 22.7683 29.4424 22.8215C29.7321 22.8747 29.9238 23.1527 29.8706 23.4424C29.4498 25.7344 28.0592 27.7414 26.0013 28.9296C22.175 31.1387 17.2823 29.8277 15.0731 26.0013ZM22.3964 18C22.3964 17.7238 22.1725 17.5 21.8964 17.5C21.6202 17.5 21.3964 17.7238 21.3964 18V24V24.5H21.8964H24.8964C25.1725 24.5 25.3964 24.2761 25.3964 24C25.3964 23.7238 25.1725 23.5 24.8964 23.5H22.3964V18Z"
            fill="#5567D5" />
    </g>
    <defs>
        <clipPath id="clip0_523_5638">
            <rect width="20" height="20" fill="white" transform="translate(14 14)" />
        </clipPath>
    </defs>
</svg>