<?xml version="1.0" encoding="UTF-8"?>

<!-- 
~    Copyright (c) 2021, WSO2 Inc. (http://www.wso2.com). All Rights Reserved.
~   
~    This software is the property of WSO2 Inc. and its suppliers, if any. 
~    Dissemination of any information or reproduction of any material contained 
~    herein in any form is strictly forbidden, unless permitted by WSO2 expressly. 
~    You may not alter or remove any copyright or other notice from copies of this content."
-->

<svg width="14px" height="16px" viewBox="0 0 14 16" version="1.1" xmlns="http://www.w3.org/2000/svg" xmlns:xlink="http://www.w3.org/1999/xlink">
    <title>3CE66230-1F53-4921-A601-53A177D661DB</title>
    <g id="Settings" stroke="none" stroke-width="1" fill="none" fill-rule="evenodd">
        <g id="onprem-keys-listing" transform="translate(-1021.000000, -288.000000)" fill="#5567D5" fill-rule="nonzero">
            <g id="Button/Pill/32-with-icon/Default-Copy" transform="translate(1012.000000, 280.000000)">
                <g id="Icon/Clear" transform="translate(9.000000, 8.000000)">
                    <path d="M9.19485773,0.481233009 C9.34897333,0.672279968 9.33948503,0.942226994 9.18452317,1.12162696 L9.11962881,1.18432661 L7.46621203,2.5164624 C10.838463,2.75545762 13.5,5.56691117 13.5,9 C13.5,12.5898509 10.5898509,15.5 7,15.5 C3.41014913,15.5 0.5,12.5898509 0.5,9 C0.5,8.72385763 0.723857625,8.5 1,8.5 C1.27614237,8.5 1.5,8.72385763 1.5,9 C1.5,12.0375661 3.96243388,14.5 7,14.5 C10.0375661,14.5 12.5,12.0375661 12.5,9 C12.5,5.99562216 10.091081,3.5538775 7.09935642,3.50087941 L8.67260356,5.4438246 C8.82707647,5.63458276 8.81809346,5.90454707 8.66346766,6.08423677 L8.59869077,6.14705777 C8.40793261,6.30153069 8.1379683,6.29254767 7.9582786,6.13792187 L7.8954576,6.07314499 L5.35522431,2.93621812 L8.49176413,0.406004087 C8.70669196,0.232624044 9.02147769,0.266305179 9.19485773,0.481233009 Z" id="Combined-Shape"></path>
                </g>
            </g>
        </g>
    </g>
</svg>