<svg width="16" height="16" viewBox="0 0 16 16" fill="none" xmlns="http://www.w3.org/2000/svg">
<path fill-rule="evenodd" clip-rule="evenodd" d="M5.5 3.25C5.5 2.83579 5.16421 2.5 4.75 2.5C4.33579 2.5 4 2.83579 4 3.25V5.25V6.5V7.5C4 7.77614 3.77614 8 3.5 8C3.22386 8 3 7.77614 3 7.5V6.5V5.25C3 4.83579 2.66421 4.5 2.25 4.5C1.83579 4.5 1.5 4.83579 1.5 5.25V9.28571V10V11.2155C1.5 11.5525 1.56793 11.881 1.69505 12.1836L0.948681 12.93C0.658327 12.4132 0.5 11.8242 0.5 11.2155V10V9.28571V5.25C0.5 4.2835 1.2835 3.5 2.25 3.5C2.5184 3.5 2.77269 3.56042 3 3.66841V3.25C3 2.2835 3.7835 1.5 4.75 1.5C5.01912 1.5 5.27405 1.56075 5.50183 1.66928C5.54401 0.74025 6.31056 0 7.25 0C8.18945 0 8.956 0.740254 8.99817 1.66928C9.22595 1.56075 9.48088 1.5 9.75 1.5C10.4607 1.5 11.0725 1.92365 11.3465 2.53219L10.5 3.37868V3.25C10.5 2.83579 10.1642 2.5 9.75 2.5C9.33579 2.5 9 2.83579 9 3.25V4.87868L8 5.87868V5.5V3.25V1.75C8 1.33579 7.66421 1 7.25 1C6.83579 1 6.5 1.33579 6.5 1.75V3.25V7V7.37868L5.89067 7.98801C5.66711 7.93815 5.5 7.73859 5.5 7.5V7V3.25ZM3.87548 14.2458C4.12207 14.4112 4.41277 14.5 4.71087 14.5H7.69565H9.49173C10.1659 14.5 10.8148 14.2431 11.3064 13.7817L14.0948 11.164C14.3074 10.9644 14.3932 10.6642 14.3181 10.3825C14.1886 9.89606 13.6443 9.65216 13.195 9.87924L11.33 10.822C10.9496 11.0143 10.5 10.7378 10.5 10.3115V8.5V7.62132L11.5 6.62132V7V8.5V9.61557L12.7439 8.98678C13.7601 8.47311 14.9914 9.02484 15.2844 10.1251C15.4542 10.7625 15.2601 11.4416 14.7792 11.8931L11.9908 14.5108C11.3139 15.1463 10.4202 15.5 9.49173 15.5H7.69565H4.71087C4.16939 15.5 3.64254 15.3242 3.20956 14.999L3.15973 14.9616L3.87548 14.2458Z" fill="#FE523C"/>
<path d="M1 15L15 1" stroke="#FE523C" stroke-linecap="round"/>
</svg>
