<?xml version="1.0" encoding="UTF-8"?>
<svg xmlns="http://www.w3.org/2000/svg" xmlns:xlink="http://www.w3.org/1999/xlink" viewBox="0 0 45 45" width="45px" height="45px">
<g id="surface158193">
<path style=" stroke:none;fill-rule:nonzero;fill:rgb(33.333334%,40.392157%,83.529413%);fill-opacity:1;" d="M 22.5 1.800781 C 11.078125 1.800781 1.800781 11.078125 1.800781 22.5 C 1.800781 33.921875 11.078125 43.199219 22.5 43.199219 C 33.921875 43.199219 43.199219 33.921875 43.199219 22.5 C 43.199219 11.078125 33.921875 1.800781 22.5 1.800781 Z M 22.5 3.601562 C 32.949219 3.601562 41.398438 12.050781 41.398438 22.5 C 41.398438 32.949219 32.949219 41.398438 22.5 41.398438 C 12.050781 41.398438 3.601562 32.949219 3.601562 22.5 C 3.601562 12.050781 12.050781 3.601562 22.5 3.601562 Z M 21.601562 11.699219 L 21.601562 21.601562 L 11.699219 21.601562 L 11.699219 23.398438 L 21.601562 23.398438 L 21.601562 33.300781 L 23.398438 33.300781 L 23.398438 23.398438 L 33.300781 23.398438 L 33.300781 21.601562 L 23.398438 21.601562 L 23.398438 11.699219 Z M 21.601562 11.699219 "/>
</g>
</svg>
