<?xml version="1.0" encoding="utf-8"?>
<!-- Generator: Adobe Illustrator 17.0.0, SVG Export Plug-In . SVG Version: 6.00 Build 0)  -->
<!DOCTYPE svg PUBLIC "-//W3C//DTD SVG 1.1//EN" "http://www.w3.org/Graphics/SVG/1.1/DTD/svg11.dtd">
<svg version="1.1" id="Layer_1" xmlns="http://www.w3.org/2000/svg" xmlns:xlink="http://www.w3.org/1999/xlink" x="0px" y="0px"
	 width="18px" height="24px" viewBox="0 0 18 24" enable-background="new 0 0 18 24" xml:space="preserve">
<title>5F38675C-53A1-478A-9DA6-02BABDDCFE4F</title>
<g id="Project">
	<g id="DevOps-View" transform="translate(-27.000000, -424.000000)">
		<g id="Group" transform="translate(6.000000, 124.000000)">
			<g id="Icon_x2F_Develope-Copy-5" transform="translate(21.000000, 300.000000)">
				<g id="Combined-Shape">
					<path id="path-1_1_" fill="#FFFFFF" d="M12.592,5.526c0.397,0,0.718,0.318,0.718,0.711c0,0.349-0.254,0.639-0.589,0.699
						l-0.129,0.011l-0.712,0l-0.006,4.264l5.643,8.371c0.88,1.306,0.524,3.071-0.797,3.941C16.248,23.834,15.693,24,15.126,24H2.874
						C1.287,24,0,22.728,0,21.158c0-0.561,0.168-1.11,0.483-1.577l5.643-8.371l0.013-4.264l-0.732,0
						c-0.397,0-0.718-0.318-0.718-0.711c0-0.349,0.254-0.639,0.589-0.699l0.129-0.011H12.592z M10.443,6.947H7.576l-0.014,4.695
						l-2.584,3.83h8.043l-2.585-3.833L10.443,6.947z M7.126,1.421c0.794,0,1.437,0.636,1.437,1.421S7.919,4.263,7.126,4.263
						S5.689,3.627,5.689,2.842S6.332,1.421,7.126,1.421z M11.155,0c0.397,0,0.718,0.318,0.718,0.711s-0.322,0.711-0.718,0.711
						s-0.718-0.318-0.718-0.711S10.759,0,11.155,0z"/>
				</g>
				<defs>
					<filter id="Adobe_OpacityMaskFilter" filterUnits="userSpaceOnUse" x="-3" y="0" width="24" height="24">
						<feColorMatrix  type="matrix" values="1 0 0 0 0  0 1 0 0 0  0 0 1 0 0  0 0 0 1 0"/>
					</filter>
				</defs>
				<mask maskUnits="userSpaceOnUse" x="-3" y="0" width="24" height="24" id="mask-2">
					<g filter="url(#Adobe_OpacityMaskFilter)">
						<path id="path-1" fill="#FFFFFF" d="M12.592,5.526c0.397,0,0.718,0.318,0.718,0.711c0,0.349-0.254,0.639-0.589,0.699
							l-0.129,0.011l-0.712,0l-0.006,4.264l5.643,8.371c0.88,1.306,0.524,3.071-0.797,3.941C16.248,23.834,15.693,24,15.126,24
							H2.874C1.287,24,0,22.728,0,21.158c0-0.561,0.168-1.11,0.483-1.577l5.643-8.371l0.013-4.264l-0.732,0
							c-0.397,0-0.718-0.318-0.718-0.711c0-0.349,0.254-0.639,0.589-0.699l0.129-0.011H12.592z M10.443,6.947H7.576l-0.014,4.695
							l-2.584,3.83h8.043l-2.585-3.833L10.443,6.947z M7.126,1.421c0.794,0,1.437,0.636,1.437,1.421S7.919,4.263,7.126,4.263
							S5.689,3.627,5.689,2.842S6.332,1.421,7.126,1.421z M11.155,0c0.397,0,0.718,0.318,0.718,0.711s-0.322,0.711-0.718,0.711
							s-0.718-0.318-0.718-0.711S10.759,0,11.155,0z"/>
					</g>
				</mask>
				<rect id="Color" x="-3" mask="url(#mask-2)" fill="#FFFFFF" width="24" height="24"/>
			</g>
		</g>
	</g>
</g>
</svg>
