<?xml version="1.0" encoding="UTF-8"?>
<svg width="18px" height="24px" viewBox="0 0 18 24" version="1.1" xmlns="http://www.w3.org/2000/svg" xmlns:xlink="http://www.w3.org/1999/xlink">
    <title>5F38675C-53A1-478A-9DA6-02BABDDCFE4F</title>
    <defs>
        <path d="M12.5923335,5.52631579 C12.9891485,5.52631579 13.3108307,5.84442926 13.3108307,6.23684211 C13.3108307,6.58565353 13.0566621,6.87575926 12.7214843,6.93592089 L12.5923335,6.94736842 L11.88,6.947 L11.8738362,11.2105263 L17.517009,19.5813784 C18.3974626,20.8874073 18.0405882,22.6519833 16.7199079,23.5226693 C16.2478048,23.833913 15.6931028,24 15.1257056,24 L2.87398895,24 C1.28672868,24 0,22.7275461 0,21.1578947 C0,20.5967921 0.167950245,20.048244 0.482685599,19.5813784 L6.12585833,11.2105263 L6.139,6.947 L5.40736109,6.94736842 C5.01054603,6.94736842 4.68886386,6.62925495 4.68886386,6.23684211 C4.68886386,5.88803068 4.94303248,5.59792495 5.27821031,5.53776332 L5.40736109,5.52631579 L12.5923335,5.52631579 Z M10.4425897,6.94736842 L7.57578576,6.94736842 L7.56153891,11.6427354 L4.978,15.473 L13.021,15.473 L10.4361512,11.639762 L10.4425897,6.94736842 Z M7.12585833,1.42105263 C7.91948847,1.42105263 8.56285281,2.05727957 8.56285281,2.84210526 C8.56285281,3.62693096 7.91948847,4.26315789 7.12585833,4.26315789 C6.3322282,4.26315789 5.68886386,3.62693096 5.68886386,2.84210526 C5.68886386,2.05727957 6.3322282,1.42105263 7.12585833,1.42105263 Z M11.155339,7.10542736e-15 C11.5521541,7.10542736e-15 11.8738362,0.318113467 11.8738362,0.710526316 C11.8738362,1.10293916 11.5521541,1.42105263 11.155339,1.42105263 C10.7585239,1.42105263 10.4368418,1.10293916 10.4368418,0.710526316 C10.4368418,0.318113467 10.7585239,7.10542736e-15 11.155339,7.10542736e-15 Z" id="path-1"></path>
    </defs>
    <g id="Project" stroke="none" stroke-width="1" fill="none" fill-rule="evenodd">
        <g id="DevOps-View" transform="translate(-27.000000, -424.000000)">
            <g id="Group" transform="translate(6.000000, 124.000000)">
                <g id="Icon/Develope-Copy-5" transform="translate(21.000000, 300.000000)">
                    <mask id="mask-2" fill="white">
                        <use xlink:href="#path-1"></use>
                    </mask>
                    <use id="Combined-Shape" fill="#40404B" fill-rule="nonzero" xlink:href="#path-1"></use>
                    <rect id="Color" fill="#40404B" fill-rule="nonzero" mask="url(#mask-2)" x="-3" y="0" width="24" height="24"></rect>
                </g>
            </g>
        </g>
    </g>
</svg>