<?xml version="1.0" encoding="UTF-8"?>
<svg width="48px" height="48px" viewBox="0 0 48 48" version="1.1" xmlns="http://www.w3.org/2000/svg" xmlns:xlink="http://www.w3.org/1999/xlink">
    <g id="marketplace" stroke="none" stroke-width="1" fill="none" fill-rule="evenodd">
        <g id="marketplace-listing-view-triggers" transform="translate(-496.000000, -416.000000)" fill="#5567D5" fill-rule="nonzero">
            <g id="Logo/Twitter-Copy-6" transform="translate(496.000000, 416.000000)">
                <path d="M24,0 C37.254834,0 48,10.745166 48,24 C48,37.254834 37.254834,48 24,48 C10.745166,48 0,37.254834 0,24 C0,10.745166 10.745166,0 24,0 Z M24,2 C11.8497355,2 2,11.8497355 2,24 C2,36.1502645 11.8497355,46 24,46 C36.1502645,46 46,36.1502645 46,24 C46,11.8497355 36.1502645,2 24,2 Z M27,8 L25,21.9662857 L30,22 L22,40 L24,26 L18,26 L27,8 Z M29.358569,9.99223767 C35.1125656,12.2024118 39,17.742344 39,24 C39,31.776787 33.0618652,38.2298393 25.3933184,38.9360951 L25.0682772,38.9625045 L24.9277584,36.9674469 C31.7072285,36.4899454 37,30.8344904 37,24 C37,18.6865869 33.7632695,13.9676962 28.9387779,11.9776556 L28.641431,11.8592441 L29.358569,9.99223767 Z M24,9 L24,11 C16.8202983,11 11,16.8202983 11,24 C11,29.6760346 14.6692452,34.6360179 19.9634097,36.3617908 L20.2591887,36.4543237 L19.6848113,38.3700718 C13.3914855,36.4832142 9,30.6704408 9,24 C9,15.7157288 15.7157288,9 24,9 Z" id="Combined-Shape"></path>
            </g>
        </g>
    </g>
</svg>
