<svg xmlns="http://www.w3.org/2000/svg" xmlns:xlink="http://www.w3.org/1999/xlink" width="21" height="19" viewBox="0 0 21 19">
  <defs>
    <linearGradient id="linear-gradient" x1="0.5" x2="0.5" y2="1" gradientUnits="objectBoundingBox">
      <stop offset="0" stop-color="#ea4c4d"/>
      <stop offset="1" stop-color="#d64142"/>
    </linearGradient>
    <filter id="Shape" x="0" y="0" width="21" height="19" filterUnits="userSpaceOnUse">
      <feOffset dy="1" input="SourceAlpha"/>
      <feGaussianBlur stdDeviation="0.5" result="blur"/>
      <feFlood flood-opacity="0.18"/>
      <feComposite operator="in" in2="blur"/>
      <feComposite in="SourceGraphic"/>
    </filter>
  </defs>
  <g id="Icon_Alerts_Warning" data-name="Icon/Alerts/Warning" transform="translate(1.5 0.5)">
    <g transform="matrix(1, 0, 0, 1, -1.5, -0.5)" filter="url(#Shape)">
      <path id="Shape-2" data-name="Shape" d="M17.674,12.469,11.022,1.156a2.343,2.343,0,0,0-4.041,0L.33,12.469A2.34,2.34,0,0,0,.3,14.813,2.31,2.31,0,0,0,2.32,16H15.653a2.36,2.36,0,0,0,2.02-3.531Z" transform="translate(1.5 0.5)" fill="url(#linear-gradient)"/>
    </g>
    <path id="Combined_Shape" data-name="Combined Shape" d="M0,9a1,1,0,1,1,1,1A1,1,0,0,1,0,9ZM0,5V1A1,1,0,0,1,2,1V5A1,1,0,0,1,0,5Z" transform="translate(8 4)" fill="#fff"/>
  </g>
</svg>
