<svg width="32" height="32" viewBox="0 0 14 15" fill="none" xmlns="http://www.w3.org/2000/svg">
<g clip-path="url(#clip0_1343_71)">
<path d="M0.875 3.20207V7.65699C0.89214 9.12902 1.36125 10.5602 2.21882 11.7568C3.07638 12.9533 4.28095 13.8574 5.66942 14.3467L6.32333 14.5882C6.76018 14.7486 7.23982 14.7486 7.67667 14.5882L8.33058 14.3467C9.71905 13.8574 10.9236 12.9533 11.7812 11.7568C12.6387 10.5602 13.1079 9.12902 13.125 7.65699V3.20207C13.1244 3.02705 13.0725 2.85604 12.9756 2.71025C12.8788 2.56446 12.7413 2.45029 12.5802 2.3819C10.8131 1.64437 8.91469 1.27345 7 1.29165C5.08531 1.27345 3.18687 1.64437 1.41983 2.3819C1.25872 2.45029 1.12122 2.56446 1.02437 2.71025C0.927522 2.85604 0.875586 3.02705 0.875 3.20207Z" fill="#D4E8F6"/>
<path d="M7 1.29165C5.08531 1.27345 3.18687 1.64437 1.41983 2.3819C1.25872 2.45029 1.12122 2.56446 1.02437 2.71025C0.927522 2.85604 0.875586 3.02705 0.875 3.20207V7.65699C0.89214 9.12902 1.36125 10.5602 2.21882 11.7568C3.07638 12.9533 4.28095 13.8574 5.66942 14.3467L6.32333 14.5882C6.54009 14.6676 6.76914 14.7083 7 14.7083V1.29165Z" fill="white"/>
<path d="M0.875 3.20207V7.65699C0.89214 9.12902 1.36125 10.5602 2.21882 11.7568C3.07638 12.9533 4.28095 13.8574 5.66942 14.3467L6.32333 14.5882C6.76018 14.7486 7.23982 14.7486 7.67667 14.5882L8.33058 14.3467C9.71905 13.8574 10.9236 12.9533 11.7812 11.7568C12.6387 10.5602 13.1079 9.12902 13.125 7.65699V3.20207C13.1244 3.02705 13.0725 2.85604 12.9756 2.71025C12.8788 2.56446 12.7413 2.45029 12.5802 2.3819C10.8131 1.64437 8.91469 1.27345 7 1.29165C5.08531 1.27345 3.18687 1.64437 1.41983 2.3819C1.25872 2.45029 1.12122 2.56446 1.02437 2.71025C0.927522 2.85604 0.875586 3.02705 0.875 3.20207Z" stroke="#40404B" stroke-width="0.5" stroke-linecap="round" stroke-linejoin="round"/>
<path d="M5.32422 10L5.0957 9.39258H3.83594L3.60352 10H3.03516L4.10742 7.19922H4.82031L5.89648 10H5.32422ZM4.01562 8.9082H4.91211L4.46289 7.72461L4.01562 8.9082ZM6.16602 10V7.19922H6.72266V10H6.16602Z" fill="#40404B"/>
</g>
<path d="M10.5537 2.11328C10.5537 4.05807 12.0488 5.63477 13.8926 5.63477C13.9285 5.63476 13.9643 5.63205 14 5.63086V5.75098C13.9643 5.74978 13.9285 5.74903 13.8926 5.74902C12.0489 5.74902 10.5539 7.32491 10.5537 9.26953C10.5537 9.30765 10.5555 9.34596 10.5566 9.38379H10.4434C10.4445 9.34596 10.4463 9.30765 10.4463 9.26953C10.4461 7.32491 8.95107 5.74902 7.10742 5.74902C7.07147 5.74903 7.03568 5.74978 7 5.75098V5.63086C7.03569 5.63205 7.07145 5.63476 7.10742 5.63477C8.95118 5.63477 10.4463 4.05807 10.4463 2.11328C10.4463 2.07537 10.4445 2.03763 10.4434 2H10.5566C10.5555 2.03763 10.5537 2.07537 10.5537 2.11328Z" fill="#1A4C6D"/>
<path d="M5.0459 0.0976562C5.04605 1.76434 6.32715 3.11499 7.90723 3.11523C7.93815 3.11523 7.96932 3.11333 8 3.1123V3.21484C7.96933 3.21382 7.93813 3.21289 7.90723 3.21289C6.32705 3.21313 5.0459 4.56463 5.0459 6.23145C5.0459 6.26415 5.0498 6.29664 5.05078 6.3291H4.94922C4.9502 6.29664 4.9541 6.26415 4.9541 6.23145C4.9541 4.56464 3.67293 3.21315 2.09277 3.21289C2.06188 3.21289 2.03066 3.21382 2 3.21484V3.1123C2.03068 3.11333 2.06186 3.11523 2.09277 3.11523C3.67284 3.11498 4.95395 1.76433 4.9541 0.0976562C4.9541 0.0650465 4.95019 0.0323604 4.94922 0H5.05078C5.04981 0.0323607 5.0459 0.0650462 5.0459 0.0976562Z" fill="#1A4C6D"/>
<path d="M8.52344 10.0488C8.52351 10.8822 9.16397 11.5576 9.9541 11.5576C9.96949 11.5576 9.98473 11.5552 10 11.5547V11.6084C9.98475 11.6079 9.96947 11.6064 9.9541 11.6064C9.16406 11.6064 8.52366 12.282 8.52344 13.1152C8.52344 13.1314 8.52491 13.148 8.52539 13.1641H8.47461C8.47509 13.148 8.47656 13.1314 8.47656 13.1152C8.47634 12.282 7.83594 11.6064 7.0459 11.6064C7.03053 11.6064 7.01525 11.6079 7 11.6084V11.5547C7.01527 11.5552 7.03051 11.5576 7.0459 11.5576C7.83603 11.5576 8.47649 10.8822 8.47656 10.0488C8.47656 10.0325 8.4751 10.0162 8.47461 10H8.52539C8.5249 10.0162 8.52344 10.0325 8.52344 10.0488Z" fill="#1A4C6D"/>
<defs>
<clipPath id="clip0_1343_71">
<rect width="14" height="14" fill="white" transform="translate(0 1)"/>
</clipPath>
</defs>
</svg>
