<svg width="275" height="65" viewBox="0 0 275 65" fill="none" xmlns="http://www.w3.org/2000/svg">
<path d="M33.56 43.2801C33.56 43.2801 33.49 43.2801 33.46 43.2801C32.75 43.2401 32.15 42.7501 31.96 42.0701L26.62 22.4801L23.88 31.6201C23.67 32.3201 23.03 32.8001 22.3 32.8001H12.05C11.14 32.8001 10.4 32.0601 10.4 31.1501C10.4 30.2401 11.14 29.5001 12.05 29.5001H21.07L25.11 16.0101C25.32 15.3101 25.96 14.8301 26.69 14.8301C26.69 14.8301 26.7 14.8301 26.71 14.8301C27.45 14.8301 28.09 15.3401 28.28 16.0501L33.86 36.5001L36.28 30.5401C36.53 29.9201 37.14 29.5101 37.81 29.5101H46.02C46.93 29.5101 47.67 30.2501 47.67 31.1601C47.67 32.0701 46.93 32.8101 46.02 32.8101H38.92L35.09 42.2701C34.84 42.9001 34.23 43.3001 33.56 43.3001V43.2801Z" fill="black"/>
<path d="M29.03 58.08C13.02 58.08 0 45.06 0 29.05C0 13.04 13.02 0.0200195 29.03 0.0200195C45.04 0.0200195 58.07 13.05 58.07 29.05C58.07 45.05 45.04 58.08 29.03 58.08ZM29.03 3.31002C14.84 3.31002 3.3 14.85 3.3 29.04C3.3 43.23 14.84 54.77 29.03 54.77C43.22 54.77 54.76 43.23 54.76 29.04C54.76 14.85 43.22 3.31002 29.03 3.31002Z" fill="black"/>
<path d="M80.1 28.9999L72.34 0.399902H76.95L81.08 16.7899C81.34 17.7999 81.57 18.8499 81.79 19.9399C82.01 21.0299 82.22 22.1299 82.43 23.2399C82.64 24.3499 82.84 25.4699 83.03 26.5799H82.38C82.59 25.4699 82.8 24.3499 83.01 23.2399C83.23 22.1299 83.45 21.0299 83.68 19.9399C83.91 18.8499 84.16 17.7999 84.43 16.7899L88.67 0.399902H93.47L97.67 16.7899C97.94 17.7999 98.19 18.8499 98.42 19.9399C98.65 21.0299 98.88 22.1299 99.1 23.2399C99.32 24.3499 99.54 25.4699 99.74 26.5799H99.05C99.25 25.4699 99.46 24.3499 99.66 23.2399C99.86 22.1299 100.09 21.0299 100.32 19.9399C100.56 18.8499 100.79 17.7999 101.02 16.7899L105.15 0.399902H109.8L102.01 28.9999H96.96L92.41 12.0499C92.06 10.7199 91.74 9.2699 91.45 7.7099C91.16 6.1499 90.85 4.4299 90.55 2.5699H91.55C91.23 4.3599 90.94 6.0199 90.68 7.5399C90.42 9.0599 90.09 10.5699 89.69 12.0499L85.16 28.9999H80.09H80.1Z" fill="black"/>
<path d="M120.92 29.48C118.78 29.48 116.93 29.14 115.35 28.46C113.77 27.78 112.54 26.81 111.65 25.55C110.76 24.29 110.27 22.79 110.18 21.05H114.58C114.67 22.09 115.01 22.94 115.59 23.62C116.17 24.3 116.93 24.8 117.87 25.14C118.8 25.47 119.81 25.64 120.9 25.64C122.12 25.64 123.19 25.45 124.14 25.07C125.09 24.69 125.83 24.15 126.38 23.46C126.93 22.76 127.21 21.95 127.21 21.03C127.21 20.2 126.97 19.52 126.49 18.99C126.01 18.46 125.36 18.02 124.55 17.67C123.74 17.32 122.81 17.01 121.78 16.74L118.44 15.82C116.1 15.19 114.27 14.26 112.96 13.04C111.65 11.81 110.99 10.22 110.99 8.26002C110.99 6.61002 111.43 5.17002 112.32 3.93002C113.21 2.70002 114.42 1.74002 115.95 1.05002C117.48 0.37002 119.2 0.0200195 121.12 0.0200195C123.04 0.0200195 124.8 0.36002 126.29 1.05002C127.78 1.74002 128.95 2.67002 129.8 3.86002C130.65 5.05002 131.1 6.41002 131.13 7.93002H126.87C126.73 6.62002 126.12 5.61002 125.06 4.90002C123.99 4.18002 122.64 3.82002 121.02 3.82002C119.87 3.82002 118.87 4.00002 118.02 4.36002C117.17 4.72002 116.51 5.21002 116.04 5.85002C115.57 6.48002 115.34 7.20002 115.34 8.01002C115.34 8.92002 115.62 9.65002 116.17 10.21C116.73 10.77 117.41 11.21 118.21 11.53C119.01 11.85 119.77 12.12 120.5 12.31L123.28 13.04C124.19 13.27 125.13 13.58 126.09 13.97C127.06 14.36 127.95 14.87 128.77 15.49C129.59 16.11 130.25 16.88 130.76 17.79C131.27 18.71 131.52 19.81 131.52 21.1C131.52 22.71 131.1 24.15 130.27 25.42C129.44 26.69 128.23 27.68 126.65 28.41C125.07 29.13 123.16 29.49 120.92 29.49V29.48Z" fill="black"/>
<path d="M146.29 29.38C143.82 29.38 141.61 28.79 139.66 27.62C137.71 26.45 136.17 24.77 135.05 22.57C133.93 20.38 133.37 17.75 133.37 14.71C133.37 11.67 133.93 9.02 135.05 6.83C136.17 4.64 137.71 2.95 139.66 1.77C141.61 0.590001 143.82 0 146.29 0C148.76 0 150.96 0.590001 152.9 1.77C154.84 2.95 156.37 4.63 157.49 6.83C158.61 9.02 159.17 11.65 159.17 14.71C159.17 17.77 158.61 20.38 157.49 22.57C156.37 24.76 154.84 26.45 152.9 27.62C150.96 28.79 148.76 29.38 146.29 29.38ZM146.29 25.39C147.92 25.39 149.37 24.98 150.66 24.17C151.95 23.36 152.96 22.15 153.71 20.56C154.46 18.97 154.83 17.02 154.83 14.71C154.83 12.4 154.46 10.42 153.71 8.83C152.96 7.24 151.94 6.03 150.66 5.22C149.37 4.41 147.92 4 146.29 4C144.66 4 143.19 4.41 141.89 5.23C140.6 6.05 139.58 7.26 138.83 8.85C138.08 10.44 137.71 12.4 137.71 14.71C137.71 17.02 138.08 18.96 138.83 20.55C139.58 22.14 140.6 23.34 141.89 24.16C143.18 24.98 144.65 25.39 146.29 25.39Z" fill="black"/>
<path d="M160.96 29V25.83L170.67 15.79C171.67 14.74 172.5 13.81 173.17 13.01C173.84 12.2 174.34 11.43 174.69 10.69C175.04 9.95002 175.21 9.15002 175.21 8.31002C175.21 7.35002 174.99 6.52002 174.55 5.83002C174.11 5.14002 173.51 4.61002 172.75 4.24002C171.99 3.87002 171.12 3.68002 170.15 3.68002C169.18 3.68002 168.26 3.89002 167.5 4.30002C166.75 4.72002 166.16 5.30002 165.75 6.06002C165.34 6.82002 165.14 7.70002 165.14 8.73002H160.94C160.94 6.99002 161.34 5.46002 162.15 4.15002C162.96 2.84002 164.06 1.82002 165.45 1.10002C166.84 0.380019 168.44 0.0200195 170.23 0.0200195C172.02 0.0200195 173.64 0.380019 175.02 1.09002C176.4 1.81002 177.47 2.78002 178.25 4.00002C179.03 5.22002 179.42 6.61002 179.42 8.16002C179.42 9.21002 179.23 10.23 178.83 11.23C178.44 12.23 177.75 13.35 176.78 14.61C175.8 15.86 174.42 17.39 172.64 19.18L167.03 25.04V25.27H179.85V29.01H160.96V29Z" fill="black"/>
<path d="M76.9538 58H72.7351L80.4162 36.1818H85.2955L92.9872 58H88.7685L82.9411 40.6562H82.7706L76.9538 58ZM77.0923 49.4453H88.598V52.62H77.0923V49.4453ZM99.8134 36.1818V58H95.861V36.1818H99.8134ZM116.126 58L109.969 36.1818H114.219L118.151 52.2152H118.353L122.55 36.1818H126.418L130.626 52.2259H130.817L134.749 36.1818H138.999L132.842 58H128.942L124.575 42.6911H124.404L120.026 58H116.126ZM147.037 58.3196C145.439 58.3196 144.054 57.968 142.882 57.2649C141.711 56.5618 140.801 55.5781 140.155 54.3139C139.516 53.0497 139.196 51.5724 139.196 49.8821C139.196 48.1918 139.516 46.7109 140.155 45.4396C140.801 44.1683 141.711 43.1811 142.882 42.478C144.054 41.7749 145.439 41.4233 147.037 41.4233C148.635 41.4233 150.02 41.7749 151.192 42.478C152.364 43.1811 153.27 44.1683 153.909 45.4396C154.555 46.7109 154.878 48.1918 154.878 49.8821C154.878 51.5724 154.555 53.0497 153.909 54.3139C153.27 55.5781 152.364 56.5618 151.192 57.2649C150.02 57.968 148.635 58.3196 147.037 58.3196ZM147.059 55.2301C147.925 55.2301 148.65 54.9922 149.232 54.5163C149.814 54.0334 150.248 53.3871 150.532 52.5774C150.823 51.7678 150.968 50.8658 150.968 49.8714C150.968 48.87 150.823 47.9645 150.532 47.1548C150.248 46.3381 149.814 45.6882 149.232 45.2053C148.65 44.7223 147.925 44.4808 147.059 44.4808C146.171 44.4808 145.432 44.7223 144.843 45.2053C144.26 45.6882 143.824 46.3381 143.532 47.1548C143.248 47.9645 143.106 48.87 143.106 49.8714C143.106 50.8658 143.248 51.7678 143.532 52.5774C143.824 53.3871 144.26 54.0334 144.843 54.5163C145.432 54.9922 146.171 55.2301 147.059 55.2301ZM158.151 58V41.6364H161.891V44.3636H162.061C162.36 43.419 162.871 42.6911 163.595 42.1797C164.327 41.6612 165.161 41.402 166.099 41.402C166.312 41.402 166.55 41.4126 166.813 41.4339C167.083 41.4482 167.306 41.473 167.484 41.5085V45.0561C167.32 44.9993 167.061 44.9496 166.706 44.907C166.358 44.8572 166.021 44.8324 165.694 44.8324C164.991 44.8324 164.359 44.9851 163.798 45.2905C163.244 45.5888 162.807 46.0043 162.487 46.5369C162.168 47.0696 162.008 47.6839 162.008 48.38V58H158.151ZM173.562 52.8651L173.551 48.2095H174.169L180.05 41.6364H184.556L177.322 49.6903H176.523L173.562 52.8651ZM170.046 58V36.1818H173.903V58H170.046ZM180.316 58L174.989 50.5533L177.589 47.8366L184.929 58H180.316ZM200.059 45.9616L196.544 46.3452C196.444 45.9901 196.27 45.6562 196.022 45.3438C195.78 45.0312 195.453 44.7791 195.042 44.5874C194.63 44.3956 194.125 44.2997 193.529 44.2997C192.726 44.2997 192.051 44.4737 191.505 44.8217C190.965 45.1697 190.699 45.6207 190.706 46.1747C190.699 46.6506 190.873 47.0376 191.228 47.3359C191.59 47.6342 192.186 47.8793 193.017 48.071L195.809 48.6676C197.357 49.0014 198.507 49.5305 199.26 50.255C200.02 50.9794 200.404 51.9276 200.411 53.0994C200.404 54.1293 200.102 55.0384 199.505 55.8267C198.916 56.608 198.096 57.2187 197.044 57.6591C195.993 58.0994 194.786 58.3196 193.422 58.3196C191.419 58.3196 189.807 57.9006 188.586 57.0625C187.364 56.2173 186.636 55.0419 186.402 53.5362L190.162 53.174C190.333 53.9126 190.695 54.4702 191.249 54.8466C191.803 55.223 192.524 55.4112 193.412 55.4112C194.328 55.4112 195.063 55.223 195.617 54.8466C196.178 54.4702 196.458 54.005 196.458 53.451C196.458 52.9822 196.277 52.5952 195.915 52.2898C195.56 51.9844 195.006 51.75 194.253 51.5866L191.462 51.0007C189.892 50.674 188.731 50.1236 187.978 49.3494C187.225 48.5682 186.853 47.581 186.86 46.3878C186.853 45.3793 187.126 44.5057 187.68 43.767C188.241 43.0213 189.019 42.446 190.013 42.0412C191.015 41.6293 192.169 41.4233 193.475 41.4233C195.393 41.4233 196.902 41.8317 198.003 42.6484C199.111 43.4652 199.797 44.5696 200.059 45.9616ZM203.591 64.1364V41.6364H207.384V44.3423H207.607C207.806 43.9446 208.087 43.522 208.449 43.0746C208.811 42.62 209.301 42.233 209.919 41.9134C210.537 41.5866 211.325 41.4233 212.284 41.4233C213.548 41.4233 214.688 41.7464 215.704 42.3928C216.727 43.032 217.536 43.9801 218.133 45.2372C218.737 46.4872 219.038 48.0213 219.038 49.8395C219.038 51.6364 218.744 53.1634 218.154 54.4205C217.565 55.6776 216.762 56.6364 215.746 57.2969C214.731 57.9574 213.58 58.2876 212.295 58.2876C211.357 58.2876 210.58 58.1314 209.962 57.8189C209.344 57.5064 208.847 57.13 208.47 56.6896C208.101 56.2422 207.813 55.8196 207.607 55.4219H207.447V64.1364H203.591ZM207.373 49.8182C207.373 50.8764 207.522 51.8033 207.82 52.5987C208.126 53.3942 208.563 54.0156 209.131 54.4631C209.706 54.9034 210.402 55.1236 211.219 55.1236C212.071 55.1236 212.785 54.8963 213.36 54.4418C213.935 53.9801 214.369 53.3516 214.66 52.5561C214.958 51.7536 215.107 50.8409 215.107 49.8182C215.107 48.8026 214.962 47.9006 214.67 47.1122C214.379 46.3239 213.946 45.706 213.371 45.2585C212.795 44.8111 212.078 44.5874 211.219 44.5874C210.395 44.5874 209.695 44.804 209.12 45.2372C208.545 45.6705 208.108 46.2777 207.81 47.0589C207.518 47.8402 207.373 48.7599 207.373 49.8182ZM227.05 58.3303C226.013 58.3303 225.079 58.1456 224.248 57.7763C223.424 57.3999 222.771 56.8459 222.288 56.1143C221.812 55.3828 221.574 54.4808 221.574 53.4084C221.574 52.4851 221.744 51.7216 222.085 51.1179C222.426 50.5142 222.891 50.0312 223.481 49.669C224.07 49.3068 224.734 49.0334 225.473 48.8487C226.219 48.657 226.989 48.5185 227.785 48.4332C228.744 48.3338 229.521 48.245 230.118 48.1669C230.714 48.0817 231.148 47.9538 231.418 47.7834C231.695 47.6058 231.833 47.3324 231.833 46.9631V46.8991C231.833 46.0966 231.595 45.4751 231.119 45.0348C230.643 44.5945 229.958 44.3743 229.063 44.3743C228.119 44.3743 227.369 44.5803 226.815 44.9922C226.268 45.4041 225.899 45.8906 225.707 46.4517L222.107 45.9403C222.391 44.946 222.859 44.1151 223.513 43.4474C224.166 42.7727 224.965 42.2685 225.91 41.9347C226.854 41.5938 227.898 41.4233 229.042 41.4233C229.83 41.4233 230.615 41.5156 231.396 41.7003C232.178 41.8849 232.891 42.1903 233.538 42.6165C234.184 43.0355 234.702 43.6072 235.093 44.3317C235.491 45.0561 235.69 45.9616 235.69 47.0483V58H231.982V55.7521H231.854C231.62 56.2067 231.29 56.6328 230.864 57.0305C230.445 57.4212 229.915 57.7372 229.276 57.9787C228.644 58.2131 227.902 58.3303 227.05 58.3303ZM228.051 55.4964C228.825 55.4964 229.496 55.3437 230.065 55.0384C230.633 54.7259 231.07 54.3139 231.375 53.8026C231.688 53.2912 231.844 52.7337 231.844 52.13V50.2017C231.723 50.3011 231.517 50.3935 231.226 50.4787C230.942 50.5639 230.622 50.6385 230.267 50.7024C229.912 50.7663 229.56 50.8232 229.212 50.8729C228.864 50.9226 228.563 50.9652 228.307 51.0007C227.732 51.0788 227.217 51.2067 226.762 51.3842C226.308 51.5618 225.949 51.8104 225.686 52.13C225.423 52.4425 225.292 52.8473 225.292 53.3445C225.292 54.0547 225.551 54.5909 226.07 54.9531C226.588 55.3153 227.249 55.4964 228.051 55.4964ZM246.705 58.3196C245.072 58.3196 243.669 57.9609 242.497 57.2436C241.332 56.5263 240.434 55.5355 239.802 54.2713C239.177 53 238.864 51.5369 238.864 49.8821C238.864 48.2202 239.184 46.7536 239.823 45.4822C240.462 44.2038 241.364 43.2095 242.529 42.4993C243.701 41.782 245.086 41.4233 246.684 41.4233C248.012 41.4233 249.188 41.6683 250.21 42.1584C251.24 42.6413 252.06 43.3267 252.671 44.2145C253.282 45.0952 253.63 46.125 253.715 47.304H250.029C249.88 46.5156 249.525 45.8587 248.964 45.3331C248.41 44.8004 247.668 44.5341 246.737 44.5341C245.949 44.5341 245.256 44.7472 244.66 45.1733C244.063 45.5923 243.598 46.196 243.264 46.9844C242.938 47.7727 242.774 48.7173 242.774 49.8182C242.774 50.9332 242.938 51.892 243.264 52.6946C243.591 53.4901 244.049 54.1044 244.638 54.5376C245.235 54.9638 245.935 55.1768 246.737 55.1768C247.305 55.1768 247.813 55.0703 248.261 54.8572C248.715 54.6371 249.095 54.321 249.401 53.9091C249.706 53.4972 249.915 52.9964 250.029 52.407H253.715C253.623 53.5646 253.282 54.5909 252.692 55.4858C252.103 56.3736 251.3 57.0696 250.285 57.5739C249.269 58.071 248.076 58.3196 246.705 58.3196ZM264.126 58.3196C262.486 58.3196 261.069 57.9787 259.876 57.2969C258.689 56.608 257.777 55.6349 257.138 54.3778C256.498 53.1136 256.179 51.6257 256.179 49.9141C256.179 48.2308 256.498 46.7536 257.138 45.4822C257.784 44.2038 258.686 43.2095 259.844 42.4993C261.001 41.782 262.361 41.4233 263.924 41.4233C264.932 41.4233 265.884 41.5866 266.779 41.9134C267.681 42.233 268.476 42.7301 269.165 43.4048C269.861 44.0795 270.408 44.9389 270.806 45.983C271.204 47.0199 271.403 48.2557 271.403 49.6903V50.8729H257.99V48.2734H267.706C267.699 47.5348 267.539 46.8778 267.226 46.3026C266.914 45.7202 266.477 45.2621 265.916 44.9283C265.362 44.5945 264.716 44.4276 263.977 44.4276C263.189 44.4276 262.496 44.6193 261.9 45.0028C261.303 45.3793 260.838 45.8764 260.504 46.4943C260.177 47.1051 260.01 47.7763 260.003 48.5078V50.777C260.003 51.7287 260.177 52.5455 260.525 53.2273C260.873 53.902 261.36 54.4205 261.985 54.7827C262.61 55.1378 263.341 55.3153 264.18 55.3153C264.741 55.3153 265.248 55.2372 265.703 55.081C266.157 54.9176 266.552 54.6797 266.885 54.3672C267.219 54.0547 267.471 53.6676 267.642 53.206L271.243 53.6108C271.015 54.5625 270.582 55.3935 269.943 56.1037C269.311 56.8068 268.501 57.3537 267.514 57.7443C266.527 58.1278 265.398 58.3196 264.126 58.3196Z" fill="black"/>
</svg>
