<svg width="106" height="20" viewBox="0 0 106 20" fill="none" xmlns="http://www.w3.org/2000/svg">
<path d="M8.34483 1.66663C5.19664 1.66663 3.62254 1.66663 2.64451 2.64293C1.6665 3.61925 1.6665 5.19059 1.6665 8.33329C1.6665 11.476 1.6665 13.0474 2.64451 14.0237C3.62254 15 5.19664 15 8.34483 15H11.684C14.8322 15 16.4063 15 17.3843 14.0237C18.059 13.3502 18.2682 12.3936 18.3332 10.8333" stroke="#CBCEDB" stroke-width="1.5" stroke-linecap="round"/>
<path d="M10 15V18.3333" stroke="#CBCEDB" stroke-width="1.5"/>
<path d="M6.6665 18.3333H13.3332" stroke="#CBCEDB" stroke-width="1.5" stroke-linecap="round"/>
<path d="M9.1665 12.5H10.8332" stroke="#CBCEDB" stroke-width="1.5" stroke-linecap="round" stroke-linejoin="round"/>
<path d="M11.5278 3.40271L11.277 4.08037C10.9482 4.96896 10.7838 5.41327 10.4597 5.73741C10.1356 6.0615 9.69127 6.2259 8.80266 6.55475L8.125 6.80549L8.80266 7.05623C9.69127 7.38508 10.1356 7.54948 10.4597 7.87357C10.7838 8.19771 10.9482 8.64202 11.277 9.53058L11.5278 10.2082L11.7785 9.53058C12.1074 8.64202 12.2718 8.19771 12.5959 7.87357C12.92 7.54948 13.3643 7.38508 14.2529 7.05623L14.9306 6.80549L14.2529 6.55475C13.3643 6.2259 12.92 6.0615 12.5959 5.73741C12.2718 5.41327 12.1074 4.96896 11.7785 4.08037L11.5278 3.40271Z" stroke="#646CFF" stroke-linejoin="round"/>
<path d="M15.4168 1.45837L15.3093 1.7488C15.1684 2.12963 15.098 2.32005 14.959 2.45895C14.8202 2.59786 14.6297 2.66832 14.2489 2.80924L13.9585 2.91671L14.2489 3.02418C14.6297 3.1651 14.8202 3.23556 14.959 3.37446C15.098 3.51336 15.1684 3.70378 15.3093 4.08461L15.4168 4.37504L15.5243 4.08461C15.6652 3.70378 15.7356 3.51336 15.8746 3.37446C16.0135 3.23556 16.2039 3.1651 16.5847 3.02418L16.8751 2.91671L16.5847 2.80924C16.2039 2.66832 16.0135 2.59786 15.8746 2.45895C15.7356 2.32005 15.6652 2.12963 15.5243 1.7488L15.4168 1.45837Z" stroke="#646CFF" stroke-width="0.6" stroke-linejoin="round"/>
<path d="M38.9118 8.24597L39.4438 11.774L41.3478 4.47997H42.8598L44.7498 11.718L45.3378 8.24597L46.0658 4.47997H47.7738L45.6318 14H43.9098L42.0758 6.91597L40.2278 14H38.5058L36.3638 4.47997H38.1838L38.9118 8.24597ZM55.3504 8.23197V10.234C55.3504 11.4473 55.0471 12.404 54.4404 13.104C53.8338 13.7947 52.9471 14.14 51.7804 14.14C50.6044 14.14 49.7131 13.7947 49.1064 13.104C48.5091 12.404 48.2104 11.4473 48.2104 10.234V8.23197C48.2104 7.01864 48.5091 6.06664 49.1064 5.37597C49.7131 4.6853 50.6044 4.33997 51.7804 4.33997C52.9471 4.33997 53.8338 4.6853 54.4404 5.37597C55.0471 6.06664 55.3504 7.01864 55.3504 8.23197ZM53.6284 8.23197C53.6284 7.46664 53.4791 6.89264 53.1804 6.50997C52.8818 6.11797 52.4151 5.92197 51.7804 5.92197C51.1458 5.92197 50.6791 6.11797 50.3804 6.50997C50.0818 6.89264 49.9324 7.46664 49.9324 8.23197V10.234C49.9324 10.9993 50.0818 11.578 50.3804 11.97C50.6791 12.362 51.1458 12.558 51.7804 12.558C52.4151 12.558 52.8818 12.362 53.1804 11.97C53.4791 11.578 53.6284 10.9993 53.6284 10.234V8.23197ZM58.4115 10.5V14H56.7315V4.47997H59.9095C60.8708 4.47997 61.6082 4.7273 62.1215 5.22197C62.6442 5.7073 62.9055 6.36064 62.9055 7.18197V7.78397C62.9055 8.3253 62.7888 8.8013 62.5555 9.21197C62.3222 9.62264 61.9862 9.9353 61.5475 10.15C62.3128 11.4567 62.9662 12.74 63.5075 14H61.5895C61.1228 12.8333 60.5675 11.6667 59.9235 10.5H58.4115ZM59.9095 6.01997H58.4115V8.95997H59.9095C60.3202 8.95997 60.6328 8.8573 60.8475 8.65197C61.0715 8.4373 61.1835 8.14797 61.1835 7.78397V7.18197C61.1835 6.8273 61.0715 6.5473 60.8475 6.34197C60.6328 6.1273 60.3202 6.01997 59.9095 6.01997ZM69.4768 14L67.0968 9.84197C66.9381 10.0193 66.7748 10.1967 66.6068 10.374C66.4481 10.5513 66.2801 10.7333 66.1028 10.92V14H64.4228V4.47997H66.1028V9.00197C66.8121 8.18997 67.4188 7.41997 67.9228 6.69197C68.4268 5.95464 68.8608 5.2173 69.2248 4.47997H71.0588C70.6574 5.28264 70.2281 6.0433 69.7708 6.76197C69.3228 7.4713 68.8468 8.1293 68.3428 8.73597L71.5068 14H69.4768ZM74.2817 12.586C75.3644 12.586 75.9057 12.1847 75.9057 11.382C75.9057 11.0553 75.8217 10.7987 75.6537 10.612C75.495 10.4253 75.1964 10.262 74.7577 10.122L73.6097 9.74397C72.2377 9.29597 71.5517 8.3953 71.5517 7.04197C71.5517 6.25797 71.7944 5.61397 72.2797 5.10997C72.7744 4.59664 73.5444 4.33997 74.5897 4.33997C75.0284 4.33997 75.4624 4.3913 75.8917 4.49397C76.321 4.5873 76.7784 4.7413 77.2637 4.95597L76.7457 6.39797C76.2977 6.22064 75.915 6.09464 75.5977 6.01997C75.2897 5.93597 74.9724 5.89397 74.6457 5.89397C74.2164 5.89397 73.8757 5.9733 73.6237 6.13197C73.381 6.2813 73.2597 6.55664 73.2597 6.95797C73.2597 7.25664 73.3437 7.50397 73.5117 7.69997C73.689 7.88664 73.9784 8.0453 74.3797 8.17597L75.5277 8.55397C76.2184 8.7873 76.7364 9.12797 77.0817 9.57597C77.4364 10.0147 77.6137 10.598 77.6137 11.326C77.6137 12.166 77.3477 12.8473 76.8157 13.37C76.2837 13.8833 75.4484 14.14 74.3097 14.14C73.8617 14.14 73.395 14.0887 72.9097 13.986C72.4337 13.874 71.911 13.6873 71.3417 13.426L71.8597 11.984C72.3824 12.208 72.8257 12.3667 73.1897 12.46C73.563 12.544 73.927 12.586 74.2817 12.586ZM78.6158 14V4.47997H81.7518C82.7505 4.47997 83.4971 4.73197 83.9918 5.23597C84.4958 5.73997 84.7478 6.41197 84.7478 7.25197V7.99397C84.7478 8.83397 84.4958 9.51064 83.9918 10.024C83.4971 10.528 82.7505 10.78 81.7518 10.78H80.2958V14H78.6158ZM81.7518 6.08997H80.2958V9.16997H81.7518C82.1625 9.16997 82.4751 9.0673 82.6898 8.86197C82.9138 8.65664 83.0258 8.3673 83.0258 7.99397V7.25197C83.0258 6.88797 82.9138 6.6033 82.6898 6.39797C82.4751 6.19264 82.1625 6.08997 81.7518 6.08997ZM90.254 14L89.666 12.138H86.404L85.816 14H84.15L87.328 4.47997H88.812L92.004 14H90.254ZM87.314 9.22597L86.88 10.598H89.176L88.742 9.22597L88.042 6.81797L87.314 9.22597ZM93.7687 10.234C93.7687 10.9153 93.9181 11.4753 94.2167 11.914C94.5154 12.3433 95.0054 12.558 95.6867 12.558C95.9667 12.558 96.2561 12.5207 96.5547 12.446C96.8627 12.3713 97.2407 12.2453 97.6887 12.068L98.2067 13.524C97.7027 13.748 97.2361 13.9067 96.8067 14C96.3867 14.0933 95.9807 14.14 95.5887 14.14C94.8047 14.14 94.1467 13.972 93.6147 13.636C93.0921 13.3 92.7001 12.838 92.4387 12.25C92.1774 11.662 92.0467 10.99 92.0467 10.234V8.23197C92.0467 7.47597 92.1774 6.80397 92.4387 6.21597C92.7001 5.62797 93.0921 5.17064 93.6147 4.84397C94.1467 4.50797 94.8047 4.33997 95.5887 4.33997C95.9714 4.33997 96.3681 4.38664 96.7787 4.47997C97.1894 4.56397 97.6374 4.7133 98.1227 4.92797L97.6047 6.41197C97.1754 6.23464 96.8161 6.10864 96.5267 6.03397C96.2374 5.9593 95.9574 5.92197 95.6867 5.92197C95.0054 5.92197 94.5154 6.13664 94.2167 6.56597C93.9181 6.9953 93.7687 7.55064 93.7687 8.23197V10.234ZM104.635 12.39V14H99.1192V4.47997H104.495V6.08997H100.799V8.37197H104.075V9.98197H100.799V12.39H104.635Z" fill="#646CFF"/>
<path d="M28.3838 14L27.7958 12.138H24.5338L23.9458 14H22.2798L25.4578 4.47998H26.9418L30.1338 14H28.3838ZM25.4438 9.22598L25.0098 10.598H27.3058L26.8718 9.22598L26.1718 6.81798L25.4438 9.22598ZM32.564 14H30.884V4.47998H32.564V14Z" fill="#CBCEDB"/>
</svg>
