<svg width="65" height="42" viewBox="0 0 65 42" fill="none" xmlns="http://www.w3.org/2000/svg">
<g clip-path="url(#clip0_303_1318)">
<path d="M44.6357 2H21.3644C20.4976 2 19.6731 2.37498 19.1033 3.02834L9.1001 14.5L12.5001 17.5L30.0001 23.5H41.5001L51.0001 19L56.9001 14.5L46.8968 3.02832C46.327 2.37497 45.5025 2 44.6357 2Z" fill="#FFF4ED"/>
<ellipse cx="33" cy="34.5" rx="32.5" ry="7.5" fill="#F7F8FB"/>
<path d="M9 15C9 14.4477 9.44772 14 10 14H19.3604C20.3138 14 21.1346 14.6729 21.3216 15.6078L21.6784 17.3922C21.8654 18.3271 22.6862 19 23.6396 19H42.3604C43.3138 19 44.1346 18.3271 44.3216 17.3922L44.6784 15.6078C44.8654 14.6729 45.6862 14 46.6396 14H56C56.5523 14 57 14.4477 57 15V31C57 33.2091 55.2091 35 53 35H33H21H13C10.7909 35 9 33.2091 9 31V15Z" fill="#FFE9DA"/>
<path d="M30 35H53C55.2091 35 57 33.2091 57 31V15C57 14.4477 56.5523 14 56 14H46.6396C45.6862 14 44.8654 14.6729 44.6784 15.6078L44.3216 17.3922C44.1346 18.3271 43.3138 19 42.3604 19H41.5M17 35H13C10.7909 35 9 33.2091 9 31V15C9 14.4477 9.44772 14 10 14H19.3604C20.3138 14 21.1346 14.6729 21.3216 15.6078L21.6784 17.3922C21.8654 18.3271 22.6862 19 23.6396 19H34" stroke="black" stroke-linecap="round"/>
<path d="M56.9001 14.5L46.8968 3.02832C46.327 2.37497 45.5025 2 44.6357 2H30M9.1001 14.5L19.1033 3.02834C19.6731 2.37498 20.4976 2 21.3644 2H25.5" stroke="black" stroke-linecap="round"/>
</g>
<defs>
<clipPath id="clip0_303_1318">
<rect width="65" height="42" fill="white"/>
</clipPath>
</defs>
</svg>
