<svg width="280" height="220" viewBox="0 0 280 220" fill="none" xmlns="http://www.w3.org/2000/svg">
<path d="M68.0133 19.0934C103.692 6.82942 157.321 26.9193 189.768 51.0669C237.237 86.3941 248.274 79.3932 266.3 113.502C284.327 147.611 270.76 176.617 250.678 191.585C230.248 206.812 199.893 210.101 165.268 201.567C124.768 191.585 56.2021 199.885 32.7682 178.567C9.33427 157.249 6.26826 136.567 4.26823 103.567C2.60669 76.152 8.76819 39.4578 68.0133 19.0934Z" fill="white"/>
<path opacity="0.503674" d="M179.928 5.64347L203.899 29.5647C205.365 31.0276 205.367 33.402 203.904 34.868C203.902 34.8698 203.9 34.8716 203.899 34.8734L179.928 58.7946C178.464 60.2555 176.094 60.2555 174.63 58.7946L150.66 34.8734C149.194 33.4105 149.191 31.0361 150.654 29.5701C150.656 29.5683 150.658 29.5665 150.66 29.5647L174.63 5.64347C176.094 4.18264 178.464 4.18264 179.928 5.64347Z" stroke="#C8CEF0" stroke-width="1.3444" stroke-linecap="round" stroke-linejoin="round"/>
<path d="M35.9038 34.0923H265.904V181.092H35.9038V34.0923Z" fill="#FFF9F5"/>
<path d="M32.9038 84.4268V36.0923M262.904 36.0923V156.195M180.216 183.092H32.9038V120.514" stroke="#41415B" stroke-miterlimit="10"/>
<path d="M35.9038 34.0923H265.904V53.0923H35.9038V34.0923Z" fill="#FEDFCA"/>
<path d="M82.9038 39.0923H224.904V48.0923H82.9038V39.0923Z" fill="white"/>
<path d="M234.904 39.0923H257.904V48.0923H234.904V39.0923Z" fill="#FF6700"/>
<path d="M40.9038 41.0923H46.9038V47.0923H40.9038V41.0923Z" fill="white"/>
<path d="M51.9038 41.0923H57.9038V47.0923H51.9038V41.0923Z" fill="white"/>
<path d="M62.9038 41.0923H68.9038V47.0923H62.9038V41.0923Z" fill="white"/>
<path d="M180.183 82.4678C187.233 84.8235 191.932 91.4192 191.932 98.7217C191.932 107.909 184.178 115.447 175.013 115.447H125.196C115.796 115.447 108.277 107.909 108.277 98.7217C108.277 90.0058 114.622 82.7034 123.316 81.7611C124.256 75.8721 128.016 71.1608 133.421 69.0407C138.59 66.9207 144.465 67.3918 148.93 70.4541C153.159 62.6805 161.854 60.3249 169.609 63.1517C177.598 66.214 182.298 73.9876 180.183 82.4678Z" fill="url(#paint0_linear_301_1352)"/>
<path fill-rule="evenodd" clip-rule="evenodd" d="M151.271 98.3185H148.538L147.447 95.3429H141.432L140.323 98.3185H137.609L142.729 84.5981H146.132L151.271 98.3185ZM144.426 87.1719L142.29 92.9701H146.571L144.426 87.1719Z" fill="white"/>
<path d="M157 98.3185H154.342V84.5981H157V98.3185Z" fill="white"/>
<path d="M146.449 105.6C146.449 121.296 146.449 136.992 146.449 153.164C135.08 153.164 123.712 153.164 111.999 153.164C111.999 142.455 111.999 131.747 111.999 120.713C113.729 120.219 113.729 120.219 114.563 120.045C121.377 118.564 127.42 115.631 132.504 110.829C136.44 107.201 141.146 105.6 146.449 105.6ZM139.294 112.07C138.812 112.84 138.78 113.277 138.778 114.18C138.776 114.397 138.776 114.397 138.773 114.618C138.769 115.1 138.771 115.582 138.774 116.065C138.772 116.411 138.77 116.758 138.768 117.104C138.763 118.044 138.764 118.984 138.766 119.924C138.767 120.709 138.765 121.494 138.763 122.279C138.76 124.13 138.76 125.982 138.764 127.834C138.768 129.744 138.764 131.654 138.757 133.564C138.751 135.204 138.75 136.844 138.752 138.485C138.753 139.464 138.752 140.444 138.748 141.423C138.744 142.344 138.745 143.265 138.75 144.186C138.751 144.524 138.751 144.862 138.748 145.2C138.744 145.661 138.748 146.122 138.753 146.584C138.753 146.842 138.753 147.1 138.753 147.366C138.935 148.264 139.298 148.598 140.004 149.163C140.68 149.33 140.68 149.33 141.337 149.163C141.849 148.748 142.155 148.417 142.448 147.829C142.471 147.373 142.478 146.916 142.48 146.459C142.481 146.166 142.482 145.873 142.484 145.572C142.484 145.246 142.484 144.92 142.484 144.593C142.485 144.251 142.486 143.909 142.488 143.567C142.491 142.636 142.492 141.705 142.493 140.775C142.494 140.193 142.495 139.612 142.496 139.031C142.499 137.212 142.501 135.394 142.502 133.576C142.503 131.476 142.506 129.376 142.513 127.276C142.518 125.653 142.52 124.031 142.52 122.409C142.52 121.439 142.522 120.47 142.526 119.501C142.529 118.589 142.53 117.677 142.528 116.765C142.528 116.43 142.529 116.095 142.531 115.761C142.534 115.304 142.532 114.847 142.53 114.39C142.53 114.134 142.531 113.878 142.531 113.615C142.439 112.853 142.237 112.435 141.782 111.823C140.877 111.371 140.029 111.363 139.294 112.07ZM131.558 117.824C131.272 118.395 131.305 118.805 131.301 119.445C131.299 119.695 131.297 119.944 131.295 120.202C131.294 120.477 131.293 120.752 131.292 121.035C131.291 121.324 131.289 121.613 131.287 121.91C131.281 122.87 131.278 123.829 131.275 124.788C131.273 125.118 131.272 125.448 131.271 125.778C131.266 127.151 131.262 128.524 131.26 129.897C131.256 131.865 131.249 133.834 131.236 135.802C131.227 137.185 131.223 138.569 131.222 139.953C131.221 140.779 131.218 141.606 131.211 142.432C131.203 143.354 131.204 144.276 131.206 145.199C131.202 145.472 131.198 145.746 131.195 146.028C131.157 147.525 131.157 147.525 131.857 148.778C132.58 149.25 132.932 149.325 133.78 149.163C134.292 148.748 134.598 148.417 134.892 147.829C134.914 147.446 134.922 147.062 134.923 146.678C134.924 146.434 134.925 146.19 134.927 145.939C134.927 145.67 134.927 145.401 134.927 145.124C134.928 144.842 134.93 144.559 134.931 144.268C134.934 143.493 134.935 142.717 134.936 141.942C134.937 141.457 134.938 140.972 134.939 140.488C134.942 138.972 134.944 137.456 134.945 135.94C134.946 134.19 134.95 132.44 134.956 130.69C134.961 129.338 134.963 127.985 134.963 126.633C134.964 125.825 134.965 125.017 134.969 124.209C134.973 123.308 134.972 122.406 134.971 121.505C134.973 121.237 134.975 120.97 134.977 120.694C134.976 120.448 134.975 120.202 134.973 119.949C134.974 119.629 134.974 119.629 134.974 119.303C134.874 118.591 134.647 118.18 134.225 117.602C133.154 116.888 132.546 117.13 131.558 117.824ZM124.001 121.602C123.731 122.141 123.748 122.488 123.744 123.09C123.742 123.31 123.74 123.53 123.738 123.757C123.737 123.999 123.737 124.241 123.736 124.491C123.734 124.745 123.732 125 123.73 125.262C123.725 126.107 123.721 126.952 123.718 127.796C123.716 128.084 123.715 128.372 123.714 128.669C123.709 129.878 123.705 131.087 123.703 132.296C123.699 134.03 123.692 135.763 123.679 137.497C123.669 138.862 123.666 140.227 123.664 141.593C123.663 142.174 123.659 142.755 123.654 143.336C123.647 144.149 123.647 144.96 123.649 145.773C123.645 146.014 123.641 146.255 123.638 146.504C123.624 147.805 123.624 147.805 124.3 148.868C125.02 149.228 125.428 149.298 126.223 149.163C126.856 148.667 127.079 148.374 127.335 147.607C127.356 147.266 127.366 146.924 127.367 146.582C127.369 146.372 127.371 146.162 127.372 145.945C127.373 145.715 127.373 145.484 127.374 145.247C127.375 145.004 127.377 144.761 127.378 144.511C127.383 143.706 127.385 142.9 127.388 142.095C127.388 141.82 127.389 141.545 127.39 141.262C127.394 139.958 127.398 138.654 127.4 137.349C127.402 135.845 127.408 134.341 127.417 132.837C127.424 131.534 127.427 130.23 127.428 128.926C127.429 128.372 127.431 127.818 127.435 127.263C127.441 126.488 127.441 125.713 127.439 124.938C127.442 124.709 127.445 124.48 127.448 124.244C127.438 122.931 127.342 122.147 126.446 121.158C125.407 120.782 124.864 120.936 124.001 121.602ZM116.222 123.825C116.017 124.44 115.971 124.808 115.968 125.442C115.967 125.636 115.966 125.83 115.964 126.029C115.964 126.241 115.964 126.453 115.963 126.672C115.962 126.896 115.961 127.119 115.96 127.35C115.957 128.091 115.955 128.833 115.954 129.574C115.953 130.089 115.952 130.604 115.95 131.118C115.948 132.198 115.947 133.277 115.946 134.357C115.945 135.741 115.939 137.125 115.933 138.509C115.929 139.572 115.928 140.635 115.927 141.698C115.927 142.209 115.925 142.719 115.922 143.229C115.918 143.943 115.919 144.656 115.92 145.37C115.918 145.581 115.916 145.792 115.914 146.009C115.923 147.382 116.113 148.166 117.111 149.163C117.955 149.276 118.34 149.228 119.069 148.774C119.775 148.048 119.805 147.409 119.807 146.425C119.808 146.234 119.809 146.044 119.81 145.848C119.81 145.537 119.81 145.537 119.81 145.221C119.811 145.001 119.811 144.782 119.812 144.555C119.814 143.83 119.815 143.104 119.815 142.378C119.816 141.874 119.817 141.369 119.817 140.865C119.819 139.808 119.819 138.75 119.819 137.693C119.819 136.338 119.822 134.982 119.826 133.627C119.828 132.585 119.829 131.544 119.829 130.502C119.829 130.002 119.83 129.503 119.832 129.003C119.834 128.304 119.833 127.606 119.832 126.907C119.834 126.597 119.834 126.597 119.835 126.281C119.83 125.087 119.817 124.103 118.944 123.2C117.793 122.593 116.996 122.821 116.222 123.825Z" fill="#FF964E"/>
<path d="M150.005 105.6C156.097 105.6 160.614 107.719 165.022 111.892C169.883 116.299 176.032 118.787 182.362 120.141C183.066 120.308 183.76 120.515 184.456 120.713C184.456 131.422 184.456 142.131 184.456 153.164C173.087 153.164 161.719 153.164 150.005 153.164C150.005 137.468 150.005 121.771 150.005 105.6ZM154.228 112.267C153.982 113.005 153.977 113.555 153.975 114.332C153.974 114.625 153.972 114.918 153.971 115.219C153.971 115.545 153.971 115.87 153.97 116.196C153.969 116.538 153.968 116.88 153.967 117.222C153.964 118.152 153.963 119.082 153.962 120.012C153.961 120.592 153.96 121.173 153.959 121.754C153.956 123.571 153.954 125.388 153.953 127.205C153.952 129.303 153.948 131.402 153.942 133.5C153.937 135.121 153.935 136.743 153.934 138.364C153.934 139.333 153.933 140.301 153.929 141.27C153.925 142.181 153.925 143.092 153.927 144.003C153.927 144.337 153.926 144.672 153.924 145.006C153.921 145.463 153.922 145.919 153.924 146.376C153.924 146.631 153.924 146.886 153.923 147.15C154.016 147.911 154.218 148.329 154.673 148.941C155.315 149.262 155.739 149.247 156.451 149.163C157.16 148.6 157.519 148.264 157.702 147.366C157.702 147.108 157.702 146.85 157.702 146.584C157.703 146.439 157.705 146.295 157.707 146.146C157.711 145.664 157.707 145.182 157.703 144.699C157.704 144.353 157.705 144.006 157.707 143.66C157.711 142.719 157.709 141.78 157.704 140.84C157.701 139.855 157.703 138.871 157.704 137.887C157.705 136.235 157.701 134.583 157.695 132.93C157.688 131.02 157.688 129.11 157.692 127.2C157.695 125.362 157.694 123.524 157.69 121.686C157.688 120.904 157.689 120.122 157.69 119.34C157.692 118.419 157.689 117.499 157.683 116.578C157.682 116.24 157.682 115.902 157.683 115.564C157.685 115.102 157.682 114.641 157.677 114.18C157.676 113.922 157.675 113.664 157.675 113.398C157.537 112.561 157.279 112.187 156.673 111.601C155.635 111.452 154.971 111.496 154.228 112.267ZM162.271 117.546C161.544 118.295 161.535 118.892 161.533 119.893C161.532 120.137 161.531 120.382 161.53 120.634C161.531 120.902 161.531 121.171 161.531 121.447C161.53 121.73 161.529 122.013 161.528 122.304C161.526 123.08 161.526 123.855 161.526 124.631C161.526 125.278 161.525 125.926 161.524 126.573C161.522 128.1 161.522 129.627 161.522 131.154C161.522 132.73 161.52 134.306 161.516 135.882C161.513 137.234 161.512 138.587 161.512 139.94C161.512 140.748 161.512 141.556 161.509 142.364C161.507 143.265 161.508 144.165 161.509 145.066C161.508 145.334 161.507 145.602 161.505 145.878C161.506 146.124 161.507 146.369 161.508 146.622C161.508 146.835 161.508 147.048 161.508 147.267C161.567 147.867 161.678 148.217 162.008 148.718C162.79 149.24 163.087 149.292 164.008 149.163C164.574 148.795 164.801 148.625 165.119 148.052C165.288 147.105 165.269 146.166 165.259 145.206C165.261 144.916 165.263 144.627 165.264 144.329C165.268 143.537 165.266 142.746 165.261 141.954C165.258 141.125 165.259 140.296 165.261 139.467C165.262 138.075 165.258 136.684 165.252 135.292C165.245 133.683 165.245 132.074 165.249 130.465C165.252 128.917 165.251 127.369 165.247 125.82C165.245 125.162 165.246 124.503 165.247 123.844C165.249 122.925 165.244 122.005 165.238 121.086C165.239 120.812 165.241 120.539 165.242 120.257C165.239 120.007 165.237 119.756 165.234 119.499C165.233 119.281 165.232 119.064 165.232 118.84C165.087 118.103 164.81 117.842 164.23 117.38C163.36 117.083 163.061 117.055 162.271 117.546ZM169.564 121.602C169.153 122.266 169.064 122.77 169.062 123.544C169.06 123.755 169.059 123.966 169.057 124.184C169.058 124.414 169.058 124.643 169.059 124.88C169.058 125.124 169.057 125.367 169.055 125.618C169.052 126.423 169.053 127.228 169.053 128.033C169.052 128.593 169.051 129.152 169.05 129.711C169.049 130.883 169.049 132.056 169.05 133.228C169.051 134.582 169.048 135.936 169.044 137.291C169.039 138.595 169.039 139.899 169.039 141.203C169.039 141.757 169.038 142.311 169.036 142.866C169.033 143.64 169.035 144.415 169.037 145.19C169.035 145.419 169.034 145.648 169.032 145.885C169.043 147.31 169.195 148.126 170.231 149.163C171.008 149.267 171.452 149.219 172.156 148.869C172.976 147.931 172.829 146.986 172.816 145.78C172.818 145.525 172.82 145.271 172.821 145.008C172.825 144.166 172.821 143.324 172.816 142.481C172.816 141.897 172.817 141.312 172.818 140.727C172.819 139.502 172.815 138.276 172.809 137.05C172.802 135.634 172.802 134.217 172.806 132.801C172.809 131.437 172.808 130.074 172.804 128.711C172.803 128.131 172.803 127.551 172.804 126.971C172.805 126.161 172.801 125.351 172.795 124.541C172.796 124.301 172.798 124.06 172.799 123.812C172.805 122.554 172.805 122.554 172.258 121.46C171.199 120.782 170.556 120.825 169.564 121.602ZM177.26 123.325C176.715 124.081 176.649 124.758 176.647 125.674C176.646 125.865 176.645 126.055 176.644 126.251C176.644 126.458 176.644 126.665 176.645 126.879C176.644 127.098 176.643 127.317 176.642 127.544C176.64 128.269 176.64 128.995 176.64 129.721C176.639 130.225 176.638 130.73 176.637 131.234C176.636 132.292 176.636 133.349 176.636 134.406C176.636 135.761 176.633 137.117 176.629 138.472C176.626 139.514 176.626 140.555 176.626 141.597C176.626 142.097 176.625 142.596 176.623 143.096C176.621 143.795 176.622 144.493 176.623 145.192C176.621 145.502 176.621 145.502 176.619 145.818C176.625 147.012 176.638 147.996 177.51 148.899C178.18 149.252 178.597 149.272 179.344 149.163C179.977 148.667 180.2 148.374 180.455 147.607C180.476 147.291 180.485 146.974 180.487 146.657C180.488 146.463 180.489 146.269 180.49 146.07C180.491 145.858 180.491 145.646 180.491 145.427C180.492 145.203 180.493 144.98 180.494 144.749C180.498 144.008 180.499 143.266 180.5 142.525C180.502 142.01 180.503 141.495 180.504 140.981C180.507 139.901 180.508 138.822 180.509 137.742C180.51 136.358 180.515 134.974 180.522 133.59C180.526 132.527 180.527 131.464 180.527 130.401C180.528 129.89 180.53 129.38 180.533 128.87C180.536 128.156 180.536 127.443 180.535 126.729C180.537 126.518 180.539 126.307 180.541 126.09C180.532 124.717 180.341 123.933 179.344 122.936C178.468 122.839 177.983 122.793 177.26 123.325Z" fill="#FF964E"/>
<path d="M98.3518 156.691C98.6136 156.69 98.6136 156.69 98.8807 156.69C99.4705 156.688 100.06 156.689 100.65 156.689C101.075 156.688 101.5 156.688 101.926 156.687C103.098 156.685 104.27 156.685 105.442 156.685C106.705 156.684 107.968 156.682 109.23 156.681C111.993 156.678 114.755 156.677 117.518 156.676C119.242 156.675 120.966 156.674 122.69 156.673C127.459 156.67 132.229 156.668 136.999 156.667C137.307 156.667 137.616 156.667 137.924 156.667C138.233 156.667 138.543 156.667 138.852 156.667C139.472 156.667 140.093 156.667 140.713 156.667C140.867 156.667 141.021 156.667 141.179 156.667C146.169 156.666 151.159 156.662 156.149 156.657C161.422 156.652 166.696 156.649 171.969 156.648C174.845 156.648 177.72 156.647 180.596 156.643C183.044 156.639 185.492 156.638 187.94 156.64C189.189 156.641 190.439 156.641 191.689 156.638C192.832 156.635 193.975 156.635 195.118 156.638C195.533 156.638 195.947 156.638 196.361 156.636C196.923 156.633 197.485 156.635 198.046 156.637C198.29 156.635 198.29 156.635 198.538 156.632C199.778 156.645 200.48 156.964 201.348 157.831C201.422 158.281 201.422 158.281 201.431 158.804C201.437 158.975 201.444 159.146 201.45 159.323C201.304 160.048 201.044 160.272 200.459 160.721C199.849 160.808 199.329 160.84 198.72 160.833C198.543 160.834 198.366 160.835 198.184 160.837C197.586 160.84 196.989 160.837 196.392 160.834C195.961 160.835 195.53 160.836 195.099 160.838C193.912 160.842 192.724 160.84 191.537 160.837C190.258 160.835 188.978 160.838 187.699 160.841C185.191 160.845 182.684 160.844 180.177 160.841C178.14 160.839 176.102 160.839 174.065 160.84C173.776 160.84 173.486 160.84 173.188 160.84C172.6 160.84 172.012 160.841 171.423 160.841C166.061 160.844 160.699 160.841 155.337 160.836C150.44 160.832 145.542 160.832 140.645 160.837C135.146 160.841 129.646 160.843 124.147 160.841C123.561 160.84 122.975 160.84 122.389 160.84C122.101 160.84 121.812 160.84 121.515 160.839C119.48 160.839 117.444 160.84 115.408 160.842C112.929 160.844 110.45 160.844 107.97 160.839C106.704 160.837 105.438 160.836 104.172 160.839C103.015 160.841 101.857 160.84 100.699 160.835C100.279 160.834 99.8595 160.835 99.4395 160.837C98.8708 160.84 98.3024 160.837 97.7338 160.833C97.5688 160.835 97.4038 160.837 97.2338 160.839C96.467 160.828 96.0651 160.774 95.4496 160.3C94.9478 159.615 94.9821 159.127 95.0187 158.304C95.1064 157.831 95.1064 157.831 95.5092 157.276C96.4245 156.648 97.2853 156.688 98.3518 156.691Z" fill="#40404B"/>
<path d="M188.012 115.157C190.579 115.157 193.146 115.157 195.791 115.157C195.791 127.699 195.791 140.241 195.791 153.164C193.224 153.164 190.657 153.164 188.012 153.164C188.012 140.621 188.012 128.079 188.012 115.157Z" fill="#40404B"/>
<path d="M100.663 115.157C103.23 115.157 105.797 115.157 108.442 115.157C108.442 127.699 108.442 140.241 108.442 153.164C105.875 153.164 103.308 153.164 100.663 153.164C100.663 140.621 100.663 128.079 100.663 115.157Z" fill="#40404B"/>
<path d="M194.206 104.268C195.085 104.928 195.476 105.678 195.791 106.711C195.947 108.108 195.735 109.118 194.902 110.267C194.086 111.102 193.207 111.556 192.037 111.629C190.94 111.564 189.978 111.306 189.153 110.558C188.092 109.343 187.934 108.546 187.95 106.93C188.059 105.773 188.614 105.213 189.415 104.433C190.954 103.431 192.59 103.396 194.206 104.268Z" fill="#40404B"/>
<path d="M107.684 105.015C108.557 106.026 108.536 106.992 108.512 108.286C108.389 109.422 107.833 109.979 107.067 110.767C105.96 111.456 104.802 111.736 103.511 111.476C102.294 111.093 101.54 110.416 100.913 109.309C100.517 108.01 100.471 107.017 101.01 105.78C101.645 104.641 102.519 104.014 103.747 103.613C105.358 103.581 106.483 103.93 107.684 105.015Z" fill="#40404B"/>
<defs>
<linearGradient id="paint0_linear_301_1352" x1="150.105" y1="62" x2="150.105" y2="115.447" gradientUnits="userSpaceOnUse">
<stop stop-color="#FFB684"/>
<stop offset="1" stop-color="#FF8330"/>
</linearGradient>
</defs>
</svg>
