<svg width="526" height="407" viewBox="0 0 526 407" fill="none" xmlns="http://www.w3.org/2000/svg">
<g clip-path="url(#clip0_402_1941)">
<path d="M85.5069 405.964C85.5069 406.538 85.8216 407 86.2133 407H438.468C438.863 407 439.175 406.539 439.175 405.964C439.175 405.389 438.86 404.928 438.468 404.928H86.2133C85.8216 404.929 85.5069 405.39 85.5069 405.964Z" fill="#CCCCCC"/>
<path d="M213.464 402.55H200.887V404.77H213.464V402.55Z" fill="#B6B3C5"/>
<path d="M324.804 402.921H312.227V405.141H324.804V402.921Z" fill="#B6B3C5"/>
<path d="M280.88 303.761C280.179 307.999 277.998 311.85 274.723 314.628C271.449 317.407 267.294 318.932 263 318.932C258.706 318.932 254.552 317.407 251.277 314.628C248.002 311.85 245.821 307.999 245.12 303.761H199.377V402.919H326.625V303.761H280.88Z" fill="#D6D6E3"/>
<path d="M326.993 395.063H199.747V398.515H326.993V395.063Z" fill="#090814"/>
<path d="M518.906 306.353H7.09381C5.21306 306.351 3.40993 305.603 2.08004 304.272C0.750144 302.942 0.00209089 301.139 0 299.257L0 7.09619C0.00191667 5.21486 0.749893 3.41113 2.07981 2.08078C3.40972 0.750417 5.21294 0.00209171 7.09381 0H518.906C520.787 0.0022653 522.59 0.750555 523.92 2.08073C525.25 3.41091 525.998 5.21437 526 7.09553V299.257C525.998 301.139 525.25 302.942 523.92 304.272C522.59 305.602 520.787 306.351 518.906 306.353Z" fill="#090814"/>
<path d="M512.765 11.2305H11.9178V293.904H512.765V11.2305Z" fill="white"/>
<path d="M376.235 222.468C374.773 222.468 373.584 222.99 373.584 223.63V224.559C373.584 225.2 374.773 225.72 376.235 225.72H437.743C439.205 225.72 440.394 225.199 440.394 224.559V223.63C440.394 222.989 439.205 222.468 437.743 222.468H376.235Z" fill="#F2F2F2"/>
<path d="M491.827 247.476C494.46 247.476 496.599 248.629 496.599 250.044V270.029C496.599 271.446 494.458 272.597 491.827 272.597H378.356C375.723 272.597 373.584 271.445 373.584 270.029V250.046C373.584 248.629 375.725 247.478 378.356 247.478" fill="#F2F2F2"/>
<path d="M376.235 228.791C374.773 228.791 373.584 229.431 373.584 230.218C373.584 231.005 374.773 231.646 376.235 231.646H470.617C472.079 231.646 473.268 231.005 473.268 230.218C473.268 229.431 472.079 228.791 470.617 228.791H376.235Z" fill="#F2F2F2"/>
<path d="M376.235 234.717C374.773 234.717 373.584 235.357 373.584 236.144C373.584 236.931 374.773 237.572 376.235 237.572H470.617C472.079 237.572 473.268 236.931 473.268 236.144C473.268 235.357 472.079 234.717 470.617 234.717H376.235Z" fill="#F2F2F2"/>
<g clip-path="url(#clip1_402_1941)">
<mask id="mask0_402_1941" style="mask-type:luminance" maskUnits="userSpaceOnUse" x="199" y="91" width="137" height="137">
<path d="M336 91H199V228H336V91Z" fill="white"/>
</mask>
<g mask="url(#mask0_402_1941)">
<path d="M212.7 155.583L264.366 103.917C271.5 96.783 283.065 96.783 290.199 103.917C297.333 111.05 297.333 122.616 290.199 129.75L251.18 168.768" stroke="black" stroke-width="8" stroke-linecap="round"/>
<path d="M251.719 168.23L290.199 129.75C297.333 122.616 308.898 122.616 316.032 129.75L316.301 130.019C323.435 137.152 323.435 148.718 316.301 155.852L269.574 202.579C267.196 204.957 267.196 208.812 269.574 211.189L279.169 220.785" stroke="black" stroke-width="8" stroke-linecap="round"/>
<path d="M277.283 116.833L239.071 155.044C231.938 162.178 231.938 173.743 239.071 180.877C246.205 188.011 257.77 188.011 264.904 180.877L303.115 142.666" stroke="black" stroke-width="8" stroke-linecap="round"/>
</g>
</g>
<path d="M92.5518 53.0706H31.4355C30.5243 53.0706 29.6505 52.7087 29.0062 52.0644C28.3619 51.4201 28 50.5463 28 49.6352C28 48.724 28.3619 47.8502 29.0062 47.2059C29.6505 46.5617 30.5243 46.1997 31.4355 46.1997H92.5518C93.463 46.1997 94.3368 46.5617 94.9811 47.2059C95.6254 47.8502 95.9873 48.724 95.9873 49.6352C95.9873 50.5463 95.6254 51.4201 94.9811 52.0644C94.3368 52.7087 93.463 53.0706 92.5518 53.0706Z" fill="#CCCCCC"/>
<path d="M92.5518 39.8709H31.4355C30.5243 39.8709 29.6505 39.509 29.0062 38.8647C28.3619 38.2204 28 37.3466 28 36.4355C28 35.5243 28.3619 34.6505 29.0062 34.0062C29.6505 33.362 30.5243 33 31.4355 33H92.5518C93.463 33 94.3368 33.362 94.9811 34.0062C95.6254 34.6505 95.9873 35.5243 95.9873 36.4355C95.9873 37.3466 95.6254 38.2204 94.9811 38.8647C94.3368 39.509 93.463 39.8709 92.5518 39.8709Z" fill="#CCCCCC"/>
<path d="M48.7939 66.0897H31.4355C30.5243 66.0897 29.6505 65.7277 29.0062 65.0835C28.3619 64.4392 28 63.5654 28 62.6542C28 61.7431 28.3619 60.8693 29.0062 60.225C29.6505 59.5807 30.5243 59.2188 31.4355 59.2188H48.7939C49.705 59.2188 50.5788 59.5807 51.2231 60.225C51.8673 60.8693 52.2293 61.7431 52.2293 62.6542C52.2293 63.5654 51.8673 64.4392 51.2231 65.0835C50.5788 65.7277 49.705 66.0897 48.7939 66.0897Z" fill="#CCCCCC"/>
<path d="M92.5518 174.981H31.4355C30.5243 174.981 29.6505 174.619 29.0062 173.975C28.3619 173.33 28 172.456 28 171.545C28 170.634 28.3619 169.76 29.0062 169.116C29.6505 168.472 30.5243 168.11 31.4355 168.11H92.5518C93.463 168.11 94.3368 168.472 94.9811 169.116C95.6254 169.76 95.9873 170.634 95.9873 171.545C95.9873 172.456 95.6254 173.33 94.9811 173.975C94.3368 174.619 93.463 174.981 92.5518 174.981Z" fill="#CCCCCC"/>
<path d="M92.5518 161.781H31.4355C30.5243 161.781 29.6505 161.419 29.0062 160.775C28.3619 160.131 28 159.257 28 158.346C28 157.434 28.3619 156.561 29.0062 155.916C29.6505 155.272 30.5243 154.91 31.4355 154.91H92.5518C93.463 154.91 94.3368 155.272 94.9811 155.916C95.6254 156.561 95.9873 157.434 95.9873 158.346C95.9873 159.257 95.6254 160.131 94.9811 160.775C94.3368 161.419 93.463 161.781 92.5518 161.781Z" fill="#CCCCCC"/>
<path d="M48.7939 188H31.4355C30.5243 188 29.6505 187.638 29.0062 186.994C28.3619 186.349 28 185.476 28 184.564C28 183.653 28.3619 182.779 29.0062 182.135C29.6505 181.491 30.5243 181.129 31.4355 181.129H48.7939C49.705 181.129 50.5788 181.491 51.2231 182.135C51.8673 182.779 52.2293 183.653 52.2293 184.564C52.2293 185.476 51.8673 186.349 51.2231 186.994C50.5788 187.638 49.705 188 48.7939 188Z" fill="#CCCCCC"/>
<path d="M91.0507 129.834C90.1372 129.836 89.2599 129.477 88.6099 128.835L72.4282 112.855C72.1106 112.541 71.8583 112.168 71.6862 111.756C71.514 111.344 71.4254 110.902 71.4254 110.455C71.4254 110.009 71.514 109.567 71.6862 109.155C71.8583 108.743 72.1106 108.369 72.4282 108.056L88.5434 92.1402C89.2148 91.4803 90.1194 91.1118 91.0607 91.1148C92.0021 91.1177 92.9044 91.4918 93.5716 92.1559C94.2394 92.8253 94.6144 93.7323 94.6144 94.6778C94.6144 95.6234 94.2394 96.5303 93.5716 97.1997L81.5972 109.177C81.224 109.551 81.0145 110.058 81.0145 110.586C81.0145 111.114 81.224 111.621 81.5972 111.995L93.5078 123.906C93.9942 124.392 94.3256 125.011 94.4598 125.685C94.594 126.359 94.525 127.058 94.2616 127.693C93.9982 128.327 93.5522 128.87 92.9802 129.251C92.4082 129.632 91.736 129.835 91.0486 129.834H91.0507Z" fill="#FF6701"/>
<path d="M168.495 53.0706H107.379C106.468 53.0706 105.594 52.7087 104.95 52.0644C104.305 51.4201 103.943 50.5463 103.943 49.6352C103.943 48.724 104.305 47.8502 104.95 47.2059C105.594 46.5617 106.468 46.1997 107.379 46.1997H168.495C169.406 46.1997 170.28 46.5617 170.925 47.2059C171.569 47.8502 171.931 48.724 171.931 49.6352C171.931 50.5463 171.569 51.4201 170.925 52.0644C170.28 52.7087 169.406 53.0706 168.495 53.0706Z" fill="#CCCCCC"/>
<path d="M168.495 66.0897H62.1768C61.2656 66.0897 60.3918 65.7277 59.7476 65.0835C59.1033 64.4392 58.7413 63.5654 58.7413 62.6542C58.7413 61.7431 59.1033 60.8693 59.7476 60.225C60.3918 59.5807 61.2656 59.2188 62.1768 59.2188H168.495C169.406 59.2188 170.28 59.5807 170.925 60.225C171.569 60.8693 171.931 61.7431 171.931 62.6542C171.931 63.5654 171.569 64.4392 170.925 65.0835C170.28 65.7277 169.406 66.0897 168.495 66.0897Z" fill="#CCCCCC"/>
<path d="M126.184 40.0521H108.824C107.913 40.0521 107.039 39.6901 106.395 39.0459C105.751 38.4016 105.389 37.5278 105.389 36.6166C105.389 35.7055 105.751 34.8317 106.395 34.1874C107.039 33.5431 107.913 33.1812 108.824 33.1812H126.182C127.094 33.1812 127.967 33.5431 128.612 34.1874C129.256 34.8317 129.618 35.7055 129.618 36.6166C129.618 37.5278 129.256 38.4016 128.612 39.0459C127.967 39.6901 127.094 40.0521 126.182 40.0521H126.184Z" fill="#CCCCCC"/>
<path d="M168.495 174.981H107.379C106.468 174.981 105.594 174.619 104.95 173.975C104.305 173.33 103.943 172.456 103.943 171.545C103.943 170.634 104.305 169.76 104.95 169.116C105.594 168.472 106.468 168.11 107.379 168.11H168.495C169.406 168.11 170.28 168.472 170.925 169.116C171.569 169.76 171.931 170.634 171.931 171.545C171.931 172.456 171.569 173.33 170.925 173.975C170.28 174.619 169.406 174.981 168.495 174.981Z" fill="#CCCCCC"/>
<path d="M168.495 188H62.1768C61.2656 188 60.3918 187.638 59.7476 186.994C59.1033 186.349 58.7413 185.476 58.7413 184.564C58.7413 183.653 59.1033 182.779 59.7476 182.135C60.3918 181.491 61.2656 181.129 62.1768 181.129H168.495C169.406 181.129 170.28 181.491 170.925 182.135C171.569 182.779 171.931 183.653 171.931 184.564C171.931 185.476 171.569 186.349 170.925 186.994C170.28 187.638 169.406 188 168.495 188Z" fill="#CCCCCC"/>
<path d="M126.184 161.962H108.824C107.913 161.962 107.039 161.6 106.395 160.956C105.751 160.312 105.389 159.438 105.389 158.527C105.389 157.616 105.751 156.742 106.395 156.098C107.039 155.453 107.913 155.091 108.824 155.091H126.182C127.094 155.091 127.967 155.453 128.612 156.098C129.256 156.742 129.618 157.616 129.618 158.527C129.618 159.438 129.256 160.312 128.612 160.956C127.967 161.6 127.094 161.962 126.182 161.962H126.184Z" fill="#CCCCCC"/>
<path d="M116.836 129.834C116.149 129.835 115.476 129.632 114.904 129.251C114.332 128.87 113.887 128.327 113.623 127.693C113.36 127.058 113.291 126.359 113.425 125.685C113.559 125.011 113.891 124.392 114.377 123.906L126.288 111.995C126.661 111.621 126.87 111.114 126.87 110.586C126.87 110.057 126.661 109.551 126.288 109.177L114.313 97.2002C113.644 96.5313 113.269 95.6242 113.269 94.6783C113.269 93.7324 113.644 92.8253 114.313 92.1564C114.98 91.4923 115.883 91.1182 116.824 91.1153C117.765 91.1123 118.67 91.4808 119.341 92.1407L135.456 108.056C135.774 108.37 136.026 108.743 136.199 109.155C136.371 109.567 136.459 110.009 136.459 110.456C136.459 110.902 136.371 111.344 136.199 111.756C136.026 112.168 135.774 112.542 135.456 112.856L119.275 128.835C118.625 129.476 117.749 129.835 116.836 129.834Z" fill="#FF6701"/>
<path d="M194.51 257H86.4904C84.563 257 83 254.985 83 252.5C83 250.015 84.563 248 86.4904 248H194.51C196.437 248 198 250.015 198 252.5C198 254.985 196.438 257 194.51 257Z" fill="#FF6701"/>
<path d="M50.5 275C62.9264 275 73 264.926 73 252.5C73 240.074 62.9264 230 50.5 230C38.0736 230 28 240.074 28 252.5C28 264.926 38.0736 275 50.5 275Z" fill="#F2F2F2"/>
<path d="M50.5 231.406C45.6335 231.409 40.9177 233.094 37.1514 236.176C33.3851 239.258 30.7999 243.547 29.8337 248.317C28.8675 253.086 29.5798 258.043 31.8498 262.348C34.1198 266.652 37.808 270.04 42.2896 271.936C47.4445 274.114 53.2532 274.155 58.438 272.049C63.6228 269.944 67.7589 265.865 69.9365 260.71C72.114 255.556 72.1546 249.747 70.0493 244.562C67.944 239.377 63.8653 235.241 58.7104 233.064C56.113 231.964 53.3204 231.401 50.5 231.406ZM50.5 230C54.9501 230 59.3002 231.32 63.0003 233.792C66.7004 236.264 69.5843 239.778 71.2873 243.89C72.9902 248.001 73.4358 252.525 72.5677 256.89C71.6995 261.254 69.5566 265.263 66.4099 268.41C63.2632 271.557 59.2541 273.699 54.8895 274.568C50.525 275.436 46.001 274.99 41.8896 273.287C37.7783 271.584 34.2643 268.7 31.7919 265C29.3196 261.3 28 256.95 28 252.5C28 246.533 30.3705 240.81 34.5901 236.59C38.8097 232.371 44.5326 230 50.5 230Z" fill="#090814"/>
<path d="M47.9991 262.042C47.6825 262.042 47.3703 261.968 47.0872 261.827C46.804 261.685 46.5577 261.48 46.3678 261.226L41.3665 254.558C41.2058 254.344 41.0889 254.1 41.0225 253.841C40.956 253.581 40.9414 253.311 40.9793 253.046C41.0172 252.781 41.1069 252.526 41.2434 252.295C41.3798 252.065 41.5604 251.864 41.7746 251.703C41.9889 251.542 42.2327 251.425 42.4922 251.359C42.7516 251.293 43.0216 251.278 43.2867 251.316C43.5518 251.354 43.8069 251.443 44.0373 251.58C44.2677 251.716 44.469 251.897 44.6297 252.111L47.902 256.471L56.3065 243.864C56.455 243.641 56.646 243.45 56.8685 243.301C57.0911 243.152 57.3408 243.048 57.6034 242.996C57.866 242.943 58.1363 242.943 58.399 242.995C58.6617 243.047 58.9116 243.15 59.1344 243.299C59.3572 243.447 59.5486 243.638 59.6976 243.861C59.8466 244.084 59.9503 244.333 60.0028 244.596C60.0553 244.858 60.0555 245.129 60.0036 245.391C59.9516 245.654 59.8483 245.904 59.6998 246.127L49.6971 261.132C49.5162 261.403 49.2728 261.627 48.9874 261.785C48.702 261.943 48.3828 262.03 48.0567 262.039L47.9991 262.042Z" fill="#FF6701"/>
</g>
<defs>
<clipPath id="clip0_402_1941">
<rect width="526" height="407" fill="white"/>
</clipPath>
<clipPath id="clip1_402_1941">
<rect width="137" height="137" fill="white" transform="translate(199 91)"/>
</clipPath>
</defs>
</svg>
