<svg width="39" height="50" viewBox="0 0 39 50" fill="none" xmlns="http://www.w3.org/2000/svg">
<g clip-path="url(#clip0_268_1309)">
<path d="M21.9335 49.3022C31.2856 49.3022 38.867 42.5188 38.867 34.1511C38.867 25.7834 31.2856 19 21.9335 19C12.5814 19 5 25.7834 5 34.1511C5 42.5188 12.5814 49.3022 21.9335 49.3022Z" fill="white"/>
<path d="M16.2173 3H29.6782C33.5442 3 36.6782 6.13401 36.6782 10V24.4033C36.678 27.749 33.9662 30.4607 30.6206 30.4609H29.8765L29.6626 31.1738L28.2466 35.8926L21.731 30.6807L21.4575 30.4609H16.2173C12.3513 30.4609 9.21729 27.3269 9.21729 23.4609V10C9.21729 6.13401 12.3513 3 16.2173 3Z" fill="white" stroke="#F36822" stroke-width="2"/>
<path d="M19.5215 23.9597C20.7518 21.9793 22.9753 20.6909 25.4731 20.7695C26.4567 20.8005 27.3844 21.0403 28.2152 21.4451" stroke="#F36822" stroke-width="2" stroke-linecap="round"/>
<path d="M27.8584 14.8892C28.8754 14.8892 29.6997 14.0648 29.6997 13.0479C29.6997 12.0309 28.8754 11.2065 27.8584 11.2065C26.8415 11.2065 26.0171 12.0309 26.0171 13.0479C26.0171 14.0648 26.8415 14.8892 27.8584 14.8892Z" fill="#F36822"/>
<path d="M18.0376 14.8892C19.0546 14.8892 19.879 14.0648 19.879 13.0479C19.879 12.0309 19.0546 11.2065 18.0376 11.2065C17.0207 11.2065 16.1963 12.0309 16.1963 13.0479C16.1963 14.0648 17.0207 14.8892 18.0376 14.8892Z" fill="#F36822"/>
<path d="M9.13778 18.5719H7C4.79086 18.5719 3 16.781 3 14.5719V7.3894" stroke="#F36822" stroke-width="2"/>
<path d="M35.6649 40.3782C35.6649 36.6671 34.1713 33.3142 31.7677 30.9187M9.98926 40.3782C9.98926 36.6671 11.4828 33.3142 13.8864 30.9187" stroke="#F36822" stroke-width="2"/>
<path d="M14.0483 36.9851L12.8208 39.7471" stroke="#F36822" stroke-width="2" stroke-linecap="round"/>
<path d="M2.762 4.524C3.73513 4.524 4.524 3.73513 4.524 2.762C4.524 1.78887 3.73513 1 2.762 1C1.78887 1 1 1.78887 1 2.762C1 3.73513 1.78887 4.524 2.762 4.524Z" stroke="#F36822" stroke-width="2"/>
<path d="M36 40H18" stroke="#F36822" stroke-width="2"/>
</g>
<defs>
<clipPath id="clip0_268_1309">
<rect width="39" height="50" fill="white"/>
</clipPath>
</defs>
</svg>
