<svg width="190" height="194" viewBox="0 0 190 194" fill="none" xmlns="http://www.w3.org/2000/svg">
<path d="M61.1124 59.1477C61.1124 34.3159 61.6027 9.33203 94.975 9.33203C125.439 9.33203 128.026 43.8333 128.181 56.2215C128.335 68.7931 132.349 76.0869 137.343 81.7124L150.873 93.7619C156.151 98.4624 159.778 104.735 161.22 111.654C163.038 120.382 162.413 129.442 159.415 137.838L156.5 146C139.992 160.706 98.5719 170.271 87.8303 170.271C78.0645 170.271 49.2357 162.298 34.5 154L29.5 145.5L28.6982 143.896C23.4068 133.313 24.8299 120.609 32.3316 111.459L45.2096 95.7519C53.6219 86.0003 61.1124 74.8966 61.1124 59.1477Z" fill="#EE8080"/>
<path d="M155.5 146.5C155.49 150.265 140.5 162 137 162.5C134.297 165.162 126.74 172.49 122.916 172.5H116L120 186.5C103.648 191.078 86.3522 191.078 70 186.5L72.5 172.5H59.6363C55.8128 172.49 52.149 170.989 49.4456 168.327C46.7423 165.664 54.5097 160.765 54.5 157L53.1374 156.87C47.4133 156.325 42.319 153.011 39.5 148L37.5 143L45.2096 128.319C55.9977 108.464 73.3741 95.5757 92.9742 95.5757C110.628 95.5757 130.133 106.906 141 123.5L148 133.5L155.5 146.5Z" fill="#FF9852"/>
<path d="M31 158L36.7593 144.709C37.0765 143.978 38.0418 143.915 38.4055 144.624C40.3696 148.457 43.2083 154.744 53.9198 156.487C53.9721 156.496 54.0194 156.502 54.0599 156.468C55.1477 155.552 66.2612 135.465 69.4393 122.746C69.4803 122.582 69.4767 122.414 69.4321 122.251L68.0001 117L62.532 103.081C62.5107 103.027 62.4848 102.975 62.4545 102.925L57.0636 94.104C57.0214 94.0349 56.9882 93.9627 56.9641 93.8854C55.9672 90.6927 54.6287 84.9191 57.0001 86.5C58.8161 87.7107 62.2733 92.6237 64.6426 96.1706C65.1961 96.9992 66.5001 96.6103 66.5001 95.6138V92.7808C66.5001 92.1302 67.1115 91.6528 67.7426 91.8106L68.0088 91.8772C68.3176 91.9544 68.5713 92.174 68.6918 92.4687L69.9076 95.4406C71.965 100.47 74.4736 105.302 77.4027 109.879L81.0001 115.5L82.8477 119.195C82.9465 119.393 82.9771 119.618 82.9348 119.834L70.5001 183.5L70.0001 187.75L98.3379 190.982C98.4452 190.994 98.5539 190.989 98.6596 190.966L119.142 186.601C118.001 180.899 114.328 163.218 111 144.5L107.551 117.402C107.518 117.144 107.587 116.884 107.743 116.676L109.29 114.614C115.085 106.887 120.173 98.6544 124.492 90.0157L125.96 87.0806C125.987 87.027 126.018 86.9758 126.055 86.9285C126.569 86.2706 127.5 85.4565 127.5 87C127.5 88.2447 126.693 90.8815 126.492 91.9911C126.432 92.3201 126.611 92.3329 126.797 92.0547L129.381 88.1792C129.459 88.0611 129.562 87.9611 129.683 87.8859L133.257 85.652C133.416 85.5527 133.616 85.4837 133.763 85.5997C134.049 85.8254 134.304 86.4789 134 88C133.688 89.5596 135.484 89.8017 136.685 89.9117C137.16 89.9552 137.5 90.3431 137.5 90.8198V91V91.6667C137.5 91.883 137.43 92.0936 137.3 92.2667L136 94L134.742 95.5095C130.609 100.47 127.318 106.074 125 112.101L121.067 122.327C121.023 122.441 121 122.563 121 122.686V126.303C121 126.433 121.026 126.562 121.075 126.683L135.808 162.533C135.929 162.826 136.189 163.041 136.5 162.975C138.631 162.523 145.067 158.503 149 156C153.157 153.354 153.696 150.328 154.503 148.216C154.767 147.527 155.5 147.762 155.5 148.5V150.782C155.5 150.926 155.531 151.068 155.591 151.198L160.668 162.276C160.862 162.7 160.738 163.201 160.369 163.485L141.57 177.946C141.523 177.982 141.474 178.014 141.422 178.041L129.12 184.437C129.04 184.479 128.955 184.51 128.867 184.528L119.142 186.601C119.232 187.049 119.306 187.423 119.363 187.718C119.452 188.18 119.17 188.572 118.71 188.669C97.011 193.231 76.9162 190.385 70.0001 187.75L42.6426 175.564C42.5481 175.521 42.4607 175.465 42.3835 175.396L29.0704 163.509C28.7337 163.209 28.6401 162.72 28.842 162.316L31 158Z" fill="white"/>
<path d="M159.307 110.895C158.027 84.0542 130.311 88.0355 129.885 54.5386C129.816 49.1304 129.287 39.5091 126.175 30.3828" stroke="#40404B" stroke-linecap="round" stroke-linejoin="round"/>
<path d="M49.1963 91.3628C39.455 103.287 27.5684 112.877 24.5747 125.664" stroke="#40404B" stroke-linecap="round" stroke-linejoin="round"/>
<path d="M116.625 14.8273C111.873 10.4815 105.43 7.64941 96.6914 7.64941C63.3142 7.64941 62.8287 32.6333 62.8287 57.4651C62.8287 68.0883 59.4108 76.6158 54.6003 84.0231" stroke="#40404B" stroke-linecap="round" stroke-linejoin="round"/>
<path d="M115.659 99.4221C109.073 96.0034 101.928 94.1274 94.4452 94.1274C86.969 94.1274 79.8171 96.0018 73.2308 99.4221M58.3759 110.697C60.0181 108.989 61.7283 107.395 63.4999 105.923" stroke="#40404B" stroke-linecap="round" stroke-linejoin="round"/>
<path d="M137.343 119.01C134.021 114.244 130.089 109.921 125.643 106.146" stroke="#40404B" stroke-linecap="round" stroke-linejoin="round"/>
<path d="M110.858 75.6694C109.877 81.2225 109.323 96.7034 110.149 104.767C107.006 107.375 93.1947 109.736 84.0125 106.233C85.2531 101.754 85.9151 91.0852 84.8388 84.5688C90.7134 82.4514 110.858 75.6694 110.858 75.6694Z" fill="white"/>
<path d="M110.978 92.2607C110.951 96.4617 111.067 100.532 111.375 103.56C109.485 105.129 103.723 106.609 97.4367 106.776" stroke="#40404B" stroke-linecap="round" stroke-linejoin="round"/>
<path d="M85.2386 105.021C86.4792 100.542 87.1412 89.8733 86.0648 83.3569C91.9493 81.2395 112.084 74.4575 112.084 74.4575C111.706 76.6039 111.39 80.2303 111.194 84.3395" stroke="#40404B" stroke-linecap="round" stroke-linejoin="round"/>
<path d="M91.1207 88.4657C75.8868 88.4657 63.5373 72.2515 63.5373 52.2502C63.5373 32.2489 75.8868 16.0347 91.1207 16.0347C106.355 16.0347 118.704 32.2489 118.704 52.2502C118.704 72.2515 106.355 88.4657 91.1207 88.4657Z" fill="white"/>
<path d="M69.7112 70.3071C74.6321 80.2229 83.1523 86.7755 92.8372 86.7755C95.0346 86.7757 97.2186 86.4377 99.3101 85.7736" stroke="#40404B" stroke-linecap="round" stroke-linejoin="round"/>
<path d="M118.177 64.8914C119.68 60.2587 120.437 55.423 120.421 50.5598C120.421 30.5591 108.073 14.3442 92.8372 14.3442C77.6014 14.3442 65.2538 30.5591 65.2538 50.5598C65.2467 54.4117 65.7177 58.25 66.6563 61.9894" stroke="#40404B" stroke-linecap="round" stroke-linejoin="round"/>
<path d="M81.5269 57.5748C80.685 57.7626 79.6662 56.4072 79.2513 54.5475C78.8364 52.6878 79.1826 51.0279 80.0245 50.8401C80.8663 50.6523 81.8852 52.0076 82.3001 53.8674C82.715 55.7271 82.3688 57.387 81.5269 57.5748Z" fill="#40404B"/>
<path d="M88.4229 59.2539C87.7731 61.8325 86.5717 64.6911 84.4999 66.497" stroke="#40404B" stroke-linecap="round" stroke-linejoin="round"/>
<path d="M89.0796 54.5C89.076 55.0276 89.0446 55.5546 88.9855 56.079" stroke="#40404B" stroke-linecap="round" stroke-linejoin="round"/>
<path d="M89.5 77.5C87.8431 77.5 86.5 75.7091 86.5 73.5C86.5 71.2909 87.8431 69.5 89.5 69.5C91.1568 69.5 92.5 71.2909 92.5 73.5C92.5 75.7091 91.1568 77.5 89.5 77.5Z" stroke="#40404B" stroke-linecap="round" stroke-linejoin="round"/>
<path d="M83.896 23.8469C83.8753 23.9747 83.8416 24.1 83.7955 24.2211C82.4322 28.2048 68.2433 53.435 61.6699 57.945C61.437 54 61.0471 37.7754 63.6118 33.1833C66.1764 28.5912 76.8248 16.5 80.1667 16.5C83.5086 16.5 83.8862 23.9338 83.8862 23.9338" fill="#EE8080"/>
<path d="M70.3877 49.7559C69.1769 51.4213 67.8626 53.0114 66.4525 54.517" stroke="#40404B" stroke-linecap="round" stroke-linejoin="round"/>
<path d="M86.5801 22.2686C86.5594 22.3963 86.5257 22.5217 86.4796 22.6428C85.6189 25.1537 79.6609 36.1101 73.7299 44.995" stroke="#40404B" stroke-linecap="round" stroke-linejoin="round"/>
<path d="M78.6065 16.0369C78.6065 18.4513 100.977 60.2054 112.388 66.0433C117.086 69.1265 126.133 70.2274 126.133 67.8058C126.133 65.3842 121.771 23.8643 112.486 19.1201C103.201 14.3759 89.5687 8.87592 78.6065 16.0369Z" fill="#EE8080"/>
<path d="M90.1547 34.7437C97.5446 47.2549 107.271 61.5914 113.614 64.8363C115.681 66.1932 118.596 67.1662 121.215 67.6249" stroke="#40404B" stroke-linecap="round" stroke-linejoin="round"/>
<path d="M79.8324 14.8296C79.8324 15.4573 81.3329 18.7191 83.7554 23.3137" stroke="#40404B" stroke-linecap="round" stroke-linejoin="round"/>
<path d="M115.593 71.5143C111.684 71.5143 108.514 68.3936 108.514 64.544C108.514 60.6944 111.684 57.5737 115.593 57.5737C119.502 57.5737 122.671 60.6944 122.671 64.544C122.671 68.3936 119.502 71.5143 115.593 71.5143Z" fill="white"/>
<path d="M119.682 56.9603C118.587 56.4843 117.386 56.2893 116.194 56.3936C115.001 56.4978 113.854 56.898 112.861 57.5567" stroke="#40404B" stroke-linecap="round" stroke-linejoin="round"/>
<path d="M114.813 70.0246C116.023 70.3732 117.305 70.3978 118.527 70.096C119.75 69.7941 120.868 69.1767 121.768 68.3073C122.667 67.4379 123.315 66.3481 123.644 65.1501C123.973 63.9522 123.972 62.6895 123.64 61.4922" stroke="#40404B" stroke-linecap="round" stroke-linejoin="round"/>
<path d="M70.0001 187L83.9783 121.103C83.9928 121.034 84.0001 120.965 84.0001 120.895V119.346C84.0001 119.122 83.9248 118.904 83.7864 118.728L78.5001 112M73.0001 100L69.0701 92.6314C69.0237 92.5443 68.9652 92.4647 68.8944 92.396C68.0339 91.5598 66.5001 90.3489 66.5001 91.5001C66.5001 92.7001 66.1667 95.3334 66.0001 96.5001M72.5001 106.5L58.5448 87.5607C58.515 87.5204 58.4826 87.4824 58.4466 87.4475C57.7597 86.7813 56.3897 85.8313 56.0001 87.0001C55.5001 88.5001 55.5001 91.0001 56.0001 93.5001M62.5001 103.5L63.7581 106.5M59.5001 147C62.3334 140.5 68.2001 126.9 69.0001 124.5C69.8001 122.1 69.3334 119.833 69.0001 119L63.7581 106.5M56.0001 154L45.5001 176M51.0001 156C47.0001 154.5 38.7002 149.8 37.5001 143C37.3893 142.373 46.0001 127 49.0001 124M58.5001 110.5L63.7581 106.5" stroke="#40404B" stroke-linecap="round"/>
<path d="M36 146L28.5 162.5" stroke="#40404B"/>
<path d="M73.5 100C75.8333 98.6667 81.3 95.9 84.5 95.5" stroke="#40404B" stroke-linecap="round"/>
<path d="M111 97.5L116 99.5M160.5 161C160.5 161 158.5 156.5 154.5 151.5C154.194 151.117 155.295 149.269 156.137 148.024C156.354 147.701 156.378 147.285 156.186 146.947C153.235 141.744 147.429 131.587 145.5 128.5M119.5 187.5L116 170.5M113 156C111.192 146.465 107.599 125.676 107.502 117.818C107.499 117.605 107.568 117.408 107.694 117.236L113 110M114 106.5L125.937 86.6056C125.979 86.5354 126.029 86.4706 126.088 86.4142C126.769 85.7676 127.883 85.0851 127.5 87C127 89.5 125 99 121.5 105.5M129.5 88C130.5 87 132.7 85 133.5 85C134.5 85 135.5 87 134.5 89.5C134.385 89.7868 134.242 90.1251 134.077 90.5M130.5 98C131.357 96.2868 133.094 92.7393 134.077 90.5M134.077 90.5C135.551 89.8333 138.3 89 137.5 91C136.5 93.5 130.5 100 130.5 101M128.5 104.5L121.539 121.903C121.513 121.968 121.48 122.028 121.446 122.088C121.121 122.661 120.743 124.106 121.5 126C122.3 128 127.167 141.167 129.5 147.5M130.5 151C132.034 154.067 134.186 158.44 136.373 163M144 179.5C142.989 176.214 140.129 170.83 136.373 163M136.373 163C139.082 162.5 145.7 160.1 150.5 154.5" stroke="#40404B" stroke-linecap="round"/>
<path d="M189.5 95.5C189.5 147.967 147.191 190.5 95 190.5C42.8091 190.5 0.5 147.967 0.5 95.5C0.5 68.099 12.0397 43.4075 30.5 26.0689M95 0.5C118.015 0.5 139.109 8.7712 155.5 22.5181" stroke="#40404B"/>
</svg>
