<svg width="56" height="56" viewBox="0 0 56 56" fill="none" xmlns="http://www.w3.org/2000/svg">
<g clip-path="url(#clip0_1374_10106)">
<mask id="mask0_1374_10106" style="mask-type:luminance" maskUnits="userSpaceOnUse" x="0" y="0" width="56" height="56">
<path d="M56 0H0V56H56V0Z" fill="white"/>
</mask>
<g mask="url(#mask0_1374_10106)">
<path fill-rule="evenodd" clip-rule="evenodd" d="M55.8598 25.2011C55.4217 20.841 53.9665 16.6446 51.611 12.9494C49.2555 9.25422 46.0657 6.16348 42.298 3.92581C38.5304 1.68814 34.2901 0.366014 29.9183 0.0657944C25.5465 -0.234425 21.1653 0.495642 17.1272 2.19727L28 28L11.7072 5.22842C8.14336 7.77829 5.22779 11.129 3.195 15.0111C1.16221 18.8931 0.0689412 23.1981 0.00315588 27.5796C-0.0626295 31.9612 0.900901 36.297 2.81623 40.2383C4.73157 44.1797 7.54523 47.6164 11.0309 50.2721L28 28L55.8598 25.2011ZM29.6226 55.9531C25.2479 56.207 20.8746 55.4306 16.8547 53.6863L28 28L55.8286 31.0937C55.3444 35.4489 53.8448 39.6297 51.4504 43.2998C49.056 46.9698 45.8336 50.0266 42.0424 52.2243C38.2513 54.422 33.9973 55.6991 29.6226 55.9531Z" fill="#FFE9D8"/>
<path d="M42 28C42 20.268 35.732 14 28 14C20.268 14 14 20.268 14 28C14 35.732 20.268 42 28 42C35.732 42 42 35.732 42 28Z" fill="url(#paint0_linear_1374_10106)"/>
<path d="M28.7364 19.0686C28.1622 19.2058 27.6478 19.4468 27.2102 19.782C27.1227 19.8506 25.0459 21.7104 22.5955 23.9172C18.8111 27.3234 18.1302 27.9446 18.0704 28.0446C18.0043 28.1543 18 28.1739 18 28.3582C18 28.5443 18.0043 28.56 18.0726 28.6776C18.158 28.8226 18.2711 28.9206 18.4376 28.9931C18.5379 29.0363 18.5827 29.0441 18.7577 29.0441C19.0928 29.0441 19.0779 29.0539 20.0021 28.2249C20.4376 27.831 22.4525 26.0181 24.4781 24.1935C26.5037 22.3709 28.222 20.8344 28.2988 20.7815C28.4909 20.6463 28.8666 20.4797 29.1206 20.417C29.317 20.366 29.3639 20.3621 29.7182 20.364C30.064 20.364 30.1238 20.3699 30.3095 20.415C30.7279 20.5189 31.0758 20.707 31.3831 20.9912C32.1323 21.6869 32.2476 22.7393 31.6692 23.5683C31.5176 23.7839 31.8933 23.439 27.7161 27.1999C25.0651 29.587 24.6403 29.977 24.5891 30.071C24.5379 30.169 24.5315 30.2023 24.5315 30.3768C24.5315 30.5453 24.54 30.5865 24.5848 30.6707C24.7876 31.0529 25.3362 31.1881 25.7182 30.949C25.7716 30.9138 27.3362 29.5164 29.1953 27.8427C31.3426 25.9064 32.6275 24.7638 32.7257 24.7011C33.5326 24.1779 34.587 24.1583 35.3959 24.6541C36.254 25.1774 36.6382 26.075 36.3885 26.9667C36.3244 27.196 36.1387 27.5252 35.968 27.7173C35.889 27.8074 33.9979 29.5223 31.7673 31.5311C27.5518 35.3273 27.6158 35.2665 27.4771 35.5507C27.2914 35.9368 27.2914 36.4561 27.4771 36.8442C27.6009 37.099 27.7033 37.2048 28.6297 38.0436C29.7012 39.0118 29.6841 39 30.0363 39C30.2284 39 30.2647 38.9941 30.3735 38.9451C30.7577 38.7727 30.9114 38.365 30.7279 38.0122C30.6788 37.9162 30.6361 37.8751 29.5752 36.9187C28.8324 36.2484 28.8282 36.2406 28.9093 36.1014C28.9328 36.0661 30.7385 34.4258 32.9242 32.4581C35.1078 30.4904 36.9712 28.8089 37.0608 28.7188C37.492 28.2876 37.8143 27.6938 37.9509 27.0706C37.9936 26.8804 38 26.7903 38 26.4277C38 26.0652 37.9936 25.975 37.9509 25.7849C37.6201 24.2798 36.2753 23.1333 34.6062 22.9294C34.3607 22.9 33.8826 22.8942 33.6713 22.9177L33.5454 22.9314L33.5582 22.8746C33.6115 22.6335 33.5902 22.1044 33.5155 21.7673C33.2401 20.5306 32.2753 19.5409 30.9562 19.1391C30.5229 19.0078 30.4546 19 29.6926 19L29.0139 19.002L28.7364 19.0686Z" fill="black"/>
<path d="M29.4856 21.7751C29.4279 21.7908 29.3447 21.828 29.2977 21.8535C29.1931 21.9142 22.5784 27.8701 22.4162 28.0505C21.953 28.562 21.6606 29.193 21.5752 29.8633C21.5347 30.1671 21.5581 30.6453 21.6264 30.9373C21.8719 31.9956 22.5976 32.8579 23.6542 33.3459C24.4866 33.732 25.3767 33.8339 26.2903 33.6477C26.5998 33.583 26.8388 33.5066 27.1377 33.3753C27.3895 33.2636 27.7438 33.0558 27.9359 32.9049C28 32.854 29.5539 31.4625 31.3895 29.8123C35.1654 26.414 34.8623 26.7139 34.8623 26.3885C34.8623 26.2396 34.8559 26.2063 34.7919 26.0906C34.6553 25.8339 34.4098 25.6967 34.0939 25.6947C33.9445 25.6947 33.9018 25.7026 33.7737 25.7575C33.6499 25.8123 33.5731 25.8711 33.2422 26.171C30.9242 28.27 26.9413 31.8388 26.8303 31.9152C26.6403 32.0465 26.3052 32.1974 26.0683 32.2582C24.9199 32.558 23.7054 32.023 23.2615 31.0196C22.984 30.3905 23.0693 29.6693 23.4898 29.0872C23.6158 28.9147 23.4279 29.0872 27.2273 25.6673C30.5592 22.6649 30.4183 22.8001 30.476 22.5571C30.5443 22.2768 30.3607 21.9574 30.0576 21.8202C29.889 21.7437 29.6563 21.7241 29.4856 21.7751Z" fill="black"/>
<path d="M16.7883 12.3502C11.9208 15.8435 8.75 21.5515 8.75 28C8.75 34.2454 11.7241 39.7961 16.3333 43.3131M20.5622 10.2395C22.8505 9.2801 25.3633 8.75 28 8.75C37.9789 8.75 46.1844 16.343 47.1541 26.0666M47.1315 30.1481C46.0633 39.7686 37.9054 47.25 28 47.25C25.296 47.25 22.7222 46.6925 20.3873 45.6861" stroke="white" stroke-width="1.5" stroke-linecap="round"/>
</g>
</g>
<defs>
<linearGradient id="paint0_linear_1374_10106" x1="28" y1="14" x2="28" y2="42" gradientUnits="userSpaceOnUse">
<stop stop-color="#FFC18E"/>
<stop offset="1" stop-color="#FF7300"/>
</linearGradient>
<clipPath id="clip0_1374_10106">
<rect width="56" height="56" fill="white"/>
</clipPath>
</defs>
</svg>
