<svg width="225" height="168" viewBox="0 0 225 168" fill="none" xmlns="http://www.w3.org/2000/svg">
<path d="M0 127.514C2.39848 136.116 5.01614 144.262 7.83375 151.894L211.358 152.736C214.175 145.104 216.792 136.959 219.191 128.356L0 127.514Z" fill="#F2F2F2"/>
<path d="M56.1821 80.0936V130.329H91.3767V80.0936C91.3773 79.7323 91.2621 79.3803 91.0479 79.0893C90.8336 78.7984 90.5318 78.5838 90.1866 78.4771C90.0238 78.4234 89.8534 78.397 89.682 78.3989H57.8816C57.6587 78.3985 57.4379 78.442 57.2319 78.527C57.0258 78.6119 56.8385 78.7367 56.6807 78.8941C56.5229 79.0514 56.3976 79.2384 56.312 79.4442C56.2265 79.65 56.1824 79.8707 56.1821 80.0936ZM69.9186 97.3553C69.9186 96.3588 70.3145 95.4032 71.019 94.6986C71.7236 93.9941 72.6792 93.5982 73.6757 93.5982C74.6721 93.5982 75.6277 93.9941 76.3323 94.6986C77.0369 95.4032 77.4327 96.3588 77.4327 97.3553V103.186C77.4327 104.182 77.0369 105.138 76.3323 105.843C75.6277 106.547 74.6721 106.943 73.6757 106.943C72.6792 106.943 71.7236 106.547 71.019 105.843C70.3145 105.138 69.9186 104.182 69.9186 103.186V97.3553Z" fill="#2F2E41"/>
<path d="M56.0737 128.724V133.569C56.0744 133.82 56.1741 134.06 56.3512 134.238C56.5282 134.416 56.7683 134.517 57.0193 134.519H90.5388C90.79 134.518 91.0305 134.417 91.2077 134.239C91.3849 134.061 91.4844 133.82 91.4844 133.569V128.724H56.0737Z" fill="#3F3D56"/>
<path d="M0.81604 4.40495V96.1308C0.816948 97.2995 1.28155 98.4201 2.10786 99.2466C2.93417 100.073 4.05467 100.538 5.22338 100.539H141.154C142.323 100.538 143.443 100.074 144.27 99.247C145.096 98.4204 145.561 97.2997 145.562 96.1308V4.40495C145.56 3.23684 145.094 2.11733 144.268 1.29167C143.442 0.466019 142.322 0.00154038 141.154 0H5.22338C4.05543 0.00172201 2.93577 0.466291 2.10967 1.29194C1.28358 2.11758 0.818398 3.23699 0.81604 4.40495Z" fill="#3F3D56"/>
<path d="M4.00537 5.54677V94.9997C4.00655 95.6241 4.25514 96.2227 4.69671 96.6643C5.13828 97.1058 5.73685 97.3544 6.36132 97.3556H140.022C140.647 97.3544 141.245 97.1058 141.687 96.6643C142.128 96.2227 142.377 95.6241 142.378 94.9997V5.54677C142.378 4.92146 142.13 4.32168 141.688 3.87904C141.247 3.43639 140.647 3.18703 140.022 3.18567H6.36132C5.73601 3.18703 5.13678 3.43639 4.6951 3.87904C4.25342 4.32168 4.00537 4.92146 4.00537 5.54677Z" fill="white"/>
<path d="M40.0541 90.4929H25.5628C25.486 90.4928 25.4123 90.4622 25.358 90.4079C25.3036 90.3536 25.273 90.2799 25.2729 90.203V87.4724H25.389V90.2038C25.389 90.2499 25.4074 90.2942 25.44 90.3268C25.4726 90.3594 25.5169 90.3778 25.563 90.3778H40.0543C40.1004 90.3778 40.1447 90.3594 40.1773 90.3268C40.2099 90.2942 40.2283 90.2499 40.2283 90.2038V87.4532H40.3444V90.2038C40.3441 90.2806 40.3133 90.3541 40.2589 90.4083C40.2045 90.4625 40.1309 90.4929 40.0541 90.4929Z" fill="#3F3D56"/>
<path d="M45.3073 87.4143H11.2544V87.5303H45.3073V87.4143Z" fill="#3F3D56"/>
<path d="M11.257 88.4608C11.8079 88.4608 12.2545 88.0142 12.2545 87.4633C12.2545 86.9124 11.8079 86.4658 11.257 86.4658C10.7061 86.4658 10.2595 86.9124 10.2595 87.4633C10.2595 88.0142 10.7061 88.4608 11.257 88.4608Z" fill="#FF6701"/>
<path d="M21.3936 88.4608C21.9445 88.4608 22.3911 88.0142 22.3911 87.4633C22.3911 86.9124 21.9445 86.4658 21.3936 86.4658C20.8427 86.4658 20.3961 86.9124 20.3961 87.4633C20.3961 88.0142 20.8427 88.4608 21.3936 88.4608Z" fill="#FF6701"/>
<path d="M28.2734 91.3927C28.8243 91.3927 29.2709 90.9461 29.2709 90.3952C29.2709 89.8443 28.8243 89.3977 28.2734 89.3977C27.7225 89.3977 27.2759 89.8443 27.2759 90.3952C27.2759 90.9461 27.7225 91.3927 28.2734 91.3927Z" fill="#3F3D56"/>
<path d="M33.5031 91.3927C34.054 91.3927 34.5006 90.9461 34.5006 90.3952C34.5006 89.8443 34.054 89.3977 33.5031 89.3977C32.9522 89.3977 32.5056 89.8443 32.5056 90.3952C32.5056 90.9461 32.9522 91.3927 33.5031 91.3927Z" fill="#CCCCCC"/>
<path d="M30.9689 88.4608C31.5199 88.4608 31.9665 88.0142 31.9665 87.4633C31.9665 86.9124 31.5199 86.4658 30.9689 86.4658C30.418 86.4658 29.9714 86.9124 29.9714 87.4633C29.9714 88.0142 30.418 88.4608 30.9689 88.4608Z" fill="#FF6701"/>
<path d="M45.1704 88.4608C45.7213 88.4608 46.1679 88.0142 46.1679 87.4633C46.1679 86.9124 45.7213 86.4658 45.1704 86.4658C44.6195 86.4658 44.1729 86.9124 44.1729 87.4633C44.1729 88.0142 44.6195 88.4608 45.1704 88.4608Z" fill="#FF6701"/>
<path d="M40.286 88.4608C40.8369 88.4608 41.2835 88.0142 41.2835 87.4633C41.2835 86.9124 40.8369 86.4658 40.286 86.4658C39.7351 86.4658 39.2885 86.9124 39.2885 87.4633C39.2885 88.0142 39.7351 88.4608 40.286 88.4608Z" fill="#FF6701"/>
<path d="M14.3502 87.5304C14.3349 87.5304 14.3201 87.5243 14.3092 87.5134C14.2983 87.5025 14.2922 87.4878 14.2922 87.4724V84.61C14.2923 84.5331 14.3229 84.4594 14.3772 84.4051C14.4316 84.3507 14.5053 84.3202 14.5821 84.3201H17.4049C17.4203 84.3201 17.4351 84.3262 17.446 84.3371C17.4568 84.3479 17.463 84.3627 17.463 84.3781C17.463 84.3935 17.4568 84.4082 17.446 84.4191C17.4351 84.43 17.4203 84.4361 17.4049 84.4361H14.5831C14.5369 84.4361 14.4927 84.4545 14.46 84.4871C14.4274 84.5198 14.4091 84.564 14.409 84.6101V87.4726C14.409 87.488 14.4029 87.5027 14.392 87.5136C14.3811 87.5245 14.3664 87.5306 14.351 87.5306L14.3502 87.5304Z" fill="#3F3D56"/>
<path d="M17.5374 85.3538C18.0883 85.3538 18.5349 84.9072 18.5349 84.3563C18.5349 83.8054 18.0883 83.3588 17.5374 83.3588C16.9865 83.3588 16.5399 83.8054 16.5399 84.3563C16.5399 84.9072 16.9865 85.3538 17.5374 85.3538Z" fill="#E6E6E6"/>
<path d="M36.6761 87.4724H36.5601V84.61C36.5602 84.5331 36.5907 84.4594 36.6451 84.4051C36.6994 84.3507 36.7731 84.3202 36.8499 84.3201H39.6728V84.4361H36.8509C36.8047 84.4361 36.7605 84.4545 36.7279 84.4871C36.6952 84.5198 36.6769 84.564 36.6768 84.6101L36.6761 87.4724Z" fill="#3F3D56"/>
<path d="M39.8057 85.3538C40.3567 85.3538 40.8033 84.9072 40.8033 84.3563C40.8033 83.8054 40.3567 83.3588 39.8057 83.3588C39.2548 83.3588 38.8082 83.8054 38.8082 84.3563C38.8082 84.9072 39.2548 85.3538 39.8057 85.3538Z" fill="#E6E6E6"/>
<path d="M75.4147 57.4096C74.6753 57.4096 73.9431 57.264 73.26 56.981C72.5769 56.698 71.9562 56.2832 71.4334 55.7604C70.9106 55.2375 70.496 54.6167 70.2131 53.9336C69.9302 53.2504 69.7847 52.5182 69.7848 51.7788V50.2692C69.7848 48.776 70.3779 47.344 71.4338 46.2882C72.4896 45.2324 73.9216 44.6393 75.4147 44.6393C75.4604 44.6381 75.5059 44.6461 75.5485 44.6627C75.591 44.6794 75.6299 44.7045 75.6626 44.7364C75.6954 44.7683 75.7214 44.8064 75.7392 44.8486C75.7569 44.8907 75.7661 44.9359 75.7661 44.9817C75.7661 45.0274 75.7569 45.0727 75.7392 45.1148C75.7214 45.1569 75.6954 45.1951 75.6626 45.227C75.6299 45.2589 75.591 45.2839 75.5485 45.3006C75.5059 45.3173 75.4604 45.3253 75.4147 45.3241C74.1032 45.3241 72.8455 45.8451 71.9181 46.7724C70.9908 47.6997 70.4698 48.9575 70.4698 50.269V51.7788C70.4698 53.0903 70.9908 54.3481 71.9182 55.2755C72.8455 56.2028 74.1033 56.7238 75.4148 56.7238C76.7263 56.7238 77.9841 56.2028 78.9115 55.2755C79.8388 54.3481 80.3598 53.0903 80.3598 51.7788V49.0605C80.3586 49.0148 80.3666 48.9693 80.3833 48.9267C80.4 48.8842 80.425 48.8454 80.4569 48.8126C80.4888 48.7799 80.527 48.7538 80.5691 48.7361C80.6112 48.7183 80.6565 48.7091 80.7022 48.7091C80.7479 48.7091 80.7932 48.7183 80.8353 48.7361C80.8775 48.7538 80.9156 48.7799 80.9475 48.8126C80.9794 48.8454 81.0045 48.8842 81.0211 48.9267C81.0378 48.9693 81.0458 49.0148 81.0446 49.0605V51.7788C81.0447 52.5182 80.8992 53.2504 80.6163 53.9336C80.3334 54.6167 79.9188 55.2375 79.396 55.7604C78.8732 56.2832 78.2525 56.698 77.5694 56.981C76.8863 57.264 76.1541 57.4096 75.4147 57.4096Z" fill="black"/>
<path d="M64.8401 57.4095C64.1007 57.4095 63.3685 57.2639 62.6854 56.9809C62.0023 56.6979 61.3816 56.2831 60.8588 55.7603C60.336 55.2374 59.9214 54.6166 59.6385 53.9335C59.3556 53.2503 59.2101 52.5181 59.2102 51.7787V49.0604C59.209 49.0147 59.217 48.9692 59.2337 48.9266C59.2503 48.8841 59.2754 48.8453 59.3073 48.8125C59.3392 48.7798 59.3773 48.7537 59.4195 48.736C59.4616 48.7182 59.5069 48.709 59.5526 48.709C59.5983 48.709 59.6436 48.7182 59.6857 48.736C59.7278 48.7537 59.766 48.7798 59.7979 48.8125C59.8298 48.8453 59.8548 48.8841 59.8715 48.9266C59.8882 48.9692 59.8962 49.0147 59.895 49.0604V51.7787C59.895 53.0902 60.416 54.348 61.3434 55.2754C62.2707 56.2027 63.5285 56.7237 64.84 56.7237C66.1515 56.7237 67.4093 56.2027 68.3366 55.2754C69.264 54.348 69.785 53.0902 69.785 51.7787V50.2691C69.785 49.6197 69.6571 48.9767 69.4086 48.3768C69.1601 47.7768 68.7958 47.2317 68.3367 46.7725C67.8775 46.3134 67.3324 45.9491 66.7324 45.7006C66.1325 45.4521 65.4895 45.3242 64.8401 45.3242C64.7508 45.3219 64.666 45.2848 64.6037 45.2208C64.5413 45.1569 64.5065 45.0711 64.5065 44.9818C64.5065 44.8925 64.5413 44.8067 64.6037 44.7428C64.666 44.6788 64.7508 44.6417 64.8401 44.6394C66.3332 44.6395 67.7651 45.2326 68.8208 46.2884C69.8766 47.3441 70.4697 48.776 70.4698 50.2691V51.7787C70.4699 52.5181 70.3244 53.2503 70.0415 53.9334C69.7587 54.6166 69.344 55.2373 68.8212 55.7602C68.2985 56.2831 67.6778 56.6978 66.9947 56.9808C66.3116 57.2638 65.5795 57.4095 64.8401 57.4095Z" fill="black"/>
<path d="M80.7021 39.7344C80.6112 39.7344 80.5241 39.6983 80.4599 39.634C80.3957 39.5698 80.3596 39.4827 80.3596 39.3919V35.1621C80.3596 33.8506 79.8386 32.5928 78.9112 31.6654C77.9838 30.7381 76.7261 30.2171 75.4146 30.2171C74.1031 30.2171 72.8453 30.7381 71.9179 31.6654C70.9906 32.5928 70.4696 33.8506 70.4696 35.1621C70.4708 35.2078 70.4628 35.2533 70.4461 35.2958C70.4294 35.3384 70.4044 35.3772 70.3725 35.41C70.3406 35.4427 70.3024 35.4688 70.2603 35.4865C70.2182 35.5043 70.1729 35.5135 70.1272 35.5135C70.0815 35.5135 70.0362 35.5043 69.9941 35.4865C69.9519 35.4688 69.9138 35.4427 69.8819 35.41C69.85 35.3772 69.8249 35.3384 69.8083 35.2958C69.7916 35.2533 69.7836 35.2078 69.7848 35.1621C69.78 34.4197 69.9222 33.6838 70.203 32.9966C70.4838 32.3094 70.8977 31.6845 71.4209 31.1579C71.9442 30.6313 72.5664 30.2134 73.2518 29.9282C73.9372 29.643 74.6722 29.4962 75.4146 29.4962C76.1569 29.4962 76.892 29.643 77.5774 29.9282C78.2627 30.2134 78.885 30.6313 79.4082 31.1579C79.9315 31.6845 80.3454 32.3094 80.6262 32.9966C80.907 33.6838 81.0491 34.4197 81.0444 35.1621V39.3919C81.0444 39.4827 81.0083 39.5697 80.9441 39.634C80.8799 39.6982 80.7929 39.7343 80.7021 39.7344Z" fill="black"/>
<path d="M70.1275 50.6113C70.0367 50.6113 69.9495 50.5752 69.8853 50.511C69.8211 50.4467 69.785 50.3596 69.785 50.2688V35.1621C69.785 33.8506 69.264 32.5928 68.3366 31.6655C67.4093 30.7381 66.1515 30.2171 64.84 30.2171C63.5285 30.2171 62.2707 30.7381 61.3434 31.6655C60.416 32.5928 59.895 33.8506 59.895 35.1621V39.3919C59.8927 39.4812 59.8556 39.566 59.7916 39.6283C59.7277 39.6907 59.6419 39.7255 59.5526 39.7255C59.4633 39.7255 59.3775 39.6907 59.3136 39.6283C59.2496 39.566 59.2125 39.4812 59.2102 39.3919V35.1621C59.2103 34.0487 59.5405 32.9603 60.1591 32.0345C60.7777 31.1087 61.6569 30.3871 62.6856 29.961C63.7143 29.5349 64.8462 29.4234 65.9383 29.6406C67.0303 29.8578 68.0334 30.3939 68.8208 31.1812C69.3452 31.7027 69.761 32.3231 70.0441 33.0065C70.3271 33.6898 70.4718 34.4225 70.4698 35.1621V50.2688C70.4698 50.3596 70.4337 50.4467 70.3696 50.5109C70.3054 50.5751 70.2183 50.6112 70.1275 50.6113Z" fill="black"/>
<path d="M77.4091 49.856C77.3634 49.8572 77.3179 49.8492 77.2753 49.8325C77.2328 49.8159 77.194 49.7908 77.1612 49.7589C77.1285 49.727 77.1024 49.6889 77.0847 49.6467C77.0669 49.6046 77.0577 49.5593 77.0577 49.5136C77.0577 49.4679 77.0669 49.4226 77.0847 49.3805C77.1024 49.3384 77.1285 49.3002 77.1612 49.2683C77.194 49.2364 77.2328 49.2114 77.2753 49.1947C77.3179 49.178 77.3634 49.17 77.4091 49.1712C78.7206 49.1712 79.9784 48.6502 80.9058 47.7229C81.8331 46.7955 82.3541 45.5377 82.3541 44.2262C82.3541 42.9147 81.8331 41.6569 80.9058 40.7296C79.9784 39.8022 78.7206 39.2812 77.4091 39.2812H76.6538C76.5646 39.2789 76.4797 39.2418 76.4174 39.1779C76.3551 39.1139 76.3202 39.0281 76.3202 38.9388C76.3202 38.8495 76.3551 38.7637 76.4174 38.6998C76.4797 38.6358 76.5646 38.5987 76.6538 38.5964H77.4091C78.1515 38.5917 78.8874 38.7338 79.5746 39.0146C80.2618 39.2954 80.8867 39.7093 81.4133 40.2326C81.9399 40.7558 82.3578 41.3781 82.643 42.0634C82.9282 42.7488 83.075 43.4839 83.075 44.2262C83.075 44.9686 82.9282 45.7036 82.643 46.389C82.3578 47.0744 81.9399 47.6966 81.4133 48.2199C80.8867 48.7431 80.2618 49.157 79.5746 49.4378C78.8874 49.7186 78.1515 49.8608 77.4091 49.856Z" fill="black"/>
<path d="M75.8463 39.2813C75.8006 39.2825 75.7551 39.2745 75.7125 39.2578C75.6699 39.2411 75.6311 39.2161 75.5984 39.1842C75.5656 39.1523 75.5396 39.1141 75.5218 39.072C75.5041 39.0299 75.4949 38.9846 75.4949 38.9389C75.4949 38.8932 75.5041 38.8479 75.5218 38.8058C75.5396 38.7636 75.5656 38.7255 75.5984 38.6936C75.6311 38.6617 75.6699 38.6366 75.7125 38.62C75.7551 38.6033 75.8006 38.5953 75.8463 38.5965C76.2002 38.5998 76.5512 38.5329 76.8791 38.3997C77.207 38.2666 77.5053 38.0698 77.7567 37.8207C78.0081 37.5716 78.2076 37.2752 78.3438 36.9485C78.48 36.6219 78.5501 36.2715 78.5501 35.9176C78.5501 35.5637 78.48 35.2133 78.3438 34.8866C78.2076 34.56 78.0081 34.2635 77.7567 34.0144C77.5053 33.7654 77.207 33.5685 76.8791 33.4354C76.5512 33.3022 76.2002 33.2353 75.8463 33.2386H75.4147C75.3254 33.2363 75.2406 33.1992 75.1783 33.1353C75.1159 33.0713 75.0811 32.9855 75.0811 32.8962C75.0811 32.8069 75.1159 32.7211 75.1783 32.6572C75.2406 32.5932 75.3254 32.5561 75.4147 32.5538H75.8463C76.2904 32.5502 76.7308 32.6345 77.1421 32.8019C77.5534 32.9693 77.9275 33.2164 78.2428 33.5292C78.5581 33.8419 78.8084 34.2139 78.9792 34.6239C79.15 35.0338 79.2379 35.4735 79.2379 35.9176C79.2379 36.3616 79.15 36.8013 78.9792 37.2113C78.8084 37.6212 78.5581 37.9933 78.2428 38.306C77.9275 38.6187 77.5534 38.8659 77.1421 39.0333C76.7308 39.2007 76.2904 39.285 75.8463 39.2813Z" fill="black"/>
<path d="M75.8462 55.5562H75.4146C75.3689 55.5574 75.3234 55.5494 75.2808 55.5327C75.2383 55.5161 75.1995 55.491 75.1667 55.4591C75.134 55.4272 75.1079 55.3891 75.0902 55.3469C75.0724 55.3048 75.0632 55.2595 75.0632 55.2138C75.0632 55.1681 75.0724 55.1228 75.0902 55.0807C75.1079 55.0386 75.134 55.0004 75.1667 54.9685C75.1995 54.9366 75.2383 54.9116 75.2808 54.8949C75.3234 54.8782 75.3689 54.8702 75.4146 54.8714H75.8462C76.5524 54.8649 77.2275 54.5797 77.7245 54.0781C78.2216 53.5764 78.5005 52.8987 78.5005 52.1925C78.5005 51.4862 78.2216 50.8086 77.7245 50.3069C77.2275 49.8052 76.5524 49.5201 75.8462 49.5135C75.7569 49.5112 75.6721 49.4741 75.6098 49.4102C75.5474 49.3462 75.5126 49.2604 75.5126 49.1711C75.5126 49.0818 75.5474 48.9961 75.6098 48.9321C75.6721 48.8681 75.7569 48.831 75.8462 48.8287C76.7335 48.8361 77.582 49.1937 78.2068 49.8237C78.8317 50.4537 79.1823 51.3051 79.1823 52.1925C79.1823 53.0798 78.8317 53.9312 78.2068 54.5612C77.582 55.1913 76.7335 55.5489 75.8462 55.5562Z" fill="black"/>
<path d="M62.8454 49.856C61.3585 49.8465 59.9358 49.2492 58.8877 48.1944C57.8397 47.1397 57.2515 45.7131 57.2515 44.2262C57.2515 42.7393 57.8397 41.3128 58.8877 40.258C59.9358 39.2032 61.3585 38.6059 62.8454 38.5964H63.6007C63.6464 38.5952 63.6919 38.6032 63.7345 38.6199C63.777 38.6366 63.8159 38.6616 63.8486 38.6935C63.8814 38.7254 63.9074 38.7636 63.9252 38.8057C63.9429 38.8478 63.9521 38.8931 63.9521 38.9388C63.9521 38.9846 63.9429 39.0298 63.9252 39.0719C63.9074 39.1141 63.8814 39.1522 63.8486 39.1841C63.8159 39.216 63.777 39.2411 63.7345 39.2578C63.6919 39.2744 63.6464 39.2824 63.6007 39.2812H62.8454C61.5339 39.2812 60.2761 39.8022 59.3488 40.7296C58.4214 41.6569 57.9004 42.9147 57.9004 44.2262C57.9004 45.5377 58.4214 46.7955 59.3488 47.7229C60.2761 48.6502 61.5339 49.1712 62.8454 49.1712C62.9347 49.1735 63.0195 49.2106 63.0819 49.2746C63.1442 49.3385 63.1791 49.4243 63.1791 49.5136C63.1791 49.6029 63.1442 49.6887 63.0819 49.7527C63.0195 49.8166 62.9347 49.8537 62.8454 49.856Z" fill="black"/>
<path d="M64.4081 39.2813C63.5208 39.274 62.6723 38.9163 62.0475 38.2863C61.4226 37.6563 61.072 36.8049 61.072 35.9176C61.072 35.0302 61.4226 34.1788 62.0475 33.5488C62.6723 32.9188 63.5208 32.5612 64.4081 32.5538H64.8397C64.8854 32.5526 64.9309 32.5606 64.9734 32.5773C65.016 32.594 65.0548 32.619 65.0876 32.6509C65.1203 32.6828 65.1464 32.721 65.1641 32.7631C65.1819 32.8052 65.191 32.8505 65.191 32.8962C65.191 32.942 65.1819 32.9872 65.1641 33.0293C65.1464 33.0715 65.1203 33.1096 65.0876 33.1415C65.0548 33.1734 65.016 33.1985 64.9734 33.2152C64.9309 33.2318 64.8854 33.2398 64.8397 33.2386H64.4081C63.7019 33.2452 63.0268 33.5303 62.5298 34.032C62.0327 34.5337 61.7538 35.2113 61.7538 35.9176C61.7538 36.6238 62.0327 37.3015 62.5298 37.8031C63.0268 38.3048 63.7019 38.59 64.4081 38.5965C64.4974 38.5988 64.5822 38.6359 64.6445 38.6999C64.7068 38.7638 64.7417 38.8496 64.7417 38.9389C64.7417 39.0282 64.7068 39.114 64.6445 39.1779C64.5822 39.2419 64.4974 39.279 64.4081 39.2813Z" fill="black"/>
<path d="M64.8399 55.5562H64.4083C63.521 55.5489 62.6726 55.1913 62.0477 54.5612C61.4229 53.9312 61.0723 53.0798 61.0723 52.1925C61.0723 51.3051 61.4229 50.4537 62.0477 49.8237C62.6726 49.1937 63.521 48.8361 64.4083 48.8287C64.4976 48.831 64.5824 48.8681 64.6448 48.9321C64.7071 48.9961 64.742 49.0818 64.742 49.1711C64.742 49.2604 64.7071 49.3462 64.6448 49.4102C64.5824 49.4741 64.4976 49.5112 64.4083 49.5135C63.7021 49.5201 63.0271 49.8052 62.53 50.3069C62.0329 50.8086 61.7541 51.4862 61.7541 52.1925C61.7541 52.8987 62.0329 53.5764 62.53 54.0781C63.0271 54.5797 63.7021 54.8649 64.4083 54.8714H64.8399C64.8856 54.8702 64.9311 54.8782 64.9737 54.8949C65.0163 54.9116 65.0551 54.9366 65.0878 54.9685C65.1206 55.0004 65.1466 55.0386 65.1644 55.0807C65.1821 55.1228 65.1913 55.1681 65.1913 55.2138C65.1913 55.2595 65.1821 55.3048 65.1644 55.3469C65.1466 55.3891 65.1206 55.4272 65.0878 55.4591C65.0551 55.491 65.0163 55.5161 64.9737 55.5327C64.9311 55.5494 64.8856 55.5574 64.8399 55.5562Z" fill="black"/>
<path d="M62.6351 64.0914H57.4723C57.0203 64.0914 56.6539 64.4578 56.6539 64.9098C56.6539 65.3618 57.0203 65.7282 57.4723 65.7282H62.6351C63.0871 65.7282 63.4535 65.3618 63.4535 64.9098C63.4535 64.4578 63.0871 64.0914 62.6351 64.0914Z" fill="#FF6701"/>
<path d="M86.1813 64.0914H85.4258C84.9738 64.0914 84.6074 64.4578 84.6074 64.9098C84.6074 65.3618 84.9738 65.7282 85.4258 65.7282H86.1813C86.6333 65.7282 86.9997 65.3618 86.9997 64.9098C86.9997 64.4578 86.6333 64.0914 86.1813 64.0914Z" fill="#FF6701"/>
<path d="M90.9665 64.0914H90.211C89.759 64.0914 89.3926 64.4578 89.3926 64.9098C89.3926 65.3618 89.759 65.7282 90.211 65.7282H90.9665C91.4185 65.7282 91.7849 65.3618 91.7849 64.9098C91.7849 64.4578 91.4185 64.0914 90.9665 64.0914Z" fill="#FF6701"/>
<path d="M81.2707 64.0914H66.6642C66.2122 64.0914 65.8458 64.4578 65.8458 64.9098C65.8458 65.3618 66.2122 65.7282 66.6642 65.7282H81.2707C81.7227 65.7282 82.0891 65.3618 82.0891 64.9098C82.0891 64.4578 81.7227 64.0914 81.2707 64.0914Z" fill="#FF6701"/>
<path d="M54.0729 74.6686H48.9102C48.4582 74.6686 48.0918 75.035 48.0918 75.487C48.0918 75.939 48.4582 76.3054 48.9102 76.3054H54.0729C54.5249 76.3054 54.8914 75.939 54.8914 75.487C54.8914 75.035 54.5249 74.6686 54.0729 74.6686Z" fill="#FF6701"/>
<path d="M77.6192 74.6686H76.8637C76.4117 74.6686 76.0453 75.035 76.0453 75.487C76.0453 75.939 76.4117 76.3054 76.8637 76.3054H77.6192C78.0712 76.3054 78.4376 75.939 78.4376 75.487C78.4376 75.035 78.0712 74.6686 77.6192 74.6686Z" fill="#FF6701"/>
<path d="M82.4041 74.6686H81.6486C81.1966 74.6686 80.8302 75.035 80.8302 75.487C80.8302 75.939 81.1966 76.3054 81.6486 76.3054H82.4041C82.8561 76.3054 83.2225 75.939 83.2225 75.487C83.2225 75.035 82.8561 74.6686 82.4041 74.6686Z" fill="#FF6701"/>
<path d="M72.7085 74.6686H58.1021C57.6501 74.6686 57.2837 75.035 57.2837 75.487C57.2837 75.939 57.6501 76.3054 58.1021 76.3054H72.7085C73.1605 76.3054 73.527 75.939 73.527 75.487C73.527 75.035 73.1605 74.6686 72.7085 74.6686Z" fill="#FF6701"/>
<path d="M82.1524 67.7429H76.9897C76.5377 67.7429 76.1713 68.1093 76.1713 68.5613C76.1713 69.0133 76.5377 69.3797 76.9897 69.3797H82.1524C82.6044 69.3797 82.9708 69.0133 82.9708 68.5613C82.9708 68.1093 82.6044 67.7429 82.1524 67.7429Z" fill="#FF6701"/>
<path d="M54.0729 67.7429H48.9102C48.4582 67.7429 48.0918 68.1093 48.0918 68.5613C48.0918 69.0133 48.4582 69.3797 48.9102 69.3797H54.0729C54.5249 69.3797 54.8914 69.0133 54.8914 68.5613C54.8914 68.1093 54.5249 67.7429 54.0729 67.7429Z" fill="#FF6701"/>
<path d="M49.6658 64.0913H48.9103C48.4583 64.0913 48.0919 64.4577 48.0919 64.9097C48.0919 65.3617 48.4583 65.7281 48.9103 65.7281H49.6658C50.1178 65.7281 50.4842 65.3617 50.4842 64.9097C50.4842 64.4577 50.1178 64.0913 49.6658 64.0913Z" fill="#FF6701"/>
<path d="M49.6655 71.2687H48.91C48.458 71.2687 48.0916 71.6351 48.0916 72.0871C48.0916 72.5391 48.458 72.9055 48.91 72.9055H49.6655C50.1175 72.9055 50.4839 72.5391 50.4839 72.0871C50.4839 71.6351 50.1175 71.2687 49.6655 71.2687Z" fill="#FF6701"/>
<path d="M73.0862 67.7429H58.4798C58.0278 67.7429 57.6614 68.1093 57.6614 68.5613C57.6614 69.0133 58.0278 69.3797 58.4798 69.3797H73.0862C73.5382 69.3797 73.9046 69.0133 73.9046 68.5613C73.9046 68.1093 73.5382 67.7429 73.0862 67.7429Z" fill="#FF6701"/>
<path d="M68.0497 71.2687H62.887C62.435 71.2687 62.0686 71.6351 62.0686 72.0871C62.0686 72.5391 62.435 72.9055 62.887 72.9055H68.0497C68.5017 72.9055 68.8682 72.5391 68.8682 72.0871C68.8682 71.6351 68.5017 71.2687 68.0497 71.2687Z" fill="#FF6701"/>
<path d="M58.8576 71.2687H53.6949C53.2429 71.2687 52.8765 71.6351 52.8765 72.0871C52.8765 72.5391 53.2429 72.9055 53.6949 72.9055H58.8576C59.3096 72.9055 59.676 72.5391 59.676 72.0871C59.676 71.6351 59.3096 71.2687 58.8576 71.2687Z" fill="#FF6701"/>
<path d="M53.9527 64.0914H53.1972C52.7452 64.0914 52.3788 64.4578 52.3788 64.9098C52.3788 65.3618 52.7452 65.7282 53.1972 65.7282H53.9527C54.4047 65.7282 54.7711 65.3618 54.7711 64.9098C54.7711 64.4578 54.4047 64.0914 53.9527 64.0914Z" fill="#FF6701"/>
<path d="M91.3442 71.2687H90.5887C90.1367 71.2687 89.7703 71.6351 89.7703 72.0871C89.7703 72.5391 90.1367 72.9055 90.5887 72.9055H91.3442C91.7962 72.9055 92.1626 72.5391 92.1626 72.0871C92.1626 71.6351 91.7962 71.2687 91.3442 71.2687Z" fill="#FF6701"/>
<path d="M86.5593 71.2687H71.9528C71.5008 71.2687 71.1344 71.6351 71.1344 72.0871C71.1344 72.5391 71.5008 72.9055 71.9528 72.9055H86.5593C87.0112 72.9055 87.3777 72.5391 87.3777 72.0871C87.3777 71.6351 87.0112 71.2687 86.5593 71.2687Z" fill="#FF6701"/>
<path d="M134.62 82.0763C135.348 82.0763 135.939 82.3998 135.939 82.7973V88.4087C135.939 88.8065 135.347 89.1297 134.62 89.1297H103.272C102.545 89.1297 101.954 88.8062 101.954 88.4087V82.7977C101.954 82.3998 102.546 82.0767 103.272 82.0767" fill="#F2F2F2"/>
<path d="M102.704 76.9465C102.291 76.9465 101.954 77.0904 101.954 77.2671C101.954 77.4439 102.291 77.5878 102.704 77.5878H129.418C129.831 77.5878 130.168 77.4439 130.168 77.2671C130.168 77.0904 129.831 76.9465 129.418 76.9465H102.704Z" fill="#F2F2F2"/>
<path d="M102.704 78.8702C102.291 78.8702 101.954 79.0141 101.954 79.1908C101.954 79.3676 102.291 79.5115 102.704 79.5115H129.418C129.831 79.5115 130.168 79.3676 130.168 79.1908C130.168 79.0141 129.831 78.8702 129.418 78.8702H102.704Z" fill="#F2F2F2"/>
<path d="M14.4544 25.0077H10.5532C10.4753 25.0077 10.4006 24.9401 10.3455 24.8199C10.2905 24.6996 10.2595 24.5365 10.2595 24.3664C10.2595 24.1964 10.2905 24.0333 10.3455 23.913C10.4006 23.7928 10.4753 23.7252 10.5532 23.7252H14.4544C14.5323 23.7252 14.607 23.7928 14.662 23.913C14.7171 24.0333 14.7481 24.1964 14.7481 24.3664C14.7481 24.5365 14.7171 24.6996 14.662 24.8199C14.607 24.9401 14.5323 25.0077 14.4544 25.0077Z" fill="#FF6701"/>
<path d="M23.186 24.8863C23.8608 24.8863 24.4078 24.3393 24.4078 23.6645C24.4078 22.9898 23.8608 22.4427 23.186 22.4427C22.5112 22.4427 21.9642 22.9898 21.9642 23.6645C21.9642 24.3393 22.5112 24.8863 23.186 24.8863Z" fill="#FF6701"/>
<path d="M22.9831 24.1037H22.9753C22.9523 24.1026 22.9299 24.0965 22.9095 24.0859C22.8892 24.0753 22.8713 24.0604 22.8572 24.0423L22.6529 23.7803C22.64 23.7637 22.6305 23.7447 22.625 23.7245C22.6194 23.7042 22.6179 23.6831 22.6205 23.6622C22.6231 23.6414 22.6298 23.6213 22.6402 23.603C22.6506 23.5848 22.6645 23.5687 22.6811 23.5559L22.6884 23.55C22.7049 23.5371 22.7239 23.5276 22.7442 23.522C22.7644 23.5164 22.7856 23.5149 22.8064 23.5175C22.8273 23.5201 22.8474 23.5268 22.8656 23.5372C22.8839 23.5477 22.8999 23.5616 22.9128 23.5782C22.9231 23.5914 22.9361 23.6022 22.951 23.61C22.9659 23.6177 22.9823 23.6221 22.9991 23.6229C23.0158 23.6238 23.0326 23.6209 23.0481 23.6147C23.0637 23.6085 23.0777 23.5989 23.0893 23.5867L23.5036 23.1482C23.5327 23.1174 23.5729 23.0995 23.6153 23.0983C23.6577 23.0972 23.6988 23.1129 23.7296 23.142L23.7364 23.1484C23.7516 23.1628 23.7639 23.1801 23.7725 23.1992C23.7811 23.2184 23.7858 23.2391 23.7864 23.2601C23.7869 23.2811 23.7834 23.302 23.7759 23.3216C23.7683 23.3412 23.757 23.3592 23.7426 23.3744L23.0992 24.0535C23.0842 24.0692 23.0662 24.0818 23.0463 24.0904C23.0263 24.0989 23.0048 24.1033 22.9831 24.1033V24.1037Z" fill="white"/>
<path d="M20.2048 30.1374H10.5738C10.4904 30.1374 10.4105 30.1037 10.3516 30.0435C10.2926 29.9834 10.2595 29.9019 10.2595 29.8168C10.2595 29.7318 10.2926 29.6502 10.3516 29.5901C10.4105 29.53 10.4904 29.4962 10.5738 29.4962H20.2048C20.2881 29.4962 20.3681 29.53 20.427 29.5901C20.4859 29.6502 20.5191 29.7318 20.5191 29.8168C20.5191 29.9019 20.4859 29.9834 20.427 30.0435C20.3681 30.1037 20.2881 30.1374 20.2048 30.1374Z" fill="#FF6701"/>
<path d="M14.4544 30.7787H10.5532C10.4753 30.7787 10.4006 30.7449 10.3455 30.6848C10.2905 30.6246 10.2595 30.5431 10.2595 30.4581C10.2595 30.373 10.2905 30.2915 10.3455 30.2314C10.4006 30.1712 10.4753 30.1375 10.5532 30.1375H14.4544C14.5323 30.1375 14.607 30.1712 14.662 30.2314C14.7171 30.2915 14.7481 30.373 14.7481 30.4581C14.7481 30.5431 14.7171 30.6246 14.662 30.6848C14.607 30.7449 14.5323 30.7787 14.4544 30.7787Z" fill="#FF6701"/>
<path d="M23.186 31.388C23.8608 31.388 24.4078 30.841 24.4078 30.1662C24.4078 29.4915 23.8608 28.9445 23.186 28.9445C22.5112 28.9445 21.9642 29.4915 21.9642 30.1662C21.9642 30.841 22.5112 31.388 23.186 31.388Z" fill="#E6E6E6"/>
<path d="M22.9831 30.6055H22.9753C22.9523 30.6044 22.9299 30.5983 22.9095 30.5877C22.8892 30.5771 22.8713 30.5623 22.8572 30.5441L22.6529 30.2821C22.64 30.2655 22.6305 30.2466 22.625 30.2263C22.6194 30.206 22.6179 30.1849 22.6205 30.1641C22.6231 30.1432 22.6298 30.1231 22.6402 30.1048C22.6506 30.0866 22.6645 30.0706 22.6811 30.0577L22.6884 30.0518C22.7049 30.0389 22.7239 30.0294 22.7442 30.0238C22.7644 30.0183 22.7856 30.0167 22.8064 30.0194C22.8273 30.022 22.8474 30.0287 22.8656 30.0391C22.8839 30.0495 22.8999 30.0634 22.9128 30.08C22.9231 30.0932 22.9361 30.1041 22.951 30.1118C22.9659 30.1195 22.9823 30.124 22.9991 30.1248C23.0158 30.1256 23.0326 30.1228 23.0481 30.1165C23.0637 30.1103 23.0777 30.1007 23.0893 30.0886L23.5036 29.65C23.5327 29.6192 23.5729 29.6013 23.6153 29.6002C23.6577 29.599 23.6988 29.6147 23.7296 29.6438L23.7364 29.6502C23.7516 29.6646 23.7639 29.6819 23.7725 29.7011C23.7811 29.7202 23.7858 29.7409 23.7864 29.7619C23.7869 29.7829 23.7834 29.8038 23.7759 29.8234C23.7683 29.8431 23.757 29.861 23.7426 29.8762L23.0992 30.5553C23.0842 30.5711 23.0662 30.5836 23.0463 30.5922C23.0263 30.6008 23.0048 30.6052 22.9831 30.6052V30.6055Z" fill="white"/>
<path d="M20.2048 35.9084H10.5738C10.4904 35.9084 10.4105 35.8747 10.3516 35.8145C10.2926 35.7544 10.2595 35.6729 10.2595 35.5878C10.2595 35.5028 10.2926 35.4212 10.3516 35.3611C10.4105 35.301 10.4904 35.2672 10.5738 35.2672H20.2048C20.2881 35.2672 20.3681 35.301 20.427 35.3611C20.4859 35.4212 20.5191 35.5028 20.5191 35.5878C20.5191 35.6729 20.4859 35.7544 20.427 35.8145C20.3681 35.8747 20.2881 35.9084 20.2048 35.9084Z" fill="#FF6701"/>
<path d="M14.4544 37.832H10.5532C10.4753 37.832 10.4006 37.7982 10.3455 37.7381C10.2905 37.678 10.2595 37.5964 10.2595 37.5114C10.2595 37.4264 10.2905 37.3448 10.3455 37.2847C10.4006 37.2246 10.4753 37.1908 10.5532 37.1908H14.4544C14.5323 37.1908 14.607 37.2246 14.662 37.2847C14.7171 37.3448 14.7481 37.4264 14.7481 37.5114C14.7481 37.5964 14.7171 37.678 14.662 37.7381C14.607 37.7982 14.5323 37.832 14.4544 37.832Z" fill="#FF6701"/>
<path d="M23.186 37.8897C23.8608 37.8897 24.4078 37.3427 24.4078 36.6679C24.4078 35.9932 23.8608 35.4462 23.186 35.4462C22.5112 35.4462 21.9642 35.9932 21.9642 36.6679C21.9642 37.3427 22.5112 37.8897 23.186 37.8897Z" fill="#E6E6E6"/>
<path d="M22.9831 37.1069H22.9753C22.9523 37.1057 22.9299 37.0997 22.9095 37.0891C22.8892 37.0785 22.8713 37.0636 22.8572 37.0455L22.6529 36.7834C22.64 36.7669 22.6305 36.7479 22.625 36.7276C22.6194 36.7074 22.6179 36.6862 22.6205 36.6654C22.6231 36.6446 22.6298 36.6244 22.6402 36.6062C22.6506 36.5879 22.6645 36.5719 22.6811 36.559L22.6884 36.5532C22.7049 36.5403 22.7239 36.5308 22.7442 36.5252C22.7644 36.5196 22.7856 36.5181 22.8064 36.5207C22.8273 36.5233 22.8474 36.53 22.8656 36.5404C22.8839 36.5508 22.8999 36.5647 22.9128 36.5813C22.9231 36.5946 22.9361 36.6054 22.951 36.6131C22.9659 36.6209 22.9823 36.6253 22.9991 36.6261C23.0158 36.6269 23.0326 36.6241 23.0481 36.6179C23.0637 36.6116 23.0777 36.6021 23.0893 36.5899L23.5036 36.1513C23.5327 36.1206 23.5729 36.1027 23.6153 36.1015C23.6577 36.1003 23.6988 36.116 23.7296 36.1451L23.7364 36.1515C23.7516 36.166 23.7639 36.1832 23.7725 36.2024C23.7811 36.2216 23.7858 36.2423 23.7864 36.2633C23.7869 36.2843 23.7834 36.3052 23.7759 36.3248C23.7683 36.3444 23.757 36.3623 23.7426 36.3776L23.0992 37.0566C23.0842 37.0724 23.0662 37.085 23.0463 37.0935C23.0263 37.1021 23.0048 37.1065 22.9831 37.1065V37.1069Z" fill="white"/>
<path d="M20.2048 42.9618H10.5738C10.4904 42.9618 10.4105 42.928 10.3516 42.8679C10.2926 42.8077 10.2595 42.7262 10.2595 42.6412C10.2595 42.5561 10.2926 42.4746 10.3516 42.4145C10.4105 42.3543 10.4904 42.3206 10.5738 42.3206H20.2048C20.2881 42.3206 20.3681 42.3543 20.427 42.4145C20.4859 42.4746 20.5191 42.5561 20.5191 42.6412C20.5191 42.7262 20.4859 42.8077 20.427 42.8679C20.3681 42.928 20.2881 42.9618 20.2048 42.9618Z" fill="#E6E6E6"/>
<path d="M14.4544 44.2442H10.5532C10.4753 44.2442 10.4006 44.1767 10.3455 44.0564C10.2905 43.9362 10.2595 43.7731 10.2595 43.603C10.2595 43.433 10.2905 43.2699 10.3455 43.1496C10.4006 43.0293 10.4753 42.9618 10.5532 42.9618H14.4544C14.5323 42.9618 14.607 43.0293 14.662 43.1496C14.7171 43.2699 14.7481 43.433 14.7481 43.603C14.7481 43.7731 14.7171 43.9362 14.662 44.0564C14.607 44.1767 14.5323 44.2442 14.4544 44.2442Z" fill="#E6E6E6"/>
<path d="M23.186 44.3916C23.8608 44.3916 24.4078 43.8446 24.4078 43.1698C24.4078 42.495 23.8608 41.948 23.186 41.948C22.5112 41.948 21.9642 42.495 21.9642 43.1698C21.9642 43.8446 22.5112 44.3916 23.186 44.3916Z" fill="#E6E6E6"/>
<path d="M22.9831 43.609H22.9753C22.9523 43.6078 22.9299 43.6017 22.9095 43.5911C22.8892 43.5805 22.8713 43.5657 22.8572 43.5476L22.6529 43.2855C22.64 43.2689 22.6305 43.25 22.625 43.2297C22.6194 43.2095 22.6179 43.1883 22.6205 43.1675C22.6231 43.1466 22.6298 43.1265 22.6402 43.1083C22.6506 43.09 22.6645 43.074 22.6811 43.0611L22.6884 43.0553C22.7049 43.0424 22.7239 43.0328 22.7442 43.0273C22.7644 43.0217 22.7856 43.0202 22.8064 43.0228C22.8273 43.0254 22.8474 43.0321 22.8656 43.0425C22.8839 43.0529 22.8999 43.0668 22.9128 43.0834C22.9231 43.0966 22.9361 43.1075 22.951 43.1152C22.9659 43.1229 22.9823 43.1274 22.9991 43.1282C23.0158 43.129 23.0326 43.1262 23.0481 43.1199C23.0637 43.1137 23.0777 43.1042 23.0893 43.092L23.5036 42.6534C23.5327 42.6227 23.5729 42.6047 23.6153 42.6036C23.6577 42.6024 23.6988 42.6181 23.7296 42.6472L23.7364 42.6536C23.7516 42.668 23.7639 42.6853 23.7725 42.7045C23.7811 42.7237 23.7858 42.7443 23.7864 42.7653C23.7869 42.7863 23.7834 42.8072 23.7759 42.8269C23.7683 42.8465 23.757 42.8644 23.7426 42.8797L23.0992 43.5587C23.0842 43.5745 23.0662 43.587 23.0463 43.5956C23.0263 43.6042 23.0048 43.6086 22.9831 43.6086V43.609Z" fill="white"/>
<path d="M20.2048 49.374H10.5738C10.4904 49.374 10.4105 49.3064 10.3516 49.1862C10.2926 49.0659 10.2595 48.9028 10.2595 48.7328C10.2595 48.5627 10.2926 48.3996 10.3516 48.2794C10.4105 48.1591 10.4904 48.0916 10.5738 48.0916H20.2048C20.2881 48.0916 20.3681 48.1591 20.427 48.2794C20.4859 48.3996 20.5191 48.5627 20.5191 48.7328C20.5191 48.9028 20.4859 49.0659 20.427 49.1862C20.3681 49.3064 20.2881 49.374 20.2048 49.374Z" fill="#E6E6E6"/>
<path d="M14.4544 50.6565H10.5532C10.4753 50.6565 10.4006 50.6227 10.3455 50.5626C10.2905 50.5024 10.2595 50.4209 10.2595 50.3359C10.2595 50.2508 10.2905 50.1693 10.3455 50.1092C10.4006 50.049 10.4753 50.0153 10.5532 50.0153H14.4544C14.5323 50.0153 14.607 50.049 14.662 50.1092C14.7171 50.1693 14.7481 50.2508 14.7481 50.3359C14.7481 50.4209 14.7171 50.5024 14.662 50.5626C14.607 50.6227 14.5323 50.6565 14.4544 50.6565Z" fill="#E6E6E6"/>
<path d="M23.186 50.8934C23.8608 50.8934 24.4078 50.3464 24.4078 49.6716C24.4078 48.9968 23.8608 48.4498 23.186 48.4498C22.5112 48.4498 21.9642 48.9968 21.9642 49.6716C21.9642 50.3464 22.5112 50.8934 23.186 50.8934Z" fill="#E6E6E6"/>
<path d="M22.9831 50.1105H22.9753C22.9523 50.1094 22.9299 50.1033 22.9095 50.0927C22.8892 50.0821 22.8713 50.0673 22.8572 50.0491L22.6529 49.7871C22.64 49.7705 22.6305 49.7516 22.625 49.7313C22.6194 49.7111 22.6179 49.6899 22.6205 49.6691C22.6231 49.6482 22.6298 49.6281 22.6402 49.6099C22.6506 49.5916 22.6645 49.5756 22.6811 49.5627L22.6884 49.5569C22.7049 49.5439 22.7239 49.5344 22.7442 49.5288C22.7644 49.5233 22.7856 49.5217 22.8064 49.5244C22.8273 49.527 22.8474 49.5337 22.8656 49.5441C22.8839 49.5545 22.8999 49.5684 22.9128 49.585C22.9231 49.5982 22.9361 49.6091 22.951 49.6168C22.9659 49.6245 22.9823 49.629 22.9991 49.6298C23.0158 49.6306 23.0326 49.6278 23.0481 49.6215C23.0637 49.6153 23.0777 49.6058 23.0893 49.5936L23.5036 49.155C23.5327 49.1243 23.5729 49.1063 23.6153 49.1052C23.6577 49.104 23.6988 49.1197 23.7296 49.1488L23.7364 49.1552C23.7516 49.1696 23.7639 49.1869 23.7725 49.2061C23.7811 49.2253 23.7858 49.2459 23.7864 49.2669C23.7869 49.2879 23.7834 49.3088 23.7759 49.3284C23.7683 49.3481 23.757 49.366 23.7426 49.3812L23.0992 50.0603C23.0842 50.0761 23.0662 50.0886 23.0463 50.0972C23.0263 50.1058 23.0048 50.1102 22.9831 50.1102V50.1105Z" fill="white"/>
<path d="M136.043 31.3879H118.251C118.237 31.3879 118.223 31.3821 118.212 31.3719C118.202 31.3616 118.196 31.3476 118.196 31.3331C118.196 30.9477 136.099 31.3024 136.099 31.3331C136.099 31.3404 136.097 31.3476 136.094 31.3543C136.092 31.361 136.087 31.3671 136.082 31.3722C136.077 31.3773 136.071 31.3813 136.064 31.384C136.057 31.3867 136.05 31.388 136.043 31.3879Z" fill="#090814"/>
<path d="M122.052 30.7755H120.434C120.391 30.7753 120.349 30.7579 120.318 30.7271C120.287 30.6963 120.27 30.6546 120.27 30.6111V28.3804C120.27 28.3369 120.287 28.2952 120.318 28.2644C120.349 28.2336 120.391 28.2162 120.434 28.2159H122.052C122.096 28.2162 122.137 28.2336 122.168 28.2644C122.199 28.2952 122.216 28.3369 122.217 28.3804V30.6098C122.217 30.6536 122.2 30.6956 122.169 30.7267C122.138 30.7577 122.096 30.7753 122.052 30.7755Z" fill="#FF6701"/>
<path d="M125.003 30.7756H123.385C123.342 30.7754 123.3 30.758 123.269 30.7272C123.238 30.6964 123.221 30.6547 123.221 30.6112V26.2638C123.221 26.2203 123.238 26.1786 123.269 26.1478C123.3 26.117 123.342 26.0996 123.385 26.0994H125.003C125.047 26.0996 125.089 26.117 125.119 26.1478C125.15 26.1786 125.168 26.2203 125.168 26.2638V30.6097C125.168 30.6535 125.151 30.6956 125.12 30.7267C125.089 30.7578 125.047 30.7754 125.003 30.7756Z" fill="#FF6701"/>
<path d="M127.954 30.7755H126.336C126.292 30.7753 126.25 30.7579 126.22 30.7271C126.189 30.6963 126.172 30.6546 126.171 30.6111V28.3804C126.172 28.3369 126.189 28.2952 126.22 28.2644C126.25 28.2336 126.292 28.2162 126.336 28.2159H127.954C127.997 28.2162 128.039 28.2336 128.07 28.2644C128.101 28.2952 128.118 28.3369 128.118 28.3804V30.6098C128.118 30.6536 128.101 30.6956 128.07 30.7267C128.04 30.7577 127.998 30.7753 127.954 30.7755Z" fill="#FF6701"/>
<path d="M130.905 30.7756H129.287C129.244 30.7763 129.203 30.7601 129.172 30.7306C129.141 30.701 129.124 30.6606 129.122 30.6179V25.4214C129.124 25.3787 129.141 25.3383 129.172 25.3087C129.203 25.2792 129.244 25.263 129.287 25.2637H130.905C130.948 25.263 130.989 25.2792 131.02 25.3087C131.051 25.3383 131.068 25.3787 131.07 25.4214V30.6179C131.068 30.6606 131.051 30.701 131.02 30.7306C130.989 30.7601 130.948 30.7763 130.905 30.7756Z" fill="#FF6701"/>
<path d="M133.856 30.7758H132.238C132.195 30.7756 132.153 30.7581 132.122 30.7274C132.091 30.6966 132.074 30.6549 132.074 30.6113V23.9257C132.074 23.8821 132.091 23.8405 132.122 23.8097C132.153 23.7789 132.195 23.7615 132.238 23.7612H133.856C133.9 23.7615 133.942 23.7789 133.972 23.8097C134.003 23.8405 134.021 23.8821 134.021 23.9257V30.6104C134.021 30.6541 134.003 30.696 133.973 30.727C133.942 30.758 133.9 30.7756 133.856 30.7758Z" fill="#FF6701"/>
<path d="M28.8112 134.191C28.9472 134.362 29.12 134.499 29.3166 134.593C29.5132 134.687 29.7286 134.735 29.9465 134.734H109.466C109.683 134.734 109.898 134.685 110.094 134.591C110.29 134.498 110.463 134.361 110.6 134.193C110.737 134.024 110.835 133.826 110.886 133.615C110.937 133.404 110.94 133.184 110.896 132.971L109.661 127.108C109.61 126.868 109.5 126.646 109.341 126.46C109.182 126.275 108.979 126.132 108.75 126.044C108.585 125.979 108.409 125.946 108.231 125.946H31.1761C30.9984 125.946 30.8222 125.979 30.6568 126.044C30.4283 126.132 30.2253 126.274 30.0662 126.46C29.9071 126.646 29.7969 126.868 29.7459 127.108L28.5111 132.971C28.4673 133.184 28.4715 133.404 28.5234 133.615C28.5753 133.826 28.6736 134.023 28.8112 134.191Z" fill="#2F2E41"/>
<path d="M135.684 15.508H10.6198C10.4879 15.508 10.3614 15.4556 10.2681 15.3623C10.1748 15.269 10.1224 15.1425 10.1224 15.0106C10.1224 14.8787 10.1748 14.7522 10.2681 14.659C10.3614 14.5657 10.4879 14.5133 10.6198 14.5133H135.685C135.817 14.5133 135.944 14.5657 136.037 14.659C136.13 14.7522 136.183 14.8787 136.183 15.0106C136.183 15.1425 136.13 15.269 136.037 15.3623C135.944 15.4556 135.817 15.508 135.685 15.508H135.684Z" fill="#3F3D56"/>
<path d="M19.1316 11.9732C20.7413 11.9732 22.0463 10.6392 22.0463 8.99366C22.0463 7.34813 20.7413 6.01416 19.1316 6.01416C17.5219 6.01416 16.2169 7.34813 16.2169 8.99366C16.2169 10.6392 17.5219 11.9732 19.1316 11.9732Z" fill="#3F3D56"/>
<path d="M29.1998 11.9732C30.8096 11.9732 32.1145 10.6392 32.1145 8.99366C32.1145 7.34813 30.8096 6.01416 29.1998 6.01416C27.5901 6.01416 26.2852 7.34813 26.2852 8.99366C26.2852 10.6392 27.5901 11.9732 29.1998 11.9732Z" fill="#3F3D56"/>
<path d="M39.2693 11.9732C40.879 11.9732 42.184 10.6392 42.184 8.99366C42.184 7.34813 40.879 6.01416 39.2693 6.01416C37.6596 6.01416 36.3546 7.34813 36.3546 8.99366C36.3546 10.6392 37.6596 11.9732 39.2693 11.9732Z" fill="#3F3D56"/>
<path d="M129.621 6.75132H122.469C122.329 6.75631 122.196 6.81551 122.099 6.91647C122.001 7.01742 121.947 7.15225 121.947 7.29255C121.947 7.43285 122.001 7.56766 122.099 7.66862C122.196 7.76957 122.329 7.82879 122.469 7.83378H129.62C129.693 7.83637 129.766 7.82428 129.833 7.79824C129.901 7.77221 129.963 7.73276 130.016 7.68225C130.068 7.63173 130.11 7.57119 130.138 7.50423C130.167 7.43728 130.181 7.36529 130.181 7.29255C130.181 7.21981 130.167 7.14781 130.138 7.08085C130.11 7.0139 130.068 6.95335 130.016 6.90284C129.963 6.85233 129.901 6.81288 129.833 6.78684C129.766 6.76081 129.693 6.74873 129.62 6.75132H129.621Z" fill="#3F3D56"/>
<path d="M129.62 8.78381H122.469C122.327 8.78737 122.193 8.84597 122.094 8.94711C121.996 9.04825 121.941 9.18394 121.941 9.32521C121.941 9.46648 121.996 9.60217 122.094 9.70331C122.193 9.80446 122.327 9.86305 122.469 9.86661H129.62C129.692 9.8692 129.765 9.85712 129.833 9.83108C129.901 9.80505 129.963 9.7656 130.015 9.71509C130.067 9.66457 130.109 9.60403 130.137 9.53707C130.166 9.47012 130.181 9.39813 130.181 9.32539C130.181 9.25265 130.166 9.18065 130.137 9.11369C130.109 9.04674 130.067 8.98619 130.015 8.93568C129.963 8.88517 129.901 8.84572 129.833 8.81968C129.765 8.79365 129.692 8.78157 129.62 8.78416V8.78381Z" fill="#3F3D56"/>
<path d="M129.621 10.817H122.469C122.329 10.822 122.196 10.8812 122.099 10.9822C122.001 11.0831 121.947 11.2179 121.947 11.3582C121.947 11.4985 122.001 11.6333 122.099 11.7343C122.196 11.8352 122.329 11.8945 122.469 11.8995H129.62C129.693 11.902 129.766 11.89 129.833 11.8639C129.901 11.8379 129.963 11.7984 130.016 11.7479C130.068 11.6974 130.11 11.6369 130.138 11.5699C130.167 11.503 130.181 11.431 130.181 11.3582C130.181 11.2855 130.167 11.2135 130.138 11.1465C130.11 11.0796 130.068 11.019 130.016 10.9685C129.963 10.918 129.901 10.8786 129.833 10.8525C129.766 10.8265 129.693 10.8144 129.62 10.817H129.621Z" fill="#3F3D56"/>
<path d="M134.988 100.996C134.988 100.996 172.996 105.58 169.367 100.996C168.052 99.338 167.69 94.4258 167.763 88.83C167.786 87.1301 167.848 85.3693 167.934 83.6166C168.355 75.2135 169.366 67.0001 169.366 67.0001C169.366 67.0001 136.134 51.3388 139.954 63.7534C141.482 68.7692 140.98 75.8134 139.82 82.4248C139.48 84.354 139.086 86.2446 138.674 88.0401C137.667 92.4188 136.437 96.7431 134.988 100.996Z" fill="#ED9DA0"/>
<path d="M207.13 167.984V167.664L140.046 166.934L99.1742 166.552H99.0596L99.1025 167.117L99.0452 166.552H98.9725V166.487L98.4491 161.349L98.2505 159.405L98.1895 158.798L98.136 158.29L95.7752 150.417L93.4145 142.556L91.4279 135.936L88.3949 125.821C88.3949 125.821 90.1136 121.81 91.0702 120.665C92.0267 119.519 95.7745 111.318 95.7745 111.318C95.7745 111.318 101.129 103.921 104.691 103.029C106.185 102.647 109.134 102.139 112.266 101.501C113.439 101.264 122.427 98.6683 122.961 98.3079C125.769 96.25 132.805 96.016 133.076 96.016C133.077 96.007 133.077 95.998 133.076 95.989V95.9546C133.067 95.7947 133.067 95.6344 133.076 95.4745C133.072 95.2956 133.084 95.1167 133.111 94.9398C133.107 94.8749 133.116 94.8099 133.138 94.7487C133.157 94.6115 133.181 94.4661 133.214 94.3135C133.226 94.2452 133.241 94.1777 133.26 94.1111C133.371 93.6508 133.531 93.2038 133.738 92.7779C133.764 92.7169 133.799 92.6517 133.829 92.5907C134.016 92.2378 134.234 91.9017 134.479 91.5861C134.528 91.5209 134.581 91.4523 134.639 91.3875C134.952 91.0185 135.3 90.6808 135.678 90.3791C135.781 90.2989 135.888 90.2148 135.999 90.139C136.061 90.089 136.126 90.0432 136.194 90.0018L136.534 89.7803L136.851 89.5968C137.13 89.4441 137.424 89.2949 137.745 89.1536C137.844 89.108 137.951 89.0658 138.058 89.0253C138.165 88.9849 138.332 88.9184 138.474 88.8648H138.497L138.784 88.7503C139.001 88.6776 139.223 88.6131 139.456 88.5479L139.811 88.4563L140.193 88.3685L140.575 88.2883C140.957 88.2118 141.366 88.1432 141.793 88.0897L142.229 88.0362L142.674 87.9906L143.137 87.9525L143.794 87.9144L144.557 87.8873C147.93 87.8871 151.292 88.2449 154.589 88.9547C156.875 88.4459 159.216 88.23 161.556 88.3123H161.889L162.27 88.3353H162.516L163.009 88.3809C163.175 88.3886 163.341 88.4078 163.505 88.4382C163.67 88.4611 163.841 88.481 164.006 88.5068L164.257 88.5496C164.506 88.5925 164.758 88.6374 165.021 88.6906C165.105 88.7059 165.189 88.725 165.273 88.7479C165.605 88.8206 165.938 88.9084 166.268 89.0075C166.432 89.0531 166.596 89.1066 166.76 89.1639C166.843 89.1876 166.925 89.2161 167.005 89.2493L167.249 89.3371L167.489 89.4325L167.776 89.547C167.921 89.6081 168.062 89.6733 168.203 89.7422C168.284 89.7765 168.364 89.8149 168.44 89.8567C168.517 89.8986 168.597 89.9332 168.67 89.9751C169.533 90.4213 170.331 90.9843 171.042 91.6482L171.237 91.8354L171.428 92.0306C171.493 92.0957 171.554 92.1643 171.615 92.2329C171.864 92.5051 172.096 92.7921 172.31 93.0925C172.371 93.1727 172.429 93.253 172.486 93.337C172.729 93.6945 172.948 94.0671 173.143 94.4524C173.193 94.544 173.238 94.6396 173.284 94.7312C173.596 95.3765 173.851 96.0475 174.048 96.7367C174.119 96.9912 174.184 97.2458 174.243 97.5005C174.243 97.5005 182.33 101.068 189.037 103.651C190.821 104.337 192.501 104.961 193.908 105.431C194.316 105.568 194.699 105.694 195.054 105.813C195.825 106.091 196.626 106.275 197.441 106.361C197.825 106.368 198.209 106.403 198.587 106.468C201.67 106.969 206.953 109.144 207.53 111.324C207.577 111.498 207.59 111.679 207.568 111.858C207.568 111.858 220.131 150.756 220.27 151.47C220.826 154.381 222.066 159.924 222.676 162.166C223.131 163.839 223.791 166.13 224.246 167.704C224.253 167.75 224.266 167.795 224.284 167.838L207.16 167.67V167.991H207.106L207.13 167.984Z" fill="#FF6701"/>
<path d="M133.056 95.4876C144.132 97.5276 164.99 97.0879 174.004 96.7786C170.7 84.937 154.588 88.963 154.588 88.963C134.644 84.983 133.117 93.2417 133.056 95.4876Z" fill="#FF6701"/>
<path d="M74.2527 147.693C74.2527 147.693 61.2042 145.688 60.948 151.418C60.6918 157.148 67.6019 161.151 67.6019 161.151L74.2527 147.693Z" fill="#ED9DA0"/>
<path d="M64.577 159.153C64.577 159.153 64.9169 159.962 65.5436 161.136C66.4913 162.94 67.645 164.628 68.9816 166.166L69.0845 166.277H69.7019L91.7578 166.479H92.285L92.3501 166.403L96.6268 161.327L98.2388 159.413L98.3036 159.333L98.4408 159.172L98.5173 159.081L98.6164 158.962L101.752 155.242L100.606 150.467L98.6549 142.421L98.6051 142.226L98.2234 140.698L97.9521 139.552L97.0428 135.817L93.9261 122.963L88.3876 125.828L82.549 136.145L79.4135 141.683H77.6951C77.3707 141.683 76.6261 142.31 75.8773 143.031C75.6101 143.288 75.3426 143.558 75.1135 143.795C74.4334 144.498 73.8952 145.102 73.8952 145.102C73.8952 145.102 71.1109 145.163 70.3625 147.355C70.3239 147.461 70.292 147.57 70.2671 147.68C70.0186 148.542 69.6952 149.38 69.3006 150.186C68.8081 151.259 68.1887 152.477 67.5627 153.696C66.3966 155.93 65.2136 158.058 64.7784 158.828L64.7249 158.923L64.577 159.153Z" fill="#FF6701"/>
<path d="M207.13 167.985V167.664L140.046 166.935L99.1735 166.553H99.0589V166.488L98.6772 161.356L98.5129 159.064L97.8863 150.425L97.3937 143.588V143.42C97.3712 143.104 97.3856 142.788 97.4366 142.476C97.4345 142.463 97.4345 142.451 97.4366 142.438C97.5416 141.793 97.8039 141.185 98.2004 140.666C98.621 140.126 99.1721 139.703 99.8016 139.436C100.431 139.168 101.118 139.066 101.799 139.138C106.425 139.612 111.096 139.99 115.772 140.284C116.41 140.33 117.047 140.369 117.682 140.402C147.836 142.194 177.718 140.742 193.888 139.639L195.034 139.553C197.834 139.354 200.176 139.171 201.979 139.015C202.971 138.931 203.958 139.218 204.751 139.819C205.544 140.421 206.086 141.295 206.272 142.273C206.311 142.48 206.334 142.689 206.341 142.9L206.6 151.364L206.956 162.087L207.124 167.572V168L207.13 167.985Z" fill="#090814"/>
<path d="M157.164 84.639C169.384 84.639 179.29 74.7329 179.29 62.5131C179.29 50.2933 169.384 40.3872 157.164 40.3872C144.945 40.3872 135.039 50.2933 135.039 62.5131C135.039 74.7329 144.945 84.639 157.164 84.639Z" fill="#ED9DA0"/>
<path d="M127.259 47.058C127.431 46.8748 127.637 46.728 127.867 46.6265C128.096 46.525 128.344 46.4707 128.595 46.4671L128.262 45.5434C128.154 45.2525 128.126 44.9382 128.179 44.6326C128.232 44.327 128.366 44.041 128.566 43.8039C128.766 43.5668 129.025 43.3869 129.318 43.2828C129.61 43.1787 129.924 43.1539 130.229 43.2111L131.441 43.4447L131.326 42.6352C131.282 42.3337 131.317 42.0258 131.428 41.742C131.54 41.4582 131.723 41.2082 131.96 41.0168C132.197 40.8253 132.48 40.6989 132.781 40.6501C133.081 40.6013 133.39 40.6318 133.675 40.7385C133.935 40.8408 134.214 40.8836 134.493 40.8638C134.771 40.844 135.042 40.7622 135.284 40.6243C135.528 40.4906 135.739 40.3054 135.904 40.0815C136.069 39.8577 136.182 39.6006 136.237 39.3282L136.66 37.2926L136.702 37.1835C138.758 33.7571 142.711 31.2646 147.548 30.3506C151.853 29.5312 156.267 29.9486 160.523 30.3406C162.211 30.4998 164.118 30.6785 165.707 31.6515C167.058 32.486 168.2 34.1553 167.966 35.8359C172.162 34.5501 176.661 37.119 178.891 40.3547C181.532 44.2078 181.964 49.0363 182.034 52.8081C182.223 61.7363 180.38 69.0409 176.572 74.5228C176.294 74.9199 176.224 75.7493 175.674 76.0274L175.788 75.8436C175.171 76.1523 174.548 76.6479 174.78 77.1792C175.451 78.7085 170.997 82.09 167.858 83.2092C162.133 85.2499 154.521 85.0764 149.17 84.341L148.981 83.0747C147.049 82.8117 145.688 82.3102 145.307 81.5255C144.631 80.9493 144.055 80.4331 143.553 79.9563L143.548 79.9512C143.538 79.9412 143.518 79.9265 143.508 79.9169C141.09 77.598 140.529 76.2771 140.276 74.2662C140.032 72.2948 140.464 70.2938 140.906 68.4928C131.601 69.9333 144.571 58.5806 135.903 56.3855C135.803 56.3548 135.702 56.33 135.6 56.311C135.347 56.2517 135.093 56.1917 134.85 56.1224C133.677 55.804 132.555 55.3244 131.514 54.6973C129.091 53.2225 128.29 51.2675 127.04 49.0614C126.859 48.7475 126.784 48.3842 126.824 48.0243C126.864 47.6644 127.018 47.3268 127.263 47.0604L127.259 47.058Z" fill="#090814"/>
</svg>
