<svg width="193" height="214" viewBox="0 0 193 214" fill="none" xmlns="http://www.w3.org/2000/svg">
<path d="M192 126.461V13C192 6.37258 186.627 1 180 1H13C6.37258 1 1 6.37258 1 13V180C1 186.627 6.3726 192 13 192H75.902" stroke="black" stroke-linecap="round" stroke-dasharray="1 5"/>
<path d="M131.393 59.2752C140.157 62.1842 146 70.3291 146 79.3467C146 90.6915 136.36 100 124.966 100H63.0337C51.3483 100 42 90.6915 42 79.3467C42 68.5838 49.8876 59.5661 60.6966 58.4026C61.8652 51.1303 66.5393 45.3125 73.2584 42.6944C79.6854 40.0764 86.9888 40.6582 92.5393 44.4398C97.7977 34.8404 108.607 31.9315 118.247 35.4222C128.18 39.2037 134.022 48.8032 131.393 59.2752Z" fill="url(#paint0_linear_45_370)"/>
<path fill-rule="evenodd" clip-rule="evenodd" d="M88.9275 79H85.542L84.1901 75.3131H76.7374L75.3624 79H72L78.3435 62H82.5609L88.9275 79ZM80.4464 65.189L77.8004 72.3731H83.104L80.4464 65.189Z" fill="white"/>
<path fill-rule="evenodd" clip-rule="evenodd" d="M90.522 62H98.2867L98.2636 62.0119C99.9852 62.0119 101.372 62.6165 102.435 63.8257C103.498 65.0349 104.029 66.3982 104.029 67.9156C104.029 69.4686 103.498 70.8438 102.435 72.0293C101.372 73.2148 99.939 73.8075 98.148 73.8075H93.7457V79H90.522V62ZM93.7226 70.8556H98.0209L97.9978 70.8319C98.8413 70.8319 99.523 70.5356 100.055 69.9547C100.586 69.3738 100.852 68.698 100.852 67.9275C100.852 67.1569 100.598 66.4812 100.089 65.9003C99.5808 65.3194 98.9453 65.023 98.1712 65.023H93.7226V70.8556Z" fill="white"/>
<path d="M110 79H106.707V62H110V79Z" fill="white"/>
<path d="M89.2969 88.0215C89.2969 107.47 89.2969 126.918 89.2969 146.955C75.2106 146.955 61.1244 146.955 46.6113 146.955C46.6113 133.687 46.6113 120.418 46.6113 106.748C48.7552 106.136 48.7552 106.136 49.7891 105.92C58.2314 104.085 65.7186 100.45 72.0183 94.5007C76.8955 90.0055 82.7262 88.0215 89.2969 88.0215ZM80.4308 96.0383C79.8346 96.9924 79.7946 97.5336 79.7919 98.6526C79.789 98.9211 79.789 98.9211 79.7861 99.1951C79.781 99.7928 79.7839 100.39 79.7867 100.988C79.7847 101.417 79.7823 101.847 79.7795 102.276C79.7733 103.441 79.7741 104.605 79.7766 105.77C79.778 106.743 79.776 107.715 79.7739 108.688C79.7693 110.982 79.7702 113.276 79.7749 115.57C79.7795 117.937 79.7752 120.303 79.7663 122.67C79.7589 124.703 79.7569 126.735 79.7592 128.767C79.7606 129.981 79.76 131.195 79.7543 132.408C79.7493 133.55 79.7509 134.69 79.7577 135.832C79.7591 136.25 79.7581 136.669 79.7546 137.087C79.7502 137.659 79.7544 138.231 79.7606 138.802C79.7608 139.122 79.7609 139.442 79.7611 139.772C79.9869 140.884 80.4359 141.298 81.3105 141.998C82.1486 142.205 82.1486 142.205 82.9629 141.998C83.597 141.484 83.9758 141.074 84.3398 140.346C84.3675 139.78 84.3771 139.214 84.3785 138.647C84.3801 138.285 84.3817 137.922 84.3833 137.549C84.3836 137.144 84.3839 136.74 84.3842 136.336C84.3855 135.912 84.3869 135.488 84.3884 135.065C84.392 133.911 84.3938 132.758 84.395 131.605C84.3958 130.884 84.3969 130.164 84.3981 129.444C84.4019 127.191 84.4046 124.938 84.4056 122.685C84.4069 120.083 84.4117 117.481 84.4197 114.879C84.4256 112.869 84.4284 110.859 84.4288 108.849C84.4291 107.647 84.4307 106.446 84.4356 105.245C84.4401 104.115 84.4407 102.985 84.4383 101.855C84.4381 101.441 84.4393 101.026 84.442 100.612C84.4455 100.045 84.4439 99.479 84.441 98.9127C84.4415 98.5958 84.4419 98.279 84.4423 97.9525C84.3277 97.0091 84.0776 96.4904 83.5137 95.7324C82.3927 95.1719 81.3419 95.162 80.4308 96.0383ZM70.8457 103.168C70.4918 103.876 70.5324 104.384 70.5279 105.177C70.5256 105.486 70.5232 105.795 70.5208 106.114C70.5196 106.455 70.5184 106.796 70.5172 107.147C70.5149 107.505 70.5127 107.863 70.5104 108.231C70.5032 109.42 70.4989 110.608 70.495 111.797C70.4935 112.206 70.4921 112.615 70.4906 113.023C70.4846 114.725 70.4795 116.426 70.4764 118.127C70.4719 120.566 70.4627 123.004 70.4471 125.443C70.4364 127.157 70.431 128.872 70.4296 130.586C70.4285 131.61 70.4252 132.634 70.4163 133.658C70.4065 134.801 70.4076 135.943 70.4096 137.086C70.4051 137.425 70.4006 137.764 70.3959 138.114C70.3499 139.968 70.3499 139.968 71.2161 141.521C72.113 142.106 72.549 142.199 73.5996 141.998C74.2338 141.484 74.6126 141.074 74.9766 140.346C75.004 139.871 75.0138 139.395 75.0152 138.919C75.0168 138.617 75.0184 138.315 75.02 138.003C75.0203 137.67 75.0206 137.337 75.0209 136.993C75.0223 136.644 75.0237 136.294 75.0251 135.934C75.0287 134.972 75.0305 134.011 75.0317 133.05C75.0325 132.45 75.0336 131.85 75.0349 131.249C75.0386 129.371 75.0413 127.493 75.0424 125.615C75.0436 123.446 75.0484 121.278 75.0564 119.11C75.0623 117.434 75.0651 115.758 75.0655 114.082C75.0658 113.081 75.0674 112.08 75.0723 111.079C75.0777 109.963 75.0765 108.846 75.0747 107.729C75.0773 107.397 75.0798 107.066 75.0824 106.724C75.0809 106.42 75.0793 106.115 75.0778 105.801C75.0784 105.405 75.0784 105.405 75.079 105.001C74.9554 104.118 74.6739 103.609 74.1504 102.893C72.8234 102.008 72.0701 102.308 70.8457 103.168ZM61.4824 107.85C61.1485 108.517 61.1695 108.946 61.1646 109.693C61.1623 109.965 61.1599 110.238 61.1575 110.519C61.1563 110.819 61.1551 111.119 61.1539 111.428C61.1517 111.744 61.1494 112.059 61.1471 112.384C61.1402 113.431 61.1357 114.477 61.1317 115.524C61.1303 115.881 61.1288 116.237 61.1273 116.605C61.1214 118.103 61.1162 119.601 61.1131 121.099C61.1086 123.247 61.0995 125.395 61.0838 127.543C61.0718 129.235 61.0674 130.927 61.0657 132.618C61.0638 133.339 61.0596 134.059 61.053 134.779C61.0444 135.785 61.0443 136.791 61.0463 137.797C61.0418 138.096 61.0373 138.395 61.0327 138.703C61.0156 140.315 61.0156 140.315 61.8528 141.632C62.7456 142.079 63.2512 142.166 64.2363 141.998C65.0206 141.383 65.2966 141.02 65.6133 140.07C65.6401 139.648 65.6516 139.224 65.6538 138.801C65.6558 138.54 65.6578 138.279 65.6598 138.011C65.6605 137.726 65.6613 137.44 65.662 137.146C65.6638 136.845 65.6656 136.544 65.6675 136.234C65.6729 135.236 65.6762 134.238 65.6789 133.24C65.68 132.9 65.6811 132.559 65.6823 132.209C65.6875 130.593 65.6915 128.977 65.6938 127.361C65.6965 125.497 65.7037 123.634 65.7148 121.77C65.7241 120.155 65.7274 118.539 65.7285 116.923C65.7299 116.237 65.7331 115.55 65.7382 114.864C65.7449 113.903 65.7446 112.943 65.7427 111.982C65.7462 111.699 65.7498 111.415 65.7534 111.122C65.7416 109.495 65.6219 108.525 64.5117 107.299C63.2246 106.833 62.5522 107.024 61.4824 107.85ZM51.8438 110.604C51.5898 111.365 51.5328 111.821 51.5297 112.607C51.5281 112.847 51.5265 113.087 51.5249 113.335C51.5246 113.597 51.5243 113.86 51.524 114.131C51.5226 114.408 51.5213 114.685 51.5198 114.971C51.5158 115.89 51.5139 116.808 51.5124 117.727C51.5108 118.365 51.5093 119.002 51.5077 119.64C51.5048 120.978 51.5032 122.315 51.5022 123.653C51.5007 125.368 51.4941 127.082 51.4862 128.797C51.4811 130.115 51.4797 131.432 51.4793 132.749C51.4784 133.381 51.4762 134.014 51.4726 134.646C51.4679 135.53 51.4684 136.414 51.4702 137.298C51.4677 137.56 51.4651 137.821 51.4625 138.091C51.4733 139.791 51.7097 140.762 52.9453 141.998C53.9913 142.138 54.4683 142.079 55.3722 141.516C56.2468 140.617 56.2841 139.825 56.2868 138.605C56.288 138.369 56.2892 138.134 56.2904 137.891C56.2902 137.506 56.2902 137.506 56.29 137.113C56.2909 136.841 56.2919 136.569 56.2928 136.289C56.2954 135.39 56.296 134.49 56.2963 133.591C56.2971 132.966 56.2981 132.341 56.299 131.716C56.3007 130.406 56.3012 129.096 56.301 127.786C56.301 126.107 56.3048 124.428 56.3095 122.748C56.3126 121.458 56.3131 120.167 56.313 118.877C56.3133 118.257 56.3145 117.638 56.3167 117.019C56.3193 116.154 56.3186 115.288 56.3169 114.422C56.3192 114.039 56.3192 114.039 56.3216 113.647C56.3144 112.167 56.2981 110.948 55.2173 109.829C53.7911 109.076 52.8039 109.359 51.8438 110.604Z" fill="#1A4C6D"/>
<path d="M93.7031 88.0215C101.25 88.0215 106.848 90.6478 112.309 95.8185C118.332 101.279 125.951 104.362 133.794 106.039C134.667 106.246 135.527 106.502 136.389 106.748C136.389 120.016 136.389 133.285 136.389 146.955C122.302 146.955 108.216 146.955 93.7031 146.955C93.7031 127.507 93.7031 108.059 93.7031 88.0215ZM98.9355 96.2832C98.6309 97.1972 98.624 97.8779 98.6215 98.8409C98.6199 99.2038 98.6183 99.5668 98.6167 99.9407C98.6164 100.344 98.6161 100.747 98.6158 101.15C98.6145 101.574 98.6131 101.998 98.6116 102.422C98.608 103.574 98.6062 104.726 98.605 105.878C98.6042 106.598 98.6031 107.318 98.6019 108.038C98.5981 110.289 98.5954 112.54 98.5944 114.792C98.5931 117.391 98.5883 119.991 98.5803 122.591C98.5744 124.6 98.5716 126.609 98.5712 128.618C98.5709 129.818 98.5693 131.018 98.5644 132.218C98.5599 133.347 98.5593 134.476 98.5617 135.605C98.5619 136.019 98.5607 136.433 98.558 136.847C98.5545 137.413 98.5561 137.979 98.559 138.544C98.5585 138.861 98.5581 139.177 98.5577 139.503C98.6724 140.446 98.9227 140.965 99.4863 141.723C100.282 142.12 100.807 142.102 101.689 141.998C102.568 141.301 103.013 140.885 103.239 139.772C103.239 139.452 103.239 139.132 103.239 138.802C103.241 138.623 103.243 138.444 103.245 138.26C103.25 137.662 103.245 137.065 103.24 136.467C103.242 136.038 103.244 135.608 103.246 135.179C103.251 134.014 103.248 132.85 103.242 131.685C103.238 130.466 103.24 129.246 103.242 128.027C103.243 125.98 103.238 123.932 103.231 121.885C103.222 119.518 103.222 117.152 103.227 114.785C103.231 112.508 103.229 110.231 103.225 107.953C103.223 106.984 103.223 106.016 103.225 105.047C103.227 103.906 103.224 102.765 103.216 101.624C103.214 101.205 103.214 100.786 103.216 100.368C103.219 99.7958 103.214 99.2244 103.208 98.6526C103.207 98.3328 103.207 98.0129 103.206 97.6834C103.036 96.6463 102.715 96.1836 101.965 95.457C100.679 95.2733 99.8557 95.3276 98.9355 96.2832ZM108.901 102.824C108 103.751 107.989 104.491 107.987 105.731C107.985 106.034 107.984 106.337 107.983 106.65C107.983 106.982 107.983 107.315 107.983 107.658C107.983 108.008 107.982 108.358 107.981 108.719C107.978 109.68 107.978 110.641 107.977 111.602C107.977 112.404 107.976 113.206 107.975 114.008C107.973 115.9 107.972 117.793 107.972 119.685C107.973 121.637 107.97 123.59 107.965 125.542C107.962 127.218 107.96 128.894 107.96 130.57C107.96 131.571 107.96 132.572 107.957 133.573C107.954 134.69 107.955 135.806 107.957 136.922C107.955 137.254 107.953 137.586 107.952 137.928C107.953 138.232 107.954 138.536 107.955 138.849C107.955 139.113 107.955 139.377 107.955 139.649C108.028 140.392 108.166 140.825 108.574 141.447C109.543 142.093 109.912 142.158 111.053 141.998C111.754 141.542 112.035 141.332 112.43 140.621C112.638 139.447 112.615 138.284 112.603 137.095C112.605 136.736 112.607 136.378 112.609 136.009C112.615 135.028 112.611 134.047 112.606 133.066C112.601 132.039 112.603 131.012 112.605 129.985C112.606 128.26 112.602 126.536 112.594 124.811C112.585 122.818 112.585 120.825 112.59 118.831C112.594 116.913 112.593 114.994 112.588 113.076C112.586 112.26 112.586 111.443 112.588 110.627C112.591 109.488 112.584 108.349 112.577 107.209C112.578 106.871 112.58 106.532 112.582 106.182C112.579 105.872 112.575 105.562 112.571 105.243C112.571 104.974 112.57 104.704 112.569 104.427C112.389 103.514 112.047 103.191 111.328 102.617C110.25 102.25 109.88 102.215 108.901 102.824ZM117.938 107.85C117.427 108.672 117.317 109.296 117.315 110.256C117.313 110.517 117.311 110.779 117.309 111.048C117.31 111.333 117.31 111.618 117.311 111.911C117.31 112.212 117.308 112.514 117.307 112.825C117.303 113.822 117.303 114.82 117.304 115.818C117.303 116.51 117.302 117.203 117.3 117.896C117.298 119.349 117.298 120.801 117.3 122.254C117.301 123.932 117.298 125.61 117.292 127.288C117.287 128.904 117.286 130.519 117.287 132.135C117.287 132.822 117.285 133.508 117.283 134.195C117.279 135.155 117.281 136.115 117.284 137.075C117.282 137.359 117.28 137.643 117.278 137.936C117.291 139.702 117.479 140.714 118.764 141.998C119.726 142.126 120.276 142.067 121.148 141.634C122.164 140.472 121.983 139.301 121.967 137.806C121.969 137.491 121.971 137.175 121.973 136.85C121.977 135.806 121.972 134.763 121.966 133.719C121.966 132.995 121.967 132.27 121.968 131.546C121.969 130.027 121.965 128.509 121.957 126.99C121.949 125.235 121.949 123.48 121.953 121.725C121.958 120.035 121.956 118.346 121.951 116.657C121.95 115.938 121.95 115.22 121.952 114.501C121.953 113.498 121.947 112.495 121.94 111.491C121.942 111.193 121.943 110.895 121.945 110.587C121.953 109.028 121.953 109.028 121.275 107.673C119.963 106.832 119.167 106.886 117.938 107.85ZM127.473 109.984C126.797 110.92 126.716 111.759 126.713 112.895C126.712 113.131 126.711 113.366 126.71 113.609C126.71 113.866 126.71 114.123 126.71 114.387C126.709 114.659 126.708 114.931 126.707 115.211C126.705 116.11 126.704 117.01 126.704 117.909C126.703 118.534 126.702 119.159 126.701 119.784C126.699 121.094 126.699 122.404 126.699 123.714C126.699 125.393 126.695 127.072 126.69 128.752C126.687 130.042 126.687 131.333 126.687 132.623C126.687 133.243 126.685 133.862 126.683 134.481C126.681 135.346 126.681 136.212 126.683 137.078C126.681 137.461 126.681 137.461 126.678 137.853C126.686 139.333 126.702 140.552 127.783 141.671C128.612 142.109 129.129 142.133 130.055 141.998C130.839 141.383 131.115 141.02 131.432 140.07C131.458 139.678 131.469 139.286 131.47 138.893C131.472 138.653 131.473 138.413 131.475 138.165C131.475 137.903 131.476 137.64 131.476 137.369C131.477 137.092 131.479 136.815 131.48 136.529C131.484 135.61 131.486 134.692 131.488 133.773C131.489 133.135 131.491 132.498 131.492 131.86C131.495 130.522 131.497 129.185 131.498 127.847C131.499 126.132 131.506 124.418 131.514 122.703C131.519 121.385 131.52 120.068 131.521 118.751C131.522 118.119 131.524 117.486 131.527 116.854C131.532 115.97 131.532 115.086 131.53 114.202C131.532 113.94 131.535 113.679 131.537 113.409C131.527 111.709 131.29 110.738 130.055 109.502C128.969 109.381 128.368 109.324 127.473 109.984Z" fill="#1A4C6D"/>
<path d="M29.7028 151.325C30.0272 151.324 30.0272 151.324 30.3582 151.323C31.089 151.322 31.8197 151.322 32.5505 151.323C33.0773 151.322 33.6041 151.321 34.1309 151.32C35.5833 151.318 37.0357 151.317 38.4881 151.317C40.0526 151.317 41.6171 151.315 43.1816 151.313C46.6046 151.309 50.0276 151.307 53.4505 151.306C55.5864 151.305 57.7223 151.304 59.8583 151.303C65.7681 151.3 71.6779 151.297 77.5877 151.296C77.9699 151.296 78.3522 151.296 78.7344 151.296C79.1176 151.296 79.5007 151.296 79.8839 151.296C80.6526 151.295 81.4214 151.295 82.1901 151.295C82.3807 151.295 82.5713 151.295 82.7677 151.295C88.9501 151.294 95.1326 151.29 101.315 151.283C107.849 151.277 114.383 151.273 120.917 151.272C124.48 151.272 128.043 151.271 131.606 151.266C134.639 151.261 137.672 151.26 140.705 151.262C142.254 151.263 143.802 151.263 145.35 151.259C146.767 151.256 148.183 151.256 149.6 151.259C150.113 151.26 150.627 151.259 151.14 151.257C151.836 151.254 152.532 151.256 153.228 151.259C153.53 151.256 153.53 151.256 153.837 151.253C155.374 151.268 156.244 151.664 157.318 152.738C157.411 153.296 157.411 153.296 157.422 153.943C157.429 154.155 157.437 154.368 157.445 154.586C157.264 155.484 156.942 155.762 156.217 156.318C155.462 156.426 154.817 156.467 154.063 156.457C153.843 156.459 153.624 156.46 153.398 156.462C152.658 156.466 151.918 156.462 151.178 156.458C150.644 156.46 150.11 156.461 149.576 156.463C148.105 156.468 146.634 156.466 145.162 156.462C143.577 156.46 141.992 156.464 140.407 156.467C137.3 156.472 134.193 156.471 131.087 156.467C128.563 156.465 126.038 156.465 123.514 156.466C123.156 156.466 122.797 156.466 122.427 156.466C121.698 156.467 120.97 156.467 120.241 156.467C113.597 156.47 106.953 156.467 100.309 156.461C94.2414 156.456 88.1736 156.457 82.1058 156.462C75.2918 156.468 68.4779 156.47 61.6639 156.467C60.9378 156.466 60.2117 156.466 59.4856 156.466C59.1283 156.466 58.771 156.465 58.4029 156.465C55.8808 156.464 53.3587 156.466 50.8365 156.468C47.7644 156.472 44.6923 156.471 41.6202 156.465C40.0516 156.462 38.4832 156.461 36.9146 156.464C35.4803 156.468 34.046 156.466 32.6116 156.46C32.0913 156.459 31.5709 156.46 31.0505 156.462C30.3459 156.466 29.6416 156.462 28.9371 156.457C28.7326 156.46 28.5282 156.462 28.3175 156.465C27.3675 156.451 26.8694 156.385 26.1069 155.797C25.4851 154.949 25.5277 154.344 25.573 153.323C25.6816 152.738 25.6816 152.738 26.1808 152.05C27.3148 151.272 28.3813 151.322 29.7028 151.325Z" fill="#40404B"/>
<path d="M140.795 99.8633C143.976 99.8633 147.156 99.8633 150.434 99.8633C150.434 115.404 150.434 130.944 150.434 146.955C147.253 146.955 144.072 146.955 140.795 146.955C140.795 131.415 140.795 115.874 140.795 99.8633Z" fill="#40404B"/>
<path d="M32.5664 99.8633C35.7472 99.8633 38.9279 99.8633 42.2051 99.8633C42.2051 115.404 42.2051 130.944 42.2051 146.955C39.0243 146.955 35.8436 146.955 32.5664 146.955C32.5664 131.415 32.5664 115.874 32.5664 99.8633Z" fill="#40404B"/>
<path d="M148.469 86.3713C149.558 87.1894 150.043 88.1184 150.434 89.3984C150.626 91.1292 150.364 92.3807 149.332 93.8047C148.321 94.8388 147.232 95.4016 145.782 95.4915C144.423 95.4109 143.231 95.0915 142.209 94.1651C140.894 92.6589 140.698 91.6714 140.718 89.6695C140.853 88.2365 141.54 87.5419 142.533 86.5757C144.44 85.334 146.467 85.2905 148.469 86.3713Z" fill="#40404B"/>
<path d="M41.266 87.2964C42.3482 88.5495 42.3215 89.7467 42.2923 91.3498C42.1394 92.7576 41.4509 93.4475 40.5012 94.4243C39.1299 95.2776 37.6946 95.6239 36.0949 95.3021C34.5881 94.8278 33.6528 93.9889 32.8763 92.6171C32.3854 91.0079 32.3284 89.778 32.9968 88.2452C33.7829 86.8341 34.8662 86.0563 36.3875 85.5602C38.3838 85.5203 39.7779 85.9526 41.266 87.2964Z" fill="#40404B"/>
<g clip-path="url(#clip0_45_370)">
<path fill-rule="evenodd" clip-rule="evenodd" d="M146 132C123.356 132 105 150.356 105 173C105 195.644 123.356 214 146 214C168.644 214 187 195.644 187 173C187 150.356 168.644 132 146 132ZM146 146.471C131.348 146.471 119.471 158.348 119.471 173C119.471 187.652 131.348 199.529 146 199.529C160.652 199.529 172.529 187.652 172.529 173C172.529 158.348 160.652 146.471 146 146.471Z" fill="#F0F1F4"/>
<rect x="139.167" y="166.167" width="13.6667" height="13.6667" rx="6.83333" fill="#F0F1F4"/>
<path d="M173.171 179.222C170.85 178.131 169.24 175.758 169.24 173.006C169.24 170.253 170.85 167.88 173.219 166.789C174.64 166.125 175.398 164.606 174.877 163.135C174.45 161.854 173.929 160.62 173.313 159.434C172.65 158.057 171.04 157.488 169.571 158.01C167.203 158.817 164.456 158.295 162.561 156.396C160.666 154.498 160.098 151.746 160.95 149.373C161.424 147.95 160.903 146.336 159.529 145.672C158.298 145.055 157.019 144.533 155.787 144.106C154.366 143.631 152.85 144.343 152.14 145.672C151.003 147.855 148.729 149.326 146.077 149.326C143.424 149.326 141.15 147.855 140.013 145.672C139.303 144.343 137.787 143.631 136.366 144.106C135.134 144.533 133.903 145.007 132.718 145.624C131.392 146.289 130.729 147.807 131.155 149.231C131.866 151.556 131.297 154.214 129.45 156.017C127.603 157.867 124.95 158.437 122.629 157.725C121.161 157.298 119.597 157.915 118.887 159.291C118.318 160.478 117.797 161.664 117.371 162.898C116.897 164.274 117.561 165.792 118.839 166.504C120.971 167.643 122.439 169.921 122.439 172.531C122.439 175.236 120.876 177.561 118.65 178.653C117.324 179.317 116.66 180.788 117.087 182.164C117.466 183.398 117.939 184.632 118.508 185.818C119.171 187.242 120.829 187.906 122.345 187.479C124.666 186.767 127.271 187.337 129.118 189.14C131.061 191.086 131.582 193.886 130.682 196.306C130.161 197.682 130.729 199.248 132.008 199.96C133.239 200.624 134.519 201.146 135.845 201.621C137.266 202.143 138.782 201.431 139.397 200.055C140.487 197.777 142.855 196.163 145.555 196.163C148.303 196.163 150.671 197.777 151.761 200.149C152.424 201.573 153.987 202.38 155.455 201.905C156.734 201.478 158.013 201.004 159.197 200.387C160.571 199.722 161.14 198.109 160.618 196.685C159.718 194.265 160.24 191.418 162.182 189.472C164.124 187.527 167.013 187.005 169.429 187.906C170.898 188.476 172.555 187.906 173.266 186.53C173.882 185.343 174.403 184.11 174.829 182.828C175.303 181.405 174.545 179.839 173.171 179.222ZM145.982 187.811C137.835 187.811 131.203 181.168 131.203 173.006C131.203 164.843 137.835 158.2 145.982 158.2C154.13 158.2 160.761 164.843 160.761 173.006C160.761 181.168 154.13 187.811 145.982 187.811Z" fill="#1A4C6D"/>
<path fill-rule="evenodd" clip-rule="evenodd" d="M111.791 196.969C111.083 196.969 110.51 197.542 110.51 198.25C110.51 198.957 111.083 199.531 111.791 199.531L117.239 199.531L106.761 210.01C106.26 210.51 106.26 211.321 106.761 211.822C107.261 212.322 108.072 212.322 108.572 211.822L119.051 201.343L119.051 206.791C119.051 207.499 119.625 208.073 120.332 208.073C121.04 208.073 121.614 207.499 121.614 206.791L121.614 198.25L121.614 196.969L120.332 196.969L111.791 196.969Z" fill="#CBCEDB"/>
<path fill-rule="evenodd" clip-rule="evenodd" d="M180.201 196.969C180.909 196.969 181.482 197.542 181.482 198.25C181.482 198.957 180.909 199.531 180.201 199.531H174.753L185.232 210.01C185.732 210.51 185.732 211.321 185.232 211.822C184.731 212.322 183.92 212.322 183.42 211.822L172.94 201.342V206.791C172.94 207.499 172.367 208.073 171.659 208.073C170.952 208.073 170.378 207.499 170.378 206.791L170.378 198.25L170.378 196.969L171.659 196.969L180.201 196.969Z" fill="#40404B"/>
<path fill-rule="evenodd" clip-rule="evenodd" d="M111.791 148.613C111.083 148.613 110.51 148.04 110.51 147.332C110.51 146.625 111.083 146.051 111.791 146.051H117.239L106.761 135.572C106.26 135.072 106.26 134.261 106.761 133.76C107.261 133.26 108.072 133.26 108.572 133.76L119.051 144.239V138.79C119.051 138.083 119.625 137.509 120.332 137.509C121.04 137.509 121.614 138.083 121.614 138.79L121.614 147.332L121.614 148.613L120.332 148.613L111.791 148.613Z" fill="#40404B"/>
<path fill-rule="evenodd" clip-rule="evenodd" d="M180.201 148.613C180.909 148.613 181.482 148.04 181.482 147.332C181.482 146.625 180.909 146.051 180.201 146.051L174.753 146.051L185.232 135.572C185.732 135.072 185.732 134.261 185.232 133.76C184.731 133.26 183.92 133.26 183.42 133.76L172.94 144.24L172.94 138.79C172.94 138.083 172.367 137.509 171.659 137.509C170.952 137.509 170.378 138.083 170.378 138.79L170.378 147.332L170.378 148.613L171.659 148.613L180.201 148.613Z" fill="#CBCEDB"/>
<path fill-rule="evenodd" clip-rule="evenodd" d="M146 167.448C142.934 167.448 140.448 169.934 140.448 173C140.448 176.066 142.934 178.552 146 178.552C149.066 178.552 151.552 176.066 151.552 173C151.552 169.934 149.066 167.448 146 167.448ZM137.885 173C137.885 168.518 141.519 164.885 146 164.885C150.482 164.885 154.115 168.518 154.115 173C154.115 177.482 150.482 181.115 146 181.115C141.519 181.115 137.885 177.482 137.885 173Z" fill="#40404B"/>
</g>
<defs>
<linearGradient id="paint0_linear_45_370" x1="94" y1="34" x2="94" y2="100" gradientUnits="userSpaceOnUse">
<stop stop-color="#1A5A6C"/>
<stop offset="1" stop-color="#0A7F5E"/>
</linearGradient>
<clipPath id="clip0_45_370">
<rect width="82" height="82" fill="white" transform="translate(105 132)"/>
</clipPath>
</defs>
</svg>
