<svg width="203" height="214" viewBox="0 0 203 214" fill="none" xmlns="http://www.w3.org/2000/svg">
<path d="M192 126.461V13C192 6.37258 186.627 1 180 1H13C6.37258 1 1 6.37258 1 13V180C1 186.627 6.3726 192 13 192H75.902" stroke="black" stroke-linecap="round" stroke-dasharray="1 5"/>
<path d="M91.4656 22.1515C91.7847 22.1481 92.1039 22.1447 92.4327 22.1413C96.225 22.1348 96.225 22.1348 97.4397 23.0955C97.9444 23.7158 98.1009 24.2811 98.3235 25.0485C99.2151 28.1661 99.2151 28.1661 101.171 30.6211C102.507 31.2167 103.925 31.4234 105.358 31.6724C106.646 31.9682 107.792 32.546 108.97 33.1327C109.295 33.2905 109.295 33.2905 109.626 33.4516C110.484 33.8744 111.296 34.299 112.096 34.8238C112.671 35.1977 112.671 35.1977 113.246 35.1045C113.515 34.9975 113.515 34.9975 113.789 34.8883C114.001 34.8074 114.213 34.7264 114.432 34.643C115.001 34.3986 115.568 34.1479 116.133 33.8943C116.301 33.8201 116.468 33.7459 116.64 33.6694C117.127 33.451 117.611 33.2258 118.095 33.0004C119.125 32.6378 119.883 32.5793 120.967 32.668C123.457 33.9408 125.563 36.2983 127.301 38.4512C127.531 38.6785 127.531 38.6785 127.767 38.9105C128.345 39.9413 128.322 40.8791 128.127 42.0313C127.839 42.7442 127.496 43.4041 127.133 44.0816C125.982 46.1549 125.982 46.1549 125.721 48.4478C126.123 49.6528 126.807 50.6776 127.523 51.7182C128.026 52.4871 128.373 53.3038 128.729 54.1484C128.867 54.4591 129.004 54.7697 129.146 55.0897C129.42 55.8454 129.579 56.4313 129.699 57.2089C130.003 58.9623 130.003 58.9623 130.881 60.4824C132.309 61.4179 133.914 61.9186 135.528 62.4392C136.804 62.8629 137.499 63.2696 138.316 64.3379C138.793 65.7681 138.654 67.3008 138.658 68.7982C138.661 69.3942 138.669 69.9899 138.678 70.5858C138.68 70.9666 138.681 71.3474 138.682 71.7283C138.685 72.0734 138.687 72.4186 138.69 72.7743C138.584 73.7769 138.367 74.2791 137.766 75.0781C136.488 76.096 135.079 76.6437 133.566 77.2124C133.229 77.3429 133.229 77.3429 132.886 77.476C131.235 78.1074 131.235 78.1074 130.605 78.1074C130.555 78.3584 130.504 78.6094 130.452 78.868C129.945 81.1929 129.22 83.3552 128.282 85.543C128.129 85.9028 128.129 85.9028 127.972 86.2698C127.383 87.6078 126.735 88.8137 125.884 90.0039C125.579 90.6459 125.669 90.9665 125.872 91.636C126.062 92.0883 126.265 92.5353 126.475 92.9785C128.404 97.2011 128.404 97.2011 128.127 99.0371C127.945 99.3097 127.763 99.5824 127.576 99.8633C122.452 98.3993 118.068 95.3347 114.082 91.877C113.912 91.7399 113.743 91.6029 113.568 91.4617C113.256 91.0508 113.256 91.0508 113.28 90.5183C113.591 89.8133 113.993 89.3843 114.53 88.8304C120.255 82.5644 121.837 74.5707 121.571 66.3628C121.453 64.3261 121.032 62.4219 120.416 60.4824C120.358 60.2954 120.301 60.1083 120.242 59.9156C118.029 52.9136 113.037 46.6086 106.572 43.0656C101.759 40.5682 97.0203 39.1627 91.5689 39.1913C91.2556 39.1928 90.9424 39.1944 90.6197 39.196C82.4039 39.3139 75.0288 42.908 69.2812 48.6932C63.404 54.8912 61.2774 62.8948 61.3964 71.228C61.4738 73.6257 61.8565 75.8263 62.584 78.1074C62.643 78.2959 62.702 78.4844 62.7628 78.6786C64.0681 82.7292 66.1227 87.0222 69.4204 89.8255C69.7442 90.2246 69.7442 90.2246 69.7312 90.755C67.8989 94.7425 60.468 98.0462 56.6427 99.6664C55.9746 99.8633 55.9746 99.8633 55.1485 99.5879C54.6985 98.688 54.7401 97.8076 54.8731 96.834C55.3177 95.5502 55.9289 94.3419 56.519 93.12C56.6326 92.8734 56.7462 92.6269 56.8632 92.3729C56.9699 92.1518 57.0766 91.9308 57.1866 91.703C57.5088 90.4295 56.6302 89.3215 56.0528 88.2099C54.3993 85.0163 52.8953 81.6988 52.3945 78.1074C52.2405 78.067 52.0864 78.0265 51.9277 77.9848C50.4502 77.5715 49.0252 77.0628 47.6096 76.4723C47.1293 76.2726 47.1293 76.2726 46.6393 76.0689C45.4734 75.4683 44.8261 74.9549 44.4082 73.7012C44.3454 72.4955 44.3453 71.2892 44.3421 70.0822C44.3394 69.4892 44.3309 68.8965 44.3222 68.3036C44.3204 67.9237 44.3189 67.5438 44.3179 67.1639C44.3153 66.8201 44.3127 66.4764 44.3101 66.1222C44.4181 65.0681 44.6814 64.4103 45.2344 63.5117C45.9121 63.0373 45.9121 63.0373 46.7146 62.6683C47.0078 62.5253 47.3011 62.3822 47.6032 62.2348C48.5391 61.8594 48.5391 61.8594 49.475 61.6819C50.5959 61.4376 51.2229 61.2131 52.1192 60.4824C52.77 59.2443 53.1287 57.9102 53.5003 56.5671C54.0955 54.4287 54.926 52.6924 56.0607 50.7921C57.0963 49.0186 57.0963 49.0186 57.2763 47.0216C56.924 46.1004 56.5109 45.3356 55.9746 44.5098C55.1555 42.912 54.3894 41.3737 54.8731 39.5527C55.4182 38.7139 56.0915 38.0503 56.8008 37.3496C57.0735 37.0251 57.3433 36.6981 57.6098 36.3685C58.9516 34.8007 60.7323 32.8225 62.8572 32.5701C64.5748 32.5958 66.1259 33.5809 67.6373 34.3139C69.0794 35.005 69.0794 35.005 70.637 35.0099C70.8877 34.8732 71.1383 34.7365 71.3965 34.5957C71.6809 34.4413 71.9652 34.2869 72.2582 34.1278C72.5702 33.9471 72.8823 33.7664 73.2038 33.5802C75.5752 32.2558 78.1004 31.4611 80.6889 30.6694C80.8941 30.6019 81.0992 30.5344 81.3106 30.4648C81.5507 30.3946 81.7908 30.3244 82.0382 30.2521C82.8993 29.8038 83.0036 29.4209 83.3158 28.5134C83.4169 28.2344 83.5181 27.9554 83.6223 27.6679C83.7228 27.3754 83.8233 27.0829 83.9268 26.7815C85.1636 23.2065 85.1636 23.2065 86.543 22.4785C88.1643 22.0724 89.8049 22.1524 91.4656 22.1515Z" fill="url(#paint0_linear_45_358)"/>
<path d="M89.2969 88.0215C89.2969 107.47 89.2969 126.918 89.2969 146.955C75.2106 146.955 61.1244 146.955 46.6113 146.955C46.6113 133.687 46.6113 120.418 46.6113 106.748C48.7552 106.136 48.7552 106.136 49.7891 105.92C58.2314 104.085 65.7186 100.45 72.0183 94.5007C76.8955 90.0055 82.7262 88.0215 89.2969 88.0215ZM80.4308 96.0383C79.8346 96.9924 79.7946 97.5336 79.7919 98.6526C79.789 98.9211 79.789 98.9211 79.7861 99.1951C79.781 99.7928 79.7839 100.39 79.7867 100.988C79.7847 101.417 79.7823 101.847 79.7795 102.276C79.7733 103.441 79.7741 104.605 79.7766 105.77C79.778 106.743 79.776 107.715 79.7739 108.688C79.7693 110.982 79.7702 113.276 79.7749 115.57C79.7795 117.937 79.7752 120.303 79.7663 122.67C79.7589 124.703 79.7569 126.735 79.7592 128.767C79.7606 129.981 79.76 131.195 79.7543 132.408C79.7493 133.55 79.7509 134.69 79.7577 135.832C79.7591 136.25 79.7581 136.669 79.7546 137.087C79.7502 137.659 79.7544 138.231 79.7606 138.802C79.7608 139.122 79.7609 139.442 79.7611 139.772C79.9869 140.884 80.4359 141.298 81.3105 141.998C82.1486 142.205 82.1486 142.205 82.9629 141.998C83.597 141.484 83.9758 141.074 84.3398 140.346C84.3675 139.78 84.3771 139.214 84.3785 138.647C84.3801 138.285 84.3817 137.922 84.3833 137.549C84.3836 137.144 84.3839 136.74 84.3842 136.336C84.3855 135.912 84.3869 135.488 84.3884 135.065C84.392 133.911 84.3938 132.758 84.395 131.605C84.3958 130.884 84.3969 130.164 84.3981 129.444C84.4019 127.191 84.4046 124.938 84.4056 122.685C84.4069 120.083 84.4117 117.481 84.4197 114.879C84.4256 112.869 84.4284 110.859 84.4288 108.849C84.4291 107.647 84.4307 106.446 84.4356 105.245C84.4401 104.115 84.4407 102.985 84.4383 101.855C84.4381 101.441 84.4393 101.026 84.442 100.612C84.4455 100.045 84.4439 99.479 84.441 98.9127C84.4415 98.5958 84.4419 98.279 84.4423 97.9525C84.3277 97.0091 84.0776 96.4904 83.5137 95.7324C82.3927 95.1719 81.3419 95.162 80.4308 96.0383ZM70.8457 103.168C70.4918 103.876 70.5324 104.384 70.5279 105.177C70.5256 105.486 70.5232 105.795 70.5208 106.114C70.5196 106.455 70.5184 106.796 70.5172 107.147C70.5149 107.505 70.5127 107.863 70.5104 108.231C70.5032 109.42 70.4989 110.608 70.495 111.797C70.4935 112.206 70.4921 112.615 70.4906 113.023C70.4846 114.725 70.4795 116.426 70.4764 118.127C70.4719 120.566 70.4627 123.004 70.4471 125.443C70.4364 127.157 70.431 128.872 70.4296 130.586C70.4285 131.61 70.4252 132.634 70.4163 133.658C70.4065 134.801 70.4076 135.943 70.4096 137.086C70.4051 137.425 70.4006 137.764 70.3959 138.114C70.3499 139.968 70.3499 139.968 71.2161 141.521C72.113 142.106 72.549 142.199 73.5996 141.998C74.2338 141.484 74.6126 141.074 74.9766 140.346C75.004 139.871 75.0138 139.395 75.0152 138.919C75.0168 138.617 75.0184 138.315 75.02 138.003C75.0203 137.67 75.0206 137.337 75.0209 136.993C75.0223 136.644 75.0237 136.294 75.0251 135.934C75.0287 134.972 75.0305 134.011 75.0317 133.05C75.0325 132.45 75.0336 131.85 75.0349 131.249C75.0386 129.371 75.0413 127.493 75.0424 125.615C75.0436 123.446 75.0484 121.278 75.0564 119.11C75.0623 117.434 75.0651 115.758 75.0655 114.082C75.0658 113.081 75.0674 112.08 75.0723 111.079C75.0777 109.963 75.0765 108.846 75.0747 107.729C75.0773 107.397 75.0798 107.066 75.0824 106.724C75.0809 106.42 75.0793 106.115 75.0778 105.801C75.0784 105.405 75.0784 105.405 75.079 105.001C74.9554 104.118 74.6739 103.609 74.1504 102.893C72.8234 102.008 72.0701 102.308 70.8457 103.168ZM61.4824 107.85C61.1485 108.517 61.1695 108.946 61.1646 109.693C61.1623 109.965 61.1599 110.238 61.1575 110.519C61.1563 110.819 61.1551 111.119 61.1539 111.428C61.1517 111.744 61.1494 112.059 61.1471 112.384C61.1402 113.431 61.1357 114.477 61.1317 115.524C61.1303 115.881 61.1288 116.237 61.1273 116.605C61.1214 118.103 61.1162 119.601 61.1131 121.099C61.1086 123.247 61.0995 125.395 61.0838 127.543C61.0718 129.235 61.0674 130.927 61.0657 132.618C61.0638 133.339 61.0596 134.059 61.053 134.779C61.0444 135.785 61.0443 136.791 61.0463 137.797C61.0418 138.096 61.0373 138.395 61.0327 138.703C61.0156 140.315 61.0156 140.315 61.8528 141.632C62.7456 142.079 63.2512 142.166 64.2363 141.998C65.0206 141.383 65.2966 141.02 65.6133 140.07C65.6401 139.648 65.6516 139.224 65.6538 138.801C65.6558 138.54 65.6578 138.279 65.6598 138.011C65.6605 137.726 65.6613 137.44 65.662 137.146C65.6638 136.845 65.6656 136.544 65.6675 136.234C65.6729 135.236 65.6762 134.238 65.6789 133.24C65.68 132.9 65.6811 132.559 65.6823 132.209C65.6875 130.593 65.6915 128.977 65.6938 127.361C65.6965 125.497 65.7037 123.634 65.7148 121.77C65.7241 120.155 65.7274 118.539 65.7285 116.923C65.7299 116.237 65.7331 115.55 65.7382 114.864C65.7449 113.903 65.7446 112.943 65.7427 111.982C65.7462 111.699 65.7498 111.415 65.7534 111.122C65.7416 109.495 65.6219 108.525 64.5117 107.299C63.2246 106.833 62.5522 107.024 61.4824 107.85ZM51.8438 110.604C51.5898 111.365 51.5328 111.821 51.5297 112.607C51.5281 112.847 51.5265 113.087 51.5249 113.335C51.5246 113.597 51.5243 113.86 51.524 114.131C51.5226 114.408 51.5213 114.685 51.5198 114.971C51.5158 115.89 51.5139 116.808 51.5124 117.727C51.5108 118.365 51.5093 119.002 51.5077 119.64C51.5048 120.978 51.5032 122.315 51.5022 123.653C51.5007 125.368 51.4941 127.082 51.4862 128.797C51.4811 130.115 51.4797 131.432 51.4793 132.749C51.4784 133.381 51.4762 134.014 51.4726 134.646C51.4679 135.53 51.4684 136.414 51.4702 137.298C51.4677 137.56 51.4651 137.821 51.4625 138.091C51.4733 139.791 51.7097 140.762 52.9453 141.998C53.9913 142.138 54.4683 142.079 55.3722 141.516C56.2468 140.617 56.2841 139.825 56.2868 138.605C56.288 138.369 56.2892 138.134 56.2904 137.891C56.2902 137.506 56.2902 137.506 56.29 137.113C56.2909 136.841 56.2919 136.569 56.2928 136.289C56.2954 135.39 56.296 134.49 56.2963 133.591C56.2971 132.966 56.2981 132.341 56.299 131.716C56.3007 130.406 56.3012 129.096 56.301 127.786C56.301 126.107 56.3048 124.428 56.3095 122.748C56.3126 121.458 56.3131 120.167 56.313 118.877C56.3133 118.257 56.3145 117.638 56.3167 117.019C56.3193 116.154 56.3186 115.288 56.3169 114.422C56.3192 114.039 56.3192 114.039 56.3216 113.647C56.3144 112.167 56.2981 110.948 55.2173 109.829C53.7911 109.076 52.8039 109.359 51.8438 110.604Z" fill="#1A4C6D"/>
<path d="M93.7031 88.0215C101.25 88.0215 106.848 90.6478 112.309 95.8185C118.332 101.279 125.951 104.362 133.794 106.039C134.667 106.246 135.527 106.502 136.389 106.748C136.389 120.016 136.389 133.285 136.389 146.955C122.302 146.955 108.216 146.955 93.7031 146.955C93.7031 127.507 93.7031 108.059 93.7031 88.0215ZM98.9355 96.2832C98.6309 97.1972 98.624 97.8779 98.6215 98.8409C98.6199 99.2038 98.6183 99.5668 98.6167 99.9407C98.6164 100.344 98.6161 100.747 98.6158 101.15C98.6145 101.574 98.6131 101.998 98.6116 102.422C98.608 103.574 98.6062 104.726 98.605 105.878C98.6042 106.598 98.6031 107.318 98.6019 108.038C98.5981 110.289 98.5954 112.54 98.5944 114.792C98.5931 117.391 98.5883 119.991 98.5803 122.591C98.5744 124.6 98.5716 126.609 98.5712 128.618C98.5709 129.818 98.5693 131.018 98.5644 132.218C98.5599 133.347 98.5593 134.476 98.5617 135.605C98.5619 136.019 98.5607 136.433 98.558 136.847C98.5545 137.413 98.5561 137.979 98.559 138.544C98.5585 138.861 98.5581 139.177 98.5577 139.503C98.6724 140.446 98.9227 140.965 99.4863 141.723C100.282 142.12 100.807 142.102 101.689 141.998C102.568 141.301 103.013 140.885 103.239 139.772C103.239 139.452 103.239 139.132 103.239 138.802C103.241 138.623 103.243 138.444 103.245 138.26C103.25 137.662 103.245 137.065 103.24 136.467C103.242 136.038 103.244 135.608 103.246 135.179C103.251 134.014 103.248 132.85 103.242 131.685C103.238 130.466 103.24 129.246 103.242 128.027C103.243 125.98 103.238 123.932 103.231 121.885C103.222 119.518 103.222 117.152 103.227 114.785C103.231 112.508 103.229 110.231 103.225 107.953C103.223 106.984 103.223 106.016 103.225 105.047C103.227 103.906 103.224 102.765 103.216 101.624C103.214 101.205 103.214 100.786 103.216 100.368C103.219 99.7958 103.214 99.2244 103.208 98.6526C103.207 98.3328 103.207 98.0129 103.206 97.6834C103.036 96.6463 102.715 96.1836 101.965 95.457C100.679 95.2733 99.8557 95.3276 98.9355 96.2832ZM108.901 102.824C108 103.751 107.989 104.491 107.987 105.731C107.985 106.034 107.984 106.337 107.983 106.65C107.983 106.982 107.983 107.315 107.983 107.658C107.983 108.008 107.982 108.358 107.981 108.719C107.978 109.68 107.978 110.641 107.977 111.602C107.977 112.404 107.976 113.206 107.975 114.008C107.973 115.9 107.972 117.793 107.972 119.685C107.973 121.637 107.97 123.59 107.965 125.542C107.962 127.218 107.96 128.894 107.96 130.57C107.96 131.571 107.96 132.572 107.957 133.573C107.954 134.69 107.955 135.806 107.957 136.922C107.955 137.254 107.953 137.586 107.952 137.928C107.953 138.232 107.954 138.536 107.955 138.849C107.955 139.113 107.955 139.377 107.955 139.649C108.028 140.392 108.166 140.825 108.574 141.447C109.543 142.093 109.912 142.158 111.053 141.998C111.754 141.542 112.035 141.332 112.43 140.621C112.638 139.447 112.615 138.284 112.603 137.095C112.605 136.736 112.607 136.378 112.609 136.009C112.615 135.028 112.611 134.047 112.606 133.066C112.601 132.039 112.603 131.012 112.605 129.985C112.606 128.26 112.602 126.536 112.594 124.811C112.585 122.818 112.585 120.825 112.59 118.831C112.594 116.913 112.593 114.994 112.588 113.076C112.586 112.26 112.586 111.443 112.588 110.627C112.591 109.488 112.584 108.349 112.577 107.209C112.578 106.871 112.58 106.532 112.582 106.182C112.579 105.872 112.575 105.562 112.571 105.243C112.571 104.974 112.57 104.704 112.569 104.427C112.389 103.514 112.047 103.191 111.328 102.617C110.25 102.25 109.88 102.215 108.901 102.824ZM117.938 107.85C117.427 108.672 117.317 109.296 117.315 110.256C117.313 110.517 117.311 110.779 117.309 111.048C117.31 111.333 117.31 111.618 117.311 111.911C117.31 112.212 117.308 112.514 117.307 112.825C117.303 113.822 117.303 114.82 117.304 115.818C117.303 116.51 117.302 117.203 117.3 117.896C117.298 119.349 117.298 120.801 117.3 122.254C117.301 123.932 117.298 125.61 117.292 127.288C117.287 128.904 117.286 130.519 117.287 132.135C117.287 132.822 117.285 133.508 117.283 134.195C117.279 135.155 117.281 136.115 117.284 137.075C117.282 137.359 117.28 137.643 117.278 137.936C117.291 139.702 117.479 140.714 118.764 141.998C119.726 142.126 120.276 142.067 121.148 141.634C122.164 140.472 121.983 139.301 121.967 137.806C121.969 137.491 121.971 137.175 121.973 136.85C121.977 135.806 121.972 134.763 121.966 133.719C121.966 132.995 121.967 132.27 121.968 131.546C121.969 130.027 121.965 128.509 121.957 126.99C121.949 125.235 121.949 123.48 121.953 121.725C121.958 120.035 121.956 118.346 121.951 116.657C121.95 115.938 121.95 115.22 121.952 114.501C121.953 113.498 121.947 112.495 121.94 111.491C121.942 111.193 121.943 110.895 121.945 110.587C121.953 109.028 121.953 109.028 121.275 107.673C119.963 106.832 119.167 106.886 117.938 107.85ZM127.473 109.984C126.797 110.92 126.716 111.759 126.713 112.895C126.712 113.131 126.711 113.366 126.71 113.609C126.71 113.866 126.71 114.123 126.71 114.387C126.709 114.659 126.708 114.931 126.707 115.211C126.705 116.11 126.704 117.01 126.704 117.909C126.703 118.534 126.702 119.159 126.701 119.784C126.699 121.094 126.699 122.404 126.699 123.714C126.699 125.393 126.695 127.072 126.69 128.752C126.687 130.042 126.687 131.333 126.687 132.623C126.687 133.243 126.685 133.862 126.683 134.481C126.681 135.346 126.681 136.212 126.683 137.078C126.681 137.461 126.681 137.461 126.678 137.853C126.686 139.333 126.702 140.552 127.783 141.671C128.612 142.109 129.129 142.133 130.055 141.998C130.839 141.383 131.115 141.02 131.432 140.07C131.458 139.678 131.469 139.286 131.47 138.893C131.472 138.653 131.473 138.413 131.475 138.165C131.475 137.903 131.476 137.64 131.476 137.369C131.477 137.092 131.479 136.815 131.48 136.529C131.484 135.61 131.486 134.692 131.488 133.773C131.489 133.135 131.491 132.498 131.492 131.86C131.495 130.522 131.497 129.185 131.498 127.847C131.499 126.132 131.506 124.418 131.514 122.703C131.519 121.385 131.52 120.068 131.521 118.751C131.522 118.119 131.524 117.486 131.527 116.854C131.532 115.97 131.532 115.086 131.53 114.202C131.532 113.94 131.535 113.679 131.537 113.409C131.527 111.709 131.29 110.738 130.055 109.502C128.969 109.381 128.368 109.324 127.473 109.984Z" fill="#1A4C6D"/>
<path d="M29.7028 151.325C30.0272 151.324 30.0272 151.324 30.3582 151.323C31.089 151.322 31.8197 151.322 32.5505 151.323C33.0773 151.322 33.6041 151.321 34.1309 151.32C35.5833 151.318 37.0357 151.317 38.4881 151.317C40.0526 151.317 41.6171 151.315 43.1816 151.313C46.6046 151.309 50.0276 151.307 53.4505 151.306C55.5864 151.305 57.7223 151.304 59.8583 151.303C65.7681 151.3 71.6779 151.297 77.5877 151.296C77.9699 151.296 78.3522 151.296 78.7344 151.296C79.1176 151.296 79.5007 151.296 79.8839 151.296C80.6526 151.295 81.4214 151.295 82.1901 151.295C82.3807 151.295 82.5713 151.295 82.7677 151.295C88.9501 151.294 95.1326 151.29 101.315 151.283C107.849 151.277 114.383 151.273 120.917 151.272C124.48 151.272 128.043 151.271 131.606 151.266C134.639 151.261 137.672 151.26 140.705 151.262C142.254 151.263 143.802 151.263 145.35 151.259C146.767 151.256 148.183 151.256 149.6 151.259C150.113 151.26 150.627 151.259 151.14 151.257C151.836 151.254 152.532 151.256 153.228 151.259C153.53 151.256 153.53 151.256 153.837 151.253C155.374 151.268 156.244 151.664 157.318 152.738C157.411 153.296 157.411 153.296 157.422 153.943C157.429 154.155 157.437 154.368 157.445 154.586C157.264 155.484 156.942 155.762 156.217 156.318C155.462 156.426 154.817 156.467 154.063 156.457C153.843 156.459 153.624 156.46 153.398 156.462C152.658 156.466 151.918 156.462 151.178 156.458C150.644 156.46 150.11 156.461 149.576 156.463C148.105 156.468 146.634 156.466 145.162 156.462C143.577 156.46 141.992 156.464 140.407 156.467C137.3 156.472 134.193 156.471 131.087 156.467C128.563 156.465 126.038 156.465 123.514 156.466C123.156 156.466 122.797 156.466 122.427 156.466C121.698 156.467 120.97 156.467 120.241 156.467C113.597 156.47 106.953 156.467 100.309 156.461C94.2414 156.456 88.1736 156.457 82.1058 156.462C75.2918 156.468 68.4779 156.47 61.6639 156.467C60.9378 156.466 60.2117 156.466 59.4856 156.466C59.1283 156.466 58.771 156.465 58.4029 156.465C55.8808 156.464 53.3587 156.466 50.8365 156.468C47.7644 156.472 44.6923 156.471 41.6202 156.465C40.0516 156.462 38.4832 156.461 36.9146 156.464C35.4803 156.468 34.046 156.466 32.6116 156.46C32.0913 156.459 31.5709 156.46 31.0505 156.462C30.3459 156.466 29.6416 156.462 28.9371 156.457C28.7326 156.46 28.5282 156.462 28.3175 156.465C27.3675 156.451 26.8694 156.385 26.1069 155.797C25.4851 154.949 25.5277 154.344 25.573 153.323C25.6816 152.738 25.6816 152.738 26.1808 152.05C27.3148 151.272 28.3813 151.322 29.7028 151.325Z" fill="#40404B"/>
<path d="M140.795 99.8633C143.976 99.8633 147.156 99.8633 150.434 99.8633C150.434 115.404 150.434 130.944 150.434 146.955C147.253 146.955 144.072 146.955 140.795 146.955C140.795 131.415 140.795 115.874 140.795 99.8633Z" fill="#40404B"/>
<path d="M32.5664 99.8633C35.7472 99.8633 38.9279 99.8633 42.2051 99.8633C42.2051 115.404 42.2051 130.944 42.2051 146.955C39.0243 146.955 35.8436 146.955 32.5664 146.955C32.5664 131.415 32.5664 115.874 32.5664 99.8633Z" fill="#40404B"/>
<path d="M80.8802 60.4652C82.7181 61.5341 83.9379 63.0967 84.4997 65.1446C84.7169 66.2174 84.7049 67.2937 84.7077 68.3848C84.7095 68.6356 84.7113 68.8863 84.7132 69.1446C84.716 69.6719 84.7173 70.1991 84.7172 70.7263C84.7184 71.532 84.7285 72.3373 84.7389 73.1429C84.7405 73.6567 84.7416 74.1705 84.7421 74.6844C84.7461 74.9242 84.75 75.1641 84.7541 75.4112C84.7455 76.549 84.7088 77.1323 84.0897 78.1168C83.335 78.8261 82.8806 78.9444 81.872 78.9992C81.0939 78.9083 80.5178 78.6308 79.9486 78.0924C79.3121 76.9183 79.5733 75.5387 79.6581 74.2519C78.2041 74.2519 76.75 74.2519 75.2519 74.2519C75.2689 74.6779 75.286 75.1039 75.3035 75.5428C75.3019 76.7214 75.2289 77.4648 74.4257 78.3828C73.6893 78.9614 73.3124 78.9332 72.3603 78.8992C71.2511 78.6219 70.9508 78.482 70.2949 77.5566C70.1262 76.6504 70.134 75.7547 70.1389 74.835C70.1372 74.568 70.1355 74.301 70.1337 74.026C70.1317 73.4607 70.1326 72.8954 70.1361 72.3301C70.1399 71.4723 70.1306 70.6153 70.12 69.7575C70.1198 69.2067 70.1203 68.6559 70.1217 68.1051C70.1162 67.725 70.1162 67.725 70.1106 67.3373C70.1413 65.1648 70.8372 63.4136 72.2301 61.7389C72.4037 61.5969 72.5773 61.4549 72.7562 61.3086C72.929 61.1609 73.1019 61.0132 73.28 60.8611C75.461 59.4728 78.5473 59.4291 80.8802 60.4652ZM75.8371 65.3878C74.9588 66.7053 75.1577 67.7312 75.2519 69.2949C76.7059 69.2949 78.16 69.2949 79.6581 69.2949C79.8172 67.0736 79.8172 67.0736 78.832 65.1641C77.7093 64.6027 76.8808 64.7299 75.8371 65.3878Z" fill="black"/>
<path d="M92.1228 59.7488C92.4539 59.747 92.7849 59.7452 93.126 59.7434C93.6417 59.7514 93.6417 59.7514 94.1678 59.7595C94.5063 59.7542 94.8448 59.7489 95.1936 59.7434C97.5971 59.7562 99.5582 60.1362 101.387 61.7793C102.853 63.3108 103.378 64.9679 103.479 67.0574C103.411 69.3308 102.569 71.0177 100.932 72.5824C98.7817 74.2835 96.646 74.3738 93.9785 74.2519C93.9913 74.4546 94.0041 74.6574 94.0172 74.8662C94.0991 77.0802 94.0991 77.0802 93.4621 78.1418C92.7653 78.7567 92.4774 78.9168 91.5516 79.0196C90.4726 78.9139 90.0644 78.5776 89.2969 77.832C88.9382 77.1146 88.9786 76.5777 88.9684 75.7743C88.9639 75.459 88.9595 75.1437 88.9549 74.8189C88.9427 73.3763 88.9313 71.9337 88.9251 70.4911C88.9214 69.7294 88.9137 68.968 88.9025 68.2065C88.8863 67.1102 88.8814 66.0141 88.8773 64.9177C88.8711 64.5772 88.8648 64.2366 88.8584 63.8857C88.8642 61.5494 88.8642 61.5494 89.6112 60.406C90.5264 59.8545 91.0585 59.7543 92.1228 59.7488ZM93.9785 64.8887C93.9785 66.3427 93.9785 67.7968 93.9785 69.2949C96.0532 69.4253 96.0532 69.4253 97.834 68.4687C98.4798 67.6742 98.4798 67.6742 98.3503 66.6787C98.1993 65.7252 98.1993 65.7252 97.6425 65.2447C96.8488 64.7995 96.3281 64.8047 95.4243 64.837C94.9472 64.8541 94.4701 64.8711 93.9785 64.8887Z" fill="black"/>
<path d="M111.328 59.9316C112.019 60.3851 112.308 60.6058 112.705 61.3086C112.914 62.5236 112.891 63.7284 112.878 64.9586C112.879 65.3147 112.88 65.6708 112.88 66.0376C112.881 66.7898 112.877 67.5417 112.87 68.2939C112.86 69.2567 112.862 70.2192 112.867 71.1821C112.871 72.1025 112.866 73.0228 112.861 73.9432C112.862 74.2886 112.864 74.634 112.865 74.9899C112.861 75.3107 112.857 75.6314 112.852 75.9619C112.85 76.244 112.849 76.526 112.847 76.8166C112.667 77.7555 112.35 78.0774 111.604 78.6582C110.529 78.9513 109.935 79.043 108.901 78.6066C108.074 77.9208 107.785 77.3704 107.676 76.2972C107.675 76.0298 107.674 75.7624 107.672 75.487C107.67 75.1827 107.667 74.8785 107.665 74.5651C107.665 74.2377 107.665 73.9104 107.665 73.5732C107.664 73.2357 107.663 72.8982 107.662 72.5505C107.66 71.8368 107.66 71.1231 107.661 70.4095C107.662 69.3173 107.656 68.2253 107.649 67.1332C107.648 66.4399 107.648 65.7466 107.648 65.0533C107.646 64.7265 107.643 64.3997 107.64 64.063C107.642 63.7579 107.644 63.4528 107.646 63.1385C107.645 62.8709 107.645 62.6033 107.645 62.3276C107.767 61.4449 108.054 60.9247 108.574 60.207C109.444 59.7722 110.394 59.706 111.328 59.9316Z" fill="black"/>
<path d="M148.469 86.3713C149.558 87.1894 150.043 88.1184 150.434 89.3984C150.626 91.1292 150.364 92.3807 149.332 93.8047C148.321 94.8388 147.232 95.4016 145.782 95.4915C144.423 95.4109 143.231 95.0915 142.209 94.1651C140.894 92.6589 140.698 91.6714 140.718 89.6695C140.853 88.2365 141.54 87.5419 142.533 86.5757C144.44 85.334 146.467 85.2905 148.469 86.3713Z" fill="#40404B"/>
<path d="M41.266 87.2964C42.3482 88.5495 42.3215 89.7467 42.2923 91.3498C42.1394 92.7576 41.4509 93.4475 40.5012 94.4243C39.1299 95.2776 37.6946 95.6239 36.0949 95.3021C34.5881 94.8278 33.6528 93.9889 32.8763 92.6171C32.3854 91.0079 32.3284 89.778 32.9968 88.2452C33.7829 86.8341 34.8662 86.0563 36.3875 85.5602C38.3838 85.5203 39.7779 85.9526 41.266 87.2964Z" fill="#40404B"/>
<path d="M148.131 156.297C150.84 154.568 154.326 154.568 157.035 156.297L197.74 182.269C199.198 183.199 199.198 185.301 197.74 186.231L157.035 212.203C154.326 213.932 150.84 213.932 148.131 212.203L107.427 186.231C105.968 185.301 105.968 183.199 107.427 182.269L148.131 156.297Z" stroke="#1D2028" stroke-linecap="round"/>
<path d="M147.576 133.274C150.624 131.353 154.543 131.353 157.59 133.274L200.761 160.483C202.635 161.664 202.635 164.336 200.761 165.517L157.59 192.726C154.543 194.647 150.624 194.647 147.576 192.726L104.405 165.517C102.532 164.336 102.532 161.664 104.405 160.483L147.576 133.274Z" fill="#1A4C6D"/>
<path d="M104.446 158.952L126.648 144.729L148.85 130.506C151.985 128.498 156.016 128.498 159.15 130.506L182.334 144.583M156.317 195.494C153.183 197.502 149.151 197.502 146.017 195.494L123.815 181.271" stroke="#1D2028" stroke-linecap="round"/>
<defs>
<linearGradient id="paint0_linear_45_358" x1="91.5" y1="22.1403" x2="91.5" y2="99.8633" gradientUnits="userSpaceOnUse">
<stop stop-color="#1A4C6D"/>
<stop offset="1" stop-color="#179C69"/>
</linearGradient>
</defs>
</svg>
