<svg width="56" height="56" viewBox="0 0 56 56" fill="none" xmlns="http://www.w3.org/2000/svg">
<g clip-path="url(#clip0_155_8916)">
<path d="M0 21.5C0 19.2909 1.79086 17.5 4 17.5H11.4216C11.952 17.5 12.4607 17.7107 12.8358 18.0858L18.3713 23.6213C18.9339 24.1839 19.697 24.5 20.4926 24.5H45C47.2091 24.5 49 26.2909 49 28.5V52C49 54.2091 47.2091 56 45 56H4C1.79086 56 0 54.2091 0 52V21.5Z" fill="#E0E8ED"/>
<path d="M15.6178 37.6887C15.7434 37.2944 16.1657 37.0763 16.5601 37.2014C16.9547 37.327 17.1728 37.7492 17.0474 38.1438L12.9644 50.9768C12.8388 51.3715 12.4168 51.5897 12.022 51.4641C11.6277 51.3383 11.4092 50.9162 11.5347 50.5217L15.6178 37.6887ZM8.21931 39.72C8.51215 39.4271 8.98696 39.4272 9.27986 39.72C9.57266 40.0129 9.57272 40.4877 9.27986 40.7805L5.72615 44.3333L9.27986 47.887C9.57266 48.1799 9.57272 48.6546 9.27986 48.9475C8.98697 49.24 8.51208 49.2402 8.21931 48.9475L4.48982 45.217C4.0019 44.7289 4.00182 43.9376 4.48982 43.4495L8.21931 39.72ZM19.3033 39.719C19.5962 39.4267 20.0711 39.4265 20.3638 39.719L24.0933 43.4495C24.5812 43.9376 24.5812 44.7289 24.0933 45.217L20.3638 48.9465C20.071 49.2394 19.5962 49.2393 19.3033 48.9465C19.0106 48.6536 19.0105 48.1788 19.3033 47.886L22.857 44.3333L19.3033 40.7795C19.0106 40.4866 19.0105 40.0118 19.3033 39.719Z" fill="#407893"/>
<mask id="path-3-inside-1_155_8916" fill="white">
<path d="M43.4738 2.61638C46.2074 -0.117294 50.6396 -0.117296 53.3733 2.61637C56.1069 5.35004 56.1069 9.7822 53.3733 12.5159L33.6578 32.2313C32.9474 32.9418 31.9956 33.3588 30.9917 33.3996L23.3182 33.7112C22.7344 33.7349 22.2547 33.2552 22.2784 32.6714L22.6059 24.6076C22.6365 23.8547 22.9493 23.1409 23.4821 22.608L43.4738 2.61638Z"/>
</mask>
<path d="M23.3182 33.7112L23.9674 49.698L23.3182 33.7112ZM22.2784 32.6714L6.2916 32.0222L22.2784 32.6714ZM22.6059 24.6076L6.61906 23.9584L22.6059 24.6076ZM30.9917 33.3996L30.3425 17.4128L30.3425 17.4128L30.9917 33.3996ZM53.3733 12.5159L42.0595 1.20216L22.3441 20.9176L33.6578 32.2313L44.9715 43.545L64.687 23.8296L53.3733 12.5159ZM23.4821 22.608L34.7958 33.9217L54.7875 13.9301L43.4738 2.61638L32.16 -8.69733L12.1684 11.2943L23.4821 22.608ZM30.9917 33.3996L30.3425 17.4128L22.669 17.7244L23.3182 33.7112L23.9674 49.698L31.6409 49.3864L30.9917 33.3996ZM22.2784 32.6714L38.2653 33.3206L38.5927 25.2568L22.6059 24.6076L6.61906 23.9584L6.2916 32.0222L22.2784 32.6714ZM23.3182 33.7112L22.669 17.7244C31.4256 17.3688 38.6208 24.564 38.2653 33.3206L22.2784 32.6714L6.2916 32.0222C5.8886 41.9464 14.0432 50.101 23.9674 49.698L23.3182 33.7112ZM23.4821 22.608L12.1684 11.2943C8.79378 14.6689 6.8127 19.1899 6.61906 23.9584L22.6059 24.6076L38.5927 25.2568C38.4602 28.5195 37.1047 31.6128 34.7958 33.9217L23.4821 22.608ZM33.6578 32.2313L22.3441 20.9176C24.4754 18.7863 27.3308 17.5351 30.3425 17.4128L30.9917 33.3996L31.6409 49.3864C36.6604 49.1826 41.4193 47.0972 44.9715 43.545L33.6578 32.2313ZM53.3733 2.61637L42.0595 13.9301C38.5448 10.4154 38.5448 4.71688 42.0595 1.20216L53.3733 12.5159L64.687 23.8296C73.669 14.8475 73.669 0.284722 64.687 -8.69733L53.3733 2.61637ZM53.3733 2.61637L64.687 -8.69733C55.7049 -17.6794 41.1421 -17.6794 32.16 -8.69733L43.4738 2.61638L54.7875 13.9301C51.2728 17.4448 45.5743 17.4448 42.0595 13.9301L53.3733 2.61637Z" fill="url(#paint0_linear_155_8916)" mask="url(#path-3-inside-1_155_8916)"/>
</g>
<defs>
<linearGradient id="paint0_linear_155_8916" x1="53.3733" y1="2.61637" x2="22.2344" y2="33.7552" gradientUnits="userSpaceOnUse">
<stop stop-color="#3C849B"/>
<stop offset="1" stop-color="#85D3BB"/>
</linearGradient>
<clipPath id="clip0_155_8916">
<rect width="56" height="56" fill="white"/>
</clipPath>
</defs>
</svg>
