<svg width="56" height="56" viewBox="0 0 56 56" fill="none" xmlns="http://www.w3.org/2000/svg">
<path d="M28 10.5V3.49996M28 3.49996L33.25 2.91663M28 3.49996L22.75 4.08329" stroke="#40404B" stroke-width="1.5" stroke-linecap="round"/>
<path d="M4.66667 22.1981C4.66667 17.4313 8.03127 13.3271 12.7055 12.3923L18.1942 11.2945C24.6673 9.99991 31.3327 9.99991 37.8058 11.2945L43.2945 12.3923C47.9687 13.3271 51.3333 17.4313 51.3333 22.1981V41.9687C51.3333 46.7355 47.9687 50.8396 43.2945 51.7745L37.8058 52.8722C31.3327 54.1668 24.6673 54.1668 18.1942 52.8722L12.7055 51.7745C8.03127 50.8396 4.66667 46.7355 4.66667 41.9687V22.1981Z" fill="#E0E8ED"/>
<path d="M8.16667 24.5175C8.16667 20.2933 11.0951 16.6335 15.2164 15.7071C23.6338 13.8149 32.3662 13.8149 40.7836 15.7071C44.9049 16.6335 47.8333 20.2933 47.8333 24.5175V27.9826C47.8333 32.2068 44.9049 35.8665 40.7836 36.793C32.3662 38.6852 23.6338 38.6852 15.2164 36.793C11.0951 35.8665 8.16667 32.2068 8.16667 27.9826V24.5175Z" fill="url(#paint0_linear_155_8928)"/>
<rect x="17.5" y="22.1666" width="4.66667" height="7" rx="2.33333" fill="white"/>
<rect x="33.8333" y="22.1666" width="4.66667" height="7" rx="2.33333" fill="white"/>
<path d="M21.0126 46.3256C24.555 47.5011 32.6225 49.0298 36.5536 45.7406" stroke="#40404B" stroke-width="1.5" stroke-linecap="round"/>
<defs>
<linearGradient id="paint0_linear_155_8928" x1="28" y1="12.8334" x2="28" y2="39.6667" gradientUnits="userSpaceOnUse">
<stop stop-color="#31779B"/>
<stop offset="1" stop-color="#66B59D"/>
</linearGradient>
</defs>
</svg>
