<svg width="56" height="56" viewBox="0 0 56 56" fill="none" xmlns="http://www.w3.org/2000/svg">
<g clip-path="url(#clip0_155_8903)">
<rect y="9.33337" width="46.6667" height="46.6667" rx="23.3333" fill="#E0E8ED"/>
<path d="M36.4318 35.6661C35.3129 35.14 34.5365 33.9961 34.5365 32.6693C34.5365 31.3425 35.3129 30.1987 36.4547 29.6726C37.1397 29.3523 37.5051 28.6202 37.2539 27.911C37.0483 27.2934 36.7972 26.6986 36.5003 26.1267C36.1806 25.4633 35.4042 25.1887 34.6964 25.4404C33.5546 25.8293 32.2302 25.5777 31.3168 24.6626C30.4034 23.7476 30.1294 22.4207 30.5404 21.2769C30.7688 20.5906 30.5176 19.8128 29.8554 19.4926C29.2617 19.1952 28.6451 18.9435 28.0514 18.7376C27.3664 18.5089 26.6357 18.852 26.2931 19.4926C25.7451 20.5449 24.649 21.2541 23.3703 21.2541C22.0915 21.2541 20.9955 20.5449 20.4474 19.4926C20.1049 18.852 19.3742 18.5089 18.6891 18.7376C18.0954 18.9435 17.5017 19.1723 16.9308 19.4697C16.2914 19.7899 15.9717 20.522 16.1772 21.2083C16.5198 22.3292 16.2457 23.6103 15.3552 24.4796C14.4646 25.3717 13.1859 25.6462 12.067 25.3031C11.3591 25.0972 10.6055 25.3946 10.263 26.058C9.98902 26.63 9.73787 27.2019 9.53233 27.7966C9.30398 28.4601 9.62366 29.1921 10.2402 29.5352C11.2678 30.0843 11.9756 31.1823 11.9756 32.4405C11.9756 33.7445 11.222 34.8654 10.1488 35.3916C9.50946 35.7118 9.18978 36.421 9.39526 37.0844C9.57794 37.6792 9.80629 38.274 10.0803 38.8459C10.4 39.5322 11.1992 39.8525 11.93 39.6466C13.0489 39.3034 14.3048 39.5779 15.1953 40.4472C16.1316 41.3852 16.3827 42.7348 15.9489 43.9015C15.6977 44.5649 15.9717 45.3198 16.5883 45.663C17.182 45.9833 17.7985 46.2349 18.4379 46.4637C19.1229 46.7153 19.8537 46.3721 20.1505 45.7087C20.6757 44.6106 21.8175 43.8329 23.119 43.8329C24.4434 43.8329 25.5852 44.6106 26.1104 45.7545C26.43 46.4407 27.1836 46.8296 27.8915 46.6009C28.508 46.395 29.1245 46.1663 29.6954 45.8689C30.3576 45.5486 30.6316 44.7708 30.3804 44.0845C29.9466 42.9179 30.1978 41.5453 31.134 40.6073C32.0703 39.6694 33.4632 39.4178 34.6278 39.8524C35.3356 40.1269 36.1349 39.8524 36.4774 39.1889C36.7743 38.617 37.0254 38.0223 37.231 37.4046C37.4593 36.7183 37.094 35.9635 36.4318 35.6661ZM23.3249 39.8067C19.3973 39.8067 16.2004 36.604 16.2004 32.6693C16.2004 28.7346 19.3973 25.5319 23.3249 25.5319C27.2525 25.5319 30.4493 28.7346 30.4493 32.6693C30.4493 36.604 27.2525 39.8067 23.3249 39.8067Z" fill="url(#paint0_linear_155_8903)"/>
<path d="M39.0635 10.6247C39.7628 10.2958 40.248 9.58092 40.248 8.75168C40.248 7.92245 39.7628 7.20753 39.0492 6.8787C38.621 6.67853 38.3927 6.22101 38.5497 5.77776C38.6781 5.39174 38.8351 5.01997 39.0207 4.66254C39.2205 4.2479 39.7057 4.07632 40.1481 4.23361C40.8617 4.47668 41.6895 4.3194 42.2603 3.74749C42.8312 3.17559 43.0025 2.34632 42.7456 1.63143C42.6029 1.2025 42.7598 0.716383 43.1737 0.516215C43.5448 0.330345 43.9301 0.173071 44.3012 0.044375C44.7293 -0.0986019 45.186 0.115863 45.4001 0.516215C45.7426 1.17391 46.4277 1.61715 47.2269 1.61715C48.0261 1.61715 48.7112 1.17394 49.0537 0.516215C49.2678 0.11588 49.7244 -0.0985692 50.1526 0.044375C50.5237 0.173054 50.8948 0.316031 51.2516 0.501901C51.6512 0.702069 51.851 1.15959 51.7226 1.58853C51.5085 2.28913 51.6797 3.0898 52.2363 3.63308C52.7929 4.19067 53.5921 4.36224 54.2915 4.14779C54.7339 4.01912 55.2049 4.20499 55.4189 4.61964C55.5902 4.97709 55.7472 5.33452 55.8756 5.70626C56.0183 6.12091 55.8185 6.57843 55.4332 6.79288C54.791 7.13603 54.3486 7.82232 54.3486 8.60867C54.3486 9.42366 54.8195 10.1242 55.4903 10.4531C55.8899 10.6533 56.0897 11.0965 55.9613 11.5111C55.8471 11.8829 55.7044 12.2546 55.5331 12.6121C55.3333 13.041 54.8338 13.2412 54.3771 13.1125C53.6778 12.898 52.8928 13.0696 52.3363 13.6129C51.7511 14.1991 51.5941 15.0426 51.8653 15.7718C52.0223 16.1864 51.851 16.6583 51.4657 16.8727C51.0946 17.0729 50.7092 17.2302 50.3096 17.3731C49.8815 17.5304 49.4248 17.3159 49.2393 16.9013C48.911 16.215 48.1974 15.7289 47.3839 15.7289C46.5562 15.7289 45.8426 16.215 45.5144 16.9299C45.3146 17.3588 44.8436 17.6019 44.4012 17.4589C44.0158 17.3302 43.6305 17.1873 43.2737 17.0014C42.8598 16.8012 42.6885 16.3151 42.8456 15.8862C43.1167 15.157 42.9597 14.2992 42.3746 13.7129C41.7894 13.1267 40.9188 12.9695 40.191 13.2411C39.7486 13.4127 39.249 13.2411 39.0349 12.8264C38.8494 12.469 38.6924 12.0973 38.564 11.7112C38.4212 11.2823 38.6496 10.8105 39.0635 10.6246V10.6247ZM47.2553 13.2126C49.71 13.2126 51.7081 11.2109 51.7081 8.75168C51.7081 6.29248 49.71 4.2908 47.2553 4.2908C44.8005 4.2908 42.8025 6.29248 42.8025 8.75168C42.8025 11.2109 44.8005 13.2126 47.2553 13.2126Z" fill="#407893"/>
<rect x="17.5" y="26.8334" width="11.6667" height="11.6667" rx="5.83333" fill="white"/>
<rect x="43.1667" y="4.66663" width="8.16666" height="8.16667" rx="4.08333" fill="white"/>
<path d="M47.25 8.75L23.3333 32.6667" stroke="#40404B" stroke-width="1.5" stroke-linecap="round"/>
</g>
<defs>
<linearGradient id="paint0_linear_155_8903" x1="23.3333" y1="18.6666" x2="23.3333" y2="46.6666" gradientUnits="userSpaceOnUse">
<stop stop-color="#86D5BD"/>
<stop offset="1" stop-color="#3B829B"/>
</linearGradient>
<clipPath id="clip0_155_8903">
<rect width="56" height="56" fill="white"/>
</clipPath>
</defs>
</svg>
