<svg width="220" height="220" viewBox="0 0 220 220" fill="none" xmlns="http://www.w3.org/2000/svg">
<g clip-path="url(#clip0_1356_10013)">
<path d="M171.214 29.5366C142.814 16.3366 117.714 34.2139 90.7141 54.0366C51.2141 83.0366 21.2141 79.0366 6.21407 107.037C-8.78593 135.037 6.00287 167.249 22.7141 179.537C39.7141 192.037 66.7141 195.037 94.2141 184.037C118.287 174.407 171.714 179.537 191.214 162.037C210.714 144.537 222.714 118.037 217.714 96.0366C212.714 74.0366 206.714 46.0366 171.214 29.5366Z" fill="white"/>
<path opacity="0.503674" d="M169.86 128H193.941C201.596 128 207.802 134.205 207.802 141.86C207.802 149.515 201.596 155.721 193.941 155.721H169.86C162.205 155.721 156 149.515 156 141.86C156 134.205 162.205 128 169.86 128Z" stroke="#C8CEF0" stroke-width="1.3444" stroke-linecap="round" stroke-linejoin="round"/>
<path opacity="0.503674" d="M24.16 49.0816L41.8987 66.7837C43.3646 68.2467 43.3671 70.6211 41.9041 72.087C41.9023 72.0889 41.9005 72.0907 41.8987 72.0925L24.16 89.7946C22.6962 91.2555 20.326 91.2555 18.8622 89.7946L1.12354 72.0925C-0.342431 70.6295 -0.344876 68.2552 1.11808 66.7892C1.1199 66.7874 1.12172 66.7856 1.12354 66.7837L18.8622 49.0816C20.326 47.6208 22.6962 47.6208 24.16 49.0816Z" stroke="#C8CEF0" stroke-width="1.3444" stroke-linecap="round" stroke-linejoin="round"/>
<path d="M30.9999 133.867H181V159C181 161.761 178.761 164 176 164H35.9999C33.2385 164 30.9999 161.761 30.9999 159V133.867Z" fill="#F0F1FB"/>
<path d="M30.9999 103.733H181V133.867H30.9999V103.733Z" fill="#F0F1FB"/>
<path d="M181 103.733V133.867" stroke="#40404B" stroke-miterlimit="10"/>
<path d="M29.9999 136.867V122.738V106.733" stroke="#43435C" stroke-miterlimit="10"/>
<path d="M30.9999 73.6H181V103.733H30.9999V73.6Z" fill="#F0F1FB"/>
<path d="M181 103.733H74.774M181 103.733V105.999M49.6565 103.733H27.9999V88.5471" stroke="#43435C" stroke-miterlimit="10"/>
<path d="M59 51H153L182.011 73.6H29.9893L59 51Z" fill="#D7DFFF"/>
<path d="M145.155 51H151.993C153.295 51 154.563 51.4239 155.603 52.2077L181.612 71.8013C181.906 72.0228 182.036 72.4896 182 73.2017L182.011 93.7551M164.69 73.6C118.268 73.6 86.5483 73.6 69.5303 73.6M29.9999 80.0995C29.9999 80.0763 29.9999 77.542 29.9999 72.4965C30.1097 72.145 30.2389 71.9133 30.3876 71.8013L56.3968 52.2077C57.4372 51.4239 58.7044 51 60.007 51H121.258" stroke="#43435C" stroke-miterlimit="10"/>
<path d="M81.9999 133.867H127V142.907H81.9999V133.867Z" fill="#A6B3FF"/>
<path d="M104.273 142.907H86.4999C84.0147 142.907 81.9999 140.892 81.9999 138.407V133.867H127V138.407C127 140.892 124.985 142.907 122.5 142.907" stroke="#43435C" stroke-miterlimit="10"/>
<path d="M176.5 164H32.4999C30.0147 164 27.9999 161.985 27.9999 159.5V133.867H81.7817H127.154H178" stroke="#43435C" stroke-miterlimit="10"/>
<path d="M81.9999 103.733H127V112.773H81.9999V103.733Z" fill="#A6B3FF"/>
<path d="M81.9999 103.733H127V108.273C127 110.759 124.985 112.773 122.5 112.773H86.4999C84.0147 112.773 81.9999 110.759 81.9999 108.273" stroke="#43435C" stroke-miterlimit="10"/>
<path d="M81.9999 73.6H127V82.64H81.9999V73.6Z" fill="#A6B3FF"/>
<path d="M127 78.14C127 80.6253 124.985 82.64 122.5 82.64H86.4999C84.0147 82.64 81.9999 80.6253 81.9999 78.14V73.6H127" stroke="#43435C" stroke-miterlimit="10"/>
<path d="M71.5706 114.179C71.5706 94.8971 87.2017 79.266 106.484 79.266C125.766 79.266 141.397 94.8971 141.397 114.179C141.397 133.461 125.766 149.092 106.484 149.092C87.2017 149.092 71.5706 133.461 71.5706 114.179Z" fill="white"/>
<path d="M106.484 149.092C125.766 149.092 141.397 133.461 141.397 114.179C141.397 94.8971 125.766 79.266 106.484 79.266C87.2017 79.266 71.5706 94.8971 71.5706 114.179C71.5706 133.461 87.2017 149.092 106.484 149.092Z" stroke="#FF7B7C" stroke-width="5" stroke-miterlimit="10"/>
<path d="M104.69 76.092C83.6553 76.092 66.6032 93.1442 66.6032 114.179C66.6032 124.407 70.6351 133.694 77.1963 140.536" stroke="#41415B" stroke-miterlimit="10"/>
<path d="M82.128 137.962L130.243 89.8466" stroke="#FF7B7C" stroke-width="5" stroke-miterlimit="10"/>
<path d="M102.027 111.992L124.313 89.0157" stroke="#41415B" stroke-miterlimit="10"/>
</g>
<defs>
<clipPath id="clip0_1356_10013">
<rect width="220" height="220" fill="white"/>
</clipPath>
</defs>
</svg>
