<svg width="220" height="220" viewBox="0 0 220 220" fill="none" xmlns="http://www.w3.org/2000/svg">
<g clip-path="url(#clip0_1411_9894)">
<path d="M75.5128 29.1294C116.281 24.45 153.585 46.3514 172.745 67.6521C191.906 88.9527 200.507 101.235 207.068 124.572C214.523 151.093 201.771 170.107 183.696 180.327C165.309 190.723 132.03 184.588 100.971 172.238C70.7083 160.205 55.9835 169.706 27.9216 151.638C5.33235 137.094 1.81172 119.885 3.48198 92.6635C4.86955 70.0487 23.5787 35.0904 75.5128 29.1294Z" fill="white"/>
<path d="M106 11.0425C106 109.882 106 112.203 106 211.042" stroke="#5567D5" stroke-miterlimit="10" stroke-linecap="round"/>
<path d="M109.579 125.483L137.517 153.421C139.494 155.397 139.494 158.603 137.517 160.579L109.579 188.517C107.603 190.494 104.397 190.494 102.421 188.517L74.4826 160.579C72.5058 158.603 72.5058 155.397 74.4826 153.421L102.421 125.483C104.397 123.506 107.603 123.506 109.579 125.483Z" fill="#CCD1F2" stroke="#5567D5" stroke-miterlimit="5"/>
<path d="M105.5 159C135.047 159 159 135.047 159 105.5C159 75.9528 135.047 52 105.5 52C75.9528 52 52 75.9528 52 105.5C52 135.047 75.9528 159 105.5 159Z" stroke="#FF7B7C" stroke-width="5" stroke-miterlimit="10"/>
<path d="M105 46C72.4152 46 46 72.7249 46 105.692C46 121.722 52.2458 136.276 62.4096 147" stroke="#41415B" stroke-miterlimit="10"/>
<path d="M85.3043 38.2065H126.696C130.73 38.2065 134 41.4768 134 45.5109V86.9022C134 90.9363 130.73 94.2065 126.696 94.2065H85.3043C81.2703 94.2065 78 90.9363 78 86.9022V45.5109C78 41.4768 81.2703 38.2065 85.3043 38.2065Z" fill="#F0F1FB" stroke="#5567D5" stroke-miterlimit="5"/>
<path d="M68 142L142 68" stroke="#FF7B7C" stroke-width="5" stroke-miterlimit="10"/>
<path d="M76 142.976L98.2862 120" stroke="#41415B" stroke-miterlimit="10"/>
</g>
<defs>
<clipPath id="clip0_1411_9894">
<rect width="220" height="220" fill="white"/>
</clipPath>
</defs>
</svg>
