
<svg width="80" height="80" viewBox="0 0 80 80" fill="none" xmlns="http://www.w3.org/2000/svg">
<path d="M8.00012 57.8601C-1.63068 33.7831 7.13668 20.8167 10.5003 15.3601C13.8428 9.90689 21.238 -6.7544e-05 40.0544 3.45379e-10C58.8709 6.75447e-05 64.0034 8.45263 71.659 17.566C79.2939 26.668 80.0804 36.325 79.9122 44.9321C79.744 53.5391 79.1827 60.6599 69.0274 70.3601C58.872 80.0603 47.5003 77.6399 35.5001 73C23.5 68.3601 13.0001 70.3601 8.00012 57.8601Z" fill="white"/>
<circle cx="33" cy="45" r="30" fill="#F0F1FB"/>
<path d="M62.3955 50.9919C59.0863 67.2266 43.2428 77.7047 27.0081 74.3955C10.7734 71.0863 0.295255 55.2428 3.60448 39.0081C6.91371 22.7734 22.7572 12.2952 38.9919 15.6044" stroke="#A6B3FF" stroke-width="4" stroke-linecap="round"/>
<path d="M20 38.7873L32.8571 53L61 25" stroke="#A6B3FF" stroke-width="8" stroke-linecap="round"/>
</svg>
