<svg width="48" height="48" viewBox="0 0 48 48" fill="none" xmlns="http://www.w3.org/2000/svg">
    <path
        d="M21.7532 10.6544C23.1206 9.78187 24.8794 9.78187 26.2468 10.6544L45.6194 23.0156C46.4602 23.5521 46.4602 24.7661 45.6194 25.3026L26.2468 37.6638C24.8794 38.5363 23.1206 38.5363 21.7532 37.6638L2.3806 25.3026C1.5398 24.7661 1.5398 23.552 2.3806 23.0156L21.7532 10.6544Z"
        fill="#F0F1F4" stroke="#40404B" stroke-width="1.5" stroke-linecap="round" />
    <path
        d="M6.61836 28.3115L6.01296 28.6978L4.80218 29.4704L2.3806 31.0155C1.5398 31.552 1.5398 32.7661 2.3806 33.3026L21.7532 45.6638C23.1206 46.5363 24.8794 46.5363 26.2468 45.6638L45.6194 33.3026C46.4602 32.7661 46.4602 31.552 45.6194 31.0155L43.1978 29.4704L41.987 28.6978L41.3816 28.3115"
        stroke="#40404B" stroke-width="1.5" stroke-linecap="round" />
    <path
        d="M21.6775 1.67016C23.091 0.776614 24.909 0.776614 26.3225 1.67016L46.3481 14.3289C47.2173 14.8783 47.2173 16.1217 46.3481 16.6711L26.3225 29.3298C24.909 30.2234 23.091 30.2234 21.6775 29.3298L1.65186 16.6711C0.782713 16.1217 0.782714 14.8783 1.65186 14.3289L21.6775 1.67016Z"
        fill="#A6B3FF" />
</svg>