<svg width="48" height="48" viewBox="0 0 48 48" fill="none" xmlns="http://www.w3.org/2000/svg">
<g clip-path="url(#clip0_967_5427)">
<rect x="30" width="18" height="18" rx="9" fill="#A6B3FF"/>
<path fill-rule="evenodd" clip-rule="evenodd" d="M23.4808 9.87109C23.1084 8.75369 22.0627 8 20.8848 8H19.1152C17.9373 8 16.8916 8.75369 16.5192 9.87109C16.2194 10.7703 15.4702 11.4346 14.571 11.7346C13.8015 11.9913 13.0562 12.3012 12.3395 12.6597C11.4914 13.0841 10.4912 13.1442 9.64293 12.72C8.58888 12.193 7.31584 12.3996 6.48254 13.2329L5.23272 14.4827C4.39939 15.316 4.1928 16.5891 4.71984 17.6432C5.14398 18.4915 5.08394 19.4917 4.65958 20.3398C4.30108 21.0564 3.9913 21.8016 3.73459 22.571C3.43463 23.4702 2.77029 24.2194 1.87109 24.5192C0.753693 24.8916 0 25.9373 0 27.1152V28.8848C0 30.0627 0.753694 31.1084 1.87109 31.4808C2.77029 31.7806 3.43463 32.5298 3.73459 33.429C3.99131 34.1985 4.30111 34.9437 4.65964 35.6603C5.08401 36.5085 5.14406 37.5087 4.71991 38.357C4.19285 39.4111 4.39945 40.6842 5.2328 41.5175L6.48251 42.7672C7.31586 43.6006 8.58897 43.8072 9.64309 43.2801C10.4914 42.856 11.4916 42.916 12.3398 43.3404C13.0564 43.6989 13.8016 44.0087 14.571 44.2654C15.4702 44.5654 16.2194 45.2297 16.5192 46.1289C16.8916 47.2463 17.9373 48 19.1152 48H20.8848C22.0627 48 23.1084 47.2463 23.4808 46.1289C23.7806 45.2297 24.5298 44.5654 25.429 44.2654C26.1985 44.0087 26.9438 43.6988 27.6605 43.3403C28.5086 42.9159 29.5088 42.8558 30.3571 43.28C31.4111 43.807 32.6842 43.6004 33.5175 42.7671L34.7673 41.5173C35.6006 40.684 35.8072 39.4109 35.2802 38.3568C34.856 37.5085 34.9161 36.5083 35.3404 35.6602C35.6989 34.9436 36.0087 34.1984 36.2654 33.429C36.5654 32.5298 37.2297 31.7806 38.1289 31.4808C39.2463 31.1084 40 30.0627 40 28.8848V27.1152C40 25.9373 39.2463 24.8916 38.1289 24.5192C37.2297 24.2194 36.5654 23.4702 36.2654 22.571C36.0087 21.8015 35.6989 21.0563 35.3404 20.3397C34.916 19.4915 34.8559 18.4913 35.2801 17.643C35.8071 16.5889 35.6006 15.3158 34.7672 14.4825L33.5175 13.2328C32.6841 12.3994 31.411 12.1928 30.3569 12.7199C29.5086 13.144 28.5084 13.084 27.6602 12.6596C26.9436 12.3011 26.1984 11.9913 25.429 11.7346C24.5298 11.4346 23.7806 10.7703 23.4808 9.87109ZM20 15C12.8203 15 7 20.8203 7 28C7 35.1797 12.8203 41 20 41C27.1797 41 33 35.1797 33 28C33 20.8203 27.1797 15 20 15Z" fill="#F0F1F4"/>
<rect x="8" y="16" width="24" height="24" rx="12" fill="#A6B3FF"/>
<path d="M40 8H36.5M40 8V11.5M40 8L30.5 17.5L27.875 20.125L26.5625 21.4375" stroke="#40404B" stroke-width="1.5" stroke-linecap="round"/>
<path d="M13.7048 31.3272C13.2718 31.3272 13 31.0739 13 30.6731C13 30.5579 13.0322 30.4013 13.0921 30.2308L14.9072 25.2878C15.1007 24.7488 15.4278 24.5 15.9529 24.5C16.4965 24.5 16.819 24.7396 17.0171 25.2832L18.8414 30.2308C18.9059 30.4105 18.9289 30.5349 18.9289 30.6731C18.9289 31.0554 18.6387 31.3272 18.2333 31.3272C17.8417 31.3272 17.6344 31.1476 17.51 30.7145L17.1599 29.6642H14.7598L14.4097 30.7007C14.2807 31.143 14.0734 31.3272 13.7048 31.3272ZM15.0638 28.5862H16.8374L15.9576 25.8636H15.9253L15.0638 28.5862Z" fill="#40404B"/>
<path d="M20.4722 31.3272C20.0346 31.3272 19.7766 31.0601 19.7766 30.604V25.3154C19.7766 24.8593 20.0346 24.5921 20.4722 24.5921H22.4808C23.8444 24.5921 24.7841 25.4997 24.7841 26.8679C24.7841 28.2315 23.8121 29.1436 22.4116 29.1436H21.1678V30.604C21.1678 31.0601 20.9098 31.3272 20.4722 31.3272ZM21.1678 28.0564H22.1076C22.9046 28.0564 23.3699 27.6326 23.3699 26.8725C23.3699 26.117 22.9092 25.6932 22.1122 25.6932H21.1678V28.0564Z" fill="#40404B"/>
<path d="M26.3044 31.3272C25.8667 31.3272 25.6088 31.0601 25.6088 30.604V25.2279C25.6088 24.7672 25.8667 24.5 26.3044 24.5C26.742 24.5 27 24.7672 27 25.2279V30.604C27 31.0601 26.742 31.3272 26.3044 31.3272Z" fill="#40404B"/>
</g>
<defs>
<clipPath id="clip0_967_5427">
<rect width="48" height="48" fill="white"/>
</clipPath>
</defs>
</svg>
