<svg width="48" height="48" viewBox="0 0 48 48" fill="none" xmlns="http://www.w3.org/2000/svg">
    <g clip-path="url(#clip0_3533_17810)">
        <path fill-rule="evenodd" clip-rule="evenodd" d="M24 7C14.6112 7 7 14.6112 7 24C7 33.3888 14.6112 41 24 41C33.3888 41 41 33.3888 41 24C41 14.6112 33.3888 7 24 7ZM24 13C17.9249 13 13 17.9249 13 24C13 30.0751 17.9249 35 24 35C30.0751 35 35 30.0751 35 24C35 17.9249 30.0751 13 24 13Z" fill="#F0F1F4"/>
        <rect x="20" y="20" width="8" height="8" rx="4" fill="#F0F1F4"/>
        <path d="M35.2273 26.571C34.2682 26.12 33.6027 25.1395 33.6027 24.0023C33.6027 22.8651 34.2682 21.8846 35.2469 21.4336C35.834 21.1591 36.1472 20.5317 35.9319 19.9238C35.7557 19.3944 35.5404 18.8845 35.286 18.3943C35.0119 17.8257 34.3465 17.5904 33.7397 17.8061C32.7611 18.1394 31.6259 17.9237 30.843 17.1394C30.0601 16.3551 29.8252 15.2178 30.1775 14.2374C30.3732 13.6491 30.1579 12.9825 29.5903 12.708C29.0814 12.453 28.5529 12.2374 28.0441 12.0609C27.4569 11.8648 26.8306 12.1589 26.537 12.708C26.0672 13.6099 25.1277 14.2178 24.0317 14.2178C22.9356 14.2178 21.9961 13.61 21.5264 12.708C21.2328 12.1589 20.6065 11.8648 20.0192 12.0609C19.5104 12.2373 19.0015 12.4334 18.5121 12.6883C17.9641 12.9628 17.6901 13.5903 17.8662 14.1785C18.1598 15.1394 17.9249 16.2374 17.1616 16.9825C16.3983 17.7472 15.3022 17.9825 14.3431 17.6884C13.7364 17.5119 13.0905 17.7668 12.7969 18.3355C12.562 18.8257 12.3467 19.3159 12.1706 19.8257C11.9748 20.3944 12.2489 21.0219 12.7773 21.316C13.6581 21.7866 14.2648 22.7277 14.2648 23.8062C14.2648 24.9239 13.6189 25.8847 12.699 26.3357C12.151 26.6102 11.877 27.2181 12.0531 27.7867C12.2097 28.2965 12.4054 28.8063 12.6403 29.2965C12.9143 29.8848 13.5994 30.1593 14.2257 29.9828C15.1848 29.6887 16.2612 29.924 17.0246 30.6691C17.8271 31.473 18.0423 32.6299 17.6705 33.6299C17.4552 34.1986 17.69 34.8456 18.2185 35.1398C18.7274 35.4143 19.2559 35.63 19.8039 35.826C20.3911 36.0417 21.0174 35.7476 21.2719 35.1789C21.722 34.2377 22.7007 33.571 23.8163 33.571C24.9515 33.571 25.9302 34.2377 26.3803 35.2181C26.6543 35.8064 27.3002 36.1397 27.907 35.9437C28.4354 35.7672 28.9639 35.5711 29.4532 35.3162C30.0208 35.0417 30.2557 34.375 30.0404 33.7868C29.6685 32.7868 29.8838 31.6103 30.6863 30.8063C31.4888 30.0023 32.6827 29.7867 33.681 30.1592C34.2877 30.3945 34.9727 30.1592 35.2664 29.5905C35.5208 29.1003 35.7361 28.5906 35.9123 28.0611C36.108 27.4729 35.7948 26.8259 35.2273 26.571ZM23.9928 30.1201C20.6262 30.1201 17.8861 27.3749 17.8861 24.0023C17.8861 20.6297 20.6262 17.8845 23.9928 17.8845C27.3593 17.8845 30.0994 20.6297 30.0994 24.0023C30.0994 27.3749 27.3593 30.1201 23.9928 30.1201Z" fill="#A6B3FF"/>
        <path fill-rule="evenodd" clip-rule="evenodd" d="M3.97504 38.0303C3.56083 38.0303 3.22504 38.3661 3.22504 38.7803C3.22504 39.1946 3.56083 39.5303 3.97504 39.5303L7.16438 39.5303L1.0305 45.6642C0.737604 45.9571 0.737604 46.432 1.0305 46.7249C1.32339 47.0178 1.79826 47.0178 2.09116 46.7249L8.22504 40.591L8.22504 43.7803C8.22504 44.1946 8.56083 44.5303 8.97504 44.5303C9.38925 44.5303 9.72504 44.1946 9.72504 43.7803L9.72504 38.7803L9.72504 38.0303L8.97504 38.0303L3.97504 38.0303Z" fill="#CBCEDB"/>
        <path fill-rule="evenodd" clip-rule="evenodd" d="M44.0201 38.0303C44.4343 38.0303 44.7701 38.3661 44.7701 38.7803C44.7701 39.1946 44.4343 39.5303 44.0201 39.5303H40.8311L46.9649 45.6642C47.2578 45.9571 47.2578 46.4319 46.9649 46.7248C46.672 47.0177 46.1971 47.0177 45.9043 46.7248L39.7701 40.5907V43.7803C39.7701 44.1946 39.4343 44.5303 39.0201 44.5303C38.6059 44.5303 38.2701 44.1946 38.2701 43.7803L38.2701 38.7803L38.2701 38.0303L39.0201 38.0303L44.0201 38.0303Z" fill="#40404B"/>
        <path fill-rule="evenodd" clip-rule="evenodd" d="M3.97504 9.72491C3.56083 9.72491 3.22504 9.38912 3.22504 8.97491C3.22504 8.5607 3.56083 8.22491 3.97504 8.22491H7.16438L1.0305 2.09103C0.737604 1.79813 0.737604 1.32326 1.0305 1.03037C1.32339 0.737473 1.79826 0.737473 2.09116 1.03037L8.22504 7.16425V3.97491C8.22504 3.5607 8.56083 3.22491 8.97504 3.22491C9.38925 3.22491 9.72504 3.5607 9.72504 3.97491L9.72504 8.97491L9.72504 9.72491L8.97504 9.72491L3.97504 9.72491Z" fill="#40404B"/>
        <path fill-rule="evenodd" clip-rule="evenodd" d="M44.0201 9.72491C44.4343 9.72491 44.7701 9.38912 44.7701 8.97491C44.7701 8.5607 44.4343 8.22491 44.0201 8.22491H40.8311L46.9649 2.09108C47.2578 1.79819 47.2578 1.32332 46.9649 1.03042C46.672 0.737529 46.1971 0.737529 45.9043 1.03042L39.7701 7.1646V3.97491C39.7701 3.5607 39.4343 3.22491 39.0201 3.22491C38.6059 3.22491 38.2701 3.5607 38.2701 3.97491L38.2701 8.97491L38.2701 9.72491L39.0201 9.72491L44.0201 9.72491Z" fill="#CBCEDB"/>
        <path fill-rule="evenodd" clip-rule="evenodd" d="M23.4805 0.255574C23.6532 0.251864 23.8264 0.25 24 0.25C24.1736 0.25 24.3468 0.251864 24.5196 0.255574C24.9337 0.264467 25.2622 0.607386 25.2533 1.0215C25.2444 1.43562 24.9015 1.76412 24.4873 1.75523C24.3253 1.75175 24.1629 1.75 24 1.75C23.8371 1.75 23.6747 1.75175 23.5127 1.75523C23.0985 1.76412 22.7556 1.43562 22.7467 1.0215C22.7378 0.607386 23.0663 0.264467 23.4805 0.255574ZM28.7403 1.47646C28.8385 1.07404 29.2443 0.82738 29.6467 0.925529C29.9834 1.00765 30.3173 1.09694 30.6482 1.19325C31.0459 1.30899 31.2745 1.72523 31.1587 2.12294C31.043 2.52066 30.6268 2.74924 30.229 2.6335C29.9192 2.54332 29.6066 2.45971 29.2913 2.38281C28.8889 2.28466 28.6422 1.87887 28.7403 1.47646ZM19.2597 1.47646C19.3578 1.87887 19.1111 2.28466 18.7087 2.38281C18.3934 2.45971 18.0808 2.54332 17.7709 2.6335C17.3732 2.74924 16.957 2.52066 16.8413 2.12294C16.7255 1.72523 16.9541 1.30899 17.3518 1.19325C17.6827 1.09695 18.0166 1.00765 18.3533 0.92553C18.7557 0.827381 19.1615 1.07404 19.2597 1.47646ZM45.8771 16.8413C46.2748 16.7255 46.691 16.9541 46.8068 17.3518C46.9031 17.6827 46.9924 18.0166 47.0745 18.3533C47.1726 18.7557 46.926 19.1615 46.5235 19.2597C46.1211 19.3578 45.7153 19.1111 45.6172 18.7087C45.5403 18.3934 45.4567 18.0808 45.3665 17.7709C45.2508 17.3732 45.4793 16.957 45.8771 16.8413ZM2.12294 16.8413C2.52066 16.957 2.74924 17.3732 2.6335 17.771C2.54332 18.0808 2.45971 18.3934 2.38281 18.7087C2.28466 19.1111 1.87887 19.3578 1.47646 19.2597C1.07404 19.1615 0.82738 18.7557 0.925529 18.3533C1.00765 18.0166 1.09694 17.6827 1.19325 17.3518C1.30899 16.9541 1.72523 16.7255 2.12294 16.8413ZM1.0215 22.7467C1.43562 22.7556 1.76412 23.0985 1.75523 23.5127C1.75175 23.6747 1.75 23.8371 1.75 24C1.75 24.1629 1.75175 24.3253 1.75523 24.4873C1.76412 24.9015 1.43562 25.2444 1.0215 25.2533C0.607386 25.2622 0.264467 24.9337 0.255574 24.5195C0.251864 24.3468 0.25 24.1736 0.25 24C0.25 23.8264 0.251864 23.6532 0.255574 23.4804C0.264467 23.0663 0.607386 22.7378 1.0215 22.7467ZM46.9785 22.7467C47.3926 22.7378 47.7355 23.0663 47.7444 23.4805C47.7481 23.6532 47.75 23.8264 47.75 24C47.75 24.1736 47.7481 24.3468 47.7444 24.5196C47.7355 24.9337 47.3926 25.2622 46.9785 25.2533C46.5644 25.2444 46.2359 24.9015 46.2448 24.4873C46.2483 24.3253 46.25 24.1629 46.25 24C46.25 23.8371 46.2483 23.6747 46.2448 23.5127C46.2359 23.0985 46.5644 22.7556 46.9785 22.7467ZM46.5235 28.7403C46.926 28.8385 47.1726 29.2443 47.0745 29.6467C46.9924 29.9834 46.9031 30.3173 46.8068 30.6482C46.691 31.0459 46.2748 31.2745 45.8771 31.1587C45.4793 31.043 45.2508 30.6268 45.3665 30.229C45.4567 29.9192 45.5403 29.6066 45.6172 29.2913C45.7153 28.8889 46.1211 28.6422 46.5235 28.7403ZM1.47646 28.7403C1.87887 28.6422 2.28466 28.8889 2.38281 29.2913C2.45971 29.6066 2.54332 29.9192 2.6335 30.2291C2.74924 30.6268 2.52066 31.043 2.12294 31.1587C1.72523 31.2745 1.30899 31.0459 1.19325 30.6482C1.09695 30.3173 1.00765 29.9834 0.92553 29.6467C0.827381 29.2443 1.07404 28.8385 1.47646 28.7403ZM16.8413 45.8771C16.957 45.4793 17.3732 45.2508 17.771 45.3665C18.0808 45.4567 18.3934 45.5403 18.7087 45.6172C19.1111 45.7153 19.3578 46.1211 19.2597 46.5235C19.1615 46.926 18.7557 47.1726 18.3533 47.0745C18.0166 46.9924 17.6827 46.9031 17.3518 46.8068C16.9541 46.691 16.7255 46.2748 16.8413 45.8771ZM31.1587 45.8771C31.2745 46.2748 31.0459 46.691 30.6482 46.8068C30.3173 46.9031 29.9834 46.9924 29.6467 47.0745C29.2443 47.1726 28.8385 46.926 28.7403 46.5235C28.6422 46.1211 28.8889 45.7153 29.2913 45.6172C29.6066 45.5403 29.9192 45.4567 30.2291 45.3665C30.6268 45.2508 31.043 45.4793 31.1587 45.8771ZM22.7467 46.9785C22.7556 46.5644 23.0985 46.2359 23.5127 46.2448C23.6747 46.2483 23.8371 46.25 24 46.25C24.1629 46.25 24.3253 46.2483 24.4873 46.2448C24.9015 46.2359 25.2444 46.5644 25.2533 46.9785C25.2622 47.3926 24.9337 47.7355 24.5195 47.7444C24.3468 47.7481 24.1736 47.75 24 47.75C23.8264 47.75 23.6532 47.7481 23.4804 47.7444C23.0663 47.7355 22.7378 47.3926 22.7467 46.9785Z" fill="#CBCEDB"/>
        <circle cx="24" cy="24" r="2" stroke="#40404B" stroke-width="1.5" stroke-linecap="round"/>
    </g>
    <defs>
        <clipPath id="clip0_3533_17810">
            <rect width="48" height="48" fill="white"/>
        </clipPath>
    </defs>
</svg>
