<svg width="48" height="48" viewBox="0 0 48 48" fill="none" xmlns="http://www.w3.org/2000/svg">
<g clip-path="url(#clip0_2409_18419)">
<rect y="8" width="40" height="40" rx="20" fill="#F0F1F4"/>
<path d="M31.2273 30.571C30.2682 30.12 29.6027 29.1395 29.6027 28.0023C29.6027 26.8651 30.2682 25.8846 31.2469 25.4336C31.834 25.1591 32.1472 24.5317 31.9319 23.9238C31.7557 23.3944 31.5404 22.8845 31.286 22.3943C31.0119 21.8257 30.3465 21.5904 29.7397 21.8061C28.7611 22.1394 27.6259 21.9237 26.843 21.1394C26.0601 20.3551 25.8252 19.2178 26.1775 18.2374C26.3732 17.6491 26.1579 16.9825 25.5903 16.708C25.0814 16.453 24.5529 16.2374 24.0441 16.0609C23.4569 15.8648 22.8306 16.1589 22.537 16.708C22.0672 17.6099 21.1277 18.2178 20.0317 18.2178C18.9356 18.2178 17.9961 17.61 17.5264 16.708C17.2328 16.1589 16.6065 15.8648 16.0192 16.0609C15.5104 16.2373 15.0015 16.4334 14.5121 16.6883C13.9641 16.9628 13.6901 17.5903 13.8662 18.1785C14.1598 19.1394 13.9249 20.2374 13.1616 20.9825C12.3983 21.7472 11.3022 21.9825 10.3431 21.6884C9.73639 21.5119 9.09046 21.7668 8.7969 22.3355C8.56202 22.8257 8.34675 23.3159 8.17057 23.8257C7.97484 24.3944 8.24886 25.0219 8.7773 25.316C9.65809 25.7866 10.2648 26.7277 10.2648 27.8062C10.2648 28.9239 9.6189 29.8847 8.69901 30.3357C8.15097 30.6102 7.87696 31.2181 8.05309 31.7867C8.20967 32.2965 8.4054 32.8063 8.64027 33.2965C8.91429 33.8848 9.59935 34.1593 10.2257 33.9828C11.1848 33.6887 12.2612 33.924 13.0246 34.6691C13.8271 35.473 14.0423 36.6299 13.6705 37.6299C13.4552 38.1986 13.69 38.8456 14.2185 39.1398C14.7274 39.4143 15.2559 39.63 15.8039 39.826C16.3911 40.0417 17.0174 39.7476 17.2719 39.1789C17.722 38.2377 18.7007 37.571 19.8163 37.571C20.9515 37.571 21.9302 38.2377 22.3803 39.2181C22.6543 39.8064 23.3002 40.1397 23.907 39.9437C24.4354 39.7672 24.9639 39.5711 25.4532 39.3162C26.0208 39.0417 26.2557 38.375 26.0404 37.7868C25.6685 36.7868 25.8838 35.6103 26.6863 34.8063C27.4888 34.0023 28.6827 33.7867 29.681 34.1592C30.2877 34.3945 30.9727 34.1592 31.2664 33.5905C31.5208 33.1003 31.7361 32.5906 31.9123 32.0611C32.108 31.4729 31.7948 30.8259 31.2273 30.571ZM19.9928 34.1201C16.6262 34.1201 13.8861 31.3749 13.8861 28.0023C13.8861 24.6297 16.6262 21.8845 19.9928 21.8845C23.3593 21.8845 26.0994 24.6297 26.0994 28.0023C26.0994 31.3749 23.3593 34.1201 19.9928 34.1201Z" fill="url(#paint0_angular_2409_18419)"/>
<path d="M33.483 9.10685C34.0824 8.825 34.4983 8.21221 34.4983 7.50144C34.4983 6.79067 34.0824 6.17789 33.4707 5.89603C33.1037 5.72446 32.908 5.33229 33.0426 4.95237C33.1527 4.62149 33.2872 4.30283 33.4463 3.99647C33.6175 3.64105 34.0335 3.49399 34.4127 3.62881C35.0243 3.83715 35.7338 3.70234 36.2231 3.21214C36.7125 2.72193 36.8593 2.01113 36.6391 1.39837C36.5167 1.03072 36.6513 0.614042 37.006 0.44247C37.3241 0.283153 37.6544 0.148346 37.9724 0.0380357C38.3394 -0.0845159 38.7309 0.0993115 38.9144 0.44247C39.208 1.00621 39.7952 1.38613 40.4802 1.38613C41.1652 1.38613 41.7524 1.00624 42.046 0.44247C42.2295 0.0993255 42.621 -0.0844879 42.988 0.0380357C43.306 0.148332 43.6241 0.270884 43.9299 0.430201C44.2724 0.601773 44.4437 0.993938 44.3336 1.36159C44.1501 1.96211 44.2969 2.6484 44.774 3.11407C45.2511 3.592 45.9361 3.73907 46.5356 3.55525C46.9148 3.44496 47.3185 3.60427 47.5019 3.95969C47.6487 4.26608 47.7833 4.57244 47.8934 4.89108C48.0157 5.24649 47.8445 5.63866 47.5142 5.82247C46.9637 6.1166 46.5845 6.70484 46.5845 7.37886C46.5845 8.07742 46.9882 8.67791 47.5631 8.95979C47.9056 9.13136 48.0769 9.51129 47.9668 9.86667C47.869 10.1853 47.7466 10.5039 47.5998 10.8103C47.4286 11.178 47.0004 11.3496 46.6089 11.2393C46.0095 11.0554 45.3367 11.2025 44.8597 11.6682C44.3581 12.1706 44.2235 12.8937 44.456 13.5187C44.5905 13.8741 44.4437 14.2785 44.1134 14.4623C43.7954 14.6339 43.4651 14.7687 43.1225 14.8913C42.7556 15.0261 42.3641 14.8422 42.2051 14.4868C41.9237 13.8986 41.3121 13.4819 40.6148 13.4819C39.9053 13.4819 39.2937 13.8986 39.0123 14.5113C38.841 14.879 38.4374 15.0873 38.0581 14.9648C37.7279 14.8545 37.3976 14.7319 37.0918 14.5726C36.737 14.4011 36.5902 13.9844 36.7248 13.6167C36.9572 12.9917 36.8226 12.2564 36.3211 11.7539C35.8195 11.2515 35.0733 11.1167 34.4494 11.3495C34.0702 11.4966 33.642 11.3495 33.4585 10.9941C33.2995 10.6877 33.1649 10.3691 33.0548 10.0382C32.9325 9.67054 33.1282 9.26613 33.483 9.1068V9.10685ZM40.5045 11.3251C42.6086 11.3251 44.3212 9.60933 44.3212 7.50144C44.3212 5.39355 42.6086 3.67783 40.5045 3.67783C38.4005 3.67783 36.6879 5.39355 36.6879 7.50144C36.6879 9.60933 38.4005 11.3251 40.5045 11.3251Z" fill="url(#paint1_angular_2409_18419)"/>
<rect x="15" y="23" width="10" height="10" rx="5" fill="white"/>
<rect x="37" y="4" width="7" height="7" rx="3.5" fill="white"/>
<path d="M40.5 7.5L20 28" stroke="#40404B" stroke-width="1.5" stroke-linecap="round"/>
</g>
<defs>
<radialGradient id="paint0_angular_2409_18419" cx="0" cy="0" r="1" gradientUnits="userSpaceOnUse" gradientTransform="translate(26.4286 21.1429) rotate(131.987) scale(17.2975 44.161)">
<stop stop-color="#C8D0FF"/>
<stop offset="0.0001" stop-color="#B1BDFF"/>
<stop offset="1" stop-color="#7E8FFA"/>
</radialGradient>
<radialGradient id="paint1_angular_2409_18419" cx="0" cy="0" r="1" gradientUnits="userSpaceOnUse" gradientTransform="translate(38 10) rotate(-45) scale(7.07107 18.0526)">
<stop stop-color="#C8D0FF"/>
<stop offset="0.0001" stop-color="#B1BDFF"/>
<stop offset="1" stop-color="#7E8FFA"/>
</radialGradient>
<clipPath id="clip0_2409_18419">
<rect width="48" height="48" fill="white"/>
</clipPath>
</defs>
</svg>
