<svg width="48" height="48" viewBox="0 0 48 48" fill="none" xmlns="http://www.w3.org/2000/svg">
<path d="M0 6C0 3.23858 2.23858 1 5 1H43C45.7614 1 48 3.23858 48 6V32C48 34.7614 45.7614 37 43 37H5C2.23858 37 0 34.7614 0 32V6Z" fill="#F0F1F4"/>
<path d="M4 7C4 5.89543 4.89543 5 6 5H20C21.1046 5 22 5.89543 22 7V17C22 18.1046 21.1046 19 20 19H6C4.89543 19 4 18.1046 4 17V7Z" fill="#A6B3FF"/>
<path d="M4 23C4 21.8954 4.89543 21 6 21H20C21.1046 21 22 21.8954 22 23V27C22 28.1046 21.1046 29 20 29H6C4.89543 29 4 28.1046 4 27V23Z" fill="#A6B3FF"/>
<path d="M24 7C24 5.89543 24.8954 5 26 5H40C41.1046 5 42 5.89543 42 7V14C42 15.1046 41.1046 16 40 16H26C24.8954 16 24 15.1046 24 14V7Z" fill="#A6B3FF"/>
<path d="M36.7902 40.9891L40.9947 45.1936L44.1936 41.9946L39.9891 37.7901L43.5193 34.2599L30.1297 31.1296L33.26 44.5193L36.7902 40.9891Z" stroke="black" stroke-width="1.5"/>
</svg>
