<?xml version="1.0" encoding="UTF-8"?>
<!--
 ~   Copyright 2020, WSO2 Inc. (http://www.wso2.com)
 ~
 ~   Licensed under the Apache License, Version 2.0 (the "License");
 ~   you may not use this file except in compliance with the License.
 ~   You may obtain a copy of the License at
 ~
 ~        http://www.apache.org/licenses/LICENSE-2.0
 ~
 ~   Unless required by applicable law or agreed to in writing, software
 ~   distributed under the License is distributed on an "AS IS" BASIS,
 ~   WITHOUT WARRANTIES OR CONDITIONS OF ANY KIND, either express or implied.
 ~   See the License for the specific language governing permissions and
 ~   limitations under the License.
-->
<svg x="0px" y="0px" viewBox="0 0 40 48" version="1.1" xmlns="http://www.w3.org/2000/svg" xmlns:xlink="http://www.w3.org/1999/xlink">
    <title>AWS-S3</title>
    <g id="Symbols" stroke="none" stroke-width="1" fill="none" fill-rule="evenodd">
        <g id="Logo/AWSS3" transform="translate(-4.000000, 0.000000)" fill-rule="nonzero">
            <g id="AWS-S3-01" transform="translate(4.000000, 0.000000)">
                <polyline id="XMLID_2_" fill="#8C3123" points="3.18688525 8.36721311 0 9.96721311 0 37.9672131 3.18688525 39.5540984 3.21311475 39.5278689 3.21311475 8.39344262 3.18688525 8.36721311"></polyline>
                <polyline id="XMLID_3_" fill="#E05243" points="20.2622951 35.4885246 3.18688525 39.5540984 3.18688525 8.36721311 20.2622951 12.3409836 20.2622951 35.4885246"></polyline>
                <polyline id="XMLID_4_" fill="#8C3123" points="12.5639344 29.1278689 19.8032787 30.0459016 19.842623 29.9409836 19.895082 18.0721311 19.8032787 17.9803279 12.5639344 18.8852459 12.5639344 29.1278689"></polyline>
                <polyline id="XMLID_5_" fill="#8C3123" points="19.8032787 35.5409836 36.4065574 39.5672131 36.4327869 39.5278689 36.4327869 8.39344262 36.4065574 8.36721311 19.8032787 12.3934426 19.8032787 35.5409836"></polyline>
                <polyline id="XMLID_6_" fill="#E05243" points="27.042623 29.1278689 19.8032787 30.0459016 19.8032787 17.9803279 27.042623 18.8852459 27.042623 29.1278689"></polyline>
                <polyline id="XMLID_7_" fill="#5E1F18" points="27.042623 13.9278689 19.8032787 15.252459 12.5639344 13.9278689 19.7901639 12.0393443 27.042623 13.9278689"></polyline>
                <polyline id="XMLID_8_" fill="#F2B0A9" points="27.042623 34.0721311 19.8032787 32.7344262 12.5639344 34.0721311 19.7901639 36.0918033 27.042623 34.0721311"></polyline>
                <polyline id="XMLID_9_" fill="#8C3123" points="12.5639344 13.9278689 19.8032787 12.1442623 19.8557377 12.1180328 19.8557377 0.118032787 19.8032787 0.0655737705 12.5639344 3.6852459 12.5639344 13.9278689"></polyline>
                <polyline id="XMLID_10_" fill="#E05243" points="27.042623 13.9278689 19.8032787 12.1442623 19.8032787 0.0655737705 27.042623 3.6852459 27.042623 13.9278689"></polyline>
                <polyline id="XMLID_11_" fill="#8C3123" points="19.8032787 47.9344262 12.5639344 44.3147541 12.5639344 34.0721311 19.8032787 35.8557377 19.9081967 35.9868852 19.8819672 47.7245902 19.8032787 47.9344262"></polyline>
                <polyline id="XMLID_12_" fill="#E05243" points="19.8032787 47.9344262 27.042623 44.3147541 27.042623 34.0721311 19.8032787 35.8557377 19.8032787 47.9344262"></polyline>
                <polyline id="XMLID_13_" fill="#E05243" points="36.4065574 8.36721311 39.6065574 9.96721311 39.6065574 37.9672131 36.4065574 39.5672131 36.4065574 8.36721311"></polyline>
            </g>
        </g>
    </g>
</svg>