<?xml version="1.0" encoding="UTF-8"?>
<!--
 ~   Copyright 2020, WSO2 Inc. (http://www.wso2.com)
 ~
 ~   Licensed under the Apache License, Version 2.0 (the "License");
 ~   you may not use this file except in compliance with the License.
 ~   You may obtain a copy of the License at
 ~
 ~        http://www.apache.org/licenses/LICENSE-2.0
 ~
 ~   Unless required by applicable law or agreed to in writing, software
 ~   distributed under the License is distributed on an "AS IS" BASIS,
 ~   WITHOUT WARRANTIES OR CONDITIONS OF ANY KIND, either express or implied.
 ~   See the License for the specific language governing permissions and
 ~   limitations under the License.
-->
<svg viewBox="0 0 40 48" version="1.1" x="0px" y="0px" xmlns="http://www.w3.org/2000/svg" xmlns:xlink="http://www.w3.org/1999/xlink">
    <title>AWS-Sqs</title>
    <g id="Symbols" stroke="none" stroke-width="1" fill="none" fill-rule="evenodd">
        <g id="Logo/AWSSQS" transform="translate(-4.000000, 0.000000)" fill-rule="nonzero">
            <g id="AWS-Sqs-01" transform="translate(4.000000, 0.000000)">
                <polyline id="XMLID_2_" fill="#D9A741" points="39.7639344 15.5934426 39.1213115 15.5803279 19.947541 9.90163934 19.9344262 9.63934426 19.9344262 0.0655737705 39.7639344 9.98032787 39.7639344 15.5934426"></polyline>
                <polyline id="XMLID_3_" fill="#876929" points="19.9344262 10.2163934 19.9344262 0.0655737705 0.104918033 9.98032787 0.104918033 38.0196721 0.118032787 38.0196721 0.118032787 38.0196721 19.9344262 47.9344262 20 47.842623 19.9737705 38.4131148 19.9344262 38.3606557 18.7016393 37.4819672 3.35737705 32.904918 3.43606557 15.1737705 19.9344262 10.2163934"></polyline>
                <polyline id="XMLID_4_" fill="#D9A741" points="22.8983607 30.3213115 2.63606557 33.1672131 2.63606557 14.8196721 22.8983607 17.6786885 22.8983607 30.3213115"></polyline>
                <polyline id="XMLID_5_" fill="#876929" points="12.6295082 29.1540984 19.9344262 30.0852459 19.9344262 17.9016393 12.6295082 18.8327869 12.6295082 29.1540984"></polyline>
                <polyline id="XMLID_6_" fill="#876929" points="5.27213115 28.2229508 10.0196721 28.8262295 10.0196721 19.1606557 5.27213115 19.7639344 5.27213115 28.2229508"></polyline>
                <polyline id="XMLID_7_" fill="#624A1E" points="2.63606557 14.8196721 19.9344262 9.63934426 39.7639344 15.5934426 22.9114754 17.6786885 2.63606557 14.8196721"></polyline>
                <polyline id="XMLID_8_" fill="#D9A741" points="39.7508197 27.5409836 19.9344262 30.0459016 19.9344262 17.9016393 39.7508197 20.4327869 39.7508197 27.5409836"></polyline>
                <polyline id="XMLID_9_" fill="#D9A741" points="39.7508197 32.4196721 39.3180328 32.4327869 20 38.2819672 19.9344262 38.3606557 19.9344262 47.9344262 39.7508197 38.0327869 39.7508197 32.4196721"></polyline>
                <polyline id="XMLID_10_" fill="#FAD791" points="2.63606557 33.1672131 19.9344262 38.3606557 39.7508197 32.4196721 22.8983607 30.3213115 2.63606557 33.1672131"></polyline>
            </g>
        </g>
    </g>
</svg>