<?xml version="1.0" encoding="UTF-8"?>
<!--
 ~   Copyright 2020, WSO2 Inc. (http://www.wso2.com)
 ~
 ~   Licensed under the Apache License, Version 2.0 (the "License");
 ~   you may not use this file except in compliance with the License.
 ~   You may obtain a copy of the License at
 ~
 ~        http://www.apache.org/licenses/LICENSE-2.0
 ~
 ~   Unless required by applicable law or agreed to in writing, software
 ~   distributed under the License is distributed on an "AS IS" BASIS,
 ~   WITHOUT WARRANTIES OR CONDITIONS OF ANY KIND, either express or implied.
 ~   See the License for the specific language governing permissions and
 ~   limitations under the License.
-->
<svg x="0px" y="0px" viewBox="0 0 49 37" version="1.1" xmlns="http://www.w3.org/2000/svg" xmlns:xlink="http://www.w3.org/1999/xlink">
    <title>Gmail</title>
    <defs>
        <radialGradient cx="-0.0229073661%" cy="6.29035857%" fx="-0.0229073661%" fy="6.29035857%" r="167.296932%" gradientTransform="translate(-0.000229,0.062904),scale(0.700335,1.000000),translate(0.000229,-0.062904)" id="radialGradient-1">
            <stop stop-color="#263238" offset="32%"></stop>
            <stop stop-color="#263238" offset="100%"></stop>
        </radialGradient>
        <radialGradient cx="1.79158904%" cy="2.43858239%" fx="1.79158904%" fy="2.43858239%" r="159.88798%" gradientTransform="translate(0.017916,0.024386),scale(0.749863,1.000000),translate(-0.017916,-0.024386)" id="radialGradient-2">
            <stop stop-color="#FFFFFF" offset="0%"></stop>
            <stop stop-color="#FFFFFF" offset="100%"></stop>
        </radialGradient>
    </defs>
    <g id="Symbols" stroke="none" stroke-width="1" fill="none" fill-rule="evenodd">
        <g id="Logo/Gmail" transform="translate(0.000000, -6.000000)" fill-rule="nonzero">
            <g id="Gmail-01" transform="translate(0.000000, 6.000000)">
                <g id="XMLID_55_" transform="translate(0.000000, 32.524590)" fill="#263238" opacity="0.16">
                    <path d="M44.9442623,3.0295082 L3.0557377,3.0295082 C1.40327869,3.0295082 0.0655737705,1.69180328 0.0655737705,0.0393442623 L0.0655737705,0.28852459 C0.0655737705,1.94098361 1.40327869,3.27868852 3.0557377,3.27868852 L44.9442623,3.27868852 C46.5967213,3.27868852 47.9344262,1.94098361 47.9344262,0.28852459 L47.9344262,0.0393442623 C47.9344262,1.69180328 46.5967213,3.0295082 44.9442623,3.0295082 Z" id="XMLID_27_"></path>
                </g>
                <rect id="XMLID_53_" fill="#E1E1E1" x="3.0557377" y="0.0131147541" width="41.8885246" height="35.9081967"></rect>
                <g id="XMLID_43_">
                    <g id="XMLID_49_" transform="translate(6.032787, 2.885246)">
                        <polygon id="XMLID_25_" fill="#EEEEEE" points="41.9016393 0.118032787 0.0131147541 32.7868852 0.0131147541 33.0360656 38.9114754 33.0360656"></polygon>
                        <polygon id="XMLID_24_" fill="#E1E1E1" opacity="0.4" points="41.9016393 0.118032787 0.0131147541 32.7868852 0.0131147541 33.0360656 38.9114754 33.0360656"></polygon>
                    </g>
                    <polygon id="XMLID_46_" fill-opacity="0.4" fill="#FFFFFF" points="6.04590164 35.6721311 6.04590164 35.9213115 41.9540984 7.92131148 41.9540984 7.67213115"></polygon>
                    <path d="M41.9540984,3.00327869 L44.9442623,0.0131147541 C46.5967213,0.0131147541 47.9344262,1.35081967 47.9344262,3.00327869 L47.9344262,32.9180328 C47.9344262,34.5704918 46.5967213,35.9081967 44.9442623,35.9081967 L41.9540984,35.9081967 L41.9540984,3.00327869 Z" id="XMLID_45_" fill="#B93221"></path>
                    <path d="M6.04590164,3.00327869 L3.0557377,0.0131147541 C1.40327869,0.0131147541 0.0655737705,1.35081967 0.0655737705,3.00327869 L0.0655737705,32.9180328 C0.0655737705,34.5704918 1.40327869,35.9081967 3.0557377,35.9081967 L6.04590164,35.9081967 L6.04590164,3.00327869 Z" id="XMLID_44_" fill="#D23F31"></path>
                </g>
                <g id="XMLID_7_" opacity="0.4" transform="translate(0.918033, 2.885246)" fill="url(#radialGradient-1)">
                    <path d="M30.8196721,33.0360656 L0.0131147541,2.2295082 L23.0819672,11.6196721 L47.0163934,0.118032787 L47.0163934,30.0327869 C47.0163934,31.6852459 45.6786885,33.0229508 44.0262295,33.0229508 L30.8196721,33.0229508 L30.8196721,33.0360656 Z" id="XMLID_29_"></path>
                </g>
                <g id="XMLID_42_" fill="#FFFFFF">
                    <path d="M44.9442623,0.0131147541 L3.0557377,0.0131147541 C1.40327869,0.0131147541 0.0655737705,1.35081967 0.0655737705,3.00327869 C0.0655737705,4.01311475 0.563934426,4.89180328 1.32459016,5.44262295 L24,21.6655738 L46.6754098,5.44262295 C47.4360656,4.90491803 47.9344262,4.01311475 47.9344262,3.00327869 C47.9344262,1.35081967 46.5967213,0.0131147541 44.9442623,0.0131147541 Z" id="XMLID_47_"></path>
                </g>
                <polygon id="XMLID_32_" fill="#EEEEEE" points="24 21.6655738 44.9442623 0.0131147541 3.0557377 0.0131147541"></polygon>
                <path d="M46.6754098,5.44262295 C47.4360656,4.90491803 47.9344262,4.01311475 47.9344262,3.00327869 C47.9344262,1.35081967 46.5967213,0.0131147541 44.9442623,0.0131147541 L43.947541,0.0131147541 L24,14.504918 L4.05245902,0.0131147541 L3.0557377,0.0131147541 C1.40327869,0.0131147541 0.0655737705,1.35081967 0.0655737705,3.00327869 C0.0655737705,4.01311475 0.563934426,4.89180328 1.32459016,5.44262295 L24,21.6655738 L46.6754098,5.44262295 Z" id="XMLID_31_" fill="#DB4437"></path>
                <g id="XMLID_28_" fill="#263238" opacity="0.04">
                    <path d="M44.9442623,0.0131147541 L3.0557377,0.0131147541 C1.40327869,0.0131147541 0.0655737705,1.35081967 0.0655737705,3.00327869 L0.0655737705,3.25245902 C0.0655737705,1.6 1.40327869,0.262295082 3.0557377,0.262295082 L44.9442623,0.262295082 C46.5967213,0.262295082 47.9344262,1.6 47.9344262,3.25245902 L47.9344262,3.00327869 C47.9344262,1.35081967 46.5967213,0.0131147541 44.9442623,0.0131147541 Z" id="XMLID_26_"></path>
                </g>
                <g id="XMLID_6_" transform="translate(0.000000, 2.754098)" fill="#3E2723" opacity="0.24">
                    <path d="M46.6754098,2.43934426 L24,18.6622951 L1.32459016,2.43934426 C0.590163934,1.9147541 0.118032787,1.07540984 0.0786885246,0.118032787 C0.0786885246,0.157377049 0.0655737705,0.209836066 0.0655737705,0.249180328 C0.0655737705,1.25901639 0.563934426,2.13770492 1.32459016,2.68852459 L24,18.9114754 L46.6754098,2.68852459 C47.4360656,2.15081967 47.9344262,1.25901639 47.9344262,0.249180328 C47.9344262,0.196721311 47.9344262,0.157377049 47.9213115,0.118032787 C47.895082,1.07540984 47.4098361,1.9147541 46.6754098,2.43934426 Z" id="XMLID_22_"></path>
                </g>
                <g id="XMLID_5_" fill="url(#radialGradient-2)" opacity="0.08">
                    <path d="M44.9442623,0.0131147541 L3.0557377,0.0131147541 C1.40327869,0.0131147541 0.0655737705,1.35081967 0.0655737705,3.00327869 L0.0655737705,32.9180328 C0.0655737705,34.5704918 1.40327869,35.9081967 3.0557377,35.9081967 L44.9442623,35.9081967 C46.5967213,35.9081967 47.9344262,34.5704918 47.9344262,32.9180328 L47.9344262,3.00327869 C47.9344262,1.35081967 46.5967213,0.0131147541 44.9442623,0.0131147541 Z" id="XMLID_23_"></path>
                </g>
            </g>
        </g>
    </g>
</svg>