<?xml version="1.0" encoding="UTF-8"?>
<!--
 ~   Copyright 2020, WSO2 Inc. (http://www.wso2.com)
 ~
 ~   Licensed under the Apache License, Version 2.0 (the "License");
 ~   you may not use this file except in compliance with the License.
 ~   You may obtain a copy of the License at
 ~
 ~        http://www.apache.org/licenses/LICENSE-2.0
 ~
 ~   Unless required by applicable law or agreed to in writing, software
 ~   distributed under the License is distributed on an "AS IS" BASIS,
 ~   WITHOUT WARRANTIES OR CONDITIONS OF ANY KIND, either express or implied.
 ~   See the License for the specific language governing permissions and
 ~   limitations under the License.
-->
<svg x="0px" y="0px" viewBox="0 0 48 32" version="1.1" xmlns="http://www.w3.org/2000/svg" xmlns:xlink="http://www.w3.org/1999/xlink">
    <title>HTTP</title>
  <g id="Group_125" data-name="Group 125" transform="translate(-273.261 -405)">
    <g id="Rectangle">
      <rect id="Rectangle_2" data-name="Rectangle 2" width="48" height="32" rx="14" transform="translate(273.261 405)" fill="#5567d5"/>
    </g>
    <g id="http" style="isolation: isolate">
      <g id="Group_122" data-name="Group 122" style="isolation: isolate">
        <path id="Path_5" data-name="Path 5" d="M287.019,417.688a2.948,2.948,0,0,1,2.375.96,3.918,3.918,0,0,1,.82,2.625v4.735H288.1v-4.336a2.3,2.3,0,0,0-.438-1.484,1.555,1.555,0,0,0-1.289-.54,1.746,1.746,0,0,0-1.414.641,2.582,2.582,0,0,0-.539,1.711v4h-2.109V414.32h2.109v4.61a3.122,3.122,0,0,1,2.6-1.25Z" fill="#fff"/>
      </g>
      <g id="Group_123" data-name="Group 123" style="isolation: isolate">
        <path id="Path_6" data-name="Path 6" d="M296.843,425.742a5.044,5.044,0,0,1-1.891.383,2.569,2.569,0,0,1-2.023-.766,3.084,3.084,0,0,1-.68-2.125v-3.476H290.89v-1.852h1.359v-2.625h2.125v2.625h2.367v1.852h-2.367v3.476a.891.891,0,0,0,.992,1.024,2.115,2.115,0,0,0,.961-.227Z" fill="#fff"/>
      </g>
      <g id="Group_124" data-name="Group 124" style="isolation: isolate">
        <path id="Path_7" data-name="Path 7" d="M303.637,425.742a5.044,5.044,0,0,1-1.891.383,2.569,2.569,0,0,1-2.023-.766,3.084,3.084,0,0,1-.68-2.125v-3.476h-1.359v-1.852h1.359v-2.625h2.125v2.625h2.367v1.852h-2.367v3.476a.891.891,0,0,0,.992,1.024,2.115,2.115,0,0,0,.961-.227Z" fill="#fff"/>
        <path id="Path_8" data-name="Path 8" d="M309.3,417.68a3.746,3.746,0,0,1,2.843,1.218,4.625,4.625,0,0,1,0,6.1,3.717,3.717,0,0,1-2.828,1.227,3.185,3.185,0,0,1-2.625-1.219v4.351h-2.109V417.906H306.7v.977a3.171,3.171,0,0,1,2.625-1.2Zm-.368,6.672a2.186,2.186,0,0,0,1.641-.672,2.386,2.386,0,0,0,.641-1.727,2.36,2.36,0,0,0-.641-1.711,2.179,2.179,0,0,0-1.641-.664,2.234,2.234,0,0,0-1.64.672,2.286,2.286,0,0,0-.664,1.688,2.344,2.344,0,0,0,.664,1.718,2.21,2.21,0,0,0,1.64.68Z" fill="#fff"/>
      </g>
    </g>
  </g>
</svg>
