<?xml version="1.0" encoding="UTF-8"?>
<!--
 ~   Copyright 2020, WSO2 Inc. (http://www.wso2.com)
 ~
 ~   Licensed under the Apache License, Version 2.0 (the "License");
 ~   you may not use this file except in compliance with the License.
 ~   You may obtain a copy of the License at
 ~
 ~        http://www.apache.org/licenses/LICENSE-2.0
 ~
 ~   Unless required by applicable law or agreed to in writing, software
 ~   distributed under the License is distributed on an "AS IS" BASIS,
 ~   WITHOUT WARRANTIES OR CONDITIONS OF ANY KIND, either express or implied.
 ~   See the License for the specific language governing permissions and
 ~   limitations under the License.
-->
<svg x="0px" y="0px" viewBox="0 0 44 44" version="1.1" xmlns="http://www.w3.org/2000/svg" xmlns:xlink="http://www.w3.org/1999/xlink">
    <title>Slack</title>
    <g id="Symbols" stroke="none" stroke-width="1" fill="none" fill-rule="evenodd">
        <g id="Logo/Slack" transform="translate(-2.000000, -2.000000)" fill-rule="nonzero">
            <g id="Slack" transform="translate(2.000000, 2.000000)">
                <path d="M3.73581999,23.1407407 C2.10619036,23.1407407 0.721005171,22.162963 0.191375541,20.6555556 C0.191375541,20.6148148 0.150634801,20.5333333 0.150634801,20.4925926 C-0.41973557,18.537037 0.68026443,16.5 2.59507925,15.8481481 L33.7210052,5.41851852 C34.0876718,5.2962963 34.4950792,5.25555556 34.8617459,5.25555556 C36.5321163,5.25555556 37.9580422,6.23333333 38.4876718,7.78148148 L38.5284126,7.94444444 C39.0987829,9.98148148 37.672857,11.8148148 35.9210052,12.3851852 C35.9210052,12.3851852 35.5950792,12.5074074 4.95804221,22.937037 C4.59137554,23.0592593 4.14322739,23.1407407 3.73581999,23.1407407 Z" id="XMLID_10_" fill="#70CADB"></path>
                <path d="M8.90989406,38.4592593 C7.23952369,38.4592593 5.8543385,37.5222222 5.36544962,36.0148148 C5.36544962,35.9740741 5.32470887,35.8925926 5.32470887,35.8518519 C4.7543385,33.8555556 5.8543385,31.8185185 7.76915332,31.1666667 L38.8950792,20.6148148 C39.3024867,20.4925926 39.7098941,20.4111111 40.1173015,20.4111111 C41.7876718,20.4111111 43.2135978,21.4296296 43.7432274,22.937037 L43.7839681,23.1 C44.0691533,24.1592593 43.9061904,25.3407407 43.2950792,26.2777778 C42.8469311,26.9703704 41.4617459,27.5814815 41.4617459,27.5814815 L10.2135978,38.2555556 C9.80619036,38.3777778 9.35804221,38.4185185 8.90989406,38.4592593 L8.90989406,38.4592593 Z" id="XMLID_11_" fill="#E01765"></path>
                <path d="M34.8210052,38.5 C33.1506348,38.5 31.6839681,37.4814815 31.1543385,35.8925926 L20.7654496,5.05185185 L20.7247089,4.88888889 C20.1543385,2.93333333 21.2543385,0.855555556 23.1691533,0.203703704 C23.5765607,0.0814814815 23.9432274,5.78960748e-15 24.3506348,5.78960748e-15 C24.9617459,5.78960748e-15 25.5321163,0.122222222 26.0617459,0.407407407 C26.9580422,0.855555556 27.6506348,1.62962963 27.9765607,2.60740741 L38.3654496,33.4481481 L38.4061904,33.5296296 C38.9765607,35.5666667 37.9173015,37.6444444 35.9617459,38.2962963 C35.63582,38.4185185 35.2284126,38.5 34.8210052,38.5 Z" id="XMLID_12_" fill="#E8A723"></path>
                <path d="M19.3802644,43.7148148 C17.7098941,43.7148148 16.2432274,42.6962963 15.7135978,41.1074074 L5.32470887,10.2666667 C5.32470887,10.2259259 5.28396813,10.1444444 5.28396813,10.1037037 C4.71359776,8.14814815 5.81359776,6.07037037 7.72841258,5.41851852 C8.09507925,5.2962963 8.50248665,5.21481481 8.90989406,5.21481481 C10.5802644,5.21481481 12.0469311,6.23333333 12.5765607,7.82222222 L22.9654496,38.662963 C22.9654496,38.7037037 23.0061904,38.7851852 23.0061904,38.8259259 C23.5765607,40.7814815 22.4765607,42.8592593 20.5617459,43.5111111 C20.1950792,43.6333333 19.7876718,43.7148148 19.3802644,43.7148148 L19.3802644,43.7148148 L19.3802644,43.7148148 Z" id="XMLID_13_" fill="#3EB890"></path>
                <polygon id="XMLID_14_" fill="#CC2027" points="29.6876718 31.5740741 36.9395237 29.0888889 34.5765607 22.0407407 27.3247089 24.4851852"></polygon>
                <polygon id="XMLID_15_" fill="#361238" points="14.2876718 36.8296296 21.5395237 34.3444444 19.13582 27.2555556 11.8839681 29.7407407"></polygon>
                <polygon id="XMLID_16_" fill="#65863A" points="24.5543385 16.2555556 31.8061904 13.7703704 29.4432274 6.84444444 22.1913755 9.24814815"></polygon>
                <polygon id="XMLID_17_" fill="#1A937D" points="9.11359776 21.5111111 16.3654496 19.0259259 14.0024867 12.0185185 6.7506348 14.4222222"></polygon>
            </g>
        </g>
    </g>
</svg>