<?xml version="1.0" encoding="UTF-8"?>
<svg width="14px" height="14px" viewBox="0 0 14 14" version="1.1" xmlns="http://www.w3.org/2000/svg" xmlns:xlink="http://www.w3.org/1999/xlink">
    <title>add-icon</title>
    <defs>
        <path d="M7,0 C7.55228475,-1.01453063e-16 8,0.44771525 8,1 L8,5.999 L13,6 C13.5522847,6 14,6.44771525 14,7 C14,7.55228475 13.5522847,8 13,8 L8,7.999 L8,13 C8,13.5522847 7.55228475,14 7,14 C6.44771525,14 6,13.5522847 6,13 L6,7.999 L1,8 C0.44771525,8 0,7.55228475 0,7 C0,6.44771525 0.44771525,6 1,6 L6,5.999 L6,1 C6,0.44771525 6.44771525,1.01453063e-16 7,0 Z" id="path-1"></path>
    </defs>
    <g id="API" stroke="none" stroke-width="1" fill="none" fill-rule="evenodd">
        <g id="Portal-Resources-API" transform="translate(-877.000000, -389.000000)">
            <g id="Button/Primary/Square/Default" transform="translate(868.000000, 380.000000)">
                <g id="Icon/Download" transform="translate(9.000000, 9.000000)">
                    <mask id="mask-2" fill="white">
                        <use xlink:href="#path-1"></use>
                    </mask>
                    <use id="Combined-Shape" fill="#FFFFFF" xlink:href="#path-1"></use>
                </g>
            </g>
        </g>
    </g>
</svg>
