<?xml version="1.0" encoding="UTF-8"?>
<svg width="20px" height="20px" viewBox="0 0 20 20" version="1.1" xmlns="http://www.w3.org/2000/svg" xmlns:xlink="http://www.w3.org/1999/xlink">
    <title>49475A32-968E-4FF1-8C35-E453CC850704</title>
    <defs>
        <linearGradient x1="100%" y1="-6.44042969%" x2="26.2255859%" y2="87.2729492%" id="linearGradient-1">
            <stop stop-color="#EF5DFF" offset="0%"></stop>
            <stop stop-color="#5567D5" offset="100%"></stop>
        </linearGradient>
    </defs>
    <g id="Develop" stroke="none" stroke-width="1" fill="none" fill-rule="evenodd">
        <g id="develop-new-perfom-banner" transform="translate(-1331.000000, -150.000000)">
            <g id="Group" transform="translate(1331.000000, 150.000000)">
                <path d="M11.5,0.866025404 L17.160254,4.1339746 C18.0884573,4.66987298 18.660254,5.66025404 18.660254,6.73205081 L18.660254,13.2679492 C18.660254,14.339746 18.0884573,15.330127 17.160254,15.8660254 L11.5,19.1339746 C10.5717968,19.669873 9.42820323,19.669873 8.5,19.1339746 L2.83974596,15.8660254 C1.91154273,15.330127 1.33974596,14.339746 1.33974596,13.2679492 L1.33974596,6.73205081 C1.33974596,5.66025404 1.91154273,4.66987298 2.83974596,4.1339746 L8.5,0.866025404 C9.42820323,0.330127019 10.5717968,0.330127019 11.5,0.866025404 Z" id="Polygon" fill="url(#linearGradient-1)"></path>
                <path d="M11,2.57735027 L15.9282032,5.42264973 C16.5470054,5.77991532 16.9282032,6.44016936 16.9282032,7.15470054 L16.9282032,12.8452995 C16.9282032,13.5598306 16.5470054,14.2200847 15.9282032,14.5773503 L11,17.4226497 C10.3811978,17.7799153 9.61880215,17.7799153 9,17.4226497 L4.07179677,14.5773503 C3.45299462,14.2200847 3.07179677,13.5598306 3.07179677,12.8452995 L3.07179677,7.15470054 C3.07179677,6.44016936 3.45299462,5.77991532 4.07179677,5.42264973 L9,2.57735027 C9.61880215,2.22008468 10.3811978,2.22008468 11,2.57735027 Z" id="Polygon" fill="#FFFFFF"></path>
                <text id="AI" font-family="Futura-Bold, Futura" font-size="8.5" font-weight="bold" fill="#5567D5">
                    <tspan x="5" y="13">AI</tspan>
                </text>
            </g>
        </g>
    </g>
</svg>
