<?xml version="1.0" encoding="UTF-8"?>
<svg width="18px" height="14px" viewBox="0 0 18 14" version="1.1" xmlns="http://www.w3.org/2000/svg" xmlns:xlink="http://www.w3.org/1999/xlink">
    <g id="Develop" stroke="none" stroke-width="1" fill="none" fill-rule="evenodd">
        <g id="develop-analyze-advance" transform="translate(-735.000000, -80.000000)">
            <g id="Icon/Controls/Analyze" transform="translate(735.000000, 80.000000)">
                <path d="M1.5,8 C2.05228475,8 2.5,8.44771525 2.5,9 L2.5,13 C2.5,13.5522847 2.05228475,14 1.5,14 C0.94771525,14 0.5,13.5522847 0.5,13 L0.5,9 C0.5,8.44771525 0.94771525,8 1.5,8 Z M6.5,2 C7.05228475,2 7.5,2.44771525 7.5,3 L7.5,13 C7.5,13.5522847 7.05228475,14 6.5,14 C5.94771525,14 5.5,13.5522847 5.5,13 L5.5,3 C5.5,2.44771525 5.94771525,2 6.5,2 Z M11.5,0 C12.0522847,-1.01453063e-16 12.5,0.44771525 12.5,1 L12.5,13 C12.5,13.5522847 12.0522847,14 11.5,14 C10.9477153,14 10.5,13.5522847 10.5,13 L10.5,1 C10.5,0.44771525 10.9477153,1.01453063e-16 11.5,0 Z M16.5,4 C17.0522847,4 17.5,4.44771525 17.5,5 L17.5,13 C17.5,13.5522847 17.0522847,14 16.5,14 C15.9477153,14 15.5,13.5522847 15.5,13 L15.5,5 C15.5,4.44771525 15.9477153,4 16.5,4 Z" id="path-1"></path>
                <use id="Combined-Shape" fill="#5567D5" fill-rule="nonzero" xlink:href="#path-1"></use>
            </g>
        </g>
    </g>
</svg>
