<?xml version="1.0" encoding="UTF-8"?>
<svg width="16px" height="16px" viewBox="0 0 16 16" version="1.1" xmlns="http://www.w3.org/2000/svg" xmlns:xlink="http://www.w3.org/1999/xlink">
    <title>77AB08DC-D344-406D-A2A5-003C33519AA5</title>
    <g id="Home" stroke="none" stroke-width="1" fill="none" fill-rule="evenodd">
        <g id="new-home-page-2" transform="translate(-302.000000, -24.000000)" fill="#36B475" fill-rule="nonzero">
            <path d="M310,24 C305.581722,24 302,27.581722 302,32 C302,36.418278 305.581722,40 310,40 C314.418278,40 318,36.418278 318,32 C318,29.8782681 317.157145,27.8434368 315.656854,26.3431458 C314.156563,24.8428547 312.121732,24 310,24 Z M307.658182,28.1490909 C307.857944,27.8294704 308.208544,27.6356094 308.585455,27.6363614 L311.414545,27.6363614 C311.791456,27.6356094 312.142056,27.8294704 312.341818,28.1490909 L313.610909,30.1818182 L306.389091,30.1818182 L307.658182,28.1490909 Z M312.545455,36.3636364 C311.590279,36.3661152 310.796042,35.6290639 310.727273,34.6763636 C310.547367,34.4637545 310.27807,34.3479571 310,34.3636364 C309.72193,34.3479571 309.452633,34.4637545 309.272727,34.6763636 C309.193692,35.5806226 308.451261,36.2831164 307.544017,36.3120825 C306.636773,36.3410486 305.851042,35.6873453 305.714485,34.7899697 C305.577928,33.8925941 306.133642,33.0347579 307.008435,32.7925444 C307.883228,32.5503309 308.801016,33.0001827 309.145455,33.84 C309.693038,33.5684798 310.336053,33.5684798 310.883636,33.84 C311.237848,32.9986765 312.160978,32.5504214 313.041188,32.792332 C313.921399,33.0342425 314.485782,33.8913146 314.360273,34.7954931 C314.234763,35.6996715 313.458276,36.370617 312.545455,36.3636364 Z M314.727273,31.2727273 L305.272727,31.2727273 C305.071896,31.2727273 304.909091,31.1099217 304.909091,30.9090909 C304.909091,30.7082601 305.071896,30.5454545 305.272727,30.5454545 L314.727273,30.5454545 C314.928104,30.5454545 315.090909,30.7082601 315.090909,30.9090909 C315.090909,31.1099217 314.928104,31.2727273 314.727273,31.2727273 Z" id="Shape"></path>
        </g>
    </g>
</svg>
