<?xml version="1.0" encoding="UTF-8"?>
<svg width="204px" height="229px" viewBox="0 0 204 229" version="1.1" xmlns="http://www.w3.org/2000/svg" xmlns:xlink="http://www.w3.org/1999/xlink">
    <title>API-Create-From-Proxy</title>
    <g id="Home" stroke="none" stroke-width="1" fill="none" fill-rule="evenodd">
        <g id="new-APIs-landing" transform="translate(-916.000000, -220.000000)">
            <g id="create-an-proxy" transform="translate(1017.790850, 334.324878) scale(-1, 1) translate(-1017.790850, -334.324878) translate(916.290850, 220.755736)">
                <path d="M160.223693,19.9956034 C184.831811,38.2087556 203.810811,61.8815204 202.973319,84.5396349 C202.135826,107.197749 189.274036,120.647857 171.490859,140.518391 C153.707681,160.388926 165.545895,186.338651 143.216924,198.427793 C120.887952,210.516936 91.3090446,216.651778 67.1842558,209.217028 C43.059467,201.782278 24.3762973,180.839319 12.5222344,158.632562 C0.668171485,136.425804 -4.54011625,112.922749 4.80146863,95.9589529 C14.1430535,78.9951565 38.0261778,68.5164556 57.9635032,49.6280735 C77.9008287,30.7396915 67.0792727,17.9217971 90.1749038,10.6531461 C113.270535,3.3844952 135.678075,1.78606212 160.223693,19.9956034 Z" id="Path" fill="#F7F8FB" fill-rule="nonzero"></path>
                <ellipse id="Oval" stroke="#B6C6FC" stroke-width="0.9" stroke-linecap="round" stroke-linejoin="round" cx="87.9229652" cy="167.638391" rx="16.0279153" ry="16"></ellipse>
                <path d="M42.9553468,155.887177 C42.7002064,158.371213 39.6580323,181.872165 33.8288246,226.390034 L59.349245,226.390034 C62.6358022,220.837661 64.2790807,218.061474 64.2790807,218.061474 L58.0026269,152.291469 L42.9553468,155.887177 Z" id="Path" fill="#5567D5" fill-rule="nonzero"></path>
                <path d="M39.6505282,87.7529933 C37.885557,85.2719543 33.8828544,74.5837104 33.8828544,72.4712315 C33.8828544,70.3587527 46.0395439,28.0642299 46.8049651,24.4685212 C47.5703863,20.8728126 47.5478739,10.7014518 46.8049651,7.35294809 C47.1291435,6.10343934 47.9891167,5.69892212 48.2142406,6.45402093 C48.8040652,6.93045233 52.158411,8.93955453 52.158411,8.93955453 C52.158411,8.93955453 60.001727,19.7266804 58.2502632,22.162773 C56.8156103,24.0943682 55.5602335,26.1524287 54.4996994,28.3114348 C54.0764665,31.0306895 47.8855597,66.0663755 48.1962307,68.3136934 C48.5069017,70.5610113 54.7428332,81.8919882 54.9049223,82.696528 C53.5586815,83.4111751 40.4429642,88.5845009 39.6505282,87.7529933 Z" id="Path" fill="#FFFFFF" fill-rule="nonzero"></path>
                <path d="M45.2170544,42.8849003 C48.1031425,32.5157755 50.8721663,22.6590392 51.2143546,20.9960239 C51.9572634,17.4003153 51.9572634,7.22895447 51.2143546,3.8804508 C51.538533,2.63094205 52.3985062,2.22642483 52.6236301,2.98152364" id="Path" stroke="#32324D" stroke-linecap="round" stroke-linejoin="round" transform="translate(48.920342, 22.743003) rotate(11.000000) translate(-48.920342, -22.743003) "></path>
                <path d="M37.8495371,85.9551389 C36.0845659,83.4741 32.0818633,72.7858561 32.0818633,70.6733772 C32.0818633,69.8778267 33.8288246,63.3111638 36.0395411,55.2657657" id="Path" stroke="#32324D" stroke-linecap="round" stroke-linejoin="round"></path>
                <polygon id="Rectangle" fill="#EAF0FF" fill-rule="nonzero" points="56.851397 0.725439342 185.005591 3.89935433e-17 185.851397 89.18755 57.6972031 89.9129893"></polygon>
                <polygon id="Rectangle" fill="#D8DFFF" fill-rule="nonzero" points="130.852874 0.700134606 188.386922 0.383758853 189.279599 89.5841198 131.745551 89.9004956"></polygon>
                <ellipse id="Oval" fill="#EAF0FF" fill-rule="nonzero" transform="translate(160.367951, 26.933283) rotate(14.000000) translate(-160.367951, -26.933283) " cx="160.367951" cy="26.9332832" rx="17.8253089" ry="17.7942631"></ellipse>
                <polygon id="Rectangle" fill="#EAF0FF" fill-rule="nonzero" transform="translate(160.818851, 56.747735) rotate(-0.420000) translate(-160.818851, -56.747735) " points="139.197164 54.6641534 182.438791 54.6823194 182.440537 58.8313171 139.19891 58.8131511"></polygon>
                <polygon id="Rectangle" fill="#EAF0FF" fill-rule="nonzero" transform="translate(160.897629, 66.736920) rotate(-0.420000) translate(-160.897629, -66.736920) " points="139.275943 64.6533377 182.517569 64.6715038 182.519315 68.8205015 139.277688 68.8023354"></polygon>
                <path d="M59.349245,226.390034 C60.895751,220.203062 62.0278419,215.800673 62.0278419,215.800673 L55.7513881,150.044151 L40.7041079,153.639859 C40.5150039,155.505133 38.6059534,169.874484 36.5618285,185.403451" id="Path" stroke="#32324D" stroke-linecap="round" stroke-linejoin="round"></path>
                <path d="M49.5919988,159.145788 C49.5919988,161.393106 51.4650294,188.109221 57.8765576,209.260977 C58.5264516,212.359316 59.910213,218.318419 62.0278419,227.138284 L87.6558036,226.964222 L84.4006532,153.765709 L49.5919988,159.145788 Z" id="Path" fill="#5567D5" fill-rule="nonzero"></path>
                <path d="M85.2315311,227.138284 L82.1494144,151.518391 L47.34076,156.911954 C47.34076,159.159272 49.2137906,185.875387 55.6253188,207.027143 C56.588849,211.616167 57.9666071,218.326658 59.5199619,225.963044" id="Path" stroke="#32324D" stroke-linecap="round" stroke-linejoin="round"></path>
                <path d="M103.09494,98.7109153 C106.696922,100.616641 118.16023,105.789967 119.542491,105.789967 C120.924752,105.789967 140.704136,99.2727448 141.748711,97.2816212 C142.793285,95.2904975 143.87388,89.9868273 145.683876,89.4564602 C147.493872,88.9260932 146.47181,93.5915252 146.47181,93.5915252 C147.543399,93.2409436 164.459208,88.8406951 164.382666,88.9305878 C164.832913,91.3487019 155.679376,98.2030215 154.724851,98.4502265 C150.019762,103.71794 120.72214,120.114371 119.447939,120.114371 C118.173738,120.114371 98.3808462,114.720808 97.1336599,114.271344 C97.3812962,112.433038 101.383999,100.009865 103.09494,98.7109153 Z" id="Path" fill="#FFFFFF" fill-rule="nonzero"></path>
                <path d="M60.8169721,25.0942898 C61.947094,23.5840922 63.1987827,21.9480448 63.1402505,19.6153288" id="Path" stroke="#32324D" stroke-linecap="round" stroke-linejoin="round" transform="translate(61.979600, 22.354809) rotate(11.000000) translate(-61.979600, -22.354809) "></path>
                <path d="M53.2565216,79.2113388 C52.3560261,76.4786002 47.0115851,67.5971999 46.8720083,65.2779678 C46.736934,63.0306499 52.0588625,31.622135 53.0223927,26.7814122" id="Path" stroke="#32324D" stroke-linecap="round" stroke-linejoin="round" transform="translate(50.063002, 52.996376) rotate(11.000000) translate(-50.063002, -52.996376) "></path>
                <path d="M55.2200958,112.500458 C48.9931692,115.197239 34.9589465,92.8499103 38.0116263,89.2946533 C42.2799751,84.3955003 54.3015903,80.6245009 58.4213574,82.2111073 C60.501502,85.0562118 65.8099231,107.938403 55.2200958,112.500458 Z" id="Path" fill="#A6B3FF" fill-rule="nonzero"></path>
                <path d="M53.4191047,110.702604 C47.1921782,113.399385 33.1579555,91.0520559 36.2106353,87.496799 C40.4789841,82.597646 52.5005993,78.8266466 56.6203663,80.413253 C58.700511,83.2583575 64.0089321,106.140548 53.4191047,110.702604 Z" id="Path" stroke="#32324D" stroke-linecap="round" stroke-linejoin="round"></path>
                <path d="M111.721687,117.242299 C114.454691,117.876042 116.674413,118.312022 117.421824,118.312022 C119.75861,118.312022 147.174196,102.508883 152.698736,96.7827166 C158.016162,93.7038911 161.361503,90.2654947 162.581675,87.6181542" id="Path" stroke="#32324D" stroke-linecap="round" stroke-linejoin="round"></path>
                <path d="M96.0170455,112.994868 C96.9895806,113.363428 99.2453219,114.028634 101.955813,114.765754" id="Path" stroke="#32324D" stroke-linecap="round" stroke-linejoin="round"></path>
                <path d="M129.934209,100.135715 C134.837407,98.3378606 139.452447,96.4186511 139.94772,95.4837668 C141.010304,93.4926432 142.072889,88.1889729 143.882885,87.6586059 C145.692881,87.1282389 144.670819,91.7936708 144.670819,91.7936708" id="Path" stroke="#32324D" stroke-linecap="round" stroke-linejoin="round"></path>
                <path d="M101.293949,96.913061 C104.895931,98.8187866 116.359239,103.992112 117.7415,103.992112 C118.582037,103.852886 119.410115,103.646978 120.217863,103.376347" id="Path" stroke="#32324D" stroke-linecap="round" stroke-linejoin="round"></path>
                <path d="M67.9350926,85.7618696 C88.6870119,85.7618696 90.280889,126.874303 84.5357275,158.741271 C78.9481528,160.988589 47.3452624,161.927968 42.0773636,156.826556 C40.1638106,149.819419 33.351562,85.7663642 67.9350926,85.7618696 Z" id="Path" fill="#A6B3FF" fill-rule="nonzero"></path>
                <path d="M40.2448552,112.504953 C43.1804706,97.3220729 50.3439125,83.9640153 66.1341015,83.9640153 C80.3439209,83.9640153 85.5712974,103.246003 85.6118197,125.633784" id="Path" stroke="#32324D" stroke-linecap="round" stroke-linejoin="round"></path>
                <path d="M41.505549,155.887177 C41.0582176,155.658821 40.6445912,155.369938 40.2763726,155.028702 C39.6100059,152.597104 38.3583171,143.302197 38.4483667,132.195952" id="Path" stroke="#32324D" stroke-linecap="round" stroke-linejoin="round"></path>
                <path d="M84.9769703,140.048081 C84.4862003,145.783236 83.7162766,151.495918 82.7257315,156.943417 C79.5739972,158.192926 68.2862858,159.042412 58.0251393,158.651378" id="Path" stroke="#32324D" stroke-linecap="round" stroke-linejoin="round"></path>
                <path d="M71.4200102,94.679227 C73.3605781,87.6765845 101.933301,90.8632812 102.892329,95.802886 C104.171032,102.652711 99.2228095,115.242186 95.0715252,117.628837 C91.2399167,117.471525 68.1151917,106.599001 71.4200102,94.679227 Z" id="Path" fill="#A6B3FF" fill-rule="nonzero"></path>
                <path d="M99.4524359,92.1847042 C100.393454,92.7465336 100.983278,93.3622987 101.109348,94.0050317 C102.388051,100.854857 97.4398284,113.444331 93.288544,115.830983 C92.0638701,115.781542 84.5132152,112.437533 80.8481984,110.518324" id="Path" stroke="#32324D" stroke-linecap="round" stroke-linejoin="round"></path>
                <path d="M69.3173532,95.802886 C69.2534375,94.8190582 69.3554096,93.831499 69.6190192,92.8813727 C70.8436931,88.4676404 82.6311795,88.0990802 91.4290208,89.6677081" id="Path" stroke="#32324D" stroke-linecap="round" stroke-linejoin="round"></path>
                <path d="M69.465935,90.4048284 C69.465935,92.2341452 57.8495427,92.4678662 57.8495427,90.4048284 L57.8495427,73.9544614 L69.465935,73.9544614 L69.465935,90.4048284 Z" id="Path" fill="#FFFFFF" fill-rule="nonzero"></path>
                <line x1="67.6649439" y1="83.3167877" x2="67.6649439" y2="88.6069741" id="Path" stroke="#32324D" stroke-linecap="round" stroke-linejoin="round"></line>
                <path d="M62.8878152,90.0362682 C59.6865536,90.1980751 56.0485517,89.7620955 56.0485517,88.6069741 L56.0485517,72.156607 L67.6649439,72.156607 L67.6649439,79.5412937" id="Path" stroke="#32324D" stroke-linecap="round" stroke-linejoin="round"></path>
                <ellipse id="Oval" fill="#FFFFFF" fill-rule="nonzero" cx="66.3502204" cy="61.9492891" rx="11.877536" ry="15.5918916"></ellipse>
                <path d="M72.7257288,71.9948002 C70.6500866,74.3320108 67.9486,75.7433264 64.9994772,75.7433264 C58.4393673,75.7433264 53.1174387,68.763157 53.1174387,60.1514348 C53.1174387,51.5397126 58.4393673,44.5595432 64.9994772,44.5595432 C71.5595871,44.5595432 76.8770131,51.5397126 76.8770131,60.1514348 C76.8998554,62.9631525 76.3066903,65.745866 75.1390568,68.3047042" id="Path" stroke="#32324D" stroke-linecap="round" stroke-linejoin="round"></path>
                <path d="M52.4150522,63.6482615 C52.4150522,51.2295828 56.5438242,39.3412711 60.7041135,39.3412711 C64.8644028,39.3412711 62.5726417,45.2337386 62.5726417,45.2337386 C64.3015931,41.7818583 69.6460341,36.4467256 71.9828199,36.4467256 C74.3196058,36.4467256 74.886918,40.0424343 72.4915999,43.7100571 C74.5941684,41.3715339 77.5426522,39.9645487 80.6861092,39.7997239 C83.3875958,39.7997239 83.738789,42.9999046 83.738789,46.1506443 C83.738789,51.7194981 72.0323472,60.2682954 70.7131213,61.7425359 C70.6095643,63.5718527 69.0832244,78.4535918 65.3686803,78.4535918 C61.6541363,78.4535918 52.4150522,77.5411807 52.4150522,63.6482615 Z" id="Path" fill="#FF9D52" fill-rule="nonzero"></path>
                <path d="M67.5838993,72.4262852 C66.7914633,74.8533885 65.7603959,76.6557375 64.4681848,76.6557375 C62.3790352,76.6557375 58.5429243,76.3680808 55.5847965,73.6443315" id="Path" stroke="#32324D" stroke-linecap="round" stroke-linejoin="round"></path>
                <path d="M81.8927732,47.4540887 C79.7270814,51.4992609 74.3286108,56.0253592 71.4875474,58.4389786" id="Path" stroke="#32324D" stroke-linecap="round" stroke-linejoin="round"></path>
                <path d="M76.705919,38.5726884 C77.6957981,38.2210812 78.7352743,38.0284152 79.7856137,38.0018696 C82.0368525,38.0018696 82.6536919,40.2267143 82.7977712,42.7886567" id="Path" stroke="#32324D" stroke-linecap="round" stroke-linejoin="round"></path>
                <path d="M51.5325666,60.3357149 C51.84774,48.4788657 55.8144228,37.5344275 59.803618,37.5344275 C63.9594048,37.5344275 61.6721462,43.426895 61.6721462,43.426895 C63.4010976,39.9750147 68.7455385,34.639882 71.0823244,34.639882 C73.4191103,34.639882 73.9864225,38.2355907 71.5911044,41.9032135" id="Path" stroke="#32324D" stroke-linecap="round" stroke-linejoin="round"></path>
                <ellipse id="Oval" fill="#FFFFFF" fill-rule="nonzero" cx="71.2534186" cy="63.66624" rx="3.77757872" ry="3.77099944"></ellipse>
                <path d="M66.5843493,63.1673354 C66.5775126,63.0340819 66.5775126,62.9005664 66.5843493,62.7673129 C66.5778426,61.4367802 67.2750425,60.2015397 68.4184581,59.5177925 C69.5618738,58.8340453 70.9818329,58.8032529 72.1539141,59.4367877" id="Path" stroke="#32324D" stroke-linecap="round" stroke-linejoin="round"></path>
                <path d="M71.4245127,66.3854947 C71.0769911,66.4901706 70.7159195,66.5431769 70.3529231,66.5428122 C69.3816365,66.544437 68.4474082,66.1707522 67.7459885,65.5000514" id="Path" stroke="#32324D" stroke-linecap="round" stroke-linejoin="round"></path>
            </g>
        </g>
    </g>
</svg>
