<?xml version="1.0" encoding="UTF-8"?>
<svg width="248px" height="144px" viewBox="0 0 248 144" version="1.1" xmlns="http://www.w3.org/2000/svg" xmlns:xlink="http://www.w3.org/1999/xlink">
    <title>C9039AF2-259E-428C-ADD5-29EAA28F4785</title>
    <defs>
        <rect id="path-1" x="0" y="0" width="248" height="144" rx="12"></rect>
        <linearGradient x1="50%" y1="0%" x2="50%" y2="100%" id="linearGradient-3">
            <stop stop-color="#FFFFFF" offset="0%"></stop>
            <stop stop-color="#ECEDF9" offset="100%"></stop>
        </linearGradient>
        <linearGradient x1="27.023476%" y1="55.4520827%" x2="100%" y2="55.4520827%" id="linearGradient-4">
            <stop stop-color="#FFFFFF" offset="0%"></stop>
            <stop stop-color="#FFFFFF" stop-opacity="0" offset="100%"></stop>
        </linearGradient>
    </defs>
    <g id="Home" stroke="none" stroke-width="1" fill="none" fill-rule="evenodd">
        <g id="new-home-page-2" transform="translate(-1120.000000, -472.000000)">
            <g id="marketplace" transform="translate(1120.000000, 472.000000)">
                <mask id="mask-2" fill="white">
                    <use xlink:href="#path-1"></use>
                </mask>
                <use id="Mask" fill="#FFFFFF" xlink:href="#path-1"></use>
                <g mask="url(#mask-2)">
                    <g transform="translate(-10.570000, -27.000000)">
                        <path d="M13.57,61.7894737 L258.57,61.7894737 L258.57,159.789474 C258.57,166.416891 253.197417,171.789474 246.57,171.789474 L13.57,171.789474 L13.57,171.789474 L13.57,61.7894737 Z" id="Rectangle" stroke="none" fill="url(#linearGradient-3)" fill-rule="evenodd" opacity="0.643006098"></path>
                        <path d="M0,33 L60,33 L60,172 L12,172 C5.372583,172 8.11624501e-16,166.627417 0,160 L0,33 L0,33 Z" id="Rectangle" stroke="none" fill="url(#linearGradient-4)" fill-rule="evenodd"></path>
                        <path d="M243.80257,19 C250.188654,28.0588235 252.114585,37.2658244 251.823776,44.3289687 C250.719128,71.1585964 223.553575,96.9791736 200.097662,120.508009 C180.746623,139.919208 161.047902,159.332922 139.196828,173" id="Path" stroke="#A6B3FF" stroke-width="0.5225" fill="none" opacity="0.351717994" fill-rule="nonzero"></path>
                        <path d="M267.57,66 C264.054201,99.471748 213.870567,164.990026 198.57,172 M27.4352841,172 C15.4605192,144.475196 8.21578869,125.535531 18.4502676,93.0234016 C30.1652961,55.8079728 70.7495927,35.3885669 105.57,19" id="Shape" stroke="#E6E8FB" stroke-width="0.5225" fill="none" fill-rule="nonzero"></path>
                        <path d="M26.1440936,150.936232 C12.43621,103.056407 -0.230165376,47.7552863 42.5767417,14.8301744 C50.1008034,9.04301081 56.5474204,4.19534414 62.1435826,0" id="Path" stroke="#FFFFFF" stroke-width="0.5225" fill="none" opacity="0.143243699" fill-rule="nonzero"></path>
                        <path d="M67.8809741,172 C50.43875,130.976862 52.3362965,90.5932351 85.4357396,58.1571856 C101.340655,42.5710438 133.65358,27.566804 159.344336,19" id="Path" stroke="#CCD1F2" stroke-width="0.5225" fill="none" opacity="0.517519996" fill-rule="nonzero"></path>
                        <path d="M144.893378,88.7439735 C138.998201,93.3921314 146.776846,118.148888 163.783621,108.585464 C184.91769,96.7011381 201.156295,96.4900554 207.00231,110.072216" id="Path-Copy-3" stroke="#FFFFFF" stroke-width="0.5225" fill="none" stroke-linecap="round" stroke-linejoin="round" stroke-dasharray="2.271872675418854" transform="translate(174.971226, 99.753525) rotate(12.000000) translate(-174.971226, -99.753525) "></path>
                        <path d="M91.2258259,75.5264669 C90.6136933,74.6565533 89.2254639,70.9089906 89.2254639,70.1683033 C89.2254639,69.427616 93.4416836,54.5981102 93.7071493,53.3373658 C93.9726149,52.0766214 93.9648071,48.5102908 93.7071493,47.3362226 C93.8195818,46.8981139 94.1178403,46.7562801 94.1959184,47.0210365 C94.4004832,47.1880851 94.6780032,50.7154545 94.6780032,50.7154545 C94.6780032,50.7154545 95.3864072,51.5167337 96.4341986,51.3963569 C96.7403692,51.3611821 96.5910694,51.1090269 96.9280357,50.8915909 C97.549303,50.7572564 97.3936647,51.8078262 97.3268803,51.9572998 C96.9505361,52.7996154 96.6882436,54.0418738 96.3758602,54.6847864 C96.2290733,55.6382243 94.0819243,67.9226024 94.1896722,68.7105676 C94.29742,69.4985328 96.4601846,73.4714536 96.5164008,73.7535451 C96.0494935,74.0041181 91.500661,75.8180141 91.2258259,75.5264669 Z" id="Path" stroke="none" fill="#FFFFFF" fill-rule="nonzero"></path>
                        <path d="M91.0025224,60.381775 C92.0034842,56.7461034 92.9638453,53.2900879 93.0825241,52.7069936 C93.340182,51.4462492 93.340182,47.8799186 93.0825241,46.7058504 C93.1949566,46.2677417 93.4932152,46.125908 93.5712933,46.3906643" id="Path" stroke="#40404B" stroke-width="0.5225" fill="none" stroke-linecap="round" stroke-linejoin="round"></path>
                        <ellipse id="Oval" stroke="none" fill="#F7F8FD" fill-rule="evenodd" cx="66.7751282" cy="40.339108" rx="7.58974359" ry="7.62036754"></ellipse>
                        <path d="M90.6012008,74.8960947 C89.9890681,74.0261811 88.6008387,70.2786184 88.6008387,69.5379311 C88.6008387,69.2589914 89.2067251,66.956557 89.9734525,64.1356414" id="Path" stroke="#40404B" stroke-width="0.5225" fill="none" stroke-linecap="round" stroke-linejoin="round"></path>
                        <polygon id="Rectangle" stroke="none" fill="#E7E9FB" fill-rule="nonzero" transform="translate(174.440656, 75.847839) rotate(-14.420000) translate(-174.440656, -75.847839) " points="126.392794 41.539168 222.639951 41.3257103 222.488518 110.15651 126.24136 110.369968"></polygon>
                        <polygon id="Rectangle" stroke="none" fill="#8995E1" fill-rule="nonzero" transform="translate(137.524011, 85.426141) rotate(-14.420000) translate(-137.524011, -85.426141) " points="127.615648 51.0328843 147.583808 50.9885988 147.432375 119.819399 127.464214 119.863684"></polygon>
                        <ellipse id="Oval" stroke="none" fill="#FFFFFF" fill-rule="nonzero" cx="131.488136" cy="61.7425926" rx="6.18222733" ry="6.23910875"></ellipse>
                        <polygon id="Rectangle" stroke="none" fill="#FFFFFF" fill-rule="nonzero" transform="translate(134.141428, 71.847511) rotate(-14.420000) translate(-134.141428, -71.847511) " points="126.639342 71.1372718 141.646712 71.1039883 141.643513 72.5577498 126.636144 72.5910332"></polygon>
                        <polygon id="Rectangle" stroke="none" fill="#FFFFFF" fill-rule="nonzero" transform="translate(135.006072, 75.239246) rotate(-14.420000) translate(-135.006072, -75.239246) " points="127.503986 74.5290067 142.511355 74.4957233 142.508157 75.9494847 127.500788 75.9827682"></polygon>
                        <ellipse id="Oval" stroke="none" fill="#FFFFFF" fill-rule="nonzero" cx="158.011802" cy="77.0653646" rx="1" ry="1"></ellipse>
                        <ellipse id="Oval-Copy" stroke="none" fill="#FFFFFF" fill-rule="nonzero" cx="158.678069" cy="79.7339139" rx="1" ry="1"></ellipse>
                        <polygon id="Rectangle" stroke="none" fill="#FFFFFF" fill-rule="nonzero" transform="translate(186.766394, 69.484548) rotate(-14.420000) translate(-186.766394, -69.484548) " points="159.434607 69.2091582 214.099659 69.0879217 214.098181 69.7599385 159.433128 69.8811751"></polygon>
                        <polygon id="Rectangle-Copy" stroke="none" fill="#FFFFFF" fill-rule="nonzero" transform="translate(173.278017, 75.695336) rotate(-14.420000) translate(-173.278017, -75.695336) " points="160.537066 75.5142033 186.020447 75.2044518 186.018968 75.8764687 160.535588 76.1862202"></polygon>
                        <polygon id="Rectangle" stroke="none" fill-opacity="0.708035129" fill="#FFFFFF" fill-rule="nonzero" transform="translate(181.729773, 56.053210) rotate(-14.420000) translate(-181.729773, -56.053210) " points="152.755654 44.7433772 210.753941 44.6147482 210.703893 67.3630432 152.705606 67.4916723"></polygon>
                        <polygon id="Rectangle" stroke="none" fill-opacity="0.708035129" fill="#FFFFFF" fill-rule="nonzero" transform="translate(178.226733, 90.206340) rotate(-14.420000) translate(-178.226733, -90.206340) " points="161.078827 78.8702786 195.424688 78.7941061 195.374639 101.542401 161.028779 101.618574"></polygon>
                        <path d="M123.819544,109.404632 L129.936913,115.578286 C130.452085,116.098198 130.452085,116.936127 129.936913,117.45604 L123.819544,123.629694 C123.301016,124.152992 122.45645,124.156859 121.933151,123.638332 C121.930259,123.635466 121.927379,123.632586 121.924513,123.629694 L115.807144,117.45604 C115.291971,116.936127 115.291971,116.098198 115.807144,115.578286 L121.924513,109.404632 C122.44304,108.881334 123.287607,108.877466 123.810905,109.395994 C123.813798,109.39886 123.816677,109.40174 123.819544,109.404632 Z" id="Polygon" stroke="#FFFFFF" stroke-width="0.5225" fill="none" opacity="0.446783157"></path>
                        <path d="M62.1699636,149.792919 L69.7864329,157.479466 C70.3016055,157.999378 70.3016055,158.837307 69.7864329,159.35722 L62.1699636,167.043767 C61.6514361,167.567065 60.8068694,167.570933 60.2835711,167.052405 C60.2806785,167.049539 60.277799,167.046659 60.2749327,167.043767 L52.6584634,159.35722 C52.1432908,158.837307 52.1432908,157.999378 52.6584634,157.479466 L60.2749327,149.792919 C60.7934602,149.26962 61.6380268,149.265753 62.1613252,149.78428 C62.1642178,149.787147 62.1670973,149.790026 62.1699636,149.792919 Z" id="Polygon-Copy" stroke="none" fill="#EFF0FC" fill-rule="nonzero"></path>
                        <polyline id="Path" stroke="none" fill="#FFFFFF" fill-rule="nonzero" points="83.5850989 143.483741 82.0469595 146.21798 80.1215525 147.715114 85.3840193 153.888034 89.7017406 153.888034 86.8893659 149.506947 87.364081 145.653797"></polyline>
                        <polyline id="Path" stroke="none" fill="#FFFFFF" fill-rule="nonzero" points="103.354485 147.839613 104.110281 150.603795 103.577788 153.888034 115.195816 153.888034 108.374909 149.823709 108.540435 147.839613"></polyline>
                        <path d="M89.0380763,118.391776 C88.7663644,120.531889 88.5446225,122.309539 88.4259437,123.348077 C87.9075048,127.918276 84.531406,139.829158 83.5679217,141.471278 C84.5751297,142.10165 87.5608379,143.784744 87.5608379,143.784744 C87.5608379,143.784744 96.6616262,129.632888 97.0332781,128.285467 C97.4049301,126.938047 98.9867933,120.42315 98.9867933,120.42315 L96.8099746,97.3672874 L91.5912316,98.6280318 C91.525646,99.2820429 90.8635433,104.320293 90.1545938,109.765132" id="Path" stroke="#40404B" stroke-width="0.5225" fill="#5567D5" fill-rule="evenodd" stroke-linecap="round" stroke-linejoin="round"></path>
                        <line x1="101.404093" y1="147.209241" x2="109.104159" y2="147.209241" id="Path" stroke="#40404B" stroke-width="0.5225" fill="none" stroke-linecap="round" stroke-linejoin="round"></line>
                        <polyline id="Path" stroke="#40404B" stroke-width="0.5225" fill="none" stroke-linecap="round" stroke-linejoin="round" points="113.153291 153.257662 114.571191 153.257662 107.750284 149.193337 107.91581 147.209241"></polyline>
                        <polyline id="Path" stroke="#40404B" stroke-width="0.5225" fill="none" stroke-linecap="round" stroke-linejoin="round" points="102.729859 147.209241 103.485656 149.973423 102.953163 153.257662 109.766262 153.257662"></polyline>
                        <line x1="82.5794524" y1="140.946493" x2="88.0183758" y2="144.068411" id="Path" stroke="#40404B" stroke-width="0.5225" fill="none" stroke-linecap="round" stroke-linejoin="round"></line>
                        <line x1="82.0391516" y1="142.323856" x2="87.4796366" y2="145.44735" id="Path" stroke="#40404B" stroke-width="0.5225" fill="none" stroke-linecap="round" stroke-linejoin="round"></line>
                        <polyline id="Path" stroke="#40404B" stroke-width="0.5225" fill="none" stroke-linecap="round" stroke-linejoin="round" points="86.6363927 149.456517 86.2647407 148.876575 86.7394558 145.023425"></polyline>
                        <polyline id="Path" stroke="#40404B" stroke-width="0.5225" fill="none" stroke-linecap="round" stroke-linejoin="round" points="81.9251576 144.69248 81.4223343 145.587608 79.4969273 147.084742 84.7593941 153.257662 89.0771154 153.257662 87.9621595 151.520986"></polyline>
                        <line x1="62.1526487" y1="153.377432" x2="89.0771154" y2="153.257662" id="Path" stroke="#40404B" stroke-width="0.5225" fill="none" stroke-linecap="round" stroke-linejoin="round"></line>
                        <line x1="214.056463" y1="135.023475" x2="240.707136" y2="135.023475" id="Path-Copy" stroke="#40404B" stroke-width="0.5225" fill="none" stroke-linecap="round" stroke-linejoin="round"></line>
                        <path d="M94.6737567,100.558547 C94.6737567,101.346512 95.3233668,110.713843 97.5470323,118.130171 C99.016463,125.212403 103.277968,146.722278 103.277968,146.722278 L108.696591,146.722278 L106.746199,98.6721578 L94.6737567,100.558547 Z" id="Path" stroke="none" fill="#5567D5" fill-rule="nonzero"></path>
                        <path d="M99.7675747,132.21111 C101.185474,139.315405 102.497187,145.934313 102.497187,145.934313 L107.91581,145.934313 L105.965418,97.8841926 L93.8929752,99.7753091 C93.8929752,100.563274 94.5425854,109.930605 96.7662509,117.346934 C97.1004253,118.955959 97.5782636,121.308823 98.1170028,123.986329" id="Path" stroke="#40404B" stroke-width="0.5225" fill="none" stroke-linecap="round" stroke-linejoin="round"></path>
                        <line x1="100.996525" y1="145.934313" x2="108.696591" y2="145.934313" id="Path" stroke="#40404B" stroke-width="0.5225" fill="none" stroke-linecap="round" stroke-linejoin="round"></line>
                        <path d="M113.229808,79.3685854 C114.479058,80.0367799 118.454797,81.8506759 118.934197,81.8506759 C119.413597,81.8506759 126.273543,79.5655767 126.635825,78.8674395 C126.998108,78.1693023 127.372883,76.3097044 128.000631,76.1237446 C128.628379,75.9377848 128.273905,77.5736006 128.273905,77.5736006 C128.645556,77.450678 134.512348,75.9078421 134.485802,75.9393607 C134.641958,76.7872113 131.467301,79.1905053 131.136249,79.2771814 C129.504416,81.124172 119.343327,86.8731663 118.901404,86.8731663 C118.459482,86.8731663 111.594852,84.9820498 111.162299,84.8244567 C111.248185,84.1799012 112.636414,79.8240293 113.229808,79.3685854 Z" id="Path" stroke="none" fill="#FFFFFF" fill-rule="nonzero"></path>
                        <path d="M96.3040283,53.2727527 C96.6959806,52.74324 97.130095,52.1696013 97.1097947,51.3516934" id="Path" stroke="#40404B" stroke-width="0.5225" fill="none" stroke-linecap="round" stroke-linejoin="round"></path>
                        <path d="M95.7855894,72.8473851 C95.4732768,71.8892194 93.6197017,68.7751808 93.5712933,67.9620006 C93.5244464,67.1740354 95.3702137,56.1614332 95.7043881,54.4641561" id="Path" stroke="#40404B" stroke-width="0.5225" fill="none" stroke-linecap="round" stroke-linejoin="round"></path>
                        <path d="M96.6257102,84.2035401 C94.4660688,85.1490984 89.5986774,77.3135721 90.657417,76.0670111 C92.1377786,74.3492468 96.3071514,73.0270412 97.7359814,73.5833446 C98.4574235,74.5809086 100.298506,82.6039707 96.6257102,84.2035401 Z" id="Path" stroke="none" fill="#CBCEDB" fill-rule="nonzero"></path>
                        <path d="M96.0010851,83.5731679 C93.8414437,84.5187262 88.9740523,76.6831999 90.0327919,75.4366389 C91.5131535,73.7188747 95.6825263,72.396669 97.1113563,72.9529724 C97.8327983,73.9505364 99.6738809,81.9735985 96.0010851,83.5731679 Z" id="Path" stroke="#40404B" stroke-width="0.5225" fill="none" stroke-linecap="round" stroke-linejoin="round"></path>
                        <path d="M116.221762,85.8661468 C117.169631,86.088353 117.939482,86.2412182 118.198701,86.2412182 C119.009152,86.2412182 128.517508,80.7002467 130.433546,78.6925112 C132.277752,77.6129989 133.437993,76.4074121 133.861176,75.479189" id="Path" stroke="#40404B" stroke-width="0.5225" fill="none" stroke-linecap="round" stroke-linejoin="round"></path>
                        <path d="M110.775031,84.3768925 C111.112329,84.5061188 111.894672,84.7393565 112.834733,84.9978091" id="Path" stroke="#40404B" stroke-width="0.5225" fill="none" stroke-linecap="round" stroke-linejoin="round"></path>
                        <path d="M122.538284,79.8681554 C124.238826,79.2377832 125.839428,78.5648609 126.0112,78.2370673 C126.379729,77.5389301 126.748258,75.6793322 127.376006,75.4933724 C128.003754,75.3074126 127.649279,76.9432284 127.649279,76.9432284" id="Path" stroke="#40404B" stroke-width="0.5225" fill="none" stroke-linecap="round" stroke-linejoin="round"></path>
                        <path d="M112.605183,78.7382132 C113.854433,79.4064077 117.830172,81.2203037 118.309572,81.2203037 C118.601089,81.1714874 118.888286,81.0992912 119.168432,81.0044012" id="Path" stroke="#40404B" stroke-width="0.5225" fill="none" stroke-linecap="round" stroke-linejoin="round"></path>
                        <path d="M101.035564,74.8283297 C108.232807,74.8283297 108.7856,89.2433658 106.793046,100.416713 C104.855146,101.204678 93.8945368,101.534048 92.0675083,99.7453665 C91.4038441,97.2884909 89.0411995,74.8299056 101.035564,74.8283297 Z" id="Path" stroke="none" fill="#CBCEDB" fill-rule="nonzero"></path>
                        <path d="M91.4319522,84.205116 C92.4500912,78.8816229 94.9345377,74.1979575 100.410939,74.1979575 C105.339231,74.1979575 107.152205,80.9586993 107.166259,88.808409" id="Path" stroke="#40404B" stroke-width="0.5225" fill="none" stroke-linecap="round" stroke-linejoin="round"></path>
                        <path d="M91.8691898,99.415997 C91.714045,99.3359297 91.5705898,99.2346402 91.4428831,99.1149943 C91.2117718,98.2624159 90.7776574,95.0033917 90.8088886,91.1092675" id="Path" stroke="#40404B" stroke-width="0.5225" fill="none" stroke-linecap="round" stroke-linejoin="round"></path>
                        <path d="M106.946079,93.862418 C106.775869,95.8733053 106.508842,97.8763129 106.165298,99.7863407 C105.072204,100.224449 101.157366,100.5223 97.5985639,100.385194" id="Path" stroke="#40404B" stroke-width="0.5225" fill="none" stroke-linecap="round" stroke-linejoin="round"></path>
                        <path d="M102.244213,77.9549758 C102.917247,75.4996761 112.826925,76.6170108 113.159538,78.3489584 C113.603022,80.7506764 111.886864,85.1648577 110.447103,86.0016768 C109.118213,85.9465192 101.098026,82.1343434 102.244213,77.9549758 Z" id="Path" stroke="none" fill="#CBCEDB" fill-rule="nonzero"></path>
                        <path d="M111.966504,77.0803344 C112.29287,77.2773257 112.497435,77.4932281 112.541159,77.7185862 C112.984643,80.1203043 111.268485,84.5344855 109.828724,85.3713046 C109.403979,85.3539694 106.785238,84.1814771 105.514126,83.5085548" id="Path" stroke="#40404B" stroke-width="0.5225" fill="none" stroke-linecap="round" stroke-linejoin="round"></path>
                        <path d="M101.514964,78.3489584 C101.492796,78.004004 101.528162,77.6577414 101.619588,77.3246036 C102.044333,75.7770399 106.132505,75.6478136 109.183799,76.1978133" id="Path" stroke="#40404B" stroke-width="0.5225" fill="none" stroke-linecap="round" stroke-linejoin="round"></path>
                        <path d="M99.2850518,76.3270396 C98.1747806,76.3837731 96.9130378,76.2309078 96.9130378,75.8258937 L96.9130378,70.0579882 L100.94187,70.0579882 L100.94187,72.6472419" id="Path" stroke="#40404B" stroke-width="0.5225" fill="none" stroke-linecap="round" stroke-linejoin="round"></path>
                        <path d="M102.697067,70.0012547 C101.977186,70.8207385 101.040248,71.3155807 100.017425,71.3155807 C97.7422277,71.3155807 95.8964604,68.8681607 95.8964604,65.8486779 C95.8964604,62.8291951 97.7422277,60.381775 100.017425,60.381775 C102.292622,60.381775 104.136828,62.8291951 104.136828,65.8486779 C104.14475,66.8345356 103.939026,67.8102238 103.534064,68.7074157" id="Path" stroke="#40404B" stroke-width="0.5225" fill="none" stroke-linecap="round" stroke-linejoin="round"></path>
                        <path d="M95.6528566,67.0747518 C95.6528566,62.7204559 97.0848097,58.5521198 98.5276938,58.5521198 C99.9705779,58.5521198 99.1757424,60.6181646 99.1757424,60.6181646 C99.7753825,59.40785 101.628958,57.5372205 102.439409,57.5372205 C103.24986,57.5372205 103.446617,58.7979649 102.615865,60.0839242 C103.345084,59.2639801 104.367686,58.7706563 105.45791,58.7128647 C106.394847,58.7128647 106.516649,59.8349272 106.516649,60.9396544 C106.516649,62.8922323 102.456586,65.8896521 101.999048,66.4065573 C101.963132,67.047961 101.433762,72.2658668 100.145473,72.2658668 C98.8571835,72.2658668 95.6528566,71.9459529 95.6528566,67.0747518 Z" id="Path" stroke="none" fill="#FF9D52" fill-rule="nonzero"></path>
                        <path d="M100.913762,70.152544 C100.638927,71.0035464 100.281329,71.6354946 99.8331603,71.6354946 C99.1085952,71.6354946 97.7781436,71.534635 96.7521968,70.5796212" id="Path" stroke="#40404B" stroke-width="0.5225" fill="none" stroke-linecap="round" stroke-linejoin="round"></path>
                        <path d="M105.876409,61.3966743 C105.125297,62.8150117 103.252983,64.4019737 102.267637,65.2482484" id="Path" stroke="#40404B" stroke-width="0.5225" fill="none" stroke-linecap="round" stroke-linejoin="round"></path>
                        <path d="M104.077488,58.2826356 C104.420801,58.1593535 104.781315,58.0918 105.145597,58.0824925 C105.926379,58.0824925 106.140313,58.8625781 106.190283,59.7608584" id="Path" stroke="#40404B" stroke-width="0.5225" fill="none" stroke-linecap="round" stroke-linejoin="round"></path>
                        <path d="M95.3467903,65.913291 C95.4560997,61.7559864 96.8318365,57.9185957 98.2153812,57.9185957 C99.6567037,57.9185957 98.8634298,59.9846406 98.8634298,59.9846406 C99.4630699,58.774326 101.316645,56.9036965 102.127096,56.9036965 C102.937547,56.9036965 103.134304,58.1644409 102.303553,59.4504001" id="Path" stroke="#40404B" stroke-width="0.5225" fill="none" stroke-linecap="round" stroke-linejoin="round"></path>
                        <ellipse id="Oval" stroke="none" fill="#FFFFFF" fill-rule="nonzero" cx="94.8815206" cy="42.931851" rx="1.31015123" ry="1.32220567"></ellipse>
                        <path d="M100.567095,66.9061272 C100.564724,66.8594052 100.564724,66.8125914 100.567095,66.7658694 C100.564838,66.2993517 100.806643,65.8662459 101.203206,65.6265072 C101.599769,65.3867685 102.092243,65.375972 102.498748,65.5981049" id="Path" stroke="#40404B" stroke-width="0.5225" fill="none" stroke-linecap="round" stroke-linejoin="round"></path>
                        <path d="M102.245775,68.0344934 C102.125246,68.0711954 102.000019,68.0897807 101.874123,68.0896529 C101.537258,68.0902225 101.213247,67.9591994 100.969978,67.7240351" id="Path" stroke="#40404B" stroke-width="0.5225" fill="none" stroke-linecap="round" stroke-linejoin="round"></path>
                        <path d="M119.631364,41.5938577 L122.004058,41.5938577 C122.372402,41.5938577 122.671005,41.8924603 122.671005,42.2608052 L122.671005,48.1694388 C122.671005,48.5377837 122.372402,48.8363862 122.004058,48.8363862 L119.631364,48.8363862 C119.263019,48.8363862 118.964417,48.5377837 118.964417,48.1694388 L118.964417,42.2608052 C118.964417,41.8924603 119.263019,41.5938577 119.631364,41.5938577 Z" id="Rectangle" stroke="#F7F8FD" stroke-width="0.5225" fill="none" stroke-linecap="round" stroke-linejoin="round" transform="translate(120.817711, 45.215122) rotate(-270.000000) translate(-120.817711, -45.215122) "></path>
                        <path d="M169.415675,132.381484 L184.742322,132.438117 C185.474017,132.440821 186.066953,133.032454 186.071265,133.764142 L186.161798,149.125558 C186.166139,149.862236 185.572464,150.46295 184.835787,150.467291 C184.831524,150.467317 184.827261,150.467321 184.822997,150.467305 L169.49635,150.410672 C168.764655,150.407968 168.17172,149.816335 168.167407,149.084647 L168.076874,133.72323 C168.072533,132.986553 168.666208,132.385839 169.402885,132.381498 C169.407148,132.381472 169.411411,132.381468 169.415675,132.381484 Z" id="Rectangle" stroke="none" fill="#EFF0FB" fill-rule="nonzero" transform="translate(177.119336, 141.424394) rotate(46.980000) translate(-177.119336, -141.424394) "></path>
                        <line x1="100.94187" y1="73.9710235" x2="100.94187" y2="75.8258937" id="Path" stroke="#40404B" stroke-width="0.5225" fill="none" stroke-linecap="round" stroke-linejoin="round"></line>
                        <g id="Group" stroke="none" stroke-width="1" fill="none" fill-rule="evenodd" transform="translate(212.890496, 35.228554)">
                            <polygon id="Path" fill="#FFFFFF" fill-rule="nonzero" points="39.1875029 79.948529 41.3299672 83.3273239 43.9065459 85.5210191 36.7155489 93.6953705 38.2349496 86.3247437 35.4100824 83.6787564"></polygon>
                            <path d="M17.2510791,75.9322547 C17.3166648,76.4633432 17.372881,77.7887008 17.4447129,78.6917089 C17.8304189,79.4387 18.0521609,80.1210779 18.3519809,80.6868369 C17.7273558,81.432252 12.8771416,85.9078946 12.5289131,86.0450005 C12.1806845,86.1821065 7.61467476,86.0450005 7.61467476,86.0450005 C7.61467476,85.693568 10.1131753,84.0640559 11.271855,82.9656324 C11.707531,82.4172086 12.4305346,76.515349 12.4305346,75.3302492 L17.2510791,75.9322547 Z" id="Path" fill="#FFFFFF" fill-rule="nonzero"></path>
                            <path d="M27.6444303,45.6688893 C27.809956,46.8855076 28.4783049,62.9190242 28.4783049,65.4940946 C29.4402276,66.6744666 38.430145,78.405693 38.430145,79.7972396 C37.3682822,81.0075542 35.922275,82.3187284 35.0431151,83.1303326 C34.4871988,83.6456619 20.7438841,68.7893653 20.4924725,68.025039 C20.2410609,67.2607127 18.318777,62.7157292 18.318777,61.6535521 C18.318777,60.5913749 22.5834051,46.5057083 22.5834051,46.5057083 L27.6444303,45.6688893 Z" id="Path" fill="#5567D5" fill-rule="nonzero"></path>
                            <path d="M27.4773431,61.7938099 C27.5179438,63.0718895 27.5413672,64.0552701 27.5413672,64.5485364 C28.5032899,65.7289083 37.4932072,77.4601347 37.4932072,78.8516814 C36.6156089,79.7515377 34.7870188,81.422024 34.1061774,82.1847743 C33.3535041,82.1438001 19.8069464,67.843807 19.5555348,67.0794807 C19.3041232,66.3151544 17.3818393,61.7701709 17.3818393,60.7079938 C17.3818393,59.6458166 21.6464674,45.5601501 21.6464674,45.5601501 L26.7074926,44.723331 C26.8074327,45.4592905 27.0931987,51.6306342 27.3024481,56.9541274" id="Path" stroke="#40404B" stroke-width="0.5225" stroke-linecap="round" stroke-linejoin="round"></path>
                            <path d="M11.760213,46.5261954 C11.5150477,47.895679 6.66639501,89.2748855 6.66639501,90.5860597 C7.23324232,91.3235951 10.5062781,91.4291825 11.0746869,91.07775 C11.6430958,90.7263175 16.7275445,66.4932346 17.150728,65.0748971 C18.7372758,64.0079922 25.2411851,49.1327844 25.2396238,46.876052" id="Path" fill="#5567D5" fill-rule="nonzero"></path>
                            <path d="M19.9912108,20.3972681 C28.1113376,20.3972681 27.8318179,44.0362253 27.3695953,45.7571414 C26.9073727,47.4780574 11.5415942,47.7065674 11.5088014,46.3686024 C11.188681,33.7769179 10.331383,20.3972681 19.9912108,20.3972681 Z" id="Path" fill="#A6B3FF" fill-rule="nonzero"></path>
                            <path d="M13.9182929,75.93621 C15.1050807,70.3857828 16.2294059,64.964582 16.4308475,64.2885078 C18.0158338,63.2216029 24.5213046,48.3463951 24.5197434,46.0896627" id="Path" stroke="#40404B" stroke-width="0.5225" stroke-linecap="round" stroke-linejoin="round"></path>
                            <path d="M9.08525587,61.790658 C7.70795743,73.4131453 6.11828645,87.200961 6.11828645,87.9668632 C7.12237136,88.2237399 10.2142658,88.4821925 10.9185307,88.5704446 C11.1355879,88.4364905 11.9273003,85.0797586 12.8486223,80.900391" id="Path" stroke="#40404B" stroke-width="0.5225" stroke-linecap="round" stroke-linejoin="round"></path>
                            <path d="M16.7326402,31.4500411 C16.6748624,31.7652272 16.3828502,34.1180914 15.9643513,37.5646513" id="Path" stroke="#40404B" stroke-width="0.5225" stroke-linecap="round" stroke-linejoin="round"></path>
                            <path d="M9.37258343,96.9228761 C7.9234531,98.2671448 6.40561401,99.6255969 6.21198022,99.6980897 C5.8637517,99.8304678 1.29774193,99.6980897 1.29774193,99.6980897 C1.29774193,99.3466572 3.79624249,97.7171451 4.95492213,96.6187215 C5.13606342,96.3902116 5.36717472,95.2397824 5.57954727,93.88921" id="Path" stroke="#40404B" stroke-width="0.5225" stroke-linecap="round" stroke-linejoin="round"></path>
                            <path d="M5.92152953,91.2715894 C6.03864674,90.2425068 6.11360176,89.3662895 6.11360176,88.9833384 L10.9341463,89.5900716 C10.9997319,90.1211602 11.0559482,91.4465177 11.1277801,92.3495259 C11.5134861,93.0965169 11.735228,93.7788948 12.0350481,94.3446539 C11.8679609,94.5416452 11.4104229,94.9970891 10.8154675,95.566" id="Path" stroke="#40404B" stroke-width="0.5225" stroke-linecap="round" stroke-linejoin="round"></path>
                            <path d="M21.7167378,46.4284877 C17.0960733,46.8019833 11.0606329,46.5750493 11.0403326,45.7382302 C10.9419541,41.8772005 10.7936056,37.9405262 10.913846,34.341101" id="Path" stroke="#40404B" stroke-width="0.5225" stroke-linecap="round" stroke-linejoin="round"></path>
                            <path d="M11.188681,30.3571488 C11.8882612,24.1968365 13.9651398,19.766896 19.522742,19.766896 C27.6428688,19.766896 27.363349,43.4058531 26.9011264,45.1267692 C26.816802,45.4419553 26.2546394,45.697256 25.387972,45.9147344" id="Path" stroke="#40404B" stroke-width="0.5225" stroke-linecap="round" stroke-linejoin="round"></path>
                            <path d="M27.4090455,7.809508 C27.4090455,8.58644173 23.8471206,8.51710078 23.9095831,7.48013853 L24.2359497,2.01638757 L27.4090455,2.01638757 L27.4090455,7.809508 Z" id="Path" fill="#FFFFFF" fill-rule="nonzero"></path>
                            <path d="M16.6479048,12.5002805 C16.6275017,11.8056053 16.689361,11.1109562 16.8321692,10.4310838 C17.0789632,9.17086791 17.6219937,7.98888109 18.4155939,6.98452387" id="Path" stroke="#40404B" stroke-width="0.5225" stroke-linecap="round" stroke-linejoin="round"></path>
                            <path d="M20.5627428,17.1524273 C20.2146517,17.214982 19.8579068,17.2096324 19.511811,17.136668 C18.3422004,16.8892469 17.4536712,15.8916829 16.9945717,14.5127438" id="Path" stroke="#40404B" stroke-width="0.5225" stroke-linecap="round" stroke-linejoin="round"></path>
                            <path d="M22.6286905,5.28882268 C26.0641287,5.28882268 27.7818479,8.94182952 28.5626293,12.853289 C29.1872544,16.0051499 30.7488173,18.6842317 30.7488173,21.3633135 C30.7488173,25.3772085 28.145692,28.9277798 25.4395036,28.9277798 C21.2467073,28.9277798 19.6617211,24.797266 19.6617211,22.939244 C19.6617211,20.3121679 20.4425025,18.5991315 20.4425025,15.3747777 C20.4425025,12.8217704 18.8809396,10.9227741 18.8809396,7.17993925 C18.8809396,6.22807724 20.3862862,5.28882268 22.6286905,5.28882268 Z" id="Path" fill="#EA4C4D" fill-rule="nonzero"></path>
                            <path d="M19.2525916,23.1598743 C19.2146596,22.9322762 19.1948166,22.7019822 19.1932522,22.4711927 C19.1932522,19.8441166 19.9740336,18.1310801 19.9740336,14.9067264 C19.9740336,12.353719 18.4124708,10.4547228 18.4124708,6.7118879 C18.4124708,5.76632961 19.9146942,4.82077133 22.1602216,4.82077133 C24.034097,4.82077133 25.4098339,5.92392266 26.3904954,7.55185884" id="Path" stroke="#40404B" stroke-width="0.5225" stroke-linecap="round" stroke-linejoin="round"></path>
                            <path d="M28.2550014,26.6741992 C27.3180637,27.7773506 26.1546994,28.4550007 24.9757194,28.4550007 C23.4097244,28.4867921 21.910086,27.8174874 20.8797401,26.6269213" id="Path" stroke="#40404B" stroke-width="0.5225" stroke-linecap="round" stroke-linejoin="round"></path>
                            <path d="M28.3034099,13.2992773 C29.0107978,16.0603075 30.2803484,18.4762089 30.2803484,20.8905344 C30.2796162,22.2467993 29.9871131,23.5867345 29.4230504,24.8177531" id="Path" stroke="#40404B" stroke-width="0.5225" stroke-linecap="round" stroke-linejoin="round"></path>
                            <line x1="5.33594346" y1="87.8675796" x2="12.0350481" y2="88.7107024" id="Path" stroke="#40404B" stroke-width="0.5225" stroke-linecap="round" stroke-linejoin="round"></line>
                            <line x1="5.12200935" y1="88.8588399" x2="11.8195524" y2="89.7019627" id="Path" stroke="#40404B" stroke-width="0.5225" stroke-linecap="round" stroke-linejoin="round"></line>
                            <line x1="33.4971679" y1="82.8104187" x2="38.5285234" y2="77.8194469" id="Path" stroke="#40404B" stroke-width="0.5225" stroke-linecap="round" stroke-linejoin="round"></line>
                            <line x1="33.9640752" y1="83.7086991" x2="38.9954307" y2="78.7193032" id="Path" stroke="#40404B" stroke-width="0.5225" stroke-linecap="round" stroke-linejoin="round"></line>
                            <polyline id="Path" stroke="#40404B" stroke-width="0.5225" stroke-linecap="round" stroke-linejoin="round" points="37.4213754 91.3740249 35.9347675 93.0649983 37.4541682 85.6943715 34.629301 83.0483842 38.4067215 79.3181568 40.5491857 82.6969517 43.1257644 84.8906469 39.5841399 88.9155734"></polyline>
                            <path d="M10.3235752,19.9560076 C9.21948239,19.6626422 8.1311783,19.3117909 7.06303197,18.904862 C6.7507194,18.2035729 2.74374913,3.34727633 2.06603085,0.480658795 C1.63503951,0.516905196 1.08380782,1.22134612 1.48044478,2.71217635 C0.723086801,3.33151703 -0.512109414,4.57807803 1.40548977,6.5464152 C1.48981416,7.08538342 3.88681314,21.6753478 4.119486,21.9905339 C4.87528242,23.0227683 7.82351308,24.4694725 8.4700001,24.729501 C8.67456484,24.163742 8.36225227,23.2323671 10.3235752,19.9560076 Z" id="Path" fill="#FFFFFF" fill-rule="nonzero"></path>
                            <path d="M18.5655039,26.6269213 C19.2213603,24.7358047 13.1125265,19.4327987 11.3370295,19.289389 C10.2970286,19.8283572 7.8016512,24.0014211 8.37006008,26.0517067 C10.331383,27.3045714 17.4802177,29.7519915 18.5655039,26.6269213 Z" id="Path" fill="#A6B3FF" fill-rule="nonzero"></path>
                            <path d="M3.38242834,6.26117178 C2.63443973,3.45601553 1.99419896,0.999139922 1.75996453,0 C1.32897319,0.0362464009 0.752756495,0.472779143 1.1478319,1.96360937" id="Path" stroke="#40404B" stroke-width="0.5225" stroke-linecap="round" stroke-linejoin="round"></path>
                            <path d="M10.0112626,19.4832285 C8.90716982,19.1898631 7.81886573,18.8390117 6.7507194,18.4320828 C6.59456312,18.0680429 5.43276036,13.8855234 4.26158822,9.54856275" id="Path" stroke="#40404B" stroke-width="0.5225" stroke-linecap="round" stroke-linejoin="round"></path>
                            <path d="M3.06074639,18.3485585 C2.29558059,14.2085892 1.30398818,7.38008242 1.09942345,6.0657564 C0.398281728,5.47163061 -0.496493785,3.76332198 0.334257651,3.02263465" id="Path" stroke="#40404B" stroke-width="0.5225" stroke-linecap="round" stroke-linejoin="round"></path>
                            <path d="M7.85162121,24.2630256 C7.24417326,24.1668938 4.38807481,22.3293589 3.81341968,21.5240584 C3.69857847,21.2920849 3.61507183,21.0456203 3.56513119,20.7912508" id="Path" stroke="#54546B" stroke-width="0.5225" stroke-linecap="round" stroke-linejoin="round"></path>
                            <path d="M15.1160116,27.518898 C16.54328,27.518898 17.7082059,27.110732 18.0970351,25.9902454 C18.5124108,24.7941142 16.2231597,22.2316512 14.0291639,20.4744887" id="Path" stroke="#40404B" stroke-width="0.5225" stroke-linecap="round" stroke-linejoin="round"></path>
                            <path d="M10.8685606,18.6527131 C9.82855978,19.1916813 7.33318235,23.3647452 7.90159122,25.4150308 C8.74671449,25.9131509 9.64181376,26.3193874 10.5718637,26.6269213" id="Path" stroke="#40404B" stroke-width="0.5225" stroke-linecap="round" stroke-linejoin="round"></path>
                        </g>
                        <ellipse id="Oval-Copy-2" stroke="none" fill="#FFFFFF" fill-rule="nonzero" opacity="0.890904744" cx="119.673794" cy="97.6791069" rx="6.66266816" ry="6.72397003"></ellipse>
                    </g>
                </g>
            </g>
        </g>
    </g>
</svg>
