<?xml version="1.0" encoding="UTF-8"?>
<svg width="200px" height="203px" viewBox="0 0 200 203" version="1.1" xmlns="http://www.w3.org/2000/svg" xmlns:xlink="http://www.w3.org/1999/xlink">
    <title>9FBB14B9-1471-41B1-B628-990D8DB4281F</title>
    <g id="Home" stroke="none" stroke-width="1" fill="none" fill-rule="evenodd">
        <g id="new-APIs-landing" transform="translate(-395.000000, -232.000000)">
            <g id="Illustration/Samples" transform="translate(395.000000, 232.000000)">
                <path d="M185.412803,31.3070845 C200.557508,46.6441703 203.10798,100.696882 192.731082,116.47136 C182.40517,132.24687 145.331984,141.84414 122.0741,149.001103 C98.8188167,156.206494 83.2239673,185.21666 65.9638212,179.179196 C48.7557026,173.140701 49.2228422,158.144103 32.8981517,137.256919 C16.6228874,116.417648 -3.58566111,94.3615065 0.544287358,77.4664983 C4.72366201,60.6199176 33.1936683,48.9834125 55.7132815,34.8637111 C78.2334149,20.7924371 104.823139,18.0637144 125.277778,13.3904626 C145.781843,8.76409272 170.219192,15.921056 185.412803,31.3070845 Z" id="Path" fill="#F7F8FB" fill-rule="nonzero" transform="translate(99.500000, 96.000000) scale(-1, 1) translate(-99.500000, -96.000000) "></path>
                <path d="M90.4277078,44.9600037 C90.4277078,55.5637057 81.831709,64.1597045 71.228007,64.1597045 C60.6243051,64.1597045 52.0283063,55.5637057 52.0283063,44.9600037 C52.0283063,34.3563018 60.6243051,25.760303 71.228007,25.760303 C81.831709,25.760303 90.4277078,34.3563018 90.4277078,44.9600037" id="Path" fill="#FFFFFF" fill-rule="nonzero" transform="translate(71.228007, 44.960004) scale(-1, 1) translate(-71.228007, -44.960004) "></path>
                <path d="M176.828427,21.8284271 L196.171573,41.1715729 C197.73367,42.73367 197.73367,45.26633 196.171573,46.8284271 L176.828427,66.1715729 C175.26633,67.73367 172.73367,67.73367 171.171573,66.1715729 L151.828427,46.8284271 C150.26633,45.26633 150.26633,42.73367 151.828427,41.1715729 L171.171573,21.8284271 C172.73367,20.26633 175.26633,20.26633 176.828427,21.8284271 Z" id="Polygon" stroke="#CED3F3" stroke-width="0.75" opacity="0.552651542" transform="translate(174.000000, 44.000000) scale(-1, 1) translate(-174.000000, -44.000000) "></path>
                <rect id="Rectangle" fill="#CED3F3" transform="translate(35.000000, 52.000000) scale(-1, 1) translate(-35.000000, -52.000000) " x="15" y="38" width="40" height="28" rx="4"></rect>
                <path d="M22.5,44 L33.5,44 C34.3284271,44 35,44.6715729 35,45.5 C35,46.3284271 34.3284271,47 33.5,47 L22.5,47 C21.6715729,47 21,46.3284271 21,45.5 C21,44.6715729 21.6715729,44 22.5,44 Z" id="Path-Copy-3" fill="#FFFFFF" transform="translate(28.000000, 45.500000) scale(-1, 1) translate(-28.000000, -45.500000) "></path>
                <path d="M22.5,53 C23.3284271,53 24,53.6715729 24,54.5 C24,55.3284271 23.3284271,56 22.5,56 C21.6715729,56 21,55.3284271 21,54.5 C21,53.6715729 21.6715729,53 22.5,53 Z" id="Path-Copy-4" fill="#FFFFFF" transform="translate(22.500000, 54.500000) scale(-1, 1) translate(-22.500000, -54.500000) "></path>
                <rect id="Rectangle-Copy-2" fill="#CED3F3" transform="translate(35.000000, 88.000000) scale(-1, 1) translate(-35.000000, -88.000000) " x="15" y="74" width="40" height="28" rx="4"></rect>
                <path d="M22.5,80 L28.5,80 C29.3284271,80 30,80.6715729 30,81.5 C30,82.3284271 29.3284271,83 28.5,83 L22.5,83 C21.6715729,83 21,82.3284271 21,81.5 C21,80.6715729 21.6715729,80 22.5,80 Z" id="Path-Copy-7" fill="#FFFFFF" transform="translate(25.500000, 81.500000) scale(-1, 1) translate(-25.500000, -81.500000) "></path>
                <path d="M22.5,89 C23.3284271,89 24,89.6715729 24,90.5 C24,91.3284271 23.3284271,92 22.5,92 C21.6715729,92 21,91.3284271 21,90.5 C21,89.6715729 21.6715729,89 22.5,89 Z" id="Path-Copy-8" fill="#FFFFFF" transform="translate(22.500000, 90.500000) scale(-1, 1) translate(-22.500000, -90.500000) "></path>
                <rect id="Rectangle-Copy" fill="#CED3F3" transform="translate(83.000000, 52.000000) scale(-1, 1) translate(-83.000000, -52.000000) " x="63" y="38" width="40" height="28" rx="4"></rect>
                <path d="M70.5,44 L88.5,44 C89.3284271,44 90,44.6715729 90,45.5 C90,46.3284271 89.3284271,47 88.5,47 L70.5,47 C69.6715729,47 69,46.3284271 69,45.5 C69,44.6715729 69.6715729,44 70.5,44 Z" id="Path-Copy-5" fill="#FFFFFF" transform="translate(79.500000, 45.500000) scale(-1, 1) translate(-79.500000, -45.500000) "></path>
                <path d="M70.5,53 C71.3284271,53 72,53.6715729 72,54.5 C72,55.3284271 71.3284271,56 70.5,56 C69.6715729,56 69,55.3284271 69,54.5 C69,53.6715729 69.6715729,53 70.5,53 Z" id="Path-Copy-6" fill="#FFFFFF" transform="translate(70.500000, 54.500000) scale(-1, 1) translate(-70.500000, -54.500000) "></path>
                <g id="Group" transform="translate(55.000000, 27.000000)">
                    <path d="M68.2123325,138.576873 C68.2491269,140.051646 68.4885574,142.107895 68.3017372,167.499164 C68.5558167,167.167656 120.152013,169.322778 120.207137,169.208038 C123.931252,142.991838 106.903479,140.454074 106.903479,140.454074 C106.903479,140.454074 68.1082578,134.404631 68.2123325,138.576873 Z" id="Path" fill="#5567D5" transform="translate(94.475703, 153.160868) scale(-1, 1) translate(-94.475703, -153.160868) "></path>
                    <polygon id="Path" fill="#5567D5" transform="translate(81.159609, 154.292180) scale(-1, 1) translate(-81.159609, -154.292180) " points="94.8214158 169.208038 92.9398894 139.376321 70.4142534 142.178631 67.4978024 168.419057"></polygon>
                    <polyline id="Path" stroke="#32324D" stroke-linecap="round" stroke-linejoin="round" transform="translate(83.139941, 152.222085) scale(-1, 1) translate(-83.139941, -152.222085) " points="95.0773181 154.797119 93.7282006 136.025114 71.2025646 138.827423 71.2025646 168.419057"></polyline>
                    <path d="M122.292486,146.333913 L123.636978,136.844606 C123.636978,136.844606 84.8409857,130.795163 84.9450605,134.966635 C84.9812939,136.411347 84.8548624,142.516369 84.6736952,167.162047" id="Path" stroke="#32324D" stroke-linecap="round" stroke-linejoin="round" transform="translate(104.155337, 150.330766) scale(-1, 1) translate(-104.155337, -150.330766) "></path>
                    <path d="M15.5769033,89.2947687 C16.9900075,91.6961978 21.0913245,98.4001552 21.0913245,98.4001552 C21.0913245,98.4001552 40.8400913,70.1072348 42.0273146,68.3980957 C43.214538,66.6889567 43.0218069,61.6910547 44.3208143,61.7511868 C45.6198217,61.8113189 69.240941,61.2994252 69.240941,63.5597751 C69.240941,65.820125 55.510009,68.9847691 52.7971266,70.7925865 C50.0842441,72.6004039 27.142309,119.785594 18.2142352,119.785594 C9.28616133,119.785594 0.80984909,108.370519 0.0751582702,105.376249 C-0.659532549,102.381979 3.95444915,69.5413764 15.5769033,89.2947687 Z" id="Path" fill="#FFFFFF" transform="translate(34.620471, 90.763078) scale(-1, 1) translate(-34.620471, -90.763078) "></path>
                    <path d="M14.9096752,58.8417186 C22.2010768,58.8972252 31.7690178,59.214075 31.7690178,60.6526197 C31.7690178,62.9129696 18.0373149,66.0768428 15.3252034,67.8854311 C14.0408435,68.741928 8.22036538,79.7723123 1.50021861,91.1496125" id="Path" stroke="#32324D" stroke-linecap="round" stroke-linejoin="round" transform="translate(16.634618, 74.995666) scale(-1, 1) translate(-16.634618, -74.995666) "></path>
                    <path d="M52.7684659,111.648489 C50.028601,114.862472 47.5840002,116.878439 45.7391785,116.878439 C36.8103337,116.878439 28.3340214,105.463363 27.6001015,102.468322 C26.8661817,99.4732817 31.4793924,66.634221 43.1018466,86.3876134 C44.5141798,88.7890424 48.6162678,95.4929998 48.6162678,95.4929998 C48.6162678,95.4929998 68.3642636,67.2000794 69.551487,65.4901694 C70.2083145,64.5473291 70.4426754,62.5976616 70.7410231,61.0527294" id="Path" stroke="#32324D" stroke-linecap="round" stroke-linejoin="round" transform="translate(49.133051, 88.965584) scale(-1, 1) translate(-49.133051, -88.965584) "></path>
                    <path d="M58.2115485,58.5742079 C70.2973281,53.2124297 83.2318954,81.5824424 83.5448906,87.6958718 C79.9847624,90.3116178 63.5370933,97.2499362 59.6408421,96.8621613 C56.3782906,91.7809995 43.8207054,64.9590026 58.2115485,58.5742079 Z" id="Path" fill="#A6B3FF" transform="translate(67.497802, 77.390730) scale(-1, 1) translate(-67.497802, -77.390730) "></path>
                    <path d="M60.5482579,56.4587917 C72.6340375,51.0977844 85.5678338,79.4677972 85.8816,85.5812266 C82.3214718,88.1969726 65.8738027,95.1352909 61.9775515,94.747516 C58.7180837,89.6663542 46.1574147,62.8428155 60.5482579,56.4587917 Z" id="Path" stroke="#32324D" stroke-linecap="round" stroke-linejoin="round" transform="translate(69.834878, 75.275790) scale(-1, 1) translate(-69.834878, -75.275790) "></path>
                    <path d="M96.9877575,50.5504282 C123.67253,50.7986658 128.892458,96.9346282 120.89489,139.783369 C116.686414,142.813873 76.27919,145.086557 69.2915325,140.372356 C62.3038751,135.658154 60.7897798,50.2143052 96.9877575,50.5504282 Z" id="Path" fill="#A6B3FF" transform="translate(94.821416, 96.813132) scale(-1, 1) translate(-94.821416, -96.813132) "></path>
                    <path d="M86.1931867,140.872685 C80.1352638,140.535792 75.196723,139.754074 73.1437517,138.368723 C66.1568651,133.654522 64.641228,48.2106731 100.836893,48.5467961 C115.188419,48.6809369 123.331692,62.0873098 126.548759,81.1168042" id="Path" stroke="#32324D" stroke-linecap="round" stroke-linejoin="round" transform="translate(97.860355, 94.709246) scale(-1, 1) translate(-97.860355, -94.709246) "></path>
                    <path d="M88.6069507,107.40378 C88.3070612,117.277007 87.1537585,127.620497 85.2580558,137.778195 C83.5959431,138.97467 76.2891229,140.053193 67.6247052,140.630615" id="Path" stroke="#32324D" stroke-linecap="round" stroke-linejoin="round" transform="translate(78.115828, 124.017197) scale(-1, 1) translate(-78.115828, -124.017197) "></path>
                    <path d="M130.040748,58.1525123 C143.770138,60.6965624 136.19041,94.2471862 132.462992,99.9628186 C127.741851,100.149382 109.29055,96.3595187 106.24617,93.6258212 C106.805861,87.0405862 113.691757,55.1196963 130.040748,58.1525123 Z" id="Path" fill="#A6B3FF" transform="translate(122.089198, 78.959690) scale(-1, 1) translate(-122.089198, -78.959690) "></path>
                    <path d="M115.206921,91.3354053 C115.765841,84.7501702 122.652508,52.8285094 139.000728,55.8620964" id="Path" stroke="#32324D" stroke-linecap="round" stroke-linejoin="round" transform="translate(127.103825, 73.497412) scale(-1, 1) translate(-127.103825, -73.497412) "></path>
                    <path d="M127.347437,76.9584387 C126.538737,85.9389354 123.894467,94.9533528 122.121341,97.6716317 C119.644361,97.7695391 113.386769,96.7727341 107.558582,95.4081981" id="Path" stroke="#32324D" stroke-linecap="round" stroke-linejoin="round" transform="translate(117.453009, 87.318352) scale(-1, 1) translate(-117.453009, -87.318352) "></path>
                    <path d="M113.803681,95.6773502 C112.423727,99.9313103 107.551047,116.71269 108.071421,121.943411 C108.591795,127.174132 131.694853,162.924974 135.258065,165.684112 C136.752887,163.097661 140.373918,156.659672 140.373918,156.659672 C138.419625,153.785667 126.693867,120.448589 126.805651,116.827558 C126.917435,113.206527 130.932685,102.038611 132.197,99.9694499" id="Path" fill="#FFFFFF" transform="translate(124.203309, 130.680731) scale(-1, 1) translate(-124.203309, -130.680731) "></path>
                    <path d="M118.730861,119.771718 C118.086369,117.472821 117.707845,115.804541 117.72866,115.138463 C117.843528,111.515119 122.307179,99.4054404 123.571495,97.3362797" id="Path" stroke="#32324D" stroke-linecap="round" stroke-linejoin="round" transform="translate(120.649669, 108.553999) scale(-1, 1) translate(-120.649669, -108.553999) "></path>
                    <path d="M113.248698,101.711275 C111.523369,108.543977 109.717865,116.957073 110.043966,120.255087 C110.561256,125.485808 133.667398,161.23665 137.23061,163.995788 C138.725432,161.409337 142.346463,154.971348 142.346463,154.971348 C141.279504,153.402517 137.299993,142.75297 133.924886,132.817298" id="Path" stroke="#32324D" stroke-linecap="round" stroke-linejoin="round" transform="translate(126.175979, 132.853531) scale(-1, 1) translate(-126.175979, -132.853531) "></path>
                    <path d="M88.3964884,31.6874534 C88.9176332,34.2785299 90.9929613,48.5706947 90.8387765,56.8966767 C93.3226944,59.0760796 102.860569,58.7754191 104.501867,56.6353334 C104.140304,53.2432666 103.824996,44.8856767 104.629841,42.6669567" id="Path" fill="#FFFFFF" transform="translate(96.513164, 45.040050) scale(-1, 1) translate(-96.513164, -45.040050) "></path>
                    <path d="M72.5250016,18.3159284 C72.5250016,18.303698 72.5445703,18.2926906 72.5702541,18.2914676 C72.5959379,18.2902445 72.6179527,18.2988058 72.6179527,18.3122592 C72.6179527,18.3257127 72.598384,18.335497 72.5727002,18.33672 C72.5470163,18.3379431 72.5262247,18.3293818 72.5250016,18.3159284 Z" id="Path" fill="#1B3C87" transform="translate(72.571477, 18.314094) scale(-1, 1) translate(-72.571477, -18.314094) "></path>
                    <path d="M106.032703,37.91424 C105.316509,40.8540705 104.027358,47.1747061 104.457075,55.7002146 C102.022014,57.9050875 93.8573952,58.3460621 90.1331833,55.4062316 C90.8493779,50.8494943 90.8493779,46.4397485 90.706139,43.499918 C90.5629001,40.5600875 106.032703,37.91424 106.032703,37.91424 Z" id="Path" fill="#FFFFFF" fill-rule="nonzero"></path>
                    <ellipse id="Oval" fill="#FFFFFF" fill-rule="nonzero" cx="94.4138233" cy="27.5184" rx="15.288" ry="18.95712"></ellipse>
                    <path d="M112.147903,19.2906984 C112.147903,11.6908104 103.722517,6.52862224 98.0571705,4.80789286 C93.476956,3.41696995 86.2906822,1.22304 82.5137847,1.22304 C77.8652955,1.22304 74.2336633,5.95504578 74.2336633,10.6870516 C74.2336633,15.8492397 76.9937038,19.7208808 80.3348054,20.5812455 C80.9158666,18.8605161 81.2063971,18.1435455 81.2063971,18.1435455 C81.7874583,18.8605161 97.330844,20.7246396 102.560394,20.5812455 C102.124599,22.445369 101.834068,29.0414982 104.739374,29.1848923 C106.337292,29.3282865 112.147903,31.0490158 112.147903,19.2906984 Z" id="Path" fill="#FF9D52" fill-rule="nonzero"></path>
                    <circle id="Oval" fill="#FFFFFF" fill-rule="nonzero" cx="104.809663" cy="29.35296" r="3.66912"></circle>
                    <path d="M88.9101433,54.1834641 C89.473193,50.6010446 89.5655183,50.4564583 89.5216633,47.69856 M104.809663,36.6912 C104.093469,39.6310763 102.804318,45.9518104 103.234035,54.4774517 C101.791619,55.7827568 98.3438585,56.4692179 94.996365,56.2031591" id="Shape" stroke="#32324D" stroke-linecap="round" stroke-linejoin="round"></path>
                    <path d="M99.9175033,43.0843281 C97.9046559,44.4864502 95.5564993,45.2391791 93.1538989,45.25248 C88.5082204,45.25248 84.3514066,42.4022832 81.5719033,37.91424" id="Path" stroke="#32324D" stroke-linecap="round" stroke-linejoin="round"></path>
                    <path d="M78.6960193,32.9658729 C78.1658267,30.9430282 77.899234,28.8605571 77.9027484,26.7698417 C77.9027484,24.0548569 78.3407929,21.4698962 79.131926,19.1229411 M108.47895,26.7698417 C108.485517,29.3076304 108.089692,31.8305359 107.305883,34.24512" id="Shape" stroke="#32324D" stroke-linecap="round" stroke-linejoin="round"></path>
                    <path d="M87.6871033,24.4608 C87.5342233,25.9896 85.5467833,30.27024 84.0179833,31.79904" id="Path" stroke="#32324D" stroke-linecap="round" stroke-linejoin="round"></path>
                    <path d="M87.6871033,37.91424 C88.4847381,37.91424 90.0800077,37.5648 91.3562233,35.46816" id="Path" stroke="#32324D" stroke-linecap="round" stroke-linejoin="round"></path>
                    <ellipse id="Oval" fill="#32324D" fill-rule="nonzero" transform="translate(82.927935, 25.517018) rotate(-80.470000) translate(-82.927935, -25.517018) " cx="82.9279352" cy="25.5170178" rx="1.48692833" ry="1"></ellipse>
                    <path d="M102.363583,5.52287198 C100.784117,4.66719214 99.1149301,3.97300859 97.3836108,3.45179499 C92.8349859,2.11249853 85.6982756,0 81.9474272,0 C78.3595965,0 75.382,2.75039025 74.2336633,6.1152" id="Path" stroke="#32324D" stroke-linecap="round" stroke-linejoin="round"></path>
                    <path d="M101.412775,19.5318468 C100.980407,21.3590689 102.363583,26.044407 104.629841,25.5170178 C106.215189,25.6575734 110.924863,28.1334039 110.924863,18.266847 C110.924863,14.9300584 109.247277,12.0739698 106.889432,9.78432" id="Path" stroke="#32324D" stroke-linecap="round" stroke-linejoin="round"></path>
                    <path d="M73.0106233,12.2304 C73.8874206,16.0888435 76.1890134,18.8332513 78.8549509,19.56864 C79.4473815,17.6910519 79.7435968,16.9087236 79.7435968,16.9087236 C80.1671846,17.4688707 88.4182614,18.6720917 95.0253433,19.2557087" id="Path" stroke="#32324D" stroke-linecap="round" stroke-linejoin="round"></path>
                    <path d="M108.149772,30.8529995 C107.544094,32.1708316 106.201667,33.0198503 104.720127,33.02208 C104.40225,33.02208 104.085627,32.9832278 103.777632,32.9065728" id="Path" stroke="#32324D" stroke-linecap="round" stroke-linejoin="round"></path>
                    <path d="M101.140544,29.35296 C101.140141,28.4407332 101.432389,27.5856221 101.933141,26.9138478" id="Path" stroke="#32324D" stroke-linecap="round" stroke-linejoin="round"></path>
                </g>
                <circle id="Oval" stroke="#C6CBF0" stroke-width="0.74750996" opacity="0.703694661" stroke-linecap="round" stroke-linejoin="round" cx="90.2322709" cy="163.337151" r="15.7071713"></circle>
            </g>
        </g>
    </g>
</svg>
