<?xml version="1.0" encoding="UTF-8"?>
<svg width="218px" height="215px" viewBox="0 0 218 215" version="1.1" xmlns="http://www.w3.org/2000/svg" xmlns:xlink="http://www.w3.org/1999/xlink">
    <title>02E6F412-89A6-4C16-A9A2-FBAA52A18A47</title>
    <g id="Home" stroke="none" stroke-width="1" fill="none" fill-rule="evenodd">
        <g id="new-APIs-landing" transform="translate(-892.000000, -228.000000)">
            <g id="upload-API" transform="translate(892.000000, 228.000000)">
                <path d="M200.743595,3.13362224 C216.795525,11.6467259 215.473629,45.8031896 216.133395,75.7314785 C216.79316,105.659767 219.444046,131.348058 211.973798,157.769421 C204.503549,184.190784 186.938178,211.328667 164.811203,214.499798 C142.618015,217.737142 115.801738,197.062124 85.4832656,186.032925 C55.1647928,175.003726 21.3583122,173.613253 7.93835019,157.166409 C-5.48161184,140.719566 1.59845271,109.213988 15.7325695,87.6261761 C29.9328994,66.0265403 65.3729469,58.1229197 83.6028125,50 C101.766465,41.8747155 118.408453,40.4905196 132.938029,23.7071713 C147.467606,6.92382307 184.69403,-5.38657568 200.743595,3.13362224 Z" id="Path" fill="#F7F8FB" fill-rule="nonzero"></path>
                <rect id="Rectangle" stroke="#CED3F3" stroke-width="0.75" transform="translate(185.921062, 143.847279) rotate(-49.930000) translate(-185.921062, -143.847279) " x="168.779812" y="128.766654" width="34.2825" height="30.16125"></rect>
                <circle id="Oval" stroke="#C6CBF0" stroke-width="0.74750996" opacity="0.397654942" stroke-linecap="round" stroke-linejoin="round" cx="155.707171" cy="23.7071713" r="15.7071713"></circle>
                <path d="M41.09375,122.83625 C39.78125,122.46125 35.84375,120.02375 35.09375,119.08625 C34.34375,118.14875 32.5625,120.423125 35.796875,123.5" id="Path" fill="#FFFFFF" fill-rule="nonzero"></path>
                <path d="M39.59375,121.33625 C38.28125,120.96125 34.34375,118.52375 33.59375,117.58625 C32.84375,116.64875 31.0625,118.923125 34.296875,122" id="Path" stroke="#32324D" stroke-linecap="round" stroke-linejoin="round"></path>
                <path d="M56.09375,128.64875 C55.15625,127.52375 51.96875,122.83625 51.40625,121.33625 C50.84375,119.83625 47.013125,118.33625 49.49,128.64875" id="Path" fill="#FFFFFF" fill-rule="nonzero"></path>
                <path d="M54.21875,126.77375 C53.28125,125.64875 50.09375,120.96125 49.53125,119.46125 C49.045625,118.169375 46.1375,116.8775 46.923125,123.13625" id="Path" stroke="#32324D" stroke-linecap="round" stroke-linejoin="round"></path>
                <path d="M76.9775,145.66625 C75.78125,148.14875 70.53125,157.89875 70.53125,157.89875 C70.53125,157.89875 58.53125,132.21125 57.21875,131.64875 C55.90625,131.08625 35.84375,124.14875 32.09375,122.08625 C30.59375,121.33625 26.09375,122.64875 34.34375,128.08625 C42.59375,133.52375 50.65625,138.02375 51.59375,139.89875 C52.53125,141.77375 59.28125,170.83625 59.28125,170.83625 C61.2597148,180.843457 63.3247782,185.847061 65.4764404,185.847061 C68.9131116,185.847061 75.2305481,180.843457 84.42875,170.83625 C86.09375,170.83625 91.71875,152.46125 91.71875,152.46125 C91.71875,152.46125 78.363125,144.125 76.9775,145.66625 Z" id="Path" fill="#FFFFFF" fill-rule="nonzero"></path>
                <path d="M55.604375,161.28875 C56.646875,165.69875 57.40625,168.96125 57.40625,168.96125 C61.2331916,178.230156 64.1699185,182.864609 66.2164307,182.864609 C69.7582518,182.864609 75.2040249,178.230156 82.55375,168.96125 C84.21875,168.96125 89.84375,150.58625 89.84375,150.58625 C89.84375,150.58625 76.488125,142.25 75.1025,143.79125 C73.90625,146.27375 68.65625,156.02375 68.65625,156.02375 C68.65625,156.02375 56.65625,130.33625 55.34375,129.77375 C54.93875,129.60125 52.75625,128.823125 49.82,127.769375" id="Path" stroke="#32324D" stroke-linecap="round" stroke-linejoin="round"></path>
                <path d="M37.50875,129.455 C43.7525,133.3925 48.974375,136.536875 49.71875,138.02375 C50.211875,139.011875 52.323125,147.56 54.2075,155.42" id="Path" stroke="#32324D" stroke-linecap="round" stroke-linejoin="round"></path>
                <path d="M44.898125,125.99375 C38.916875,123.820625 32.226875,121.315625 30.21875,120.21125 C28.851875,119.52875 24.99875,120.55625 30.550625,124.851875" id="Path" stroke="#32324D" stroke-linecap="round" stroke-linejoin="round"></path>
                <path d="M110.94875,114.96125 C122.1875,120.79625 109.608125,149.83625 102.69875,157.18625 C97.041875,158.4125 77.08625,148.8275 74.620625,142.46375 C76.694375,136.191875 94.9325,106.64375 110.94875,114.96125 Z" id="Path" fill="#A6B3FF" fill-rule="nonzero"></path>
                <path d="M88.2275,118.8725 C94.565,113.09 102.033125,109.43 109.07375,113.08625 C120.3125,118.92125 107.733125,147.96125 100.82375,155.31125 C95.166875,156.5375 75.21125,146.9525 72.745625,140.58875 C73.3925,138.629375 75.618125,134.40125 78.861875,129.755" id="Path" stroke="#32324D" stroke-linecap="round" stroke-linejoin="round"></path>
                <path d="M108.36875,108.149375 C112.89875,105.11375 118.1825,103.33625 124.34375,103.33625 C147.59375,103.33625 157.34375,134.08625 157.90625,169.14875" id="Path" stroke="#32324D" stroke-linecap="round" stroke-linejoin="round"></path>
                <path d="M88.41125,139.8875 C91.41125,130.184375 95.673125,120.8525 101.705,114.048125" id="Path" stroke="#32324D" stroke-linecap="round" stroke-linejoin="round"></path>
                <path d="M82.551875,168.99125 C83.035625,164.778125 83.7125,160.06625 84.65375,155.151875" id="Path" stroke="#32324D" stroke-linecap="round" stroke-linejoin="round"></path>
                <path d="M159.60125,187.083069 C159.60125,136.2425 149.01125,105.21125 126.21875,105.21125 C97.304375,105.21125 91.476875,151.30725 88.41125,175.89975 C94.155282,179.917358 102.538794,183.183695 113.561786,185.698761 C130.093582,189.470745 145.44007,189.932181 159.60125,187.083069 Z" id="Path" fill="#A6B3FF" fill-rule="nonzero"></path>
                <path d="M181.905045,175.89975 L167.28875,142.71125 L146.47625,155.46125 C147.11375,157.75625 149.31125,164.73125 150.651875,168.96125" id="Path" stroke="#32324D" stroke-linecap="round" stroke-linejoin="round"></path>
                <path d="M144.78125,112.89875 C156.21875,107.46125 171.78125,135.02375 173.46875,144.96125 C171.03125,150.21125 151.34375,160.33625 144.78125,158.46125 C141.03125,153.02375 128.481875,120.648125 144.78125,112.89875 Z" id="Path" fill="#A6B3FF" fill-rule="nonzero"></path>
                <path d="M154.2875,114.048125 C162.71375,121.090625 170.433125,136.25375 171.59375,143.08625 C169.15625,148.33625 149.46875,158.46125 142.90625,156.58625 C142.451408,155.896617 142.04059,155.178938 141.67625,154.4375" id="Path" stroke="#32324D" stroke-linecap="round" stroke-linejoin="round"></path>
                <path d="M136.085,138.3125 C133.8575,128.271875 133.74125,117.021875 141.17375,112.01375" id="Path" stroke="#32324D" stroke-linecap="round" stroke-linejoin="round"></path>
                <path d="M91.0069504,155.151875 C88.9814835,169.891815 88.59375,178.692664 89.84375,181.554423" id="Path-2" stroke="#373754"></path>
                <path d="M132,90.4162608 C131.499893,94.038501 130.550416,107.021746 130.945427,111.531791 C128.883394,113.474306 119.04434,113.864939 115,110.366992 C115.793647,106.634664 117.620124,103.367545 116.587295,95.5939336 C115.554466,87.820322 132,90.4162608 132,90.4162608 Z" id="Path" fill="#FFFFFF" fill-rule="nonzero"></path>
                <path d="M114,106.154162 C114.750786,103.391317 115.462057,100.141955 114.718455,94.594957 C113.698249,86.8177959 130,89.4172853 130,89.4172853 C129.504266,93.0395248 128.563089,106.022767 128.954648,110.53281 C127.366861,112.042077 121.119892,112.613822 116.532555,111.150722" id="Path" stroke="#32324D" stroke-linecap="round" stroke-linejoin="round"></path>
                <ellipse id="Oval" fill="#FFFFFF" fill-rule="nonzero" cx="119" cy="73.5" rx="18" ry="23.5"></ellipse>
                <path d="M100.419615,76.857115 C100.138423,75.167285 99.9980703,73.4567919 100,71.7434698 C100,58.6311891 108.0584,48 117.99958,48 C127.940759,48 135.99914,58.6311891 135.99914,71.7434698 C136.034407,76.3436007 134.984821,80.8866276 132.936453,85" id="Path" stroke="#32324D" stroke-linecap="round" stroke-linejoin="round"></path>
                <path d="M123,94.7263885 C121.166023,95.562007 119.16846,95.9965963 117.145924,96 C110.721234,96 105.092586,91.5924067 102,85" id="Path" stroke="#32324D" stroke-linecap="round" stroke-linejoin="round"></path>
                <ellipse id="Oval" fill="#32324D" fill-rule="nonzero" cx="110" cy="74" rx="1" ry="2"></ellipse>
                <path d="M106,74 C106,75.6670616 104.476534,78.4751185 103,80" id="Path" stroke="#32324D" stroke-linecap="round" stroke-linejoin="round"></path>
                <path d="M108,88 C108.850485,88 111.852427,86.9778598 114,84" id="Path" stroke="#32324D" stroke-linecap="round" stroke-linejoin="round"></path>
                <path d="M126.98098,77.9205914 C127.763732,78.848181 128.553697,85.5495428 130.227414,85.9880971 C131.901131,86.4266514 139,74.6298567 139,69.8972566 C139,61.3407155 133.228562,42.1705298 124.744548,42.1705298 C121.66765,42.1705298 121.3899,46.3289078 121.3899,47.9411469 C120.383505,45.7326002 115.741105,41 109.872274,41 C99.9201508,41 100.078865,49.2031736 101.821118,55.6710605 C100.089687,54.8381229 100.017544,54.5951827 97.9073619,54.5951827 C96.0100016,54.5951827 95,56.7690237 95,59.0438269 C95,64.5210228 98.3654697,66.4771642 100.987867,67.4079089 C103.610264,68.3386536 111.156419,68.7772079 116.137891,68.6699356 C116.7475,69.9130319 121.332186,78.0183984 126.98098,77.9205914 Z" id="Path" fill="#FF9D52" fill-rule="nonzero"></path>
                <path d="M104,67 C107.558322,67.4081099 111.140386,67.5811992 114.722178,67.5181073 C115.334668,68.8914467 119.913931,78.0222013 125.556045,77.9121922 C126.33787,78.9555043 127.126902,86.4929014 128.798639,86.986168 C129.234588,87.1174692 130.045236,86.3048214 131,84.9385794" id="Path" stroke="#32324D" stroke-linecap="round" stroke-linejoin="round"></path>
                <path d="M102,43 C99.0218723,45.6957114 99.455818,50.7097345 100.617673,54.9360109 C98.9378828,54.1452689 98.8678915,53.9146358 96.8206474,53.9146358 C94.9798775,53.9146358 94,55.9783526 94,58.137917 C94,61.8220558 95.6412948,63.8288632 97.4995626,65" id="Path" stroke="#32324D" stroke-linecap="round" stroke-linejoin="round"></path>
                <path d="M128,44.325 C126.554302,42.9790909 124.978138,42.1804545 123.28914,42.1804545 C120.281382,42.1804545 120.009873,46.3709091 120.009873,48 C119.026093,45.7727273 114.488011,41 108.751058,41 C108.493653,41 108.2433,41 108,41" id="Path" stroke="#32324D" stroke-linecap="round" stroke-linejoin="round"></path>
                <path d="M135.341772,77 C136.860759,73.7618836 138,70.43471 138,68.3329623 C138,62.4623177 135.763291,52.1744406 132,45" id="Path" stroke="#32324D" stroke-linecap="round" stroke-linejoin="round"></path>
                <circle id="Oval" fill="#FFFFFF" fill-rule="nonzero" cx="124.5" cy="76.5" r="5.5"></circle>
                <path d="M120,70.7396189 C122.183459,69.5807196 124.924218,69.7991982 126.856967,71.2862196 C128.789717,72.7732409 129.501089,75.2107668 128.636713,77.3845443 C127.772337,79.5583219 125.517083,81.0034322 122.994405,81" id="Path" stroke="#32324D" stroke-linecap="round" stroke-linejoin="round"></path>
                <path d="M42.4438679,52 C53.2773585,52 62.0900943,60.5772202 62.0900943,71.1211915 C62.0900943,71.7960571 62.0537736,72.4741363 61.9778302,73.1618565 C68.954717,74.926148 74,81.1252704 74,88.3174093 C74,96.9653297 66.7754717,104 57.8867925,104 L42.733,104 L42.7388707,103.833725 L42.7386565,89.4616379 L49.6193378,89.4624474 C49.7118778,89.4624474 49.8013217,89.4291156 49.8712933,89.3685547 C50.0320674,89.2294035 50.0495963,88.986266 49.9104451,88.8254919 L49.9104451,88.8254919 L39.7911045,77.1336886 C39.7790104,77.1197152 39.765926,77.1066308 39.7519527,77.0945367 C39.5911785,76.9553856 39.3480411,76.9729145 39.2088899,77.1336886 L39.2088899,77.1336886 L29.0895493,88.8254919 C29.0289884,88.8954635 28.9956565,88.9849074 28.9956565,89.0774474 C28.9956565,89.290077 29.1680269,89.4624474 29.3806565,89.4624474 L29.3806565,89.4624474 L36.1616565,89.4616379 L36.1618282,103.833725 L36.169,104 L23.6495283,104 L23.6495283,104 C12.8127358,104 4,95.4227798 4,84.8788085 C4,74.354119 12.7830189,65.7865398 23.5933962,65.7544033 C25.9938679,57.6913664 33.6641509,52 42.4438679,52 Z" id="Combined-Shape" fill="#CED3F3" fill-rule="nonzero"></path>
                <path d="M168.571263,193.166451 C147.053347,183.321286 141.607376,182.841883 127.305184,179.508528 C129.200724,175.867278 131.83677,160.561446 131.949696,159.548946 C131.285219,159.433616 124.010953,158.227694 118.397999,156.12683 C113.790554,154.402317 109.95099,152.382869 109.95099,152.382869 C109.95099,152.382869 108.183122,159.667181 105.599788,168.368229 C104.198417,173.088254 101.338562,178.519111 100.596422,182.315732 C100.07047,185.006385 100.388005,190.995646 100.711474,191.479715 C105.261735,196.336429 117.738839,198.884272 127.918251,200.512809 C144.649606,203.189548 158.058516,202.734137 168.577458,202.046343 C169.763178,202.912593 169.601856,203.456343 171.283643,203.677593 C172.965431,203.898843 181.963195,203.546343 181.963195,203.546343 C181.334037,199.046343 178.859608,192.753951 168.571263,193.166451 Z" id="Path" fill="#FFFFFF" fill-rule="nonzero" transform="translate(141.139712, 178.066712) scale(-1, 1) rotate(6.000000) translate(-141.139712, -178.066712) "></path>
                <path d="M100.833873,190.454596 C110.913809,193.019596 114.086131,195.290975 114.850146,195.845975 C133.662677,196.73364 131.580454,200.957732 132.238942,205.476482" id="Path" stroke="#373754" stroke-linecap="round" stroke-linejoin="round" transform="translate(116.536407, 197.965539) scale(-1, 1) rotate(6.000000) translate(-116.536407, -197.965539) "></path>
                <path d="M137.457028,180.523668 C142.729528,181.884918 149.213278,183.636168 155.479528,185.398668" id="Path" stroke="#373754" stroke-linecap="round" stroke-linejoin="round" transform="translate(146.468278, 182.961168) scale(-1, 1) rotate(6.000000) translate(-146.468278, -182.961168) "></path>
                <path d="M113.117513,201.91275 C113.551564,203.454121 113.710247,205.059988 113.586263,206.6565" id="Path" stroke="#373754" stroke-linecap="round" stroke-linejoin="round" transform="translate(113.372320, 204.284625) scale(-1, 1) rotate(6.000000) translate(-113.372320, -204.284625) "></path>
                <path d="M109.24938,202.319206 C109.687117,203.859879 109.845865,205.466406 109.71813,207.062956" id="Path" stroke="#373754" stroke-linecap="round" stroke-linejoin="round" transform="translate(109.505154, 204.691081) scale(-1, 1) rotate(6.000000) translate(-109.505154, -204.691081) "></path>
                <path d="M105.942821,202.666948 C106.377324,204.20822 106.534767,205.814389 106.407821,207.410698" id="Path" stroke="#373754" stroke-linecap="round" stroke-linejoin="round" transform="translate(106.196612, 205.038823) scale(-1, 1) rotate(6.000000) translate(-106.196612, -205.038823) "></path>
                <path d="M121.974395,184.777546 C121.318145,188.820046 123.504756,191.60841 124.063506,191.95341 C137.049756,200.20341 176.699249,200.525769 184.330499,200.060769" id="Path" stroke="#373754" stroke-linecap="round" stroke-linejoin="round" transform="translate(153.091624, 192.486076) scale(-1, 1) rotate(6.000000) translate(-153.091624, -192.486076) "></path>
                <path d="M170.173955,157.018123 C170.031455,157.520623 168.692705,163.145623 167.346455,169.509373" id="Path" stroke="#373754" stroke-linecap="round" stroke-linejoin="round" transform="translate(168.760205, 163.263748) scale(-1, 1) rotate(6.000000) translate(-168.760205, -163.263748) "></path>
            </g>
        </g>
    </g>
</svg>
