<?xml version="1.0" encoding="UTF-8"?>
<svg width="187px" height="208px" viewBox="0 0 187 208" version="1.1" xmlns="http://www.w3.org/2000/svg" xmlns:xlink="http://www.w3.org/1999/xlink">
    <title>API-Create-From-Scratch</title>
    <g id="Home" stroke="none" stroke-width="1" fill="none" fill-rule="evenodd">
        <g id="new-APIs-landing" transform="translate(-413.000000, -236.000000)">
            <g id="create-from-scratch" transform="translate(414.000000, 236.000000)">
                <path d="M148.295175,16.9280207 C164.371178,26.9739227 178.218516,43.1805822 181.380338,61.2682845 C184.585019,79.3501269 177.106131,99.3579385 167.219351,119.219251 C157.334518,139.125491 145.045688,159.000477 125.141601,172.654153 C105.237514,186.360568 77.7201191,193.906226 56.6568925,185.422977 C35.6404212,176.984653 21.0800665,152.474449 13.1083015,128.901837 C5.18329174,105.327271 3.89167879,82.6922499 7.94379784,61.1217859 C11.9511098,39.607968 21.2573467,19.2055867 36.7528058,9.06983207 C52.2482649,-1.06592252 73.9348944,-0.931143747 93.9266472,1.07881799 C113.875541,3.04385348 132.22112,6.92704486 148.295175,16.9280207 Z" id="Path" fill="#F7F8FB" fill-rule="nonzero"></path>
                <rect id="Rectangle-Copy-3" stroke="#D8DFFF" stroke-width="0.7975" stroke-linecap="round" stroke-linejoin="round" x="0" y="110" width="40" height="40" rx="4"></rect>
                <rect id="Rectangle" fill="#CED3F3" x="20" y="42" width="26" height="13" rx="6.5"></rect>
                <path d="M84,120 L91,120 C99.836556,120 107,127.163444 107,136 L107,143 C107,151.836556 99.836556,159 91,159 L84,159 C75.163444,159 68,151.836556 68,143 L68,136 C68,127.163444 75.163444,120 84,120 Z" id="Rectangle-Copy-4" stroke="#D8DFFF" stroke-width="0.7975" stroke-linecap="round" stroke-linejoin="round" stroke-dasharray="3,5"></path>
                <path d="M65.5,62 C76.8218374,62 86,71.1781626 86,82.5 C86,93.8218374 76.8218374,103 65.5,103 C54.1781626,103 45,93.8218374 45,82.5 C45,71.1781626 54.1781626,62 65.5,62 Z" id="Rectangle-Copy-5" fill="#FFFFFF"></path>
                <path d="M131.405632,206.582216 C129.285498,201.443761 129.260289,200.782763 129.260289,199.821359 C129.260289,198.495211 136.459891,157.985137 139.646681,157.514729 C142.833472,157.044322 150.484764,153.824034 152.937869,152.938267 C153.081766,154.59748 157.476486,180.945417 161.785037,206.582216 C161.907974,206.735992 131.268924,206.582758 131.405632,206.582216 Z" id="Path" fill="#5567D5" fill-rule="nonzero"></path>
                <path d="M101.330327,206.650682 C101.391259,180.26979 101.330327,153.824034 101.330327,153.824034 C101.330327,153.824034 142.339357,155.39039 145.795665,155.558035 C145.795665,162.561878 151.125579,179.59276 161.785406,206.650682 C121.686687,206.757371 101.534994,206.757371 101.330327,206.650682 Z" id="Path" fill="#5567D5" fill-rule="nonzero"></path>
                <path d="M124.376539,72.2408975 C123.151234,70.3067228 117.453941,60.7309319 116.949844,59.0744977 C116.445747,57.4180635 112.956998,28.317868 112.956998,28.317868 L103.112135,28.8183013 C103.112135,28.8183013 102.041553,59.935243 103.112135,62.2947859 C104.182717,64.6543289 112.028661,79.8875181 112.028661,79.8875181 L118.092796,83.7533652 L124.376539,72.2408975 Z" id="Path" fill="#FFFFFF" fill-rule="nonzero"></path>
                <path d="M101.43514,56.2295345 C101.500023,58.7467139 101.629791,60.5432694 101.856884,61.0437027 C102.927466,63.4032456 110.77341,78.6364349 110.77341,78.6364349 L116.837545,82.502282 L123.128774,70.9923164 C121.903469,69.0581418 116.206176,59.4823508 115.70208,57.8259167 C115.197983,56.1694825 111.709233,27.0692869 111.709233,27.0692869 L101.864371,27.5697202 C101.864371,27.5697202 101.462591,39.2648461 101.397707,48.8581522" id="Path" stroke="#32324D" stroke-linecap="round" stroke-linejoin="round"></path>
                <path d="M174.249915,0.906191263 L181.58945,0.904308776 C182.341336,0.904308776 183.062351,1.20339635 183.593879,1.73631157 C184.125406,2.26922679 184.423907,2.99212328 184.423714,3.74597205 L184.41934,20.8478537 C184.418938,22.4176625 183.149343,23.6905695 181.583621,23.6909711 L174.244086,23.6928535 L174.249915,0.906191263 Z" id="Path" fill="#B2C3FB" fill-rule="nonzero" transform="translate(179.333900, 12.298581) rotate(-5.560000) translate(-179.333900, -12.298581) "></path>
                <polygon id="Path" fill="#D8DFFF" fill-rule="nonzero" points="67.7602438 14.7311043 53.3723428 27.9825777 69.4752163 37.4107408 69.4752163 37.4107408 175.372343 24.1217349 173.65737 1.44209836"></polygon>
                <path d="M133.001087,69.7287224 C159.129277,69.7287224 153.135016,142.371618 152.937869,152.938267 C148.855184,157.890054 106.501064,156.691517 101.100739,153.333609 C99.748162,141.778605 104.719256,69.7287224 133.001087,69.7287224 Z" id="Path" fill="#A6B3FF" fill-rule="nonzero"></path>
                <path d="M150.479773,96.9072541 C153.871197,118.518466 151.804899,145.554374 151.690105,151.687184 C149.374254,154.494614 134.755444,155.327836 121.544113,154.909974" id="Path" stroke="#32324D" stroke-linecap="round" stroke-linejoin="round"></path>
                <path d="M100.634075,130.491332 C103.241903,105.274499 111.542033,68.4776392 131.753323,68.4776392 C138.858094,68.4776392 143.587122,73.8497905 146.704038,81.8842469" id="Path" stroke="#32324D" stroke-linecap="round" stroke-linejoin="round"></path>
                <path d="M111.282498,154.299445 C105.697503,153.783999 101.352787,153.018336 99.8529742,152.082526 C99.658323,150.426092 99.6034213,147.526081 99.7107291,143.772831" id="Path" stroke="#32324D" stroke-linecap="round" stroke-linejoin="round"></path>
                <path d="M136.552225,186.227089 C133.783089,194.255998 130.906767,201.801917 129.038372,206.789569" id="Path" stroke="#32324D" stroke-linecap="round" stroke-linejoin="round"></path>
                <path d="M144.5479,154.06174 C144.5479,158.725778 142.943275,165.764372 140.70229,173.363452" id="Path" stroke="#32324D" stroke-linecap="round" stroke-linejoin="round"></path>
                <line x1="99.8529742" y1="152.082526" x2="99.8529742" y2="206.650682" id="Path" stroke="#32324D" stroke-linecap="round" stroke-linejoin="round"></line>
                <path d="M151.690105,151.687184 C151.690105,154.88042 155.945064,181.352593 160.251961,206.765351" id="Path" stroke="#32324D" stroke-linecap="round" stroke-linejoin="round"></path>
                <path d="M142.052371,60.7259276 C141.707988,63.2781373 141.05416,72.4260578 141.326172,75.6038091 C139.906216,76.9724942 133.130855,77.2477325 130.345844,74.7830986 C130.892365,72.1533216 132.150112,69.8513285 131.438886,64.3740862 C130.72766,58.8968439 142.052371,60.7259276 142.052371,60.7259276 Z" id="Path" fill="#FFFFFF" fill-rule="nonzero"></path>
                <path d="M129.929091,71.5177714 C130.450657,69.5710859 130.944771,67.2816036 130.428197,63.3732196 C129.719467,57.8934752 141.044178,59.725061 141.044178,59.725061 C140.699795,62.2772707 140.045966,71.4251912 140.317979,74.6029426 C139.214955,75.6663633 134.87523,76.0692121 131.688439,75.0383195" id="Path" stroke="#32324D" stroke-linecap="round" stroke-linejoin="round"></path>
                <ellipse id="Oval" fill="#FFFFFF" fill-rule="nonzero" cx="133.36793" cy="48.85565" rx="12.5250606" ry="16.4742638"></ellipse>
                <path d="M120.136635,51.4028554 C119.940966,50.2303771 119.843301,49.0435617 119.844644,47.8547834 C119.844644,38.7569063 125.452112,31.3805197 132.369718,31.3805197 C139.287325,31.3805197 144.894779,38.7569063 144.894779,47.8547834 C144.91932,51.0465567 144.188961,54.1987086 142.763597,57.0527472" id="Path" stroke="#32324D" stroke-linecap="round" stroke-linejoin="round"></path>
                <path d="M136.517288,63.4057478 C135.217929,64.011526 133.80267,64.3265797 132.369718,64.3290472 C127.817873,64.3290472 123.830018,61.1337807 121.638943,56.3546428" id="Path" stroke="#32324D" stroke-linecap="round" stroke-linejoin="round"></path>
                <ellipse id="Oval" fill="#1B3C87" fill-rule="nonzero" cx="126.797202" cy="48.9407237" rx="1" ry="1.45125653"></ellipse>
                <path d="M124.4539,49.2960313 C124.4539,50.4695474 123.400787,52.4462588 122.380115,53.5196882" id="Path" stroke="#32324D" stroke-linecap="round" stroke-linejoin="round"></path>
                <path d="M125.574393,59.1795887 C126.120914,59.1795887 128.049958,58.4864886 129.429985,56.4672403" id="Path" stroke="#32324D" stroke-linecap="round" stroke-linejoin="round"></path>
                <path d="M139.075205,53.1443633 C139.616735,53.8800002 140.163256,59.1946017 141.321181,59.5424028 C142.479107,59.890204 147.390308,50.5346037 147.390308,46.7813541 C147.390308,39.9954787 143.397462,24.7923155 137.527977,24.7923155 C135.399291,24.7923155 135.207135,28.0901708 135.207135,29.3687779 C134.510882,27.6172614 131.299136,23.8640117 127.238911,23.8640117 C120.353746,23.8640117 120.463549,30.3696444 121.66889,35.4990856 C120.471036,34.8385137 120.421125,34.6458469 118.961241,34.6458469 C117.648592,34.6458469 116.949844,36.3698395 116.949844,38.1739015 C116.949844,42.5176625 119.278173,44.0690056 121.092422,44.8071447 C122.906672,45.5452838 128.127319,45.893085 131.573645,45.8080113 C131.995389,46.7938649 135.167207,53.2219304 139.075205,53.1443633 Z" id="Path" fill="#FF9D52" fill-rule="nonzero"></path>
                <path d="M122.89669,44.1991183 C125.361355,44.4868757 127.842464,44.6089205 130.323385,44.5644346 C130.747625,45.532773 133.919442,51.9708472 137.827441,51.8932801 C138.36897,52.628917 138.915491,57.9435185 140.073417,58.2913196 C140.375376,58.3838998 140.93687,57.8109037 141.598185,56.8475696" id="Path" stroke="#32324D" stroke-linecap="round" stroke-linejoin="round"></path>
                <path d="M121.406859,24.274367 C119.283164,26.5263168 119.592609,30.7149434 120.421125,34.2455002 C119.223271,33.5849283 119.173361,33.3922615 117.713476,33.3922615 C116.400828,33.3922615 115.70208,35.1162542 115.70208,36.9203162 C115.70208,39.9979809 116.872483,41.6744324 118.197609,42.6527794" id="Path" stroke="#32324D" stroke-linecap="round" stroke-linejoin="round"></path>
                <path d="M139.614239,25.2301946 C138.591072,24.1717782 137.475571,23.5437344 136.280213,23.5437344 C134.151526,23.5437344 133.95937,26.8390876 133.95937,28.1201968 C133.263118,26.3686803 130.051372,22.6154307 125.991146,22.6154307 C125.808972,22.6154307 125.63179,22.6154307 125.459598,22.6154307" id="Path" stroke="#32324D" stroke-linecap="round" stroke-linejoin="round"></path>
                <path d="M144.395673,51.6205439 C145.393885,49.3460746 146.142544,47.0090512 146.142544,45.532773 C146.142544,41.4092027 144.672677,34.1829461 142.199608,29.1435829" id="Path" stroke="#32324D" stroke-linecap="round" stroke-linejoin="round"></path>
                <ellipse id="Oval" fill="#FFFFFF" fill-rule="nonzero" cx="137.11871" cy="50.9699807" rx="3.95042257" ry="3.96092946"></ellipse>
                <path d="M134.146535,46.5436482 C135.585909,45.7085143 137.392665,45.8659558 138.666766,46.9375434 C139.940868,48.0091309 140.409817,49.7656775 139.840005,51.33216 C139.270194,52.8986425 137.783492,53.9400278 136.120499,53.9375544" id="Path" stroke="#32324D" stroke-linecap="round" stroke-linejoin="round"></path>
                <path d="M125.701665,81.5464544 C122.956583,80.2953712 103.209461,73.1116514 101.495032,71.3876587 C99.7806039,69.663666 86.9635664,44.9622791 86.5518041,43.7912652 C86.9186469,43.3859142 87.5899442,41.4642504 87.5500158,39.2873656 C87.5100873,37.1104808 86.1150865,36.512463 86.0077788,29.7115747 C85.9728414,27.3820577 82.5639486,29.8391852 82.6063726,34.6683664 C78.5636155,34.3580977 73.4328076,24.4670338 70.3133962,28.8233056 C81.0441714,50.5471145 92.8754749,84.0035818 93.871191,85.0019463 C94.8669071,86.0003107 120.520946,98.9865544 121.094918,98.6312468 C121.66889,98.2759392 126.88205,82.9676849 125.701665,81.5464544 Z" id="Path" fill="#FFFFFF" fill-rule="nonzero"></path>
                <path d="M150.342519,101.8115 C152.361402,93.8871392 140.22814,81.1360991 127.111639,79.8875181 C124.95051,81.058532 118.576929,95.6686817 119.328083,100.340226 C124.269231,105.624802 147.143251,114.374878 150.342519,101.8115 Z" id="Path" fill="#A6B3FF" fill-rule="nonzero"></path>
                <path d="M125.005412,79.4921758 C122.375124,82.9301524 117.411517,94.9380491 118.080319,99.0891432 C118.998674,100.072495 120.54091,101.17595 122.459972,102.239371" id="Path" stroke="#32324D" stroke-linecap="round" stroke-linejoin="round"></path>
                <path d="M125.863874,78.6364349 C125.525662,78.8638753 125.234217,79.1543956 125.005412,79.4921758" id="Path" stroke="#32324D" stroke-linecap="round" stroke-linejoin="round"></path>
                <path d="M132.147616,106.052672 C139.574311,107.936804 147.330415,107.491418 149.094754,100.560417 C150.689398,94.305001 143.464841,85.0469852 133.901973,80.7933023" id="Path" stroke="#32324D" stroke-linecap="round" stroke-linejoin="round"></path>
                <path d="M70.8000244,30.6598957 C70.2310438,29.6123221 69.6487537,28.5814295 69.053154,27.567218 C68.2296294,26.3836933 71.9404812,24.109224 77.8498941,31.895966" id="Path" stroke="#32324D" stroke-linecap="round" stroke-linejoin="round"></path>
                <path d="M97.7317745,86.7009173 C95.1988125,85.3072106 93.2647774,84.1987508 92.6209309,83.7458587 C90.3974145,82.1644895 83.8092176,56.3246168 72.9287107,34.7033967" id="Path" stroke="#32324D" stroke-linecap="round" stroke-linejoin="round"></path>
                <path d="M118.060355,97.3751592 C117.311696,97.0874101 110.626173,93.6219096 104.267565,90.2314741" id="Path" stroke="#32324D" stroke-linecap="round" stroke-linejoin="round"></path>
                <path d="M88.9999182,49.8790361 C86.9660619,45.9581413 85.4412937,42.9305199 85.3040396,42.540182 C85.6708823,42.134831 86.3421797,40.2131672 86.3022512,38.0362824 C86.2623227,35.8593976 84.867322,35.2613798 84.7600142,28.4604915 C84.7250768,26.1309745 81.3161841,28.5881019 81.3586081,33.4172832" id="Path" stroke="#32324D" stroke-linecap="round" stroke-linejoin="round"></path>
                <path d="M124.4539,80.2953712 C121.708818,79.044288 101.961696,71.8605682 100.247268,70.1365755 C99.5385376,69.4259602 96.9481784,64.8119653 94.1182484,59.5524115" id="Path" stroke="#32324D" stroke-linecap="round" stroke-linejoin="round"></path>
            </g>
        </g>
    </g>
</svg>
