<svg width="828" height="486" viewBox="0 0 828 486" fill="none" xmlns="http://www.w3.org/2000/svg">
<path d="M727.428 204.679C727.428 207.086 727.343 209.431 727.246 211.92C727.106 215.494 729.339 218.635 732.571 219.777C783.828 239.165 820 287.765 820 344.328C820 417.936 758.749 478.006 682.873 478H145.122C69.2509 478 8 417.937 8 344.328C8 270.725 69.2511 210.656 145.122 210.656C146.724 210.656 148.308 210.677 149.874 210.723C158.513 210.977 166.472 206.008 170.104 198.229C189.5 156.692 232.447 127.754 282.511 127.754C294.756 127.754 306.529 129.494 317.647 132.707C327.545 135.568 338.428 131.03 343.004 121.486C375.155 54.4406 444.815 8 525.766 8C637.305 8 727.428 96.2535 727.428 204.679Z" stroke="#F7F8FB" stroke-width="16"/>
<rect x="287.5" y="328.5" width="170" height="92" rx="14.5" stroke="#1D2028"/>
<rect x="291.5" y="312.5" width="170" height="104" rx="11.5" fill="white" stroke="#40404B"/>
<rect x="291.5" y="312.5" width="170" height="104" rx="11.5" fill="url(#paint0_linear_395_1738)" fill-opacity="0.25" stroke="#1D2028"/>
<path d="M328.62 393.897L325.446 398.474L322.26 393.897H320.908V403H322.33V396.341L325.434 400.715L328.557 396.341V403H329.972V393.897H328.62ZM334.638 403.171C335.66 403.171 336.447 402.784 336.993 402.01V403H338.345V396.462H336.993V397.452C336.447 396.678 335.66 396.291 334.638 396.291C333.711 396.291 332.937 396.621 332.314 397.274C331.692 397.928 331.381 398.747 331.381 399.725C331.381 400.708 331.692 401.527 332.314 402.181C332.937 402.835 333.711 403.165 334.638 403.165V403.171ZM334.86 401.94C334.238 401.94 333.724 401.73 333.324 401.312C332.924 400.893 332.721 400.359 332.721 399.718C332.721 399.077 332.917 398.55 333.317 398.138C333.717 397.725 334.225 397.516 334.847 397.516C335.45 397.516 335.958 397.725 336.377 398.144C336.796 398.563 337.005 399.09 337.005 399.725C337.005 400.366 336.796 400.899 336.377 401.318C335.958 401.737 335.444 401.946 334.841 401.946L334.86 401.94ZM343.772 396.291C342.813 396.291 342.064 396.671 341.525 397.433V396.462H340.16V403H341.525V399.75C341.525 399.09 341.696 398.563 342.039 398.163C342.382 397.763 342.839 397.566 343.41 397.566C343.937 397.566 344.337 397.731 344.61 398.055C344.883 398.379 345.016 398.83 345.016 399.407V402.994H346.368V399.16C346.368 398.265 346.146 397.56 345.695 397.046C345.245 396.532 344.604 396.278 343.772 396.278V396.291ZM350.977 403.171C351.999 403.171 352.786 402.784 353.332 402.01V403H354.684V396.462H353.332V397.452C352.786 396.678 351.999 396.291 350.977 396.291C350.05 396.291 349.275 396.621 348.653 397.274C348.031 397.928 347.72 398.747 347.72 399.725C347.72 400.708 348.031 401.527 348.653 402.181C349.275 402.835 350.05 403.165 350.977 403.165V403.171ZM351.199 401.94C350.577 401.94 350.062 401.73 349.663 401.312C349.263 400.893 349.06 400.359 349.06 399.718C349.06 399.077 349.256 398.55 349.656 398.138C350.056 397.725 350.564 397.516 351.186 397.516C351.789 397.516 352.297 397.725 352.716 398.144C353.135 398.563 353.344 399.09 353.344 399.725C353.344 400.366 353.135 400.899 352.716 401.318C352.297 401.737 351.783 401.946 351.18 401.946L351.199 401.94ZM361.653 396.462V397.382C361.107 396.652 360.339 396.291 359.355 396.291C358.403 396.291 357.623 396.602 357.013 397.224C356.404 397.846 356.099 398.639 356.099 399.61C356.099 400.556 356.404 401.35 357.02 401.984C357.635 402.619 358.416 402.937 359.362 402.937C360.346 402.937 361.114 402.568 361.66 401.832V402.791C361.653 403.368 361.482 403.844 361.146 404.212C360.809 404.581 360.339 404.765 359.736 404.765C358.835 404.771 358.188 404.441 357.788 403.774L356.594 404.212C357.223 405.349 358.264 405.92 359.711 405.92C360.701 405.92 361.501 405.628 362.11 405.044C362.72 404.46 363.024 403.711 363.024 402.791V396.487L361.653 396.462ZM359.571 401.724C358.949 401.724 358.435 401.527 358.035 401.134C357.635 400.74 357.432 400.239 357.432 399.629C357.432 399.02 357.629 398.525 358.029 398.138C358.429 397.75 358.937 397.554 359.559 397.554C360.162 397.554 360.669 397.75 361.076 398.144C361.482 398.538 361.685 399.033 361.685 399.629C361.685 400.226 361.482 400.728 361.076 401.127C360.669 401.527 360.162 401.724 359.559 401.724H359.571ZM367.918 403.171C368.699 403.171 369.359 402.987 369.899 402.625C370.438 402.264 370.826 401.826 371.061 401.312L369.816 400.943C369.48 401.648 368.858 401.997 367.957 401.997C367.315 401.997 366.801 401.826 366.42 401.489C366.04 401.153 365.83 400.708 365.786 400.156H371.099C371.13 399.959 371.143 399.775 371.143 399.61C371.143 398.658 370.845 397.871 370.248 397.243C369.651 396.614 368.839 396.303 367.804 396.303C366.808 396.303 365.995 396.633 365.373 397.287C364.751 397.941 364.44 398.76 364.44 399.744C364.44 400.766 364.764 401.597 365.411 402.232C366.059 402.867 366.896 403.184 367.931 403.184L367.918 403.171ZM365.786 399.255C365.836 398.76 366.046 398.341 366.414 397.998C366.782 397.655 367.246 397.484 367.811 397.484C368.395 397.484 368.864 397.649 369.213 397.979C369.562 398.309 369.759 398.734 369.804 399.255H365.786ZM383.953 403L382.137 401.077C382.594 400.41 382.899 399.693 383.058 398.931L381.852 398.595C381.744 399.109 381.541 399.623 381.242 400.137L378.697 397.433C378.233 396.957 378.005 396.532 378.005 396.157C378.005 395.795 378.132 395.503 378.386 395.275C378.64 395.046 378.963 394.932 379.363 394.932C379.738 394.932 380.049 395.04 380.296 395.256C380.544 395.472 380.715 395.764 380.811 396.125L382.042 395.77C381.934 395.199 381.636 394.716 381.153 394.323C380.671 393.929 380.081 393.732 379.376 393.732C378.576 393.732 377.922 393.948 377.415 394.38C376.907 394.812 376.653 395.402 376.653 396.157C376.653 396.722 376.919 397.306 377.446 397.909C376.869 398.233 376.431 398.626 376.132 399.096C375.834 399.566 375.682 400.061 375.682 400.582C375.682 401.343 375.955 401.972 376.507 402.46C377.059 402.949 377.726 403.197 378.506 403.197C379.566 403.19 380.512 402.803 381.344 402.035L382.264 403.013L383.953 403ZM378.652 401.946C378.176 401.946 377.789 401.807 377.497 401.521C377.205 401.235 377.059 400.893 377.059 400.493C377.059 399.826 377.459 399.255 378.265 398.785L380.493 401.14C379.928 401.68 379.319 401.946 378.659 401.946H378.652ZM394.839 395.173V393.897H388.282V403H394.826V401.711H389.672V398.982H394.172V397.763H389.672V395.173H394.839ZM402.335 403L399.815 399.699L402.221 396.462H400.66L398.971 398.722L397.27 396.462H395.708L398.114 399.699L395.588 403H397.162L398.971 400.658L400.761 403H402.335ZM407.058 396.291C406.042 396.291 405.262 396.678 404.716 397.452V396.462H403.351V405.729H404.716V402.01C405.262 402.784 406.042 403.171 407.058 403.171C407.985 403.171 408.759 402.841 409.381 402.188C410.003 401.534 410.314 400.715 410.314 399.731C410.314 398.747 410.003 397.928 409.381 397.274C408.759 396.621 407.985 396.297 407.058 396.297V396.291ZM406.836 401.953C406.233 401.953 405.719 401.743 405.3 401.324C404.881 400.905 404.671 400.372 404.671 399.731C404.671 399.096 404.881 398.569 405.3 398.15C405.719 397.731 406.227 397.522 406.83 397.522C407.458 397.522 407.972 397.731 408.372 398.144C408.772 398.557 408.969 399.083 408.969 399.725C408.969 400.366 408.766 400.899 408.366 401.318C407.966 401.737 407.452 401.946 406.83 401.946L406.836 401.953ZM414.783 403.171C415.78 403.171 416.605 402.841 417.265 402.188C417.925 401.534 418.255 400.715 418.255 399.731C418.255 398.747 417.925 397.928 417.265 397.274C416.605 396.621 415.773 396.297 414.777 396.297C413.78 396.297 412.955 396.627 412.295 397.281C411.635 397.935 411.305 398.753 411.305 399.731C411.305 400.715 411.635 401.534 412.295 402.188C412.955 402.841 413.78 403.171 414.777 403.171H414.783ZM414.777 401.934C414.155 401.934 413.641 401.724 413.241 401.305C412.841 400.886 412.638 400.366 412.638 399.744C412.638 399.109 412.841 398.582 413.241 398.163C413.641 397.744 414.155 397.535 414.777 397.535C415.399 397.535 415.913 397.744 416.319 398.163C416.726 398.582 416.929 399.109 416.929 399.744C416.929 400.366 416.726 400.886 416.319 401.305C415.913 401.724 415.399 401.934 414.777 401.934ZM422.153 403.171C422.946 403.171 423.6 402.975 424.114 402.581C424.628 402.188 424.889 401.699 424.889 401.108C424.889 400.607 424.736 400.226 424.432 399.959C424.127 399.693 423.708 399.483 423.168 399.325L421.429 398.823C420.959 398.677 420.725 398.461 420.725 398.176C420.725 397.966 420.833 397.782 421.048 397.624C421.264 397.465 421.537 397.382 421.867 397.382C422.254 397.382 422.591 397.471 422.876 397.649C423.162 397.827 423.372 398.042 423.505 398.303L424.711 397.947C424.514 397.458 424.165 397.059 423.664 396.754C423.162 396.449 422.565 396.297 421.88 396.297C421.188 396.297 420.598 396.481 420.109 396.855C419.62 397.23 419.379 397.674 419.379 398.195C419.379 399.001 419.899 399.56 420.94 399.871L422.699 400.391C422.997 400.48 423.213 400.582 423.346 400.696C423.479 400.81 423.543 400.969 423.543 401.166C423.543 401.413 423.416 401.623 423.162 401.794C422.908 401.965 422.578 402.054 422.172 402.054C421.721 402.054 421.321 401.94 420.979 401.705C420.636 401.47 420.401 401.178 420.28 400.823L419.042 401.185C419.214 401.737 419.582 402.207 420.153 402.594C420.725 402.981 421.378 403.178 422.121 403.178L422.153 403.171ZM429.338 403.171C430.119 403.171 430.779 402.987 431.319 402.625C431.858 402.264 432.246 401.826 432.48 401.312L431.236 400.943C430.9 401.648 430.278 401.997 429.376 401.997C428.735 401.997 428.221 401.826 427.84 401.489C427.459 401.153 427.25 400.708 427.206 400.156H432.519C432.55 399.959 432.563 399.775 432.563 399.61C432.563 398.658 432.265 397.871 431.668 397.243C431.071 396.614 430.259 396.303 429.224 396.303C428.228 396.303 427.415 396.633 426.793 397.287C426.171 397.941 425.86 398.76 425.86 399.744C425.86 400.766 426.184 401.597 426.831 402.232C427.479 402.867 428.316 403.184 429.351 403.184L429.338 403.171ZM427.206 399.255C427.256 398.76 427.466 398.341 427.834 397.998C428.202 397.655 428.666 397.484 429.23 397.484C429.814 397.484 430.284 397.649 430.633 397.979C430.982 398.309 431.179 398.734 431.224 399.255H427.206Z" fill="#1D2028"/>
<path d="M400.5 337.543V347.426C400.5 359.469 394.865 370.818 385.271 378.097L377 384.372L368.729 378.097C359.135 370.818 353.5 359.469 353.5 347.426V337.543C353.5 336.688 353.986 335.907 354.753 335.529C368.778 328.612 385.222 328.612 399.247 335.529C400.014 335.907 400.5 336.688 400.5 337.543Z" stroke="#1D2028"/>
<path d="M397.5 339.79V345.732C397.5 357.821 391.822 369.208 382.166 376.482L377 380.374L371.834 376.482C362.178 369.208 356.5 357.821 356.5 345.732V339.79C356.5 339.059 356.916 338.392 357.573 338.07C369.829 332.068 384.171 332.068 396.427 338.07C397.084 338.392 397.5 339.059 397.5 339.79Z" fill="white" stroke="#1D2028"/>
<path d="M385.142 350.575L376.374 359.282L370.826 353.352C370.36 352.854 370.397 352.088 370.913 351.633C371.439 351.171 372.255 351.211 372.729 351.717L376.091 355.311L376.443 355.687L376.808 355.324L383.303 348.874C383.797 348.384 384.614 348.374 385.121 348.854C385.618 349.325 385.627 350.092 385.142 350.575Z" fill="url(#paint1_linear_395_1738)" fill-opacity="0.5" stroke="#1D2028"/>
<mask id="path-9-inside-1_395_1738" fill="white">
<path fill-rule="evenodd" clip-rule="evenodd" d="M430 376C438.837 376 446 368.837 446 360C446 351.163 438.837 344 430 344C421.163 344 414 351.163 414 360C414 368.837 421.163 376 430 376ZM425 356C423.895 356 423 356.895 423 358V363C423 365.761 425.239 368 428 368H432C434.761 368 437 365.761 437 363V358C437 356.895 436.105 356 435 356H425Z"/>
</mask>
<path fill-rule="evenodd" clip-rule="evenodd" d="M430 376C438.837 376 446 368.837 446 360C446 351.163 438.837 344 430 344C421.163 344 414 351.163 414 360C414 368.837 421.163 376 430 376ZM425 356C423.895 356 423 356.895 423 358V363C423 365.761 425.239 368 428 368H432C434.761 368 437 365.761 437 363V358C437 356.895 436.105 356 435 356H425Z" fill="white"/>
<path d="M445 360C445 368.284 438.284 375 430 375V377C439.389 377 447 369.389 447 360H445ZM430 345C438.284 345 445 351.716 445 360H447C447 350.611 439.389 343 430 343V345ZM415 360C415 351.716 421.716 345 430 345V343C420.611 343 413 350.611 413 360H415ZM430 375C421.716 375 415 368.284 415 360H413C413 369.389 420.611 377 430 377V375ZM424 358C424 357.448 424.448 357 425 357V355C423.343 355 422 356.343 422 358H424ZM424 363V358H422V363H424ZM428 367C425.791 367 424 365.209 424 363H422C422 366.314 424.686 369 428 369V367ZM432 367H428V369H432V367ZM436 363C436 365.209 434.209 367 432 367V369C435.314 369 438 366.314 438 363H436ZM436 358V363H438V358H436ZM435 357C435.552 357 436 357.448 436 358H438C438 356.343 436.657 355 435 355V357ZM425 357H435V355H425V357Z" fill="#1D2028" mask="url(#path-9-inside-1_395_1738)"/>
<path d="M433 355V355C433 353.343 431.657 352 430 352V352C428.343 352 427 353.343 427 355V355" stroke="#1D2028"/>
<circle cx="430" cy="361" r="0.5" stroke="#1D2028"/>
<mask id="path-13-inside-2_395_1738" fill="white">
<path fill-rule="evenodd" clip-rule="evenodd" d="M338.773 356.548L338.975 357.557C339.094 358.154 338.779 358.747 338.213 358.991L336.833 359.588C336.366 359.789 336.068 360.232 336.048 360.732C336.04 360.92 336.028 361.108 336.013 361.294C335.971 361.79 336.208 362.273 336.643 362.544L337.93 363.346C338.459 363.675 338.694 364.311 338.499 364.884L338.169 365.853C337.97 366.437 337.377 366.801 336.743 366.727L335.301 366.557C334.779 366.495 334.279 366.736 334.002 367.165C333.905 367.316 333.804 367.464 333.701 367.611C333.416 368.013 333.378 368.537 333.617 368.977L334.362 370.353C334.653 370.889 334.535 371.544 334.075 371.941L333.329 372.585C332.851 372.999 332.132 373.022 331.613 372.638L330.457 371.785C330.031 371.471 329.464 371.432 328.995 371.666C328.848 371.739 328.699 371.81 328.549 371.879C328.086 372.089 327.78 372.527 327.768 373.026L327.73 374.562C327.715 375.173 327.269 375.686 326.653 375.801L325.715 375.977C325.087 376.093 324.452 375.764 324.197 375.187L323.596 373.832C323.386 373.36 322.916 373.051 322.39 373.021C322.232 373.012 322.074 373 321.917 372.985C321.394 372.936 320.891 373.168 320.623 373.603L319.853 374.851C319.526 375.382 318.856 375.611 318.249 375.397L317.343 375.079C316.749 374.87 316.373 374.294 316.437 373.686L316.598 372.158C316.65 371.662 316.405 371.181 315.975 370.902C315.836 370.812 315.699 370.718 315.563 370.623C315.13 370.318 314.562 370.268 314.1 370.514L312.841 371.183C312.278 371.482 311.569 371.349 311.149 370.865L310.494 370.112C310.09 369.648 310.058 368.982 310.415 368.495L311.328 367.252C311.62 366.855 311.65 366.331 311.421 365.887C311.338 365.726 311.258 365.564 311.182 365.399C310.963 364.93 310.498 364.613 309.972 364.593L308.526 364.539C307.889 364.515 307.348 364.062 307.226 363.452L307.025 362.443C306.906 361.845 307.221 361.253 307.787 361.009L309.167 360.412C309.634 360.211 309.932 359.767 309.952 359.268C309.96 359.08 309.971 358.892 309.987 358.706C310.029 358.21 309.792 357.726 309.357 357.456L308.07 356.654C307.541 356.325 307.305 355.689 307.501 355.116L307.83 354.147C308.03 353.562 308.623 353.199 309.256 353.273L310.699 353.443C311.221 353.505 311.721 353.264 311.998 352.835C312.095 352.684 312.195 352.536 312.299 352.389C312.583 351.987 312.621 351.463 312.384 351.022L311.638 349.647C311.347 349.111 311.465 348.456 311.925 348.059L312.671 347.415C313.149 347.001 313.868 346.978 314.387 347.361L315.543 348.214C315.969 348.529 316.536 348.568 317.005 348.333C317.152 348.261 317.301 348.19 317.451 348.121C317.914 347.911 318.22 347.473 318.232 346.974L318.27 345.437C318.285 344.827 318.731 344.313 319.346 344.199L320.285 344.023C320.913 343.907 321.547 344.236 321.803 344.813L322.404 346.168C322.614 346.64 323.084 346.949 323.61 346.979C323.768 346.988 323.926 347 324.083 347.015C324.606 347.064 325.109 346.831 325.377 346.397L326.146 345.149C326.474 344.618 327.144 344.389 327.751 344.603L328.657 344.921C329.251 345.13 329.627 345.706 329.563 346.313L329.402 347.842C329.35 348.338 329.595 348.818 330.025 349.098C330.164 349.188 330.301 349.281 330.437 349.377C330.87 349.682 331.438 349.732 331.9 349.486L333.159 348.817C333.722 348.518 334.431 348.651 334.851 349.134L335.506 349.888C335.91 350.351 335.942 351.018 335.585 351.505L334.672 352.747C334.38 353.145 334.35 353.669 334.579 354.113C334.662 354.274 334.742 354.436 334.818 354.6C335.037 355.07 335.502 355.388 336.028 355.407L337.474 355.461C338.111 355.485 338.652 355.937 338.773 356.548ZM329.8 360C329.8 363.756 326.756 366.8 323 366.8C319.244 366.8 316.2 363.756 316.2 360C316.2 356.244 319.244 353.2 323 353.2C326.756 353.2 329.8 356.244 329.8 360ZM323 362C324.105 362 325 361.105 325 360C325 358.895 324.105 358 323 358C321.895 358 321 358.895 321 360C321 361.105 321.895 362 323 362Z"/>
</mask>
<path fill-rule="evenodd" clip-rule="evenodd" d="M338.773 356.548L338.975 357.557C339.094 358.154 338.779 358.747 338.213 358.991L336.833 359.588C336.366 359.789 336.068 360.232 336.048 360.732C336.04 360.92 336.028 361.108 336.013 361.294C335.971 361.79 336.208 362.273 336.643 362.544L337.93 363.346C338.459 363.675 338.694 364.311 338.499 364.884L338.169 365.853C337.97 366.437 337.377 366.801 336.743 366.727L335.301 366.557C334.779 366.495 334.279 366.736 334.002 367.165C333.905 367.316 333.804 367.464 333.701 367.611C333.416 368.013 333.378 368.537 333.617 368.977L334.362 370.353C334.653 370.889 334.535 371.544 334.075 371.941L333.329 372.585C332.851 372.999 332.132 373.022 331.613 372.638L330.457 371.785C330.031 371.471 329.464 371.432 328.995 371.666C328.848 371.739 328.699 371.81 328.549 371.879C328.086 372.089 327.78 372.527 327.768 373.026L327.73 374.562C327.715 375.173 327.269 375.686 326.653 375.801L325.715 375.977C325.087 376.093 324.452 375.764 324.197 375.187L323.596 373.832C323.386 373.36 322.916 373.051 322.39 373.021C322.232 373.012 322.074 373 321.917 372.985C321.394 372.936 320.891 373.168 320.623 373.603L319.853 374.851C319.526 375.382 318.856 375.611 318.249 375.397L317.343 375.079C316.749 374.87 316.373 374.294 316.437 373.686L316.598 372.158C316.65 371.662 316.405 371.181 315.975 370.902C315.836 370.812 315.699 370.718 315.563 370.623C315.13 370.318 314.562 370.268 314.1 370.514L312.841 371.183C312.278 371.482 311.569 371.349 311.149 370.865L310.494 370.112C310.09 369.648 310.058 368.982 310.415 368.495L311.328 367.252C311.62 366.855 311.65 366.331 311.421 365.887C311.338 365.726 311.258 365.564 311.182 365.399C310.963 364.93 310.498 364.613 309.972 364.593L308.526 364.539C307.889 364.515 307.348 364.062 307.226 363.452L307.025 362.443C306.906 361.845 307.221 361.253 307.787 361.009L309.167 360.412C309.634 360.211 309.932 359.767 309.952 359.268C309.96 359.08 309.971 358.892 309.987 358.706C310.029 358.21 309.792 357.726 309.357 357.456L308.07 356.654C307.541 356.325 307.305 355.689 307.501 355.116L307.83 354.147C308.03 353.562 308.623 353.199 309.256 353.273L310.699 353.443C311.221 353.505 311.721 353.264 311.998 352.835C312.095 352.684 312.195 352.536 312.299 352.389C312.583 351.987 312.621 351.463 312.384 351.022L311.638 349.647C311.347 349.111 311.465 348.456 311.925 348.059L312.671 347.415C313.149 347.001 313.868 346.978 314.387 347.361L315.543 348.214C315.969 348.529 316.536 348.568 317.005 348.333C317.152 348.261 317.301 348.19 317.451 348.121C317.914 347.911 318.22 347.473 318.232 346.974L318.27 345.437C318.285 344.827 318.731 344.313 319.346 344.199L320.285 344.023C320.913 343.907 321.547 344.236 321.803 344.813L322.404 346.168C322.614 346.64 323.084 346.949 323.61 346.979C323.768 346.988 323.926 347 324.083 347.015C324.606 347.064 325.109 346.831 325.377 346.397L326.146 345.149C326.474 344.618 327.144 344.389 327.751 344.603L328.657 344.921C329.251 345.13 329.627 345.706 329.563 346.313L329.402 347.842C329.35 348.338 329.595 348.818 330.025 349.098C330.164 349.188 330.301 349.281 330.437 349.377C330.87 349.682 331.438 349.732 331.9 349.486L333.159 348.817C333.722 348.518 334.431 348.651 334.851 349.134L335.506 349.888C335.91 350.351 335.942 351.018 335.585 351.505L334.672 352.747C334.38 353.145 334.35 353.669 334.579 354.113C334.662 354.274 334.742 354.436 334.818 354.6C335.037 355.07 335.502 355.388 336.028 355.407L337.474 355.461C338.111 355.485 338.652 355.937 338.773 356.548ZM329.8 360C329.8 363.756 326.756 366.8 323 366.8C319.244 366.8 316.2 363.756 316.2 360C316.2 356.244 319.244 353.2 323 353.2C326.756 353.2 329.8 356.244 329.8 360ZM323 362C324.105 362 325 361.105 325 360C325 358.895 324.105 358 323 358C321.895 358 321 358.895 321 360C321 361.105 321.895 362 323 362Z" fill="white"/>
<path d="M338.975 357.557L337.994 357.753L337.994 357.753L338.975 357.557ZM338.773 356.548L337.793 356.743L337.793 356.743L338.773 356.548ZM338.213 358.991L337.817 358.072L337.816 358.073L338.213 358.991ZM336.833 359.588L337.229 360.506L337.23 360.505L336.833 359.588ZM336.048 360.732L335.049 360.691L335.049 360.691L336.048 360.732ZM336.013 361.294L337.009 361.378L337.009 361.378L336.013 361.294ZM336.643 362.544L336.114 363.393L336.114 363.393L336.643 362.544ZM337.93 363.346L337.401 364.195L337.402 364.195L337.93 363.346ZM338.499 364.884L339.446 365.206L339.446 365.206L338.499 364.884ZM338.169 365.853L337.223 365.53L337.223 365.53L338.169 365.853ZM336.743 366.727L336.627 367.72L336.627 367.72L336.743 366.727ZM335.301 366.557L335.418 365.564L335.418 365.564L335.301 366.557ZM334.002 367.165L333.162 366.623L333.161 366.624L334.002 367.165ZM333.701 367.611L334.517 368.188L334.518 368.187L333.701 367.611ZM333.617 368.977L334.496 368.501L334.496 368.5L333.617 368.977ZM334.362 370.353L333.482 370.829L333.483 370.83L334.362 370.353ZM334.075 371.941L334.729 372.697L334.729 372.697L334.075 371.941ZM333.329 372.585L332.675 371.829L332.675 371.829L333.329 372.585ZM331.613 372.638L332.208 371.834L332.207 371.834L331.613 372.638ZM330.457 371.785L331.051 370.98L331.05 370.979L330.457 371.785ZM328.995 371.666L328.549 370.771L328.547 370.772L328.995 371.666ZM328.549 371.879L328.962 372.79L328.962 372.789L328.549 371.879ZM327.768 373.026L326.768 373.001L326.768 373.002L327.768 373.026ZM327.73 374.562L328.73 374.587L328.73 374.587L327.73 374.562ZM326.653 375.801L326.47 374.818L326.469 374.818L326.653 375.801ZM325.715 375.977L325.898 376.96L325.899 376.96L325.715 375.977ZM324.197 375.187L323.283 375.593L323.283 375.593L324.197 375.187ZM323.596 373.832L322.682 374.238L322.682 374.238L323.596 373.832ZM322.39 373.021L322.332 374.019H322.332L322.39 373.021ZM321.917 372.985L322.013 371.99L322.01 371.99L321.917 372.985ZM320.623 373.603L321.474 374.127L321.475 374.127L320.623 373.603ZM319.853 374.851L319.002 374.326L319.002 374.326L319.853 374.851ZM318.249 375.397L318.581 374.454L318.58 374.454L318.249 375.397ZM317.343 375.079L317.675 374.136L317.674 374.136L317.343 375.079ZM316.437 373.686L317.432 373.791L317.432 373.79L316.437 373.686ZM316.598 372.158L315.603 372.053L315.603 372.053L316.598 372.158ZM315.975 370.902L316.52 370.063L316.518 370.062L315.975 370.902ZM315.563 370.623L314.988 371.441L314.989 371.441L315.563 370.623ZM314.1 370.514L314.569 371.397L314.569 371.397L314.1 370.514ZM312.841 371.183L312.371 370.3L312.371 370.3L312.841 371.183ZM311.149 370.865L311.904 370.209L311.903 370.208L311.149 370.865ZM310.494 370.112L309.739 370.768L309.74 370.769L310.494 370.112ZM310.415 368.495L309.609 367.904L309.609 367.904L310.415 368.495ZM311.328 367.252L310.522 366.66L310.522 366.66L311.328 367.252ZM311.421 365.887L310.532 366.346L310.533 366.347L311.421 365.887ZM311.182 365.399L312.089 364.979L312.088 364.977L311.182 365.399ZM309.972 364.593L310.01 363.593L310.01 363.593L309.972 364.593ZM308.526 364.539L308.488 365.538L308.489 365.538L308.526 364.539ZM307.226 363.452L306.246 363.648L306.246 363.649L307.226 363.452ZM307.025 362.443L306.044 362.638L306.044 362.638L307.025 362.443ZM307.787 361.009L308.183 361.928L308.184 361.927L307.787 361.009ZM309.167 360.412L308.771 359.494L308.77 359.495L309.167 360.412ZM309.952 359.268L308.953 359.227L308.953 359.228L309.952 359.268ZM309.987 358.706L308.991 358.622L308.991 358.622L309.987 358.706ZM309.357 357.456L308.828 358.304L308.829 358.305L309.357 357.456ZM308.07 356.654L308.599 355.805L308.598 355.805L308.07 356.654ZM307.501 355.116L308.447 355.439L308.447 355.439L307.501 355.116ZM307.83 354.147L308.777 354.47L308.777 354.47L307.83 354.147ZM309.256 353.273L309.373 352.28L309.373 352.28L309.256 353.273ZM310.699 353.443L310.582 354.436L310.582 354.436L310.699 353.443ZM311.998 352.835L312.838 353.377L312.839 353.376L311.998 352.835ZM312.299 352.389L311.482 351.812L311.481 351.813L312.299 352.389ZM312.384 351.022L313.264 350.547L313.263 350.546L312.384 351.022ZM311.638 349.647L312.517 349.171L312.517 349.17L311.638 349.647ZM311.925 348.059L311.271 347.303L311.271 347.303L311.925 348.059ZM312.671 347.415L313.324 348.171L313.325 348.171L312.671 347.415ZM314.387 347.361L314.981 346.556L314.98 346.556L314.387 347.361ZM315.543 348.214L316.137 347.41L316.137 347.41L315.543 348.214ZM317.005 348.333L316.561 347.437L316.557 347.439L317.005 348.333ZM317.451 348.121L317.038 347.21L317.037 347.211L317.451 348.121ZM318.232 346.974L319.232 346.999L319.232 346.999L318.232 346.974ZM318.27 345.437L319.27 345.462L319.27 345.462L318.27 345.437ZM319.346 344.199L319.529 345.182L319.53 345.182L319.346 344.199ZM320.285 344.023L320.102 343.04L320.101 343.04L320.285 344.023ZM321.803 344.813L322.717 344.407L322.717 344.407L321.803 344.813ZM322.404 346.168L323.318 345.762L323.318 345.762L322.404 346.168ZM323.61 346.979L323.668 345.981L323.668 345.981L323.61 346.979ZM324.083 347.015L323.987 348.01L323.99 348.011L324.083 347.015ZM325.377 346.397L326.228 346.922L326.228 346.922L325.377 346.397ZM326.146 345.149L326.998 345.674L326.998 345.674L326.146 345.149ZM327.751 344.603L327.419 345.546L327.42 345.546L327.751 344.603ZM328.657 344.921L328.325 345.864L328.325 345.864L328.657 344.921ZM329.563 346.313L330.558 346.418L330.558 346.418L329.563 346.313ZM329.402 347.842L328.408 347.738L328.408 347.738L329.402 347.842ZM330.025 349.098L329.478 349.936L329.482 349.938L330.025 349.098ZM330.437 349.377L329.857 350.192L329.861 350.195L330.437 349.377ZM331.9 349.486L331.431 348.603L331.431 348.603L331.9 349.486ZM333.159 348.817L333.629 349.7L333.629 349.7L333.159 348.817ZM334.851 349.134L335.606 348.478L335.606 348.478L334.851 349.134ZM335.506 349.888L334.751 350.543L334.752 350.544L335.506 349.888ZM335.585 351.505L336.391 352.097L336.391 352.096L335.585 351.505ZM334.672 352.747L333.866 352.155L333.866 352.155L334.672 352.747ZM334.579 354.113L335.468 353.655L335.467 353.653L334.579 354.113ZM334.818 354.6L335.726 354.179L335.725 354.178L334.818 354.6ZM336.028 355.407L335.99 356.407L335.99 356.407L336.028 355.407ZM337.474 355.461L337.512 354.462L337.511 354.462L337.474 355.461ZM339.956 357.362L339.754 356.352L337.793 356.743L337.994 357.753L339.956 357.362ZM338.609 359.909C339.601 359.482 340.169 358.43 339.956 357.361L337.994 357.753C338.019 357.879 337.958 358.012 337.817 358.072L338.609 359.909ZM337.23 360.505L338.61 359.909L337.816 358.073L336.436 358.67L337.23 360.505ZM337.047 360.772C337.052 360.652 337.12 360.553 337.229 360.506L336.437 358.669C335.612 359.025 335.085 359.813 335.049 360.691L337.047 360.772ZM337.009 361.378C337.026 361.178 337.039 360.976 337.047 360.772L335.049 360.691C335.042 360.864 335.031 361.037 335.016 361.21L337.009 361.378ZM337.173 361.696C337.056 361.623 336.999 361.5 337.009 361.378L335.016 361.209C334.942 362.08 335.361 362.923 336.114 363.393L337.173 361.696ZM338.459 362.497L337.172 361.696L336.114 363.393L337.401 364.195L338.459 362.497ZM339.446 365.206C339.797 364.174 339.366 363.062 338.458 362.497L337.402 364.195C337.553 364.289 337.592 364.447 337.553 364.561L339.446 365.206ZM339.116 366.175L339.446 365.206L337.553 364.561L337.223 365.53L339.116 366.175ZM336.627 367.72C337.706 367.846 338.758 367.227 339.116 366.175L337.223 365.53C337.183 365.647 337.048 365.755 336.86 365.733L336.627 367.72ZM335.184 367.55L336.627 367.72L336.86 365.734L335.418 365.564L335.184 367.55ZM334.842 367.708C334.913 367.598 335.042 367.533 335.184 367.55L335.418 365.564C334.515 365.458 333.645 365.874 333.162 366.623L334.842 367.708ZM334.518 368.187C334.629 368.03 334.737 367.87 334.842 367.707L333.161 366.624C333.072 366.762 332.98 366.898 332.884 367.035L334.518 368.187ZM334.496 368.5C334.443 368.403 334.448 368.286 334.517 368.188L332.885 367.033C332.385 367.74 332.314 368.672 332.737 369.453L334.496 368.5ZM335.241 369.877L334.496 368.501L332.737 369.453L333.482 370.829L335.241 369.877ZM334.729 372.697C335.547 371.991 335.754 370.822 335.241 369.876L333.483 370.83C333.551 370.956 333.522 371.097 333.421 371.184L334.729 372.697ZM333.983 373.342L334.729 372.697L333.421 371.184L332.675 371.829L333.983 373.342ZM331.019 373.442C331.904 374.097 333.142 374.069 333.983 373.342L332.675 371.829C332.559 371.929 332.36 371.947 332.208 371.834L331.019 373.442ZM329.863 372.589L331.019 373.443L332.207 371.834L331.051 370.98L329.863 372.589ZM329.442 372.56C329.586 372.489 329.75 372.506 329.865 372.59L331.05 370.979C330.312 370.436 329.342 370.375 328.549 370.771L329.442 372.56ZM328.962 372.789C329.125 372.716 329.285 372.639 329.444 372.56L328.547 370.772C328.412 370.84 328.274 370.905 328.135 370.969L328.962 372.789ZM328.767 373.051C328.77 372.96 328.825 372.852 328.962 372.79L328.136 370.968C327.347 371.326 326.791 372.094 326.768 373.001L328.767 373.051ZM328.73 374.587L328.767 373.051L326.768 373.002L326.73 374.537L328.73 374.587ZM326.837 376.784C327.9 376.585 328.702 375.687 328.73 374.587L326.73 374.537C326.727 374.66 326.638 374.787 326.47 374.818L326.837 376.784ZM325.899 376.96L326.837 376.784L326.469 374.818L325.531 374.994L325.899 376.96ZM323.283 375.593C323.73 376.601 324.823 377.159 325.898 376.96L325.532 374.993C325.35 375.027 325.175 374.927 325.111 374.782L323.283 375.593ZM322.682 374.238L323.283 375.593L325.111 374.782L324.51 373.427L322.682 374.238ZM322.332 374.019C322.51 374.029 322.634 374.131 322.682 374.238L324.51 373.427C324.138 372.588 323.321 372.073 322.448 372.022L322.332 374.019ZM321.82 373.981C321.994 373.997 322.165 374.009 322.332 374.019L322.448 372.022C322.298 372.014 322.153 372.003 322.013 371.99L321.82 373.981ZM321.475 374.127C321.526 374.044 321.646 373.964 321.824 373.981L322.01 371.99C321.142 371.909 320.256 372.291 319.772 373.078L321.475 374.127ZM320.705 375.376L321.474 374.127L319.772 373.078L319.002 374.326L320.705 375.376ZM317.917 376.341C318.948 376.703 320.12 376.325 320.705 375.376L319.002 374.326C318.932 374.44 318.763 374.518 318.581 374.454L317.917 376.341ZM317.012 376.023L317.918 376.341L318.58 374.454L317.675 374.136L317.012 376.023ZM315.443 373.581C315.327 374.671 316.001 375.668 317.012 376.023L317.674 374.136C317.496 374.073 317.418 373.916 317.432 373.791L315.443 373.581ZM315.603 372.053L315.443 373.581L317.432 373.79L317.592 372.262L315.603 372.053ZM315.43 371.74C315.57 371.831 315.613 371.96 315.603 372.053L317.592 372.262C317.687 371.364 317.241 370.532 316.52 370.063L315.43 371.74ZM314.989 371.441C315.131 371.542 315.28 371.643 315.433 371.742L316.518 370.062C316.393 369.981 316.267 369.895 316.138 369.805L314.989 371.441ZM314.569 371.397C314.678 371.339 314.842 371.338 314.988 371.441L316.139 369.805C315.417 369.297 314.447 369.197 313.63 369.631L314.569 371.397ZM313.31 372.066L314.569 371.397L313.63 369.631L312.371 370.3L313.31 372.066ZM310.394 371.52C311.117 372.354 312.333 372.585 313.31 372.066L312.371 370.3C312.223 370.379 312.021 370.344 311.904 370.209L310.394 371.52ZM309.74 370.769L310.394 371.521L311.903 370.208L311.248 369.456L309.74 370.769ZM309.609 367.904C308.967 368.778 309.038 369.961 309.739 370.768L311.249 369.457C311.143 369.335 311.148 369.187 311.221 369.087L309.609 367.904ZM310.522 366.66L309.609 367.904L311.221 369.087L312.134 367.844L310.522 366.66ZM310.533 366.347C310.597 366.471 310.577 366.585 310.522 366.66L312.134 367.844C312.663 367.124 312.704 366.191 312.31 365.428L310.533 366.347ZM310.274 365.818C310.357 365.999 310.444 366.174 310.532 366.346L312.31 365.429C312.232 365.279 312.159 365.129 312.089 364.979L310.274 365.818ZM309.934 365.592C310.079 365.597 310.212 365.686 310.275 365.821L312.088 364.977C311.714 364.174 310.918 363.628 310.01 363.593L309.934 365.592ZM308.489 365.538L309.935 365.592L310.01 363.593L308.563 363.539L308.489 365.538ZM306.246 363.649C306.461 364.727 307.405 365.497 308.488 365.538L308.564 363.539C308.373 363.532 308.235 363.397 308.207 363.256L306.246 363.649ZM306.044 362.638L306.246 363.648L308.207 363.257L308.006 362.247L306.044 362.638ZM307.391 360.091C306.399 360.519 305.832 361.57 306.044 362.638L308.006 362.248C307.98 362.12 308.042 361.988 308.183 361.928L307.391 360.091ZM308.77 359.495L307.39 360.091L308.184 361.927L309.564 361.33L308.77 359.495ZM308.953 359.228C308.948 359.348 308.879 359.447 308.771 359.494L309.563 361.331C310.388 360.975 310.916 360.186 310.951 359.309L308.953 359.228ZM308.991 358.622C308.974 358.822 308.961 359.025 308.953 359.227L310.951 359.31C310.958 359.136 310.969 358.962 310.984 358.79L308.991 358.622ZM308.829 358.305C308.943 358.376 309.001 358.498 308.991 358.622L310.984 358.791C311.057 357.922 310.641 357.076 309.884 356.606L308.829 358.305ZM307.541 357.503L308.828 358.304L309.886 356.607L308.599 355.805L307.541 357.503ZM306.554 354.794C306.203 355.826 306.634 356.939 307.542 357.503L308.598 355.805C308.447 355.711 308.408 355.553 308.447 355.439L306.554 354.794ZM306.884 353.825L306.554 354.794L308.447 355.439L308.777 354.47L306.884 353.825ZM309.373 352.28C308.294 352.154 307.242 352.772 306.884 353.825L308.777 354.47C308.817 354.352 308.952 354.244 309.14 354.267L309.373 352.28ZM310.816 352.45L309.373 352.28L309.14 354.266L310.582 354.436L310.816 352.45ZM311.158 352.292C311.087 352.402 310.958 352.467 310.816 352.45L310.582 354.436C311.485 354.542 312.355 354.126 312.838 353.377L311.158 352.292ZM311.481 351.813C311.371 351.97 311.263 352.13 311.157 352.293L312.839 353.376C312.928 353.238 313.02 353.102 313.116 352.965L311.481 351.813ZM311.504 351.497C311.558 351.597 311.552 351.714 311.482 351.812L313.115 352.967C313.615 352.26 313.685 351.328 313.264 350.547L311.504 351.497ZM310.759 350.124L311.504 351.499L313.263 350.546L312.517 349.171L310.759 350.124ZM311.271 347.303C310.453 348.009 310.246 349.178 310.759 350.124L312.517 349.17C312.449 349.044 312.477 348.903 312.579 348.816L311.271 347.303ZM312.017 346.658L311.271 347.303L312.579 348.816L313.324 348.171L312.017 346.658ZM314.98 346.556C314.095 345.903 312.858 345.931 312.017 346.658L313.325 348.171C313.441 348.071 313.641 348.053 313.793 348.166L314.98 346.556ZM316.137 347.41L314.981 346.556L313.793 348.165L314.949 349.019L316.137 347.41ZM316.557 347.439C316.413 347.511 316.25 347.494 316.137 347.41L314.949 349.019C315.688 349.564 316.659 349.625 317.453 349.228L316.557 347.439ZM317.037 347.211C316.875 347.284 316.716 347.36 316.561 347.437L317.449 349.229C317.587 349.161 317.726 349.095 317.865 349.031L317.037 347.211ZM317.232 346.949C317.23 347.041 317.175 347.148 317.038 347.21L317.864 349.032C318.654 348.674 319.209 347.906 319.232 346.999L317.232 346.949ZM317.271 345.412L317.232 346.949L319.232 346.999L319.27 345.462L317.271 345.412ZM319.164 343.216C318.1 343.413 317.298 344.313 317.271 345.412L319.27 345.462C319.273 345.34 319.363 345.213 319.529 345.182L319.164 343.216ZM320.101 343.04L319.162 343.216L319.53 345.182L320.469 345.006L320.101 343.04ZM322.717 344.407C322.27 343.399 321.177 342.841 320.102 343.04L320.467 345.007C320.65 344.973 320.825 345.073 320.889 345.218L322.717 344.407ZM323.318 345.762L322.717 344.407L320.889 345.218L321.49 346.573L323.318 345.762ZM323.668 345.981C323.49 345.971 323.366 345.869 323.318 345.762L321.49 346.573C321.862 347.412 322.679 347.927 323.552 347.977L323.668 345.981ZM324.18 346.02C324.006 346.003 323.835 345.991 323.668 345.981L323.552 347.977C323.702 347.986 323.846 347.997 323.987 348.01L324.18 346.02ZM324.526 345.873C324.474 345.955 324.353 346.036 324.176 346.019L323.99 348.011C324.859 348.092 325.744 347.707 326.228 346.922L324.526 345.873ZM325.295 344.624L324.526 345.873L326.228 346.922L326.998 345.674L325.295 344.624ZM328.083 343.659C327.052 343.297 325.88 343.675 325.295 344.624L326.998 345.674C327.068 345.56 327.236 345.482 327.419 345.546L328.083 343.659ZM328.988 343.977L328.082 343.659L327.42 345.546L328.325 345.864L328.988 343.977ZM330.558 346.418C330.672 345.328 329.999 344.332 328.988 343.977L328.325 345.864C328.504 345.927 328.582 346.084 328.569 346.209L330.558 346.418ZM330.397 347.947L330.558 346.418L328.569 346.209L328.408 347.738L330.397 347.947ZM330.572 348.261C330.429 348.168 330.387 348.039 330.397 347.947L328.408 347.738C328.313 348.637 328.761 349.467 329.478 349.936L330.572 348.261ZM331.016 348.562C330.867 348.456 330.717 348.355 330.567 348.258L329.482 349.938C329.61 350.021 329.735 350.105 329.857 350.192L331.016 348.562ZM331.431 348.603C331.322 348.661 331.158 348.662 331.012 348.559L329.861 350.195C330.583 350.703 331.553 350.803 332.37 350.369L331.431 348.603ZM332.69 347.934L331.431 348.603L332.369 350.369L333.629 349.7L332.69 347.934ZM335.606 348.478C334.882 347.646 333.667 347.415 332.69 347.934L333.629 349.7C333.777 349.621 333.98 349.656 334.097 349.791L335.606 348.478ZM336.261 349.232L335.606 348.478L334.097 349.79L334.751 350.543L336.261 349.232ZM336.391 352.096C337.032 351.223 336.963 350.038 336.26 349.231L334.752 350.544C334.856 350.664 334.852 350.813 334.779 350.913L336.391 352.096ZM335.478 353.339L336.391 352.097L334.779 350.913L333.866 352.155L335.478 353.339ZM335.467 353.653C335.403 353.53 335.423 353.415 335.478 353.339L333.866 352.155C333.337 352.876 333.296 353.809 333.69 354.572L335.467 353.653ZM335.725 354.178C335.642 354 335.556 353.826 335.468 353.655L333.69 354.57C333.767 354.721 333.842 354.872 333.912 355.023L335.725 354.178ZM336.066 354.408C335.922 354.403 335.788 354.315 335.726 354.179L333.911 355.021C334.285 355.826 335.082 356.372 335.99 356.407L336.066 354.408ZM337.511 354.462L336.065 354.408L335.99 356.407L337.437 356.461L337.511 354.462ZM339.754 356.352C339.539 355.272 338.594 354.503 337.512 354.462L337.436 356.461C337.627 356.468 337.765 356.603 337.793 356.743L339.754 356.352ZM323 367.8C327.308 367.8 330.8 364.308 330.8 360H328.8C328.8 363.203 326.203 365.8 323 365.8V367.8ZM315.2 360C315.2 364.308 318.692 367.8 323 367.8V365.8C319.797 365.8 317.2 363.203 317.2 360H315.2ZM323 352.2C318.692 352.2 315.2 355.692 315.2 360H317.2C317.2 356.797 319.797 354.2 323 354.2V352.2ZM330.8 360C330.8 355.692 327.308 352.2 323 352.2V354.2C326.203 354.2 328.8 356.797 328.8 360H330.8ZM324 360C324 360.552 323.552 361 323 361V363C324.657 363 326 361.657 326 360H324ZM323 359C323.552 359 324 359.448 324 360H326C326 358.343 324.657 357 323 357V359ZM322 360C322 359.448 322.448 359 323 359V357C321.343 357 320 358.343 320 360H322ZM323 361C322.448 361 322 360.552 322 360H320C320 361.657 321.343 363 323 363V361Z" fill="#1D2028" mask="url(#path-13-inside-2_395_1738)"/>
<path d="M120.643 461H122.115L118.51 451.897H116.707L113.102 461H114.574L115.444 458.791H119.773L120.643 461ZM115.926 457.541L117.615 453.237L119.291 457.541H115.926ZM127.263 451.897H123.125V461H124.534V457.998H127.193C128.158 457.998 128.926 457.693 129.491 457.077C130.056 456.461 130.342 455.757 130.342 454.957C130.342 454.157 130.062 453.446 129.504 452.824C128.945 452.202 128.196 451.891 127.263 451.891V451.897ZM127.168 456.715H124.534V453.167H127.238C127.739 453.167 128.152 453.345 128.482 453.7C128.812 454.056 128.977 454.475 128.977 454.951C128.977 455.427 128.812 455.839 128.482 456.188C128.152 456.538 127.714 456.715 127.168 456.715ZM131.58 461H133.014V451.897H131.58V461ZM145.83 451.897L142.656 456.474L139.47 451.897H138.118V461H139.54V454.341L142.644 458.715L145.767 454.341V461H147.182V451.897H145.83ZM151.848 461.171C152.87 461.171 153.657 460.784 154.203 460.01V461H155.555V454.462H154.203V455.452C153.657 454.678 152.87 454.291 151.848 454.291C150.921 454.291 150.146 454.621 149.524 455.274C148.902 455.928 148.591 456.747 148.591 457.725C148.591 458.708 148.902 459.527 149.524 460.181C150.146 460.835 150.921 461.165 151.848 461.165V461.171ZM152.07 459.94C151.448 459.94 150.934 459.73 150.534 459.312C150.134 458.893 149.931 458.359 149.931 457.718C149.931 457.077 150.127 456.55 150.527 456.138C150.927 455.725 151.435 455.516 152.057 455.516C152.66 455.516 153.168 455.725 153.587 456.144C154.006 456.563 154.215 457.09 154.215 457.725C154.215 458.366 154.006 458.899 153.587 459.318C153.168 459.737 152.654 459.946 152.051 459.946L152.07 459.94ZM158.729 455.503V454.462H157.364V461H158.729V458.048C158.729 457.122 158.919 456.468 159.306 456.081C159.693 455.693 160.246 455.554 160.963 455.662V454.392C160.442 454.322 159.985 454.392 159.598 454.595C159.211 454.798 158.919 455.103 158.722 455.509L158.729 455.503ZM166.625 461H168.187L165.273 457.293L167.882 454.462H166.27L163.54 457.439V451.51H162.175V461H163.54V459.166L164.416 458.232L166.625 461ZM171.913 461.171C172.693 461.171 173.354 460.987 173.893 460.625C174.433 460.264 174.82 459.826 175.055 459.312L173.811 458.943C173.474 459.648 172.852 459.997 171.951 459.997C171.31 459.997 170.795 459.826 170.415 459.489C170.034 459.153 169.824 458.708 169.78 458.156H175.093C175.125 457.959 175.137 457.775 175.137 457.61C175.137 456.658 174.839 455.871 174.242 455.243C173.646 454.614 172.833 454.303 171.798 454.303C170.802 454.303 169.989 454.633 169.367 455.287C168.745 455.941 168.434 456.76 168.434 457.744C168.434 458.766 168.758 459.597 169.405 460.232C170.053 460.867 170.891 461.184 171.925 461.184L171.913 461.171ZM169.78 457.255C169.831 456.76 170.04 456.341 170.408 455.998C170.776 455.655 171.24 455.484 171.805 455.484C172.389 455.484 172.858 455.649 173.208 455.979C173.557 456.309 173.753 456.734 173.798 457.255H169.78ZM179.987 459.673C179.701 459.813 179.416 459.883 179.13 459.883C178.501 459.883 178.19 459.546 178.19 458.88V455.668H180.272V454.462H178.19V452.278H176.838V454.462H175.645V455.668H176.838V458.88C176.838 459.572 177.01 460.118 177.346 460.511C177.683 460.905 178.197 461.102 178.882 461.102C179.346 461.102 179.828 461 180.323 460.791L179.987 459.673ZM185.37 454.291C184.354 454.291 183.573 454.678 183.027 455.452V454.462H181.663V463.729H183.027V460.01C183.573 460.784 184.354 461.171 185.37 461.171C186.296 461.171 187.071 460.841 187.693 460.188C188.315 459.534 188.626 458.715 188.626 457.731C188.626 456.747 188.315 455.928 187.693 455.274C187.071 454.621 186.296 454.297 185.37 454.297V454.291ZM185.147 459.953C184.544 459.953 184.03 459.743 183.611 459.324C183.192 458.905 182.983 458.372 182.983 457.731C182.983 457.096 183.192 456.569 183.611 456.15C184.03 455.731 184.538 455.522 185.141 455.522C185.77 455.522 186.284 455.731 186.684 456.144C187.083 456.557 187.28 457.083 187.28 457.725C187.28 458.366 187.077 458.899 186.677 459.318C186.277 459.737 185.763 459.946 185.141 459.946L185.147 459.953ZM190.029 461H191.394V451.51H190.029V461ZM196.065 461.171C197.087 461.171 197.875 460.784 198.42 460.01V461H199.772V454.462H198.42V455.452C197.875 454.678 197.087 454.291 196.065 454.291C195.139 454.291 194.364 454.621 193.742 455.274C193.12 455.928 192.809 456.747 192.809 457.725C192.809 458.708 193.12 459.527 193.742 460.181C194.364 460.835 195.139 461.165 196.065 461.165V461.171ZM196.288 459.94C195.666 459.94 195.151 459.73 194.751 459.312C194.352 458.893 194.148 458.359 194.148 457.718C194.148 457.077 194.345 456.55 194.745 456.138C195.145 455.725 195.653 455.516 196.275 455.516C196.878 455.516 197.386 455.725 197.805 456.144C198.224 456.563 198.433 457.09 198.433 457.725C198.433 458.366 198.224 458.899 197.805 459.318C197.386 459.737 196.872 459.946 196.269 459.946L196.288 459.94ZM204.616 461.171C205.435 461.171 206.12 460.962 206.672 460.543C207.225 460.124 207.567 459.654 207.707 459.127L206.444 458.778C206.349 459.102 206.133 459.375 205.796 459.604C205.46 459.832 205.066 459.946 204.616 459.946C204 459.946 203.492 459.73 203.099 459.292C202.705 458.854 202.508 458.334 202.508 457.731C202.508 457.115 202.705 456.595 203.099 456.169C203.492 455.744 204 455.528 204.622 455.528C205.073 455.528 205.466 455.649 205.803 455.89C206.139 456.131 206.355 456.411 206.45 456.734L207.713 456.373C207.574 455.833 207.225 455.357 206.666 454.938C206.107 454.519 205.422 454.31 204.603 454.31C203.619 454.31 202.8 454.64 202.153 455.293C201.505 455.947 201.182 456.766 201.182 457.744C201.182 458.721 201.505 459.54 202.159 460.2C202.813 460.86 203.632 461.19 204.616 461.19V461.171ZM212.195 461.171C212.976 461.171 213.636 460.987 214.175 460.625C214.715 460.264 215.102 459.826 215.337 459.312L214.093 458.943C213.756 459.648 213.134 459.997 212.233 459.997C211.592 459.997 211.078 459.826 210.697 459.489C210.316 459.153 210.106 458.708 210.062 458.156H215.375C215.407 457.959 215.419 457.775 215.419 457.61C215.419 456.658 215.121 455.871 214.524 455.243C213.928 454.614 213.115 454.303 212.081 454.303C211.084 454.303 210.271 454.633 209.649 455.287C209.027 455.941 208.716 456.76 208.716 457.744C208.716 458.766 209.04 459.597 209.688 460.232C210.335 460.867 211.173 461.184 212.208 461.184L212.195 461.171ZM210.062 457.255C210.113 456.76 210.322 456.341 210.69 455.998C211.059 455.655 211.522 455.484 212.087 455.484C212.671 455.484 213.141 455.649 213.49 455.979C213.839 456.309 214.036 456.734 214.08 457.255H210.062Z" fill="#1D2028"/>
<rect x="45.5" y="429.5" width="55" height="55" rx="27.5" fill="#1D2028"/>
<g clip-path="url(#clip0_395_1738)">
<path d="M79.2896 445C79.9988 445 80.6654 445.322 81.1058 445.869L81.231 446.039L83.6698 449.697L85.0031 465.339C85.0031 467.289 83.4809 468.883 81.5598 468.999L81.3365 469.005H64.6667C62.7166 469.005 61.1221 467.483 61.0067 465.562L61 465.339L62.3333 449.697L64.7721 446.039C65.1655 445.449 65.8034 445.073 66.5023 445.01L66.7136 445H79.2896ZM77 454C76.4477 454 76 454.448 76 455L75.9931 455.205C75.8875 456.766 74.5878 458 73 458C71.3431 458 70 456.657 70 455C70 454.448 69.5523 454 69 454C68.4477 454 68 454.448 68 455C68 457.761 70.2386 460 73 460C75.7614 460 78 457.761 78 455C78 454.448 77.5523 454 77 454ZM79.2896 447H66.7136C66.63 447 66.5505 447.031 66.49 447.086L66.4362 447.148L65.2 449H80.8013L79.5669 447.148C79.536 447.102 79.4945 447.065 79.4468 447.039L79.3712 447.01L79.2896 447Z" fill="white"/>
</g>
<rect x="45.5" y="429.5" width="55" height="55" rx="27.5" stroke="#1D2028"/>
<rect x="564" y="108" width="186" height="84" rx="15" fill="#E0E2E9"/>
<rect x="753.5" y="187.5" width="185" height="95" rx="11.5" transform="rotate(180 753.5 187.5)" fill="white" stroke="#1D2028"/>
<rect x="724" y="92" width="12" height="1" fill="white"/>
<rect x="585" y="129.619" width="8" height="43" rx="4" fill="#F7F8FB"/>
<rect x="633" y="126.619" width="8" height="46" rx="4" fill="#F7F8FB"/>
<rect x="681" y="120.619" width="8" height="52" rx="4" fill="#F7F8FB"/>
<rect x="617" y="124.619" width="8" height="48" rx="4" fill="#F7F8FB"/>
<rect x="601" y="143.619" width="8" height="29" rx="4" fill="#F7F8FB"/>
<rect x="665" y="123.619" width="8" height="49" rx="4" fill="#F7F8FB"/>
<rect x="713" y="114.619" width="8" height="58" rx="4" fill="#F7F8FB"/>
<rect x="729" y="104.619" width="8" height="68" rx="4" fill="#F7F8FB"/>
<rect x="649" y="155.619" width="8" height="17" rx="4" fill="#F7F8FB"/>
<rect x="697" y="125.619" width="8" height="47" rx="4" fill="#F7F8FB"/>
<path d="M685.908 174.619H687.342V165.516H685.908V174.619ZM692.776 167.909C691.817 167.909 691.068 168.29 690.529 169.052V168.081H689.164V174.619H690.529V171.369C690.529 170.708 690.7 170.182 691.043 169.782C691.386 169.382 691.843 169.185 692.414 169.185C692.941 169.185 693.341 169.35 693.614 169.674C693.887 169.998 694.02 170.448 694.02 171.026V174.612H695.372V170.778C695.372 169.883 695.15 169.179 694.699 168.665C694.249 168.15 693.607 167.896 692.776 167.896V167.909ZM699.619 174.79C700.412 174.79 701.066 174.593 701.58 174.2C702.094 173.806 702.354 173.317 702.354 172.727C702.354 172.226 702.202 171.845 701.897 171.578C701.593 171.312 701.174 171.102 700.634 170.943L698.895 170.442C698.425 170.296 698.19 170.08 698.19 169.794C698.19 169.585 698.298 169.401 698.514 169.242C698.73 169.083 699.003 169.001 699.333 169.001C699.72 169.001 700.057 169.09 700.342 169.268C700.628 169.445 700.837 169.661 700.971 169.921L702.177 169.566C701.98 169.077 701.631 168.677 701.129 168.373C700.628 168.068 700.031 167.916 699.346 167.916C698.654 167.916 698.063 168.1 697.575 168.474C697.086 168.849 696.845 169.293 696.845 169.813C696.845 170.62 697.365 171.178 698.406 171.489L700.165 172.01C700.463 172.099 700.679 172.2 700.812 172.314C700.945 172.429 701.009 172.587 701.009 172.784C701.009 173.032 700.882 173.241 700.628 173.413C700.374 173.584 700.044 173.673 699.638 173.673C699.187 173.673 698.787 173.559 698.444 173.324C698.102 173.089 697.867 172.797 697.746 172.441L696.508 172.803C696.68 173.355 697.048 173.825 697.619 174.212C698.19 174.6 698.844 174.796 699.587 174.796L699.619 174.79ZM704.538 167.014C704.779 167.014 704.982 166.932 705.147 166.773C705.312 166.614 705.395 166.411 705.395 166.17C705.395 165.948 705.312 165.751 705.147 165.586C704.982 165.421 704.779 165.338 704.538 165.338C704.297 165.338 704.094 165.421 703.929 165.586C703.764 165.751 703.681 165.948 703.681 166.17C703.681 166.411 703.764 166.614 703.929 166.773C704.094 166.932 704.297 167.014 704.538 167.014ZM703.846 174.619H705.198V168.081H703.846V174.619ZM712.219 168.081V169.001C711.673 168.271 710.905 167.909 709.921 167.909C708.969 167.909 708.188 168.22 707.579 168.842C706.969 169.464 706.665 170.258 706.665 171.229C706.665 172.175 706.969 172.968 707.585 173.603C708.201 174.238 708.981 174.555 709.927 174.555C710.911 174.555 711.679 174.187 712.225 173.451V174.409C712.219 174.987 712.047 175.463 711.711 175.831C711.375 176.199 710.905 176.383 710.302 176.383C709.4 176.39 708.753 176.06 708.353 175.393L707.16 175.831C707.788 176.967 708.829 177.539 710.276 177.539C711.267 177.539 712.066 177.247 712.676 176.663C713.285 176.079 713.59 175.33 713.59 174.409V168.106L712.219 168.081ZM710.137 173.343C709.515 173.343 709 173.146 708.601 172.752C708.201 172.359 707.998 171.857 707.998 171.248C707.998 170.639 708.194 170.144 708.594 169.756C708.994 169.369 709.502 169.172 710.124 169.172C710.727 169.172 711.235 169.369 711.641 169.763C712.047 170.156 712.25 170.651 712.25 171.248C712.25 171.845 712.047 172.346 711.641 172.746C711.235 173.146 710.727 173.343 710.124 173.343H710.137ZM719.017 167.909C718.059 167.909 717.31 168.29 716.77 169.052V165.129H715.405V174.619H716.77V171.369C716.77 170.708 716.941 170.182 717.284 169.782C717.627 169.382 718.084 169.185 718.655 169.185C719.182 169.185 719.582 169.35 719.855 169.674C720.128 169.998 720.261 170.448 720.261 171.026V174.612H721.613V170.778C721.613 169.883 721.391 169.179 720.94 168.665C720.49 168.15 719.849 167.896 719.017 167.896V167.909ZM727.041 173.292C726.755 173.432 726.469 173.501 726.184 173.501C725.555 173.501 725.244 173.165 725.244 172.499V169.287H727.326V168.081H725.244V165.897H723.892V168.081H722.699V169.287H723.892V172.499C723.892 173.19 724.063 173.736 724.4 174.13C724.736 174.523 725.25 174.72 725.936 174.72C726.399 174.72 726.882 174.619 727.377 174.409L727.041 173.292ZM731.141 174.79C731.935 174.79 732.588 174.593 733.103 174.2C733.617 173.806 733.877 173.317 733.877 172.727C733.877 172.226 733.725 171.845 733.42 171.578C733.115 171.312 732.696 171.102 732.157 170.943L730.417 170.442C729.948 170.296 729.713 170.08 729.713 169.794C729.713 169.585 729.821 169.401 730.037 169.242C730.252 169.083 730.525 169.001 730.855 169.001C731.243 169.001 731.579 169.09 731.865 169.268C732.15 169.445 732.36 169.661 732.493 169.921L733.699 169.566C733.502 169.077 733.153 168.677 732.652 168.373C732.15 168.068 731.554 167.916 730.868 167.916C730.176 167.916 729.586 168.1 729.097 168.474C728.608 168.849 728.367 169.293 728.367 169.813C728.367 170.62 728.888 171.178 729.929 171.489L731.687 172.01C731.985 172.099 732.201 172.2 732.334 172.314C732.468 172.429 732.531 172.587 732.531 172.784C732.531 173.032 732.404 173.241 732.15 173.413C731.896 173.584 731.566 173.673 731.16 173.673C730.709 173.673 730.31 173.559 729.967 173.324C729.624 173.089 729.389 172.797 729.269 172.441L728.031 172.803C728.202 173.355 728.57 173.825 729.142 174.212C729.713 174.6 730.367 174.796 731.109 174.796L731.141 174.79Z" fill="#1D2028"/>
<path d="M743.736 69.1779C743.006 68.7869 742.097 69.062 741.706 69.7923L715.842 118.104L700.754 128.948L685.085 123.562L668.441 127.32L652.5 163L638.011 139.233L620.365 137.028L604.84 155.949L590.748 143.179C590.134 142.622 589.186 142.669 588.629 143.283C588.073 143.897 588.12 144.845 588.734 145.402L605.16 160.288L621.635 140.21L635.989 142.004L653.017 168.722L670.559 129.917L684.915 126.676L701.246 132.289L718.158 120.134L744.35 71.2082C744.741 70.4779 744.466 69.5689 743.736 69.1779Z" fill="url(#paint2_linear_395_1738)"/>
<rect x="164.5" y="193.5" width="87" height="99" rx="14.5" stroke="#40404B"/>
<rect x="255.5" y="288.5" width="87" height="111" rx="11.5" transform="rotate(180 255.5 288.5)" fill="white" stroke="#40404B"/>
<path d="M190.615 265.897H186.908V275H190.615C191.967 275 193.04 274.575 193.833 273.724C194.626 272.874 195.026 271.782 195.026 270.449C195.026 269.109 194.626 268.018 193.827 267.173C193.027 266.329 191.954 265.904 190.615 265.904V265.897ZM190.589 273.73H188.317V267.18H190.589C191.516 267.18 192.252 267.484 192.798 268.094C193.344 268.703 193.617 269.484 193.617 270.436C193.617 271.407 193.344 272.201 192.798 272.816C192.252 273.432 191.516 273.743 190.589 273.743V273.73ZM199.54 275.171C200.32 275.171 200.98 274.987 201.52 274.626C202.06 274.264 202.447 273.826 202.682 273.312L201.438 272.943C201.101 273.648 200.479 273.997 199.578 273.997C198.937 273.997 198.422 273.826 198.042 273.489C197.661 273.153 197.451 272.709 197.407 272.156H202.72C202.751 271.959 202.764 271.775 202.764 271.61C202.764 270.658 202.466 269.871 201.869 269.243C201.272 268.614 200.46 268.303 199.425 268.303C198.429 268.303 197.616 268.633 196.994 269.287C196.372 269.941 196.061 270.76 196.061 271.744C196.061 272.766 196.385 273.597 197.032 274.232C197.68 274.867 198.518 275.184 199.552 275.184L199.54 275.171ZM197.407 271.255C197.458 270.76 197.667 270.341 198.035 269.998C198.403 269.655 198.867 269.484 199.432 269.484C200.016 269.484 200.485 269.649 200.834 269.979C201.184 270.309 201.38 270.734 201.425 271.255H197.407ZM208.591 268.462L206.535 273.521L204.497 268.462H203.012L205.786 275H207.303L210.07 268.462H208.591ZM213.911 275.171C214.691 275.171 215.352 274.987 215.891 274.626C216.431 274.264 216.818 273.826 217.053 273.312L215.809 272.943C215.472 273.648 214.85 273.997 213.949 273.997C213.308 273.997 212.793 273.826 212.413 273.489C212.032 273.153 211.822 272.709 211.778 272.156H217.091C217.123 271.959 217.135 271.775 217.135 271.61C217.135 270.658 216.837 269.871 216.24 269.243C215.644 268.614 214.831 268.303 213.796 268.303C212.8 268.303 211.987 268.633 211.365 269.287C210.743 269.941 210.432 270.76 210.432 271.744C210.432 272.766 210.756 273.597 211.403 274.232C212.051 274.867 212.889 275.184 213.923 275.184L213.911 275.171ZM211.778 271.255C211.829 270.76 212.038 270.341 212.406 269.998C212.774 269.655 213.238 269.484 213.803 269.484C214.387 269.484 214.856 269.649 215.206 269.979C215.555 270.309 215.751 270.734 215.796 271.255H211.778ZM218.519 275H219.884V265.51H218.519V275ZM224.771 275.171C225.768 275.171 226.593 274.841 227.253 274.188C227.914 273.534 228.244 272.715 228.244 271.731C228.244 270.747 227.914 269.928 227.253 269.274C226.593 268.621 225.762 268.297 224.765 268.297C223.769 268.297 222.943 268.627 222.283 269.281C221.623 269.935 221.293 270.753 221.293 271.731C221.293 272.715 221.623 273.534 222.283 274.188C222.943 274.841 223.769 275.171 224.765 275.171H224.771ZM224.765 273.934C224.143 273.934 223.629 273.724 223.229 273.305C222.829 272.886 222.626 272.366 222.626 271.744C222.626 271.109 222.829 270.582 223.229 270.163C223.629 269.744 224.143 269.535 224.765 269.535C225.387 269.535 225.901 269.744 226.308 270.163C226.714 270.582 226.917 271.109 226.917 271.744C226.917 272.366 226.714 272.886 226.308 273.305C225.901 273.724 225.387 273.934 224.765 273.934ZM233.36 268.291C232.344 268.291 231.563 268.678 231.018 269.452V268.462H229.653V277.73H231.018V274.01C231.563 274.784 232.344 275.171 233.36 275.171C234.287 275.171 235.061 274.841 235.683 274.188C236.305 273.534 236.616 272.715 236.616 271.731C236.616 270.747 236.305 269.928 235.683 269.274C235.061 268.621 234.287 268.297 233.36 268.297V268.291ZM233.138 273.953C232.535 273.953 232.021 273.743 231.602 273.324C231.183 272.905 230.973 272.372 230.973 271.731C230.973 271.096 231.183 270.569 231.602 270.15C232.021 269.731 232.528 269.522 233.131 269.522C233.76 269.522 234.274 269.731 234.674 270.144C235.074 270.557 235.271 271.084 235.271 271.725C235.271 272.366 235.067 272.899 234.667 273.318C234.268 273.737 233.753 273.946 233.131 273.946L233.138 273.953Z" fill="#40404B"/>
<path d="M195.636 239.555C194.192 238.236 194.115 236.027 195.462 234.616L206.513 223.036C207.067 222.456 207.067 221.544 206.513 220.964L195.462 209.384C194.115 207.973 194.192 205.764 195.636 204.445C197.088 203.121 199.365 203.198 200.718 204.616L216.979 221.655C217.164 221.848 217.164 222.152 216.979 222.345L200.718 239.384C199.365 240.802 197.088 240.879 195.636 239.555Z" fill="url(#paint3_linear_395_1738)" fill-opacity="0.5" stroke="#40404B"/>
<rect x="214.5" y="235.5" width="16" height="5" rx="2.5" fill="url(#paint4_linear_395_1738)" fill-opacity="0.5" stroke="#40404B"/>
<rect x="88.5" y="249.5" width="87" height="99" rx="14.5" stroke="#40404B"/>
<rect x="179.5" y="344.5" width="87" height="111" rx="11.5" transform="rotate(180 179.5 344.5)" fill="white" stroke="#40404B"/>
<rect x="92" y="233" width="88" height="112" rx="12" fill="url(#paint5_linear_395_1738)" fill-opacity="0.4"/>
<rect x="128.5" y="271.5" width="31" height="31" rx="15.5" stroke="#1D2028"/>
<rect x="114.5" y="256.5" width="31" height="31" rx="2.5" fill="white" stroke="#1D2028"/>
<rect x="114.5" y="256.5" width="31" height="31" rx="2.5" fill="url(#paint6_linear_395_1738)" fill-opacity="0.5" stroke="#1D2028"/>
<path d="M118.615 321.898H114.908V331H118.615C119.967 331 121.04 330.575 121.833 329.724C122.626 328.874 123.026 327.782 123.026 326.449C123.026 325.11 122.626 324.018 121.827 323.173C121.027 322.329 119.954 321.904 118.615 321.904V321.898ZM118.589 329.731H116.317V323.18H118.589C119.516 323.18 120.252 323.485 120.798 324.094C121.344 324.703 121.617 325.484 121.617 326.436C121.617 327.407 121.344 328.201 120.798 328.817C120.252 329.432 119.516 329.743 118.589 329.743V329.731ZM127.54 331.172C128.32 331.172 128.98 330.987 129.52 330.626C130.06 330.264 130.447 329.826 130.682 329.312L129.438 328.943C129.101 329.648 128.479 329.997 127.578 329.997C126.937 329.997 126.422 329.826 126.042 329.489C125.661 329.153 125.451 328.709 125.407 328.156H130.72C130.751 327.96 130.764 327.776 130.764 327.61C130.764 326.658 130.466 325.871 129.869 325.243C129.272 324.614 128.46 324.303 127.425 324.303C126.429 324.303 125.616 324.633 124.994 325.287C124.372 325.941 124.061 326.76 124.061 327.744C124.061 328.766 124.385 329.597 125.032 330.232C125.68 330.867 126.518 331.184 127.552 331.184L127.54 331.172ZM125.407 327.255C125.458 326.76 125.667 326.341 126.035 325.998C126.403 325.655 126.867 325.484 127.432 325.484C128.016 325.484 128.485 325.649 128.834 325.979C129.184 326.309 129.38 326.735 129.425 327.255H125.407ZM134.636 331.172C135.43 331.172 136.083 330.975 136.598 330.581C137.112 330.188 137.372 329.699 137.372 329.109C137.372 328.607 137.22 328.226 136.915 327.96C136.61 327.693 136.191 327.484 135.652 327.325L133.913 326.823C133.443 326.677 133.208 326.462 133.208 326.176C133.208 325.966 133.316 325.782 133.532 325.624C133.748 325.465 134.021 325.382 134.351 325.382C134.738 325.382 135.074 325.471 135.36 325.649C135.646 325.827 135.855 326.043 135.988 326.303L137.194 325.947C136.998 325.459 136.648 325.059 136.147 324.754C135.646 324.449 135.049 324.297 134.363 324.297C133.671 324.297 133.081 324.481 132.592 324.856C132.104 325.23 131.862 325.674 131.862 326.195C131.862 327.001 132.383 327.56 133.424 327.871L135.182 328.391C135.48 328.48 135.696 328.582 135.83 328.696C135.963 328.81 136.026 328.969 136.026 329.166C136.026 329.413 135.899 329.623 135.646 329.794C135.392 329.965 135.062 330.054 134.655 330.054C134.205 330.054 133.805 329.94 133.462 329.705C133.119 329.47 132.884 329.178 132.764 328.823L131.526 329.185C131.697 329.737 132.065 330.207 132.637 330.594C133.208 330.981 133.862 331.178 134.604 331.178L134.636 331.172ZM139.556 323.396C139.797 323.396 140 323.313 140.165 323.154C140.33 322.996 140.413 322.793 140.413 322.551C140.413 322.329 140.33 322.132 140.165 321.967C140 321.802 139.797 321.72 139.556 321.72C139.314 321.72 139.111 321.802 138.946 321.967C138.781 322.132 138.699 322.329 138.699 322.551C138.699 322.793 138.781 322.996 138.946 323.154C139.111 323.313 139.314 323.396 139.556 323.396ZM138.864 331H140.216V324.462H138.864V331ZM147.236 324.462V325.382C146.69 324.652 145.922 324.291 144.938 324.291C143.986 324.291 143.206 324.602 142.596 325.224C141.987 325.846 141.682 326.639 141.682 327.61C141.682 328.556 141.987 329.35 142.603 329.985C143.218 330.619 143.999 330.937 144.945 330.937C145.929 330.937 146.697 330.568 147.243 329.832V330.791C147.236 331.368 147.065 331.844 146.729 332.213C146.392 332.581 145.922 332.765 145.319 332.765C144.418 332.771 143.771 332.441 143.371 331.775L142.177 332.213C142.806 333.349 143.847 333.92 145.294 333.92C146.284 333.92 147.084 333.628 147.693 333.044C148.303 332.46 148.607 331.711 148.607 330.791V324.487L147.236 324.462ZM145.154 329.724C144.532 329.724 144.018 329.527 143.618 329.134C143.218 328.74 143.015 328.239 143.015 327.63C143.015 327.02 143.212 326.525 143.612 326.138C144.012 325.751 144.52 325.554 145.142 325.554C145.745 325.554 146.252 325.751 146.659 326.144C147.065 326.538 147.268 327.033 147.268 327.63C147.268 328.226 147.065 328.728 146.659 329.128C146.252 329.527 145.745 329.724 145.142 329.724H145.154ZM154.035 324.291C153.076 324.291 152.327 324.672 151.788 325.433V324.462H150.423V331H151.788V327.75C151.788 327.09 151.959 326.563 152.302 326.163C152.645 325.763 153.102 325.567 153.673 325.567C154.2 325.567 154.6 325.732 154.873 326.055C155.146 326.379 155.279 326.83 155.279 327.407V330.994H156.631V327.16C156.631 326.265 156.409 325.56 155.958 325.046C155.507 324.532 154.866 324.278 154.035 324.278V324.291Z" fill="#40404B"/>
<path d="M529.074 101.342L528.732 100.978L529.074 101.342ZM556.437 99.1132L550.665 99.2411L553.44 94.1784L556.437 99.1132ZM522.299 115.969C522.156 113.087 523.246 106.119 528.732 100.978L529.416 101.707C524.198 106.597 523.165 113.247 523.298 115.92L522.299 115.969ZM528.732 100.978C534.652 95.4304 543.838 92.711 552.686 96.4897L552.293 97.4094C543.866 93.8103 535.093 96.3871 529.416 101.707L528.732 100.978Z" fill="black"/>
<path d="M493.257 304.41L493.633 304.739L493.257 304.41ZM498 266L498.066 271.773L503.033 268.83L498 266ZM472.372 316.579C476.38 316.197 486.158 313.294 493.633 304.739L492.88 304.081C485.601 312.412 476.076 315.221 472.277 315.584L472.372 316.579ZM493.633 304.739C501.981 295.185 506.363 281.39 500.746 269.657L499.844 270.089C505.228 281.335 501.072 294.705 492.88 304.081L493.633 304.739Z" fill="black"/>
<path d="M643.643 380H645.115L641.51 370.897H639.707L636.102 380H637.574L638.444 377.791H642.773L643.643 380ZM638.926 376.541L640.615 372.237L642.291 376.541H638.926ZM649.743 373.291C648.784 373.291 648.035 373.671 647.496 374.433V373.462H646.131V380H647.496V376.75C647.496 376.09 647.667 375.563 648.01 375.163C648.353 374.763 648.81 374.566 649.381 374.566C649.908 374.566 650.308 374.731 650.581 375.055C650.854 375.379 650.987 375.83 650.987 376.407V379.994H652.339V376.16C652.339 375.265 652.117 374.56 651.666 374.046C651.215 373.532 650.574 373.278 649.743 373.278V373.291ZM656.947 380.171C657.969 380.171 658.756 379.784 659.302 379.01V380H660.654V373.462H659.302V374.452C658.756 373.678 657.969 373.291 656.947 373.291C656.021 373.291 655.246 373.621 654.624 374.274C654.002 374.928 653.691 375.747 653.691 376.725C653.691 377.708 654.002 378.527 654.624 379.181C655.246 379.835 656.021 380.165 656.947 380.165V380.171ZM657.169 378.94C656.547 378.94 656.033 378.73 655.633 378.312C655.233 377.893 655.03 377.359 655.03 376.718C655.03 376.077 655.227 375.55 655.627 375.138C656.027 374.725 656.535 374.516 657.157 374.516C657.76 374.516 658.268 374.725 658.687 375.144C659.105 375.563 659.315 376.09 659.315 376.725C659.315 377.366 659.105 377.899 658.687 378.318C658.268 378.737 657.753 378.946 657.15 378.946L657.169 378.94ZM662.463 380H663.828V370.51H662.463V380ZM670.538 373.462L668.513 378.324L666.329 373.462H664.844L667.833 379.854L666.615 382.729H668.018L671.998 373.462H670.538ZM676.809 378.673C676.523 378.813 676.238 378.883 675.952 378.883C675.324 378.883 675.013 378.546 675.013 377.88V374.668H677.095V373.462H675.013V371.278H673.661V373.462H672.467V374.668H673.661V377.88C673.661 378.572 673.832 379.118 674.168 379.511C674.505 379.905 675.019 380.102 675.705 380.102C676.168 380.102 676.65 380 677.146 379.791L676.809 378.673ZM679.202 372.396C679.443 372.396 679.646 372.313 679.812 372.154C679.977 371.996 680.059 371.792 680.059 371.551C680.059 371.329 679.977 371.132 679.812 370.967C679.646 370.802 679.443 370.72 679.202 370.72C678.961 370.72 678.758 370.802 678.593 370.967C678.428 371.132 678.345 371.329 678.345 371.551C678.345 371.792 678.428 371.996 678.593 372.154C678.758 372.313 678.961 372.396 679.202 372.396ZM678.51 380H679.862V373.462H678.51V380ZM684.756 380.171C685.575 380.171 686.261 379.962 686.813 379.543C687.365 379.124 687.708 378.654 687.848 378.127L686.584 377.778C686.489 378.102 686.273 378.375 685.937 378.604C685.601 378.832 685.207 378.946 684.756 378.946C684.141 378.946 683.633 378.73 683.239 378.292C682.846 377.854 682.649 377.334 682.649 376.731C682.649 376.115 682.846 375.595 683.239 375.169C683.633 374.744 684.141 374.528 684.763 374.528C685.213 374.528 685.607 374.649 685.943 374.89C686.28 375.131 686.496 375.411 686.591 375.734L687.854 375.373C687.714 374.833 687.365 374.357 686.807 373.938C686.248 373.519 685.562 373.31 684.744 373.31C683.76 373.31 682.941 373.64 682.293 374.293C681.646 374.947 681.322 375.766 681.322 376.744C681.322 377.721 681.646 378.54 682.3 379.2C682.954 379.86 683.772 380.19 684.756 380.19V380.171ZM691.866 380.171C692.659 380.171 693.313 379.975 693.827 379.581C694.341 379.188 694.602 378.699 694.602 378.108C694.602 377.607 694.449 377.226 694.145 376.959C693.84 376.693 693.421 376.483 692.881 376.325L691.142 375.823C690.672 375.677 690.438 375.461 690.438 375.176C690.438 374.966 690.545 374.782 690.761 374.624C690.977 374.465 691.25 374.382 691.58 374.382C691.967 374.382 692.304 374.471 692.589 374.649C692.875 374.827 693.084 375.042 693.218 375.303L694.424 374.947C694.227 374.458 693.878 374.059 693.376 373.754C692.875 373.449 692.278 373.297 691.593 373.297C690.901 373.297 690.311 373.481 689.822 373.855C689.333 374.23 689.092 374.674 689.092 375.195C689.092 376.001 689.612 376.56 690.653 376.871L692.412 377.391C692.71 377.48 692.926 377.582 693.059 377.696C693.192 377.81 693.256 377.969 693.256 378.166C693.256 378.413 693.129 378.623 692.875 378.794C692.621 378.965 692.291 379.054 691.885 379.054C691.434 379.054 691.034 378.94 690.691 378.705C690.349 378.47 690.114 378.178 689.993 377.823L688.755 378.185C688.927 378.737 689.295 379.207 689.866 379.594C690.438 379.981 691.091 380.178 691.834 380.178L691.866 380.171Z" fill="#1D2028"/>
<rect x="568.5" y="348.5" width="55" height="55" rx="27.5" fill="white"/>
<g clip-path="url(#clip1_395_1738)">
<path fill-rule="evenodd" clip-rule="evenodd" d="M596.8 375.2H598.3H606.5H608V374.4C608 374.165 607.992 373.931 607.977 373.7C607.632 368.514 603.486 364.368 598.3 364.023C598.069 364.008 597.835 364 597.6 364H596.8V365.5V373.7V375.2ZM598.3 365.527C602.657 365.866 606.134 369.343 606.473 373.7H598.3V365.527ZM595.2 367.2V376.8H604.8V377.6C604.8 383.344 600.144 388 594.4 388C588.656 388 584 383.344 584 377.6C584 371.856 588.656 367.2 594.4 367.2H595.2Z" fill="#40404B"/>
</g>
<rect x="568.5" y="348.5" width="55" height="55" rx="27.5" stroke="#1D2028"/>
<rect x="414" y="146" width="116" height="112" rx="15" fill="#E0E2E9"/>
<rect x="533.5" y="253.5" width="115" height="123" rx="11.5" transform="rotate(180 533.5 253.5)" fill="white" stroke="#1D2028"/>
<path d="M451.25 240.171C452.335 240.171 453.255 239.898 454.017 239.353C454.779 238.807 455.287 238.14 455.547 237.353L454.182 237.004C453.992 237.543 453.63 237.988 453.103 238.337C452.576 238.686 451.954 238.857 451.237 238.857C450.259 238.857 449.466 238.527 448.856 237.861C448.247 237.194 447.942 236.388 447.942 235.436C447.942 234.49 448.247 233.69 448.856 233.037C449.466 232.383 450.259 232.059 451.237 232.059C451.954 232.059 452.576 232.237 453.103 232.592C453.63 232.948 453.992 233.392 454.188 233.932L455.553 233.589C455.293 232.795 454.779 232.123 454.011 231.57C453.243 231.018 452.31 230.745 451.218 230.745C449.866 230.745 448.742 231.196 447.841 232.091C446.939 232.986 446.489 234.109 446.489 235.455C446.489 236.801 446.939 237.924 447.847 238.832C448.755 239.74 449.885 240.19 451.237 240.19L451.25 240.171ZM459.978 240.171C460.974 240.171 461.799 239.841 462.459 239.188C463.12 238.534 463.45 237.715 463.45 236.731C463.45 235.747 463.12 234.928 462.459 234.274C461.799 233.621 460.968 233.297 459.971 233.297C458.975 233.297 458.149 233.627 457.489 234.281C456.829 234.935 456.499 235.753 456.499 236.731C456.499 237.715 456.829 238.534 457.489 239.188C458.149 239.841 458.975 240.171 459.971 240.171H459.978ZM459.971 238.934C459.349 238.934 458.835 238.724 458.435 238.305C458.035 237.886 457.832 237.366 457.832 236.744C457.832 236.109 458.035 235.582 458.435 235.163C458.835 234.744 459.349 234.535 459.971 234.535C460.593 234.535 461.107 234.744 461.514 235.163C461.92 235.582 462.123 236.109 462.123 236.744C462.123 237.366 461.92 237.886 461.514 238.305C461.107 238.724 460.593 238.934 459.971 238.934ZM468.477 233.291C467.519 233.291 466.77 233.671 466.23 234.433V233.462H464.865V240H466.23V236.75C466.23 236.09 466.401 235.563 466.744 235.163C467.087 234.763 467.544 234.566 468.115 234.566C468.642 234.566 469.042 234.731 469.315 235.055C469.588 235.379 469.721 235.83 469.721 236.407V239.994H471.073V236.16C471.073 235.265 470.851 234.56 470.4 234.046C469.95 233.532 469.309 233.278 468.477 233.278V233.291ZM475.32 240.171C476.113 240.171 476.767 239.975 477.281 239.581C477.795 239.188 478.056 238.699 478.056 238.108C478.056 237.607 477.903 237.226 477.599 236.959C477.294 236.693 476.875 236.483 476.335 236.325L474.596 235.823C474.126 235.677 473.892 235.461 473.892 235.176C473.892 234.966 474 234.782 474.215 234.624C474.431 234.465 474.704 234.382 475.034 234.382C475.421 234.382 475.758 234.471 476.043 234.649C476.329 234.827 476.539 235.042 476.672 235.303L477.878 234.947C477.681 234.459 477.332 234.059 476.831 233.754C476.329 233.449 475.732 233.297 475.047 233.297C474.355 233.297 473.765 233.481 473.276 233.855C472.787 234.23 472.546 234.674 472.546 235.195C472.546 236.001 473.066 236.56 474.107 236.871L475.866 237.391C476.164 237.48 476.38 237.582 476.513 237.696C476.646 237.81 476.71 237.969 476.71 238.166C476.71 238.413 476.583 238.623 476.329 238.794C476.075 238.965 475.745 239.054 475.339 239.054C474.888 239.054 474.488 238.94 474.146 238.705C473.803 238.47 473.568 238.178 473.447 237.823L472.209 238.185C472.381 238.737 472.749 239.207 473.32 239.594C473.892 239.981 474.545 240.178 475.288 240.178L475.32 240.171ZM484.143 233.462V236.712C484.143 237.372 483.972 237.899 483.623 238.299C483.273 238.699 482.816 238.896 482.251 238.896C481.725 238.896 481.325 238.73 481.052 238.407C480.779 238.083 480.639 237.632 480.639 237.055V233.468H479.274V237.302C479.274 238.197 479.503 238.902 479.96 239.416C480.417 239.93 481.058 240.184 481.883 240.184C482.861 240.178 483.616 239.791 484.143 239.022V240.013H485.495V233.475L484.143 233.462ZM495.042 233.291C494.007 233.291 493.246 233.665 492.75 234.408C492.363 233.665 491.69 233.291 490.738 233.291C489.862 233.291 489.177 233.652 488.682 234.37V233.462H487.317V240H488.682V236.699C488.682 236.039 488.834 235.519 489.132 235.138C489.431 234.757 489.843 234.566 490.364 234.566C490.827 234.566 491.176 234.725 491.417 235.036C491.659 235.347 491.779 235.785 491.779 236.35V240H493.131V236.579C493.131 235.963 493.277 235.474 493.569 235.112C493.861 234.75 494.261 234.566 494.763 234.566C495.251 234.566 495.62 234.725 495.867 235.036C496.115 235.347 496.235 235.785 496.235 236.35V240H497.6V236.09C497.6 235.214 497.365 234.528 496.902 234.033C496.438 233.538 495.816 233.291 495.036 233.291H495.042ZM502.437 240.171C503.218 240.171 503.878 239.987 504.417 239.625C504.957 239.264 505.344 238.826 505.579 238.312L504.335 237.943C503.999 238.648 503.376 238.997 502.475 238.997C501.834 238.997 501.32 238.826 500.939 238.489C500.558 238.153 500.349 237.709 500.304 237.156H505.617C505.649 236.959 505.662 236.775 505.662 236.61C505.662 235.658 505.363 234.871 504.767 234.243C504.17 233.614 503.357 233.303 502.323 233.303C501.326 233.303 500.514 233.633 499.892 234.287C499.27 234.941 498.958 235.76 498.958 236.744C498.958 237.766 499.282 238.597 499.93 239.232C500.577 239.867 501.415 240.184 502.45 240.184L502.437 240.171ZM500.304 236.255C500.355 235.76 500.564 235.341 500.933 234.998C501.301 234.655 501.764 234.484 502.329 234.484C502.913 234.484 503.383 234.649 503.732 234.979C504.081 235.309 504.278 235.734 504.322 236.255H500.304Z" fill="#1D2028"/>
<path d="M454.017 204.5V179L476.017 191.655V215.282C476.017 216.049 475.189 216.53 474.523 216.151L454.017 204.5Z" fill="url(#paint7_linear_395_1738)" fill-opacity="0.5"/>
<path d="M498 204V179L476 191V215.248C476 216.022 476.842 216.502 477.509 216.109L498 204Z" fill="url(#paint8_linear_395_1738)" fill-opacity="0.5"/>
<path d="M461.758 174.5L455.065 178.148C454.1 178.673 453.5 179.684 453.5 180.782V202.268C453.5 203.34 454.072 204.33 455 204.866L474.517 216.134C475.445 216.67 476.588 216.67 477.517 216.134L497.033 204.866C497.962 204.33 498.533 203.34 498.533 202.268V180.67C498.533 179.632 497.997 178.667 497.114 178.12L491.275 174.5" stroke="#1D2028" stroke-linecap="round"/>
<path d="M471.5 171.5L468 175L471.5 178.5" stroke="black" stroke-linecap="round"/>
<path d="M480 178.5L483.5 175L480 171.5" stroke="black" stroke-linecap="round"/>
<path d="M474 181.5L477 168" stroke="black" stroke-linecap="round"/>
<path d="M480.51 199.617L476 191.5L498 179L502.519 187.134C502.785 187.614 502.616 188.218 502.139 188.489L481.878 200.001C481.394 200.276 480.78 200.104 480.51 199.617Z" fill="white"/>
<path d="M498 179L502.519 187.134C502.785 187.614 502.616 188.218 502.139 188.489L481.878 200.001C481.394 200.276 480.78 200.104 480.51 199.617L476 191.5" stroke="#1D2028"/>
<path d="M471.49 199.617L476 191.5L454 179L449.481 187.134C449.215 187.614 449.384 188.218 449.861 188.489L470.122 200.001C470.606 200.276 471.22 200.104 471.49 199.617Z" fill="white"/>
<path d="M498 179L476.017 192M476.017 192L454 179M476.017 192V217" stroke="#1D2028"/>
<path d="M454 179L449.481 187.134C449.215 187.614 449.384 188.218 449.861 188.489L470.122 200.001C470.606 200.276 471.22 200.104 471.49 199.617L476 191.5" stroke="#1D2028"/>
<circle cx="472.5" cy="156.5" r="0.5" fill="#1D2028"/>
<circle cx="489.5" cy="166.5" r="0.5" fill="#1D2028"/>
<circle cx="456.5" cy="167.5" r="0.5" fill="#1D2028"/>
<circle cx="492" cy="154" r="1.5" stroke="#1D2028"/>
<circle cx="482.5" cy="160.5" r="1" stroke="#1D2028"/>
<circle cx="465.5" cy="163.5" r="1" stroke="#1D2028"/>
<circle cx="464.5" cy="147.5" r="2" stroke="#1D2028"/>
<path d="M275.496 373.594L271.557 377.816L269.87 372.294L275.496 373.594ZM209.047 304.015C209.516 304.188 209.516 304.188 209.516 304.188C209.516 304.188 209.516 304.188 209.516 304.188C209.516 304.188 209.516 304.189 209.515 304.19C209.515 304.192 209.514 304.194 209.512 304.198C209.51 304.205 209.506 304.216 209.5 304.231C209.489 304.261 209.473 304.307 209.452 304.366C209.41 304.486 209.348 304.664 209.27 304.896C209.115 305.359 208.895 306.037 208.64 306.891C208.13 308.601 207.48 311.016 206.921 313.832C205.801 319.478 205.055 326.688 206.493 333.07L205.518 333.29C204.034 326.706 204.81 319.333 205.94 313.638C206.507 310.784 207.165 308.338 207.682 306.606C207.94 305.739 208.163 305.05 208.322 304.577C208.402 304.34 208.465 304.158 208.509 304.034C208.531 303.972 208.548 303.924 208.559 303.892C208.565 303.876 208.57 303.864 208.573 303.856C208.574 303.851 208.575 303.848 208.576 303.846C208.577 303.845 208.577 303.844 208.577 303.843C208.577 303.843 208.577 303.843 208.578 303.843C208.578 303.842 208.578 303.842 209.047 304.015ZM206.493 333.07C209.36 345.799 218.109 350.657 225.281 352.399L225.045 353.371C217.621 351.568 208.492 346.495 205.518 333.29L206.493 333.07ZM225.281 352.399C232.408 354.13 241.608 352.065 248.489 345.515L249.179 346.239C242.06 353.015 232.514 355.185 225.045 353.371L225.281 352.399ZM248.489 345.515C251.847 342.319 251.722 338.853 250.281 336.995C249.553 336.057 248.481 335.499 247.27 335.525C246.059 335.551 244.638 336.165 243.241 337.718L242.497 337.049C244.032 335.344 245.698 334.558 247.248 334.525C248.8 334.492 250.165 335.214 251.071 336.382C252.895 338.733 252.822 342.772 249.179 346.239L248.489 345.515ZM243.241 337.718C237.544 344.049 235.036 358.333 246.271 369.389L245.57 370.102C233.929 358.646 236.466 343.751 242.497 337.049L243.241 337.718ZM246.271 369.389C254.046 377.04 265.033 375.876 271.075 374.423L271.309 375.395C265.208 376.863 253.741 378.143 245.57 370.102L246.271 369.389Z" fill="black"/>
<defs>
<linearGradient id="paint0_linear_395_1738" x1="462" y1="384.917" x2="320.056" y2="311.784" gradientUnits="userSpaceOnUse">
<stop stop-color="#5567D5"/>
<stop offset="1" stop-color="#0095FF"/>
</linearGradient>
<linearGradient id="paint1_linear_395_1738" x1="386" y1="356.333" x2="371.732" y2="350.315" gradientUnits="userSpaceOnUse">
<stop stop-color="#5567D5"/>
<stop offset="1" stop-color="#0095FF"/>
</linearGradient>
<linearGradient id="paint2_linear_395_1738" x1="698" y1="98.6187" x2="587.117" y2="129.989" gradientUnits="userSpaceOnUse">
<stop stop-color="#5567D5"/>
<stop offset="1" stop-color="#A3CCE9"/>
</linearGradient>
<linearGradient id="paint3_linear_395_1738" x1="194" y1="214.611" x2="218.242" y2="219.455" gradientUnits="userSpaceOnUse">
<stop stop-color="#5567D5"/>
<stop offset="1" stop-color="#0095FF"/>
</linearGradient>
<linearGradient id="paint4_linear_395_1738" x1="231" y1="239.167" x2="221.098" y2="230.291" gradientUnits="userSpaceOnUse">
<stop stop-color="#5567D5"/>
<stop offset="1" stop-color="#0095FF"/>
</linearGradient>
<linearGradient id="paint5_linear_395_1738" x1="151" y1="233" x2="131.047" y2="333.295" gradientUnits="userSpaceOnUse">
<stop stop-color="white"/>
<stop offset="1" stop-color="#CBCEDB"/>
</linearGradient>
<linearGradient id="paint6_linear_395_1738" x1="146" y1="278.222" x2="115.444" y2="268.556" gradientUnits="userSpaceOnUse">
<stop stop-color="#5567D5"/>
<stop offset="1" stop-color="#0095FF"/>
</linearGradient>
<linearGradient id="paint7_linear_395_1738" x1="476.017" y1="201.222" x2="453.951" y2="196.423" gradientUnits="userSpaceOnUse">
<stop stop-color="#5567D5"/>
<stop offset="1" stop-color="#0095FF"/>
</linearGradient>
<linearGradient id="paint8_linear_395_1738" x1="476" y1="201.917" x2="498.125" y2="197.25" gradientUnits="userSpaceOnUse">
<stop stop-color="#5567D5"/>
<stop offset="1" stop-color="#0095FF"/>
</linearGradient>
<clipPath id="clip0_395_1738">
<rect width="24" height="24" fill="white" transform="translate(61 445)"/>
</clipPath>
<clipPath id="clip1_395_1738">
<rect width="24" height="24" fill="white" transform="translate(584 364)"/>
</clipPath>
</defs>
</svg>