<?xml version="1.0" encoding="UTF-8"?>
<svg width="18px" height="18px" viewBox="0 0 18 18" version="1.1" xmlns="http://www.w3.org/2000/svg" xmlns:xlink="http://www.w3.org/1999/xlink">
    <title>FE7CC299-1799-4BDB-A006-C33FB161153C</title>
    <g id="Develop" stroke="none" stroke-width="1" fill="none" fill-rule="evenodd">
        <g id="develop-add" transform="translate(-102.000000, -24.000000)" fill="#5668D5">
            <g id="Icon/Apps/Menu" transform="translate(102.000000, 24.000000)">
                <path d="M4,12.5 C4.82842712,12.5 5.5,13.1715729 5.5,14 C5.5,14.8284271 4.82842712,15.5 4,15.5 C3.17157288,15.5 2.5,14.8284271 2.5,14 C2.5,13.1715729 3.17157288,12.5 4,12.5 Z M9,12.5 C9.82842712,12.5 10.5,13.1715729 10.5,14 C10.5,14.8284271 9.82842712,15.5 9,15.5 C8.17157288,15.5 7.5,14.8284271 7.5,14 C7.5,13.1715729 8.17157288,12.5 9,12.5 Z M4,7.5 C4.82842712,7.5 5.5,8.17157288 5.5,9 C5.5,9.82842712 4.82842712,10.5 4,10.5 C3.17157288,10.5 2.5,9.82842712 2.5,9 C2.5,8.17157288 3.17157288,7.5 4,7.5 Z M9,7.5 C9.82842712,7.5 10.5,8.17157288 10.5,9 C10.5,9.82842712 9.82842712,10.5 9,10.5 C8.17157288,10.5 7.5,9.82842712 7.5,9 C7.5,8.17157288 8.17157288,7.5 9,7.5 Z M4,2.5 C4.82842712,2.5 5.5,3.17157288 5.5,4 C5.5,4.82842712 4.82842712,5.5 4,5.5 C3.17157288,5.5 2.5,4.82842712 2.5,4 C2.5,3.17157288 3.17157288,2.5 4,2.5 Z" id="Combined-Shape"></path>
                <path d="M14,12.5 C14.8284271,12.5 15.5,13.1715729 15.5,14 C15.5,14.8284271 14.8284271,15.5 14,15.5 C13.1715729,15.5 12.5,14.8284271 12.5,14 C12.5,13.1715729 13.1715729,12.5 14,12.5 Z M14,7.5 C14.8284271,7.5 15.5,8.17157288 15.5,9 C15.5,9.82842712 14.8284271,10.5 14,10.5 C13.1715729,10.5 12.5,9.82842712 12.5,9 C12.5,8.17157288 13.1715729,7.5 14,7.5 Z M9,2.5 C9.82842712,2.5 10.5,3.17157288 10.5,4 C10.5,4.82842712 9.82842712,5.5 9,5.5 C8.17157288,5.5 7.5,4.82842712 7.5,4 C7.5,3.17157288 8.17157288,2.5 9,2.5 Z M14,2.5 C14.8284271,2.5 15.5,3.17157288 15.5,4 C15.5,4.82842712 14.8284271,5.5 14,5.5 C13.1715729,5.5 12.5,4.82842712 12.5,4 C12.5,3.17157288 13.1715729,2.5 14,2.5 Z" id="Combined-Shape" opacity="0.3"></path>
            </g>
        </g>
    </g>
</svg>
