<svg xmlns="http://www.w3.org/2000/svg" viewBox="0 0 328.23 81.16">
  <defs>
    <style>.cls-1{fill:#ff7300;}.cls-2{fill:#fff;}.cls-3{fill:#231f20;}</style>
  </defs>
  <g id="Layer_1" data-name="Layer 1">
    <polygon class="cls-1" points="275.15 59.43 270.25 71.94 265.33 58.56 260.11 71.91 255.66 59.43 253.63 59.43 260.03 76.95 265.28 63.61 270.2 76.97 277.18 59.43 275.15 59.43"/>
    <path class="cls-1" d="M286.5,70.61c-.82-.67-5.1-2.89-5.65-3.28a1.9,1.9,0,0,1-.82-1.67,2.22,2.22,0,0,1,.83-1.79,3.11,3.11,0,0,1,2-.69,2.68,2.68,0,0,1,1.32.3,3.3,3.3,0,0,1,1,1l.18.27a1,1,0,0,1,.2.25l1.47-1a5.12,5.12,0,0,0-1.81-1.93,4.32,4.32,0,0,0-2.33-.67,5,5,0,0,0-3.48,1.2,3.94,3.94,0,0,0-1.35,3.08,3.26,3.26,0,0,0,1.23,2.73c.81.64,4.89,2.76,5.52,3.19a2.19,2.19,0,0,1,1,1.93,3.26,3.26,0,0,1-1,2.4,3.3,3.3,0,0,1-2.44,1,3,3,0,0,1-2.15-.8,4.51,4.51,0,0,1-1.2-2.3l-1.8.55a7,7,0,0,0,.68,1.8,4.84,4.84,0,0,0,4.52,2.47,5.11,5.11,0,0,0,3.7-1.48,4.93,4.93,0,0,0,1.52-3.64A3.53,3.53,0,0,0,286.5,70.61Z" transform="translate(-1.49 -2.27)"/>
    <path d="M307.48,69.46a4.87,4.87,0,0,1,1.34-.18,4.12,4.12,0,0,1,4.26,4.13,4.45,4.45,0,0,1-.56,2.2,15.7,15.7,0,0,1-2.19,2.78L306.9,82.1h6.37v1.33h-9.38l5.28-5.69a18.06,18.06,0,0,0,2.09-2.55,3.44,3.44,0,0,0,.48-1.75,2.66,2.66,0,0,0-.87-2,3,3,0,0,0-2.13-.84,3.05,3.05,0,0,0-1.3.26C307.47,70.52,307.48,69.59,307.48,69.46Z" transform="translate(-1.49 -2.27)"/>
    <ellipse class="cls-1" cx="295.9" cy="67.77" rx="7.59" ry="7.67"/>
    <path d="M297.4,60.61A9.43,9.43,0,1,0,306.85,70,9.44,9.44,0,0,0,297.4,60.61Zm0,17.1A7.67,7.67,0,1,1,305,70,7.63,7.63,0,0,1,297.4,77.71Z" transform="translate(-1.49 -2.27)"/>
    <path class="cls-2" d="M305,69.44h-2.75l-1.37,2.47-3.42-8.35-3.08,6.86h-4.53a8.42,8.42,0,0,0,.14,1.11h5.11l2.31-5.16,3.32,8.09,2.18-3.91H305c0-.17,0-.34,0-.51S305,69.64,305,69.44Z" transform="translate(-1.49 -2.27)"/>
    <path d="M244.77,67.12a3.44,3.44,0,0,1-.61,2.14,2,2,0,0,1-1.64.81,2,2,0,0,1-1.71-.78l0,.67h-.92V61.71h1v3.08a2,2,0,0,1,1.66-.75,2,2,0,0,1,1.66.81,3.56,3.56,0,0,1,.6,2.19Zm-1-.11a2.7,2.7,0,0,0-.39-1.57,1.3,1.3,0,0,0-1.13-.55,1.44,1.44,0,0,0-1.41.91v2.51a1.5,1.5,0,0,0,1.42.92,1.28,1.28,0,0,0,1.11-.56A2.78,2.78,0,0,0,243.78,67Z" transform="translate(-1.49 -2.27)"/>
    <path d="M247.87,68.51l1.35-4.36h1.06L248,70.86c-.36,1-.94,1.45-1.73,1.45l-.18,0-.38-.07v-.8l.27,0a1.38,1.38,0,0,0,.79-.2,1.49,1.49,0,0,0,.46-.75l.23-.59-2.08-5.75h1.09Z" transform="translate(-1.49 -2.27)"/>
  </g>
  <g id="Layer_2" data-name="Layer 2">
    <polygon class="cls-1" points="322.16 0 324.11 3.38 321.95 7.12 326.27 7.12 328.23 10.5 316.1 10.5 322.16 0"/>
    <polygon class="cls-1" points="307 10.5 308.96 7.12 313.28 7.12 311.12 3.38 313.07 0 319.13 10.5 307 10.5"/>
    <polygon class="cls-3" points="319.77 18.38 317.62 14.63 315.45 18.38 311.55 18.38 317.62 7.88 323.68 18.38 319.77 18.38"/>
    <path class="cls-3" d="M46,49.77V41.92H65.8a3.29,3.29,0,0,0,3.29-3.3,3.28,3.28,0,0,0-3.29-3.3H57.13a10.65,10.65,0,0,1-7.89-3.27A10.65,10.65,0,0,1,46,24.17a10.65,10.65,0,0,1,3.27-7.88A10.69,10.69,0,0,1,57.13,13H77v7.85H57.13a3.32,3.32,0,0,0-2.35,5.64,3.32,3.32,0,0,0,2.35,1H65.8A11.16,11.16,0,0,1,77,38.62,11.16,11.16,0,0,1,65.8,49.77Z" transform="translate(-1.49 -2.27)"/>
    <path class="cls-3" d="M98.22,49.77a17.52,17.52,0,0,1-13-5.38,17.55,17.55,0,0,1-5.38-13,17.59,17.59,0,0,1,5.38-13,17.56,17.56,0,0,1,13-5.38h15.49v7.85H98.22A10.53,10.53,0,0,0,87.7,31.4,10.52,10.52,0,0,0,98.22,41.92h7.63v-6.6h-5.78V27.47h13.64v22.3Z" transform="translate(-1.49 -2.27)"/>
    <path class="cls-3" d="M188.66,49.77,170.93,32.21V49.77h-7.86V13H182.9a10.65,10.65,0,0,1,7.88,3.27,10.65,10.65,0,0,1,3.27,7.88,10.65,10.65,0,0,1-3.27,7.88,11.86,11.86,0,0,1-3.14,2.28l-2.34,1.14,14.31,14.3Zm-5.76-22.3a3.31,3.31,0,0,0,2.34-5.63,3.28,3.28,0,0,0-2.34-1h-12v6.6Z" transform="translate(-1.49 -2.27)"/>
    <path class="cls-3" d="M202.55,49.77V13H218a17.57,17.57,0,0,1,13,5.38,17.59,17.59,0,0,1,5.38,13,17.55,17.55,0,0,1-5.38,13,17.54,17.54,0,0,1-13,5.38ZM218,41.92A10.52,10.52,0,0,0,228.56,31.4,10.53,10.53,0,0,0,218,20.87h-7.63V41.92Z" transform="translate(-1.49 -2.27)"/>
    <path class="cls-3" d="M290.94,49.77a17.54,17.54,0,0,1-13-5.38,17.55,17.55,0,0,1-5.38-13,17.59,17.59,0,0,1,5.38-13,18.38,18.38,0,0,1,26,0,17.56,17.56,0,0,1,5.39,13,17.52,17.52,0,0,1-5.39,13A17.51,17.51,0,0,1,290.94,49.77Zm0-28.9A10.53,10.53,0,0,0,280.42,31.4a10.52,10.52,0,1,0,18-7.44A10.21,10.21,0,0,0,290.94,20.87Z" transform="translate(-1.49 -2.27)"/>
    <polygon class="cls-3" points="0 47.5 8.78 47.5 21.22 25.95 33.65 47.5 42.43 47.5 21.22 10.74 0 47.5"/>
    <polygon class="cls-3" points="115.62 47.5 124.4 47.5 136.84 25.95 149.27 47.5 158.05 47.5 136.84 10.74 115.62 47.5"/>
    <polygon class="cls-3" points="238.32 47.39 238.32 10.76 269.03 10.76 269.03 18.55 246.16 18.55 246.16 25.29 263.31 25.29 263.31 32.89 246.16 32.89 246.16 39.6 269.03 39.6 269.03 47.39 238.32 47.39"/>
  </g>
</svg>