<svg id="Layer_1" data-name="Layer 1" xmlns="http://www.w3.org/2000/svg" viewBox="0 0 1200 800"><defs><style>.cls-1{fill:#231f20;}</style></defs><path class="cls-1" d="M288.65,230.4H178.49l34,106.1H322.7l-89.13,63.27,34,106.7h0c57.38-41.79,76.13-105,55.09-170ZM34.28,336.5H144.44l34.05-106.1H68.32l-34,106.1h0c-21,64.93-2.3,128.18,55.08,170h0l34-106.7Zm55.08,170,89.13,63.13,89.12-63.13-89.12-64.19ZM920.76,333.9c-26.08,0-42.64,11.82-50.49,31h-2V277.58h-39.1V505.93h40V406.85c0-24.52,15.25-38.66,36.68-38.66,21,0,33.36,13.37,33.36,36.23V505.93h40V397.75C979.19,356.77,956,333.9,920.76,333.9Zm166.53-56.7c-54.12,0-86.68,42.36-86.79,116,0,73.81,32.45,116.72,86.79,116.72s86.8-42.8,86.8-116.72C1174.09,319.66,1141.42,277.2,1087.29,277.2Zm-45.54,116c.11-53.68,17.6-82,45.54-82,19.1,0,33.29,13.12,40.45,38.41l-85.26,61.95Q1041.74,402.91,1041.75,393.15Zm45.54,82.28c-19.73,0-34.27-13.95-41.14-41l85.73-62.29a208.33,208.33,0,0,1,1.07,21C1133,447.27,1115.46,475.43,1087.29,475.43ZM649.2,434.63c0,25.84-18.44,38.66-36.12,38.66-19.22,0-32-13.59-32-35.13V336.3h-40V444.35c0,40.76,23.19,63.85,56.56,63.85,25.41,0,43.3-13.37,51-32.37h1.77V506H689.2V336.3h-40ZM450.66,333.73c-35.67,0-63.06,15.91-71.9,46.83l37.33,5.3c4-11.59,15.24-21.53,34.79-21.53,18.56,0,28.72,9.5,28.72,26.17v.67c0,11.48-12,12-42,15.24-32.91,3.53-64.39,13.36-64.39,51.58,0,33.35,24.41,51,56.77,51,26.62,0,42.52-12.48,49.81-26.73h1.32v23.31h38.44V392.05C519.58,347.21,483,333.73,450.66,333.73Zm29,111c0,18.89-15.24,34.9-39.32,34.9-16.68,0-28.61-7.62-28.61-22.31,0-15.35,13.37-21.76,31.26-24.3,10.49-1.43,31.48-4.08,36.67-8.28ZM774.56,293.9h-40v42.49H710.3v31.78h24.28V462.1c-.22,31.92,23,47.61,53,46.73a82.44,82.44,0,0,0,20.34-3V474.16c-3,.4-10.11,1.31-15.26,1.43-10,.23-18.12-3.54-18.12-19.66V368.17H808V336.39H774.56Z"/></svg>
