<svg width="50" height="50" viewBox="0 0 50 50" fill="none" xmlns="http://www.w3.org/2000/svg">
<path d="M3.05556 28.1113L25 42.2779L47.2222 27.8335L50 31.1668L25 47.5557L0 31.1668L3.05556 28.1113Z" fill="#50E6FF"/>
<path d="M4.72208 26.1667L24.9999 2L45.5554 26.1667L24.9999 39.2222L4.72208 26.1667Z" fill="white"/>
<path d="M24.9999 2V39.2222L4.72208 26.1667L24.9999 2Z" fill="#50E6FF"/>
<path d="M25 2V39.2222L45.5556 26.1667L25 2Z" fill="url(#paint0_linear_967_4591)"/>
<path d="M25 21.1667L45.5556 26.1667L25 39.2223V21.1667Z" fill="#53B1E0"/>
<path d="M24.9999 39.2223L4.72208 26.1667L24.9999 21.1667V39.2223Z" fill="#9CEBFF"/>
<path d="M25 47.5557L50 31.1668L47.2222 27.8335L25 42.2779V47.5557Z" fill="url(#paint1_linear_967_4591)"/>
<defs>
<linearGradient id="paint0_linear_967_4591" x1="36.9428" y1="35.8756" x2="24.0817" y2="11.5144" gradientUnits="userSpaceOnUse">
<stop stop-color="#1988D9"/>
<stop offset="0.9" stop-color="#54AEF0"/>
</linearGradient>
<linearGradient id="paint1_linear_967_4591" x1="31.4056" y1="28.7971" x2="40.2944" y2="44.1304" gradientUnits="userSpaceOnUse">
<stop offset="0.1" stop-color="#54AEF0"/>
<stop offset="0.29" stop-color="#4FABEE"/>
<stop offset="0.51" stop-color="#41A2E9"/>
<stop offset="0.74" stop-color="#2A93E0"/>
<stop offset="0.88" stop-color="#1988D9"/>
</linearGradient>
</defs>
</svg>
