<?xml version="1.0" encoding="UTF-8"?>
<svg width="730px" height="651px" viewBox="0 0 730 651" version="1.1" xmlns="http://www.w3.org/2000/svg" xmlns:xlink="http://www.w3.org/1999/xlink">
    <title>Developer Portal Banner</title>
    <g id="Developer-Portal" stroke="none" stroke-width="1" fill="none" fill-rule="evenodd">
        <g id="DevPortal-App-landing" transform="translate(-690.000000, -19.000000)">
            <g id="Group" transform="translate(690.000000, 19.000000)">
                <path d="M577.895502,218.20809 C628.281466,268.573997 667.215063,321.863998 670.985964,378.300939 C674.629347,434.738755 595.895878,430.671778 545.509914,470.582256 C495.254504,510.493608 426.120297,530.619696 366.882936,522.185615 C307.773094,513.641423 258.298987,476.540557 195.542725,436.630079 C132.916006,396.719601 56.8826485,353.997762 59.2255463,313.412628 C61.4389015,272.714759 142.030536,234.039986 204.785786,183.561345 C267.540024,133.195439 359.426106,134.901117 412.676174,127.593504 C465.926242,120.28589 527.640092,167.84131 577.895502,218.20809 Z" id="Path" fill="#FFFFFF" fill-rule="nonzero" opacity="0.688055856" transform="translate(365.140377, 325.465100) rotate(-30.000000) translate(-365.140377, -325.465100) "></path>
                <polygon id="Path" fill="#D7E0FF" fill-rule="nonzero" opacity="0.566643851" style="mix-blend-mode: multiply;" points="179.485453 169.899688 323.985453 169.899688 323.985453 307.503266 179.485453 307.503266"></polygon>
                <polygon id="Path" fill="#EAF0FF" fill-rule="nonzero" opacity="0.67" style="mix-blend-mode: multiply;" points="240.438687 154.14547 496.347922 154.14547 496.347922 338.571829 240.438687 338.571829"></polygon>
                <path d="M400.649609,202.437688 C400.649609,184.283282 415.367094,169.566595 433.520703,169.566595 C451.674312,169.566595 466.392594,184.283282 466.392594,202.437688 C466.392594,220.592095 451.675109,235.308782 433.520703,235.308782 C415.366297,235.308782 400.649609,220.592095 400.649609,202.437688 Z" id="Path" fill="#D7E0FF" fill-rule="nonzero"></path>
                <path d="M342.963031,364.72447 C342.963031,346.189954 357.988906,331.164079 376.523422,331.164079 C395.057938,331.164079 410.083016,346.189954 410.083016,364.72447 C410.083016,383.258985 395.057938,398.284063 376.524219,398.284063 C357.9905,398.284063 342.963031,383.258985 342.963031,364.72447 Z" id="Path" stroke="#EAF0FF" stroke-width="1.275" stroke-linecap="round" stroke-linejoin="round"></path>
                <path d="M121.113031,287.359462 C121.113031,268.816658 136.138906,253.784063 154.673422,253.784063 C173.207937,253.784063 188.233016,268.816658 188.233016,287.359462 C188.233016,305.902266 173.207937,320.934063 154.674219,320.934063 C136.1405,320.934063 121.113031,305.902266 121.113031,287.359462 Z" id="Path" stroke="#CED3F3" stroke-width="1.275" opacity="0.567583357" stroke-linecap="round" stroke-linejoin="round"></path>
                <polygon id="Path" fill="#FFFFFF" fill-rule="nonzero" points="446.469125 139.328376 446.469125 164.76861 446.6285 164.76861 446.6285 191.926907 427.653312 171.63847 373.092078 171.63847 373.092078 139.328376"></polygon>
                <path d="M556.849212,240.6974 L587.677351,271.525539 C590.166943,274.015131 590.166943,278.051558 587.677351,280.54115 L556.849212,311.369289 C554.35962,313.858881 550.323193,313.858881 547.833601,311.369289 L517.005462,280.54115 C514.51587,278.051558 514.51587,274.015131 517.005462,271.525539 L547.833601,240.6974 C550.323193,238.207808 554.35962,238.207808 556.849212,240.6974 Z" id="Polygon" stroke="#CED3F3" stroke-width="1.275"></path>
                <polygon id="Path" fill="#FFFFFF" fill-rule="nonzero" points="280.377266 182.808266 280.377266 208.248501 280.217891 208.248501 280.217891 235.406798 299.193875 215.119157 353.756703 215.119157 353.756703 182.808266"></polygon>
                <path d="M538.387063,301.784891 C529.584781,302.003235 510.565766,305.413063 510.565766,305.413063 C510.456594,314.704626 512.989859,413.188016 513.372359,428.003516 L567.688953,428.003516 L586.931094,316.260126 C586.931094,312.42099 585.406308,308.739035 582.691629,306.024356 C579.97695,303.309677 576.294995,301.78468 572.455859,301.784891 C572.455859,301.784891 549.077938,302.123563 540.000734,301.784891 C539.513047,301.768954 538.973563,301.769751 538.387063,301.784891 Z" id="Path" fill="#40404B" fill-rule="nonzero" opacity="0.859451294"></path>
                <path d="M589.612339,314.383678 C589.612339,309.790962 583.801105,299.664785 573.251116,299.665368 C573.251116,299.665368 549.572816,300.009727 540.378982,299.665368 C539.885028,299.649163 539.338612,299.649973 538.744576,299.665368 C529.829196,299.887379 512.26581,303.354466 512.26581,303.354466 C512.155235,312.802057 514.72105,412.939227 515.108465,428.003516 L570.122961,428.003516 C577.479026,385.118879 582.996075,352.9554 586.674107,331.513081" id="Path" stroke="#40404B" fill-rule="nonzero"></path>
                <path d="M252.849219,385.451985 C255.946672,383.744282 285.881281,361.591157 287.518062,359.519282 C289.154844,357.447407 295.030203,345.609829 295.524266,344.837657 C296.018328,344.065485 299.161203,342.621548 299.554062,342.954641 C301.965406,345.001813 298.100562,351.971282 297.641562,353.036704 C299.886359,350.987938 314.088266,339.883485 315.828641,340.429345 C328.339578,344.357141 323.657937,361.053266 315.795172,365.121313 C313.643609,366.236938 301.863406,370.732907 300.734234,371.717845 C299.605062,372.702782 250.052984,413.958595 248.942937,414.749095 C248.323766,411.905048 249.746187,387.157298 252.849219,385.451985 Z" id="Path" fill="#FFFFFF" fill-rule="nonzero"></path>
                <path d="M118.727187,298.910563 C114.887979,298.910563 111.206025,300.435738 108.491369,303.150543 C105.776713,305.865348 104.251953,309.547386 104.251953,313.386595 C104.251953,313.386595 114.664719,397.69597 118.461031,428.428251 L196.729297,428.428251 C196.722125,423.470095 196.569922,318.895391 195.768266,298.910563 L118.727187,298.910563 Z" id="Path" fill="#40404B" fill-rule="nonzero" opacity="0.859451294"></path>
                <path d="M215.582563,295.450532 C164.963526,295.450532 153.823923,381.267497 154.631938,424.77651 C154.655204,426.029323 158.25062,428.426657 160.010532,428.426657 C180.048122,428.426657 210.104507,428.426657 250.179688,428.426657 C258.676766,386.69272 260.086438,295.450532 215.582563,295.450532 Z" id="Path" fill="#A6B3FF" fill-rule="nonzero"></path>
                <path d="M251.210844,361.60072 C252.500984,386.224157 249.886438,411.862016 246.200094,428.248954" id="Path" stroke="#40404B" stroke-linecap="round" stroke-linejoin="round"></path>
                <path d="M225.405641,295.44097 C234.677281,300.37522 240.994906,310.680407 245.093234,323.692579" id="Path" stroke="#40404B" stroke-linecap="round" stroke-linejoin="round"></path>
                <path d="M183.839844,304.20022 C187.9565,300.136157 192.545703,296.903235 197.652078,294.734141" id="Path" stroke="#40404B" stroke-linecap="round" stroke-linejoin="round"></path>
                <path d="M251.843563,382.850985 C255.341844,381.009407 283.034047,360.538485 285.607953,357.821938 C288.181859,355.105391 292.461078,343.972251 294.332938,342.32511 C296.204797,340.67797 297.451109,339.77511 298.565141,341.003095 C299.679172,342.231079 297.722844,348.39172 295.297953,351.624641 C299.868828,346.880048 310.622656,339.352766 314.422953,338.033141" id="Path" stroke="#40404B" stroke-linecap="round" stroke-linejoin="round"></path>
                <path d="M269.283969,394.798532 C259.529422,403.203173 250.702437,410.865923 249.150125,412.25647" id="Path" stroke="#40404B" stroke-linecap="round" stroke-linejoin="round"></path>
                <path d="M314.57675,362.35297 C310.311875,364.526048 301.893687,367.696813 298.00175,370.47472 C296.890906,371.26761 292.722453,374.752345 287.251109,379.39972" id="Path" stroke="#40404B" stroke-linecap="round" stroke-linejoin="round"></path>
                <path d="M301.322328,352.506782 C302.649922,351.407095 306.764984,348.466626 310.865703,345.813032 C314.673969,343.34272 318.470281,341.125813 320.00825,340.855673" id="Path" stroke="#40404B" stroke-linecap="round" stroke-linejoin="round"></path>
                <path d="M304.628562,356.349313 C305.956156,355.250423 310.071219,352.309157 314.171938,349.655563 C317.980203,347.189235 321.776516,344.969141 323.314484,344.699001" id="Path" stroke="#40404B" stroke-linecap="round" stroke-linejoin="round"></path>
                <path d="M306.221516,361.547329 C307.400891,360.556016 311.054562,357.904016 314.694687,355.509407 C318.076625,353.285329 321.446609,351.28597 322.812453,351.039735" id="Path" stroke="#40404B" stroke-linecap="round" stroke-linejoin="round"></path>
                <line x1="149.918469" y1="296.664766" x2="193.721094" y2="296.664766" id="Path" stroke="#40404B" stroke-linecap="round" stroke-linejoin="round"></line>
                <path d="M115.813281,428.225845 L101.35,311.130641 C101.35,307.291221 102.875258,303.609065 105.590213,300.89426 C108.305168,298.179454 111.987408,296.65461 115.826828,296.65461 L121.280641,296.65461" id="Path" stroke="#40404B" stroke-linecap="round" stroke-linejoin="round"></path>
                <polyline id="Path" stroke="#40404B" stroke-linecap="round" stroke-linejoin="round" points="277.307703 222.456782 277.293359 231.932423 296.888516 211.913329 350.907078 211.913329 350.907078 179.566579 343.161453 179.566579"></polyline>
                <polyline id="Path" stroke="#40404B" stroke-linecap="round" stroke-linejoin="round" points="326.131438 179.566579 277.322844 179.566579 277.322844 206.480235"></polyline>
                <line x1="285.868531" y1="189.37511" x2="339.283859" y2="189.37511" id="Path" stroke="#40404B" stroke-linecap="round" stroke-linejoin="round"></line>
                <line x1="285.868531" y1="201.998407" x2="304.515406" y2="201.998407" id="Path" stroke="#40404B" stroke-linecap="round" stroke-linejoin="round"></line>
                <polyline id="Path" stroke="#40404B" stroke-linecap="round" stroke-linejoin="round" points="433.088 136.351251 443.263297 136.351251 443.263297 168.698798 443.292781 188.717891 423.699219 168.698798 369.679063 168.698798 369.679063 164.347063"></polyline>
                <polyline id="Path" stroke="#40404B" stroke-linecap="round" stroke-linejoin="round" points="369.679063 151.845688 369.679063 136.351251 410.410531 136.351251"></polyline>
                <line x1="434.717609" y1="146.159782" x2="381.305469" y2="146.159782" id="Path" stroke="#40404B" stroke-linecap="round" stroke-linejoin="round"></line>
                <line x1="400.290219" y1="158.783079" x2="381.643344" y2="158.783079" id="Path" stroke="#40404B" stroke-linecap="round" stroke-linejoin="round"></line>
                <path d="M141.164,352.11711 L141.218984,352.258954 C139.321625,356.511876 122.317906,404.650298 123.065375,408.639454 C123.816828,412.654907 127.802,419.732751 130.732906,421.369532 C132.072453,422.119391 145.489437,424.992126 161.492281,428.428251 L258.004203,428.428251 C256.032734,423.407938 247.793844,419.268173 240.170937,419.253032 C237.585078,419.167766 233.539344,419.344673 230.601266,422.702704 C201.525687,409.283329 168.955812,401.613407 159.487344,399.147876 L158.451406,396.465595 C161.599859,390.44361 171.091437,373.017548 172.416641,370.303391 C167.372422,367.739845 141.511437,352.325095 141.286719,352.188032 L141.269984,352.14022 C141.269984,352.145798 141.259625,352.162532 141.257234,352.16811 L141.164,352.11711 Z" id="Path" fill="#FFFFFF" fill-rule="nonzero"></path>
                <path d="M126.588359,388.271329 C123.719609,397.310282 121.610281,404.753095 121.886797,406.220141 C122.63825,410.234798 126.621031,417.310251 129.551937,418.948626 C131.172781,419.853876 150.159125,423.896423 170.410906,428.272063" id="Path" stroke="#40404B" stroke-linecap="round" stroke-linejoin="round"></path>
                <path d="M171.471547,367.721516 C169.508844,370.916985 156.758047,395.004126 156.436906,396.010579 C162.466062,397.77247 198.280016,405.64161 229.659359,420.124813 C232.598234,416.765985 236.642375,416.589876 239.228234,416.675938 C248.028922,416.692673 257.504563,421.24522 257.504563,428.230626" id="Path" stroke="#40404B" stroke-linecap="round" stroke-linejoin="round"></path>
                <path d="M185.652734,308.955173 C207.357219,321.645407 184.610422,369.924876 178.737453,371.460454 C167.196312,372.257329 140.618937,355.594673 138.060969,348.849923 C135.503,342.105173 164.236719,296.431485 185.652734,308.955173 Z" id="Path" fill="#A6B3FF" fill-rule="nonzero"></path>
                <path d="M192.191094,336.94461 C188.958969,352.378485 180.618875,367.374876 177.38675,368.22036 C165.845609,369.017235 139.268234,352.353782 136.710266,345.608235 C135.773141,343.137923 139.037937,335.436126 144.604906,327.288876" id="Path" stroke="#40404B" stroke-linecap="round" stroke-linejoin="round"></path>
                <path d="M158.021094,312.007204 C166.351625,304.854454 175.892609,300.795173 184.305219,305.711891 C187.652094,307.669813 189.944703,310.47561 191.402984,313.82647" id="Path" stroke="#40404B" stroke-linecap="round" stroke-linejoin="round"></path>
                <path d="M198.433812,305.36047 C201.594219,296.76936 201.105734,267.889813 200.792562,265.033016 C200.414844,261.584938 197.818625,236.720048 204.052578,231.467048 C210.286531,226.214048 219.868156,220.327532 225.524375,220.731548 C231.180594,221.135563 248.013781,238.073938 248.013781,258.58311 C248.013781,279.092282 229.366906,288.889063 224.992859,289.023735 C224.395203,293.577876 224.441422,305.767673 224.441422,310.183157 C222.647656,311.90361 203.018234,311.325079 198.433812,305.36047 Z" id="Path" fill="#FFFFFF" fill-rule="nonzero"></path>
                <path d="M201.546406,247.05472 C198.624266,246.87622 196.354766,249.512282 193.914734,252.028016 C191.728906,235.844282 199.354203,207.385485 210.296094,205.43872 C212.176719,205.512829 212.413391,208.005454 211.864344,210.199251 C218.727828,203.939001 231.619672,200.460641 237.091813,200.414423 C244.184,200.414423 246.690969,206.007688 246.690969,207.92736 C246.690969,212.788298 243.503469,220.051016 242.331266,221.931641 C244.207109,220.933954 245.710016,220.569782 247.159531,220.569782 C250.807625,220.569782 251.701719,226.227595 251.701719,227.913782 C251.701719,233.797907 245.470953,239.78722 242.378281,239.78722 C240.928766,239.78722 236.922078,237.529673 235.707641,235.845079 C236.135563,237.096173 236.6105,237.446798 236.628031,239.369657 C236.641578,240.956235 234.335422,241.82722 232.962406,241.82722 C229.327063,241.82722 222.120125,234.735032 215.526781,234.735032 C213.332984,234.735032 210.564641,237.878704 210.564641,239.650954 C210.564641,241.423204 211.491406,249.789595 210.933594,250.080454 C209.231469,251.421595 208.441766,247.432438 201.684266,246.998938" id="Path" fill="#FF9D52" fill-rule="nonzero"></path>
                <path d="M242.881906,268.825345 C238.670422,279.23811 230.061781,286.373329 220.125547,286.373329 C215.094078,286.373329 210.403672,284.540516 206.451172,281.384891" id="Path" stroke="#40404B" stroke-linecap="round" stroke-linejoin="round"></path>
                <path d="M241.923266,237.740048 C244.434219,242.701391 245.632721,248.025313 245.632721,254.338954 C245.633222,255.812705 245.553416,257.285388 245.393656,258.750454" id="Path" stroke="#40404B" stroke-linecap="round" stroke-linejoin="round"></path>
                <path d="M222.089844,307.569407 C221.814922,302.489329 221.970313,289.24686 222.656422,286.363766" id="Path" stroke="#40404B" stroke-linecap="round" stroke-linejoin="round"></path>
                <path d="M198.395562,289.273157 C197.997125,294.463204 197.335719,299.322548 196.275875,302.67261 C198.295156,305.040923 203.709922,306.85222 209.344625,307.700095" id="Path" stroke="#40404B" stroke-linecap="round" stroke-linejoin="round"></path>
                <path d="M198.381219,262.763516 C198.691203,264.245704 199.001188,271.119548 198.859344,279.034907" id="Path" stroke="#40404B" stroke-linecap="round" stroke-linejoin="round"></path>
                <path d="M216.511719,248.052407 C216.511719,246.520016 217.170734,245.276891 217.984344,245.276891 C218.797953,245.276891 219.456172,246.520016 219.456172,248.052407 C219.456172,249.584798 218.797156,250.827923 217.984344,250.827923 C217.171531,250.827923 216.511719,249.585595 216.511719,248.052407 Z" id="Path" fill="#1D2028" fill-rule="nonzero"></path>
                <path d="M237.458375,249.162454 C237.458375,247.630063 238.117391,246.387735 238.930203,246.387735 C239.743016,246.387735 240.402828,247.630063 240.402828,249.162454 C240.402828,250.694845 239.743813,251.93797 238.930203,251.93797 C238.116594,251.93797 237.458375,250.695641 237.458375,249.162454 Z" id="Path" fill="#1D2028" fill-rule="nonzero"></path>
                <path d="M231.556719,255.384454 C231.901766,257.830063 233.899531,261.928391 236.103688,263.512579" id="Path" stroke="#40404B" stroke-linecap="round" stroke-linejoin="round"></path>
                <path d="M230.351844,269.437345 C228.837781,269.230954 224.0135,266.648282 223.049281,264.787579 C221.257906,265.649001 220.362219,271.745095 224.0135,272.676641" id="Path" stroke="#40404B" stroke-linecap="round" stroke-linejoin="round"></path>
                <path d="M241.957531,237.731282 C241.579318,237.873905 241.179844,237.952022 240.775766,237.962376 C237.857609,237.962376 232.957625,233.061595 232.957625,233.061595 C234.058906,235.759813 234.719516,236.530391 234.719516,237.631673 C234.719516,238.732954 233.342516,239.94261 231.3065,239.999188 C226.34675,240.140235 220.867438,232.929313 213.905938,232.929313 C212.091453,232.929313 208.546156,235.413173 208.546156,238.415001 C208.546156,240.440657 209.183656,246.26422 209.183656,247.658751 C209.183656,248.216563 208.864906,248.589501 208.270438,248.838923" id="Path" stroke="#40404B" stroke-linecap="round" stroke-linejoin="round"></path>
                <path d="M231.6635,199.101173 C232.769099,198.950626 233.883424,198.873162 234.999219,198.869282 C240.394859,198.869282 244.744203,202.503032 244.744203,206.577454 C244.744203,210.651876 241.716078,218.689954 239.678469,220.617595 C242.376688,219.406345 243.147266,218.965673 245.017531,218.965673 C248.963656,218.965673 249.697578,223.150063 249.697578,226.288157 C249.697578,231.796954 245.06375,236.637173 241.959922,237.729688" id="Path" stroke="#40404B" stroke-linecap="round" stroke-linejoin="round"></path>
                <path d="M197.967641,215.053016 C201.517719,207.607016 205.663859,203.657704 207.587516,203.657704 C211.30175,203.657704 210.097672,207.572751 209.947063,208.827829 C211.30175,207.438876 216.624875,203.856923 223.051672,201.390595" id="Path" stroke="#40404B" stroke-linecap="round" stroke-linejoin="round"></path>
                <path d="M191.927328,241.670235 C192.184719,234.165266 193.429437,227.679501 195.132359,222.295813" id="Path" stroke="#40404B" stroke-linecap="round" stroke-linejoin="round"></path>
                <path d="M203.238172,263.643266 C198.767941,264.364674 194.47188,261.603503 193.271469,257.237451 C192.071059,252.871399 194.351647,248.302031 198.562351,246.636687 C202.773054,244.971342 207.562177,246.74462 209.672937,250.750626" id="Path" fill="#FFFFFF" fill-rule="nonzero"></path>
                <path d="M202.216578,262.792204 C197.746347,263.513612 193.450286,260.75244 192.249875,256.386388 C191.049465,252.020336 193.330054,247.450969 197.540757,245.785624 C201.75146,244.120279 206.540583,245.893557 208.651344,249.899563" id="Path" stroke="#40404B" stroke-linecap="round" stroke-linejoin="round"></path>
                <line x1="107.379687" y1="428.278235" x2="587.967031" y2="428.278235" id="Path" stroke="#40404B" stroke-linecap="round" stroke-linejoin="round"></line>
                <g id="Illustration/Tutor" transform="translate(337.610156, 189.758345)">
                    <g id="drawkit-grape-pack-illustration-1" transform="translate(112.475000, 125.000000) scale(-1, 1) translate(-112.475000, -125.000000) translate(0.975000, 0.000000)">
                        <path d="M16.606875,239.014023 C22.8863922,238.245172 68.5959822,242.37002 90.2697295,236.545703 C103.147909,233.084991 94.1467104,220.299918 100.481953,216.637773 C99.13125,207.44582 27.3587109,200.740117 22.3921875,201.696367 C22.2367969,205.132891 14.1325781,215.466367 16.606875,239.014023 Z" id="Path" fill="#5567D5" fill-rule="nonzero"></path>
                        <path d="M56.0760949,17.74375 C56.0760949,23.9561953 52.333807,29.5569232 46.594256,31.9343231 C40.8547049,34.311723 34.2481959,32.9976066 29.8553337,28.6047444 C25.4624715,24.2118822 24.1483552,17.6053732 26.525755,11.8658222 C28.9031549,6.12627113 34.5038828,2.38398321 40.7163281,2.38398321 C44.7904773,2.38239818 48.6982155,4.00014518 51.5790742,6.88100391 C54.4599329,9.76186265 56.0776799,13.6696008 56.0760949,17.74375" id="Path" fill="#EA4C4D" fill-rule="nonzero"></path>
                        <path d="M104.097773,44.3753125 C105.191484,43.8613281 106.78125,40.4008984 106.78125,35.2730078 C106.78125,22.525 97.0992187,16.5484375 81.6139453,16.5484375 C70.8023437,16.5484375 58.0603125,20.5885937 49.9381641,35.7571094 C43.8719531,47.0289062 41.4036328,71.9153125 36.3414844,80.8682031 C33.1380469,86.5280078 26.3426953,97.9910547 21.1251562,108.772773 C19.1648437,111.510039 9.30949219,132.392148 24.3584766,139.253242 C39.4074609,146.114336 109.291406,143.293398 111.150117,140.346953 C113.008828,137.400508 102.561797,116.357031 99.1252734,112.095742 C95.68875,107.834453 90.7580859,102.413711 93.5670703,81.4539063 C96.3760547,60.4941016 93.8360156,48.1405469 96.2445703,47.1424609 C98.653125,46.144375 101.575664,46.0846094 104.097773,44.3753125" id="Path" fill="#EA4C4D" fill-rule="nonzero"></path>
                        <path d="M65.2560938,59.0417969 C65.2560938,62.6429308 62.3367979,65.5622266 58.7356641,65.5622266 C55.1345302,65.5622266 52.2152344,62.6429308 52.2152344,59.0417969 C52.2152344,55.440663 55.1345302,52.5213672 58.7356641,52.5213672 C62.3354322,52.5246622 65.2527988,55.4420287 65.2560938,59.0417969" id="Path" fill="#FFFFFF" fill-rule="nonzero"></path>
                        <path d="M164.383359,97.6145312 C169.433555,89.6178906 167.969297,80.3960547 165.799805,83.2349219 C165.076641,84.1851953 155.639648,103.304219 153.757031,105.246602 L153.757031,105.246602 C152.292773,105.294414 151.127344,105.485664 150.637266,105.886094 C148.724766,107.44 149.441953,118.329297 148.724766,119.285547 C148.007578,120.241797 120.72457,162.125547 119.523281,163.440391 C119.40375,163.918516 115.937344,147.769844 114.879492,144.913047 C112.15418,147.112422 105.370781,151.003164 103.326797,151.666562 C103.559883,153.51332 104.707383,176.343789 103.326797,183.760703 C104.48625,186.055703 111.490781,193.012422 114.467109,193.012422 C120.198633,193.012422 126.294727,190.80707 127.896445,189.701406 C134.584219,185.111406 160.391016,125.841836 162.279609,124.610664 C166.05082,122.136367 172.332187,113.601836 173.210742,108.199023 C173.210742,105.808398 175.171055,104.248516 164.36543,97.5966016" id="Path" fill="#FFFFFF" fill-rule="nonzero"></path>
                        <path d="M88.2001172,105.790469 C105.036094,100.292031 120.354023,138.518125 119.158711,141.602031 C117.963398,144.685938 100.966055,153.901797 97.2605859,153.411719 C93.5551172,152.921641 81.6617578,107.912148 88.2001172,105.778516" id="Path" fill="#A6B3FF" fill-rule="nonzero"></path>
                        <path d="M167.025,67.946875 C167.025,71.0275884 164.527588,73.525 161.446875,73.525 C158.366162,73.525 155.86875,71.0275884 155.86875,67.946875 C155.86875,64.8661616 158.366162,62.36875 161.446875,62.36875 C164.527588,62.36875 167.025,64.8661616 167.025,67.946875" id="Path" fill="#FFFFFF" fill-rule="nonzero"></path>
                        <path d="M186.15,67.946875 C186.15,71.0275884 183.652588,73.525 180.571875,73.525 C177.491162,73.525 174.99375,71.0275884 174.99375,67.946875 C174.99375,64.8661616 177.491162,62.36875 180.571875,62.36875 C183.652588,62.36875 186.15,64.8661616 186.15,67.946875" id="Path-Copy" fill="#FFFFFF" fill-rule="nonzero"></path>
                        <path d="M203.68125,67.946875 C203.68125,71.0275884 201.183838,73.525 198.103125,73.525 C195.022412,73.525 192.525,71.0275884 192.525,67.946875 C192.525,64.8661616 195.022412,62.36875 198.103125,62.36875 C201.183838,62.36875 203.68125,64.8661616 203.68125,67.946875" id="Path-Copy-2" fill="#FFFFFF" fill-rule="nonzero"></path>
                        <path d="M222.80625,67.946875 C222.80625,71.0275884 220.308838,73.525 217.228125,73.525 C214.147412,73.525 211.65,71.0275884 211.65,67.946875 C211.65,64.8661616 214.147412,62.36875 217.228125,62.36875 C220.308838,62.36875 222.80625,64.8661616 222.80625,67.946875" id="Path-Copy-3" fill="#FFFFFF" fill-rule="nonzero"></path>
                        <path d="M85.74375,103.322148 C102.579727,97.8237109 117.897656,136.055781 116.702344,139.133711 C115.507031,142.211641 98.5096875,151.433477 94.8042187,150.955352 C91.09875,150.477227 79.1695312,105.455781 85.74375,103.322148 Z" id="Path" stroke="#40404B" stroke-linecap="round" stroke-linejoin="round"></path>
                        <path d="M67.9335937,96.2339453 C115.584727,97.3515625 103.54793,203.776211 101.360508,207.577305 C98.4140625,212.693242 37.4112891,217.337031 22.8643359,203.065 C19.4995312,199.765938 22.6969922,95.1760938 67.9335937,96.2339453" id="Path" fill="#A6B3FF" fill-rule="nonzero"></path>
                        <path d="M59.9429297,94.1839844 C61.7650117,93.859991 63.6152798,93.7218216 65.4652734,93.7716016 C80.1078516,94.1122656 89.1145313,104.39793 94.5053906,118.598242" id="Path" stroke="#40404B" stroke-linecap="round" stroke-linejoin="round"></path>
                        <path d="M101.521875,157.105234 C102.812813,181.232617 99.8663672,203.411641 98.8921875,205.108984 C95.9457422,210.224922 34.9429688,214.868711 20.3960156,200.59668 C17.3360156,197.608398 19.7027344,110.745039 54.2293359,95.9052344" id="Path" stroke="#40404B" stroke-linecap="round" stroke-linejoin="round"></path>
                        <path d="M100.0875,32.6014844 C100.183125,38.5182812 58.9388672,44.1183203 58.7117578,52.5213672 C58.4846484,60.9244141 58.3471875,65.7773828 58.3471875,65.7773828 C59.8233984,73.6126562 56.6259375,101.314023 55.7234766,104.20668 C59.1839063,107.428047 76.5398438,107.194961 78.4344141,105.246602 C78.189375,103.298242 78.2252344,90.0302734 78.7212891,88.5122266 L78.7212891,88.5122266 C79.4503471,88.6101797 80.1850568,88.6600921 80.9206641,88.6616406 C94.1946094,88.6616406 104.958398,72.9970703 104.958398,53.6688672 C104.958398,43.5684766 104.791055,40.8969531 100.099453,32.5835547" id="Path" fill="#FFFFFF" fill-rule="nonzero"></path>
                        <path d="M43.3400391,99.4672656 C61.7896875,105.198789 50.745,149.891523 47.2188281,151.654609 C43.6926562,153.417695 9.13617187,143.544414 8.4309375,139.665625 C7.72570312,135.786836 19.8342187,92.1579297 43.3400391,99.4672656" id="Path" fill="#A6B3FF" fill-rule="nonzero"></path>
                        <path d="M51.2470313,120.032617 C51.0976172,133.617344 46.7347266,148.19418 44.7505078,149.186289 C41.2243359,150.949375 6.66785156,141.076094 5.96261719,137.197305 C5.7534375,136.055781 6.64992188,131.489688 8.6221875,125.788047" id="Path" stroke="#40404B" stroke-linecap="round" stroke-linejoin="round"></path>
                        <path d="M18.3400781,106.722812 C23.9939062,99.2282031 31.5363281,94.0943359 40.8717187,96.9989453 C41.6274379,97.2303616 42.3566308,97.5408695 43.0471875,97.9253125" id="Path" stroke="#40404B" stroke-linecap="round" stroke-linejoin="round"></path>
                        <path d="M130.173516,141.351016 C137.757773,129.804297 145.885898,117.36707 146.274375,116.847109 C146.991563,115.890859 146.274375,105.001562 148.186875,103.447656 C150.099375,101.89375 162.291563,103.447656 162.291563,104.834219 C162.291563,106.220781 157.313086,110.810781 156.093867,111.151445" id="Path" stroke="#40404B" stroke-linecap="round" stroke-linejoin="round"></path>
                        <path d="M112.560586,142.851133 C113.618438,145.713906 116.953359,161.486055 117.072891,161.00793 C117.377695,160.667266 119.379844,157.696914 122.206758,153.441602" id="Path" stroke="#40404B" stroke-linecap="round" stroke-linejoin="round"></path>
                        <path d="M161.915039,95.1462109 C166.965234,87.1495703 165.500977,77.9277344 163.331484,80.7666016 C162.60832,81.716875 153.171328,100.835898 151.288711,102.778281" id="Path" stroke="#40404B" stroke-linecap="round" stroke-linejoin="round"></path>
                        <path d="M163.60043,97.2320312 C162.925078,98.5110156 159.829219,103.668789 159.829219,103.668789" id="Path" stroke="#40404B" stroke-linecap="round" stroke-linejoin="round"></path>
                        <path d="M166.911445,99.2700391 C165.597768,102.243152 164.053077,105.108724 162.291562,107.84043" id="Path" stroke="#40404B" stroke-linecap="round" stroke-linejoin="round"></path>
                        <path d="M169.881797,101.49332 C168.343916,104.829865 166.578667,108.056835 164.598516,111.151445" id="Path" stroke="#40404B" stroke-linecap="round" stroke-linejoin="round"></path>
                        <path d="M161.87918,120.468906 C161.248877,121.09404 160.562696,121.660189 159.829219,122.160273 C157.940625,123.397422 132.133828,182.661016 125.446055,187.256992 C123.844336,188.35668 117.748242,190.562031 112.016719,190.562031 C109.028438,190.562031 102.675352,184.585469 101.521875,182.308398" id="Path" stroke="#40404B" stroke-linecap="round" stroke-linejoin="round"></path>
                        <path d="M170.760352,105.748633 C170.395781,108.001797 169.086914,110.798828 167.419453,113.476328" id="Path" stroke="#40404B" stroke-linecap="round" stroke-linejoin="round"></path>
                        <path d="M97.0992187,73.3556641 C92.6885156,81.2028906 85.9887891,86.21125 78.4822266,86.21125 C73.7009766,86.21125 69.2245312,84.1672656 65.47125,80.6470703" id="Path" stroke="#40404B" stroke-linecap="round" stroke-linejoin="round"></path>
                        <path d="M97.6311328,30.1331641 C100.898535,36.6747461 102.560089,43.9007633 102.478125,51.2125 C102.488689,54.9012361 102.087773,58.5796416 101.282812,62.1794922" id="Path" stroke="#40404B" stroke-linecap="round" stroke-linejoin="round"></path>
                        <path d="M59.9429297,61.9165234 C57.3716417,63.6876803 53.9048585,63.383355 51.6814733,61.1913064 C49.458088,58.9992578 49.1045879,55.5371433 50.839071,52.9409755 C52.5735542,50.3448077 55.9072922,49.3461134 58.7834766,50.5610547" id="Path" stroke="#40404B" stroke-linecap="round" stroke-linejoin="round"></path>
                        <path d="M79.8090234,49.2223047 C79.8090234,50.6028906 79.2113672,51.7264844 78.4463672,51.7264844 C77.6813672,51.7264844 77.0896875,50.6028906 77.0896875,49.2223047 C77.0896875,47.8417188 77.6873438,46.7121484 78.4463672,46.7121484 C79.2053906,46.7121484 79.8090234,47.8357422 79.8090234,49.2223047" id="Path" fill="#1D2028" fill-rule="nonzero"></path>
                        <path d="M92.2223438,60.9303906 C92.4506141,61.3803792 92.7314848,61.8016851 93.0590625,62.1854687" id="Path" stroke="#40404B" stroke-linecap="round" stroke-linejoin="round"></path>
                        <path d="M90.8895703,53.220625 C90.7612479,55.0563006 90.9287345,56.9006705 91.385625,58.6832031" id="Path" stroke="#40404B" stroke-linecap="round" stroke-linejoin="round"></path>
                        <path d="M72.165,65.8789844 C72.4279688,67.6360938 74.364375,69.9191406 77.0837109,70.7976953" id="Path" stroke="#40404B" stroke-linecap="round" stroke-linejoin="round"></path>
                        <path d="M75.9660938,102.778281 C75.7210547,100.829922 75.7569141,87.5619531 76.2529688,86.0439062" id="Path" stroke="#40404B" stroke-linecap="round" stroke-linejoin="round"></path>
                        <path d="M54.9285937,89.9824609 C54.3309375,95.869375 53.61375,100.626719 53.2671094,101.738359 C54.6417187,103.017344 58.1977734,103.746484 62.1124219,104.045313" id="Path" stroke="#40404B" stroke-linecap="round" stroke-linejoin="round"></path>
                        <path d="M55.8908203,63.3150391 C56.4884766,66.3571094 56.3330859,72.3934375 55.8908203,78.8122656" id="Path" stroke="#40404B" stroke-linecap="round" stroke-linejoin="round"></path>
                        <path d="M26.8805859,25.6029297 C23.3588459,21.7297928 22.0531416,16.3292323 23.4164977,11.275016 C24.7798538,6.22079974 28.6243743,2.20949324 33.6161719,0.632851563" id="Path" stroke="#40404B" stroke-linecap="round" stroke-linejoin="round"></path>
                        <path d="M52.4005078,9.30484375 C54.6628732,14.6571952 53.713709,20.8278043 49.9473868,25.2528219 C46.1810647,29.6778395 40.2414164,31.6008337 34.5963281,30.2228125" id="Path" stroke="#40404B" stroke-linecap="round" stroke-linejoin="round"></path>
                        <path d="M91.8338672,15.8372266 C99.7229297,18.4669141 104.31293,24.0430469 104.31293,32.8046875 C104.31293,37.9325781 102.723164,41.3930078 101.623477,41.9069922" id="Path" stroke="#40404B" stroke-linecap="round" stroke-linejoin="round"></path>
                        <path d="M38.2480078,65.4247656 C40.9494141,54.5294922 43.3938281,40.8312109 47.4578906,33.2589062 C55.0780078,19.0406641 66.7502344,14.6060547 77.0896875,14.1339062" id="Path" stroke="#40404B" stroke-linecap="round" stroke-linejoin="round"></path>
                        <path d="M18.6568359,106.304453 C22.2427734,98.8875391 26.5817578,91.1419141 30.0123047,85.1952344" id="Path" stroke="#40404B" stroke-linecap="round" stroke-linejoin="round"></path>
                        <path d="M90.7102734,97.9253125 C90.9672656,100.286055 91.3557422,102.264297 91.9055859,103.340078" id="Path" stroke="#40404B" stroke-linecap="round" stroke-linejoin="round"></path>
                        <path d="M90.8417578,81.2088672 C90.4054687,82.7209375 90.1903125,87.5918359 90.3457031,92.4627344" id="Path" stroke="#40404B" stroke-linecap="round" stroke-linejoin="round"></path>
                        <path d="M99.2388281,26.2364453 C99.2388281,38.6258594 56.2553906,39.7434766 56.2553906,50.0530469" id="Path" stroke="#40404B" stroke-linecap="round" stroke-linejoin="round"></path>
                        <path d="M120.820195,207.427891 C124.961953,208.121172 127.322695,201.301914 129.844805,201.666484 C131.685586,201.929453 140.489062,203.059023 140.877539,203.668633 C141.266016,204.278242 139.825664,210.625352 139.825664,210.625352" id="Path" fill="#EAF0FF" fill-rule="nonzero"></path>
                        <rect id="Rectangle" fill="#FFFFFF" fill-rule="nonzero" transform="translate(105.240663, 224.787583) rotate(-80.450000) translate(-105.240663, -224.787583) " x="85.5239831" y="193.034107" width="39.4333594" height="63.5069531"></rect>
                        <polyline id="Path" stroke="#40404B" stroke-linecap="round" stroke-linejoin="round" points="133.759453 229.565078 130.818984 247.040547 94.5053906 240.9325"></polyline>
                        <line x1="137.36332" y1="208.157031" x2="136.132148" y2="215.466367" id="Path" stroke="#1D2028" stroke-width="1.275" stroke-linecap="round" stroke-linejoin="round"></line>
                        <polyline id="Path" stroke="#40404B" stroke-linecap="round" stroke-linejoin="round" points="73.8982031 237.466094 68.1905859 236.485938 74.7648047 197.596445 128.093672 206.561289"></polyline>
                        <path d="M118.351875,204.95957 C122.493633,205.652852 124.860352,198.833594 127.376484,199.198164 C129.217266,199.461133 138.020742,200.590703 138.409219,201.200313 C138.797695,201.809922 137.357344,208.157031 137.357344,208.157031" id="Path" stroke="#40404B" stroke-linecap="round" stroke-linejoin="round"></path>
                        <rect id="Rectangle" fill="#5567D5" fill-rule="nonzero" transform="translate(124.292909, 220.896844) rotate(-80.450000) translate(-124.292909, -220.896844) " x="115.874921" y="216.282938" width="16.8359766" height="9.2278125"></rect>
                        <line x1="80.1317578" y1="208.157031" x2="115.889531" y2="214.169453" id="Path" stroke="#40404B" stroke-linecap="round" stroke-linejoin="round"></line>
                        <line x1="109.213711" y1="220.857227" x2="114.532852" y2="221.753711" id="Path" stroke="#40404B" stroke-linecap="round" stroke-linejoin="round"></line>
                        <line x1="78.7810547" y1="215.741289" x2="99.3225" y2="219.195742" id="Path" stroke="#40404B" stroke-linecap="round" stroke-linejoin="round"></line>
                        <path d="M118.961484,209.836445 C118.029141,202.66457 115.871602,195.05043 100.625391,195.707852 C98.5634766,194.052344 58.5205078,182.696875 34.3751953,176.433437 C37.1841797,170.630195 40.4593359,152.945547 40.6266797,151.331875 C38.8337109,150.997187 12.3754688,142.857109 12.3754688,142.857109 C12.3754688,142.857109 1.31285156,189.115703 3.71542969,192.982539 C18.519375,202.413555 74.0535938,209.208906 99.1252734,207.44582 C100.882383,208.826406 100.64332,209.693008 103.135547,210.045625 C105.627773,210.398242 118.961484,209.836445 118.961484,209.836445" id="Path" fill="#FFFFFF" fill-rule="nonzero"></path>
                        <path d="M71.1848437,184.699023 C85.456875,188.786992 97.0693359,192.355 98.1510937,193.239531 C113.409258,192.582109 115.56082,200.166367 116.493164,207.368125" id="Path" stroke="#40404B" stroke-linecap="round" stroke-linejoin="round"></path>
                        <path d="M38.1583594,148.887461 C37.9850391,150.477227 34.7098828,168.161875 31.906875,173.989023 C40.3099219,176.158516 50.6433984,178.94957 60.6302344,181.758555" id="Path" stroke="#40404B" stroke-linecap="round" stroke-linejoin="round"></path>
                        <path d="M103.290938,200.626563 C103.982707,203.083122 104.235607,205.642472 104.038008,208.186914" id="Path" stroke="#40404B" stroke-linecap="round" stroke-linejoin="round"></path>
                        <path d="M107.892891,200.626563 C108.590535,203.08201 108.843539,205.642413 108.639961,208.186914" id="Path" stroke="#40404B" stroke-linecap="round" stroke-linejoin="round"></path>
                        <path d="M111.604336,200.626563 C112.296825,203.082966 112.547749,205.642798 112.34543,208.186914" id="Path" stroke="#40404B" stroke-linecap="round" stroke-linejoin="round"></path>
                        <path d="M1.86269531,178.704531 C0.816796875,185.147266 0.37453125,189.964375 1.26503906,190.514219 C21.961875,203.662656 84.5125781,205.718594 96.6748828,204.9775" id="Path" stroke="#40404B" stroke-linecap="round" stroke-linejoin="round"></path>
                        <path d="M9.90714844,140.412695 C9.68003906,141.213555 7.54640625,150.178398 5.40082031,160.320625" id="Path" stroke="#40404B" stroke-linecap="round" stroke-linejoin="round"></path>
                    </g>
                </g>
            </g>
        </g>
    </g>
</svg>
