<?xml version="1.0" encoding="UTF-8"?>

<!-- 
~    Copyright (c) 2020, WSO2 Inc. (http://www.wso2.com). All Rights Reserved.
~   
~    This software is the property of WSO2 Inc. and its suppliers, if any. 
~    Dissemination of any information or reproduction of any material contained 
~    herein in any form is strictly forbidden, unless permitted by WSO2 expressly. 
~    You may not alter or remove any copyright or other notice from copies of this content."
-->

<svg width="18px" height="15px" viewBox="0 0 18 15" version="1.1" xmlns="http://www.w3.org/2000/svg" xmlns:xlink="http://www.w3.org/1999/xlink">
    <title>B2256EAC-2826-42A7-92F8-9DD6A535D56A</title>
    <defs>
        <path d="M1,11 C1.55228475,11 2,11.4477153 2,12 L2,14 C2,14.5522847 1.55228475,15 1,15 C0.44771525,15 6.76353751e-17,14.5522847 0,14 L0,12 C-6.76353751e-17,11.4477153 0.44771525,11 1,11 Z M5,8 C5.55228475,8 6,8.44771525 6,9 L6,14 C6,14.5522847 5.55228475,15 5,15 C4.44771525,15 4,14.5522847 4,14 L4,9 C4,8.44771525 4.44771525,8 5,8 Z M9,0 C9.55228475,-1.01453063e-16 10,0.44771525 10,1 L10,14 C10,14.5522847 9.55228475,15 9,15 C8.44771525,15 8,14.5522847 8,14 L8,1 C8,0.44771525 8.44771525,1.01453063e-16 9,0 Z M13,5 C13.5522847,5 14,5.44771525 14,6 L14,14 C14,14.5522847 13.5522847,15 13,15 C12.4477153,15 12,14.5522847 12,14 L12,6 C12,5.44771525 12.4477153,5 13,5 Z M17,2 C17.5522847,2 18,2.44771525 18,3 L18,14 C18,14.5522847 17.5522847,15 17,15 C16.4477153,15 16,14.5522847 16,14 L16,3 C16,2.44771525 16.4477153,2 17,2 Z" id="path-1"></path>
    </defs>
    <g id="Observe" stroke="none" stroke-width="1" fill="none" fill-rule="evenodd">
        <g id="Root" transform="translate(-1382.000000, -474.000000)">
            <g id="Button/Reload/Default" transform="translate(1375.000000, 465.000000)">
                <g id="Icon/Refresh" transform="translate(7.000000, 9.000000)">
                    <mask id="mask-2" fill="white">
                        <use xlink:href="#path-1"></use>
                    </mask>
                    <use id="Combined-Shape" fill="#D8D8D8" xlink:href="#path-1"></use>
                    <rect id="Color" fill="#FFFFFF" mask="url(#mask-2)" x="-1" y="-3" width="20" height="20"></rect>
                </g>
            </g>
        </g>
    </g>
</svg>
