<?xml version="1.0" encoding="UTF-8"?>
<svg width="16px" height="16px" viewBox="0 0 16 16" version="1.1" xmlns="http://www.w3.org/2000/svg" xmlns:xlink="http://www.w3.org/1999/xlink">
    <title>85D5A07D-AA6B-40E0-94E0-9943C709EA81</title>
    <g id="Page-1" stroke="none" stroke-width="1" fill="none" fill-rule="evenodd">
        <g id="AC-overview" transform="translate(-488.000000, -576.000000)" fill="#5567D5" fill-rule="nonzero">
            <g id="Icon/Analytics/Overview-Copy-4" transform="translate(488.250000, 576.250000)">
                <path d="M3.75,0 C1.67893219,0 0,1.67893219 0,3.75 C0,5.82106781 1.67893219,7.5 3.75,7.5 C5.82106781,7.5 7.5,5.82106781 7.5,3.75 C7.5,1.67893219 5.82106781,0 3.75,0 Z M3.75,1.5 C4.99264069,1.5 6,2.50735931 6,3.75 C6,4.99264069 4.99264069,6 3.75,6 C2.50735931,6 1.5,4.99264069 1.5,3.75 C1.5,2.50735931 2.50735931,1.5 3.75,1.5 Z M11.75,0 C9.67893219,0 8,1.67893219 8,3.75 C8,5.82106781 9.67893219,7.5 11.75,7.5 C13.8210678,7.5 15.5,5.82106781 15.5,3.75 C15.5,1.67893219 13.8210678,0 11.75,0 Z M11.75,1.5 C12.9926407,1.5 14,2.50735931 14,3.75 C14,4.99264069 12.9926407,6 11.75,6 C10.5073593,6 9.5,4.99264069 9.5,3.75 C9.5,2.50735931 10.5073593,1.5 11.75,1.5 Z M3.75,8 C1.67893219,8 0,9.67893219 0,11.75 C0,13.8210678 1.67893219,15.5 3.75,15.5 C5.82106781,15.5 7.5,13.8210678 7.5,11.75 C7.5,9.67893219 5.82106781,8 3.75,8 Z M3.75,9.5 C4.99264069,9.5 6,10.5073593 6,11.75 C6,12.9926407 4.99264069,14 3.75,14 C2.50735931,14 1.5,12.9926407 1.5,11.75 C1.5,10.5073593 2.50735931,9.5 3.75,9.5 Z M11.75,8.5 C12.1296958,8.5 12.443491,8.78215388 12.4931534,9.14822944 L12.5,9.25 L12.499,10.999 L14.25,11 C14.6642136,11 15,11.3357864 15,11.75 C15,12.1296958 14.7178461,12.443491 14.3517706,12.4931534 L14.25,12.5 L12.499,12.499 L12.5,14.25 C12.5,14.6642136 12.1642136,15 11.75,15 C11.3703042,15 11.056509,14.7178461 11.0068466,14.3517706 L11,14.25 L10.999,12.499 L9.25,12.5 C8.83578644,12.5 8.5,12.1642136 8.5,11.75 C8.5,11.3703042 8.78215388,11.056509 9.14822944,11.0068466 L9.25,11 L10.999,10.999 L11,9.25 C11,8.83578644 11.3357864,8.5 11.75,8.5 Z" id="Combined-Shape"></path>
            </g>
        </g>
    </g>
</svg>