<?xml version="1.0" encoding="UTF-8"?>

<!-- 
~    Copyright (c) 2021, WSO2 Inc. (http://www.wso2.com). All Rights Reserved.
~   
~    This software is the property of WSO2 Inc. and its suppliers, if any. 
~    Dissemination of any information or reproduction of any material contained 
~    herein in any form is strictly forbidden, unless permitted by WSO2 expressly. 
~    You may not alter or remove any copyright or other notice from copies of this content."
-->

<svg width="24px" height="24px" viewBox="0 0 24 24" version="1.1" xmlns="http://www.w3.org/2000/svg" xmlns:xlink="http://www.w3.org/1999/xlink">
    <title>C9C61D21-FC3F-4A98-ABC9-987238423223</title>
    <g id="Home" stroke="none" stroke-width="1" fill="none" fill-rule="evenodd">
        <g id="new-dashboard-+" transform="translate(-834.000000, -281.000000)" fill="#5567D5" fill-rule="nonzero">
            <path d="M848.122625,287.772757 L848.166568,287.90148 L848.61834,289.587376 C849.628807,289.481411 850.624479,289.623371 851.533732,289.971904 L852.405665,288.459568 C852.68184,287.981219 853.293502,287.817325 853.771851,288.093499 C854.206713,288.344567 854.381696,288.872897 854.202423,289.326273 L854.137919,289.459685 L853.265282,290.971877 C854.021465,291.585101 854.641977,292.376362 855.055238,293.304333 L856.740785,292.851806 C857.274314,292.708848 857.822715,293.025467 857.965674,293.558996 C858.096719,294.048064 857.841591,294.549629 857.387207,294.739941 L857.258484,294.783884 L855.572588,295.235656 C855.678514,296.245754 855.536697,297.241067 855.188442,298.150051 L856.700396,299.022981 C857.178745,299.299156 857.342639,299.910818 857.066465,300.389166 C856.815397,300.824029 856.287067,300.999011 855.833691,300.819738 L855.700279,300.755235 L854.188087,299.882598 C853.575084,300.638508 852.784172,301.258846 851.856633,301.672107 L852.308158,303.358101 C852.451116,303.89163 852.134497,304.440031 851.600968,304.582989 C851.1119,304.714035 850.610335,304.458907 850.420023,304.004523 L850.37608,303.8758 L849.924308,302.189904 C848.91421,302.29583 847.918897,302.154012 847.009913,301.805757 L846.136983,303.317712 C845.860808,303.796061 845.249146,303.959955 844.770798,303.68378 C844.335935,303.432712 844.160953,302.904382 844.340226,302.451007 L844.40473,302.317595 L845.277512,300.805521 C844.521536,300.192501 843.901145,299.401547 843.487857,298.473949 L841.801863,298.925473 C841.268334,299.068432 840.719933,298.751812 840.576975,298.218284 C840.445929,297.729216 840.701057,297.227651 841.155441,297.037339 L841.284164,296.993396 L842.97006,296.541624 C842.864134,295.531526 843.005952,294.536213 843.354207,293.627229 L841.842252,292.754299 C841.363903,292.478124 841.200009,291.866462 841.476184,291.388113 C841.727252,290.953251 842.255582,290.778268 842.708957,290.957541 L842.842369,291.022045 L844.354443,291.894827 C844.967463,291.138851 845.758417,290.51846 846.686015,290.105173 L846.234491,288.419179 C846.091532,287.88565 846.408152,287.337249 846.94168,287.19429 C847.430748,287.063245 847.932313,287.318373 848.122625,287.772757 Z M850.331459,281 C852.291409,281 853.892233,282.5376 853.993472,284.47234 L853.998555,284.667096 L853.998917,286.741697 C853.025431,286.421452 851.934662,286.777311 851.344457,287.643722 L851.25083,287.792823 L850.902193,288.395532 L850.864609,288.387037 L850.473433,288.314278 C850.298747,288.286475 850.123029,288.264736 849.946572,288.249131 L849.681368,288.230335 L849.634045,288.228846 L849.454473,287.555798 L849.384606,287.341945 L849.352589,287.257604 L849.265971,287.073596 C848.791785,286.170355 847.775847,285.67475 846.764899,285.867663 L846.596548,285.906239 L846.404273,285.966626 L846.220906,286.04188 C845.258643,286.485467 844.705116,287.537976 844.908058,288.597112 L844.946439,288.764311 L845.125517,289.436987 L844.758633,289.687554 C844.615411,289.791812 844.475956,289.900967 844.340486,290.01481 L844.140297,290.189064 L844.110732,290.214411 L843.509748,289.867576 L843.289407,289.757012 L843.084062,289.684465 C842.0445,289.363698 840.985302,289.732238 840.412266,290.576322 L840.321348,290.721369 L840.223404,290.910086 L840.144174,291.103438 C839.790623,292.09019 840.142143,293.21134 841.023703,293.813663 L841.175507,293.909134 L841.778459,294.257551 L841.769664,294.29562 L841.696905,294.686888 C841.669104,294.861614 841.64737,295.037373 841.631773,295.213871 L841.612991,295.479136 L841.610439,295.524366 L840.938975,295.705359 L840.724629,295.775358 L840.526596,295.867301 C839.55674,296.366774 839.057629,297.384043 839.250358,298.395061 L839.288923,298.563416 L839.349311,298.755691 L839.424564,298.939058 C839.868152,299.901321 840.92066,300.454849 841.979796,300.251906 L842.146995,300.213525 L842.819914,300.032893 L842.844324,300.073306 L843.070523,300.401722 C843.174765,300.544902 843.283901,300.684317 843.397723,300.819749 L843.571943,301.019883 L843.597338,301.047678 L843.25026,301.650216 L843.139696,301.870557 L843.067149,302.075902 C842.896399,302.629278 842.920973,303.188218 843.108625,303.676429 L837.667096,303.675318 C835.707146,303.675318 834.106323,302.137719 834.005083,300.202978 L834,300.008223 L834,284.667096 C834,282.707146 835.5376,281.106323 837.47234,281.005083 L837.667096,281 L850.331459,281 Z M847.640478,303.379951 L847.678304,303.3903 L848.069572,303.463059 C848.244299,303.49086 848.420058,303.512594 848.596556,303.528191 L848.861821,303.546973 L848.907293,303.547971 L848.941,303.675 L847.469,303.675 L847.640478,303.379951 Z M848.149644,291.702472 C845.837687,292.321959 844.465669,294.698363 845.085156,297.01032 C845.704643,299.322277 848.081048,300.694295 850.393005,300.074808 C852.704961,299.455321 854.076979,297.078916 853.457492,294.766959 C852.838005,292.455003 850.461601,291.082985 848.149644,291.702472 Z M850.559376,295.543507 C850.749987,296.254879 850.327828,296.98608 849.616457,297.176692 C848.905085,297.367303 848.173884,296.945144 847.983272,296.233772 C847.792661,295.522401 848.21482,294.791199 848.926192,294.600588 C849.637563,294.409977 850.368765,294.832136 850.559376,295.543507 Z" id="Combined-Shape"></path>
        </g>
    </g>
</svg>
