<?xml version="1.0" encoding="UTF-8"?>
<svg width="16px" height="16px" viewBox="0 0 16 16" version="1.1" xmlns="http://www.w3.org/2000/svg" xmlns:xlink="http://www.w3.org/1999/xlink">
    <title>AFC90A0F-6B33-49A3-AA92-3FD1B250E2B9</title>
    <g id="API" stroke="none" stroke-width="1" fill="none" fill-rule="evenodd">
        <g id="api-proxy-lifecycle-7" transform="translate(-904.000000, -696.000000)" fill="#FE523C" fill-rule="nonzero">
            <g id="Icon/Alerts/Info-filled" transform="translate(904.000000, 696.000000)">
                <path d="M8,0 C12.418278,0 16,3.581722 16,8 C16,12.418278 12.418278,16 8,16 C3.581722,16 0,12.418278 0,8 C0,3.581722 3.581722,0 8,0 Z M5.90398692,5.14626561 C5.70872477,4.95100347 5.39214228,4.95100347 5.19688014,5.14626561 L5.19688014,5.14626561 L5.14626561,5.19688014 C4.95100347,5.39214228 4.95100347,5.70872477 5.14626561,5.90398692 L5.14626561,5.90398692 L7.24268864,7.99929289 L5.14626561,10.0960131 C4.95100347,10.2912752 4.95100347,10.6078577 5.14626561,10.8031199 L5.14626561,10.8031199 L5.19688014,10.8537344 C5.39214228,11.0489965 5.70872477,11.0489965 5.90398692,10.8537344 L5.90398692,10.8537344 L8,8.75660426 L10.0960131,10.8537344 C10.2912752,11.0489965 10.6078577,11.0489965 10.8031199,10.8537344 L10.8031199,10.8537344 L10.8537344,10.8031199 C11.0489965,10.6078577 11.0489965,10.2912752 10.8537344,10.0960131 L10.8537344,10.0960131 L8.75731136,7.99929289 L10.8537344,5.90398692 C11.0489965,5.70872477 11.0489965,5.39214228 10.8537344,5.19688014 L10.8537344,5.19688014 L10.8031199,5.14626561 C10.6078577,4.95100347 10.2912752,4.95100347 10.0960131,5.14626561 L10.0960131,5.14626561 L8,7.24198153 Z" id="Combined-Shape"></path>
            </g>
        </g>
    </g>
</svg>