<?xml version="1.0" encoding="UTF-8"?>
<svg width="16px" height="16px" viewBox="0 0 16 16" version="1.1" xmlns="http://www.w3.org/2000/svg" xmlns:xlink="http://www.w3.org/1999/xlink">
    <title>6567C512-842A-4758-9EBD-54C22854D795</title>
    <g id="Develop" stroke="none" stroke-width="1" fill="none" fill-rule="evenodd">
        <g id="develop-add" transform="translate(-89.000000, -688.000000)" fill="#36B475" fill-rule="nonzero">
            <g id="Icon/Check" transform="translate(89.000000, 688.000000)">
                <path d="M8,-1.59872116e-14 L8,1 C4.13400675,1 1,4.13400675 1,8 C1,11.8659932 4.13400675,15 8,15 C11.8659932,15 15,11.8659932 15,8 L16,8 C16,12.418278 12.418278,16 8,16 C3.581722,16 0,12.418278 0,8 C0,3.581722 3.581722,-1.59872116e-14 8,-1.59872116e-14 Z M14.2173334,3.73205205 L14.267948,3.78266658 C14.4632101,3.97792872 14.4632101,4.29451121 14.267948,4.48977336 L8.90398692,9.85373439 C8.7125818,10.0451395 8.40460191,10.0489203 8.20859137,9.86507691 C8.12284811,9.84335482 8.04163976,9.79936107 7.97469274,9.73241404 L5.14626561,6.90398692 C4.95100347,6.70872477 4.95100347,6.39214228 5.14626561,6.19688014 L5.19688014,6.14626561 C5.39214228,5.95100347 5.70872477,5.95100347 5.90398692,6.14626561 L8.50015101,8.74167951 L13.5102266,3.73205205 C13.7054888,3.5367899 14.0220713,3.5367899 14.2173334,3.73205205 Z" id="Combined-Shape"></path>
            </g>
        </g>
    </g>
</svg>
