<?xml version="1.0" encoding="UTF-8"?>
<svg width="16px" height="16px" viewBox="0 0 16 16" version="1.1" xmlns="http://www.w3.org/2000/svg" xmlns:xlink="http://www.w3.org/1999/xlink">
    <title>C79A939B-B824-49D9-A213-CBF0597107FB</title>
    <g id="Apps" stroke="none" stroke-width="1" fill="none" fill-rule="evenodd">
        <g id="apps-empty-active" transform="translate(-981.000000, -140.000000)" fill="#5567D5" fill-rule="nonzero">
            <g id="profile-popup-copy" transform="translate(960.000000, 73.000000)">
                <g id="Icon/Controls/Edit" transform="translate(21.000000, 67.000000)">
                    <path d="M12,0 C14.209139,-4.05812251e-16 16,1.790861 16,4 L16,12 C16,14.209139 14.209139,16 12,16 L4,16 C1.790861,16 2.705415e-16,14.209139 0,12 L0,4 C-2.705415e-16,1.790861 1.790861,4.05812251e-16 4,0 L12,0 Z M11.7123106,4.2876894 C9.66205807,2.23743687 6.33794193,2.23743687 4.2876894,4.2876894 C2.23743687,6.33794193 2.23743687,9.66205807 4.2876894,11.7123106 C6.33794193,13.7625631 9.66205807,13.7625631 11.7123106,11.7123106 C12.200466,11.2241552 12.200466,10.432699 11.7123106,9.94454365 C11.2241552,9.45638828 10.432699,9.45638828 9.94454365,9.94454365 L9.94454365,9.94454365 L9.82253865,10.059451 C8.74253911,11.0170123 7.08962253,10.9787098 6.05545635,9.94454365 C4.98151455,8.87060185 4.98151455,7.12939815 6.05545635,6.05545635 C7.12939815,4.98151455 8.87060185,4.98151455 9.94454365,6.05545635 C10.432699,6.54361172 11.2241552,6.54361172 11.7123106,6.05545635 C12.200466,5.56730099 12.200466,4.77584476 11.7123106,4.2876894 Z" id="Combined-Shape"></path>
                </g>
            </g>
        </g>
    </g>
</svg>