<?xml version="1.0" encoding="UTF-8"?>
<svg width="18px" height="12px" viewBox="0 0 18 12" version="1.1" xmlns="http://www.w3.org/2000/svg" xmlns:xlink="http://www.w3.org/1999/xlink">
    <title>A7A13899-1BCD-40D9-B9CF-047D73BA7CB3</title>
    <g id="Develop" stroke="none" stroke-width="1" fill="none" fill-rule="evenodd">
        <g id="develop-chart-50%-dark" transform="translate(-735.000000, -82.000000)">
            <g id="Icon/Controls/Code" transform="translate(735.000000, 82.000000)">
                <path d="M12.7130569,0.29153521 L17.7073313,5.26629636 C17.8879258,5.4461852 17.9854329,5.67792354 17.9997594,5.9138006 L17.9999905,6.08229141 C17.9865876,6.31822275 17.8899883,6.55034103 17.7100995,6.73093547 L17.7073313,6.73370364 L12.7130569,11.7084648 C12.3228517,12.0971454 11.6918194,12.0971454 11.3016142,11.7084648 L11.2938787,11.7007595 C10.9025907,11.3110003 10.9013514,10.6778366 11.2911105,10.2865486 C11.2920314,10.2856241 11.2929541,10.2847014 11.2938787,10.2837805 L15.596,6 L11.2938779,1.7162205 C10.9025899,1.32646142 10.9013505,0.693297657 11.2911095,0.302009647 L11.2924923,0.300624157 L11.3016142,0.291535211 C11.6918194,-0.0971454452 12.3228517,-0.0971454456 12.7130569,0.29153521 Z M5.2869431,0.29153521 C5.67714834,-0.0971454456 6.30818056,-0.0971454452 6.6983858,0.291535211 L6.6983858,0.291535211 L6.70750768,0.300624157 C7.09864953,0.693297657 7.09741009,1.32646142 6.70612208,1.7162205 L6.70612208,1.7162205 L2.404,6 L6.70612133,10.2837805 C6.70704585,10.2847014 6.70796858,10.2856241 6.70888949,10.2865486 C7.09864863,10.6778366 7.09740928,11.3110003 6.70612133,11.7007595 L6.70612133,11.7007595 L6.6983858,11.7084648 C6.30818056,12.0971454 5.67714835,12.0971454 5.28694311,11.7084648 L5.28694311,11.7084648 L0.292668652,6.73370364 C0.110011656,6.55034103 0.0134124423,6.31822275 9.4578895e-06,6.08229141 L9.4578895e-06,6.08229141 L0.000240552442,5.9138006 C0.0145670504,5.67792354 0.112074213,5.4461852 0.292668652,5.26629636 L0.292668652,5.26629636 Z" id="path-1"></path>
                <use id="Combined-Shape" fill="#5567D5" fill-rule="nonzero" xlink:href="#path-1"></use>
            </g>
        </g>
    </g>
</svg>
