<?xml version="1.0" encoding="UTF-8"?>
<svg width="20px" height="20px" viewBox="0 0 20 20" version="1.1" xmlns="http://www.w3.org/2000/svg" xmlns:xlink="http://www.w3.org/1999/xlink">
    <title>94CE7C58-7B51-4E25-A42B-A9FFAD37070E</title>
    <g id="Apps" stroke="none" stroke-width="1" fill="none" fill-rule="evenodd">
        <g id="apps-create-" transform="translate(-614.000000, -438.000000)">
            <g id="create" transform="translate(504.000000, 120.000000)">
                <g id="Card/Mode/Default" transform="translate(72.000000, 280.000000)">
                    <g id="Icon/20/Develop" transform="translate(38.000000, 38.000000)">
                        <path d="M19.6227493,9.10931119 L10.8906446,0.377257875 C10.3878614,-0.125752625 9.57230774,-0.125752625 9.06908917,0.377257875 L7.25580459,2.19079465 L9.55598361,4.49101748 C10.0905445,4.31036031 10.7034613,4.4315965 11.1294123,4.85755563 C11.5579752,5.28634433 11.6781208,5.90449657 11.4928963,6.44102659 L13.7099311,8.65788593 C14.2464509,8.47287558 14.864809,8.5923705 15.2933719,9.02159452 C15.8919234,9.61993976 15.8919234,10.590047 15.2933719,11.1888276 C14.694385,11.7878258 13.7245139,11.7878258 13.1253095,11.1888276 C12.6751987,10.7382729 12.5637593,10.0765888 12.7920795,9.52199311 L10.7243561,7.454448 L10.7243561,12.8950583 C10.8701851,12.9673212 11.0079607,13.0637442 11.1294123,13.1849804 C11.7279638,13.7835433 11.7279638,14.7534329 11.1294123,15.3528664 C10.5308608,15.9512117 9.56033671,15.9512117 8.96222052,15.3528664 C8.36366901,14.7534329 8.36366901,13.7835433 8.96222052,13.1849804 C9.11022598,13.0371898 9.28152054,12.925313 9.46435082,12.8504382 L9.46435082,7.35933092 C9.28152054,7.2846738 9.11066129,7.17366759 8.96222052,7.02500633 C8.50884496,6.57183979 8.39979976,5.90623784 8.63247305,5.34946551 L6.36494229,3.08145625 L0.37725069,9.06882657 C-0.12575023,9.57227239 -0.12575023,10.3878416 0.37725069,10.8908521 L9.10979067,19.6229054 C9.61257393,20.1256982 10.4279099,20.1256982 10.9313461,19.6229054 L19.6227493,10.9313367 C20.1257502,10.4283262 20.1257502,9.61210403 19.6227493,9.10931119" id="path-1"></path>
                        <use id="Fill-1" fill="#FFFFFF" xlink:href="#path-1"></use>
                    </g>
                </g>
            </g>
        </g>
    </g>
</svg>
