<svg width="16" height="16" viewBox="0 0 16 16" fill="none" xmlns="http://www.w3.org/2000/svg">
<path fill-rule="evenodd" clip-rule="evenodd" d="M11.9726 8.53855L15.1062 11.3416C17.6959 13.8608 14.0977 17.662 11.4414 15.204L11.365 15.1234L7.94535 11.392L4.45316 15.1634C3.98238 15.6827 3.31833 15.9847 2.61734 15.9977C0.297271 16.0943 -0.919946 13.0748 0.830269 11.5409L2.85164 9.65043L5.40742 7.31841C5.1697 7.08072 4.88478 6.79625 4.59649 6.50842C4.12993 6.0426 3.65455 5.56797 3.35619 5.26863C3.23669 5.12706 2.99024 5.13432 2.78681 5.14032C2.7265 5.14209 2.66997 5.14376 2.62165 5.1414C2.29121 5.14241 1.97427 5.01144 1.74132 4.77748L0.402805 3.43966C0.0339403 3.06985 0.0339403 2.47106 0.402805 2.10125L1.99275 0.512368C2.36762 0.155034 2.95697 0.155034 3.33184 0.512368L4.66978 1.85019C5.03375 2.17719 5.05654 2.70344 5.03432 3.15823C5.03375 3.27299 5.07978 3.38289 5.16105 3.46356L7.29534 5.59775L7.57703 5.34057C7.47036 4.89123 7.43137 4.42887 7.4622 3.96808C7.60526 1.23764 10.675 -0.800809 13.2037 0.308026C13.3624 0.466216 13.3624 0.722823 13.2042 0.881442L11.6924 2.39091C11.5413 2.54249 11.5413 2.78779 11.6924 2.93939L13.0613 4.307C13.2147 4.45428 13.4568 4.45428 13.61 4.307C13.6329 4.29219 13.7937 4.12771 14.0076 3.90893C14.4892 3.41641 15.2399 2.64868 15.2909 2.69363C15.5059 2.62973 15.7318 2.75209 15.7958 2.96702C16.6365 5.52839 14.7438 8.36332 12.043 8.5344C12.0195 8.53596 11.9961 8.53735 11.9726 8.53855ZM10.6443 8.44083L8.49597 10.7894L12.0169 14.6301C13.8517 16.3389 16.3651 13.6918 14.5656 11.9485L10.6443 8.44083ZM6.40054 7.51125L8.30512 5.77373C8.41995 5.66927 8.46495 5.50793 8.42108 5.35905C8.29378 4.9275 8.24447 4.47758 8.27428 4.02883C8.40975 2.11115 10.1762 0.627492 12.0906 0.845315L11.1188 1.81992C10.6508 2.28828 10.6508 3.04727 11.1188 3.51621L12.4871 4.8844C12.9622 5.33817 13.7102 5.33817 14.1853 4.8844L15.1605 3.9098C15.3776 5.82104 13.8999 7.58493 11.9834 7.72502C11.5317 7.75482 11.0783 7.70395 10.6443 7.57502C10.4938 7.52845 10.3301 7.57343 10.2246 7.68979L3.85336 14.6151C2.1784 16.3547 -0.35444 13.8204 1.37775 12.142L3.39822 10.2508L6.38038 7.52965C6.38735 7.52369 6.39407 7.51756 6.40054 7.51125ZM3.96284 4.72742C4.49043 5.25417 5.5004 6.26255 6.00893 6.77135L6.69478 6.14539L4.58702 4.03771C4.35249 3.80501 4.22076 3.48822 4.2219 3.15795C4.21858 3.10818 4.22039 3.04798 4.22234 2.98323C4.22839 2.78246 4.23576 2.53791 4.09562 2.42492L2.7571 1.08652C2.70462 1.03451 2.6196 1.03451 2.567 1.08652L0.977728 2.67552C0.925697 2.72537 0.926265 2.81522 0.977728 2.86507L2.31566 4.20289C2.42935 4.344 2.67315 4.33684 2.87417 4.33094C2.9393 4.32903 2.99994 4.32725 3.0502 4.33069C3.38065 4.32968 3.69805 4.46121 3.931 4.69562L3.96284 4.72742ZM2.00104 13.535C2.013 14.2484 3.07452 14.2484 3.08648 13.535C3.0746 12.8217 2.01299 12.8217 2.00104 13.535Z" fill="#8D91A3"/>
</svg>
