<svg xmlns="http://www.w3.org/2000/svg" width="210.5" height="200" viewBox="0 0 210.5 200">
    <g id="Illustration_Observe" data-name="Illustration/Observe" transform="translate(10.5)">
        <g id="observe" transform="translate(-10)">
            <path id="Path" d="M90.44,149.858c-25.7,1.44-29.686,25.474-51.651,19.054S5.117,142.584,1.41,118.118C-2.3,93.726.841,58.4,16.492,40.255c15.58-18.146,42.3-8.179,66.254-12.284s42.3-26.44,65.476-27.7S187.9,1.78,197.09,17.643s-6.033,42.132-9.347,71.085-6.748,44.768-18.631,56S116.144,148.421,90.44,149.858Z" transform="translate(10 14)" fill="#f7f8fb"/>
            <circle id="Oval" cx="14.5" cy="14.5" r="14.5" stroke-width="0.748" transform="translate(70 27)" stroke="#c6cbf0" stroke-linecap="round" stroke-linejoin="round" stroke-miterlimit="10" fill="none"/>
            <g id="Group_2" data-name="Group 2" transform="translate(0 55)">
                <path id="Path-2" data-name="Path" d="M49.023,7.434C49.152,4.325,44.975,0,39.06,0c-11.988,0-14.312,12.3-23.5,29.03C13.008,33.674,0,43.616,0,55.719S9.589,70.792,18.639,70.792s28.8-18.37,28.8-23.555-3.413-12.329-3.413-19.618,1.006-11.4,1.006-13.32S48.963,13.066,49.023,7.434Z" transform="translate(1.063 0.42)" fill="#ff9d52"/>
                <path id="Path-3" data-name="Path" d="M13.206,32.145C8.625,37.44,0,45.863,0,55.719c0,12.1,9.589,15.073,18.639,15.073s28.8-18.37,28.8-23.555S44.02,34.908,44.02,27.62s1.006-11.4,1.006-13.32,3.937-1.233,4-6.865C49.152,4.325,44.976,0,39.06,0,29.727,0,26.252,7.456,20.835,18.651" transform="translate(0 0)" fill="none" stroke="#353552" stroke-linecap="round" stroke-linejoin="round" stroke-miterlimit="10" stroke-width="1"/>
            </g>
            <path id="Path-4" data-name="Path" d="M0,12.537c1.578.231,5.829.921,5.829.921L12.654,16.5,21.729,0l-11.4,6.723L4.683,3.528" transform="translate(143.041 111.883)" fill="#fff"/>
            <rect id="Rectangle" width="95" height="3" transform="translate(99.742 126.184)" fill="#d8dfff"/>
            <rect id="Rectangle-2" data-name="Rectangle" width="67" height="67" transform="translate(138 20)" fill="#ced3f3"/>
            <rect id="Rectangle-3" data-name="Rectangle" width="34" height="9" rx="4.5" transform="translate(145.157 34.812)" fill="#fff"/>
            <circle id="Oval-2" data-name="Oval" cx="4.5" cy="4.5" r="4.5" transform="translate(188 34.809)" fill="#fff"/>
            <rect id="Rectangle-4" data-name="Rectangle" width="30" height="18" rx="6.6" transform="translate(97 65)" fill="#ced3f3"/>
            <circle id="Oval-3" data-name="Oval" cx="4.704" cy="4.704" r="4.704" transform="translate(122.797 60.72)" fill="#ff9d52"/>
            <rect id="Rectangle-5" data-name="Rectangle" width="71.529" height="24.933" transform="translate(108)" fill="#f4f5fc"/>
            <rect id="Rectangle-6" data-name="Rectangle" width="7.056" height="13.914" rx="3.528" transform="translate(28.894 26.275) rotate(-90)" stroke-width="0.6" stroke="#ced3f3" stroke-linecap="round" stroke-linejoin="round" stroke-miterlimit="10" fill="none"/>
            <path id="Path-5" data-name="Path" d="M0,28.461C.183,30.5,3.6,46.977,14.433,46.977c16.1,0,42.327-20.328,51.069-27.156,5.586-1.137,47.7-13.2,47.7-13.2C112.425,4.293,110.769,0,110.769,0S72.162,2.445,65.319,3.585s-38.9,11.1-40.452,11.547S0,28.461,0,28.461Z" transform="translate(43.171 114.988)" fill="#5567d5"/>
            <path id="Path-6" data-name="Path" d="M0,30.36C1.146,26.322,17.676,0,24.879,0s52.8,13.233,52.8,13.233c-.984,2.124-4.365,9.978-4.365,9.978Z" transform="translate(68.434 101.764)" fill="#5567d5"/>
            <path id="Path-7" data-name="Path" d="M9.951,3.708a41.951,41.951,0,0,1,3.858,6.525c2.475-1,25.2-9.3,27.141-9.714s10-2.049,10.857,3.9c-1.476,1.239-4.857.141-7.38.69S14.709,21.429,12.8,21.852s-12.8-3-12.8-3S5.109,4.512,9.951,3.708Z" transform="translate(53.791 95.092)" fill="#fff"/>
            <path id="Path-8" data-name="Path" d="M1.628,0C7.355,0,14.771,10.317,16.145,14.358c-.786,1.647-3.807,4.434-4.71,4.668S-4.963,0,1.628,0Z" transform="translate(49.676 82.735)" fill="#a6b3ff"/>
            <path id="Path-9" data-name="Path" d="M20.238,2.583c10.2,7.365,13.71,28.98,17.4,45.357-3.1,3.477-22.113,15.6-26.268,14.667C2.121,40.107-9.183,0,12.3,0a13.269,13.269,0,0,1,7.941,2.583" transform="translate(31.762 81.817)" fill="#a6b3ff"/>
            <path id="Path-10" data-name="Path" d="M1.65.71C1.5,2.879-.615,33.947.177,44.855c.372,5.133,2,8.8,2.031,10.554.126,6.24,5.058,9.408,6.96,9.408s2.121-.651,2.121-1.413S7.32,54.377,7.32,51.323,12.393,3.965,12.975,1.355,1.65.71,1.65.71Z" transform="translate(27.607 110.777)" fill="#fff"/>
            <path id="Path-11" data-name="Path" d="M10.5.007c6.867.357,5.967,24.732,3.747,25.629S1.394,25.426.284,23.893,1.058-.473,10.5.007Z" transform="translate(27.266 87.393)" fill="#a6b3ff"/>
            <path id="Path-12" data-name="Path" d="M0,.026A47.857,47.857,0,0,1,1.7,9.734c1.224.6,4.767.816,6.165-.237A26.955,26.955,0,0,1,6.789,1.982C6.831-.379,0,.026,0,.026Z" transform="translate(35.779 74.444)" fill="#fff"/>
            <circle id="Oval-4" data-name="Oval" cx="2.067" cy="2.067" r="2.067" transform="translate(33.598 69.202)" fill="#fff"/>
            <path id="Path-13" data-name="Path" d="M2.574,19.851l4.755-1.764,5.538-.534L6.84,0,4.7,11.181,0,13.2" transform="translate(155.53 101.014)" fill="#fff"/>
            <g id="Group_4" data-name="Group 4" transform="translate(26.065 72.519)">
                <path id="Shape" d="M0,26.8H0c.829-2.9,7.1-13.5,14.458-21.406ZM75.369,12.879,46.284,4.822c13.269,3.479,27.505,7.6,29.085,8.055ZM35.21,2.043,25.6,0c2.243.365,5.476,1.052,9.609,2.041Z" transform="translate(43.335 28.359)" fill="none" stroke="#32324d" stroke-linecap="round" stroke-linejoin="round" stroke-miterlimit="10" stroke-width="1"/>
                <path id="Path-14" data-name="Path" d="M0,3.879c1.578.231,5.829.921,5.829.921l6.825,3.042L16.967,0" transform="translate(115.776 46.822)" fill="none" stroke="#32324d" stroke-linecap="round" stroke-linejoin="round" stroke-miterlimit="10" stroke-width="1"/>
                <path id="Path-15" data-name="Path" d="M70.47,0c-2.3.222-4.1.429-5.157.6-6.84,1.14-38.9,11.1-40.452,11.547S0,25.467,0,25.467C.183,27.51,3.6,43.983,14.433,43.983c7.71,0,17.739-4.659,27.06-10.266" transform="translate(15.906 44.26)" fill="none" stroke="#32324d" stroke-linecap="round" stroke-linejoin="round" stroke-miterlimit="10" stroke-width="1"/>
                <path id="Path-16" data-name="Path" d="M0,29.7c5.655-3.951,10.4-7.644,13.269-9.882,5.586-1.137,47.7-13.2,47.7-13.2C60.192,4.293,58.536,0,58.536,0s-13.2.837-25.524,1.758" transform="translate(68.139 41.278)" fill="none" stroke="#32324d" stroke-linecap="round" stroke-linejoin="round" stroke-miterlimit="10" stroke-width="1"/>
                <path id="Shape-2" data-name="Shape" d="M9.807,19.026v0l3.955-6.385a13.679,13.679,0,0,1,.753,1.719c-.8,1.684-3.817,4.433-4.707,4.668ZM11.152,8.477,0,0C1.707,0,3.671.9,5.836,2.684a32.433,32.433,0,0,1,5.317,5.791Z" transform="translate(24.039 9.016)" fill="none" stroke="#32324d" stroke-linecap="round" stroke-linejoin="round" stroke-miterlimit="10" stroke-width="1"/>
                <path id="Shape-3" data-name="Shape" d="M5.028,18.142v0L26.053,6.815c-2.268,1.242-4.7,2.589-7.06,3.892C12.277,14.422,5.935,17.93,5.028,18.142ZM26.3,6.68v0c2.485-1.36,4.434-2.409,5.957-3.207ZM6.029,6.525h0A40.489,40.489,0,0,0,3.787,2.4L10.88,4.7C8.266,5.667,6.589,6.3,6.03,6.525ZM3.787,2.4h0L0,1.174A4.548,4.548,0,0,1,2.171,0,25.176,25.176,0,0,1,3.786,2.4Z" transform="translate(34.306 25.081)" fill="none" stroke="#32324d" stroke-linecap="round" stroke-linejoin="round" stroke-miterlimit="10" stroke-width="1"/>
                <path id="Path-17" data-name="Path" d="M0,5.278C6.336,2.989,12.687.742,13.677.526c1.953-.429,10-2.049,10.857,3.9-1.476,1.239-4.857.141-7.38.69" transform="translate(53.799 21.36)" fill="none" stroke="#32324d" stroke-linecap="round" stroke-linejoin="round" stroke-miterlimit="10" stroke-width="1"/>
                <path id="Shape-4" data-name="Shape" d="M9.643,60.052c-1.381-3.5-2.679-7.075-3.857-10.637L9.645,60.052ZM0,9.98H0C.821,6.368,2.368,3.7,4.6,2.055ZM22.432,5.227,10.508.036C10.865.011,11.232,0,11.6,0A13.242,13.242,0,0,1,17.58,1.39a16.375,16.375,0,0,1,4.853,3.835Z" transform="translate(5.193 8.098)" fill="none" stroke="#32324d" stroke-linecap="round" stroke-linejoin="round" stroke-miterlimit="10" stroke-width="1"/>
                <path id="Path-18" data-name="Path" d="M0,0C4.674,9.9,7.14,23.763,9.693,35.1" transform="translate(32.439 20.926)" fill="none" stroke="#32324d" stroke-linecap="round" stroke-linejoin="round" stroke-miterlimit="10" stroke-width="1"/>
                <path id="Shape-5" data-name="Shape" d="M6.857,47.956h0c.5-7.1,4.692-45.648,5.219-47.956ZM0,18.063H0L.332,1.137c0,.37,0,.812,0,1.325C.327,5.486.322,11.111,0,18.063ZM.335,1.012h0C.336.474.343.171.355,0Z" transform="translate(0.846 39.639)" fill="none" stroke="#32324d" stroke-linecap="round" stroke-linejoin="round" stroke-miterlimit="10" stroke-width="1"/>
                <path id="Path-19" data-name="Path" d="M.03,0C-.033,3.975,0,7.485.177,9.96c.372,5.133,2,8.8,2.031,10.554.126,6.24,5.058,9.408,6.96,9.408s2.121-.651,2.121-1.413A47.893,47.893,0,0,0,9.5,23.838" transform="translate(0.341 71.953)" fill="none" stroke="#32324d" stroke-linecap="round" stroke-linejoin="round" stroke-miterlimit="10" stroke-width="1"/>
                <path id="Shape-6" data-name="Shape" d="M1.7,9.7,0,0A47.632,47.632,0,0,1,1.7,9.7ZM7.547,8.4a29.3,29.3,0,0,1-.636-3.941L7.549,8.4Z" transform="translate(8.514 0.757)" fill="none" stroke="#32324d" stroke-linecap="round" stroke-linejoin="round" stroke-miterlimit="10" stroke-width="1"/>
                <path id="Path-20" data-name="Path" d="M12.795,13.974c-3.666.3-11.562-.7-12.51-2.013C-.246,11.226-.093,5.6,1.251,0" transform="translate(0 25.612)" fill="none" stroke="#32324d" stroke-linecap="round" stroke-linejoin="round" stroke-miterlimit="10" stroke-width="1"/>
                <path id="Path-21" data-name="Path" d="M5.1,0,4.7,2.1,0,4.113" transform="translate(128.265 36.679)" fill="none" stroke="#32324d" stroke-linecap="round" stroke-linejoin="round" stroke-miterlimit="10" stroke-width="1"/>
                <path id="Path-22" data-name="Path" d="M5.148,11.361,1.248,0,0,6.519" transform="translate(133.857 27.595)" fill="none" stroke="#32324d" stroke-linecap="round" stroke-linejoin="round" stroke-miterlimit="10" stroke-width="1"/>
                <path id="Path-23" data-name="Path" d="M0,2.3,4.755.534,10.293,0" transform="translate(130.839 45.148)" fill="none" stroke="#32324d" stroke-linecap="round" stroke-linejoin="round" stroke-miterlimit="10" stroke-width="1"/>
                <path id="Path-24" data-name="Path" d="M.15,0V3.54" transform="translate(31.827 111.727)" fill="none" stroke="#32324d" stroke-linecap="round" stroke-linejoin="round" stroke-miterlimit="10" stroke-width="1"/>
                <path id="Path-25" data-name="Path" d="M.15,0V19.92" transform="translate(31.827 88.246)" fill="none" stroke="#32324d" stroke-linecap="round" stroke-linejoin="round" stroke-miterlimit="10" stroke-width="1"/>
                <path id="Path-26" data-name="Path" d="M0,0,4.05,10.47" transform="translate(126.114 39.913)" fill="none" stroke="#32324d" stroke-linecap="round" stroke-linejoin="round" stroke-miterlimit="10" stroke-width="1"/>
                <path id="Path-27" data-name="Path" d="M0,3.909C1.542,1.473,3.555-.132,6.132.009c5.58.3,6.033,16.434,4.8,22.962" transform="translate(4.365 13.687)" fill="none" stroke="#32324d" stroke-linecap="round" stroke-linejoin="round" stroke-miterlimit="10" stroke-width="1"/>
                <path id="Path-28" data-name="Path" d="M0,.15H54.966" transform="translate(4.494 88.096)" fill="none" stroke="#32324d" stroke-linecap="round" stroke-linejoin="round" stroke-miterlimit="10" stroke-width="1"/>
                <path id="Path_Copy" data-name="Path Copy" d="M.421,1H74.579" transform="translate(93.677 55.981)" fill="none" stroke="#32324d" stroke-linecap="round" stroke-linejoin="round" stroke-miterlimit="10" stroke-width="1"/>
                <path id="Path-29" data-name="Path" d="M.15,0V5.01" transform="translate(31.827 121.35)" fill="none" stroke="#32324d" stroke-linecap="round" stroke-linejoin="round" stroke-miterlimit="10" stroke-width="1"/>
                <path id="Path-30" data-name="Path" d="M0,.15H17.874" transform="translate(23.04 126.21)" fill="none" stroke="#32324d" stroke-linecap="round" stroke-linejoin="round" stroke-miterlimit="10" stroke-width="1"/>
            </g>
            <path id="Path-31" data-name="Path" d="M0,.15H46.959" transform="translate(120.285 7.215)" fill="none" stroke="#ced3f3" stroke-linecap="round" stroke-linejoin="round" stroke-miterlimit="10" stroke-width="0.6"/>
            <path id="Path-32" data-name="Path" d="M0,.15H21.906" transform="translate(120.285 17.418)" fill="none" stroke="#ced3f3" stroke-linecap="round" stroke-linejoin="round" stroke-miterlimit="10" stroke-width="0.6"/>
            <path id="Path-33" data-name="Path" d="M0,.25H47" transform="translate(145.157 54.123)" fill="none" stroke="#fff" stroke-linecap="round" stroke-linejoin="round" stroke-miterlimit="10" stroke-width="0.6"/>
            <path id="Path-34" data-name="Path" d="M0,.25H47" transform="translate(145.157 63.327)" fill="none" stroke="#fff" stroke-linecap="round" stroke-linejoin="round" stroke-miterlimit="10" stroke-width="0.6"/>
            <path id="Path-35" data-name="Path" d="M0,.15H32.412" transform="translate(145.157 72.531)" fill="none" stroke="#fff" stroke-linecap="round" stroke-linejoin="round" stroke-miterlimit="10" stroke-width="0.6"/>
        </g>
        <g id="Group" transform="matrix(0.985, -0.174, 0.174, 0.985, 16.547, 55.964)">
            <path id="Path-36" data-name="Path" d="M.4.317A47.872,47.872,0,0,1,0,10.759c.828.872,4.763,1.858,7.043,1.006A30.031,30.031,0,0,1,7.4,5.37C7.715,4.1.179-1.36.4.317Z" transform="translate(5.583 17.589)" fill="#fff"/>
            <path id="Path-37" data-name="Path" d="M7.043,11.765A30.051,30.051,0,0,1,7.4,5.371C7.714,4.1.179-1.359.4.317A47.872,47.872,0,0,1,0,10.759,6.744,6.744,0,0,0,3.227,11.95" transform="translate(4.899 16.692)" fill="none" stroke="#353552" stroke-linecap="round" stroke-linejoin="round" stroke-miterlimit="10" stroke-width="1"/>
            <path id="Path-38" data-name="Path" d="M.1,11.3C-.58,5.534,2.19.488,6.293.033s7.981,3.853,8.665,9.62S12.871,20.467,8.769,20.922.788,17.07.1,11.3Z" transform="translate(4.152 2.69)" fill="#fff"/>
            <path id="Path-39" data-name="Path" d="M14.986,12.855c-.452,4.328-2.9,7.7-6.217,8.067C4.667,21.377.788,17.069.1,11.3S2.191.488,6.293.033c3.974-.441,7.74,3.589,8.592,9.087" transform="translate(3.322 1.802)" fill="none" stroke="#353552" stroke-linecap="round" stroke-linejoin="round" stroke-miterlimit="10" stroke-width="1"/>
            <path id="Path-40" data-name="Path" d="M18.465,8.115a4.009,4.009,0,0,1-3.424-2.483c-.6,1.672-5.34,7.206-8.294,8.18.244,1.12.455,5.145-2.516,7.255S-.979,9.527.434,7.109,7.851-.016,9.6,0,18.758.049,18.465,8.115Z" transform="translate(0.051 0.897)" fill="#ff9d52"/>
            <path id="Path-41" data-name="Path" d="M5.18,0A13.128,13.128,0,0,1,.9,3.065a8.412,8.412,0,0,1-.9,5.5" transform="translate(5.299 10.858)" fill="none" stroke="#353552" stroke-linecap="round" stroke-linejoin="round" stroke-miterlimit="10" stroke-width="1"/>
            <path id="Path-42" data-name="Path" d="M.008,1.793C-.082.141.581-.075,1.11.018S3.44-.169,3.164,1.463c0,0,1.238.042,1.219.215C4.3,2.4,5.358,4.3,4.6,4.707c-.5.268-2.847-.839-3.036-.794C1.023,4.043.1,3.444.008,1.793Z" transform="translate(3.808 13.003)" fill="#fff"/>
            <path id="Path-43" data-name="Path" d="M5.141,2.483A4.01,4.01,0,0,1,1.717,0,11.4,11.4,0,0,1,0,2.593" transform="translate(12.778 5.743)" fill="none" stroke="#32324d" stroke-linecap="round" stroke-linejoin="round" stroke-miterlimit="10" stroke-width="1"/>
            <path id="Path-44" data-name="Path" d="M1.871,3.743A1.871,1.871,0,1,1,2.7.194" transform="translate(3.754 12.888)" fill="none" stroke="#353552" stroke-linecap="round" stroke-linejoin="round" stroke-miterlimit="10" stroke-width="1"/>
            <path id="Path-45" data-name="Path" d="M0,0A4.918,4.918,0,0,0,1.083,2.76" transform="translate(14.835 14.372)" fill="none" stroke="#353552" stroke-linecap="round" stroke-linejoin="round" stroke-miterlimit="10" stroke-width="1"/>
            <path id="Path-46" data-name="Path" d="M0,.937C0,.421.234,0,.522,0s.521.42.521.937-.233.937-.521.937S0,1.454,0,.937Z" transform="translate(11.862 11.865)" fill="#3d3d57"/>
            <path id="Path-47" data-name="Path" d="M0,0A1.953,1.953,0,0,0,1.77,1.3" transform="translate(11.118 17.866)" fill="none" stroke="#353552" stroke-linecap="round" stroke-linejoin="round" stroke-miterlimit="10" stroke-width="1"/>
        </g>
        <path id="Polygon" d="M13.172,2.828a4,4,0,0,1,5.657,0L29.172,13.172a4,4,0,0,1,0,5.657L18.828,29.172a4,4,0,0,1-5.657,0L2.828,18.828a4,4,0,0,1,0-5.657Z" transform="translate(133 148)" fill="none" stroke="#ced3f3" stroke-miterlimit="10" stroke-width="0.75"/>
    </g>
</svg>
