<?xml version="1.0" encoding="UTF-8"?>
<svg width="197px" height="209px" viewBox="0 0 197 209" version="1.1" xmlns="http://www.w3.org/2000/svg" xmlns:xlink="http://www.w3.org/1999/xlink">
    <title>C16170BC-7C3C-47B4-91F2-0BD190C0F6E0</title>
    <g id="Home" stroke="none" stroke-width="1" fill="none" fill-rule="evenodd">
        <g id="new-create-service" transform="translate(-1176.000000, -236.000000)">
            <g id="Connect" transform="translate(1274.000000, 340.500000) scale(-1, 1) translate(-1274.000000, -340.500000) translate(1176.000000, 236.000000)">
                <path d="M84.6129413,174.540455 C63.4099114,176.217826 60.1216265,204.210538 42.0007749,196.733102 C23.8799232,189.255665 14.2213072,166.068055 11.1632294,137.572958 C8.10247378,109.162739 10.6936461,68.0162218 23.6061253,46.8853894 C36.4596923,25.7505152 58.5035172,37.3594892 78.2657193,32.5786867 C98.0279214,27.7978842 113.166403,1.78400613 132.283406,0.3127699 C151.400409,-1.15846633 165.015449,2.07371777 172.599054,20.5490496 C180.182658,39.0243815 167.621723,69.6205902 164.887662,103.34181 C162.153601,137.063029 159.320583,155.482945 149.51706,168.566438 C139.713537,181.649932 105.818649,172.867126 84.6129413,174.540455 Z" id="Path" fill="#F7F8FB" fill-rule="nonzero"></path>
                <g id="observe" transform="translate(0.000000, 11.000000)">
                    <circle id="Oval" stroke="#C6CBF0" stroke-width="0.74750996" stroke-linecap="round" stroke-linejoin="round" cx="84.5" cy="39.5" r="14.5"></circle>
                    <g id="Group-2" transform="translate(0.000000, 53.000000)">
                        <path d="M50.0866678,7.85380367 C50.2156678,4.74438762 46.0381317,0.419619544 40.1233956,0.419619544 C28.1349954,0.419619544 25.8109314,12.7227797 16.6223473,29.44978 C14.0712432,34.0937801 1.06322699,44.0353803 1.06322699,56.1383325 C1.06322699,68.2412847 10.6525712,71.2113807 19.7018353,71.2113807 C28.7510995,71.2113807 48.4973878,52.8417804 48.4973878,47.6563243 C48.4973878,42.4708682 45.0842197,35.3270201 45.0842197,28.038692 C45.0842197,20.7503639 46.0897317,16.6381878 46.0897317,14.7186678 C46.0897317,12.7991477 50.0257798,13.4861158 50.0866678,7.85380367 Z" id="Path" fill="#FF9D52"></path>
                        <path d="M13.2061602,32.1454245 C8.62511214,37.4402726 0,45.8627688 0,55.7187129 C0,67.8220091 9.58934416,70.7917612 18.6386083,70.7917612 C27.6878725,70.7917612 47.4341608,52.4221609 47.4341608,47.2367048 C47.4341608,42.0512487 44.0199607,34.9080886 44.0199607,27.6201045 C44.0199607,20.3321203 45.0254727,16.2192563 45.0254727,14.3000802 C45.0254727,12.3809042 48.9628968,13.0671842 49.0234408,7.43487212 C49.1524408,4.32545607 44.9755927,1.56319402e-13 39.0601686,1.56319402e-13 C29.7274485,1.56319402e-13 26.2516724,7.45585612 20.8350483,18.6509923" id="Path" stroke="#353552" stroke-linecap="round" stroke-linejoin="round"></path>
                    </g>
                    <path d="M143.041,122.42 C144.619,122.651 148.87,123.341 148.87,123.341 L155.695,126.383 L164.77,109.883 L153.37,116.606 L147.724,113.411" id="Path" fill="#FFFFFF" fill-rule="nonzero"></path>
                    <rect id="Rectangle" fill="#D8DFFF" fill-rule="nonzero" x="99.742" y="124.184" width="95" height="3"></rect>
                    <g id="Group-3" transform="translate(125.500000, 33.500000) scale(-1, 1) translate(-125.500000, -33.500000) translate(92.000000, 0.000000)">
                        <rect id="Rectangle" fill="#CED3F3" fill-rule="nonzero" x="0" y="0" width="67" height="67"></rect>
                        <rect id="Rectangle" fill="#FFFFFF" fill-rule="nonzero" x="7.157" y="14.812" width="34" height="9" rx="4.5"></rect>
                        <circle id="Oval" fill="#FFFFFF" fill-rule="nonzero" cx="54.5" cy="19.309" r="4.5"></circle>
                        <line x1="7.157" y1="34.373" x2="54.157" y2="34.373" id="Path" stroke="#FFFFFF" stroke-width="0.6" stroke-linecap="round" stroke-linejoin="round"></line>
                        <line x1="7.157" y1="43.577" x2="54.157" y2="43.577" id="Path" stroke="#FFFFFF" stroke-width="0.6" stroke-linecap="round" stroke-linejoin="round"></line>
                        <line x1="7.157" y1="52.681" x2="39.569" y2="52.681" id="Path" stroke="#FFFFFF" stroke-width="0.6" stroke-linecap="round" stroke-linejoin="round"></line>
                    </g>
                    <rect id="Rectangle" stroke="#CED3F3" stroke-width="0.6" stroke-linecap="round" stroke-linejoin="round" transform="translate(112.850754, 166.746551) rotate(-90.000000) translate(-112.850754, -166.746551) " x="109.322754" y="159.789551" width="7.056" height="13.914" rx="3.528"></rect>
                    <path d="M43.171,141.449 C43.354,143.492 46.771,159.965 57.604,159.965 C73.708,159.965 99.931,139.637 108.673,132.809 C114.259,131.672 156.373,119.609 156.373,119.609 C155.596,117.281 153.94,112.988 153.94,112.988 C153.94,112.988 115.333,115.433 108.49,116.573 C101.647,117.713 69.592,127.673 68.038,128.12 C66.484,128.567 43.171,141.449 43.171,141.449 Z" id="Path" fill="#5567D5" fill-rule="nonzero"></path>
                    <path d="M68.434,130.124 C69.58,126.086 86.11,99.764 93.313,99.764 C100.516,99.764 146.113,112.997 146.113,112.997 C145.129,115.121 141.748,122.975 141.748,122.975 L68.434,130.124 Z" id="Path" fill="#5567D5" fill-rule="nonzero"></path>
                    <path d="M63.742,96.8 C65.029,98.42 67.123,102.182 67.6,103.325 C70.075,102.323 92.8,94.025 94.741,93.611 C96.682,93.197 104.74,91.562 105.598,97.511 C104.122,98.75 100.741,97.652 98.218,98.201 C95.695,98.75 68.5,114.521 66.592,114.944 C64.684,115.367 53.791,111.944 53.791,111.944 C53.791,111.944 58.9,97.604 63.742,96.8 Z" id="Path" fill="#FFFFFF" fill-rule="nonzero"></path>
                    <path d="M51.304,80.735 C57.031,80.735 64.447,91.052 65.821,95.093 C65.035,96.74 62.014,99.527 61.111,99.761 C60.208,99.995 44.713,80.735 51.304,80.735 Z" id="Path" fill="#A6B3FF" fill-rule="nonzero"></path>
                    <path d="M52,82.4 C62.2,89.765 65.71,111.38 69.4,127.757 C66.301,131.234 47.287,143.357 43.132,142.424 C33.883,119.924 22.579,79.8167902 44.059,79.8167902 C46.915004,79.8009429 49.6999667,80.7068185 52,82.4" id="Path" fill="#A6B3FF" fill-rule="nonzero"></path>
                    <path d="M29.257,109.487 C29.11,111.656 26.992,142.724 27.784,153.632 C28.156,158.765 29.782,162.431 29.815,164.186 C29.941,170.426 34.873,173.594 36.775,173.594 C38.677,173.594 38.896,172.943 38.896,172.181 C38.896,171.419 34.927,163.154 34.927,160.1 C34.927,157.046 40,112.742 40.582,110.132 C41.164,107.522 29.257,109.487 29.257,109.487 Z" id="Path" fill="#FFFFFF" fill-rule="nonzero"></path>
                    <path d="M37.762,85.4 C44.629,85.757 43.729,110.132 41.509,111.029 C39.289,111.926 28.66,110.819 27.55,109.286 C26.44,107.753 28.324,84.92 37.762,85.4 Z" id="Path" fill="#A6B3FF" fill-rule="nonzero"></path>
                    <path d="M35.779,72.47 C36.553,74.81 37.498,80.459 37.477,82.178 C38.701,82.778 42.244,82.994 43.642,81.941 C43.084,80.417 42.526,76.787 42.568,74.426 C42.61,72.065 35.779,72.47 35.779,72.47 Z" id="Path" fill="#FFFFFF" fill-rule="nonzero"></path>
                    <circle id="Oval" fill="#FFFFFF" fill-rule="nonzero" cx="35.665" cy="69.269" r="2.067"></circle>
                    <polyline id="Path" fill="#FFFFFF" fill-rule="nonzero" points="158.104 118.865 162.859 117.101 168.397 116.567 162.37 99.014 160.231 110.195 155.53 112.211"></polyline>
                    <g id="Group-4" transform="translate(26.065472, 70.519000)" stroke="#32324D" stroke-linecap="round" stroke-linejoin="round">
                        <path d="M89.6185279,33.181 C103.796528,36.898 118.859528,41.281 118.859528,41.281 M43.3345279,55.165 C44.1396222,52.3282018 50.3713689,41.7333104 57.7938226,33.7532882 M68.9358358,28.3586586 C71.3487322,28.751477 74.7356724,29.4873771 78.6205279,30.418" id="Shape"></path>
                        <path d="M115.775528,50.701 C117.353528,50.932 121.604528,51.622 121.604528,51.622 L128.429528,54.664 L132.742674,46.821916" id="Path"></path>
                        <path d="M86.3755279,44.26 C84.0775279,44.482 82.2715279,44.689 81.2185279,44.86 C74.3785279,46 42.3205279,55.96 40.7665279,56.407 C39.2125279,56.854 15.9055279,69.727 15.9055279,69.727 C16.0885279,71.77 19.5055279,88.243 30.3385279,88.243 C38.0485279,88.243 48.0775279,83.584 57.3985279,77.977" id="Path"></path>
                        <path d="M68.1385279,70.981 C73.7935279,67.03 78.5395279,63.337 81.4075279,61.099 C86.9935279,59.962 129.107528,47.899 129.107528,47.899 C128.330528,45.571 126.674528,41.278 126.674528,41.278 C126.674528,41.278 113.474528,42.115 101.150528,43.036" id="Path"></path>
                        <path d="M37.8025279,21.655 C38.092796,22.2099847 38.3443944,22.7843508 38.5555279,23.374 C37.7695279,25.021 34.7485279,27.808 33.8455279,28.042 M24.0385279,9.016 C27.7495279,9.016 32.1715279,13.348 35.1955279,17.497" id="Shape"></path>
                        <path d="M66.5665279,28.552 C58.1305279,32.971 40.8265279,42.892 39.3265279,43.225 M34.3057484,26.2547255 C35.0230338,25.6239957 35.7525539,25.2018862 36.4765279,25.081 C37.7635279,26.701 39.8575279,30.463 40.3345279,31.606 C40.9345279,31.36 42.7585279,30.679 45.1855279,29.785" id="Shape"></path>
                        <path d="M53.7985279,26.638 C60.1345279,24.349 66.4855279,22.102 67.4755279,21.886 C69.4285279,21.457 77.4745279,19.837 78.3325279,25.786 C76.8565279,27.025 73.4755279,25.927 70.9525279,26.476" id="Path"></path>
                        <path d="M14.8615279,68.215 C13.5507985,64.8996255 12.2247625,61.2795757 10.9788965,57.5132282 M5.19319343,18.0834644 C5.97311966,14.6388862 7.44138531,11.8881784 9.79193458,10.1530579 M15.7003281,8.13402897 C16.0539551,8.11011061 16.4172942,8.098 16.7905279,8.098 C21.1945279,8.098 24.7285279,10.063 27.6295279,13.327" id="Shape"></path>
                        <path d="M32.4385279,20.926 C37.1125279,30.826 39.5785279,44.689 42.1315279,56.026" id="Path"></path>
                        <path d="M7.69752793,87.646 C8.15052793,81.067 12.3532122,42.1203564 12.9202122,39.6393564 M1.20009603,39.6393564 C1.12209603,40.7703564 1.30152793,47.887 0.845527931,57.778" id="Shape"></path>
                        <path d="M0.371527931,71.953 C0.308527931,75.928 0.338527931,79.438 0.518527931,81.913 C0.890527931,87.046 2.51652793,90.712 2.54952793,92.467 C2.67552793,98.707 7.60752793,101.875 9.50952793,101.875 C11.4115279,101.875 11.6305279,101.224 11.6305279,100.462 C11.6305279,100.108 10.7665279,98.119 9.84552793,95.791" id="Path"></path>
                        <path d="M16.0675279,9.181 C15.7617048,7.87349031 15.5468929,6.54737558 15.42422,5.21219113 M8.51352793,0.757 C9.28752793,3.097 10.2325279,8.746 10.2115279,10.465" id="Shape"></path>
                        <path d="M12.7945279,39.586 C9.12852793,39.886 1.23252793,38.881 0.284527931,37.573 C-0.246472069,36.838 -0.093472069,31.216 1.25052793,25.612" id="Path"></path>
                        <polyline id="Path" points="133.367528 36.679 132.965528 38.776 128.264528 40.792"></polyline>
                        <polyline id="Path" points="139.004528 38.956 135.104528 27.595 133.856528 34.114"></polyline>
                        <polyline id="Path" points="130.838528 47.446 135.593528 45.682 141.131528 45.148"></polyline>
                        <line x1="31.9765279" y1="111.727" x2="31.9765279" y2="115.267" id="Path"></line>
                        <line x1="31.9765279" y1="88.246" x2="31.9765279" y2="108.166" id="Path"></line>
                        <line x1="126.113528" y1="39.913" x2="130.163528" y2="50.383" id="Path"></line>
                        <path d="M4.36452793,17.596 C5.90652793,15.16 7.91952793,13.555 10.4965279,13.696 C16.0765279,13.996 16.5295279,30.13 15.2965279,36.658" id="Path"></path>
                        <line x1="4.49352793" y1="88.246" x2="59.4595279" y2="88.246" id="Path"></line>
                        <line x1="94.0978762" y1="56.981" x2="168.25518" y2="56.981" id="Path-Copy"></line>
                        <line x1="31.9765279" y1="121.35" x2="31.9765279" y2="126.36" id="Path"></line>
                        <line x1="23.0395279" y1="126.36" x2="40.9135279" y2="126.36" id="Path"></line>
                    </g>
                </g>
                <g id="Group" transform="translate(39.000000, 78.000000) rotate(-10.000000) translate(-39.000000, -78.000000) translate(29.000000, 63.000000)">
                    <path d="M5.9854966,17.9065923 C6.2090966,19.5835924 6.1416726,26.1347285 5.58267259,28.3483685 C6.41033661,29.2204085 10.3456967,30.2059685 12.6260727,29.3545685 C12.4919127,27.9011685 12.6711367,24.2341284 12.9841767,22.9596084 C13.2972167,21.6850884 5.76189659,16.2295923 5.9854966,17.9065923 Z" id="Path" fill="#FFFFFF"></path>
                    <path d="M11.9422007,28.4570725 C11.8080407,27.0036725 11.9872647,23.3369764 12.2999607,22.0624564 C12.6126567,20.7879364 5.07836858,15.3324403 5.30196859,17.0090963 C5.52556859,18.6857523 5.45814459,25.2375765 4.89914458,27.4508725 C5.33774459,27.9132085 6.64976061,28.4068485 8.12586463,28.6421445" id="Path" stroke="#353552" stroke-linecap="round" stroke-linejoin="round"></path>
                    <path d="M4.25552057,13.9922163 C3.57164856,8.22402417 6.3422246,3.17892009 10.4444247,2.72346408 C14.5466247,2.26800807 18.4252248,6.57626414 19.1094408,12.3437682 C19.7936568,18.1112723 17.0227368,23.1570644 12.9208807,23.6121764 C8.81902465,24.0672884 4.93939258,19.7604084 4.25552057,13.9922163 Z" id="Path" fill="#FFFFFF"></path>
                    <path d="M18.3082648,14.6561363 C17.8562488,18.9840003 15.4086888,22.3552004 12.0911527,22.7232804 C7.98929663,23.1787364 4.11035257,18.8704803 3.42579256,13.1033203 C2.74123254,7.33616016 5.51284059,2.29002407 9.61469666,1.83456806 C13.5885847,1.39356006 17.3546968,5.42352012 18.2067848,10.9213282" id="Path" stroke="#353552" stroke-linecap="round" stroke-linejoin="round"></path>
                    <path d="M18.5163848,9.01212818 C17.7210568,9.01212818 15.6436408,8.29798417 15.0922088,6.52879214 C14.4912407,8.20063217 9.75229666,13.7352483 6.79836861,14.7087683 C7.04192062,15.8288323 7.25313662,19.8539764 4.28269657,21.9637284 C1.31225652,24.0734804 -0.927527516,10.4242482 0.484936507,8.00592817 C1.89740053,5.58760813 7.90226463,0.880656048 9.65460066,0.896782504 C11.4069367,0.912992048 18.8087848,0.945672049 18.5163848,9.01212818 Z" id="Path" fill="#FF9D52"></path>
                    <path d="M10.4791687,10.8580322 C9.03436865,12.2722162 7.45644062,13.5095843 6.2011846,13.9234163 C6.38694461,14.7789443 6.55412861,17.3290163 5.29887259,19.4274164" id="Path" stroke="#353552" stroke-linecap="round" stroke-linejoin="round"></path>
                    <path d="M3.8161905,14.7962513 C3.72537929,13.1446362 4.38908843,12.9285313 4.91736303,13.0216804 C5.44563764,13.1148295 7.24755543,12.8341982 6.97164403,14.4660191 C6.97164403,14.4660191 8.20970533,14.5080134 8.19063214,14.6809596 C8.11096629,15.4033302 9.1654617,17.3051311 8.41234467,17.7103064 C7.91477612,17.9779972 5.56529864,16.8710533 5.37590715,16.9163642 C4.83122263,17.0466771 3.9070017,16.4478663 3.8161905,14.7962513 Z" id="Path" fill="#FFFFFF"></path>
                    <path d="M17.9192008,8.22643217 C17.1238728,8.22643217 15.0464567,7.51228816 14.4946807,5.74344013 C14.2975687,6.29143214 13.6560087,7.25497615 12.7781207,8.33685617" id="Path" stroke="#32324D" stroke-linecap="round" stroke-linejoin="round"></path>
                    <path d="M5.62464059,16.6303523 C4.85256202,16.6300854 4.15990333,16.1556823 3.88063545,15.4358804 C3.60136757,14.7160784 3.7928257,13.8986568 4.36269677,13.3777419 C4.93256785,12.856827 5.76385425,12.7393654 6.45574461,13.0819923" id="Path" stroke="#353552" stroke-linecap="round" stroke-linejoin="round"></path>
                    <path d="M14.8352407,14.3719923 C14.8352407,15.2904723 15.4045608,16.5735923 15.9178088,17.1322483" id="Path" stroke="#353552" stroke-linecap="round" stroke-linejoin="round"></path>
                    <path d="M11.8623927,12.8016322 C11.8623927,12.2856322 12.0959687,11.8645762 12.3838967,11.8645762 C12.6718247,11.8645762 12.9047127,12.2842562 12.9047127,12.8016322 C12.9047127,13.3190083 12.6718247,13.7383443 12.3838967,13.7383443 C12.0959687,13.7383443 11.8623927,13.3190083 11.8623927,12.8016322 Z" id="Path" fill="#3D3D57"></path>
                    <path d="M11.1179767,17.8663443 C11.4468407,18.6874723 12.0849607,19.1071524 12.8882007,19.1621924" id="Path" stroke="#353552" stroke-linecap="round" stroke-linejoin="round"></path>
                </g>
                <path d="M25.8284271,13.8284271 L36.1715729,24.1715729 C37.73367,25.73367 37.73367,28.26633 36.1715729,29.8284271 L25.8284271,40.1715729 C24.26633,41.73367 21.73367,41.73367 20.1715729,40.1715729 L9.82842712,29.8284271 C8.26632996,28.26633 8.26632996,25.73367 9.82842712,24.1715729 L20.1715729,13.8284271 C21.73367,12.26633 24.26633,12.26633 25.8284271,13.8284271 Z" id="Polygon" stroke="#CED3F3" stroke-width="0.75"></path>
            </g>
        </g>
    </g>
</svg>
