<?xml version="1.0" encoding="UTF-8"?>
<svg width="16px" height="16px" viewBox="0 0 16 16" version="1.1" xmlns="http://www.w3.org/2000/svg" xmlns:xlink="http://www.w3.org/1999/xlink">
    <title>B68A920B-3BBE-47C3-BE87-CAF9E41F119F</title>
    <g id="Manage" stroke="none" stroke-width="1" fill="none" fill-rule="evenodd">
        <g id="manage-overview" transform="translate(-1160.000000, -192.000000)" fill="#5567D5" fill-rule="nonzero">
            <g id="Icon/Analytics/Overview-Copy-2" transform="translate(1160.000000, 192.250000)">
                <path d="M3.87979412,0 C5.95086193,0 7.62979412,1.67893219 7.62979412,3.75 C7.62979412,4.86965427 7.13909825,5.87470038 6.36102588,6.56181896 C7.71695002,7.21073582 8.7792649,8.37692578 9.29249898,9.80497019 C9.32923243,9.76292482 9.37396388,9.7252987 9.42387352,9.69260879 L9.53214039,9.62564227 C8.89703147,9.03246252 8.5,8.1875971 8.5,7.25 C8.5,5.45507456 9.95507456,4 11.75,4 C13.5449254,4 15,5.45507456 15,7.25 C15,8.18711355 14.6033779,9.03159106 13.9688421,9.6247243 C15.1871056,10.3715206 16,11.7158295 16,13.25 L16,14.6246271 L16,14.6246271 C16,15.0388407 15.6642136,15.3746271 15.25,15.3746271 C14.8357864,15.3746271 14.5,15.0388407 14.5,14.6246271 L14.5,13.25 L14.5,13.25 C14.5,11.7312169 13.2687831,10.5 11.75,10.5 C11.2070777,10.5 10.6893528,10.6568554 10.2457455,10.9474101 C10.0365606,11.0844224 9.86620152,11.1669788 9.6215043,11.4554791 C9.62731892,11.5536394 9.62979412,11.6515306 9.62979412,11.75 L9.62979412,13.7167149 L9.62979412,13.7167149 C9.62979412,14.1309284 9.29400768,14.4667149 8.87979412,14.4667149 C8.46555809,14.4667149 8.12975344,14.1309102 8.12979412,13.7166742 L8.12979412,11.75 L8.12979412,11.75 C8.12979412,9.40882205 6.23677192,7.50978312 3.89788199,7.50003768 L3.87979412,7.5 C3.87408684,7.5 3.86838255,7.49998725 3.86268126,7.49996178 L3.87979412,7.5 C2.89788707,7.5 1.96895702,7.83307186 1.21984095,8.43508452 C0.896967116,8.69455583 0.424883098,8.64315794 0.165411783,8.3202841 C-0.0940595332,7.99741027 -0.0426616384,7.52532625 0.280212194,7.26585494 C0.626815773,6.98731367 1.00227031,6.75120266 1.39939266,6.56109003 C0.620592201,5.87490974 0.129794115,4.86977089 0.129794115,3.75 C0.129794115,1.67893219 1.8087263,0 3.87979412,0 Z M11.75,5.5 C10.7835017,5.5 10,6.28350169 10,7.25 C10,8.21649831 10.7835017,9 11.75,9 C12.7164983,9 13.5,8.21649831 13.5,7.25 C13.5,6.28350169 12.7164983,5.5 11.75,5.5 Z M3.89591902,5.99994343 C5.13113765,5.99127387 6.12979412,4.98726129 6.12979412,3.75 C6.12979412,2.50735931 5.1224348,1.5 3.87979412,1.5 C2.63715343,1.5 1.62979412,2.50735931 1.62979412,3.75 C1.62979412,4.99264069 2.63715343,6 3.87979412,6 L3.86372346,6.00002209 L3.86372346,6.00002209 Z" id="Combined-Shape"></path>
            </g>
        </g>
    </g>
</svg>
