<?xml version="1.0" encoding="UTF-8"?>
<svg width="16px" height="14px" viewBox="0 0 16 14" version="1.1" xmlns="http://www.w3.org/2000/svg" xmlns:xlink="http://www.w3.org/1999/xlink">
    <title>convert-white-icon</title>
    <g id="Portal" stroke="none" stroke-width="1" fill="none" fill-rule="evenodd">
        <g id="Portal-API" transform="translate(-744.000000, -177.000000)" fill="#ffffff" fill-rule="nonzero">
            <g id="Button/Pill/32-with-icon/Default-Copy-2" transform="translate(736.000000, 168.000000)">
                <g id="Icon/Clear" transform="translate(8.000000, 9.000000)">
                    <path d="M11.5935534,7.14644661 C11.7888155,6.95118446 12.105398,6.95118446 12.3006602,7.14644661 L12.3006602,7.14644661 L15.2563259,10.099378 C15.2947827,10.1281473 15.3289595,10.162324 15.3577288,10.2007809 L15.6542136,10.5 L15.3599125,10.7962777 C15.3299701,10.8369179 15.2940247,10.8728633 15.2533844,10.9028058 L12.3006602,13.8535534 L12.2314123,13.9114088 C12.0365441,14.0464049 11.7671197,14.0271197 11.5935534,13.8535534 L11.5935534,13.8535534 L11.5356979,13.7843055 C11.4007019,13.5894374 11.419987,13.320013 11.5935534,13.1464466 L11.5935534,13.1464466 L13.739,11 L4.95710678,11 C4.68096441,11 4.45710678,10.7761424 4.45710678,10.5 C4.45710678,10.2545401 4.63398194,10.0503916 4.86723115,10.0080557 L4.95710678,10 L13.741,10 L11.5935534,7.85355339 L11.5356979,7.7843055 C11.4007019,7.58943736 11.419987,7.32001296 11.5935534,7.14644661 Z M4.31066017,0.146446609 C4.48422652,0.320012961 4.50351167,0.589437362 4.36851562,0.784305503 L4.31066017,0.853553391 L2.164,3 L10.9571068,3 C11.2332492,3 11.4571068,3.22385763 11.4571068,3.5 C11.4571068,3.74545989 11.2802316,3.94960837 11.0469824,3.99194433 L10.9571068,4 L2.164,4 L4.31066017,6.14644661 C4.48422652,6.32001296 4.50351167,6.58943736 4.36851562,6.7843055 L4.31066017,6.85355339 C4.13709382,7.02711974 3.86766942,7.04640489 3.67280128,6.91140884 L3.60355339,6.85355339 L0.25,3.5 L3.60355339,0.146446609 C3.79881554,-0.0488155365 4.11539803,-0.0488155365 4.31066017,0.146446609 Z" id="Combined-Shape"></path>
                </g>
            </g>
        </g>
    </g>
</svg>
