<?xml version="1.0" encoding="UTF-8"?>
<svg width="14px" height="14px" viewBox="0 0 14 14" version="1.1" xmlns="http://www.w3.org/2000/svg" xmlns:xlink="http://www.w3.org/1999/xlink">
    <title>381FC473-5AE5-4956-948F-29D9E420E853</title>
    <defs>
        <path d="M7.5,3 C8.88071187,3 10,4.11928813 10,5.5 L10,5.5 L10,10.5 C10,11.8807119 8.88071187,13 7.5,13 L7.5,13 L2.5,13 C1.11928813,13 0,11.8807119 0,10.5 L0,10.5 L0,5.5 C0,4.11928813 1.11928813,3 2.5,3 L2.5,3 Z M7.5,4 L2.5,4 C1.67157288,4 1,4.67157288 1,5.5 L1,5.5 L1,10.5 C1,11.3284271 1.67157288,12 2.5,12 L2.5,12 L7.5,12 C8.32842712,12 9,11.3284271 9,10.5 L9,10.5 L9,5.5 C9,4.67157288 8.32842712,4 7.5,4 L7.5,4 Z M10.5,0 C11.8254834,0 12.9100387,1.03153594 12.9946823,2.33562431 L13,2.5 L13,8.5 C13,9.8254834 11.9684641,10.9100387 10.6643757,10.9946823 L10.5,11 L10.5,10 C11.2796961,10 11.9204487,9.40511192 11.9931334,8.64446001 L12,8.5 L12,2.5 C12,1.72030388 11.4051119,1.07955132 10.64446,1.00686658 L10.5,1 L5.5,1 C4.72030388,1 4.07955132,1.59488808 4.00686658,2.35553999 L4,2.5 L3,2.5 C3,1.1745166 4.03153594,0.089961328 5.33562431,0.00531767968 L5.5,0 L10.5,0 Z" id="path-1"></path>
    </defs>
    <g id="Project" stroke="none" stroke-width="1" fill="none" fill-rule="evenodd">
        <g id="Overview" transform="translate(-647.000000, -669.000000)">
            <g id="Icon/12/Plus" transform="translate(647.500000, 669.500000)">
                <mask id="mask-2" fill="white">
                    <use xlink:href="#path-1"></use>
                </mask>
                <use id="Combined-Shape" fill="#979797" fill-rule="nonzero" xlink:href="#path-1"></use>
                <rect id="Color" fill="#8D91A3" fill-rule="nonzero" mask="url(#mask-2)" x="-1.5" y="-1.5" width="16" height="16"></rect>
            </g>
        </g>
    </g>
</svg>