<svg id="Icon_Duplicat" data-name="Icon/Duplicat" xmlns="http://www.w3.org/2000/svg" width="16" height="16" viewBox="0 0 16 16">
  <path id="Combined_Shape" data-name="Combined Shape" d="M2.5,16A2.5,2.5,0,0,1,0,13.5v-8A2.5,2.5,0,0,1,2.5,3H3V2.5A2.5,2.5,0,0,1,5.335.005L5.5,0h8a2.5,2.5,0,0,1,2.495,2.336L16,2.5v8A2.5,2.5,0,0,1,13.665,13L13.5,13H13v.5A2.5,2.5,0,0,1,10.5,16ZM1,5.5v8A1.5,1.5,0,0,0,2.5,15h8A1.5,1.5,0,0,0,12,13.5v-8A1.5,1.5,0,0,0,10.5,4h-8A1.5,1.5,0,0,0,1,5.5ZM4.007,2.355,4,2.5V3h6.5A2.5,2.5,0,0,1,13,5.5V12h.5a1.5,1.5,0,0,0,1.493-1.355L15,10.5v-8a1.5,1.5,0,0,0-1.355-1.493L13.5,1h-8A1.5,1.5,0,0,0,4.007,2.355ZM6,12.5V10H3.5a.5.5,0,0,1,0-1H6V6.5a.5.5,0,1,1,1,0V9H9.5a.5.5,0,0,1,0,1H7v2.5a.5.5,0,1,1-1,0Z" fill="#8d91a3"/>
</svg>
