<svg xmlns="http://www.w3.org/2000/svg" width="200" height="200" viewBox="0 0 200 200">
    <g fill="none" fill-rule="evenodd">
        <path fill="#F7F8FB" fill-rule="nonzero" d="M199.815 93.035c2.2 20.66-15.548 43.44-35.653 56.22-20.104 12.778-42.572 15.548-69.595 20.062-26.968 4.565-58.44 10.926-76.657-1.85-18.217-12.775-23.217-44.693-11.85-65.075C17.424 82.011 32.346 73.13 50.576 55.24c18.23-17.833 21.638-43.498 53.212-49.416 13.459-4.838 31.689 12.452 51.793 30.284 20.096 17.836 42.09 36.322 44.233 56.927z"/>
        <path fill="#FFF" fill-rule="nonzero" d="M194.428 94.96c0 10.604-8.596 19.2-19.2 19.2s-19.2-8.596-19.2-19.2 8.596-19.2 19.2-19.2 19.2 8.596 19.2 19.2"/>
        <path stroke="#CED3F3" stroke-linecap="round" stroke-linejoin="round" stroke-width=".81" d="M158.181 59.301H199.32100000000003V100.441H158.181z"/>
        <path stroke="#1D2028" stroke-linecap="round" stroke-linejoin="round" stroke-width=".996" d="M97.727 198.818L167.409 198.818"/>
        <path fill="#FF9D52" fill-rule="nonzero" d="M115.887 60.038l-.418 2.014-2.808.875s-1.39-4.336-1.582-5.316c-1.35 1.007-9.132 3.189-10.474 3.383-.186-1.045-.186-10.1 7.363-10.1 6.65 0 9.631 6.66 9.807 7.44-.39.227-1.89.784-1.89 1.704"/>
        <path fill="#A6B3FF" fill-rule="nonzero" d="M117.753 77.472c-1.687 0-13.935 12.358-14.437 14.945l-3.944 20.409 20.43-5.716 1.2-25.996-2.911-3.65-.338.008z"/>
        <path fill="#FFF" fill-rule="nonzero" d="M92.516 113.355c-.035-1.423 11.694-38.45 13.017-39.709.878-.887 2.093-1.358 3.34-1.296.583.027 3.386 1.35 3.977 2.746-1.01 2.392-3.443 3.72-3.443 3.72l-4.733 29.247-12.158 5.292z"/>
        <path fill="#5567D5" fill-rule="nonzero" d="M110.658 118.636c1.976 2.141 24.926 7.082 28.252 6.656 0 1.666-2.646 13.314-21.416 13.314-.924 0-4.686-.131-8.44-.27l14.707 18.206-8.222 8.264-8.122-7.1c1.688 4.079 3.104 7.303 3.427 7.848l-8.5 7.563c-2.284-2.076-29.081-35.456-29.081-39.587 0-9.21 10.449-12.474 13.3-13.193 3.928-.356 21.354-1.814 24.095-1.7z"/>
        <path fill="#A6B3FF" fill-rule="nonzero" d="M126.628 71.435c15.193 0 18.482 27.408 18.482 35.186 0 9.917-4.023 17.842-5.94 18.584-5.43 2.088-25.362-4.749-26.625-7.986-6.162-15.768 3.98-45.784 14.094-45.784"/>
        <path fill="#A6B3FF" fill-rule="nonzero" d="M131.952 78.066c7.234 2.517 3.55 18.01 1.515 18.533-2.036.524-14.31-4.334-14.693-5.64-.384-1.307 4.73-15.836 13.178-12.893"/>
        <path fill="#FFF" fill-rule="nonzero" d="M119.619 91.72c-.589.864-3.848 11.402-3.848 11.402s-23.023 9.928-24.17 10.441c-.419-.572-1.796-1.62-4.59-1.62-5.117 0-6.002 3.394-6.002 4.123 0 .729 7.779 2.349 9.866 2.298 2.087-.052 31.271-4.49 32.313-5.012 1.042-.52 8.027-17.01 8.027-17.01-1.89-.1-10.603-2.797-11.59-4.62"/>
        <path fill="#5567D5" fill-rule="nonzero" d="M109.734 137.852H154.292V141.986H109.734z"/>
        <path fill="#8088DC" fill-rule="nonzero" d="M30.503 116.741H98.297V120.143H30.503z"/>
        <path stroke="#5567D5" stroke-linecap="round" stroke-linejoin="round" stroke-width=".996" d="M48.196 115.583L97.139 115.583 97.139 118.99 29.344 118.99 29.344 115.588 39.777 115.588"/>
        <path fill="#5567D5" fill-rule="nonzero" d="M61.779 113.879H85.655V116.741H61.779z"/>
        <path stroke="#32324D" stroke-linecap="round" stroke-linejoin="round" stroke-width=".996" d="M60.621 112.721H84.497V115.583H60.621z"/>
        <path fill="#FFF" fill-rule="nonzero" d="M103.319 176.184L111.149 184.746 106.867 196.626 120.002 186.412 112.388 170.706M124.773 159.034L129.134 166.437 132.144 168.003 126.415 181.309 125.108 172.939 117.548 166.046"/>
        <path stroke="#1B3C87" stroke-linecap="round" stroke-linejoin="round" stroke-width=".848" d="M103.87 66.124c-.033.17-.085.336-.157.494"/>
        <path fill="#5567D5" fill-rule="nonzero" d="M3.4 53.92H73.60000000000001V74.44H3.4z" opacity=".291"/>
        <path fill="#F4F5FC" fill-rule="nonzero" d="M69.28 64.717c.001 2.621-1.577 4.985-3.998 5.989-2.421 1.004-5.21.45-7.063-1.403-1.854-1.853-2.409-4.64-1.406-7.062 1.003-2.422 3.366-4.001 5.987-4.001 3.578 0 6.478 2.9 6.48 6.477"/>
        <path stroke="#EAF0FF" stroke-linecap="round" stroke-linejoin="round" stroke-width=".996" d="M50.577 61.564L15.223 61.564M50.577 68.829L31.845 68.829"/>
        <path fill="#F4F5FC" fill-rule="nonzero" d="M12.04.845H36.381V11.011000000000001H12.04zM.714 13.411H25.055V23.576999999999998H.714z"/>
        <g>
            <path stroke="#32324D" stroke-linecap="round" stroke-linejoin="round" stroke-width=".996" d="M71.213 2.747c1.26 1.133 2.302 2.488 3.072 3.998.133.26.258.519.373.778M58.647 14.794C55.809 9.281 57.01 3.011 61.33.789c1.404-.71 3-.95 4.552-.683M73.645 19.163c-.578.65-1.271 1.188-2.044 1.587-2.948 1.518-6.588.756-9.501-1.633" transform="translate(42.445 49.926)"/>
            <path stroke="#32324D" stroke-linecap="round" stroke-linejoin="round" stroke-width=".996" d="M72.479 9.146c.48-1.211 1.787-1.876 3.049-1.553 1.262.323 2.087 1.534 1.927 2.827-.16 1.293-1.257 2.266-2.56 2.27-.39-.002-.776-.094-1.126-.27M74.666 28.073c-.38-1.364-1.75-5.565-3.459-7.137M76.03 13.339c.526 1.77 5.286 8.156 6.458 9.042-.07.77-1.585 2.257-3.289 3.51M69.946 11.824L72.06 11.168 72.479 9.151M64.26 8.13c1.571-.523 2.913-1.045 3.41-1.412.138.713.913 3.202 1.323 4.504M57.194 10.101c.519-.075 1.99-.445 3.683-.928M72.668 68.848c-2.133-1.064-3.615-2.098-3.931-2.908-1.89-4.86-2.25-11.083-1.526-17.36M99.209 39.707c1.582 6.345 2.103 12.541 2.103 15.636 0 9.92-4.023 17.844-5.94 18.584-2.546.98-8.275 0-13.77-1.658" transform="translate(42.445 49.926)"/>
            <path stroke="#32324D" stroke-linecap="round" stroke-linejoin="round" stroke-width=".996" d="M80.814 20.545c.644-.252 1.328-.383 2.02-.389 4.003 0 7.181 1.906 9.69 4.86M70.24 35.473c1.036-3.008 2.394-5.896 4.05-8.613M60.793 24.376c.448-1.134.778-1.85.943-2.009.878-.886 2.093-1.358 3.34-1.296.583.027 3.385 1.35 3.977 2.746M52.026 50.515c1.99-6.361 4.517-14.14 6.51-19.913M48.719 61.885c0-.27.397-1.763 1.064-4.029M65.529 23.515c.578.092 1.974.942 2.7 1.793M63.912 25.564c.575.092 1.973.943 2.7 1.793M60.88 56.628c.046-1.296 3.24-23.647 4.652-28.04M67.74 31.296c1.966-2.103 4.347-4.363 6.259-5.278M5.751 42.604L18.171 62.789M95.113 74.013c0 1.666-2.643 13.314-21.416 13.314-1.966 0-16.765-.592-17.04-.592 0 3.465 9.485 26.012 10.39 27.54M42.765 69.064c-2.756 1.031-13.303 3.982-13.303 13.192 0 4.131 26.793 37.511 29.082 39.588M57.208 123.334L69.495 115.504M58.547 125.494L71.218 117.818M63.615 106.413L71.488 113.528M68.234 90.71L79.952 105.266M81.311 104.221L70.956 114.284M82.617 106.162L72.263 116.225M.135 69.064L.135 123.334M80.325 29.072c2.093-2.098 4.739-3.362 7.83-2.285 7.233 2.517 3.55 18.01 1.512 18.533-2.038.524-14.31-4.333-14.693-5.64-.092-.308.121-1.35.615-2.733" transform="translate(42.445 49.926)"/>
            <path stroke="#32324D" stroke-linecap="round" stroke-linejoin="round" stroke-width=".996" d="M62.659 64.906c-7.366 1.126-14.58 2.16-15.587 2.182-2.087.054-9.866-1.566-9.866-2.298s.886-4.123 6.002-4.123c2.8 0 4.177 1.045 4.59 1.62 1.148-.521 24.17-10.44 24.17-10.44s3.26-10.53 3.848-11.403M93.82 90.71L65.934 90.71 65.934 86.576 110.484 86.576 110.484 90.71 102.654 90.71M73.146 128.82L68.585 119.419M59.524 124.905L67.354 133.467 63.075 145.347 76.208 135.133 74.868 132.379M75.705 116.53L73.775 114.767M80.976 107.758L85.336 115.158 88.347 116.727 82.617 130.033 81.311 121.663 79.691 120.183" transform="translate(42.445 49.926)"/>
            <path stroke="#32324D" stroke-linecap="round" stroke-linejoin="round" stroke-width=".848" d="M68.526 15.939c.078.605-.346 1.544-1.164 2.092" transform="translate(42.445 49.926)"/>
            <path stroke="#32324D" stroke-linecap="round" stroke-linejoin="round" stroke-width=".996" d="M87.413 45.061s-6.983 16.494-8.028 17.01c-.297.148-2.87.616-6.447 1.204" transform="translate(42.445 49.926)"/>
            <path fill="#32324D" fill-rule="nonzero" d="M64.422 11.152c.132.459.44.772.689.699.248-.073.345-.5.213-.956-.132-.456-.438-.772-.689-.691-.25.081-.343.5-.213.956" transform="translate(42.445 49.926)"/>
            <path stroke="#32324D" stroke-linecap="round" stroke-linejoin="round" stroke-width=".848" d="M61.139 13.522c.214.596.333 1.222.35 1.855" transform="translate(42.445 49.926)"/>
            <path stroke="#32324D" stroke-linecap="round" stroke-linejoin="round" stroke-width=".996" d="M98.99 90.71L98.99 102.881" transform="translate(42.445 49.926)"/>
        </g>
    </g>
</svg>
