<?xml version="1.0" encoding="utf-8"?>

<!-- 
~    Copyright (c) 2020, WSO2 Inc. (http://www.wso2.com). All Rights Reserved.
~   
~    This software is the property of WSO2 Inc. and its suppliers, if any. 
~    Dissemination of any information or reproduction of any material contained 
~    herein in any form is strictly forbidden, unless permitted by WSO2 expressly. 
~    You may not alter or remove any copyright or other notice from copies of this content."
-->

<svg version="1.1" id="Layer_1" xmlns="http://www.w3.org/2000/svg" xmlns:xlink="http://www.w3.org/1999/xlink" x="0px" y="0px"
	 viewBox="0 0 208.6699829 147.3699951" style="enable-background:new 0 0 208.6699829 147.3699951;" xml:space="preserve">

<path fill="#1DBAB4" d="M170.5199585,71.0799561c-3.3399658,0-6.6199951,0.4200439-9.7999878,1.2700195V72.039978
	c0-25.9000244-21.0599976-46.960022-46.960022-46.960022c-9.3999634,0-18.1599731,2.7800293-25.5099487,7.5499878
	c-0.210022-0.4899902-0.4500122-0.9699707-0.6900024-1.4499512l4.0599976-5.1000366
	C93.0599976,24.2599487,92.9099731,21.6399536,91.2799683,20L81.0799561,9.75
	c-1.6300049-1.6400146-4.2399902-1.8000488-6.0700073-0.3800049l-5.0199585,3.9299927
	c-2.1900024-1.1600342-4.5-2.1300049-6.8800049-2.8800049l-0.7299805-6.3599854C62.1199951,1.75,60.1599731,0,57.8299561,0
	H43.4199829c-2.289978,0-4.25,1.7199707-4.539978,3.9899902l-0.8300171,6.4099731
	c-2.460022,0.7700195-4.8599854,1.7900391-7.1699829,3.0300293l-5.2900391-4.0599976
	C23.75,7.9499512,21.1399536,8.1399536,19.5199585,9.7999878L9.4400024,20.1699829
	c-1.6100464,1.6499634-1.7400513,4.2600098-0.2900391,6.0599976l4.2300415,5.2600098
	c-1.0200195,2.0499878-1.8700562,4.2000122-2.5300293,6.4099731L4.039978,38.7099609
	C1.7399902,38.9899902,0,40.9400024,0,43.2699585l0.0299683,14.460022c0.0100098,2.2999878,1.7399902,4.25,4.0200195,4.539978
	l7.1799927,0.8800049c0.6599731,1.9799805,1.4699707,3.9000244,2.4099731,5.7299805l-4.5299683,5.7600098
	c-1.4299927,1.8200073-1.2800293,4.4299927,0.3699951,6.0700073l2.3800049,2.3699951c-5.0300293,6.710022-8,15.0400391-8,24.0499878
	c0,22.1900024,18.0599976,40.2400513,40.25,40.2400513H172.289978v-0.0400391
	c20.2199707-0.9299927,36.3800049-17.6699829,36.3800049-38.1099854
	C208.6699829,88.1900024,191.5599976,71.0799561,170.5199585,71.0799561z M17.8999634,71.75
	C19,70.3499756,19.1699829,68.4099731,18.3299561,66.8199463c-0.9299927-1.7699585-1.7199707-3.6499634-2.3399658-5.5799561
	c-0.5499878-1.6799927-2.0300293-2.9000244-3.7600098-3.1199951L5.1499634,57.25L5.1199951,43.7299805l6.7199707-0.7999878
	c1.8099976-0.210022,3.3099976-1.5,3.8200073-3.2700195c0.6199951-2.1199951,1.4400024-4.1900024,2.4400024-6.1500244
	c0.8099976-1.6099854,0.6199951-3.539978-0.4899902-4.9199829l-4.1699829-5.2000122l9.4199829-9.6799927l5.210022,4.0100098
	c1.4199829,1.0999756,3.3699951,1.2399902,4.9599609,0.3699951c2.2000122-1.210022,4.5-2.1799927,6.8400269-2.8999634
	c1.7199707-0.5200195,2.9699707-1.9900513,3.2000122-3.7400513l0.8199463-6.3299561h13.460022l0.7200317,6.2699585
	c0.1999512,1.7800293,1.4599609,3.2800293,3.1999512,3.8200073c2.2900391,0.7000122,4.5100098,1.6300049,6.6000366,2.7600098
	c1.5999756,0.8699951,3.5499878,0.710022,4.9699707-0.4000244l4.9500122-3.8699951l9.5200195,9.5700073l-3.9899902,5.0200195
	c-1.1100464,1.4000244-1.2900391,3.3300171-0.460022,4.9299927c0.4299927,0.8200073,0.8200073,1.6599731,1.1699829,2.5
	c0.5200195,1.2000122,0.960022,2.4099731,1.3300171,3.6300049c0.1400146,0.460022,0.3499756,0.8900146,0.6099854,1.2700195
	c0.7299805,1.0700073,1.8900146,1.7999878,3.210022,1.9499512l6.2799683,0.7200317v13.4899902l-6.4299927,0.8300171
	c-1.7600098,0.2299805-3.2299805,1.4799805-3.75,3.1900024c-0.6599731,2.1400146-1.539978,4.25-2.6300049,6.289978
	c-0.8599854,1.6099854-0.6900024,3.5599976,0.4200439,4.9799805l4.2099609,5.3000488l-9.5,9.5899658l-4.6799927-3.6599731
	l-0.8200073-0.6400146c-1.039978-0.8200073-2.3800049-1.1199951-3.6599731-0.8599854
	c-0.4299927,0.0700073-0.8500366,0.2199707-1.25,0.4199829c-2.0499878,1.0700073-4.210022,1.9500122-6.4200439,2.5999756
	c-1.75,0.5200195-3.0199585,2.0100098-3.2399902,3.8000488l-0.8399658,6.8899536l-13.5100098,0.0200195l-0.8500366-7.1699829
	c-0.2099609-1.75-1.4399414-3.2300415-3.1399536-3.7800293c-2.0100098-0.6499634-3.9700317-1.4799805-5.8300171-2.4699707
	c-0.6799927-0.3599854-1.4199829-0.5400391-2.1599731-0.5400391c-1,0-1.9900513,0.3300171-2.8000488,0.9700317l-5.5899658,4.4099731
	l-4.2600098-4.2399902l-3.5499878-3.539978l-1.75-1.7399902L17.8999634,71.75z M170.5199585,142.3699951H44.1099854
	c-19.4299927,0-35.25-15.8099976-35.25-35.2400513c0-7.6299438,2.4400024-14.6999512,6.5800171-20.4799805l4.2799683,4.2600098
	c1.6400146,1.6400146,4.25,1.789978,6.0700073,0.3499756l5.6599731-4.4699707
	c1.9300537,1.0100098,3.9500122,1.8599854,6.0200195,2.5499878l0.8699951,7.2700195
	c0.2700195,2.3099976,2.2300415,4.039978,4.5499878,4.039978l14.4700317-0.0299683c2.2999878,0,4.25-1.7300415,4.5299683-4.0200195
	l0.8500366-6.9700317c2.2999878-0.7099609,4.539978-1.6199951,6.6799927-2.7099609L75,91.289978
	c1.8299561,1.4299927,4.4400024,1.2700195,6.0799561-0.3900146L91.25,80.6299438
	c1.6300049-1.6399536,1.7699585-4.25,0.3399658-6.0599976l-4.2699585-5.3799438
	c1.1199951-2.1300049,2.039978-4.3300171,2.7399902-6.5500488l6.5199585-0.8499756
	C98.8599854,61.5,100.5700073,59.5499878,100.5700073,57.25V42.8099976c0-2.3200073-1.7400513-4.2800293-4.0500488-4.5400391
	l-6.3699951-0.7399902c-0.0100098-0.039978-0.0299683-0.0899658-0.039978-0.1300049
	C96.8499756,32.7799683,105,30.0799561,113.7599487,30.0799561c23.1400146,0,41.960022,18.8200073,41.960022,41.960022
	c0,1.2299805-0.0499878,2.4299927-0.1499634,3.5599976l-0.3500366,3.9500122l3.7200317-1.3900146
	c3.6900024-1.3800049,7.5899658-2.0800171,11.5799561-2.0800171c18.2800293,0,33.1500244,14.8600464,33.1500244,33.1400146
	C203.6699829,127.5,188.7999878,142.3699951,170.5199585,142.3699951z M80.1399536,46.9499512
	c-0.2299805-2.1399536-0.6999512-4.2199707-1.3699951-6.1999512c-4-11.9000244-15.2600098-20.4800415-28.4799805-20.4800415
	c-16.5700073,0-30.0599976,13.4800415-30.0599976,30.0599976c0,7.6600342,2.8900146,14.6700439,7.6400146,19.9899902
	c1.2199707,1.3700562,2.5700073,2.6300049,4.0299683,3.75c5.0800171,3.960022,11.4700317,6.3099976,18.3900146,6.3099976
	c4.5999756,0,8.960022-1.039978,12.8699951-2.8999634c3.2399902-1.539978,6.1600342-3.6500244,8.6400146-6.1900024
	c5.2799683-5.4100342,8.539978-12.8200073,8.539978-20.960022C80.3399658,49.1900024,80.2799683,48.0599976,80.1399536,46.9499512z
	 M66.9799805,67.8599854c-1.3699951,1.3200073-2.9099731,2.4799805-4.5700073,3.4299927
	c-2.0100098,1.1799927-4.2000122,2.0599976-6.5200195,2.6099854c-1.7999878,0.4299927-3.6699829,0.6600342-5.5999756,0.6600342
	c-3.7700195,0-7.3400269-0.8699951-10.5300293-2.4000244c-2.1299438-1.039978-4.0899658-2.3800049-5.8199463-3.9699707
	c-4.8500366-4.4200439-7.8900146-10.7900391-7.8900146-17.8600464c0-13.3699951,10.8800049-24.2399902,24.2399902-24.2399902
	c12.1199951,0,22.1900024,8.9500122,23.960022,20.5900269c0.1799927,1.1900024,0.2699585,2.4099731,0.2699585,3.6499634
	C74.5199585,57.2199707,71.6300049,63.4499512,66.9799805,67.8599854z M65.0430527,41.5924263
	c0,0.1100464-0.0100098,0.2200317-0.0300293,0.3300171c-0.1599731,0.8099976-0.7000122,1.4100342-1.2600098,1.960022
	c-0.6699829,0.6799927-1.3399658,1.3499756-2.0100098,2.0200195c-0.9599609,0.9599609-1.9199829,1.9099731-2.8799438,2.8699951
	c-1.1000366,1.1099854-2.210022,2.2099609-3.3100586,3.3199463c-1.1099854,1.1000366-2.2199707,2.210022-3.3199463,3.3200073
	c-0.9700317,0.960022-1.9400024,1.9299927-2.9000244,2.9000244c-0.6900024,0.6799927-1.3699951,1.3699951-2.0599976,2.0499878
	l-0.7800293,0.7800293c-0.2399902,0.2399902-0.6299438,0.2399902-0.8699951,0l-8.4299927-8.4299927
	c0,0-0.539978-1.0900269-0.539978-1.7200317c0-1.2999878,1.0599976-2.3599854,2.3599854-2.3599854
	c0.7399902,0,1.3699951,0.3599854,1.7999878,0.8900146l5.2399902,5.2399902c0,0,0.3600464-0.3500366,0.3700562-0.3699951
	c0.6099854-0.6100464,1.2199707-1.2200317,1.8299561-1.8300171l2.8300171-2.8300171
	c1.0999756-1.0899658,2.1900024-2.1900024,3.2800293-3.2799683c1.039978-1.0400391,2.0899658-2.0900269,3.1299438-3.1300049
	c0.8099976-0.8099976,1.6200562-1.6099854,2.4200439-2.4199829c0.2600098-0.25,0.5100098-0.5100098,0.7600098-0.7600098
	c0.0799561-0.0800171,0.1599731-0.1600342,0.2399902-0.2399902c0.7099609-0.7000122,2.0899658-0.7200317,2.9199829-0.2800293
	C64.5530014,40.0024605,65.0530014,40.7924385,65.0430527,41.5924263z"/>
</svg>
