<?xml version="1.0" encoding="UTF-8"?>
<svg width="67px" height="32px" viewBox="0 0 67 32" version="1.1" xmlns="http://www.w3.org/2000/svg" xmlns:xlink="http://www.w3.org/1999/xlink">
    <title>E350FA3B-5883-42CF-BA0A-A36B9846DB87</title>
    <g id="Develop" stroke="none" stroke-width="1" fill="none" fill-rule="evenodd">
        <g id="curl-widget" transform="translate(-1365.000000, -664.000000)">
            <g id="Group" transform="translate(73.000000, 567.000000)">
                <g id="Button/Rounded-with-icon/Default" transform="translate(1292.000000, 97.000000)">
                    <path d="M51,0 C59.836556,-1.623249e-15 67,7.163444 67,16 C67,24.836556 59.836556,32 51,32 L16,32 C7.163444,32 1.082166e-15,24.836556 0,16 C-1.082166e-15,7.163444 7.163444,1.623249e-15 16,0 L51,0 Z M51,1 L16,1 C7.71572875,1 1,7.71572875 1,16 C1,24.2842712 7.71572875,31 16,31 L16,31 L51,31 C59.2842712,31 66,24.2842712 66,16 C66,7.71572875 59.2842712,1 51,1 L51,1 Z" id="Combined-Shape" fill="#BDE9D3" fill-rule="nonzero"></path>
                    <g id="Icon/Clear" transform="translate(10.000000, 10.000000)" fill="#36B475" fill-rule="nonzero">
                        <path d="M8.25193551,0.56811055 C8.46395859,0.691790675 8.55117547,0.947436212 8.47021686,1.17024382 L8.43188945,1.25193551 L3.43188945,11.2519355 C3.29274931,11.4904615 2.98659044,11.5710296 2.74806449,11.4318895 C2.53604141,11.3082093 2.44882453,11.0525638 2.52978314,10.8297562 L2.56811055,10.7480645 L7.56811055,0.748064487 C7.70725069,0.50953853 8.01340956,0.428970408 8.25193551,0.56811055 Z M13.2519355,0.56811055 C13.4639586,0.691790675 13.5511755,0.947436212 13.4702169,1.17024382 L13.4318895,1.25193551 L8.43188945,11.2519355 C8.29274931,11.4904615 7.98659044,11.5710296 7.74806449,11.4318895 C7.53604141,11.3082093 7.44882453,11.0525638 7.52978314,10.8297562 L7.56811055,10.7480645 L12.5681105,0.748064487 C12.7072507,0.50953853 13.0134096,0.428970408 13.2519355,0.56811055 Z M0.75,8 C1.16421356,8 1.5,8.33578644 1.5,8.75 C1.5,9.16421356 1.16421356,9.5 0.75,9.5 C0.335786438,9.5 0,9.16421356 0,8.75 C0,8.33578644 0.335786438,8 0.75,8 Z M0.75,2.5 C1.16421356,2.5 1.5,2.83578644 1.5,3.25 C1.5,3.66421356 1.16421356,4 0.75,4 C0.335786438,4 0,3.66421356 0,3.25 C0,2.83578644 0.335786438,2.5 0.75,2.5 Z" id="Combined-Shape"></path>
                    </g>
                    <text id="Clear" font-family="GilmerRegular, Gilmer Regular" font-size="11" font-weight="normal" line-spacing="24" fill="#2FA86C">
                        <tspan x="29" y="12">Curl</tspan>
                    </text>
                </g>
            </g>
        </g>
    </g>
</svg>