<?xml version="1.0" encoding="UTF-8"?>

<!-- 
~    Copyright (c) 2020, WSO2 Inc. (http://www.wso2.com). All Rights Reserved.
~   
~    This software is the property of WSO2 Inc. and its suppliers, if any. 
~    Dissemination of any information or reproduction of any material contained 
~    herein in any form is strictly forbidden, unless permitted by WSO2 expressly. 
~    You may not alter or remove any copyright or other notice from copies of this content."
-->

<svg width="41px" height="34px" viewBox="0 0 41 34" version="1.1" xmlns="http://www.w3.org/2000/svg" xmlns:xlink="http://www.w3.org/1999/xlink">
    <title>56E863D2-9D73-42B9-A5C2-6942BBBA5E89</title>
    <g id="Test" stroke="none" stroke-width="1" fill="none" fill-rule="evenodd">
        <g id="test-curl" transform="translate(-1368.000000, -96.000000)" fill-rule="nonzero">
            <g id="Service-logo" transform="translate(1368.000000, 96.000000)">
                <g id="Curl-logo" transform="translate(0.833333, 0.166667)">
                    <path d="M36.792496,4.4937504 C35.9149952,4.4937504 35.2049952,3.7824992 35.2049952,2.9062496 C35.2049952,2.0287488 35.9149952,1.3187488 36.792496,1.3187488 C37.6687456,1.3187488 38.3799968,2.0287488 38.3799968,2.9062496 C38.3799968,3.7824992 37.6687456,4.4937504 36.792496,4.4937504 M21.0262464,31.6174976 C20.1487456,31.6174976 19.4387456,30.9062496 19.4387456,30.03 C19.4387456,29.1524992 20.1487456,28.4424992 21.0262464,28.4424992 C21.902496,28.4424992 22.612496,29.1524992 22.612496,30.03 C22.612496,30.9062496 21.902496,31.6174976 21.0262464,31.6174976 M36.792496,0 C35.1874944,0 33.8862464,1.301248 33.8862464,2.9062496 C33.8862464,3.2487488 33.972496,3.5674976 34.0812448,3.8724992 L20.4474944,27.24 C19.1299968,27.5162496 18.1199968,28.63 18.1199968,30.03 C18.1199968,31.6349984 19.4212448,32.9362496 21.0262464,32.9362496 C22.6299968,32.9362496 23.9312448,31.6349984 23.9312448,30.03 C23.9312448,29.7074976 23.8449952,29.4124992 23.7487456,29.1224992 L37.4512448,5.6787488 C38.7287456,5.3724992 39.6987456,4.2774976 39.6987456,2.9062496 C39.6987456,1.301248 38.3974944,0 36.792496,0" id="path4177" fill="#0C544C"></path>
                    <path d="M24.9012448,4.4937504 C24.0237472,4.4937504 23.3137472,3.7824992 23.3137472,2.9062496 C23.3137472,2.0287488 24.0237472,1.3187488 24.9012448,1.3187488 C25.7774944,1.3187488 26.4874944,2.0287488 26.4874944,2.9062496 C26.4874944,3.7824992 25.7774944,4.4937504 24.9012448,4.4937504 M9.1337472,31.6174976 C8.2574944,31.6174976 7.5462464,30.9062496 7.5462464,30.03 C7.5462464,29.1524992 8.2574944,28.4424992 9.1337472,28.4424992 C10.0112448,28.4424992 10.7212448,29.1524992 10.7212448,30.03 C10.7212448,30.9062496 10.0112448,31.6174976 9.1337472,31.6174976 M24.9012448,0 C23.2949952,0 21.9949952,1.301248 21.9949952,2.9062496 C21.9949952,3.2487488 22.0812448,3.5674976 22.1899968,3.8724992 L8.5562464,27.24 C7.2374944,27.5162496 6.2274944,28.63 6.2274944,30.03 C6.2274944,31.6349984 7.5287456,32.9362496 9.1337472,32.9362496 C10.7387456,32.9362496 12.0399968,31.6349984 12.0399968,30.03 C12.0399968,29.7074976 11.9537472,29.4124992 11.8574944,29.1224992 L25.5599968,5.6787488 C26.8374944,5.3724992 27.8074944,4.2774976 27.8074944,2.9062496 C27.8074944,1.301248 26.5049952,0 24.9012448,0" id="path4179" fill="#073551"></path>
                    <path d="M3.1862464,9.3524992 C4.062496,9.3524992 4.7737472,10.0637504 4.7737472,10.94 C4.7737472,11.8162496 4.062496,12.5274976 3.1862464,12.5274976 C2.3087456,12.5274976 1.5987456,11.8162496 1.5987456,10.94 C1.5987456,10.0637504 2.3087456,9.3524992 3.1862464,9.3524992 M3.1862464,13.8462496 C4.7912448,13.8462496 6.092496,12.5449984 6.092496,10.94 C6.092496,10.6187488 6.0049952,10.3224992 5.9087456,10.0324992 C5.5237472,8.8787488 4.4687456,8.0337504 3.1862464,8.0337504 C2.9812448,8.0337504 2.8012448,8.11 2.6074944,8.151248 C1.2899968,8.4262496 0.2799968,9.54 0.2799968,10.94 C0.2799968,12.5449984 1.5812448,13.8462496 3.1862464,13.8462496" id="path4181" fill="#073551"></path>
                    <path d="M1.5987456,21.0949984 C1.5987456,20.2174976 2.3099968,19.5074976 3.1862464,19.5074976 C4.062496,19.5074976 4.7737472,20.2174976 4.7737472,21.0949984 C4.7737472,21.971248 4.062496,22.681248 3.1862464,22.681248 C2.3099968,22.681248 1.5987456,21.971248 1.5987456,21.0949984 M6.092496,21.0949984 C6.092496,20.7724992 6.0049952,20.4774976 5.9087456,20.1874976 C5.5237472,19.0337504 4.4699968,18.1887488 3.1862464,18.1887488 C2.9812448,18.1887488 2.8012448,18.2649984 2.6074944,18.3049984 C1.2899968,18.581248 0.2799968,19.6949984 0.2799968,21.0949984 C0.2799968,22.6987488 1.5812448,24.001248 3.1862464,24.001248 C4.7912448,24.001248 6.092496,22.6987488 6.092496,21.0949984" id="path4183" fill="#073551"></path>
                </g>
            </g>
        </g>
    </g>
</svg>
