<svg width="48" height="48" viewBox="0 0 48 48" fill="none" xmlns="http://www.w3.org/2000/svg">
<path fill-rule="evenodd" clip-rule="evenodd" d="M3.8589 8.67281C3.34175 8.86982 3 9.36573 3 9.91912V18.8641C3 32.0834 11.459 43.8197 24 48C36.541 43.8197 45 32.0834 45 18.8641V9.91912C45 9.36573 44.6582 8.86982 44.1411 8.67281L25.068 1.40686C24.3801 1.14482 23.6199 1.14481 22.932 1.40686L3.8589 8.67281ZM24 35C30.0751 35 35 30.0751 35 24C35 17.9249 30.0751 13 24 13C17.9249 13 13 17.9249 13 24C13 30.0751 17.9249 35 24 35Z" fill="#F0F1F4"/>
<circle cx="24" cy="16" r="6" fill="#A6B3FF"/>
<path d="M14 29C14 26.2386 16.2386 24 19 24H29C31.7614 24 34 26.2386 34 29V33C34 33.5523 33.5523 34 33 34H15C14.4477 34 14 33.5523 14 33V29Z" fill="#A6B3FF"/>
<path d="M34.5 33V40" stroke="#40404B" stroke-width="1.5" stroke-linecap="round"/>
<path d="M43.5 47L43.5 40" stroke="#40404B" stroke-width="1.5" stroke-linecap="round"/>
<path d="M34.5 45V47" stroke="#40404B" stroke-width="1.5" stroke-linecap="round"/>
<path d="M43.5 35L43.5 33" stroke="#40404B" stroke-width="1.5" stroke-linecap="round"/>
<circle cx="34.5" cy="42.5" r="2.5" stroke="#40404B" stroke-width="1.5" stroke-linecap="round"/>
<circle cx="43.5" cy="37.5" r="2.5" transform="rotate(-180 43.5 37.5)" stroke="#40404B" stroke-width="1.5" stroke-linecap="round"/>
</svg>
