<svg id="Icon_Flow_Log" data-name="Icon/Flow/Log" xmlns="http://www.w3.org/2000/svg" width="20" height="20" viewBox="0 0 20 20">
  <g id="Oval" transform="translate(2.5)" fill="none" stroke-miterlimit="10">
    <path d="M7.5,20S15,11.642,15,7.5a7.5,7.5,0,0,0-15,0C0,11.642,7.5,20,7.5,20Z" stroke="none"/>
    <path d="M 7.5 16.90437126159668 C 8.129476547241211 16.13105773925781 8.890950202941895 15.15961933135986 9.64622974395752 14.10783958435059 C 12.75815010070801 9.774270057678223 13 7.95451021194458 13 7.5 C 13 4.467289924621582 10.53271007537842 2 7.5 2 C 4.467289924621582 2 2 4.467289924621582 2 7.5 C 2 7.95451021194458 2.241849899291992 9.774270057678223 5.353769779205322 14.10783958435059 C 6.109049797058105 15.15961933135986 6.870523452758789 16.13105773925781 7.5 16.90437126159668 M 7.5 20 C 7.5 20 -8.881784197001252e-16 11.64214038848877 -8.881784197001252e-16 7.5 C -8.881784197001252e-16 3.357860088348389 3.357860088348389 0 7.5 0 C 11.64214038848877 0 15 3.357860088348389 15 7.5 C 15 11.64214038848877 7.5 20 7.5 20 Z" stroke="none" fill="#ccd1f2"/>
  </g>
  <circle id="Oval_Copy" data-name="Oval Copy" cx="2" cy="2" r="2" transform="translate(8 5)" fill="#5567d5"/>
</svg>
