<?xml version="1.0" encoding="UTF-8"?>
<svg width="333px" height="315px" viewBox="0 0 333 315" version="1.1" xmlns="http://www.w3.org/2000/svg" xmlns:xlink="http://www.w3.org/1999/xlink">
    <title>D8657AB1-634C-40CD-B475-2926DA059D82</title>
    <g id="Misc" stroke="none" stroke-width="1" fill="none" fill-rule="evenodd">
        <g id="500" transform="translate(-569.000000, -162.000000)">
            <g id="2" transform="translate(569.000000, 162.000000)">
                <path d="M217.520458,72.3467205 C249.658849,99.0418661 289.463624,117.253715 303.587899,147.879195 C317.674409,178.504676 306.042653,221.388131 281.38182,248.433505 C256.758752,275.40105 214.457502,296.39996 179.6,305 C144.742498,313.638954 112.679638,319.70957 91.2288674,306.867882 C69.7780968,293.948365 63.6640507,252.286011 47.689269,223.528413 C31.7144874,194.887557 7.79621104,152.588436 3,121.2625 C-1.79621104,89.8976496 -0.508122226,68.3503266 24.0016492,40.2931838 C48.549186,12.1971267 99.1258,-5.79300602 130.131227,2.30114892 C161.098889,10.4342181 185.457599,45.6515749 217.520458,72.3467205 Z" id="Path" fill="#FFFFFF" fill-rule="nonzero"></path>
                <path d="M206.795,95.51 C206.795,59.495 206.095,23.305 158.46,23.305 C114.99,23.305 111.28,73.32 111.07,91.275 C110.86,109.51 105.12,120.08 97.98,128.235 C69.2628646,156.235 56.6966146,178.49 60.28125,195 C61.7845485,201.923844 65.6949532,215.789615 75.0908203,223.740762 C77.1228073,225.460308 79.9414321,212.158106 82.25,213.78125 C107.447865,231.497757 146.955589,258.123254 168.645,256.615 C182.550568,255.648024 194.177922,248.58 215.212922,236.54 C228.008472,224.813061 235.065427,218.154546 236.383789,216.564453 C239.570645,212.720747 244.68457,233.092773 244.608263,233.112976 C255.197696,218.365602 260.227441,205.661276 259.6975,195 C259.195833,184.907552 249.121667,169.430885 229.475,148.57 C217.47,134.43 206.795,118.365 206.795,95.51 Z" id="Path" fill="#FF7B7C" fill-rule="nonzero"></path>
                <path d="M126.714653,288.987305 C142.184948,292.110474 153.711731,293.448039 161.295,293 C170.086252,292.480591 183.121252,289.691854 200.4,284.633789 C211.259734,281.906677 200.091522,246.338336 216.954706,241.874312 C235.277663,237.023856 241.944266,221.638694 241.864968,221.629883 C238.123047,211.955078 212.993998,151.516803 161.295,148.325 C115.018893,145.467996 78.3579594,196.865043 72.3705536,222.415039 C72.2939946,222.504639 92.222168,242.005445 100.041504,240.456055 C100.102849,243.154962 86.5273437,271.532227 85.8243377,272.639693 C99.1764502,280.899577 116.369623,288.987305 126.714653,288.987305 Z" id="Path" fill="#A6B3FF" fill-rule="nonzero"></path>
                <path d="M25.5,163 C25.5,234.797017 83.7029825,293 155.5,293 C227.297017,293 285.5,234.797017 285.5,163 C285.5,113.323139 257.636175,70.1542221 216.684809,48.2695342 M126.805428,36.177413 C112.495108,39.4013971 99.0784711,44.9854274 86.9858814,52.499141" id="Shape" stroke="#41415A" stroke-width="1.5"></path>
                <path d="M66.62,185.825 C68.44,141.811807 108.025,148.342541 108.62,93.4447901 C108.725,84.5788231 109.46,68.7863193 113.905,53.825" id="Path" stroke="#41415A" stroke-width="1.673" stroke-linecap="round" stroke-linejoin="round"></path>
                <path d="M223.805,142.235 C237.7,159.525 254.675,173.42 258.945,191.97" id="Path" stroke="#41415A" stroke-width="1.673" stroke-linecap="round" stroke-linejoin="round"></path>
                <path d="M127.555,31.285 C134.345,24.985 143.55,20.89 156.01,20.89 C203.645,20.89 204.345,57.115 204.345,93.095 C204.345,108.495 209.21,120.85 216.105,131.595" id="Path" stroke="#41415A" stroke-width="1.673" stroke-linecap="round" stroke-linejoin="round"></path>
                <path d="M27.175,210.485 C27.175,198.025 37.255,187.945 49.715,187.945 C62.175,187.945 72.255,198.025 72.255,210.485 C72.255,222.945 62.175,233.025 49.715,233.025 C49.715,233.025 49.715,233.025 49.715,233.025 C37.255,233.025 27.175,222.945 27.175,210.485 Z" id="Path" fill="#E4E7F8"></path>
                <path d="M297.535534,119.535534 L329.464466,151.464466 C331.417088,153.417088 331.417088,156.582912 329.464466,158.535534 L297.535534,190.464466 C295.582912,192.417088 292.417088,192.417088 290.464466,190.464466 L258.535534,158.535534 C256.582912,156.582912 256.582912,153.417088 258.535534,151.464466 L290.464466,119.535534 C292.417088,117.582912 295.582912,117.582912 297.535534,119.535534 Z" id="Polygon" stroke="#C8CEF0" stroke-width="1.79253028" opacity="0.503673735" stroke-linecap="round" stroke-linejoin="round"></path>
                <rect id="Rectangle-Copy" stroke="#C8CEF0" stroke-width="1.79253028" opacity="0.503673735" stroke-linecap="round" stroke-linejoin="round" x="8" y="66" width="69" height="37" rx="18.5"></rect>
                <path d="M224.33,188.295 C225.765785,190.697178 233.428942,199.370142 241.031925,215.115598 C243.06648,219.329076 228.790138,233.45791 221.864258,235.078125" id="Path" stroke="#41415A" stroke-width="1.673" stroke-linecap="round" stroke-linejoin="round"></path>
                <path d="M128.92,153.89 C138.335,148.92 148.52,146.225 159.195,146.225 C178.585,146.225 196.435,155.185 210.68,170.235" id="Path" stroke="#41415A" stroke-width="1.673" stroke-linecap="round" stroke-linejoin="round"></path>
                <path d="M97.98,182.31 C102.705,175.415 108.34,169.15 114.675,163.655" id="Path" stroke="#41415A" stroke-width="1.673" stroke-linecap="round" stroke-linejoin="round"></path>
                <path d="M61.9873047,253.161621 C63.4038876,246.620961 67.2097168,235.535156 73.3286133,227.221803 M73.3286133,227.221803 C72.7073528,227.221803 71.7218583,225.65503 70.3721296,222.521484 C75.9638373,211.815186 83.018167,200.345594 86.2625,194.668945" id="Shape" stroke="#41415A" stroke-width="1.673" stroke-linecap="round" stroke-linejoin="round"></path>
                <path d="M135.78,119.485 C137.18,127.535 137.985,149.97 136.795,161.66 C141.275,165.44 161.015,168.87 174.105,163.795 C172.32,157.32 171.375,141.85 172.915,132.4 C164.515,129.285 135.78,119.485 135.78,119.485 Z" id="Path" fill="#FFFFFF" fill-rule="nonzero"></path>
                <path d="M135.605,143.53 C135.64,149.62 135.465,155.535 135.045,159.91 C137.74,162.185 145.965,164.32 154.96,164.565" id="Path" stroke="#41415A" stroke-width="1.673" stroke-linecap="round" stroke-linejoin="round"></path>
                <g id="Group-2" transform="translate(86.000000, 133.000000)">
                    <path d="M24.445,4.51680341 C24.445,4.51680341 25.53,-1.92319659 29.485,5.91680341 L54.02,45.5368034 C54.02,45.5368034 54.265,56.9818034 49.75,83.7918034 C46.74,101.665137 43.1965299,125.734536 39.1195897,156 C39.1195897,156 20.1210938,151.699707 0.21875,139.108402 L22.17,90.0918034 L34.84,56.1418034 C34.84,56.1418034 35.435,51.5218034 31.48,43.4368034 C27.56,35.3518034 24.655,27.2668034 24.655,27.2668034 C24.655,27.2668034 20.385,21.7018034 19.44,20.8968034 C18.53,20.0918034 11.005,10.5018034 11.005,10.5018034 C11.005,10.5018034 10.41,6.09180341 15.73,7.73680341 C15.73,7.73680341 14.225,0.106803409 16.43,0.00180340864 C18.635,-0.103196591 24.06,4.41180341 24.06,4.41180341 L24.445,4.51680341 Z" id="Path" fill="#FFFFFF" fill-rule="nonzero"></path>
                    <path d="M12.58,11.0968034 C11.95,10.5718034 11.53,9.31180341 11.915,8.68180341 C12.405,7.94680341 14.33,7.80680341 18.18,9.48680341 C17.725,8.96180341 17.305,8.36680341 16.92,7.73680341 C16.78,7.52680341 16.71,7.28180341 16.675,7.07180341 C12.895,5.81180341 11.25,6.61680341 10.515,7.73680341 C9.535,9.17180341 10.27,11.3418034 11.46,12.3918034 C13.665,14.2468034 19.895,22.8218034 21.155,25.0268034 C21.4,25.4118034 21.89,25.5518034 22.31,25.3418034 C22.52,25.2368034 22.66,25.0968034 22.73,24.8868034 C22.8,24.6418034 22.8,24.3968034 22.66,24.1868034 C21.26,21.7368034 14.96,13.1268034 12.58,11.0968034 Z" id="Path" fill="#43435C" fill-rule="nonzero"></path>
                    <path d="M46.7,34.3712568 C47.085,34.0912568 47.68,34.1962568 47.995,34.6512568 L49.535,36.8212568 C52.615,41.1262568 54.68,43.9962568 55.065,44.6962568 C55.45,45.2912568 56.255,46.5512568 51.775,75.8462568 C50.235,86.0312568 48.555,96.1812568 47.75,101.221257 C47.225,101.291257 46.77,101.641257 46.56,102.306257 C46.56,102.306257 46.56,102.341257 46.56,102.341257 C46.315,102.201257 46.07,102.061257 45.825,101.956257 C45.825,101.956257 45.79,101.956257 45.79,101.956257 C49.36,80.6762568 54.33,48.3712568 53.525,45.6062568 C53.035,44.8362568 50.97,41.9312568 48.065,37.8712568 L46.525,35.7012568 C46.175,35.2112568 46.28,34.6862568 46.7,34.3712568 Z" id="Path" fill="#41415A" fill-rule="nonzero"></path>
                    <path d="M22.205,90.1268034 C22.695,90.3368034 23.22,90.1268034 23.43,89.6368034 C31.62,68.8818034 35.89,57.3668034 36.17,55.5118034 C36.59,52.4668034 33.3,44.6268034 27.42,30.9768034 C26.755,29.4368034 26.055,27.8268034 25.355,26.2168034 C25.18,25.7268034 24.62,25.5168034 24.165,25.6918034 C23.675,25.8318034 23.465,26.3918034 23.675,26.8818034 C24.41,28.4918034 25.075,30.1018034 25.74,31.6418034 C30.605,42.8418034 34.77,52.5018034 34.385,55.1968034 C34.245,56.2118034 32.425,61.9168034 21.785,88.9718034 C21.61,89.3568034 21.785,89.8118034 22.135,90.0568034 C22.065,90.0568034 22.135,90.0918034 22.205,90.1268034 Z" id="Path" fill="#43435C" fill-rule="nonzero"></path>
                    <path d="M34.7,30.1018034 C32.11,26.1818034 27.945,14.3868034 26.16,9.10180341 C25.635,7.49180341 25.285,6.51180341 25.285,6.51180341 C25.285,6.51180341 24.375,-2.72819659 28.68,3.11680341 C31.76,7.28180341 45.935,31.6418034 45.935,31.6418034" id="Path" stroke="#41415A" stroke-width="1.75" stroke-linecap="round"></path>
                    <path d="M23.325,4.23680341 C23.325,4.23680341 15.87,-3.18319659 15.415,1.89180341 C14.96,6.96680341 22.03,18.5168034 22.03,18.5168034" id="Path" stroke="#41415A" stroke-width="1.75" stroke-linecap="round"></path>
                    <path d="M0.245,139.001803 C0.245,139.001803 14.35,105.016803 20.37,93.2218034" id="Path" stroke="#43435B" stroke-width="1.75" stroke-linecap="round"></path>
                    <line x1="36.1291794" y1="156" x2="42.11" y2="122.216803" id="Path" stroke="#43435B" stroke-width="1.75" stroke-linecap="round"></line>
                </g>
                <path d="M172.355,162.01 C170.57,155.535 169.625,140.065 171.165,130.615 C162.765,127.535 134.03,117.7 134.03,117.7 C134.555,120.815 135.01,126.065 135.29,132.015" id="Path" stroke="#41415A" stroke-width="1.673" stroke-linecap="round" stroke-linejoin="round"></path>
                <path d="M185.168263,283.915852 L179.395251,185.401708 C179.395251,185.401708 178.170251,178.296708 181.565251,175.706708 C184.960251,173.081708 201.760251,148.896708 201.760251,148.896708 C201.760251,148.896708 204.910251,141.686708 207.115251,142.071708 C209.320251,142.456708 209.775251,147.041708 208.550251,149.841708 L219.785251,138.291708 C219.785251,138.291708 223.180251,135.841708 224.580251,137.661708 C225.980251,139.516708 222.585251,146.306708 221.045251,149.526708 C219.505251,152.746708 205.645251,168.006708 201.165251,179.906708 C196.685251,191.806708 202.075251,199.646708 202.075251,199.646708 L224.496129,270.683306 C224.496129,270.683306 209.705281,277.866341 199.747819,280.865443 C192.359491,283.090744 185.168263,283.915852 185.168263,283.915852 Z" id="Path" fill="#FFFFFF" fill-rule="nonzero" transform="translate(202.045758, 210.452467) rotate(-8.000000) translate(-202.045758, -210.452467) "></path>
                <ellipse id="Oval" fill="#FFFFFF" fill-rule="nonzero" cx="163.955" cy="85.535" rx="39.375" ry="52.5"></ellipse>
                <path d="M194.51,111.68 C187.475,126.065 175.33,135.55 161.505,135.55 C158.355,135.55 155.24,135.06 152.265,134.08" id="Path" stroke="#41415A" stroke-width="1.673" stroke-linecap="round" stroke-linejoin="round"></path>
                <path d="M125.315,103.84 C123.18,97.12 122.095,90.12 122.13,83.05 C122.13,54.07 139.77,30.55 161.505,30.55 C183.24,30.55 200.88,54.07 200.88,83.05 C200.88,88.65 200.215,94.215 198.885,99.605" id="Path" stroke="#41415A" stroke-width="1.673" stroke-linecap="round" stroke-linejoin="round"></path>
                <ellipse id="Oval" fill="#41415A" fill-rule="nonzero" transform="translate(178.723827, 88.463922) rotate(-79.729488) translate(-178.723827, -88.463922) " cx="178.723827" cy="88.4639225" rx="5.00511734" ry="2.24005252"></ellipse>
                <ellipse id="Oval" fill="#41415A" fill-rule="nonzero" transform="translate(152.681787, 87.801177) rotate(-11.239140) translate(-152.681787, -87.801177) " cx="152.681787" cy="87.8011765" rx="2.23994921" ry="5.00488651"></ellipse>
                <path d="M168.26,94.95 C169.17,98.695 170.885,102.825 173.86,105.45" id="Path" stroke="#41415A" stroke-width="1.673" stroke-linecap="round" stroke-linejoin="round"></path>
                <path d="M167.315,88.055 C167.315,88.825 167.35,89.595 167.455,90.33" id="Path" stroke="#41415A" stroke-width="1.673" stroke-linecap="round" stroke-linejoin="round"></path>
                <ellipse id="Oval" stroke="#41415A" stroke-width="1.6730786" stroke-linecap="round" stroke-linejoin="round" transform="translate(166.421600, 115.931128) rotate(-60.851351) translate(-166.421600, -115.931128) " cx="166.4216" cy="115.931128" rx="5.95027955" ry="3.99018747"></ellipse>
                <path d="M172.53,44.165 C172.565,44.34 172.6,44.515 172.67,44.69 C174.63,50.465 194.86,87.04 204.24,93.585 C204.59,87.88 205.115,64.36 201.475,57.675 C197.835,50.99 182.61,33.49 177.85,33.49 C173.09,33.49 172.53,44.27 172.53,44.27" id="Path" fill="#FF7B7C" fill-rule="nonzero"></path>
                <path d="M193.53,81.895 C195.245,84.31 197.135,86.62 199.13,88.79" id="Path" stroke="#41415A" stroke-width="1.673" stroke-linecap="round" stroke-linejoin="round"></path>
                <path d="M170.43,42.065 C170.465,42.24 170.5,42.415 170.57,42.59 C171.795,46.23 180.3,62.12 188.77,75" id="Path" stroke="#41415A" stroke-width="1.673" stroke-linecap="round" stroke-linejoin="round"></path>
                <path d="M160.84,78.85 C160.84,78.85 154.12,75.245 149.57,77.87" id="Path" stroke="#41415A" stroke-width="1.75" stroke-linecap="round"></path>
                <path d="M181.805,33.035 C181.805,36.535 149.885,97.05 133.575,105.52 C126.855,110 113.94,111.575 113.94,108.075 C113.94,104.575 120.17,44.375 133.435,37.48 C146.7,30.585 166.16,22.64 181.805,33.035 Z" id="Path" fill="#FF7B7C" fill-rule="nonzero"></path>
                <path d="M165.32,60.125 C154.785,78.255 140.89,99.045 131.825,103.735 C128.885,105.695 124.72,107.095 120.975,107.76" id="Path" stroke="#41415A" stroke-width="1.673" stroke-linecap="round" stroke-linejoin="round"></path>
                <path d="M180.055,31.285 C180.055,32.195 177.92,36.92 174.455,43.57" id="Path" stroke="#41415A" stroke-width="1.673" stroke-linecap="round" stroke-linejoin="round"></path>
                <circle id="Oval" fill="#FFFFFF" fill-rule="nonzero" cx="129.025" cy="103.35" r="10.115"></circle>
                <path d="M123.18,92.36 C126.365,90.96 130.04,91.275 132.91,93.235" id="Path" stroke="#41415A" stroke-width="1.673" stroke-linecap="round" stroke-linejoin="round"></path>
                <path d="M130.11,111.295 C124.755,112.87 119.12,109.79 117.545,104.435 C117.02,102.65 116.985,100.725 117.51,98.94" id="Path" stroke="#41415A" stroke-width="1.673" stroke-linecap="round" stroke-linejoin="round"></path>
                <path d="M199.466962,151.997731 C199.676962,151.927731 199.886962,151.752731 199.956962,151.542731 C200.691962,150.037731 202.966962,144.997731 200.586962,141.917731 C199.921962,141.007731 198.941962,140.552731 197.996962,140.727731 C197.261962,140.832731 196.666962,141.357731 196.421962,142.092731 C195.721962,144.192731 189.911962,151.542731 187.706962,153.117731 C187.286962,153.432731 187.216962,153.992731 187.531962,154.412731 C187.846962,154.832731 188.406962,154.867731 188.826962,154.552731 C191.136962,152.872731 197.296962,145.207731 198.206962,142.617731 C198.206962,142.547731 198.241962,142.512731 198.276962,142.512731 L198.276962,142.512731 C198.311962,142.512731 198.556962,142.512731 198.906962,142.827731 C199.921962,143.877731 200.376962,146.572731 198.276962,150.772731 C198.031962,151.227731 198.241962,151.752731 198.696962,151.997731 C199.011962,152.102731 199.256962,152.067731 199.466962,151.997731 Z" id="Path" fill="#43435C" fill-rule="nonzero" transform="translate(194.490647, 147.726530) rotate(-8.000000) translate(-194.490647, -147.726530) "></path>
                <g id="Group" transform="translate(196.863264, 208.357584) rotate(-8.000000) translate(-196.863264, -208.357584) translate(177.863264, 168.357584)" fill="#43435C" fill-rule="nonzero">
                    <path d="M37.38,79.8 C37.485,79.73 37.59,79.625 37.695,79.555 C37.03,77.28 35.49,71.995 33.635,65.52 C33.495,64.995 33.005,64.715 32.48,64.855 C31.99,64.995 31.675,65.52 31.85,66.01 C33.635,72.24 35.14,77.35 35.84,79.765 C36.33,79.8 36.855,79.8 37.38,79.8 Z" id="Path"></path>
                    <path d="M10.255,0.525 C9.905,0.21 9.275,0.245 8.925,0.665 L7.175,2.66 C3.71,6.65 1.365,9.31 0.91,9.975 C0.455,10.535 -0.455,11.725 1.155,41.3 C1.715,51.59 2.38,61.845 2.695,66.955 C3.22,67.095 3.64,67.445 3.78,68.145 C3.78,68.145 3.78,68.18 3.78,68.18 C4.025,68.075 4.305,67.97 4.55,67.865 C4.55,67.865 4.585,67.865 4.585,67.865 C3.115,46.34 1.295,13.72 2.38,11.025 C2.94,10.325 5.285,7.595 8.575,3.85 L10.325,1.855 C10.675,1.435 10.605,0.875 10.255,0.525 Z" id="Path"></path>
                </g>
                <path d="M206.09796,222.861776 C206.48296,222.651776 206.69296,222.231776 206.55296,221.811776 C198.57296,193.846776 197.34796,188.001776 197.27796,186.986776 C197.17296,184.256776 202.24796,175.051776 208.16296,164.376776 C209.00296,162.906776 209.80796,161.366776 210.68296,159.826776 C210.92796,159.371776 210.78796,158.811776 210.29796,158.601776 C209.84296,158.391776 209.28296,158.531776 209.03796,159.021776 C208.16296,160.561776 207.32296,162.101776 206.51796,163.571776 C199.30796,176.591776 195.28296,184.081776 195.42296,187.126776 C195.52796,189.016776 198.64296,200.881776 204.76796,222.336776 C204.90796,222.826776 205.43296,223.106776 205.92296,222.931776 C206.02796,222.896776 206.06296,222.861776 206.09796,222.861776 Z" id="Path" fill="#43435C" fill-rule="nonzero" transform="translate(203.110236, 190.745713) rotate(-8.000000) translate(-203.110236, -190.745713) "></path>
                <path d="M188.730733,162.677013 C188.835733,162.642013 188.905733,162.607013 189.010733,162.502013 C201.820733,149.412013 209.135733,141.502013 211.375733,138.352013 C212.075733,137.407013 214.105733,136.637013 215.085733,137.197013 C216.135733,137.827013 216.240733,140.452013 213.370733,146.122013 C213.160733,146.577013 213.335733,147.102013 213.790733,147.347013 C214.245733,147.557013 214.805733,147.347013 215.050733,146.892013 C217.185733,142.727013 219.110733,137.337013 216.135733,135.622013 C214.280733,134.537013 211.270733,135.657013 209.975733,137.302013 C207.735733,140.382013 200.490733,148.222013 187.785733,161.242013 C187.435733,161.627013 187.435733,162.187013 187.820733,162.537013 C187.960733,162.782013 188.380733,162.852013 188.730733,162.677013 Z" id="Path" fill="#43435C" fill-rule="nonzero" transform="translate(202.595293, 148.983216) rotate(-8.000000) translate(-202.595293, -148.983216) "></path>
                <line x1="151.645" y1="212.495" x2="147.69" y2="236.54" id="Path" stroke="#43435B" stroke-width="1.75" stroke-linecap="round"></line>
                <line x1="174.25" y1="253.7725" x2="176.75" y2="265.3175" id="Path-Copy-2" stroke="#43435B" stroke-width="1.75" stroke-linecap="round"></line>
                <path d="M98.3305664,243.158789 C92.7987601,241.989883 88.9434322,240.812079 86.7645827,239.625376 C84.5857331,238.438673 81.7743944,236.616477 78.3305664,234.158789" id="Path-Copy" stroke="#43435B" stroke-width="1.75" stroke-linecap="round" transform="translate(88.330566, 238.658789) rotate(9.000000) translate(-88.330566, -238.658789) "></path>
                <line x1="182.704469" y1="225.020268" x2="193.780873" y2="275.666617" id="Path" stroke="#41415A" stroke-width="1.75" stroke-linecap="round"></line>
                <line x1="219.482015" y1="244.2742" x2="230.567592" y2="269.082822" id="Path" stroke="#41415A" stroke-width="1.75" stroke-linecap="round"></line>
                <line x1="241" y1="224" x2="252.085577" y2="248.808622" id="Path-Copy-3" stroke="#41415A" stroke-width="1.75" stroke-linecap="round"></line>
                <path d="M172.39,78.36 C172.39,78.36 178.83,74.265 183.555,76.575" id="Path" stroke="#41415A" stroke-width="1.75" stroke-linecap="round"></path>
            </g>
        </g>
    </g>
</svg>
