<?xml version="1.0" encoding="UTF-8"?>
<svg width="48px" height="48px" viewBox="0 0 48 48" version="1.1" xmlns="http://www.w3.org/2000/svg" xmlns:xlink="http://www.w3.org/1999/xlink">
    <title>D3811002-7BBB-400C-89E7-CA62F7BC0E60</title>
    <g id="API" stroke="none" stroke-width="1" fill="none" fill-rule="evenodd">
        <g id="connector-only-me-published-" transform="translate(-347.000000, -256.000000)" fill="#5567D5" fill-rule="nonzero">
            <g id="Logo/Default-package" transform="translate(347.483340, 256.688368)">
                <path d="M22.2989981,0.258230829 C23.0742642,-0.086076943 23.9590568,-0.086076943 24.7343229,0.258230829 L24.7343229,0.258230829 L45.2509834,9.36999965 C46.1307616,9.76072283 46.7566827,10.542371 46.961154,11.4571364 L47.033321,11.4571939 C47.033321,11.567414 47.0272917,11.6766362 47.0154904,11.7844804 C47.0272702,11.8919962 47.033321,12.0014005 47.033321,12.1117688 L47.033321,12.1117688 L47.033321,35.4571939 C47.033321,36.6841868 46.2861328,37.7875051 45.1467822,38.2429082 L45.1467822,38.2429082 L24.6301217,46.4435001 C23.9153071,46.7292144 23.1180139,46.7292144 22.4031993,46.4435001 L22.4031993,46.4435001 L1.88653877,38.2429082 C0.747188178,37.7875051 0,36.6841868 0,35.4571939 L0,35.4571939 L0,12.1117688 C0,12.0017401 0.00601364751,11.8926695 0.0177906876,11.7849418 C0.0130112149,11.740599 0.00907162482,11.6953187 0.00615755947,11.6498254 L0,11.4571939 L0.0721669655,11.4571364 C0.2766383,10.542371 0.90255943,9.76072283 1.78233756,9.36999965 L1.78233756,9.36999965 Z M2,14.288 L2,35.4571939 C2,35.8661915 2.24906273,36.2339643 2.62884626,36.3857653 L2.62884626,36.3857653 L22.516,44.335 L22.516,22.483 L22.4031993,22.4435001 L2,14.288 Z M45.033,14.287 L24.6301217,22.4435001 L24.516,22.483 L24.516,44.335 L44.4044747,36.3857653 C44.7462799,36.2491444 44.9822012,35.9375864 45.0259675,35.5784817 L45.033321,35.4571939 L45.033,14.287 Z M23.922548,2.08607694 C23.6641259,1.97130769 23.3691951,1.97130769 23.110773,2.08607694 L23.110773,2.08607694 L2.59411252,11.1978458 C2.3363518,11.3123213 2.14396394,11.5274673 2.05488296,11.7849298 C2.13604981,12.0172068 2.2999918,12.2138675 2.51895116,12.3339206 L2.62884626,12.3857653 L23.1455068,20.5863572 C23.3440664,20.6657223 23.5617183,20.6789498 23.766642,20.6260398 L23.8878142,20.5863572 L44.4044747,12.3857653 C44.6780533,12.2764148 44.8837996,12.0549945 44.9774775,11.7868245 C44.8898522,11.5280212 44.6973009,11.3124686 44.4392085,11.1978458 L44.4392085,11.1978458 Z" id="Combined-Shape-Copy"></path>
                <path d="M46.7041999,29.943183 C46.8945409,30.4193877 46.692951,30.9551485 46.2525763,31.1933766 L46.1467822,31.2429082 L40.7968498,33.3812977 C40.284014,33.5862803 39.7021072,33.3367159 39.4971247,32.82388 C39.3067837,32.3476753 39.5083736,31.8119146 39.9487483,31.5736864 L40.0545423,31.5241549 L45.4044747,29.3857653 C45.9173106,29.1807828 46.4992174,29.4303472 46.7041999,29.943183 Z M46.7041999,23.943183 C46.8945409,24.4193877 46.692951,24.9551485 46.2525763,25.1933766 L46.1467822,25.2429082 L35.9824368,29.305638 C35.469601,29.5106206 34.8876942,29.2610562 34.6827116,28.7482203 C34.4923707,28.2720156 34.6939605,27.7362549 35.1343353,27.4980267 L35.2401293,27.4484952 L45.4044747,23.3857653 C45.9173106,23.1807828 46.4992174,23.4303472 46.7041999,23.943183 Z M33.6107506,5.19222986 L40.4944983,8.1878841 L14.4496605,19.367632 L14.4884585,25.06651 L8.5166605,22.6577858 L8.5166605,15.6942949 L33.6107506,5.19222986 Z" id="Combined-Shape"></path>
            </g>
        </g>
    </g>
</svg>
