<?xml version="1.0" encoding="UTF-8"?>
<svg width="10px" height="10px" viewBox="0 0 10 10" version="1.1" xmlns="http://www.w3.org/2000/svg" xmlns:xlink="http://www.w3.org/1999/xlink">
    <title>9CE6C87A-3E38-4262-A245-001FA6DF41F2</title>
    <defs>
        <path d="M0.976858925,0.167602494 L5,4.191 L9.02314108,0.167602494 C9.24661107,-0.0558674981 9.60892751,-0.0558674981 9.83239751,0.167602494 C10.0558675,0.391072487 10.0558675,0.753388932 9.83239751,0.976858925 L5.809,5 L9.83239751,9.02314108 C10.0558675,9.24661107 10.0558675,9.60892751 9.83239751,9.83239751 C9.60892751,10.0558675 9.24661107,10.0558675 9.02314108,9.83239751 L5,5.809 L0.976858925,9.83239751 C0.753388932,10.0558675 0.391072487,10.0558675 0.167602494,9.83239751 C-0.0558674981,9.60892751 -0.0558674981,9.24661107 0.167602494,9.02314108 L4.191,5 L0.167602494,0.976858925 C-0.0558674981,0.753388932 -0.0558674981,0.391072487 0.167602494,0.167602494 C0.391072487,-0.0558674981 0.753388932,-0.0558674981 0.976858925,0.167602494 Z" id="path-1"></path>
    </defs>
    <g id="Test" stroke="none" stroke-width="1" fill="none" fill-rule="evenodd">
        <g id="test-open-collection-edit" transform="translate(-1387.000000, -590.000000)">
            <g id="Icon/Delete-app" transform="translate(1387.000000, 590.000000)">
                <mask id="mask-2" fill="white">
                    <use xlink:href="#path-1"></use>
                </mask>
                <use id="Combined-Shape" fill="#D8D8D8" xlink:href="#path-1"></use>
                <rect id="Color" fill="#CBCEDB" fill-rule="nonzero" mask="url(#mask-2)" x="-3" y="-3" width="16" height="16"></rect>
            </g>
        </g>
    </g>
</svg>
