<?xml version="1.0" encoding="UTF-8"?>
<svg width="18px" height="18px" viewBox="0 0 18 18" version="1.1" xmlns="http://www.w3.org/2000/svg" xmlns:xlink="http://www.w3.org/1999/xlink">
    <title>726865F7-B8F3-48A3-92FE-FE453443C643</title>
    <g id="Apps" stroke="none" stroke-width="1" fill="none" fill-rule="evenodd">
        <g id="apps-select-item-enter" transform="translate(-1187.000000, -403.000000)">
            <g id="Table/Row/Default" transform="translate(216.000000, 384.000000)">
                <g id="Button/40/Circle/Default" transform="translate(960.000000, 8.000000)">
                    <g id="Icon/More-Copy-2" transform="translate(11.000000, 11.000000)">
                        <path d="M9,3 C9.26591373,3 9.48147941,3.21556567 9.48147941,3.48147941 L9.481,8.518 L14.5185206,8.51852059 C14.7844343,8.51852059 15,8.73408627 15,9 C15,9.26591373 14.7844343,9.48147941 14.5185206,9.48147941 L9.481,9.481 L9.48147941,14.5185206 C9.48147941,14.7844343 9.26591373,15 9,15 C8.73408627,15 8.51852059,14.7844343 8.51852059,14.5185206 L8.518,9.481 L3.48147941,9.48147941 C3.21556567,9.48147941 3,9.26591373 3,9 C3,8.73408627 3.21556567,8.51852059 3.48147941,8.51852059 L8.518,8.518 L8.51852059,3.48147941 C8.51852059,3.21556567 8.73408627,3 9,3 Z" id="path-1"></path>
                        <use id="Shape" fill="#EA4C4D" transform="rotate(45 9 9)" fill-rule="nonzero" xlink:href="#path-1"></use>
                    </g>
                </g>
            </g>
        </g>
    </g>
</svg>
