<?xml version="1.0" encoding="UTF-8"?>
<svg width="16px" height="16px" viewBox="0 0 16 16" version="1.1" xmlns="http://www.w3.org/2000/svg" xmlns:xlink="http://www.w3.org/1999/xlink">
    <title>B7A17CAB-368D-49CE-B176-0D37BB1A7708</title>
    <g id="Deploy" stroke="none" stroke-width="1" fill="none" fill-rule="evenodd">
        <g id="Deploy-in-progress-(live)" transform="translate(-97.000000, -736.000000)" fill="#CBCEDB" fill-rule="nonzero">
            <g id="Icon/Check-Copy-2" transform="translate(97.000000, 736.000000)">
                <path d="M8,13 C8.55228475,13 9,13.4477153 9,14 L9,15 C9,15.5522847 8.55228475,16 8,16 C7.44771525,16 7,15.5522847 7,15 L7,14 C7,13.4477153 7.44771525,13 8,13 Z M11.8660254,12.6961524 L12.3660254,13.5621778 C12.6421678,14.0404704 12.4782926,14.6520609 12,14.9282032 C11.5217074,15.2043456 10.910117,15.0404704 10.6339746,14.5621778 L10.1339746,13.6961524 C9.85783222,13.2178598 10.0217074,12.6062694 10.5,12.330127 C10.9782926,12.0539846 11.589883,12.2178598 11.8660254,12.6961524 Z M5.5,12.330127 C5.97829262,12.6062694 6.14216778,13.2178598 5.8660254,13.6961524 L5.3660254,14.5621778 C5.08988303,15.0404704 4.47829262,15.2043456 4,14.9282032 C3.52170738,14.6520609 3.35783222,14.0404704 3.6339746,13.5621778 L4.1339746,12.6961524 C4.41011697,12.2178598 5.02170738,12.0539846 5.5,12.330127 Z M3.66987298,10.5 C3.94601536,10.9782926 3.7821402,11.589883 3.30384758,11.8660254 L2.43782217,12.3660254 C1.95952955,12.6421678 1.34793914,12.4782926 1.07179677,12 C0.795654395,11.5217074 0.95952955,10.910117 1.43782217,10.6339746 L2.30384758,10.1339746 C2.7821402,9.85783222 3.39373061,10.0217074 3.66987298,10.5 Z M13.6961524,10.1339746 L14.5621778,10.6339746 C15.0404704,10.910117 15.2043456,11.5217074 14.9282032,12 C14.6520609,12.4782926 14.0404704,12.6421678 13.5621778,12.3660254 L12.6961524,11.8660254 C12.2178598,11.589883 12.0539846,10.9782926 12.330127,10.5 C12.6062694,10.0217074 13.2178598,9.85783222 13.6961524,10.1339746 Z M2,7 C2.55228475,7 3,7.44771525 3,8 C3,8.55228475 2.55228475,9 2,9 L1,9 C0.44771525,9 0,8.55228475 0,8 C0,7.44771525 0.44771525,7 1,7 L2,7 Z M15,7 C15.5522847,7 16,7.44771525 16,8 C16,8.55228475 15.5522847,9 15,9 L14,9 C13.4477153,9 13,8.55228475 13,8 C13,7.44771525 13.4477153,7 14,7 L15,7 Z M14.9282032,4 C15.2043456,4.47829262 15.0404704,5.08988303 14.5621778,5.3660254 L13.6961524,5.8660254 C13.2178598,6.14216778 12.6062694,5.97829262 12.330127,5.5 C12.0539846,5.02170738 12.2178598,4.41011697 12.6961524,4.1339746 L13.5621778,3.6339746 C14.0404704,3.35783222 14.6520609,3.52170738 14.9282032,4 Z M2.43782217,3.6339746 L3.30384758,4.1339746 C3.7821402,4.41011697 3.94601536,5.02170738 3.66987298,5.5 C3.39373061,5.97829262 2.7821402,6.14216778 2.30384758,5.8660254 L1.43782217,5.3660254 C0.95952955,5.08988303 0.795654395,4.47829262 1.07179677,4 C1.34793914,3.52170738 1.95952955,3.35783222 2.43782217,3.6339746 Z M5.3660254,1.43782217 L5.8660254,2.30384758 C6.14216778,2.7821402 5.97829262,3.39373061 5.5,3.66987298 C5.02170738,3.94601536 4.41011697,3.7821402 4.1339746,3.30384758 L3.6339746,2.43782217 C3.35783222,1.95952955 3.52170738,1.34793914 4,1.07179677 C4.47829262,0.795654395 5.08988303,0.95952955 5.3660254,1.43782217 Z M12,1.07179677 C12.4782926,1.34793914 12.6421678,1.95952955 12.3660254,2.43782217 L11.8660254,3.30384758 C11.589883,3.7821402 10.9782926,3.94601536 10.5,3.66987298 C10.0217074,3.39373061 9.85783222,2.7821402 10.1339746,2.30384758 L10.6339746,1.43782217 C10.910117,0.95952955 11.5217074,0.795654395 12,1.07179677 Z M8,2.27373675e-13 C8.55228475,2.27272222e-13 9,0.44771525 9,1 L9,2 C9,2.55228475 8.55228475,3 8,3 C7.44771525,3 7,2.55228475 7,2 L7,1 C7,0.44771525 7.44771525,2.27475129e-13 8,2.27373675e-13 Z" id="Combined-Shape">
                <animateTransform attributeName="transform" type="rotate" repeatCount="indefinite" dur="5s" keyTimes="0;1" values="0 8 8;360 8 8"></animateTransform>
                </path>
            </g>
        </g>
        
    </g>
</svg>
