<svg id="Layer_1" data-name="Layer 1" xmlns="http://www.w3.org/2000/svg" xmlns:xlink="http://www.w3.org/1999/xlink"
     width="24" height="24" viewBox="0 0 24 24">
    <defs>
        <clipPath id="clip-path" transform="translate(0 0)">
            <path d="M2.13,21.56c-.11-2.4.24-3.7,1.07-4.63l.15-.16,1.07,1.07a3.46,3.46,0,0,0-.79,2.62v.31H4a3.87,3.87,0,0,0,2.51-.69l.1-.1L7.63,21c-.86.86-2.09,1.26-4.34,1.24H2.86l-.7,0Zm1.14-7A1.53,1.53,0,0,1,3,12.73a1.51,1.51,0,0,1,.18-.26l.54-.63.52-.61L1.1,8.06l.53-.54a8,8,0,0,1,7.25-2l.18,0,.69-.82A8.78,8.78,0,0,1,21,3l.3.19A8.74,8.74,0,0,1,19.63,14.6l-1.13,1a7.89,7.89,0,0,1-2,6.81l-.54.54-2.79-2.79L11.9,21.18a1.51,1.51,0,0,1-2.06-.07Zm11,4.6,1.6,1.59.13-.18a6.3,6.3,0,0,0,1-3.77Zm5.57-15a7.25,7.25,0,0,0-8.74,1.41l-.23.26L6.3,11.12l7,7,5.38-4.61a7.22,7.22,0,0,0,1.68-8.89l-.18-.31ZM3.46,8l-.18.13,2,2L7.9,7A6.57,6.57,0,0,0,3.46,8Zm11.32-.5a1.51,1.51,0,1,1,0,2.14,1.51,1.51,0,0,1,0-2.14Z"
                  style="fill:none"/>
        </clipPath>
    </defs>
    <title>deploy-black</title>
    <g id="Icon_Sidebar_Deploy_2" data-name="Icon Sidebar Deploy 2">
        <g id="Group_18" data-name="Group 18">
            <path id="Combined_Shape-2" data-name="Combined Shape-2"
                  d="M2.13,21.56c-.11-2.4.24-3.7,1.07-4.63l.15-.16,1.07,1.07a3.46,3.46,0,0,0-.79,2.62v.31H4a3.87,3.87,0,0,0,2.51-.69l.1-.1L7.63,21c-.86.86-2.09,1.26-4.34,1.24H2.86l-.7,0Zm1.14-7A1.53,1.53,0,0,1,3,12.73a1.51,1.51,0,0,1,.18-.26l.54-.63.52-.61L1.1,8.06l.53-.54a8,8,0,0,1,7.25-2l.18,0,.69-.82A8.78,8.78,0,0,1,21,3l.3.19A8.74,8.74,0,0,1,19.63,14.6l-1.13,1a7.89,7.89,0,0,1-2,6.81l-.54.54-2.79-2.79L11.9,21.18a1.51,1.51,0,0,1-2.06-.07Zm11,4.6,1.6,1.59.13-.18a6.3,6.3,0,0,0,1-3.77Zm5.57-15a7.25,7.25,0,0,0-8.74,1.41l-.23.26L6.3,11.12l7,7,5.38-4.61a7.22,7.22,0,0,0,1.68-8.89l-.18-.31ZM3.46,8l-.18.13,2,2L7.9,7A6.57,6.57,0,0,0,3.46,8Zm11.32-.5a1.51,1.51,0,1,1,0,2.14,1.51,1.51,0,0,1,0-2.14Z"
                  transform="translate(0 0)" style="fill:#1d1d27"/>
            <g style="clip-path:url(#clip-path)">
                <g id="Mask_Group_18" data-name="Mask Group 18">
                    <rect id="Color" width="24" height="24" style="fill:white"/>
                </g>
            </g>
        </g>
    </g>
</svg>
