<?xml version="1.0" encoding="UTF-8"?>
<svg width="20px" height="15px" viewBox="-6 0 20 15" version="1.1" xmlns="http://www.w3.org/2000/svg" xmlns:xlink="http://www.w3.org/1999/xlink">
    <title>8614DBAE-28CA-4232-8A97-2E88039511AE</title>
    <g id="Apps" stroke="none" stroke-width="1" fill="none" fill-rule="evenodd">
        <g id="apps-select-item-enter" transform="translate(-1109.000000, -405.000000)">
            <g id="Table/Row/Default" transform="translate(216.000000, 384.000000)">
                <g id="Button/40/Circle/Default" transform="translate(880.000000, 8.000000)">
                    <g id="Icon/More-Copy-2" transform="translate(13.000000, 13.000000)">
                        <path d="M5.32258065,0 L7.28612852,3.56266621 C7.7347019,3.4417953 8.20161671,3.37931034 8.67741935,3.37931034 C11.6169995,3.37931034 14,5.75683271 14,8.68965517 C14,11.6224776 11.6169995,14 8.67741935,14 C6.06999766,14 3.90048028,12.1294188 3.44348154,9.65994068 L0,9.65946128 L5.32258065,0 Z M8.67741935,4.34482759 C8.36864026,4.34482759 8.06473986,4.37686937 7.76939439,4.43931104 L10.6451613,9.65946128 L4.43147165,9.65947043 C4.87312136,11.5921967 6.60645028,13.0344828 8.67741935,13.0344828 C11.0825304,13.0344828 13.0322581,11.0892372 13.0322581,8.68965517 C13.0322581,6.29007316 11.0825304,4.34482759 8.67741935,4.34482759 Z M5.32258065,2.00344828 L1.63645161,8.69351724 L3.354,8.693 L3.35483871,8.68965517 L4.32258065,8.68965517 L4.322,8.693 L9.00774194,8.69351724 L6.833,4.746 L6.81849629,4.73812332 C6.76454359,4.6795379 6.63571434,4.42243088 6.53537986,4.2061076 L5.32258065,2.00344828 Z" id="path-1"></path>
                        <use id="Combined-Shape-Copy-2" fill="#5567D5" fill-rule="nonzero" xlink:href="#path-1"></use>
                    </g>
                </g>
            </g>
        </g>
    </g>
</svg>
