<?xml version="1.0" encoding="UTF-8"?>
<svg width="20px" height="20px" viewBox="0 0 20 20" version="1.1" xmlns="http://www.w3.org/2000/svg" xmlns:xlink="http://www.w3.org/1999/xlink">
    <title>5FB250C3-ED70-43EA-8905-45D5F5506FE7</title>
    <g id="Apps" stroke="none" stroke-width="1" fill="none" fill-rule="evenodd">
        <g id="apps-create-" transform="translate(-614.000000, -334.000000)">
            <g id="create" transform="translate(504.000000, 120.000000)">
                <g id="Card/Mode/Default" transform="translate(72.000000, 176.000000)">
                    <g id="Icon/20/Develope" transform="translate(38.000000, 38.000000)">
                        <path d="M7.36842105,0 L10.3892875,5.61074849 C11.1058886,5.38208808 11.8603805,5.26315789 12.6315789,5.26315789 C16.7010455,5.26315789 20,8.56211237 20,12.6315789 C20,16.7010455 16.7010455,20 12.6315789,20 C8.91975227,20 5.84895782,17.2554147 5.33788057,13.6849291 L0,13.6842105 L7.36842105,0 Z M12.6315789,7.10526316 C12.1710608,7.10526316 11.7192467,7.16149954 11.2836158,7.27058525 L14.7368421,13.6842105 L7.20552115,13.6848749 C7.69728772,16.2331971 9.93966472,18.1578947 12.6315789,18.1578947 C15.6836789,18.1578947 18.1578947,15.6836789 18.1578947,12.6315789 C18.1578947,9.57947901 15.6836789,7.10526316 12.6315789,7.10526316 Z" id="path-1"></path>
                        <use id="Combined-Shape" fill="#5567D5" fill-rule="nonzero" xlink:href="#path-1"></use>
                    </g>
                </g>
            </g>
        </g>
    </g>
</svg>
