<?xml version="1.0" encoding="utf-8"?>
<svg version="1.1" id="Layer_1" xmlns="http://www.w3.org/2000/svg" xmlns:xlink="http://www.w3.org/1999/xlink" x="0px" y="0px" viewBox="0 0 36.5 35.5">
	<g>
		<circle fill="#FE523C" cx="14.2" cy="21.3" r="14.2" />
		<path id="icon" fill="#fff" d="M18.8,27.3H9c-0.5,0-0.9-0.4-0.9-0.9c0-0.2,0-0.3,0.1-0.4l4.9-8.6c0.2-0.3,0.4-0.4,0.7-0.4
		c0.1,0,0.3,0,0.4,0.1c0.1,0.1,0.2,0.2,0.3,0.3l4.9,8.6c0.2,0.4,0.1,0.9-0.3,1.2C19,27.2,18.9,27.3,18.8,27.3z M13.9,25.1
		c-0.4,0-0.7,0.3-0.7,0.7s0.3,0.7,0.7,0.7c0.4,0,0.7-0.3,0.7-0.7C14.6,25.4,14.3,25.1,13.9,25.1z M13.9,19.4c-0.4,0-0.7,0.3-0.7,0.7
		v3.6c0,0.4,0.3,0.7,0.7,0.7c0.4,0,0.7-0.3,0.7-0.7v-3.6C14.6,19.7,14.3,19.4,13.9,19.4L13.9,19.4z" />
		<g transform="matrix(1, 0, 0, 1, 0, 0)">
			<circle id="Oval-2" fill="#FFFFFF" stroke="#FE523C" stroke-width="1" cx="24.8" cy="8.2" r="7.6" />
		</g>
		<text transform="matrix(1 0 0 1 21.5557 11.4199)" fill="#40404B">4</text>
	</g>
</svg>
