<?xml version="1.0" encoding="UTF-8"?>
<svg width="16px" height="16px" viewBox="0 0 16 16" version="1.1" xmlns="http://www.w3.org/2000/svg" xmlns:xlink="http://www.w3.org/1999/xlink">
    <title>48AF6B95-38D9-4E0F-B2E7-5D1D32AA3690</title>
    <g id="Home" stroke="none" stroke-width="1" fill="none" fill-rule="evenodd">
        <g id="new-remote-apps-listing" transform="translate(-1173.000000, -316.000000)" fill="#5567D5" fill-rule="nonzero">
            <g id="Button/Rounded/32-with-icon/Default-Copy-3" transform="translate(1165.000000, 308.000000)">
                <g id="Icon/Clear" transform="translate(8.000000, 8.000000)">
                    <path fill="#ffffff" d="M14.7922923,4.81571632 C15.2562184,5.80370473 15.5,6.88507003 15.5,8 C15.5,12.1421356 12.1421356,15.5 8,15.5 C6.87728023,15.5 5.78863939,15.252796 4.79519151,14.7826164 C4.54559224,14.6644859 4.43901573,14.366382 4.55714622,14.1167828 C4.67527671,13.8671835 4.97338059,13.760607 5.22297986,13.8787375 C6.08339073,14.2859532 7.02601323,14.5 8,14.5 C11.5898509,14.5 14.5,11.5898509 14.5,8 C14.5,7.03276428 14.2889147,6.09643296 13.8871175,5.24075595 C13.7697461,4.99079885 13.877228,4.69302022 14.1271851,4.57564877 C14.3771422,4.45827731 14.6749208,4.56575921 14.7922923,4.81571632 Z M14.373695,1.67377347 C14.547581,1.8470196 14.5673627,2.116408 14.4327261,2.31152464 L14.3749984,2.38087905 L2.38978797,14.4103543 C2.19488607,14.605976 1.87830412,14.6065595 1.68268239,14.4116576 C1.50879641,14.2384115 1.48901468,13.9690231 1.62365131,13.7739065 L1.68137902,13.704552 L13.6665894,1.67507684 C13.8614913,1.47945511 14.1780733,1.47887157 14.373695,1.67377347 Z M8,0.5 C9.12934037,0.5 10.2241613,0.750131574 11.2222273,1.22565511 C11.4715207,1.34442971 11.5773271,1.64280778 11.4585525,1.8921012 C11.3397779,2.14139461 11.0413998,2.24720102 10.7921064,2.12842643 C9.92769099,1.71658004 8.9797245,1.5 8,1.5 C4.41014913,1.5 1.5,4.41014913 1.5,8 C1.5,8.98385616 1.7184135,9.93566911 2.13360874,10.8029575 C2.25284657,11.0520297 2.14759503,11.3506039 1.89852285,11.4698417 C1.64945067,11.5890796 1.35087642,11.483828 1.23163859,11.2347559 C0.75225041,10.2333769 0.5,9.13410779 0.5,8 C0.5,3.85786438 3.85786438,0.5 8,0.5 Z" id="Shape"></path>
                </g>
            </g>
        </g>
    </g>
</svg>
