<?xml version="1.0" encoding="utf-8"?>
<!-- Generator: Adobe Illustrator 24.2.0, SVG Export Plug-In . SVG Version: 6.00 Build 0)  -->
<svg version="1.1" id="Layer_1" xmlns="http://www.w3.org/2000/svg" xmlns:xlink="http://www.w3.org/1999/xlink" x="0px" y="0px"
   viewBox="0 0 18 18" style="enable-background:new 0 0 18 18;" xml:space="preserve">
<path fill="#8D91A3" id="Mask" d="M0,9c0-5,4-9,9-9s9,4,9,9s-4,9-9,9C4,18,0,14,0,9z M1,9c0,4.4,3.6,8,8,8s8-3.6,8-8s-3.6-8-8-8C4.6,1,1,4.6,1,9z
   M9.6,10.4L7,12.9l0,0l-2.2-2.1l2.6-2.6L3,3.8L3.8,3l4.5,4.5l3.2-3.1c0.5-0.4,1.2-0.4,1.7,0l0.6,0.5c0.4,0.4,0.5,1.1,0,1.6
  c0,0,0,0,0,0l-3.2,3.2l4.6,4.6L14.2,15L9.6,10.4z M4.2,14C4.1,14,4,13.9,4,13.8v-1.5c0-0.3,0.1-0.5,0.3-0.8l2.2,2.2
  C6.3,13.9,6,14,5.7,14H4.2z"/>
</svg>
