<?xml version="1.0" encoding="UTF-8"?>
<svg width="32px" height="32px" viewBox="0 0 32 32" version="1.1" xmlns="http://www.w3.org/2000/svg" xmlns:xlink="http://www.w3.org/1999/xlink">
    <defs>
        <path d="M9,0 C13.9705627,0 18,4.02943725 18,9 C18,13.9705627 13.9705627,18 9,18 C4.02943725,18 0,13.9705627 0,9 C0,4.02943725 4.02943725,0 9,0 Z M9,1 C4.581722,1 1,4.581722 1,9 C1,13.418278 4.581722,17 9,17 C13.418278,17 17,13.418278 17,9 C17,4.581722 13.418278,1 9,1 Z M3.80129098,3 L8.253,7.458 L11.4554668,4.33141421 C11.9116048,3.8895286 12.6511509,3.8895286 13.107289,4.33141421 L13.6578964,4.86481733 C14.1140345,5.30670294 14.1140345,6.02314108 13.6578964,6.46502669 L10.419,9.626 L15,14.2129358 L14.198709,15 L9.615,10.411 L7.034,12.931 L4.83333333,10.7987089 L7.45,8.243 L3,3.78706424 L3.80129098,3 Z M4.28081232,11.5 L6.5,13.7191877 C6.28750503,13.8997988 6.01689863,14 5.73596121,14 L4.19663312,14 C4.08803565,14 4,13.9119644 4,13.8033669 L4,12.2640388 C4,11.9831014 4.1002012,11.712495 4.28081232,11.5 Z" id="path-1"></path>
    </defs>
    <g id="Develop" stroke="none" stroke-width="1" fill="none" fill-rule="evenodd">
        <g id="develop-split-readonly-collapse" transform="translate(-680.000000, -72.000000)">
            <g id="Badge/Inactive/Hover" transform="translate(680.000000, 72.000000)">
                <rect id="Rectangle" fill="#E6E7EC" x="0" y="0" width="32" height="32" rx="16"></rect>
                <g id="Icon/Controls/Edit-Copy-3" transform="translate(7.000000, 7.000000)">
                    <mask id="mask-2" fill="white">
                        <use xlink:href="#path-1"></use>
                    </mask>
                    <use id="Mask" fill="#000000" fill-rule="nonzero" style="mix-blend-mode: multiply;" xlink:href="#path-1"></use>
                    <rect id="Color" fill="#40404B" fill-rule="nonzero" mask="url(#mask-2)" x="0" y="0" width="18" height="18"></rect>
                </g>
            </g>
        </g>
    </g>
</svg>
