<svg id="Icon_Controls_Edit_Copy_2" data-name="Icon/Controls/Edit Copy 2" xmlns="http://www.w3.org/2000/svg" xmlns:xlink="http://www.w3.org/1999/xlink" x="0" y="0" width="18" height="18" viewBox="0 0 18 18">
  <defs>
    <clipPath id="clip-path">
      <path id="Mask" d="M0,9a9,9,0,1,1,9,9A9.01,9.01,0,0,1,0,9ZM1,9A8,8,0,1,0,9,1,8.01,8.01,0,0,0,1,9Zm8.615,1.411-2.581,2.52h0L4.833,10.8,7.45,8.243,3,3.787,3.8,3,8.254,7.457l3.2-3.127a1.195,1.195,0,0,1,1.651,0l.551.534a1.1,1.1,0,0,1,0,1.6L10.42,9.626,15,14.213,14.2,15ZM4.2,14a.2.2,0,0,1-.2-.2v-1.54A1.182,1.182,0,0,1,4.28,11.5L6.5,13.719A1.175,1.175,0,0,1,5.736,14Z" fill="#fff" opacity="0.347"/>
    </clipPath>
  </defs>
  <g id="Group_114" data-name="Group 114">
    <path id="Mask-2" data-name="Mask" d="M0,9a9,9,0,1,1,9,9A9.01,9.01,0,0,1,0,9ZM1,9A8,8,0,1,0,9,1,8.01,8.01,0,0,0,1,9Zm8.615,1.411-2.581,2.52h0L4.833,10.8,7.45,8.243,3,3.787,3.8,3,8.254,7.457l3.2-3.127a1.195,1.195,0,0,1,1.651,0l.551.534a1.1,1.1,0,0,1,0,1.6L10.42,9.626,15,14.213,14.2,15ZM4.2,14a.2.2,0,0,1-.2-.2v-1.54A1.182,1.182,0,0,1,4.28,11.5L6.5,13.719A1.175,1.175,0,0,1,5.736,14Z" fill="#fff" opacity="0.347"/>
  </g>
</svg>
