<svg xmlns="http://www.w3.org/2000/svg" xmlns:xlink="http://www.w3.org/1999/xlink" viewBox="0 0 16.092 14" width="16.092pt" height="14pt">
    <defs>
        <clipPath id="_clipPath_dDaWRDZJuHLLaKC3WoYmvGFDsBxWLiZi">
            <rect width="16.092" height="14"/>
        </clipPath>
    </defs>
    <g clip-path="url(#_clipPath_dDaWRDZJuHLLaKC3WoYmvGFDsBxWLiZi)">
        <path d=" M 8.121 12.787 L 8.11 12.799 L 8.098 12.786 L 8.083 12.799 L 6.386 11.384 L 6.407 11.367 L 2.294 7.959 C 2.106 7.773 2 7.518 2 7.253 C 2 6.988 2.106 6.734 2.294 6.547 C 2.809 6.207 3.476 6.207 3.991 6.547 L 6.78 8.856 L 6.78 2.361 C 6.832 1.674 7.427 1.156 8.114 1.201 C 8.802 1.156 9.397 1.674 9.448 2.361 L 9.448 8.856 L 12.232 6.548 C 12.747 6.208 13.415 6.208 13.93 6.548 C 14.118 6.735 14.223 6.989 14.223 7.254 C 14.223 7.519 14.118 7.774 13.93 7.961 L 9.811 11.367 L 9.833 11.384 L 8.136 12.799 L 8.121 12.787 Z " fill="rgb(85,103,213)"/>
        <clipPath id="_clipPath_fkZzZ8qpjibqR0wVN82GdWGM8RzoLQPM">
            <path d=" M 1 14 C 0.448 14 0 13.552 0 13 C 0 12.448 0.448 12 1 12 L 15.092 12 C 15.644 12 16.092 12.448 16.092 13 C 16.092 13.552 15.644 14 15.092 14 L 1 14 Z  M 8.056 9.989 L 8.046 10 L 8.036 9.988 L 8.023 10 L 6.56 8.78 L 6.578 8.765 L 3.032 5.827 C 2.87 5.666 2.778 5.447 2.778 5.218 C 2.778 4.989 2.87 4.77 3.032 4.609 C 3.476 4.316 4.051 4.316 4.495 4.609 L 6.9 6.6 L 6.9 1 C 6.944 0.408 7.457 -0.038 8.05 0 C 8.643 -0.039 9.156 0.407 9.2 1 L 9.2 6.6 L 11.6 4.61 C 12.044 4.317 12.62 4.317 13.064 4.61 C 13.226 4.771 13.317 4.99 13.317 5.219 C 13.317 5.448 13.226 5.667 13.064 5.828 L 9.513 8.765 L 9.532 8.78 L 8.069 10 L 8.056 9.989 Z " fill="rgb(255,255,255)"/>
        </clipPath>
        <g clip-path="url(#_clipPath_fkZzZ8qpjibqR0wVN82GdWGM8RzoLQPM)"/>
    </g>
</svg>
