<?xml version="1.0" encoding="UTF-8"?>
<svg width="16px" height="15px" viewBox="0 0 16 15" version="1.1" xmlns="http://www.w3.org/2000/svg" xmlns:xlink="http://www.w3.org/1999/xlink">
    <g id="API" stroke="none" stroke-width="1" fill="none" fill-rule="evenodd">
        <g id="Portal-Definition" transform="translate(-584.000000, -177.000000)" fill="#5567D5" fill-rule="nonzero">
            <g id="Button/Pill/32-with-icon/Default-Copy" transform="translate(576.000000, 168.000000)">
                <g id="Icon/Clear" transform="translate(8.000000, 9.000000)">
                    <path d="M15,11.5 C15.2454599,11.5 15.4496084,11.6768752 15.4919443,11.9101244 L15.5,12 L15.5,13 C15.5,13.7796961 14.9051119,14.4204487 14.14446,14.4931334 L14,14.5 L2,14.5 C1.22030388,14.5 0.579551322,13.9051119 0.506866578,13.14446 L0.5,13 L0.5,12 C0.5,11.7238576 0.723857625,11.5 1,11.5 C1.24545989,11.5 1.44960837,11.6768752 1.49194433,11.9101244 L1.5,12 L1.5,13 C1.5,13.2454599 1.67687516,13.4496084 1.91012437,13.4919443 L2,13.5 L14,13.5 C14.2454599,13.5 14.4496084,13.3231248 14.4919443,13.0898756 L14.5,13 L14.5,12 C14.5,11.7238576 14.7238576,11.5 15,11.5 Z M8,1.0125234e-13 C8.27614237,1.01201613e-13 8.5,0.223857625 8.5,0.5 L8.49955339,8.792 L11.2928984,6.00000518 C11.4881548,5.80474303 11.8047327,5.8047384 11.9999948,5.99999482 C12.1952621,6.19526215 12.1952621,6.51184464 12,6.70710678 L8,10.7071068 L4,6.70710678 C3.80473785,6.51184464 3.80473785,6.19526215 4,6 C4.19525929,5.80474071 4.51183714,5.80474071 4.70709643,6 L4.7071016,6.00000518 L7.49955339,8.792 L7.5,0.5 C7.5,0.223857625 7.72385763,1.01303066e-13 8,1.0125234e-13 Z" id="Combined-Shape"></path>
                </g>
            </g>
        </g>
    </g>
</svg>
