<svg id="Button_Rounded_32_icon_Default" data-name="Button/Rounded/32 icon/Default" xmlns="http://www.w3.org/2000/svg" xmlns:xlink="http://www.w3.org/1999/xlink" width="32" height="32" viewBox="0 0 32 32">
  <defs>
    <clipPath id="clip-path">
      <path id="Combined_Shape" data-name="Combined Shape" d="M2.5,13A2.5,2.5,0,0,1,.005,10.664L0,10.5v-8A2.5,2.5,0,0,1,2.336.005L2.5,0h4a.5.5,0,0,1,.09.992L6.5,1h-4A1.5,1.5,0,0,0,1.007,2.355L1,2.5v8a1.5,1.5,0,0,0,1.355,1.493L2.5,12h8a1.5,1.5,0,0,0,1.493-1.355L12,10.5v-4a.5.5,0,0,1,.992-.09L13,6.5v4A2.5,2.5,0,0,1,10.664,13L10.5,13ZM3.8,9.694v0l.968-3.721L9.192,1.16a1.872,1.872,0,0,1,2.648-.015,1.961,1.961,0,0,1,.06,2.74L7.465,8.673,3.8,9.694ZM9.909,1.857,5.672,6.464l-.47,1.8,1.72-.478L11.166,3.2a.965.965,0,0,0,.05-1.26l-.079-.089a.87.87,0,0,0-.616-.253A.853.853,0,0,0,9.909,1.857Z" transform="translate(1.5 1.5)" fill="#979797"/>
    </clipPath>
  </defs>
  <path id="Combined_Shape-2" data-name="Combined Shape" d="M16,32A16,16,0,0,1,4.686,4.686,16,16,0,1,1,27.314,27.314,15.9,15.9,0,0,1,16,32ZM16,1A15,15,0,0,0,5.393,26.607,15,15,0,0,0,26.607,5.393,14.9,14.9,0,0,0,16,1Z" fill="rgba(83,192,138,0.85)"/>
  <g id="Icon_Clear" data-name="Icon/Clear" transform="translate(8 8)">
    <g id="Group_130" data-name="Group 130">
      <path id="Combined_Shape-3" data-name="Combined Shape" d="M2.5,13A2.5,2.5,0,0,1,.005,10.664L0,10.5v-8A2.5,2.5,0,0,1,2.336.005L2.5,0h4a.5.5,0,0,1,.09.992L6.5,1h-4A1.5,1.5,0,0,0,1.007,2.355L1,2.5v8a1.5,1.5,0,0,0,1.355,1.493L2.5,12h8a1.5,1.5,0,0,0,1.493-1.355L12,10.5v-4a.5.5,0,0,1,.992-.09L13,6.5v4A2.5,2.5,0,0,1,10.664,13L10.5,13ZM3.8,9.694v0l.968-3.721L9.192,1.16a1.872,1.872,0,0,1,2.648-.015,1.961,1.961,0,0,1,.06,2.74L7.465,8.673,3.8,9.694ZM9.909,1.857,5.672,6.464l-.47,1.8,1.72-.478L11.166,3.2a.965.965,0,0,0,.05-1.26l-.079-.089a.87.87,0,0,0-.616-.253A.853.853,0,0,0,9.909,1.857Z" transform="translate(1.5 1.5)" fill="#979797"/>
      <g id="Mask_Group_135" data-name="Mask Group 135" clip-path="url(#clip-path)">
        <rect id="Color" width="16" height="16" fill="#36b475"/>
      </g>
    </g>
  </g>
</svg>
