<?xml version="1.0" encoding="UTF-8"?>
<svg width="14px" height="14px" viewBox="0 0 14 14" version="1.1" xmlns="http://www.w3.org/2000/svg" xmlns:xlink="http://www.w3.org/1999/xlink">
    <title>DF096D74-E001-44E5-AD84-904EF7DC0D9D</title>
    <defs>
        <path d="M7,0.5 C7.27614237,0.5 7.5,0.723857625 7.5,1 C7.5,1.24545989 7.32312484,1.44960837 7.08987563,1.49194433 L7,1.5 L3,1.5 C2.22030388,1.5 1.57955132,2.09488808 1.50686658,2.85553999 L1.5,3 L1.5,11 C1.5,11.7796961 2.09488808,12.4204487 2.85553999,12.4931334 L3,12.5 L11,12.5 C11.7796961,12.5 12.4204487,11.9051119 12.4931334,11.14446 L12.5,11 L12.5,7 C12.5,6.72385763 12.7238576,6.5 13,6.5 C13.2454599,6.5 13.4496084,6.67687516 13.4919443,6.91012437 L13.5,7 L13.5,11 C13.5,12.3254834 12.4684641,13.4100387 11.1643757,13.4946823 L11,13.5 L3,13.5 C1.6745166,13.5 0.589961328,12.4684641 0.50531768,11.1643757 L0.5,11 L0.5,3 C0.5,1.6745166 1.53153594,0.589961328 2.83562431,0.50531768 L3,0.5 L7,0.5 Z M9.69180465,1.66003971 C10.4187451,0.92467229 11.6041798,0.917840849 12.3395472,1.64478126 C13.0955682,2.39213855 13.1223059,3.60452133 12.3999681,4.3844821 L12.3999681,4.3844821 L7.96480412,9.17345221 L4.29716188,10.1939168 L5.26686995,6.47163446 Z M11.636527,2.35595116 C11.2939279,2.01727807 10.7416476,2.02046076 10.4092892,2.35655515 L10.4092892,2.35655515 L6.172,6.964 L5.702,8.764 L7.422,8.286 L11.6662787,3.70499717 C11.9946021,3.35048245 12.0086395,2.81453852 11.7160563,2.44473865 L11.7160563,2.44473865 Z" id="path-1"></path>
    </defs>
    <g id="Test" stroke="none" stroke-width="1" fill="none" fill-rule="evenodd">
        <g id="test-open-collection" transform="translate(-1321.000000, -588.000000)">
            <g id="Icon/Delete-app" transform="translate(1321.000000, 588.000000)">
                <mask id="mask-2" fill="white">
                    <use xlink:href="#path-1"></use>
                </mask>
                <use id="Combined-Shape" fill="#979797" fill-rule="nonzero" xlink:href="#path-1"></use>
                <rect id="Color" fill="#CBCEDB" fill-rule="nonzero" mask="url(#mask-2)" x="-1" y="-1" width="16" height="16"></rect>
            </g>
        </g>
    </g>
</svg>
