<svg id="Icon_User" data-name="Icon/User" xmlns="http://www.w3.org/2000/svg" xmlns:xlink="http://www.w3.org/1999/xlink" width="16" height="16" viewBox="0 0 26 16">
  <defs>
    <clipPath id="clip-path">
      <path id="envelope" d="M1.06,12,6,7.06,7.47,8.53a.75.75,0,0,0,1.06,0L10,7.06,14.94,12Zm10-6L16,1.06v9.88ZM0,1.06,4.94,6,0,10.94ZM1.06,0H14.94L8,6.94Z" transform="translate(0 2)" fill="#F8C2C2"/>
    </clipPath>
  </defs>
  <g id="Group_13" data-name="Group 13">
    <path id="envelope-2" data-name="envelope" d="M1.06,12,6,7.06,7.47,8.53a.75.75,0,0,0,1.06,0L10,7.06,14.94,12Zm10-6L16,1.06v9.88ZM0,1.06,4.94,6,0,10.94ZM1.06,0H14.94L8,6.94Z" transform="translate(0 2)" fill="#F8C2C2"/>
    <g id="Mask_Group_15" data-name="Mask Group 15" clip-path="url(#clip-path)">
      <rect id="Color" width="16" height="16" fill="#F8C2C2"/>
    </g>
  </g>
</svg>
