<svg width="20" height="20" viewBox="0 0 20 20" fill="none" xmlns="http://www.w3.org/2000/svg">
    <path fill-rule="evenodd" clip-rule="evenodd" d="M1.875 3.125H18.125C19.1605 3.125 20 3.96447 20 5V15C20 16.0355 19.1605 16.875 18.125 16.875H1.875C0.839466 16.875 0 16.0355 0 15V5C0 3.96447 0.839466 3.125 1.875 3.125ZM2.40674 4.375H17.5933L10.3904 10.1373L10.2873 10.2043C10.0715 10.3161 9.80522 10.2938 9.60956 10.1373L2.40674 4.375ZM1.25 14.4496V5.05039L7.12451 9.75L1.25 14.4496ZM1.78906 15.6191C1.81716 15.623 1.84584 15.625 1.875 15.625H18.125C18.1542 15.625 18.1828 15.623 18.2109 15.6191L11.875 10.5504L11.1713 11.1133C10.5354 11.622 9.65102 11.6584 8.97964 11.2224L8.8287 11.1133L8.125 10.5504L1.78906 15.6191ZM12.8755 9.75L18.75 14.4496V5.05039L12.8755 9.75Z" fill="#40404B"/>
</svg>