<?xml version="1.0" encoding="UTF-8"?>
<svg width="16px" height="16px" viewBox="0 0 16 16" version="1.1" xmlns="http://www.w3.org/2000/svg" xmlns:xlink="http://www.w3.org/1999/xlink">
    <title>4EA72307-6CC1-4190-965E-AC48CEA7E81A</title>
    <g id="Manage" stroke="none" stroke-width="1" fill="none" fill-rule="evenodd">
        <g id="manage-overview" transform="translate(-616.000000, -176.000000)" fill="#5567D5" fill-rule="nonzero">
            <g id="Icon/Apps/Webhook-Copy-8" transform="translate(616.000000, 176.249058)">
                <path d="M9.99345493,5.26263447 C10.7731511,5.26263447 11.4139036,5.85752256 11.4865884,6.61817446 L11.4934549,6.76263447 L11.4934549,14.2509419 C11.4934549,15.0306381 10.8985668,15.6713906 10.1379149,15.7440754 L9.99345493,15.7509419 L1.5,15.7509419 C0.720303883,15.7509419 0.0795513218,15.1560539 0.00686657806,14.395402 L0,14.2509419 L0,6.76263447 C0,5.98293835 0.594888083,5.34218579 1.35553999,5.26950105 L1.5,5.26263447 L9.99345493,5.26263447 Z M9.8023777,6.49274416 L1.76724148,6.49274416 C1.52178159,6.49274416 1.31763311,6.66961932 1.27529715,6.90286853 L1.26724148,6.99274416 L1.26724148,13.9665677 C1.26724148,14.2120276 1.44411664,14.4161761 1.67736585,14.458512 L1.76724148,14.4665677 L9.8023777,14.4665677 C10.0478376,14.4665677 10.2519861,14.2896926 10.294322,14.0564433 L10.3023777,13.9665677 L10.3023777,6.99274416 C10.3023777,6.71660179 10.0785201,6.49274416 9.8023777,6.49274416 Z M5.65081791,11.2560093 C5.92696029,11.2560093 6.15081791,11.4798669 6.15081791,11.7560093 C6.15081791,12.0014692 5.97394275,12.2056177 5.74069354,12.2479536 L5.65081791,12.2560093 L2.98546886,12.2560093 C2.70932649,12.2560093 2.48546886,12.0321517 2.48546886,11.7560093 C2.48546886,11.5105494 2.66234403,11.3064009 2.89559323,11.264065 L2.98546886,11.2560093 L5.65081791,11.2560093 Z M10.0705524,0.0235353377 C10.4058739,0.113384476 10.6162292,0.436818437 10.5734615,0.771863392 L10.5554256,0.863360392 L10.3691176,1.55964377 C11.0380516,1.8146849 11.6455237,2.16997797 12.1787027,2.60329858 L12.6871078,2.0940877 C12.9548959,1.82629961 13.3890662,1.82629961 13.6568542,2.0940877 C13.9023267,2.33956011 13.9227827,2.72483978 13.7182224,2.9936134 L13.6568542,3.06383414 L13.1467437,3.5729904 C13.5878105,4.11724746 13.940777,4.72860339 14.191584,5.38270692 L14.8875816,5.19551637 C15.2533869,5.09749912 15.6293894,5.31458426 15.7274066,5.68038959 C15.8172557,6.01571114 15.6423314,6.35960113 15.3307901,6.49008574 L15.2425334,6.52021464 L14.5473413,6.70590095 C14.6560184,7.3843078 14.6599752,8.08804061 14.5463803,8.79487497 L15.2425334,8.98166925 C15.6083387,9.0796865 15.8254239,9.45568898 15.7274066,9.82149431 C15.6375575,10.1568159 15.3141235,10.3671711 14.9790786,10.3244035 L14.8875816,10.3063675 L14.1912982,10.1200596 L14.1893047,10.122 L12.8549622,9.76916219 C12.9424792,9.55788373 13.0172184,9.33846811 13.0780101,9.11159064 C13.8294756,6.30708313 12.1651562,3.42439741 9.36064869,2.67293189 C7.24381176,2.10572714 5.08243513,2.91484377 3.82661247,4.55174493 L2.84996632,3.57518214 L2.85235663,3.57223926 L2.34314575,3.06383414 C2.07535766,2.79604606 2.07535766,2.36187578 2.34314575,2.0940877 C2.58861816,1.84861529 2.97389783,1.82815925 3.24267145,2.0327196 L3.31289219,2.0940877 L3.82204846,2.60419824 C4.36630551,2.16313149 4.97766144,1.81016499 5.63176497,1.55935792 L5.44457442,0.863360392 C5.34655718,0.497555064 5.56364231,0.12155258 5.92944764,0.0235353377 C6.26476919,-0.066313801 6.60865918,0.108610586 6.7391438,0.42015185 L6.76927269,0.508408559 L6.954959,1.20360067 C7.63336586,1.09492351 8.33709866,1.09096674 9.04393303,1.20456163 L9.23072731,0.508408559 C9.32874455,0.142603231 9.70474703,-0.0744819046 10.0705524,0.0235353377 Z M8.65081791,8.2560093 C8.92696029,8.2560093 9.15081791,8.47986692 9.15081791,8.7560093 C9.15081791,9.00146919 8.97394275,9.20561767 8.74069354,9.24795363 L8.65081791,9.2560093 L2.98546886,9.2560093 C2.70932649,9.2560093 2.48546886,9.03215167 2.48546886,8.7560093 C2.48546886,8.51054941 2.66234403,8.30640093 2.89559323,8.26406497 L2.98546886,8.2560093 L8.65081791,8.2560093 Z" id="Combined-Shape"></path>
            </g>
        </g>
    </g>
</svg>
