<svg xmlns="http://www.w3.org/2000/svg" xmlns:xlink="http://www.w3.org/1999/xlink" width="32" height="32" viewBox="0 0 32 32">
  <defs>
    <clipPath id="clip-path-2">
      <path id="Combined_Shape" data-name="Combined Shape" d="M2,12a2,2,0,0,1-2-2V5A2,2,0,0,1,2,3H7A2,2,0,0,1,9,5v5a2,2,0,0,1-2,2Zm0-2H7V5H2Zm8.007-1.884L10,8V3a1,1,0,0,0-.883-.993L9,2H5A1,1,0,0,1,4.883.006L5,0H9a3,3,0,0,1,3,2.823L12,3V8a1,1,0,0,1-1.993.116Z" fill="#cbcedb"/>
    </clipPath>
  </defs>
  <g id="Icon_12_Plus" data-name="Icon/12/Plus" transform="translate(10 10)">
    <g id="Group_80" data-name="Group 80">
      <path id="Combined_Shape-2" data-name="Combined Shape" d="M2,12a2,2,0,0,1-2-2V5A2,2,0,0,1,2,3H7A2,2,0,0,1,9,5v5a2,2,0,0,1-2,2Zm0-2H7V5H2Zm8.007-1.884L10,8V3a1,1,0,0,0-.883-.993L9,2H5A1,1,0,0,1,4.883.006L5,0H9a3,3,0,0,1,3,2.823L12,3V8a1,1,0,0,1-1.993.116Z" fill="#cbcedb"/>
      <g id="Mask_Group_80" data-name="Mask Group 80" clip-path="url(#clip-path-2)">
        <rect id="Color" width="13.5" height="13.5" fill="#8c91a3"/>
      </g>
    </g>
  </g>
</svg>
