<?xml version="1.0" encoding="UTF-8"?>
<svg width="18px" height="16px" viewBox="0 0 18 16" version="1.1" xmlns="http://www.w3.org/2000/svg" xmlns:xlink="http://www.w3.org/1999/xlink">
    <title>D79D95E9-CE05-400A-9F86-8A11099EAE5C</title>
    <g id="Home" stroke="none" stroke-width="1" fill="none" fill-rule="evenodd">
        <g id="new-integration-started" transform="translate(-734.000000, -128.000000)" fill="#CBCEDB" fill-rule="nonzero">
            <g id="Icon/Controls/Code" transform="translate(734.000000, 128.000000)">
                <path d="M10,0 C14.418278,0 18,3.581722 18,8 C18,12.418278 14.418278,16 10,16 C9.44771525,16 9,15.5522847 9,15 C9,14.4477153 9.44771525,14 10,14 C13.3137085,14 16,11.3137085 16,8 C16,4.6862915 13.3137085,2 10,2 C7.38781865,2 5.16552033,3.66928766 4.34165389,5.99931412 L6.00388908,6 L3.02268219,10 L-4.54303262e-13,6 L2.25212715,5.9996419 C3.14033727,2.54936918 6.2724501,0 10,0 Z M10,3.13675308 C10.5128358,3.13675308 10.9355072,3.52279327 10.9932723,4.02013196 L11,4.13675308 L11,7.585 L13.2096982,9.79548467 C13.5701822,10.1559686 13.5979117,10.7231997 13.2928868,11.1154909 L13.2096982,11.2096982 C12.8492143,11.5701822 12.2819832,11.5979117 11.889692,11.2928868 L11.7954847,11.2096982 L9,8.41421356 L9,4.13675308 C9,3.58446833 9.44771525,3.13675308 10,3.13675308 Z" id="Combined-Shape"></path>
            </g>
        </g>
    </g>
</svg>