<?xml version="1.0" encoding="UTF-8"?>
<svg width="16px" height="16px" viewBox="0 0 16 16" version="1.1" xmlns="http://www.w3.org/2000/svg" xmlns:xlink="http://www.w3.org/1999/xlink">
    <title>977C3950-F2FD-4113-AD0E-AB901540897D</title>
    <g id="Deploy" stroke="none" stroke-width="1" fill="none" fill-rule="evenodd">
        <g id="Deploy-in-progress-(live)" transform="translate(-97.000000, -720.000000)">
            <g id="Icon/Check-Copy-4" transform="translate(97.000000, 720.000000)">
                <rect id="Rectangle-Copy-20" stroke="#EA4C4D" x="0.5" y="0.5" width="15" height="15" rx="7.5"></rect>
                <path d="M8.03578987,4 C8.31193225,4 8.53578987,4.22385763 8.53578987,4.5 L8.535,7.464 L11.5,7.46421013 C11.7761424,7.46421013 12,7.68806775 12,7.96421013 L12,8.03578987 C12,8.31193225 11.7761424,8.53578987 11.5,8.53578987 L8.535,8.535 L8.53578987,11.5 C8.53578987,11.7761424 8.31193225,12 8.03578987,12 L7.96421013,12 C7.68806775,12 7.46421013,11.7761424 7.46421013,11.5 L7.464,8.535 L4.5,8.53578987 C4.22385763,8.53578987 4,8.31193225 4,8.03578987 L4,7.96421013 C4,7.68806775 4.22385763,7.46421013 4.5,7.46421013 L7.464,7.464 L7.46421013,4.5 C7.46421013,4.22385763 7.68806775,4 7.96421013,4 L8.03578987,4 Z" id="Combined-Shape-Copy-2" fill="#EB5556" transform="translate(8.000000, 8.000000) rotate(-315.000000) translate(-8.000000, -8.000000) "></path>
            </g>
        </g>
    </g>
</svg>