<?xml version="1.0" encoding="UTF-8"?>
<svg width="18px" height="18px" viewBox="0 0 18 18" version="1.1" xmlns="http://www.w3.org/2000/svg" xmlns:xlink="http://www.w3.org/1999/xlink">
    <title>716E8434-E7B3-44A6-A496-43816FC72421</title>
    <g id="Apps" stroke="none" stroke-width="1" fill="none" fill-rule="evenodd">
        <g id="apps-feedback" transform="translate(-1073.000000, -23.000000)">
            <g id="Icon/Feedback" transform="translate(1073.000000, 23.000000)">
                <path d="M13.5,2.25 C14.2593915,2.25 14.9468915,2.55780423 15.4445436,3.05545635 C15.9421958,3.55310847 16.25,4.24060847 16.25,5 L16.25,5 L16.25,10 C16.25,10.7593915 15.9421958,11.4468915 15.4445436,11.9445436 C14.9468915,12.4421958 14.2593915,12.75 13.5,12.75 L13.5,12.75 L6,12.75 L2.3994882,17.3840157 L1.75007997,5.02120734 C1.74429079,4.25341345 2.05317569,3.55773702 2.55545635,3.05545635 C3.05310847,2.55780423 3.74060847,2.25 4.5,2.25 L4.5,2.25 Z" id="Rectangle" stroke="#5567D5" stroke-width="1.5" fill-rule="nonzero" transform="translate(9.000000, 9.500000) scale(-1, 1) translate(-9.000000, -9.500000) "></path>
                <circle id="Oval" fill="#5567D5" cx="6" cy="7.5" r="1"></circle>
                <circle id="Oval-Copy" fill="#5567D5" cx="12" cy="7.5" r="1"></circle>
            </g>
        </g>
    </g>
</svg>
