<?xml version="1.0" encoding="UTF-8"?>
<svg width="15px" height="14px" viewBox="0 0 15 14" version="1.1" xmlns="http://www.w3.org/2000/svg" xmlns:xlink="http://www.w3.org/1999/xlink">
    <title>217CC809-6D1F-410A-9388-2433983BBEFC</title>
    <g id="Listing" stroke="none" stroke-width="1" fill="none" fill-rule="evenodd">
        <g id="integrations-templates" transform="translate(-1166.000000, -189.000000)" fill="#FFFFFF">
            <g id="Input/Search/Active" transform="translate(937.000000, 176.000000)">
                <g id="Button/Pill/32-with-icon/Default" transform="translate(220.925532, 4.000000)">
                    <g id="Icon/Clear" transform="translate(9.000000, 9.000000)">
                        <path d="M12.504357,0.5 L1.49572037,0.5 C1.28820549,0.5 1.08587642,0.564179196 0.917014611,0.683566658 L0.819895281,0.761667387 C0.456120195,1.09359335 0.390507353,1.64948929 0.685532307,2.05831867 L5.00775695,7.06149452 L5.00875259,12.5142788 C5.00875259,12.6672737 5.0447402,12.8181674 5.11386542,12.9550102 C5.35977855,13.4418286 5.95783448,13.6391508 6.44966073,13.3957416 L8.16575784,12.053677 L8.28828878,11.9857522 C8.7227678,11.7176272 8.99132475,11.2447455 8.99132475,10.7314829 L8.9903291,7.06346553 L13.314545,2.05831867 C13.4351606,1.89117623 13.5,1.69090729 13.5,1.48550533 C13.5,0.941225767 13.0542354,0.5 12.504357,0.5 Z M1.49572037,1.48550533 L12.504357,1.48550533 L7.99568171,6.74787466 L7.99568171,10.7314829 C7.99568171,10.9181238 7.88914672,11.0887459 7.72049274,11.1722143 L6.00439563,12.5142788 L6.00439563,6.74787466 L1.49572037,1.48550533 Z" id="Combined-Shape"></path>
                    </g>
                </g>
            </g>
        </g>
    </g>
</svg>
