<svg id="Icon_Controls_Plus" data-name="Icon/Controls/Plus" xmlns="http://www.w3.org/2000/svg" xmlns:xlink="http://www.w3.org/1999/xlink" width="18" height="18" viewBox="0 0 18 18">
  <defs>
    <clipPath id="clip-path">
      <path id="Combined_Shape" data-name="Combined Shape" d="M13.326,14.713,10.96,12.346v.574a.98.98,0,0,1-1.96,0V9h3.92a.98.98,0,0,1,0,1.96h-.574l2.367,2.366a.981.981,0,0,1-1.387,1.387Zm-13.039,0a.982.982,0,0,1,0-1.387L2.653,10.96H2.08A.98.98,0,0,1,2.08,9H6v3.92a.98.98,0,0,1-1.96,0v-.574L1.674,14.713a.981.981,0,0,1-1.387,0ZM9.98,6H9V2.08a.98.98,0,0,1,1.96,0v.574L13.326.287a.981.981,0,0,1,1.387,1.387L12.346,4.04h.574a.98.98,0,0,1,0,1.96ZM5.02,6H2.08a.98.98,0,1,1,0-1.96h.573L.287,1.674A.981.981,0,0,1,1.674.287L4.04,2.654V2.08A.98.98,0,1,1,6,2.08V6Z" transform="translate(1.5 1.5)" fill="#8d91a3" opacity="0.769"/>
    </clipPath>
  </defs>
  <g id="Group_140" data-name="Group 140">
    <path id="Combined_Shape-2" data-name="Combined Shape" d="M13.326,14.713,10.96,12.346v.574a.98.98,0,0,1-1.96,0V9h3.92a.98.98,0,0,1,0,1.96h-.574l2.367,2.366a.981.981,0,0,1-1.387,1.387Zm-13.039,0a.982.982,0,0,1,0-1.387L2.653,10.96H2.08A.98.98,0,0,1,2.08,9H6v3.92a.98.98,0,0,1-1.96,0v-.574L1.674,14.713a.981.981,0,0,1-1.387,0ZM9.98,6H9V2.08a.98.98,0,0,1,1.96,0v.574L13.326.287a.981.981,0,0,1,1.387,1.387L12.346,4.04h.574a.98.98,0,0,1,0,1.96ZM5.02,6H2.08a.98.98,0,1,1,0-1.96h.573L.287,1.674A.981.981,0,0,1,1.674.287L4.04,2.654V2.08A.98.98,0,1,1,6,2.08V6Z" transform="translate(1.5 1.5)" fill="#8d91a3" opacity="0.769"/>
    <g id="Mask_Group_143" data-name="Mask Group 143" clip-path="url(#clip-path)">
      <rect id="Color" width="18" height="18" fill="#8d91a3"/>
    </g>
  </g>
</svg>
