<svg xmlns="http://www.w3.org/2000/svg" width="191.576" height="192.188" viewBox="0 0 191.576 192.188">
  <g id="drawkit-grape-pack-illustration-1_2" data-name="drawkit-grape-pack-illustration-1 2" transform="translate(192.858 0.374)">
    <g id="drawkit-grape-pack-illustration-1">
      <path id="Path" d="M-171.715,100.021c18.837,32.563,1.715,49.472,11.746,67.844s31.392,20.6,54.791,18.107c23.4-2.54,44.256-16.859,64.843-34.463S.6,113.076-.013,92.83-22.186,52.981-42.781,36.78-83.005,7.79-107.887,2.535s-55.1-3.02-68.143,13.181S-190.552,67.458-171.715,100.021Z" transform="translate(-7 5)" fill="#f7f8fb"/>
      <path id="Polygon" d="M-22.172,2.828a4,4,0,0,0-5.657,0L-47.172,22.172a4,4,0,0,0,0,5.657l19.343,19.343a4,4,0,0,0,5.657,0L-2.828,27.828a4,4,0,0,0,0-5.657Z" transform="translate(0 53)" fill="none" stroke="#ced3f3" stroke-miterlimit="10" stroke-width="0.75"/>
      <circle id="Oval" cx="14.5" cy="14.5" r="14.5" opacity="0.651" fill="none" transform="translate(-172)" stroke-linecap="round" stroke-linejoin="round" stroke-miterlimit="10" stroke-width="0.748" stroke="#c6cbf0"/>
      <path id="Path-2" data-name="Path" d="M-3.63.057c.1,2.156,1.688,17.588,3.63,23.415-6.506-.859-41.963-7.875-52.627-14.04C-51.78,3.664-6.746-.543-3.63.057" transform="translate(-29.62 150.364)" fill="#3c3744"/>
      <path id="Path-3" data-name="Path" d="M-19.275,9.638a9.638,9.638,0,0,0,5.949,8.9,9.637,9.637,0,0,0,10.5-2.089A9.637,9.637,0,0,0-.734,5.949,9.638,9.638,0,0,0-9.638,0a9.634,9.634,0,0,0-6.816,2.822,9.634,9.634,0,0,0-2.822,6.816" transform="translate(-35.11 25.362)" fill="#ff9d52"/>
      <path id="Path-4" data-name="Path" d="M-55.186,17.46c-.686-.322-1.684-2.494-1.684-5.711C-56.869,3.75-50.794,0-41.078,0-34.294,0-26.3,2.535-21.2,12.052c3.806,7.073,5.355,22.688,8.531,28.3C-10.662,43.909-6.4,51.1-3.124,57.866c1.23,1.718,7.414,14.82-2.029,19.125s-53.291,2.535-54.457.686,5.389-15.052,7.545-17.726,5.25-6.075,3.487-19.226-.169-20.9-1.68-21.529-3.345-.664-4.928-1.736" transform="translate(-29.331 34.25)" fill="#ff9d52"/>
      <path id="Path-5" data-name="Path" d="M-8.182,4.091A4.091,4.091,0,0,0-4.091,8.182,4.091,4.091,0,0,0,0,4.091,4.091,4.091,0,0,0-4.091,0,4.1,4.1,0,0,0-8.182,4.091" transform="translate(-51.963 56.821)" fill="#fff"/>
      <path id="Path-6" data-name="Path" d="M-3.63,0c.1,2.156,1.688,17.587,3.63,23.415" transform="translate(-28.067 148.872)" fill="none" stroke="#373754" stroke-linecap="round" stroke-linejoin="round" stroke-miterlimit="10" stroke-width="1"/>
      <path id="Path-7" data-name="Path" d="M-38.31,9.352C-41.479,4.335-40.56-1.452-39.2.33c.454.6,6.375,12.593,7.556,13.811h0a3.82,3.82,0,0,1,1.958.4c1.2.975.75,7.807,1.2,8.407s17.569,26.88,18.323,27.7c.075.3,2.25-9.833,2.914-11.625A38.027,38.027,0,0,0,0,43.267C-.146,44.426-.866,58.751,0,63.4c-.728,1.44-5.122,5.805-6.99,5.805a18.867,18.867,0,0,1-8.426-2.078c-4.2-2.88-20.389-40.069-21.574-40.841-2.366-1.553-6.307-6.908-6.859-10.3,0-1.5-1.23-2.479,5.55-6.653" transform="translate(-84.033 75.763)" fill="#fff"/>
      <path id="Path-8" data-name="Path" d="M-1.209.339c-10.564-3.45-20.175,20.535-19.425,22.47s11.415,7.718,13.74,7.41S2.893,1.67-1.209.331" transform="translate(-73.332 89.906)" fill="#a6b3ff"/>
      <path id="Path-9" data-name="Path" d="M-12,6a6,6,0,0,0,6,6A6,6,0,0,0,0,6,6,6,0,0,0-6,0a6,6,0,0,0-6,6" transform="translate(-117 53)" fill="#fff"/>
      <path id="Path_Copy" data-name="Path Copy" d="M-12,6a6,6,0,0,0,6,6A6,6,0,0,0,0,6,6,6,0,0,0-6,0a6,6,0,0,0-6,6" transform="translate(-137 53)" fill="#fff"/>
      <path id="Path_Copy_2" data-name="Path Copy 2" d="M-12,6a6,6,0,0,0,6,6A6,6,0,0,0,0,6,6,6,0,0,0-6,0a6,6,0,0,0-6,6" transform="translate(-157 53)" fill="#fff"/>
      <path id="Path_Copy_3" data-name="Path Copy 3" d="M-12,6a6,6,0,0,0,6,6A6,6,0,0,0,0,6,6,6,0,0,0-6,0a6,6,0,0,0-6,6" transform="translate(-177 53)" fill="#fff"/>
      <path id="Path-10" data-name="Path" d="M-1.218.339c-10.564-3.45-20.175,20.539-19.425,22.47S-9.228,30.526-6.9,30.226,2.907,1.678-1.218.339Z" transform="translate(-71.782 88.357)" fill="none" stroke="#373754" stroke-linecap="round" stroke-linejoin="round" stroke-miterlimit="10" stroke-width="1"/>
      <path id="Path-11" data-name="Path" d="M-28.89.005c-29.9.7-22.346,67.477-20.974,69.862,1.849,3.21,40.125,6.124,49.252-2.831C1.5,64.966-.506-.659-28.89.005" transform="translate(-32.935 84.244)" fill="#a6b3ff"/>
      <path id="Path-12" data-name="Path" d="M0,.265A17.156,17.156,0,0,0-3.465.006C-12.653.22-18.3,6.674-21.686,15.584" transform="translate(-56.811 82.698)" fill="none" stroke="#373754" stroke-linecap="round" stroke-linejoin="round" stroke-miterlimit="10" stroke-width="1"/>
      <path id="Path-13" data-name="Path" d="M-51.513,38.4c-.81,15.139,1.039,29.055,1.65,30.12,1.849,3.21,40.125,6.124,49.253-2.831C1.309,63.814-.176,9.311-21.839,0" transform="translate(-31.387 84.043)" fill="none" stroke="#373754" stroke-linecap="round" stroke-linejoin="round" stroke-miterlimit="10" stroke-width="1"/>
      <path id="Path-14" data-name="Path" d="M-27.836.011C-27.9,3.724-2.017,7.238-1.875,12.51s.229,8.317.229,8.317C-2.572,25.744-.566,43.125,0,44.94c-2.171,2.021-13.061,1.875-14.25.653.154-1.222.131-9.548-.18-10.5h0a10.529,10.529,0,0,1-1.38.094c-8.329,0-15.082-9.829-15.082-21.956,0-6.337.1-8.014,3.049-13.23" transform="translate(-54.164 44.311)" fill="#fff"/>
      <path id="Path-15" data-name="Path" d="M-21.922.517c-11.576,3.6-4.646,31.639-2.434,32.745S-.461,28.173-.018,25.739-7.173-4.069-21.922.517" transform="translate(-24.472 85.761)" fill="#a6b3ff"/>
      <path id="Path-16" data-name="Path" d="M-28.432,0c.094,8.524,2.831,17.67,4.076,18.292C-22.144,19.4-.461,13.2-.019,10.77c.131-.716-.431-3.581-1.669-7.159" transform="translate(-22.923 99.181)" fill="none" stroke="#373754" stroke-linecap="round" stroke-linejoin="round" stroke-miterlimit="10" stroke-width="1"/>
      <path id="Path-17" data-name="Path" d="M0,6.618c-3.547-4.7-8.28-7.924-14.137-6.1A7.05,7.05,0,0,0-15.5,1.1" transform="translate(-30.708 84.212)" fill="none" stroke="#373754" stroke-linecap="round" stroke-linejoin="round" stroke-miterlimit="10" stroke-width="1"/>
      <path id="Path-18" data-name="Path" d="M0,24.189C-4.759,16.944-9.859,9.14-10.1,8.814c-.45-.6,0-7.433-1.2-8.408s-8.85,0-8.85.87,3.124,3.75,3.889,3.964" transform="translate(-100.878 88.368)" fill="none" stroke="#373754" stroke-linecap="round" stroke-linejoin="round" stroke-miterlimit="10" stroke-width="1"/>
      <path id="Path-19" data-name="Path" d="M0,0C-.664,1.8-2.756,11.693-2.831,11.392c-.191-.214-1.447-2.078-3.221-4.747" transform="translate(-89.826 113.499)" fill="none" stroke="#373754" stroke-linecap="round" stroke-linejoin="round" stroke-miterlimit="10" stroke-width="1"/>
      <path id="Path-20" data-name="Path" d="M-6.668,9.352C-9.836,4.335-8.917-1.452-7.556.33-7.1.926-1.181,12.922,0,14.141" transform="translate(-114.126 74.214)" fill="none" stroke="#373754" stroke-linecap="round" stroke-linejoin="round" stroke-miterlimit="10" stroke-width="1"/>
      <path id="Path-21" data-name="Path" d="M-2.366,0C-1.942.8,0,4.039,0,4.039" transform="translate(-119.485 84.875)" fill="none" stroke="#373754" stroke-linecap="round" stroke-linejoin="round" stroke-miterlimit="10" stroke-width="1"/>
      <path id="Path-22" data-name="Path" d="M-2.9,0A39.03,39.03,0,0,0,0,5.378" transform="translate(-121.03 86.154)" fill="none" stroke="#373754" stroke-linecap="round" stroke-linejoin="round" stroke-miterlimit="10" stroke-width="1"/>
      <path id="Path-23" data-name="Path" d="M-3.315,0A50.34,50.34,0,0,0,0,6.06" transform="translate(-122.478 87.549)" fill="none" stroke="#373754" stroke-linecap="round" stroke-linejoin="round" stroke-miterlimit="10" stroke-width="1"/>
      <path id="Path-24" data-name="Path" d="M-37.871,0a9.131,9.131,0,0,0,1.286,1.061c1.185.776,17.377,37.961,21.574,40.845A18.927,18.927,0,0,0-6.585,43.98C-4.71,43.98-.724,40.23,0,38.8" transform="translate(-82.9 99.455)" fill="none" stroke="#373754" stroke-linecap="round" stroke-linejoin="round" stroke-miterlimit="10" stroke-width="1"/>
      <path id="Path-25" data-name="Path" d="M-2.1,0A14.456,14.456,0,0,0,0,4.849" transform="translate(-124.247 90.219)" fill="none" stroke="#373754" stroke-linecap="round" stroke-linejoin="round" stroke-miterlimit="10" stroke-width="1"/>
      <path id="Path-26" data-name="Path" d="M-19.845,0c2.767,4.924,6.971,8.066,11.681,8.066A11.926,11.926,0,0,0,0,4.575" transform="translate(-60.28 69.894)" fill="none" stroke="#373754" stroke-linecap="round" stroke-linejoin="round" stroke-miterlimit="10" stroke-width="1"/>
      <path id="Path-27" data-name="Path" d="M0,0A28.875,28.875,0,0,0-3.041,13.226a31.125,31.125,0,0,0,.75,6.881" transform="translate(-80.459 42.774)" fill="none" stroke="#373754" stroke-linecap="round" stroke-linejoin="round" stroke-miterlimit="10" stroke-width="1"/>
      <path id="Path-28" data-name="Path" d="M-6.4,7.447a4.084,4.084,0,0,0,5.184-.455A4.084,4.084,0,0,0-.688,1.816,4.084,4.084,0,0,0-5.673.322" transform="translate(-50.411 55.269)" fill="none" stroke="#373754" stroke-linecap="round" stroke-linejoin="round" stroke-miterlimit="10" stroke-width="1"/>
      <path id="Path-29" data-name="Path" d="M-1.706,1.575c0,.866.375,1.571.855,1.571S0,2.441,0,1.575-.375,0-.851,0s-.855.7-.855,1.575" transform="translate(-67.57 53.176)" fill="#3e3e58"/>
      <path id="Path-30" data-name="Path" d="M0,0A4,4,0,0,1-.525.788" transform="translate(-77.065 62.097)" fill="none" stroke="#373754" stroke-linecap="round" stroke-linejoin="round" stroke-miterlimit="10" stroke-width="1"/>
      <path id="Path-31" data-name="Path" d="M-.045,0A10.777,10.777,0,0,1-.356,3.428" transform="translate(-76.184 57.26)" fill="none" stroke="#373754" stroke-linecap="round" stroke-linejoin="round" stroke-miterlimit="10" stroke-width="1"/>
      <path id="Path-32" data-name="Path" d="M0,0A4.515,4.515,0,0,1-3.086,3.086" transform="translate(-64.48 65.202)" fill="none" stroke="#373754" stroke-linecap="round" stroke-linejoin="round" stroke-miterlimit="10" stroke-width="1"/>
      <path id="Path-33" data-name="Path" d="M-.144,10.5C.01,9.278-.013.952-.324,0" transform="translate(-66.721 77.855)" fill="none" stroke="#373754" stroke-linecap="round" stroke-linejoin="round" stroke-miterlimit="10" stroke-width="1"/>
      <path id="Path-34" data-name="Path" d="M-1.043,0A63.943,63.943,0,0,0,0,7.376c-.863.8-3.094,1.26-5.55,1.447" transform="translate(-52.623 80.326)" fill="none" stroke="#373754" stroke-linecap="round" stroke-linejoin="round" stroke-miterlimit="10" stroke-width="1"/>
      <path id="Path-35" data-name="Path" d="M-.064,0a47.141,47.141,0,0,0,0,9.724" transform="translate(-54.204 63.594)" fill="none" stroke="#373754" stroke-linecap="round" stroke-linejoin="round" stroke-miterlimit="10" stroke-width="1"/>
      <path id="Path-36" data-name="Path" d="M-2.506,15.667A9.634,9.634,0,0,0-.333,6.677,9.634,9.634,0,0,0-6.732,0" transform="translate(-33.56 24.264)" fill="none" stroke="#373754" stroke-linecap="round" stroke-linejoin="round" stroke-miterlimit="10" stroke-width="1"/>
      <path id="Path-37" data-name="Path" d="M-11.171,0A9.645,9.645,0,0,0-9.632,10.007,9.645,9.645,0,0,0,0,13.125" transform="translate(-40.908 29.705)" fill="none" stroke="#373754" stroke-linecap="round" stroke-linejoin="round" stroke-miterlimit="10" stroke-width="1"/>
      <path id="Path-38" data-name="Path" d="M0,0C-4.95,1.65-7.83,5.149-7.83,10.646c0,3.218,1,5.389,1.688,5.711" transform="translate(-76.821 33.804)" fill="none" stroke="#373754" stroke-linecap="round" stroke-linejoin="round" stroke-miterlimit="10" stroke-width="1"/>
      <path id="Path-39" data-name="Path" d="M0,32.182C-1.7,25.346-3.229,16.751-5.779,12-10.56,3.079-17.884.3-24.371,0" transform="translate(-43.199 32.735)" fill="none" stroke="#373754" stroke-linecap="round" stroke-linejoin="round" stroke-miterlimit="10" stroke-width="1"/>
      <path id="Path-40" data-name="Path" d="M0,13.245C-2.25,8.591-4.972,3.731-7.125,0" transform="translate(-30.906 77.323)" fill="none" stroke="#373754" stroke-linecap="round" stroke-linejoin="round" stroke-miterlimit="10" stroke-width="1"/>
      <path id="Path-41" data-name="Path" d="M0,0A11.2,11.2,0,0,1-.75,3.4" transform="translate(-76.116 85.31)" fill="none" stroke="#373754" stroke-linecap="round" stroke-linejoin="round" stroke-miterlimit="10" stroke-width="1"/>
      <path id="Path-42" data-name="Path" d="M-.359,0A34.244,34.244,0,0,1-.048,7.061" transform="translate(-75.84 74.821)" fill="none" stroke="#373754" stroke-linecap="round" stroke-linejoin="round" stroke-miterlimit="10" stroke-width="1"/>
      <path id="Path-43" data-name="Path" d="M-26.97,0C-26.97,7.774,0,8.475,0,14.944" transform="translate(-54.498 40.329)" fill="none" stroke="#373754" stroke-linecap="round" stroke-linejoin="round" stroke-miterlimit="10" stroke-width="1"/>
      <path id="Path-44" data-name="Path" d="M0,3.624C-2.6,4.059-4.08-.22-5.662.009c-1.155.165-6.679.874-6.923,1.256s.66,4.365.66,4.365" transform="translate(-95.009 150.394)" fill="#eaf0ff"/>
      <rect id="Rectangle" width="24.743" height="39.847" transform="translate(-67.638 149.405) rotate(80.45)" fill="#fff"/>
      <path id="Path-45" data-name="Path" d="M-24.63,0l1.845,10.965L0,7.133" transform="translate(-78.497 167.908)" fill="none" stroke="#373754" stroke-linecap="round" stroke-linejoin="round" stroke-miterlimit="10" stroke-width="1"/>
      <path id="Path-46" data-name="Path" d="M-.772,0,0,4.586" transform="translate(-104.616 154.475)" fill="none" stroke="#373754" stroke-linecap="round" stroke-linejoin="round" stroke-miterlimit="10" stroke-width="1"/>
      <path id="Path-47" data-name="Path" d="M-3.581,25.016,0,24.4-4.125,0-37.586,5.625" transform="translate(-61.986 147.849)" fill="none" stroke="#373754" stroke-linecap="round" stroke-linejoin="round" stroke-miterlimit="10" stroke-width="1"/>
      <path id="Path-48" data-name="Path" d="M0,3.624C-2.6,4.059-4.084-.22-5.662.009c-1.155.165-6.679.874-6.923,1.256s.66,4.365.66,4.365" transform="translate(-93.46 148.845)" fill="none" stroke="#373754" stroke-linecap="round" stroke-linejoin="round" stroke-miterlimit="10" stroke-width="1"/>
      <rect id="Rectangle-2" data-name="Rectangle" width="10.564" height="5.79" transform="translate(-95.209 156.78) rotate(80.45)" fill="#5567d5"/>
      <path id="Path-49" data-name="Path" d="M0,0-22.436,3.773" transform="translate(-69.479 154.475)" fill="none" stroke="#373754" stroke-linecap="round" stroke-linejoin="round" stroke-miterlimit="10" stroke-width="1"/>
      <path id="Path-50" data-name="Path" d="M0,0-3.338.563" transform="translate(-87.726 162.444)" fill="none" stroke="#373754" stroke-linecap="round" stroke-linejoin="round" stroke-miterlimit="10" stroke-width="1"/>
      <path id="Path-51" data-name="Path" d="M0,0-12.889,2.168" transform="translate(-68.631 159.234)" fill="none" stroke="#373754" stroke-linecap="round" stroke-linejoin="round" stroke-miterlimit="10" stroke-width="1"/>
      <path id="Path-52" data-name="Path" d="M-72.526,42.026c.585-4.5,1.939-9.278,11.5-8.865C-59.727,32.123-34.6,25-19.452,21.067c-1.762-3.641-3.817-14.737-3.922-15.75C-22.249,5.108-5.648,0-5.648,0S1.293,29.025-.214,31.451C-9.5,37.369-44.348,41.632-60.079,40.526c-1.1.866-.952,1.41-2.516,1.631s-9.93-.131-9.93-.131" transform="translate(-21.317 113.503)" fill="#fff"/>
      <path id="Path-53" data-name="Path" d="M0,0C-8.955,2.565-16.241,4.8-16.92,5.359c-9.574-.412-10.924,4.346-11.509,8.865" transform="translate(-63.865 139.756)" fill="none" stroke="#373754" stroke-linecap="round" stroke-linejoin="round" stroke-miterlimit="10" stroke-width="1"/>
      <path id="Path-54" data-name="Path" d="M-3.922,0C-3.814,1-1.759,12.094,0,15.75c-5.273,1.361-11.756,3.112-18.022,4.875" transform="translate(-39.22 117.286)" fill="none" stroke="#373754" stroke-linecap="round" stroke-linejoin="round" stroke-miterlimit="10" stroke-width="1"/>
      <path id="Path-55" data-name="Path" d="M0,0A13.613,13.613,0,0,0-.469,4.744" transform="translate(-84.01 149.75)" fill="none" stroke="#373754" stroke-linecap="round" stroke-linejoin="round" stroke-miterlimit="10" stroke-width="1"/>
      <path id="Path-56" data-name="Path" d="M0,0A13.436,13.436,0,0,0-.469,4.744" transform="translate(-86.897 149.75)" fill="none" stroke="#373754" stroke-linecap="round" stroke-linejoin="round" stroke-miterlimit="10" stroke-width="1"/>
      <path id="Path-57" data-name="Path" d="M0,0A13.53,13.53,0,0,0-.465,4.744" transform="translate(-89.226 149.75)" fill="none" stroke="#373754" stroke-linecap="round" stroke-linejoin="round" stroke-miterlimit="10" stroke-width="1"/>
      <path id="Path-58" data-name="Path" d="M-.675,0C-.019,4.043.259,7.065-.3,7.41c-12.986,8.25-52.234,9.54-59.865,9.075" transform="translate(-19.694 135.995)" fill="none" stroke="#373754" stroke-linecap="round" stroke-linejoin="round" stroke-miterlimit="10" stroke-width="1"/>
      <path id="Path-59" data-name="Path" d="M-2.828,0C-2.685.5-1.346,6.128,0,12.491" transform="translate(-22.589 111.969)" fill="none" stroke="#373754" stroke-linecap="round" stroke-linejoin="round" stroke-miterlimit="10" stroke-width="1"/>
    </g>
  </g>
</svg>
