<svg xmlns="http://www.w3.org/2000/svg" width="276" height="250" viewBox="0 0 276 250">
  <g id="Group_119" data-name="Group 119" transform="translate(-1132 -186)">
    <text id="We_are_sorry._we_cou" data-name="We are sorry. we cou" transform="translate(1270 433)" fill="#8d91a3" font-size="15" font-family="GilmerRegular, Gilmer Regular"><tspan x="-137.703" y="0">Failed to fetch Connector information </tspan></text>
    <g id="_1" data-name="1" transform="translate(1147 185.996)">
      <path id="Path" d="M197.516,2.263c15.859,8.408,14.551,42.134,15.2,71.7s3.27,54.933-4.111,81.021-24.734,52.9-46.571,56.03c-21.908,3.2-48.393-17.213-78.358-28.12S20.34,170.634,7.074,154.4.815,107.037,14.781,85.713C28.818,64.389,49.815,52.9,67.822,44.864c17.937-8.034,32.932-12.589,56.895-23.356C148.726,10.811,181.658-6.145,197.516,2.263Z" transform="translate(0.342 0.004)" fill="#f7f8fb"/>
      <rect id="Rectangle" width="39.86" height="21.176" rx="10.588" transform="translate(131.544 22.423)" fill="#e4e7f8"/>
      <path id="Path-2" data-name="Path" d="M8.927,4.937C7.292,4.47,2.387,1.434,1.453.266S-1.7,1.925,2.341,5.755" transform="translate(13.74 119.433)" fill="#fff"/>
      <path id="Path-3" data-name="Path" d="M8.927,4.937C7.292,4.47,2.387,1.434,1.453.266S-1.7,1.925,2.341,5.755" transform="translate(11.872 117.565)" fill="none" stroke="#41415a" stroke-linecap="round" stroke-linejoin="round" stroke-miterlimit="10" stroke-width="1.793"/>
      <path id="Path-4" data-name="Path" d="M9.25,10.44C8.082,9.039,4.111,3.2,3.411,1.332S-2.055-2.405,1.028,10.44" transform="translate(32.102 121.171)" fill="#fff"/>
      <path id="Path-5" data-name="Path" d="M9.253,10.442C8.085,9.041,4.115,3.2,3.414,1.334,2.807-.278-.813-1.889.168,5.911" transform="translate(29.763 118.833)" fill="none" stroke="#41415a" stroke-linecap="round" stroke-linejoin="round" stroke-miterlimit="10" stroke-width="1.793"/>
      <path id="Path-6" data-name="Path" d="M59.124,29.623c-1.495,3.083-8.034,15.228-8.034,15.228s-14.948-32-16.583-32.7S7.881,2.81,3.21.241c-1.868-.934-7.474.7,2.8,7.474S26.332,20.093,27.5,22.429s9.576,38.537,9.576,38.537H68.4c2.079,0,9.085-22.889,9.085-22.889S60.852,27.707,59.124,29.623Z" transform="translate(8.246 123.172)" fill="#fff"/>
      <path id="Path-7" data-name="Path" d="M7.217,41.76c1.308,5.489,2.242,9.552,2.242,9.552h31.32c2.079,0,9.085-22.889,9.085-22.889S33.235,18.031,31.507,19.969C30.012,23.052,23.472,35.2,23.472,35.2S8.525,3.2,6.89,2.5C6.376,2.289,3.667,1.308,0,0" transform="translate(33.528 131.105)" fill="none" stroke="#41415a" stroke-linecap="round" stroke-linejoin="round" stroke-miterlimit="10" stroke-width="1.793"/>
      <path id="Path-8" data-name="Path" d="M0,0C7.777,4.9,14.27,8.828,15.2,10.674c.607,1.238,3.246,11.888,5.582,21.674" transform="translate(18.206 132.615)" fill="none" stroke="#41415a" stroke-linecap="round" stroke-linejoin="round" stroke-miterlimit="10" stroke-width="1.793"/>
      <path id="Path-9" data-name="Path" d="M21.494,7.432C14.043,4.722,5.705,1.593,3.206.238,1.5-.6-3.287.659,3.626,6.03" transform="translate(5.915 120.863)" fill="none" stroke="#41415a" stroke-linecap="round" stroke-linejoin="round" stroke-miterlimit="10" stroke-width="1.793"/>
      <path id="Path-10" data-name="Path" d="M45.263,1.827c13.99,7.264-1.658,43.442-10.277,52.6C27.933,55.942,3.083,44.007,0,36.09,2.592,28.266,25.294-8.543,45.263,1.827Z" transform="translate(64.427 112.734)" fill="#a6b3ff"/>
      <path id="Polygon" d="M23.492,2.983a3.114,3.114,0,0,1,4.4,0L48.4,23.492a3.114,3.114,0,0,1,0,4.4L27.9,48.4a3.114,3.114,0,0,1-4.4,0L2.983,27.9a3.114,3.114,0,0,1,0-4.4Z" transform="translate(16.164 52.783)" fill="none" stroke="#c8cef0" stroke-linecap="round" stroke-linejoin="round" stroke-miterlimit="10" stroke-width="1.793" opacity="0.504"/>
      <circle id="Oval" cx="18.373" cy="18.373" r="18.373" opacity="0.504" fill="none" transform="translate(150.851 87.196)" stroke-linecap="round" stroke-linejoin="round" stroke-miterlimit="10" stroke-width="1.793" stroke="#c8cef0"/>
      <path id="Path-11" data-name="Path" d="M19.292,9.038c7.894-7.194,17.19-11.771,25.972-7.217,13.99,7.264-1.658,43.442-10.277,52.6C27.933,55.936,3.083,44,0,36.084c.817-2.452,3.573-7.707,7.614-13.5" transform="translate(62.092 110.381)" fill="none" stroke="#41415a" stroke-linecap="round" stroke-linejoin="round" stroke-miterlimit="10" stroke-width="1.793"/>
      <path id="Path-12" data-name="Path" d="M0,6A34.969,34.969,0,0,1,19.9,0C48.86,0,61.005,38.3,61.706,81.979" transform="translate(106.468 100.057)" fill="none" stroke="#41415a" stroke-linecap="round" stroke-linejoin="round" stroke-miterlimit="10" stroke-width="1.793"/>
      <path id="Path-13" data-name="Path" d="M0,32.184C3.737,20.086,9.039,8.478,16.559,0" transform="translate(81.617 113.417)" fill="none" stroke="#41415a" stroke-linecap="round" stroke-linejoin="round" stroke-miterlimit="10" stroke-width="1.793"/>
      <path id="Path-14" data-name="Path" d="M0,17.237C.607,11.981,1.448,6.119,2.616,0" transform="translate(74.307 164.613)" fill="none" stroke="#53536b" stroke-linecap="round" stroke-linejoin="round" stroke-miterlimit="10" stroke-width="1.793"/>
      <path id="Path-15" data-name="Path" d="M93.54,79.409C92.419,36.809,80.18,0,51.78,0,15.765,0,3.83,48.767,0,79.409Z" transform="translate(76.923 102.416)" fill="#a6b3ff"/>
      <path id="Path-16" data-name="Path" d="M32.7,15.835,25.925,0,0,15.882C.794,18.731,3.527,27.42,5.208,32.7" transform="translate(158.551 148.427)" fill="none" stroke="#41415a" stroke-linecap="round" stroke-linejoin="round" stroke-miterlimit="10" stroke-width="1.793"/>
      <path id="Path-17" data-name="Path" d="M30.246,30.5V10.09L25.925,0,0,15.882c.7,2.476,2.849,9.389,4.508,14.6Z" transform="translate(160.886 150.973)" fill="#fff"/>
      <path id="Path-18" data-name="Path" d="M146.266,0V41.41H0" transform="translate(69.156 141.07)" fill="none" stroke="#41415a" stroke-linecap="round" stroke-linejoin="round" stroke-miterlimit="10" stroke-width="1.793"/>
      <path id="Path-19" data-name="Path" d="M0,0H9.786V72.379" transform="translate(205.823 36.156)" fill="none" stroke="#41415a" stroke-linecap="round" stroke-linejoin="round" stroke-miterlimit="10" stroke-width="1.793"/>
      <path id="Path-20" data-name="Path" d="M0,38.077S7.007,60.966,9.085,60.966h31.32s8.408-36.2,9.576-38.537S61.192,14.488,71.468,7.715,76.14-.693,74.271.241C69.6,2.81,44.609,11.452,42.975,12.153s-16.583,32.7-16.583,32.7-6.54-12.145-8.034-15.228C16.629,27.707,0,38.077,0,38.077Z" transform="translate(159.158 120.517)" fill="#fff"/>
      <path id="Path-21" data-name="Path" d="M10.151.876C24.4-5.9,43.783,28.436,45.885,40.814c-3.036,6.54-27.56,19.152-35.734,16.816C5.48,50.857-10.145,10.522,10.151.876Z" transform="translate(141.673 111.116)" fill="#a6b3ff"/>
      <path id="Path-22" data-name="Path" d="M15.718,0C26.205,8.782,35.828,27.653,37.276,36.178,34.239,42.718,9.716,55.33,1.541,52.994A27.6,27.6,0,0,1,0,50.308" transform="translate(147.947 113.417)" fill="none" stroke="#41415a" stroke-linecap="round" stroke-linejoin="round" stroke-miterlimit="10" stroke-width="1.793"/>
      <path id="Path-23" data-name="Path" d="M1.661,32.768C-1.119,20.273-1.259,6.259,7.99,0" transform="translate(139.327 110.871)" fill="none" stroke="#41415a" stroke-linecap="round" stroke-linejoin="round" stroke-miterlimit="10" stroke-width="1.793"/>
      <path id="Path-24" data-name="Path" d="M7.2,6.892a.465.465,0,0,0,.374-.163c.724-.7,3.06-3.13,2.382-5.442A1.645,1.645,0,0,0,8.761.026,1.16,1.16,0,0,0,7.593.47,26.813,26.813,0,0,1,.4,4.954.562.562,0,1,0,.727,6.028c1.635-.467,6.7-3.55,7.754-4.858.023-.047.047-.047.07-.047h0c.023,0,.163.07.28.327.35.841.023,2.5-2.032,4.461a.557.557,0,0,0-.023.794A.571.571,0,0,0,7.2,6.892Z" transform="translate(219.984 118.96)" fill="#41415a"/>
      <path id="Path-25" data-name="Path" d="M.568,11.588a.5.5,0,0,0,.42-.21C2.18,9.953,6.174,4.068,6.921,2.106c.187-.514.888-1.074,1.378-.958.654.163,1.238,1.635.794,5.255a.565.565,0,0,0,1.121.14C10.821,1.662,9.677.331,8.579.05A2.568,2.568,0,0,0,5.87,1.685c-.677,1.8-4.648,7.637-5.746,8.945a.582.582,0,0,0,.07.794A.5.5,0,0,0,.568,11.588Z" transform="translate(204.227 117.617)" fill="#41415a"/>
      <g id="Group" transform="translate(161.533 130.696)">
        <path id="Path-26" data-name="Path" d="M41.34,6.68a.563.563,0,0,0-.677.42c-1.051,4.414-1.868,7.941-2.149,9.132H7.684C6.82,15.718,4.274,9.739,1.074,0A8.006,8.006,0,0,1,0,.257C.537,1.892,1.144,3.714,1.8,5.535,5.956,17.353,7.007,17.353,7.637,17.353h31.32a.553.553,0,0,0,.537-.42c0-.047.958-4.134,2.242-9.552A.546.546,0,0,0,41.34,6.68Z" transform="translate(0 35.053)" fill="#57576e"/>
        <path id="Path-27" data-name="Path" d="M37.681.365a.553.553,0,0,0-.724-.327L35.462.575C28.739,2.9,23.4,1.685,22.959,1.9c-.4.163-1.214.514-9.179,16.886C10.7,25.111,7.707,31.464,6.563,33.87,5.465,31.814,2.873,27,.981,23.383c-.187.093-.374.187-.584.28-.023,0-.023.023-.047.023-.117.07-.234.163-.35.234,2.452,4.694,6.049,11.351,6.1,11.444a.555.555,0,0,0,.514.3.567.567,0,0,0,.49-.327C12.682,23.383,22.024,4.044,23.426,2.9c.49-.21,7.088,1.017,12.41-1.274l1.495-.537A.574.574,0,0,0,37.681.365Z" transform="translate(18.358 0)" fill="#41415a"/>
      </g>
      <path id="Path-28" data-name="Path" d="M.552,33.271a.53.53,0,0,0,.537-.42c4.181-17.47,5.278-21,5.559-21.557C7.4,9.8,13.106,9.084,19.342,5.183c.864-.537,4.758-3.59,5.669-4.151a.541.541,0,0,0,.163-.771A.541.541,0,0,0,24.4.1c-.911.561-4.8,3.614-5.669,4.151C11.144,9.014,6.484,9.121,5.643,10.8,5.13,11.854,3.214,19.187.015,32.594a.563.563,0,0,0,.42.677Z" transform="translate(204.243 131.622)" fill="#41415a"/>
      <path id="Path-29" data-name="Path" d="M.505,7.022A.514.514,0,0,0,.692,7c9.926-2.609,9.8-4.536,11.835-5.657.631-.327,1.118-.4,1.492.183.4.631-.257,2.125-3.293,4.484a.565.565,0,1,0,.7.888C13.668,5.169,16.121,2.716,15,.941,14.3-.18,13.181-.2,12.06.361,10.051,1.459,9.885,3.237.365,5.948a.562.562,0,0,0-.327.724A.441.441,0,0,0,.505,7.022Z" transform="translate(219.054 122.343) rotate(-7)" fill="#41415a"/>
      <path id="Path-30" data-name="Path" d="M0,11.234V0H90.309" transform="translate(41.352 36.553)" fill="none" stroke="#41415a" stroke-linecap="round" stroke-linejoin="round" stroke-miterlimit="10" stroke-width="1.793"/>
      <path id="Path-31" data-name="Path" d="M27.4,0a91.052,91.052,0,0,0-2.716,28.26c-4.2,3.5-18.269,4.2-24.688-.467A88.2,88.2,0,0,0,.988,8.875C.741,4.2,27.4,0,27.4,0Z" transform="translate(112.159 80.345)" fill="#fff"/>
      <path id="Path-32" data-name="Path" d="M0,27.793A93.17,93.17,0,0,0,.934,8.875C.7,4.2,25.925,0,25.925,0a96.011,96.011,0,0,0-2.569,28.26C21,30.339,15.391,31.413,9.926,30.993" transform="translate(111.769 78.477)" fill="none" stroke="#41415a" stroke-linecap="round" stroke-linejoin="round" stroke-miterlimit="10" stroke-width="1.793"/>
      <ellipse id="Oval-2" data-name="Oval" cx="24.173" cy="30.83" rx="24.173" ry="30.83" transform="translate(96.004 32.653)" fill="#fff"/>
      <path id="Path-33" data-name="Path" d="M29.265,7.707a19.951,19.951,0,0,1-10.79,3.246C11.071,10.954,4.438,6.7,0,0" transform="translate(100.769 81.653)" fill="none" stroke="#41415a" stroke-linecap="round" stroke-linejoin="round" stroke-miterlimit="10" stroke-width="1.793"/>
      <path id="Path-34" data-name="Path" d="M1.261,40.662A38.751,38.751,0,0,1,0,30.83C0,13.8,10.814,0,24.173,0S48.346,13.8,48.346,30.83A38.624,38.624,0,0,1,46.5,42.694" transform="translate(95.07 30.925)" fill="none" stroke="#41415a" stroke-linecap="round" stroke-linejoin="round" stroke-miterlimit="10" stroke-width="1.793"/>
      <path id="Path-35" data-name="Path" d="M2.966,0C3.246,2.336,1.752,9.389,0,12.168" transform="translate(110.765 62.572)" fill="none" stroke="#41415a" stroke-linecap="round" stroke-linejoin="round" stroke-miterlimit="10" stroke-width="1.793"/>
      <path id="Path-36" data-name="Path" d="M7.707,0C5.979.07,2.592.958,0,5.652" transform="translate(111.372 76.118)" fill="none" stroke="#41415a" stroke-linecap="round" stroke-linejoin="round" stroke-miterlimit="10" stroke-width="1.793"/>
      <path id="Path-37" data-name="Path" d="M6.867.153C5.746-.221,3.246-.2,0,3.68" transform="translate(102.17 56.627)" fill="none" stroke="#41415a" stroke-linecap="round" stroke-linejoin="round" stroke-miterlimit="10" stroke-width="1.793"/>
      <path id="Path-38" data-name="Path" d="M7.077,3.307C3.6-.359,1.1-.219,0,.224" transform="translate(117.702 56.999)" fill="none" stroke="#41415a" stroke-linecap="round" stroke-linejoin="round" stroke-miterlimit="10" stroke-width="1.793"/>
      <ellipse id="Oval-3" data-name="Oval" cx="1.121" cy="2.382" rx="1.121" ry="2.382" transform="translate(106.34 62.478) rotate(-0.957)" fill="#41415a"/>
      <ellipse id="Oval-4" data-name="Oval" cx="2.382" cy="1.121" rx="2.382" ry="1.121" transform="translate(120.882 67.109) rotate(-77.309)" fill="#41415a"/>
      <path id="Path-39" data-name="Path" d="M60.958,29.428C60.958,17.05,47.412,8.642,38.3,5.839,30.946,3.573,19.385,0,13.313,0,5.839,0,0,7.707,0,15.415,0,23.823,4.438,30.129,9.809,31.53c.934-2.8,1.4-3.97,1.4-3.97.934,1.168,25.925,4.2,34.333,3.97-.7,3.036-1.168,13.78,3.5,14.013C51.616,45.777,60.958,48.58,60.958,29.428Z" transform="translate(88.997 22.073)" fill="#ff9d52"/>
      <path id="Path-40" data-name="Path" d="M45.544,9.342a41.858,41.858,0,0,0-8.058-3.5C30.129,3.573,18.568,0,12.5,0,6.68,0,1.868,4.648,0,10.347" transform="translate(87.479 19.737)" fill="none" stroke="#41415a" stroke-linecap="round" stroke-linejoin="round" stroke-miterlimit="10" stroke-width="1.793"/>
      <path id="Path-41" data-name="Path" d="M.441,16.209c-.7,3.036-1.168,13.78,3.5,14.013,2.569.234,11.911,3.036,11.911-16.115,0-5.535-2.709-10.3-6.54-14.107" transform="translate(131.764 35.059)" fill="none" stroke="#41415a" stroke-linecap="round" stroke-linejoin="round" stroke-miterlimit="10" stroke-width="1.793"/>
      <path id="Path-42" data-name="Path" d="M0,0C1.378,5.769,5.021,9.856,9.226,10.954c.934-2.8,1.4-3.97,1.4-3.97.677.841,13.686,2.639,24.1,3.5" transform="translate(87.246 40.314)" fill="none" stroke="#41415a" stroke-linecap="round" stroke-linejoin="round" stroke-miterlimit="10" stroke-width="1.793"/>
      <ellipse id="Oval-5" data-name="Oval" cx="7.162" cy="6.851" rx="7.162" ry="6.851" transform="translate(131.038 61.544)" fill="#fff"/>
      <path id="Path-43" data-name="Path" d="M0,6.026A6.315,6.315,0,0,1,4.414,0" transform="translate(131.505 60.423)" fill="none" stroke="#41415a" stroke-linecap="round" stroke-linejoin="round" stroke-miterlimit="10" stroke-width="1.793"/>
      <path id="Path-44" data-name="Path" d="M0,.3A6.3,6.3,0,1,1,3.76,12.323a6.356,6.356,0,0,1-1.868.28A6.052,6.052,0,0,1,.3,12.393" transform="translate(135.919 60.128)" fill="none" stroke="#41415a" stroke-linecap="round" stroke-linejoin="round" stroke-miterlimit="10" stroke-width="1.793"/>
      <path id="Path-45" data-name="Path" d="M4.041,1.114,0,17.673l.981.794,4.181-17.4C5.7-1.361,4.041,1.114,4.041,1.114Z" transform="translate(201.689 157.146)" fill="#57576e"/>
    </g>
  </g>
</svg>
