<svg id="Icon_Function" data-name="Icon/Function" xmlns="http://www.w3.org/2000/svg" width="14" height="14" viewBox="0 0 14 14">
  <path id="Combined_Shape" data-name="Combined Shape" d="M9.128,14a.2.2,0,0,1-.192-.2V12.743a.2.2,0,0,1,.192-.2h1.99a.386.386,0,0,0,.376-.4V8.131A1.248,1.248,0,0,1,12.1,7a1.245,1.245,0,0,1-.61-1.13V1.853a.386.386,0,0,0-.376-.4H9.128a.2.2,0,0,1-.192-.2V.2A.2.2,0,0,1,9.128,0h2.21a1.646,1.646,0,0,1,1.675,1.771v4.1a.386.386,0,0,0,.377.4h.418a.2.2,0,0,1,.192.2V7.535a.2.2,0,0,1-.192.2H13.39a.386.386,0,0,0-.377.4v4.1A1.647,1.647,0,0,1,11.338,14ZM2.661,14A1.647,1.647,0,0,1,.986,12.228v-4.1a.386.386,0,0,0-.376-.4H.192A.2.2,0,0,1,0,7.535V6.465a.2.2,0,0,1,.192-.2H.61a.386.386,0,0,0,.376-.4v-4.1A1.647,1.647,0,0,1,2.661,0H4.873a.2.2,0,0,1,.192.2V1.256a.2.2,0,0,1-.192.2H2.883a.387.387,0,0,0-.377.4V5.869A1.245,1.245,0,0,1,1.9,7a1.247,1.247,0,0,1,.609,1.131v4.017a.386.386,0,0,0,.376.4h1.99a.2.2,0,0,1,.192.2V13.8a.2.2,0,0,1-.192.2Z" transform="translate(0)" fill="#484853"/>
</svg>
