<?xml version="1.0" encoding="UTF-8"?>
<svg width="107px" height="44px" viewBox="0 0 107 44" version="1.1" xmlns="http://www.w3.org/2000/svg" xmlns:xlink="http://www.w3.org/1999/xlink">
    <title>764F98AB-49EC-41E3-AB51-24686DEFA4B3</title>
    <defs>
        <rect id="path-1" x="0" y="0" width="103" height="40" rx="20"></rect>
        <filter x="-3.4%" y="-6.3%" width="106.8%" height="117.5%" filterUnits="objectBoundingBox" id="filter-2">
            <feOffset dx="0" dy="1" in="SourceAlpha" result="shadowOffsetOuter1"></feOffset>
            <feGaussianBlur stdDeviation="1" in="shadowOffsetOuter1" result="shadowBlurOuter1"></feGaussianBlur>
            <feComposite in="shadowBlurOuter1" in2="SourceAlpha" operator="out" result="shadowBlurOuter1"></feComposite>
            <feColorMatrix values="0 0 0 0 0   0 0 0 0 0   0 0 0 0 0  0 0 0 0.15 0" type="matrix" in="shadowBlurOuter1"></feColorMatrix>
        </filter>
        <rect id="path-3" x="0" y="0" width="103" height="40" rx="20"></rect>
        <rect id="path-5" x="0" y="0" width="103" height="40" rx="20"></rect>
        <filter x="-0.5%" y="-1.3%" width="101.0%" height="102.5%" filterUnits="objectBoundingBox" id="filter-6">
            <feMorphology radius="1" operator="erode" in="SourceAlpha" result="shadowSpreadInner1"></feMorphology>
            <feOffset dx="0" dy="0" in="shadowSpreadInner1" result="shadowOffsetInner1"></feOffset>
            <feComposite in="shadowOffsetInner1" in2="SourceAlpha" operator="arithmetic" k2="-1" k3="1" result="shadowInnerInner1"></feComposite>
            <feColorMatrix values="0 0 0 0 0   0 0 0 0 0   0 0 0 0 0  0 0 0 0.1 0" type="matrix" in="shadowInnerInner1"></feColorMatrix>
        </filter>
    </defs>
    <g id="Deploy" stroke="none" stroke-width="1" fill="none" fill-rule="evenodd">
        <g id="Live-initial-view" transform="translate(-667.000000, -399.000000)">
            <g id="Button/Pill/40/Default-Copy" transform="translate(669.000000, 400.000000)">
                <g id="Shadow">
                    <use fill="black" fill-opacity="1" filter="url(#filter-2)" xlink:href="#path-1"></use>
                    <use fill-opacity="0" fill="#FFFFFF" fill-rule="evenodd" xlink:href="#path-1"></use>
                </g>
                <mask id="mask-4" fill="white">
                    <use xlink:href="#path-3"></use>
                </mask>
                <use id="Mask" fill="#D8D8D8" xlink:href="#path-3"></use>
                <g id="Purpose" mask="url(#mask-4)" fill="#5567D5" fill-rule="nonzero">
                    <rect x="0" y="0" width="103" height="40"></rect>
                </g>
                <g id="Rectangle">
                    <use fill-opacity="0" fill="#FFFFFF" fill-rule="evenodd" xlink:href="#path-5"></use>
                    <use fill="black" fill-opacity="1" filter="url(#filter-6)" xlink:href="#path-5"></use>
                </g>
                <g id="Icon/Analytics/Alerts" transform="translate(12.000000, 12.000000)" fill="#FFFFFF">
                    <path d="M6.97474587,1.00224856 C7.13104223,1.53195592 6.8283328,2.08807182 6.29862544,2.24436818 C3.76972608,2.99054955 2,5.32245524 2,8 C2,11.3137085 4.6862915,14 8,14 C10.6622572,14 12.9840897,12.2503393 13.743618,9.74156784 C13.9036485,9.21297662 14.4618867,8.91419915 14.990478,9.07422967 C15.5190692,9.2342602 15.8178467,9.79249842 15.6578161,10.3210896 C14.6446233,13.6677313 11.5496592,16 8,16 C3.581722,16 5.18696197e-13,12.418278 5.18696197e-13,8 C5.18696197e-13,4.42992316 2.35899602,1.32155723 5.73262624,0.326128126 C6.26233361,0.169831765 6.8184495,0.472541193 6.97474587,1.00224856 Z M16,0 L16,5 C16,5.55228475 15.5522847,6 15,6 C14.4871642,6 14.0644928,5.61395981 14.0067277,5.11662113 L14,5 L14,3.414 L8.70710678,8.70710678 C8.31658249,9.09763107 7.68341751,9.09763107 7.29289322,8.70710678 C6.93240926,8.34662282 6.90467972,7.77939176 7.20970461,7.38710056 L7.29289322,7.29289322 L12.584,2 L11,2 C10.4871642,2 10.0644928,1.61395981 10.0067277,1.11662113 L10,1 C10,0.487164161 10.3860402,0.0644928393 10.8833789,0.00672773133 L11,0 L16,0 Z" id="Combined-Shape"></path>
                </g>
                <!-- <text id="Text" font-family="GilmerMedium, Gilmer Medium" font-size="12" font-weight="500" fill="#FFFFFF">
                    <tspan x="38.1689453" y="24">Go live</tspan>
                </text> -->
            </g>
        </g>
    </g>
</svg>