<svg id="Layer_1" data-name="Layer 1" xmlns="http://www.w3.org/2000/svg" xmlns:xlink="http://www.w3.org/1999/xlink" viewBox="0 0 30.51 16.21"><defs><style>.cls-1{fill:#4285f4;}.cls-1,.cls-2,.cls-3,.cls-4,.cls-6,.cls-7{fill-rule:evenodd;}.cls-2{fill:#34a853;}.cls-3{fill:#fbbc05;}.cls-4{fill:#ea4335;}.cls-5{fill:none;}.cls-6{fill:url(#linear-gradient);}.cls-7{fill:#fff;fill-opacity:0.85;}.cls-8{font-size:1.82px;fill:#5567d5;font-family:Roboto-Regular, Roboto;}</style><linearGradient id="linear-gradient" x1="-625.09" y1="-337.83" x2="-625.3" y2="-337.83" gradientTransform="matrix(-107.68, 0, 0, 24, -67317.74, 8109.97)" gradientUnits="userSpaceOnUse"><stop offset="0" stop-color="#bdc5f9"/><stop offset="1" stop-color="#5567d5"/></linearGradient></defs><g id="logo_googleg_48dp" data-name="logo googleg 48dp"><path id="Shape" class="cls-1" d="M20.08,10.73a5.72,5.72,0,0,0-.09-1H15.26v2H18a2.32,2.32,0,0,1-1,1.51v1.26h1.62a4.89,4.89,0,0,0,1.5-3.69Z"/><path id="Shape-2" data-name="Shape" class="cls-2" d="M15.26,15.64a4.78,4.78,0,0,0,3.32-1.22L17,13.16a3,3,0,0,1-1.7.48,3,3,0,0,1-2.81-2.07H10.77v1.3a5,5,0,0,0,4.49,2.77Z"/><path id="Shape-3" data-name="Shape" class="cls-3" d="M12.45,11.57a2.93,2.93,0,0,1,0-1.91V8.36H10.77a5,5,0,0,0,0,4.51l1.68-1.3Z"/><path id="Shape-4" data-name="Shape" class="cls-4" d="M15.26,7.59a2.71,2.71,0,0,1,1.92.75L18.62,6.9a4.84,4.84,0,0,0-3.36-1.31,5,5,0,0,0-4.49,2.77l1.68,1.3a3,3,0,0,1,2.81-2.07Z"/><path id="Shape-5" data-name="Shape" class="cls-5" d="M10.23,5.59H20.28V15.64h-10Z"/></g><g id="Home"><g id="new-IDP-adding"><g id="Rectangle-Copy-9"><path id="path-2" class="cls-6" d="M0,3.79V.31H17.57A.31.31,0,0,1,17.9.6s0,0,0,0L17.4,3.55a.31.31,0,0,1-.33.24Z"/><path id="path-2-2" data-name="path-2" class="cls-7" d="M0,3.79V.31H17.57A.31.31,0,0,1,17.9.6s0,0,0,0L17.4,3.55a.31.31,0,0,1-.33.24Z"/></g></g></g><text class="cls-8" transform="translate(2.71 2.69)">Coming Soon</text></svg>
