<svg id="Layer_1" data-name="Layer 1" xmlns="http://www.w3.org/2000/svg" viewBox="0 0 1200 800"><defs><style>.cls-1{fill:#4285f4;}.cls-1,.cls-2,.cls-3,.cls-4{fill-rule:evenodd;}.cls-2{fill:#34a853;}.cls-3{fill:#fbbc05;}.cls-4{fill:#ea4335;}.cls-5{fill:none;}</style></defs><g id="logo_googleg_48dp" data-name="logo googleg 48dp"><path id="Shape" class="cls-1" d="M783.45,404.34A219.28,219.28,0,0,0,780,365.26H600v73.91H702.84a87.9,87.9,0,0,1-38.13,57.68V544.8h61.76c36.14-33.27,57-82.26,57-140.46Z"/><path id="Shape-2" data-name="Shape" class="cls-2" d="M600,591.1c51.6,0,94.85-17.12,126.47-46.3l-61.76-47.95c-17.11,11.47-39,18.24-64.71,18.24-49.77,0-91.9-33.61-106.93-78.78H429.23v49.51A191,191,0,0,0,600,591.1Z"/><path id="Shape-3" data-name="Shape" class="cls-3" d="M493.07,436.31a113,113,0,0,1,0-72.62V314.18H429.23a191.3,191.3,0,0,0,0,171.64l63.84-49.51Z"/><path id="Shape-4" data-name="Shape" class="cls-4" d="M600,284.91c28.06,0,53.25,9.64,73,28.58l54.81-54.81C694.77,227.84,651.51,208.9,600,208.9A191,191,0,0,0,429.23,314.18l63.84,49.51c15-45.17,57.16-78.78,106.93-78.78Z"/><path id="Shape-5" data-name="Shape" class="cls-5" d="M408.9,208.9H791.1V591.1H408.9Z"/></g></svg>
