<?xml version="1.0" encoding="UTF-8"?>
<svg width="80px" height="80px" viewBox="0 0 80 80" version="1.1" xmlns="http://www.w3.org/2000/svg" xmlns:xlink="http://www.w3.org/1999/xlink">
    <title>3A44E11B-F615-4731-B22E-C7C80389F121</title>
    <defs>
        <linearGradient x1="100%" y1="-16.2862778%" x2="-28.1136036%" y2="137.891006%" id="linearGradient-1">
            <stop stop-color="#5567D5" offset="0%"></stop>
            <stop stop-color="#7148CF" offset="44.714031%"></stop>
            <stop stop-color="#BB43B2" offset="78.0206527%"></stop>
            <stop stop-color="#ED477D" offset="100%"></stop>
        </linearGradient>
    </defs>
    <g id="Settings" stroke="none" stroke-width="1" fill="none" fill-rule="evenodd">
        <g id="apps-preferences-org-show-setting-highlight-description" transform="translate(-232.000000, -184.000000)">
            <g id="Avatar/32-deafult" transform="translate(232.000000, 184.000000)">
                <path d="M40,0 C62.0320856,0 80,17.9679144 80,40 C80,62.0320856 62.0320856,80 40,80 C17.9679144,80 0,62.0320856 0,40 C0,17.9679144 17.9679144,0 40,0 Z" id="Path" fill="url(#linearGradient-1)" opacity="0.197351"></path>
                <path d="M40,41.25 C51.7163564,41.25 61.25,50.9107589 61.25,62.5 C61.25,63.1903559 60.6903559,63.75 60,63.75 C59.3096441,63.75 58.75,63.1903559 58.75,62.5 C58.75,52.2841129 50.3281781,43.75 40,43.75 C29.6718219,43.75 21.25,52.2841129 21.25,62.5 C21.25,63.1903559 20.6903559,63.75 20,63.75 C19.3096441,63.75 18.75,63.1903559 18.75,62.5 C18.75,50.9107589 28.2836436,41.25 40,41.25 Z M63.75,41.25 C69.1885669,41.25 73.9528343,44.7547352 75.6261332,49.8405749 C75.8418905,50.4963493 75.485186,51.2028653 74.8294116,51.4186226 C74.1736371,51.6343798 73.4671211,51.2776754 73.2513639,50.6219009 C71.9130712,46.5542824 68.1009855,43.75 63.75,43.75 C61.7774316,43.75 59.8928078,44.3209198 58.2794445,45.3775002 C57.7019146,45.7557204 56.927126,45.5941481 56.5489057,45.0166182 C56.1706855,44.4390883 56.3322578,43.6642998 56.9097877,43.2860795 C58.9271726,41.9649082 61.2871068,41.25 63.75,41.25 Z M16.2390869,41.25 C18.7019801,41.25 21.0619143,41.9649082 23.0792992,43.2860795 C23.6568291,43.6642998 23.8184014,44.4390883 23.4401812,45.0166182 C23.0619609,45.5941481 22.2871723,45.7557204 21.7096425,45.3775002 C20.0962791,44.3209198 18.2116553,43.75 16.2390869,43.75 C11.8881015,43.75 8.07601572,46.5542824 6.73772305,50.6219009 C6.52196581,51.2776754 5.81544978,51.6343798 5.15967533,51.4186226 C4.50390087,51.2028653 4.14719644,50.4963493 4.36295368,49.8405749 C6.03625265,44.7547352 10.80052,41.25 16.2390869,41.25 Z M40,16.25 C46.2052228,16.25 51.25,21.3620409 51.25,27.5 C51.25,33.767279 46.267279,38.75 40,38.75 C33.732721,38.75 28.75,33.767279 28.75,27.5 C28.75,21.3620409 33.7947772,16.25 40,16.25 Z M63.75,23.75 C67.8921356,23.75 71.25,27.1078644 71.25,31.25 C71.25,35.3921356 67.8921356,38.75 63.75,38.75 C59.6078644,38.75 56.25,35.3921356 56.25,31.25 C56.25,27.1078644 59.6078644,23.75 63.75,23.75 Z M16.2390869,23.75 C20.3812225,23.75 23.7390869,27.1078644 23.7390869,31.25 C23.7390869,35.3921356 20.3812225,38.75 16.2390869,38.75 C12.0969513,38.75 8.73908691,35.3921356 8.73908691,31.25 C8.73908691,27.1078644 12.0969513,23.75 16.2390869,23.75 Z M40,18.75 C35.1829555,18.75 31.25,22.735395 31.25,27.5 C31.25,32.3865671 35.1134329,36.25 40,36.25 C44.8865671,36.25 48.75,32.3865671 48.75,27.5 C48.75,22.735395 44.8170445,18.75 40,18.75 Z M63.75,26.25 C60.9885763,26.25 58.75,28.4885763 58.75,31.25 C58.75,34.0114237 60.9885763,36.25 63.75,36.25 C66.5114237,36.25 68.75,34.0114237 68.75,31.25 C68.75,28.4885763 66.5114237,26.25 63.75,26.25 Z M16.2390869,26.25 C13.4776632,26.25 11.2390869,28.4885763 11.2390869,31.25 C11.2390869,34.0114237 13.4776632,36.25 16.2390869,36.25 C19.0005107,36.25 21.2390869,34.0114237 21.2390869,31.25 C21.2390869,28.4885763 19.0005107,26.25 16.2390869,26.25 Z" id="Combined-Shape" fill="#FFFFFF"></path>
            </g>
        </g>
    </g>
</svg>
