<?xml version="1.0" encoding="UTF-8"?>
<svg width="16px" height="16px" viewBox="0 0 16 16" version="1.1" xmlns="http://www.w3.org/2000/svg" xmlns:xlink="http://www.w3.org/1999/xlink">
    <title>42305BC3-EB29-47DE-9C1E-0EB99F46E087</title>
    <g id="Apps" stroke="none" stroke-width="1" fill="none" fill-rule="evenodd">
        <g id="apps-empty-active" transform="translate(-981.000000, -101.000000)" fill="#8D91A3" fill-rule="nonzero">
            <g id="profile-popup-copy" transform="translate(960.000000, 73.000000)">
                <g id="Icon/Controls/Edit" transform="translate(21.000000, 28.000000)">
                    <path d="M8,0 C12.418278,0 16,3.581722 16,8 C16,12.418278 12.418278,16 8,16 C3.581722,16 0,12.418278 0,8 C0,3.581722 3.581722,0 8,0 Z M7.85546875,10.5185547 C7.47949219,10.5185547 7.16503906,10.6416016 6.91210938,10.8876953 C6.65917969,11.1337891 6.52929688,11.4345703 6.52929688,11.7900391 C6.52929688,12.1660156 6.65917969,12.4804688 6.91210938,12.7333984 C7.16503906,12.9863281 7.47949219,13.109375 7.85546875,13.109375 L7.86230469,13.109375 C8.22460938,13.109375 8.53222656,12.9863281 8.79199219,12.7333984 C9.05175781,12.4804688 9.18164062,12.1660156 9.18164062,11.7900391 C9.18164062,11.4345703 9.05175781,11.1337891 8.79199219,10.8876953 C8.53222656,10.6416016 8.21777344,10.5185547 7.85546875,10.5185547 Z M7.97167969,2.9921875 C6.95996094,2.9921875 6.13964844,3.27929688 5.51074219,3.86035156 C4.88183594,4.44140625 4.51269531,5.14550781 4.41015625,5.97265625 L6.42675781,6.58789062 C6.52929688,6.12304688 6.71386719,5.74707031 6.98046875,5.45996094 C7.24707031,5.17285156 7.56835938,5.02929688 7.95117188,5.02929688 C8.29296875,5.02929688 8.56640625,5.11132812 8.77148438,5.27539062 C8.9765625,5.43945312 9.07910156,5.65820312 9.07910156,5.92480469 C9.07910156,6.13671875 8.99707031,6.34863281 8.83984375,6.56054688 C8.68261719,6.77246094 8.49121094,6.97753906 8.265625,7.17578125 C8.04003906,7.37402344 7.81445312,7.57910156 7.58886719,7.79101562 C7.36328125,8.00292969 7.171875,8.26269531 7.01464844,8.5703125 C6.85742188,8.87792969 6.77539062,9.21289062 6.77539062,9.56835938 L8.96972656,9.56835938 C8.96972656,9.390625 9.05859375,9.20605469 9.22949219,9.0078125 C9.40039062,8.80957031 9.60546875,8.61132812 9.84472656,8.41308594 C10.0839844,8.21484375 10.3232422,8.00292969 10.5625,7.77734375 C10.8017578,7.55175781 11.0068359,7.26464844 11.1708984,6.92285156 C11.3349609,6.58105469 11.4169922,6.21191406 11.4169922,5.82226562 C11.4169922,5.00195312 11.0957031,4.32519531 10.453125,3.79199219 C9.81054688,3.25878906 8.98339844,2.9921875 7.97167969,2.9921875 Z" id="Combined-Shape"></path>
                </g>
            </g>
        </g>
    </g>
</svg>