<?xml version="1.0" encoding="UTF-8"?>
<svg width="18px" height="18px" viewBox="0 0 18 18" version="1.1" xmlns="http://www.w3.org/2000/svg" xmlns:xlink="http://www.w3.org/1999/xlink">
    <title>54B53681-0964-4F35-AE11-B8E335A86423</title>
    <g id="Apps" stroke="none" stroke-width="1" fill="none" fill-rule="evenodd">
        <g id="apps-empty-active" transform="translate(-968.000000, -23.000000)" fill="#5567D5" fill-rule="nonzero">
            <path d="M977,23.5 C981.69442,23.5 985.5,27.3055796 985.5,32 C985.5,36.6944204 981.69442,40.5 977,40.5 C972.30558,40.5 968.5,36.6944204 968.5,32 C968.5,27.3055796 972.30558,23.5 977,23.5 Z M977,25 C973.134007,25 970,28.1340068 970,32 C970,35.8659932 973.134007,39 977,39 C980.865993,39 984,35.8659932 984,32 C984,28.1340068 980.865993,25 977,25 Z M980.556726,28.7057513 C980.574333,28.7631149 980.574333,28.8244402 980.556726,28.8818037 L979.75443,31.4957356 C979.670556,31.7690013 979.521021,32.0175614 979.318896,32.2196863 L976.82324,34.7153425 C976.621115,34.9174674 976.372555,35.0670031 976.099289,35.1508767 L973.485357,35.9531726 C973.326965,36.0017881 973.159151,35.9127963 973.110536,35.7544038 C973.092929,35.6970402 973.092929,35.6357149 973.110536,35.5783514 L973.912832,32.9644195 C973.996705,32.6911538 974.146241,32.4425937 974.348366,32.2404688 L976.844022,29.7448126 C977.046147,29.5426877 977.294707,29.3931521 977.567973,29.3092784 L980.181905,28.5069825 C980.340297,28.458367 980.50811,28.5473588 980.556726,28.7057513 Z M978.458,30.605 L978.008104,30.7432536 L977.952582,30.7680283 L977.904682,30.8054727 L975.409026,33.301129 L975.371582,33.3490286 L975.346807,33.4045505 L975.208,33.855 L975.659158,33.7169015 C975.678677,33.7109106 975.697314,33.7025745 975.71468,33.6921268 L975.76258,33.6546824 L978.258236,31.1590261 L978.29568,31.1111265 L978.320455,31.0556046 L978.458,30.605 Z" id="Combined-Shape"></path>
        </g>
    </g>
</svg>