<?xml version="1.0" encoding="UTF-8"?>
<svg width="20px" height="20px" viewBox="0 0 20 20" version="1.1" xmlns="http://www.w3.org/2000/svg" xmlns:xlink="http://www.w3.org/1999/xlink">
    <title>B5A0F114-B995-4FC2-8EB6-222AE9693503</title>
    <g id="Home" stroke="none" stroke-width="1" fill="none" fill-rule="evenodd">
        <g id="new-tooltips" transform="translate(-1026.000000, -22.000000)" fill-rule="nonzero">
            <g id="tour" transform="translate(1026.000000, 22.000000)">
                <path d="M14.1843835,6.12441335 C14.2050972,6.19189986 14.2050972,6.26404731 14.1843835,6.33153381 L13.240506,9.40674774 C13.1418311,9.72823679 12.9659068,10.0206605 12.7281129,10.2584545 L9.79204669,13.1945206 C9.55425273,13.4323146 9.26182901,13.6082389 8.94033996,13.7069137 L5.86512604,14.6507913 C5.67878189,14.707986 5.48135463,14.6032897 5.42415989,14.4169456 C5.40344621,14.3494591 5.40344621,14.2773116 5.42415989,14.2098251 L6.36803743,11.1346112 C6.46671229,10.8131222 6.64263657,10.5206984 6.88043053,10.2829045 L9.81649671,7.34683831 C10.0542907,7.10904434 10.3467144,6.93312006 10.6682034,6.83444521 L13.7434174,5.89056766 C13.9297615,5.83337293 14.1271888,5.93806921 14.1843835,6.12441335 Z" id="Rectangle" fill="#CCD1F2"></path>
                <path d="M10,0 C15.5228475,0 20,4.4771525 20,10 C20,15.5228475 15.5228475,20 10,20 C4.4771525,20 0,15.5228475 0,10 C0,4.4771525 4.4771525,0 10,0 Z M10,1.76470588 C5.45177265,1.76470588 1.76470588,5.45177265 1.76470588,10 C1.76470588,14.5482274 5.45177265,18.2352941 10,18.2352941 C14.5482274,18.2352941 18.2352941,14.5482274 18.2352941,10 C18.2352941,5.45177265 14.5482274,1.76470588 10,1.76470588 Z M14.1843835,6.12441335 C14.2050972,6.19189986 14.2050972,6.26404731 14.1843835,6.33153381 L13.240506,9.40674774 C13.1418311,9.72823679 12.9659068,10.0206605 12.7281129,10.2584545 L9.79204669,13.1945206 C9.55425273,13.4323146 9.26182901,13.6082389 8.94033996,13.7069137 L5.86512604,14.6507913 C5.67878189,14.707986 5.48135463,14.6032897 5.42415989,14.4169456 C5.40344621,14.3494591 5.40344621,14.2773116 5.42415989,14.2098251 L6.36803743,11.1346112 C6.46671229,10.8131222 6.64263657,10.5206984 6.88043053,10.2829045 L9.81649671,7.34683831 C10.0542907,7.10904434 10.3467144,6.93312006 10.6682034,6.83444521 L13.7434174,5.89056766 C13.9297615,5.83337293 14.1271888,5.93806921 14.1843835,6.12441335 Z M11.8035294,8.27058824 L10.972952,8.52582559 L10.8704501,8.57156349 L10.78202,8.64069174 L8.17465456,11.2480571 L8.10552631,11.3364873 L8.05978842,11.4389892 L7.80352941,12.2705882 L8.63643646,12.0156372 C8.67247149,12.004577 8.70687759,11.9891873 8.73893839,11.9698993 L8.82736851,11.9007711 L11.4347339,9.29340569 L11.5038622,9.20497557 L11.5496001,9.10247363 L11.8035294,8.27058824 Z" id="Combined-Shape" fill="#5567D5"></path>
            </g>
        </g>
    </g>
</svg>