<?xml version="1.0" encoding="UTF-8"?>
<svg width="48px" height="48px" viewBox="0 0 48 48" version="1.1" xmlns="http://www.w3.org/2000/svg" xmlns:xlink="http://www.w3.org/1999/xlink">
    <title>Highlighted help button</title>
    <defs>
        <rect id="path-1" x="0" y="0" width="40" height="40" rx="4"></rect>
        <filter x="-11.2%" y="-11.2%" width="122.5%" height="122.5%" filterUnits="objectBoundingBox" id="filter-2">
            <feMorphology radius="1" operator="erode" in="SourceAlpha" result="shadowSpreadInner1"></feMorphology>
            <feOffset dx="0" dy="0" in="shadowSpreadInner1" result="shadowOffsetInner1"></feOffset>
            <feComposite in="shadowOffsetInner1" in2="SourceAlpha" operator="arithmetic" k2="-1" k3="1" result="shadowInnerInner1"></feComposite>
            <feColorMatrix values="0 0 0 0 0.333333333   0 0 0 0 0.403921569   0 0 0 0 0.835294118  0 0 0 1 0" type="matrix" in="shadowInnerInner1"></feColorMatrix>
        </filter>
        <rect id="path-3" x="0" y="0" width="40" height="40" rx="4"></rect>
        <filter x="-11.2%" y="-11.2%" width="122.5%" height="122.5%" filterUnits="objectBoundingBox" id="filter-4">
            <feOffset dx="0" dy="0" in="SourceAlpha" result="shadowOffsetOuter1"></feOffset>
            <feGaussianBlur stdDeviation="1.5" in="shadowOffsetOuter1" result="shadowBlurOuter1"></feGaussianBlur>
            <feColorMatrix values="0 0 0 0 0.333333333   0 0 0 0 0.403921569   0 0 0 0 0.835294118  0 0 0 0.491878163 0" type="matrix" in="shadowBlurOuter1"></feColorMatrix>
        </filter>
        <filter x="-8.8%" y="-8.8%" width="117.5%" height="117.5%" filterUnits="objectBoundingBox" id="filter-5">
            <feMorphology radius="1" operator="erode" in="SourceAlpha" result="shadowSpreadInner1"></feMorphology>
            <feOffset dx="0" dy="0" in="shadowSpreadInner1" result="shadowOffsetInner1"></feOffset>
            <feComposite in="shadowOffsetInner1" in2="SourceAlpha" operator="arithmetic" k2="-1" k3="1" result="shadowInnerInner1"></feComposite>
            <feColorMatrix values="0 0 0 0 0.333333333   0 0 0 0 0.403921569   0 0 0 0 0.835294118  0 0 0 1 0" type="matrix" in="shadowInnerInner1"></feColorMatrix>
        </filter>
    </defs>
    <g id="Page-1" stroke="none" stroke-width="1" fill="none" fill-rule="evenodd">
        <g id="help-highlighted" transform="translate(-808.000000, -205.000000)">
            <g id="higlhited" transform="translate(812.000000, 209.000000)">
                <g id="Rectangle-Copy-14">
                    <use fill="#FFFFFF" fill-rule="evenodd" xlink:href="#path-1"></use>
                    <use fill="black" fill-opacity="1" filter="url(#filter-2)" xlink:href="#path-1"></use>
                    <rect stroke="#D5DAF7" stroke-width="4" x="-2" y="-2" width="44" height="44" rx="6"></rect>
                </g>
                <g id="Rectangle-Copy-15">
                    <use fill="black" fill-opacity="1" filter="url(#filter-4)" xlink:href="#path-3"></use>
                    <use fill="#FFFFFF" fill-rule="evenodd" xlink:href="#path-3"></use>
                    <use fill="black" fill-opacity="1" filter="url(#filter-5)" xlink:href="#path-3"></use>
                </g>
                <g id="Icon/Settings" transform="translate(11.000000, 11.000000)" fill="#8D91A3" fill-rule="nonzero">
                    <path d="M9,0 C13.9705627,0 18,4.02943725 18,9 C18,13.9705627 13.9705627,18 9,18 C4.02943725,18 0,13.9705627 0,9 C0,4.02943725 4.02943725,0 9,0 Z M9,1.55 C4.85786438,1.55 1.5,4.90786438 1.5,9.05 C1.5,13.1921356 4.85786438,16.55 9,16.55 C13.1421356,16.55 16.5,13.1921356 16.5,9.05 C16.5,4.90786438 13.1421356,1.55 9,1.55 Z M9,12.4250793 C9.55228475,12.4250793 10,12.8727946 10,13.4250793 C10,13.9773641 9.55228475,14.4250793 9,14.4250793 C8.44771525,14.4250793 8,13.9773641 8,13.4250793 C8,12.8727946 8.44771525,12.4250793 9,12.4250793 Z M9.26367187,3.6946106 C11.2485352,3.6946106 12.6108398,4.82254028 12.6108398,6.47781372 C12.6108398,7.59841919 12.0541992,8.36746216 11.0581055,8.96072388 C10.0986328,9.5173645 9.86425781,9.868927 9.80566406,10.5354309 C9.73242187,11.0188293 9.48339844,11.3191223 8.98535156,11.3191223 C8.47152945,11.3191223 8.16989298,10.9821216 8.12652774,10.5097445 L8.12109375,10.3889465 L8.12109375,10.2497864 C8.12109375,9.34158325 8.57519531,8.74099731 9.49072266,8.19900513 C10.3989258,7.64968872 10.706543,7.24685669 10.706543,6.54373169 C10.706543,5.74539185 10.0839844,5.18875122 9.18310547,5.18875122 C8.37011719,5.18875122 7.828125,5.59158325 7.59375,6.33132935 C7.43261719,6.78543091 7.16162109,6.96853638 6.75878906,6.96853638 C6.25341797,6.96853638 5.953125,6.66091919 5.953125,6.17019653 C5.953125,5.85525513 6.01904297,5.58425903 6.15820313,5.30593872 C6.61230469,4.30984497 7.75488281,3.6946106 9.26367187,3.6946106 Z" id="Combined-Shape"></path>
                </g>
            </g>
        </g>
    </g>
</svg>
