<?xml version="1.0" encoding="UTF-8"?>
<svg width="20px" height="22px" viewBox="0 0 20 22" version="1.1" xmlns="http://www.w3.org/2000/svg" xmlns:xlink="http://www.w3.org/1999/xlink">
    <title>114D47DC-1662-446B-B17A-7753860F2EB3</title>
    <g id="Home" stroke="none" stroke-width="1" fill="none" fill-rule="evenodd">
        <g id="new-home-page-" transform="translate(-993.000000, -281.000000)" fill="#5567D5" fill-rule="nonzero">
            <g id="Icon/main/Market" transform="translate(993.000000, 282.000000)">
                <path d="M4.51241774,11.3255309 C4.73280034,11.7410434 4.57550182,12.254863 4.16108166,12.4731791 L1.87526571,13.6855493 C1.8250094,13.7120243 1.78396934,13.7530644 1.75749438,13.8033207 C1.69511836,13.9217264 1.72535672,14.0646683 1.82249052,14.1493535 L1.87651297,14.186458 L9.34849057,18.1495007 C9.71710583,18.3450096 10.1496453,18.3677078 10.5317002,18.2173105 L10.6723809,18.1527972 L18.124715,14.2269161 C18.1749714,14.2004411 18.2160114,14.1594011 18.2424864,14.1091448 C18.3152584,13.9710047 18.261972,13.7994683 18.1268783,13.7278065 L15.8316283,12.5192835 C15.4161158,12.2989009 15.2562564,11.7842916 15.4745725,11.3698714 C15.6928886,10.9554512 16.2067082,10.7981527 16.6222207,11.0185353 L18.9140602,12.2252593 C19.8835894,12.7394853 20.2565945,13.9402404 19.7471903,14.9072208 C19.592753,15.2003825 19.3675132,15.4487431 19.0931386,15.6306347 L18.922791,15.73162 L11.4704569,19.6575011 C10.6211942,20.1048917 9.61479409,20.1323528 8.74262972,19.7406099 L8.55789817,19.6502488 L1.08592057,15.6872062 C0.116391353,15.1729801 -0.256613713,13.972225 0.252790435,13.0052447 C0.438115181,12.6534505 0.725395581,12.3661701 1.07404,12.1825131 L3.36300567,10.9684751 C3.77742583,10.7501591 4.29203514,10.9100184 4.51241774,11.3255309 Z M8.52954311,0.342499121 C9.43946741,-0.136847956 10.5297791,-0.134133076 11.4421018,0.349751404 L11.4421018,0.349751404 L18.9140794,4.31279406 C19.8836086,4.82702013 20.2566137,6.02777519 19.7472096,6.99475557 C19.5618848,7.3465497 19.2746044,7.6338301 18.9228103,7.81915485 L18.9228103,7.81915485 L11.4704761,11.7450359 C10.5605518,12.224383 9.47024017,12.2216681 8.55791742,11.7377836 L8.55791742,11.7377836 L1.08593982,7.77474097 C0.1164106,7.2605149 -0.256594466,6.05975984 0.252809682,5.09277946 C0.438134428,4.74098533 0.725414828,4.45370493 1.07720896,4.26838018 L1.07720896,4.26838018 Z M10.6515094,1.85049956 C10.2368173,1.63055207 9.74122106,1.62931803 9.3276191,1.84720307 L9.3276191,1.84720307 L1.87528495,5.77308413 C1.82502865,5.79955909 1.78398859,5.84059915 1.75751363,5.89085545 C1.68474161,6.02899551 1.73802804,6.20053194 1.87653222,6.27399281 L1.87653222,6.27399281 L9.34850982,10.2370355 C9.76320198,10.456983 10.2587982,10.458217 10.6724001,10.240332 L10.6724001,10.240332 L18.1247343,6.3144509 C18.1749906,6.28797594 18.2160307,6.24693588 18.2425056,6.19667957 C18.3152776,6.05853952 18.2619912,5.88700308 18.123487,5.81354222 L18.123487,5.81354222 Z" id="Combined-Shape"></path>
            </g>
        </g>
    </g>
</svg>
