<?xml version="1.0" encoding="UTF-8"?>
<svg width="18px" height="19px" viewBox="0 0 18 19" version="1.1" xmlns="http://www.w3.org/2000/svg" xmlns:xlink="http://www.w3.org/1999/xlink">
    <title>8397CFD4-2397-49D1-ADC7-14B323E96825</title>
    <g id="Home" stroke="none" stroke-width="1" fill="none" fill-rule="evenodd">
        <g id="new-home-page-hovers" transform="translate(-481.000000, -1182.000000)" fill="#5567D5" fill-rule="nonzero">
            <g id="Icon/main/Devops-Copy-2" transform="translate(481.000000, 1182.250000)">
                <path d="M4.76332092,0.75 L4.86509148,0.756846616 C5.23116704,0.806509039 5.51332092,1.12030423 5.51332092,1.5 C5.51332092,1.91421356 5.17753449,2.25 4.76332092,2.25 L4.76332092,2.25 L2.75,2.25 L2.62219476,2.25645361 C1.99187466,2.3204661 1.5,2.85279131 1.5,3.5 L1.5,3.5 L1.5,15.0065317 L1.50645361,15.134337 C1.5704661,15.7646571 2.10279131,16.2565317 2.75,16.2565317 L2.75,16.2565317 L11.75,16.2565317 L11.8778052,16.2500781 C12.5081253,16.1860656 13,15.6537404 13,15.0065317 L13,15.0065317 L13.0068466,14.9047612 C13.056509,14.5386856 13.3703042,14.2565317 13.75,14.2565317 C14.1642136,14.2565317 14.5,14.5923182 14.5,15.0065317 C14.5,16.5253148 13.2687831,17.7565317 11.75,17.7565317 L11.75,17.7565317 L2.75,17.7565317 L2.58247767,17.7515129 C1.1417046,17.664936 0,16.4690636 0,15.0065317 L0,15.0065317 L0,3.5 L0.00501879394,3.33247767 C0.0915957212,1.8917046 1.28746816,0.75 2.75,0.75 L2.75,0.75 L4.76332092,0.75 Z M11,0 C14.7279221,0 17.75,3.02207794 17.75,6.75 C17.75,10.4779221 14.7279221,13.5 11,13.5 C7.27207794,13.5 4.25,10.4779221 4.25,6.75 C4.25,3.02207794 7.27207794,0 11,0 Z M11,1.5 C8.10050506,1.5 5.75,3.85050506 5.75,6.75 C5.75,9.64949494 8.10050506,12 11,12 C13.8994949,12 16.25,9.64949494 16.25,6.75 C16.25,3.85050506 13.8994949,1.5 11,1.5 Z M11,3.75 C12.6568542,3.75 14,5.09314575 14,6.75 C14,8.22472784 12.9359102,9.45092419 11.5336402,9.70267934 C11.8276186,9.2934339 12,8.79184787 12,8.25 C12,6.86928813 10.8807119,5.75 9.5,5.75 C8.95823496,5.75 8.45671945,5.92232875 8.04727885,6.21516087 C8.29907581,4.81408982 9.52527216,3.75 11,3.75 Z" id="Combined-Shape"></path>
            </g>
        </g>
    </g>
</svg>
