<?xml version="1.0" encoding="UTF-8"?>
<svg width="20px" height="20px" viewBox="0 0 20 20" version="1.1" xmlns="http://www.w3.org/2000/svg" xmlns:xlink="http://www.w3.org/1999/xlink">
    <title>5F0B68A2-0CFE-431F-8C02-B67149164635</title>
    <g id="Home" stroke="none" stroke-width="1" fill="none" fill-rule="evenodd">
        <g id="new-home-page-" transform="translate(-957.000000, -518.000000)" fill="#5567D5" fill-rule="nonzero">
            <g id="Icon/main/Market-Copy-3" transform="translate(957.000000, 518.000000)">
                <path d="M17.6315789,7.77777778 C18.8873001,7.77777778 19.9147735,8.80931371 19.9949622,10.1134021 L20,10.2777778 L20,16.9444444 C20,18.2699278 19.0227554,19.3544831 17.7873033,19.4391268 L17.6315789,19.4444444 L9.21052632,19.4444444 C7.9548052,19.4444444 6.92733178,18.4129085 6.84714306,17.1088201 L6.84210526,16.9444444 L6.84210526,10.2777778 C6.84210526,8.95229438 7.81934983,7.86773911 9.05480198,7.78309546 L9.21052632,7.77777778 L17.6315789,7.77777778 Z M17.6315789,9.44444444 L9.21052632,9.44444444 C8.8080516,9.44444444 8.47591949,9.76234876 8.42720375,10.1732462 L8.42105263,10.2777778 L8.42105263,16.9444444 C8.42105263,17.3692789 8.72222514,17.7198628 9.11149641,17.7712849 L9.21052632,17.7777778 L17.6315789,17.7777778 C18.0340537,17.7777778 18.3661858,17.4598735 18.4149015,17.048976 L18.4210526,16.9444444 L18.4210526,10.2777778 C18.4210526,9.81754049 18.0675932,9.44444444 17.6315789,9.44444444 Z M13.9682087,14.4457775 C14.404223,14.4457775 14.7576824,14.8188735 14.7576824,15.2791108 C14.7576824,15.700995 14.4606783,16.0496563 14.0753356,16.1048368 L13.9682087,16.1124441 L10.8340193,16.1124441 C10.398005,16.1124441 10.0445456,15.7393481 10.0445456,15.2791108 C10.0445456,14.8572266 10.3415497,14.5085653 10.7268924,14.4533848 L10.8340193,14.4457775 L13.9682087,14.4457775 Z M10.3055556,9.35547935e-14 C12.7255103,9.35547935e-14 14.9030348,1.35520505 15.8486875,3.42940468 L15.9588889,3.69 L16.0267832,3.69356776 C17.306432,3.75567189 18.4691379,4.36377415 19.2069057,5.32715634 L19.3487021,5.52451333 C19.6056869,5.90632115 19.5044978,6.42416483 19.12269,6.68114958 C18.7408822,6.93813432 18.2230385,6.83694523 17.9660537,6.45513741 C17.5721168,5.86985681 16.9106445,5.4702659 16.154446,5.37624958 L15.9459913,5.35827507 L14.8108982,5.30318654 L14.4017847,4.28329404 C13.775611,2.7222849 12.1467795,1.66666667 10.3055556,1.66666667 C8.17546402,1.66666667 6.38156108,3.07222155 6.0141613,4.94227136 L5.98030526,5.14436837 L5.81627014,6.32566499 L4.60444725,6.56961267 C2.88495162,6.91575812 1.66666667,8.31502645 1.66666667,9.91134752 C1.66666667,11.6356687 3.08168193,13.1031078 4.96592875,13.3089036 C5.42344531,13.3588732 5.75382742,13.770272 5.70385785,14.2277885 C5.65388828,14.6853051 5.24248948,15.0156872 4.78497291,14.9657177 C2.0800075,14.6702836 6.54488809e-13,12.5132156 6.54488809e-13,9.91134752 C6.54488809e-13,7.57981425 1.67997938,5.57254629 4.03007278,4.99077625 L4.32777778,4.92444444 C4.70913036,2.18107554 7.13974736,0.124046715 10.0405911,0.00541012204 L10.3055556,9.35547935e-14 Z M16.0734719,11.1124441 C16.5094861,11.1124441 16.8629456,11.4855402 16.8629456,11.9457775 C16.8629456,12.3676617 16.5659415,12.716323 16.1805988,12.7715035 L16.0734719,12.7791108 L10.8340193,12.7791108 C10.398005,12.7791108 10.0445456,12.4060148 10.0445456,11.9457775 C10.0445456,11.5238933 10.3415497,11.175232 10.7268924,11.1200515 L10.8340193,11.1124441 L16.0734719,11.1124441 Z" id="Combined-Shape"></path>
            </g>
        </g>
    </g>
</svg>
