<?xml version="1.0" encoding="UTF-8"?>
<svg width="20px" height="20px" viewBox="0 0 20 20" version="1.1" xmlns="http://www.w3.org/2000/svg" xmlns:xlink="http://www.w3.org/1999/xlink">
    <title>119E7A2D-2694-453F-B7A2-22B9463BEDAB</title>
    <g id="Home" stroke="none" stroke-width="1" fill="none" fill-rule="evenodd">
        <g id="new-home-page-" transform="translate(-585.000000, -282.000000)" fill="#5567D5" fill-rule="nonzero">
            <g id="Icon/main/Market" transform="translate(585.000000, 282.000000)">
                <path d="M11.7706313,5.95725192 L11.8072462,6.06450834 L12.1833657,7.46929022 C13.0249813,7.38098134 13.8542864,7.49908762 14.6116751,7.78919562 L15.3394138,6.52952702 C15.5695325,6.13094984 16.0791912,5.99438721 16.4777684,6.22450585 C16.8401112,6.43370462 16.9859132,6.87392821 16.8365365,7.25169688 L16.7827895,7.36286036 L16.0551012,8.6224057 C16.6852041,9.13323974 17.2022957,9.7924101 17.5467449,10.5654887 L18.9515913,10.1892979 C19.3961464,10.0701797 19.8530939,10.3339985 19.972212,10.7785535 C20.0814037,11.1860624 19.868822,11.6039842 19.4902128,11.7625593 L19.3829564,11.7991743 L17.9781745,12.1752938 C18.0664834,13.0169094 17.9483771,13.8462144 17.6582691,14.6036031 L18.9179377,15.3313419 C19.3165149,15.5614605 19.4530775,16.0711192 19.2229589,16.4696964 C19.0137601,16.8320393 18.5735365,16.9778412 18.1957679,16.8284645 L18.0846044,16.7747176 L16.8246718,16.0475069 C16.3138919,16.6773934 15.6548593,17.1943108 14.8819761,17.5386729 L15.2581668,18.9435194 C15.377285,19.3880744 15.1134663,19.8450219 14.6689112,19.9641401 C14.2614024,20.0733317 13.8434805,19.86075 13.6849054,19.4821408 L13.6482905,19.3748844 L13.2723785,17.9700808 C12.4306917,18.0584308 11.6013125,17.940329 10.8438616,17.6501971 L10.1161229,18.9098657 C9.88600421,19.3084429 9.37634554,19.4450056 8.97776835,19.2148869 C8.61542546,19.0056881 8.46962352,18.5654646 8.61900019,18.1876959 L8.67274718,18.0765324 L9.39995783,16.8165998 C8.7700713,16.3058199 8.25315395,15.6467873 7.90879181,14.8739041 L6.50394538,15.2500949 C6.0593903,15.369213 5.60244283,15.1053943 5.48332466,14.6608392 C5.37413299,14.2533304 5.58671471,13.8354085 5.96532389,13.6768335 L6.07258031,13.6402185 L7.47738397,13.2643065 C7.38905229,12.4227949 7.50708658,11.5935859 7.79708642,10.8362627 L6.53759899,10.1080509 C6.13902181,9.87793224 6.00245918,9.36827357 6.23257782,8.96969638 C6.44177659,8.60735349 6.88200018,8.46155155 7.25976885,8.61092822 L7.37093233,8.66467521 L8.63086495,9.39188586 C9.1418635,8.76172969 9.80124167,8.24463944 10.5745533,7.9002777 L10.1973699,6.49587341 C10.0782517,6.05131833 10.3420704,5.59437086 10.7866255,5.47525269 C11.1941343,5.36606102 11.6120562,5.57864274 11.7706313,5.95725192 Z M13.6125766,1.16450059e-13 C15.3001133,1.16450059e-13 16.6681321,1.36801882 16.6681321,3.05555556 C16.6681321,3.51579285 16.2950361,3.88888889 15.8347988,3.88888889 C15.4129146,3.88888889 15.0642533,3.57538458 15.0090728,3.16863395 L15.0014655,3.05555556 C15.0014655,2.33643479 14.4549381,1.74496233 13.7545824,1.67383734 L13.6125766,1.66666667 L3.05555556,1.66666667 C2.33643479,1.66666667 1.74496233,2.21319407 1.67383734,2.91354973 L1.66666667,3.05555556 L1.66666667,15.8405908 C1.66666667,16.5597116 2.21319407,17.151184 2.91354973,17.222309 L3.05555556,17.2294797 L5.2925788,17.2294797 C5.75281609,17.2294797 6.12591214,17.6025757 6.12591214,18.062813 C6.12591214,18.4846972 5.81240782,18.8333585 5.4056572,18.888539 L5.2925788,18.8961464 L3.05555556,18.8961464 C1.43052018,18.8961464 0.101773024,17.6275857 0.00557643772,16.0267267 L5.01327375e-13,15.8405908 L5.01327375e-13,3.05555556 C5.01327375e-13,1.43052018 1.26856066,0.101773024 2.86941963,0.00557643771 L3.05555556,1.16450059e-13 L13.6125766,1.16450059e-13 Z M16.2158338,11.7850721 C15.6996551,9.85866668 13.7195494,8.71545213 11.793144,9.2316309 C9.86673865,9.74780966 8.7235241,11.7279153 9.23970287,13.6543207 C9.75588163,15.5807261 11.7359873,16.7239406 13.6623927,16.2077619 C15.5887981,15.6915831 16.7320126,13.7114774 16.2158338,11.7850721 Z M13.8010193,12.4321197 C13.9598435,13.0248598 13.6080852,13.6341231 13.0153451,13.7929473 C12.422605,13.9517715 11.8133417,13.6000132 11.6545174,13.0072731 C11.4956932,12.414533 11.8474515,11.8052697 12.4401916,11.6464455 C13.0329318,11.4876212 13.642195,11.8393796 13.8010193,12.4321197 Z" id="Combined-Shape"></path>
            </g>
        </g>
    </g>
</svg>
