<?xml version="1.0" encoding="UTF-8"?>
<svg width="24px" height="25px" viewBox="0 0 24 25" version="1.1" xmlns="http://www.w3.org/2000/svg" xmlns:xlink="http://www.w3.org/1999/xlink">
    <title>2C6C32B2-4C11-4F64-AD7A-811929000CAE</title>
    <g id="Home" stroke="none" stroke-width="1" fill="none" fill-rule="evenodd">
        <g id="new-dashboard-+" transform="translate(-320.000000, -512.000000)" fill="#5567D5" fill-rule="nonzero">
            <g id="Icon/main/Market" transform="translate(320.000000, 512.333333)">
                <path d="M6.35109456,1 L6.48678864,1.00912882 C6.57771308,1.02146378 6.92588492,1.03011449 7.5729688,1.03508093 C5.38081761,2.98709872 4,5.83229575 4,9 C4,14.8910373 8.77562934,19.6666667 14.6666667,19.6666667 C16.6099654,19.6666667 18.4318891,19.1469984 20.0010512,18.2390484 L20.000871,20.008709 C20.000871,21.968429 18.4634513,23.5690655 16.5289371,23.6702931 L16.3342043,23.6753756 L3.66666667,23.6753756 L3.44330356,23.6686839 C1.58630715,23.5570959 0.101927917,22.0634078 0.00503263099,20.2024864 L0,20.008709 L0,4.66666667 L0.00669172526,4.44330356 C0.118279765,2.58630715 1.61196784,1.10192792 3.47288919,1.00503263 L3.66666667,1 L6.35109456,1 Z M14.6666667,1.13686838e-13 C19.6372294,1.13686838e-13 23.6666667,4.02943725 23.6666667,9 C23.6666667,13.9705627 19.6372294,18 14.6666667,18 C9.69610392,18 5.66666667,13.9705627 5.66666667,9 C5.66666667,4.02943725 9.69610392,1.13686838e-13 14.6666667,1.13686838e-13 Z M14.6666667,2 C10.8006734,2 7.66666667,5.13400675 7.66666667,9 C7.66666667,12.8659932 10.8006734,16 14.6666667,16 C18.5326599,16 21.6666667,12.8659932 21.6666667,9 C21.6666667,5.13400675 18.5326599,2 14.6666667,2 Z M14.6666667,5 C16.8758057,5 18.6666667,6.790861 18.6666667,9 C18.6666667,10.9655484 17.2489701,12.599976 15.3803416,12.9365183 C15.7705071,12.3902292 16,11.7219151 16,11 C16,9.15905083 14.5076158,7.66666667 12.6666667,7.66666667 C11.9444142,7.66666667 11.2758128,7.89637414 10.7299339,8.28671755 C11.0666906,6.41769652 12.7011183,5 14.6666667,5 Z" id="Combined-Shape"></path>
            </g>
        </g>
    </g>
</svg>
