<?xml version="1.0" encoding="UTF-8"?>
<svg width="24px" height="24px" viewBox="0 0 24 24" version="1.1" xmlns="http://www.w3.org/2000/svg" xmlns:xlink="http://www.w3.org/1999/xlink">
    <title>774F609F-1D61-4951-B975-12B68C27E344</title>
    <g id="Home" stroke="none" stroke-width="1" fill="none" fill-rule="evenodd">
        <g id="new-dashboard-+" transform="translate(-892.000000, -512.000000)" fill="#5567D5" fill-rule="nonzero">
            <g id="Icon/main/Market" transform="translate(892.000000, 512.000000)">
                <path d="M12,0 C12.5098013,0 12.9230769,0.413275616 12.9230769,0.923076923 C12.9230769,1.43287823 12.5098013,1.84615385 12,1.84615385 C6.39218562,1.84615385 1.84615385,6.39218562 1.84615385,12 C1.84615385,17.6078144 6.39218562,22.1538462 12,22.1538462 C17.6078144,22.1538462 22.1538462,17.6078144 22.1538462,12 C22.1538462,11.4901987 22.5671218,11.0769231 23.0769231,11.0769231 C23.5867244,11.0769231 24,11.4901987 24,12 C24,18.627417 18.627417,24 12,24 C5.372583,24 0,18.627417 0,12 C0,5.372583 5.372583,0 12,0 Z M12,4.92 C12.4919197,4.92 12.9721218,4.97016847 13.4357692,5.06566809 L13.4346667,7.372 L10.4044068,10.4045472 L10.2486369,10.5795266 L10.1222354,10.7646401 C9.57192758,11.6495646 9.64847418,12.7173497 10.2796497,13.4601753 L10.404477,13.595523 L10.5654404,13.7418787 L10.7364332,13.8699399 C11.565475,14.431478 12.6852628,14.3810836 13.4621195,13.7187565 L13.595523,13.595523 L16.6186667,10.5693333 L18.9355687,10.5702488 C19.0302646,11.032033 19.08,11.5102083 19.08,12 C19.08,15.910176 15.910176,19.08 12,19.08 C8.08982397,19.08 4.92,15.910176 4.92,12 C4.92,8.08982397 8.08982397,4.92 12,4.92 Z M19.2615385,0.174472844 C19.800795,0.174472844 20.2447556,0.582483022 20.3015536,1.1066367 L20.3076923,1.22062669 L20.3064615,3.69230769 L22.7802039,3.69230769 C22.9649366,3.69230769 23.1446385,3.74116805 23.3020272,3.83174009 L23.4156149,3.90737837 L23.5192149,3.99798833 C23.8967091,4.37473712 23.926305,4.96811911 23.6076077,5.37883124 L23.5206771,5.47747257 L19.7675009,9.23807467 L16.0669231,9.23747284 L12.652714,12.652714 C12.29223,13.0131979 11.70777,13.0131979 11.347286,12.652714 C11.0195734,12.3250013 10.9897813,11.8121844 11.2579099,11.4508164 L11.347286,11.347286 L14.7689231,7.92447284 L14.7692308,4.24087336 L18.5210653,0.48161566 C18.7173163,0.284976356 18.9837229,0.174472844 19.2615385,0.174472844 Z" id="Combined-Shape"></path>
            </g>
        </g>
    </g>
</svg>
