<?xml version="1.0" encoding="UTF-8"?>
<svg width="20px" height="20px" viewBox="0 0 20 20" version="1.1" xmlns="http://www.w3.org/2000/svg" xmlns:xlink="http://www.w3.org/1999/xlink">
    <title>A514304D-6135-40D2-B229-38F950377306</title>
    <g id="Home" stroke="none" stroke-width="1" fill="none" fill-rule="evenodd">
        <g id="new-home-page-" transform="translate(-176.000000, -282.000000)" fill="#5567D5" fill-rule="nonzero">
            <g id="Icon/main/Market-Copy-4" transform="translate(176.555556, 282.000000)">
                <path d="M7.26125348,0.571830806 C8.61221675,-0.190610269 10.2766721,-0.190610269 11.6276354,0.571830806 L11.6276354,0.571830806 L16.7056979,3.43772918 C18.0566612,4.20017026 18.8888889,5.60921947 18.8888889,7.13410162 L18.8888889,7.13410162 L18.8888889,12.8658984 C18.8888889,14.3907805 18.0566612,15.7998297 16.7056979,16.5622708 L16.7056979,16.5622708 L11.6276354,19.4281692 C10.2766721,20.1906103 8.61221675,20.1906103 7.26125348,19.4281692 L7.26125348,19.4281692 L2.18319096,16.5622708 C0.832227694,15.7998297 0,14.3907805 0,12.8658984 L0,12.8658984 L0,7.13410162 C0,5.60921947 0.832227694,4.20017026 2.18319096,3.43772918 L2.18319096,3.43772918 Z M10.2776571,1.84018875 L10.277,11.111 L13.3888889,8.77777778 C13.7236069,8.52673926 14.1857172,8.56558634 14.4744408,8.85135061 L14.5555556,8.94444444 C14.8065941,9.27916247 14.767747,9.74127276 14.4819827,10.0299964 L14.3888889,10.1111111 L9.44444444,13.8194444 L4.5,10.1111111 C4.13181017,9.83496874 4.05719096,9.31263428 4.33333333,8.94444444 C4.58437186,8.60972641 5.03887491,8.51762874 5.3960636,8.71111982 L5.5,8.77777778 L8.611,11.111 L8.61123178,1.84018875 C8.50932793,1.873608 8.40903691,1.91332963 8.31096706,1.95935365 L8.13452987,2.05037978 L3.05646735,4.91627816 C2.24588939,5.3737428 1.74655277,6.21917233 1.74655277,7.13410162 L1.74655277,7.13410162 L1.74655277,12.8658984 C1.74655277,13.7808277 2.24588939,14.6262572 3.05646735,15.0837218 L3.05646735,15.0837218 L8.13452987,17.9496202 C8.94510783,18.4070849 9.94378106,18.4070849 10.754359,17.9496202 L10.754359,17.9496202 L15.8324215,15.0837218 C16.6429995,14.6262572 17.1423361,13.7808277 17.1423361,12.8658984 L17.1423361,12.8658984 L17.1423361,7.13410162 C17.1423361,6.21917233 16.6429995,5.3737428 15.8324215,4.91627816 L15.8324215,4.91627816 L10.754359,2.05037978 C10.6013194,1.96400904 10.4415748,1.89394537 10.2776571,1.84018875 Z" id="Combined-Shape"></path>
            </g>
        </g>
    </g>
</svg>
