<?xml version="1.0" encoding="UTF-8"?>
<svg width="20px" height="21px" viewBox="0 0 20 21" version="1.1" xmlns="http://www.w3.org/2000/svg" xmlns:xlink="http://www.w3.org/1999/xlink">
    <title>511E1D9E-E011-4FE4-A9D6-0A07D898A42D</title>
    <g id="Home" stroke="none" stroke-width="1" fill="none" fill-rule="evenodd">
        <g id="new-home-page-" transform="translate(-523.000000, -518.000000)" fill="#5567D5" fill-rule="nonzero">
            <g id="Icon/main/Market-Copy-2" transform="translate(523.000000, 518.277778)">
                <path d="M5.2925788,0.833333333 L5.4056572,0.840940684 C5.81240782,0.896121155 6.12591214,1.24478248 6.12591214,1.66666667 C6.12591214,2.12690396 5.75281609,2.5 5.2925788,2.5 L5.2925788,2.5 L3.05555556,2.5 L2.91354973,2.50717068 C2.21319407,2.57829567 1.66666667,3.16976812 1.66666667,3.88888889 L1.66666667,3.88888889 L1.66666667,16.6739241 L1.67383734,16.8159299 C1.74496233,17.5162856 2.33643479,18.062813 3.05555556,18.062813 L3.05555556,18.062813 L13.0555556,18.062813 L13.1975614,18.0556423 C13.897917,17.9845173 14.4444444,17.3930449 14.4444444,16.6739241 L14.4444444,16.6739241 L14.4520518,16.5608457 C14.5072323,16.1540951 14.8558936,15.8405908 15.2777778,15.8405908 C15.7380151,15.8405908 16.1111111,16.2136868 16.1111111,16.6739241 C16.1111111,18.3614609 14.7430923,19.7294797 13.0555556,19.7294797 L13.0555556,19.7294797 L3.05555556,19.7294797 L2.86941963,19.7239032 C1.26856066,19.6277067 0,18.2989595 0,16.6739241 L0,16.6739241 L0,3.88888889 L0.00557643772,3.70275297 C0.101773024,2.10189399 1.43052018,0.833333333 3.05555556,0.833333333 L3.05555556,0.833333333 L5.2925788,0.833333333 Z M12.2222222,0 C16.3643578,0 19.7222222,3.35786438 19.7222222,7.5 C19.7222222,11.6421356 16.3643578,15 12.2222222,15 C8.0800866,15 4.72222222,11.6421356 4.72222222,7.5 C4.72222222,3.35786438 8.0800866,0 12.2222222,0 Z M12.2222222,1.66666667 C9.00056118,1.66666667 6.38888889,4.27833896 6.38888889,7.5 C6.38888889,10.721661 9.00056118,13.3333333 12.2222222,13.3333333 C15.4438833,13.3333333 18.0555556,10.721661 18.0555556,7.5 C18.0555556,4.27833896 15.4438833,1.66666667 12.2222222,1.66666667 Z M12.2222222,4.16666667 C14.0631714,4.16666667 15.5555556,5.65905083 15.5555556,7.5 C15.5555556,9.13816262 14.3738451,10.500322 12.8163649,10.7805375 C13.1417625,10.3261422 13.3333333,9.76877632 13.3333333,9.16666667 C13.3333333,7.63254236 12.0896799,6.38888889 10.5555556,6.38888889 C9.95406874,6.38888889 9.39723318,6.58006363 8.94249659,6.90496539 C9.22190024,5.34837708 10.5840596,4.16666667 12.2222222,4.16666667 Z" id="Combined-Shape"></path>
            </g>
        </g>
    </g>
</svg>
