<?xml version="1.0" encoding="UTF-8"?>
<svg width="16px" height="15px" viewBox="0 0 16 15" version="1.1" xmlns="http://www.w3.org/2000/svg" xmlns:xlink="http://www.w3.org/1999/xlink">
    <g id="Home" stroke="none" stroke-width="1" fill="none" fill-rule="evenodd">
        <g id="rest-api-3" transform="translate(-890.000000, -467.000000)" fill="#A6B3FF" fill-rule="nonzero">
            <g id="Group" transform="translate(494.000000, 152.000000)">
                <g id="Icon/Reload" transform="translate(396.131531, 314.998705)">
                    <path d="M0.753396142,7.98245238 L5.47027107,8.73058929 C5.74485316,8.77414037 5.9321408,9.03203826 5.88858972,9.30662035 C5.84987765,9.55069332 5.64180513,9.7257929 5.40319694,9.73110336 L5.31255865,9.72493901 L2.242,9.238 L2.27479689,9.32215294 C3.40808398,12.1242208 6.47410067,13.6771198 9.4355441,12.8836034 C11.4359823,12.3475876 12.9910407,10.8440852 13.6195456,8.91047157 C13.7054859,8.64607361 13.9894912,8.50140513 14.2538892,8.58734546 C14.5182872,8.6732858 14.6629556,8.95729111 14.5770153,9.22168906 C13.8442161,11.4761673 12.0293128,13.2308998 9.69611776,13.8560776 C6.33727008,14.7560781 2.86361993,13.0692723 1.45745879,9.97016927 L1.00052871,12.8579084 C0.961870011,13.1019898 0.753835788,13.2771349 0.515228765,13.2824975 L0.42458913,13.276353 C0.1805077,13.2376943 0.00536262948,13.02966 6.61692923e-13,12.791053 L0.00614453087,12.7004134 L0.753396142,7.98245238 Z M14.3163401,4.19346455 L14.7964446,1.16638988 C14.8351033,0.922308448 15.0431376,0.747163377 15.2817446,0.741800748 L15.3723842,0.747945279 C15.6164656,0.78660398 15.7916107,0.994638203 15.7969733,1.23324523 L15.7908288,1.32388486 L15.0435772,6.04184585 L10.3267023,5.29370895 C10.0521202,5.25015787 9.86483254,4.99225998 9.90838362,4.71767788 C9.94709569,4.47360491 10.1551682,4.29850534 10.3937764,4.29319488 L10.4844147,4.29935923 L13.4677535,4.77127573 C12.3333773,1.97235811 9.26923865,0.420629242 6.3086602,1.21391385 C4.25931684,1.76303375 2.70758937,3.24616299 2.10279803,5.18509459 C2.02001356,5.45049759 1.73775184,5.59853915 1.47234884,5.51575467 C1.20694584,5.4329702 1.05890427,5.15070848 1.14168875,4.88530548 C1.84951596,2.61604589 3.66621292,0.879660829 6.04808654,0.241439716 C9.43139209,-0.665114273 12.9301264,1.05292137 14.3163401,4.19346455 Z" id="Combined-Shape"></path>
                </g>
            </g>
        </g>
    </g>
</svg>
