<?xml version="1.0" encoding="UTF-8"?>
<svg width="20px" height="20px" viewBox="0 0 20 20" version="1.1" xmlns="http://www.w3.org/2000/svg" xmlns:xlink="http://www.w3.org/1999/xlink">
    <title>1C991618-0334-48F1-8871-832F181D46E9</title>
    <g id="Develop" stroke="none" stroke-width="1" fill="none" fill-rule="evenodd">
        <g id="develop-UI-kit" transform="translate(-696.000000, -2681.000000)" fill-rule="nonzero">
            <g id="Logo/Plus/If" transform="translate(696.000000, 2681.000000)">
                <path d="M15.6105458,12.2073509 L15.7047531,12.2905396 L19.4142136,16 L15.7047531,19.7094604 C15.3142288,20.0999847 14.6810638,20.0999847 14.2905396,19.7094604 C13.9300556,19.3489765 13.9023261,18.7817454 14.2073509,18.3894542 L14.2905396,18.2952469 L15.587,16.997 L15.0534608,16.9976473 C13.4749803,16.9976473 11.9728621,16.4806152 10.7482527,15.5433396 C10.3096809,15.2076712 10.2262613,14.5800256 10.5619296,14.1414538 C10.897598,13.702882 11.5252436,13.6194623 11.9638154,13.9551307 C12.7745901,14.575671 13.7535464,14.9388966 14.7931556,14.9911058 L15.0542593,14.9976476 L15.584,14.998 L14.2905396,13.7047531 C13.9300556,13.3442692 13.9023261,12.7770381 14.2073509,12.3847469 L14.2905396,12.2905396 C14.6510235,11.9300556 15.2182546,11.9023261 15.6105458,12.2073509 Z M3,3 C4.79392302,3 6.41433377,3.50108367 7.64715199,4.48045689 C8.07958887,4.82399261 8.15165749,5.45304269 7.80812177,5.88547957 C7.46458605,6.31791645 6.83553597,6.38998507 6.40309909,6.04644935 C5.60687545,5.4139148 4.53153854,5.05379166 3.28952587,5.00557271 L3,5 L1,5 C0.44771525,5 -1.77635684e-13,4.55228475 -1.77635684e-13,4 C-1.77635684e-13,3.48716416 0.38604019,3.06449284 0.883378875,3.00672773 L1,3 L3,3 Z" id="Combined-Shape" fill="#CCD1F2"></path>
                <path d="M15.6105458,0.207350944 L15.7047531,0.290539551 L19.4142136,4 L15.7047531,7.70946045 C15.3142288,8.09998474 14.6810638,8.09998474 14.2905396,7.70946045 C13.9300556,7.34897649 13.9023261,6.78174543 14.2073509,6.38945422 L14.2905396,6.29524689 L15.583,5.00164633 L15.0542593,5.00235211 L14.8158658,5.00424885 C11.4438222,5.05885009 10,6.30209244 10,9.99999968 L10,9.99999968 L9.99681597,10.2817741 C9.89709842,14.6532102 7.45744548,16.9999997 3,16.9999997 L3,16.9999997 L1,16.9999997 L0.883378875,16.9932719 C0.38604019,16.9355068 -1.77635684e-13,16.5128355 -1.77635684e-13,15.9999997 C-1.77635684e-13,15.4477149 0.44771525,14.9999997 1,14.9999997 L1,14.9999997 L3,14.9999997 L3.25503007,14.9970838 C6.52435931,14.9212008 8,13.3615221 8,9.99999968 L8,9.99999968 L8.00287096,9.70950726 C8.09851654,4.92531653 10.5813234,3.00235243 15.0534608,3.00235243 L15.0534608,3.00235243 L15.587,3.00164633 L14.2905396,1.70475311 C13.9300556,1.34426915 13.9023261,0.777038095 14.2073509,0.384746888 L14.2905396,0.290539551 C14.6510235,-0.069944411 15.2182546,-0.0976739465 15.6105458,0.207350944 Z" id="Combined-Shape" fill="#5567D5"></path>
            </g>
        </g>
    </g>
</svg>