<?xml version="1.0" encoding="UTF-8"?>
<svg width="16px" height="14px" viewBox="0 0 16 14" version="1.1" xmlns="http://www.w3.org/2000/svg" xmlns:xlink="http://www.w3.org/1999/xlink">
    <title>import-white-icon</title>
    <g id="Portal" stroke="none" stroke-width="1" fill="none" fill-rule="evenodd">
        <g id="Portal-API" transform="translate(-442.000000, -177.000000)" fill="#ffffff" fill-rule="nonzero">
            <g id="Button/Pill/32-with-icon/Default" transform="translate(434.000000, 168.000000)">
                <g id="Icon/Clear" transform="translate(8.000000, 9.000000)">
                    <path d="M7.89371377,7.50901156 L8,7.5 L8.0534276,7.50282096 L8.12814577,7.51660826 L8.19103656,7.53779224 L8.26701032,7.57718801 L8.32213721,7.61758372 L8.38240627,7.67785636 L8.41140884,7.7156945 L10.3535534,9.6579689 C10.5488155,9.85323105 10.5488155,10.1698135 10.3535534,10.3650757 C10.179987,10.538642 9.91056264,10.5579272 9.7156945,10.4229311 L9.64644661,10.3650757 L8.5,9.219 L8.5,13.3555527 C8.5,13.631695 8.27614237,13.8555527 8,13.8555527 C7.75454011,13.8555527 7.55039163,13.6786775 7.50805567,13.4454283 L7.5,13.3555527 L7.5,9.206 L6.3420311,10.3650757 C6.14676895,10.5603378 5.83018646,10.5603378 5.63492432,10.3650757 C5.46135796,10.1915093 5.44207281,9.92208493 5.57706887,9.72721679 L5.63492432,9.6579689 L7.57706887,7.7156945 C7.59394337,7.69133598 7.61322852,7.6681424 7.63492432,7.64644661 C7.70833683,7.5730341 7.7988983,7.52722241 7.89371377,7.50901156 Z M7.0625,0.5 C9.19325066,0.5 10.9623059,2.02761274 11.2663428,4.02433288 L11.28,4.136 L12.21875,4.13636364 C14.236436,4.13636364 15.8901564,5.67685691 15.9947484,7.62232695 L16,7.81818182 C16,9.85509551 14.3036922,11.5 12.21875,11.5 C11.9426076,11.5 11.71875,11.2761424 11.71875,11 C11.71875,10.7238576 11.9426076,10.5 12.21875,10.5 C13.7581764,10.5 15,9.29580744 15,7.81818182 C15,6.39528307 13.8484599,5.22593816 12.3885247,5.14127187 L12.21875,5.13636364 L10.3125,5.13636364 L10.3125,4.63636364 C10.3125,2.90769949 8.8608099,1.5 7.0625,1.5 C5.32620079,1.5 3.91302871,2.81229061 3.81763313,4.45872581 L3.81228571,4.63766972 L3.85542781,5.09820838 L3.38203261,5.16372831 C2.01982818,5.35226323 1,6.48318484 1,7.81818182 C1,9.29580744 2.24182358,10.5 3.78125,10.5 C4.05739237,10.5 4.28125,10.7238576 4.28125,11 C4.28125,11.2761424 4.05739237,11.5 3.78125,11.5 C1.69630775,11.5 0,9.85509551 0,7.81818182 C0,6.17373365 1.11227272,4.76410632 2.66719702,4.29870058 L2.831,4.254 L2.83317776,4.22552938 C3.03832086,2.19871154 4.74525973,0.605717571 6.85067145,0.505052839 L7.0625,0.5 Z" id="Combined-Shape"></path>
                </g>
            </g>
        </g>
    </g>
</svg>
