<?xml version="1.0" encoding="UTF-8"?>
<svg width="58px" height="58px" viewBox="0 0 58 58" version="1.1" xmlns="http://www.w3.org/2000/svg" xmlns:xlink="http://www.w3.org/1999/xlink">
    <title>Info</title>
    <defs>
        <linearGradient x1="50%" y1="0%" x2="50%" y2="100%" id="linearGradient-1">
            <stop stop-color="#FFFFFF" offset="0%"></stop>
            <stop stop-color="#F7F8FB" offset="100%"></stop>
        </linearGradient>
        <circle id="path-2" cx="27" cy="27" r="27"></circle>
        <filter x="-4.6%" y="-2.8%" width="109.3%" height="109.3%" filterUnits="objectBoundingBox" id="filter-3">
            <feMorphology radius="0.5" operator="dilate" in="SourceAlpha" result="shadowSpreadOuter1"></feMorphology>
            <feOffset dx="0" dy="1" in="shadowSpreadOuter1" result="shadowOffsetOuter1"></feOffset>
            <feGaussianBlur stdDeviation="0.5" in="shadowOffsetOuter1" result="shadowBlurOuter1"></feGaussianBlur>
            <feComposite in="shadowBlurOuter1" in2="SourceAlpha" operator="out" result="shadowBlurOuter1"></feComposite>
            <feColorMatrix values="0 0 0 0 0   0 0 0 0 0   0 0 0 0 0  0 0 0 0.180725524 0" type="matrix" in="shadowBlurOuter1"></feColorMatrix>
        </filter>
    </defs>
    <g id="Develop" stroke="none" stroke-width="1" fill="none" fill-rule="evenodd">
        <g id="develop-notice" transform="translate(-691.000000, -207.000000)">
            <g id="Info" transform="translate(693.000000, 208.000000)">
                <g id="Oval" fill-rule="nonzero">
                    <use fill="black" fill-opacity="1" filter="url(#filter-3)" xlink:href="#path-2"></use>
                    <use stroke="#F0F1FB" stroke-width="1" fill="url(#linearGradient-1)" xlink:href="#path-2"></use>
                </g>
                <path d="M28.5,22.5 C29.3284271,22.5 30,23.1715729 30,24 C30,24.0774166 29.9941352,24.1534635 29.9828257,24.2277205 C29.9937196,24.3164549 30,24.407494 30,24.5 L30,37.5 C30,38.6045695 29.1045695,39.5 28,39.5 C26.8954305,39.5 26,38.6045695 26,37.5 L26,25.5 L24.5,25.5 C23.6715729,25.5 23,24.8284271 23,24 C23,23.1715729 23.6715729,22.5 24.5,22.5 L28.5,22.5 Z M27.5,14 C28.8807119,14 30,15.1192881 30,16.5 C30,17.8807119 28.8807119,19 27.5,19 C26.1192881,19 25,17.8807119 25,16.5 C25,15.1192881 26.1192881,14 27.5,14 Z" id="Combined-Shape" fill="#5567D5"></path>
            </g>
        </g>
    </g>
</svg>