<?xml version="1.0" encoding="UTF-8"?>
<svg width="16px" height="16px" viewBox="0 0 16 16" version="1.1" xmlns="http://www.w3.org/2000/svg" xmlns:xlink="http://www.w3.org/1999/xlink">
    <title>9BEA2FCD-0A4A-47ED-9A76-BA890C24C25F</title>
    <g id="Page-1" stroke="none" stroke-width="1" fill="none" fill-rule="evenodd">
        <g id="Insights-Dashboard" transform="translate(-192.000000, -176.000000)" fill="#5567D5" fill-rule="nonzero">
            <g id="Icon/Analytics/Overview" transform="translate(192.000000, 176.000000)">
                <path d="M8.00036874,9.82997953 L15.6473798,14.6089406 C15.9986349,14.8284459 16.1054311,15.2911258 15.8859158,15.642365 C15.6820802,15.9685157 15.268559,16.0838925 14.9292901,15.9229626 L14.8524446,15.8808903 L7.99925031,11.5980176 L1.14702584,15.8751406 C0.820690618,16.0786951 0.398496409,16.0008219 0.164326135,15.7072905 L0.113753759,15.6357541 C-0.0898099748,15.3094337 -0.011933283,14.8872586 0.281611428,14.6530989 L0.353151005,14.6025288 L8.00036874,9.82997953 Z M8.00036874,4.91498977 L15.6473798,9.69395078 C15.9986349,9.91345615 16.1054311,10.3761361 15.8859158,10.7273753 C15.6820802,11.053526 15.268559,11.1689028 14.9292901,11.0079728 L14.8524446,10.9659005 L7.99925031,6.6830278 L1.14702584,10.9601508 C0.820690618,11.1637053 0.398496409,11.0858321 0.164326135,10.7923007 L0.113753759,10.7207644 C-0.0898099748,10.3944439 -0.011933283,9.97226881 0.281611428,9.73810913 L0.353151005,9.68753904 L8.00036874,4.91498977 Z M8.00036874,0 L15.6473798,4.77896102 C15.9986349,4.99846639 16.1054311,5.46114629 15.8859158,5.8123855 C15.6820802,6.1385362 15.268559,6.253913 14.9292901,6.09298308 L14.8524446,6.05091073 L7.99925031,1.76803803 L1.14702584,6.04516102 C0.820690618,6.24871554 0.398496409,6.17084237 0.164326135,5.87731094 L0.113753759,5.8057746 C-0.0898099748,5.47945415 -0.011933283,5.05727904 0.281611428,4.82311936 L0.353151005,4.77254927 L8.00036874,0 Z" id="Combined-Shape"></path>
            </g>
        </g>
    </g>
</svg>