<?xml version="1.0" encoding="UTF-8"?>
<svg width="226px" height="224px" viewBox="0 -20 246 224" version="1.1" xmlns="http://www.w3.org/2000/svg" xmlns:xlink="http://www.w3.org/1999/xlink">
    <title>347FD9B9-A375-4F5E-B51B-AADFA43535DD</title>
    <g id="Home" stroke="none" stroke-width="1" fill="none" fill-rule="evenodd">
        <g id="new-dashboard-+" transform="translate(-1148.000000, -509.000000)">
            <g id="Illustration/Tutor-2" transform="translate(1261.000000, 621.000000) scale(-1, 1) translate(-1261.000000, -621.000000) translate(1148.000000, 509.000000)">
                <g id="Illustration/Tutor" transform="translate(113.000000, 112.000000) scale(-1, 1) translate(-113.000000, -112.000000) ">
                    <g id="drawkit-grape-pack-illustration-1" transform="translate(113.000000, 112.000000) scale(-1, 1) translate(-113.000000, -112.000000) ">
                        <path d="M208.488946,119.960681 C185.617469,158.727867 206.406855,178.858322 194.227333,200.729627 C182.047811,222.600932 156.112571,225.260115 127.70275,222.28663 C99.2929294,219.263172 73.9685689,202.21561 48.9725167,181.257543 C23.9764645,160.299475 -0.72634146,135.502738 0.0163364486,111.399398 C0.759014358,87.2960586 26.9376138,63.9579537 51.9432284,44.6709091 C76.9488429,25.3838645 100.781473,10.1572503 130.992208,3.90106399 C161.202942,-2.35512231 197.887406,0.306021339 213.729077,19.593066 C229.583497,38.883234 231.360423,81.1934942 208.488946,119.960681 Z" id="Path" fill="#F7F8FB" fill-rule="nonzero" opacity="0.716632661"></path>
                        <path d="M194.945935,34.1534823 L215.931423,55.1389706 C217.626151,56.8336986 217.626151,59.5813957 215.931423,61.2761238 L194.945935,82.2616121 C193.251207,83.9563401 190.50351,83.9563401 188.808782,82.2616121 L167.823294,61.2761238 C166.128566,59.5813957 166.128566,56.8336986 167.823294,55.1389706 L188.808782,34.1534823 C190.50351,32.4587542 193.251207,32.4587542 194.945935,34.1534823 Z" id="Polygon" stroke="#CED3F3" stroke-width="0.813679245" opacity="0.501516433"></path>
                        <circle id="Oval" stroke="#C6CBF0" stroke-width="0.810977787" opacity="0.165467035" stroke-linecap="round" stroke-linejoin="round" cx="149.566038" cy="154.221698" r="34.7169811"></circle>
                        <path d="M35.0328407,196.000042 C42.7830048,195.966644 102.074753,195.991344 102.083359,196.000042 C103.810001,195.290665 97.6367314,172.599456 98.8439858,171.901592 C97.9245283,165.644399 49.067158,161.079658 45.6863208,161.730601 C45.5805425,164.069929 43.3811898,185.867498 35.0328407,196.000042 Z" id="Path" fill="#3C3744" fill-rule="nonzero"></path>
                        <path d="M48.0025951,50.6132075 C48.0025951,54.8421751 45.4551257,58.6547313 41.5480692,60.2730871 C37.6410126,61.8914429 33.1437959,60.9968909 30.1534643,58.0065593 C27.1631327,55.0162276 26.2685806,50.519011 27.8869365,46.6119544 C29.5052923,42.7048978 33.3178485,40.1574285 37.546816,40.1574285 C40.3201917,40.1563495 42.9802873,41.2575905 44.9413602,43.2186634 C46.9024331,45.1797363 48.0036741,47.8398319 48.0025951,50.6132075" id="Path" fill="#95A1E5" fill-rule="nonzero"></path>
                        <path d="M101.305366,54.6382075 C102.049882,54.2883255 103.132075,51.9327241 103.132075,48.4420401 C103.132075,39.7641509 96.5412736,35.6957547 86.000059,35.6957547 C78.6403302,35.6957547 69.9665094,38.4459906 64.437559,48.7715802 C60.3081368,56.4445755 58.6278892,73.3853774 55.1819575,79.4798349 C53.0012972,83.3326061 48.3755307,91.1357901 44.8238208,98.4751769 C43.4893868,100.338502 36.7806014,114.553479 47.0248231,119.223998 C57.2690448,123.894517 104.840802,121.974233 106.106073,119.968514 C107.371344,117.962795 100.259788,103.637972 97.9204599,100.737205 C95.5811321,97.8364387 92.2247052,94.1464033 94.1368514,79.8785377 C96.0489976,65.6106722 94.3199292,57.2012972 95.9594929,56.521875 C97.5990566,55.8424528 99.5885024,55.8017689 101.305366,54.6382075" id="Path" fill="#FF9D52" fill-rule="nonzero"></path>
                        <path d="M74.8648585,64.6220519 C74.8648585,67.0734342 72.8776205,69.0606722 70.4262382,69.0606722 C67.9748559,69.0606722 65.9876179,67.0734342 65.9876179,64.6220519 C65.9876179,62.1706696 67.9748559,60.1834316 70.4262382,60.1834316 C72.8766908,60.1856746 74.8626155,62.1715993 74.8648585,64.6220519" id="Path" fill="#FFFFFF" fill-rule="nonzero"></path>
                        <path d="M44.0020047,160.050354 C43.8962264,162.389682 44.0020047,178.210539 34.4851465,194.902039" id="Path" stroke="#373754" stroke-width="1.08490566" stroke-linecap="round" stroke-linejoin="round"></path>
                        <path d="M142.343278,90.8794811 C145.781073,85.435967 144.784316,79.1584316 143.307488,81.0909198 C142.815212,81.7377948 136.391215,94.7525943 135.10967,96.0748231 L135.10967,96.0748231 C134.112913,96.1073703 133.319575,96.237559 132.985967,96.5101415 C131.68408,97.5679245 132.172288,104.980542 131.68408,105.631486 C131.195873,106.282429 112.623644,134.79375 111.805896,135.688797 C111.724528,136.014269 109.364858,125.021462 108.644752,123.076769 C106.789564,124.573939 102.171934,127.222465 100.780542,127.674057 C100.93921,128.931191 101.720342,144.472465 100.780542,149.521344 C101.569811,151.083608 106.337972,155.819222 108.364033,155.819222 C112.265625,155.819222 116.415389,154.317983 117.505719,153.56533 C122.058255,150.440802 139.62559,110.094517 140.911203,109.256427 C143.478361,107.572111 147.754245,101.762441 148.3523,98.0846108 C148.3523,96.4572524 149.686733,95.3954009 142.331073,90.8672759" id="Path" fill="#FFFFFF" fill-rule="nonzero"></path>
                        <path d="M90.4834316,96.4450472 C101.944104,92.7021226 112.371403,118.723585 111.557724,120.822877 C110.744045,122.92217 99.1735259,129.195637 96.6511203,128.862028 C94.1287146,128.52842 86.0326061,97.8893278 90.4834316,96.4369104" id="Path" fill="#A6B3FF" fill-rule="nonzero"></path>
                        <path d="M88.8113208,94.7647995 C100.271993,91.021875 110.699292,117.047406 109.885613,119.14263 C109.071934,121.237854 97.5014151,127.515389 94.9790094,127.189917 C92.4566038,126.864446 84.3360849,96.217217 88.8113208,94.7647995 Z" id="Path" stroke="#373754" stroke-width="1.08490566" stroke-linecap="round" stroke-linejoin="round"></path>
                        <path d="M76.6875,89.9396816 C109.124823,90.7004717 100.931073,163.146403 99.4420401,165.733903 C97.4363208,169.21645 55.9102005,172.377594 46.0077241,162.662264 C43.717217,160.416509 45.893809,89.2195755 76.6875,89.9396816" id="Path" fill="#A6B3FF" fill-rule="nonzero"></path>
                        <path d="M71.2480542,88.5442217 C72.4883912,88.3236713 73.7479152,88.2296159 75.0072524,88.2635024 C84.9748231,88.4954009 91.1058962,95.4971108 94.7755896,105.16362" id="Path" stroke="#373754" stroke-width="1.08490566" stroke-linecap="round" stroke-linejoin="round"></path>
                        <path d="M99.5518868,131.376297 C100.43066,147.800413 98.424941,162.898231 97.7617925,164.053656 C95.7560731,167.536203 54.2299528,170.697347 44.3274764,160.982017 C42.2444575,158.947818 43.8555425,99.8177476 67.3586675,89.7159198" id="Path" stroke="#373754" stroke-width="1.08490566" stroke-linecap="round" stroke-linejoin="round"></path>
                        <path d="M98.5754717,46.623467 C98.640566,50.6511792 70.5645637,54.4632665 70.4099646,60.1834316 C70.2553656,65.9035967 70.1617925,69.2071344 70.1617925,69.2071344 C71.1666863,74.5408019 68.9900943,93.3978184 68.3757665,95.3669222 C70.7313679,97.5597877 82.5459906,97.4011203 83.8356722,96.0748231 C83.6688679,94.7485259 83.6932783,85.7166863 84.0309552,84.6833137 L84.0309552,84.6833137 C84.5272433,84.7499929 85.0273786,84.7839694 85.528125,84.7850236 C94.564033,84.7850236 101.891215,74.1217571 101.891215,60.9645637 C101.891215,54.0889741 101.7773,52.2704009 98.5836085,46.6112618" id="Path" fill="#FFFFFF" fill-rule="nonzero"></path>
                        <path d="M59.9460495,92.140684 C72.5051887,96.0422759 64.9867925,126.465743 62.5864387,127.66592 C60.1860849,128.866097 36.6626179,122.145106 36.1825472,119.504717 C35.7024764,116.864328 43.9450472,87.1650354 59.9460495,92.140684" id="Path" fill="#A6B3FF" fill-rule="nonzero"></path>
                        <path d="M65.3285377,106.140035 C65.2268278,115.3875 62.2568986,125.310318 60.906191,125.985672 C58.5058373,127.185849 34.9823703,120.464858 34.5022995,117.824469 C34.3599057,117.047406 34.9701651,113.939151 36.3127358,110.057901" id="Path" stroke="#373754" stroke-width="1.08490566" stroke-linecap="round" stroke-linejoin="round"></path>
                        <path d="M42.9279481,97.079717 C46.7766509,91.9779481 51.910967,88.4831958 58.2658019,90.4604363 C58.7802389,90.6179672 59.2766188,90.8293378 59.7466981,91.0910377" id="Path" stroke="#373754" stroke-width="1.08490566" stroke-linecap="round" stroke-linejoin="round"></path>
                        <path d="M119.055778,120.652005 C124.218573,112.791863 129.751592,104.325531 130.016038,103.97158 C130.504245,103.320637 130.016038,95.9080189 131.317925,94.8502358 C132.619811,93.7924528 140.91934,94.8502358 140.91934,95.7941038 C140.91934,96.7379717 137.530366,99.8625 136.700413,100.094399" id="Path" stroke="#373754" stroke-width="1.08490566" stroke-linecap="round" stroke-linejoin="round"></path>
                        <path d="M107.066215,121.673172 C107.786321,123.621934 110.056486,134.358432 110.137854,134.03296 C110.345342,133.801061 111.708255,131.779068 113.632606,128.88237" id="Path" stroke="#373754" stroke-width="1.08490566" stroke-linecap="round" stroke-linejoin="round"></path>
                        <path d="M140.663031,89.1992335 C144.100825,83.7557193 143.104068,77.478184 141.627241,79.4106722 C141.134965,80.0575472 134.710967,93.0723467 133.429422,94.3945755" id="Path" stroke="#373754" stroke-width="1.08490566" stroke-linecap="round" stroke-linejoin="round"></path>
                        <path d="M141.810318,90.6191038 C141.35059,91.4897406 139.24316,95.0007665 139.24316,95.0007665" id="Path" stroke="#373754" stroke-width="1.08490566" stroke-linecap="round" stroke-linejoin="round"></path>
                        <path d="M144.06421,92.0064269 C143.169957,94.0302994 142.118446,95.9809664 140.91934,97.8405071" id="Path" stroke="#373754" stroke-width="1.08490566" stroke-linecap="round" stroke-linejoin="round"></path>
                        <path d="M146.086203,93.5198703 C145.039328,95.7911404 143.83768,97.9878198 142.489741,100.094399" id="Path" stroke="#373754" stroke-width="1.08490566" stroke-linecap="round" stroke-linejoin="round"></path>
                        <path d="M140.63862,106.437028 C140.209557,106.862572 139.742457,107.247964 139.24316,107.588384 C137.957547,108.430542 120.390212,148.772759 115.837677,151.901356 C114.747347,152.649941 110.597583,154.151179 106.695991,154.151179 C104.661792,154.151179 100.337087,150.082783 99.5518868,148.532724" id="Path" stroke="#373754" stroke-width="1.08490566" stroke-linecap="round" stroke-linejoin="round"></path>
                        <path d="M146.684257,96.4165684 C146.436085,97.9503538 145.545106,99.8543632 144.410024,101.677005" id="Path" stroke="#373754" stroke-width="1.08490566" stroke-linecap="round" stroke-linejoin="round"></path>
                        <path d="M96.5412736,74.3658608 C93.5387972,79.7076651 88.978125,83.1169811 83.8682193,83.1169811 C80.6135024,83.1169811 77.5662736,81.7255896 75.0113208,79.3293042" id="Path" stroke="#373754" stroke-width="1.08490566" stroke-linecap="round" stroke-linejoin="round"></path>
                        <path d="M96.9033608,44.9432193 C99.1275635,49.3962385 100.258625,54.31517 100.20283,59.2924528 C100.210022,61.8034682 99.9371079,64.3074512 99.3891509,66.7579599" id="Path" stroke="#373754" stroke-width="1.08490566" stroke-linecap="round" stroke-linejoin="round"></path>
                        <path d="M71.2480542,66.5789505 C69.4977139,67.7846215 67.1377875,67.5774596 65.6242733,66.085277 C64.1107592,64.5930945 63.8701227,62.2363461 65.050829,60.4690695 C66.2315352,58.7017929 68.5008944,58.0219566 70.4587854,58.8489976" id="Path" stroke="#373754" stroke-width="1.08490566" stroke-linecap="round" stroke-linejoin="round"></path>
                        <path d="M84.7714033,57.9376769 C84.7714033,58.8774764 84.3645637,59.6423349 83.843809,59.6423349 C83.3230542,59.6423349 82.920283,58.8774764 82.920283,57.9376769 C82.920283,56.9978774 83.3271226,56.2289505 83.843809,56.2289505 C84.3604953,56.2289505 84.7714033,56.993809 84.7714033,57.9376769" id="Path" fill="#3E3E58" fill-rule="nonzero"></path>
                        <path d="M93.2214623,65.9076651 C93.3768516,66.2139836 93.5680473,66.5007772 93.7910377,66.7620283" id="Path" stroke="#373754" stroke-width="1.08490566" stroke-linecap="round" stroke-linejoin="round"></path>
                        <path d="M92.3142099,60.659434 C92.2268576,61.9090245 92.3408699,63.1645334 92.6518868,64.3779481" id="Path" stroke="#373754" stroke-width="1.08490566" stroke-linecap="round" stroke-linejoin="round"></path>
                        <path d="M79.5679245,69.2762972 C79.746934,70.4724057 81.0650943,72.026533 82.9162146,72.6245873" id="Path" stroke="#373754" stroke-width="1.08490566" stroke-linecap="round" stroke-linejoin="round"></path>
                        <path d="M82.1554245,94.3945755 C81.9886203,93.0682783 82.0130307,84.0364387 82.3507075,83.003066" id="Path" stroke="#373754" stroke-width="1.08490566" stroke-linecap="round" stroke-linejoin="round"></path>
                        <path d="M67.8346698,85.6841392 C67.4278302,89.6915094 66.9396226,92.9299528 66.7036557,93.6866745 C67.6393868,94.5573113 70.0600825,95.0536557 72.7248821,95.2570755" id="Path" stroke="#373754" stroke-width="1.08490566" stroke-linecap="round" stroke-linejoin="round"></path>
                        <path d="M68.4896816,67.5309552 C68.8965212,69.6017689 68.7907429,73.7108491 68.4896816,78.0803066" id="Path" stroke="#373754" stroke-width="1.08490566" stroke-linecap="round" stroke-linejoin="round"></path>
                        <path d="M92.9570165,35.2116156 C98.3272995,37.0017099 101.451828,40.7975236 101.451828,46.7617925 C101.451828,50.2524764 100.369634,52.6080778 99.6210495,52.9579599" id="Path" stroke="#373754" stroke-width="1.08490566" stroke-linecap="round" stroke-linejoin="round"></path>
                        <path d="M56.4797759,68.9670991 C58.318691,61.5504127 59.9826651,52.2256486 62.7491745,47.0709906 C67.9363797,37.3922759 75.8819575,34.3735259 82.920283,34.0521226" id="Path" stroke="#373754" stroke-width="1.08490566" stroke-linecap="round" stroke-linejoin="round"></path>
                        <path d="M43.1435731,96.7949292 C45.5846108,91.7460495 48.5382665,86.473408 50.8735259,82.4253538" id="Path" stroke="#373754" stroke-width="1.08490566" stroke-linecap="round" stroke-linejoin="round"></path>
                        <path d="M92.192158,91.0910377 C92.3670991,92.6980542 92.6315448,94.0446934 93.0058373,94.7770047" id="Path" stroke="#373754" stroke-width="1.08490566" stroke-linecap="round" stroke-linejoin="round"></path>
                        <path d="M92.2816627,79.7117335 C91.9846698,80.7410377 91.8382075,84.0567807 91.9439858,87.3725236" id="Path" stroke="#373754" stroke-width="1.08490566" stroke-linecap="round" stroke-linejoin="round"></path>
                        <path d="M97.9977594,42.290625 C97.9977594,50.7244104 68.7378538,51.4852005 68.7378538,58.503184" id="Path" stroke="#373754" stroke-width="1.08490566" stroke-linecap="round" stroke-linejoin="round"></path>
                        <path d="M112.688738,165.632193 C115.508137,166.104127 117.115153,161.462087 118.832017,161.710259 C120.085083,161.889269 126.07783,162.658196 126.342276,163.073172 C126.606722,163.488149 125.626238,167.808785 125.626238,167.808785" id="Path" fill="#EAF0FF" fill-rule="nonzero"></path>
                        <rect id="Rectangle" fill="#FFFFFF" fill-rule="nonzero" transform="translate(102.083359, 177.449372) rotate(-80.450000) translate(-102.083359, -177.449372) " x="88.6617199" y="155.833983" width="26.8432783" height="43.2307783"></rect>
                        <polyline id="Path" stroke="#373754" stroke-width="1.08490566" stroke-linecap="round" stroke-linejoin="round" points="121.496816 180.701533 119.495165 192.597524 94.7755896 188.439623"></polyline>
                        <line x1="123.950059" y1="166.128538" x2="123.111969" y2="171.104186" id="Path" stroke="#373754" stroke-width="1.08490566" stroke-linecap="round" stroke-linejoin="round"></line>
                        <polyline id="Path" stroke="#373754" stroke-width="1.08490566" stroke-linecap="round" stroke-linejoin="round" points="80.7477594 186.079953 76.862441 185.412736 81.3376769 158.939682 117.639976 165.042276"></polyline>
                        <path d="M111.008491,163.951946 C113.827889,164.42388 115.438974,159.78184 117.151769,160.030012 C118.404835,160.209021 124.397583,160.977948 124.662028,161.392925 C124.926474,161.807901 123.945991,166.128538 123.945991,166.128538" id="Path" stroke="#373754" stroke-width="1.08490566" stroke-linecap="round" stroke-linejoin="round"></path>
                        <rect id="Rectangle" fill="#5567D5" fill-rule="nonzero" transform="translate(115.052702, 174.800848) rotate(-80.450000) translate(-115.052702, -174.800848) " x="109.322366" y="171.660046" width="11.4606722" height="6.28160377"></rect>
                        <line x1="84.9910967" y1="166.128538" x2="109.332311" y2="170.221344" id="Path" stroke="#373754" stroke-width="1.08490566" stroke-linecap="round" stroke-linejoin="round"></line>
                        <line x1="104.787913" y1="174.77388" x2="108.408785" y2="175.384139" id="Path" stroke="#373754" stroke-width="1.08490566" stroke-linecap="round" stroke-linejoin="round"></line>
                        <line x1="84.0716392" y1="171.291333" x2="98.054717" y2="173.642866" id="Path" stroke="#373754" stroke-width="1.08490566" stroke-linecap="round" stroke-linejoin="round"></line>
                        <path d="M111.423467,167.271757 C110.788797,162.389682 109.320106,157.206545 98.9416274,157.654068 C97.5380307,156.527123 70.2797759,148.79717 53.8434552,144.533491 C55.7556014,140.583078 57.9850825,128.544693 58.0989976,127.446226 C56.8784788,127.218396 38.8676887,121.677241 38.8676887,121.677241 C38.8676887,121.677241 31.3370873,153.166627 32.9725825,155.79888 C43.05,162.218809 80.8535377,166.844575 97.9204599,165.644399 C99.1165684,166.584198 98.9538325,167.174116 100.650354,167.414151 C102.346875,167.654186 111.423467,167.271757 111.423467,167.271757" id="Path" fill="#FFFFFF" fill-rule="nonzero"></path>
                        <path d="M78.9007075,150.160083 C88.6160377,152.942866 96.5209316,155.371698 97.2573113,155.973821 C107.643927,155.526297 109.10855,160.689092 109.743219,165.591509" id="Path" stroke="#373754" stroke-width="1.08490566" stroke-linecap="round" stroke-linejoin="round"></path>
                        <path d="M56.41875,125.782252 C56.3007665,126.864446 54.0712854,138.90283 52.1632075,142.869517 C57.8833726,144.346344 64.9176297,146.246285 71.7159198,148.158432" id="Path" stroke="#373754" stroke-width="1.08490566" stroke-linecap="round" stroke-linejoin="round"></path>
                        <path d="M100.756132,161.002358 C101.227037,162.6746 101.399193,164.416814 101.264682,166.14888" id="Path" stroke="#373754" stroke-width="1.08490566" stroke-linecap="round" stroke-linejoin="round"></path>
                        <path d="M103.888797,161.002358 C104.363701,162.673843 104.535927,164.416774 104.397347,166.14888" id="Path" stroke="#373754" stroke-width="1.08490566" stroke-linecap="round" stroke-linejoin="round"></path>
                        <path d="M106.415271,161.002358 C106.886666,162.674494 107.057476,164.417036 106.919752,166.14888" id="Path" stroke="#373754" stroke-width="1.08490566" stroke-linecap="round" stroke-linejoin="round"></path>
                        <path d="M31.7113797,146.079481 C30.9994104,150.465212 30.6983491,153.74434 31.3045401,154.118632 C45.3933962,163.069104 87.9732311,164.468632 96.2524175,163.964151" id="Path" stroke="#373754" stroke-width="1.08490566" stroke-linecap="round" stroke-linejoin="round"></path>
                        <path d="M37.187441,120.013267 C37.032842,120.558432 35.5804245,126.661026 34.1198703,133.565094" id="Path" stroke="#373754" stroke-width="1.08490566" stroke-linecap="round" stroke-linejoin="round"></path>
                    </g>
                </g>
            </g>
        </g>
    </g>
</svg>