<?xml version="1.0" encoding="UTF-8"?>
<svg width="16px" height="16px" viewBox="0 0 16 16" version="1.1" xmlns="http://www.w3.org/2000/svg" xmlns:xlink="http://www.w3.org/1999/xlink">
    <title>A390A6A3-0570-442E-A416-E5DE9DB8A625</title>
    <g id="Page-1" stroke="none" stroke-width="1" fill="none" fill-rule="evenodd">
        <g id="AC-overview" transform="translate(-806.000000, -241.000000)" fill="#5567D5" fill-rule="nonzero">
            <g id="Icon/Analytics/Overview" transform="translate(806.000000, 241.000000)">
                <path d="M9.37368011,0.294311259 L9.5475268,0.378605409 L9.78555646,0.515103225 C10.1543651,0.746958409 10.4732052,1.04779228 10.7250983,1.3999064 L10.8453874,1.58015489 L15.498126,10.9074086 C16.4642232,12.4622157 15.9951229,14.5068869 14.4382951,15.485602 C13.970891,15.7794403 13.4385,15.9528975 12.8889783,15.9916706 L12.6525597,16 L3.34708243,16 C1.49153646,16 0,14.4997294 0,12.6639795 C0,12.1212756 0.132810551,11.5876425 0.385780584,11.1090271 L0.501516132,10.9074086 L5.15425478,1.58015489 C6.04325914,0.149418588 7.85512769,-0.389079748 9.37368011,0.294311259 Z M6.51963134,2.23827994 L6.454,2.333 L1.8024192,11.6541691 L1.71193718,11.8099613 C1.57277672,12.0732507 1.5,12.3663533 1.5,12.6639795 C1.5,13.6252722 2.24413847,14.4171173 3.19526307,14.4938985 L3.34708243,14.5 L12.5997453,14.5009301 L12.783404,14.4953906 C13.0877097,14.4739194 13.3820337,14.3778441 13.6399573,14.2156978 C14.451301,13.7056386 14.7266422,12.6710724 14.3014325,11.8362365 L14.1558591,11.5769752 L9.544,2.332 L9.50512614,2.27264225 C9.39393516,2.1172116 9.25915115,1.98008573 9.1324155,1.88213022 L9.03936723,1.81633404 L8.85,1.707 L8.748,1.658 L8.60818104,1.60242725 C7.85164628,1.33861861 7.00138333,1.59604646 6.51963134,2.23827994 Z M8,11.128885 C8.42078838,11.128885 8.76190476,11.4518094 8.76190476,11.8501568 C8.76190476,12.2485042 8.42078838,12.5714286 8,12.5714286 C7.57921162,12.5714286 7.23809524,12.2485042 7.23809524,11.8501568 C7.23809524,11.4518094 7.57921162,11.128885 8,11.128885 Z M8,4.57142857 C8.63118257,4.57142857 9.14285714,5.05581513 9.14285714,5.65333623 C9.14285714,5.67764218 9.14201048,5.70176091 9.14034354,5.72566746 L9.14285714,5.72546341 L8.76190476,9.68634148 C8.76190476,10.0846889 8.42078838,10.4076133 8,10.4076133 C7.60926793,10.4076133 7.28723264,10.1291734 7.24322113,9.770457 L7.23809524,9.68634148 L6.85714286,5.72546341 L6.86014286,5.70742857 L6.85714286,5.65333623 C6.85714286,5.09564987 7.30286826,4.63651627 7.87547312,4.57777706 L8,4.57142857 Z" id="Combined-Shape"></path>
            </g>
        </g>
    </g>
</svg>