<?xml version="1.0" encoding="UTF-8"?>
<svg width="16px" height="16px" viewBox="0 0 16 16" version="1.1" xmlns="http://www.w3.org/2000/svg" xmlns:xlink="http://www.w3.org/1999/xlink">
    <title>8A131A78-0F8D-46B5-ACBB-DDC200269BFE</title>
    <g id="Page-1" stroke="none" stroke-width="1" fill="none" fill-rule="evenodd">
        <g id="AC-overview" transform="translate(-488.000000, -361.000000)" fill="#5567D5" fill-rule="nonzero">
            <g id="Icon/Analytics/Overview-Copy-3" transform="translate(488.764804, 361.000000)">
                <path d="M10.1914343,0.564168683 C13.2115562,1.76581039 15.2351965,4.69437971 15.2351965,8 C15.2351965,12.418278 11.6534745,16 7.23519647,16 C4.1760555,16 1.42635913,14.2671331 0.0797069324,11.5811055 C-0.105936155,11.2108225 0.0437440895,10.7601553 0.414027116,10.5745122 C0.784310142,10.3888692 1.2349773,10.5385494 1.42062039,10.9088324 C2.51527828,13.0922331 4.74910915,14.5 7.23519647,14.5 C10.8250473,14.5 13.7351965,11.5898509 13.7351965,8 C13.7351965,5.31391549 12.0908725,2.93428471 9.63689815,1.95790095 C9.25202961,1.80477002 9.06416916,1.36863527 9.2173001,0.983766732 C9.37043103,0.598898194 9.80656578,0.411037748 10.1914343,0.564168683 Z M7.23519647,0 C7.66255967,0 8.01478577,0.328005389 8.06292336,0.750577372 L8.06852981,0.849666427 L8.06852981,8.84966643 L2.90186314,8.84966643 C2.44162585,8.84966643 2.06852981,8.46925781 2.06852981,8 C2.06852981,7.5642606 2.39022996,7.20513097 2.80467887,7.1560499 L2.90186314,7.15033357 L6.40186314,7.15033357 L6.40186314,0.849666427 C6.40186314,0.413927032 6.7235633,0.0547974003 7.1380122,0.00571632744 L7.23519647,0 Z" id="Combined-Shape"></path>
            </g>
        </g>
    </g>
</svg>