<?xml version="1.0" encoding="UTF-8"?>
<svg width="32px" height="32px" viewBox="0 0 32 32" version="1.1" xmlns="http://www.w3.org/2000/svg" xmlns:xlink="http://www.w3.org/1999/xlink">
    <title>185333B0-1F7F-45A6-9EA4-58603CFD7A16</title>
    <defs>
        <rect id="path-1" x="1.86882473e-13" y="0" width="32" height="32" rx="16"></rect>
        <filter x="0.0%" y="0.0%" width="100.0%" height="100.0%" filterUnits="objectBoundingBox" id="filter-2">
            <feOffset dx="0" dy="0" in="SourceAlpha" result="shadowOffsetOuter1"></feOffset>
            <feComposite in="shadowOffsetOuter1" in2="SourceAlpha" operator="out" result="shadowOffsetOuter1"></feComposite>
            <feColorMatrix values="0 0 0 0 0   0 0 0 0 0   0 0 0 0 0  0 0 0 0.07 0" type="matrix" in="shadowOffsetOuter1"></feColorMatrix>
        </filter>
        <path d="M8,1 C9.1045695,1 10,1.8954305 10,3 L13.5,3 C13.7761424,3 14,3.22385763 14,3.5 C14,3.77614237 13.7761424,4 13.5,4 L13,4 L13,11 C13,12.6568542 11.6568542,14 10,14 L6,14 C4.34314575,14 3,12.6568542 3,11 L3,4 L2.5,4 C2.22385763,4 2,3.77614237 2,3.5 C2,3.22385763 2.22385763,3 2.5,3 L6,3 L6,3 C6,1.8954305 6.8954305,1 8,1 Z M12,4 L4,4 L4,11 C4,12.0543618 4.81587779,12.9181651 5.85073766,12.9945143 L6,13 L10,13 C11.0543618,13 11.9181651,12.1841222 11.9945143,11.1492623 L12,11 L12,4 Z M6.5,6 C6.77614237,6 7,6.22385763 7,6.5 L7,10.5 C7,10.7761424 6.77614237,11 6.5,11 C6.22385763,11 6,10.7761424 6,10.5 L6,6.5 C6,6.22385763 6.22385763,6 6.5,6 Z M9.5,6 C9.77614237,6 10,6.22385763 10,6.5 L10,10.5 C10,10.7761424 9.77614237,11 9.5,11 C9.22385763,11 9,10.7761424 9,10.5 L9,6.5 C9,6.22385763 9.22385763,6 9.5,6 Z M8,2 C7.48716416,2 7.06449284,2.38604019 7.00672773,2.88337887 L7,3 L9,3 C9,2.44771525 8.55228475,2 8,2 Z" id="path-3"></path>
    </defs>
    <g id="Page-1" stroke="none" stroke-width="1" fill="none" fill-rule="evenodd">
        <g id="Insights-Configuration" transform="translate(-1233.000000, -492.000000)">
            <g id="Button/Circle/Default" transform="translate(1233.000000, 492.000000)">
                <g id="Group" fill-rule="nonzero">
                    <g id="Shadow">
                        <use fill="black" fill-opacity="1" filter="url(#filter-2)" xlink:href="#path-1"></use>
                        <use fill-opacity="0" fill="#FFFFFF" xlink:href="#path-1"></use>
                    </g>
                </g>
                <path d="M16,0 C24.836556,-1.623249e-15 32,7.163444 32,16 C32,24.836556 24.836556,32 16,32 C7.163444,32 1.082166e-15,24.836556 0,16 C-1.082166e-15,7.163444 7.163444,1.623249e-15 16,0 Z M16,1 C7.71572875,1 1,7.71572875 1,16 C1,24.2842712 7.71572875,31 16,31 C24.2842712,31 31,24.2842712 31,16 C31,7.71572875 24.2842712,1 16,1 Z" id="Combined-Shape" fill="#F8C2C2" fill-rule="nonzero"></path>
                <g id="Icon/Clear" transform="translate(8.000000, 8.000000)">
                    <mask id="mask-4" fill="white">
                        <use xlink:href="#path-3"></use>
                    </mask>
                    <use id="Combined-Shape" fill="#FE523C" fill-rule="nonzero" xlink:href="#path-3"></use>
                </g>
            </g>
        </g>
    </g>
</svg>
