<?xml version="1.0" encoding="UTF-8"?>
<svg width="16px" height="16px" viewBox="0 0 16 16" version="1.1" xmlns="http://www.w3.org/2000/svg" xmlns:xlink="http://www.w3.org/1999/xlink">
    <title>4D9A2A8A-6FA6-4A04-BB6A-4EB7A00A8833</title>
    <defs>
        <path d="M14,13 C14.5522847,13 15,13.4477153 15,14 C15,14.5522847 14.5522847,15 14,15 L2,15 C1.44771525,15 1,14.5522847 1,14 C1,13.4477153 1.44771525,13 2,13 L14,13 Z M8,1 C8.55228475,1 9,1.44771525 9,2 L8.999,7.596 L11.0899758,5.60752201 C11.4469274,5.26759823 12.0080879,5.26848352 12.3639653,5.60953186 C12.6995389,5.93112252 12.7108744,6.46385944 12.3892837,6.79943308 L12.3620452,6.82658574 L9.276,9.764 L9.29249837,9.78093627 L8.02042891,11 L8.008,10.988 L8,11 L7.99,10.988 L7.97957109,11 L6.70750163,9.78093627 L6.723,9.765 L3.63795476,6.82658574 C3.30136811,6.50605549 3.28835182,5.97335698 3.60888208,5.63677033 C3.61772428,5.62748518 3.62677753,5.61840332 3.63603473,5.60953186 C3.99191209,5.26848352 4.55307257,5.26759823 4.91002423,5.60752201 L6.999,7.596 L7,2 C7,1.44771525 7.44771525,1 8,1 Z" id="path-1"></path>
    </defs>
    <g id="Page-1" stroke="none" stroke-width="1" fill="none" fill-rule="evenodd">
        <g id="Insights-Reports" transform="translate(-561.000000, -340.000000)">
            <g id="Button/Primary/40-+-Icon//Default" transform="translate(549.000000, 328.000000)">
                <g id="Icon/Download" transform="translate(12.000000, 12.000000)">
                    <mask id="mask-2" fill="white">
                        <use xlink:href="#path-1"></use>
                    </mask>
                    <use id="Combined-Shape" fill="#FFFFFF" xlink:href="#path-1"></use>
                </g>
            </g>
        </g>
    </g>
</svg>
