<?xml version="1.0" encoding="UTF-8"?>
<svg width="249px" height="185px" viewBox="0 0 249 185" version="1.1" xmlns="http://www.w3.org/2000/svg" xmlns:xlink="http://www.w3.org/1999/xlink">
    <title>4EB3CD88-37F3-4799-AC46-8F25DD6CEFAF</title>
    <g id="Home" stroke="none" stroke-width="1" fill="none" fill-rule="evenodd">
        <g id="new-home-page-insights-card-view" transform="translate(-344.000000, -244.000000)">
            <g id="Group-3" transform="translate(345.000000, 244.000000)">
                <path d="M222.600315,98.4283989 C205.371979,133.157442 248.103013,144.954295 238.928577,164.547399 C229.754142,184.140503 204.292388,193.3089 164.129023,175.389581 C123.965658,157.470262 100.371082,163.821793 81.5423736,145.0468 C62.7136653,126.271807 44.1058497,104.057997 44.6652847,82.4653561 C45.2247197,60.8727152 93.9382266,59.1641443 108.72254,39.5558368 C123.506852,19.9475293 157.18202,8.30792903 179.938778,2.70341178 C202.695536,-2.90110547 230.328743,-0.517157043 242.261755,16.7608729 C254.204371,34.0417009 239.82865,63.6993554 222.600315,98.4283989 Z" id="Path" fill="#F7F8FB" fill-rule="nonzero"></path>
                <g id="Group-2" transform="translate(98.984720, 103.052805) scale(-1, 1) translate(-98.984720, -103.052805) translate(0.000000, 29.714828)">
                    <rect id="Rectangle" fill="#E7EBFA" fill-rule="nonzero" x="0" y="0" width="160" height="123.64833"></rect>
                    <path d="M118.371748,40.7989429 C118.387407,27.9829113 118.387407,21.5585333 118.371748,21.5258088 C107.730696,21.5258088 99.1044195,30.1546925 99.1044195,40.7989429 C99.063626,40.8367308 105.486069,40.8367308 118.371748,40.7989429 Z" id="Oval" fill="#A6B3FF"></path>
                    <path d="M123.376249,65.0780684 C134.0173,65.0780684 142.643577,56.4491985 142.643577,45.8049481 C142.643577,35.1606977 134.0173,26.5318279 123.376249,26.5318279 C123.413564,26.5318279 123.413564,32.9562013 123.376249,45.8049481 C110.560665,45.8001587 104.138216,45.8001587 104.1089,45.8049481 C104.1089,56.4491985 112.735197,65.0780684 123.376249,65.0780684 Z" id="Oval" fill="#FFFFFF"></path>
                    <path d="M124.877599,65.5786689 C135.51865,65.5786689 144.144927,56.949799 144.144927,46.3055486" id="Path" stroke="#373754" stroke-width="0.5" stroke-linecap="round" stroke-linejoin="round"></path>
                    <path d="M67.8154872,40.7989429 C67.9058287,27.9435632 67.9058287,21.5191022 67.8154872,21.5255598 C57.1744357,21.5255598 48.548159,30.1546925 48.548159,40.7989429 C48.548159,47.3340572 51.7997776,53.109487 56.7729337,56.5948813 C56.8681719,56.6314111 60.5490231,51.3660983 67.8154872,40.7989429 Z" id="Oval" fill="#A6B3FF"></path>
                    <path d="M67.8603534,31.5672067 C67.901868,23.5327348 67.8869126,19.5180502 67.8154872,19.5231382 C57.1744357,19.5231382 48.548159,28.1522904 48.548159,38.7965408" id="Path" stroke="#373754" stroke-width="0.5" stroke-linecap="round" stroke-linejoin="round"></path>
                    <path d="M72.8199881,65.0780684 C83.4610396,65.0780684 92.0873163,56.4491985 92.0873163,45.8049481 C92.0873163,35.1606977 83.4610396,26.5318024 72.8199881,26.5318024 C72.8281481,26.6284191 72.8281481,33.052801 72.8199881,45.8049481 C65.4354419,56.2902895 61.7492678,61.5518118 61.7614659,61.5895149 C64.8915034,63.7877412 68.705105,65.0780684 72.8199881,65.0780684 Z" id="Oval" fill="#FFFFFF"></path>
                    <path d="M131.152249,10.3906055 C131.153166,11.5269775 130.497936,12.5519431 129.492288,12.9872563 C128.486639,13.4225696 127.328775,13.1824348 126.55895,12.3788982 C125.789126,11.5753616 125.559066,10.3667918 125.976115,9.31710406 C126.393165,8.26741628 127.375129,7.58349291 128.463825,7.58444966 C129.948082,7.5857564 131.150997,8.84135017 131.152249,10.3906055" id="Path" fill="#FFFFFF" fill-rule="nonzero"></path>
                    <path d="M141.242493,10.3906047 C141.24341,11.5267612 140.588426,12.5515772 139.583056,12.9870294 C138.577686,13.4224817 137.42,13.1827812 136.649997,12.3797359 C135.879993,11.5766905 135.649373,10.368509 136.065708,9.31874515 C136.482043,8.26898125 137.46331,7.58444966 138.5518,7.58444966 C140.036942,7.58444966 141.24124,8.84042507 141.242493,10.3906047" id="Path" fill="#FFFFFF" fill-rule="nonzero"></path>
                    <path d="M151.660018,10.3906202 C151.660929,11.5276371 151.006063,12.5530478 150.001272,12.9879397 C148.996482,13.4228316 147.840035,13.18139 147.072046,12.3763789 C146.304056,11.5713679 146.076065,10.3616355 146.494556,9.31218065 C146.913046,8.26272585 147.89544,7.58063134 148.982914,7.58444966 C150.465557,7.58444966 151.667828,8.84044089 151.669078,10.3906202" id="Path" fill="#FFFFFF" fill-rule="nonzero"></path>
                    <rect id="Rectangle" fill="#CED3F3" fill-rule="nonzero" x="104.385273" y="80.5966847" width="93.0837156" height="65.0780684" rx="6"></rect>
                    <path d="M197.969439,87.605092 L197.969439,140.668748 C197.969439,143.986436 195.28073,146.675954 191.964038,146.675954 L149.101805,146.675954" id="Path" stroke="#373754" stroke-width="0.5" fill-rule="nonzero"></path>
                    <path d="M66.4124185,98.2008214 L89.2798138,98.2008214 C90.3843833,98.2008214 91.2798138,99.0962519 91.2798138,100.200821 L91.2798138,100.204422 C91.2798138,101.308992 90.3843833,102.204422 89.2798138,102.204422 L66.4124185,102.204422 C65.307849,102.204422 64.4124185,101.308992 64.4124185,100.204422 L64.4124185,100.200821 C64.4124185,99.0962519 65.307849,98.2008214 66.4124185,98.2008214 Z" id="Rectangle-Copy-3" fill="#FFFFFF" fill-rule="nonzero" transform="translate(77.846116, 100.202622) rotate(-90.000000) translate(-77.846116, -100.202622) "></path>
                    <path d="M78.3790612,97.656212 L102.335675,97.656212 C103.440245,97.656212 104.335675,98.5516425 104.335675,99.656212 L104.335675,99.6598127 C104.335675,100.764382 103.440245,101.659813 102.335675,101.659813 L78.3790612,101.659813 C77.2744917,101.659813 76.3790612,100.764382 76.3790612,99.6598127 L76.3790612,99.656212 C76.3790612,98.5516425 77.2744917,97.656212 78.3790612,97.656212 Z" id="Rectangle-Copy-10" fill="#FFFFFF" fill-rule="nonzero" transform="translate(90.357368, 99.658012) rotate(-90.000000) translate(-90.357368, -99.658012) "></path>
                    <path d="M38.485331,94.9331652 L67.1618928,94.9331652 C68.2664623,94.9331652 69.1618928,95.8285957 69.1618928,96.9331652 L69.1618928,96.9367659 C69.1618928,98.0413354 68.2664623,98.9367659 67.1618928,98.9367659 L38.485331,98.9367659 C37.3807615,98.9367659 36.485331,98.0413354 36.485331,96.9367659 L36.485331,96.9331652 C36.485331,95.8285957 37.3807615,94.9331652 38.485331,94.9331652 Z" id="Rectangle-Copy-13" fill="#FFFFFF" fill-rule="nonzero" transform="translate(52.823612, 96.934966) rotate(-90.000000) translate(-52.823612, -96.934966) "></path>
                    <path d="M54.6273122,98.9269672 L76.0424158,98.9269672 C77.1469853,98.9269672 78.0424158,99.8223977 78.0424158,100.926967 L78.0424158,100.930568 C78.0424158,102.035137 77.1469853,102.930568 76.0424158,102.930568 L54.6273122,102.930568 C53.5227427,102.930568 52.6273122,102.035137 52.6273122,100.930568 L52.6273122,100.926967 C52.6273122,99.8223977 53.5227427,98.9269672 54.6273122,98.9269672 Z" id="Rectangle-Copy-5" fill="#FFFFFF" fill-rule="nonzero" transform="translate(65.334864, 100.928768) rotate(-90.000000) translate(-65.334864, -100.928768) "></path>
                    <path d="M52.127163,102.930869 C52.127163,101.825305 53.023669,100.929068 54.1295651,100.929068 L75.5398645,100.929068" id="Path" stroke="#373754" stroke-width="0.5" stroke-linecap="round" stroke-linejoin="round" transform="translate(63.833514, 101.929969) rotate(-90.000000) translate(-63.833514, -101.929969) "></path>
                    <path d="M36.2485523,99.5635101 C36.2485523,98.4579463 37.1450582,97.5617098 38.2509544,97.5617098 L66.3959711,97.5617098" id="Path-Copy" stroke="#373754" stroke-width="0.5" stroke-linecap="round" stroke-linejoin="round" transform="translate(51.322262, 98.562610) rotate(-90.000000) translate(-51.322262, -98.562610) "></path>
                    <path d="M25.9740789,94.9331652 L54.6506407,94.9331652 C55.7552102,94.9331652 56.6506407,95.8285957 56.6506407,96.9331652 L56.6506407,96.9367659 C56.6506407,98.0413354 55.7552102,98.9367659 54.6506407,98.9367659 L25.9740789,98.9367659 C24.8695094,98.9367659 23.9740789,98.0413354 23.9740789,96.9367659 L23.9740789,96.9331652 C23.9740789,95.8285957 24.8695094,94.9331652 25.9740789,94.9331652 Z" id="Rectangle-Copy-15" fill="#FFFFFF" fill-rule="nonzero" transform="translate(40.312360, 96.934966) rotate(-90.000000) translate(-40.312360, -96.934966) "></path>
                    <polyline id="Path-2" stroke="#FFFFFF" stroke-width="4" stroke-linecap="round" points="180.770847 119.460181 174.181834 126.051175 154.968372 106.831937 144.558336 117.245103 138.082587 110.767407 130.358279 118.494037 115.128703 103.259883"></polyline>
                </g>
                <g id="Illustration/Tutor" transform="translate(149.339101, 21.191086)">
                    <g id="drawkit-grape-pack-illustration-1" transform="translate(48.830449, 66.617361) scale(-1, 1) translate(-48.830449, -66.617361) ">
                        <path d="M12.2273359,106.174318 C12.1393935,108.119647 10.7052548,122.04143 8.95317035,127.29889 C14.8216386,126.524142 46.8022539,120.194214 56.4218064,114.632267 C55.6573835,109.428937 15.0381124,105.63301 12.2273359,106.174318" id="Path" fill="#3C3744" fill-rule="nonzero"></path>
                        <path d="M58.4681599,17.1188877 C59.0871396,16.8279342 59.9868586,14.8690734 59.9868586,11.9663055 C59.9868586,4.74998385 54.5073667,1.36680447 45.7435619,1.36680447 C39.6247958,1.36680447 32.4135138,3.65383373 27.8168289,12.240343 C24.3836904,18.6210193 22.9867582,32.7085782 20.1218633,37.7765809 C18.3088956,40.9804518 14.463104,47.4693899 11.5102666,53.5726454 C10.4008386,55.1221416 4.82325695,66.9429704 13.3401463,70.8268603 C21.8570357,74.7107502 61.4074677,73.1138895 62.4593948,71.4459821 C63.511322,69.7780747 57.5988825,57.8659001 55.6540011,55.4536932 C53.7091197,53.0414863 50.9186376,49.9729426 52.5083668,38.1081325 C54.098096,26.2433224 52.6605749,19.2502907 54.0236831,18.6852997 C55.3867913,18.1203087 57.0407861,18.086477 58.4681599,17.1188877" id="Path" fill="#FF9D52" fill-rule="nonzero"></path>
                        <path d="M36.4859264,25.4212098 C36.4859264,27.4597198 34.8337671,29.1122585 32.7957253,29.1122585 C30.7576835,29.1122585 29.1055242,27.4597198 29.1055242,25.4212098 C29.1055242,23.3826999 30.7576835,21.7301611 32.7957253,21.7301611 C34.8329941,21.7320264 36.4840616,23.383473 36.4859264,25.4212098" id="Path" fill="#FFFFFF" fill-rule="nonzero"></path>
                        <path d="M10.8270213,104.777065 C10.7390789,106.722393 9.30494021,120.644177 7.55285574,125.901637" id="Path" stroke="#373754" stroke-width="0.5" stroke-linecap="round" stroke-linejoin="round"></path>
                        <path d="M92.5864535,47.2562496 C95.4445836,42.7295555 94.615895,37.5093098 93.3880829,39.11632 C92.9788122,39.6542455 87.6379987,50.4770363 86.572542,51.5765696 L86.572542,51.5765696 C85.7438534,51.6036351 85.0842849,51.7118968 84.8069279,51.9385698 C83.7245591,52.8181964 84.1304474,58.9823493 83.7245591,59.523658 C83.3186708,60.0649667 67.8780036,83.7742878 67.1981407,84.5185872 C67.1304926,84.7892416 65.1686992,75.6478909 64.570014,74.0307311 C63.0276384,75.2757412 59.1886117,77.4781909 58.03183,77.8537238 C58.1637437,78.8991263 58.813165,91.8228715 58.03183,96.0213971 C58.6880161,97.320538 62.6521918,101.258559 64.3366282,101.258559 C67.5803522,101.258559 71.0304027,100.010166 71.9368865,99.3842774 C75.7217949,96.7859956 90.3270087,63.2350058 91.3958479,62.5380708 C93.5301438,61.1374345 97.0850488,56.3062544 97.582262,53.2478602 C97.582262,51.8945885 98.69169,51.0115787 92.5763063,47.2461" id="Path" fill="#FFFFFF" fill-rule="nonzero"></path>
                        <path d="M49.4709694,51.8844389 C58.9991971,48.7719139 67.6682946,70.4107292 66.9918141,72.1564498 C66.3153336,73.9021703 56.695781,79.1190329 54.5986915,78.8416122 C52.501602,78.5641915 45.7706211,53.0854676 49.4709694,51.8776726" id="Path" fill="#A6B3FF" fill-rule="nonzero"></path>
                        <path d="M48.080802,50.4871859 C57.6090297,47.3746608 66.2781272,69.0168593 65.6016467,70.7591967 C64.9251662,72.5015341 55.3056136,77.7217798 53.2085241,77.4511255 C51.1114346,77.1804711 44.3601593,51.6949809 48.080802,50.4871859 Z" id="Path" stroke="#373754" stroke-width="0.5" stroke-linecap="round" stroke-linejoin="round"></path>
                        <path d="M38.0012427,46.4747351 C64.9691375,47.1073897 58.1569789,107.351665 56.9190196,109.503367 C55.2514952,112.399368 20.7273133,115.028099 12.4945457,106.949066 C10.5902531,105.081551 12.3998385,45.8759124 38.0012427,46.4747351" id="Path" fill="#A6B3FF" fill-rule="nonzero"></path>
                        <path d="M33.4789706,45.3143046 C34.5101678,45.1309002 35.5573168,45.0526861 36.6043104,45.0808652 C44.8911965,45.2737064 49.988477,51.0961581 53.039404,59.1345923" id="Path" stroke="#373754" stroke-width="0.5" stroke-linecap="round" stroke-linejoin="round"></path>
                        <path d="M57.0103445,80.9324171 C57.7409434,94.5903122 56.073419,107.145291 55.5220874,108.106114 C53.854563,111.002115 19.3303811,113.630846 11.0976135,105.551813 C9.36582345,103.860224 10.7052548,54.6890946 30.2453938,46.2886602" id="Path" stroke="#373754" stroke-width="0.5" stroke-linecap="round" stroke-linejoin="round"></path>
                        <path d="M56.1985679,10.4540243 C56.2526863,13.8033719 32.910727,16.9734109 32.7821957,21.7301611 C32.6536644,26.4869113 32.5758691,29.234053 32.5758691,29.234053 C33.4113225,33.6694012 31.6017372,49.3504376 31.0909944,50.9878964 C33.0494055,52.8114301 42.8719022,52.6794861 43.9441238,51.5765696 C43.8054453,50.4736531 43.8257397,42.9629949 44.1064791,42.1036674 L44.1064791,42.1036674 C44.5190855,42.1591161 44.9348903,42.1873702 45.3512032,42.1882468 C52.8635191,42.1882468 58.9552259,33.3209337 58.9552259,22.3797316 C58.9552259,16.6621584 58.8605186,15.1498773 56.2053327,10.4438747" id="Path" fill="#FFFFFF" fill-rule="nonzero"></path>
                        <path d="M24.0826565,48.3050352 C34.5241329,51.5495042 28.2734532,76.8489196 26.2778357,77.8469575 C24.2822183,78.8449954 4.72516728,73.2559831 4.32604379,71.0602997 C3.9269203,68.8646162 10.7796677,44.1674068 24.0826565,48.3050352" id="Path" fill="#A6B3FF" fill-rule="nonzero"></path>
                        <path d="M28.557575,59.9465554 C28.4730149,67.6365221 26.0038611,75.8880966 24.8809035,76.4497044 C22.8852861,77.4477423 3.32823507,71.85873 2.92911158,69.6630466 C2.81072749,69.0168593 3.31808786,66.4321103 4.43428067,63.2045571" id="Path" stroke="#373754" stroke-width="0.5" stroke-linecap="round" stroke-linejoin="round"></path>
                        <path d="M9.93406707,52.4122149 C13.1338198,48.169708 17.4024117,45.2635569 22.6857243,46.9077821 C23.1134194,47.0387809 23.5261021,47.2145515 23.9169188,47.4321749" id="Path" stroke="#373754" stroke-width="0.5" stroke-linecap="round" stroke-linejoin="round"></path>
                        <path d="M73.2255819,72.0143562 C77.5178506,65.4780537 82.1179179,58.4376574 82.3377741,58.1433208 C82.7436624,57.6020121 82.3377741,51.4378593 83.4201429,50.5582326 C84.5025117,49.678606 91.4026127,50.5582326 91.4026127,51.3431302 C91.4026127,52.1280279 88.5850714,54.7263096 87.8950613,54.9191508" id="Path" stroke="#373754" stroke-width="0.5" stroke-linecap="round" stroke-linejoin="round"></path>
                        <path d="M63.2576418,72.8635343 C63.856327,74.4840772 65.7437076,83.4122876 65.8113557,83.1416332 C65.9838582,82.948792 67.116963,81.2673518 68.7168394,78.8585281" id="Path" stroke="#373754" stroke-width="0.5" stroke-linecap="round" stroke-linejoin="round"></path>
                        <path d="M91.1895213,45.8589965 C94.0476514,41.3323025 93.2189628,36.1120567 91.9911507,37.7190669 C91.58188,38.2569924 86.2410665,49.0797832 85.1756097,50.1793165" id="Path" stroke="#373754" stroke-width="0.5" stroke-linecap="round" stroke-linejoin="round"></path>
                        <path d="M92.1433588,47.0397261 C91.7611473,47.7637265 90.0090629,50.6834103 90.0090629,50.6834103" id="Path" stroke="#373754" stroke-width="0.5" stroke-linecap="round" stroke-linejoin="round"></path>
                        <path d="M94.0172098,48.1933902 C93.2737413,49.8763934 92.3995318,51.4985207 91.4026127,53.0448695" id="Path" stroke="#373754" stroke-width="0.5" stroke-linecap="round" stroke-linejoin="round"></path>
                        <path d="M95.6982638,49.451933 C94.8279084,51.340666 93.8288759,53.1673711 92.70822,54.9191508" id="Path" stroke="#373754" stroke-width="0.5" stroke-linecap="round" stroke-linejoin="round"></path>
                        <path d="M91.1692269,60.1935275 C90.8125104,60.5473995 90.4241702,60.8678821 90.0090629,61.1509673 C88.9402237,61.8512854 74.3350099,95.3988921 70.5501015,98.000557 C69.6436177,98.623062 66.1935671,99.8714552 62.9498432,99.8714552 C61.258642,99.8714552 57.6631481,96.4882759 57.0103445,95.1992845" id="Path" stroke="#373754" stroke-width="0.5" stroke-linecap="round" stroke-linejoin="round"></path>
                        <path d="M96.1954769,51.8607567 C95.9891504,53.1362153 95.2484043,54.7195433 94.304714,56.2352076" id="Path" stroke="#373754" stroke-width="0.5" stroke-linecap="round" stroke-linejoin="round"></path>
                        <path d="M54.5073667,33.5239245 C52.0111536,37.966039 48.2194805,40.8011433 43.971183,40.8011433 C41.265261,40.8011433 38.7318416,39.644096 36.6076928,37.6514033" id="Path" stroke="#373754" stroke-width="0.5" stroke-linecap="round" stroke-linejoin="round"></path>
                        <path d="M54.8084005,9.05677119 C56.6575686,12.7597937 57.5979157,16.8502575 57.5515289,20.9892449 C57.5575077,23.0773442 57.3306115,25.1595956 56.8750484,27.197379" id="Path" stroke="#373754" stroke-width="0.5" stroke-linecap="round" stroke-linejoin="round"></path>
                        <path d="M33.4789706,27.0485191 C32.0237643,28.0511258 30.0617576,27.878855 28.803445,26.6379923 C27.5451325,25.3971296 27.3450711,23.437315 28.3266922,21.9676907 C29.3083133,20.4980664 31.1950239,19.9327311 32.8227845,20.6204783" id="Path" stroke="#373754" stroke-width="0.5" stroke-linecap="round" stroke-linejoin="round"></path>
                        <path d="M44.7220763,19.8626461 C44.7220763,20.6441606 44.3838361,21.2801983 43.9508886,21.2801983 C43.5179411,21.2801983 43.1830832,20.6441606 43.1830832,19.8626461 C43.1830832,19.0811317 43.5213235,18.4417108 43.9508886,18.4417108 C44.3804537,18.4417108 44.7220763,19.0777485 44.7220763,19.8626461" id="Path" fill="#3E3E58" fill-rule="nonzero"></path>
                        <path d="M51.7473263,26.4902945 C51.8765146,26.7450215 52.0354718,26.9835121 52.2208626,27.2007622" id="Path" stroke="#373754" stroke-width="0.5" stroke-linecap="round" stroke-linejoin="round"></path>
                        <path d="M50.9930505,22.1259931 C50.9204272,23.1651222 51.0152152,24.2091729 51.2737899,25.2182191" id="Path" stroke="#373754" stroke-width="0.5" stroke-linecap="round" stroke-linejoin="round"></path>
                        <path d="M40.3959836,29.2915671 C40.5448093,30.2862218 41.6407077,31.5785963 43.1797008,32.0759237" id="Path" stroke="#373754" stroke-width="0.5" stroke-linecap="round" stroke-linejoin="round"></path>
                        <path d="M42.5471916,50.1793165 C42.4085131,49.0764001 42.4288075,41.5657418 42.7095469,40.7064143" id="Path" stroke="#373754" stroke-width="0.5" stroke-linecap="round" stroke-linejoin="round"></path>
                        <path d="M30.6411349,42.9359295 C30.3028947,46.2683612 29.8970064,48.961372 29.700827,49.5906433 C30.4787796,50.3146437 32.4913091,50.7273916 34.7067827,50.8965506" id="Path" stroke="#373754" stroke-width="0.5" stroke-linecap="round" stroke-linejoin="round"></path>
                        <path d="M31.1857017,27.8401831 C31.523942,29.5622214 31.4359995,32.9792326 31.1857017,36.6127672" id="Path" stroke="#373754" stroke-width="0.5" stroke-linecap="round" stroke-linejoin="round"></path>
                        <path d="M51.5274701,0.964206123 C55.9922413,2.45280505 58.5899264,5.60931141 58.5899264,10.5690524 C58.5899264,13.4718203 57.6902074,15.4306811 57.0678453,15.7216346" id="Path" stroke="#373754" stroke-width="0.5" stroke-linecap="round" stroke-linejoin="round"></path>
                        <path d="M21.2008497,29.0344454 C22.7296956,22.8669094 24.1130982,15.1126623 26.4131318,10.826174 C30.725695,2.77759027 37.331527,0.267271171 43.1830832,0" id="Path" stroke="#373754" stroke-width="0.5" stroke-linecap="round" stroke-linejoin="round"></path>
                        <path d="M10.1133344,52.1753924 C12.1427759,47.9768668 14.5984001,43.5922663 16.5398991,40.2260028" id="Path" stroke="#373754" stroke-width="0.5" stroke-linecap="round" stroke-linejoin="round"></path>
                        <path d="M50.8915784,47.4321749 C51.0370217,48.7685307 51.2568779,49.8883631 51.5680589,50.4973354" id="Path" stroke="#373754" stroke-width="0.5" stroke-linecap="round" stroke-linejoin="round"></path>
                        <path d="M50.9659913,37.9694222 C50.7190759,38.8253665 50.5973094,41.5826577 50.6852519,44.3399489" id="Path" stroke="#373754" stroke-width="0.5" stroke-linecap="round" stroke-linejoin="round"></path>
                        <path d="M55.7182667,6.85093824 C55.7182667,13.8642691 31.3920283,14.4969236 31.3920283,20.3329081" id="Path" stroke="#373754" stroke-width="0.5" stroke-linecap="round" stroke-linejoin="round"></path>
                        <path d="M67.932122,109.418787 C70.2761269,109.811236 71.6121759,105.951029 73.0395497,106.157403 C74.0813297,106.306262 79.0636085,106.945683 79.2834647,107.290768 C79.5033208,107.635852 78.6881618,111.228788 78.6881618,111.228788" id="Path" fill="#EAF0FF" fill-rule="nonzero"></path>
                        <polygon id="Rectangle" fill="#F7F8FB" fill-rule="nonzero" transform="translate(59.114972, 119.245666) rotate(-80.450000) translate(-59.114972, -119.245666) " points="47.9546089 101.275267 70.2766854 101.274429 70.2753347 137.216064 47.9532582 137.216903"></polygon>
                        <polyline id="Path" stroke="#373754" stroke-width="0.5" stroke-linecap="round" stroke-linejoin="round" points="75.2550233 121.950084 73.5908813 131.8425 53.039404 128.384891"></polyline>
                        <line x1="77.294612" y1="109.831535" x2="76.5978371" y2="113.969164" id="Path" stroke="#373754" stroke-width="0.5" stroke-linecap="round" stroke-linejoin="round"></line>
                        <polyline id="Path" stroke="#373754" stroke-width="0.5" stroke-linecap="round" stroke-linejoin="round" points="41.3768803 126.422647 38.146686 125.867806 41.8673287 103.853457 72.0485058 108.928226"></polyline>
                        <path d="M66.5351898,108.021534 C68.8791947,108.413983 70.2186261,104.553775 71.6426175,104.760149 C72.6843975,104.909009 77.6666763,105.54843 77.8865324,105.893515 C78.1063886,106.238599 77.2912296,109.831535 77.2912296,109.831535" id="Path" stroke="#373754" stroke-width="0.5" stroke-linecap="round" stroke-linejoin="round"></path>
                        <polygon id="Rectangle" fill="#5567D5" fill-rule="nonzero" transform="translate(69.897485, 117.043218) rotate(-80.450000) translate(-69.897485, -117.043218) " points="65.1324054 114.432166 74.6627614 114.431808 74.6625652 119.65427 65.1322091 119.654628"></polygon>
                        <line x1="44.9047261" y1="109.831535" x2="65.14164" y2="113.235014" id="Path" stroke="#373754" stroke-width="0.5" stroke-linecap="round" stroke-linejoin="round"></line>
                        <line x1="61.3634964" y1="117.020792" x2="64.3738346" y2="117.528268" id="Path" stroke="#373754" stroke-width="0.5" stroke-linecap="round" stroke-linejoin="round"></line>
                        <line x1="44.1403031" y1="114.12479" x2="55.7656204" y2="116.080268" id="Path" stroke="#373754" stroke-width="0.5" stroke-linecap="round" stroke-linejoin="round"></line>
                        <g id="Group" transform="translate(0.000000, 71.483197)">
                            <path d="M66.8801948,39.2990117 C66.3525401,35.2391964 65.1314928,30.9290259 56.5029841,31.3011756 C55.3360553,30.3640349 32.6739588,23.9359941 19.0090529,20.3904221 C20.598782,17.1053549 22.4523386,7.09452716 22.5470458,6.18106872 C21.5323251,5.99161068 6.55842941,1.38372037 6.55842941,1.38372037 C6.55842941,1.38372037 0.297602463,27.5695288 1.65732825,29.7584458 C10.0355391,35.0971029 41.4648228,38.9437778 55.6540011,37.9457399 C56.6484274,38.7272543 56.5131313,39.2178153 57.9235931,39.4174229 C59.334055,39.6170305 66.8801948,39.2990117 66.8801948,39.2990117" id="Path" fill="#FFFFFF" fill-rule="nonzero"></path>
                            <path d="M39.8412696,25.0693592 C47.9184467,27.3834539 54.4904546,29.403212 55.1026695,29.9039225 C63.737943,29.5317728 64.9556078,33.8250274 65.4832626,37.9017586" id="Path" stroke="#373754" stroke-width="0.5" stroke-linecap="round" stroke-linejoin="round"></path>
                            <path d="M21.1501136,4.79734836 C21.0520239,5.69727407 19.1984674,15.7081019 17.6121206,19.0067017 C22.3677785,20.2347959 28.2159524,21.8147406 33.8679469,23.4048349" id="Path" stroke="#373754" stroke-width="0.5" stroke-linecap="round" stroke-linejoin="round"></path>
                            <path d="M58.0115356,34.0855322 C58.4030388,35.4761278 58.5461663,36.9249107 58.4343359,38.3652541" id="Path" stroke="#373754" stroke-width="0.5" stroke-linecap="round" stroke-linejoin="round"></path>
                            <path d="M60.6159855,34.0855322 C61.0108133,35.4754983 61.1539997,36.9248771 61.0387858,38.3652541" id="Path" stroke="#373754" stroke-width="0.5" stroke-linecap="round" stroke-linejoin="round"></path>
                            <path d="M62.7164574,34.0855322 C63.1083676,35.4760396 63.2503768,36.925095 63.1358753,38.3652541" id="Path" stroke="#373754" stroke-width="0.5" stroke-linecap="round" stroke-linejoin="round"></path>
                            <path d="M0.608783489,21.6760303 C0.0168630589,25.3230976 -0.233434723,28.0499402 0.270543243,28.3611927 C11.983803,35.8041874 47.3840271,36.9680011 54.2672161,36.5484868" id="Path" stroke="#373754" stroke-width="0.5" stroke-linecap="round" stroke-linejoin="round"></path>
                            <path d="M5.1614972,0 C5.0329659,0.453346037 3.82544823,5.5281151 2.61116574,11.2693705" id="Path" stroke="#373754" stroke-width="0.5" stroke-linecap="round" stroke-linejoin="round"></path>
                        </g>
                    </g>
                </g>
            </g>
        </g>
    </g>
</svg>
