<?xml version="1.0" encoding="UTF-8"?>
<svg width="182px" height="212px" viewBox="0 0 182 212" version="1.1" xmlns="http://www.w3.org/2000/svg" xmlns:xlink="http://www.w3.org/1999/xlink">
    <title>76D490CA-0B63-44EF-A2E4-A9978B13325C</title>
    <g id="Home" stroke="none" stroke-width="1" fill="none" fill-rule="evenodd">
        <g id="new-create-integration" transform="translate(-431.000000, -233.000000)">
            <g id="Integration" transform="translate(431.686023, 233.629980)">
                <path d="M87.6908773,15.9817222 C81.6085624,16.7534405 74.6759782,19.5598962 66.2784772,24.3761213 C65.1293166,25.0352003 64.0453304,25.6699616 62.9599477,26.3230081 L61.3225051,27.3216172 C10.2771288,52.7694161 -15.2914089,71.3348296 -15.3831079,83.0178577 C-15.6097989,111.899693 -5.74954037,136.331799 14.1976676,156.314176 L15.2783372,157.282702 L16.3683995,158.241253 L17.1025499,158.87686 C17.2254971,158.982655 17.3487573,159.088396 17.4723582,159.194112 C26.6638742,167.055594 35.956147,172.876904 46.3376197,176.925159 C69.7679771,186.040459 106.869092,201.331289 129.918148,193.198056 C150.918823,185.772102 176.44106,185.190242 188.097141,164.903076 C198.310948,147.180652 195.963044,115.470838 193.436622,98.3025759 C190.547377,79.0317057 171.440582,50.3692704 154.865163,37.3861464 C135.480629,22.2027112 109.176961,13.2872772 87.6908773,15.9817222 Z" id="Path" fill="#F7F8FB" fill-rule="nonzero" transform="translate(90.113071, 105.504023) rotate(-90.000000) translate(-90.113071, -105.504023) "></path>
                <circle id="Oval" stroke="#C6CBF0" stroke-width="0.74750996" opacity="0.397654942" stroke-linecap="round" stroke-linejoin="round" cx="139.546248" cy="28.7071713" r="15.7071713"></circle>
                <path d="M37.1424046,144.198447 L50.4855503,157.541593 C52.0476475,159.10369 52.0476475,161.63635 50.4855503,163.198447 L37.1424046,176.541593 C35.5803074,178.10369 33.0476475,178.10369 31.4855503,176.541593 L18.1424046,163.198447 C16.5803074,161.63635 16.5803074,159.10369 18.1424046,157.541593 L31.4855503,144.198447 C33.0476475,142.63635 35.5803074,142.63635 37.1424046,144.198447 Z" id="Polygon" stroke="#CED3F3" stroke-width="0.75"></path>
                <path d="M19.2395316,26.3591458 L77.2395316,26.3591458 C86.0760876,26.3591458 93.2395316,33.5225898 93.2395316,42.3591458 L93.2395316,80.3591458 C93.2395316,89.1957018 86.0760876,96.3591458 77.2395316,96.3591458 L19.2395316,96.3591458 C10.4029756,96.3591458 3.23953162,89.1957018 3.23953162,80.3591458 L3.23953162,42.3591458 C3.23953162,33.5225898 10.4029756,26.3591458 19.2395316,26.3591458 Z" id="Path" fill="#CED3F3"></path>
                <path d="M44.8139775,39.3700199 L78.8139775,39.3700199 C79.6424046,39.3700199 80.3139775,40.0415928 80.3139775,40.8700199 C80.3139775,41.698447 79.6424046,42.3700199 78.8139775,42.3700199 L44.8139775,42.3700199 C43.9855503,42.3700199 43.3139775,41.698447 43.3139775,40.8700199 C43.3139775,40.0415928 43.9855503,39.3700199 44.8139775,39.3700199 Z" id="Path-Copy-2" fill="#FFFFFF"></path>
                <path d="M44.8139775,48.3700199 L64.8139775,48.3700199 C65.6424046,48.3700199 66.3139775,49.0415928 66.3139775,49.8700199 C66.3139775,50.698447 65.6424046,51.3700199 64.8139775,51.3700199 L44.8139775,51.3700199 C43.9855503,51.3700199 43.3139775,50.698447 43.3139775,49.8700199 C43.3139775,49.0415928 43.9855503,48.3700199 44.8139775,48.3700199 Z" id="Path-Copy-3" fill="#FFFFFF"></path>
                <path d="M27.8139775,38.3700199 C32.2322555,38.3700199 35.8139775,41.9517419 35.8139775,46.3700199 C35.8139775,50.7882979 32.2322555,54.3700199 27.8139775,54.3700199 C26.9855503,54.3700199 26.3139775,53.698447 26.3139775,52.8700199 C26.3139775,52.0415928 26.9855503,51.3700199 27.8139775,51.3700199 C30.5754012,51.3700199 32.8139775,49.1314437 32.8139775,46.3700199 C32.8139775,43.6085962 30.5754012,41.3700199 27.8139775,41.3700199 C25.5749552,41.3700199 23.6796695,42.8417312 23.0427067,44.8705674 L26.3139775,44.8700199 L21.3139775,50.8700199 L16.3139775,44.8700199 L19.9542932,44.8704419 C20.656236,41.1689416 23.9082451,38.3700199 27.8139775,38.3700199 Z" id="Combined-Shape-Copy" fill="#FFFFFF" fill-rule="nonzero"></path>
                <path d="M44.8139775,68.3700199 L78.8139775,68.3700199 C79.6424046,68.3700199 80.3139775,69.0415928 80.3139775,69.8700199 C80.3139775,70.698447 79.6424046,71.3700199 78.8139775,71.3700199 L44.8139775,71.3700199 C43.9855503,71.3700199 43.3139775,70.698447 43.3139775,69.8700199 C43.3139775,69.0415928 43.9855503,68.3700199 44.8139775,68.3700199 Z" id="Path" fill="#FFFFFF"></path>
                <path d="M44.8139775,77.3700199 L64.8139775,77.3700199 C65.6424046,77.3700199 66.3139775,78.0415928 66.3139775,78.8700199 C66.3139775,79.698447 65.6424046,80.3700199 64.8139775,80.3700199 L44.8139775,80.3700199 C43.9855503,80.3700199 43.3139775,79.698447 43.3139775,78.8700199 C43.3139775,78.0415928 43.9855503,77.3700199 44.8139775,77.3700199 Z" id="Path-Copy-4" fill="#FFFFFF"></path>
                <path d="M27.8139775,67.3700199 C32.2322555,67.3700199 35.8139775,70.9517419 35.8139775,75.3700199 C35.8139775,79.7882979 32.2322555,83.3700199 27.8139775,83.3700199 C26.9855503,83.3700199 26.3139775,82.698447 26.3139775,81.8700199 C26.3139775,81.0415928 26.9855503,80.3700199 27.8139775,80.3700199 C30.5754012,80.3700199 32.8139775,78.1314437 32.8139775,75.3700199 C32.8139775,72.6085962 30.5754012,70.3700199 27.8139775,70.3700199 C25.5749552,70.3700199 23.6796695,71.8417312 23.0427067,73.8705674 L26.3139775,73.8700199 L21.3139775,79.8700199 L16.3139775,73.8700199 L19.9542932,73.8704419 C20.656236,70.1689416 23.9082451,67.3700199 27.8139775,67.3700199 Z" id="Combined-Shape" fill="#FFFFFF" fill-rule="nonzero"></path>
                <path d="M100.383823,93.5875021 C93.8108407,92.2754988 85.6418737,100.439447 86.2131828,112.48838 L94.1429193,114.134972 C94.1429193,114.134972 100.956386,93.7016803 100.383823,93.5875021 Z" id="Path" fill="#A6B3FF"></path>
                <path d="M85.3302886,106.896578 C85.1358111,108.351784 85.0743552,109.821685 85.1466834,111.288046" id="Path" stroke="#32324D" stroke-linecap="round" stroke-linejoin="round"></path>
                <polygon id="Path" fill="#5567D5" points="139.245805 199.424433 140.526023 157.665712 92.2767545 157.358728 91.7602343 197.975206"></polygon>
                <path d="M99.3164869,92.3863311 C95.1537934,91.5557163 90.3516186,94.5247669 87.5339691,99.8727384" id="Path" stroke="#32324D" stroke-linecap="round" stroke-linejoin="round"></path>
                <path d="M115.630163,88.6590203 C140.444885,88.6590203 145.245387,117.349945 141.948858,157.317741 C131.19018,161.82966 104.756052,164.143337 93.0718194,157.02874 C87.5766291,141.642291 84.3850774,88.6590203 115.630163,88.6590203 Z" id="Path" fill="#A6B3FF"></path>
                <path d="M97.7493601,62.9153984 C97.7493601,52.3867493 104.106533,43.8514085 111.948858,43.8514085 C119.791184,43.8514085 126.147938,52.3867493 126.147938,62.9153984 C126.147938,73.4440475 119.790765,81.9798066 111.948858,81.9798066 C104.106951,81.9798066 97.7493601,73.4444658 97.7493601,62.9153984 Z" id="Path" fill="#FFFFFF"></path>
                <path d="M109.295157,62.9287819 C109.295157,62.0086648 109.677005,61.2646247 110.147102,61.2646247 C110.617198,61.2646247 110.999465,62.0095013 110.999465,62.9287819 C110.999465,63.8480626 110.618034,64.5921027 110.147102,64.5921027 C109.676169,64.5921027 109.295157,63.8472261 109.295157,62.9287819 Z" id="Path" fill="#32324D"></path>
                <path d="M105.374203,66.0266489 C105.347018,67.0542525 105.049235,69.2729894 103.617616,70.7071174" id="Path" stroke="#32324D" stroke-linecap="round" stroke-linejoin="round"></path>
                <path d="M108.618871,74.8463896 C109.809168,74.6845327 111.295575,74.2244741 112.244132,72.8175314" id="Path" stroke="#32324D" stroke-linecap="round" stroke-linejoin="round"></path>
                <path d="M135.30854,119.254587 C136.11197,121.54777 137.881104,127.654838 137.881104,127.654838 C137.881104,127.654838 125.351619,121.223638 119.462033,118.251241" id="Path" stroke="#32324D" stroke-linecap="round" stroke-linejoin="round"></path>
                <line x1="104.788674" y1="120.378385" x2="103.293066" y2="125.309794" id="Path" stroke="#32324D" stroke-linecap="round" stroke-linejoin="round"></line>
                <line x1="109.533133" y1="104.740994" x2="107.542752" y2="111.302266" id="Path" stroke="#32324D" stroke-linecap="round" stroke-linejoin="round"></line>
                <path d="M119.541079,159.967678 C109.065546,160.636854 97.8539189,159.615524 91.2934839,155.620961 C87.1901799,144.132044 84.3712757,111.682023 96.213601,95.9806431" id="Path" stroke="#32324D" stroke-linecap="round" stroke-linejoin="round"></path>
                <path d="M103.321506,89.7489409 C106.294739,88.1504465 109.781146,87.2512412 113.851828,87.2512412 C138.666131,87.2512412 143.467051,115.942165 140.170105,155.909961 C138.533133,156.596285 136.533551,157.232002 134.278009,157.792019" id="Path" stroke="#32324D" stroke-linecap="round" stroke-linejoin="round"></path>
                <path d="M139.65944,155.377548 C139.65944,158.04547 139.245805,197.975206 139.245805,197.975206" id="Path" stroke="#32324D" stroke-linecap="round" stroke-linejoin="round"></path>
                <path d="M109.116152,113.143755 C107.620544,113.143755 101.151702,113.967678 104.813768,119.948857 C106.912054,123.376293 107.778218,122.390513 108.658185,121.306448 C109.343254,121.663203 110.400134,122.50511 111.081021,123.069727 C111.076002,123.08102 111.072238,123.092312 111.067219,123.103604 C112.917491,124.546515 137.335307,145.863956 142.357056,147.142082 C147.378804,148.420208 153.026232,143.453667 155.196872,139.717991 C157.593358,135.598376 153.049653,118.884867 152.247478,117.041705 C151.445303,115.198544 136.746851,121.124934 136.746851,121.124934 C136.746851,121.124934 139.127026,128.244968 139.754797,131.188088 C138.370021,130.408916 116.531878,119.735139 113.687461,116.453667 C113.683279,116.463286 113.677424,116.480016 113.672405,116.489217 C112.631418,115.424809 110.267553,113.143755 109.116152,113.143755 Z" id="Path" fill="#FFFFFF"></path>
                <line x1="91.0068365" y1="154.98859" x2="90.9348365" y2="193.591684" id="Path" stroke="#32324D" stroke-linecap="round" stroke-linejoin="round"></line>
                <path d="M110.454086,179.489217 C111.812514,185.296411 113.302267,191.733048 114.740159,197.975206" id="Path" stroke="#1B3C87" stroke-width="0.883730657" stroke-linecap="round" stroke-linejoin="round"></path>
                <path d="M124.113643,70.809585 C124.033342,71.779472 121.931711,88.1358083 122.685788,93.9559672 C120.880686,95.4917263 108.390096,95.7175732 108.647311,93.4172805 C109.078511,89.5636627 109.994864,83.5820651 109.212765,80.535641" id="Path" fill="#FFFFFF"></path>
                <path d="M107.544007,91.7200827 C107.975207,87.8668832 108.613434,83.6991709 108.187252,80.2662976" id="Path" stroke="#32324D" stroke-linecap="round" stroke-linejoin="round"></path>
                <path d="M122.84179,71.4494846 C122.760652,72.4193717 120.828407,86.4386105 121.582484,92.2587694 C120.871485,92.864792 118.49591,93.2667159 115.897415,93.388004" id="Path" stroke="#32324D" stroke-linecap="round" stroke-linejoin="round"></path>
                <path d="M117.068892,78.5502792 C115.188925,79.7840726 113.07642,80.4741604 110.843045,80.4741604 C105.896579,80.4741604 101.541079,77.0789283 98.9986282,71.9287819" id="Path" stroke="#32324D" stroke-linecap="round" stroke-linejoin="round"></path>
                <path d="M97.0684735,66.058853 C96.7843733,64.526193 96.6421295,62.9706114 96.6435362,61.4118434 C96.6435362,50.8827761 103.000719,42.3478535 110.843045,42.3478535 C118.68537,42.3478535 125.042125,50.8827761 125.042125,61.4118434 C125.042125,66.0985854 123.782401,70.3900952 121.693317,73.710045" id="Path" stroke="#32324D" stroke-linecap="round" stroke-linejoin="round"></path>
                <path d="M124.929619,73.4156075 C126.522259,73.7041897 129.213601,65.0998401 129.763162,59.9099614 C130.740995,50.6644574 121.044634,38.9015967 113.800803,38.1742859 C112.378804,38.0316678 110.772781,39.4950722 111.644801,41.9438384 C109.888214,40.1010948 105.283028,37.6640392 101.305613,37.1525377 C95.2629528,36.3762934 92.3432539,40.3917681 92.3432539,42.1805594 C92.3432539,43.9693507 93.4281556,49.5682633 95.5967043,51.2980835 C93.8442995,51.2763353 92.2851192,51.4373558 92.0902217,52.8564273 C91.4887997,57.2324206 93.9693518,61.1859965 98.1663405,60.7819814 C98.459105,58.3169041 98.9869176,55.9304549 99.850573,54.3244323 C100.551953,60.6422909 116.613852,58.5247669 116.582903,59.5795557 C116.461196,63.6427092 121.283446,63.6431274 121.45074,63.7435038 C125.174705,65.976879 122.390096,72.9542943 124.929619,73.4156075 Z" id="Path" fill="#FF9D52"></path>
                <path d="M91.01243,42.0383595 C91.3888415,44.4515758 92.4185362,48.137063 94.1048599,49.4829434 C92.3532915,49.4611952 90.7932748,49.6222157 90.5983773,51.0412872 C90.0810205,54.8104214 91.8484818,58.2637882 95.0287412,58.8944867" id="Path" stroke="#32324D" stroke-linecap="round" stroke-linejoin="round"></path>
                <path d="M123.849318,44.6719856 C120.593777,40.1663395 116.11197,36.7409944 112.309795,36.3591458 C110.887796,36.2165277 109.280937,37.6795139 110.152957,40.1282801 C108.398879,38.2855364 103.79202,35.8484808 99.8141866,35.3373976 C97.1968716,35.0028095 95.165504,35.5632445 93.7033543,36.4549216" id="Path" stroke="#32324D" stroke-linecap="round" stroke-linejoin="round"></path>
                <path d="M122.216947,69.1416636 C122.305195,70.4473934 122.535224,71.4356828 123.438193,71.599631 C125.030414,71.8886314 127.722593,63.2842817 128.271317,58.094403 C128.432338,56.5753733 128.304776,54.9890078 127.947604,53.395114" id="Path" stroke="#32324D" stroke-linecap="round" stroke-linejoin="round"></path>
                <path d="M97.6431284,54.2265653 C97.8312051,53.6341357 98.0709379,53.0593647 98.3595651,52.508874 C99.0609453,58.8267326 115.122426,56.7092085 115.088967,57.7639973 C115.069728,58.4076611 115.172614,58.9496937 115.36542,59.4064064" id="Path" stroke="#32324D" stroke-linecap="round" stroke-linejoin="round"></path>
                <path d="M118.094404,61.8551726 C119.36709,60.9714502 121.062675,61.0020559 122.30264,61.9311323 C123.542604,62.8602088 124.048249,64.4789334 123.557588,65.9486091 C123.066927,67.4182849 121.690244,68.4085823 120.140828,68.4064099 C119.922722,68.4065194 119.705051,68.386922 119.490473,68.3478535" id="Path" fill="#FFFFFF"></path>
                <path d="M117.767344,61.1048589 C119.04003,60.2211365 120.735615,60.2517422 121.97558,61.1808187 C123.215544,62.1098951 123.721189,63.7286197 123.230528,65.1982954 C122.739868,66.6679712 121.363184,67.6582686 119.813768,67.6560963 C119.595953,67.6563047 119.378564,67.6368475 119.164249,67.597958" id="Path" stroke="#32324D" stroke-linecap="round" stroke-linejoin="round"></path>
                <polygon id="Path" fill="#FFFFFF" points="75.4026433 112.029995 101.509711 116.198962 95.1968716 155.727193 69.0902217 151.558226"></polygon>
                <polyline id="Path" stroke="#32324D" stroke-linecap="round" stroke-linejoin="round" points="67.8777583 149.052161 74.1901799 109.52393 100.297248 113.693734 98.2642075 126.433592"></polyline>
                <polyline id="Path" stroke="#1B3C87" stroke-width="0.883730657" stroke-linecap="round" stroke-linejoin="round" points="95.9379841 140.991517 93.9844082 153.221546 76.179724 150.377548"></polyline>
                <path d="M67.9036889,144.029577 C66.7154831,135.04547 67.6297449,129.167176 72.745596,127.492145 C74.8108407,126.816277 72.7765454,139.948439 71.9538771,142.110714 C71.1312087,144.272989 68.8777583,141.806239 67.9036889,144.029577 Z" id="Path" fill="#FFFFFF"></path>
                <path d="M67.0764199,134.359146 C66.508875,132.496327 66.8330071,128.487962 73.2311669,126.219874" id="Path" stroke="#32324D" stroke-linecap="round" stroke-linejoin="round"></path>
                <path d="M66.6711502,139.866465 C66.1044417,138.004064 66.4281556,133.994863 72.8263154,131.727611" id="Path" stroke="#32324D" stroke-linecap="round" stroke-linejoin="round"></path>
                <path d="M67.0358511,144.60465 C66.4687244,142.741831 66.7924384,138.73263 73.1905981,136.464959" id="Path" stroke="#32324D" stroke-linecap="round" stroke-linejoin="round"></path>
                <path d="M116.499256,62.6711492 C116.764969,62.0390598 117.20527,61.4957565 117.768599,61.1048589" id="Path" stroke="#32324D" stroke-linecap="round" stroke-linejoin="round"></path>
                <path d="M154.713392,135.38424 C154.605069,136.160066 154.420627,136.808748 154.142083,137.287209 C151.96977,141.022885 146.321087,145.989844 141.302267,144.711718 C136.283446,143.433592 112.161322,121.613433 110.01243,120.672822" id="Path" stroke="#32324D" stroke-linecap="round" stroke-linejoin="round"></path>
                <path d="M151.192271,114.611342 C151.605069,115.560317 153.009921,120.450739 153.948858,125.534386" id="Path" stroke="#32324D" stroke-linecap="round" stroke-linejoin="round"></path>
                <path d="M112.345345,114.809585 C110.568264,109.820877 106.738486,111.188506 103.009502,114.440702" id="Path" stroke="#32324D" stroke-linecap="round" stroke-linejoin="round"></path>
                <path d="M108.22573,115.452412 C107.180142,115.375875 104.590849,116.357473 103.40808,117.372111" id="Path" stroke="#32324D" stroke-linecap="round" stroke-linejoin="round"></path>
                <path d="M108.981899,118.563663 C107.852664,118.538987 106.01243,119.446975 104.598796,120.139572" id="Path" stroke="#32324D" stroke-linecap="round" stroke-linejoin="round"></path>
                <path d="M132.912472,91.7765444 C144.569937,87.8137673 155.779055,112.996118 155.23033,115.636017 C154.681606,118.275917 136.331962,123.600049 134.216947,121.932964 C132.101932,120.265879 126.160485,94.0718183 132.912472,91.7765444 Z" id="Path" fill="#A6B3FF"></path>
                <path d="M137.348691,120.286791 C135.075583,120.666549 133.316487,120.727611 132.744341,120.276754 C131.815023,119.543587 130.145429,114.073073 129.139992,107.976043" id="Path" stroke="#32324D" stroke-linecap="round" stroke-linejoin="round"></path>
                <path d="M135.12619,89.7819814 C145.346182,91.2529141 154.248315,111.620543 153.757725,113.979388 C153.458269,115.419372 147.860611,117.659857 142.492982,119.123679" id="Path" stroke="#32324D" stroke-linecap="round" stroke-linejoin="round"></path>
            </g>
        </g>
    </g>
</svg>
