<?xml version="1.0" encoding="UTF-8"?>
<svg width="18px" height="18px" viewBox="0 0 18 18" version="1.1" xmlns="http://www.w3.org/2000/svg" xmlns:xlink="http://www.w3.org/1999/xlink">
    <title>F201C5FB-7CB5-4C2B-B2AD-A3E2160AC007</title>
    <g id="Home" stroke="none" stroke-width="1" fill="none" fill-rule="evenodd" opacity="1">
        <g id="new-dashboard-+" transform="translate(-26.000000, -218.000000)" fill="#5567D5">
            <g id="Icon/main/Integrations" transform="translate(26.000000, 218.000000)">
                <path d="M7.03512813,0.514647726 C8.25099508,-0.171549242 9.74900492,-0.171549242 10.9648719,0.514647726 L10.9648719,0.514647726 L15.5351281,3.09395627 C16.7509951,3.78015323 17.5,5.04829753 17.5,6.42069146 L17.5,6.42069146 L17.5,11.5793085 C17.5,12.9517025 16.7509951,14.2198468 15.5351281,14.9060437 L15.5351281,14.9060437 L10.9648719,17.4853523 C9.74900492,18.1715492 8.25099508,18.1715492 7.03512813,17.4853523 L7.03512813,17.4853523 L2.46487187,14.9060437 C1.24900492,14.2198468 0.5,12.9517025 0.5,11.5793085 L0.5,11.5793085 L0.5,6.42069146 C0.5,5.04829753 1.24900492,3.78015323 2.46487187,3.09395627 L2.46487187,3.09395627 Z M9.75114025,1.65657982 L9.75,10 L12.55,7.9 C12.8512462,7.67406533 13.2671455,7.7090277 13.5269968,7.96621555 L13.6,8.05 C13.8259347,8.35124623 13.7909723,8.76714548 13.5337844,9.02699676 L13.45,9.1 L9,12.4375 L4.55,9.1 C4.21862915,8.85147186 4.15147186,8.38137085 4.4,8.05 C4.62593467,7.74875377 5.03498742,7.66586586 5.35645724,7.84000784 L5.45,7.9 L8.25,10 L8.24985589,1.65625277 C8.16252247,1.68490441 8.0765058,1.71869967 7.99227865,1.75763852 L7.82107688,1.8453418 L3.25082062,4.42465034 C2.52130045,4.83636852 2.07189749,5.5972551 2.07189749,6.42069146 L2.07189749,6.42069146 L2.07189749,11.5793085 C2.07189749,12.4027449 2.52130045,13.1636315 3.25082062,13.5753497 L3.25082062,13.5753497 L7.82107688,16.1546582 C8.55059705,16.5663764 9.44940295,16.5663764 10.1789231,16.1546582 L10.1789231,16.1546582 L14.7491794,13.5753497 C15.4786996,13.1636315 15.9281025,12.4027449 15.9281025,11.5793085 L15.9281025,11.5793085 L15.9281025,6.42069146 C15.9281025,5.5972551 15.4786996,4.83636852 14.7491794,4.42465034 L14.7491794,4.42465034 L10.1789231,1.8453418 C10.0415761,1.7678275 9.89822872,1.70490684 9.75114025,1.65657982 Z" id="Combined-Shape"></path>
            </g>
        </g>
    </g>
</svg>
