<svg width="828" height="505" viewBox="0 0 828 505" fill="none" xmlns="http://www.w3.org/2000/svg">
<path d="M731.664 219.39L732.034 219.575L732.421 219.72C783.757 239.07 820 287.71 820 344.328C820 417.936 758.749 478.006 682.873 478H145.122C69.2509 478 8 417.937 8 344.328C8 270.725 69.2511 210.656 145.122 210.656C146.724 210.656 148.308 210.677 149.874 210.723C158.513 210.977 166.472 206.007 170.104 198.229C189.5 156.692 232.447 127.754 282.511 127.754C294.756 127.754 306.529 129.494 317.647 132.707C327.545 135.568 338.428 131.03 343.004 121.486C375.155 54.4406 444.815 8 525.766 8C637.305 8 727.428 96.2535 727.428 204.679C727.428 207.076 727.344 209.411 727.247 211.889C727.104 215.179 728.953 218.031 731.665 219.389C731.846 219.48 732.031 219.564 732.22 219.641C732.042 219.568 731.856 219.486 731.664 219.39ZM734.495 220.199L734.508 220.201C734.504 220.2 734.499 220.2 734.495 220.199ZM735.242 212.234C735.241 212.234 735.24 212.233 735.24 212.232C735.337 209.746 735.428 207.26 735.428 204.679C735.428 91.6548 641.54 0 525.766 0C441.7 0 369.256 48.2396 335.791 118.027C332.965 123.92 326.147 126.837 319.868 125.022C308.04 121.603 295.519 119.754 282.511 119.754C229.311 119.754 183.553 150.518 162.855 194.844C160.562 199.756 155.528 202.886 150.109 202.727C148.458 202.678 146.795 202.656 145.122 202.656C65.0154 202.656 0 266.126 0 344.328C0 422.536 65.0154 486 145.122 486H682.872C762.985 486.006 828 422.535 828 344.328C828 284.181 789.504 232.687 735.242 212.234Z" stroke="#F7F8FB" stroke-width="16"/>
<rect x="300.5" y="216.063" width="203" height="105" rx="14.5" stroke="#1D2028"/>
<rect x="304.5" y="200.063" width="203" height="117" rx="11.5" fill="white" stroke="#40404B"/>
<rect x="304.5" y="200.063" width="203" height="117" rx="11.5" fill="url(#paint0_linear_395_1736)" fill-opacity="0.25" stroke="#1D2028"/>
<path d="M326.615 291.461H322.908V300.563H326.615C327.967 300.563 329.04 300.138 329.833 299.287C330.626 298.437 331.026 297.345 331.026 296.012C331.026 294.673 330.626 293.581 329.827 292.737C329.027 291.892 327.954 291.467 326.615 291.467V291.461ZM326.589 299.294H324.317V292.743H326.589C327.516 292.743 328.252 293.048 328.798 293.657C329.344 294.266 329.617 295.047 329.617 295.999C329.617 296.97 329.344 297.764 328.798 298.38C328.252 298.995 327.516 299.306 326.589 299.306V299.294ZM335.54 300.735C336.32 300.735 336.98 300.551 337.52 300.189C338.06 299.827 338.447 299.389 338.682 298.875L337.438 298.507C337.101 299.211 336.479 299.56 335.578 299.56C334.937 299.56 334.422 299.389 334.042 299.052C333.661 298.716 333.451 298.272 333.407 297.719H338.72C338.751 297.523 338.764 297.339 338.764 297.174C338.764 296.221 338.466 295.434 337.869 294.806C337.272 294.177 336.46 293.866 335.425 293.866C334.429 293.866 333.616 294.197 332.994 294.85C332.372 295.504 332.061 296.323 332.061 297.307C332.061 298.329 332.385 299.16 333.032 299.795C333.68 300.43 334.518 300.747 335.552 300.747L335.54 300.735ZM333.407 296.818C333.458 296.323 333.667 295.904 334.035 295.561C334.403 295.219 334.867 295.047 335.432 295.047C336.016 295.047 336.485 295.212 336.834 295.542C337.184 295.872 337.38 296.298 337.425 296.818H333.407ZM343.855 293.854C342.839 293.854 342.059 294.241 341.513 295.015V294.025H340.148V303.293H341.513V299.573C342.059 300.347 342.839 300.735 343.855 300.735C344.782 300.735 345.556 300.405 346.178 299.751C346.8 299.097 347.111 298.278 347.111 297.294C347.111 296.31 346.8 295.491 346.178 294.838C345.556 294.184 344.782 293.86 343.855 293.86V293.854ZM343.633 299.516C343.03 299.516 342.516 299.306 342.097 298.887C341.678 298.469 341.468 297.935 341.468 297.294C341.468 296.659 341.678 296.133 342.097 295.714C342.516 295.295 343.023 295.085 343.626 295.085C344.255 295.085 344.769 295.295 345.169 295.707C345.569 296.12 345.766 296.647 345.766 297.288C345.766 297.929 345.562 298.462 345.163 298.881C344.763 299.3 344.249 299.51 343.626 299.51L343.633 299.516ZM348.514 300.563H349.879V291.073H348.514V300.563ZM354.767 300.735C355.763 300.735 356.588 300.405 357.249 299.751C357.909 299.097 358.239 298.278 358.239 297.294C358.239 296.31 357.909 295.491 357.249 294.838C356.588 294.184 355.757 293.86 354.76 293.86C353.764 293.86 352.938 294.19 352.278 294.844C351.618 295.498 351.288 296.317 351.288 297.294C351.288 298.278 351.618 299.097 352.278 299.751C352.938 300.405 353.764 300.735 354.76 300.735H354.767ZM354.76 299.497C354.138 299.497 353.624 299.287 353.224 298.868C352.824 298.449 352.621 297.929 352.621 297.307C352.621 296.672 352.824 296.145 353.224 295.726C353.624 295.307 354.138 295.098 354.76 295.098C355.382 295.098 355.896 295.307 356.303 295.726C356.709 296.145 356.912 296.672 356.912 297.307C356.912 297.929 356.709 298.449 356.303 298.868C355.896 299.287 355.382 299.497 354.76 299.497ZM364.206 294.025L362.181 298.887L359.997 294.025H358.512L361.501 300.417L360.283 303.293H361.686L365.666 294.025H364.206Z" fill="#1D2028"/>
<ellipse cx="448.5" cy="258.563" rx="43" ry="43.5" transform="rotate(90 448.5 258.563)" fill="white"/>
<path d="M491.435 185.107C484.616 187.902 468.587 197.16 460.453 211.623C452.271 226.17 452.046 235.118 453.064 237.585L471.607 247.021C474.201 246.392 481.302 240.942 488.245 225.765C495.148 210.675 493.19 192.265 491.435 185.107Z" fill="#E0E2E9" stroke="#1D2028"/>
<path d="M456.809 243.497L473.291 219.725L465.324 247.829L456.924 254.762L456.809 243.497Z" fill="#F0F1FB" stroke="#1D2028"/>
<path d="M459.745 212.832C455.901 216.236 446.134 226.176 439.359 239.489L452.5 235.5" stroke="#1D2028"/>
<path d="M487.611 227.012C487.121 232.123 484.836 245.87 478.062 259.183L473.5 246.5" stroke="#1D2028"/>
<circle cx="480.373" cy="206.764" r="5.38066" transform="rotate(26.9693 480.373 206.764)" fill="white" stroke="#1D2028"/>
<path d="M457 255.063C454.733 260.833 442.149 282.228 416.5 273.563C409.535 271.21 403.5 258.943 407 252.063C410.5 245.184 416.5 244.563 418 255.063C419.5 265.563 401.5 287.563 370 283.563C338.5 279.563 334.5 271.563 322 258.563" stroke="#1D2028" stroke-dasharray="2 4"/>
<path d="M638.25 68.9999C638.25 72.4038 635.277 75.2499 631.5 75.2499C627.723 75.2499 624.75 72.4038 624.75 68.9999C624.75 65.5961 627.723 62.7499 631.5 62.7499C635.277 62.7499 638.25 65.5961 638.25 68.9999Z" fill="white" stroke="#1D2028" stroke-width="1.5"/>
<rect x="573" y="70" width="136" height="184" rx="15" fill="#E0E2E9"/>
<rect x="712.5" y="249.5" width="135" height="195" rx="11.5" transform="rotate(180 712.5 249.5)" fill="white" stroke="#1D2028"/>
<rect x="713" y="250" width="136" height="196" rx="12" transform="rotate(180 713 250)" fill="url(#paint1_linear_395_1736)" fill-opacity="0.4"/>
<path d="M629.62 66.8975L626.446 71.4741L623.26 66.8975H621.908V76H623.33V69.3413L626.434 73.7149L629.557 69.3413V76H630.972V66.8975H629.62ZM635.854 76.1714C636.85 76.1714 637.675 75.8413 638.335 75.1875C638.996 74.5337 639.326 73.7149 639.326 72.731C639.326 71.7471 638.996 70.9282 638.335 70.2744C637.675 69.6206 636.844 69.2969 635.847 69.2969C634.851 69.2969 634.025 69.627 633.365 70.2808C632.705 70.9346 632.375 71.7534 632.375 72.731C632.375 73.7149 632.705 74.5337 633.365 75.1875C634.025 75.8413 634.851 76.1714 635.847 76.1714H635.854ZM635.847 74.9336C635.225 74.9336 634.711 74.7241 634.311 74.3052C633.911 73.8862 633.708 73.3657 633.708 72.7437C633.708 72.1089 633.911 71.582 634.311 71.1631C634.711 70.7442 635.225 70.5347 635.847 70.5347C636.469 70.5347 636.983 70.7442 637.39 71.1631C637.796 71.582 637.999 72.1089 637.999 72.7437C637.999 73.3657 637.796 73.8862 637.39 74.3052C636.983 74.7241 636.469 74.9336 635.847 74.9336ZM644.353 69.2905C643.395 69.2905 642.646 69.6714 642.106 70.4331V69.4619H640.741V76H642.106V72.75C642.106 72.0899 642.277 71.563 642.62 71.1631C642.963 70.7632 643.42 70.5664 643.991 70.5664C644.518 70.5664 644.918 70.7315 645.191 71.0552C645.464 71.3789 645.597 71.8296 645.597 72.4072V75.9937H646.949V72.1597C646.949 71.2647 646.727 70.5601 646.276 70.0459C645.826 69.5318 645.185 69.2778 644.353 69.2778V69.2905ZM649.425 68.3955C649.666 68.3955 649.869 68.313 650.034 68.1543C650.199 67.9956 650.282 67.7925 650.282 67.5513C650.282 67.3291 650.199 67.1323 650.034 66.9673C649.869 66.8023 649.666 66.7197 649.425 66.7197C649.184 66.7197 648.98 66.8023 648.815 66.9673C648.65 67.1323 648.568 67.3291 648.568 67.5513C648.568 67.7925 648.65 67.9956 648.815 68.1543C648.98 68.313 649.184 68.3955 649.425 68.3955ZM648.733 76H650.085V69.4619H648.733V76ZM655.614 74.6734C655.328 74.813 655.042 74.8828 654.757 74.8828C654.128 74.8828 653.817 74.5464 653.817 73.8799V70.668H655.899V69.4619H653.817V67.2783H652.465V69.4619H651.272V70.668H652.465V73.8799C652.465 74.5718 652.637 75.1177 652.973 75.5112C653.31 75.9048 653.824 76.1016 654.509 76.1016C654.973 76.1016 655.455 76 655.95 75.7905L655.614 74.6734ZM659.987 76.1714C660.984 76.1714 661.809 75.8413 662.469 75.1875C663.129 74.5337 663.459 73.7149 663.459 72.731C663.459 71.7471 663.129 70.9282 662.469 70.2744C661.809 69.6206 660.978 69.2969 659.981 69.2969C658.984 69.2969 658.159 69.627 657.499 70.2808C656.839 70.9346 656.509 71.7534 656.509 72.731C656.509 73.7149 656.839 74.5337 657.499 75.1875C658.159 75.8413 658.984 76.1714 659.981 76.1714H659.987ZM659.981 74.9336C659.359 74.9336 658.845 74.7241 658.445 74.3052C658.045 73.8862 657.842 73.3657 657.842 72.7437C657.842 72.1089 658.045 71.582 658.445 71.1631C658.845 70.7442 659.359 70.5347 659.981 70.5347C660.603 70.5347 661.117 70.7442 661.523 71.1631C661.93 71.582 662.133 72.1089 662.133 72.7437C662.133 73.3657 661.93 73.8862 661.523 74.3052C661.117 74.7241 660.603 74.9336 659.981 74.9336ZM666.233 70.5029V69.4619H664.869V76H666.233V73.0484C666.233 72.1216 666.424 71.4678 666.811 71.0806C667.198 70.6934 667.75 70.5537 668.468 70.6616V69.3921C667.947 69.3223 667.49 69.3921 667.103 69.5952C666.716 69.7984 666.424 70.103 666.227 70.5093L666.233 70.5029Z" fill="black"/>
<rect x="657" y="170" width="8" height="64" rx="4" fill="white"/>
<rect x="609" y="218" width="8" height="16" rx="4" fill="white"/>
<rect x="593" y="201" width="8" height="33" rx="4" fill="white"/>
<rect x="673" y="162" width="8" height="72" rx="4" fill="white"/>
<rect x="625" y="185" width="8" height="49" rx="4" fill="white"/>
<rect x="689" y="103" width="8" height="131" rx="4" fill="white"/>
<rect x="641" y="151" width="8" height="83" rx="4" fill="white"/>
<path d="M597.5 205.5L613 221.5L645 154L678.143 165L693 107" stroke="#A6B3FF" stroke-width="4" stroke-linecap="round"/>
<circle cx="693" cy="107" r="4.5" fill="url(#paint2_linear_395_1736)" stroke="#1D2028"/>
<circle cx="693" cy="107" r="12.5" stroke="#5567D5"/>
<circle cx="693" cy="107" r="23.5" stroke="#A6B3FF"/>
<path d="M282.845 267.528L278.23 264.059L277.533 269.79L282.845 267.528ZM215.79 362.365C216.114 361.984 216.114 361.984 216.114 361.984C216.114 361.984 216.114 361.984 216.113 361.984C216.113 361.983 216.112 361.983 216.112 361.982C216.11 361.981 216.107 361.978 216.104 361.975C216.096 361.969 216.085 361.959 216.069 361.946C216.039 361.919 215.993 361.879 215.933 361.825C215.812 361.718 215.634 361.556 215.408 361.343C214.955 360.918 214.309 360.287 213.541 359.469C212.005 357.834 209.985 355.455 208.048 352.486C204.171 346.54 200.658 338.272 201.975 328.871L200.985 328.732C199.621 338.465 203.263 346.979 207.211 353.032C209.187 356.062 211.246 358.486 212.812 360.154C213.596 360.988 214.257 361.634 214.723 362.072C214.956 362.291 215.14 362.458 215.267 362.572C215.331 362.628 215.38 362.671 215.413 362.7C215.43 362.715 215.443 362.726 215.452 362.734C215.456 362.738 215.46 362.741 215.462 362.743C215.463 362.744 215.464 362.744 215.465 362.745C215.465 362.745 215.466 362.746 215.466 362.746C215.466 362.746 215.466 362.746 215.79 362.365ZM201.975 328.871C203.297 319.436 207.666 313.077 213.138 308.889C218.622 304.691 225.238 302.657 231.055 301.932L230.931 300.94C224.993 301.679 218.193 303.76 212.53 308.095C206.854 312.439 202.344 319.031 200.985 328.732L201.975 328.871ZM231.055 301.932C242.775 300.472 252.195 301.93 257.22 305.678L257.818 304.876C252.474 300.891 242.724 299.471 230.931 300.94L231.055 301.932ZM257.22 305.678C258.474 306.613 259.263 307.536 259.684 308.325C260.112 309.126 260.132 309.727 259.986 310.079C259.856 310.391 259.54 310.639 258.916 310.632C258.273 310.624 257.352 310.333 256.213 309.571L255.657 310.402C256.886 311.225 257.996 311.621 258.904 311.632C259.831 311.643 260.586 311.241 260.909 310.462C261.215 309.724 261.068 308.794 260.566 307.854C260.058 306.903 259.157 305.874 257.818 304.876L257.22 305.678ZM256.213 309.571C255.145 308.855 253.966 307.277 252.968 305.033C251.978 302.807 251.192 299.985 250.869 296.856C250.223 290.597 251.433 283.158 256.497 276.811L255.715 276.187C250.452 282.783 249.208 290.502 249.875 296.959C250.208 300.187 251.019 303.112 252.055 305.44C253.083 307.75 254.358 309.532 255.657 310.402L256.213 309.571ZM256.497 276.811C263.307 268.275 272.825 267.24 278.357 267.485L278.401 266.486C272.727 266.235 262.814 267.289 255.715 276.187L256.497 276.811Z" fill="black"/>
<path d="M373.62 120.897L370.446 125.474L367.26 120.897H365.908V130H367.33V123.341L370.434 127.715L373.557 123.341V130H374.972V120.897H373.62ZM379.638 130.171C380.66 130.171 381.447 129.784 381.993 129.01V130H383.345V123.462H381.993V124.452C381.447 123.678 380.66 123.291 379.638 123.291C378.711 123.291 377.937 123.621 377.314 124.274C376.692 124.928 376.381 125.747 376.381 126.725C376.381 127.708 376.692 128.527 377.314 129.181C377.937 129.835 378.711 130.165 379.638 130.165V130.171ZM379.86 128.94C379.238 128.94 378.724 128.73 378.324 128.312C377.924 127.893 377.721 127.359 377.721 126.718C377.721 126.077 377.917 125.55 378.317 125.138C378.717 124.725 379.225 124.516 379.847 124.516C380.45 124.516 380.958 124.725 381.377 125.144C381.796 125.563 382.005 126.09 382.005 126.725C382.005 127.366 381.796 127.899 381.377 128.318C380.958 128.737 380.444 128.946 379.841 128.946L379.86 128.94ZM386.519 124.503V123.462H385.154V130H386.519V127.048C386.519 126.122 386.709 125.468 387.096 125.081C387.483 124.693 388.036 124.554 388.753 124.662V123.392C388.232 123.322 387.775 123.392 387.388 123.595C387.001 123.798 386.709 124.103 386.512 124.509L386.519 124.503ZM394.415 130H395.977L393.063 126.293L395.672 123.462H394.06L391.33 126.439V120.51H389.965V130H391.33V128.166L392.206 127.232L394.415 130ZM399.703 130.171C400.483 130.171 401.144 129.987 401.683 129.625C402.223 129.264 402.61 128.826 402.845 128.312L401.601 127.943C401.264 128.648 400.642 128.997 399.741 128.997C399.1 128.997 398.585 128.826 398.205 128.489C397.824 128.153 397.614 127.708 397.57 127.156H402.883C402.915 126.959 402.927 126.775 402.927 126.61C402.927 125.658 402.629 124.871 402.032 124.243C401.436 123.614 400.623 123.303 399.588 123.303C398.592 123.303 397.779 123.633 397.157 124.287C396.535 124.941 396.224 125.76 396.224 126.744C396.224 127.766 396.548 128.597 397.195 129.232C397.843 129.867 398.681 130.184 399.715 130.184L399.703 130.171ZM397.57 126.255C397.621 125.76 397.83 125.341 398.198 124.998C398.566 124.655 399.03 124.484 399.595 124.484C400.179 124.484 400.648 124.649 400.998 124.979C401.347 125.309 401.543 125.734 401.588 126.255H397.57ZM407.777 128.673C407.491 128.813 407.206 128.883 406.92 128.883C406.292 128.883 405.98 128.546 405.98 127.88V124.668H408.062V123.462H405.98V121.278H404.628V123.462H403.435V124.668H404.628V127.88C404.628 128.572 404.8 129.118 405.136 129.511C405.473 129.905 405.987 130.102 406.672 130.102C407.136 130.102 407.618 130 408.113 129.791L407.777 128.673ZM413.16 123.291C412.144 123.291 411.363 123.678 410.817 124.452V123.462H409.453V132.729H410.817V129.01C411.363 129.784 412.144 130.171 413.16 130.171C414.086 130.171 414.861 129.841 415.483 129.188C416.105 128.534 416.416 127.715 416.416 126.731C416.416 125.747 416.105 124.928 415.483 124.274C414.861 123.621 414.086 123.297 413.16 123.297V123.291ZM412.938 128.953C412.334 128.953 411.82 128.743 411.401 128.324C410.982 127.905 410.773 127.372 410.773 126.731C410.773 126.096 410.982 125.569 411.401 125.15C411.82 124.731 412.328 124.522 412.931 124.522C413.56 124.522 414.074 124.731 414.474 125.144C414.874 125.557 415.07 126.083 415.07 126.725C415.07 127.366 414.867 127.899 414.467 128.318C414.067 128.737 413.553 128.946 412.931 128.946L412.938 128.953ZM417.819 130H419.184V120.51H417.819V130ZM423.855 130.171C424.877 130.171 425.665 129.784 426.21 129.01V130H427.562V123.462H426.21V124.452C425.665 123.678 424.877 123.291 423.855 123.291C422.929 123.291 422.154 123.621 421.532 124.274C420.91 124.928 420.599 125.747 420.599 126.725C420.599 127.708 420.91 128.527 421.532 129.181C422.154 129.835 422.929 130.165 423.855 130.165V130.171ZM424.078 128.94C423.456 128.94 422.941 128.73 422.542 128.312C422.142 127.893 421.938 127.359 421.938 126.718C421.938 126.077 422.135 125.55 422.535 125.138C422.935 124.725 423.443 124.516 424.065 124.516C424.668 124.516 425.176 124.725 425.595 125.144C426.014 125.563 426.223 126.09 426.223 126.725C426.223 127.366 426.014 127.899 425.595 128.318C425.176 128.737 424.662 128.946 424.059 128.946L424.078 128.94ZM432.406 130.171C433.225 130.171 433.91 129.962 434.462 129.543C435.015 129.124 435.357 128.654 435.497 128.127L434.234 127.778C434.139 128.102 433.923 128.375 433.586 128.604C433.25 128.832 432.856 128.946 432.406 128.946C431.79 128.946 431.282 128.73 430.889 128.292C430.495 127.854 430.298 127.334 430.298 126.731C430.298 126.115 430.495 125.595 430.889 125.169C431.282 124.744 431.79 124.528 432.412 124.528C432.863 124.528 433.256 124.649 433.593 124.89C433.929 125.131 434.145 125.411 434.24 125.734L435.503 125.373C435.364 124.833 435.015 124.357 434.456 123.938C433.897 123.519 433.212 123.31 432.393 123.31C431.409 123.31 430.59 123.64 429.943 124.293C429.295 124.947 428.972 125.766 428.972 126.744C428.972 127.721 429.295 128.54 429.949 129.2C430.603 129.86 431.422 130.19 432.406 130.19V130.171ZM439.985 130.171C440.766 130.171 441.426 129.987 441.965 129.625C442.505 129.264 442.892 128.826 443.127 128.312L441.883 127.943C441.546 128.648 440.924 128.997 440.023 128.997C439.382 128.997 438.868 128.826 438.487 128.489C438.106 128.153 437.896 127.708 437.852 127.156H443.165C443.197 126.959 443.209 126.775 443.209 126.61C443.209 125.658 442.911 124.871 442.314 124.243C441.718 123.614 440.905 123.303 439.871 123.303C438.874 123.303 438.062 123.633 437.439 124.287C436.817 124.941 436.506 125.76 436.506 126.744C436.506 127.766 436.83 128.597 437.478 129.232C438.125 129.867 438.963 130.184 439.998 130.184L439.985 130.171ZM437.852 126.255C437.903 125.76 438.112 125.341 438.48 124.998C438.849 124.655 439.312 124.484 439.877 124.484C440.461 124.484 440.931 124.649 441.28 124.979C441.629 125.309 441.826 125.734 441.87 126.255H437.852Z" fill="#1D2028"/>
<rect x="164" y="393" width="96" height="100" rx="15" fill="#E0E2E9"/>
<rect x="263.5" y="488.5" width="95" height="111" rx="11.5" transform="rotate(180 263.5 488.5)" fill="white" stroke="#1D2028"/>
<path d="M206.862 470.239C207.655 469.833 208.049 469.186 208.042 468.291C208.036 467.58 207.763 467.002 207.224 466.558C206.684 466.113 205.992 465.891 205.142 465.891H200.901V474.994H205.415C206.335 474.994 207.065 474.759 207.604 474.289C208.144 473.819 208.411 473.21 208.411 472.455C208.411 471.934 208.271 471.483 207.998 471.103C207.725 470.722 207.344 470.436 206.855 470.246L206.862 470.239ZM205.116 467.129C205.58 467.129 205.954 467.256 206.24 467.503C206.525 467.751 206.665 468.068 206.665 468.456C206.671 468.83 206.538 469.147 206.265 469.408C205.992 469.668 205.637 469.801 205.199 469.801H202.298V467.135L205.116 467.129ZM205.396 473.775H202.298V470.931H205.408C205.903 470.931 206.291 471.071 206.576 471.344C206.862 471.617 207.001 471.947 207.001 472.334C207.001 472.74 206.855 473.083 206.563 473.362C206.271 473.642 205.878 473.781 205.383 473.781L205.396 473.775ZM214.669 468.462V471.712C214.669 472.372 214.498 472.899 214.149 473.299C213.8 473.699 213.343 473.896 212.778 473.896C212.251 473.896 211.851 473.73 211.578 473.407C211.305 473.083 211.166 472.632 211.166 472.055V468.468H209.801V472.302C209.801 473.197 210.029 473.902 210.486 474.416C210.943 474.93 211.584 475.184 212.41 475.184C213.387 475.178 214.143 474.791 214.669 474.022V475.013H216.021V468.475L214.669 468.462ZM218.561 467.396C218.802 467.396 219.005 467.313 219.17 467.154C219.335 466.996 219.417 466.792 219.417 466.551C219.417 466.329 219.335 466.132 219.17 465.967C219.005 465.802 218.802 465.72 218.561 465.72C218.319 465.72 218.116 465.802 217.951 465.967C217.786 466.132 217.704 466.329 217.704 466.551C217.704 466.792 217.786 466.996 217.951 467.154C218.116 467.313 218.319 467.396 218.561 467.396ZM217.869 475H219.221V468.462H217.869V475ZM221.081 475H222.445V465.51H221.081V475ZM229.472 465.51V469.452C228.926 468.678 228.139 468.291 227.117 468.291C226.19 468.291 225.416 468.621 224.794 469.274C224.172 469.928 223.861 470.747 223.861 471.725C223.861 472.708 224.172 473.527 224.794 474.181C225.416 474.835 226.19 475.165 227.117 475.165C228.139 475.159 228.926 474.771 229.472 474.003V474.994H230.824V465.504L229.472 465.51ZM227.339 473.94C226.717 473.94 226.203 473.73 225.803 473.312C225.403 472.893 225.2 472.359 225.2 471.718C225.2 471.077 225.397 470.55 225.797 470.138C226.197 469.725 226.705 469.516 227.327 469.516C227.93 469.516 228.438 469.725 228.856 470.144C229.275 470.563 229.485 471.09 229.485 471.725C229.485 472.366 229.275 472.899 228.856 473.318C228.438 473.737 227.923 473.946 227.32 473.946L227.339 473.94Z" fill="#1D2028"/>
<mask id="path-34-inside-1_395_1736" fill="white">
<path fill-rule="evenodd" clip-rule="evenodd" d="M231.996 427.924L231.902 429.288C231.847 430.094 231.248 430.761 230.453 430.9L228.515 431.243C227.86 431.358 227.333 431.838 227.136 432.475C227.062 432.715 226.982 432.954 226.899 433.189C226.676 433.816 226.808 434.512 227.261 434.996L228.602 436.427C229.154 437.015 229.231 437.907 228.789 438.585L228.042 439.732C227.592 440.424 226.721 440.709 225.951 440.418L224.197 439.753C223.563 439.513 222.852 439.669 222.357 440.136C222.183 440.301 222.007 440.46 221.826 440.618C221.331 441.049 221.103 441.712 221.251 442.353L221.714 444.357C221.896 445.138 221.523 445.945 220.81 446.315L219.651 446.915C218.908 447.301 217.998 447.108 217.478 446.453L216.319 444.996C215.892 444.46 215.193 444.234 214.524 444.39C214.314 444.44 214.103 444.486 213.89 444.528C213.236 444.655 212.702 445.125 212.515 445.765L211.94 447.733C211.711 448.516 210.975 449.04 210.163 448.998L208.924 448.934C208.095 448.89 207.411 448.269 207.288 447.447L206.999 445.515C206.898 444.841 206.413 444.298 205.763 444.096C205.567 444.036 205.373 443.972 205.181 443.904C204.541 443.68 203.83 443.823 203.344 444.3L201.949 445.672C201.355 446.256 200.435 446.343 199.746 445.88L198.718 445.19C198.043 444.737 197.769 443.878 198.058 443.114L198.785 441.194C199.021 440.571 198.878 439.875 198.434 439.382C198.29 439.223 198.15 439.06 198.013 438.896C197.573 438.368 196.877 438.129 196.211 438.303L194.401 438.776C193.591 438.988 192.747 438.598 192.385 437.844L191.821 436.671C191.474 435.948 191.661 435.08 192.277 434.562L193.851 433.242C194.354 432.82 194.572 432.154 194.436 431.511C194.387 431.278 194.343 431.044 194.303 430.807C194.19 430.135 193.715 429.583 193.061 429.394L191.263 428.878C190.472 428.65 189.948 427.899 190.004 427.076L190.098 425.712C190.154 424.905 190.752 424.24 191.547 424.1L193.485 423.757C194.14 423.642 194.667 423.161 194.864 422.525C194.938 422.285 195.018 422.046 195.101 421.811C195.324 421.184 195.193 420.487 194.739 420.004L193.398 418.573C192.846 417.985 192.769 417.093 193.211 416.415L193.958 415.268C194.409 414.575 195.279 414.291 196.049 414.582L197.802 415.247C198.437 415.487 199.148 415.331 199.643 414.864C199.817 414.7 199.993 414.54 200.174 414.382C200.669 413.952 200.897 413.288 200.749 412.646L200.285 410.644C200.104 409.862 200.477 409.055 201.19 408.685L202.349 408.085C203.092 407.699 204.002 407.892 204.522 408.546L205.681 410.003C206.108 410.541 206.807 410.766 207.476 410.608C207.686 410.56 207.897 410.514 208.11 410.473C208.764 410.345 209.298 409.875 209.485 409.235L210.06 407.266C210.289 406.484 211.025 405.959 211.837 406.002L213.076 406.066C213.905 406.11 214.589 406.731 214.712 407.553L215.001 409.485C215.102 410.159 215.587 410.702 216.237 410.904C216.433 410.965 216.627 411.028 216.819 411.096C217.459 411.32 218.171 411.176 218.656 410.7L220.051 409.328C220.645 408.745 221.565 408.658 222.254 409.12L223.282 409.81C223.957 410.263 224.231 411.122 223.942 411.885L223.215 413.807C222.979 414.429 223.123 415.123 223.566 415.618C223.71 415.777 223.85 415.939 223.987 416.104C224.427 416.632 225.123 416.871 225.788 416.697L227.599 416.224C228.409 416.012 229.253 416.402 229.616 417.155L230.179 418.329C230.527 419.051 230.339 419.921 229.723 420.438L228.15 421.757C227.646 422.18 227.428 422.847 227.564 423.489C227.613 423.722 227.657 423.956 227.697 424.192C227.81 424.865 228.285 425.417 228.939 425.606L230.737 426.122C231.528 426.35 232.053 427.1 231.996 427.924ZM218.899 427.541C218.899 432.064 215.193 435.731 210.621 435.731C206.049 435.731 202.343 432.064 202.343 427.541C202.343 423.017 206.049 419.35 210.621 419.35C215.193 419.35 218.899 423.017 218.899 427.541Z"/>
</mask>
<path fill-rule="evenodd" clip-rule="evenodd" d="M231.996 427.924L231.902 429.288C231.847 430.094 231.248 430.761 230.453 430.9L228.515 431.243C227.86 431.358 227.333 431.838 227.136 432.475C227.062 432.715 226.982 432.954 226.899 433.189C226.676 433.816 226.808 434.512 227.261 434.996L228.602 436.427C229.154 437.015 229.231 437.907 228.789 438.585L228.042 439.732C227.592 440.424 226.721 440.709 225.951 440.418L224.197 439.753C223.563 439.513 222.852 439.669 222.357 440.136C222.183 440.301 222.007 440.46 221.826 440.618C221.331 441.049 221.103 441.712 221.251 442.353L221.714 444.357C221.896 445.138 221.523 445.945 220.81 446.315L219.651 446.915C218.908 447.301 217.998 447.108 217.478 446.453L216.319 444.996C215.892 444.46 215.193 444.234 214.524 444.39C214.314 444.44 214.103 444.486 213.89 444.528C213.236 444.655 212.702 445.125 212.515 445.765L211.94 447.733C211.711 448.516 210.975 449.04 210.163 448.998L208.924 448.934C208.095 448.89 207.411 448.269 207.288 447.447L206.999 445.515C206.898 444.841 206.413 444.298 205.763 444.096C205.567 444.036 205.373 443.972 205.181 443.904C204.541 443.68 203.83 443.823 203.344 444.3L201.949 445.672C201.355 446.256 200.435 446.343 199.746 445.88L198.718 445.19C198.043 444.737 197.769 443.878 198.058 443.114L198.785 441.194C199.021 440.571 198.878 439.875 198.434 439.382C198.29 439.223 198.15 439.06 198.013 438.896C197.573 438.368 196.877 438.129 196.211 438.303L194.401 438.776C193.591 438.988 192.747 438.598 192.385 437.844L191.821 436.671C191.474 435.948 191.661 435.08 192.277 434.562L193.851 433.242C194.354 432.82 194.572 432.154 194.436 431.511C194.387 431.278 194.343 431.044 194.303 430.807C194.19 430.135 193.715 429.583 193.061 429.394L191.263 428.878C190.472 428.65 189.948 427.899 190.004 427.076L190.098 425.712C190.154 424.905 190.752 424.24 191.547 424.1L193.485 423.757C194.14 423.642 194.667 423.161 194.864 422.525C194.938 422.285 195.018 422.046 195.101 421.811C195.324 421.184 195.193 420.487 194.739 420.004L193.398 418.573C192.846 417.985 192.769 417.093 193.211 416.415L193.958 415.268C194.409 414.575 195.279 414.291 196.049 414.582L197.802 415.247C198.437 415.487 199.148 415.331 199.643 414.864C199.817 414.7 199.993 414.54 200.174 414.382C200.669 413.952 200.897 413.288 200.749 412.646L200.285 410.644C200.104 409.862 200.477 409.055 201.19 408.685L202.349 408.085C203.092 407.699 204.002 407.892 204.522 408.546L205.681 410.003C206.108 410.541 206.807 410.766 207.476 410.608C207.686 410.56 207.897 410.514 208.11 410.473C208.764 410.345 209.298 409.875 209.485 409.235L210.06 407.266C210.289 406.484 211.025 405.959 211.837 406.002L213.076 406.066C213.905 406.11 214.589 406.731 214.712 407.553L215.001 409.485C215.102 410.159 215.587 410.702 216.237 410.904C216.433 410.965 216.627 411.028 216.819 411.096C217.459 411.32 218.171 411.176 218.656 410.7L220.051 409.328C220.645 408.745 221.565 408.658 222.254 409.12L223.282 409.81C223.957 410.263 224.231 411.122 223.942 411.885L223.215 413.807C222.979 414.429 223.123 415.123 223.566 415.618C223.71 415.777 223.85 415.939 223.987 416.104C224.427 416.632 225.123 416.871 225.788 416.697L227.599 416.224C228.409 416.012 229.253 416.402 229.616 417.155L230.179 418.329C230.527 419.051 230.339 419.921 229.723 420.438L228.15 421.757C227.646 422.18 227.428 422.847 227.564 423.489C227.613 423.722 227.657 423.956 227.697 424.192C227.81 424.865 228.285 425.417 228.939 425.606L230.737 426.122C231.528 426.35 232.053 427.1 231.996 427.924ZM218.899 427.541C218.899 432.064 215.193 435.731 210.621 435.731C206.049 435.731 202.343 432.064 202.343 427.541C202.343 423.017 206.049 419.35 210.621 419.35C215.193 419.35 218.899 423.017 218.899 427.541Z" fill="url(#paint3_linear_395_1736)" fill-opacity="0.5" stroke="#1D2028" stroke-width="2" mask="url(#path-34-inside-1_395_1736)"/>
<path fill-rule="evenodd" clip-rule="evenodd" d="M231.072 409.007C232.214 411.218 234.918 412.111 237.111 411.003C239.303 409.895 240.155 407.204 239.014 404.993C237.872 402.782 235.168 401.888 232.975 402.996C230.783 404.105 229.931 406.795 231.072 409.007ZM242.894 402.719L243.158 403.23C243.314 403.532 243.238 403.899 242.975 404.117L242.334 404.65C242.117 404.83 242.028 405.113 242.095 405.385C242.12 405.487 242.143 405.59 242.163 405.692C242.218 405.965 242.419 406.188 242.693 406.267L243.501 406.499C243.834 406.594 244.058 406.899 244.043 407.237L244.018 407.808C244.003 408.152 243.744 408.439 243.396 408.497L242.602 408.628C242.315 408.675 242.087 408.881 242.006 409.154C241.978 409.25 241.948 409.345 241.916 409.44C241.827 409.7 241.888 409.987 242.083 410.186L242.693 410.81C242.931 411.054 242.97 411.423 242.787 411.707L242.491 412.168C242.301 412.464 241.922 412.587 241.587 412.46L240.839 412.18C240.564 412.077 240.256 412.143 240.044 412.341C239.977 412.403 239.909 412.464 239.839 412.524C239.626 412.708 239.531 412.99 239.602 413.26L239.821 414.091C239.908 414.422 239.75 414.765 239.441 414.922L238.969 415.161C238.653 415.32 238.265 415.241 238.039 414.97L237.509 414.335C237.324 414.114 237.026 414.021 236.742 414.085C236.656 414.105 236.571 414.123 236.485 414.139C236.199 414.193 235.968 414.395 235.893 414.669L235.678 415.458C235.586 415.794 235.265 416.02 234.909 415.998L234.378 415.967C234.03 415.946 233.74 415.695 233.68 415.358L233.528 414.513C233.479 414.239 233.274 414.018 233.002 413.934C232.914 413.908 232.826 413.878 232.74 413.848C232.461 413.751 232.152 413.812 231.944 414.015L231.379 414.568C231.126 414.815 230.729 414.853 230.43 414.657L229.965 414.354C229.678 414.167 229.557 413.814 229.671 413.498L229.964 412.69C230.057 412.432 229.992 412.146 229.801 411.943C229.732 411.869 229.664 411.794 229.598 411.717C229.409 411.499 229.112 411.4 228.83 411.471L228.052 411.664C227.71 411.749 227.352 411.589 227.192 411.281L226.928 410.77C226.772 410.467 226.847 410.101 227.111 409.883L227.752 409.35C227.969 409.17 228.058 408.886 227.991 408.615C227.966 408.513 227.943 408.41 227.923 408.308C227.868 408.035 227.667 407.811 227.393 407.733L226.584 407.501C226.252 407.405 226.028 407.1 226.043 406.763L226.068 406.192C226.083 405.847 226.342 405.561 226.69 405.503L227.483 405.372C227.771 405.325 227.999 405.119 228.08 404.846C228.108 404.75 228.138 404.655 228.17 404.56C228.259 404.3 228.198 404.013 228.003 403.813L227.393 403.189C227.155 402.946 227.116 402.577 227.298 402.293L227.595 401.832C227.785 401.536 228.164 401.413 228.499 401.539L229.246 401.819C229.522 401.923 229.83 401.856 230.042 401.658C230.109 401.597 230.177 401.535 230.247 401.475C230.46 401.292 230.555 401.009 230.484 400.739L230.265 399.908C230.178 399.578 230.336 399.234 230.645 399.078L231.117 398.839C231.432 398.68 231.821 398.759 232.047 399.029L232.577 399.664C232.762 399.886 233.06 399.979 233.344 399.915C233.429 399.895 233.515 399.877 233.601 399.861C233.887 399.807 234.118 399.604 234.193 399.33L234.408 398.542C234.5 398.206 234.821 397.98 235.176 398.001L235.707 398.033C236.056 398.053 236.345 398.305 236.406 398.641L236.558 399.487C236.607 399.761 236.812 399.981 237.084 400.065C237.172 400.092 237.259 400.121 237.346 400.152C237.624 400.249 237.934 400.188 238.142 399.985L238.707 399.432C238.96 399.185 239.357 399.147 239.656 399.342L240.121 399.646C240.408 399.832 240.529 400.185 240.414 400.502L240.122 401.309C240.029 401.568 240.094 401.854 240.285 402.057C240.354 402.131 240.422 402.205 240.488 402.282C240.677 402.501 240.974 402.599 241.256 402.529L242.034 402.336C242.376 402.25 242.734 402.41 242.894 402.719ZM235 409C236.105 409 237 408.105 237 407C237 405.895 236.105 405 235 405C233.896 405 233 405.895 233 407C233 408.105 233.896 409 235 409Z" fill="#40404B"/>
<rect x="408.5" y="423.5" width="75" height="81" rx="14.5" stroke="#1D2028"/>
<path d="M412.5 428C412.5 419.992 418.996 413.5 427.004 413.5H427.1H427.197H427.293H427.389H427.485H427.581H427.677H427.773H427.869H427.964H428.06H428.156H428.251H428.347H428.442H428.537H428.632H428.728H428.823H428.918H429.012H429.107H429.202H429.297H429.391H429.486H429.58H429.675H429.769H429.863H429.958H430.052H430.146H430.24H430.334H430.428H430.522H430.615H430.709H430.803H430.896H430.99H431.083H431.176H431.27H431.363H431.456H431.549H431.642H431.735H431.828H431.921H432.014H432.106H432.199H432.292H432.384H432.477H432.569H432.661H432.754H432.846H432.938H433.03H433.122H433.214H433.306H433.398H433.49H433.582H433.674H433.765H433.857H433.948H434.04H434.131H434.223H434.314H434.405H434.497H434.588H434.679H434.77H434.861H434.952H435.043H435.134H435.225H435.315H435.406H435.497H435.587H435.678H435.768H435.859H435.949H436.04H436.13H436.22H436.311H436.401H436.491H436.581H436.671H436.761H436.851H436.941H437.031H437.121H437.21H437.3H437.39H437.479H437.569H437.658H437.748H437.837H437.927H438.016H438.106H438.195H438.284H438.373H438.463H438.552H438.641H438.73H438.819H438.908H438.997H439.086H439.175H439.263H439.352H439.441H439.53H439.618H439.707H439.796H439.884H439.973H440.061H440.15H440.238H440.327H440.415H440.503H440.592H440.68H440.768H440.856H440.945H441.033H441.121H441.209H441.297H441.385H441.473H441.561H441.649H441.737H441.825H441.912H442H442.088H442.176H442.264H442.351H442.439H442.527H442.614H442.702H442.789H442.877H442.965H443.052H443.14H443.227H443.314H443.402H443.489H443.577H443.664H443.751H443.839H443.926H444.013H444.1H444.188H444.275H444.362H444.449H444.536H444.623H444.71H444.797H444.885H444.972H445.059H445.146H445.233H445.32H445.407H445.494H445.58H445.667H445.754H445.841H445.928H446.015H446.102H446.189H446.275H446.362H446.449H446.536H446.622H446.709H446.796H446.883H446.969H447.056H447.143H447.229H447.316H447.403H447.489H447.576H447.663H447.749H447.836H447.923H448.009H448.096H448.182H448.269H448.356H448.442H448.529H448.615H448.702H448.788H448.875H448.962H449.048H449.135H449.221H449.308H449.394H449.481H449.567H449.654H449.74H449.827H449.913H450H450.087H450.173H450.26H450.346H450.433H450.519H450.606H450.692H450.779H450.865H450.952H451.038H451.125H451.212H451.298H451.385H451.471H451.558H451.644H451.731H451.818H451.904H451.991H452.077H452.164H452.251H452.337H452.424H452.511H452.597H452.684H452.771H452.857H452.944H453.031H453.117H453.204H453.291H453.378H453.464H453.551H453.638H453.725H453.811H453.898H453.985H454.072H454.159H454.246H454.333H454.42H454.506H454.593H454.68H454.767H454.854H454.941H455.028H455.115H455.203H455.29H455.377H455.464H455.551H455.638H455.725H455.812H455.9H455.987H456.074H456.161H456.249H456.336H456.423H456.511H456.598H456.686H456.773H456.86H456.948H457.035H457.123H457.211H457.298H457.386H457.473H457.561H457.649H457.736H457.824H457.912H458H458.088H458.175H458.263H458.351H458.439H458.527H458.615H458.703H458.791H458.879H458.967H459.055H459.144H459.232H459.32H459.408H459.497H459.585H459.673H459.762H459.85H459.939H460.027H460.116H460.204H460.293H460.382H460.47H460.559H460.648H460.737H460.825H460.914H461.003H461.092H461.181H461.27H461.359H461.448H461.537H461.627H461.716H461.805H461.894H461.984H462.073H462.163H462.252H462.342H462.431H462.521H462.61H462.7H462.79H462.879H462.969H463.059H463.149H463.239H463.329H463.419H463.509H463.599H463.689H463.78H463.87H463.96H464.051H464.141H464.232H464.322H464.413H464.503H464.594H464.685H464.775H464.866H464.957H465.048H465.139H465.23H465.321H465.412H465.503H465.595H465.686H465.777H465.869H465.96H466.052H466.143H466.235H466.326H466.418H466.51H466.602H466.694H466.786H466.878H466.97H467.062H467.154H467.246H467.339H467.431H467.523H467.616H467.708H467.801H467.894H467.986H468.079H468.172H468.265H468.358H468.451H468.544H468.637H468.73H468.824H468.917H469.01H469.104H469.197H469.291H469.385H469.478H469.572H469.666H469.76H469.854H469.948H470.042H470.137H470.231H470.325H470.42H470.514H470.609H470.703H470.798H470.893H470.988H471.082H471.177H471.272H471.368H471.463H471.558H471.653H471.749H471.844H471.94H472.036H472.131H472.227H472.323H472.419H472.515H472.611H472.707H472.803H472.9H472.996C481.004 413.5 487.5 419.992 487.5 428V486C487.5 494.008 481.008 500.5 473 500.5H427C418.992 500.5 412.5 494.008 412.5 486V428Z" fill="white" stroke="#40404B"/>
<rect x="412.5" y="409.5" width="75" height="91" rx="11.5" fill="white" stroke="#1D2028"/>
<path d="M440.643 486H442.115L438.51 476.897H436.707L433.102 486H434.574L435.444 483.791H439.773L440.643 486ZM435.926 482.54L437.615 478.237L439.291 482.54H435.926ZM446.832 479.29C445.816 479.29 445.035 479.677 444.489 480.452V479.462H443.125V488.729H444.489V485.01C445.035 485.784 445.816 486.171 446.832 486.171C447.758 486.171 448.533 485.841 449.155 485.187C449.777 484.533 450.088 483.715 450.088 482.731C450.088 481.747 449.777 480.928 449.155 480.274C448.533 479.62 447.758 479.297 446.832 479.297V479.29ZM446.609 484.952C446.006 484.952 445.492 484.743 445.073 484.324C444.654 483.905 444.445 483.372 444.445 482.731C444.445 482.096 444.654 481.569 445.073 481.15C445.492 480.731 446 480.522 446.603 480.522C447.231 480.522 447.746 480.731 448.146 481.144C448.545 481.556 448.742 482.083 448.742 482.724C448.742 483.365 448.539 483.899 448.139 484.318C447.739 484.737 447.225 484.946 446.603 484.946L446.609 484.952ZM455.198 479.29C454.182 479.29 453.401 479.677 452.855 480.452V479.462H451.491V488.729H452.855V485.01C453.401 485.784 454.182 486.171 455.198 486.171C456.125 486.171 456.899 485.841 457.521 485.187C458.143 484.533 458.454 483.715 458.454 482.731C458.454 481.747 458.143 480.928 457.521 480.274C456.899 479.62 456.125 479.297 455.198 479.297V479.29ZM454.976 484.952C454.373 484.952 453.858 484.743 453.439 484.324C453.021 483.905 452.811 483.372 452.811 482.731C452.811 482.096 453.021 481.569 453.439 481.15C453.858 480.731 454.366 480.522 454.969 480.522C455.598 480.522 456.112 480.731 456.512 481.144C456.912 481.556 457.108 482.083 457.108 482.724C457.108 483.365 456.905 483.899 456.505 484.318C456.105 484.737 455.591 484.946 454.969 484.946L454.976 484.952ZM462.345 486.171C463.139 486.171 463.792 485.974 464.307 485.581C464.821 485.187 465.081 484.698 465.081 484.108C465.081 483.607 464.929 483.226 464.624 482.959C464.319 482.693 463.9 482.483 463.361 482.324L461.622 481.823C461.152 481.677 460.917 481.461 460.917 481.176C460.917 480.966 461.025 480.782 461.241 480.623C461.457 480.465 461.729 480.382 462.06 480.382C462.447 480.382 462.783 480.471 463.069 480.649C463.354 480.826 463.564 481.042 463.697 481.302L464.903 480.947C464.707 480.458 464.357 480.058 463.856 479.754C463.354 479.449 462.758 479.297 462.072 479.297C461.38 479.297 460.79 479.481 460.301 479.855C459.812 480.23 459.571 480.674 459.571 481.195C459.571 482.001 460.092 482.559 461.133 482.87L462.891 483.391C463.189 483.48 463.405 483.581 463.539 483.696C463.672 483.81 463.735 483.969 463.735 484.165C463.735 484.413 463.608 484.622 463.354 484.794C463.101 484.965 462.771 485.054 462.364 485.054C461.914 485.054 461.514 484.94 461.171 484.705C460.828 484.47 460.593 484.178 460.473 483.823L459.235 484.184C459.406 484.737 459.774 485.206 460.346 485.594C460.917 485.981 461.571 486.177 462.313 486.177L462.345 486.171Z" fill="#1D2028"/>
<path d="M457.693 448.696L460.322 450.333C460.95 450.724 460.951 451.638 460.324 452.03L451.016 457.845C450.369 458.25 449.548 458.251 448.899 457.847L439.622 452.071C438.994 451.68 438.993 450.766 439.62 450.374L442.112 448.817" stroke="#1D2028" stroke-linecap="round"/>
<path d="M457.693 443.206L460.322 444.842C460.95 445.233 460.951 446.147 460.324 446.539L451.016 452.355C450.369 452.76 449.548 452.76 448.899 452.357L439.622 446.581C438.994 446.19 438.993 445.276 439.62 444.884L442.112 443.326" stroke="#1D2028" stroke-linecap="round"/>
<path d="M438.321 440.698C438.007 440.503 438.007 440.046 438.321 439.85L449.177 433.079C449.663 432.776 450.279 432.776 450.764 433.079L461.62 439.85C461.934 440.046 461.934 440.503 461.62 440.698L450.764 447.469C450.279 447.772 449.663 447.772 449.177 447.469L438.321 440.698Z" fill="url(#paint4_linear_395_1736)" fill-opacity="0.5" stroke="#1D2028"/>
<rect x="504.5" y="423.5" width="75" height="81" rx="14.5" stroke="#1D2028"/>
<path d="M508.5 421C508.5 414.649 513.655 409.5 520.007 409.5H520.117H520.228H520.339H520.449H520.559H520.67H520.78H520.89H521H521.109H521.219H521.329H521.438H521.548H521.657H521.766H521.875H521.984H522.093H522.202H522.31H522.419H522.527H522.636H522.744H522.852H522.96H523.068H523.176H523.284H523.392H523.499H523.607H523.714H523.821H523.929H524.036H524.143H524.25H524.357H524.463H524.57H524.677H524.783H524.89H524.996H525.102H525.208H525.314H525.42H525.526H525.632H525.737H525.843H525.949H526.054H526.159H526.265H526.37H526.475H526.58H526.685H526.79H526.894H526.999H527.104H527.208H527.313H527.417H527.521H527.626H527.73H527.834H527.938H528.042H528.145H528.249H528.353H528.456H528.56H528.663H528.767H528.87H528.973H529.076H529.179H529.282H529.385H529.488H529.591H529.694H529.796H529.899H530.001H530.104H530.206H530.309H530.411H530.513H530.615H530.717H530.819H530.921H531.023H531.125H531.226H531.328H531.429H531.531H531.632H531.734H531.835H531.936H532.038H532.139H532.24H532.341H532.442H532.543H532.644H532.744H532.845H532.946H533.046H533.147H533.248H533.348H533.448H533.549H533.649H533.749H533.85H533.95H534.05H534.15H534.25H534.35H534.45H534.549H534.649H534.749H534.849H534.948H535.048H535.147H535.247H535.346H535.446H535.545H535.644H535.744H535.843H535.942H536.041H536.14H536.239H536.338H536.437H536.536H536.635H536.734H536.833H536.931H537.03H537.129H537.227H537.326H537.425H537.523H537.622H537.72H537.818H537.917H538.015H538.113H538.212H538.31H538.408H538.506H538.605H538.703H538.801H538.899H538.997H539.095H539.193H539.291H539.389H539.486H539.584H539.682H539.78H539.878H539.975H540.073H540.171H540.268H540.366H540.464H540.561H540.659H540.756H540.854H540.951H541.049H541.146H541.244H541.341H541.438H541.536H541.633H541.73H541.828H541.925H542.022H542.119H542.217H542.314H542.411H542.508H542.605H542.703H542.8H542.897H542.994H543.091H543.188H543.285H543.382H543.479H543.576H543.673H543.77H543.867H543.964H544.061H544.158H544.255H544.352H544.449H544.546H544.643H544.74H544.837H544.934H545.031H545.128H545.225H545.322H545.419H545.515H545.612H545.709H545.806H545.903H546H546.097H546.194H546.291H546.388H546.485H546.581H546.678H546.775H546.872H546.969H547.066H547.163H547.26H547.357H547.454H547.551H547.648H547.745H547.842H547.939H548.036H548.133H548.23H548.327H548.424H548.521H548.618H548.715H548.812H548.909H549.006H549.103H549.2H549.297H549.395H549.492H549.589H549.686H549.783H549.881H549.978H550.075H550.172H550.27H550.367H550.464H550.562H550.659H550.756H550.854H550.951H551.049H551.146H551.244H551.341H551.439H551.536H551.634H551.732H551.829H551.927H552.025H552.122H552.22H552.318H552.416H552.514H552.611H552.709H552.807H552.905H553.003H553.101H553.199H553.297H553.395H553.494H553.592H553.69H553.788H553.887H553.985H554.083H554.182H554.28H554.378H554.477H554.575H554.674H554.773H554.871H554.97H555.069H555.167H555.266H555.365H555.464H555.563H555.662H555.761H555.86H555.959H556.058H556.157H556.256H556.356H556.455H556.554H556.654H556.753H556.853H556.952H557.052H557.151H557.251H557.351H557.451H557.55H557.65H557.75H557.85H557.95H558.05H558.15H558.251H558.351H558.451H558.552H558.652H558.752H558.853H558.954H559.054H559.155H559.256H559.356H559.457H559.558H559.659H559.76H559.861H559.962H560.064H560.165H560.266H560.368H560.469H560.571H560.672H560.774H560.875H560.977H561.079H561.181H561.283H561.385H561.487H561.589H561.691H561.794H561.896H561.999H562.101H562.204H562.306H562.409H562.512H562.615H562.718H562.821H562.924H563.027H563.13H563.233H563.337H563.44H563.544H563.647H563.751H563.855H563.958H564.062H564.166H564.27H564.374H564.479H564.583H564.687H564.792H564.896H565.001H565.106H565.21H565.315H565.42H565.525H565.63H565.735H565.841H565.946H566.051H566.157H566.263H566.368H566.474H566.58H566.686H566.792H566.898H567.004H567.11H567.217H567.323H567.43H567.537H567.643H567.75H567.857H567.964H568.071H568.179H568.286H568.393H568.501H568.608H568.716H568.824H568.932H569.04H569.148H569.256H569.364H569.473H569.581H569.69H569.798H569.907H570.016H570.125H570.234H570.343H570.452H570.562H570.671H570.781H570.891H571H571.11H571.22H571.33H571.441H571.551H571.661H571.772H571.883H571.993C578.345 409.5 583.5 414.649 583.5 421V489C583.5 495.351 578.351 500.5 572 500.5H520C513.649 500.5 508.5 495.351 508.5 489V421Z" fill="white" stroke="#40404B"/>
<path d="M523.513 486.171C524.561 486.171 525.417 485.905 526.078 485.371C526.738 484.838 527.068 484.184 527.068 483.404C527.068 482.756 526.865 482.255 526.465 481.893C526.065 481.531 525.468 481.226 524.681 480.979L522.447 480.268C522.041 480.147 521.742 480.001 521.558 479.83C521.374 479.658 521.279 479.443 521.279 479.182C521.279 478.852 521.444 478.567 521.768 478.325C522.091 478.084 522.504 477.964 523.005 477.964C523.583 477.964 524.091 478.091 524.529 478.351C524.967 478.611 525.291 478.954 525.506 479.379L526.82 478.986C526.541 478.338 526.065 477.799 525.392 477.367C524.719 476.935 523.919 476.719 522.993 476.719C522.091 476.719 521.342 476.967 520.746 477.456C520.149 477.945 519.851 478.535 519.851 479.22C519.851 480.281 520.53 481.023 521.895 481.448L524.18 482.178C524.7 482.344 525.068 482.528 525.291 482.737C525.513 482.947 525.621 483.2 525.621 483.505C525.621 483.88 525.424 484.21 525.037 484.495C524.649 484.781 524.154 484.927 523.551 484.927C522.866 484.927 522.275 484.749 521.774 484.394C521.272 484.038 520.917 483.581 520.708 483.029L519.375 483.429C519.635 484.203 520.13 484.857 520.86 485.384C521.59 485.911 522.459 486.177 523.475 486.177L523.513 486.171ZM531.638 486.171C532.419 486.171 533.079 485.987 533.619 485.625C534.158 485.263 534.545 484.825 534.78 484.311L533.536 483.943C533.2 484.648 532.578 484.997 531.676 484.997C531.035 484.997 530.521 484.825 530.14 484.489C529.759 484.153 529.55 483.708 529.505 483.156H534.818C534.85 482.959 534.863 482.775 534.863 482.61C534.863 481.658 534.564 480.871 533.968 480.242C533.371 479.614 532.559 479.303 531.524 479.303C530.527 479.303 529.715 479.633 529.093 480.287C528.471 480.941 528.16 481.76 528.16 482.743C528.16 483.765 528.483 484.597 529.131 485.232C529.778 485.866 530.616 486.184 531.651 486.184L531.638 486.171ZM529.505 482.255C529.556 481.76 529.766 481.341 530.134 480.998C530.502 480.655 530.965 480.484 531.53 480.484C532.114 480.484 532.584 480.649 532.933 480.979C533.282 481.309 533.479 481.734 533.523 482.255H529.505ZM537.611 480.503V479.462H536.247V486H537.611V483.048C537.611 482.121 537.802 481.468 538.189 481.08C538.576 480.693 539.128 480.553 539.846 480.661V479.392C539.325 479.322 538.868 479.392 538.481 479.595C538.094 479.798 537.802 480.103 537.605 480.509L537.611 480.503ZM545.958 479.462L543.902 484.521L541.864 479.462H540.379L543.153 486H544.67L547.438 479.462H545.958ZM549.151 478.395C549.393 478.395 549.596 478.313 549.761 478.154C549.926 477.995 550.008 477.792 550.008 477.551C550.008 477.329 549.926 477.132 549.761 476.967C549.596 476.802 549.393 476.719 549.151 476.719C548.91 476.719 548.707 476.802 548.542 476.967C548.377 477.132 548.294 477.329 548.294 477.551C548.294 477.792 548.377 477.995 548.542 478.154C548.707 478.313 548.91 478.395 549.151 478.395ZM548.459 486H549.812V479.462H548.459V486ZM554.706 486.171C555.524 486.171 556.21 485.962 556.762 485.543C557.314 485.124 557.657 484.654 557.797 484.127L556.534 483.778C556.438 484.102 556.223 484.375 555.886 484.603C555.55 484.832 555.156 484.946 554.706 484.946C554.09 484.946 553.582 484.73 553.188 484.292C552.795 483.854 552.598 483.334 552.598 482.731C552.598 482.115 552.795 481.594 553.188 481.169C553.582 480.744 554.09 480.528 554.712 480.528C555.163 480.528 555.556 480.649 555.893 480.89C556.229 481.131 556.445 481.41 556.54 481.734L557.803 481.372C557.664 480.833 557.314 480.357 556.756 479.938C556.197 479.519 555.512 479.309 554.693 479.309C553.709 479.309 552.89 479.639 552.243 480.293C551.595 480.947 551.271 481.766 551.271 482.743C551.271 483.721 551.595 484.54 552.249 485.2C552.903 485.86 553.722 486.19 554.706 486.19V486.171ZM562.285 486.171C563.065 486.171 563.726 485.987 564.265 485.625C564.805 485.263 565.192 484.825 565.427 484.311L564.183 483.943C563.846 484.648 563.224 484.997 562.323 484.997C561.682 484.997 561.167 484.825 560.787 484.489C560.406 484.153 560.196 483.708 560.152 483.156H565.465C565.497 482.959 565.509 482.775 565.509 482.61C565.509 481.658 565.211 480.871 564.614 480.242C564.018 479.614 563.205 479.303 562.17 479.303C561.174 479.303 560.361 479.633 559.739 480.287C559.117 480.941 558.806 481.76 558.806 482.743C558.806 483.765 559.13 484.597 559.777 485.232C560.425 485.866 561.263 486.184 562.297 486.184L562.285 486.171ZM560.152 482.255C560.203 481.76 560.412 481.341 560.78 480.998C561.148 480.655 561.612 480.484 562.177 480.484C562.761 480.484 563.23 480.649 563.58 480.979C563.929 481.309 564.125 481.734 564.17 482.255H560.152ZM569.381 486.171C570.175 486.171 570.829 485.974 571.343 485.581C571.857 485.187 572.117 484.698 572.117 484.108C572.117 483.607 571.965 483.226 571.66 482.959C571.355 482.693 570.937 482.483 570.397 482.324L568.658 481.823C568.188 481.677 567.953 481.461 567.953 481.176C567.953 480.966 568.061 480.782 568.277 480.623C568.493 480.465 568.766 480.382 569.096 480.382C569.483 480.382 569.819 480.471 570.105 480.649C570.391 480.826 570.6 481.042 570.733 481.302L571.939 480.947C571.743 480.458 571.394 480.058 570.892 479.754C570.391 479.449 569.794 479.297 569.108 479.297C568.417 479.297 567.826 479.481 567.337 479.855C566.849 480.23 566.607 480.674 566.607 481.195C566.607 482.001 567.128 482.559 568.169 482.87L569.927 483.391C570.226 483.48 570.441 483.581 570.575 483.696C570.708 483.81 570.771 483.969 570.771 484.165C570.771 484.413 570.645 484.622 570.391 484.794C570.137 484.965 569.807 485.054 569.4 485.054C568.95 485.054 568.55 484.94 568.207 484.705C567.864 484.47 567.629 484.178 567.509 483.823L566.271 484.184C566.442 484.737 566.811 485.206 567.382 485.594C567.953 485.981 568.607 486.177 569.35 486.177L569.381 486.171Z" fill="#1D2028"/>
<mask id="path-46-inside-2_395_1736" fill="white">
<path fill-rule="evenodd" clip-rule="evenodd" d="M551.944 441.998L551.998 441.237C552.03 440.777 551.73 440.358 551.278 440.231L550.251 439.943C549.877 439.838 549.606 439.529 549.541 439.153C549.518 439.022 549.493 438.891 549.465 438.761C549.388 438.403 549.512 438.031 549.8 437.795L550.699 437.058C551.051 436.77 551.158 436.284 550.959 435.881L550.637 435.226C550.43 434.806 549.948 434.588 549.485 434.706L548.451 434.97C548.07 435.068 547.673 434.934 547.421 434.64C547.343 434.547 547.263 434.457 547.181 434.368C546.927 434.092 546.845 433.705 546.98 433.357L547.396 432.285C547.561 431.859 547.404 431.379 547.018 431.126L546.431 430.741C546.037 430.483 545.511 430.532 545.172 430.858L544.375 431.623C544.098 431.889 543.691 431.97 543.325 431.844C543.216 431.806 543.104 431.771 542.993 431.737C542.621 431.624 542.344 431.321 542.286 430.945L542.121 429.867C542.051 429.408 541.66 429.061 541.186 429.037L540.478 429.001C540.014 428.977 539.594 429.27 539.463 429.707L539.134 430.806C539.027 431.163 538.722 431.425 538.349 431.496C538.227 431.52 538.106 431.545 537.987 431.572C537.604 431.66 537.205 431.534 536.961 431.234L536.298 430.421C536.001 430.056 535.481 429.948 535.056 430.164L534.395 430.499C533.987 430.705 533.774 431.156 533.877 431.592L534.142 432.71C534.227 433.068 534.097 433.438 533.813 433.679C533.71 433.766 533.61 433.856 533.51 433.947C533.227 434.208 532.821 434.295 532.459 434.161L531.457 433.79C531.016 433.627 530.519 433.786 530.262 434.173L529.835 434.813C529.582 435.192 529.626 435.689 529.942 436.018L530.708 436.816C530.967 437.086 531.042 437.475 530.915 437.825C530.867 437.956 530.822 438.089 530.779 438.223C530.667 438.578 530.366 438.847 529.991 438.911L528.884 439.102C528.43 439.18 528.088 439.552 528.056 440.002L528.002 440.764C527.97 441.223 528.27 441.642 528.722 441.769L529.749 442.057C530.123 442.162 530.394 442.471 530.459 442.846C530.481 442.978 530.507 443.109 530.535 443.239C530.612 443.597 530.488 443.969 530.2 444.205L529.301 444.942C528.949 445.23 528.842 445.715 529.041 446.119L529.363 446.773C529.57 447.194 530.052 447.412 530.515 447.294L531.549 447.03C531.93 446.932 532.327 447.066 532.579 447.36C532.657 447.452 532.737 447.543 532.819 447.632C533.073 447.907 533.155 448.295 533.02 448.643L532.605 449.715C532.439 450.141 532.596 450.621 532.982 450.874L533.569 451.259C533.963 451.517 534.489 451.468 534.828 451.142L535.625 450.377C535.903 450.11 536.309 450.031 536.675 450.156C536.784 450.194 536.896 450.229 537.007 450.263C537.379 450.376 537.656 450.679 537.713 451.055L537.879 452.133C537.949 452.592 538.34 452.939 538.814 452.963L539.522 452.999C539.986 453.022 540.406 452.73 540.537 452.293L540.866 451.194C540.973 450.837 541.278 450.575 541.651 450.504C541.773 450.48 541.894 450.455 542.014 450.427C542.396 450.34 542.795 450.466 543.04 450.765L543.702 451.579C543.999 451.944 544.519 452.052 544.944 451.837L545.606 451.501C546.013 451.295 546.226 450.845 546.123 450.408L545.858 449.29C545.773 448.933 545.903 448.562 546.186 448.322C546.29 448.234 546.39 448.145 546.49 448.053C546.773 447.792 547.179 447.705 547.541 447.839L548.543 448.21C548.983 448.373 549.481 448.213 549.738 447.827L550.165 447.187C550.418 446.808 550.374 446.311 550.058 445.983L549.292 445.184C549.033 444.913 548.957 444.525 549.085 444.175C549.133 444.044 549.178 443.911 549.221 443.777C549.333 443.421 549.634 443.153 550.009 443.089L551.116 442.898C551.57 442.82 551.913 442.448 551.944 441.998ZM540 445C542.209 445 544 443.209 544 441C544 438.791 542.209 437 540 437C537.791 437 536 438.791 536 441C536 443.209 537.791 445 540 445Z"/>
</mask>
<path fill-rule="evenodd" clip-rule="evenodd" d="M551.944 441.998L551.998 441.237C552.03 440.777 551.73 440.358 551.278 440.231L550.251 439.943C549.877 439.838 549.606 439.529 549.541 439.153C549.518 439.022 549.493 438.891 549.465 438.761C549.388 438.403 549.512 438.031 549.8 437.795L550.699 437.058C551.051 436.77 551.158 436.284 550.959 435.881L550.637 435.226C550.43 434.806 549.948 434.588 549.485 434.706L548.451 434.97C548.07 435.068 547.673 434.934 547.421 434.64C547.343 434.547 547.263 434.457 547.181 434.368C546.927 434.092 546.845 433.705 546.98 433.357L547.396 432.285C547.561 431.859 547.404 431.379 547.018 431.126L546.431 430.741C546.037 430.483 545.511 430.532 545.172 430.858L544.375 431.623C544.098 431.889 543.691 431.97 543.325 431.844C543.216 431.806 543.104 431.771 542.993 431.737C542.621 431.624 542.344 431.321 542.286 430.945L542.121 429.867C542.051 429.408 541.66 429.061 541.186 429.037L540.478 429.001C540.014 428.977 539.594 429.27 539.463 429.707L539.134 430.806C539.027 431.163 538.722 431.425 538.349 431.496C538.227 431.52 538.106 431.545 537.987 431.572C537.604 431.66 537.205 431.534 536.961 431.234L536.298 430.421C536.001 430.056 535.481 429.948 535.056 430.164L534.395 430.499C533.987 430.705 533.774 431.156 533.877 431.592L534.142 432.71C534.227 433.068 534.097 433.438 533.813 433.679C533.71 433.766 533.61 433.856 533.51 433.947C533.227 434.208 532.821 434.295 532.459 434.161L531.457 433.79C531.016 433.627 530.519 433.786 530.262 434.173L529.835 434.813C529.582 435.192 529.626 435.689 529.942 436.018L530.708 436.816C530.967 437.086 531.042 437.475 530.915 437.825C530.867 437.956 530.822 438.089 530.779 438.223C530.667 438.578 530.366 438.847 529.991 438.911L528.884 439.102C528.43 439.18 528.088 439.552 528.056 440.002L528.002 440.764C527.97 441.223 528.27 441.642 528.722 441.769L529.749 442.057C530.123 442.162 530.394 442.471 530.459 442.846C530.481 442.978 530.507 443.109 530.535 443.239C530.612 443.597 530.488 443.969 530.2 444.205L529.301 444.942C528.949 445.23 528.842 445.715 529.041 446.119L529.363 446.773C529.57 447.194 530.052 447.412 530.515 447.294L531.549 447.03C531.93 446.932 532.327 447.066 532.579 447.36C532.657 447.452 532.737 447.543 532.819 447.632C533.073 447.907 533.155 448.295 533.02 448.643L532.605 449.715C532.439 450.141 532.596 450.621 532.982 450.874L533.569 451.259C533.963 451.517 534.489 451.468 534.828 451.142L535.625 450.377C535.903 450.11 536.309 450.031 536.675 450.156C536.784 450.194 536.896 450.229 537.007 450.263C537.379 450.376 537.656 450.679 537.713 451.055L537.879 452.133C537.949 452.592 538.34 452.939 538.814 452.963L539.522 452.999C539.986 453.022 540.406 452.73 540.537 452.293L540.866 451.194C540.973 450.837 541.278 450.575 541.651 450.504C541.773 450.48 541.894 450.455 542.014 450.427C542.396 450.34 542.795 450.466 543.04 450.765L543.702 451.579C543.999 451.944 544.519 452.052 544.944 451.837L545.606 451.501C546.013 451.295 546.226 450.845 546.123 450.408L545.858 449.29C545.773 448.933 545.903 448.562 546.186 448.322C546.29 448.234 546.39 448.145 546.49 448.053C546.773 447.792 547.179 447.705 547.541 447.839L548.543 448.21C548.983 448.373 549.481 448.213 549.738 447.827L550.165 447.187C550.418 446.808 550.374 446.311 550.058 445.983L549.292 445.184C549.033 444.913 548.957 444.525 549.085 444.175C549.133 444.044 549.178 443.911 549.221 443.777C549.333 443.421 549.634 443.153 550.009 443.089L551.116 442.898C551.57 442.82 551.913 442.448 551.944 441.998ZM540 445C542.209 445 544 443.209 544 441C544 438.791 542.209 437 540 437C537.791 437 536 438.791 536 441C536 443.209 537.791 445 540 445Z" fill="url(#paint5_linear_395_1736)" fill-opacity="0.5"/>
<path d="M551.998 441.237L551 441.166L551 441.166L551.998 441.237ZM551.944 441.998L550.947 441.928L550.947 441.928L551.944 441.998ZM551.278 440.231L551.549 439.268L551.548 439.268L551.278 440.231ZM550.251 439.943L549.98 440.905L549.981 440.906L550.251 439.943ZM549.541 439.153L550.527 438.985L550.527 438.983L549.541 439.153ZM549.465 438.761L550.443 438.552L550.442 438.55L549.465 438.761ZM549.8 437.795L549.166 437.021L549.166 437.022L549.8 437.795ZM550.699 437.058L551.332 437.832L551.333 437.832L550.699 437.058ZM550.959 435.881L550.062 436.322L550.063 436.324L550.959 435.881ZM550.637 435.226L551.535 434.785L551.535 434.784L550.637 435.226ZM549.485 434.706L549.733 435.675L549.733 435.675L549.485 434.706ZM548.451 434.97L548.203 434.002L548.203 434.002L548.451 434.97ZM547.421 434.64L546.658 435.285L546.661 435.289L547.421 434.64ZM547.181 434.368L546.444 435.044L546.447 435.048L547.181 434.368ZM546.98 433.357L546.048 432.996L546.048 432.996L546.98 433.357ZM547.396 432.285L548.328 432.646L548.328 432.646L547.396 432.285ZM547.018 431.126L546.47 431.963L546.47 431.963L547.018 431.126ZM546.431 430.741L545.882 431.578L545.883 431.578L546.431 430.741ZM545.172 430.858L545.865 431.579L545.865 431.579L545.172 430.858ZM544.375 431.623L545.067 432.345L545.067 432.345L544.375 431.623ZM543.325 431.844L542.998 432.789L543.001 432.79L543.325 431.844ZM542.993 431.737L543.283 430.78L543.283 430.78L542.993 431.737ZM542.286 430.945L543.275 430.794L543.275 430.794L542.286 430.945ZM542.121 429.867L543.11 429.715L543.11 429.715L542.121 429.867ZM541.186 429.037L541.238 428.038L541.236 428.038L541.186 429.037ZM540.478 429.001L540.427 430L540.428 430L540.478 429.001ZM539.463 429.707L540.421 429.993L540.421 429.993L539.463 429.707ZM539.134 430.806L540.092 431.092L540.092 431.092L539.134 430.806ZM538.349 431.496L538.162 430.514L538.16 430.514L538.349 431.496ZM537.987 431.572L537.766 430.597L537.762 430.598L537.987 431.572ZM536.961 431.234L537.736 430.603L537.736 430.603L536.961 431.234ZM536.298 430.421L537.074 429.79L537.074 429.789L536.298 430.421ZM535.056 430.164L535.508 431.056L535.508 431.056L535.056 430.164ZM534.395 430.499L533.943 429.607L533.943 429.607L534.395 430.499ZM533.877 431.592L534.85 431.361L534.85 431.361L533.877 431.592ZM534.142 432.71L535.116 432.48L535.116 432.479L534.142 432.71ZM533.813 433.679L533.166 432.916L533.165 432.917L533.813 433.679ZM533.51 433.947L534.188 434.683L534.189 434.682L533.51 433.947ZM532.459 434.161L532.111 435.099L532.111 435.099L532.459 434.161ZM531.457 433.79L531.804 432.852L531.803 432.852L531.457 433.79ZM530.262 434.173L531.094 434.728L531.094 434.728L530.262 434.173ZM529.835 434.813L530.667 435.368L530.667 435.368L529.835 434.813ZM529.942 436.018L530.663 435.325L530.663 435.325L529.942 436.018ZM530.708 436.816L529.986 437.509L529.987 437.509L530.708 436.816ZM530.915 437.825L529.975 437.482L529.975 437.483L530.915 437.825ZM530.779 438.223L529.826 437.921L529.826 437.922L530.779 438.223ZM529.991 438.911L529.822 437.925L529.821 437.926L529.991 438.911ZM528.884 439.102L529.053 440.088L529.054 440.088L528.884 439.102ZM528.056 440.002L527.058 439.931L527.058 439.932L528.056 440.002ZM528.002 440.764L527.005 440.693L527.005 440.694L528.002 440.764ZM528.722 441.769L528.451 442.732L528.452 442.732L528.722 441.769ZM529.749 442.057L530.02 441.095L530.019 441.095L529.749 442.057ZM530.459 442.846L531.445 442.679L531.444 442.676L530.459 442.846ZM530.535 443.239L529.557 443.449L529.558 443.45L530.535 443.239ZM530.2 444.205L529.567 443.431L529.566 443.431L530.2 444.205ZM529.301 444.942L528.667 444.168L528.667 444.169L529.301 444.942ZM529.041 446.119L528.143 446.56L528.143 446.561L529.041 446.119ZM529.363 446.773L530.26 446.332L530.26 446.331L529.363 446.773ZM530.515 447.294L530.267 446.325L530.267 446.325L530.515 447.294ZM531.549 447.03L531.797 447.999L531.797 447.998L531.549 447.03ZM532.579 447.36L531.818 448.01L531.819 448.011L532.579 447.36ZM532.819 447.632L533.555 446.954L533.553 446.952L532.819 447.632ZM533.02 448.643L532.088 448.282L532.087 448.282L533.02 448.643ZM532.605 449.715L533.537 450.076L533.537 450.076L532.605 449.715ZM532.982 450.874L533.53 450.037L533.53 450.037L532.982 450.874ZM533.569 451.259L534.118 450.422L534.117 450.422L533.569 451.259ZM534.828 451.142L534.135 450.421L534.135 450.421L534.828 451.142ZM535.625 450.377L536.318 451.098L536.318 451.098L535.625 450.377ZM536.675 450.156L537.002 449.211L536.999 449.21L536.675 450.156ZM537.007 450.263L536.717 451.22L536.717 451.22L537.007 450.263ZM537.713 451.055L536.725 451.206L536.725 451.206L537.713 451.055ZM537.879 452.133L536.89 452.285L536.89 452.285L537.879 452.133ZM538.814 452.963L538.762 453.962L538.764 453.962L538.814 452.963ZM539.522 452.999L539.572 452L539.572 452L539.522 452.999ZM540.537 452.293L541.495 452.58L541.495 452.579L540.537 452.293ZM540.866 451.194L539.908 450.908L539.908 450.908L540.866 451.194ZM541.651 450.504L541.838 451.486L541.839 451.486L541.651 450.504ZM542.014 450.427L541.791 449.452L541.789 449.453L542.014 450.427ZM543.04 450.765L543.815 450.134L543.814 450.132L543.04 450.765ZM543.702 451.579L544.478 450.948L544.477 450.947L543.702 451.579ZM544.944 451.837L544.492 450.944L544.492 450.944L544.944 451.837ZM545.606 451.501L546.057 452.394L546.057 452.393L545.606 451.501ZM546.123 450.408L545.149 450.639L545.15 450.639L546.123 450.408ZM545.858 449.29L546.831 449.06L546.831 449.059L545.858 449.29ZM546.186 448.322L546.834 449.084L546.835 449.083L546.186 448.322ZM546.49 448.053L545.812 447.318L545.811 447.318L546.49 448.053ZM547.541 447.839L547.889 446.901L547.888 446.901L547.541 447.839ZM548.543 448.21L548.196 449.148L548.197 449.148L548.543 448.21ZM549.738 447.827L548.906 447.272L548.906 447.272L549.738 447.827ZM550.165 447.187L550.997 447.742L550.997 447.742L550.165 447.187ZM550.058 445.983L549.337 446.675L549.337 446.675L550.058 445.983ZM549.292 445.184L548.57 445.876L548.57 445.876L549.292 445.184ZM549.085 444.175L550.025 444.518L550.025 444.517L549.085 444.175ZM549.221 443.777L548.267 443.475L548.267 443.475L549.221 443.777ZM550.009 443.089L550.178 444.075L550.179 444.075L550.009 443.089ZM551.116 442.898L550.947 441.912L550.946 441.912L551.116 442.898ZM551 441.166L550.947 441.928L552.942 442.068L552.995 441.307L551 441.166ZM551.008 441.194C551.01 441.194 551.011 441.195 551.01 441.194C551.009 441.194 551.008 441.193 551.006 441.191C551.005 441.189 551.003 441.186 551.002 441.181C551 441.175 551 441.17 551 441.166L552.995 441.307C553.062 440.36 552.444 439.52 551.549 439.268L551.008 441.194ZM549.981 440.906L551.008 441.194L551.548 439.268L550.521 438.98L549.981 440.906ZM548.556 439.322C548.684 440.072 549.229 440.694 549.98 440.905L550.521 438.98C550.521 438.98 550.521 438.98 550.523 438.981C550.524 438.982 550.525 438.982 550.526 438.983C550.527 438.985 550.527 438.986 550.527 438.985L548.556 439.322ZM548.487 438.971C548.513 439.089 548.536 439.207 548.556 439.324L550.527 438.983C550.501 438.837 550.473 438.693 550.443 438.552L548.487 438.971ZM549.166 437.022C548.582 437.5 548.332 438.255 548.488 438.972L550.442 438.55C550.442 438.549 550.443 438.552 550.441 438.557C550.441 438.559 550.439 438.561 550.438 438.564C550.436 438.566 550.435 438.568 550.434 438.568L549.166 437.022ZM550.065 436.285L549.166 437.021L550.434 438.568L551.332 437.832L550.065 436.285ZM550.063 436.324C550.061 436.32 550.059 436.316 550.059 436.31C550.058 436.305 550.058 436.3 550.059 436.296C550.061 436.289 550.065 436.285 550.065 436.285L551.333 437.832C552.037 437.254 552.265 436.267 551.856 435.439L550.063 436.324ZM549.74 435.667L550.062 436.322L551.857 435.44L551.535 434.785L549.74 435.667ZM549.733 435.675C549.736 435.674 549.739 435.674 549.741 435.675C549.743 435.675 549.745 435.675 549.746 435.676C549.747 435.677 549.747 435.677 549.746 435.675C549.744 435.674 549.742 435.671 549.74 435.668L551.535 434.784C551.113 433.928 550.146 433.506 549.238 433.738L549.733 435.675ZM548.698 435.939L549.733 435.675L549.238 433.738L548.203 434.002L548.698 435.939ZM546.661 435.289C547.152 435.864 547.936 436.134 548.698 435.939L548.203 434.002C548.202 434.002 548.202 434.002 548.201 434.002C548.201 434.002 548.199 434.002 548.197 434.001C548.193 434 548.187 433.996 548.182 433.99L546.661 435.289ZM546.447 435.048C546.52 435.127 546.591 435.206 546.658 435.285L548.185 433.994C548.096 433.888 548.005 433.787 547.914 433.688L546.447 435.048ZM546.048 432.996C545.768 433.717 545.947 434.503 546.444 435.044L547.917 433.692C547.912 433.686 547.914 433.685 547.915 433.692C547.916 433.695 547.916 433.699 547.916 433.704C547.915 433.71 547.914 433.715 547.913 433.718L546.048 432.996ZM546.463 431.923L546.048 432.996L547.912 433.718L548.328 432.646L546.463 431.923ZM546.47 431.963C546.471 431.963 546.47 431.963 546.468 431.96C546.466 431.957 546.464 431.954 546.463 431.951C546.462 431.947 546.461 431.942 546.461 431.937C546.461 431.931 546.462 431.926 546.463 431.923L548.328 432.646C548.666 431.773 548.341 430.797 547.566 430.29L546.47 431.963ZM545.883 431.578L546.47 431.963L547.566 430.29L546.979 429.905L545.883 431.578ZM545.865 431.579C545.865 431.579 545.865 431.578 545.866 431.578C545.868 431.577 545.87 431.577 545.873 431.576C545.876 431.576 545.879 431.576 545.88 431.577C545.881 431.577 545.882 431.577 545.882 431.578L546.979 429.905C546.196 429.392 545.155 429.487 544.479 430.136L545.865 431.579ZM545.067 432.345L545.865 431.579L544.48 430.136L543.682 430.902L545.067 432.345ZM543.001 432.79C543.701 433.03 544.505 432.884 545.067 432.345L543.682 430.902C543.685 430.899 543.686 430.9 543.68 430.901C543.674 430.903 543.663 430.903 543.649 430.898L543.001 432.79ZM542.702 432.694C542.806 432.725 542.904 432.757 542.998 432.789L543.653 430.899C543.527 430.856 543.403 430.816 543.283 430.78L542.702 432.694ZM541.298 431.097C541.418 431.881 541.99 432.478 542.702 432.694L543.283 430.78C543.269 430.776 543.265 430.771 543.266 430.772C543.266 430.772 543.268 430.775 543.27 430.779C543.272 430.783 543.274 430.789 543.275 430.794L541.298 431.097ZM541.133 430.018L541.298 431.097L543.275 430.794L543.11 429.715L541.133 430.018ZM541.135 430.036C541.138 430.036 541.14 430.036 541.141 430.037C541.141 430.037 541.142 430.037 541.141 430.037C541.141 430.036 541.139 430.035 541.137 430.031C541.135 430.027 541.133 430.023 541.133 430.019L543.11 429.715C542.965 428.772 542.17 428.086 541.238 428.038L541.135 430.036ZM540.428 430L541.136 430.036L541.236 428.038L540.528 428.003L540.428 430ZM540.421 429.993C540.42 429.996 540.418 429.999 540.417 430.001C540.416 430.003 540.415 430.003 540.416 430.002C540.418 430.001 540.421 430 540.427 430L540.53 428.003C539.618 427.955 538.771 428.53 538.505 429.42L540.421 429.993ZM540.092 431.092L540.421 429.993L538.505 429.42L538.176 430.519L540.092 431.092ZM538.536 432.479C539.251 432.342 539.871 431.831 540.092 431.092L538.176 430.519C538.177 430.515 538.179 430.511 538.181 430.508C538.183 430.506 538.184 430.505 538.183 430.505C538.182 430.506 538.176 430.511 538.162 430.514L538.536 432.479ZM538.207 432.548C538.317 432.523 538.427 432.499 538.537 432.478L538.16 430.514C538.027 430.54 537.895 430.568 537.766 430.597L538.207 432.548ZM536.185 431.866C536.685 432.48 537.482 432.715 538.211 432.547L537.762 430.598C537.746 430.601 537.736 430.599 537.731 430.598C537.729 430.597 537.729 430.597 537.731 430.598C537.732 430.599 537.734 430.601 537.736 430.603L536.185 431.866ZM535.523 431.052L536.185 431.866L537.736 430.603L537.074 429.79L535.523 431.052ZM535.508 431.056C535.511 431.054 535.513 431.054 535.515 431.054C535.517 431.053 535.52 431.053 535.523 431.054C535.525 431.055 535.526 431.055 535.526 431.055C535.526 431.055 535.524 431.054 535.523 431.052L537.074 429.789C536.474 429.053 535.441 428.848 534.604 429.272L535.508 431.056ZM534.846 431.391L535.508 431.056L534.605 429.271L533.943 429.607L534.846 431.391ZM534.85 431.361C534.851 431.365 534.852 431.37 534.851 431.376C534.851 431.381 534.849 431.384 534.848 431.387C534.846 431.392 534.843 431.392 534.846 431.391L533.943 429.607C533.134 430.016 532.691 430.924 532.904 431.823L534.85 431.361ZM535.116 432.479L534.85 431.361L532.904 431.822L533.169 432.94L535.116 432.479ZM534.461 434.441C535.015 433.97 535.291 433.223 535.116 432.48L533.169 432.939C533.168 432.935 533.168 432.93 533.168 432.925C533.168 432.92 533.169 432.916 533.17 432.914C533.171 432.909 533.172 432.911 533.166 432.916L534.461 434.441ZM534.189 434.682C534.277 434.6 534.368 434.52 534.462 434.44L533.165 432.917C533.053 433.013 532.942 433.111 532.832 433.213L534.189 434.682ZM532.111 435.099C532.839 435.368 533.638 435.189 534.188 434.683L532.832 433.212C532.826 433.218 532.818 433.222 532.812 433.223C532.81 433.223 532.808 433.223 532.807 433.223C532.806 433.223 532.806 433.223 532.806 433.223L532.111 435.099ZM531.109 434.728L532.111 435.099L532.806 433.223L531.804 432.852L531.109 434.728ZM531.094 434.728C531.093 434.728 531.092 434.729 531.092 434.729C531.092 434.729 531.092 434.729 531.093 434.729C531.094 434.729 531.094 434.728 531.096 434.728C531.101 434.726 531.106 434.726 531.11 434.728L531.803 432.852C530.936 432.532 529.949 432.84 529.43 433.618L531.094 434.728ZM530.667 435.368L531.094 434.728L529.43 433.618L529.003 434.258L530.667 435.368ZM530.663 435.325C530.664 435.326 530.666 435.329 530.668 435.333C530.67 435.337 530.671 435.341 530.671 435.346C530.672 435.35 530.671 435.355 530.67 435.359C530.669 435.364 530.667 435.367 530.667 435.368L529.003 434.258C528.49 435.027 528.58 436.044 529.221 436.71L530.663 435.325ZM531.43 436.124L530.663 435.325L529.22 436.71L529.986 437.509L531.43 436.124ZM531.854 438.168C532.108 437.472 531.962 436.678 531.429 436.123L529.987 437.509C529.985 437.507 529.983 437.504 529.98 437.5C529.978 437.496 529.977 437.492 529.976 437.489C529.975 437.482 529.976 437.479 529.975 437.482L531.854 438.168ZM531.733 438.525C531.771 438.405 531.812 438.285 531.855 438.167L529.975 437.483C529.923 437.627 529.873 437.773 529.826 437.921L531.733 438.525ZM530.161 439.896C530.909 439.768 531.509 439.232 531.733 438.525L529.826 437.922C529.825 437.923 529.825 437.924 529.824 437.925C529.824 437.925 529.824 437.925 529.824 437.925C529.823 437.925 529.823 437.925 529.823 437.925C529.823 437.925 529.823 437.925 529.823 437.925C529.823 437.925 529.823 437.925 529.823 437.925C529.823 437.925 529.823 437.925 529.822 437.925L530.161 439.896ZM529.054 440.088L530.162 439.896L529.821 437.926L528.714 438.117L529.054 440.088ZM529.053 440.073C529.053 440.077 529.052 440.081 529.051 440.084C529.049 440.088 529.048 440.089 529.047 440.09C529.047 440.09 529.047 440.09 529.048 440.089C529.048 440.089 529.05 440.088 529.053 440.088L528.715 438.117C527.82 438.27 527.124 439.008 527.058 439.931L529.053 440.073ZM529 440.834L529.053 440.072L527.058 439.932L527.005 440.693L529 440.834ZM528.992 440.806C528.99 440.806 528.99 440.805 528.991 440.806C528.991 440.806 528.993 440.807 528.994 440.809C528.995 440.811 528.997 440.814 528.998 440.819C529 440.824 529 440.829 529 440.833L527.005 440.694C526.939 441.639 527.555 442.48 528.451 442.732L528.992 440.806ZM530.019 441.095L528.992 440.806L528.452 442.732L529.479 443.02L530.019 441.095ZM531.444 442.676C531.315 441.927 530.771 441.306 530.02 441.095L529.479 443.02C529.479 443.02 529.479 443.02 529.477 443.019C529.476 443.019 529.475 443.018 529.475 443.017C529.473 443.016 529.473 443.015 529.474 443.016L531.444 442.676ZM531.513 443.029C531.487 442.91 531.465 442.794 531.445 442.679L529.473 443.013C529.498 443.162 529.527 443.307 529.557 443.449L531.513 443.029ZM530.834 444.978C531.418 444.5 531.667 443.745 531.512 443.028L529.558 443.45C529.558 443.451 529.557 443.448 529.559 443.443C529.559 443.441 529.561 443.438 529.562 443.436C529.564 443.433 529.566 443.432 529.567 443.431L530.834 444.978ZM529.935 445.715L530.834 444.978L529.566 443.431L528.667 444.168L529.935 445.715ZM529.938 445.678C529.939 445.68 529.941 445.685 529.941 445.69C529.942 445.695 529.942 445.7 529.941 445.703C529.94 445.707 529.939 445.71 529.937 445.712C529.936 445.715 529.935 445.716 529.935 445.715L528.667 444.169C527.962 444.747 527.736 445.732 528.143 446.56L529.938 445.678ZM530.26 446.331L529.938 445.677L528.143 446.561L528.466 447.215L530.26 446.331ZM530.267 446.325C530.264 446.326 530.261 446.326 530.26 446.325C530.257 446.325 530.256 446.325 530.254 446.324C530.253 446.324 530.254 446.324 530.255 446.325C530.257 446.327 530.259 446.329 530.26 446.332L528.465 447.214C528.886 448.072 529.854 448.494 530.762 448.263L530.267 446.325ZM531.302 446.061L530.267 446.325L530.762 448.263L531.797 447.999L531.302 446.061ZM533.339 446.711C532.848 446.136 532.064 445.866 531.302 446.061L531.797 447.998C531.798 447.998 531.798 447.998 531.799 447.998C531.799 447.998 531.801 447.998 531.803 447.999C531.807 448.001 531.813 448.004 531.818 448.01L533.339 446.711ZM533.553 446.952C533.482 446.876 533.411 446.795 533.338 446.71L531.819 448.011C531.903 448.109 531.992 448.211 532.086 448.312L533.553 446.952ZM533.952 449.004C534.231 448.285 534.055 447.497 533.555 446.954L532.084 448.31C532.088 448.314 532.086 448.314 532.085 448.308C532.084 448.305 532.084 448.301 532.084 448.295C532.085 448.29 532.086 448.285 532.088 448.282L533.952 449.004ZM533.537 450.076L533.952 449.004L532.087 448.282L531.672 449.353L533.537 450.076ZM533.53 450.037C533.529 450.037 533.53 450.038 533.532 450.04C533.534 450.043 533.536 450.046 533.537 450.05C533.539 450.054 533.539 450.058 533.539 450.064C533.539 450.069 533.538 450.074 533.537 450.076L531.672 449.353C531.334 450.226 531.659 451.203 532.434 451.71L533.53 450.037ZM534.117 450.422L533.53 450.037L532.434 451.71L533.021 452.095L534.117 450.422ZM534.135 450.421C534.135 450.421 534.135 450.422 534.134 450.422C534.132 450.423 534.13 450.423 534.127 450.424C534.124 450.424 534.121 450.424 534.12 450.423C534.119 450.423 534.118 450.423 534.118 450.422L533.021 452.095C533.804 452.608 534.845 452.513 535.521 451.864L534.135 450.421ZM534.933 449.656L534.135 450.421L535.52 451.864L536.318 451.098L534.933 449.656ZM536.999 449.21C536.3 448.97 535.496 449.115 534.932 449.656L536.318 451.098C536.317 451.099 536.316 451.099 536.316 451.1C536.315 451.1 536.316 451.099 536.319 451.099C536.325 451.097 536.337 451.097 536.351 451.102L536.999 449.21ZM537.297 449.306C537.194 449.275 537.096 449.243 537.002 449.211L536.347 451.101C536.473 451.144 536.597 451.184 536.717 451.22L537.297 449.306ZM538.702 450.903C538.582 450.119 538.01 449.522 537.297 449.306L536.717 451.22C536.731 451.224 536.735 451.229 536.734 451.228C536.734 451.228 536.732 451.225 536.73 451.221C536.727 451.217 536.726 451.211 536.725 451.206L538.702 450.903ZM538.867 451.982L538.702 450.903L536.725 451.206L536.89 452.285L538.867 451.982ZM538.865 451.965C538.862 451.964 538.86 451.964 538.859 451.964C538.859 451.963 538.858 451.963 538.859 451.963C538.859 451.964 538.861 451.965 538.863 451.969C538.865 451.973 538.867 451.977 538.867 451.982L536.89 452.285C537.035 453.228 537.83 453.914 538.762 453.962L538.865 451.965ZM539.572 452L538.864 451.964L538.764 453.962L539.472 453.997L539.572 452ZM539.579 452.006C539.58 452.003 539.582 452 539.583 451.998C539.584 451.997 539.585 451.997 539.584 451.997C539.582 451.999 539.578 452 539.572 452L539.471 453.997C540.383 454.043 541.228 453.47 541.495 452.58L539.579 452.006ZM539.908 450.908L539.579 452.006L541.495 452.579L541.824 451.481L539.908 450.908ZM541.464 449.521C540.749 449.658 540.129 450.169 539.908 450.908L541.824 451.481C541.823 451.485 541.821 451.489 541.819 451.492C541.817 451.494 541.816 451.495 541.817 451.495C541.818 451.494 541.824 451.489 541.838 451.486L541.464 449.521ZM541.789 449.453C541.681 449.478 541.573 449.501 541.463 449.522L541.839 451.486C541.973 451.46 542.106 451.432 542.239 451.402L541.789 449.453ZM543.814 450.132C543.314 449.52 542.519 449.286 541.791 449.452L542.237 451.402C542.252 451.399 542.264 451.4 542.269 451.402C542.271 451.403 542.272 451.403 542.27 451.403C542.269 451.402 542.267 451.4 542.265 451.398L543.814 450.132ZM544.477 450.947L543.815 450.134L542.264 451.396L542.926 452.21L544.477 450.947ZM544.492 450.944C544.489 450.946 544.487 450.946 544.485 450.946C544.483 450.947 544.48 450.947 544.478 450.946C544.475 450.946 544.474 450.945 544.475 450.945C544.476 450.946 544.477 450.947 544.478 450.948L542.926 452.209C543.525 452.947 544.559 453.152 545.396 452.729L544.492 450.944ZM545.154 450.609L544.492 450.944L545.395 452.729L546.057 452.394L545.154 450.609ZM545.15 450.639C545.149 450.635 545.148 450.63 545.149 450.624C545.149 450.619 545.151 450.616 545.152 450.613C545.154 450.608 545.157 450.608 545.154 450.609L546.057 452.393C546.866 451.984 547.309 451.076 547.095 450.177L545.15 450.639ZM544.885 449.52L545.149 450.639L547.096 450.178L546.831 449.06L544.885 449.52ZM545.539 447.559C544.985 448.03 544.709 448.778 544.885 449.52L546.831 449.059C546.832 449.064 546.833 449.069 546.832 449.075C546.832 449.08 546.831 449.084 546.83 449.086C546.829 449.091 546.828 449.089 546.834 449.084L545.539 447.559ZM545.811 447.318C545.722 447.4 545.632 447.48 545.538 447.56L546.835 449.083C546.947 448.987 547.058 448.889 547.168 448.787L545.811 447.318ZM547.888 446.901C547.161 446.632 546.362 446.81 545.812 447.318L547.168 448.788C547.175 448.782 547.182 448.778 547.188 448.777C547.19 448.777 547.192 448.777 547.193 448.777C547.194 448.777 547.194 448.777 547.194 448.777L547.888 446.901ZM548.891 447.272L547.889 446.901L547.194 448.777L548.196 449.148L548.891 447.272ZM548.906 447.272C548.907 447.272 548.907 447.271 548.907 447.271C548.908 447.271 548.908 447.271 548.908 447.27C548.908 447.27 548.908 447.27 548.908 447.27C548.908 447.27 548.907 447.271 548.904 447.272C548.898 447.274 548.894 447.273 548.89 447.272L548.197 449.148C549.064 449.469 550.052 449.159 550.57 448.382L548.906 447.272ZM549.333 446.632L548.906 447.272L550.57 448.382L550.997 447.742L549.333 446.632ZM549.337 446.675C549.336 446.674 549.334 446.671 549.332 446.667C549.33 446.663 549.329 446.659 549.329 446.654C549.328 446.65 549.329 446.646 549.33 446.641C549.331 446.637 549.332 446.633 549.333 446.632L550.997 447.742C551.51 446.973 551.42 445.956 550.779 445.29L549.337 446.675ZM548.57 445.876L549.337 446.675L550.78 445.29L550.014 444.492L548.57 445.876ZM548.146 443.832C547.891 444.53 548.04 445.322 548.57 445.876L550.014 444.492C550.016 444.494 550.018 444.496 550.02 444.5C550.022 444.504 550.023 444.508 550.024 444.511C550.025 444.518 550.024 444.52 550.025 444.518L548.146 443.832ZM548.267 443.475C548.229 443.595 548.189 443.715 548.145 443.833L550.025 444.517C550.077 444.374 550.127 444.227 550.174 444.078L548.267 443.475ZM549.839 442.104C549.091 442.232 548.491 442.767 548.267 443.475L550.174 444.079C550.175 444.077 550.175 444.076 550.176 444.075C550.176 444.075 550.176 444.075 550.176 444.075C550.176 444.075 550.176 444.075 550.176 444.075C550.176 444.075 550.176 444.075 550.176 444.075C550.176 444.075 550.176 444.075 550.176 444.075C550.176 444.075 550.176 444.075 550.177 444.075C550.177 444.075 550.177 444.075 550.178 444.075L549.839 442.104ZM550.946 441.912L549.838 442.104L550.179 444.075L551.286 443.883L550.946 441.912ZM550.947 441.928C550.947 441.924 550.948 441.919 550.95 441.915C550.951 441.912 550.952 441.911 550.953 441.91C550.953 441.91 550.953 441.91 550.952 441.911C550.951 441.911 550.95 441.912 550.947 441.912L551.285 443.883C552.18 443.73 552.877 442.991 552.942 442.068L550.947 441.928ZM543 441C543 442.657 541.657 444 540 444V446C542.761 446 545 443.761 545 441H543ZM540 438C541.657 438 543 439.343 543 441H545C545 438.239 542.761 436 540 436V438ZM537 441C537 439.343 538.343 438 540 438V436C537.239 436 535 438.239 535 441H537ZM540 444C538.343 444 537 442.657 537 441H535C535 443.761 537.239 446 540 446V444Z" fill="#1D2028" mask="url(#path-46-inside-2_395_1736)"/>
<circle cx="557.231" cy="452.282" r="5.0641" stroke="#1D2028"/>
<circle cx="546" cy="459" r="2.5" stroke="#1D2028"/>
<rect x="600.5" y="423.5" width="75" height="81" rx="14.5" stroke="#1D2028"/>
<path d="M604.5 421C604.5 414.649 609.655 409.5 616.007 409.5H616.117H616.228H616.339H616.449H616.559H616.67H616.78H616.89H617H617.109H617.219H617.329H617.438H617.548H617.657H617.766H617.875H617.984H618.093H618.202H618.31H618.419H618.527H618.636H618.744H618.852H618.96H619.068H619.176H619.284H619.392H619.499H619.607H619.714H619.821H619.929H620.036H620.143H620.25H620.357H620.463H620.57H620.677H620.783H620.89H620.996H621.102H621.208H621.314H621.42H621.526H621.632H621.737H621.843H621.949H622.054H622.159H622.265H622.37H622.475H622.58H622.685H622.79H622.894H622.999H623.104H623.208H623.313H623.417H623.521H623.626H623.73H623.834H623.938H624.042H624.145H624.249H624.353H624.456H624.56H624.663H624.767H624.87H624.973H625.076H625.179H625.282H625.385H625.488H625.591H625.694H625.796H625.899H626.001H626.104H626.206H626.309H626.411H626.513H626.615H626.717H626.819H626.921H627.023H627.125H627.226H627.328H627.429H627.531H627.632H627.734H627.835H627.936H628.038H628.139H628.24H628.341H628.442H628.543H628.644H628.744H628.845H628.946H629.046H629.147H629.248H629.348H629.448H629.549H629.649H629.749H629.85H629.95H630.05H630.15H630.25H630.35H630.45H630.549H630.649H630.749H630.849H630.948H631.048H631.147H631.247H631.346H631.446H631.545H631.644H631.744H631.843H631.942H632.041H632.14H632.239H632.338H632.437H632.536H632.635H632.734H632.833H632.931H633.03H633.129H633.227H633.326H633.425H633.523H633.622H633.72H633.818H633.917H634.015H634.113H634.212H634.31H634.408H634.506H634.605H634.703H634.801H634.899H634.997H635.095H635.193H635.291H635.389H635.486H635.584H635.682H635.78H635.878H635.975H636.073H636.171H636.268H636.366H636.464H636.561H636.659H636.756H636.854H636.951H637.049H637.146H637.244H637.341H637.438H637.536H637.633H637.73H637.828H637.925H638.022H638.119H638.217H638.314H638.411H638.508H638.605H638.703H638.8H638.897H638.994H639.091H639.188H639.285H639.382H639.479H639.576H639.673H639.77H639.867H639.964H640.061H640.158H640.255H640.352H640.449H640.546H640.643H640.74H640.837H640.934H641.031H641.128H641.225H641.322H641.419H641.515H641.612H641.709H641.806H641.903H642H642.097H642.194H642.291H642.388H642.485H642.581H642.678H642.775H642.872H642.969H643.066H643.163H643.26H643.357H643.454H643.551H643.648H643.745H643.842H643.939H644.036H644.133H644.23H644.327H644.424H644.521H644.618H644.715H644.812H644.909H645.006H645.103H645.2H645.297H645.395H645.492H645.589H645.686H645.783H645.881H645.978H646.075H646.172H646.27H646.367H646.464H646.562H646.659H646.756H646.854H646.951H647.049H647.146H647.244H647.341H647.439H647.536H647.634H647.732H647.829H647.927H648.025H648.122H648.22H648.318H648.416H648.514H648.611H648.709H648.807H648.905H649.003H649.101H649.199H649.297H649.395H649.494H649.592H649.69H649.788H649.887H649.985H650.083H650.182H650.28H650.378H650.477H650.575H650.674H650.773H650.871H650.97H651.069H651.167H651.266H651.365H651.464H651.563H651.662H651.761H651.86H651.959H652.058H652.157H652.256H652.356H652.455H652.554H652.654H652.753H652.853H652.952H653.052H653.151H653.251H653.351H653.451H653.55H653.65H653.75H653.85H653.95H654.05H654.15H654.251H654.351H654.451H654.552H654.652H654.752H654.853H654.954H655.054H655.155H655.256H655.356H655.457H655.558H655.659H655.76H655.861H655.962H656.064H656.165H656.266H656.368H656.469H656.571H656.672H656.774H656.875H656.977H657.079H657.181H657.283H657.385H657.487H657.589H657.691H657.794H657.896H657.999H658.101H658.204H658.306H658.409H658.512H658.615H658.718H658.821H658.924H659.027H659.13H659.233H659.337H659.44H659.544H659.647H659.751H659.855H659.958H660.062H660.166H660.27H660.374H660.479H660.583H660.687H660.792H660.896H661.001H661.106H661.21H661.315H661.42H661.525H661.63H661.735H661.841H661.946H662.051H662.157H662.263H662.368H662.474H662.58H662.686H662.792H662.898H663.004H663.11H663.217H663.323H663.43H663.537H663.643H663.75H663.857H663.964H664.071H664.179H664.286H664.393H664.501H664.608H664.716H664.824H664.932H665.04H665.148H665.256H665.364H665.473H665.581H665.69H665.798H665.907H666.016H666.125H666.234H666.343H666.452H666.562H666.671H666.781H666.891H667H667.11H667.22H667.33H667.441H667.551H667.661H667.772H667.883H667.993C674.345 409.5 679.5 414.649 679.5 421V489C679.5 495.351 674.351 500.5 668 500.5H616C609.649 500.5 604.5 495.351 604.5 489V421Z" fill="white" stroke="#40404B"/>
<ellipse cx="642.5" cy="437.118" rx="10.3235" ry="6.11765" fill="url(#paint6_linear_395_1736)" fill-opacity="0.5" stroke="#1D2028"/>
<path d="M652.824 444C652.824 447.379 648.202 450.118 642.5 450.118C636.799 450.118 632.177 447.379 632.177 444" stroke="#1D2028" stroke-linecap="round"/>
<path d="M652.824 450.882C652.824 454.261 648.202 457 642.5 457C636.799 457 632.177 454.261 632.177 450.882" stroke="#1D2028" stroke-linecap="round"/>
<path d="M632.177 437.118V450.882" stroke="#1D2028"/>
<path d="M652.823 437.118V450.882" stroke="#1D2028"/>
<path d="M630.615 476.897H626.908V486H630.615C631.967 486 633.04 485.574 633.833 484.724C634.626 483.873 635.026 482.781 635.026 481.448C635.026 480.109 634.626 479.017 633.827 478.173C633.027 477.329 631.954 476.904 630.615 476.904V476.897ZM630.589 484.73H628.317V478.179H630.589C631.516 478.179 632.252 478.484 632.798 479.094C633.344 479.703 633.617 480.484 633.617 481.436C633.617 482.407 633.344 483.2 632.798 483.816C632.252 484.432 631.516 484.743 630.589 484.743V484.73ZM639.305 486.171C640.327 486.171 641.114 485.784 641.66 485.01V486H643.012V479.462H641.66V480.452C641.114 479.677 640.327 479.29 639.305 479.29C638.378 479.29 637.604 479.62 636.981 480.274C636.359 480.928 636.048 481.747 636.048 482.724C636.048 483.708 636.359 484.527 636.981 485.181C637.604 485.835 638.378 486.165 639.305 486.165V486.171ZM639.527 484.94C638.905 484.94 638.391 484.73 637.991 484.311C637.591 483.892 637.388 483.359 637.388 482.718C637.388 482.077 637.584 481.55 637.984 481.137C638.384 480.725 638.892 480.515 639.514 480.515C640.117 480.515 640.625 480.725 641.044 481.144C641.463 481.563 641.672 482.09 641.672 482.724C641.672 483.365 641.463 483.899 641.044 484.318C640.625 484.737 640.111 484.946 639.508 484.946L639.527 484.94ZM648.49 484.673C648.204 484.813 647.918 484.883 647.633 484.883C647.004 484.883 646.693 484.546 646.693 483.88V480.668H648.775V479.462H646.693V477.278H645.341V479.462H644.148V480.668H645.341V483.88C645.341 484.572 645.513 485.117 645.849 485.511C646.186 485.905 646.7 486.101 647.385 486.101C647.849 486.101 648.331 486 648.826 485.79L648.49 484.673ZM652.647 486.171C653.669 486.171 654.457 485.784 655.002 485.01V486H656.354V479.462H655.002V480.452C654.457 479.677 653.669 479.29 652.647 479.29C651.721 479.29 650.946 479.62 650.324 480.274C649.702 480.928 649.391 481.747 649.391 482.724C649.391 483.708 649.702 484.527 650.324 485.181C650.946 485.835 651.721 486.165 652.647 486.165V486.171ZM652.87 484.94C652.248 484.94 651.733 484.73 651.333 484.311C650.934 483.892 650.73 483.359 650.73 482.718C650.73 482.077 650.927 481.55 651.327 481.137C651.727 480.725 652.235 480.515 652.857 480.515C653.46 480.515 653.968 480.725 654.387 481.144C654.806 481.563 655.015 482.09 655.015 482.724C655.015 483.365 654.806 483.899 654.387 484.318C653.968 484.737 653.454 484.946 652.851 484.946L652.87 484.94Z" fill="#1D2028"/>
<rect x="297.5" y="98.5" width="55" height="55" rx="27.5" fill="#1D2028"/>
<g clip-path="url(#clip0_395_1736)">
<path d="M331.29 114C331.999 114 332.665 114.322 333.106 114.869L333.231 115.039L335.67 118.697L337.003 134.339C337.003 136.289 335.481 137.883 333.56 137.999L333.336 138.005H316.667C314.717 138.005 313.122 136.483 313.007 134.562L313 134.339L314.333 118.697L316.772 115.039C317.166 114.449 317.803 114.073 318.502 114.01L318.714 114H331.29ZM329 123C328.448 123 328 123.448 328 124L327.993 124.205C327.888 125.766 326.588 127 325 127C323.343 127 322 125.657 322 124C322 123.448 321.552 123 321 123C320.448 123 320 123.448 320 124C320 126.761 322.239 129 325 129C327.761 129 330 126.761 330 124C330 123.448 329.552 123 329 123ZM331.29 116H318.714C318.63 116 318.551 116.031 318.49 116.086L318.436 116.148L317.2 118H332.801L331.567 116.148C331.536 116.102 331.495 116.065 331.447 116.039L331.371 116.01L331.29 116Z" fill="white"/>
</g>
<rect x="297.5" y="98.5" width="55" height="55" rx="27.5" stroke="#1D2028"/>
<path d="M507.015 145.361L506.647 145.023L507.015 145.361ZM557.395 137.442L551.629 137.744L554.25 132.6L557.395 137.442ZM496.916 173.342C496.262 168.112 497.302 155.191 506.647 145.023L507.383 145.7C498.288 155.596 497.28 168.196 497.908 173.218L496.916 173.342ZM506.647 145.023C517.483 133.233 535.645 126.916 553.589 134.942L553.181 135.855C535.692 128.033 517.977 134.172 507.383 145.7L506.647 145.023Z" fill="black"/>
<path d="M732.717 317.941L733.216 317.92L732.717 317.941ZM674.452 397.759L678.422 393.567L680.067 399.102L674.452 397.759ZM707.983 266.107C715.961 272.326 732.125 291.356 733.216 317.92L732.217 317.961C731.141 291.765 715.181 272.986 707.368 266.896L707.983 266.107ZM733.216 317.92C734.531 349.9 717.082 384.546 678.914 396.954L678.605 396.003C716.278 383.756 733.516 349.57 732.217 317.961L733.216 317.92Z" fill="black"/>
<defs>
<linearGradient id="paint0_linear_395_1736" x1="508" y1="281.508" x2="343.054" y2="191.293" gradientUnits="userSpaceOnUse">
<stop stop-color="#5567D5"/>
<stop offset="1" stop-color="#0095FF"/>
</linearGradient>
<linearGradient id="paint1_linear_395_1736" x1="787.581" y1="454.597" x2="666.253" y2="370.694" gradientUnits="userSpaceOnUse">
<stop stop-color="white"/>
<stop offset="1" stop-color="#CBCEDB"/>
</linearGradient>
<linearGradient id="paint2_linear_395_1736" x1="698" y1="108.944" x2="688.451" y2="105.924" gradientUnits="userSpaceOnUse">
<stop stop-color="#5567D5"/>
<stop offset="1" stop-color="#0095FF"/>
</linearGradient>
<linearGradient id="paint3_linear_395_1736" x1="232" y1="435.861" x2="191.727" y2="423.417" gradientUnits="userSpaceOnUse">
<stop stop-color="#5567D5"/>
<stop offset="1" stop-color="#0095FF"/>
</linearGradient>
<linearGradient id="paint4_linear_395_1736" x1="459.189" y1="436.218" x2="442.504" y2="444.883" gradientUnits="userSpaceOnUse">
<stop stop-color="#5567D5"/>
<stop offset="1" stop-color="#0095FF"/>
</linearGradient>
<linearGradient id="paint5_linear_395_1736" x1="552" y1="445.667" x2="529.083" y2="438.417" gradientUnits="userSpaceOnUse">
<stop stop-color="#5567D5"/>
<stop offset="1" stop-color="#0095FF"/>
</linearGradient>
<linearGradient id="paint6_linear_395_1736" x1="652.824" y1="439.497" x2="635.946" y2="430.486" gradientUnits="userSpaceOnUse">
<stop stop-color="#5567D5"/>
<stop offset="1" stop-color="#0095FF"/>
</linearGradient>
<clipPath id="clip0_395_1736">
<rect width="24" height="24" fill="white" transform="translate(313 114)"/>
</clipPath>
</defs>
</svg>
