<?xml version="1.0" encoding="UTF-8"?>
<svg width="16px" height="16px" viewBox="0 0 16 16" version="1.1" xmlns="http://www.w3.org/2000/svg" xmlns:xlink="http://www.w3.org/1999/xlink">
    <title>F1EC2B13-5C85-4778-B548-DF2150372307</title>
    <g id="Manage" stroke="none" stroke-width="1" fill="none" fill-rule="evenodd">
        <g id="manage-overview" transform="translate(-616.000000, -192.000000)" fill="#5567D5" fill-rule="nonzero">
            <g id="Icon/Apps/Webhook-Copy-6" transform="translate(616.250000, 192.250000)">
                <path d="M12.75,0 C14.2687831,0 15.5,1.23121694 15.5,2.75 L15.5,2.75 L15.5,12.75 C15.5,14.2687831 14.2687831,15.5 12.75,15.5 L12.75,15.5 L2.75,15.5 C1.23121694,15.5 0,14.2687831 0,12.75 L0,12.75 L0,2.75 C0,1.23121694 1.23121694,0 2.75,0 L2.75,0 Z M7,1.5 L2.75,1.5 C2.05964406,1.5 1.5,2.05964406 1.5,2.75 L1.5,2.75 L1.5,12.75 C1.5,13.4403559 2.05964406,14 2.75,14 L2.75,14 L7,14 L7,1.5 Z M14,8.5 L8.5,8.5 L8.5,14 L12.75,14 C13.3972087,14 13.9295339,13.5081253 13.9935464,12.8778052 L14,12.75 L14,8.5 Z M12.75,1.5 L8.5,1.5 L8.5,7 L14,7 L14,2.75 C14,2.10279131 13.5081253,1.5704661 12.8778052,1.50645361 L12.75,1.5 Z" id="Combined-Shape"></path>
            </g>
        </g>
    </g>
</svg>
