<?xml version="1.0" encoding="utf-8"?>
<svg version="1.1" id="Capa_1" xmlns="http://www.w3.org/2000/svg" xmlns:xlink="http://www.w3.org/1999/xlink" x="0px" y="0px"
	 viewBox="0 0 512 512" style="enable-background:new 0 0 512 512;" xml:space="preserve">
<g>
	<g>
		<path fill="#677BF8" d="M467.5,46.8c-48-48-126.1-48-174.2,0l-70.5,70.5c-3,3-3.8,7.5-2.1,11.4c1.7,3.9,5.3,6.4,9.9,6.1l3.1-0.2
			c5.3-0.5,10.8-0.1,16.1,0.4c9,0.8,18.5,2.7,28.9,5.8c3.6,1.1,7.5,0.1,10.2-2.6l47.9-47.9c23.3-23.3,63.8-23.3,87.1,0
			c24,24,24,63.1,0,87.1l-68.7,68.7c-5.4-21.2-16-40.2-31.5-55.6c-20.2-20.2-46.5-32.4-75.8-35c-25.5-2.2-50.7,3.2-72.7,15.9
			c-10.5,6.1-18.7,12.2-25.6,19.2L47,293.1c-48,48-48,126.1,0,174.2c24,24,55.5,36,87.1,36s63.1-12,87.1-36l70.5-70.5
			c3-3,3.8-7.5,2.1-11.4c-1.7-3.9-5.7-6.5-9.8-6.1l-3.3,0.2c-5.2,0.5-10.7,0.1-16.1-0.4c-9-0.8-18.5-2.7-28.9-5.8
			c-3.6-1.1-7.5-0.1-10.2,2.6l-47.9,47.9c-23.3,23.3-63.8,23.3-87.1,0c-24-24-24-63.1,0-87.1l68.7-68.7c5.4,21.2,16,40.2,31.5,55.6
			c20.2,20.2,46.5,32.4,75.9,35c3.8,0.4,7.6,0.5,11.5,0.5c21.5,0,42.5-5.6,61.2-16.4c10.5-6.1,18.7-12.2,25.6-19.2l102.6-102.6
			C515.5,172.9,515.5,94.8,467.5,46.8z M295.4,295.2c-22.1,6.7-45.4,0.6-61.2-15.2c-16-16-21.6-39.6-15.2-61.2
			c22.2-6.7,45.4-0.6,61.2,15.2C296.3,250,301.9,273.6,295.4,295.2z"/>
	</g>
</g>
</svg>
