<?xml version="1.0" encoding="UTF-8"?>
<svg width="16px" height="16px" viewBox="0 0 16 16" version="1.1" xmlns="http://www.w3.org/2000/svg" xmlns:xlink="http://www.w3.org/1999/xlink">
    <defs>
        <path d="M4.1109127,6.23223305 C4.28447906,6.4057994 4.30376421,6.6752238 4.16876815,6.87009194 L4.1109127,6.93933983 L2.69669914,8.35355339 C1.32986412,9.72038841 1.32986412,11.9364658 2.69669914,13.3033009 C4.01797299,14.6245747 6.1328167,14.6686172 7.50699521,13.4354282 L7.64644661,13.3033009 L9.06066017,11.8890873 C9.25592232,11.6938252 9.57250481,11.6938252 9.76776695,11.8890873 C9.9413333,12.0626536 9.96061846,12.332078 9.8256224,12.5269462 L9.76776695,12.5961941 L8.35355339,14.0104076 C6.59619408,15.767767 3.74695167,15.767767 1.98959236,14.0104076 C0.282443313,12.3032586 0.233667626,9.56572844 1.8432653,7.79970047 L1.98959236,7.64644661 L3.40380592,6.23223305 C3.59906807,6.0369709 3.91565056,6.0369709 4.1109127,6.23223305 Z M11.3536864,4.64657966 C11.5271874,4.8202113 11.5463712,5.08964294 11.4113018,5.28446027 L11.3534203,5.35368639 L5.34890374,11.3536864 C5.15356814,11.5488751 4.83698568,11.5487559 4.64179701,11.3534203 C4.46829597,11.1797887 4.44911219,10.9103571 4.58418155,10.7155397 L4.64206305,10.6463136 L10.6465797,4.64631361 C10.8419153,4.45112495 11.1584977,4.45124406 11.3536864,4.64657966 Z M14.0104076,1.98959236 C15.7175567,3.69674141 15.7663324,6.43427156 14.1567347,8.20029953 L14.0104076,8.35355339 L12.5961941,9.76776695 C12.4009319,9.9630291 12.0843494,9.9630291 11.8890873,9.76776695 C11.7155209,9.5942006 11.6962358,9.3247762 11.8312318,9.12990806 L11.8890873,9.06066017 L13.3033009,7.64644661 C14.6701359,6.27961159 14.6701359,4.06353416 13.3033009,2.69669914 C11.982027,1.37542529 9.8671833,1.33138283 8.49300479,2.56457176 L8.35355339,2.69669914 L6.93933983,4.1109127 C6.74407768,4.30617485 6.42749519,4.30617485 6.23223305,4.1109127 C6.0586667,3.93734635 6.03938154,3.66792195 6.1743776,3.47305381 L6.23223305,3.40380592 L7.64644661,1.98959236 C9.40380592,0.232233047 12.2530483,0.232233047 14.0104076,1.98959236 Z" id="path-1"></path>
    </defs>
    <g id="Apps" stroke="none" stroke-width="1" fill="none" fill-rule="evenodd">
        <g id="apps-create-application-new" transform="translate(-1000.000000, -592.000000)">
            <g id="Button/Circle/Hover" transform="translate(992.000000, 584.000000)">
                <g id="Icon/Clear" transform="translate(8.000000, 8.000000)">
                    <mask id="mask-2" fill="white">
                        <use xlink:href="#path-1"></use>
                    </mask>
                    <use id="Combined-Shape" fill="#fff" fill-rule="nonzero" xlink:href="#path-1"></use>
                </g>
            </g>
        </g>
    </g>
</svg>
