<svg id="Icon_Flow_Log" data-name="Icon/Flow/Log" xmlns="http://www.w3.org/2000/svg" width="20" height="20" viewBox="0 0 20 20">
<path id="Combined_Shape_Copy_7" data-name="Combined Shape Copy 7" d="M-1,6.586a1,1,0,0,0,1-1V1A1,1,0,0,0-1,0,1,1,0,0,0-2,1V4.586H-5.585a1,1,0,0,0-1,1,1,1,0,0,0,1,1Z" transform="translate(13.586 9.929) rotate(-45)" fill="#5567d5"/>
  <path id="Path" d="M6,16H2a2,2,0,0,1-2-2V2A2,2,0,0,1,2,0H12a2,2,0,0,1,2,2V7" transform="translate(3 2)" fill="none" stroke="#ccd1f2" stroke-linecap="round" stroke-miterlimit="10" stroke-width="2"/></svg>
