<?xml version="1.0" encoding="utf-8"?>

<!-- 
~    Copyright (c) 2020, WSO2 Inc. (http://www.wso2.com). All Rights Reserved.
~   
~    This software is the property of WSO2 Inc. and its suppliers, if any. 
~    Dissemination of any information or reproduction of any material contained 
~    herein in any form is strictly forbidden, unless permitted by WSO2 expressly. 
~    You may not alter or remove any copyright or other notice from copies of this content."
-->

<svg version="1.1" xmlns="http://www.w3.org/2000/svg" xmlns:xlink="http://www.w3.org/1999/xlink" x="0px" y="0px"
	 viewBox="0 0 1680 974" style="enable-background:new 0 0 1680 974;" xml:space="preserve">
<style type="text/css">
	.st0{opacity:0.18;fill:#E2E1E6;}
	.st1{opacity:0.159;fill:#E2E1E6;enable-background:new    ;}
	.st2{opacity:0.03;fill:none;stroke:#000000;stroke-width:34.9448128;stroke-miterlimit:10;enable-background:new    ;}
	.st3{fill:#1EBAB4;stroke:#1EBAB4;stroke-miterlimit:10;}
	.st4{fill:#FF6B48;}
	.st5{fill:#FFC561;}
	.st6{opacity:0.23;fill:#E2E1E6;}
	.st7{fill:#1AA0C9;}
	.st8{opacity:0.378;}
	.st9{fill:#313133;}
	.st10{opacity:0.23;enable-background:new    ;}
	.st11{fill:#E2E1E6;}
	.st12{display:none;}
	.st13{display:inline;}
	.st14{fill:#5346B6;}
	.st15{fill:#353451;}
	.st16{font-family:'NotoSans-Bold';}
	.st17{font-size:48.5571861px;}
	.st18{letter-spacing:-2;}
	.st19{display:inline;fill:#353451;}
	.st20{display:inline;fill:none;stroke:#5346B6;stroke-width:2;stroke-miterlimit:10;}
	.st21{display:inline;fill:none;}
	.st22{display:inline;fill:#7D7A9D;}
	.st23{font-family:'ProductSans-Regular';}
	.st24{font-size:21.9465809px;}
	.st25{font-family:'NotoSans-SemiBold';}
	.st26{font-size:20px;}
	.st27{fill:#606060;}
</style>
<g id="Layer_1">
	<path class="st0" d="M1245.1435547,632.8571167l780.5408936-75.8156128
		c57.3406982-5.5696411,87.1490479-71.1235657,53.6553955-117.9971313l-455.9287109-638.0604248
		c-33.4936523-46.8735504-105.1693115-39.9115295-129.0161133,12.5316315l-324.6121826,713.8760376
		C1145.9359131,579.8347778,1187.8031006,638.4266968,1245.1435547,632.8571167z"/>
	<path id="Path_3602" class="st1" d="M-0.7970013-4.0680203h1681.5939941V974H-0.7970013V-4.0680203z"/>
	<circle id="Ellipse_25" class="st2" cx="867.2723999" cy="961.8002319" r="132.1936188"/>
	<g id="Group_1342" transform="translate(452.587 144.819)">
		<g id="Group_1334" transform="translate(179.95 500.083)">
			<circle id="Ellipse_30" class="st3" cx="-260.8033142" cy="169.9583893" r="1.9272066"/>
			<circle id="Ellipse_31" class="st3" cx="-244.7138367" cy="170.2554169" r="1.9272066"/>
			<circle id="Ellipse_32" class="st3" cx="-228.6235046" cy="170.2554169" r="1.9272066"/>
			<circle id="Ellipse_33" class="st3" cx="-212.5340424" cy="170.2554169" r="1.9272066"/>
			<circle id="Ellipse_34" class="st3" cx="-196.4436951" cy="170.2554169" r="1.9272066"/>
			<circle id="Ellipse_35" class="st3" cx="-180.3542328" cy="170.2554169" r="1.9272066"/>
			<circle id="Ellipse_36" class="st3" cx="-164.2638855" cy="170.2554169" r="1.9272066"/>
			<circle id="Ellipse_37" class="st3" cx="-148.1744232" cy="170.2554169" r="1.9272066"/>
			<circle id="Ellipse_38" class="st3" cx="-132.0840912" cy="170.2554169" r="1.9272066"/>
			<circle id="Ellipse_39" class="st3" cx="-115.9946136" cy="170.2554169" r="1.9272066"/>
			<circle id="Ellipse_40" class="st3" cx="-99.904274" cy="170.2554169" r="1.9272066"/>
		</g>
		<g id="Group_1335" transform="translate(179.95 516.778)">
			<circle id="Ellipse_41" class="st3" cx="-260.8033142" cy="167.8484802" r="1.9272066"/>
			<circle id="Ellipse_42" class="st3" cx="-244.7138367" cy="168.1455078" r="1.9272066"/>
			<circle id="Ellipse_43" class="st3" cx="-228.6235046" cy="168.1455078" r="1.9272066"/>
			<circle id="Ellipse_44" class="st3" cx="-212.5340424" cy="168.1455078" r="1.9272066"/>
			<circle id="Ellipse_45" class="st3" cx="-196.4436951" cy="168.1455078" r="1.9272066"/>
			<circle id="Ellipse_46" class="st3" cx="-180.3542328" cy="168.1455078" r="1.9272066"/>
			<circle id="Ellipse_47" class="st3" cx="-164.2638855" cy="168.1455078" r="1.9272066"/>
			<circle id="Ellipse_48" class="st3" cx="-148.1744232" cy="168.1455078" r="1.9272066"/>
			<circle id="Ellipse_49" class="st3" cx="-132.0840912" cy="168.1455078" r="1.9272066"/>
			<circle id="Ellipse_50" class="st3" cx="-115.9946136" cy="168.1455078" r="1.9272066"/>
			<circle id="Ellipse_51" class="st3" cx="-99.904274" cy="168.1455078" r="1.9272066"/>
		</g>
		<g id="Group_1336" transform="translate(179.95 533.473)">
			<circle id="Ellipse_52" class="st3" cx="-260.8033142" cy="165.7385712" r="1.9272066"/>
			<circle id="Ellipse_53" class="st3" cx="-244.7138367" cy="166.0355988" r="1.9272066"/>
			<circle id="Ellipse_54" class="st3" cx="-228.6235046" cy="166.0355988" r="1.9272066"/>
			<circle id="Ellipse_55" class="st3" cx="-212.5340424" cy="166.0355988" r="1.9272066"/>
			<circle id="Ellipse_56" class="st3" cx="-196.4436951" cy="166.0355988" r="1.9272066"/>
			<circle id="Ellipse_57" class="st3" cx="-180.3542328" cy="166.0355988" r="1.9272066"/>
			<circle id="Ellipse_58" class="st3" cx="-164.2638855" cy="166.0355988" r="1.9272066"/>
			<circle id="Ellipse_59" class="st3" cx="-148.1744232" cy="166.0355988" r="1.9272066"/>
			<circle id="Ellipse_60" class="st3" cx="-132.0840912" cy="166.0355988" r="1.9272066"/>
			<circle id="Ellipse_61" class="st3" cx="-115.9946136" cy="166.0355988" r="1.9272066"/>
			<circle id="Ellipse_62" class="st3" cx="-99.904274" cy="166.0355988" r="1.9272066"/>
		</g>
	</g>
	<path id="Path_3780" class="st4" d="M297.3254089,323.3241882c0,0-73.4941864-32.9040527-73.4941864-73.4942017
		c0-40.5899963,32.9041901-73.4949646,73.4941864-73.4959259
		C337.9146729,176.3366699,297.3254089,323.3241882,297.3254089,323.3241882z"/>
	<g id="Group_1345" transform="translate(35.409 32.546)">
		<ellipse id="Ellipse_28" class="st5" cx="1086.8288574" cy="710.9303589" rx="34.6912346" ry="34.690155"/>
	</g>
	<path class="st6" d="M43.4307022,1670.2022705l159.5438538-767.8137207
		c11.7204895-56.4055176-42.0149994-104.3468018-96.7238922-86.2943115l-744.7180786,245.737793
		c-54.7089233,18.0526123-69.3595581,88.5595703-26.3711548,126.9125977l585.1742554,522.0758057
		C-36.6759071,1749.1734619,31.7102051,1726.6077881,43.4307022,1670.2022705z"/>
	<path class="st7" d="M1560.3474121,835.5217896l11.4284668,68.0540771c0.647583,3.8560791,5.2266846,5.5651855,8.2424316,3.0762939
		l53.22229-43.9243164c3.0157471-2.4888916,2.2062988-7.309082-1.4570312-8.6763306l-64.6507568-24.1296997
		C1563.4696045,828.5545654,1559.6999512,831.6656494,1560.3474121,835.5217896z"/>
	<g id="Group_1347_1_" transform="translate(182.017 -16.454)" class="st8">
		<g id="Group_1343_1_" transform="translate(969 92.534)">
			<g id="Group_1339_1_" transform="translate(738.397 195.466)">
				<circle id="Ellipse_63_1_" class="st9" cx="-682.6445312" cy="-193.4047546" r="1.6624995"/>
				<circle id="Ellipse_64_1_" class="st9" cx="-668.7687988" cy="-193.1479034" r="1.6624995"/>
				<circle id="Ellipse_65_1_" class="st9" cx="-654.8930664" cy="-193.1479034" r="1.6624995"/>
				<circle id="Ellipse_66_1_" class="st9" cx="-641.017395" cy="-193.1479034" r="1.6624995"/>
				<circle id="Ellipse_67_1_" class="st9" cx="-627.1416626" cy="-193.1479034" r="1.6624995"/>
				<circle id="Ellipse_68_1_" class="st9" cx="-613.2650757" cy="-193.1479034" r="1.6624995"/>
				<circle id="Ellipse_69_1_" class="st9" cx="-599.3893433" cy="-193.1479034" r="1.6624995"/>
				<circle id="Ellipse_70_1_" class="st9" cx="-585.5136719" cy="-193.1479034" r="1.6624995"/>
				<circle id="Ellipse_71_1_" class="st9" cx="-571.6379395" cy="-193.1479034" r="1.6624995"/>
				<circle id="Ellipse_72_1_" class="st9" cx="-557.762207" cy="-193.1479034" r="1.6624995"/>
				<circle id="Ellipse_73_1_" class="st9" cx="-543.8865356" cy="-193.1479034" r="1.6624995"/>
			</g>
			<g id="Group_1340_1_" transform="translate(724.062 195.466)">
				<circle id="Ellipse_74_1_" class="st9" cx="-668.3095703" cy="-180.8814392" r="1.6624995"/>
				<circle id="Ellipse_75_1_" class="st9" cx="-654.4338379" cy="-180.624588" r="1.6624995"/>
				<circle id="Ellipse_76_1_" class="st9" cx="-640.5581055" cy="-180.624588" r="1.6624995"/>
				<circle id="Ellipse_77_1_" class="st9" cx="-626.6824341" cy="-180.624588" r="1.6624995"/>
				<circle id="Ellipse_78_1_" class="st9" cx="-612.8067017" cy="-180.624588" r="1.6624995"/>
				<circle id="Ellipse_79_1_" class="st9" cx="-598.9301147" cy="-180.624588" r="1.6624995"/>
				<circle id="Ellipse_80_1_" class="st9" cx="-585.0543823" cy="-180.624588" r="1.6624995"/>
				<circle id="Ellipse_81_1_" class="st9" cx="-571.1787109" cy="-180.624588" r="1.6624995"/>
				<circle id="Ellipse_82_1_" class="st9" cx="-557.3029785" cy="-180.624588" r="1.6624995"/>
				<circle id="Ellipse_83_1_" class="st9" cx="-543.4272461" cy="-180.624588" r="1.6624995"/>
				<circle id="Ellipse_84_1_" class="st9" cx="-529.5515747" cy="-180.624588" r="1.6624995"/>
			</g>
			<g id="Group_1341_1_" transform="translate(708.391 195.466)">
				<circle id="Ellipse_85_1_" class="st9" cx="-652.6385498" cy="-167.190918" r="1.6624995"/>
				<circle id="Ellipse_86_1_" class="st9" cx="-638.7628174" cy="-166.9340668" r="1.6624995"/>
				<circle id="Ellipse_87_1_" class="st9" cx="-624.887085" cy="-166.9340668" r="1.6624995"/>
				<circle id="Ellipse_88_1_" class="st9" cx="-611.0114136" cy="-166.9340668" r="1.6624995"/>
				<circle id="Ellipse_89_1_" class="st9" cx="-597.1356812" cy="-166.9340668" r="1.6624995"/>
				<circle id="Ellipse_90_1_" class="st9" cx="-583.2590942" cy="-166.9340668" r="1.6624995"/>
				<circle id="Ellipse_91_1_" class="st9" cx="-569.3833618" cy="-166.9340668" r="1.6624995"/>
				<circle id="Ellipse_92_1_" class="st9" cx="-555.5076904" cy="-166.9340668" r="1.6624995"/>
				<circle id="Ellipse_93_1_" class="st9" cx="-541.631958" cy="-166.9340668" r="1.6624995"/>
				<circle id="Ellipse_94_1_" class="st9" cx="-527.7562256" cy="-166.9340668" r="1.6624995"/>
				<circle id="Ellipse_95_1_" class="st9" cx="-513.8805542" cy="-166.9340668" r="1.6624995"/>
			</g>
		</g>
		<g id="Group_1346_1_" transform="translate(969 266.534)">
			<g id="Group_1339-2_1_" transform="translate(738.397 195.466)">
				<circle id="Ellipse_63-2_1_" class="st9" cx="-530.6345825" cy="-367.4047546" r="1.6624995"/>
				<circle id="Ellipse_64-2_1_" class="st9" cx="-516.7588501" cy="-367.1479187" r="1.6624995"/>
				<circle id="Ellipse_65-2_1_" class="st9" cx="-502.8831482" cy="-367.1479187" r="1.6624995"/>
				<circle id="Ellipse_66-2_1_" class="st9" cx="-489.0074158" cy="-367.1479187" r="1.6624995"/>
				<circle id="Ellipse_67-2_1_" class="st9" cx="-475.1317139" cy="-367.1479187" r="1.6624995"/>
				<circle id="Ellipse_68-2_1_" class="st9" cx="-461.255127" cy="-367.1479187" r="1.6624995"/>
				<circle id="Ellipse_69-2_1_" class="st9" cx="-447.379425" cy="-367.1479187" r="1.6624995"/>
				<circle id="Ellipse_70-2_1_" class="st9" cx="-433.5036926" cy="-367.1479187" r="1.6624995"/>
				<circle id="Ellipse_71-2_1_" class="st9" cx="-419.6279907" cy="-367.1479187" r="1.6624995"/>
				<circle id="Ellipse_72-2_1_" class="st9" cx="-405.7522888" cy="-367.1479187" r="1.6624995"/>
				<circle id="Ellipse_73-2_1_" class="st9" cx="-391.8765869" cy="-367.1479187" r="1.6624995"/>
			</g>
			<g id="Group_1340-2_1_" transform="translate(724.062 195.466)">
				<circle id="Ellipse_74-2_1_" class="st9" cx="-516.2996216" cy="-354.8814392" r="1.6624995"/>
				<circle id="Ellipse_75-2_1_" class="st9" cx="-502.4238892" cy="-354.6246033" r="1.6624995"/>
				<circle id="Ellipse_76-2_1_" class="st9" cx="-488.5481873" cy="-354.6246033" r="1.6624995"/>
				<circle id="Ellipse_77-2_1_" class="st9" cx="-474.6724548" cy="-354.6246033" r="1.6624995"/>
				<circle id="Ellipse_78-2_1_" class="st9" cx="-460.7967529" cy="-354.6246033" r="1.6624995"/>
				<circle id="Ellipse_79-2_1_" class="st9" cx="-446.920166" cy="-354.6246033" r="1.6624995"/>
				<circle id="Ellipse_80-2_1_" class="st9" cx="-433.0444641" cy="-354.6246033" r="1.6624995"/>
				<circle id="Ellipse_81-2_1_" class="st9" cx="-419.1687317" cy="-354.6246033" r="1.6624995"/>
				<circle id="Ellipse_82-2_1_" class="st9" cx="-405.2930298" cy="-354.6246033" r="1.6624995"/>
				<circle id="Ellipse_83-2_1_" class="st9" cx="-391.4173279" cy="-354.6246033" r="1.6624995"/>
				<circle id="Ellipse_84-2_1_" class="st9" cx="-377.541626" cy="-354.6246033" r="1.6624995"/>
			</g>
			<g id="Group_1341-2_1_" transform="translate(708.391 195.466)">
				<circle id="Ellipse_85-2_1_" class="st9" cx="-500.6285706" cy="-341.190918" r="1.6624995"/>
				<circle id="Ellipse_86-2_1_" class="st9" cx="-486.7528687" cy="-340.934082" r="1.6624995"/>
				<circle id="Ellipse_87-2_1_" class="st9" cx="-472.8771667" cy="-340.934082" r="1.6624995"/>
				<circle id="Ellipse_88-2_1_" class="st9" cx="-459.0014343" cy="-340.934082" r="1.6624995"/>
				<circle id="Ellipse_89-2_1_" class="st9" cx="-445.1257324" cy="-340.934082" r="1.6624995"/>
				<circle id="Ellipse_90-2_1_" class="st9" cx="-431.2491455" cy="-340.934082" r="1.6624995"/>
				<circle id="Ellipse_91-2_1_" class="st9" cx="-417.3734436" cy="-340.934082" r="1.6624995"/>
				<circle id="Ellipse_92-2_1_" class="st9" cx="-403.4977112" cy="-340.934082" r="1.6624995"/>
				<circle id="Ellipse_93-2_1_" class="st9" cx="-389.6220093" cy="-340.934082" r="1.6624995"/>
				<circle id="Ellipse_94-2_1_" class="st9" cx="-375.7463074" cy="-340.934082" r="1.6624995"/>
				<circle id="Ellipse_95-2_1_" class="st9" cx="-361.870575" cy="-340.934082" r="1.6624995"/>
			</g>
		</g>
	</g>
	<g>
		<g id="Group_1343" transform="translate(-697.391 -195.466)">
			<g id="Group_1339" transform="translate(137 162.997)">
				<circle id="Ellipse_63" class="st9" cx="748.7589111" cy="435.6104736" r="1.7180001"/>
				<circle id="Ellipse_64" class="st9" cx="748.4938965" cy="449.9534607" r="1.7180001"/>
				<circle id="Ellipse_65" class="st9" cx="748.4938965" cy="464.2954712" r="1.7180001"/>
				<circle id="Ellipse_66" class="st9" cx="748.4938965" cy="478.6374512" r="1.7180001"/>
				<circle id="Ellipse_67" class="st9" cx="748.4938965" cy="492.9794617" r="1.7180001"/>
				<circle id="Ellipse_68" class="st9" cx="748.4938965" cy="507.3214722" r="1.7180001"/>
				<circle id="Ellipse_69" class="st9" cx="748.4938965" cy="521.6644897" r="1.7180001"/>
				<circle id="Ellipse_70" class="st9" cx="748.4938965" cy="536.0064697" r="1.7180001"/>
				<circle id="Ellipse_71" class="st9" cx="748.4938965" cy="550.3484497" r="1.7180001"/>
				<circle id="Ellipse_72" class="st9" cx="748.4938965" cy="564.6904297" r="1.7180001"/>
				<circle id="Ellipse_73" class="st9" cx="748.4938965" cy="579.0324707" r="1.7180001"/>
			</g>
			<g id="Group_1340" transform="translate(137 162.997)">
				<circle id="Ellipse_74" class="st9" cx="730.7589111" cy="435.6104736" r="1.7180001"/>
				<circle id="Ellipse_75" class="st9" cx="730.4938965" cy="449.9534607" r="1.7180001"/>
				<circle id="Ellipse_76" class="st9" cx="730.4938965" cy="464.2954712" r="1.7180001"/>
				<circle id="Ellipse_77" class="st9" cx="730.4938965" cy="478.6374512" r="1.7180001"/>
				<circle id="Ellipse_78" class="st9" cx="730.4938965" cy="492.9794617" r="1.7180001"/>
				<circle id="Ellipse_79" class="st9" cx="730.4938965" cy="507.3214722" r="1.7180001"/>
				<circle id="Ellipse_80" class="st9" cx="730.4938965" cy="521.6644897" r="1.7180001"/>
				<circle id="Ellipse_81" class="st9" cx="730.4938965" cy="536.0064697" r="1.7180001"/>
				<circle id="Ellipse_82" class="st9" cx="730.4938965" cy="550.3484497" r="1.7180001"/>
				<circle id="Ellipse_83" class="st9" cx="730.4938965" cy="564.6904297" r="1.7180001"/>
				<circle id="Ellipse_84" class="st9" cx="730.4938965" cy="579.0324707" r="1.7180001"/>
			</g>
			<g id="Group_1341" transform="translate(137 162.997)">
				<circle id="Ellipse_85" class="st9" cx="712.7589111" cy="435.6104736" r="1.7180001"/>
				<circle id="Ellipse_86" class="st9" cx="712.4938965" cy="449.9534607" r="1.7180001"/>
				<circle id="Ellipse_87" class="st9" cx="712.4938965" cy="464.2954712" r="1.7180001"/>
				<circle id="Ellipse_88" class="st9" cx="712.4938965" cy="478.6374512" r="1.7180001"/>
				<circle id="Ellipse_89" class="st9" cx="712.4938965" cy="492.9794617" r="1.7180001"/>
				<circle id="Ellipse_90" class="st9" cx="712.4938965" cy="507.3214722" r="1.7180001"/>
				<circle id="Ellipse_91" class="st9" cx="712.4938965" cy="521.6644897" r="1.7180001"/>
				<circle id="Ellipse_92" class="st9" cx="712.4938965" cy="536.0064697" r="1.7180001"/>
				<circle id="Ellipse_93" class="st9" cx="712.4938965" cy="550.3484497" r="1.7180001"/>
				<circle id="Ellipse_94" class="st9" cx="712.4938965" cy="564.6904297" r="1.7180001"/>
				<circle id="Ellipse_95" class="st9" cx="712.4938965" cy="579.0324707" r="1.7180001"/>
			</g>
		</g>
		<g id="Group_1343_2_" transform="translate(-697.391 -195.466)">
			<g id="Group_1339_2_" transform="translate(137 162.997)">
				<circle id="Ellipse_63_2_" class="st9" cx="749.0239258" cy="278.6390686" r="1.7180001"/>
				<circle id="Ellipse_64_2_" class="st9" cx="748.7589111" cy="292.9820557" r="1.7180001"/>
				<circle id="Ellipse_65_2_" class="st9" cx="748.7589111" cy="307.3240662" r="1.7180001"/>
				<circle id="Ellipse_66_2_" class="st9" cx="748.7589111" cy="321.6660767" r="1.7180001"/>
				<circle id="Ellipse_67_2_" class="st9" cx="748.7589111" cy="336.0080566" r="1.7180001"/>
				<circle id="Ellipse_68_2_" class="st9" cx="748.7589111" cy="350.3500671" r="1.7180001"/>
				<circle id="Ellipse_69_2_" class="st9" cx="748.7589111" cy="364.6930542" r="1.7180001"/>
				<circle id="Ellipse_70_2_" class="st9" cx="748.7589111" cy="379.0350647" r="1.7180001"/>
				<circle id="Ellipse_71_2_" class="st9" cx="748.7589111" cy="393.3770752" r="1.7180001"/>
				<circle id="Ellipse_72_2_" class="st9" cx="748.7589111" cy="407.7190552" r="1.7180001"/>
				<circle id="Ellipse_73_2_" class="st9" cx="748.7589111" cy="422.0610657" r="1.7180001"/>
			</g>
			<g id="Group_1340_2_" transform="translate(137 162.997)">
				<circle id="Ellipse_74_2_" class="st9" cx="731.0239258" cy="278.6390686" r="1.7180001"/>
				<circle id="Ellipse_75_2_" class="st9" cx="730.7589111" cy="292.9820557" r="1.7180001"/>
				<circle id="Ellipse_76_2_" class="st9" cx="730.7589111" cy="307.3240662" r="1.7180001"/>
				<circle id="Ellipse_77_2_" class="st9" cx="730.7589111" cy="321.6660767" r="1.7180001"/>
				<circle id="Ellipse_78_2_" class="st9" cx="730.7589111" cy="336.0080566" r="1.7180001"/>
				<circle id="Ellipse_79_2_" class="st9" cx="730.7589111" cy="350.3500671" r="1.7180001"/>
				<circle id="Ellipse_80_2_" class="st9" cx="730.7589111" cy="364.6930542" r="1.7180001"/>
				<circle id="Ellipse_81_2_" class="st9" cx="730.7589111" cy="379.0350647" r="1.7180001"/>
				<circle id="Ellipse_82_2_" class="st9" cx="730.7589111" cy="393.3770752" r="1.7180001"/>
				<circle id="Ellipse_83_2_" class="st9" cx="730.7589111" cy="407.7190552" r="1.7180001"/>
				<circle id="Ellipse_84_2_" class="st9" cx="730.7589111" cy="422.0610657" r="1.7180001"/>
			</g>
			<g id="Group_1341_2_" transform="translate(137 162.997)">
				<circle id="Ellipse_85_2_" class="st9" cx="713.0239258" cy="278.6390686" r="1.7180001"/>
				<circle id="Ellipse_86_2_" class="st9" cx="712.7589111" cy="292.9820557" r="1.7180001"/>
				<circle id="Ellipse_87_2_" class="st9" cx="712.7589111" cy="307.3240662" r="1.7180001"/>
				<circle id="Ellipse_88_2_" class="st9" cx="712.7589111" cy="321.6660767" r="1.7180001"/>
				<circle id="Ellipse_89_2_" class="st9" cx="712.7589111" cy="336.0080566" r="1.7180001"/>
				<circle id="Ellipse_90_2_" class="st9" cx="712.7589111" cy="350.3500671" r="1.7180001"/>
				<circle id="Ellipse_91_2_" class="st9" cx="712.7589111" cy="364.6930542" r="1.7180001"/>
				<circle id="Ellipse_92_2_" class="st9" cx="712.7589111" cy="379.0350647" r="1.7180001"/>
				<circle id="Ellipse_93_2_" class="st9" cx="712.7589111" cy="393.3770752" r="1.7180001"/>
				<circle id="Ellipse_94_2_" class="st9" cx="712.7589111" cy="407.7190552" r="1.7180001"/>
				<circle id="Ellipse_95_2_" class="st9" cx="712.7589111" cy="422.0610657" r="1.7180001"/>
			</g>
		</g>
	</g>
	<g id="Group_1291" transform="translate(69.591 440.647)" class="st10">
		<g id="Group_1290" transform="translate(10.597 2.904)">
			<path class="st11" d="M-88.3728333-307.8052063H39.6663361c-3.0189705,2.7478027-6.2094002,5.2957458-9.5493317,7.622406
				H-78.8590469C-82.2062912-302.5237427-85.382431-305.0716858-88.3728333-307.8052063z"/>
			<g id="Group_1289">
				<path class="st11" d="M-60.9023857-290.3264465h73.1125641c-17.9712944,7.5010376-38.4119949,9.5708008-58.8025093,4.6604919
					C-51.5597115-286.8578491-56.3343735-288.428009-60.9023857-290.3264465z"/>
				<path class="st11" d="M-103.3892746-325.283905h158.107605c-1.7556915,2.6478577-3.6539192,5.1886597-5.659481,7.622406
					H-97.7294464C-99.7492981-320.1095276-101.6335831-322.6503296-103.3892746-325.283905z"/>
				<path class="st11" d="M-112.603363-342.7626038H63.9111519c-1.0350151,2.6121521-2.1839867,5.1529846-3.4329758,7.6223755
					h-169.6269531C-110.412056-337.6239014-111.5610275-340.1718445-112.603363-342.7626038z"/>
				<path class="st11" d="M-117.7348785-360.241333H69.0140991c-0.2784424,1.4702454-0.5924377,2.9404907-0.9492874,4.4107361
					c-0.2568436,1.0776978-0.5352859,2.1482544-0.8349838,3.2116699h-183.1731262
					C-116.6427078-355.124054-117.2424622-357.664856-117.7348785-360.241333z"/>
				<path class="st11" d="M-119.419136-377.7200317H70.7269287c-0.0142899,2.5265198-0.1285934,5.0744629-0.3495407,7.622406
					h-189.4609222C-119.2978592-372.6170349-119.4118118-375.164978-119.419136-377.7200317z"/>
				<path class="st11" d="M-118.9336853-387.5763245c0.2568359-2.5336914,0.6206589-5.0744934,1.0918198-7.622406H69.1709137
					c0.4641953,2.5122375,0.8280182,5.0530396,1.0778809,7.622406H-118.9336853z"/>
				<path class="st11" d="M-115.4794464-405.0550232c0.7565689-2.5979309,1.6270981-5.1387329,2.5979919-7.622467H64.1965637
					c0.9778671,2.4979858,1.8483963,5.0387878,2.6122894,7.622467H-115.4794464z"/>
				<path class="st11" d="M-108.3779144-422.533783c1.3772354-2.6264343,2.8834076-5.1672363,4.4892502-7.622406H55.1682281
					c1.6201324,2.4694519,3.1186409,5.017395,4.4962234,7.622406H-108.3779144z"/>
				<path class="st11" d="M-96.459198-440.0124817c2.2982941-2.6835632,4.7460861-5.2243652,7.3228226-7.622406H40.4588013
					c2.5833588,2.4123535,5.0241852,4.953125,7.3008728,7.622406H-96.459198z"/>
				<path class="st11" d="M-76.5680695-457.4911804c4.4463882-2.9262085,9.1353226-5.4741516,14.0173264-7.622406h76.4378586
					c4.9388056,2.1625061,9.6280909,4.7175903,14.0385828,7.622406H-76.5680695z"/>
			</g>
		</g>
	</g>
</g>
<g id="Layer_3" class="st12">
	<g class="st13">
		<path class="st14" d="M790.006897,218.9731903h-42.5657959c-3.1502686,0-5.7128296,2.562561-5.7128296,5.7128296v20.8643188
			h-10.5955811c-1.0240479,0-1.8568726-0.8328705-1.8568726-1.8568878v-16.9089661
			c4.0591431-0.7630463,7.1322632-4.3209076,7.1322632-8.6017456c0-4.8371735-3.9212646-8.7584686-8.758606-8.7584686
			c-4.8370972,0-8.7584229,3.9212952-8.7584229,8.7584686c0,4.0652161,2.7736206,7.4735565,6.5288086,8.4610901v17.0496216
			c0,3.1502533,2.562561,5.7128143,5.7128296,5.7128143h10.5955811v17.8448334c0,3.150238,2.562561,5.7127991,5.7128296,5.7127991
			h42.5657959c3.1495361,0,5.7120972-2.562561,5.7120972-5.7127991v-42.5650787
			C795.7189941,221.5357513,793.1564331,218.9731903,790.006897,218.9731903z M791.8630981,267.2510986
			c0,1.0240173-0.8328857,1.8568726-1.8562012,1.8568726h-42.5657959c-1.0239868,0-1.8568726-0.8328552-1.8568726-1.8568726
			v-42.5650787c0-1.0240326,0.8328857-1.8569031,1.8568726-1.8569031h42.5657959
			c1.0233154,0,1.8562012,0.8328705,1.8562012,1.8569031V267.2510986z"/>
		<path class="st14" d="M779.092041,253.6946869c-0.5281982-0.4996185-1.3486328-0.4578705-1.8556519,0.0632019
			c-0.7502441,0.7711792-1.5593262,1.394455-2.4279175,1.8699188c-1.2151489,0.6659241-2.6474609,0.9981689-4.296875,0.9981689
			c-1.3602905,0-2.6257935-0.2312622-3.7976074-0.694458c-1.171875-0.4624023-2.1919556-1.1283569-3.0599976-1.9964905
			c-0.868103-0.868042-1.5481567-1.9022522-2.039917-3.1033173c-0.4923096-1.2003174-0.737793-2.5389709-0.737793-4.0147858
			c0-1.4756927,0.2454834-2.8136902,0.737793-4.0147552c0.4917603-1.2003479,1.171814-2.2351837,2.039917-3.1032257
			c0.868042-0.8681335,1.8881226-1.5334625,3.0599976-1.996582c1.171814-0.4625244,2.4373169-0.6944275,3.7976074-0.6944275
			c1.562561,0,2.9081421,0.311264,4.036438,0.9332123c0.7523804,0.4150085,1.4338989,0.8972168,2.0448608,1.4468994
			c0.5102539,0.4592438,1.2791748,0.4706573,1.7712402-0.0079956l2.8722534-2.7930756
			c0.5327759-0.5180511,0.5308228-1.3834839-0.0134888-1.8894501c-1.2734985-1.18396-2.6517334-2.1210327-4.1357422-2.8111115
			c-1.866333-0.868042-4.0730591-1.3021088-6.6188965-1.3021088c-2.3152466,0-4.470459,0.4198151-6.4671631,1.2586365
			c-1.996521,0.8395691-3.725708,1.9897766-5.1865845,3.4505463c-1.4614258,1.4614716-2.6115723,3.1758728-3.4505005,5.1432343
			c-0.8394165,1.9681091-1.2585449,4.0947876-1.2585449,6.3802032c0,2.2861176,0.4191284,4.4128723,1.2585449,6.3802338
			c0.8389282,1.9680634,1.9890747,3.6825104,3.4505005,5.1432953c1.4608765,1.4614563,3.1900635,2.6116638,5.1865845,3.4505005
			c1.9967041,0.8388672,4.1519165,1.258667,6.4671631,1.258667c4.6639404,0,8.5237427-1.5837097,11.5802002-4.7512512
			c0.5020752-0.5202942,0.4765015-1.3563843-0.0488281-1.8532715L779.092041,253.6946869z"/>
		<path class="st14" d="M825.180603,233.5793304h-4.0289307c-0.6564331,0-1.1887207,0.5322266-1.1887207,1.1887665v8.9570618
			c0,0.6564941-0.5322876,1.1887207-1.1887207,1.1887207h-8.8748169c-0.6564331,0-1.1887207-0.5322266-1.1887207-1.1887207
			v-8.9570618c0-0.6565399-0.5321045-1.1887665-1.1887207-1.1887665h-4.0289307
			c-0.6564941,0-1.1887207,0.5322266-1.1887207,1.1887665v27.0260925c0,0.6565247,0.5322266,1.1887512,1.1887207,1.1887512
			h4.0289307c0.6566162,0,1.1887207-0.5322266,1.1887207-1.1887512v-9.6139069c0-0.6565399,0.5322876-1.1887665,1.1887207-1.1887665
			h8.8748169c0.6564331,0,1.1887207,0.5322266,1.1887207,1.1887665v9.6139069c0,0.6565247,0.5322876,1.1887512,1.1887207,1.1887512
			h4.0289307c0.6564941,0,1.1887207-0.5322266,1.1887207-1.1887512v-27.0260925
			C826.3693237,234.111557,825.8370972,233.5793304,825.180603,233.5793304z"/>
		<path class="st14" d="M862.8579102,237.3779144c-1.3828735-1.3819275-3.0184326-2.4704437-4.9076538-3.2645721
			c-1.888855-0.7938385-3.9422607-1.1912079-6.15979-1.1912079c-2.2178955,0-4.2713013,0.3973694-6.1601562,1.1912079
			c-1.8892212,0.7941284-3.5251465,1.8826447-4.9073486,3.2645721c-1.3828735,1.3829498-2.4641113,3.0051117-3.2443848,4.8665009
			c-0.7802734,1.8620911-1.1704102,3.8742981-1.1704102,6.0367279c0,2.1631317,0.3901367,4.1753998,1.1704102,6.0367737
			c0.7802734,1.8620453,1.8615112,3.4842072,3.2443848,4.8665009c1.3822021,1.3825989,3.0181274,2.4710999,4.9073486,3.2648926
			c1.888855,0.793457,3.9422607,1.1908875,6.1601562,1.1908875c2.2175293,0,4.2709351-0.3974304,6.15979-1.1908875
			c1.8892212-0.7937927,3.5247803-1.8822937,4.9076538-3.2648926c1.3822021-1.3822937,2.4638062-3.0044556,3.2440796-4.8665009
			c0.7802734-1.8613739,1.1704102-3.873642,1.1704102-6.0367737c0-2.1624298-0.3901367-4.1746368-1.1704102-6.0367279
			C865.3217163,240.3830261,864.2401123,238.7608643,862.8579102,237.3779144z M860.1681519,252.0797272
			c-0.4661865,1.1363525-1.1089478,2.1148987-1.9304199,2.936264c-0.821167,0.8214111-1.7865601,1.4514465-2.8951416,1.8893738
			c-1.1089478,0.4379272-2.2932129,0.6568909-3.552124,0.6568909c-1.2873535,0-2.4783325-0.2189636-3.5731201-0.6568909
			c-1.0950928-0.4379272-2.0533447-1.0679626-2.8745117-1.8893738c-0.8214722-0.8213654-1.4649658-1.7999115-1.9301147-2.936264
			c-0.4658203-1.1356964-0.6981812-2.402359-0.6981812-3.798584s0.2323608-2.6621399,0.6981812-3.7985382
			c0.4651489-1.1356812,1.1086426-2.1149445,1.9301147-2.9363098c0.821167-0.8214111,1.7794189-1.4506836,2.8745117-1.8889618
			c1.0947876-0.4375763,2.2857666-0.6572571,3.5731201-0.6572571c1.2589111,0,2.4431763,0.2196808,3.552124,0.6572571
			c1.1085815,0.4382782,2.0739746,1.0675507,2.8951416,1.8889618c0.8214722,0.8213654,1.4642334,1.8006287,1.9304199,2.9363098
			c0.4651489,1.1363983,0.697876,2.4023132,0.697876,3.7985382S860.6333008,250.9440308,860.1681519,252.0797272z"/>
		<path class="st14" d="M890.3102417,251.2380676c0.8214722-0.3554993,1.5875244-0.8008118,2.2999878-1.3347626
			c0.7113037-0.5339508,1.3345337-1.1499939,1.8682251-1.8480988c0.5340576-0.6981201,0.9579468-1.4577026,1.2731323-2.279068
			c0.3144531-0.8213959,0.472229-1.710495,0.472229-2.6695099c0-1.3685913-0.225647-2.634552-0.6776123-3.7985229
			c-0.4515991-1.1632843-1.1089478-2.1694031-1.9709473-3.0184021c-0.8627319-0.8482666-1.9237061-1.5124969-3.1829834-1.9916534
			c-1.2595825-0.4787903-2.6833496-0.7187195-4.270874-0.7187195h-9.899231c-0.65625,0-1.1885376,0.5322266-1.1885376,1.1887665
			v27.0260925c0,0.6565247,0.5322876,1.1887512,1.1885376,1.1887512h4.0289917c0.65625,0,1.1885376-0.5322266,1.1885376-1.1887512
			v-8.2177277c0-0.6564941,0.5322876-1.1887207,1.1889038-1.1887207c0.3872681,0,0.7504272,0.1888123,0.9732056,0.506012
			l6.7229614,9.5831757c0.2224731,0.3171692,0.5855713,0.506012,0.9732666,0.506012h6.6917114v-0.4107056l-7.6795044-10.9646912
			V251.2380676z M888.8317261,245.4681244c-0.6569824,0.6712036-1.5601807,1.006134-2.7103271,1.006134h-3.4927979
			c-0.6566162,0-1.1889038-0.5322266-1.1889038-1.1887665v-4.6039124c0-0.6565399,0.5322876-1.1887665,1.1889038-1.1887665
			h3.4927979c1.2322388,0,2.1560669,0.3356018,2.7721558,1.006134c0.6157837,0.6712494,0.9238281,1.4989166,0.9238281,2.4847412
			C889.8173828,243.969223,889.4890747,244.7975922,888.8317261,245.4681244z"/>
		<path class="st14" d="M922.836853,233.5793304h-17.0059204c-0.6566772,0-1.1889038,0.5322266-1.1889038,1.1887665v27.0260925
			c0,0.6565247,0.5322266,1.1887512,1.1889038,1.1887512h17.0059204c0.6566162,0,1.1885376-0.5322266,1.1885376-1.1887512
			v-3.7001038c0-0.6564941-0.5319214-1.1887207-1.1885376-1.1887207h-10.5995483
			c-0.6566162,0-1.1889038-0.5322266-1.1889038-1.1887665v-3.2076874c0-0.6565399,0.5322876-1.1887665,1.1889038-1.1887665
			h9.2852173c0.6566162,0,1.1889038-0.5322266,1.1889038-1.1887665v-3.70047c0-0.6564941-0.5322876-1.1887207-1.1889038-1.1887207
			h-9.2852173c-0.6566162,0-1.1889038-0.5322266-1.1889038-1.1887665v-3.2073212
			c0-0.6565399,0.5322876-1.1887665,1.1889038-1.1887665h10.5995483c0.6566162,0,1.1885376-0.5322266,1.1885376-1.1887665v-3.70047
			C924.0253906,234.111557,923.4934692,233.5793304,922.836853,233.5793304z"/>
		<path class="st14" d="M959.9385376,242.2444153c-0.7802734-1.8613892-1.8622437-3.483551-3.2444458-4.8665009
			c-1.3825684-1.3819275-3.0180664-2.4704437-4.9072876-3.2645721c-1.8892212-0.7938385-3.9422607-1.1912079-6.1598511-1.1912079
			c-2.2175293,0-4.2712402,0.3973694-6.1601562,1.1912079c-1.8892212,0.7941284-3.5254517,1.8826447-4.9076538,3.2645721
			c-1.3825073,1.3829498-2.4637451,3.0051117-3.2440796,4.8665009c-0.7802734,1.8620911-1.1704102,3.8742981-1.1704102,6.0367279
			c0,2.1631317,0.3901367,4.1753998,1.1704102,6.0367737c0.7803345,1.8620453,1.8615723,3.4842072,3.2440796,4.8665009
			c1.3822021,1.3825989,3.0184326,2.4710999,4.9076538,3.2648926c1.888916,0.793457,3.942627,1.1908875,6.1601562,1.1908875
			c2.2175903,0,4.2706299-0.3974304,6.1598511-1.1908875c1.8892212-0.7937927,3.5247192-1.8822937,4.9072876-3.2648926
			c1.3822021-1.3822937,2.4641724-3.0044556,3.2444458-4.8665009c0.7802734-1.8613739,1.1704102-3.873642,1.1704102-6.0367737
			C961.1089478,246.1187134,960.718811,244.1065063,959.9385376,242.2444153z M954.0043335,252.0797272
			c-0.4658203,1.1363525-1.1085815,2.1148987-1.9301147,2.936264c-0.8214722,0.8214111-1.786499,1.4514465-2.8951416,1.8893738
			c-1.1089478,0.4379272-2.2932129,0.6568909-3.552124,0.6568909c-1.2872925,0-2.4783325-0.2189636-3.5730591-0.6568909
			c-1.0950928-0.4379272-2.0534058-1.0679626-2.8745117-1.8893738c-0.8215332-0.8213654-1.4650269-1.7999115-1.9301147-2.936264
			c-0.4658203-1.1356964-0.6981812-2.402359-0.6981812-3.798584s0.2323608-2.6621399,0.6981812-3.7985382
			c0.4650879-1.1356812,1.1085815-2.1149445,1.9301147-2.9363098c0.821106-0.8214111,1.7794189-1.4506836,2.8745117-1.8889618
			c1.0947266-0.4375763,2.2857666-0.6572571,3.5730591-0.6572571c1.2589111,0,2.4431763,0.2196808,3.552124,0.6572571
			c1.1086426,0.4382782,2.0736694,1.0675507,2.8951416,1.8889618c0.8215332,0.8213654,1.4642944,1.8006287,1.9301147,2.9363098
			c0.4654541,1.1363983,0.6981812,2.4023132,0.6981812,3.7985382S954.4697876,250.9440308,954.0043335,252.0797272z"/>
	</g>
	<g class="st13">
		<text transform="matrix(1 0 0 1 450.4086914 373.9867249)" class="st15 st16 st17 st18">Design, Develop, Deploy &amp; Observe </text>
	</g>
	<text transform="matrix(1 0 0 1 626.8129883 432.1107483)" class="st19 st16 st17 st18">your Ballerina apps</text>
	<path id="Rectangle_504" class="st20" d="M779.032959,577.3201904h121.934082
		c17.8258667,0,32.2766724,11.9449463,32.2766724,26.6798096l0,0c0,14.7348633-14.4508057,26.6798096-32.2766724,26.6798096
		H779.032959c-17.8258667,0-32.2766724-11.9449463-32.2766724-26.6798096l0,0
		C746.7562866,589.2651367,761.2070923,577.3201904,779.032959,577.3201904z"/>
	<rect x="500.7833862" y="503.9360657" class="st21" width="678.4332275" height="50.6697006"/>
	<text transform="matrix(1 0 0 1 517.9971924 519.6498413)" class="st22 st23 st24">Intelligent iPaas that does not make you choose code over low code</text>
	<g id="Menu" transform="translate(696.259 346.15)" class="st13">
		<text transform="matrix(1 0 0 1 89.2622681 262.5295105)" class="st14 st25 st26">Get Started</text>
	</g>
</g>
<g id="Layer_2">
	<rect x="-145.6529999" y="-238.1842804" class="st27" width="1870.296875" height="238.1842804"/>
	<rect x="-394.957489" y="974.9143677" class="st27" width="2443.7583008" height="995.3215942"/>
	
		<rect x="-1291.1014404" y="225.1572266" transform="matrix(6.123234e-17 -1 1 6.123234e-17 -937.0631714 225.1572266)" class="st27" width="1870.296875" height="711.9059448"/>
	
		<rect x="991.9047241" y="320.0671997" transform="matrix(6.123234e-17 -1 1 6.123234e-17 1360.8345947 2493.2714844)" class="st27" width="1870.296875" height="492.3025818"/>
</g>
</svg>
