<?xml version="1.0" encoding="UTF-8"?>
<svg width="20px" height="20px" viewBox="0 0 20 20" version="1.1" xmlns="http://www.w3.org/2000/svg" xmlns:xlink="http://www.w3.org/1999/xlink">
    <title>EE817E01-7E38-4379-BC59-962720BD70A5</title>
    <g id="Adding" stroke="none" stroke-width="1" fill="none" fill-rule="evenodd">
        <g id="develop-new-adding-API" transform="translate(-338.000000, -466.000000)" stroke-width="2">
            <g id="Dropdown/Select/Default-Copy-4" transform="translate(164.000000, 456.000000)">
                <g id="Logo/Circle" transform="translate(174.000000, 10.000000)">
                    <path d="M18,10 L18,13 C18,13 13,18 13,18 L4,18 C2.8954305,18 2,17.1045695 2,16 L2,4 C2,2.8954305 2.8954305,2 4,2 L10,2" id="Path" stroke="#CCD1F2" stroke-linecap="round"></path>
                    <path d="M16,2 L10,8 L10,8 L10,10 L12,10 L18,4 C18.5522847,3.44771525 18.5522847,2.55228475 18,2 C17.4477153,1.44771525 16.5522847,1.44771525 16,2 Z" id="Path-24" stroke="#5567D5"></path>
                </g>
            </g>
        </g>
    </g>
</svg>