<?xml version="1.0" encoding="UTF-8"?>
<svg xmlns="http://www.w3.org/2000/svg" width="32" height="23.59" viewBox="0 0 32 23.59">
  <g id="Page-1" transform="translate(0 -15)">
    <g id="short-beta">
      <g id="Logo_Sign" data-name="Logo/Sign" transform="translate(0 15)">
        <g id="Combined-Shape">
          <path id="path-1" d="M26.889,0A5.111,5.111,0,0,1,32,5.111h0V18.479a5.111,5.111,0,0,1-5.111,5.111H13.521A5.111,5.111,0,0,1,8.41,18.479h0v-5.09H5.4A3.788,3.788,0,0,1,1.576,9.821l0-.167V5.239a2.752,2.752,0,1,1,2.361,0V9.632A1.417,1.417,0,0,0,5.281,11l.122,0H8.41v-5.9A5.111,5.111,0,0,1,13.305,0l.216,0Zm0,2.359H13.521a2.752,2.752,0,0,0-2.752,2.752h0V18.479a2.752,2.752,0,0,0,2.752,2.752H26.889a2.752,2.752,0,0,0,2.752-2.752h0V5.111a2.752,2.752,0,0,0-2.752-2.752ZM20.467,6.291A5.833,5.833,0,0,1,23.944,7.3a4.233,4.233,0,0,1,1.765,2.3.975.975,0,0,1-.719,1.187,1.139,1.139,0,0,1-1.41-.608,2.582,2.582,0,0,0-1.091-1.351,3.537,3.537,0,0,0-5.552,2.945,3.51,3.51,0,0,0,.995,2.5,3.366,3.366,0,0,0,2.557,1.046,3.591,3.591,0,0,0,1.99-.548,2.451,2.451,0,0,0,1.091-1.32,1.143,1.143,0,0,1,1.292-.57A1.089,1.089,0,0,1,25.7,14a4.25,4.25,0,0,1-1.744,2.265A5.791,5.791,0,0,1,20.489,17.3a5.746,5.746,0,0,1-4.14-1.584,5.219,5.219,0,0,1-1.648-3.93,5.211,5.211,0,0,1,1.637-3.92A5.738,5.738,0,0,1,20.467,6.291Z" fill="#222228"/>
        </g>
      </g>
    </g>
  </g>
</svg>
