<svg xmlns="http://www.w3.org/2000/svg" width="14.486" height="20" viewBox="0 0 14.486 20">
  <g id="Group_178" data-name="Group 178" transform="translate(-876.781 -466)">
    <path id="Path" d="M891.266,471.478v13.234A1.289,1.289,0,0,1,889.981,486H878.069a1.288,1.288,0,0,1-1.288-1.288h0V467.288A1.288,1.288,0,0,1,878.069,466h7.719Z" fill="#28b446"/>
    <path id="Path-2" d="M920.354,487.615l4.811,1.982v-1.861l-2.728-.805Z" transform="translate(-33.898 -16.257)" fill="#219b38"/>
    <path id="Path-3" d="M922.583,471.57h-4.26a1.31,1.31,0,0,1-1.31-1.31h0V466Z" transform="translate(-31.317)" fill="#6ace7c"/>
    <path id="Path_1" data-name="Path 1" d="M893.556,516.929a.419.419,0,0,1-.418-.419V510.9a.419.419,0,0,1,.418-.418H900a.418.418,0,0,1,.418.418v5.608a.418.418,0,0,1-.417.419h-6.445Zm2.806-5.606h-2.413v1.017h2.413Zm3.244,0h-2.413v1.017h2.413Zm-3.244,1.872h-2.413v1.017h2.413Zm3.244,0h-2.413v1.017h2.413Zm-3.244,1.872h-2.413v1.017h2.413Zm3.244,0h-2.413v1.017h2.413Z" transform="translate(-12.755 -34.604)" fill="#fff"/>
  </g>
</svg>
