<?xml version="1.0" encoding="UTF-8"?>
<svg width="19px" height="10px" viewBox="0 0 19 10" version="1.1" xmlns="http://www.w3.org/2000/svg" xmlns:xlink="http://www.w3.org/1999/xlink">
<title>447EAEFB-A545-4FBD-9169-D66FC45FD214</title>
<g id="Observe" stroke="none" stroke-width="1" fill="none" fill-rule="evenodd">
    <g id="Observe-Logs-View" transform="translate(-92.000000, -143.000000)">
        <g id="Icon/Control/Burger" transform="translate(92.000000, 143.000000)">
            <path d="M4.52494771,0.194802386 C4.78506812,-0.0645333533 5.20595203,-0.0646078792 5.46616427,0.194635725 L5.46616427,0.194635725 C5.73278559,0.462024143 5.73214796,0.884133648 5.47140546,1.1440896 L5.47140546,1.1440896 L1.60273567,5.00074821 L5.47140546,8.8559104 L5.47140546,8.8559104 C5.73285989,9.11833635 5.73207278,9.5404456 5.47123823,9.8003092 L5.47123823,9.8003092 C5.20595203,10.0646079 4.78506812,10.0645334 4.52494771,9.80519761 L4.52494771,9.80519761 L0.195783596,5.48909278 C0.0604394343,5.35324831 -0.00426174337,5.17626999 2.55312343e-05,5.00007991 C-0.00446427941,4.8234885 0.0608110044,4.64547265 0.195783596,4.51090721 L0.195783596,4.51090721 Z M13.48295,0.194802386 L17.8121142,4.51090721 C17.9470867,4.64547265 18.012362,4.8234885 18.0078722,5.00007991 C18.0121595,5.17626999 17.9474583,5.35324831 17.813705,5.48750138 L17.8121142,5.48909278 L13.48295,9.80519761 C13.2228296,10.0645334 12.8019457,10.0646079 12.5417335,9.80536427 L12.5366595,9.8003092 C12.275825,9.5404456 12.2750379,9.11833635 12.5349015,8.8575018 C12.5354308,8.85697044 12.5359611,8.85643997 12.5364923,8.8559104 L16.4051621,5.00074821 L12.5364923,1.1440896 C12.2757498,0.884133648 12.2751122,0.462024143 12.5350681,0.201281637 L12.5417335,0.194635725 C12.8019457,-0.0646078792 13.2228296,-0.0645333533 13.48295,0.194802386 Z M7.74997667,2.5 L10.2499767,2.5 C10.6641902,2.5 10.9999767,2.83578644 10.9999767,3.25 C10.9999767,3.66421356 10.6641902,4 10.2499767,4 L7.74997667,4 C7.3357631,4 6.99997667,3.66421356 6.99997667,3.25 C6.99997667,2.83578644 7.3357631,2.5 7.74997667,2.5 Z M7.74997667,6.00008575 L10.2499767,6.00008575 C10.6641902,6.00008575 10.9999767,6.33587219 10.9999767,6.75008575 C10.9999767,7.16429931 10.6641902,7.50008575 10.2499767,7.50008575 L7.74997667,7.50008575 C7.3357631,7.50008575 6.99997667,7.16429931 6.99997667,6.75008575 C6.99997667,6.33587219 7.3357631,6.00008575 7.74997667,6.00008575 Z" id="path-1"></path>
            <use id="Combined-Shape" fill="#40404B" xlink:href="#path-1"></use>
        </g>
    </g>
</g>
</svg>

