<?xml version="1.0" encoding="UTF-8"?>

<!-- 
~    Copyright (c) 2021, WSO2 Inc. (http://www.wso2.com). All Rights Reserved.
~   
~    This software is the property of WSO2 Inc. and its suppliers, if any. 
~    Dissemination of any information or reproduction of any material contained 
~    herein in any form is strictly forbidden, unless permitted by WSO2 expressly. 
~    You may not alter or remove any copyright or other notice from copies of this content."
-->

<svg width="24px" height="24px" viewBox="0 0 24 24" version="1.1" xmlns="http://www.w3.org/2000/svg" xmlns:xlink="http://www.w3.org/1999/xlink">
    <title>DADB150C-D979-4E6F-9F13-3EA53D708E6E</title>
    <g id="Home" stroke="none" stroke-width="1" fill="none" fill-rule="evenodd">
        <g id="new-dashboard-+" transform="translate(-1062.000000, -280.000000)" fill="#5567D5">
            <path d="M1067.40536,293.568774 C1067.67095,294.068162 1067.48333,294.684671 1066.9863,294.945785 L1064.24488,296.395862 C1064.18461,296.427527 1064.13544,296.476701 1064.10377,296.536975 C1064.02917,296.678982 1064.06581,296.850669 1064.18264,296.952574 L1064.24758,296.997251 L1073.22786,301.773152 C1073.67088,302.008762 1074.19024,302.03705 1074.64857,301.857401 L1074.81732,301.780284 L1083.75509,297.084784 C1083.81537,297.053119 1083.86454,297.003945 1083.8962,296.943672 C1083.98324,296.777997 1083.91886,296.571924 1083.75649,296.485564 L1080.99794,295.029121 C1080.49855,294.763536 1080.3054,294.145318 1080.56651,293.648293 C1080.82762,293.151268 1081.44413,292.96365 1081.94352,293.229235 L1084.69797,294.68351 C1085.86321,295.303209 1086.31392,296.745716 1085.70465,297.905441 C1085.51994,298.257037 1085.25011,298.554676 1084.92114,298.772395 L1084.71686,298.893229 L1075.77908,303.588729 C1074.76054,304.123825 1073.55234,304.154381 1072.50428,303.681968 L1072.28228,303.573038 L1063.30201,298.797137 C1062.13677,298.177438 1061.68606,296.73493 1062.29533,295.575206 C1062.51698,295.15329 1062.8612,294.809073 1063.27934,294.589412 L1066.02453,293.13734 C1066.52156,292.876226 1067.13978,293.069385 1067.40536,293.568774 Z M1072.22092,280.411271 C1073.31221,279.837954 1074.62123,279.843828 1075.71772,280.426962 L1075.71772,280.426962 L1084.69799,285.202864 C1085.86323,285.822562 1086.31394,287.26507 1085.70467,288.424795 C1085.48302,288.84671 1085.1388,289.190927 1084.71688,289.412582 L1084.71688,289.412582 L1075.77911,294.108083 C1074.68781,294.6814 1073.37879,294.675526 1072.2823,294.092392 L1072.2823,294.092392 L1063.30203,289.316491 C1062.13679,288.696792 1061.68608,287.254284 1062.29535,286.09456 C1062.51701,285.672644 1062.86122,285.328427 1063.28314,285.106772 L1063.28314,285.106772 Z" id="Combined-Shape"></path>
        </g>
    </g>
</svg>
