<svg width="14px" height="16px" viewBox="-6 0 20 15" xmlns="http://www.w3.org/2000/svg">
 <title>CA56675C-4B14-4C01-B65E-D608F6232775</title>

 <g>
  <title>background</title>
  <rect fill="none" id="canvas_background" height="602" width="802" y="-1" x="-1"/>
 </g>
 <g>
  <title>Layer 1</title>
  <g fill-rule="evenodd" fill="none" id="Apps">
   <g fill-rule="nonzero" fill="#5567D5" id="apps-apps">
    <g id="Table/Row/Default">
     <g id="Button/Rounded/32-with-icon/Default-Copy">
      <g id="Icon/Clear">
       <path fill="#ffffff" id="Combined-Shape" d="m7,0.5c0.7797,0 1.42045,0.59489 1.49313,1.35557l0.00687,0.14447l0.00029,0.18921c1.05943,0.27291 2.01907,0.83123 2.78017,1.60618l0.16569,-0.09447c0.63304,-0.36548 1.42174,-0.2171 1.8831,0.31572l0.08776,0.11165l0.07818,0.12167c0.38985,0.67524 0.19504,1.52759 -0.42741,1.97089l-0.12168,0.07818l-0.16348,0.09527c0.14361,0.51822 0.21738,1.0571 0.21738,1.60566c0,0.54898 -0.07389,1.08805 -0.21749,1.60609l0.16364,0.09487c0.57849,0.33399 0.85522,1.0003 0.70573,1.64525l-0.0386,0.13775l-0.05193,0.13633l-0.06616,0.12971c-0.35785,0.61981 -1.09718,0.89321 -1.783,0.66712l-0.13632,-0.05192l-0.12971,-0.06616l-0.16578,-0.0944c-0.76189,0.77573 -1.7217,1.33354 -2.7805,1.6062l0.00012,0.18916c0,0.73097 -0.52285,1.33981 -1.21497,1.47295l-0.14057,0.02018l-0.14446,0.00687c-0.7797,0 -1.42045,-0.59489 -1.49313,-1.35551l-0.00687,-0.14445l-0.00051,-0.18935c-1.05857,-0.27272 -2.01814,-0.83052 -2.77985,-1.60605l-0.16579,0.0944c-0.63304,0.36548 -1.42174,0.2171 -1.8831,-0.31572l-0.08776,-0.11165l-0.07818,-0.12167c-0.38985,-0.67524 -0.19504,-1.52759 0.42731,-1.97083l0.12166,-0.07817l0.16398,-0.09399c-0.14387,-0.51866 -0.21776,-1.05799 -0.21776,-1.60701c0,-0.54832 0.07369,-1.0871 0.21734,-1.60549l-0.16349,-0.09547c-0.57849,-0.33399 -0.85522,-1.0003 -0.70573,-1.64525l0.0386,-0.13775l0.05193,-0.13633l0.06616,-0.12971c0.35785,-0.61981 1.09718,-0.89321 1.783,-0.66712l0.13632,0.05192l0.12965,0.06612l0.16575,0.09454c0.76209,-0.77597 1.72193,-1.33366 2.78051,-1.60629l-0.00004,-0.18917c0,-0.73097 0.52285,-1.33981 1.21497,-1.47295l0.14057,-0.02018l0.14446,-0.00687zm0,1c-0.24546,0 -0.44961,0.17688 -0.49194,0.41015l-0.00806,0.08989l-0.00002,1.02465c-0.23471,0.0233 -0.46464,0.06284 -0.68866,0.11746c-0.02795,0.00673 -0.05582,0.01379 -0.08361,0.02108l0.08361,-0.02108c-0.07404,0.01806 -0.14744,0.03776 -0.22015,0.05908l0.13654,-0.038c-0.8987,0.23581 -1.7114,0.7189 -2.35025,1.39037c-0.15693,0.16498 -0.30254,0.34036 -0.43583,0.52521l-0.86243,-0.49814l-0.07809,-0.04022c-0.20204,-0.08732 -0.4357,-0.03003 -0.56699,0.11623l-0.04961,0.06797l-0.04021,0.07808c-0.08733,0.20205 -0.03003,0.43571 0.13326,0.57619l0.07635,0.05413l0.88625,0.51264c-0.06937,0.15373 -0.13119,0.3116 -0.18499,0.47314l-0.00306,0.00878l-0.08503,0.28583c-0.00581,0.02188 -0.01148,0.04382 -0.01699,0.06582c-0.09928,0.39512 -0.15009,0.8043 -0.15009,1.22074c0,0.47502 0.06612,0.94051 0.19471,1.3869c0.06641,0.22994 0.14857,0.45271 0.24545,0.66741l-0.88631,0.51268c-0.23915,0.13807 -0.32109,0.44386 -0.18302,0.68301c0.12273,0.21257 0.37799,0.30093 0.60114,0.22098l0.08186,-0.03796l0.88707,-0.51285c0.13367,0.18549 0.27975,0.36144 0.43701,0.52664c0.02787,0.02934 0.05637,0.05858 0.08521,0.08744l-0.08521,-0.08744c0.0569,0.05978 0.11527,0.11816 0.17505,0.17507l-0.08984,-0.08763c0.6388,0.63946 1.44002,1.09699 2.32175,1.31716c0.23208,0.05787 0.47101,0.09966 0.71511,0.1239l0.00002,1.02469c0,0.27614 0.22386,0.5 0.5,0.5c0.24546,0 0.44961,-0.17688 0.49194,-0.4101l0.00806,-0.08986l0.0007,-1.0248c0.21146,-0.02102 0.41905,-0.05522 0.62193,-0.10177c0.05688,-0.01295 0.11394,-0.02711 0.17067,-0.04226l-0.17067,0.04226c0.09896,-0.0227 0.1968,-0.04834 0.29342,-0.07682l-0.12275,0.03456c0.89669,-0.23949 1.70666,-0.72541 2.34232,-1.39861c0.02997,-0.03178 0.05975,-0.06414 0.0891,-0.09689l-0.0891,0.09689c0.05593,-0.05923 0.11052,-0.11992 0.1637,-0.18202l-0.0746,0.08513c0.11832,-0.13204 0.22973,-0.2704 0.33365,-0.41452l0.86243,0.49814l0.07809,0.04022c0.20204,0.08732 0.4357,0.03003 0.56699,-0.11623l0.04961,-0.06797l0.04021,-0.07808c0.08733,-0.20205 0.03003,-0.43571 -0.13329,-0.57621l-0.07638,-0.05414l-0.88619,-0.51261l0.07375,-0.17631l0.05305,-0.13187c0.01426,-0.03825 0.02806,-0.07671 0.0414,-0.1154c0.02321,-0.06685 0.04497,-0.13463 0.06527,-0.20287l-0.06527,0.20287c0.02944,-0.08538 0.05664,-0.17182 0.08152,-0.25923l-0.01625,0.05636c0.0237,-0.07968 0.0454,-0.16 0.06509,-0.24089l-0.04884,0.18453c0.02452,-0.08615 0.04678,-0.17324 0.06673,-0.26122l-0.01789,0.07669c0.0936,-0.38462 0.1416,-0.78229 0.1416,-1.18697c0,-0.47123 -0.06507,-0.93308 -0.19164,-1.37618c-0.06685,-0.23351 -0.15009,-0.45998 -0.24852,-0.67813l0.88631,-0.51268c0.23915,-0.13807 0.32109,-0.44386 0.18302,-0.68301c-0.12273,-0.21257 -0.37799,-0.30093 -0.60123,-0.22093l-0.08189,0.03797l-0.88695,0.51279l-0.13051,-0.17283l-0.10382,-0.12759c-0.02369,-0.02812 -0.04769,-0.05596 -0.07199,-0.08354c-0.03276,-0.03723 -0.06596,-0.07381 -0.09965,-0.10986l0.09965,0.10986c-0.05802,-0.06585 -0.11775,-0.13015 -0.17911,-0.19286l0.07946,0.083c-0.05697,-0.06095 -0.11537,-0.1204 -0.17514,-0.17829l0.09568,0.09529c-0.05928,-0.06057 -0.12009,-0.11964 -0.18237,-0.17715l0.08669,0.08186c-0.63809,-0.61807 -1.43176,-1.05908 -2.30285,-1.26894c-0.21911,-0.05271 -0.44448,-0.09116 -0.67444,-0.11402l-0.0007,-1.02476c0,-0.27614 -0.22386,-0.5 -0.5,-0.5zm0,3c1.933,0 3.5,1.567 3.5,3.5c0,1.933 -1.567,3.5 -3.5,3.5c-1.933,0 -3.5,-1.567 -3.5,-3.5c0,-1.933 1.567,-3.5 3.5,-3.5zm0,1c-1.38071,0 -2.5,1.11929 -2.5,2.5c0,1.38071 1.11929,2.5 2.5,2.5c1.38071,0 2.5,-1.11929 2.5,-2.5c0,-1.38071 -1.11929,-2.5 -2.5,-2.5z"/>
      </g>
     </g>
    </g>
   </g>
  </g>
 </g>
</svg>
