<?xml version="1.0" encoding="UTF-8"?>

<!-- 
~    Copyright (c) 2021, WSO2 Inc. (http://www.wso2.com). All Rights Reserved.
~   
~    This software is the property of WSO2 Inc. and its suppliers, if any. 
~    Dissemination of any information or reproduction of any material contained 
~    herein in any form is strictly forbidden, unless permitted by WSO2 expressly. 
~    You may not alter or remove any copyright or other notice from copies of this content."
-->

<svg width="24px" height="25px" viewBox="0 0 24 25" version="1.1" xmlns="http://www.w3.org/2000/svg" xmlns:xlink="http://www.w3.org/1999/xlink">
    <title>CC87958D-3A9B-410A-B2FB-996AD8135C08</title>
    <g id="Home" stroke="none" stroke-width="1" fill="none" fill-rule="evenodd">
        <g id="new-dashboard-+" transform="translate(-378.000000, -280.000000)" fill="#5567D5">
            <path d="M396.289559,280 C397.009705,280 397.685868,280.332225 398.126004,280.893895 L398.23101,281.039033 L400.669804,284.697224 L402.003138,300.338754 C402.003138,302.298474 400.465718,303.899111 398.531204,304.000338 L398.336471,304.005421 L381.666667,304.005421 C379.706947,304.005421 378.10631,302.468001 378.005082,300.533487 L378,300.338754 L379.333333,284.697224 L381.772128,281.039033 C382.171592,280.439836 382.823088,280.061519 383.534569,280.006862 L383.713578,280 L396.289559,280 Z M394,289 C393.447715,289 393,289.447715 393,290 L393,290 L392.993079,290.205398 C392.887527,291.766451 391.587819,293 390,293 C388.343146,293 387,291.656854 387,290 C387,289.447715 386.552285,289 386,289 C385.447715,289 385,289.447715 385,290 C385,292.761424 387.238576,295 390,295 C392.761424,295 395,292.761424 395,290 C395,289.447715 394.552285,289 394,289 Z M396.289559,282 L383.713578,282 C383.624417,282 383.539976,282.035648 383.478113,282.097387 L383.436228,282.148433 L382.201,284 L397.8,284 L396.566909,282.148433 C396.532135,282.096271 396.48399,282.055826 396.428684,282.030421 L396.37122,282.010152 L396.289559,282 Z" id="Combined-Shape"></path>
        </g>
    </g>
</svg>
