<?xml version="1.0" encoding="UTF-8"?>
<svg width="579px" height="437px" viewBox="0 0 579 437" version="1.1" xmlns="http://www.w3.org/2000/svg" xmlns:xlink="http://www.w3.org/1999/xlink">
    <title>77C3DED2-7027-4220-9773-E7E89936383B</title>
    <defs>
        <linearGradient x1="50%" y1="39.8279468%" x2="50%" y2="100%" id="linearGradient-1">
            <stop stop-color="#CCD1F2" offset="0%"></stop>
            <stop stop-color="#F7F8FB" offset="100%"></stop>
        </linearGradient>
        <linearGradient x1="50%" y1="0%" x2="50%" y2="131.061492%" id="linearGradient-2">
            <stop stop-color="#E7EAFA" offset="0%"></stop>
            <stop stop-color="#FFFFFF" offset="100%"></stop>
        </linearGradient>
        <linearGradient x1="50%" y1="0%" x2="50%" y2="131.061492%" id="linearGradient-3">
            <stop stop-color="#E7EAFA" offset="0%"></stop>
            <stop stop-color="#FFFFFF" offset="100%"></stop>
        </linearGradient>
        <linearGradient x1="50%" y1="39.8279468%" x2="50%" y2="100%" id="linearGradient-4">
            <stop stop-color="#F7F8FB" offset="0%"></stop>
            <stop stop-color="#CCD1F2" offset="100%"></stop>
        </linearGradient>
        <linearGradient x1="50%" y1="0%" x2="50%" y2="182.437897%" id="linearGradient-5">
            <stop stop-color="#F7F8FB" offset="0%"></stop>
            <stop stop-color="#CCD1F2" offset="100%"></stop>
        </linearGradient>
        <path d="M142.519685,166.476038 L125.847173,166.476038 C123.362645,166.476038 121.348537,164.459174 121.348537,161.971246 L121.348537,128.936102 C121.348537,126.448174 123.362645,124.43131 125.847173,124.43131 L233.986229,124.43131 L233.986229,124.43131 L281.050114,124.43131 C283.534642,124.43131 285.54875,126.448174 285.54875,128.936102 L285.54875,161.971246 C285.54875,164.459174 283.534642,166.476038 281.050114,166.476038 L165.864321,166.476038 L165.864321,166.476038" id="path-6"></path>
        <filter x="-0.9%" y="-3.6%" width="101.8%" height="114.3%" filterUnits="objectBoundingBox" id="filter-7">
            <feOffset dx="0" dy="3" in="SourceAlpha" result="shadowOffsetOuter1"></feOffset>
            <feComposite in="shadowOffsetOuter1" in2="SourceAlpha" operator="out" result="shadowOffsetOuter1"></feComposite>
            <feColorMatrix values="0 0 0 0 0.847058824   0 0 0 0 0.854901961   0 0 0 0 0.894117647  0 0 0 0.780763213 0" type="matrix" in="shadowOffsetOuter1"></feColorMatrix>
        </filter>
        <linearGradient x1="50%" y1="0%" x2="50%" y2="100%" id="linearGradient-8">
            <stop stop-color="#5C70EA" offset="0%"></stop>
            <stop stop-color="#4556BD" offset="100%"></stop>
        </linearGradient>
        <linearGradient x1="50%" y1="0%" x2="50%" y2="100%" id="linearGradient-9">
            <stop stop-color="#5C70EA" offset="0%"></stop>
            <stop stop-color="#4556BD" offset="100%"></stop>
        </linearGradient>
        <linearGradient x1="50%" y1="0%" x2="50%" y2="100%" id="linearGradient-10">
            <stop stop-color="#5C70EA" offset="0%"></stop>
            <stop stop-color="#4556BD" offset="100%"></stop>
        </linearGradient>
        <linearGradient x1="50%" y1="0%" x2="50%" y2="99.0831922%" id="linearGradient-11">
            <stop stop-color="#CED2F2" offset="0%"></stop>
            <stop stop-color="#FFFFFF" offset="100%"></stop>
        </linearGradient>
        <rect id="path-12" x="101.104676" y="99.6549521" width="223.432252" height="12.0127796"></rect>
        <filter x="-4.0%" y="-49.9%" width="108.1%" height="249.8%" filterUnits="objectBoundingBox" id="filter-13">
            <feOffset dx="0" dy="3" in="SourceAlpha" result="shadowOffsetOuter1"></feOffset>
            <feGaussianBlur stdDeviation="2.5" in="shadowOffsetOuter1" result="shadowBlurOuter1"></feGaussianBlur>
            <feColorMatrix values="0 0 0 0 0.8   0 0 0 0 0.819607843   0 0 0 0 0.949019608  0 0 0 0.483928547 0" type="matrix" in="shadowBlurOuter1"></feColorMatrix>
        </filter>
    </defs>
    <g id="Home" stroke="none" stroke-width="1" fill="none" fill-rule="evenodd">
        <g id="new-mp-comingsoon-2" transform="translate(-461.000000, -282.000000)">
            <g id="Marketplace" transform="translate(461.000000, 282.238657)">
                <path d="M577.60862,225.783803 C583.887106,278.769084 533.217478,337.196702 475.820383,369.969471 C418.423288,402.742239 354.277002,409.846964 277.124762,421.4243 C200.131839,433.133572 110.277795,449.447392 58.2684665,416.681221 C6.25913836,383.915049 -8.01409833,302.055692 24.4356092,249.782863 C56.8853168,197.510033 99.4885936,174.731386 151.53413,128.850829 C203.579666,83.1154019 213.309882,17.2917279 303.455299,2.11361609 C341.879345,-10.294914 393.924881,34.0485943 451.321976,79.7840218 C508.697346,125.526046 571.489449,172.937054 577.60862,225.783803 Z" id="Path" fill="#FFFFFF" fill-rule="nonzero"></path>
                <polygon id="Rectangle-Copy-9" fill="url(#linearGradient-1)" opacity="0.415860131" points="87.6793462 340.714482 261.996626 340.714482 218.879834 386.513204 44.5625548 386.513204"></polygon>
                <path d="M420.001917,272.28754 C441.547904,272.28754 459.014378,254.797164 459.014378,233.221691 C459.014378,218.838042 446.010224,169.543698 420.001917,85.3386581 C393.99361,169.543698 380.989457,218.838042 380.989457,233.221691 C380.989457,254.797164 398.45593,272.28754 420.001917,272.28754 Z" id="Oval" fill="url(#linearGradient-2)"></path>
                <path d="M351.98911,160.118211 C376.627347,160.118211 396.600583,180.118781 396.600583,204.790735 C396.600583,210.810462 395.411548,216.552094 393.25583,221.792974 C411.644802,230.627924 424.342172,249.447329 424.342172,271.236422 C424.342172,301.506214 399.837192,326.044728 369.608768,326.044728 C353.007412,326.044728 338.132346,318.643491 328.094678,306.956382 C326.342153,307.16686 324.557648,307.27476 322.747977,307.27476 C298.10974,307.27476 278.136503,287.27419 278.136503,262.602236 C278.136503,242.381881 291.552376,225.29926 309.956967,219.793056 C308.286684,215.105075 307.377637,210.05421 307.377637,204.790735 C307.377637,180.118781 327.350874,160.118211 351.98911,160.118211 Z" id="Combined-Shape" fill="url(#linearGradient-3)"></path>
                <rect id="Rectangle" fill="url(#linearGradient-4)" x="101.104676" y="82.3865815" width="249.674295" height="297" rx="4.5"></rect>
                <path d="M350.778971,211.963333 L350.778971,355.677316 C350.778971,358.165244 348.764863,360.182109 346.280335,360.182109 M101.104676,128.051471 C101.104676,118.904783 101.104676,105.18475 101.104676,86.8913738 C101.104676,84.4034457 103.118784,82.3865815 105.603312,82.3865815 L166.05181,82.3865815" id="Shape" stroke="#32324D" stroke-width="0.75"></path>
                <path d="M350.778971,211.963333 L350.778971,355.677316 C350.778971,358.165244 348.764863,360.182109 346.280335,360.182109 M101.104676,128.051471 C101.104676,118.904783 101.104676,105.18475 101.104676,86.8913738 C101.104676,84.4034457 103.118784,82.3865815 105.603312,82.3865815 L166.05181,82.3865815" id="Shape" stroke="#32324D" stroke-width="0.75"></path>
                <g id="Path">
                    <use fill="black" fill-opacity="1" filter="url(#filter-7)" xlink:href="#path-6"></use>
                    <use fill="url(#linearGradient-5)" fill-rule="evenodd" xlink:href="#path-6"></use>
                </g>
                <path d="M142.519685,166.476038 L125.847173,166.476038 C123.362645,166.476038 121.348537,164.459174 121.348537,161.971246 L121.348537,128.936102 C121.348537,126.448174 123.362645,124.43131 125.847173,124.43131 L233.986229,124.43131 L233.986229,124.43131 M281.050114,124.43131 C283.534642,124.43131 285.54875,126.448174 285.54875,128.936102 L285.54875,161.971246 C285.54875,164.459174 283.534642,166.476038 281.050114,166.476038 L165.864321,166.476038 L165.864321,166.476038" id="Shape" stroke="#32324D" stroke-width="0.75"></path>
                <path d="M306.542384,84.7384936 L346.278971,84.7384936 C348.764252,84.7384936 350.778971,86.7532122 350.778971,89.2384936 L350.778971,374.711903 C350.778971,377.197184 348.764252,379.211903 346.278971,379.211903 L306.542384,379.211903 L306.542384,379.211903 L306.542384,84.7384936 Z" id="Rectangle" fill="url(#linearGradient-8)"></path>
                <path d="M74.6468997,258.67343 L101.104676,261.827476 L101.104676,261.827476 L101.104676,360.182109 L69.6142239,363.185304 L69.6142239,263.141792 C69.6142239,260.656511 71.6289426,258.641792 74.1142239,258.641792 C74.2922521,258.641792 74.4701233,258.652357 74.6468997,258.67343 Z" id="Rectangle-Copy-16" fill="url(#linearGradient-9)"></path>
                <path d="M213.570574,261.827476 L240.239978,259.919912 C242.718926,259.742602 244.872249,261.608448 245.049559,264.087396 C245.057201,264.194242 245.061026,264.301326 245.061026,264.408445 L245.061026,363.185304 L245.061026,363.185304 L213.570574,360.182109 L213.570574,261.827476 Z" id="Rectangle-Copy-18" fill="url(#linearGradient-10)"></path>
                <rect id="Rectangle-Copy-17" fill="url(#linearGradient-11)" x="101.104676" y="261.827476" width="112.465899" height="98.3546326"></rect>
                <path d="M69.6142239,341.412141 L69.6142239,263.087745 C69.6142239,260.733099 71.6283319,258.824281 74.1128599,258.824281 L101.243839,261.827476 L180.580577,261.827476 M245.061026,266.332268 L245.061026,363.424194" id="Shape" stroke="#32324D" stroke-width="0.75"></path>
                <path d="M305.5,354.761343 L305.5,146.761343 M316.5,37.7613434 L316.5,244.761343" id="Shape" stroke="#32324D" stroke-width="0.75"></path>
                <g id="Rectangle">
                    <use fill="black" fill-opacity="1" filter="url(#filter-13)" xlink:href="#path-12"></use>
                    <use fill="#FFFFFF" fill-rule="evenodd" xlink:href="#path-12"></use>
                </g>
                <path d="M317.788974,99.6549521 L356.019171,99.6549521 C359.336408,99.6549521 362.025561,102.344104 362.025561,105.661342 C362.025561,108.978579 359.336408,111.667732 356.019171,111.667732 L317.788974,111.667732 L317.788974,111.667732 L317.788974,99.6549521 Z" id="Rectangle" fill="#E6E7EC"></path>
                <polygon id="Path" fill="#FFFFFF" fill-rule="nonzero" opacity="0.4318666" points="127.35699 166.476038 147.942748 166.476038 166.054904 124.43131 145.469146 124.43131"></polygon>
                <polygon id="Path-Copy" fill="#FFFFFF" fill-rule="nonzero" opacity="0.4318666" points="222.578117 166.476038 243.163875 166.476038 261.276032 124.43131 240.690274 124.43131"></polygon>
                <polygon id="Path" fill="#FFFFFF" fill-rule="nonzero" opacity="0.4318666" points="174.344827 124.43131 170.405342 124.43131 152.226757 166.476038 156.166241 166.476038"></polygon>
                <polygon id="Path-Copy-2" fill="#FFFFFF" fill-rule="nonzero" opacity="0.4318666" points="269.565954 124.43131 265.62647 124.43131 247.447884 166.476038 251.387369 166.476038"></polygon>
                <polygon id="Path" fill="#FFFFFF" fill-rule="nonzero" opacity="0.4318666" points="178.461979 124.43131 160.516679 166.476038 169.685203 166.476038 186.716052 124.43131 182.634749 124.43131"></polygon>
                <path d="M281.050114,179.239617 C283.534642,179.239617 285.54875,181.256481 285.54875,183.744409 L285.54875,215.277955 C285.54875,217.765883 283.534642,219.782748 281.050114,219.782748 C261.122166,219.782748 246.176205,219.782748 236.212231,219.782748 M105.603312,219.782748 C103.118784,219.782748 101.104676,217.765883 101.104676,215.277955 L101.104676,183.744409 C101.104676,181.256481 103.118784,179.239617 105.603312,179.239617" id="Shape" stroke="#32324D" stroke-width="0.75" fill="#5567D5"></path>
                <path d="M281.050114,179.239617 C283.534642,179.239617 285.54875,181.256481 285.54875,183.744409 L285.54875,215.277955 C285.54875,217.765883 283.534642,219.782748 281.050114,219.782748 C261.122166,219.782748 246.176205,219.782748 236.212231,219.782748 C207.188026,219.782748 163.65172,219.782748 105.603312,219.782748 C103.118784,219.782748 101.104676,217.765883 101.104676,215.277955 L101.104676,183.744409 C101.104676,181.256481 103.118784,179.239617 105.603312,179.239617" id="Path" fill="#5567D5"></path>
                <path d="M101.104676,219.782748 L128.096491,219.782748 L128.096491,225.807607 C128.096491,233.261191 122.054168,239.303514 114.600583,239.303514 C107.146999,239.303514 101.104676,233.261191 101.104676,225.807607 L101.104676,219.782748 L101.104676,219.782748 Z" id="Rectangle-Copy-4" fill="#D8DAE4" fill-rule="nonzero"></path>
                <path d="M155.088307,219.782748 L182.080123,219.782748 L182.080123,225.807607 C182.080123,233.261191 176.037799,239.303514 168.584215,239.303514 C161.130631,239.303514 155.088307,233.261191 155.088307,225.807607 L155.088307,219.782748 L155.088307,219.782748 Z" id="Rectangle-Copy-6" fill="#D8DAE4" fill-rule="nonzero"></path>
                <path d="M168.584215,239.303514 C161.130631,239.303514 155.088307,233.252922 155.088307,225.789137" id="Path" stroke="#32324D" stroke-width="0.75" fill="#D8DAE4" fill-rule="nonzero"></path>
                <path d="M209.071938,219.782748 L236.063754,219.782748 L236.063754,225.807607 C236.063754,233.261191 230.02143,239.303514 222.567846,239.303514 C215.114262,239.303514 209.071938,233.261191 209.071938,225.807607 L209.071938,219.782748 L209.071938,219.782748 Z" id="Rectangle-Copy-10" fill="#D8DAE4" fill-rule="nonzero"></path>
                <path d="M236.063754,219.782748 L236.063754,225.789137 C236.063754,233.252922 230.02143,239.303514 222.567846,239.303514" id="Shape" stroke="#32324D" stroke-width="0.75" fill="#D8DAE4" fill-rule="nonzero"></path>
                <path d="M74.1128599,219.782748 L101.104676,219.782748 L101.104676,225.807607 C101.104676,233.261191 95.0623518,239.303514 87.6087677,239.303514 C80.1551837,239.303514 74.1128599,233.261191 74.1128599,225.807607 L74.1128599,219.782748 L74.1128599,219.782748 Z" id="Rectangle-Copy-5" fill="#4556BD" fill-rule="nonzero"></path>
                <path d="M128.096491,219.782748 L155.088307,219.782748 L155.088307,225.807607 C155.088307,233.261191 149.045983,239.303514 141.592399,239.303514 C134.138815,239.303514 128.096491,233.261191 128.096491,225.807607 L128.096491,219.782748 L128.096491,219.782748 Z" id="Rectangle-Copy-7" fill="#4556BD" fill-rule="nonzero"></path>
                <path d="M155.088307,219.782748 L155.088307,225.789137 C155.088307,233.252922 149.045983,239.303514 141.592399,239.303514 C134.138815,239.303514 128.096491,233.252922 128.096491,225.789137" id="Shape" stroke="#32324D" stroke-width="0.75" fill="#4556BD" fill-rule="nonzero"></path>
                <path d="M182.080123,219.782748 L209.071938,219.782748 L209.071938,225.807607 C209.071938,233.261191 203.029615,239.303514 195.576031,239.303514 C188.122446,239.303514 182.080123,233.261191 182.080123,225.807607 L182.080123,219.782748 L182.080123,219.782748 Z" id="Rectangle-Copy-12" fill="#4556BD" fill-rule="nonzero"></path>
                <polygon id="Rectangle" fill="#FFFFFF" fill-rule="nonzero" points="128.846264 179.292757 155.83808 179.292757 128.096491 219.782748 101.104676 219.782748"></polygon>
                <polygon id="Rectangle-Copy-8" fill="#FFFFFF" fill-rule="nonzero" points="182.829895 179.292757 209.821711 179.292757 182.080123 219.782748 155.088307 219.782748"></polygon>
                <polygon id="Rectangle-Copy-13" fill="#FFFFFF" fill-rule="nonzero" points="236.813527 179.292757 263.805342 179.292757 236.063754 219.782748 209.071938 219.782748"></polygon>
                <polygon id="Rectangle-Copy-3" fill="#5567D5" fill-rule="nonzero" points="101.854448 179.292757 128.846264 179.292757 101.104676 219.782748 74.1128599 219.782748"></polygon>
                <path d="M96.4928838,235.962618 C94.1191638,238.042873 91.0109838,239.303514 87.6087677,239.303514 C80.1551837,239.303514 74.1128599,233.252922 74.1128599,225.789137 L74.1128599,219.782748 L101.854448,179.292757 L128.846264,179.292757" id="Path" stroke="#32324D" stroke-width="0.75" fill-rule="nonzero"></path>
                <polygon id="Rectangle-Copy-14" fill="#5567D5" fill-rule="nonzero" points="209.821711 179.292757 236.813527 179.292757 209.071938 219.782748 182.080123 219.782748"></polygon>
                <g id="Group" transform="translate(116.849901, 288.856230)">
                    <path d="M45.7361322,56.3099042 L21.3180414,56.3099042 C20.0757774,56.3099042 19.0687234,55.301472 19.0687234,54.057508 C19.0687234,53.9566217 19.0754923,53.8558494 19.0889843,53.7558718 L21.3180414,43.5463259" id="Path" stroke="#32324D" stroke-width="0.75"></path>
                    <path d="M21.6933236,15.7667732 L64.0570613,15.7667732 C65.299702,15.7667732 66.3070613,16.7741325 66.3070613,18.0167732 C66.3070613,18.3235744 66.2443167,18.6271344 66.1226841,18.9087947 L56.0696081,42.1883474 C55.7136685,43.0125841 54.9017932,43.5463259 54.0039853,43.5463259 L18.3422983,43.5463259 C17.0996576,43.5463259 16.0922983,42.5389666 16.0922983,41.2963259 C16.0922983,41.1890564 16.0999694,41.0819242 16.115253,40.9757491 L19.4662784,17.6961963 C19.6256835,16.5888097 20.5745228,15.7667732 21.6933236,15.7667732 Z" id="Rectangle-Copy-19" fill="#F0F1FB"></path>
                    <path d="M63.3014334,18.3626296 C64.4046223,18.3626296 65.2989337,19.2768289 65.2989337,20.4045509 C65.2989337,20.6675179 65.2492441,20.9280093 65.1525953,21.1717112 L56.1188555,42.2715648 C55.813257,43.0421381 55.0810937,43.5463259 54.2676936,43.5463259 L17.9488874,43.5463259 C16.8456985,43.5463259 15.9513872,42.6321266 15.9513872,41.5044046 C15.9513872,41.4129456 15.9573983,41.3215899 15.9693798,41.2309547 L21.449117,7.2313453 C21.7127511,5.59559988 20.6004351,4.05584858 18.9646897,3.79221452 C18.8068451,3.76677462 18.6472195,3.75399361 18.487338,3.75399361 L9.06598428,3.75399361 L9.06598428,3.75399361" id="Path" stroke="#32324D" stroke-width="0.75"></path>
                    <rect id="Rectangle" stroke="#32324D" stroke-width="0.75" fill="#F0F1FB" x="0" y="0" width="14.9954532" height="7.50798722" rx="3.375"></rect>
                    <ellipse id="Oval" stroke="#32324D" stroke-width="0.75" fill="#F0F1FB" cx="42.9512623" cy="56.3099042" rx="3.53464253" ry="3.53947969"></ellipse>
                    <ellipse id="Oval-Copy-3" stroke="#32324D" stroke-width="0.75" fill="#F0F1FB" cx="27.5273676" cy="56.3099042" rx="3.53464253" ry="3.53947969"></ellipse>
                    <path d="M21.9142883,13.6126942 L63.8909535,15.6111758 C65.1321882,15.6702701 66.0905024,16.7243952 66.031408,17.9656299 C66.0183178,18.2405791 65.9548872,18.5107925 65.8442671,18.7628471 L62.5423671,26.2864272 L62.5423671,26.2864272 L20.9449001,23.4385635 C19.7051615,23.353688 18.7689599,22.279876 18.8538354,21.0401373 C18.8571011,20.9924364 18.8618865,20.9448517 18.8681842,20.8974556 L19.5768918,15.5637862 C19.7308688,14.4049691 20.7466088,13.5571018 21.9142883,13.6126942 Z" id="Rectangle" fill="#A7ADD6" opacity="0.365007673"></path>
                    <path d="M19.8699294,12.0127796 L69.6031867,12.0127796 C70.8458274,12.0127796 71.8531867,13.0201389 71.8531867,14.2627796 C71.8531867,14.5053142 71.813973,14.7462535 71.7370635,14.9762708 L69.7271415,20.9874529 C69.4202766,21.9052102 68.5609653,22.5239617 67.5932647,22.5239617 L19.0659606,22.5239617 C17.8233199,22.5239617 16.8159606,21.5166023 16.8159606,20.2739617 C16.8159606,20.1742075 16.8225945,20.0745638 16.8358184,19.9756901 L17.6397872,13.964508 C17.7892358,12.8470985 18.7425702,12.0127796 19.8699294,12.0127796 Z" id="Rectangle" fill="#A6B3FF"></path>
                </g>
                <line x1="209.071938" y1="219.782748" x2="236.813527" y2="179.292757" id="Path-Copy-4" stroke="#32324D" stroke-width="0.75" fill-rule="nonzero"></line>
                <line x1="182.829895" y1="219.782748" x2="204.156711" y2="188.655382" id="Path-Copy-3" stroke="#32324D" stroke-width="0.75" fill-rule="nonzero"></line>
                <line x1="145.411683" y1="195.604836" x2="156.587852" y2="179.292757" id="Path" stroke="#32324D" stroke-width="0.75" fill-rule="nonzero"></line>
                <path d="M51.9084872,379.200094 L69.6142239,360.182109 M101.047804,360.182109 L163.026635,360.182109 M101.047804,360.182109 L69.6142239,363.613843" id="Shape" stroke="#32324D" stroke-width="0.75"></path>
                <polyline id="Path-8" stroke="#32324D" stroke-width="0.75" points="187.795057 386.513204 218.879834 386.513204 237.222643 367.217478"></polyline>
                <path d="M345.404015,275.965931 L359.908588,290.490354 C361.078228,291.661594 361.078228,293.558853 359.908588,294.730093 L345.404015,309.254516 C344.233243,310.42689 342.333749,310.428189 341.161375,309.257417 C341.160407,309.256451 341.15944,309.255484 341.158474,309.254516 L326.6539,294.730093 C325.484261,293.558853 325.484261,291.661594 326.6539,290.490354 L341.158474,275.965931 C342.329245,274.793557 344.22874,274.792258 345.401114,275.96303 C345.402081,275.963996 345.403048,275.964963 345.404015,275.965931 Z" id="Polygon" stroke="#CED3F3" stroke-width="0.5625"></path>
                <path d="M479.184362,189.67501 L490.372756,200.863404 C491.544329,202.034977 491.544329,203.934472 490.372756,205.106045 L486.792789,208.686012 C485.621216,209.857585 483.721721,209.857585 482.550148,208.686012 L471.361754,197.497618 C470.190181,196.326045 470.190181,194.42655 471.361754,193.254978 L474.941722,189.67501 C476.113294,188.503437 478.012789,188.503437 479.184362,189.67501 Z" id="Polygon-Copy" stroke="#CED3F3" stroke-width="0.5625" transform="translate(480.867255, 199.180511) rotate(-45.000000) translate(-480.867255, -199.180511) "></path>
                <line x1="101.104676" y1="261.827476" x2="101.104676" y2="310.004476" id="Path-11" stroke="#40404B" stroke-width="0.75"></line>
                <line x1="213.570574" y1="360.182109" x2="213.570574" y2="325.666516" id="Path-12" stroke="#40404B" stroke-width="0.75"></line>
                <polygon id="Path" fill="#CCD1F2" fill-rule="nonzero" points="32.3427465 92.4025559 0 92.4025559 0 144.958466 44.2331467 144.958466 44.2331467 104.309228"></polygon>
                <ellipse id="Oval" fill="#FFFFFF" fill-rule="nonzero" cx="12.0112931" cy="112.48457" rx="5.13404784" ry="5.14107378"></ellipse>
                <rect id="Rectangle" fill="#FFFFFF" fill-rule="nonzero" x="19.9044285" y="116.446302" width="17.4514729" height="1.38143171"></rect>
                <rect id="Rectangle" fill="#FFFFFF" fill-rule="nonzero" x="6.87724524" y="122.624181" width="30.4796311" height="1.38143171"></rect>
                <rect id="Rectangle" fill="#FFFFFF" fill-rule="nonzero" x="6.87724524" y="128.801085" width="30.4796311" height="1.38143171"></rect>
                <path d="M257.362212,56.2931713 C251.782223,50.8127817 250.816066,42.1604351 255.049432,35.5812443 C259.282798,29.0020535 267.550218,26.3073046 274.839926,29.1305733 C279.449441,22.057609 287.577207,18.1051149 295.97858,18.8509457 C304.379953,19.5967766 311.686566,24.9194558 314.981583,32.694144 C321.513717,30.0486561 329.002855,31.8561768 333.614146,37.1911557 C338.225437,42.5261345 338.937781,50.2072228 335.386419,56.3012795 L257.362212,56.2931713 Z" id="Path" fill="#CCD1F2" fill-rule="nonzero"></path>
                <path d="M452.289234,392.271251 L501.786752,363.02855 L498.170664,349.330636 L455.375232,349.330636 L455.375232,348.24007 C455.375232,348.219811 455.375232,348.202929 455.375232,348.182671 L455.375232,345.194588 C455.375232,344.562449 454.862783,344.05 454.230644,344.05 L443.281091,344.05 C442.648953,344.05 442.136503,344.562449 442.136503,345.194588 L442.136503,349.330636 L449.186354,392.271251 L452.289234,392.271251 Z" id="Path" fill="#5567D5" fill-rule="nonzero"></path>
                <path d="M500.287645,370.689523 C500.287645,366.823585 504.339284,365.895084 509.160734,365.776912 L509.160734,356.508788 C509.160734,354.27113 507.346753,352.45715 505.109095,352.45715 L453.052293,352.45715 C450.814635,352.45715 449.000654,354.27113 449.000654,356.508788 L449.000654,390.998361 C449.000654,393.23602 450.814635,395.05 453.052293,395.05 L505.09559,395.05 C507.333248,395.05 509.147228,393.23602 509.147228,390.998361 L509.147228,377.830536 C503.609989,376.935799 500.287645,374.136792 500.287645,370.689523 Z" id="Path" fill="#CCD1F2" fill-rule="nonzero"></path>
            </g>
        </g>
    </g>
</svg>
