<?xml version="1.0" encoding="UTF-8"?>
<svg width="18px" height="18px" viewBox="0 0 18 18" version="1.1" xmlns="http://www.w3.org/2000/svg" xmlns:xlink="http://www.w3.org/1999/xlink">
    <title>1A9E3BA5-067B-4024-94A1-05E88BEA78A9</title>
    <g id="Home" stroke="none" stroke-width="1" fill="none" fill-rule="evenodd">
        <g id="new-home-page-hovers" transform="translate(-929.000000, -1344.000000)" fill="#5567D5" fill-rule="nonzero">
            <g id="Icon/main/Devops-Copy-2" transform="translate(929.000000, 1344.000000)">
                <path d="M15.8684211,7 C16.9944753,7 17.9165925,7.92166712 17.994648,9.08931419 L18,9.25 L18,15.25 C18,16.4386128 17.1268417,17.4119588 16.0206497,17.4943506 L15.8684211,17.5 L8.28947368,17.5 C7.16341942,17.5 6.24130222,16.5783329 6.16324676,15.4106858 L6.15789474,15.25 L6.15789474,9.25 C6.15789474,8.06138717 7.03105306,7.08804123 8.13724502,7.00564936 L8.28947368,7 L15.8684211,7 Z M13.0841419,13.0011997 L9.21454987,13.0011997 L9.11813566,13.0080463 C8.77132723,13.0577088 8.50402355,13.371504 8.50402355,13.7511997 C8.50402355,14.1654133 8.82213702,14.5011997 9.21454987,14.5011997 L9.21454987,14.5011997 L13.0841419,14.5011997 L13.1805561,14.4943531 C13.5273645,14.4446907 13.7946682,14.1308955 13.7946682,13.7511997 C13.7946682,13.3369862 13.4765547,13.0011997 13.0841419,13.0011997 L13.0841419,13.0011997 Z M9.275,6.1284311e-14 C11.4529593,6.1284311e-14 13.4127313,1.21968454 14.2638187,3.08646421 L14.363,3.321 L14.4241048,3.32421098 C15.5757888,3.38010471 16.6222241,3.92739674 17.2862151,4.79444071 L17.4138319,4.972062 C17.6451182,5.31568903 17.554048,5.78174835 17.210421,6.01303462 C16.866794,6.24432089 16.4007346,6.1532507 16.1694484,5.80962367 C15.8149052,5.28287113 15.21958,4.92323931 14.5390014,4.83862463 L14.3513922,4.82244757 L13.3298084,4.77286788 L12.9616062,3.85496463 C12.3980499,2.45005641 10.9321016,1.5 9.275,1.5 C7.35791762,1.5 5.74340497,2.76499939 5.41274517,4.44804422 L5.38227473,4.62993153 L5.23464313,5.69309849 L4.14400253,5.9126514 C2.59645645,6.2241823 1.5,7.48352381 1.5,8.92021277 C1.5,10.4721019 2.77351373,11.792797 4.46933587,11.9780133 C4.88110078,12.0229859 5.17844468,12.3932448 5.13347207,12.8050097 C5.08849945,13.2167746 4.71824053,13.5141185 4.30647562,13.4691459 C1.87200675,13.2032553 5.54223334e-13,11.261894 5.54223334e-13,8.92021277 C5.54223334e-13,6.82183282 1.51198144,5.01529166 3.6270655,4.49169863 L3.895,4.432 C4.23821732,1.96296799 6.42577263,0.111642044 9.03653198,0.00486910984 L9.275,6.1284311e-14 Z M14.9788787,10.0011997 L9.21454987,10.0011997 L9.11813566,10.0080463 C8.77132723,10.0577088 8.50402355,10.371504 8.50402355,10.7511997 C8.50402355,11.1654133 8.82213702,11.5011997 9.21454987,11.5011997 L9.21454987,11.5011997 L14.9788787,11.5011997 L15.0752929,11.4943531 C15.4221014,11.4446907 15.689405,11.1308955 15.689405,10.7511997 C15.689405,10.3369862 15.3712916,10.0011997 14.9788787,10.0011997 L14.9788787,10.0011997 Z" id="Combined-Shape"></path>
            </g>
        </g>
    </g>
</svg>
