<?xml version="1.0" encoding="UTF-8"?>
<svg width="18px" height="18px" viewBox="0 0 18 18" version="1.1" xmlns="http://www.w3.org/2000/svg" xmlns:xlink="http://www.w3.org/1999/xlink">
    <title>0B65F2A5-1CFB-409E-B4F2-E4712FD3E04E</title>
    <g id="Home" stroke="none" stroke-width="1" fill="none" fill-rule="evenodd">
        <g id="new-home-page-hovers" transform="translate(-705.000000, -1182.000000)" fill="#5567D5" fill-rule="nonzero">
            <g id="Icon/main/Devops-Copy-2" transform="translate(705.000000, 1182.000000)">
                <path d="M9,0 C9.38235098,0 9.69230769,0.309956712 9.69230769,0.692307692 C9.69230769,1.07465867 9.38235098,1.38461538 9,1.38461538 C4.79413921,1.38461538 1.38461538,4.79413921 1.38461538,9 C1.38461538,13.2058608 4.79413921,16.6153846 9,16.6153846 C13.2058608,16.6153846 16.6153846,13.2058608 16.6153846,9 C16.6153846,8.61764902 16.9253413,8.30769231 17.3076923,8.30769231 C17.6900433,8.30769231 18,8.61764902 18,9 C18,13.9705627 13.9705627,18 9,18 C4.02943725,18 0,13.9705627 0,9 C0,4.02943725 4.02943725,0 9,0 Z M9,3.69230769 C9.38235098,3.69230769 9.69230769,4.0022644 9.69230769,4.38461538 C9.69230769,4.76696637 9.38235098,5.07692308 9,5.07692308 C6.83334444,5.07692308 5.07692308,6.83334444 5.07692308,9 C5.07692308,11.1666556 6.83334444,12.9230769 9,12.9230769 C11.1666556,12.9230769 12.9230769,11.1666556 12.9230769,9 C12.9230769,8.61764902 13.2330336,8.30769231 13.6153846,8.30769231 C13.9977356,8.30769231 14.3076923,8.61764902 14.3076923,9 C14.3076923,11.9313575 11.9313575,14.3076923 9,14.3076923 C6.06864248,14.3076923 3.69230769,11.9313575 3.69230769,9 C3.69230769,6.06864248 6.06864248,3.69230769 9,3.69230769 Z M14.4461538,0.130854633 C14.879485,0.130854633 15.2307692,0.482138906 15.2307692,0.915470018 L15.2307692,0.915470018 L15.2298462,2.76923077 L17.0851529,2.76923077 C17.2583398,2.76923077 17.4256313,2.826489 17.5617112,2.93053377 L17.5617112,2.93053377 L17.6394112,2.99849125 C17.9461252,3.30459964 17.9466162,3.80139038 17.6405078,4.10810443 L17.6405078,4.10810443 L14.8256257,6.928556 L12.05,6.928 L9.48953546,9.48953546 C9.21917249,9.75989844 8.78082751,9.75989844 8.51046454,9.48953546 C8.26468002,9.24375094 8.24233597,8.85913831 8.44343239,8.58811232 L8.51046454,8.51046454 L11.076,5.944 L11.0769231,3.18065502 L13.8907989,0.361211745 C14.0379872,0.213732267 14.2377922,0.130854633 14.4461538,0.130854633 Z M13.8452308,2.36584615 L12.4606154,3.75323077 L12.4606154,5.54307692 L14.2513846,5.54307692 L15.6378462,4.15384615 L13.8461538,4.15384615 L13.8452308,2.36584615 Z" id="Combined-Shape"></path>
            </g>
        </g>
    </g>
</svg>
