<?xml version="1.0" encoding="UTF-8"?>
<svg width="18px" height="18px" viewBox="0 0 18 18" version="1.1" xmlns="http://www.w3.org/2000/svg" xmlns:xlink="http://www.w3.org/1999/xlink">
    <title>FB07B787-70FB-4E16-9F5B-5D577790694D</title>
    <g id="Home" stroke="none" stroke-width="1" fill="none" fill-rule="evenodd">
        <g id="apps-UI-kit" transform="translate(-666.000000, -2531.000000)" fill="#5567D5">
            <g id="Icon/main/Market" transform="translate(666.000000, 2531.000000)">
                <path d="M13.7171694,-8.8817842e-14 C14.249095,-8.8817842e-14 14.7490261,0.241675196 15.0793771,0.651392001 L15.1732574,0.779274657 L17.0023532,3.52291827 L18.0023532,15.2540655 C18.0023532,16.7165974 16.8606486,17.9124698 15.4198755,17.9990467 L15.2523532,18.0040655 L2.75,18.0040655 C1.28746816,18.0040655 0.0915957212,16.8623609 0.00501879394,15.4215878 L3.23296945e-13,15.2540655 L1,3.52291827 L2.82909574,0.779274657 C3.12415494,0.336685866 3.60255273,0.0547753256 4.12670352,0.00717662229 L4.28518376,-8.8817842e-14 L13.7171694,-8.8817842e-14 Z M12,6.75 C11.5857864,6.75 11.25,7.08578644 11.25,7.5 L11.25,7.5 L11.2448092,7.65404881 C11.1656449,8.82483841 10.190864,9.75 9,9.75 C7.75735931,9.75 6.75,8.74264069 6.75,7.5 C6.75,7.08578644 6.41421356,6.75 6,6.75 C5.58578644,6.75 5.25,7.08578644 5.25,7.5 C5.25,9.57106781 6.92893219,11.25 9,11.25 C11.0710678,11.25 12.75,9.57106781 12.75,7.5 C12.75,7.08578644 12.4142136,6.75 12,6.75 Z M13.7171694,1.5 L4.28518376,1.5 C4.22249254,1.5 4.1629122,1.5234986 4.11747939,1.56458916 L4.07717118,1.61132495 L3.15,3 L14.851,3 L13.925182,1.61132495 C13.9019988,1.57655012 13.8708927,1.54871888 13.8351339,1.52958135 L13.7784149,1.5076141 L13.7171694,1.5 Z" id="Combined-Shape"></path>
            </g>
        </g>
    </g>
</svg>