<?xml version="1.0" encoding="UTF-8"?>
<svg width="18px" height="18px" viewBox="0 0 18 18" version="1.1" xmlns="http://www.w3.org/2000/svg" xmlns:xlink="http://www.w3.org/1999/xlink">
    <title>39DADB3F-5C0D-402E-962C-6D7158FBD7B9</title>
    <g id="Home" stroke="none" stroke-width="1" fill="none" fill-rule="evenodd"  >
        <g id="webhook-trigger-select-" transform="translate(-27.000000, -267.000000)" fill="#FFFFFF">
            <g id="Icon/main/Services" transform="translate(27.000000, 267.000000)">
                <path d="M10.5829463,0.690548998 L10.7049513,0.805456352 L16.7153589,6.81586399 C17.7495251,7.85003017 17.7878276,9.50294675 16.8302663,10.5829463 L16.7153589,10.7049513 L16.358,11.061 L17.483857,12.1873913 C18.1270734,12.8306078 18.1649097,13.8499593 17.5973658,14.5374269 L17.483857,14.662265 L14.6554298,17.4906921 C13.9720123,18.1741096 12.8639736,18.1741096 12.1805561,17.4906921 L12.1805561,17.4906921 L11.055,16.365 L10.7049513,16.7153589 C9.67078511,17.7495251 8.01786853,17.7878276 6.93786899,16.8302663 L6.81586399,16.7153589 L0.805456352,10.7049513 C-0.228709828,9.67078511 -0.267012279,8.01786853 0.690548998,6.93786899 L0.805456352,6.81586399 L6.81586399,0.805456352 C7.85003017,-0.228709828 9.50294675,-0.267012279 10.5829463,0.690548998 Z M13.5947697,10.4196243 C13.4971386,10.3219933 13.3388474,10.3219933 13.2412163,10.4196243 L13.2412163,10.4196243 L10.4127892,13.2480515 C10.3151581,13.3456825 10.3151581,13.5039738 10.4127892,13.6016048 L10.4127892,13.6016048 L13.2412163,16.430032 C13.3388474,16.527663 13.4971386,16.527663 13.5947697,16.430032 L13.5947697,16.430032 L16.4231968,13.6016048 C16.5208279,13.5039738 16.5208279,13.3456825 16.4231968,13.2480515 L16.4231968,13.2480515 Z M7.97145951,1.78030796 L7.87652416,1.86611652 L1.86611652,7.87652416 C1.40847087,8.33416982 1.37986802,9.05838849 1.78030796,9.54935577 L1.86611652,9.64429112 L7.87652416,15.6546988 C8.33416982,16.1123444 9.05838849,16.1409473 9.54935577,15.7405073 L9.64429112,15.6546988 L9.994,15.304 L9.35212898,14.662265 C8.7089125,14.0190485 8.67107624,12.999697 9.23862019,12.3122293 L9.35212898,12.1873913 L12.1805561,9.35896416 C12.8639736,8.67554664 13.9720123,8.67554664 14.6554298,9.35896416 L14.6554298,9.35896416 L15.297,10.001 L15.6546988,9.64429112 C16.1123444,9.18664546 16.1409473,8.46242679 15.7405073,7.97145951 L15.6546988,7.87652416 L9.64429112,1.86611652 C9.18664546,1.40847087 8.46242679,1.37986802 7.97145951,1.78030796 Z" id="Combined-Shape"></path>
            </g>
        </g>
    </g>
</svg>