<?xml version="1.0" encoding="UTF-8"?>
<svg width="19px" height="19px" viewBox="0 0 19 19" version="1.1" xmlns="http://www.w3.org/2000/svg" xmlns:xlink="http://www.w3.org/1999/xlink">
    <title>C6E32835-C14B-422B-916B-E21BEE3D384B</title>
    <g id="Home" stroke="none" stroke-width="1" fill="none" fill-rule="evenodd">
        <g id="home-components-landing" transform="translate(-27.000000, -267.000000)" fill="#5567D5" fill-rule="nonzero">
            <g id="Icon/main/Services" transform="translate(27.000000, 267.000000)">
                <path d="M10.5829463,0.690548998 L10.7049513,0.805456352 L16.7153589,6.81586399 C17.6067652,7.70727028 17.7582756,9.05838895 17.16989,10.1060678 L15.464881,8.40064839 L15.3364547,8.27969328 C14.1996131,7.27173404 12.4597009,7.31205241 11.3711049,8.40064839 L11.3711049,8.40064839 L8.39381321,11.3779401 L8.2728581,11.5063664 C7.26489886,12.643208 7.30521723,14.3831202 8.39381321,15.4717162 L8.39381321,15.4717162 L10.0966846,17.1751354 C9.09716189,17.7313076 7.82446644,17.6163512 6.93786899,16.8302663 L6.81586399,16.7153589 L0.805456352,10.7049513 C-0.228709828,9.67078511 -0.267012279,8.01786853 0.690548998,6.93786899 L0.805456352,6.81586399 L6.81586399,0.805456352 C7.85003017,-0.228709828 9.50294675,-0.267012279 10.5829463,0.690548998 Z" id="Combined-Shape"></path>
                <path d="M15.417993,9.67482815 L11.417993,9.67482815 C10.4514947,9.67482815 9.66799297,10.4583298 9.66799297,11.4248281 L9.66799297,15.4248281 C9.66799297,16.3913265 10.4514947,17.1748281 11.417993,17.1748281 L15.417993,17.1748281 C16.3844913,17.1748281 17.167993,16.3913265 17.167993,15.4248281 L17.167993,11.4248281 C17.167993,10.4583298 16.3844913,9.67482815 15.417993,9.67482815 Z M11.417993,11.1748281 L15.417993,11.1748281 C15.5560642,11.1748281 15.667993,11.286757 15.667993,11.4248281 L15.667993,15.4248281 C15.667993,15.5628993 15.5560642,15.6748281 15.417993,15.6748281 L11.417993,15.6748281 C11.2799218,15.6748281 11.167993,15.5628993 11.167993,15.4248281 L11.167993,11.4248281 C11.167993,11.286757 11.2799218,11.1748281 11.417993,11.1748281 Z" id="Rectangle" transform="translate(13.417993, 13.424828) rotate(-45.000000) translate(-13.417993, -13.424828) "></path>
            </g>
        </g>
    </g>
</svg>