<?xml version="1.0" encoding="UTF-8"?>
<svg focusable="false" aria-hidden="true" width="18px" height="18px" viewBox="0 0 18 18" version="1.1" xmlns="http://www.w3.org/2000/svg" xmlns:xlink="http://www.w3.org/1999/xlink">
    <path id="dataplanes-colored" fill="#5567D5" d="M13.563,13.674a2.75,2.75,0,1,1-3.5-1.7A2.75,2.75,0,0,1,13.563,13.674ZM7.32,12.807a2.75,2.75,0,1,1-3.5-1.7A2.75,2.75,0,0,1,7.32,12.807Zm3.235.581a1.25,1.25,0,1,0,1.589.775A1.25,1.25,0,0,0,10.556,13.388ZM17.55,9.129a2.75,2.75,0,1,1-3.5-1.7A2.75,2.75,0,0,1,17.55,9.129ZM11.528,7.765a2.75,2.75,0,1,1-3.5-1.7A2.75,2.75,0,0,1,11.528,7.765ZM5.351,6.719a2.75,2.75,0,1,1-3.5-1.7A2.75,2.75,0,0,1,5.351,6.719ZM2.344,6.432a1.25,1.25,0,1,0,1.589.775A1.25,1.25,0,0,0,2.344,6.432ZM15.82,3.057a2.75,2.75,0,1,1-3.5-1.7A2.75,2.75,0,0,1,15.82,3.057Zm-6.327-1.2A2.75,2.75,0,1,1,6,.151,2.75,2.75,0,0,1,9.493,1.855Zm3.32.915a1.25,1.25,0,1,0,1.589.775A1.25,1.25,0,0,0,12.813,2.771Zm-6.327-1.2a1.25,1.25,0,1,0,1.589.775A1.25,1.25,0,0,0,6.486,1.569Z" fill-rule="evenodd" />
</svg>
