<svg width="19" height="22" viewBox="0 0 19 22" fill="none" xmlns="http://www.w3.org/2000/svg">
    <g clip-path="url(#clip0_302_33178)">
    <path fill-rule="evenodd" clip-rule="evenodd" d="M10.4074 0.929967C9.78864 0.572701 9.02625 0.572701 8.40745 0.929967L1.74719 4.77527C1.12839 5.13253 0.747192 5.79279 0.747192 6.50732V14.1979C0.747192 14.9124 1.12839 15.5727 1.74719 15.93L8.40745 19.7753C9.02625 20.1325 9.78864 20.1325 10.4074 19.7753L17.0677 15.93C17.6865 15.5727 18.0677 14.9124 18.0677 14.1979V6.50732C18.0677 5.79279 17.6865 5.13253 17.0677 4.77527L10.4074 0.929967ZM4.77961 6.84431C4.41997 6.6388 3.96183 6.76375 3.75632 7.12339C3.55082 7.48303 3.67576 7.94117 4.0354 8.14667L8.65751 10.7879V15.9082C8.65751 16.3224 8.99329 16.6582 9.40751 16.6582C9.82172 16.6582 10.1575 16.3224 10.1575 15.9082V10.7879L14.7796 8.14667C15.1392 7.94117 15.2642 7.48303 15.0587 7.12339C14.8532 6.76375 14.395 6.6388 14.0354 6.84431L9.40751 9.48882L4.77961 6.84431Z" fill="#5567D5"/>
    </g>
    <defs>
    <clipPath id="clip0_302_33178">
    <rect width="19" height="21" fill="white" transform="translate(0 0.5)"/>
    </clipPath>
    </defs>
</svg>
