<?xml version="1.0" encoding="UTF-8"?>
<svg width="18px" height="18px" viewBox="0 0 18 18" version="1.1" xmlns="http://www.w3.org/2000/svg" xmlns:xlink="http://www.w3.org/1999/xlink">
    <title>4911A7CE-C326-4162-9E86-13DD80C61B49</title>
    <g id="Home" stroke="none" stroke-width="1" fill="none" fill-rule="evenodd">
        <g id="apps-UI-kit" transform="translate(-716.000000, -2531.000000)" fill="#5567D5">
            <g id="Icon/main/Integrations" transform="translate(716.000000, 2531.000000)">
                <path d="M8.25033758,0.0704807976 L8.24995586,10 L5.45,7.9 L5.35645724,7.84000784 C5.03498742,7.66586586 4.62593467,7.74875377 4.4,8.05 C4.15147186,8.38137085 4.21862915,8.85147186 4.55,9.1 L4.55,9.1 L9,12.4375 L13.45,9.1 L13.5337844,9.02699676 C13.7909723,8.76714548 13.8259347,8.35124623 13.6,8.05 L13.6,8.05 L13.5269968,7.96621555 C13.2671455,7.7090277 12.8512462,7.67406533 12.55,7.9 L12.55,7.9 L9.74995586,10 L9.7506584,0.0706700077 C10.1716152,0.150696415 10.5822163,0.298688988 10.9648719,0.514647726 L10.9648719,0.514647726 L15.5351281,3.09395627 C16.7509951,3.78015323 17.5,5.04829753 17.5,6.42069146 L17.5,6.42069146 L17.5,11.5793085 C17.5,12.9517025 16.7509951,14.2198468 15.5351281,14.9060437 L15.5351281,14.9060437 L10.9648719,17.4853523 C9.74900492,18.1715492 8.25099508,18.1715492 7.03512813,17.4853523 L7.03512813,17.4853523 L2.46487187,14.9060437 C1.24900492,14.2198468 0.5,12.9517025 0.5,11.5793085 L0.5,11.5793085 L0.5,6.42069146 C0.5,5.04829753 1.24900492,3.78015323 2.46487187,3.09395627 L2.46487187,3.09395627 L7.03512813,0.514647726 C7.41808548,0.298518673 7.8290325,0.150463031 8.25033758,0.0704807976 Z" id="Combined-Shape"></path>
            </g>
        </g>
    </g>
</svg>