<?xml version="1.0" encoding="UTF-8"?>
<svg focusable="false" aria-hidden="true" width="18px" height="18px" viewBox="0 0 18 18" version="1.1" xmlns="http://www.w3.org/2000/svg" xmlns:xlink="http://www.w3.org/1999/xlink">
  <path id="environments-white" fill="#FFFFFF" d="M8.75,0A8.75,8.75,0,1,1,0,8.75,8.75,8.75,0,0,1,8.75,0Zm0,1.5A7.25,7.25,0,1,0,16,8.75,7.25,7.25,0,0,0,8.75,1.5Zm0,2.5a4.753,4.753,0,0,1,4.72,5.29A2.751,2.751,0,0,1,11,13.25a2.762,2.762,0,0,1-.567-.058l.083-.031A4.75,4.75,0,1,1,8.75,4Zm0,1.5A3.25,3.25,0,0,0,8.694,12a2.752,2.752,0,0,1,3.192-4.1A3.249,3.249,0,0,0,8.75,5.5ZM11,9.25a1.25,1.25,0,1,0,1.25,1.25A1.25,1.25,0,0,0,11,9.25Z" fill-rule="evenodd" />
</svg>
