<?xml version="1.0" encoding="UTF-8"?>
<svg width="18px" height="18px" viewBox="0 0 18 18" version="1.1" xmlns="http://www.w3.org/2000/svg" xmlns:xlink="http://www.w3.org/1999/xlink">
    <title>61773922-5D32-437C-ABC0-4C30D25437D7</title>
    <g id="Home" stroke="none" stroke-width="1" fill="none" fill-rule="evenodd">
        <g id="apps-UI-kit" transform="translate(-216.000000, -2531.000000)" fill="#FFFFFF">
            <g id="Icon/main/Market" transform="translate(216.000000, 2531.000000)">
                <path d="M9,0.0924506169 L17.6723112,5.00146683 C18.0146178,5.23470286 18.103037,5.70127237 17.869801,6.043579 C17.6577682,6.35476685 17.2528979,6.45613037 16.9238574,6.29675461 L16.8276888,6.2410688 L16.2499272,5.92145062 L16.25,15.25 C16.25,16.7125318 15.1082954,17.9084043 13.6675223,17.9949812 L13.5,18 L4.5,18 C3.03746816,18 1.84159572,16.8582954 1.75501879,15.4175223 L1.75,15.25 L1.7499272,5.92045062 L1.17231119,6.2410688 C0.861123344,6.45310155 0.447238901,6.39930354 0.199325303,6.13058971 L0.130199017,6.043579 C-0.0818337377,5.73239116 -0.0280357301,5.31850671 0.240678101,5.07059312 L0.32768881,5.00146683 L9,0.0924506169 Z M9,1.907 L3.2499272,5.09045062 L3.25,15.25 C3.25,15.8972087 3.74187466,16.4295339 4.37219476,16.4935464 L4.5,16.5 L13.5,16.5 C14.1472087,16.5 14.6795339,16.0081253 14.7435464,15.3778052 L14.75,15.25 L14.7499272,5.09045062 L9,1.907 Z M11.8549513,7.34834957 C12.1478445,7.64124279 12.1478445,8.11611652 11.8549513,8.40900974 C11.5620581,8.70190296 11.0871843,8.70190296 10.7942911,8.40900974 C9.91561146,7.53033009 8.49099026,7.53033009 7.6123106,8.40900974 C6.73363094,9.2876894 6.73363094,10.7123106 7.6123106,11.5909903 C8.49099026,12.4696699 9.91561146,12.4696699 10.7942911,11.5909903 C11.0871843,11.298097 11.5620581,11.298097 11.8549513,11.5909903 C12.1478445,11.8838835 12.1478445,12.3587572 11.8549513,12.6516504 C10.3904852,14.1161165 8.01611652,14.1161165 6.55165043,12.6516504 C5.08718434,11.1871843 5.08718434,8.81281566 6.55165043,7.34834957 C8.01611652,5.88388348 10.3904852,5.88388348 11.8549513,7.34834957 Z" id="Combined-Shape"></path>
            </g>
        </g>
    </g>
</svg>