<?xml version="1.0" encoding="UTF-8"?>
<svg width="100px" height="33px" viewBox="0 0 100 33" version="1.1" xmlns="http://www.w3.org/2000/svg" xmlns:xlink="http://www.w3.org/1999/xlink">
    <title>long white beta</title>
    <defs>
        <path d="M27.1282051,0 C29.8786147,0 32.121615,2.17247701 32.2348323,4.89505726 L32.2393162,5.11111111 L32.2393162,18.4786325 C32.2393162,21.229042 30.0668392,23.4720423 27.344259,23.5852597 L27.1282051,23.5897436 L13.7606838,23.5897436 C11.0102742,23.5897436 8.76727391,21.4172666 8.65405654,18.6946863 L8.64957265,18.4786325 L8.649,13.389 L5.4027473,13.3890224 C3.35380131,13.3890224 1.66613031,11.8152649 1.57640153,9.82110788 L1.57264957,9.6539797 L1.57186011,5.23905188 C0.642477367,4.79718679 0,3.84969109 0,2.75213675 C0,1.23217359 1.23217359,0 2.75213675,0 C4.27209991,0 5.5042735,1.23217359 5.5042735,2.75213675 C5.5042735,3.84969109 4.86179614,4.79718679 3.93241339,5.23905188 L3.93162393,9.63247863 C3.93162393,10.34512 4.5175278,10.9456445 5.28081391,11.0039153 L5.4027473,11.008547 L8.649,11.008 L8.64957265,5.11111111 C8.64957265,2.36070159 10.8220497,0.117701258 13.5446299,0.00448388988 L13.7606838,0 L27.1282051,0 Z M27.1282051,2.35897436 L13.7606838,2.35897436 C12.2970155,2.35897436 11.1002139,3.50156606 11.0135697,4.94345861 L11.008547,5.11111111 L11.008547,18.4786325 C11.008547,19.9423007 12.1511387,21.1391023 13.5930313,21.2257465 L13.7606838,21.2307692 L27.1282051,21.2307692 C28.5918734,21.2307692 29.788675,20.0881775 29.8753192,18.646285 L29.8803419,18.4786325 L29.8803419,5.11111111 C29.8803419,3.59114795 28.6481683,2.35897436 27.1282051,2.35897436 Z M73.7178837,6.73109107 C75.3390837,6.73109107 76.6121732,7.21844568 77.5470984,8.20310089 C78.4820235,9.18775611 78.9494861,10.4210616 78.9494861,11.9129635 C78.9494861,12.1069107 78.9382969,12.3176419 78.9117224,12.5409609 L78.879864,12.7683205 L70.5550517,12.7683205 C70.6246738,13.6336236 70.9528922,14.3298445 71.549653,14.8569831 C72.1464137,15.3841218 72.9520407,15.6526641 73.9565879,15.6526641 C75.2904587,15.6526641 76.2339792,15.1647263 76.7787706,14.1804718 L76.8707696,14.0016261 L78.820188,14.5784948 C78.4521855,15.3841218 77.8454788,16.0703966 77.0000677,16.6373193 C76.2251076,17.1569985 75.2913566,17.44267 74.1988148,17.4866731 L73.8969119,17.4926764 L73.9168039,17.5125684 C72.2956039,17.5125684 70.9827303,17.0152678 69.968237,16.0206666 C68.9537438,15.0260653 68.4464971,13.7231377 68.4464971,12.1218297 C68.4464971,10.5801978 68.9338517,9.29716225 69.9085609,8.27272298 C70.8832701,7.24828371 72.1563597,6.73109107 73.7178837,6.73109107 Z M53.0896735,6.72114506 C54.6511975,6.72114506 55.9541251,7.22839169 56.9885103,8.25283096 C58.0228956,9.27727022 58.5400883,10.5603058 58.5400883,12.1019377 C58.5400883,13.6435696 58.0228956,14.9266052 56.9885103,15.9510445 C56.0187741,16.9114563 54.821756,17.4260459 53.3892607,17.486618 L53.0996195,17.4926764 L53.0896735,17.4926764 C51.5281496,17.4926764 50.235168,16.9754837 49.2007827,15.9510445 C48.1663974,14.9266052 47.6492048,13.6435696 47.6492048,12.1019377 C47.6492048,10.5702518 48.1663974,9.28721623 49.2007827,8.26277697 C50.235168,7.2383377 51.5281496,6.72114506 53.0896735,6.72114506 Z M86.4854401,6.72114506 C88.046964,6.72114506 89.3498916,7.22839169 90.3842769,8.25283095 C91.4186622,9.27727022 91.9358548,10.5603058 91.9358548,12.1019377 C91.9358548,13.6435696 91.4186622,14.9266052 90.3842769,15.9510445 C89.4145407,16.9114563 88.2175226,17.4260459 86.7850273,17.486618 L86.4953861,17.4926764 L86.4854401,17.4926764 C84.9239162,17.4926764 83.6309346,16.9754837 82.5965493,15.9510445 C81.562164,14.9266052 81.0449714,13.6435696 81.0449714,12.1019377 C81.0449714,10.5702518 81.562164,9.28721623 82.5965493,8.26277697 C83.6309346,7.2383377 84.9239162,6.72114506 86.4854401,6.72114506 Z M20.7065527,6.29059829 C22.0866329,6.29059829 23.242049,6.62572933 24.183499,7.29599142 C25.1249491,7.96625351 25.7133554,8.72791497 25.9487179,9.5911313 C26.0348672,10.1956603 25.7952881,10.5914307 25.2299805,10.7784424 C24.6646729,10.9654541 24.1945983,10.762638 23.819757,10.169994 C23.6592825,9.65206421 23.2955404,9.20522282 22.7285307,8.81931435 C22.161521,8.43340587 21.4982266,8.24045164 20.7386476,8.24045164 C19.6902145,8.24045164 18.8343508,8.58573817 18.1710565,9.26615574 C17.5077621,9.94657331 17.1761149,10.7793232 17.1761149,11.7644053 C17.1761149,12.7291765 17.5077621,13.5619264 18.1710565,14.2626549 C18.8343508,14.9633835 19.6902145,15.30867 20.7279493,15.30867 C21.4875283,15.30867 22.1508227,15.1258713 22.7178324,14.7602738 C23.2848421,14.3946763 23.6485842,13.9579903 23.8090587,13.4400606 C24.1516442,12.9341217 24.5822977,12.744222 25.1010192,12.8703613 C25.6197407,12.9965007 25.8987408,13.3725843 25.9380197,13.9986123 C25.7026571,14.8415176 25.1249491,15.5930236 24.1941973,16.2632857 C23.2634455,16.9335478 22.1080295,17.2991453 20.7279493,17.2991453 C19.0697134,17.2991453 17.6896331,16.77106 16.5877086,15.7148895 C15.4857841,14.6587189 14.9401709,13.3486612 14.9401709,11.7847163 C14.9401709,10.2207714 15.4857841,8.91071372 16.5770103,7.86469865 C17.6682365,6.81868357 19.0483168,6.29059829 20.7065527,6.29059829 Z M37.6349288,2.35484566 L37.6349288,8.50148126 C38.4306098,7.37816693 39.5170309,6.78347111 40.8941923,6.7173938 L41.1558171,6.71119905 L41.1558171,6.69130702 C42.4587447,6.69130702 43.463292,7.08914752 44.1694589,7.89477451 C44.8251852,8.64285672 45.1721793,9.64821589 45.2184043,10.910852 L45.2237362,11.2067966 L45.2237362,17.214188 L43.1052355,17.214188 L43.1052355,11.5946911 C43.1052355,10.689604 42.8963693,9.9834371 42.4686907,9.47619047 C42.0410122,8.96894384 41.4144134,8.71034752 40.5888944,8.71034752 C39.6937533,8.71034752 38.9776404,9.0186739 38.4405558,9.64527268 C37.9482282,10.2196549 37.6815507,10.9611854 37.6405234,11.8775251 L37.6349288,12.1317758 L37.6349288,17.2241341 L35.4965361,17.2241341 L35.4965361,2.35484566 L37.6349288,2.35484566 Z M66.5023712,6.84195705 L66.7705315,6.87033524 L66.7705315,8.85953771 C65.6466321,8.6904555 64.7813291,8.90926777 64.1746223,9.51597452 C63.6083627,10.0822342 63.3106896,11.0123852 63.2735166,12.3145142 L63.2695352,12.5992383 L63.2695352,17.2241341 L61.1311426,17.2241341 L61.1311426,6.97974138 L63.2695352,6.97974138 L63.2690249,8.60317949 L63.3565628,8.43464406 C63.6609108,7.89039827 64.0861028,7.47505279 64.6321389,7.18860764 C65.1714338,6.90569884 65.797173,6.78782018 66.5023712,6.84195705 Z M53.0896735,8.66061746 C52.1149643,8.66061746 51.3093373,8.98883587 50.6827385,9.64527268 C50.0561398,10.3017095 49.7378674,11.1272285 49.7378674,12.1218297 C49.7378674,13.0965389 50.0561398,13.912112 50.6827385,14.5685488 C51.3093373,15.2249856 52.1149643,15.553204 53.0896735,15.553204 C54.0643827,15.553204 54.8700097,15.2249856 55.5065545,14.5685488 C56.1430993,13.912112 56.4613717,13.0965389 56.4613717,12.1218297 C56.4613717,11.1272285 56.1430993,10.3017095 55.5065545,9.64527268 C54.8700097,8.98883587 54.0643827,8.66061746 53.0896735,8.66061746 Z M86.4854401,8.66061746 C85.5107309,8.66061746 84.7051039,8.98883587 84.0785051,9.64527268 C83.4519063,10.3017095 83.1336339,11.1272285 83.1336339,12.1218297 C83.1336339,13.0965389 83.4519063,13.912112 84.0785051,14.5685488 C84.7051039,15.2249856 85.5107309,15.553204 86.4854401,15.553204 C87.4601493,15.553204 88.2657763,15.2249856 88.9023211,14.5685488 C89.5388659,13.912112 89.8571383,13.0965389 89.8571383,12.1218297 C89.8571383,11.1272285 89.5388659,10.3017095 88.9023211,9.64527268 C88.2657763,8.98883587 87.4601493,8.66061746 86.4854401,8.66061746 Z M73.7278297,8.58104936 C72.8426346,8.58104936 72.1165757,8.84959169 71.539707,9.38667636 C71.0205251,9.87005256 70.70275,10.450104 70.5863817,11.1268307 L70.5550517,11.3559868 L76.8508775,11.3559868 C76.7812554,10.5404138 76.4729291,9.87403096 75.9258984,9.35683832 C75.3788677,8.83964568 74.6428628,8.58104936 73.7278297,8.58104936 Z" id="path-1"></path>
    </defs>
    <g id="Page-1" stroke="none" stroke-width="1" fill="none" fill-rule="evenodd">
        <g id="long-white-beta">
            <g id="Logo/Black-Copy" transform="translate(0.000000, 9.000000)">
                <g id="Combined-Shape" fill="#222228" fill-rule="nonzero">
                    <path d="M27.1282051,0 C29.8786147,0 32.121615,2.17247701 32.2348323,4.89505726 L32.2393162,5.11111111 L32.2393162,18.4786325 C32.2393162,21.229042 30.0668392,23.4720423 27.344259,23.5852597 L27.1282051,23.5897436 L13.7606838,23.5897436 C11.0102742,23.5897436 8.76727391,21.4172666 8.65405654,18.6946863 L8.64957265,18.4786325 L8.649,13.389 L5.4027473,13.3890224 C3.35380131,13.3890224 1.66613031,11.8152649 1.57640153,9.82110788 L1.57264957,9.6539797 L1.57186011,5.23905188 C0.642477367,4.79718679 0,3.84969109 0,2.75213675 C0,1.23217359 1.23217359,0 2.75213675,0 C4.27209991,0 5.5042735,1.23217359 5.5042735,2.75213675 C5.5042735,3.84969109 4.86179614,4.79718679 3.93241339,5.23905188 L3.93162393,9.63247863 C3.93162393,10.34512 4.5175278,10.9456445 5.28081391,11.0039153 L5.4027473,11.008547 L8.649,11.008 L8.64957265,5.11111111 C8.64957265,2.36070159 10.8220497,0.117701258 13.5446299,0.00448388988 L13.7606838,0 L27.1282051,0 Z M27.1282051,2.35897436 L13.7606838,2.35897436 C12.2970155,2.35897436 11.1002139,3.50156606 11.0135697,4.94345861 L11.008547,5.11111111 L11.008547,18.4786325 C11.008547,19.9423007 12.1511387,21.1391023 13.5930313,21.2257465 L13.7606838,21.2307692 L27.1282051,21.2307692 C28.5918734,21.2307692 29.788675,20.0881775 29.8753192,18.646285 L29.8803419,18.4786325 L29.8803419,5.11111111 C29.8803419,3.59114795 28.6481683,2.35897436 27.1282051,2.35897436 Z M73.7178837,6.73109107 C75.3390837,6.73109107 76.6121732,7.21844568 77.5470984,8.20310089 C78.4820235,9.18775611 78.9494861,10.4210616 78.9494861,11.9129635 C78.9494861,12.1069107 78.9382969,12.3176419 78.9117224,12.5409609 L78.879864,12.7683205 L70.5550517,12.7683205 C70.6246738,13.6336236 70.9528922,14.3298445 71.549653,14.8569831 C72.1464137,15.3841218 72.9520407,15.6526641 73.9565879,15.6526641 C75.2904587,15.6526641 76.2339792,15.1647263 76.7787706,14.1804718 L76.8707696,14.0016261 L78.820188,14.5784948 C78.4521855,15.3841218 77.8454788,16.0703966 77.0000677,16.6373193 C76.2251076,17.1569985 75.2913566,17.44267 74.1988148,17.4866731 L73.8969119,17.4926764 L73.9168039,17.5125684 C72.2956039,17.5125684 70.9827303,17.0152678 69.968237,16.0206666 C68.9537438,15.0260653 68.4464971,13.7231377 68.4464971,12.1218297 C68.4464971,10.5801978 68.9338517,9.29716225 69.9085609,8.27272298 C70.8832701,7.24828371 72.1563597,6.73109107 73.7178837,6.73109107 Z M53.0896735,6.72114506 C54.6511975,6.72114506 55.9541251,7.22839169 56.9885103,8.25283096 C58.0228956,9.27727022 58.5400883,10.5603058 58.5400883,12.1019377 C58.5400883,13.6435696 58.0228956,14.9266052 56.9885103,15.9510445 C56.0187741,16.9114563 54.821756,17.4260459 53.3892607,17.486618 L53.0996195,17.4926764 L53.0896735,17.4926764 C51.5281496,17.4926764 50.235168,16.9754837 49.2007827,15.9510445 C48.1663974,14.9266052 47.6492048,13.6435696 47.6492048,12.1019377 C47.6492048,10.5702518 48.1663974,9.28721623 49.2007827,8.26277697 C50.235168,7.2383377 51.5281496,6.72114506 53.0896735,6.72114506 Z M86.4854401,6.72114506 C88.046964,6.72114506 89.3498916,7.22839169 90.3842769,8.25283095 C91.4186622,9.27727022 91.9358548,10.5603058 91.9358548,12.1019377 C91.9358548,13.6435696 91.4186622,14.9266052 90.3842769,15.9510445 C89.4145407,16.9114563 88.2175226,17.4260459 86.7850273,17.486618 L86.4953861,17.4926764 L86.4854401,17.4926764 C84.9239162,17.4926764 83.6309346,16.9754837 82.5965493,15.9510445 C81.562164,14.9266052 81.0449714,13.6435696 81.0449714,12.1019377 C81.0449714,10.5702518 81.562164,9.28721623 82.5965493,8.26277697 C83.6309346,7.2383377 84.9239162,6.72114506 86.4854401,6.72114506 Z M20.7065527,6.29059829 C22.0866329,6.29059829 23.242049,6.62572933 24.183499,7.29599142 C25.1249491,7.96625351 25.7133554,8.72791497 25.9487179,9.5911313 C26.0348672,10.1956603 25.7952881,10.5914307 25.2299805,10.7784424 C24.6646729,10.9654541 24.1945983,10.762638 23.819757,10.169994 C23.6592825,9.65206421 23.2955404,9.20522282 22.7285307,8.81931435 C22.161521,8.43340587 21.4982266,8.24045164 20.7386476,8.24045164 C19.6902145,8.24045164 18.8343508,8.58573817 18.1710565,9.26615574 C17.5077621,9.94657331 17.1761149,10.7793232 17.1761149,11.7644053 C17.1761149,12.7291765 17.5077621,13.5619264 18.1710565,14.2626549 C18.8343508,14.9633835 19.6902145,15.30867 20.7279493,15.30867 C21.4875283,15.30867 22.1508227,15.1258713 22.7178324,14.7602738 C23.2848421,14.3946763 23.6485842,13.9579903 23.8090587,13.4400606 C24.1516442,12.9341217 24.5822977,12.744222 25.1010192,12.8703613 C25.6197407,12.9965007 25.8987408,13.3725843 25.9380197,13.9986123 C25.7026571,14.8415176 25.1249491,15.5930236 24.1941973,16.2632857 C23.2634455,16.9335478 22.1080295,17.2991453 20.7279493,17.2991453 C19.0697134,17.2991453 17.6896331,16.77106 16.5877086,15.7148895 C15.4857841,14.6587189 14.9401709,13.3486612 14.9401709,11.7847163 C14.9401709,10.2207714 15.4857841,8.91071372 16.5770103,7.86469865 C17.6682365,6.81868357 19.0483168,6.29059829 20.7065527,6.29059829 Z M37.6349288,2.35484566 L37.6349288,8.50148126 C38.4306098,7.37816693 39.5170309,6.78347111 40.8941923,6.7173938 L41.1558171,6.71119905 L41.1558171,6.69130702 C42.4587447,6.69130702 43.463292,7.08914752 44.1694589,7.89477451 C44.8251852,8.64285672 45.1721793,9.64821589 45.2184043,10.910852 L45.2237362,11.2067966 L45.2237362,17.214188 L43.1052355,17.214188 L43.1052355,11.5946911 C43.1052355,10.689604 42.8963693,9.9834371 42.4686907,9.47619047 C42.0410122,8.96894384 41.4144134,8.71034752 40.5888944,8.71034752 C39.6937533,8.71034752 38.9776404,9.0186739 38.4405558,9.64527268 C37.9482282,10.2196549 37.6815507,10.9611854 37.6405234,11.8775251 L37.6349288,12.1317758 L37.6349288,17.2241341 L35.4965361,17.2241341 L35.4965361,2.35484566 L37.6349288,2.35484566 Z M66.5023712,6.84195705 L66.7705315,6.87033524 L66.7705315,8.85953771 C65.6466321,8.6904555 64.7813291,8.90926777 64.1746223,9.51597452 C63.6083627,10.0822342 63.3106896,11.0123852 63.2735166,12.3145142 L63.2695352,12.5992383 L63.2695352,17.2241341 L61.1311426,17.2241341 L61.1311426,6.97974138 L63.2695352,6.97974138 L63.2690249,8.60317949 L63.3565628,8.43464406 C63.6609108,7.89039827 64.0861028,7.47505279 64.6321389,7.18860764 C65.1714338,6.90569884 65.797173,6.78782018 66.5023712,6.84195705 Z M53.0896735,8.66061746 C52.1149643,8.66061746 51.3093373,8.98883587 50.6827385,9.64527268 C50.0561398,10.3017095 49.7378674,11.1272285 49.7378674,12.1218297 C49.7378674,13.0965389 50.0561398,13.912112 50.6827385,14.5685488 C51.3093373,15.2249856 52.1149643,15.553204 53.0896735,15.553204 C54.0643827,15.553204 54.8700097,15.2249856 55.5065545,14.5685488 C56.1430993,13.912112 56.4613717,13.0965389 56.4613717,12.1218297 C56.4613717,11.1272285 56.1430993,10.3017095 55.5065545,9.64527268 C54.8700097,8.98883587 54.0643827,8.66061746 53.0896735,8.66061746 Z M86.4854401,8.66061746 C85.5107309,8.66061746 84.7051039,8.98883587 84.0785051,9.64527268 C83.4519063,10.3017095 83.1336339,11.1272285 83.1336339,12.1218297 C83.1336339,13.0965389 83.4519063,13.912112 84.0785051,14.5685488 C84.7051039,15.2249856 85.5107309,15.553204 86.4854401,15.553204 C87.4601493,15.553204 88.2657763,15.2249856 88.9023211,14.5685488 C89.5388659,13.912112 89.8571383,13.0965389 89.8571383,12.1218297 C89.8571383,11.1272285 89.5388659,10.3017095 88.9023211,9.64527268 C88.2657763,8.98883587 87.4601493,8.66061746 86.4854401,8.66061746 Z M73.7278297,8.58104936 C72.8426346,8.58104936 72.1165757,8.84959169 71.539707,9.38667636 C71.0205251,9.87005256 70.70275,10.450104 70.5863817,11.1268307 L70.5550517,11.3559868 L76.8508775,11.3559868 C76.7812554,10.5404138 76.4729291,9.87403096 75.9258984,9.35683832 C75.3788677,8.83964568 74.6428628,8.58104936 73.7278297,8.58104936 Z" id="path-1"></path>
                </g>
                <g id="Color-Clipped">
                    <mask id="mask-2" fill="white">
                        <use xlink:href="#path-1"></use>
                    </mask>
                    <g id="path-1"></g>
                    <rect id="Color" fill="#FFFFFF" fill-rule="nonzero" mask="url(#mask-2)" x="0" y="0" width="92" height="24"></rect>
                </g>
            </g>
            <rect id="Rectangle" fill="#FFFFFF" fill-rule="nonzero" x="73" y="0" width="27" height="12" rx="2"></rect>
            <g id="beta" transform="translate(75.200000, 1.500000)" fill="#5567D5" fill-rule="nonzero">
                <path d="M3.54980469,8.13183594 C4.26269531,8.13183594 4.85839844,7.87792969 5.33691406,7.375 C5.81542969,6.87207031 6.0546875,6.2421875 6.0546875,5.48535156 C6.0546875,4.72851562 5.81542969,4.09863281 5.33691406,3.59570312 C4.85839844,3.09277344 4.26269531,2.84375 3.54980469,2.84375 L3.54980469,2.83886719 C2.76855469,2.83886719 2.16796875,3.13671875 1.74804688,3.73242188 L1.74804688,0.700195312 L0.698242188,0.700195312 L0.698242188,8 L1.74804688,8 L1.74804688,7.23828125 C2.16796875,7.83398438 2.76855469,8.13183594 3.54980469,8.13183594 Z M3.37890625,7.19433594 C2.91503906,7.19433594 2.51953125,7.03320312 2.19726562,6.7109375 C1.875,6.38867188 1.71386719,5.97851562 1.71386719,5.48535156 C1.71386719,4.99707031 1.875,4.59179688 2.19726562,4.26953125 C2.51953125,3.94726562 2.91015625,3.78613281 3.37402344,3.78613281 C3.85742188,3.78613281 4.25292969,3.94726562 4.56054688,4.26464844 C4.86816406,4.58203125 5.01953125,4.98730469 5.01953125,5.48046875 C5.01953125,5.97363281 4.86328125,6.38378906 4.55566406,6.70605469 C4.24804688,7.02832031 3.85253906,7.18945312 3.37402344,7.18945312 L3.37890625,7.19433594 Z M9.51660156,8.14160156 L9.50683594,8.13183594 C10.1074219,8.13183594 10.6152344,7.99023438 11.0302734,7.71191406 C11.4453125,7.43359375 11.7431641,7.09667969 11.9238281,6.70117188 L10.9667969,6.41796875 C10.7080078,6.95996094 10.2294922,7.22851562 9.53613281,7.22851562 C9.04296875,7.22851562 8.64746094,7.09667969 8.35449219,6.83789062 C8.06152344,6.57910156 7.90039062,6.23730469 7.86621094,5.8125 L11.953125,5.8125 C11.9775391,5.66113281 11.9873047,5.51953125 11.9873047,5.39257812 C11.9873047,4.66015625 11.7578125,4.0546875 11.2988281,3.57128906 C10.8398438,3.08789062 10.2148438,2.84863281 9.41894531,2.84863281 C8.65234375,2.84863281 8.02734375,3.10253906 7.54882812,3.60546875 C7.0703125,4.10839844 6.83105469,4.73828125 6.83105469,5.49511719 C6.83105469,6.28125 7.08007812,6.92089844 7.578125,7.40917969 C8.07617188,7.89746094 8.72070312,8.14160156 9.51660156,8.14160156 Z M10.9570312,5.11914062 L7.86621094,5.11914062 C7.90527344,4.73828125 8.06640625,4.41601562 8.34960938,4.15234375 C8.6328125,3.88867188 8.98925781,3.75683594 9.42382812,3.75683594 C9.87304688,3.75683594 10.234375,3.88378906 10.5029297,4.13769531 C10.7714844,4.39160156 10.9228516,4.71875 10.9570312,5.11914062 Z M14.8730469,8.078125 C15.2294922,8.078125 15.6005859,8 15.9814453,7.83886719 L15.7226562,6.97949219 C15.5029297,7.08691406 15.2832031,7.140625 15.0634766,7.140625 C14.5800781,7.140625 14.3408203,6.88183594 14.3408203,6.36914062 L14.3408203,3.8984375 L15.9423828,3.8984375 L15.9423828,2.97070312 L14.3408203,2.97070312 L14.3408203,1.29101562 L13.3007812,1.29101562 L13.3007812,2.97070312 L12.3828125,2.97070312 L12.3828125,3.8984375 L13.3007812,3.8984375 L13.3007812,6.36914062 C13.3007812,6.90136719 13.4326172,7.32128906 13.6914062,7.62402344 C13.9501953,7.92675781 14.3457031,8.078125 14.8730469,8.078125 Z M18.9208984,8.13183594 C19.7070312,8.13183594 20.3125,7.83398438 20.7324219,7.23828125 L20.7324219,8 L21.7724609,8 L21.7724609,2.97070312 L20.7324219,2.97070312 L20.7324219,3.73242188 C20.3125,3.13671875 19.7070312,2.83886719 18.9208984,2.83886719 C18.2080078,2.83886719 17.6123047,3.09277344 17.1337891,3.59570312 C16.6552734,4.09863281 16.4160156,4.72851562 16.4160156,5.48046875 C16.4160156,6.23730469 16.6552734,6.8671875 17.1337891,7.37011719 C17.6123047,7.87304688 18.2080078,8.12695312 18.9208984,8.12695312 L18.9208984,8.13183594 Z M19.0771484,7.18945312 L19.0917969,7.18457031 C18.6132812,7.18457031 18.2177734,7.0234375 17.9101562,6.70117188 C17.6025391,6.37890625 17.4462891,5.96875 17.4462891,5.47558594 C17.4462891,4.98242188 17.5976562,4.57714844 17.9052734,4.25976562 C18.2128906,3.94238281 18.6035156,3.78125 19.0820312,3.78125 C19.5458984,3.78125 19.9365234,3.94238281 20.2587891,4.26464844 C20.5810547,4.58691406 20.7421875,4.9921875 20.7421875,5.48046875 C20.7421875,5.97363281 20.5810547,6.38378906 20.2587891,6.70605469 C19.9365234,7.02832031 19.5410156,7.18945312 19.0771484,7.18945312 Z"></path>
            </g>
        </g>
    </g>
</svg>
