<?xml version="1.0" encoding="UTF-8"?>
<svg width="18px" height="18px" viewBox="0 0 18 18" version="1.1" xmlns="http://www.w3.org/2000/svg" xmlns:xlink="http://www.w3.org/1999/xlink">
    <title>AE3A7DC7-B43F-49AB-AE38-BFE607A72DE8</title>
    <g id="Home" stroke="none" stroke-width="1" fill="none" fill-rule="evenodd">
        <g id="new-dashboard-+" transform="translate(-26.000000, -170.000000)" fill="#FFFFFF">
            <g id="Icon/main/Market" transform="translate(26.000000, 170.000000)">
                <path d="M13.7171694,-4.4408921e-14 C14.3022875,-4.4408921e-14 14.8486923,0.292426987 15.1732574,0.779274657 L15.1732574,0.779274657 L17.0023532,3.52291827 L18.0023532,15.2540655 C18.0023532,16.7728486 16.7711363,18.0040655 15.2523532,18.0040655 L15.2523532,18.0040655 L2.75,18.0040655 C1.23121694,18.0040655 1.61648472e-13,16.7728486 1.61648472e-13,15.2540655 L1.61648472e-13,15.2540655 L1,3.52291827 L2.82909574,0.779274657 C3.15366086,0.292426987 3.70006568,-4.4408921e-14 4.28518376,-4.4408921e-14 L4.28518376,-4.4408921e-14 Z M15.548,4.5 L2.453,4.5 L1.5,15.2540655 C1.5,15.858127 1.92847749,16.3621121 2.4980814,16.47867 L2.62219476,16.4976119 L2.75,16.5040655 L15.2523532,16.5040655 C15.9427091,16.5040655 16.5023532,15.9444215 16.5023532,15.2540655 L16.5023532,15.2540655 L15.548,4.5 Z M12,6.75 C12.4142136,6.75 12.75,7.08578644 12.75,7.5 C12.75,9.57106781 11.0710678,11.25 9,11.25 C6.92893219,11.25 5.25,9.57106781 5.25,7.5 C5.25,7.08578644 5.58578644,6.75 6,6.75 C6.41421356,6.75 6.75,7.08578644 6.75,7.5 C6.75,8.74264069 7.75735931,9.75 9,9.75 C10.190864,9.75 11.1656449,8.82483841 11.2448092,7.65404881 L11.25,7.5 C11.25,7.08578644 11.5857864,6.75 12,6.75 Z M13.7171694,1.5 L4.28518376,1.5 C4.20159546,1.5 4.12353763,1.54177528 4.07717118,1.61132495 L4.07717118,1.61132495 L3.15,3 L14.851,3 L13.925182,1.61132495 C13.9019988,1.57655012 13.8708927,1.54871888 13.8351339,1.52958135 L13.7784149,1.5076141 L13.7171694,1.5 Z" id="Combined-Shape"></path>
            </g>
        </g>
    </g>
</svg>