<svg width="20" height="22" viewBox="0 0 20 22" fill="none" xmlns="http://www.w3.org/2000/svg">
<path d="M2.03923 5.24458L2.28791 5.67835L2.03923 5.24458ZM2.03923 16.7554L2.28791 16.3217L2.28791 16.3217L2.03923 16.7554ZM11.0392 20.7235L11.2879 21.1573L11.2879 21.1573L11.0392 20.7235ZM8.96077 20.7235L8.71209 21.1573L8.71209 21.1573L8.96077 20.7235ZM17.9608 16.7554L17.7121 16.3217L17.7121 16.3217L17.9608 16.7554ZM17.9608 5.24458L17.7121 5.67835L17.7121 5.67835L17.9608 5.24458ZM11.0392 1.2765L11.2879 0.842732L11.2879 0.842732L11.0392 1.2765ZM8.96077 1.2765L8.71209 0.842732L8.96077 1.2765ZM9.5 16.733C9.5 17.0091 9.72386 17.233 10 17.233C10.2761 17.233 10.5 17.0091 10.5 16.733H9.5ZM5.0506 7.61679C4.81043 7.48051 4.50525 7.56474 4.36898 7.80491C4.2327 8.04508 4.31692 8.35026 4.5571 8.48653L5.0506 7.61679ZM15.4429 8.48653C15.6831 8.35026 15.7673 8.04508 15.631 7.80491C15.4947 7.56474 15.1896 7.48051 14.9494 7.61679L15.4429 8.48653ZM10.7906 1.71028L17.7121 5.67835L18.2094 4.8108L11.2879 0.842732L10.7906 1.71028ZM18.5 7.03193V14.9681H19.5V7.03193H18.5ZM17.7121 16.3217L10.7906 20.2897L11.2879 21.1573L18.2094 17.1892L17.7121 16.3217ZM9.20945 20.2897L2.28791 16.3217L1.79055 17.1892L8.71209 21.1573L9.20945 20.2897ZM1.5 14.9681V7.03193H0.5V14.9681H1.5ZM2.28791 5.67835L9.20945 1.71028L8.71209 0.842732L1.79055 4.8108L2.28791 5.67835ZM1.5 7.03193C1.5 6.47494 1.79925 5.9585 2.28791 5.67835L1.79055 4.8108C0.993056 5.268 0.5 6.11423 0.5 7.03193H1.5ZM2.28791 16.3217C1.79925 16.0415 1.5 15.5251 1.5 14.9681H0.5C0.5 15.8858 0.993056 16.732 1.79055 17.1892L2.28791 16.3217ZM10.7906 20.2897C10.3015 20.5701 9.6985 20.5701 9.20945 20.2897L8.71209 21.1573C9.5092 21.6142 10.4908 21.6142 11.2879 21.1573L10.7906 20.2897ZM18.5 14.9681C18.5 15.5251 18.2008 16.0415 17.7121 16.3217L18.2094 17.1892C19.0069 16.732 19.5 15.8858 19.5 14.9681H18.5ZM17.7121 5.67835C18.2008 5.9585 18.5 6.47494 18.5 7.03193H19.5C19.5 6.11422 19.0069 5.268 18.2094 4.8108L17.7121 5.67835ZM11.2879 0.842732C10.4908 0.385756 9.5092 0.385756 8.71209 0.842732L9.20945 1.71028C9.6985 1.42991 10.3015 1.42991 10.7906 1.71028L11.2879 0.842732ZM9.5 11V16.733H10.5V11H9.5ZM10.2468 10.5652L5.0506 7.61679L4.5571 8.48653L9.75325 11.4349L10.2468 10.5652ZM10.2468 11.4349L15.4429 8.48653L14.9494 7.61679L9.75325 10.5652L10.2468 11.4349Z" fill="white"/>
</svg>
