<?xml version="1.0" encoding="UTF-8"?>
<svg width="18px" height="20px" viewBox="0 0 18 20" version="1.1" xmlns="http://www.w3.org/2000/svg" xmlns:xlink="http://www.w3.org/1999/xlink">
    <title>87C280A6-C7FF-4F24-A1BA-2C999010535A</title>
    <g id="Home" stroke="none" stroke-width="1" fill="none" fill-rule="evenodd">
        <g id="new-home-rewamp" transform="translate(-168.000000, -359.000000)" fill="#5567D5" fill-rule="nonzero">
            <g id="Icon/main/APIs" transform="translate(168.000000, 359.000000)">
                <path d="M4.06117597,11.1929778 C4.25952031,11.5669391 4.11795164,12.0293767 3.74497349,12.2258612 L1.68773914,13.3169944 C1.64250846,13.3408219 1.60557241,13.3777579 1.58174494,13.4229886 C1.52560653,13.5295538 1.55282105,13.6582015 1.64024147,13.7344181 L1.68886167,13.7678122 L8.41364151,17.3345506 C8.74539524,17.5105086 9.13468074,17.530937 9.47853019,17.3955795 L9.60514281,17.3375174 L16.3122435,13.8042245 C16.3574742,13.780397 16.3944103,13.743461 16.4182377,13.6982303 C16.4837326,13.5739043 16.4357748,13.4195215 16.3141904,13.3550258 L14.2484654,12.2673551 C13.8745042,12.0690108 13.7306308,11.6058624 13.9271153,11.2328843 C14.1235997,10.8599061 14.5860373,10.7183374 14.9599986,10.9166818 L17.0226542,12.0027333 C17.8952305,12.4655368 18.230935,13.5462164 17.7724713,14.4164987 C17.6334777,14.6803443 17.4307619,14.9038688 17.1838248,15.0675712 L17.0305119,15.158458 L10.3234112,18.691751 C9.55907478,19.0944025 8.65331468,19.1191175 7.86836675,18.7665489 L7.70210835,18.6852239 L0.977328512,15.1184856 C0.104752218,14.6556821 -0.230952342,13.5750025 0.227511392,12.7047202 C0.394303663,12.3881055 0.652856023,12.1295531 0.966636004,11.9642618 L3.0267051,10.8716276 C3.39968325,10.6751432 3.86283163,10.8190165 4.06117597,11.1929778 Z M7.6765888,1.30824921 C8.49552067,0.876836839 9.47680117,0.879280232 10.2978916,1.31477626 L10.2978916,1.31477626 L17.0226715,4.88151466 C17.8952478,5.34431812 18.2309523,6.42499767 17.7724886,7.29528001 C17.6056963,7.61189473 17.347144,7.87044709 17.0305293,8.03723936 L17.0305293,8.03723936 L10.3234285,11.5705323 C9.50449665,12.0019447 8.52321615,11.9995013 7.70212567,11.5640053 L7.70212567,11.5640053 L0.977345834,7.99726687 C0.10476954,7.53446341 -0.23093502,6.45378385 0.227528714,5.58350152 C0.394320985,5.2668868 0.652873345,5.00833444 0.969488067,4.84154216 L0.969488067,4.84154216 Z" id="Combined-Shape"></path>
            </g>
        </g>
    </g>
</svg>