<?xml version="1.0" encoding="UTF-8"?>
<svg width="18px" height="18px" viewBox="0 0 18 18" version="1.1" xmlns="http://www.w3.org/2000/svg" xmlns:xlink="http://www.w3.org/1999/xlink">
    <title>2928B00C-C689-459E-A429-FA8ADC6BA48F</title>
    <g id="Home" stroke="none" stroke-width="1" fill="none" fill-rule="evenodd">
        <g id="new-insights-comingsoon" transform="translate(-27.000000, -495.000000)" fill="#5567D5" fill-rule="nonzero">
            <g id="Icon/main/Insight" transform="translate(27.000000, 495.000000)">
                <path d="M9,0 C9.38235098,0 9.69230769,0.309956712 9.69230769,0.692307692 C9.69230769,1.07465867 9.38235098,1.38461538 9,1.38461538 C4.79413921,1.38461538 1.38461538,4.79413921 1.38461538,9 C1.38461538,13.2058608 4.79413921,16.6153846 9,16.6153846 C13.2058608,16.6153846 16.6153846,13.2058608 16.6153846,9 C16.6153846,8.61764902 16.9253413,8.30769231 17.3076923,8.30769231 C17.6900433,8.30769231 18,8.61764902 18,9 C18,13.9705627 13.9705627,18 9,18 C4.02943725,18 0,13.9705627 0,9 C0,4.02943725 4.02943725,0 9,0 Z M9,3.69 C9.36871441,3.69 9.72865145,3.72758041 10.0761898,3.79911987 L10.076,5.529 L7.80330511,7.8034104 L7.68647771,7.93464495 L7.59167655,8.0734801 C7.18238511,8.73164267 7.23543145,9.52467449 7.69798941,10.0811529 L7.80335775,10.1966422 L7.92408028,10.306409 L8.0523249,10.4024549 C8.6667912,10.8186538 9.49421631,10.7866385 10.0759197,10.306409 L10.1966422,10.1966422 L12.464,7.927 L14.2019136,7.92884302 C14.2727815,8.27482305 14.31,8.6330651 14.31,9 C14.31,11.932632 11.932632,14.31 9,14.31 C6.06736798,14.31 3.69,11.932632 3.69,9 C3.69,6.06736798 6.06736798,3.69 9,3.69 Z M14.4461538,0.130854633 C14.843374,0.130854633 15.1716521,0.426031002 15.2236066,0.809002358 L15.2307692,0.915470018 L15.2298462,2.76923077 L17.0851529,2.76923077 C17.2237024,2.76923077 17.3584789,2.80587604 17.4765204,2.87380507 L17.5617112,2.93053377 L17.6394112,2.99849125 C17.9182421,3.27677161 17.9439962,3.71264068 17.7163906,4.02002857 L17.6405078,4.10810443 L14.8256257,6.928556 L12.0506923,6.92785463 L9.48953546,9.48953546 C9.21917249,9.75989844 8.78082751,9.75989844 8.51046454,9.48953546 C8.26468002,9.24375094 8.24233597,8.85913831 8.44343239,8.58811232 L8.51046454,8.51046454 L11.0766923,5.94385463 L11.0769231,3.18065502 L13.8907989,0.361211745 C14.0379872,0.213732267 14.2377922,0.130854633 14.4461538,0.130854633 Z" id="Combined-Shape"></path>
            </g>
        </g>
    </g>
</svg>
