<?xml version="1.0" encoding="UTF-8"?>
<svg width="20px" height="20px" viewBox="0 0 20 20" version="1.1" xmlns="http://www.w3.org/2000/svg" xmlns:xlink="http://www.w3.org/1999/xlink">
    <title>11998CAA-6083-4041-A224-73F03821E1AE</title>
    <g id="Home" stroke="none" stroke-width="1" fill="none" fill-rule="evenodd">
        <g id="new-settings" transform="translate(-26.000000, -786.000000)" fill="#FFFFFF" fill-rule="nonzero">
            <g id="Icon/main/Insight-Copy" transform="translate(26.975000, 786.980000)">
                <path d="M9.025,1.24344979e-13 C9.41735229,1.24344979e-13 9.74160733,0.291559011 9.79292516,0.669837091 L9.8,0.775 L9.80026388,1.81096385 C10.5618534,1.89192411 11.2882233,2.09080743 11.9607652,2.3890054 L12.4788303,1.49279042 C12.6928407,1.12211364 13.1668232,0.99511039 13.5375,1.20912073 C13.8772871,1.40529688 14.0123206,1.8199219 13.8676242,2.17317925 L13.8211697,2.26779042 L13.3027994,3.16593136 C13.9072973,3.60841357 14.440704,4.14226343 14.8826876,4.74714896 L15.7822096,4.22883031 C16.1528864,4.01481997 16.6268689,4.14182322 16.8408793,4.5125 C17.0370554,4.85228705 16.9466854,5.27887965 16.6447459,5.51246125 L16.5572096,5.57116969 L15.6586696,6.09027535 C15.9560352,6.76260196 16.1541891,7.48861503 16.2345675,8.24975068 L17.275,8.25 C17.7030207,8.25 18.05,8.59697932 18.05,9.025 C18.05,9.41735229 17.758441,9.74160733 17.3801629,9.79292516 L17.275,9.8 L16.2336087,9.79927479 C16.1522961,10.5601634 15.9532717,11.2858532 15.6551018,11.957778 L16.5572096,12.4788303 C16.9278864,12.6928407 17.0548896,13.1668232 16.8408793,13.5375 C16.6447031,13.8772871 16.2300781,14.0123206 15.8768208,13.8676242 L15.7822096,13.8211697 L14.8776199,13.2997779 C14.4356629,13.9031315 13.9026591,14.4356043 13.298841,14.8769641 L13.8211697,15.7822096 C14.03518,16.1528864 13.9081768,16.6268689 13.5375,16.8408793 C13.1977129,17.0370554 12.7711203,16.9466854 12.5375388,16.6447459 L12.4788303,16.5572096 L11.9567385,15.6527785 C11.2853243,15.9499858 10.5603337,16.1482374 9.80026388,16.2290362 L9.8,17.275 C9.8,17.7030207 9.45302068,18.05 9.025,18.05 C8.63264771,18.05 8.30839267,17.758441 8.25707484,17.3801629 L8.25,17.275 L8.25073896,16.2291427 C7.49030403,16.1484118 6.764971,15.9501165 6.09326152,15.6527785 L5.57116969,16.5572096 C5.35715935,16.9278864 4.88317678,17.0548896 4.5125,16.8408793 C4.17271295,16.6447031 4.03767936,16.2300781 4.18237585,15.8768208 L4.22883031,15.7822096 L4.75115903,14.8769641 C4.14701092,14.4353631 3.61375462,13.9025495 3.17165564,13.2987887 L2.26779042,13.8211697 C1.89711364,14.03518 1.42313107,13.9081768 1.20912073,13.5375 C1.01294459,13.1977129 1.10331458,12.7711203 1.40525409,12.5375388 L1.49279042,12.4788303 L2.39489825,11.957778 C2.09672829,11.2858532 1.89770394,10.5601634 1.81639135,9.79927479 L0.775,9.8 C0.346979319,9.8 -1.03028697e-13,9.45302068 -1.03028697e-13,9.025 C-1.03028697e-13,8.63264771 0.291559011,8.30839267 0.669837091,8.25707484 L0.775,8.25 L1.81543253,8.24975068 C1.89581089,7.48861503 2.0939648,6.76260196 2.3913304,6.09027535 L1.49279042,5.57116969 C1.12211364,5.35715935 0.99511039,4.88317678 1.20912073,4.5125 C1.38567926,4.20669165 1.73918139,4.06673361 2.06564083,4.14728382 L2.17317925,4.18237585 L2.26779042,4.22883031 L3.16658914,4.74813901 C3.60871405,4.14284594 4.14237295,3.60865497 4.74720058,3.16593136 L4.22883031,2.26779042 C4.01481997,1.89711364 4.14182322,1.42313107 4.5125,1.20912073 C4.85228705,1.01294459 5.27887965,1.10331458 5.51246125,1.40525409 L5.57116969,1.49279042 L6.08822835,2.38945175 C6.76134719,2.09087497 7.48840433,1.89178988 8.25073896,1.81085731 L8.25,0.775 C8.25,0.346979319 8.59697932,1.24344979e-13 9.025,1.24344979e-13 Z M9.025,6.02 C7.36814575,6.02 6.025,7.36314575 6.025,9.02 C6.025,10.6768542 7.36814575,12.02 9.025,12.02 C10.6818542,12.02 12.025,10.6768542 12.025,9.02 C12.025,7.36314575 10.6818542,6.02 9.025,6.02 Z M9.025,7.77 C9.71535594,7.77 10.275,8.32964406 10.275,9.02 C10.275,9.71035594 9.71535594,10.27 9.025,10.27 C8.33464406,10.27 7.775,9.71035594 7.775,9.02 C7.775,8.32964406 8.33464406,7.77 9.025,7.77 Z" id="Combined-Shape"></path>
            </g>
        </g>
    </g>
</svg>