<?xml version="1.0" encoding="UTF-8"?>
<svg width="18px" height="19px" viewBox="0 0 18 19" version="1.1" xmlns="http://www.w3.org/2000/svg" xmlns:xlink="http://www.w3.org/1999/xlink">
    <title>C8C3C0D2-5946-468B-B526-5D3581B30DA7</title>
    <g id="Home" stroke="none" stroke-width="1" fill="none" fill-rule="evenodd">
        <g id="new-home-page-hovers" transform="translate(-481.000000, -1344.000000)" fill="#5567D5" fill-rule="nonzero">
            <g id="Icon/main/Devops-Copy-2" transform="translate(481.000000, 1344.250000)">
                <path d="M4.76332092,0.75 L4.86509148,0.756846616 C4.93326327,0.766094915 5.19424878,0.772581766 5.67926689,0.776307167 C4.03548013,2.24059827 3,4.37437446 3,6.75 C3,11.168278 6.581722,14.75 11,14.75 C12.4576273,14.75 13.8242042,14.3601668 15.0011597,13.6790715 L15.0006532,15.0065317 C15.0006532,16.4690636 13.8589486,17.664936 12.4181756,17.7515129 L12.2506532,17.7565317 L2.75,17.7565317 L2.58247767,17.7515129 C1.19933552,17.6683991 0.0918148772,16.5629585 0.00542625335,15.1807016 L0,15.0065317 L0,3.5 L0.00501879394,3.33247767 C0.0881326441,1.94933552 1.19357324,0.841814877 2.57583007,0.755426253 L2.75,0.75 L4.76332092,0.75 Z M11,0 C14.7279221,0 17.75,3.02207794 17.75,6.75 C17.75,10.4779221 14.7279221,13.5 11,13.5 C7.27207794,13.5 4.25,10.4779221 4.25,6.75 C4.25,3.02207794 7.27207794,0 11,0 Z M11,1.5 C8.10050506,1.5 5.75,3.85050506 5.75,6.75 C5.75,9.64949494 8.10050506,12 11,12 C13.8994949,12 16.25,9.64949494 16.25,6.75 C16.25,3.85050506 13.8994949,1.5 11,1.5 Z M11,3.75 C12.6568542,3.75 14,5.09314575 14,6.75 C14,8.22472784 12.9359102,9.45092419 11.5336402,9.70267934 C11.8276186,9.2934339 12,8.79184787 12,8.25 C12,6.86928813 10.8807119,5.75 9.5,5.75 C8.95823496,5.75 8.45671945,5.92232875 8.04727885,6.21516087 C8.29907581,4.81408982 9.52527216,3.75 11,3.75 Z" id="Combined-Shape"></path>
            </g>
        </g>
    </g>
</svg>
