<?xml version="1.0" encoding="UTF-8"?>
<svg width="18px" height="18px" viewBox="0 0 18 18" version="1.1" xmlns="http://www.w3.org/2000/svg" xmlns:xlink="http://www.w3.org/1999/xlink">
    <title>939A3D2D-28CB-402C-94EE-B86E2CCBED1A</title>
    <g id="Home" stroke="none" stroke-width="1" fill="none" fill-rule="evenodd">
        <g id="apps-UI-kit" transform="translate(-616.000000, -2531.000000)" fill="#5567D5">
            <g id="Icon/main/Market" transform="translate(616.000000, 2531.000000)">
                <path d="M9,0.0924506195 L17.6723112,5.00146683 C18.0146178,5.23470286 18.103037,5.70127237 17.869801,6.04357901 C17.6577682,6.35476685 17.2528979,6.45613037 16.9238574,6.29675462 L16.8276888,6.2410688 L16.2499272,5.92145062 L16.25,15.25 C16.25,16.7125318 15.1082954,17.9084043 13.6675223,17.9949812 L13.5,18 L4.5,18 C3.03746816,18 1.84159572,16.8582954 1.75501879,15.4175223 L1.75,15.25 L1.7499272,5.92045062 L1.17231119,6.2410688 C0.861123343,6.45310155 0.447238901,6.39930355 0.199325303,6.13058971 L0.130199016,6.04357901 C-0.081833738,5.73239116 -0.0280357304,5.31850672 0.240678101,5.07059312 L0.32768881,5.00146683 L9,0.0924506195 Z M11.8549513,7.34834957 C10.3904852,5.88388348 8.01611652,5.88388348 6.55165043,7.34834957 C5.08718434,8.81281567 5.08718434,11.1871843 6.55165043,12.6516504 C8.01611652,14.1161165 10.3904852,14.1161165 11.8549513,12.6516504 C12.1478445,12.3587572 12.1478445,11.8838835 11.8549513,11.5909903 C11.5620581,11.298097 11.0871843,11.298097 10.7942911,11.5909903 C9.91561146,12.4696699 8.49099026,12.4696699 7.6123106,11.5909903 C6.73363094,10.7123106 6.73363094,9.2876894 7.6123106,8.40900974 C8.49099026,7.53033009 9.91561146,7.53033009 10.7942911,8.40900974 C11.0871843,8.70190296 11.5620581,8.70190296 11.8549513,8.40900974 C12.1478445,8.11611652 12.1478445,7.64124279 11.8549513,7.34834957 Z" id="Combined-Shape"></path>
            </g>
        </g>
    </g>
</svg>