<svg width="20" height="20" viewBox="0 0 20 20" fill="none" xmlns="http://www.w3.org/2000/svg">
<path fill-rule="evenodd" clip-rule="evenodd" d="M16.0341 0.555542C15.0198 0.555542 14.1976 1.40123 14.1976 2.44443V17.5555C14.1976 18.5987 15.0198 19.4444 16.0341 19.4444H17.6081C18.6224 19.4444 19.4446 18.5987 19.4446 17.5555V2.44443C19.4446 1.40123 18.6224 0.555542 17.6081 0.555542H16.0341ZM2.39208 4.873C1.37786 4.873 0.555664 5.71869 0.555664 6.76189V17.5555C0.555664 18.5987 1.37786 19.4444 2.39208 19.4444H3.96616C4.98038 19.4444 5.80258 18.5987 5.80258 17.5555V6.76189C5.80258 5.71869 4.98038 4.873 3.96616 4.873H2.39208ZM9.21307 10.2698C8.19884 10.2698 7.37665 11.1155 7.37665 12.1587V17.5555C7.37665 18.5987 8.19884 19.4444 9.21307 19.4444H10.7871C11.8014 19.4444 12.6236 18.5987 12.6236 17.5555V12.1587C12.6236 11.1155 11.8014 10.2698 10.7871 10.2698H9.21307Z" fill="#ffffff"/>
</svg>
