<?xml version="1.0" encoding="UTF-8"?>
<svg width="18px" height="18px" viewBox="0 0 18 18" version="1.1" xmlns="http://www.w3.org/2000/svg" xmlns:xlink="http://www.w3.org/1999/xlink">
    <title>86155EC0-FB2A-4D3C-B887-CC9C4798EA41</title>
    <g id="Home" stroke="none" stroke-width="1" fill="none" fill-rule="evenodd">
        <g id="apps-UI-kit" transform="translate(-766.000000, -2531.000000)" fill="#5567D5">
            <g id="Icon/main/Services" transform="translate(766.000000, 2531.000000)">
                <path d="M10.5935681,5.36152673 L10.6265216,5.4580575 L10.9658459,6.72227557 C11.7231471,6.6429463 12.4693537,6.74930846 13.1508513,7.01040774 L13.8054725,5.87657432 C14.0125792,5.51785485 14.471272,5.39494849 14.8299915,5.60205527 C15.1561001,5.79033416 15.2873219,6.18653539 15.1528829,6.52652719 L15.1045106,6.62657432 L14.4503178,7.76075434 C15.0171068,8.22044333 15.4822405,8.81351979 15.7921123,9.50903392 L17.0564322,9.1703681 C17.4565318,9.06316175 17.8677845,9.30059861 17.9749908,9.70069819 C18.0732633,10.0674561 17.8819398,10.4435858 17.5411915,10.5863034 L17.4446608,10.6192568 L16.1804427,10.9585811 C16.259772,11.7158823 16.1534098,12.4620889 15.8923105,13.1435866 L17.0261439,13.7982077 C17.3848634,14.0053145 17.5077698,14.4640073 17.300663,14.8227267 C17.1123841,15.1488354 16.7161829,15.2800571 16.3761911,15.1456181 L16.2761439,15.0972458 L15.1419639,14.443053 C14.6823843,15.0097072 14.0894806,15.4747545 13.3941806,15.7846264 L13.7323502,17.0491674 C13.8395565,17.449267 13.6021196,17.8605197 13.2020201,17.9677261 C12.8352621,18.0659986 12.4591324,17.874675 12.3164149,17.5339268 L12.2834614,17.437396 L11.9446413,16.1731251 C11.1871671,16.2525544 10.4407806,16.146203 9.7591317,15.8850457 L9.10451057,17.0188792 C8.89740379,17.3775986 8.43871098,17.500505 8.07999152,17.2933982 C7.75388291,17.1051193 7.62266116,16.7089181 7.75710017,16.3689263 L7.80547246,16.2688792 L8.46065738,15.1355036 C7.89355385,14.6758114 7.42814459,14.0826215 7.11809182,13.3869158 L5.85355084,13.7250854 C5.45345127,13.8322917 5.04219855,13.5948549 4.93499219,13.1947553 C4.83671969,12.8279974 5.02804324,12.4518677 5.3687915,12.3091501 L5.46532228,12.2761966 L6.72959318,11.9373765 C6.65016388,11.1799024 6.7565153,10.4335158 7.01767251,9.75186693 L5.88383909,9.0972458 C5.52511963,8.89013902 5.40221326,8.43144621 5.60932004,8.07272674 C5.79759893,7.74661814 6.19380016,7.61539639 6.53379197,7.74983539 L6.63383909,7.79820769 L7.7672147,8.45339261 C8.22701613,7.88615424 8.82037879,7.42065852 9.51629869,7.11060593 L9.17763288,5.84628607 C9.07042652,5.44618649 9.30786339,5.03493378 9.70796296,4.92772742 C10.0747209,4.82945492 10.4508506,5.02077847 10.5935681,5.36152673 Z M12.2513189,-1.52766688e-13 C13.770102,-1.52766688e-13 15.0013189,1.23121694 15.0013189,2.75 L15.0018091,4.58882877 C14.2790265,4.35031124 13.4696806,4.60905104 13.0236712,5.24449791 L12.9394471,5.37657432 L12.677,5.829 L12.6498156,5.8221824 L12.3564673,5.76761968 L12.0605062,5.72840376 L12.0605062,5.72840376 L11.7624888,5.70467012 L11.727,5.703 L11.5923369,5.19882644 L11.5399427,5.03845528 L11.5159332,4.97520729 L11.4509769,4.83721721 C11.0990834,4.16692146 10.3493431,3.79598157 9.59908476,3.92852031 L9.44914392,3.96180159 L9.30495484,4.00708708 L9.16744546,4.06352048 C8.45253493,4.39308265 8.03847284,5.17083918 8.1788309,5.95759097 L8.21170705,6.10510512 L8.346,6.609 L8.31722354,6.6278029 L8.0708688,6.79745613 L7.83404638,6.97950223 L7.83404638,6.97950223 L7.60717118,7.17354498 L7.586,7.193 L7.13431465,6.93245702 L6.96907869,6.84954351 L6.81508792,6.79513975 C6.04362819,6.5570982 5.25774842,6.82526362 4.82502225,7.44428946 L4.74329464,7.57272674 L4.66984534,7.71424802 L4.61042973,7.8592452 C4.34805906,8.59151428 4.60347202,9.42248203 5.2494695,9.87743483 L5.38383909,9.9632712 L5.836,10.224 L5.7748419,10.5465182 L5.73563287,10.8425484 L5.73563287,10.8425484 L5.71191326,11.140635 L5.71,11.175 L5.20646061,11.3102822 L5.04572005,11.3627756 L4.89721224,11.4317245 C4.17748187,11.8023838 3.80345232,12.553297 3.93579796,13.3036286 L3.96906636,13.4535743 L4.01435185,13.5977634 L4.07078525,13.7352728 C4.40034742,14.4501833 5.17810395,14.8642454 5.96485574,14.7238874 L6.11236989,14.6910112 L6.617,14.556 L6.80493426,14.8321425 L6.98694974,15.0688971 L6.98694974,15.0688971 L7.18095559,15.2957088 L7.2,15.316 L6.93972179,15.7684036 L6.85680829,15.9336396 L6.80240452,16.0876303 C6.70607815,16.3998108 6.69264385,16.7143525 6.75180774,17.0068987 L2.75,17.0065317 C1.28746816,17.0065317 0.0915957212,15.8648271 0.00501879394,14.424054 L5.3379523e-13,14.2565317 L5.3379523e-13,2.75 C5.3379523e-13,1.28746816 1.1417046,0.0915957212 2.58247767,0.00501879394 L2.75,-1.52766688e-13 L12.2513189,-1.52766688e-13 Z M10.6138296,8.30846781 C8.88006478,8.7730287 7.85117169,10.5551238 8.31573258,12.2888886 C8.78029347,14.0226535 10.5623886,15.0515466 12.2961534,14.5869857 C14.0299182,14.1224248 15.0588113,12.3403297 14.5942505,10.6065648 C14.1296896,8.87280001 12.3475945,7.84390692 10.6138296,8.30846781 Z M12.4209173,11.1889077 C12.5638592,11.7223738 12.2472767,12.2707108 11.7138106,12.4136526 C11.1803445,12.5565944 10.6320075,12.2400119 10.4890657,11.7065458 C10.3461239,11.1730797 10.6627064,10.6247427 11.1961725,10.4818009 C11.7296386,10.3388591 12.2779755,10.6554416 12.4209173,11.1889077 Z" id="Combined-Shape"></path>
            </g>
        </g>
    </g>
</svg>