<?xml version="1.0" encoding="UTF-8"?>
<svg width="18px" height="16px" viewBox="0 0 18 16" version="1.1" xmlns="http://www.w3.org/2000/svg" xmlns:xlink="http://www.w3.org/1999/xlink">
    <title>E0FE9A60-8855-49B0-90DD-41A9AD978729</title>
    <g id="Home" stroke="none" stroke-width="1" fill="none" fill-rule="evenodd">
        <g id="new-dashboard-+" transform="translate(-26.000000, -24.000000)" fill="#FFFFFF">
            <path d="M43,38 C43.5522847,38 44,38.4477153 44,39 C44,39.5522847 43.5522847,40 43,40 L27,40 C26.4477153,40 26,39.5522847 26,39 C26,38.4477153 26.4477153,38 27,38 L43,38 Z M43,31 C43.5522847,31 44,31.4477153 44,32 C44,32.5522847 43.5522847,33 43,33 L27,33 C26.4477153,33 26,32.5522847 26,32 C26,31.4477153 26.4477153,31 27,31 L43,31 Z M43,24 C43.5522847,24 44,24.4477153 44,25 C44,25.5522847 43.5522847,26 43,26 L27,26 C26.4477153,26 26,25.5522847 26,25 C26,24.4477153 26.4477153,24 27,24 L43,24 Z" id="Combined-Shape"></path>
        </g>
    </g>
</svg>