<svg id="Layer_1" data-name="Layer 1" xmlns="http://www.w3.org/2000/svg" viewBox="0 0 1200 800"><defs><style>.cls-1{fill:#77787b;}.cls-2{fill:#f26522;}.cls-3{fill:#8dc63f;}.cls-4{fill:#00aeef;}.cls-5{fill:#ffc20e;}</style></defs><path class="cls-1" d="M451.38,442.73A16.58,16.58,0,0,0,456.44,455q5.06,5,18.11,11.72,17.55,9.11,25.19,18.26a31.94,31.94,0,0,1,7.63,21.09q0,17.56-12.69,27.5t-32.45,9.93a87,87,0,0,1-20.69-2.3q-9.37-2.31-14.16-5.34V510.77A48.49,48.49,0,0,0,443,520.05a51.69,51.69,0,0,0,18.71,3.68q10,0,15.9-3.86t5.89-11.59q0-6.79-5.66-12.36T457,482.45q-14.89-7.72-22.21-16.78a33,33,0,0,1-7.31-21.38q0-16.28,12.69-26.71t32.46-10.43a88.44,88.44,0,0,1,17,1.61,54,54,0,0,1,12.09,3.45v24a41,41,0,0,0-13.1-6.8A50.2,50.2,0,0,0,473,426.92q-9.66,0-15.63,4.31A13.52,13.52,0,0,0,451.38,442.73Z"/><path class="cls-1" d="M597.49,517.38v18.3a48.28,48.28,0,0,1-14.43,5.65,80.67,80.67,0,0,1-19,2.17q-21.62,0-33.61-12.78t-12-35.59q0-22,12.83-36.17t32.5-14.21q19.59,0,30.48,12t10.89,33.14v10.76H540.4q1.47,14.25,9.15,19.9t19.81,5.66a47.5,47.5,0,0,0,15.26-2.44A49.29,49.29,0,0,0,597.49,517.38Zm-14.25-33q0-11-5.1-16.83t-14.39-5.79a20.76,20.76,0,0,0-14.34,5.75q-6.35,5.75-8.46,16.87Z"/><path class="cls-1" d="M668.47,525a30.74,30.74,0,0,0,10.94-2.29,46.21,46.21,0,0,0,11-6.07v20.68a44.23,44.23,0,0,1-12.09,4.6,65.93,65.93,0,0,1-14.84,1.57q-20.88,0-33.93-13.2t-13.05-33.69q0-22.82,13.33-37.56t37.78-14.76a51.81,51.81,0,0,1,12.65,1.61,42,42,0,0,1,10.15,3.72V471a45.66,45.66,0,0,0-10.52-5.84,30.58,30.58,0,0,0-11-2.06q-13.14,0-21.24,8.55t-8.09,23.08q0,14.32,7.77,22.34T668.47,525Z"/><path class="cls-1" d="M791.22,446.68V541.2H768.78V528.78h-.36a30.19,30.19,0,0,1-11.82,10.07A37.18,37.18,0,0,1,740,542.48q-16.47,0-25.06-9.33t-8.6-29V446.68h22.53v54.8q0,12,4.74,18t14.29,6q9.48,0,15.17-6.67t5.7-17.42V446.68Z"/><path class="cls-1" d="M857.83,445.12a27.67,27.67,0,0,1,4.79.37,19.48,19.48,0,0,1,3.58.92v22.52a19.27,19.27,0,0,0-5.1-2.44,25.48,25.48,0,0,0-8.14-1.14q-8.18,0-13.84,6.89t-5.65,21.24V541.2H811.22V446.68h22.25v14.9h.37A26.08,26.08,0,0,1,843,449.49,24.94,24.94,0,0,1,857.83,445.12Z"/><path class="cls-1" d="M876.05,419.38a12.09,12.09,0,0,1,4-9.24,14.17,14.17,0,0,1,19.26.09,12.41,12.41,0,0,1,3.86,9.15,12,12,0,0,1-3.95,9.1,13.68,13.68,0,0,1-9.66,3.68,13.39,13.39,0,0,1-9.61-3.73A12,12,0,0,1,876.05,419.38Zm24.54,27.3V541.2H878.34V446.68Z"/><path class="cls-1" d="M964.36,525a15,15,0,0,0,4.65-.91,21.83,21.83,0,0,0,4.73-2.21v18.39a26.16,26.16,0,0,1-7,2.2,47.67,47.67,0,0,1-9.7,1q-14.07,0-21.1-7.5t-7-22.57V464.89H913.34V446.68h15.53V425.44l22.35-6.8v28h22.52v18.21H951.22v44.22q0,8.73,3.17,12.32T964.36,525Z"/><path class="cls-1" d="M1029.62,519.77l24.54-73.09h22.53l-38.89,101.6q-6.63,17.19-15.91,25.28a31.89,31.89,0,0,1-21.6,8.09,63.23,63.23,0,0,1-7.45-.41,45.83,45.83,0,0,1-6.16-1.15V561.33a25.55,25.55,0,0,0,5.24,1.79,24.6,24.6,0,0,0,5.42.6,16.36,16.36,0,0,0,9.8-2.94,20.76,20.76,0,0,0,6.66-8.92l4.69-10.66L980.7,446.68h25l23.54,73.09Z"/><path class="cls-1" d="M573.79,228.09V359.93H550.9V256.59h-.37L509.62,359.93H494.45L452.52,256.59h-.28V359.93H431.1V228.09h32.82l37.88,97.74h.55l40-97.74Zm19.14,10a12.11,12.11,0,0,1,4-9.24,13.47,13.47,0,0,1,9.52-3.73A13.3,13.3,0,0,1,616.2,229a12.41,12.41,0,0,1,3.86,9.15,11.92,11.92,0,0,1-3.95,9.09,13.64,13.64,0,0,1-9.66,3.68,13.42,13.42,0,0,1-9.61-3.72,12.05,12.05,0,0,1-3.91-9m24.55,121.81H595.23V265.42h22.25ZM685,343.75a30.74,30.74,0,0,0,10.94-2.29,46.4,46.4,0,0,0,11-6.07v20.68a44.68,44.68,0,0,1-12.09,4.6A66,66,0,0,1,680,362.23q-20.87,0-33.92-13.19T633,315.34q0-22.79,13.33-37.56T684.14,263a51.73,51.73,0,0,1,12.64,1.61,42.07,42.07,0,0,1,10.16,3.72V289.7a44.79,44.79,0,0,0-10.53-5.84,30.34,30.34,0,0,0-11-2.07q-13.14,0-21.23,8.54t-8.09,23.08q0,14.35,7.76,22.35t21.11,8m85.32-79.89a27.63,27.63,0,0,1,4.78.37,20.38,20.38,0,0,1,3.58.91v22.53a19.27,19.27,0,0,0-5.1-2.44,25.46,25.46,0,0,0-8.13-1.14q-8.19,0-13.85,6.89t-5.64,21.24v47.71H723.67V265.42h22.26v14.9h.36a26.09,26.09,0,0,1,9.19-12.1,25,25,0,0,1,14.81-4.36m9.57,50.2q0-23.44,13.24-37.14t36.77-13.71q22.17,0,34.62,13.2T876.94,312q0,23-13.23,36.6t-36,13.6q-22,0-34.89-12.92t-12.92-35.25m23.17-.74q0,14.81,6.71,22.62T829,343.75q12.15,0,18.48-7.81t6.35-23.17q0-15.25-6.58-23T828.77,282q-12.22,0-19,8.14T803,313.32m107-23.08a9.52,9.52,0,0,0,3,7.5q3,2.72,13.42,6.85,13.34,5.32,18.71,12a24.84,24.84,0,0,1,5.38,16.13q0,13.33-10.25,21.42t-27.72,8.09a66.72,66.72,0,0,1-13-1.42,58.09,58.09,0,0,1-12.09-3.63V335.29A54.28,54.28,0,0,0,900.57,342a38.2,38.2,0,0,0,12.69,2.49q7.54,0,11.13-2.12c2.39-1.4,3.58-3.77,3.58-7.08a9.82,9.82,0,0,0-3.72-7.76q-3.72-3.18-14.12-7.31-12.32-5.16-17.46-11.59t-5.15-16.36a25.85,25.85,0,0,1,10.16-21Q907.84,263,924,263a64.07,64.07,0,0,1,11.12,1.1,49.58,49.58,0,0,1,10.3,2.85v21.15a47.74,47.74,0,0,0-10.3-5.06A34.29,34.29,0,0,0,923.47,281q-6.35,0-9.89,2.48a7.85,7.85,0,0,0-3.53,6.8m50.1,23.82q0-23.44,13.24-37.14t36.77-13.71q22.17,0,34.62,13.2T1057.24,312q0,23-13.24,36.6t-36,13.6q-22,0-34.88-12.92t-12.92-35.25m23.17-.74q0,14.81,6.71,22.62t19.21,7.81q12.15,0,18.48-7.81t6.35-23.17q0-15.25-6.57-23T1009.06,282q-12.22,0-19,8.14t-6.75,23.21m147.73-29.7h-33.14v76.31h-22.52V283.62h-15.82v-18.2h15.82V252.28q0-14.91,9.7-24.42t24.87-9.51a56.32,56.32,0,0,1,7.17.41,28.64,28.64,0,0,1,5.51,1.24v19.22a22.16,22.16,0,0,0-3.85-1.56,19.88,19.88,0,0,0-6.35-.93q-7,0-10.76,4.37T1097.91,254v11.4h33.14V244.18l22.34-6.8v28h22.53v18.2h-22.53v44.23q0,8.73,3.17,12.32t10,3.58a14.9,14.9,0,0,0,4.64-.91,22.17,22.17,0,0,0,4.74-2.21V359a26.25,26.25,0,0,1-7,2.2,47.62,47.62,0,0,1-9.69,1q-14.07,0-21.1-7.49t-7-22.57Z"/><rect class="cls-2" x="24.08" y="228.1" width="148.8" height="148.8"/><rect class="cls-3" x="188.37" y="228.1" width="148.8" height="148.8"/><rect class="cls-4" x="24.08" y="392.38" width="148.8" height="148.8"/><rect class="cls-5" x="188.37" y="392.38" width="148.8" height="148.8"/></svg>
