<?xml version="1.0" encoding="UTF-8"?>
<svg width="12px" height="16px" viewBox="0 0 12 16" version="1.1" xmlns="http://www.w3.org/2000/svg" xmlns:xlink="http://www.w3.org/1999/xlink">
    <title>8EC4A4BB-2C44-4863-BAAA-615B6119F7C6</title>
    <g id="Deploy" stroke="none" stroke-width="1" fill="none" fill-rule="evenodd">
        <g id="Deploy-initial-view" transform="translate(-30.000000, -296.000000)" fill="#40404B" fill-rule="nonzero">
            <g id="Group" transform="translate(6.000000, 224.000000)">
                <path d="M30,72 C30.2454599,72 30.4496084,72.1768752 30.4919443,72.4101244 L30.5,72.5 L30.5,86.084 L34.6417316,81.9442215 C34.815298,81.7706552 35.0847224,81.75137 35.2795905,81.8863661 L35.3488384,81.9442215 C35.5224048,82.1177879 35.5416899,82.3872123 35.4066939,82.5820804 L35.3488384,82.6513283 L30.3855781,87.6161195 C30.3645821,87.6415209 30.3411244,87.6648126 30.3155704,87.6856294 L30.0001667,88 L29.686325,87.6871658 C29.6593924,87.6654427 29.6347598,87.6409826 29.6128499,87.614208 L24.6466134,82.6514951 C24.4512592,82.456325 24.4511099,82.1397426 24.6462799,81.9443883 C24.8197643,81.7707401 25.0891796,81.7513279 25.2841114,81.886232 L25.3533866,81.9440548 L29.5,86.087 L29.5,72.5 C29.5,72.2238576 29.7238576,72 30,72 Z" id="Combined-Shape"></path>
            </g>
        </g>
    </g>
</svg>
