<?xml version="1.0" encoding="UTF-8"?>
<svg width="321px" height="321px" viewBox="0 0 321 321" version="1.1" xmlns="http://www.w3.org/2000/svg" xmlns:xlink="http://www.w3.org/1999/xlink">
    <title>074827D6-58F0-401C-8DA4-A9F51F84B5FA</title>
    <g id="Misc" stroke="none" stroke-width="1" fill="none" fill-rule="evenodd">
        <g id="events" transform="translate(-560.000000, -169.000000)">
            <g id="drawkit-grape-pack-illustration-17" transform="translate(560.000000, 169.000000)">
                <path d="M242.033372,78.6728541 C259.192193,105.312095 263.444615,111.878095 285.550084,137.158388 C307.577243,162.384065 306.385251,191.828587 300.329196,216.697661 C294.342752,241.508908 244.656711,260.577778 209.681727,277.8445 C174.706743,295.111223 148.899779,298.552607 113.303056,286.3542 C77.7889942,274.146154 53.7692546,244.570557 45.6292559,216.697661 C37.4892572,188.824765 45.1506884,162.65457 51.3764169,136.195238 C57.6021455,109.735905 62.3095098,83.0388368 82.896615,56.8718546 C103.40976,30.6470449 139.880956,4.95232141 170.204736,10.3174362 C200.532865,15.6215108 224.87455,52.0400387 242.033372,78.6728541 Z" id="Path" fill="#FFFFFF" fill-rule="nonzero"></path>
                <path d="M30,160 C30,231.797017 88.2029825,290 160,290 C231.797017,290 290,231.797017 290,160 C290,110.323139 262.136175,67.1542221 221.184809,45.2695342 M131.305428,33.177413 C116.995108,36.4013971 103.578471,41.9854274 91.4858814,49.499141" id="Shape" stroke="#41415A" stroke-width="1.5" transform="translate(160.000000, 160.000000) rotate(-75.000000) translate(-160.000000, -160.000000) "></path>
                <path d="M196.535534,51.5355339 L231.964466,86.9644661 C233.917088,88.9170876 233.917088,92.0829124 231.964466,94.0355339 L196.535534,129.464466 C194.582912,131.417088 191.417088,131.417088 189.464466,129.464466 L154.035534,94.0355339 C152.082912,92.0829124 152.082912,88.9170876 154.035534,86.9644661 L189.464466,51.5355339 C191.417088,49.5829124 194.582912,49.5829124 196.535534,51.5355339 Z" id="Polygon" stroke="#E0E3F6" stroke-width="1.79253028" fill="#FFFFFF" stroke-linecap="round" stroke-linejoin="round"></path>
                <rect id="Rectangle" fill="#5567D5" x="37" y="84" width="64" height="34" rx="17"></rect>
                <circle id="Oval" fill="#5567D5" cx="267.5" cy="234.5" r="25.5"></circle>
                <path d="M212.713217,188.167581 C209.571072,187.818454 192.46384,189.214963 171.167082,214.002993 L170.894763,214.05187 C168.740648,211.74414 164.558105,209.017456 157.725686,205.798504 C160.04389,202.656359 161.740648,195.418953 163.660848,191.484289 C170.643392,177.170075 179.462344,148.136658 180.942643,139.638903 C185.65586,112.581546 171.893267,108.688778 166.628429,120.436908 C164.669825,124.804489 156.374564,140.382544 147.813965,157.765586 C140.16808,155.265835 134.990524,158.006484 133.112219,159.888279 C132.413965,160.586534 129.373067,165.048379 125.431421,171.060349 L125.431421,171.060349 C121.591022,168.965586 118.099751,167.918204 112.862843,171.060349 C107.762095,174.118703 92.8648379,187.549626 84.234414,214.35212 C80.0448878,227.395511 84.9326683,241.702743 79.9541147,262.94015 L80.0169576,262.817955 L79.957606,263.055362 C79.957606,262.982045 79.957606,262.94015 79.957606,262.94015 C77.0738155,275.2399 69.7456359,293.429426 57.7007481,307.918204 C59.29689,308.360672 60.9600951,308.509721 62.6094763,308.358105 C74.1516209,310.072319 110.534165,313.912718 139.221945,299.713716 C139.276238,299.323409 139.276238,298.927464 139.221945,298.537157 L139.410474,298.491771 C148.138653,293.60399 169.086284,249.264838 183.749626,240.187531 C192.826933,233.204988 200.856858,210.511721 215.869327,194.102743 C217.695262,192.091771 214.794015,188.398005 212.713217,188.167581 Z" id="Path" fill="#F7F8FB" fill-rule="nonzero"></path>
                <path d="M190.473815,190.677805 C183.945137,194.518204 176.159601,200.65586 167.67581,210.511721" id="Path" stroke="#41415A" stroke-width="1.5" stroke-linecap="round" stroke-linejoin="round"></path>
                <path d="M157.526683,260.080798 C165.469327,249.87581 174.019451,240.550623 180.244389,236.689277 C189.321696,229.706733 197.351621,207.013466 212.36409,190.604489 C214.20399,188.593516 211.316708,184.899751 209.221945,184.669327 C208.174564,184.554115 205.622444,184.630923 201.890274,185.674813" id="Path" stroke="#41415A" stroke-width="1.5" stroke-linecap="round" stroke-linejoin="round"></path>
                <path d="M135.905237,295.000499 C136.65586,291.509227 140.684788,284.177556 146.221945,275.798504" id="Path" stroke="#41415A" stroke-width="1.5" stroke-linecap="round" stroke-linejoin="round"></path>
                <path d="M151.336658,144.998005 C156.922693,131.567082 161.548628,120.482294 163.137157,116.945636 C168.401995,105.197506 180.593516,108.566584 177.451372,136.147631" id="Path" stroke="#41415A" stroke-width="1.5" stroke-linecap="round" stroke-linejoin="round"></path>
                <path d="M122.987531,210.860848 C126.094763,204.99202 134.836908,184.43192 143.432419,163.927681" id="Path" stroke="#41415A" stroke-width="1.5" stroke-linecap="round" stroke-linejoin="round"></path>
                <path d="M146.72818,217.145137 C148.124688,214.701247 157.201995,196.895761 160.34414,188.167581" id="Path" stroke="#41415A" stroke-width="1.5" stroke-linecap="round" stroke-linejoin="round"></path>
                <path d="M108.659352,188.167581 C117.453865,174.265337 128.210474,157.793516 129.606983,156.397007 C131.701746,154.302244 137.881297,151.135661 147.010973,155.349626" id="Path" stroke="#41415A" stroke-width="1.5" stroke-linecap="round" stroke-linejoin="round"></path>
                <path d="M98.5486284,204.576559 C99.5331671,202.8798 100.919202,200.586035 102.567082,197.911721" id="Path" stroke="#41415A" stroke-width="1.5" stroke-linecap="round" stroke-linejoin="round"></path>
                <path d="M78.8997506,237.900748 C79.0289277,227.507232 78.1386534,218.943142 80.7431421,210.860848 C89.3735661,184.058354 104.270823,170.627431 109.371571,167.569077 C114.608479,164.426933 118.075312,165.474314 121.94015,167.569077" id="Path" stroke="#41415A" stroke-width="1.5" stroke-linecap="round" stroke-linejoin="round"></path>
                <path d="M54.2094763,304.426933 C65.2069825,289.369077 71.3411471,276.695761 74.7416459,265.76808" id="Path" stroke="#41415A" stroke-width="1.5" stroke-linecap="round" stroke-linejoin="round"></path>
            </g>
        </g>
    </g>
</svg>
