<?xml version="1.0" encoding="UTF-8"?>
<svg width="380px" height="340px" viewBox="0 0 380 340" version="1.1" xmlns="http://www.w3.org/2000/svg" xmlns:xlink="http://www.w3.org/1999/xlink">
    <title>A260098E-27B7-400B-91EB-D56E38E98E44</title>
    <g id="Misc" stroke="none" stroke-width="1" fill="none" fill-rule="evenodd">
        <g id="404" transform="translate(-529.000000, -152.000000)">
            <g id="1" transform="translate(529.000000, 152.000000)">
                <path d="M317.475,3.6375 C342.9375,17.1375 340.8375,71.2875 341.8875,118.7625 C342.9375,166.2375 347.1375,206.9625 335.2875,248.85 C323.4375,290.7375 295.575,333.7875 260.5125,338.8125 C225.3375,343.95 182.8125,311.175 134.7,293.6625 C86.5875,276.15 33,273.975 11.7,247.9125 C-9.6,221.85 1.65,171.8625 24.075,137.625 C46.6125,103.3875 80.325,84.9375 109.2375,72.0375 C138.0375,59.1375 162.1125,51.825 200.5875,34.5375 C239.1375,17.3625 292.0125,-9.8625 317.475,3.6375 Z" id="Path" fill="#FFFFFF" fill-rule="nonzero"></path>
                <rect id="Rectangle" fill="#E4E7F8" x="211" y="36" width="64" height="34" rx="17"></rect>
                <path d="M36.1875,199.6875 C33.5625,198.9375 25.6875,194.0625 24.1875,192.1875 C22.6875,190.3125 19.125,194.85 25.6125,201" id="Path" fill="#FFFFFF" fill-rule="nonzero"></path>
                <path d="M33.1875,196.6875 C30.5625,195.9375 22.6875,191.0625 21.1875,189.1875 C19.6875,187.3125 16.125,191.85 22.6125,198" id="Path" stroke="#41415A" stroke-width="1.7925" stroke-linecap="round" stroke-linejoin="round"></path>
                <path d="M66.1875,211.3125 C64.3125,209.0625 57.9375,199.6875 56.8125,196.6875 C55.6875,193.6875 48.0375,190.6875 52.9875,211.3125" id="Path" fill="#FFFFFF" fill-rule="nonzero"></path>
                <path d="M62.4375,207.5625 C60.5625,205.3125 54.1875,195.9375 53.0625,192.9375 C52.0875,190.35 46.275,187.7625 47.85,200.2875" id="Path" stroke="#41415A" stroke-width="1.7925" stroke-linecap="round" stroke-linejoin="round"></path>
                <path d="M107.9625,245.325 C105.5625,250.275 95.0625,269.775 95.0625,269.775 C95.0625,269.775 71.0625,218.4 68.4375,217.275 C65.8125,216.15 25.6875,202.275 18.1875,198.15 C15.1875,196.65 6.1875,199.275 22.6875,210.15 C39.1875,221.025 55.3125,230.025 57.1875,233.775 C59.0625,237.525 72.5625,295.65 72.5625,295.65 L122.85,295.65 C126.1875,295.65 137.4375,258.9 137.4375,258.9 C137.4375,258.9 110.7375,242.25 107.9625,245.325 Z" id="Path" fill="#FFFFFF" fill-rule="nonzero"></path>
                <path d="M65.2125,277.55 C67.3125,286.3625 68.8125,292.8875 68.8125,292.8875 L119.1,292.8875 C122.4375,292.8875 133.6875,256.1375 133.6875,256.1375 C133.6875,256.1375 106.9875,239.45 104.2125,242.5625 C101.8125,247.5125 91.3125,267.0125 91.3125,267.0125 C91.3125,267.0125 67.3125,215.6375 64.6875,214.5125 C63.8625,214.175 59.5125,212.6 53.625,210.5" id="Path" stroke="#41415A" stroke-width="1.7925" stroke-linecap="round" stroke-linejoin="round"></path>
                <path d="M29.025,212.925 C41.5125,220.8 51.9375,227.1 53.4375,230.0625 C54.4125,232.05 58.65,249.15 62.4,264.8625" id="Path" stroke="#41415A" stroke-width="1.7925" stroke-linecap="round" stroke-linejoin="round"></path>
                <path d="M43.8,205.9875 C31.8375,201.6375 18.45,196.6125 14.4375,194.4375 C11.7,193.0875 4.0125,195.1125 15.1125,203.7375" id="Path" stroke="#41415A" stroke-width="1.7925" stroke-linecap="round" stroke-linejoin="round"></path>
                <path d="M175.9125,183.9375 C198.375,195.6 173.25,253.6875 159.4125,268.3875 C148.0875,270.825 108.1875,251.6625 103.2375,238.95 C107.4,226.3875 143.85,167.2875 175.9125,183.9375 Z" id="Path" fill="#A6B3FF" fill-rule="nonzero"></path>
                <path d="M70.5355339,89.5355339 L103.464466,122.464466 C105.417088,124.417088 105.417088,127.582912 103.464466,129.535534 L70.5355339,162.464466 C68.5829124,164.417088 65.4170876,164.417088 63.4644661,162.464466 L30.5355339,129.535534 C28.5829124,127.582912 28.5829124,124.417088 30.5355339,122.464466 L63.4644661,89.5355339 C65.4170876,87.5829124 68.5829124,87.5829124 70.5355339,89.5355339 Z" id="Polygon" stroke="#C8CEF0" stroke-width="1.79253028" opacity="0.503673735" stroke-linecap="round" stroke-linejoin="round"></path>
                <circle id="Oval" stroke="#C8CEF0" stroke-width="1.79253028" opacity="0.503673735" stroke-linecap="round" stroke-linejoin="round" cx="271.5" cy="169.5" r="29.5"></circle>
                <path d="M130.4625,191.7375 C143.1375,180.1875 158.0625,172.8375 172.1625,180.15 C194.625,191.8125 169.5,249.9 155.6625,264.6 C144.3375,267.0375 104.4375,247.875 99.4875,235.1625 C100.8,231.225 105.225,222.7875 111.7125,213.4875" id="Path" stroke="#41415A" stroke-width="1.7925" stroke-linecap="round" stroke-linejoin="round"></path>
                <path d="M170.7375,170.2875 C179.8125,164.2125 190.35,160.65 202.6875,160.65 C249.1875,160.65 268.6875,222.15 269.8125,292.275" id="Path" stroke="#41415A" stroke-width="1.7925" stroke-linecap="round" stroke-linejoin="round"></path>
                <path d="M130.8375,233.775 C136.8375,214.35 145.35,195.7125 157.425,182.1" id="Path" stroke="#41415A" stroke-width="1.7925" stroke-linecap="round" stroke-linejoin="round"></path>
                <path d="M119.1,291.975 C120.075,283.5375 121.425,274.125 123.3,264.3" id="Path" stroke="#53536B" stroke-width="1.7925" stroke-linecap="round" stroke-linejoin="round"></path>
                <path d="M273.4875,291.9375 C271.6875,223.5375 252.0375,164.4375 206.4375,164.4375 C148.6125,164.4375 129.45,242.7375 123.3,291.9375 L273.4875,291.9375 Z" id="Path" fill="#A6B3FF" fill-rule="nonzero"></path>
                <path d="M306.8625,263.7375 L295.9875,238.3125 L254.3625,263.8125 C255.6375,268.3875 260.025,282.3375 262.725,290.8125" id="Path" stroke="#41415A" stroke-width="1.7925" stroke-linecap="round" stroke-linejoin="round"></path>
                <path d="M306.675,291.375 L306.675,258.6 L299.7375,242.4 L258.1125,267.9 C259.2375,271.875 262.6875,282.975 265.35,291.3375 L306.675,291.375 Z" id="Path" fill="#FFFFFF" fill-rule="nonzero"></path>
                <polyline id="Path" stroke="#41415A" stroke-width="1.7925" stroke-linecap="round" stroke-linejoin="round" points="345.675 226.5 345.675 292.9875 110.830078 292.9875"></polyline>
                <polyline id="Path" stroke="#41415A" stroke-width="1.7925" stroke-linecap="round" stroke-linejoin="round" points="330.2625 58.05 345.975 58.05 345.975 174.2625"></polyline>
                <path d="M255.3375,254.63717 C255.3375,254.63717 266.5875,291.38717 269.925,291.38717 L320.2125,291.38717 C320.2125,291.38717 333.7125,233.26217 335.5875,229.51217 C337.4625,225.76217 353.5875,216.76217 370.0875,205.88717 C386.5875,195.01217 377.5875,192.38717 374.5875,193.88717 C367.0875,198.01217 326.9625,211.88717 324.3375,213.01217 C321.7125,214.13717 297.7125,265.51217 297.7125,265.51217 C297.7125,265.51217 287.2125,246.01217 284.8125,241.06217 C282.0375,237.98717 255.3375,254.63717 255.3375,254.63717 Z" id="Path" fill="#FFFFFF" fill-rule="nonzero"></path>
                <path d="M243.5625,179.8125 C266.4375,168.9375 297.5625,224.0625 300.9375,243.9375 C296.0625,254.4375 256.6875,274.6875 243.5625,270.9375 C236.0625,260.0625 210.975,195.3 243.5625,179.8125 Z" id="Path" fill="#A6B3FF" fill-rule="nonzero"></path>
                <path d="M262.575,182.1 C279.4125,196.2 294.8625,226.5 297.1875,240.1875 C292.3125,250.6875 252.9375,270.9375 239.8125,267.1875 C238.9125,265.8 238.0875,264.375 237.3375,262.875" id="Path" stroke="#41415A" stroke-width="1.7925" stroke-linecap="round" stroke-linejoin="round"></path>
                <path d="M226.1625,230.625 C221.7,210.5625 221.475,188.0625 236.325,178.0125" id="Path" stroke="#41415A" stroke-width="1.7925" stroke-linecap="round" stroke-linejoin="round"></path>
                <path d="M364.554612,202.066371 C364.779612,202.066371 365.004612,201.991371 365.154612,201.803871 C366.317112,200.678871 370.067112,196.778871 368.979612,193.066371 C368.679612,191.978871 367.967112,191.228871 367.067112,191.041371 C366.354612,190.891371 365.679612,191.153871 365.192112,191.753871 C363.842112,193.441371 356.154612,198.241371 353.642112,198.953871 C353.154612,199.103871 352.892112,199.591371 353.042112,200.078871 C353.192112,200.566371 353.679612,200.828871 354.167112,200.678871 C356.792112,199.928871 364.929612,194.978871 366.617112,192.878871 C366.654612,192.803871 366.692112,192.803871 366.729612,192.803871 C366.729612,192.803871 366.729612,192.803871 366.729612,192.803871 C366.767112,192.803871 366.992112,192.916371 367.179612,193.328871 C367.742112,194.678871 367.217112,197.341371 363.917112,200.491371 C363.542112,200.828871 363.542112,201.391371 363.879612,201.766371 C364.104612,201.991371 364.329612,202.066371 364.554612,202.066371 Z" id="Path" fill="#41415A" fill-rule="nonzero"></path>
                <path d="M328.6125,207.45 C328.875,207.45 329.1375,207.3375 329.2875,207.1125 C331.2,204.825 337.6125,195.375 338.8125,192.225 C339.1125,191.4 340.2375,190.5 341.025,190.6875 C342.075,190.95 343.0125,193.3125 342.3,199.125 C342.225,199.6125 342.6,200.0625 343.0875,200.1375 C343.575,200.2125 344.025,199.8375 344.1,199.35 C345.075,191.5125 343.2375,189.375 341.475,188.925 C339.675,188.475 337.7625,189.975 337.125,191.55 C336.0375,194.4375 329.6625,203.8125 327.9,205.9125 C327.6,206.2875 327.6375,206.85 328.0125,207.1875 C328.2,207.375 328.3875,207.45 328.6125,207.45 Z" id="Path" fill="#41415A" fill-rule="nonzero"></path>
                <g id="Group" transform="translate(259.000000, 209.500000)" fill-rule="nonzero">
                    <path d="M66.525,67.35 C66.0375,67.2375 65.55,67.5375 65.4375,68.025 C63.75,75.1125 62.4375,80.775 61.9875,82.6875 L12.4875,82.6875 C11.1,81.8625 7.0125,72.2625 1.875,56.625 C1.3125,56.8125 0.75,56.925 0.15,57.0375 C1.0125,59.6625 1.9875,62.5875 3.0375,65.5125 C9.7125,84.4875 11.4,84.4875 12.4125,84.4875 L62.7,84.4875 C63.1125,84.4875 63.4875,84.1875 63.5625,83.8125 C63.5625,83.7375 65.1,77.175 67.1625,68.475 C67.3125,67.95 67.0125,67.4625 66.525,67.35 Z" id="Path" fill="#57576E"></path>
                    <path d="M90.1260742,0.930004792 C89.9760742,0.480004792 89.4510742,0.217504792 88.9635742,0.405004792 L86.5635742,1.26750479 C75.7680664,5 67.2,3.05 66.4875,3.3875 C65.85,3.65 64.5375,4.2125 51.75,30.5 C46.8,40.6625 42,50.8625 40.1625,54.725 C38.4,51.425 34.2375,43.7 31.2,37.8875 C30.9,38.0375 30.6,38.1875 30.2625,38.3375 C30.225,38.3375 30.225,38.375 30.1875,38.375 C30,38.4875 29.8125,38.6375 29.625,38.75 C33.5625,46.2875 39.3375,56.975 39.4125,57.125 C39.5625,57.425 39.8625,57.6125 40.2375,57.6125 C40.575,57.6125 40.875,57.3875 41.025,57.0875 C49.9875,37.8875 64.9875,6.8375 67.2375,5 C68.025,4.6625 78.61875,6.63232422 87.1635742,2.95500479 L89.5635742,2.09250479 C90.0510742,1.90500479 90.2760742,1.41750479 90.1260742,0.930004792 Z" id="Path" fill="#41415A"></path>
                </g>
                <path d="M328.6125,264.75 C329.025,264.75 329.4,264.4875 329.475,264.075 C336.1875,236.025 337.95,230.3625 338.4,229.4625 C339.6,227.0625 348.769238,225.914844 358.781738,219.652344 C360.169238,218.789844 366.420816,213.887793 367.883316,212.987793 C368.295816,212.725293 368.445816,212.162793 368.145816,211.750293 C367.883316,211.337793 367.320816,211.187793 366.908316,211.487793 C365.445816,212.387793 359.194238,217.289844 357.806738,218.152344 C345.619238,225.802344 338.1375,225.975 336.7875,228.675 C335.9625,230.3625 332.8875,242.1375 327.75,263.6625 C327.6375,264.15 327.9375,264.6375 328.425,264.75 C328.5,264.75 328.575,264.75 328.6125,264.75 Z" id="Path" fill="#41415A" fill-rule="nonzero"></path>
                <path d="M352.913879,206.169681 C353.026379,206.169681 353.101379,206.169681 353.213879,206.132181 C369.151379,201.942728 368.953108,198.849341 372.215608,197.049341 C373.228108,196.524341 374.011351,196.406001 374.611351,197.343501 C375.248851,198.356001 374.198851,200.756001 369.323851,204.543501 C368.948851,204.843501 368.873851,205.406001 369.173851,205.818501 C369.473851,206.193501 370.036351,206.268501 370.448851,205.968501 C374.048851,203.193501 377.986351,199.256001 376.186351,196.406001 C375.061351,194.606001 373.265608,194.574341 371.465608,195.474341 C368.240608,197.236841 367.974133,200.09291 352.688879,204.444681 C352.238879,204.632181 351.976379,205.119681 352.163879,205.607181 C352.201379,205.944681 352.538879,206.169681 352.913879,206.169681 Z" id="Path" fill="#41415A" fill-rule="nonzero" transform="translate(364.369759, 200.532255) rotate(-7.000000) translate(-364.369759, -200.532255) "></path>
                <polyline id="Path" stroke="#41415A" stroke-width="1.7925" stroke-linecap="round" stroke-linejoin="round" points="66.1875 76.725 66.1875 58.6875 211.1875 58.6875"></polyline>
                <path d="M223.875,129 C221.893018,136.5 218.32545,152.625 219.51464,174.375 C212.775901,180 190.181306,181.125 179.875,173.625 C181.856982,162 181.856982,150.75 181.460586,143.25 C181.064189,135.75 223.875,129 223.875,129 Z" id="Path" fill="#FFFFFF" fill-rule="nonzero"></path>
                <path d="M179.25,170.625 C181.125,159 181.125,147.75 180.75,140.25 C180.375,132.75 220.875,126 220.875,126 C219,133.5 215.625,149.625 216.75,171.375 C212.9625,174.7125 203.9625,176.4375 195.1875,175.7625" id="Path" stroke="#41415A" stroke-width="1.7925" stroke-linecap="round" stroke-linejoin="round"></path>
                <ellipse id="Oval" fill="#FFFFFF" fill-rule="nonzero" cx="192.75" cy="101.925" rx="38.8125" ry="49.5"></ellipse>
                <path d="M208.575,143.475 C203.4,146.85 197.4,148.65 191.25,148.6875 C179.3625,148.6875 168.7125,141.8625 161.5875,131.1" id="Path" stroke="#41415A" stroke-width="1.7925" stroke-linecap="round" stroke-linejoin="round"></path>
                <path d="M154.4625,114.9375 C153.1125,109.8 152.4375,104.475 152.4375,99.15 C152.4375,71.8125 169.8,49.65 191.25,49.65 C212.7,49.65 230.0625,71.8125 230.0625,99.15 C230.0625,105.6 229.0875,112.05 227.1,118.2" id="Path" stroke="#41415A" stroke-width="1.7925" stroke-linecap="round" stroke-linejoin="round"></path>
                <path d="M182.4,100.4625 C182.85,104.2125 180.45,115.5375 177.6375,120" id="Path" stroke="#41415A" stroke-width="1.7925" stroke-linecap="round" stroke-linejoin="round"></path>
                <path d="M190.9875,122.2125 C188.2125,122.325 182.775,123.75 178.6125,131.2875" id="Path" stroke="#41415A" stroke-width="1.7925" stroke-linecap="round" stroke-linejoin="round"></path>
                <path d="M174.8625,91.1625 C173.0625,90.5625 169.05,90.6 163.8375,96.825" id="Path" stroke="#41415A" stroke-width="1.7925" stroke-linecap="round" stroke-linejoin="round"></path>
                <path d="M200.1375,96.825 C194.55,90.9375 190.5375,91.1625 188.775,91.875" id="Path" stroke="#41415A" stroke-width="1.7925" stroke-linecap="round" stroke-linejoin="round"></path>
                <ellipse id="Oval" fill="#41415A" fill-rule="nonzero" transform="translate(172.395950, 104.106138) rotate(-0.957323) translate(-172.395950, -104.106138) " cx="172.39595" cy="104.106138" rx="1.80007126" ry="3.82515142"></ellipse>
                <ellipse id="Oval" fill="#41415A" fill-rule="nonzero" transform="translate(196.477249, 104.411779) rotate(-77.308996) translate(-196.477249, -104.411779) " cx="196.477249" cy="104.411779" rx="3.82512135" ry="1.8000571"></ellipse>
                <path d="M240.5625,82.6875 C240.5625,62.8125 218.8125,49.3125 204.1875,44.8125 C192.375,41.175 173.8125,35.4375 164.0625,35.4375 C152.0625,35.4375 142.6875,47.8125 142.6875,60.1875 C142.6875,73.6875 149.8125,83.8125 158.4375,86.0625 C159.9375,81.5625 160.6875,79.6875 160.6875,79.6875 C162.1875,81.5625 202.3125,86.4375 215.8125,86.0625 C214.6875,90.9375 213.9375,108.1875 221.4375,108.5625 C225.5625,108.9375 240.5625,113.4375 240.5625,82.6875 Z" id="Path" fill="#FF9D52" fill-rule="nonzero"></path>
                <path d="M213.375,46.6875 C209.2875,44.3625 204.9375,42.4875 200.4375,41.0625 C188.625,37.425 170.0625,31.6875 160.3125,31.6875 C150.975,31.6875 143.25,39.15 140.25,48.3" id="Path" stroke="#41415A" stroke-width="1.7925" stroke-linecap="round" stroke-linejoin="round"></path>
                <path d="M212.0625,82.3125 C210.9375,87.1875 210.1875,104.4375 217.6875,104.8125 C221.8125,105.1875 236.8125,109.6875 236.8125,78.9375 C236.8125,70.05 232.4625,62.4 226.3125,56.2875" id="Path" stroke="#41415A" stroke-width="1.7925" stroke-linecap="round" stroke-linejoin="round"></path>
                <path d="M139.875,64.725 C142.0875,73.9875 147.9375,80.55 154.6875,82.3125 C156.1875,77.8125 156.9375,75.9375 156.9375,75.9375 C158.025,77.2875 178.9125,80.175 195.6375,81.5625" id="Path" stroke="#41415A" stroke-width="1.7925" stroke-linecap="round" stroke-linejoin="round"></path>
                <ellipse id="Oval" fill="#FFFFFF" fill-rule="nonzero" cx="221.6875" cy="109.8125" rx="11.5" ry="11"></ellipse>
                <path d="M210.9375,106.6875 C210.9375,102.2625 213.7875,98.3625 218.025,97.0125" id="Path" stroke="#41415A" stroke-width="1.7925" stroke-linecap="round" stroke-linejoin="round"></path>
                <path d="M218.025,97.0125 C223.35,95.325 229.05,98.2875 230.7,103.65 C232.3875,108.975 229.425,114.675 224.0625,116.325 C223.0875,116.625 222.075,116.775 221.0625,116.775 C220.2,116.775 219.3375,116.6625 218.5125,116.4375" id="Path" stroke="#41415A" stroke-width="1.7925" stroke-linecap="round" stroke-linejoin="round"></path>
                <path d="M330.1125,254.1 L323.625,280.6875 L325.2,281.9625 L331.9125,254.025 C332.775,250.125 330.1125,254.1 330.1125,254.1 Z" id="Path" fill="#57576E" fill-rule="nonzero"></path>
            </g>
        </g>
    </g>
</svg>
