<svg id="Icon_Sidebar_Observe_2" data-name="Icon/Sidebar/Observe 2" xmlns="http://www.w3.org/2000/svg" xmlns:xlink="http://www.w3.org/1999/xlink" width="24" height="24" viewBox="0 0 24 24">
  <defs>
    <clipPath id="clip-path">
      <path id="Combined_Shape" data-name="Combined Shape" d="M18.667,16a5.365,5.365,0,0,1-4.594-2.626H9.928a5.333,5.333,0,0,1-9.2-5.391L2.77,1.929a2.667,2.667,0,0,1,4.711-.842L8,1h2a2.112,2.112,0,0,1,2-1,2.12,2.12,0,0,1,2,1h2l.518.086a2.667,2.667,0,0,1,4.751,1l1.9,5.732A5.331,5.331,0,0,1,18.667,16Zm0-9.334a4,4,0,1,0,4,4A4.005,4.005,0,0,0,18.667,6.666Zm-13.333,0a4,4,0,1,0,4,4A4.005,4.005,0,0,0,5.333,6.666ZM10.5,9.333a5.349,5.349,0,0,1-.01,2.707h3.025a5.349,5.349,0,0,1-.01-2.707ZM11.334,4l-.121.011a.667.667,0,0,0,.121,1.322h1.333l.12-.011A.666.666,0,0,0,12.667,4Z" transform="translate(0 4)" fill="#1d1d27"/>
    </clipPath>
  </defs>
  <g id="Group_12" data-name="Group 12">
    <path id="Combined_Shape-2" data-name="Combined Shape" d="M18.667,16a5.365,5.365,0,0,1-4.594-2.626H9.928a5.333,5.333,0,0,1-9.2-5.391L2.77,1.929a2.667,2.667,0,0,1,4.711-.842L8,1h2a2.112,2.112,0,0,1,2-1,2.12,2.12,0,0,1,2,1h2l.518.086a2.667,2.667,0,0,1,4.751,1l1.9,5.732A5.331,5.331,0,0,1,18.667,16Zm0-9.334a4,4,0,1,0,4,4A4.005,4.005,0,0,0,18.667,6.666Zm-13.333,0a4,4,0,1,0,4,4A4.005,4.005,0,0,0,5.333,6.666ZM10.5,9.333a5.349,5.349,0,0,1-.01,2.707h3.025a5.349,5.349,0,0,1-.01-2.707ZM11.334,4l-.121.011a.667.667,0,0,0,.121,1.322h1.333l.12-.011A.666.666,0,0,0,12.667,4Z" transform="translate(0 4)" fill="#1d1d27"/>
    <g id="Mask_Group_12" data-name="Mask Group 12" clip-path="url(#clip-path)">
      <rect id="Color" width="24" height="24" fill="#1d2028"/>
    </g>
  </g>
</svg>
