<?xml version="1.0" encoding="UTF-8"?>
<svg width="52px" height="52px" viewBox="0 0 52 52" version="1.1" xmlns="http://www.w3.org/2000/svg" xmlns:xlink="http://www.w3.org/1999/xlink">
    <title>FCA97A12-79D7-4E7E-9ED8-8B81C2942767</title>
    <defs>
        <circle id="path-1" cx="21" cy="21" r="21"></circle>
        <filter x="-20.2%" y="-15.5%" width="140.5%" height="140.5%" filterUnits="objectBoundingBox" id="filter-2">
            <feOffset dx="0" dy="2" in="SourceAlpha" result="shadowOffsetOuter1"></feOffset>
            <feGaussianBlur stdDeviation="2.5" in="shadowOffsetOuter1" result="shadowBlurOuter1"></feGaussianBlur>
            <feColorMatrix values="0 0 0 0 0.758474365   0 0 0 0 0.774998084   0 0 0 0 0.829455389  0 0 0 0.572525131 0" type="matrix" in="shadowBlurOuter1"></feColorMatrix>
        </filter>
    </defs>
    <g id="Apps" stroke="none" stroke-width="1" fill="none" fill-rule="evenodd">
        <g id="apps-UI-kit" transform="translate(-931.000000, -494.000000)">
            <g id="Observe" transform="translate(936.000000, 497.000000)">
                <g id="Oval">
                    <use fill="black" fill-opacity="1" filter="url(#filter-2)" xlink:href="#path-1"></use>
                    <use fill="#5567D5" fill-rule="evenodd" xlink:href="#path-1"></use>
                </g>
                <path d="M28,12 C29.1045695,12 30,12.8954305 30,14 L30,24.1718313 C30,24.7021114 29.7894074,25.2106855 29.4145255,25.5857329 L25.5858399,29.4161083 C25.2107418,29.791372 24.7019003,30.0022068 24.1713144,30.0022068 L18,30.0022068 C16.8954305,30.0022068 16,29.1067763 16,28.0022068 L15.9989773,21.9855122 C16.1648457,21.9951599 16.3318572,22 16.5,22 C17.4917685,22 18.4441811,21.8316074 19.3547842,21.5015298 L26,21.5 C26.5522847,21.5 27,21.0522847 27,20.5 C27,19.9477153 26.5522847,19.5 26,19.5 L22.587511,19.5019968 C23.3011195,18.8554696 23.9791426,18.087475 24.6198489,17.2027461 L24.765593,16.9999902 L26,17 C26.5522847,17 27,16.5522847 27,16 C27,15.4477153 26.5522847,15 26,15 L24.721593,14.9999902 L24.6322154,14.8738781 C23.8117472,13.7152163 22.9264703,12.7534327 21.9802075,11.9990313 L28,12 Z M23,24 L20,24 C19.4477153,24 19,24.4477153 19,25 C19,25.5128358 19.3860402,25.9355072 19.8833789,25.9932723 L20,26 L23,26 C23.5522847,26 24,25.5522847 24,25 C24,24.4477153 23.5522847,24 23,24 Z M16.5,12 C18.9310109,12 21.0976776,13.3432259 23,16.0296777 C21.0831713,18.6765592 18.9165046,20 16.5,20 C14.0834954,20 11.9168287,18.6765592 10,16.0296777 C11.9023224,13.3432259 14.0689891,12 16.5,12 Z M16.5,14 C15.2030495,14 13.9747332,14.5649509 12.7810571,15.7882562 L12.566,16.015 L12.6049185,16.0572472 C13.2446064,16.7350691 13.8922794,17.2266509 14.5529681,17.5457436 C14.7583765,16.6593023 15.5521941,16 16.5,16 C17.4474447,16 18.2410184,16.6587999 18.4476183,17.5432967 C19.1075211,17.2268024 19.7552951,16.7351735 20.3950815,16.0572472 L20.433,16.015 C19.2325222,14.7022514 18.0027797,14.0651977 16.7054142,14.0047641 L16.5,14 Z" id="sample-observe" fill="#FFFFFF"></path>
            </g>
        </g>
    </g>
</svg>
