<?xml version="1.0" encoding="UTF-8"?>
<svg width="256px" height="232px" viewBox="0 0 256 232" version="1.1" xmlns="http://www.w3.org/2000/svg" xmlns:xlink="http://www.w3.org/1999/xlink">
    <title>779128A7-C7A1-4C10-AD41-D21D7E82EEA2</title>
    <g id="Home" stroke="none" stroke-width="1" fill="none" fill-rule="evenodd">
        <g id="new-dashboard-+" transform="translate(-581.000000, -480.000000)">
            <g id="Observ" transform="translate(709.000000, 596.000000) scale(-1, 1) translate(-709.000000, -596.000000) translate(581.000000, 480.000000)">
                <path d="M102.384814,217.230625 C41.1215351,219.762347 -25.7837794,117.340627 10.9143456,69.1574285 C47.6124706,20.9742295 103.498096,32.25 100.240908,6.82121026e-13 C100.259696,0.0647565032 148.143585,0.067304625 243.892574,0.0076443653 L243.892574,0.00764691231 C250.519988,0.00351743521 255.895917,5.37275065 255.900046,12.000165 C255.900048,12.0024585 255.900048,12.004752 255.900048,12.0070456 C255.906489,141.577172 255.906287,206.367432 255.899442,206.377825 C210.031996,228.195342 150.970956,215.227881 102.384814,217.230625 Z" id="Path" fill="#F7F8FB" fill-rule="nonzero" opacity="0.716632661" transform="translate(128.178687, 109.627531) scale(-1, 1) translate(-128.178687, -109.627531) "></path>
                <circle id="Oval" stroke="#C6CBF0" stroke-width="0.700790588" opacity="0.364866711" stroke-linecap="round" stroke-linejoin="round" cx="36.84375" cy="207.65625" r="13.59375"></circle>
                <g id="Group-2" transform="translate(37.625000, 96.062500)">
                    <path d="M46.9562511,7.36294094 C47.0771886,4.44786339 43.1607485,0.393393323 37.6156834,0.393393323 C26.3765582,0.393393323 24.1977482,11.927606 15.5834505,27.6091688 C13.1917905,31.9629188 0.996775305,41.283169 0.996775305,52.6296867 C0.996775305,63.9762044 9.98678545,66.7606694 18.4704706,66.7606694 C26.9541557,66.7606694 45.466301,49.5391691 45.466301,44.6778041 C45.466301,39.816439 42.266456,33.1190814 42.266456,26.2862738 C42.266456,19.4534661 43.2091235,15.5983011 43.2091235,13.798751 C43.2091235,11.999201 46.8991686,12.6432335 46.9562511,7.36294094 Z" id="Path" fill="#FF9D52"></path>
                    <path d="M12.3807752,30.1363355 C8.08604263,35.1002556 0,42.9963457 0,52.2362934 C0,63.5831336 8.99001015,66.3672761 17.4736953,66.3672761 C25.9573804,66.3672761 44.4695257,49.1457758 44.4695257,44.2844107 C44.4695257,39.4230457 41.2687132,32.726333 41.2687132,25.8938479 C41.2687132,19.0613628 42.2113807,15.2055528 42.2113807,13.4063252 C42.2113807,11.6070977 45.9027158,12.2504852 45.9594758,6.97019262 C46.0804133,4.05511507 42.1646182,1.46549439e-13 36.6189081,1.46549439e-13 C27.869483,1.46549439e-13 24.6109429,6.98986512 19.5328578,17.4853053" id="Path" stroke="#353552" stroke-width="0.9375" stroke-linecap="round" stroke-linejoin="round"></path>
                </g>
                <path d="M171.725938,161.14375 C173.205313,161.360312 177.190625,162.007187 177.190625,162.007187 L183.589063,164.859062 L192.096875,149.390312 L181.409375,155.693125 L176.11625,152.697812" id="Path" fill="#FFFFFF" fill-rule="nonzero"></path>
                <rect id="Rectangle" fill="#D8DFFF" fill-rule="nonzero" x="131.133125" y="162.7975" width="89.0625" height="2.8125"></rect>
                <rect id="Rectangle" fill="#CED3F3" fill-rule="nonzero" opacity="0.637191046" x="184.1875" y="26.25" width="62.8125" height="62.8125"></rect>
                <rect id="Rectangle" fill="#FFFFFF" fill-rule="nonzero" x="189.959688" y="40.13625" width="31.875" height="8.4375" rx="4.21875"></rect>
                <path d="M41.0891504,41.6516504 L59.2858496,59.8483496 C60.7503157,61.3128157 60.7503157,63.6871843 59.2858496,65.1516504 L41.0891504,83.3483496 C39.6246843,84.8128157 37.2503157,84.8128157 35.7858496,83.3483496 L17.5891504,65.1516504 C16.1246843,63.6871843 16.1246843,61.3128157 17.5891504,59.8483496 L35.7858496,41.6516504 C37.2503157,40.1871843 39.6246843,40.1871843 41.0891504,41.6516504 Z" id="Polygon-Copy-2" stroke="#CED3F3" stroke-width="0.703125"></path>
                <circle id="Oval" fill="#FFFFFF" fill-rule="nonzero" cx="234.34375" cy="44.3521875" r="4.21875"></circle>
                <rect id="Rectangle" fill="#CED3F3" fill-rule="nonzero" x="105.8125" y="49.1875" width="28.125" height="16.875" rx="6.1875"></rect>
                <circle id="Oval" fill="#FF9D52" fill-rule="nonzero" cx="134.407188" cy="49.585" r="4.41"></circle>
                <rect id="Rectangle" fill="#FFFFFF" fill-rule="nonzero" x="127.125" y="80.25" width="67.0584375" height="23.3746875"></rect>
                <path d="M78.0978125,178.983437 C78.269375,180.89875 81.4728125,196.342187 91.62875,196.342187 C106.72625,196.342187 131.310313,177.284687 139.505938,170.883437 C144.742813,169.8175 184.224688,158.508437 184.224688,158.508437 C183.49625,156.325937 181.94375,152.30125 181.94375,152.30125 C181.94375,152.30125 145.749688,154.593437 139.334375,155.662187 C132.919063,156.730937 102.8675,166.068437 101.410625,166.4875 C99.95375,166.906562 78.0978125,178.983437 78.0978125,178.983437 Z" id="Path" fill="#5567D5" fill-rule="nonzero"></path>
                <path d="M101.781875,168.36625 C102.85625,164.580625 118.353125,139.90375 125.105937,139.90375 C131.85875,139.90375 174.605937,152.309688 174.605937,152.309688 C173.683437,154.300938 170.51375,161.664063 170.51375,161.664063 L101.781875,168.36625 Z" id="Path" fill="#5567D5" fill-rule="nonzero"></path>
                <path d="M97.383125,137.125 C98.5896875,138.64375 100.552812,142.170625 101,143.242187 C103.320312,142.302812 124.625,134.523437 126.444687,134.135312 C128.264375,133.747187 135.81875,132.214375 136.623125,137.791562 C135.239375,138.953125 132.069687,137.92375 129.704375,138.438437 C127.339062,138.953125 101.84375,153.738437 100.055,154.135 C98.26625,154.531562 88.0540625,151.3225 88.0540625,151.3225 C88.0540625,151.3225 92.84375,137.87875 97.383125,137.125 Z" id="Path" fill="#FFFFFF" fill-rule="nonzero"></path>
                <path d="M85.7225,122.064063 C91.0915625,122.064063 98.0440625,131.73625 99.3321875,135.524688 C98.5953125,137.06875 95.763125,139.681563 94.9165625,139.900938 C94.07,140.120313 79.5434375,122.064063 85.7225,122.064063 Z" id="Path" fill="#A6B3FF" fill-rule="nonzero"></path>
                <path d="M86.375,123.625 C95.9375,130.529687 99.228125,150.79375 102.6875,166.147187 C99.7821875,169.406875 81.9565625,180.772187 78.06125,179.8975 C69.3903125,158.80375 58.7928125,121.203241 78.9303125,121.203241 C81.6078163,121.188384 84.2187187,122.037642 86.375,123.625" id="Path" fill="#A6B3FF" fill-rule="nonzero"></path>
                <path d="M65.0534375,149.019062 C64.915625,151.0525 62.93,180.17875 63.6725,190.405 C64.02125,195.217187 65.545625,198.654062 65.5765625,200.299375 C65.6946875,206.149375 70.3184375,209.119375 72.1015625,209.119375 C73.8846875,209.119375 74.09,208.509062 74.09,207.794687 C74.09,207.080312 70.3690625,199.331875 70.3690625,196.46875 C70.3690625,193.605625 75.125,152.070625 75.670625,149.62375 C76.21625,147.176875 65.0534375,149.019062 65.0534375,149.019062 Z" id="Path" fill="#FFFFFF" fill-rule="nonzero"></path>
                <path d="M73.026875,126.4375 C79.4646875,126.772188 78.6209375,149.62375 76.5396875,150.464688 C74.4584375,151.305625 64.49375,150.267813 63.453125,148.830625 C62.4125,147.393438 64.17875,125.9875 73.026875,126.4375 Z" id="Path" fill="#A6B3FF" fill-rule="nonzero"></path>
                <path d="M71.1678125,114.315625 C71.8934375,116.509375 72.779375,121.805312 72.7596875,123.416875 C73.9071875,123.979375 77.22875,124.181875 78.539375,123.194687 C78.01625,121.765937 77.493125,118.362812 77.5325,116.149375 C77.571875,113.935937 71.1678125,114.315625 71.1678125,114.315625 Z" id="Path" fill="#FFFFFF" fill-rule="nonzero"></path>
                <circle id="Oval" fill="#FFFFFF" fill-rule="nonzero" cx="71.0609375" cy="111.314688" r="1.9378125"></circle>
                <polyline id="Path" fill="#FFFFFF" fill-rule="nonzero" points="185.8475 157.810938 190.305312 156.157188 195.497187 155.656563 189.846875 139.200625 187.841562 149.682813 183.434375 151.572813"></polyline>
                <g id="Group-4" transform="translate(62.061380, 112.486563)" stroke="#32324D" stroke-linecap="round" stroke-linejoin="round" stroke-width="0.9375">
                    <path d="M84.0173699,31.1071875 C97.3092449,34.591875 111.430807,38.7009375 111.430807,38.7009375 M40.6261199,51.7171875 C41.3808958,49.0576892 47.2231584,39.1249785 54.1817087,31.6437077 M64.627346,26.5862424 C66.8894365,26.9545097 70.0646929,27.6444161 73.7067449,28.516875" id="Shape"></path>
                    <path d="M108.539557,47.5321875 C110.018932,47.74875 114.004245,48.395625 114.004245,48.395625 L120.402682,51.2475 L124.446257,43.8955462" id="Path"></path>
                    <path d="M80.9770574,41.49375 C78.8226824,41.701875 77.1295574,41.8959375 76.1423699,42.05625 C69.7298699,43.125 39.6754949,52.4625 38.2186199,52.8815625 C36.7617449,53.300625 14.9114324,65.3690625 14.9114324,65.3690625 C15.0829949,67.284375 18.2864324,82.7278125 28.4423699,82.7278125 C35.6704949,82.7278125 45.0726824,78.36 53.8111199,73.1034375" id="Path"></path>
                    <path d="M63.8798699,66.5446875 C69.1814324,62.840625 73.6308074,59.3784375 76.3195574,57.2803125 C81.5564324,56.214375 121.038307,44.9053125 121.038307,44.9053125 C120.30987,42.7228125 118.75737,38.698125 118.75737,38.698125 C118.75737,38.698125 106.38237,39.4828125 94.8286199,40.34625" id="Path"></path>
                    <path d="M35.4398699,20.3015625 C35.7119963,20.8218606 35.9478698,21.3603289 36.1458074,21.913125 C35.4089324,23.4571875 32.5767449,26.07 31.7301824,26.289375 M22.5361199,8.4525 C26.0151824,8.4525 30.1608074,12.51375 32.9958074,16.4034375" id="Shape"></path>
                    <path d="M62.4061199,26.7675 C54.4973699,30.9103125 38.2748699,40.21125 36.8686199,40.5234375 M32.1616391,24.6138052 C32.8340942,24.022496 33.5180193,23.6267683 34.1967449,23.5134375 C35.4033074,25.0321875 37.3664324,28.5590625 37.8136199,29.630625 C38.3761199,29.4 40.0861199,28.7615625 42.3614324,27.9234375" id="Shape"></path>
                    <path d="M50.4361199,24.973125 C56.3761199,22.8271875 62.3301824,20.720625 63.2583074,20.518125 C65.0892449,20.1159375 72.6323699,18.5971875 73.4367449,24.174375 C72.0529949,25.3359375 68.8833074,24.3065625 66.5179949,24.82125" id="Path"></path>
                    <path d="M13.9326824,63.9515625 C12.7038736,60.8433989 11.4607149,57.4496022 10.2927155,53.9186514 M4.86861884,16.9532479 C5.59979968,13.7239558 6.97629873,11.1451673 9.17993867,9.51849178 M14.7190576,7.62565216 C15.0505829,7.6032287 15.3912133,7.591875 15.7411199,7.591875 C19.8698699,7.591875 23.1829949,9.4340625 25.9026824,12.4940625" id="Shape"></path>
                    <path d="M30.4111199,19.618125 C34.7929949,28.899375 37.1048699,41.8959375 39.4983074,52.524375" id="Path"></path>
                    <path d="M7.21643244,82.168125 C7.64111994,76.0003125 11.5811365,39.4878341 12.112699,37.1618966 M1.12509003,37.1618966 C1.05196503,38.2222091 1.22018244,44.8940625 0.792682435,54.166875" id="Shape"></path>
                    <path d="M0.348307435,67.4559375 C0.289244935,71.1825 0.317369935,74.473125 0.486119935,76.7934375 C0.834869935,81.605625 2.35924494,85.0425 2.39018244,86.6878125 C2.50830744,92.5378125 7.13205744,95.5078125 8.91518244,95.5078125 C10.6983074,95.5078125 10.9036199,94.8975 10.9036199,94.183125 C10.9036199,93.85125 10.0936199,91.9865625 9.23018244,89.8040625" id="Path"></path>
                    <path d="M15.0633074,8.6071875 C14.7765983,7.38139717 14.5752121,6.13816461 14.4602063,4.88642919 M7.98143244,0.7096875 C8.70705744,2.9034375 9.59299494,8.199375 9.57330744,9.8109375" id="Shape"></path>
                    <path d="M11.9948699,37.111875 C8.55799494,37.393125 1.15549494,36.4509375 0.266744935,35.2246875 C-0.231067565,34.535625 -0.0876300647,29.265 1.17236994,24.01125" id="Path"></path>
                    <polyline id="Path" points="125.032057 34.3865625 124.655182 36.3525 120.247995 38.2425"></polyline>
                    <polyline id="Path" points="130.316745 36.52125 126.660495 25.8703125 125.490495 31.981875"></polyline>
                    <polyline id="Path" points="122.66112 44.480625 127.118932 42.826875 132.310807 42.32625"></polyline>
                    <line x1="29.9779949" y1="104.744062" x2="29.9779949" y2="108.062812" id="Path"></line>
                    <line x1="29.9779949" y1="82.730625" x2="29.9779949" y2="101.405625" id="Path"></line>
                    <line x1="118.231432" y1="37.4184375" x2="122.028307" y2="47.2340625" id="Path"></line>
                    <path d="M4.09174494,16.49625 C5.53736994,14.2125 7.42455744,12.7078125 9.84049494,12.84 C15.0717449,13.12125 15.4964324,28.246875 14.3404949,34.366875" id="Path"></path>
                    <line x1="4.21268244" y1="82.730625" x2="55.7433074" y2="82.730625" id="Path"></line>
                    <line x1="88.216759" y1="53.4196875" x2="157.739231" y2="53.4196875" id="Path-Copy"></line>
                    <line x1="29.9779949" y1="113.765625" x2="29.9779949" y2="118.4625" id="Path"></line>
                    <line x1="21.5995574" y1="118.4625" x2="38.3564324" y2="118.4625" id="Path"></line>
                </g>
                <line x1="138.642187" y1="87.1546875" x2="182.66625" y2="87.1546875" id="Path" stroke="#CED3F3" stroke-width="0.625" stroke-linecap="round" stroke-linejoin="round"></line>
                <line x1="138.642187" y1="96.72" x2="159.179062" y2="96.72" id="Path" stroke="#CED3F3" stroke-width="0.625" stroke-linecap="round" stroke-linejoin="round"></line>
                <line x1="189.959688" y1="58.4746875" x2="234.022188" y2="58.4746875" id="Path" stroke="#FFFFFF" stroke-width="0.625" stroke-linecap="round" stroke-linejoin="round"></line>
                <line x1="189.959688" y1="67.1034375" x2="234.022188" y2="67.1034375" id="Path" stroke="#FFFFFF" stroke-width="0.625" stroke-linecap="round" stroke-linejoin="round"></line>
                <line x1="189.959688" y1="75.6384375" x2="220.345938" y2="75.6384375" id="Path" stroke="#FFFFFF" stroke-width="0.625" stroke-linecap="round" stroke-linejoin="round"></line>
                <g id="Group" transform="translate(74.299748, 109.104243) rotate(-10.000000) translate(-74.299748, -109.104243) translate(64.799748, 95.104243)">
                    <path d="M5.61140306,16.7874303 C5.82102806,18.3596178 5.75781806,24.5013079 5.23375555,26.5765955 C6.00969057,27.394133 9.69909063,28.3180955 11.8369432,27.519908 C11.7111682,26.1573455 11.8791907,22.7194954 12.1726657,21.5246329 C12.4661407,20.3297704 5.40177806,15.2152428 5.61140306,16.7874303 Z" id="Path" fill="#FFFFFF"></path>
                    <path d="M11.1958132,26.6785055 C11.0700382,25.315943 11.2380607,21.8784154 11.5312132,20.6835529 C11.8243657,19.4886904 4.76097055,14.3741628 4.97059555,15.9460278 C5.18022055,17.5178928 5.11701055,23.6602279 4.59294804,25.735193 C5.00413555,26.168633 6.23415057,26.6314205 7.61799809,26.8520105" id="Path" stroke="#353552" stroke-width="0.9375" stroke-linecap="round" stroke-linejoin="round"></path>
                    <path d="M3.98955053,13.1177027 C3.34842052,7.71002266 5.94583557,2.98023758 9.79164813,2.55324757 C13.6374607,2.12625757 17.2736483,6.16524763 17.9151008,11.5722827 C18.5565533,16.9793178 15.9588157,21.7097479 12.1133257,22.1364154 C8.26783561,22.5630829 4.63068054,18.5253828 3.98955053,13.1177027 Z" id="Path" fill="#FFFFFF"></path>
                    <path d="M17.1639983,13.7401278 C16.7402332,17.7975003 14.4456457,20.9580004 11.3354557,21.3030754 C7.48996559,21.7300654 3.85345553,17.6910753 3.21168052,12.2843627 C2.56990551,6.87765015 5.16828805,2.14689757 9.01377812,1.71990756 C12.7392982,1.30646255 16.2700282,5.08455012 17.0688608,10.2387452" id="Path" stroke="#353552" stroke-width="0.9375" stroke-linecap="round" stroke-linejoin="round"></path>
                    <path d="M17.3591108,8.44887017 C16.6134907,8.44887017 14.6659132,7.77936016 14.1489457,6.12074263 C13.5855382,7.68809266 9.14277812,12.8767952 6.37347057,13.7894703 C6.60180058,14.8395303 6.79981558,18.6131028 4.01502803,20.5909954 C1.23024049,22.5688879 -0.869557047,9.77273269 0.454627975,7.50555766 C1.778813,5.23838262 7.40837309,0.825615045 9.05118812,0.840733597 C10.6940031,0.855930045 17.6332358,0.886567546 17.3591108,8.44887017 Z" id="Path" fill="#FF9D52"></path>
                    <path d="M9.82422063,10.1794052 C8.46972061,11.5052027 6.99041308,12.6652352 5.81361056,13.0532027 C5.98776057,13.8552603 6.14449557,16.2459528 4.96769305,18.2132028" id="Path" stroke="#353552" stroke-width="0.9375" stroke-linecap="round" stroke-linejoin="round"></path>
                    <path d="M3.57767859,13.8714856 C3.49254308,12.3230965 4.1147704,12.1204981 4.61002784,12.2078254 C5.10528529,12.2951526 6.79458322,12.0320608 6.53591628,13.5618929 C6.53591628,13.5618929 7.69659875,13.6012625 7.67871763,13.7633997 C7.6040309,14.4406221 8.59262035,16.2235604 7.88657313,16.6034123 C7.42010261,16.8543724 5.21746748,15.8166124 5.03991296,15.8590914 C4.52927121,15.9812598 3.6628141,15.4198746 3.57767859,13.8714856 Z" id="Path" fill="#FFFFFF"></path>
                    <path d="M16.7992507,7.71228016 C16.0536307,7.71228016 14.1060532,7.04277015 13.5887632,5.38447512 C13.4039707,5.89821763 12.8025082,6.80154014 11.9794882,7.81580266" id="Path" stroke="#32324D" stroke-width="0.9375" stroke-linecap="round" stroke-linejoin="round"></path>
                    <path d="M5.27310056,15.5909553 C4.54927689,15.590705 3.89990938,15.1459522 3.63809574,14.4711379 C3.37628209,13.7963235 3.55577409,13.0299908 4.09002823,12.5416331 C4.62428236,12.0532753 5.40361336,11.9431551 6.05226057,12.2643677" id="Path" stroke="#353552" stroke-width="0.9375" stroke-linecap="round" stroke-linejoin="round"></path>
                    <path d="M13.9080382,13.4737428 C13.9080382,14.3348178 14.4417757,15.5377428 14.9229457,16.0614828" id="Path" stroke="#353552" stroke-width="0.9375" stroke-linecap="round" stroke-linejoin="round"></path>
                    <path d="M11.1209932,12.0015302 C11.1209932,11.5177802 11.3399707,11.1230402 11.6099032,11.1230402 C11.8798357,11.1230402 12.0981682,11.5164902 12.0981682,12.0015302 C12.0981682,12.4865702 11.8798357,12.8796977 11.6099032,12.8796977 C11.3399707,12.8796977 11.1209932,12.4865702 11.1209932,12.0015302 Z" id="Path" fill="#3D3D57"></path>
                    <path d="M10.4231031,16.7496978 C10.7314131,17.5195053 11.3296507,17.9129553 12.0826882,17.9645553" id="Path" stroke="#353552" stroke-width="0.9375" stroke-linecap="round" stroke-linejoin="round"></path>
                </g>
                <path d="M196.83915,188.40165 L206.53585,198.09835 C208.000316,199.562816 208.000316,201.937184 206.53585,203.40165 L196.83915,213.09835 C195.374684,214.562816 193.000316,214.562816 191.53585,213.09835 L181.83915,203.40165 C180.374684,201.937184 180.374684,199.562816 181.83915,198.09835 L191.53585,188.40165 C193.000316,186.937184 195.374684,186.937184 196.83915,188.40165 Z" id="Polygon" stroke="#CED3F3" stroke-width="0.703125"></path>
            </g>
        </g>
    </g>
</svg>
