<?xml version="1.0" encoding="UTF-8"?>
<svg width="228px" height="187px" viewBox="0 0 228 187" version="1.1" xmlns="http://www.w3.org/2000/svg" xmlns:xlink="http://www.w3.org/1999/xlink">
    <title>CD4AF4FD-D975-4543-AC57-003CC8947F7E</title>
    <g id="Home" stroke="none" stroke-width="1" fill="none" fill-rule="evenodd">
        <g id="new-home-page-observability-card-view-" transform="translate(-396.000000, -257.000000)">
            <g id="Group" transform="translate(396.331255, 257.316261)">
                <path d="M227.668745,29.7557968 L227.668745,154.613441 C206.248779,180.246529 184.329426,190.299502 161.910688,184.772362 C128.282581,176.481651 112.36308,149.587614 84.8450344,147.82122 C57.3269892,146.054827 0.196247729,135.092289 31.9142806,81.6414462 C44.7568898,53.3556337 40.8800071,48.2544798 47.7574994,32.5164307 C56.2499624,13.0827777 75.0428939,0 104.515456,0 C132.30656,0 143.640815,9.64090728 164.533806,10.205654 C201.154649,11.1955314 222.199629,17.7122457 227.668745,29.7557968 Z" id="Path-3" fill="#F7F8FB" fill-rule="nonzero"></path>
                <path d="M23.6687452,144.866642 C37.9318647,143.901216 48.62311,146.757673 55.7424812,153.436013 C66.7222239,163.735581 70.7092132,174.683739 90.3948274,174.683739 C103.634631,174.683739 121.839362,164.158325 121.839362,145.021209" id="Path" stroke="#5567D5" stroke-linecap="round" stroke-dasharray="3,6"></path>
                <rect id="Rectangle" fill="#5567D5" fill-rule="nonzero" x="7.79775692" y="105.475068" width="39.5663962" height="54.2016995"></rect>
                <rect id="Rectangle" fill="#F0F1FB" fill-rule="nonzero" x="0" y="114.412582" width="39.5663962" height="54.2016995"></rect>
                <rect id="Rectangle" fill="#FFFFFF" fill-rule="nonzero" x="0" y="114.412582" width="39.5663962" height="3.74798986"></rect>
                <rect id="Rectangle" fill="#FFFFFF" fill-rule="nonzero" x="4.33208718" y="124.791631" width="31.1910277" height="2.59476221"></rect>
                <rect id="Rectangle" fill="#FFFFFF" fill-rule="nonzero" x="4.33208718" y="129.981155" width="31.1910277" height="2.59476221"></rect>
                <rect id="Rectangle" fill="#FFFFFF" fill-rule="nonzero" x="4.33208718" y="135.17068" width="31.1910277" height="2.59476221"></rect>
                <polyline id="Path-2" stroke="#32324D" stroke-width="0.575" points="7.79775692 118.160572 39.5663962 118.160572 39.5663962 168.614281"></polyline>
                <rect id="Rectangle" fill="#A6B3FF" fill-rule="nonzero" x="7.79775692" y="105.475068" width="39.5663962" height="3.74798986"></rect>
                <rect id="Rectangle" fill="#F0F1FB" fill-rule="nonzero" x="4.66874516" y="13.6260258" width="80.1762892" height="25.6408483" rx="2.76"></rect>
                <ellipse id="Oval" fill="#5567D5" fill-rule="nonzero" cx="17.7514031" cy="26.2068159" rx="8.40170695" ry="8.38719336"></ellipse>
                <rect id="Rectangle" fill="#FFFFFF" fill-rule="nonzero" x="31.9142806" y="18.2988907" width="47.0495589" height="2.87560915" rx="1.43780458"></rect>
                <rect id="Rectangle" fill="#FFFFFF" fill-rule="nonzero" x="31.9142806" y="25.0086454" width="15.8432188" height="2.87560915" rx="1.43780458"></rect>
                <polyline id="Path" stroke="#FFFFFF" stroke-width="2.76" stroke-linecap="round" points="22.2172774 24.3619436 16.4311349 29.7557968 13.5625521 26.889773"></polyline>
                <g id="man" transform="translate(54.923694, 20.826906)">
                    <path d="M9.76504881,72.1555934 C9.76504881,36.0576896 39.1403874,6.79409246 75.3771736,6.79409246 C111.61396,6.79409246 140.989298,36.0567579 140.989298,72.1555934 C140.989298,108.254429 111.61396,137.517094 75.3771736,137.517094 C39.1403874,137.517094 9.76504881,108.253497 9.76504881,72.1555934 Z" id="Path" fill="#FFFFFF"></path>
                    <path d="M14.1184577,95.0516853 C15.9647633,93.3535907 22.442733,87.430525 23.7835025,86.826758 C25.124272,86.222991 40.6733635,103.502559 39.1375815,104.738977 C37.6017995,105.975395 29.4739397,113.432103 26.4173406,115.328193 C20.311625,108.708186 16.0662446,101.10566 14.1184577,95.0516853 Z" id="Path" fill="#FFFFFF"></path>
                    <path d="M13.496943,93.5487901 C15.3432486,91.8506955 21.5920669,86.108853 22.934707,85.505086 C24.2773471,84.9013191 39.9382084,103.459699 38.4024264,104.695651 C36.8666444,105.931603 28.7154018,113.857442 26.3065062,115.377109" id="Path" stroke="#32324D" stroke-width="0.575" stroke-linecap="round" stroke-linejoin="round"></path>
                    <path d="M54.3981293,75.5336137 C63.3079098,89.0326504 41.4262895,105.973532 38.0769379,106.946733 C34.7275862,107.919935 20.3060131,88.2378769 21.3502888,85.6457786 C22.3945644,83.0536803 43.6387697,59.2323715 54.3981293,75.5336137 Z" id="Path" fill="#5567D5"></path>
                    <path d="M31.562491,72.9792508 C38.636722,68.0904155 47.4412799,65.2695753 53.2205717,74.0255939 C62.1303522,87.5246306 40.2487319,104.465512 36.8993803,105.438713 C33.5500286,106.411915 19.1284555,86.7275278 20.1731988,84.1377588 C20.3756939,83.6364832 21.3353238,82.3381047 22.8299521,80.690324" id="Path" stroke="#32324D" stroke-width="0.575" stroke-linecap="round" stroke-linejoin="round"></path>
                    <path d="M72.2999977,64.0844031 C62.2645694,64.0243059 52.3900148,65.9478814 47.5231197,69.7144369 C39.6197347,75.8322361 34.3632823,113.649664 36.6300105,124.903676 C47.4871102,132.831378 60.8803079,137.515697 75.3734323,137.515697 C86.8146343,137.515697 97.569785,134.594695 106.934595,129.466402 C108.592435,115.414378 104.506058,75.243377 98.0430528,70.3564051 C92.5326632,66.1892018 82.3358936,64.1445003 72.2999977,64.0844031 Z" id="Path" fill="#5567D5"></path>
                    <path d="M38.5876181,85.8330582 C40.4891071,77.5172863 43.0350259,70.5823519 46.0514065,68.2483453 C55.7851967,60.7152343 85.549625,60.5549752 96.570872,68.8893819 C103.427175,74.0754419 107.913399,119.055615 105.09811,130.274686" id="Path" stroke="#32324D" stroke-width="0.575" stroke-linecap="round" stroke-linejoin="round"></path>
                    <path d="M35.1915009,123.623466 C34.7364717,120.760232 34.7079447,116.11691 35.0512041,110.693722" id="Path" stroke="#32324D" stroke-width="0.575" stroke-linecap="round" stroke-linejoin="round"></path>
                    <path d="M114.473208,125.227921 C113.074917,123.834971 103.436528,110.739377 102.350631,109.506686 C101.264734,108.273995 121.871525,91.2515872 123.138872,92.7400405 C124.40622,94.2284938 129.487301,101.312041 131.856446,105.20671 C129.952619,108.624795 119.425217,121.861082 114.473208,125.227921 Z" id="Path" fill="#FFFFFF"></path>
                    <path d="M114.940864,124.190429 C113.771724,122.60228 103.325694,108.266542 102.239329,107.033385 C101.152965,105.800228 121.76069,88.7782856 123.028038,90.2667389 C124.295385,91.7551922 130.365091,100.030433 132.455513,104.079772" id="Path" stroke="#32324D" stroke-width="0.575" stroke-linecap="round" stroke-linejoin="round"></path>
                    <path d="M92.3292328,68.3452462 C102.735045,61.2323496 127.850505,85.6611523 127.787957,92.9431596 C127.725174,100.225167 105.394604,113.45726 101.674869,111.546263 C97.5749292,109.441931 76.362057,79.2531164 92.3292328,68.3452462 Z" id="Path" fill="#5567D5"></path>
                    <path d="M86.0589023,84.2425795 C84.6559346,77.4716311 85.5566399,70.9764775 91.3494937,67.0189155 C101.757176,59.9078824 126.870766,84.3362193 126.807752,91.62009 C126.744499,98.9039608 104.414865,112.133725 100.694662,110.223194 C99.5044775,109.611507 96.8715747,106.633203 94.1250315,102.446433" id="Path" stroke="#32324D" stroke-width="0.575" stroke-linecap="round" stroke-linejoin="round"></path>
                    <path d="M132.020169,39.1470562 C137.721092,48.8345015 140.989298,60.1147623 140.989298,72.1555934 C140.989298,108.254429 111.61396,137.517094 75.3771736,137.517094 C63.1039961,137.517094 51.6179195,134.160164 41.793671,128.317742 M26.161879,115.382335 C15.9569099,103.86103 9.76504881,88.728594 9.76504881,72.1555934 C9.76504881,47.0864266 23.9327281,25.3134349 44.727167,14.3492017" id="Shape" stroke="#32324D" stroke-width="0.575" stroke-linecap="round" stroke-linejoin="round"></path>
                    <path d="M131.776477,83.0341138 C131.841013,81.1561936 135.514451,80.3944968 139.9815,81.3322923 C144.448549,82.2700877 148.017699,84.5523827 147.95363,86.4298371 C147.889561,88.3072915 144.215189,89.0689882 139.74814,88.1311928 C135.28109,87.1933973 131.710537,84.9115682 131.776477,83.0341138 Z" id="Path" fill="#FFFFFF"></path>
                    <path d="M133.101346,75.8508709 C133.165883,73.9734165 136.83932,73.2112539 141.306369,74.1490493 C145.773418,75.0868448 149.343036,77.3691398 149.278499,79.2465942 C149.213963,81.1240486 145.540058,81.8862112 141.073009,80.9484157 C136.605959,80.0106203 133.039148,77.7283253 133.101346,75.8508709 Z" id="Path" fill="#FFFFFF"></path>
                    <path d="M132.930184,68.4272392 C132.994721,66.5497849 136.668158,65.7880881 141.135675,66.7254177 C145.603192,67.6627473 149.171874,69.9455082 149.107337,71.8229626 C149.042801,73.7004169 145.368896,74.4625795 140.901847,73.5247841 C136.434797,72.5869887 132.865647,70.3046936 132.930184,68.4272392 Z" id="Path" fill="#FFFFFF"></path>
                    <path d="M134.766201,65.702834 C136.234173,65.4326296 138.199263,65.4903975 140.348142,65.9413592 C144.815191,66.8791547 148.384341,69.1614497 148.319805,71.0389041 C148.276313,72.3065352 146.58714,73.0659026 144.118852,73.1353171" id="Path" stroke="#32324D" stroke-width="0.575" stroke-linecap="round" stroke-linejoin="round"></path>
                    <path d="M133.665339,73.4954343 C135.13752,72.8604541 137.666603,72.7658826 140.519304,73.3649908 C144.986353,74.3027863 148.555503,76.5850813 148.490967,78.4625357 C148.444201,79.8312605 146.480046,80.6055357 143.684867,80.5636075" id="Path" stroke="#32324D" stroke-width="0.575" stroke-linecap="round" stroke-linejoin="round"></path>
                    <path d="M134.582412,80.1843896 C135.899331,80.0800349 137.487959,80.1904459 139.192564,80.5482338 C143.659614,81.4860292 147.228764,83.7678584 147.164227,85.6457786 C147.124009,86.8188382 145.673808,87.5558439 143.501078,87.716103" id="Path" stroke="#32324D" stroke-width="0.575" stroke-linecap="round" stroke-linejoin="round"></path>
                    <path d="M1.24903461,71.1525762 C1.31357112,69.2751219 4.98747599,68.5134251 9.45452528,69.4512206 C13.9215746,70.389016 17.4907245,72.6708452 17.426188,74.5487654 C17.3616515,76.4266857 13.6882143,77.1879165 9.22069733,76.2501211 C4.75318038,75.3123256 1.18449809,73.0300306 1.24903461,71.1525762 Z" id="Path" fill="#FFFFFF"></path>
                    <path d="M2.57530678,63.9693333 C2.6398433,62.0918789 6.31374816,61.3301822 10.7807975,62.2679776 C15.2478467,63.2057731 18.8169967,65.4880681 18.7524602,67.3669201 C18.6879237,69.2457721 15.0144864,70.0060712 10.5474372,69.0682758 C6.08038786,68.1304803 2.51077027,65.8472536 2.57530678,63.9693333 Z" id="Path" fill="#FFFFFF"></path>
                    <path d="M2.40414472,56.5457017 C2.46868123,54.6682473 6.1425861,53.9065505 10.6096354,54.844346 C15.0766847,55.7821414 18.6458346,58.0644365 18.5812981,59.9418909 C18.5167616,61.8193452 14.8433244,62.581042 10.3762751,61.6432465 C5.9092258,60.7054511 2.34007586,58.4222243 2.40414472,56.5457017 Z" id="Path" fill="#FFFFFF"></path>
                    <path d="M3.32870046,58.3211306 C1.95379207,57.4173436 1.12463814,56.4073384 1.15597108,55.4937682 C1.2205076,53.6163138 4.89441246,52.8546171 9.36146176,53.7924125 C11.3625614,54.2116951 13.1831459,54.9021138 14.5781635,55.7024777" id="Path" stroke="#32324D" stroke-width="0.575" stroke-linecap="round" stroke-linejoin="round"></path>
                    <path d="M5.21990098,66.6881481 C2.85075612,65.595684 1.2841088,64.166862 1.32713315,62.9173998 C1.39166966,61.0399454 5.06557453,60.2782487 9.53262382,61.2155783 C11.3938944,61.6064428 13.0994355,62.2307081 14.4509611,62.9616574" id="Path" stroke="#32324D" stroke-width="0.575" stroke-linecap="round" stroke-linejoin="round"></path>
                    <path d="M6.4629304,74.8208333 C2.72869792,73.7372206 -0.0561930484,71.760536 0.000860973197,70.1001769 C0.0653974894,68.2227225 3.73930235,67.4605599 8.20635165,68.3983553 C10.8191452,68.9471497 13.1251566,69.9552914 14.5758252,71.0738443" id="Path" stroke="#32324D" stroke-width="0.575" stroke-linecap="round" stroke-linejoin="round"></path>
                    <path d="M82.3396349,49.7221101 C81.9145356,52.1325192 79.9545897,61.83798 81.4567005,72.3582467 C79.7240353,73.6626815 69.6212646,74.6051356 66.8424532,72.3582467 C66.9406609,68.0913473 67.038401,59.5580143 66.6465053,57.3758813 C66.2546097,55.1937482 82.766137,47.3121668 82.3396349,49.7221101 Z" id="Path" fill="#FFFFFF"></path>
                    <path d="M65.7079199,70.9587745 C65.80566,66.6918751 65.9038677,58.1585421 65.5115044,55.9764091 C65.1191411,53.794276 81.6297332,45.9136263 81.2051016,48.3226379 C80.78047,50.7316494 78.8200564,60.4385078 80.3221672,70.9587745 C79.5379083,71.5480995 77.0392227,72.064283 74.2805205,72.2445745" id="Path" stroke="#32324D" stroke-width="0.575" stroke-linecap="round" stroke-linejoin="round"></path>
                    <path d="M49.3479131,35.756272 C50.3094136,24.0061097 59.1616724,15.1233745 69.1194698,15.9158187 C79.0772672,16.7082628 86.3708288,26.8758662 85.4088606,38.6260286 C84.4468924,50.3761909 75.5951013,59.2607895 65.6373039,58.4688113 C55.6795065,57.676833 48.3859448,47.5064344 49.3479131,35.756272 Z" id="Path" fill="#FFFFFF"></path>
                    <path d="M75.1583106,54.4376419 C72.0792641,56.5298621 68.4773782,57.6092819 64.71836,57.3101936 C60.0810839,56.9412249 56.01996,54.5387356 53.104593,50.8905109" id="Path" stroke="#32324D" stroke-width="0.575" stroke-linecap="round" stroke-linejoin="round"></path>
                    <path d="M49.235208,43.2372056 C48.482282,40.5523993 48.1815792,37.6286018 48.4294368,34.5999837 C49.3909374,22.8498214 58.2431962,13.9670863 68.2014612,14.7595304 C78.1597263,15.5519745 85.4523526,25.719578 84.4908521,37.4697403 C84.2009054,41.0103491 83.1949775,44.2900708 81.6577925,47.1234896" id="Path" stroke="#32324D" stroke-width="0.575" stroke-linecap="round" stroke-linejoin="round"></path>
                    <path d="M66.8541446,31.4646815 C66.9916354,30.1947211 67.5710611,29.2154632 68.1481485,29.2774239 C68.7252359,29.3393845 69.081122,30.4197361 68.9431635,31.6892307 C68.805205,32.9587252 68.2257794,33.9384489 67.6491596,33.8760224 C67.0725399,33.8135959 66.7161861,32.7341761 66.8541446,31.4646815 Z" id="Path" fill="#32334F"></path>
                    <path d="M58.9194267,32.5287276 C58.4615915,34.4946972 57.192841,36.7411203 55.6776359,37.9328147" id="Path" stroke="#32324D" stroke-width="0.575" stroke-linecap="round" stroke-linejoin="round"></path>
                    <path d="M62.6195203,44.7619967 C62.6195203,43.6085537 63.5581559,42.6735034 64.7160217,42.6735034 C65.8738875,42.6735034 66.8125232,43.6085537 66.8125232,44.7619967 C66.8125232,45.9154397 65.8738875,46.85049 64.7160217,46.85049 C63.5582629,46.8502328 62.6197784,45.9153332 62.6195203,44.7619967 L62.6195203,44.7619967 Z" id="Path" stroke="#32324D" stroke-width="0.575" stroke-linecap="round" stroke-linejoin="round"></path>
                    <path d="M80.1519405,38.9609888 C78.8859959,38.871076 75.2523095,33.7064459 78.9799948,30.1560539 C77.1509925,28.3810908 66.3916329,20.3583509 53.4651557,25.3338379 C51.7858033,23.6324823 47.2018401,16.7916535 51.1586768,13.8422332 C55.1155135,10.892813 56.7682095,14.4595104 57.2807603,15.8771515 C56.0854318,12.1343554 56.7583887,2.06691391 66.820941,1.95525446 C76.8834933,1.84422825 87.7022452,31.1325165 87.2649869,36.388457 C86.8277287,41.6443975 86.8057488,42.3543828 80.1519405,38.9609888 Z" id="Path" fill="#FF9D52"></path>
                    <path d="M79.7151499,15.5757339 C83.521869,23.4363512 86.0336489,31.8462287 85.8185272,34.4332024 C85.3808013,39.6891429 85.3592891,40.3991282 78.7054807,37.0057342 C77.4400038,36.9158214 73.8058497,31.7511913 77.533535,28.2007993 C76.0866076,26.7962025 69.0465155,21.4787672 59.7663515,21.786707" id="Path" stroke="#32324D" stroke-width="0.575" stroke-linecap="round" stroke-linejoin="round"></path>
                    <path d="M52.018696,23.3790492 C50.3393436,21.6776935 45.7553803,14.8368647 49.712217,11.8874445 C53.6690537,8.93802423 55.324088,12.5042558 55.8343006,13.9223628 C54.6389721,10.1791008 55.3123966,0.112125183 65.3744812,0.000316485335 C67.8998232,-0.027635689 70.4752043,1.79810716 72.9070151,4.63106003" id="Path" stroke="#32324D" stroke-width="0.575" stroke-linecap="round" stroke-linejoin="round"></path>
                    <path d="M77.2772596,41.4561862 C77.2772596,38.9200525 79.3410856,36.8641099 81.8869439,36.8641099 C84.4328023,36.8641099 86.4966283,38.9200525 86.4966283,41.4561862 C86.4966283,43.99232 84.4328023,46.0482626 81.8869439,46.0482626 C79.3410856,46.0482626 77.2772596,43.99232 77.2772596,41.4561862 Z" id="Path" fill="#FFFFFF"></path>
                    <path d="M79.5425848,36.6623883 C81.509975,35.7607745 83.8421194,36.3449778 85.1473904,38.0663949 C86.4526615,39.787812 86.3790854,42.1822529 84.9705661,43.8209168 C83.5620469,45.4595807 81.1983999,45.9005925 79.2900506,44.8807935" id="Path" stroke="#32324D" stroke-width="0.575" stroke-linecap="round" stroke-linejoin="round"></path>
                </g>
                <polygon id="Path-Copy-4" fill="#F7F8FB" fill-rule="nonzero" points="161.910688 10.205654 161.910688 32.1982293 171.751587 32.1982293 176.57288 40.4769401 181.394173 32.1956583 191.235072 32.1956583 191.235072 10.205654"></polygon>
                <polygon id="Path" fill="#5567D5" fill-rule="nonzero" points="157.289032 2.53761187 157.289032 24.5301872 167.12993 24.5301872 171.951224 32.808898 176.772517 24.5276162 186.613416 24.5276162 186.613416 2.53761187"></polygon>
                <path d="M167.598669,13.2176631 C167.599709,13.8366268 167.227011,14.3952221 166.654472,14.6328104 C166.081934,14.8703988 165.422395,14.7401542 164.983595,14.3028484 C164.544795,13.8655425 164.413216,13.2073635 164.650252,12.635415 C164.887288,12.0634665 165.446222,11.6904701 166.066258,11.6904701 C166.472441,11.6897897 166.862222,11.8503883 167.149679,12.1368661 C167.437136,12.4233439 167.598669,12.812181 167.598669,13.2176631" id="Path" fill="#FFFFFF" fill-rule="nonzero"></path>
                <path d="M173.481057,13.2176631 C173.482099,13.8368606 173.109122,14.3956183 172.536266,14.6330555 C171.963411,14.8704927 171.303671,14.7397763 170.865074,14.3019369 C170.426477,13.8640974 170.295534,13.2054966 170.533382,12.633631 C170.77123,12.0617654 171.330955,11.6894325 171.951224,11.6904701 C172.357407,11.6897897 172.747188,11.8503883 173.034645,12.1368661 C173.322101,12.4233439 173.483633,12.812181 173.483633,13.2176631" id="Path" fill="#FFFFFF" fill-rule="nonzero"></path>
                <path d="M179.363447,13.2176631 C179.363447,14.0611072 178.678517,14.7448538 177.833614,14.7448538 C176.98871,14.7448538 176.30378,14.0611072 176.30378,13.2176631 C176.30378,12.3742189 176.98871,11.6904723 177.833614,11.6904723 C178.678517,11.6904723 179.363447,12.3742189 179.363447,13.2176631" id="Path" fill="#FFFFFF" fill-rule="nonzero"></path>
            </g>
        </g>
    </g>
</svg>
