<?xml version="1.0" encoding="UTF-8"?>
<svg width="20px" height="15px" viewBox="0 0 20 15" version="1.1" xmlns="http://www.w3.org/2000/svg" xmlns:xlink="http://www.w3.org/1999/xlink">
<title>B8957A10-AFC8-4F1D-A69A-97088D57AB74</title>
<g id="Apps" stroke="none" stroke-width="1" fill="none" fill-rule="evenodd">
    <g id="apps-create-" transform="translate(-614.000000, -545.000000)">
        <g id="create" transform="translate(504.000000, 120.000000)">
            <g id="Card/Mode/Default" transform="translate(72.000000, 384.000000)">
                <g id="Icon/20/Develope" transform="translate(38.000000, 41.000000)">
                    <path d="M19.9989542,10.6828051 L19.9989542,10.6828051 C19.9989542,10.6650238 19.9973856,10.6488114 19.9963399,10.6305071 C19.9947712,10.4924406 19.9869281,10.35542 19.9717647,10.2204913 C19.6585621,4.77261493 17.0264052,1.801046 15.700915,1.801046 L15.2653595,1.801046 C14.7079739,0.939175956 13.9560784,0.0872425197 13.1215686,0.0108875279 C12.4088889,-0.0539619172 11.7966013,0.172488161 11.3966013,0.647353453 C11.191634,0.890015893 10.9950327,1.25767041 10.9150327,1.801046 L10.5369935,1.801046 L9.46196078,1.801046 L9.08392157,1.801046 C9.00392157,1.25767041 8.80679739,0.890015893 8.60235294,0.647353453 C8.20235294,0.172488161 7.58901961,-0.0529159584 6.87738562,0.0108875279 C6.04287582,0.0872425197 5.29098039,0.938652977 4.73359477,1.801046 L4.29856209,1.801046 C2.9730719,1.801046 0.340915033,4.77261493 0.0271895425,10.2204913 C0.0130718954,10.35542 0.00575163399,10.4929636 0.00366013072,10.6305071 C0.0031372549,10.6482884 0.00104575163,10.6645008 0.000522875817,10.6828051 L0.000522875817,10.6822821 C0.000522875817,10.6880349 0,10.6937877 0,10.6995404 C0,13.070729 1.92836601,15 4.29960784,15 C6.35660131,15 8.07895425,13.5461173 8.49882353,11.6126625 C8.91137255,11.9410935 9.43267974,12.1393027 10,12.1393027 C10.5673203,12.1393027 11.0886275,11.9410935 11.5011765,11.6126625 C11.9210458,13.5455943 13.6433987,15 15.7003922,15 C18.0711111,15 20,13.071252 20,10.6995404 C20,10.6937877 19.9989542,10.6885579 19.9989542,10.6828051 Z M4.29960784,13.9247544 C2.52183007,13.9247544 1.07503268,12.4776704 1.07503268,10.6995404 C1.07503268,8.92193346 2.52183007,7.47432649 4.29960784,7.47432649 C6.07738562,7.47432649 7.52366013,8.92193346 7.52366013,10.6995404 C7.52366013,12.4781934 6.07738562,13.9247544 4.29960784,13.9247544 Z M10,10.7063392 C9.45830065,10.7063392 9.01803922,10.2654675 9.01803922,9.72366087 C9.01803922,9.1823772 9.45830065,8.74150557 10,8.74150557 C10.5411765,8.74150557 10.9819608,9.1823772 10.9819608,9.72366087 C10.9819608,10.2654675 10.5411765,10.7063392 10,10.7063392 Z M15.7003922,13.9247544 C13.9226144,13.9247544 12.475817,12.4776704 12.475817,10.6995404 C12.475817,8.92193346 13.9220915,7.47432649 15.7003922,7.47432649 C17.3573856,7.47432649 18.7252288,8.73156896 18.9035294,10.3418225 C18.9103268,10.4636767 18.9202614,10.5803011 18.9244444,10.7047702 C18.9218301,12.4808082 17.4766013,13.9247544 15.7003922,13.9247544 Z" id="path-1"></path>
                    <use id="Shape" fill="#5567D5" fill-rule="nonzero" xlink:href="#path-1"></use>
                </g>
            </g>
        </g>
    </g>
</g>
</svg>

