<svg id="Layer_1" data-name="Layer 1" xmlns="http://www.w3.org/2000/svg" viewBox="0 0 1200 800"><defs><style>.cls-1{fill:#00297a;}</style></defs><path class="cls-1" d="M191.35,308.41A137.31,137.31,0,1,0,328.66,445.72,137.25,137.25,0,0,0,191.35,308.41Zm0,206.11a68.8,68.8,0,1,1,68.79-68.8A68.86,68.86,0,0,1,191.35,514.52Z"/><path class="cls-1" d="M432.66,491.86c0-10.92,13.1-16.11,20.75-8.46,34.39,34.94,91.17,95,91.45,95.27a9.69,9.69,0,0,0,4.91,3.27c1.37.55,3.55.55,6,.55h62c11.2,0,14.47-12.83,9.29-19.38L524.38,458l-5.46-5.46c-11.73-13.92-10.37-19.38,3-33.58l81.35-90.9c5.18-6.55,1.91-19.11-9.56-19.11H537.49a16.7,16.7,0,0,0-5.46.55c-3.28,1.09-4.64,2.18-5.46,3.27-.28.28-45.32,48.87-73.16,78.62a12.3,12.3,0,0,1-21.29-8.46V227.07c0-7.92-6.56-10.92-11.74-10.92H374.52c-7.92,0-11.74,5.18-11.74,9.82v345.6c0,7.92,6.55,10.1,12,10.1h45.86c7.1,0,11.74-5.19,11.74-10.37V491.86Z"/><path class="cls-1" d="M807.19,569.93l-4.91-45.86a10.88,10.88,0,0,0-12.83-9.55,70.74,70.74,0,0,1-10.65.82c-36.58,0-66.33-28.67-68.52-65V390.31c0-7.37,5.46-13.38,12.83-13.38h61.43a11.46,11.46,0,0,0,10.92-11.74v-43.4c0-8.46-5.46-12.83-10.38-12.83h-62A12.77,12.77,0,0,1,710,296.68V227.07c0-4.37-3.27-10.92-11.74-10.92H652.69c-5.74,0-11.2,3.55-11.2,10.64V450.37c1.91,74.25,62.79,133.48,137.31,133.48a133.87,133.87,0,0,0,18.29-1.36C803.64,581.67,808,576.21,807.19,569.93Z"/><path class="cls-1" d="M1138.05,512.33c-38.77,0-44.77-13.92-44.77-66.06V320.43a11.77,11.77,0,0,0-12-11.74h-45.86c-5.74,0-12,4.64-12,11.74v5.73a135.55,135.55,0,0,0-67.7-18A137.31,137.31,0,1,0,1045,549.73c12.83,19.66,33.58,32.76,66.06,33,5.46,0,34.94,1.09,34.94-12.83V521.07C1146,517,1142.69,512.33,1138.05,512.33ZM956,514.52a68.8,68.8,0,1,1,68.79-68.8C1024.49,483.67,993.64,514.52,956,514.52Z"/></svg>
