<?xml version="1.0" encoding="UTF-8"?>
<svg width="16px" height="16px" viewBox="0 0 16 16" version="1.1" xmlns="http://www.w3.org/2000/svg" xmlns:xlink="http://www.w3.org/1999/xlink">
    <title>E229A176-E4ED-4DA7-8CEB-211C64AFDE4B</title>
    <g id="Home" stroke="none" stroke-width="1" fill="none" fill-rule="evenodd">
        <g id="new-home-page-insights" transform="translate(-668.000000, -605.000000)" fill="#FFFFFF">
            <g id="Button/Pill/40-+-Icon/Default" transform="translate(656.000000, 593.000000)">
                <g id="Icon/Add" transform="translate(12.000000, 12.000000)">
                    <path d="M7.11111111,1.11111111 C7.47930094,1.11111111 7.77777778,1.40958794 7.77777778,1.77777778 C7.77777778,2.11528512 7.52697433,2.39421419 7.20157383,2.43835856 L7.11111111,2.44444444 L3.55555556,2.44444444 C2.98025894,2.44444444 2.50708098,2.88166637 2.45018099,3.4419509 L2.44444444,3.55555556 L2.44444444,12.4444444 C2.44444444,13.0197411 2.88166637,13.492919 3.4419509,13.549819 L3.55555556,13.5555556 L12.4444444,13.5555556 C13.0197411,13.5555556 13.492919,13.1183336 13.549819,12.5580491 L13.5555556,12.4444444 L13.5555556,8.88888889 C13.5555556,8.52069906 13.8540324,8.22222222 14.2222222,8.22222222 C14.5597296,8.22222222 14.8386586,8.47302567 14.882803,8.79842617 L14.8888889,8.88888889 L14.8888889,12.4444444 C14.8888889,13.7444727 13.8740404,14.8074705 12.5933532,14.8844277 L12.4444444,14.8888889 L3.55555556,14.8888889 C2.25552726,14.8888889 1.19252953,13.8740404 1.11557226,12.5933532 L1.11111111,12.4444444 L1.11111111,3.55555556 C1.11111111,2.25552726 2.12595964,1.19252953 3.40664682,1.11557226 L3.55555556,1.11111111 L7.11111111,1.11111111 Z M14.8888889,1.11111111 L14.8888889,5.33333333 C14.8888889,5.70152317 14.5904121,6 14.2222222,6 C13.8847149,6 13.6057858,5.74919655 13.5616414,5.42379605 L13.5555556,5.33333333 L13.5551111,3.38711111 L8.47140452,8.47140452 C8.21105499,8.73175405 7.78894501,8.73175405 7.52859548,8.47140452 C7.29191409,8.23472313 7.2703976,7.86435541 7.46404601,7.60336742 L7.52859548,7.52859548 L12.6121111,2.44411111 L10.6666667,2.44444444 C10.3291593,2.44444444 10.0502303,2.19364099 10.0060859,1.8682405 L10,1.77777778 C10,1.44027043 10.2508035,1.16134137 10.5762039,1.11719699 L10.6666667,1.11111111 L14.8888889,1.11111111 Z" id="Combined-Shape"></path>
                </g>
            </g>
        </g>
    </g>
</svg>
