<?xml version="1.0" encoding="UTF-8"?>
<svg width="22px" height="22px" viewBox="0 0 22 22" version="1.1" xmlns="http://www.w3.org/2000/svg" xmlns:xlink="http://www.w3.org/1999/xlink">
    <title>44603470-B036-4FE3-B547-0E4C15669A0C</title>
    <g id="Home" stroke="none" stroke-width="1" fill="none" fill-rule="evenodd">
        <g id="new-integration-scedule-options" transform="translate(-25.000000, -369.000000)" fill="#FFFFFF" fill-rule="nonzero">
            <path d="M47,369 L47,386 C47,388.688755 44.8776933,390.881818 42.2168896,390.99538 L42,391 L30,391 C27.3112453,391 25.1181819,388.877693 25.0046195,386.21689 L25,386 L25,374 C25,371.311245 27.1223067,369.118182 29.7831104,369.00462 L30,369 L47,369 Z M35,381 L27,381 L27,386 C27,387.597681 28.24892,388.903661 29.8237272,388.994907 L30,389 L35,389 L35,381 Z M45,381 L37,381 L37,389 L42,389 C43.5976809,389 44.9036609,387.75108 44.9949073,386.176273 L45,386 L45,381 Z M35,371 L30,371 C28.4023191,371 27.0963391,372.24892 27.0050927,373.823727 L27,374 L27,379 L35,379 L35,371 Z" id="Combined-Shape"></path>
        </g>
    </g>
</svg>