<?xml version="1.0" encoding="UTF-8"?>
<svg width="14px" height="13px" viewBox="0 0 14 13" version="1.1" xmlns="http://www.w3.org/2000/svg" xmlns:xlink="http://www.w3.org/1999/xlink">
    <title>94CEAC7F-24E8-4C3F-9F01-D0731118DC8C</title>
    <g id="Observe" stroke="none" stroke-width="1" fill="none" fill-rule="evenodd">
        <g id="Observe-Logs-View" transform="translate(-94.000000, -86.000000)">
            <g id="Icon/Control/Burger" transform="translate(94.000000, 86.000000)">
                <path d="M12,11 L12,12.5 L2,12.5 L2,11 L12,11 Z M13,0 C13.5522847,0 14,0.44771525 14,1 L14,9 C14,9.55228475 13.5522847,10 13,10 L1,10 C0.44771525,10 0,9.55228475 0,9 L0,1 C0,0.44771525 0.44771525,0 1,0 L13,0 Z M12.5,1.5 L1.5,1.5 L1.5,8.5 L12.5,8.5 L12.5,1.5 Z" id="path-1"></path>
                <use id="Combined-Shape" fill="#5567D5" fill-rule="nonzero" xlink:href="#path-1"></use>
            </g>
        </g>
    </g>
</svg>
