<?xml version="1.0" encoding="UTF-8"?>
<svg width="279px" height="213px" viewBox="0 0 279 213" version="1.1" xmlns="http://www.w3.org/2000/svg" xmlns:xlink="http://www.w3.org/1999/xlink">
    <g id="Home" stroke="none" stroke-width="1" fill="none" fill-rule="evenodd">
        <g id="rerquest-popup" transform="translate(-576.000000, -230.000000)">
            <g id="Group" transform="translate(576.910691, 230.410289)">
                <g id="drawkit-grape-pack-illustration-11">
                    <path d="M244.860738,80.2237005 C261.198322,90.8723362 265.816645,110.122886 261.023689,126.544034 C256.275572,142.984132 242.158654,156.615675 224.865311,163.959235 C207.593207,171.350172 187.168278,172.432281 168.156929,176.466975 C149.12198,180.530096 143.51326,187.101352 116.019951,185.633743 C88.526642,184.166134 79.4379065,172.696636 60.2944027,161.100445 C41.1650584,149.557316 15.6885496,141.246314 14.8484254,125.569946 C14.0531393,109.908739 29.0078217,94.618973 39.4173378,78.9501851 C49.8480931,63.2415998 55.7006436,47.0895582 69.6594484,36.971554 C83.6182532,26.8535498 105.671513,22.6880931 124.173124,28.4757658 C142.674735,34.2634386 157.608179,49.888639 179.064384,58.7236522 C200.551268,67.5795117 228.542034,69.6357085 244.860738,80.2237005 Z" id="Path" fill="#FFFFFF" fill-rule="nonzero" transform="translate(138.817972, 105.843536) scale(-1, -1) rotate(-13.000000) translate(-138.817972, -105.843536) "></path>
                    <rect id="Rectangle-Copy" stroke="#C8CEF0" stroke-width="1.34439771" opacity="0.503673735" stroke-linecap="round" stroke-linejoin="round" x="183.089309" y="155.589711" width="51.8018018" height="27.7206349" rx="13.8603175"></rect>
                    <path d="M61.2493742,53.6712755 L78.9880163,71.3734267 C80.4539894,72.8363841 80.4564342,75.2107515 78.9934767,76.6767247 C78.9916584,76.6785467 78.9898383,76.6803669 78.9880163,76.6821851 L61.2493742,94.3843363 C59.7855352,95.845164 57.4153756,95.845164 55.9515366,94.3843363 L38.2128945,76.6821851 C36.7469213,75.2192277 36.7444766,72.8448603 38.2074341,71.3788871 C38.2092523,71.3770651 38.2110725,71.3752449 38.2128945,71.3734267 L55.9515366,53.6712755 C57.4153756,52.2104478 59.7855352,52.2104478 61.2493742,53.6712755 Z" id="Polygon" stroke="#C8CEF0" stroke-width="1.34439771" opacity="0.503673735" stroke-linecap="round" stroke-linejoin="round"></path>
                    <g id="Group-2" transform="translate(65.089309, 55.589711)">
                        <path d="M153,82.8666667 L153,108.5 C153,110.985281 150.985281,113 148.5,113 L7.5,113 C5.01471863,113 3,110.985281 3,108.5 L3,82.8666667 L3,82.8666667" id="Path" fill="#F0F1FB"></path>
                        <polyline id="Path" fill="#F0F1FB" points="3 82.8666667 3 68.7383728 3 52.7333333 153 52.7333333 153 82.8666667 106.674744 82.8666667"></polyline>
                        <line x1="153" y1="52.7333333" x2="153" y2="82.8666667" id="Path" stroke="#43435C"></line>
                        <polyline id="Path" stroke="#43435C" points="2 85.8666667 2 71.7383728 2 55.7333333"></polyline>
                        <rect id="Rectangle-Copy-6" fill="#F0F1FB" x="3" y="22.6" width="150" height="30.1333333"></rect>
                        <path d="M153,52.7333333 L46.7740326,52.7333333 M21.6565857,52.7333333 L0,52.7333333 L0,37.5470428 M153,52.7333333 L153,54.9989014" id="Shape" stroke="#43435C"></path>
                        <path d="M117.154831,0 L123.992898,0 C125.295491,0 126.562705,0.423904628 127.603113,1.2076786 L153.612318,20.8012798 C154.053439,21.1335909 154.141647,21.7605816 153.809336,22.2017026 C153.620397,22.452507 153.324624,22.6 153.010616,22.6 C97.6336869,22.6 60.4736041,22.6 41.5303671,22.6 C32.6565195,22.6 24.6355838,22.6 17.4675598,22.6 C14.2501875,22.6 9.42412897,22.6 2.9893843,22.6 C2.43709955,22.6 1.9893843,22.1522847 1.9893843,21.6 C1.9893843,21.2859921 2.1368773,20.9902191 2.38768173,20.8012798 L28.3968868,1.2076786 C29.4372947,0.423904628 30.7045086,0 32.0071023,0 L93.2578125,0" id="Path" fill="#D7DFFF"></path>
                        <path d="M117.154831,0 L123.992898,0 C125.295491,0 126.562705,0.423904628 127.603113,1.2076786 L153.612318,20.8012798 C153.906399,21.0228205 154.035626,21.4896281 154,22.2017026 L154.010673,42.7550545 M136.690557,22.6 C90.2683863,22.6 58.548323,22.6 41.5303671,22.6 M2,29.0995054 C2,29.0763306 2,26.5419969 2,21.4965041 C2.1097617,21.1450364 2.23898894,20.913295 2.38768173,20.8012798 L28.3968868,1.2076786 C29.4372947,0.423904628 30.7045086,0 32.0071023,0 L93.2578125,0" id="Shape" stroke="#43435C"></path>
                        <path d="M76.2726593,91.9066667 L76.2726593,91.9066667 L58.5,91.9066667 C56.0147186,91.9066667 54,89.891948 54,87.4066667 L54,82.8666667 L54,82.8666667 L99,82.8666667 L99,87.4066667 C99,89.891948 96.9852814,91.9066667 94.5,91.9066667" id="Path" stroke="#43435C" fill="#A6B3FF"></path>
                        <path d="M148.5,113 L4.5,113 C2.01471863,113 0,110.985281 0,108.5 L0,82.8666667 L53.7817993,82.8666667 L99.1544495,82.8666667 L150,82.8666667" id="Path" stroke="#43435C"></path>
                        <path d="M54,52.7333333 L54,52.7333333 L99,52.7333333 L99,57.2733333 C99,59.7586147 96.9852814,61.7733333 94.5,61.7733333 L58.5,61.7733333 C56.0147186,61.7733333 54,59.7586147 54,57.2733333" id="Path" stroke="#43435C" fill="#A6B3FF"></path>
                        <path d="M99,27.14 C99,29.6252814 96.9852814,31.64 94.5,31.64 L58.5,31.64 C56.0147186,31.64 54,29.6252814 54,27.14 L54,22.6 L54,22.6 L99,22.6" id="Path" stroke="#43435C" fill="#A6B3FF"></path>
                    </g>
                </g>
                <g id="Logo/GitHub" transform="translate(212.089309, 15.456377)" fill="#161514">
                    <path d="M24.9976979,0 C11.1943276,0 0,11.4760513 0,25.633467 C0,36.9584555 7.1625894,46.5651047 17.0969029,49.954576 C18.3477086,50.1906116 18.8035237,49.3991056 18.8035237,48.719323 C18.8035237,48.1119247 18.7820375,46.4990147 18.7697597,44.3605321 C11.8158937,45.9089257 10.3486909,40.9238537 10.3486909,40.9238537 C9.21145523,37.9623936 7.57236256,37.1740347 7.57236256,37.1740347 C5.30249547,35.5847282 7.74425243,35.6161996 7.74425243,35.6161996 C10.2535376,35.7971603 11.5734062,38.2582249 11.5734062,38.2582249 C13.8033703,42.1748424 17.4253353,41.0434451 18.8495657,40.3872661 C19.0767059,38.7318697 19.7228276,37.6020459 20.4364775,36.9616026 C14.8853556,36.314865 9.04877375,34.1150132 9.04877375,24.2927848 C9.04877375,21.494976 10.0233279,19.2054306 11.6225176,17.4147071 C11.3646828,16.766396 10.5067682,14.1589893 11.8680745,10.6310438 C11.8680745,10.6310438 13.9660518,9.9418198 18.7421345,13.2589069 C20.73575,12.6892743 22.875165,12.4060315 25.0007674,12.3950166 C27.124835,12.4060315 29.2627152,12.6892743 31.2594002,13.2589069 C36.0324135,9.9418198 38.1273213,10.6310438 38.1273213,10.6310438 C39.4916971,14.1589893 38.6337825,16.766396 38.3774824,17.4147071 C39.9797416,19.2054306 40.9466221,21.494976 40.9466221,24.2927848 C40.9466221,34.1401903 35.1008318,36.3069972 29.5328279,36.9411462 C30.4291108,37.7326523 31.2287056,39.2967816 31.2287056,41.688609 C31.2287056,45.1142725 31.198011,47.8790363 31.198011,48.719323 C31.198011,49.4053999 31.6492219,50.2032002 32.9169097,49.9530025 C42.8435495,46.5556633 50,36.9553083 50,25.633467 C50,11.4760513 38.8056724,0 24.9976979,0" id="Fill-4"></path>
                </g>
            </g>
        </g>
    </g>
</svg>
