<?xml version="1.0" encoding="UTF-8"?>
<svg width="12px" height="12px" viewBox="0 0 12 12" version="1.1" xmlns="http://www.w3.org/2000/svg" xmlns:xlink="http://www.w3.org/1999/xlink">
    <defs>
        <path d="M8.3125,0 C10.003872,0 11.375,1.37112795 11.375,3.0625 L11.375,3.0625 L11.375,8.3125 C11.375,10.003872 10.003872,11.375 8.3125,11.375 L8.3125,11.375 L3.0625,11.375 C1.37112795,11.375 0,10.003872 0,8.3125 L0,8.3125 L0,3.0625 C0,1.37112795 1.37112795,0 3.0625,0 L3.0625,0 Z M8.3125,0.875 L3.0625,0.875 C1.85437711,0.875 0.875,1.85437711 0.875,3.0625 L0.875,3.0625 L0.875,8.3125 C0.875,9.52062289 1.85437711,10.5 3.0625,10.5 L3.0625,10.5 L8.3125,10.5 C9.52062289,10.5 10.5,9.52062289 10.5,8.3125 L10.5,8.3125 L10.5,3.0625 C10.5,1.85437711 9.52062289,0.875 8.3125,0.875 L8.3125,0.875 Z M5.6875,2.1875 C5.92912458,2.1875 6.125,2.38337542 6.125,2.625 L6.1245,5.2495 L8.75,5.25 C8.99162458,5.25 9.1875,5.44587542 9.1875,5.6875 C9.1875,5.92912458 8.99162458,6.125 8.75,6.125 L6.1245,6.1245 L6.125,8.75 C6.125,8.99162458 5.92912458,9.1875 5.6875,9.1875 C5.44587542,9.1875 5.25,8.99162458 5.25,8.75 L5.2495,6.1245 L2.625,6.125 C2.38337542,6.125 2.1875,5.92912458 2.1875,5.6875 C2.1875,5.44587542 2.38337542,5.25 2.625,5.25 L5.2495,5.2495 L5.25,2.625 C5.25,2.38337542 5.44587542,2.1875 5.6875,2.1875 Z" id="path-1"></path>
    </defs>
    <g id="API" stroke="none" stroke-width="1" fill="none" fill-rule="evenodd">
        <g id="Portal-Overview" transform="translate(-996.000000, -90.000000)">
            <g id="Button/Square/32-with-icon/Default-Copy" transform="translate(986.000000, 80.000000)">
                <g id="Icon/Download" transform="translate(10.312500, 10.312500)">
                    <mask id="mask-2" fill="white">
                        <use xlink:href="#path-1"></use>
                    </mask>
                    <use id="Combined-Shape" fill="#FFFFFF" xlink:href="#path-1"></use>
                </g>
            </g>
        </g>
    </g>
</svg>
