<?xml version="1.0" encoding="UTF-8"?>
<svg width="16px" height="16px" viewBox="0 0 14 17" version="1.1" xmlns="http://www.w3.org/2000/svg" xmlns:xlink="http://www.w3.org/1999/xlink">
    <title>ADF9883E-D963-4DBD-9058-27C205D36BFD</title>
    <g id="Manage" stroke="none" stroke-width="1" fill="none" fill-rule="evenodd">
        <g id="manage-overview" transform="translate(-617.000000, -528.000000)" fill="#5567D5" fill-rule="nonzero">
            <g id="Icon/Apps/Webhook-Copy-7" transform="translate(617.250000, 528.250000)">
                <path d="M11.75,2.84217094e-14 C12.7164983,2.84217094e-14 13.5,0.783501688 13.5,1.75 L13.5,1.75 L13.5,15.9635683 L6.75,12.588 L0,15.9635683 L0,1.75 C0,0.783501688 0.783501688,2.84217094e-14 1.75,2.84217094e-14 L1.75,2.84217094e-14 Z M11.75,1.5 L1.75,1.5 C1.61192881,1.5 1.5,1.61192881 1.5,1.75 L1.5,1.75 L1.5,13.536 L6.75049947,10.9114745 L12,13.537 L12,1.75 C12,1.63165327 11.9177666,1.53251318 11.8073227,1.50660268 L11.8073227,1.50660268 L11.75,1.5 Z M8.75,4 C9.16421356,4 9.5,4.33578644 9.5,4.75 C9.5,5.12969577 9.21784612,5.44349096 8.85177056,5.49315338 L8.75,5.5 L4.75,5.5 C4.33578644,5.5 4,5.16421356 4,4.75 C4,4.37030423 4.28215388,4.05650904 4.64822944,4.00684662 L4.75,4 L8.75,4 Z" id="Combined-Shape"></path>
            </g>
        </g>
    </g>
</svg>
