<?xml version="1.0" encoding="UTF-8"?>
<svg width="227px" height="230px" viewBox="0 0 227 230" version="1.1" xmlns="http://www.w3.org/2000/svg" xmlns:xlink="http://www.w3.org/1999/xlink">
    <title>C8432FF6-D858-4441-9D9B-6A412102D9E3</title>
    <g id="Home" stroke="none" stroke-width="1" fill="none" fill-rule="evenodd">
        <g id="new-home-Box-Shaped-tooltip-girl" transform="translate(-733.000000, -313.000000)">
            <g id="Group-4" transform="translate(480.000000, 224.000000)">
                <g id="drawkit-grape-pack-illustration-1" transform="translate(366.191454, 204.145422) scale(-1, 1) translate(-366.191454, -204.145422) translate(253.310826, 89.290844)">
                    <path d="M202.072083,162.341837 C226.025652,180.429887 231.813535,202.639774 219.43573,228.971495 C99.8514697,229.285677 39.968868,229.531564 39.787925,229.709156 C36.8892941,207.746378 23.6506799,187.226679 0.0720825197,168.150059 C-0.0240275066,81.4900449 -0.0240275066,37.9640297 0.0720825197,37.5720132 C33.8657051,-4.61481448 102.090628,-21.2908439 148.772153,41.3273353 C174.017151,82.6121593 150.141861,123.127787 202.072083,162.341837 Z" id="Path" fill="#F7F8FB" fill-rule="nonzero" opacity="0.755964007"></path>
                    <path d="M21.9677777,228.971495 C30.6864071,228.933798 97.3872895,228.961678 97.3969712,228.971495 C99.3393758,228.170787 92.3946901,202.55813 93.7528039,201.770417 C92.7184503,194.707622 37.7558321,189.55518 33.9525233,190.289931 C33.8335269,192.930443 31.3593417,217.534406 21.9677777,228.971495 Z" id="Path" fill="#3C3744" fill-rule="nonzero"></path>
                    <path d="M96.5217592,69.4096007 C97.3593109,69.014672 98.5767359,66.3557915 98.5767359,62.4156888 C98.5767359,52.6205383 91.1623432,48.028344 79.3038918,48.028344 C71.0244866,48.028344 61.2667797,51.1326674 55.0469281,62.7876565 C50.4014907,71.448535 48.5112783,90.570432 44.6347409,97.4495391 C42.1815838,101.798347 36.9777786,110.606176 32.9822448,118.890494 C31.4810591,120.993719 23.9339397,137.038846 35.4582858,142.310685 C46.9826319,147.582524 100.498986,145.415009 101.922366,143.151057 C103.345746,140.887105 95.3455253,124.717989 92.7138736,121.443754 C90.0822218,118.16952 86.3063737,114.0044 88.457463,97.8995741 C90.6085522,81.7947487 88.6634183,72.3026831 90.5078629,71.5357866 C92.3523075,70.7688902 94.5903557,70.7229683 96.5217592,69.4096007" id="Path" fill="#FF9D52" fill-rule="nonzero"></path>
                    <path d="M66.7772296,80.6788455 C66.7772296,83.4458385 64.5416651,85.6889295 61.7839565,85.6889295 C59.0262479,85.6889295 56.7906834,83.4458385 56.7906834,80.6788455 C56.7906834,77.9118525 59.0262479,75.6687615 61.7839565,75.6687615 C64.5406192,75.6712933 66.7747063,77.9129019 66.7772296,80.6788455" id="Path" fill="#FFFFFF" fill-rule="nonzero"></path>
                    <path d="M32.0577341,188.393355 C31.9387377,191.033867 32.0577341,208.891628 21.3516433,227.732126" id="Path" stroke="#373754" stroke-linecap="round" stroke-linejoin="round"></path>
                    <path d="M142.687795,110.316867 C146.555179,104.172512 145.433867,97.0867557 143.772494,99.268048 C143.218703,99.9982069 135.991958,114.688636 134.550271,116.1811 L134.550271,116.1811 C133.428958,116.217837 132.536485,116.364787 132.161189,116.672464 C130.696617,117.866435 131.245831,126.233413 130.696617,126.968164 C130.147403,127.702915 109.254377,159.885013 108.334443,160.895296 C108.242907,161.262671 105.588371,148.854562 104.77828,146.659493 C102.691266,148.349421 97.4966145,151.338939 95.9313538,151.848673 C96.1098485,153.267661 96.9885913,170.809843 95.9313538,176.508756 C96.8192502,178.272159 102.183243,183.617473 104.462482,183.617473 C108.85162,183.617473 113.519941,181.922953 114.746519,181.073397 C119.867942,177.546592 139.630503,132.005801 141.076767,131.059809 C143.964719,129.158641 148.77492,122.600987 149.447708,118.449644 C149.447708,116.612766 150.948893,115.414203 142.674065,110.303091" id="Path" fill="#FFFFFF" fill-rule="nonzero"></path>
                    <path d="M84.3475095,116.598989 C97.2403145,112.374171 108.970616,141.745845 108.055259,144.115418 C107.139902,146.48499 94.1235235,153.566153 91.2859165,153.189593 C88.4483094,152.813034 79.3405061,118.229218 84.3475095,116.589805" id="Path" fill="#A6B3FF" fill-rule="nonzero"></path>
                    <path d="M82.4664506,114.702413 C95.3592556,110.477594 107.089557,139.853861 106.1742,142.218841 C105.258843,144.583821 92.2424646,151.669577 89.4048576,151.302202 C86.5672505,150.934826 77.4319865,116.341826 82.4664506,114.702413 Z" id="Path" stroke="#373754" stroke-linecap="round" stroke-linejoin="round"></path>
                    <path d="M68.8276295,109.256071 C105.318341,110.114811 96.1006949,191.888015 94.4255914,194.80865 C92.1692361,198.739569 45.4539855,202.307704 34.3140894,191.341544 C31.7373591,188.806652 34.1859394,108.443252 68.8276295,109.256071" id="Path" fill="#A6B3FF" fill-rule="nonzero"></path>
                    <path d="M62.7084672,107.680948 C64.1037975,107.432002 65.5207124,107.325837 66.9374171,107.364087 C78.1505418,107.625842 85.0477577,115.529008 89.1760183,126.440062" id="Path" stroke="#373754" stroke-linecap="round" stroke-linejoin="round"></path>
                    <path d="M94.5491646,156.02757 C95.5377503,174.566258 93.281395,191.607891 92.5353789,192.912074 C90.2790236,196.842992 43.5637731,200.411127 32.4238769,189.444967 C30.0805627,187.14887 31.8929698,120.405918 58.3330602,109.0035" id="Path" stroke="#373754" stroke-linecap="round" stroke-linejoin="round"></path>
                    <path d="M93.450736,60.3629779 C93.5239646,64.9092503 61.9395672,69.2121363 61.7656494,75.6687615 C61.5917315,82.1253867 61.4864655,85.8542485 61.4864655,85.8542485 C62.6169315,91.8746152 60.1683512,113.159436 59.4772566,115.382058 C62.1272154,117.857251 75.4182008,117.678155 76.8690418,116.1811 C76.6813936,114.684044 76.7088543,104.489373 77.0887275,103.322956 L77.0887275,103.322956 C77.6470322,103.39822 78.2096647,103.436571 78.7729846,103.43776 C88.9380254,103.43776 97.1808163,91.4016192 97.1808163,76.5504628 C97.1808163,68.7896545 97.0526663,66.7369436 93.4598896,60.3492013" id="Path" fill="#FFFFFF" fill-rule="nonzero"></path>
                    <path d="M49.9941568,111.740448 C64.122694,116.144362 55.6647942,150.484791 52.9644907,151.839488 C50.2641872,153.194186 23.8012129,145.607881 23.2611522,142.627547 C22.7210915,139.647212 31.9936591,106.124194 49.9941568,111.740448" id="Path" fill="#A6B3FF" fill-rule="nonzero"></path>
                    <path d="M56.0492442,127.542188 C55.9348245,137.980246 52.593771,149.180608 51.0742782,149.942912 C48.3739747,151.297609 21.9110004,143.711304 21.3709397,140.73097 C21.2107522,139.853861 21.8972701,136.345425 23.4076093,131.964471" id="Path" stroke="#373754" stroke-linecap="round" stroke-linejoin="round"></path>
                    <path d="M30.8494627,117.315372 C35.1791019,111.55676 40.9550053,107.612065 48.1039444,109.843871 C48.6826658,110.021684 49.2410736,110.260268 49.7698943,110.555662" id="Path" stroke="#373754" stroke-linecap="round" stroke-linejoin="round"></path>
                    <path d="M116.490275,143.922545 C122.298216,135.050426 128.522644,125.49407 128.820135,125.094549 C129.369349,124.359798 128.820135,115.99282 130.284707,114.798849 C131.749278,113.604879 141.085921,114.798849 141.085921,115.864238 C141.085921,116.929627 137.273458,120.456433 136.339794,120.718188" id="Path" stroke="#373754" stroke-linecap="round" stroke-linejoin="round"></path>
                    <path d="M103.002488,145.075186 C103.812579,147.274847 106.366425,159.393648 106.457961,159.026272 C106.691377,158.764517 108.2246,156.482197 110.38942,153.212554" id="Path" stroke="#373754" stroke-linecap="round" stroke-linejoin="round"></path>
                    <path d="M140.797583,108.420291 C144.664967,102.275935 143.543654,95.1901795 141.882281,97.3714718 C141.32849,98.1016307 134.101746,112.79206 132.660058,114.284523" id="Path" stroke="#373754" stroke-linecap="round" stroke-linejoin="round"></path>
                    <path d="M142.088237,110.022967 C141.57106,111.005697 139.200285,114.96876 139.200285,114.96876" id="Path" stroke="#373754" stroke-linecap="round" stroke-linejoin="round"></path>
                    <path d="M144.623776,111.588905 C143.617776,113.873347 142.434869,116.075159 141.085921,118.174112" id="Path" stroke="#373754" stroke-linecap="round" stroke-linejoin="round"></path>
                    <path d="M146.898438,113.297202 C145.720746,115.860893 144.368938,118.340391 142.85256,120.718188" id="Path" stroke="#373754" stroke-linecap="round" stroke-linejoin="round"></path>
                    <path d="M140.770122,127.877418 C140.287443,128.35775 139.761974,128.792761 139.200285,129.177009 C137.754021,130.127594 117.99146,175.663792 112.870037,179.19519 C111.643459,180.040154 106.975137,181.734673 102.586,181.734673 C100.297607,181.734673 95.4324842,177.142479 94.5491646,175.392853" id="Path" stroke="#373754" stroke-linecap="round" stroke-linejoin="round"></path>
                    <path d="M147.571226,116.566844 C147.292042,118.298101 146.289726,120.447248 145.012803,122.504551" id="Path" stroke="#373754" stroke-linecap="round" stroke-linejoin="round"></path>
                    <path d="M91.1623432,91.6771508 C87.7846755,97.706702 82.6540988,101.554961 76.9056561,101.554961 C73.2442276,101.554961 69.8162152,99.9844303 66.9419939,97.2796279" id="Path" stroke="#373754" stroke-linecap="round" stroke-linejoin="round"></path>
                    <path d="M91.5696772,58.4664017 C94.0718176,63.4927384 95.3442171,69.0449727 95.2814503,74.663071 C95.2895404,77.4973746 94.9825232,80.3237406 94.3660932,83.0897475" id="Path" stroke="#373754" stroke-linecap="round" stroke-linejoin="round"></path>
                    <path d="M62.7084672,82.887691 C60.7394032,84.2485897 58.0845789,84.0147562 56.3819351,82.330458 C54.6792912,80.6461599 54.4085847,77.9859848 55.7368327,75.9911748 C57.0650808,73.9963647 59.6180206,73.2290008 61.8205708,74.1625218" id="Path" stroke="#373754" stroke-linecap="round" stroke-linejoin="round"></path>
                    <path d="M77.9217025,73.1338703 C77.9217025,74.1946671 77.464024,75.0579997 76.8781954,75.0579997 C76.2923669,75.0579997 75.8392651,74.1946671 75.8392651,73.1338703 C75.8392651,72.0730734 76.2969436,71.2051487 76.8781954,71.2051487 C77.4594472,71.2051487 77.9217025,72.0684812 77.9217025,73.1338703" id="Path" fill="#3E3E58" fill-rule="nonzero"></path>
                    <path d="M87.4276862,82.1299789 C87.6024931,82.4757353 87.8175808,82.799453 88.0684362,83.0943397" id="Path" stroke="#373754" stroke-linecap="round" stroke-linejoin="round"></path>
                    <path d="M86.407063,76.2060482 C86.3087951,77.6165211 86.4370545,79.0336743 86.7869362,80.4033138" id="Path" stroke="#373754" stroke-linecap="round" stroke-linejoin="round"></path>
                    <path d="M72.0679937,85.9323158 C72.2693723,87.2824209 73.7522508,89.0366391 75.8346883,89.7116917" id="Path" stroke="#373754" stroke-linecap="round" stroke-linejoin="round"></path>
                    <path d="M74.9788294,114.284523 C74.7911812,112.787468 74.8186419,102.592797 75.1985151,101.426379" id="Path" stroke="#373754" stroke-linecap="round" stroke-linejoin="round"></path>
                    <path d="M58.8685441,104.452635 C58.4108655,108.975947 57.8616513,112.631333 57.5961977,113.485482 C58.6488584,114.468211 61.3720458,115.028459 64.3698404,115.258069" id="Path" stroke="#373754" stroke-linecap="round" stroke-linejoin="round"></path>
                    <path d="M59.6054066,83.9622644 C60.0630851,86.2996913 59.9440887,90.9378076 59.6054066,95.8698242" id="Path" stroke="#373754" stroke-linecap="round" stroke-linejoin="round"></path>
                    <path d="M87.1301951,47.4818729 C93.1715521,49.5024384 96.6865235,53.7869557 96.6865235,60.5191125 C96.6865235,64.4592152 95.4690985,67.1180957 94.6269699,67.5130244" id="Path" stroke="#373754" stroke-linecap="round" stroke-linejoin="round"></path>
                    <path d="M46.0947355,85.583309 C48.1634426,77.2117388 50.0353479,66.6864295 53.1475621,60.8681193 C58.9829637,49.9432891 67.921426,46.5358809 75.8392651,46.1730975" id="Path" stroke="#373754" stroke-linecap="round" stroke-linejoin="round"></path>
                    <path d="M31.0920323,116.993918 C33.8381037,111.295005 37.16085,105.343521 39.787925,100.774288" id="Path" stroke="#373754" stroke-linecap="round" stroke-linejoin="round"></path>
                    <path d="M86.2697594,110.555662 C86.4665612,112.369578 86.7640523,113.889595 87.1851166,114.71619" id="Path" stroke="#373754" stroke-linecap="round" stroke-linejoin="round"></path>
                    <path d="M86.3704487,97.7112941 C86.0363434,98.8731193 85.8715791,102.615758 85.9905755,106.358396" id="Path" stroke="#373754" stroke-linecap="round" stroke-linejoin="round"></path>
                    <path d="M92.8008325,55.472291 C92.8008325,64.9919098 59.8845905,65.8506501 59.8845905,73.7721853" id="Path" stroke="#373754" stroke-linecap="round" stroke-linejoin="round"></path>
                    <path d="M109.327605,194.693846 C112.499318,195.22654 114.307148,189.986846 116.238552,190.26697 C117.648201,190.469027 124.389807,191.336952 124.687298,191.805355 C124.984789,192.273759 123.881783,197.150669 123.881783,197.150669" id="Path" fill="#EAF0FF" fill-rule="nonzero"></path>
                    <polygon id="Rectangle" fill="#FFFFFF" fill-rule="nonzero" transform="translate(97.396971, 208.032463) rotate(-80.450000) translate(-97.396971, -208.032463) " points="82.2621155 183.722065 112.558615 183.705431 112.531827 232.342861 82.2353273 232.359495"></polygon>
                    <polyline id="Path" stroke="#373754" stroke-linecap="round" stroke-linejoin="round" points="119.236346 211.703333 116.984568 225.130909 89.1760183 220.437687"></polyline>
                    <line x1="121.996148" y1="195.254093" x2="121.05333" y2="200.870347" id="Path" stroke="#373754" stroke-linecap="round" stroke-linejoin="round"></line>
                    <polyline id="Path" stroke="#373754" stroke-linecap="round" stroke-linejoin="round" points="73.3952616 217.774214 69.0244313 217.021094 74.0588955 187.139686 114.897553 194.027977"></polyline>
                    <path d="M107.437393,192.797269 C110.609105,193.329964 112.421512,188.09027 114.348339,188.370394 C115.757989,188.572451 122.499594,189.440375 122.797085,189.908779 C123.094576,190.377183 121.991571,195.254093 121.991571,195.254093" id="Path" stroke="#373754" stroke-linecap="round" stroke-linejoin="round"></path>
                    <polygon id="Rectangle" fill="#5567D5" fill-rule="nonzero" transform="translate(111.986971, 205.042947) rotate(-80.450000) translate(-111.986971, -205.042947) " points="105.521409 201.512892 118.456426 201.50579 118.452533 208.573002 105.517517 208.580104"></polygon>
                    <line x1="78.1688489" y1="195.254093" x2="105.551757" y2="199.873841" id="Path" stroke="#373754" stroke-linecap="round" stroke-linejoin="round"></line>
                    <line x1="100.439488" y1="205.012506" x2="104.512827" y2="205.701335" id="Path" stroke="#373754" stroke-linecap="round" stroke-linejoin="round"></line>
                    <line x1="77.1344954" y1="201.081588" x2="92.8649075" y2="203.735876" id="Path" stroke="#373754" stroke-linecap="round" stroke-linejoin="round"></line>
                    <path d="M107.904225,196.5445 C107.190246,191.033867 105.538027,185.183411 93.8626467,185.688553 C92.2836557,184.416515 61.6191922,175.691346 43.1289784,170.878726 C45.2800677,166.419705 47.7881462,152.831402 47.9162962,151.59151 C46.5432605,151.334347 26.2818307,145.079778 26.2818307,145.079778 C26.2818307,145.079778 17.8102005,180.623362 19.6500683,183.594512 C30.9867663,190.840995 73.514258,196.062319 92.7138736,194.707622 C94.0594485,195.768419 93.8763771,196.434287 95.7848967,196.705227 C97.6934163,196.976166 107.904225,196.5445 107.904225,196.5445" id="Path" fill="#FFFFFF" fill-rule="nonzero"></path>
                    <path d="M71.3174009,177.229731 C82.2467649,180.370792 91.1394593,183.112332 91.9678575,183.791976 C103.652391,183.286835 105.300034,189.114329 106.014012,194.647924" id="Path" stroke="#373754" stroke-linecap="round" stroke-linejoin="round"></path>
                    <path d="M46.0260837,149.713302 C45.8933569,150.934826 43.3852784,164.523129 41.238766,169.000518 C47.6737265,170.667485 55.5869888,172.81204 63.2347975,174.970371" id="Path" stroke="#373754" stroke-linecap="round" stroke-linejoin="round"></path>
                    <path d="M95.9038931,189.467928 C96.4336427,191.355468 96.6273109,193.321989 96.4759913,195.277054" id="Path" stroke="#373754" stroke-linecap="round" stroke-linejoin="round"></path>
                    <path d="M99.428018,189.467928 C99.9622662,191.354614 100.156014,193.321943 100.000116,195.277054" id="Path" stroke="#373754" stroke-linecap="round" stroke-linejoin="round"></path>
                    <path d="M102.270202,189.467928 C102.800502,191.355348 102.992657,193.322239 102.837723,195.277054" id="Path" stroke="#373754" stroke-linecap="round" stroke-linejoin="round"></path>
                    <path d="M18.2312648,172.62376 C17.4303273,177.574145 17.0916452,181.275454 17.7735862,181.697936 C33.6229948,191.800763 81.5236328,193.380478 90.8373915,192.811046" id="Path" stroke="#373754" stroke-linecap="round" stroke-linejoin="round"></path>
                    <path d="M24.3916182,143.201571 C24.2177004,143.816925 22.5837879,150.705216 20.9407219,158.49817" id="Path" stroke="#373754" stroke-linecap="round" stroke-linejoin="round"></path>
                </g>
            </g>
        </g>
    </g>
</svg>