<?xml version="1.0" encoding="UTF-8"?>
<svg width="32px" height="32px" viewBox="0 0 32 32" version="1.1" xmlns="http://www.w3.org/2000/svg" xmlns:xlink="http://www.w3.org/1999/xlink">
    <title>BF4A75A2-1C8C-476B-9A6B-897EE34DFD3A</title>
    <g id="Project" stroke="none" stroke-width="1" fill="none" fill-rule="evenodd">
        <g id="Project-Listing" transform="translate(-160.000000, -225.000000)" fill="#5567D5" fill-rule="nonzero">
            <g id="Logo/GitHub-Copy-2" transform="translate(160.000000, 225.000000)">
                <path d="M16,-1.4828718e-14 C24.836556,-1.4828718e-14 32,7.163444 32,16 C32,24.836556 24.836556,32 16,32 C7.163444,32 0,24.836556 0,16 C0,7.163444 7.163444,-1.4828718e-14 16,-1.4828718e-14 Z M16,2.04255319 C8.29151498,2.04255319 2.04255319,8.29151498 2.04255319,16 C2.04255319,23.708485 8.29151498,29.9574468 16,29.9574468 C23.708485,29.9574468 29.9574468,23.708485 29.9574468,16 C29.9574468,8.29151498 23.708485,2.04255319 16,2.04255319 Z M16,6.60869565 C21.1866742,6.60869565 25.3913043,10.8133258 25.3913043,16 C25.3913043,21.1866742 21.1866742,25.3913043 16,25.3913043 C10.8133258,25.3913043 6.60869565,21.1866742 6.60869565,16 C6.60869565,10.8133258 10.8133258,6.60869565 16,6.60869565 Z M16,7.65217391 C11.389623,7.65217391 7.65217391,11.389623 7.65217391,16 C7.65217391,20.610377 11.389623,24.3478261 16,24.3478261 C20.610377,24.3478261 24.3478261,20.610377 24.3478261,16 C24.3478261,11.389623 20.610377,7.65217391 16,7.65217391 Z M16,12.2553191 C18.0681301,12.2553191 19.7446809,13.9318699 19.7446809,16 C19.7446809,18.0681301 18.0681301,19.7446809 16,19.7446809 C13.9318699,19.7446809 12.2553191,18.0681301 12.2553191,16 C12.2553191,13.9318699 13.9318699,12.2553191 16,12.2553191 Z M16,14.2978723 C15.0599409,14.2978723 14.2978723,15.0599409 14.2978723,16 C14.2978723,16.9400591 15.0599409,17.7021277 16,17.7021277 C16.9400591,17.7021277 17.7021277,16.9400591 17.7021277,16 C17.7021277,15.0599409 16.9400591,14.2978723 16,14.2978723 Z" id="Combined-Shape"></path>
            </g>
        </g>
    </g>
</svg>