<?xml version="1.0" encoding="UTF-8"?>
<svg width="24px" height="24px" viewBox="0 0 24 24" version="1.1" xmlns="http://www.w3.org/2000/svg" xmlns:xlink="http://www.w3.org/1999/xlink">
    <g id="API" stroke="none" stroke-width="1" fill="none" fill-rule="evenodd">
        <g id="Portal-Documentation" transform="translate(-24.000000, -524.000000)" fill="#1d2028" fill-rule="nonzero">
            <g id="Group" transform="translate(6.000000, 224.000000)">
                <g id="Icon/Develope-Copy-6" transform="translate(18.000000, 300.000000)">
                    <path d="M6.97576714,6.9744463 L23.7762108,13.3985271 L15.5085007,15.4654547 L13.4415732,23.7331647 L6.97576714,6.9744463 Z M20,0.517706871 C21.4625318,0.517706871 22.6584043,1.65941147 22.7449812,3.10018454 L22.75,3.26770687 L22.75,10.9413676 L21.25,10.28108 L21.25,4.98939896 L2.75,4.98939896 L2.75,17 C2.75,17.6472087 3.24187466,18.1795339 3.87219476,18.2435464 L4,18.25 L9.01326466,18.25 L9.68054962,19.75 L4,19.75 C2.53746816,19.75 1.34159572,18.6082954 1.25501879,17.1675223 L1.25,17 L1.25,3.26770687 C1.25,1.80517503 2.3917046,0.609302592 3.83247767,0.522725665 L4,0.517706871 L20,0.517706871 Z" id="Combined-Shape"></path>
                </g>
            </g>
        </g>
    </g>
</svg>
