<?xml version="1.0" encoding="UTF-8"?>
<svg width="16px" height="16px" viewBox="0 0 16 16" version="1.1" xmlns="http://www.w3.org/2000/svg" xmlns:xlink="http://www.w3.org/1999/xlink">
    <title>66033343-1C1F-4867-BDBC-865846DA9C53</title>
    <g id="Deploy" stroke="none" stroke-width="1" fill="none" fill-rule="evenodd">
        <g id="Deploy-in-progress-(live)" transform="translate(-97.000000, -744.000000)" fill="#40404B" fill-rule="nonzero">
            <g id="Icon/Check-Copy-5" transform="translate(97.000000, 744.000000)">
                <path d="M12.5100365,2.5 C13.3384636,2.5 14.0100365,3.17157288 14.0100365,4 L14.0100365,4 L14.0100365,12 C14.0100365,12.8284271 13.3384636,13.5 12.5100365,13.5 L12.5100365,13.5 L10.5100365,13.5 C9.68160934,13.5 9.01003647,12.8284271 9.01003647,12 L9.01003647,12 L9.01003647,4 C9.01003647,3.17157288 9.68160934,2.5 10.5100365,2.5 L10.5100365,2.5 Z M5.5,2.5 C5.77614237,2.5 6,2.72385763 6,3 L6,13 C6,13.2761424 5.77614237,13.5 5.5,13.5 C5.22385763,13.5 5,13.2761424 5,13 L5,3 C5,2.72385763 5.22385763,2.5 5.5,2.5 Z M1.5,2.5 C1.77614237,2.5 2,2.72385763 2,3 L2,13 C2,13.2761424 1.77614237,13.5 1.5,13.5 C1.22385763,13.5 1,13.2761424 1,13 L1,3 C1,2.72385763 1.22385763,2.5 1.5,2.5 Z M12.5100365,3.5 L10.5100365,3.5 C10.2338941,3.5 10.0100365,3.72385763 10.0100365,4 L10.0100365,4 L10.0100365,12 C10.0100365,12.2761424 10.2338941,12.5 10.5100365,12.5 L10.5100365,12.5 L12.5100365,12.5 C12.7861788,12.5 13.0100365,12.2761424 13.0100365,12 L13.0100365,12 L13.0100365,4 C13.0100365,3.72385763 12.7861788,3.5 12.5100365,3.5 L12.5100365,3.5 Z" id="Combined-Shape"></path>
            </g>
        </g>
    </g>
</svg>