<?xml version="1.0" encoding="UTF-8"?>

<!-- 
~    Copyright (c) 2021, WSO2 Inc. (http://www.wso2.com). All Rights Reserved.
~   
~    This software is the property of WSO2 Inc. and its suppliers, if any. 
~    Dissemination of any information or reproduction of any material contained 
~    herein in any form is strictly forbidden, unless permitted by WSO2 expressly. 
~    You may not alter or remove any copyright or other notice from copies of this content."
-->

<svg width="24px" height="24px" viewBox="0 0 24 24" version="1.1" xmlns="http://www.w3.org/2000/svg" xmlns:xlink="http://www.w3.org/1999/xlink">
    <title>5AC3B480-EAEA-4A43-801F-EB72250BD28E</title>
    <g id="Home" stroke="none" stroke-width="1" fill="none" fill-rule="evenodd">
        <g id="new-dashboard-+" transform="translate(-1290.000000, -280.000000)" fill="#FFFFFF">
            <path d="M1311.12,289 C1312.71058,289 1314,290.343146 1314,292 L1314,292 L1314,301 C1314,302.656854 1312.71058,304 1311.12,304 L1311.12,304 L1300.88,304 C1299.28942,304 1298,302.656854 1298,301 L1298,301 L1298,292 C1298,290.343146 1299.28942,289 1300.88,289 L1300.88,289 Z M1306,297 L1302,297 C1301.44772,297 1301,297.447715 1301,298 C1301,298.552285 1301.44772,299 1302,299 L1302,299 L1306,299 C1306.55228,299 1307,298.552285 1307,298 C1307,297.447715 1306.55228,297 1306,297 L1306,297 Z M1302.36667,280 C1305.27061,280 1307.88364,281.626246 1309.01842,284.115286 L1309.15067,284.428 L1309.23214,284.432281 C1310.76772,284.506806 1312.16297,285.236529 1313.04829,286.392588 L1313.21844,286.629416 C1313.52682,287.087585 1313.4054,287.708998 1312.94723,288.017379 C1312.48906,288.325761 1311.86765,288.204334 1311.55926,287.746165 C1311.08654,287.043828 1310.29277,286.564319 1309.38534,286.4515 L1309.13519,286.42993 L1307.77308,286.363824 L1307.28214,285.139953 C1306.53073,283.266742 1304.57614,282 1302.36667,282 C1299.81056,282 1297.65787,283.686666 1297.21699,285.930726 L1297.17637,286.173242 L1296.97952,287.590798 L1295.52534,287.883535 C1293.46194,288.29891 1292,289.978032 1292,291.893617 C1292,293.962802 1293.69802,295.723729 1295.95911,295.970684 C1296.50813,296.030648 1296.90459,296.524326 1296.84463,297.073346 C1296.78467,297.622366 1296.29099,298.018825 1295.74197,297.958861 C1292.49601,297.60434 1290,295.015859 1290,291.893617 C1290,289.095777 1292.01598,286.687056 1294.83609,285.988932 L1295.19333,285.909333 C1295.65096,282.617291 1298.5677,280.148856 1302.04871,280.006492 L1302.36667,280 Z M1310,292 L1302,292 C1301.44772,292 1301,292.447715 1301,293 C1301,293.552285 1301.44772,294 1302,294 L1302,294 L1310,294 C1310.55228,294 1311,293.552285 1311,293 C1311,292.447715 1310.55228,292 1310,292 L1310,292 Z" id="Combined-Shape"></path>
        </g>
    </g>
</svg>
