<?xml version="1.0" encoding="UTF-8"?>
<svg width="24px" height="24px" viewBox="0 0 24 24" version="1.1" xmlns="http://www.w3.org/2000/svg" xmlns:xlink="http://www.w3.org/1999/xlink">
    <title>DEEA673E-B24B-441D-8436-7BECF67EF27B</title>
    <g id="Home" stroke="none" stroke-width="1" fill="none" fill-rule="evenodd">
        <g id="new-home" transform="translate(-160.000000, -104.000000)" fill="#5567D5" fill-rule="nonzero">
            <g id="Icon/main/Market" transform="translate(160.000000, 104.000000)">
                <path d="M13.0003614,0.0941285278 C13.5618177,0.200807526 14.1094653,0.398163673 14.6198292,0.686196968 L14.6198292,0.686196968 L20.7135042,4.12527502 C22.3346601,5.04020431 23.3333333,6.73106337 23.3333333,8.56092195 L23.3333333,8.56092195 L23.3333333,15.4390781 C23.3333333,17.2689366 22.3346601,18.9597957 20.7135042,19.874725 L20.7135042,19.874725 L14.6198292,23.313803 C12.9986732,24.2287323 11.0013268,24.2287323 9.38017084,23.313803 L9.38017084,23.313803 L3.28649582,19.874725 C1.6653399,18.9597957 0.666666667,17.2689366 0.666666667,15.4390781 L0.666666667,15.4390781 L0.666666667,8.56092195 C0.666666667,6.73106337 1.6653399,5.04020431 3.28649582,4.12527502 L3.28649582,4.12527502 L9.38017084,0.686196968 C9.89081669,0.398004552 10.4387874,0.2005895 11.0005691,0.0939518104 L10.9996078,13.334 L7.26666667,10.5333333 L7.14194299,10.4533438 C6.71331656,10.2211545 6.16791289,10.3316717 5.86666667,10.7333333 C5.53529582,11.1751611 5.62483887,11.8019625 6.06666667,12.1333333 L6.06666667,12.1333333 L12,16.5833333 L17.9333333,12.1333333 L18.0450459,12.0359957 C18.3879631,11.6895273 18.4345796,11.134995 18.1333333,10.7333333 L18.1333333,10.7333333 L18.0359957,10.6216207 C17.6895273,10.2787036 17.134995,10.2320871 16.7333333,10.5333333 L16.7333333,10.5333333 L12.9996078,13.334 Z" id="Combined-Shape"></path>
            </g>
        </g>
    </g>
</svg>