<?xml version="1.0" encoding="UTF-8"?>
<svg width="24px" height="25px" viewBox="0 0 24 25" version="1.1" xmlns="http://www.w3.org/2000/svg" xmlns:xlink="http://www.w3.org/1999/xlink">
    <title>34AFC2BE-AB00-42E6-88E0-DB318B382E4E</title>
    <g id="Home" stroke="none" stroke-width="1" fill="none" fill-rule="evenodd">
        <g id="new-home" transform="translate(-1148.000000, -104.000000)" fill="#FFFFFF" fill-rule="nonzero">
            <g id="Group-2" transform="translate(1132.000000, 88.000000)">
                <g id="Icon/main/Market" transform="translate(16.000000, 16.000000)">
                    <path d="M18.2895592,-1.1783167e-13 C19.0097046,-1.1783167e-13 19.685868,0.332224742 20.1260042,0.893894744 L20.2310099,1.03903288 L22.6698043,4.69722436 L24.0031376,20.338754 C24.0031376,22.2984741 22.4657179,23.8991106 20.5312038,24.0003382 L20.3364709,24.0054207 L3.66666667,24.0054207 C1.70694659,24.0054207 0.106310116,22.468001 0.00508249804,20.5334868 L4.30470474e-13,20.338754 L1.33333333,4.69722436 L3.77212766,1.03903288 C4.17159241,0.439835744 4.82308808,0.0615189139 5.53456944,0.00686186993 L5.71357834,-1.1783167e-13 L18.2895592,-1.1783167e-13 Z M16,9 C15.4477153,9 15,9.44771525 15,10 L15,10 L14.9930789,10.2053984 C14.8875266,11.7664512 13.5878187,13 12,13 C10.3431458,13 9,11.6568542 9,10 C9,9.44771525 8.55228475,9 8,9 C7.44771525,9 7,9.44771525 7,10 C7,12.7614237 9.23857625,15 12,15 C14.7614237,15 17,12.7614237 17,10 C17,9.44771525 16.5522847,9 16,9 Z M18.2895592,2 L5.71357834,2 C5.62441749,2 5.53997597,2.03564824 5.47811297,2.09738678 L5.43622825,2.14843327 L4.201,4 L19.8,4 L18.5669093,2.14843327 C18.5321345,2.09627102 18.4839899,2.05582609 18.4286835,2.03042095 L18.3712199,2.01015214 L18.2895592,2 Z" id="Combined-Shape"></path>
                </g>
            </g>
        </g>
    </g>
</svg>