<svg xmlns="http://www.w3.org/2000/svg" width="14.001" height="14.001" viewBox="0 0 14.001 14.001">
  <path id="Combined_Shape" data-name="Combined Shape" d="M6.84,14l.028-1.6A5.439,5.439,0,0,0,10.4,2.809l-.343,1.678a.662.662,0,0,1-.779.508.67.67,0,0,1-.517-.778L9.436.923A.664.664,0,0,1,10.094.39.718.718,0,0,1,10.218.4l3.255.68a.854.854,0,0,1,.094.027.67.67,0,0,1,.409.812.659.659,0,0,1-.77.472l-1.2-.25A7.045,7.045,0,0,1,6.962,14Zm-3.034-.347L.54,13.03a.663.663,0,0,1-.095-.025.67.67,0,0,1-.423-.8.661.661,0,0,1,.762-.485l1.2.229A7.044,7.044,0,0,1,6.946,0V1.6a5.439,5.439,0,0,0-3.366,9.65l.314-1.684a.662.662,0,0,1,.77-.521.67.67,0,0,1,.53.769l-.616,3.3a.665.665,0,0,1-.65.545A.642.642,0,0,1,3.806,13.653Z" fill="#fff"/>
</svg>
