<?xml version="1.0" encoding="UTF-8"?>
<svg width="32px" height="32px" viewBox="0 0 32 32" version="1.1" xmlns="http://www.w3.org/2000/svg" xmlns:xlink="http://www.w3.org/1999/xlink">
    <title>381C8913-543B-496D-8FEA-2407621CE6EE</title>
    <g id="Deploy" stroke="none" stroke-width="1" fill="none" fill-rule="evenodd">
        <g id="deploy" transform="translate(-576.000000, -336.000000)">
            <g id="Button/Choose/Default-Copy" transform="translate(576.000000, 336.000000)">
                <circle id="Oval-Copy-12" fill="#F7F8FB" cx="16" cy="16" r="16"></circle>
                <path d="M16.9072471,7.46081119 L19.2927509,9.84631495 C19.5856441,10.1392082 19.5856441,10.6140819 19.2927509,10.9069751 L16.8145198,13.3852062 C16.5216266,13.6780994 16.0467529,13.6780994 15.7538597,13.3852062 L15.7483331,13.3796796 C15.4554399,13.0867864 15.4554399,12.6119127 15.7483331,12.3190194 L17.0083817,11.0581413 L16.9566294,11.059637 C13.7212596,11.1788807 11.1349946,13.8393392 11.1349946,17.1038522 C11.1349946,20.4442842 13.8429497,23.1522393 17.1833817,23.1522393 C20.5238136,23.1522393 23.2317688,20.4442842 23.2317688,17.1038522 C23.2317688,16.7030004 23.5567234,16.3780458 23.9575752,16.3780458 C24.3584271,16.3780458 24.6833817,16.7030004 24.6833817,17.1038522 C24.6833817,21.2459878 21.3255173,24.6038522 17.1833817,24.6038522 C13.041246,24.6038522 9.68338167,21.2459878 9.68338167,17.1038522 C9.68338167,13.0675363 12.8718699,9.77593178 16.8675009,9.61038389 L15.8123721,8.5556862 C15.5194789,8.26279299 15.5194789,7.78791925 15.8123721,7.49502603 L15.8465869,7.46081119 C16.1394802,7.16791797 16.6143539,7.16791797 16.9072471,7.46081119 Z" id="Combined-Shape" fill="#36B475" fill-rule="nonzero" transform="translate(17.183382, 15.922497) rotate(-274.000000) translate(-17.183382, -15.922497) "></path>
            </g>
        </g>
    </g>
</svg>
