<?xml version="1.0" encoding="UTF-8"?>
<svg width="26px" height="16px" viewBox="-7 1 20 16" version="1.1" xmlns="http://www.w3.org/2000/svg" xmlns:xlink="http://www.w3.org/1999/xlink">
    <title>75AEF4C8-E690-43AC-B80B-B05014BC8DDD</title>
    <g id="Home" stroke="none" stroke-width="1" fill="none" fill-rule="evenodd">
        <g id="new-remote-apps-listing" transform="translate(-1019.000000, -316.000000)" fill="#5567D5" fill-rule="nonzero">
            <g id="Button/Rounded/32-with-icon/Default-Copy-2" transform="translate(1011.000000, 308.000000)">
                <g id="Icon/Clear" transform="translate(8.000000, 8.000000)">
                    <path d="M10.1948577,0.481233009 C10.3489733,0.672279968 10.339485,0.942226994 10.1845232,1.12162696 L10.1196288,1.18432661 L8.46621203,2.5164624 C11.838463,2.75545762 14.5,5.56691117 14.5,9 C14.5,12.5898509 11.5898509,15.5 8,15.5 C4.41014913,15.5 1.5,12.5898509 1.5,9 C1.5,8.72385763 1.72385763,8.5 2,8.5 C2.27614237,8.5 2.5,8.72385763 2.5,9 C2.5,12.0375661 4.96243388,14.5 8,14.5 C11.0375661,14.5 13.5,12.0375661 13.5,9 C13.5,5.99562216 11.091081,3.5538775 8.09935642,3.50087941 L9.67260356,5.4438246 C9.82707647,5.63458276 9.81809346,5.90454707 9.66346766,6.08423677 L9.59869077,6.14705777 C9.40793261,6.30153069 9.1379683,6.29254767 8.9582786,6.13792187 L8.8954576,6.07314499 L6.35522431,2.93621812 L9.49176413,0.406004087 C9.70669196,0.232624044 10.0214777,0.266305179 10.1948577,0.481233009 Z" id="Combined-Shape"></path>
                </g>
            </g>
        </g>
    </g>
</svg>
