<?xml version="1.0" encoding="UTF-8"?>
<svg width="18px" height="18px" viewBox="0 0 18 18" version="1.1" xmlns="http://www.w3.org/2000/svg" xmlns:xlink="http://www.w3.org/1999/xlink">
    <title>F4F13B15-A18C-4DBE-8853-3AA98C399A71</title>
    <g id="Home" stroke="none" stroke-width="1" fill="none" fill-rule="evenodd">
        <g id="new-home-page-rewamp" transform="translate(-27.000000, -375.000000)" fill="#5567D5">
            <g id="Icon/main/APIs-Copy" transform="translate(27.750000, 375.324104)">
                <path d="M4.25,9.4258963 C6.04492544,9.4258963 7.5,10.8809709 7.5,12.6758963 L7.5,12.6758963 L7.5,13.6758963 C7.5,15.4708217 6.04492544,16.9258963 4.25,16.9258963 L4.25,16.9258963 L3.25,16.9258963 C1.45507456,16.9258963 0,15.4708217 0,13.6758963 L0,13.6758963 L0,12.6758963 C0,10.8809709 1.45507456,9.4258963 3.25,9.4258963 L3.25,9.4258963 Z M13.25,9.4258963 C15.0449254,9.4258963 16.5,10.8809709 16.5,12.6758963 L16.5,12.6758963 L16.5,13.6758963 C16.5,15.4708217 15.0449254,16.9258963 13.25,16.9258963 L13.25,16.9258963 L12.25,16.9258963 C10.4550746,16.9258963 9,15.4708217 9,13.6758963 L9,13.6758963 L9,12.6758963 C9,10.8809709 10.4550746,9.4258963 12.25,9.4258963 L12.25,9.4258963 Z M4.25,10.9258963 L3.25,10.9258963 C2.28350169,10.9258963 1.5,11.709398 1.5,12.6758963 L1.5,12.6758963 L1.5,13.6758963 C1.5,14.6423946 2.28350169,15.4258963 3.25,15.4258963 L3.25,15.4258963 L4.25,15.4258963 C5.21649831,15.4258963 6,14.6423946 6,13.6758963 L6,13.6758963 L6,12.6758963 C6,11.709398 5.21649831,10.9258963 4.25,10.9258963 L4.25,10.9258963 Z M13.25,10.9258963 L12.25,10.9258963 C11.2835017,10.9258963 10.5,11.709398 10.5,12.6758963 L10.5,12.6758963 L10.5,13.6758963 C10.5,14.6423946 11.2835017,15.4258963 12.25,15.4258963 L12.25,15.4258963 L13.25,15.4258963 C14.2164983,15.4258963 15,14.6423946 15,13.6758963 L15,13.6758963 L15,12.6758963 C15,11.709398 14.2164983,10.9258963 13.25,10.9258963 L13.25,10.9258963 Z M9.85,0 C10.0004964,0 10.1482947,0.0399571381 10.2782904,0.115787934 L10.2782904,0.115787934 L15.9798269,3.44168423 C16.385321,3.67822248 16.5222868,4.19869254 16.2857486,4.60418667 C16.2118676,4.73083976 16.10648,4.8362274 15.9798269,4.91010837 L15.9798269,4.91010837 L10.2782904,8.23600467 C9.87279624,8.47254291 9.35232618,8.3355771 9.11578793,7.93008297 C9.03995714,7.80008732 9,7.65228904 9,7.5017926 L9,7.5017926 L9,0.85 C9,0.380557963 9.38055796,0 9.85,0 Z M4.3,0.4758963 C6.09492544,0.4758963 7.55,1.93097086 7.55,3.7258963 L7.55,3.7258963 L7.55,4.7258963 C7.55,6.52082174 6.09492544,7.9758963 4.3,7.9758963 L4.3,7.9758963 L3.3,7.9758963 C1.50507456,7.9758963 0.05,6.52082174 0.05,4.7258963 L0.05,4.7258963 L0.05,3.7258963 C0.05,1.93097086 1.50507456,0.4758963 3.3,0.4758963 L3.3,0.4758963 Z M4.3,1.9758963 L3.3,1.9758963 C2.33350169,1.9758963 1.55,2.75939799 1.55,3.7258963 L1.55,3.7258963 L1.55,4.7258963 C1.55,5.69239461 2.33350169,6.4758963 3.3,6.4758963 L3.3,6.4758963 L4.3,6.4758963 C5.26649831,6.4758963 6.05,5.69239461 6.05,4.7258963 L6.05,4.7258963 L6.05,3.7258963 C6.05,2.75939799 5.26649831,1.9758963 4.3,1.9758963 L4.3,1.9758963 Z M10.5,1.9808963 L10.5,6.3698963 L14.261,4.1758963 L10.5,1.9808963 Z" id="Combined-Shape"></path>
            </g>
        </g>
    </g>
</svg>
