<?xml version="1.0" encoding="UTF-8"?>
<svg width="218px" height="215px" viewBox="0 0 218 215" version="1.1" xmlns="http://www.w3.org/2000/svg" xmlns:xlink="http://www.w3.org/1999/xlink">
    <title>49644058-959F-420D-A9DA-D057924152A8</title>
    <g id="Home" stroke="none" stroke-width="1" fill="none" fill-rule="evenodd">
        <g id="new-remote-apps" transform="translate(-896.000000, -228.000000)">
            <g id="upload-API" transform="translate(896.780077, 228.359783)">
                <path d="M199.963518,2.7738389 C216.015448,11.2869426 214.693552,45.4434063 215.353318,75.3716952 C216.013083,105.299984 218.663969,130.988274 211.193721,157.409637 C203.723472,183.831001 186.158102,210.968883 164.031127,214.140014 C141.837938,217.377359 115.021662,196.70234 84.703189,185.673142 C54.3847162,174.643943 20.5782356,173.253469 7.15827359,156.806626 C-6.26168844,140.359783 0.818376109,108.854205 14.9524929,87.2663928 C29.1528228,65.666757 64.5928703,57.7631364 82.8227359,49.6402167 C100.986388,41.5149322 117.628377,40.1307362 132.157953,23.347388 C146.687529,6.56403973 183.913953,-5.74635902 199.963518,2.7738389 Z" id="Path" fill="#F7F8FB" fill-rule="nonzero"></path>
                <circle id="Oval" fill="#CED3F3" cx="56.4999234" cy="64" r="30.5"></circle>
                <g id="Group-2" transform="translate(45.219923, 44.000000)" fill="#FFFFFF" fill-rule="nonzero">
                    <g id="Group">
                        <polygon id="Path" points="0 10.741248 0 0 9 0 9 14.2040981"></polygon>
                        <polygon id="Path" points="0 14.1079078 6.14946619 16.4806014 0 18.8212316"></polygon>
                        <polygon id="Path" points="9 18.7571047 9 23.9513799 4.61209964 38.2837317 0 38.2837317 0 22.1878914"></polygon>
                    </g>
                    <g id="Group" transform="translate(13.000000, 0.000000)">
                        <polygon id="Path" points="9 10.741248 9 0 0 0 0 14.2040981"></polygon>
                        <polygon id="Path" points="9 14.1079078 2.81850534 16.4806014 9 18.8212316"></polygon>
                        <polygon id="Path" points="0 18.7571047 0 23.9513799 4.35587189 38.2837317 9 38.2837317 9 22.1878914"></polygon>
                    </g>
                </g>
                <rect id="Rectangle" stroke="#CED3F3" stroke-width="0.75" transform="translate(185.140986, 143.487496) rotate(-49.930000) translate(-185.140986, -143.487496) " x="167.999736" y="128.406871" width="34.2825" height="30.16125"></rect>
                <circle id="Oval" stroke="#C6CBF0" stroke-width="0.74750996" opacity="0.397654942" stroke-linecap="round" stroke-linejoin="round" cx="154.927095" cy="23.347388" r="15.7071713"></circle>
                <path d="M59.3136734,122.476467 C58.0011734,122.101467 54.0636734,119.663967 53.3136734,118.726467 C52.5636734,117.788967 50.7824234,120.063342 54.0167984,123.140217" id="Path" fill="#FFFFFF" fill-rule="nonzero"></path>
                <path d="M57.8136734,120.976467 C56.5011734,120.601467 52.5636734,118.163967 51.8136734,117.226467 C51.0636734,116.288967 49.2824234,118.563342 52.5167984,121.640217" id="Path" stroke="#32324D" stroke-linecap="round" stroke-linejoin="round"></path>
                <path d="M74.3136734,128.288967 C73.3761734,127.163967 70.1886734,122.476467 69.6261734,120.976467 C69.0636734,119.476467 65.2330484,117.976467 67.7099234,128.288967" id="Path" fill="#FFFFFF" fill-rule="nonzero"></path>
                <path d="M72.4386734,126.413967 C71.5011734,125.288967 68.3136734,120.601467 67.7511734,119.101467 C67.2655484,117.809592 64.3574234,116.517717 65.1430484,122.776467" id="Path" stroke="#32324D" stroke-linecap="round" stroke-linejoin="round"></path>
                <path d="M95.1974234,145.306467 C94.0011734,147.788967 88.7511734,157.538967 88.7511734,157.538967 C88.7511734,157.538967 76.7511734,131.851467 75.4386734,131.288967 C74.1261734,130.726467 54.0636734,123.788967 50.3136734,121.726467 C48.8136734,120.976467 44.3136734,122.288967 52.5636734,127.726467 C60.8136734,133.163967 68.8761734,137.663967 69.8136734,139.538967 C70.7511734,141.413967 77.5011734,170.476467 77.5011734,170.476467 C79.4796382,180.483674 81.5447016,185.487278 83.6963638,185.487278 C87.133035,185.487278 93.4504715,180.483674 102.648673,170.476467 C104.313673,170.476467 109.938673,152.101467 109.938673,152.101467 C109.938673,152.101467 96.5830484,143.765217 95.1974234,145.306467 Z" id="Path" fill="#FFFFFF" fill-rule="nonzero"></path>
                <path d="M73.8242984,160.928967 C74.8667984,165.338967 75.6261734,168.601467 75.6261734,168.601467 C79.453115,177.870373 82.3898419,182.504825 84.4363541,182.504825 C87.9781752,182.504825 93.4239483,177.870373 100.773673,168.601467 C102.438673,168.601467 108.063673,150.226467 108.063673,150.226467 C108.063673,150.226467 94.7080484,141.890217 93.3224234,143.431467 C92.1261734,145.913967 86.8761734,155.663967 86.8761734,155.663967 C86.8761734,155.663967 74.8761734,129.976467 73.5636734,129.413967 C73.1586734,129.241467 70.9761734,128.463342 68.0399234,127.409592" id="Path" stroke="#32324D" stroke-linecap="round" stroke-linejoin="round"></path>
                <path d="M55.7286734,129.095217 C61.9724234,133.032717 67.1942984,136.177092 67.9386734,137.663967 C68.4317984,138.652092 70.5430484,147.200217 72.4274234,155.060217" id="Path" stroke="#32324D" stroke-linecap="round" stroke-linejoin="round"></path>
                <path d="M63.1180484,125.633967 C57.1367984,123.460842 50.4467984,120.955842 48.4386734,119.851467 C47.0717984,119.168967 43.2186734,120.196467 48.7705484,124.492092" id="Path" stroke="#32324D" stroke-linecap="round" stroke-linejoin="round"></path>
                <path d="M129.168673,114.601467 C140.407423,120.436467 127.828048,149.476467 120.918673,156.826467 C115.261798,158.052717 95.3061734,148.467717 92.8405484,142.103967 C94.9142984,135.832092 113.152423,106.283967 129.168673,114.601467 Z" id="Path" fill="#A6B3FF" fill-rule="nonzero"></path>
                <path d="M106.447423,118.512717 C112.784923,112.730217 120.253048,109.070217 127.293673,112.726467 C138.532423,118.561467 125.953048,147.601467 119.043673,154.951467 C113.386798,156.177717 93.4311734,146.592717 90.9655484,140.228967 C91.6124234,138.269592 93.8380484,134.041467 97.0817984,129.395217" id="Path" stroke="#32324D" stroke-linecap="round" stroke-linejoin="round"></path>
                <path d="M126.588673,107.789592 C131.118673,104.753967 136.402423,102.976467 142.563673,102.976467 C165.813673,102.976467 175.563673,133.726467 176.126173,168.788967" id="Path" stroke="#32324D" stroke-linecap="round" stroke-linejoin="round"></path>
                <path d="M106.631173,139.527717 C109.631173,129.824592 113.893048,120.492717 119.924923,113.688342" id="Path" stroke="#32324D" stroke-linecap="round" stroke-linejoin="round"></path>
                <path d="M100.771798,168.631467 C101.255548,164.418342 101.932423,159.706467 102.873673,154.792092" id="Path" stroke="#32324D" stroke-linecap="round" stroke-linejoin="round"></path>
                <path d="M177.821173,186.723286 C177.821173,135.882717 167.231173,104.851467 144.438673,104.851467 C115.524298,104.851467 109.696798,150.947466 106.631173,175.539966 C112.375205,179.557575 120.758717,182.823912 131.781709,185.338978 C148.313505,189.110962 163.659994,189.572398 177.821173,186.723286 Z" id="Path" fill="#A6B3FF" fill-rule="nonzero"></path>
                <path d="M200.124968,175.539966 L185.508673,142.351467 L164.696173,155.101467 C165.333673,157.396467 167.531173,164.371467 168.871798,168.601467" id="Path" stroke="#32324D" stroke-linecap="round" stroke-linejoin="round"></path>
                <path d="M163.001173,112.538967 C174.438673,107.101467 190.001173,134.663967 191.688673,144.601467 C189.251173,149.851467 169.563673,159.976467 163.001173,158.101467 C159.251173,152.663967 146.701798,120.288342 163.001173,112.538967 Z" id="Path" fill="#A6B3FF" fill-rule="nonzero"></path>
                <path d="M172.507423,113.688342 C180.933673,120.730842 188.653048,135.893967 189.813673,142.726467 C187.376173,147.976467 167.688673,158.101467 161.126173,156.226467 C160.671332,155.536834 160.260514,154.819155 159.896173,154.077717" id="Path" stroke="#32324D" stroke-linecap="round" stroke-linejoin="round"></path>
                <path d="M154.304923,137.952717 C152.077423,127.912092 151.961173,116.662092 159.393673,111.653967" id="Path" stroke="#32324D" stroke-linecap="round" stroke-linejoin="round"></path>
                <path d="M109.226874,154.792092 C107.201407,169.532032 106.813673,178.332881 108.063673,181.19464" id="Path-2" stroke="#373754"></path>
                <path d="M150.219923,90.0564775 C149.719817,93.6787177 148.770339,106.661963 149.165351,111.172007 C147.103317,113.114522 137.264264,113.505156 133.219923,110.007208 C134.013571,106.27488 135.840047,103.007762 134.807218,95.2341502 C133.774389,87.4605387 150.219923,90.0564775 150.219923,90.0564775 Z" id="Path" fill="#FFFFFF" fill-rule="nonzero"></path>
                <path d="M132.219923,105.794379 C132.970709,103.031533 133.68198,99.7821716 132.938379,94.2351736 C131.918172,86.4580125 148.219923,89.057502 148.219923,89.057502 C147.724189,92.6797414 146.783013,105.662984 147.174571,110.173027 C145.586785,111.682293 139.339816,112.254039 134.752478,110.790938" id="Path" stroke="#32324D" stroke-linecap="round" stroke-linejoin="round"></path>
                <ellipse id="Oval" fill="#FFFFFF" fill-rule="nonzero" cx="137.219923" cy="73.1402167" rx="18" ry="23.5"></ellipse>
                <path d="M118.639539,76.4973317 C118.358347,74.8075017 118.217994,73.0970086 118.219923,71.3836864 C118.219923,58.2714057 126.278324,47.6402167 136.219503,47.6402167 C146.160683,47.6402167 154.219063,58.2714057 154.219063,71.3836864 C154.25433,75.9838174 153.204744,80.5268443 151.156377,84.6402167" id="Path" stroke="#32324D" stroke-linecap="round" stroke-linejoin="round"></path>
                <path d="M141.219923,94.3666051 C139.385946,95.2022237 137.388384,95.636813 135.365848,95.6402167 C128.941158,95.6402167 123.31251,91.2326233 120.219923,84.6402167" id="Path" stroke="#32324D" stroke-linecap="round" stroke-linejoin="round"></path>
                <ellipse id="Oval" fill="#32324D" fill-rule="nonzero" cx="128.219923" cy="73.6402167" rx="1" ry="2"></ellipse>
                <path d="M124.219923,73.6402167 C124.219923,75.3072783 122.696458,78.1153351 121.219923,79.6402167" id="Path" stroke="#32324D" stroke-linecap="round" stroke-linejoin="round"></path>
                <path d="M126.219923,87.6402167 C127.070409,87.6402167 130.072351,86.6180764 132.219923,83.6402167" id="Path" stroke="#32324D" stroke-linecap="round" stroke-linejoin="round"></path>
                <path d="M145.200904,77.560808 C145.983655,78.4883976 146.773621,85.1897595 148.447338,85.6283137 C150.121055,86.066868 157.219923,74.2700734 157.219923,69.5374732 C157.219923,60.9809321 151.448485,41.8107464 142.964472,41.8107464 C139.887574,41.8107464 139.609823,45.9691244 139.609823,47.5813636 C138.603429,45.3728168 133.961028,40.6402167 128.092198,40.6402167 C118.140074,40.6402167 118.298789,48.8433903 120.041042,55.3112771 C118.30961,54.4783395 118.237467,54.2353994 116.127285,54.2353994 C114.229925,54.2353994 113.219923,56.4092404 113.219923,58.6840435 C113.219923,64.1612394 116.585393,66.1173808 119.20779,67.0481255 C121.830187,67.9788702 129.376342,68.4174245 134.357815,68.3101522 C134.967423,69.5532486 139.552109,77.6586151 145.200904,77.560808 Z" id="Path" fill="#FF9D52" fill-rule="nonzero"></path>
                <path d="M122.219923,66.6402167 C125.778246,67.0483266 129.360309,67.2214158 132.942101,67.158324 C133.554591,68.5316633 138.133855,77.662418 143.775968,77.5524089 C144.557794,78.5957209 145.346825,86.1331181 147.018562,86.6263847 C147.454511,86.7576858 148.26516,85.945038 149.219923,84.5787961" id="Path" stroke="#32324D" stroke-linecap="round" stroke-linejoin="round"></path>
                <path d="M120.219923,42.6402167 C117.241796,45.335928 117.675741,50.3499512 118.837596,54.5762276 C117.157806,53.7854856 117.087815,53.5548525 115.040571,53.5548525 C113.199801,53.5548525 112.219923,55.6185693 112.219923,57.7781336 C112.219923,61.4622725 113.861218,63.4690798 115.719486,64.6402167" id="Path" stroke="#32324D" stroke-linecap="round" stroke-linejoin="round"></path>
                <path d="M146.219923,43.9652167 C144.774225,42.6193076 143.198062,41.8206712 141.509063,41.8206712 C138.501306,41.8206712 138.229796,46.0111258 138.229796,47.6402167 C137.246016,45.4129439 132.707935,40.6402167 126.970981,40.6402167 C126.713576,40.6402167 126.463224,40.6402167 126.219923,40.6402167" id="Path" stroke="#32324D" stroke-linecap="round" stroke-linejoin="round"></path>
                <path d="M153.561696,76.6402167 C155.080683,73.4021002 156.219923,70.0749267 156.219923,67.9731789 C156.219923,62.1025344 153.983215,51.8146573 150.219923,44.6402167" id="Path" stroke="#32324D" stroke-linecap="round" stroke-linejoin="round"></path>
                <circle id="Oval" fill="#FFFFFF" fill-rule="nonzero" cx="142.719923" cy="76.1402167" r="5.5"></circle>
                <path d="M138.219923,70.3798355 C140.403383,69.2209363 143.144141,69.4394149 145.076891,70.9264362 C147.00964,72.4134576 147.721012,74.8509835 146.856636,77.024761 C145.99226,79.1985385 143.737006,80.6436488 141.214329,80.6402167" id="Path" stroke="#32324D" stroke-linecap="round" stroke-linejoin="round"></path>
                <path d="M186.791186,192.806668 C165.273271,182.961503 159.8273,182.4821 145.525108,179.148744 C147.420647,175.507494 150.056693,160.201663 150.169619,159.189163 C149.505142,159.073832 142.230876,157.867911 136.617922,155.767047 C132.010477,154.042534 128.170914,152.023085 128.170914,152.023085 C128.170914,152.023085 126.403045,159.307398 123.819712,168.008446 C122.41834,172.728471 119.558485,178.159327 118.816345,181.955948 C118.290393,184.646602 118.607928,190.635863 118.931397,191.119932 C123.481659,195.976646 135.958763,198.524489 146.138174,200.153025 C162.86953,202.829764 176.278439,202.374353 186.797381,201.686559 C187.983102,202.552809 187.821779,203.096559 189.503567,203.317809 C191.185354,203.539059 200.183119,203.186559 200.183119,203.186559 C199.553961,198.686559 197.079531,192.394168 186.791186,192.806668 Z" id="Path" fill="#FFFFFF" fill-rule="nonzero" transform="translate(159.359635, 177.706928) scale(-1, 1) rotate(6.000000) translate(-159.359635, -177.706928) "></path>
                <path d="M119.053796,190.094813 C129.133733,192.659813 132.306054,194.931191 133.07007,195.486191 C151.8826,196.373856 149.800377,200.597949 150.458866,205.116699" id="Path" stroke="#373754" stroke-linecap="round" stroke-linejoin="round" transform="translate(134.756331, 197.605756) scale(-1, 1) rotate(6.000000) translate(-134.756331, -197.605756) "></path>
                <path d="M155.676952,180.163885 C160.949452,181.525135 167.433202,183.276385 173.699452,185.038885" id="Path" stroke="#373754" stroke-linecap="round" stroke-linejoin="round" transform="translate(164.688202, 182.601385) scale(-1, 1) rotate(6.000000) translate(-164.688202, -182.601385) "></path>
                <path d="M131.337436,201.552967 C131.771488,203.094338 131.93017,204.700204 131.806186,206.296717" id="Path" stroke="#373754" stroke-linecap="round" stroke-linejoin="round" transform="translate(131.592243, 203.924842) scale(-1, 1) rotate(6.000000) translate(-131.592243, -203.924842) "></path>
                <path d="M127.469303,201.959422 C127.90704,203.500095 128.065788,205.106623 127.938053,206.703172" id="Path" stroke="#373754" stroke-linecap="round" stroke-linejoin="round" transform="translate(127.725077, 204.331297) scale(-1, 1) rotate(6.000000) translate(-127.725077, -204.331297) "></path>
                <path d="M124.162745,202.307164 C124.597247,203.848437 124.75469,205.454606 124.627745,207.050914" id="Path" stroke="#373754" stroke-linecap="round" stroke-linejoin="round" transform="translate(124.416535, 204.679039) scale(-1, 1) rotate(6.000000) translate(-124.416535, -204.679039) "></path>
                <path d="M140.194318,184.417763 C139.538068,188.460263 141.72468,191.248627 142.28343,191.593627 C155.26968,199.843627 194.919172,200.165985 202.550422,199.700985" id="Path" stroke="#373754" stroke-linecap="round" stroke-linejoin="round" transform="translate(171.311548, 192.126292) scale(-1, 1) rotate(6.000000) translate(-171.311548, -192.126292) "></path>
                <path d="M188.393878,156.658339 C188.251378,157.160839 186.912628,162.785839 185.566378,169.149589" id="Path" stroke="#373754" stroke-linecap="round" stroke-linejoin="round" transform="translate(186.980128, 162.903964) scale(-1, 1) rotate(6.000000) translate(-186.980128, -162.903964) "></path>
            </g>
        </g>
    </g>
</svg>
