<?xml version="1.0" encoding="UTF-8"?>
<svg width="212px" height="200px" viewBox="0 0 212 200" version="1.1" xmlns="http://www.w3.org/2000/svg" xmlns:xlink="http://www.w3.org/1999/xlink">
    <title>4590375D-2461-4012-B7E7-A5C2ED107BE5</title>
    <g id="Home" stroke="none" stroke-width="1" fill="none" fill-rule="evenodd">
        <g id="new-remote-apps" transform="translate(-392.000000, -238.000000)">
            <g id="Illustration/Observe" transform="translate(497.551875, 338.000000) scale(-1, 1) translate(-497.551875, -338.000000) translate(392.551875, 238.000000)">
                <g id="observe">
                    <path d="M100.439929,163.857967 C74.7392866,165.298134 70.7534867,189.33228 48.788818,182.912259 C26.8241493,176.492237 15.116736,156.583683 11.4099751,132.118196 C7.69996822,107.725584 10.8407832,72.3977662 26.4922731,54.2551323 C42.0723544,36.1090282 68.7921421,46.0763291 92.7463264,41.9715997 C116.700511,37.8668703 135.050185,15.5317224 158.22231,14.2685398 C181.394435,13.0053572 197.897514,15.7804647 207.089762,31.6431234 C216.28201,47.5057821 201.056633,73.7752542 197.74262,102.727816 C194.428607,131.680378 190.994646,147.495457 179.111588,158.72876 C167.22853,169.962063 126.143817,162.42127 100.439929,163.857967 Z" id="Path" fill="#F7F8FB" fill-rule="nonzero"></path>
                    <circle id="Oval" stroke="#C6CBF0" stroke-width="0.74750996" stroke-linecap="round" stroke-linejoin="round" cx="84.5" cy="41.5" r="14.5"></circle>
                    <g id="Group-2" transform="translate(0.000000, 55.000000)">
                        <path d="M50.0866678,7.85380367 C50.2156678,4.74438762 46.0381317,0.419619544 40.1233956,0.419619544 C28.1349954,0.419619544 25.8109314,12.7227797 16.6223473,29.44978 C14.0712432,34.0937801 1.06322699,44.0353803 1.06322699,56.1383325 C1.06322699,68.2412847 10.6525712,71.2113807 19.7018353,71.2113807 C28.7510995,71.2113807 48.4973878,52.8417804 48.4973878,47.6563243 C48.4973878,42.4708682 45.0842197,35.3270201 45.0842197,28.038692 C45.0842197,20.7503639 46.0897317,16.6381878 46.0897317,14.7186678 C46.0897317,12.7991477 50.0257798,13.4861158 50.0866678,7.85380367 Z" id="Path" fill="#FF9D52"></path>
                        <path d="M13.2061602,32.1454245 C8.62511214,37.4402726 0,45.8627688 0,55.7187129 C0,67.8220091 9.58934416,70.7917612 18.6386083,70.7917612 C27.6878725,70.7917612 47.4341608,52.4221609 47.4341608,47.2367048 C47.4341608,42.0512487 44.0199607,34.9080886 44.0199607,27.6201045 C44.0199607,20.3321203 45.0254727,16.2192563 45.0254727,14.3000802 C45.0254727,12.3809042 48.9628968,13.0671842 49.0234408,7.43487212 C49.1524408,4.32545607 44.9755927,1.56319402e-13 39.0601686,1.56319402e-13 C29.7274485,1.56319402e-13 26.2516724,7.45585612 20.8350483,18.6509923" id="Path" stroke="#353552" stroke-linecap="round" stroke-linejoin="round"></path>
                    </g>
                    <path d="M143.041,124.42 C144.619,124.651 148.87,125.341 148.87,125.341 L155.695,128.383 L164.77,111.883 L153.37,118.606 L147.724,115.411" id="Path" fill="#FFFFFF" fill-rule="nonzero"></path>
                    <rect id="Rectangle" fill="#D8DFFF" fill-rule="nonzero" x="99.742" y="126.184" width="95" height="3"></rect>
                    <rect id="Rectangle" fill="#CED3F3" fill-rule="nonzero" x="138" y="20" width="67" height="67"></rect>
                    <rect id="Rectangle" fill="#FFFFFF" fill-rule="nonzero" x="145.157" y="34.812" width="34" height="9" rx="4.5"></rect>
                    <circle id="Oval" fill="#FFFFFF" fill-rule="nonzero" cx="192.5" cy="39.309" r="4.5"></circle>
                    <rect id="Rectangle" fill="#CED3F3" fill-rule="nonzero" x="97" y="65" width="30" height="18" rx="6.6"></rect>
                    <circle id="Oval" fill="#FF9D52" fill-rule="nonzero" cx="127.501" cy="65.424" r="4.704"></circle>
                    <rect id="Rectangle" fill="#F4F5FC" fill-rule="nonzero" x="108" y="0" width="71.529" height="24.933"></rect>
                    <rect id="Rectangle" stroke="#CED3F3" stroke-width="0.6" stroke-linecap="round" stroke-linejoin="round" transform="translate(35.850754, 22.746551) rotate(-90.000000) translate(-35.850754, -22.746551) " x="32.3227539" y="15.7895508" width="7.056" height="13.914" rx="3.528"></rect>
                    <path d="M43.171,143.449 C43.354,145.492 46.771,161.965 57.604,161.965 C73.708,161.965 99.931,141.637 108.673,134.809 C114.259,133.672 156.373,121.609 156.373,121.609 C155.596,119.281 153.94,114.988 153.94,114.988 C153.94,114.988 115.333,117.433 108.49,118.573 C101.647,119.713 69.592,129.673 68.038,130.12 C66.484,130.567 43.171,143.449 43.171,143.449 Z" id="Path" fill="#5567D5" fill-rule="nonzero"></path>
                    <path d="M68.434,132.124 C69.58,128.086 86.11,101.764 93.313,101.764 C100.516,101.764 146.113,114.997 146.113,114.997 C145.129,117.121 141.748,124.975 141.748,124.975 L68.434,132.124 Z" id="Path" fill="#5567D5" fill-rule="nonzero"></path>
                    <path d="M63.742,98.8 C65.029,100.42 67.123,104.182 67.6,105.325 C70.075,104.323 92.8,96.025 94.741,95.611 C96.682,95.197 104.74,93.562 105.598,99.511 C104.122,100.75 100.741,99.652 98.218,100.201 C95.695,100.75 68.5,116.521 66.592,116.944 C64.684,117.367 53.791,113.944 53.791,113.944 C53.791,113.944 58.9,99.604 63.742,98.8 Z" id="Path" fill="#FFFFFF" fill-rule="nonzero"></path>
                    <path d="M51.304,82.735 C57.031,82.735 64.447,93.052 65.821,97.093 C65.035,98.74 62.014,101.527 61.111,101.761 C60.208,101.995 44.713,82.735 51.304,82.735 Z" id="Path" fill="#A6B3FF" fill-rule="nonzero"></path>
                    <path d="M52,84.4 C62.2,91.765 65.71,113.38 69.4,129.757 C66.301,133.234 47.287,145.357 43.132,144.424 C33.883,121.924 22.579,81.8167902 44.059,81.8167902 C46.915004,81.8009429 49.6999667,82.7068185 52,84.4" id="Path" fill="#A6B3FF" fill-rule="nonzero"></path>
                    <path d="M29.257,111.487 C29.11,113.656 26.992,144.724 27.784,155.632 C28.156,160.765 29.782,164.431 29.815,166.186 C29.941,172.426 34.873,175.594 36.775,175.594 C38.677,175.594 38.896,174.943 38.896,174.181 C38.896,173.419 34.927,165.154 34.927,162.1 C34.927,159.046 40,114.742 40.582,112.132 C41.164,109.522 29.257,111.487 29.257,111.487 Z" id="Path" fill="#FFFFFF" fill-rule="nonzero"></path>
                    <path d="M37.762,87.4 C44.629,87.757 43.729,112.132 41.509,113.029 C39.289,113.926 28.66,112.819 27.55,111.286 C26.44,109.753 28.324,86.92 37.762,87.4 Z" id="Path" fill="#A6B3FF" fill-rule="nonzero"></path>
                    <path d="M35.779,74.47 C36.553,76.81 37.498,82.459 37.477,84.178 C38.701,84.778 42.244,84.994 43.642,83.941 C43.084,82.417 42.526,78.787 42.568,76.426 C42.61,74.065 35.779,74.47 35.779,74.47 Z" id="Path" fill="#FFFFFF" fill-rule="nonzero"></path>
                    <circle id="Oval" fill="#FFFFFF" fill-rule="nonzero" cx="35.665" cy="71.269" r="2.067"></circle>
                    <polyline id="Path" fill="#FFFFFF" fill-rule="nonzero" points="158.104 120.865 162.859 119.101 168.397 118.567 162.37 101.014 160.231 112.195 155.53 114.211"></polyline>
                    <g id="Group-4" transform="translate(26.065472, 72.519000)" stroke="#32324D" stroke-linecap="round" stroke-linejoin="round">
                        <path d="M89.6185279,33.181 C103.796528,36.898 118.859528,41.281 118.859528,41.281 M43.3345279,55.165 C44.1396222,52.3282018 50.3713689,41.7333104 57.7938226,33.7532882 M68.9358358,28.3586586 C71.3487322,28.751477 74.7356724,29.4873771 78.6205279,30.418" id="Shape"></path>
                        <path d="M115.775528,50.701 C117.353528,50.932 121.604528,51.622 121.604528,51.622 L128.429528,54.664 L132.742674,46.821916" id="Path"></path>
                        <path d="M86.3755279,44.26 C84.0775279,44.482 82.2715279,44.689 81.2185279,44.86 C74.3785279,46 42.3205279,55.96 40.7665279,56.407 C39.2125279,56.854 15.9055279,69.727 15.9055279,69.727 C16.0885279,71.77 19.5055279,88.243 30.3385279,88.243 C38.0485279,88.243 48.0775279,83.584 57.3985279,77.977" id="Path"></path>
                        <path d="M68.1385279,70.981 C73.7935279,67.03 78.5395279,63.337 81.4075279,61.099 C86.9935279,59.962 129.107528,47.899 129.107528,47.899 C128.330528,45.571 126.674528,41.278 126.674528,41.278 C126.674528,41.278 113.474528,42.115 101.150528,43.036" id="Path"></path>
                        <path d="M37.8025279,21.655 C38.092796,22.2099847 38.3443944,22.7843508 38.5555279,23.374 C37.7695279,25.021 34.7485279,27.808 33.8455279,28.042 M24.0385279,9.016 C27.7495279,9.016 32.1715279,13.348 35.1955279,17.497" id="Shape"></path>
                        <path d="M66.5665279,28.552 C58.1305279,32.971 40.8265279,42.892 39.3265279,43.225 M34.3057484,26.2547255 C35.0230338,25.6239957 35.7525539,25.2018862 36.4765279,25.081 C37.7635279,26.701 39.8575279,30.463 40.3345279,31.606 C40.9345279,31.36 42.7585279,30.679 45.1855279,29.785" id="Shape"></path>
                        <path d="M53.7985279,26.638 C60.1345279,24.349 66.4855279,22.102 67.4755279,21.886 C69.4285279,21.457 77.4745279,19.837 78.3325279,25.786 C76.8565279,27.025 73.4755279,25.927 70.9525279,26.476" id="Path"></path>
                        <path d="M14.8615279,68.215 C13.5507985,64.8996255 12.2247625,61.2795757 10.9788965,57.5132282 M5.19319343,18.0834644 C5.97311966,14.6388862 7.44138531,11.8881784 9.79193458,10.1530579 M15.7003281,8.13402897 C16.0539551,8.11011061 16.4172942,8.098 16.7905279,8.098 C21.1945279,8.098 24.7285279,10.063 27.6295279,13.327" id="Shape"></path>
                        <path d="M32.4385279,20.926 C37.1125279,30.826 39.5785279,44.689 42.1315279,56.026" id="Path"></path>
                        <path d="M7.69752793,87.646 C8.15052793,81.067 12.3532122,42.1203564 12.9202122,39.6393564 M1.20009603,39.6393564 C1.12209603,40.7703564 1.30152793,47.887 0.845527931,57.778" id="Shape"></path>
                        <path d="M0.371527931,71.953 C0.308527931,75.928 0.338527931,79.438 0.518527931,81.913 C0.890527931,87.046 2.51652793,90.712 2.54952793,92.467 C2.67552793,98.707 7.60752793,101.875 9.50952793,101.875 C11.4115279,101.875 11.6305279,101.224 11.6305279,100.462 C11.6305279,100.108 10.7665279,98.119 9.84552793,95.791" id="Path"></path>
                        <path d="M16.0675279,9.181 C15.7617048,7.87349031 15.5468929,6.54737558 15.42422,5.21219113 M8.51352793,0.757 C9.28752793,3.097 10.2325279,8.746 10.2115279,10.465" id="Shape"></path>
                        <path d="M12.7945279,39.586 C9.12852793,39.886 1.23252793,38.881 0.284527931,37.573 C-0.246472069,36.838 -0.093472069,31.216 1.25052793,25.612" id="Path"></path>
                        <polyline id="Path" points="133.367528 36.679 132.965528 38.776 128.264528 40.792"></polyline>
                        <polyline id="Path" points="139.004528 38.956 135.104528 27.595 133.856528 34.114"></polyline>
                        <polyline id="Path" points="130.838528 47.446 135.593528 45.682 141.131528 45.148"></polyline>
                        <line x1="31.9765279" y1="111.727" x2="31.9765279" y2="115.267" id="Path"></line>
                        <line x1="31.9765279" y1="88.246" x2="31.9765279" y2="108.166" id="Path"></line>
                        <line x1="126.113528" y1="39.913" x2="130.163528" y2="50.383" id="Path"></line>
                        <path d="M4.36452793,17.596 C5.90652793,15.16 7.91952793,13.555 10.4965279,13.696 C16.0765279,13.996 16.5295279,30.13 15.2965279,36.658" id="Path"></path>
                        <line x1="4.49352793" y1="88.246" x2="59.4595279" y2="88.246" id="Path"></line>
                        <line x1="94.0978762" y1="56.981" x2="168.25518" y2="56.981" id="Path-Copy"></line>
                        <line x1="31.9765279" y1="121.35" x2="31.9765279" y2="126.36" id="Path"></line>
                        <line x1="23.0395279" y1="126.36" x2="40.9135279" y2="126.36" id="Path"></line>
                    </g>
                    <line x1="120.285" y1="7.365" x2="167.244" y2="7.365" id="Path" stroke="#CED3F3" stroke-width="0.6" stroke-linecap="round" stroke-linejoin="round"></line>
                    <line x1="120.285" y1="17.568" x2="142.191" y2="17.568" id="Path" stroke="#CED3F3" stroke-width="0.6" stroke-linecap="round" stroke-linejoin="round"></line>
                    <line x1="145.157" y1="54.373" x2="192.157" y2="54.373" id="Path" stroke="#FFFFFF" stroke-width="0.6" stroke-linecap="round" stroke-linejoin="round"></line>
                    <line x1="145.157" y1="63.577" x2="192.157" y2="63.577" id="Path" stroke="#FFFFFF" stroke-width="0.6" stroke-linecap="round" stroke-linejoin="round"></line>
                    <line x1="145.157" y1="72.681" x2="177.569" y2="72.681" id="Path" stroke="#FFFFFF" stroke-width="0.6" stroke-linecap="round" stroke-linejoin="round"></line>
                </g>
                <g id="Group" transform="translate(39.000000, 69.000000) rotate(-10.000000) translate(-39.000000, -69.000000) translate(29.000000, 54.000000)">
                    <path d="M5.9854966,17.9065923 C6.2090966,19.5835924 6.1416726,26.1347285 5.58267259,28.3483685 C6.41033661,29.2204085 10.3456967,30.2059685 12.6260727,29.3545685 C12.4919127,27.9011685 12.6711367,24.2341284 12.9841767,22.9596084 C13.2972167,21.6850884 5.76189659,16.2295923 5.9854966,17.9065923 Z" id="Path" fill="#FFFFFF"></path>
                    <path d="M11.9422007,28.4570725 C11.8080407,27.0036725 11.9872647,23.3369764 12.2999607,22.0624564 C12.6126567,20.7879364 5.07836858,15.3324403 5.30196859,17.0090963 C5.52556859,18.6857523 5.45814459,25.2375765 4.89914458,27.4508725 C5.33774459,27.9132085 6.64976061,28.4068485 8.12586463,28.6421445" id="Path" stroke="#353552" stroke-linecap="round" stroke-linejoin="round"></path>
                    <path d="M4.25552057,13.9922163 C3.57164856,8.22402417 6.3422246,3.17892009 10.4444247,2.72346408 C14.5466247,2.26800807 18.4252248,6.57626414 19.1094408,12.3437682 C19.7936568,18.1112723 17.0227368,23.1570644 12.9208807,23.6121764 C8.81902465,24.0672884 4.93939258,19.7604084 4.25552057,13.9922163 Z" id="Path" fill="#FFFFFF"></path>
                    <path d="M18.3082648,14.6561363 C17.8562488,18.9840003 15.4086888,22.3552004 12.0911527,22.7232804 C7.98929663,23.1787364 4.11035257,18.8704803 3.42579256,13.1033203 C2.74123254,7.33616016 5.51284059,2.29002407 9.61469666,1.83456806 C13.5885847,1.39356006 17.3546968,5.42352012 18.2067848,10.9213282" id="Path" stroke="#353552" stroke-linecap="round" stroke-linejoin="round"></path>
                    <path d="M18.5163848,9.01212818 C17.7210568,9.01212818 15.6436408,8.29798417 15.0922088,6.52879214 C14.4912407,8.20063217 9.75229666,13.7352483 6.79836861,14.7087683 C7.04192062,15.8288323 7.25313662,19.8539764 4.28269657,21.9637284 C1.31225652,24.0734804 -0.927527516,10.4242482 0.484936507,8.00592817 C1.89740053,5.58760813 7.90226463,0.880656048 9.65460066,0.896782504 C11.4069367,0.912992048 18.8087848,0.945672049 18.5163848,9.01212818 Z" id="Path" fill="#FF9D52"></path>
                    <path d="M10.4791687,10.8580322 C9.03436865,12.2722162 7.45644062,13.5095843 6.2011846,13.9234163 C6.38694461,14.7789443 6.55412861,17.3290163 5.29887259,19.4274164" id="Path" stroke="#353552" stroke-linecap="round" stroke-linejoin="round"></path>
                    <path d="M3.8161905,14.7962513 C3.72537929,13.1446362 4.38908843,12.9285313 4.91736303,13.0216804 C5.44563764,13.1148295 7.24755543,12.8341982 6.97164403,14.4660191 C6.97164403,14.4660191 8.20970533,14.5080134 8.19063214,14.6809596 C8.11096629,15.4033302 9.1654617,17.3051311 8.41234467,17.7103064 C7.91477612,17.9779972 5.56529864,16.8710533 5.37590715,16.9163642 C4.83122263,17.0466771 3.9070017,16.4478663 3.8161905,14.7962513 Z" id="Path" fill="#FFFFFF"></path>
                    <path d="M17.9192008,8.22643217 C17.1238728,8.22643217 15.0464567,7.51228816 14.4946807,5.74344013 C14.2975687,6.29143214 13.6560087,7.25497615 12.7781207,8.33685617" id="Path" stroke="#32324D" stroke-linecap="round" stroke-linejoin="round"></path>
                    <path d="M5.62464059,16.6303523 C4.85256202,16.6300854 4.15990333,16.1556823 3.88063545,15.4358804 C3.60136757,14.7160784 3.7928257,13.8986568 4.36269677,13.3777419 C4.93256785,12.856827 5.76385425,12.7393654 6.45574461,13.0819923" id="Path" stroke="#353552" stroke-linecap="round" stroke-linejoin="round"></path>
                    <path d="M14.8352407,14.3719923 C14.8352407,15.2904723 15.4045608,16.5735923 15.9178088,17.1322483" id="Path" stroke="#353552" stroke-linecap="round" stroke-linejoin="round"></path>
                    <path d="M11.8623927,12.8016322 C11.8623927,12.2856322 12.0959687,11.8645762 12.3838967,11.8645762 C12.6718247,11.8645762 12.9047127,12.2842562 12.9047127,12.8016322 C12.9047127,13.3190083 12.6718247,13.7383443 12.3838967,13.7383443 C12.0959687,13.7383443 11.8623927,13.3190083 11.8623927,12.8016322 Z" id="Path" fill="#3D3D57"></path>
                    <path d="M11.1179767,17.8663443 C11.4468407,18.6874723 12.0849607,19.1071524 12.8882007,19.1621924" id="Path" stroke="#353552" stroke-linecap="round" stroke-linejoin="round"></path>
                </g>
                <path d="M161.828427,150.828427 L172.171573,161.171573 C173.73367,162.73367 173.73367,165.26633 172.171573,166.828427 L161.828427,177.171573 C160.26633,178.73367 157.73367,178.73367 156.171573,177.171573 L145.828427,166.828427 C144.26633,165.26633 144.26633,162.73367 145.828427,161.171573 L156.171573,150.828427 C157.73367,149.26633 160.26633,149.26633 161.828427,150.828427 Z" id="Polygon" stroke="#CED3F3" stroke-width="0.75"></path>
            </g>
        </g>
    </g>
</svg>