<?xml version="1.0" encoding="UTF-8"?>
<svg width="293px" height="247px" viewBox="0 0 293 247" version="1.1" xmlns="http://www.w3.org/2000/svg" xmlns:xlink="http://www.w3.org/1999/xlink">
    <g id="Home" stroke="none" stroke-width="1" fill="none" fill-rule="evenodd">
        <g id="repository-error" transform="translate(-643.000000, -115.000000)">
            <g id="Group" transform="translate(643.750516, 115.841157)">
                <g id="drawkit-grape-pack-illustration-11">
                    <path d="M251.913444,92.6255652 C268.251028,104.142636 272.869351,124.963139 268.076395,142.723491 C263.328278,160.50434 249.211359,175.247585 231.918017,183.190039 C214.645913,191.183735 194.220984,192.354094 175.209635,196.717832 C156.174686,201.112315 150.565965,208.219481 123.072657,206.632183 C95.5793479,205.044885 86.4906124,192.640008 67.3471087,180.098104 C48.2177643,167.613591 22.7412555,158.624797 21.9011313,141.669963 C21.1058452,124.731527 34.2686878,113.243412 44.678204,96.2967765 C55.1089593,79.3070985 60.9615097,61.8377987 74.9203146,50.8946342 C88.8791194,39.9514696 110.932379,35.4463046 129.43399,41.7059833 C147.935601,47.965662 162.869045,64.8651548 184.32525,74.4206957 C205.812134,83.998783 235.59474,81.1740835 251.913444,92.6255652 Z" id="Path" fill="#FFFFFF" fill-rule="nonzero" transform="translate(145.868714, 122.859085) scale(-1, -1) rotate(-21.000000) translate(-145.868714, -122.859085) "></path>
                    <rect id="Rectangle-Copy" stroke="#C8CEF0" stroke-width="1.34439771" opacity="0.503673735" stroke-linecap="round" stroke-linejoin="round" x="196.249484" y="137.158843" width="51.8018018" height="27.7206349" rx="13.8603175"></rect>
                    <path d="M64.4095494,58.2404081 L82.1481915,75.9425592 C83.6141647,77.4055167 83.6166094,79.7798841 82.1536519,81.2458573 C82.1518337,81.2476793 82.1500135,81.2494994 82.1481915,81.2513177 L64.4095494,98.9534689 C62.9457104,100.414297 60.5755508,100.414297 59.1117118,98.9534689 L41.3730697,81.2513177 C39.9070966,79.7883603 39.9046518,77.4139928 41.3676093,75.9480197 C41.3694276,75.9461976 41.3712477,75.9443775 41.3730697,75.9425592 L59.1117118,58.2404081 C60.5755508,56.7795804 62.9457104,56.7795804 64.4095494,58.2404081 Z" id="Polygon" stroke="#C8CEF0" stroke-width="1.34439771" opacity="0.503673735" stroke-linecap="round" stroke-linejoin="round"></path>
                    <g id="Group-2" transform="translate(68.249484, 60.158843)">
                        <path d="M153,82.8666667 L153,108.5 C153,110.985281 150.985281,113 148.5,113 L7.5,113 C5.01471863,113 3,110.985281 3,108.5 L3,82.8666667 L3,82.8666667" id="Path" fill="#F0F1FB"></path>
                        <polyline id="Path" fill="#F0F1FB" points="3 82.8666667 3 68.7383728 3 52.7333333 153 52.7333333 153 82.8666667 106.674744 82.8666667"></polyline>
                        <line x1="153" y1="52.7333333" x2="153" y2="82.8666667" id="Path" stroke="#43435C"></line>
                        <polyline id="Path" stroke="#43435C" points="2 85.8666667 2 71.7383728 2 55.7333333"></polyline>
                        <rect id="Rectangle-Copy-6" fill="#F0F1FB" x="3" y="22.6" width="150" height="30.1333333"></rect>
                        <path d="M153,52.7333333 L46.7740326,52.7333333 M153,52.7333333 L153,54.9989014 M21.6565857,52.7333333 L0,52.7333333 L0,37.5470428" id="Shape" stroke="#43435C"></path>
                        <path d="M117.154831,0 L123.992898,0 C125.295491,0 126.562705,0.423904628 127.603113,1.2076786 L153.612318,20.8012798 C154.053439,21.1335909 154.141647,21.7605816 153.809336,22.2017026 C153.620397,22.452507 153.324624,22.6 153.010616,22.6 C97.6336869,22.6 60.4736041,22.6 41.5303671,22.6 C32.6565195,22.6 24.6355838,22.6 17.4675598,22.6 C14.2501875,22.6 9.42412897,22.6 2.9893843,22.6 C2.43709955,22.6 1.9893843,22.1522847 1.9893843,21.6 C1.9893843,21.2859921 2.1368773,20.9902191 2.38768173,20.8012798 L28.3968868,1.2076786 C29.4372947,0.423904628 30.7045086,0 32.0071023,0 L93.2578125,0" id="Path" fill="#D7DFFF"></path>
                        <path d="M117.154831,0 L123.992898,0 C125.295491,0 126.562705,0.423904628 127.603113,1.2076786 L153.612318,20.8012798 C153.906399,21.0228205 154.035626,21.4896281 154,22.2017026 L154.010673,42.7550545 M136.690557,22.6 C90.2683863,22.6 58.548323,22.6 41.5303671,22.6 M2,29.0995054 C2,29.0763306 2,26.5419969 2,21.4965041 C2.1097617,21.1450364 2.23898894,20.913295 2.38768173,20.8012798 L28.3968868,1.2076786 C29.4372947,0.423904628 30.7045086,0 32.0071023,0 L93.2578125,0" id="Shape" stroke="#43435C"></path>
                        <path d="M76.2726593,91.9066667 L76.2726593,91.9066667 L58.5,91.9066667 C56.0147186,91.9066667 54,89.891948 54,87.4066667 L54,82.8666667 L54,82.8666667 L99,82.8666667 L99,87.4066667 C99,89.891948 96.9852814,91.9066667 94.5,91.9066667" id="Path" stroke="#43435C" fill="#A6B3FF"></path>
                        <path d="M148.5,113 L4.5,113 C2.01471863,113 0,110.985281 0,108.5 L0,82.8666667 L53.7817993,82.8666667 L99.1544495,82.8666667 L150,82.8666667" id="Path" stroke="#43435C"></path>
                        <path d="M54,52.7333333 L54,52.7333333 L99,52.7333333 L99,57.2733333 C99,59.7586147 96.9852814,61.7733333 94.5,61.7733333 L58.5,61.7733333 C56.0147186,61.7733333 54,59.7586147 54,57.2733333" id="Path" stroke="#43435C" fill="#A6B3FF"></path>
                        <path d="M99,27.14 C99,29.6252814 96.9852814,31.64 94.5,31.64 L58.5,31.64 C56.0147186,31.64 54,29.6252814 54,27.14 L54,22.6 L54,22.6 L99,22.6" id="Path" stroke="#43435C" fill="#A6B3FF"></path>
                    </g>
                </g>
                <circle id="Oval" stroke="#FF7B7C" stroke-width="5" fill="#FFFFFF" cx="146.73318" cy="123.337863" r="34.9130435"></circle>
                <path d="M144.939701,85.2509067 C123.904856,85.2509067 106.852745,102.303018 106.852745,123.337863 C106.852745,133.566192 110.884636,142.852821 117.445793,149.695126" id="Path" stroke="#42425B"></path>
                <line x1="122.37748" y1="147.120696" x2="170.492742" y2="99.0054339" id="Path-12" stroke="#FF7B7C" stroke-width="5"></line>
                <line x1="142.276537" y1="121.151046" x2="164.562694" y2="98.1746123" id="Path" stroke="#42425B"></line>
            </g>
        </g>
    </g>
</svg>
