<svg width="32px" height="32px" viewBox="0 0 32 32" version="1.1" xmlns="http://www.w3.org/2000/svg" xmlns:xlink="http://www.w3.org/1999/xlink">
    <title>F953FC5A-4B2F-4326-8022-E640A96698A4</title>
    <defs>
        <rect id="path-1" x="1.86882473e-13" y="0" width="32" height="32" rx="16"></rect>
        <filter x="0.0%" y="0.0%" width="100.0%" height="100.0%" filterUnits="objectBoundingBox" id="filter-2">
            <feOffset dx="0" dy="0" in="SourceAlpha" result="shadowOffsetOuter1"></feOffset>
            <feComposite in="shadowOffsetOuter1" in2="SourceAlpha" operator="out" result="shadowOffsetOuter1"></feComposite>
            <feColorMatrix values="0 0 0 0 0   0 0 0 0 0   0 0 0 0 0  0 0 0 0.07 0" type="matrix" in="shadowOffsetOuter1"></feColorMatrix>
        </filter>
        <path d="M7.5,1 C7.77614237,1 8,1.22385763 8,1.5 C8,1.74545989 7.82312484,1.94960837 7.58987563,1.99194433 L7.5,2 L3.5,2 C2.72030388,2 2.07955132,2.59488808 2.00686658,3.35553999 L2,3.5 L2,12.5 C2,13.2796961 2.59488808,13.9204487 3.35553999,13.9931334 L3.5,14 L12.5,14 C13.2796961,14 13.9204487,13.4051119 13.9931334,12.64446 L14,12.5 L14,8.5 C14,8.22385763 14.2238576,8 14.5,8 C14.7454599,8 14.9496084,8.17687516 14.9919443,8.41012437 L15,8.5 L15,12.5 C15,13.8254834 13.9684641,14.9100387 12.6643757,14.9946823 L12.5,15 L3.5,15 C2.1745166,15 1.08996133,13.9684641 1.00531768,12.6643757 L1,12.5 L1,3.5 C1,2.1745166 2.03153594,1.08996133 3.33562431,1.00531768 L3.5,1 L7.5,1 Z M11.1918046,2.16003971 C11.9187451,1.42467229 13.1041798,1.41784085 13.8395472,2.14478126 C14.5955682,2.89213855 14.6223059,4.10452133 13.8999681,4.8844821 L13.8999681,4.8844821 L8.46480412,10.6734522 L4.79716188,11.6939168 L5.76686995,7.97163446 Z M13.136527,2.85595116 C12.7939279,2.51727807 12.2416476,2.52046076 11.9092892,2.85655515 L11.9092892,2.85655515 L6.672,8.464 L6.202,10.264 L7.922,9.786 L13.1662787,4.20499717 C13.4946021,3.85048245 13.5086395,3.31453852 13.2160563,2.94473865 L13.2160563,2.94473865 Z" id="path-3"></path>
    </defs>
    <g id="Home" stroke="none" stroke-width="1" fill="none" fill-rule="evenodd">
        <g id="apps-UI-kit" transform="translate(-798.000000, -499.000000)">
            <g id="Button/Circle/32/Default" transform="translate(798.000000, 499.000000)">
                <g id="Group" fill-rule="nonzero">
                    <g id="Shadow">
                        <use fill="black" fill-opacity="1" filter="url(#filter-2)" xlink:href="#path-1"></use>
                        <use fill-opacity="0" fill="#FFFFFF" xlink:href="#path-1"></use>
                    </g>
                </g>
                <path d="M16,0 C24.836556,-1.623249e-15 32,7.163444 32,16 C32,24.836556 24.836556,32 16,32 C7.163444,32 1.082166e-15,24.836556 0,16 C-1.082166e-15,7.163444 7.163444,1.623249e-15 16,0 Z M16,1 C7.71572875,1 1,7.71572875 1,16 C1,24.2842712 7.71572875,31 16,31 C24.2842712,31 31,24.2842712 31,16 C31,7.71572875 24.2842712,1 16,1 Z" id="Combined-Shape" fill="#BDE9D3" fill-rule="nonzero"></path>
                <g id="Icon/Clear" transform="translate(8.000000, 8.000000)">
                    <mask id="mask-4" fill="white">
                        <use xlink:href="#path-3"></use>
                    </mask>
                    <use id="Combined-Shape" fill="#36B475" fill-rule="nonzero" xlink:href="#path-3"></use>
                </g>
            </g>
        </g>
    </g>
</svg>
