<?xml version="1.0" encoding="UTF-8"?>
<svg width="26px" height="16px" viewBox="0 0 26 16" version="1.1" xmlns="http://www.w3.org/2000/svg" xmlns:xlink="http://www.w3.org/1999/xlink">
    <title>5FC31798-D6B0-4EED-839F-C12B986B6991</title>
    <g id="Home" stroke="none" stroke-width="1" fill="none" fill-rule="evenodd">
        <g id="new-integration-stoped" transform="translate(-606.000000, -128.000000)" fill="#FFFFFF">
            <g id="Button/Primary/32-with-icon/Default" transform="translate(598.000000, 120.000000)">
                <g id="Icon/Download" transform="translate(18.000000, 8.000000)">
                    <path d="M8,0 C12.418278,0 16,3.581722 16,8 C16,12.418278 12.418278,16 8,16 C3.581722,16 0,12.418278 0,8 C0,3.581722 3.581722,0 8,0 Z M6.4,4.7964148 C6.1790861,4.7964148 6,4.9755009 6,5.1964148 L6,5.1964148 L6,10.8035852 C6,10.8744071 6.01880336,10.9439592 6.05448844,11.0051336 C6.16580055,11.1959544 6.41072764,11.2604089 6.60154841,11.1490968 L6.60154841,11.1490968 L11.4076945,8.34551156 C11.4672959,8.31074405 11.5168901,8.26114986 11.5516576,8.20154841 C11.6629697,8.01072764 11.5985152,7.76580055 11.4076945,7.65448844 L11.4076945,7.65448844 L6.60154841,4.85090324 C6.54037399,4.81521816 6.47082185,4.7964148 6.4,4.7964148 Z" id="Combined-Shape"></path>
                </g>
            </g>
        </g>
    </g>
</svg>
