<?xml version="1.0" encoding="UTF-8"?>

<!-- 
~    Copyright (c) 2021, WSO2 Inc. (http://www.wso2.com). All Rights Reserved.
~   
~    This software is the property of WSO2 Inc. and its suppliers, if any. 
~    Dissemination of any information or reproduction of any material contained 
~    herein in any form is strictly forbidden, unless permitted by WSO2 expressly. 
~    You may not alter or remove any copyright or other notice from copies of this content."
-->

<svg width="24px" height="25px" viewBox="0 0 24 25" version="1.1" xmlns="http://www.w3.org/2000/svg" xmlns:xlink="http://www.w3.org/1999/xlink">
    <title>DAF809CC-B760-4537-8536-D8142317F52C</title>
    <g id="Home" stroke="none" stroke-width="1" fill="none" fill-rule="evenodd">
        <g id="new-dashboard-+" transform="translate(-606.000000, -279.000000)" fill="#5567D5">
            <path d="M619.103015,279 C619.427252,279.085815 619.742835,279.210217 620.041984,279.373206 L620.041984,279.373206 L627.958016,283.686196 C629.2216,284.374651 630,285.646967 630,287.023876 L630,287.023876 L630,295.649855 C630,297.026764 629.2216,298.29908 627.958016,298.987535 L627.958016,298.987535 L620.041984,303.300525 C618.7784,303.988979 617.2216,303.988979 615.958016,303.300525 L615.958016,303.300525 L608.041984,298.987535 C606.7784,298.29908 606,297.026764 606,295.649855 L606,295.649855 L606,287.023876 C606,285.646967 606.7784,284.374651 608.041984,283.686196 L608.041984,283.686196 L615.958016,279.373206 C616.257165,279.210217 616.572748,279.085815 616.896985,279 L616.896641,293.301254 L612.779412,290.267977 L612.641849,290.181321 C612.169099,289.929783 611.567551,290.04951 611.235294,290.484643 C610.869812,290.96329 610.968572,291.642325 611.455882,292.00131 L611.455882,292.00131 L618,296.822143 L624.544118,292.00131 L624.66733,291.895861 C625.045547,291.52052 625.096963,290.919777 624.764706,290.484643 L624.764706,290.484643 L624.657348,290.363621 C624.275214,289.992128 623.663597,289.941626 623.220588,290.267977 L623.220588,290.267977 L619.102641,293.301254 Z" id="Combined-Shape"></path>
        </g>
    </g>
</svg>
