<?xml version="1.0" encoding="UTF-8"?>
<svg width="16px" height="16px" viewBox="0 0 16 16" version="1.1" xmlns="http://www.w3.org/2000/svg" xmlns:xlink="http://www.w3.org/1999/xlink">
    <title>2FD83A0D-7A84-4BEE-AB20-A6E39F6CEB79</title>
    <g id="Home" stroke="none" stroke-width="1" fill="none" fill-rule="evenodd">
        <g id="new-services-listing" transform="translate(-1144.000000, -148.000000)" fill="#5567D5" fill-rule="nonzero">
            <g id="Button/Pill/40-outline/Default" transform="translate(1132.000000, 136.000000)">
                <g id="Group" transform="translate(20.000000, 20.000000) scale(1, -1) translate(-20.000000, -20.000000) translate(12.000000, 12.000000)">
                    <path d="M5.5,8 C6.88071187,8 8,9.11928813 8,10.5 L8,10.5 L8,13.5 C8,14.8807119 6.88071187,16 5.5,16 L5.5,16 L2.5,16 C1.11928813,16 0,14.8807119 0,13.5 L0,13.5 L0,10.5 C0,9.11928813 1.11928813,8 2.5,8 L2.5,8 Z M5.5,9 L2.5,9 C1.67157288,9 1,9.67157288 1,10.5 L1,10.5 L1,13.5 C1,14.3284271 1.67157288,15 2.5,15 L2.5,15 L5.5,15 C6.32842712,15 7,14.3284271 7,13.5 L7,13.5 L7,10.5 C7,9.67157288 6.32842712,9 5.5,9 L5.5,9 Z M13.5,8 C14.8807119,8 16,9.11928813 16,10.5 L16,10.5 L16,12.5 C16,13.8807119 14.8807119,15 13.5,15 L13.5,15 L11.5,15 C10.1192881,15 9,13.8807119 9,12.5 L9,12.5 L9,10.5 C9,9.11928813 10.1192881,8 11.5,8 L11.5,8 Z M13.5,9 L11.5,9 C10.6715729,9 10,9.67157288 10,10.5 L10,10.5 L10,12.5 C10,13.3284271 10.6715729,14 11.5,14 L11.5,14 L13.5,14 C14.3284271,14 15,13.3284271 15,12.5 L15,12.5 L15,10.5 C15,9.67157288 14.3284271,9 13.5,9 L13.5,9 Z M5.5,0 C6.88071187,0 8,1.11928813 8,2.5 L8,2.5 L8,4.5 C8,5.88071187 6.88071187,7 5.5,7 L5.5,7 L3.5,7 C2.11928813,7 1,5.88071187 1,4.5 L1,4.5 L1,2.5 C1,1.11928813 2.11928813,0 3.5,0 L3.5,0 Z M13.5,0 C14.8807119,0 16,1.11928813 16,2.5 L16,2.5 L16,4.5 C16,5.88071187 14.8807119,7 13.5,7 L13.5,7 L11.5,7 C10.1192881,7 9,5.88071187 9,4.5 L9,4.5 L9,2.5 C9,1.11928813 10.1192881,0 11.5,0 L11.5,0 Z M5.5,1 L3.5,1 C2.67157288,1 2,1.67157288 2,2.5 L2,2.5 L2,4.5 C2,5.32842712 2.67157288,6 3.5,6 L3.5,6 L5.5,6 C6.32842712,6 7,5.32842712 7,4.5 L7,4.5 L7,2.5 C7,1.67157288 6.32842712,1 5.5,1 L5.5,1 Z M13.5,1 L11.5,1 C10.6715729,1 10,1.67157288 10,2.5 L10,2.5 L10,4.5 C10,5.32842712 10.6715729,6 11.5,6 L11.5,6 L13.5,6 C14.3284271,6 15,5.32842712 15,4.5 L15,4.5 L15,2.5 C15,1.67157288 14.3284271,1 13.5,1 L13.5,1 Z" id="Combined-Shape"></path>
                </g>
            </g>
        </g>
    </g>
</svg>
