<?xml version="1.0" encoding="UTF-8"?>
<svg width="20px" height="20px" viewBox="0 0 20 20" version="1.1" xmlns="http://www.w3.org/2000/svg" xmlns:xlink="http://www.w3.org/1999/xlink">
    <title>7588522A-F3CE-4E62-B4AC-FB7449199923</title>
    <g id="Apps" stroke="none" stroke-width="1" fill="none" fill-rule="evenodd">
        <g id="apps-create-" transform="translate(-614.000000, -388.000000)" fill="#5567D5" fill-rule="nonzero">
            <g id="create" transform="translate(504.000000, 70.000000)">
                <g id="Card/Mode/Default" transform="translate(72.000000, 280.000000)">
                    <g id="Icon/20/Develope" transform="translate(38.000000, 38.000000)">
                        <path d="M5.5,10.25 C7.84721019,10.25 9.75,12.1527898 9.75,14.5 C9.75,16.8472102 7.84721019,18.75 5.5,18.75 C3.15278981,18.75 1.25,16.8472102 1.25,14.5 C1.25,12.1527898 3.15278981,10.25 5.5,10.25 Z M14.5,10.25 C16.8472102,10.25 18.75,12.1527898 18.75,14.5 C18.75,16.8472102 16.8472102,18.75 14.5,18.75 C12.1527898,18.75 10.25,16.8472102 10.25,14.5 C10.25,12.1527898 12.1527898,10.25 14.5,10.25 Z M5.5,11.75 C3.98121694,11.75 2.75,12.9812169 2.75,14.5 C2.75,16.0187831 3.98121694,17.25 5.5,17.25 C7.01878306,17.25 8.25,16.0187831 8.25,14.5 C8.25,12.9812169 7.01878306,11.75 5.5,11.75 Z M5.5,1.25 C7.84721019,1.25 9.75,3.15278981 9.75,5.5 C9.75,7.84721019 7.84721019,9.75 5.5,9.75 C3.15278981,9.75 1.25,7.84721019 1.25,5.5 C1.25,3.15278981 3.15278981,1.25 5.5,1.25 Z M14.5,1.25 C16.8472102,1.25 18.75,3.15278981 18.75,5.5 C18.75,7.84721019 16.8472102,9.75 14.5,9.75 C12.1527898,9.75 10.25,7.84721019 10.25,5.5 C10.25,3.15278981 12.1527898,1.25 14.5,1.25 Z" id="Combined-Shape"></path>
                    </g>
                </g>
            </g>
        </g>
    </g>
</svg>