<?xml version="1.0" encoding="UTF-8"?>
<svg width="26px" height="16px" viewBox="0 0 26 16" version="1.1" xmlns="http://www.w3.org/2000/svg" xmlns:xlink="http://www.w3.org/1999/xlink">
    <title>5606AACA-3A22-42E0-91CB-EE9ADDF21139</title>
    <g id="Home" stroke="none" stroke-width="1" fill="none" fill-rule="evenodd">
        <g id="new-integration-scedule" transform="translate(-630.000000, -128.000000)" fill="#FFFFFF">
            <g id="Button/Primary/32-with-icon/Default" transform="translate(622.000000, 120.000000)">
                <g id="Icon/Download" transform="translate(18.000000, 8.000000)">
                    <path d="M13,2 C14.5976809,2 15.9036609,3.24891996 15.9949073,4.82372721 L16,5 L16,13 C16,14.5976809 14.75108,15.9036609 13.1762728,15.9949073 L13,16 L3,16 C1.40231912,16 0.0963391206,14.75108 0.00509269341,13.1762728 L0,13 L0,5 C0,3.34314575 1.34314575,2 3,2 C3.55228475,2 4,2.44771525 4,3 C4,3.51283584 3.61395981,3.93550716 3.11662113,3.99327227 L3,4 C2.48716416,4 2.06449284,4.38604019 2.00672773,4.88337887 L2,5 L2,13 C2,13.5128358 2.38604019,13.9355072 2.88337887,13.9932723 L3,14 L13,14 C13.5128358,14 13.9355072,13.6139598 13.9932723,13.1166211 L14,13 L14,5 C14,4.48716416 13.6139598,4.06449284 13.1166211,4.00672773 L13,4 C12.4477153,4 12,3.55228475 12,3 C12,2.44771525 12.4477153,2 13,2 Z M10,10 C10.5522847,10 11,10.4477153 11,11 C11,11.5522847 10.5522847,12 10,12 C9.44771525,12 9,11.5522847 9,11 C9,10.4477153 9.44771525,10 10,10 Z M6,10 C6.55228475,10 7,10.4477153 7,11 C7,11.5522847 6.55228475,12 6,12 C5.44771525,12 5,11.5522847 5,11 C5,10.4477153 5.44771525,10 6,10 Z M10,6 C10.5522847,6 11,6.44771525 11,7 C11,7.55228475 10.5522847,8 10,8 C9.44771525,8 9,7.55228475 9,7 C9,6.44771525 9.44771525,6 10,6 Z M6,6 C6.55228475,6 7,6.44771525 7,7 C7,7.55228475 6.55228475,8 6,8 C5.44771525,8 5,7.55228475 5,7 C5,6.44771525 5.44771525,6 6,6 Z M6,0 C6.51283584,0 6.93550716,0.38604019 6.99327227,0.883378875 L7,1 L7,3 C7,3.55228475 6.55228475,4 6,4 C5.48716416,4 5.06449284,3.61395981 5.00672773,3.11662113 L5,3 L5,1 C5,0.44771525 5.44771525,0 6,0 Z M10,0 C10.5128358,0 10.9355072,0.38604019 10.9932723,0.883378875 L11,1 L11,3 C11,3.55228475 10.5522847,4 10,4 C9.48716416,4 9.06449284,3.61395981 9.00672773,3.11662113 L9,3 L9,1 C9,0.44771525 9.44771525,0 10,0 Z" id="Combined-Shape"></path>
                </g>
            </g>
        </g>
    </g>
</svg>
