<?xml version="1.0" encoding="UTF-8"?>
<svg width="16px" height="16px" viewBox="0 0 16 16" version="1.1" xmlns="http://www.w3.org/2000/svg" xmlns:xlink="http://www.w3.org/1999/xlink">
    <title>568740B4-3AC5-4714-9FDA-949EB280BB32</title>
    <g id="Manage" stroke="none" stroke-width="1" fill="none" fill-rule="evenodd">
        <g id="manage-overview" transform="translate(-888.000000, -192.000000)" fill="#5567D5" fill-rule="nonzero">
            <g id="Icon/Analytics/Overview-Copy" transform="translate(888.000000, 192.000000)">
                <path d="M6.66666667,0 C8.67767691,0 10.6767057,0.577374009 12.6546528,1.71963045 L13.0034816,1.92706641 L13.3333333,2.12888614 L13.3333333,5.50581633 C13.3333333,5.88127786 13.0016924,6.18564956 12.5925926,6.18564956 C12.2175844,6.18564956 11.9076632,5.92989278 11.8586139,5.59806567 L11.8518519,5.50581633 L11.8518519,2.86255112 L11.5265818,2.68083402 C10.0002301,1.85560514 8.48945282,1.41991976 6.98821636,1.36549606 L6.66666667,1.35966646 C5.05962638,1.35966646 3.4421283,1.79666023 1.80675158,2.68083402 L1.48148148,2.86164468 L1.48148148,9.13159356 C1.48148148,10.3480931 2.10712382,11.4885767 3.1603748,12.2134407 L3.35064115,12.3369744 L6.66567901,14.3644229 L9.85073545,12.4133917 C10.1911271,12.2051231 10.6510303,12.2895407 10.877958,12.6019435 C11.084256,12.8859462 11.0269933,13.2605973 10.7591357,13.4828438 L10.6725135,13.5447026 L6.66666667,16 L2.52886308,13.4682853 C1.01766044,12.5436561 0.0837117527,11.0145219 0.0053555391,9.35819926 L0,9.13159356 L0,2.12888614 L0.329851706,1.92706641 C2.4214892,0.647298196 4.5373617,0 6.66666667,0 Z M15.7919083,6.42397799 C16.0442332,6.66844078 16.0670753,7.05089169 15.860502,7.32033847 L15.7916476,7.39753139 L11.4954447,11.5555556 L9.0971109,9.23315511 C8.81948155,8.96431576 8.81948155,8.52844104 9.0971109,8.25960169 C9.34950121,8.01520227 9.74445083,7.99298414 10.022761,8.1929473 L10.1024957,8.25960169 L11.495575,9.608263 L14.7865236,6.42372552 C15.0642249,6.15495589 15.514351,6.15506893 15.7919083,6.42397799 Z" id="Combined-Shape"></path>
            </g>
        </g>
    </g>
</svg>
