<?xml version="1.0" encoding="UTF-8"?>
<svg width="200px" height="202px" viewBox="0 0 200 202" version="1.1" xmlns="http://www.w3.org/2000/svg" xmlns:xlink="http://www.w3.org/1999/xlink">
    <title>6ACC2F42-0DEC-460F-8618-A39DBB81951A</title>
    <g id="Home" stroke="none" stroke-width="1" fill="none" fill-rule="evenodd">
        <g id="new-services-initial" transform="translate(-405.000000, -239.000000)">
            <g id="Services" transform="translate(405.000000, 239.000000)">
                <path d="M168.05995,11.5931759 C187.637862,25.5350312 201.24593,46.494287 199.909554,65.9626938 C198.573178,85.3902044 182.242243,103.326866 169.874498,124.031451 C157.506753,144.736035 149.008236,168.284758 132.723238,174.320652 C116.394391,180.358405 92.2310378,168.879611 69.024029,159.484659 C45.8170202,150.048811 23.5663556,142.652193 11.2946631,128.028116 C-0.979117569,113.446794 -3.36580203,91.5934006 4.70465767,74.9747091 C12.7751174,58.3560175 41.2091853,72.6117103 58.3502988,58.2850598 C75.5415264,43.9602682 85.1100778,13.9870644 115.556266,6 C146.002454,-1.98706441 148.434011,-2.35053828 168.05995,11.5931759 Z" id="Path" fill="#F7F8FB" fill-rule="nonzero"></path>
                <path d="M33.1506972,12 C15.4356574,25.8639442 22.0288845,82.0085657 58.3502988,89.0919323 C100.886454,97.3864542 103.761056,53.9589641 136.00996,57.8535857 C164.053884,61.2429283 172.471414,91.5672311 155.106474,110.582371" id="Path" stroke="#CED3F3" stroke-width="1.13545817" stroke-linecap="round" stroke-linejoin="round" stroke-dasharray="6.812749149823429"></path>
                <path d="M71.9114542,107.961355 C69.8297809,107.164641 59.4365538,98.7792829 58.6265936,97.4564741 C57.8166335,96.1336653 52.4383466,87.7255976 52.4383466,87.7255976 L61.4917331,80.822012 C61.4917331,80.822012 69.6481076,88.1532869 71.2358566,89.6293825 C72.8236056,91.1054781 78.9588645,93.4615538 79.625,93.4596614 C80.2911355,93.4577689 71.9114542,107.961355 71.9114542,107.961355 Z" id="Path" fill="#FFFFFF" fill-rule="nonzero"></path>
                <path d="M137.90239,163.831574 C135.771514,164.777789 97.5614542,173.541633 90.9322709,173.621116 C90.2275406,177.958163 90.2227569,186.470909 90.9179197,199.159355 C95.8850605,199.656401 98.4225468,200.135221 98.5303785,200.595817 C101.923506,199.77261 147.531197,189.425179 148.917389,181.124602 C147.647568,178.677689 138.604482,168.80488 137.90239,163.831574 Z" id="Path" fill="#5567D5" fill-rule="nonzero"></path>
                <path d="M113.991527,35.9637491 C118.003898,43.3844751 115.240881,52.6528319 107.820155,56.6652034 L48.9767039,88.4801007 L50.6670319,104.246514 L38.3987039,94.2001007 L35.7564351,95.6299114 C28.3357091,99.6422829 19.0673523,96.8792658 15.0549808,89.4585398 C11.0426092,82.0378139 13.8056264,72.7694571 21.2263523,68.7570856 L93.2900722,29.7923776 C100.710798,25.780006 109.979155,28.5430232 113.991527,35.9637491 Z" id="Combined-Shape" fill="#CED3F3" fill-rule="nonzero"></path>
                <polyline id="Path" stroke="#FFFFFF" stroke-width="1.00298805" stroke-linecap="round" stroke-linejoin="round" points="59.6106574 71.0438247 51.8384462 68.5496016 54.3345618 60.775498"></polyline>
                <polyline id="Path" stroke="#FFFFFF" stroke-width="1.00298805" stroke-linecap="round" stroke-linejoin="round" points="72.552988 51.411753 80.3251992 53.9078685 77.8309761 61.6800797"></polyline>
                <line x1="61.5825697" y1="50.7001992" x2="67.1728088" y2="73.8181275" id="Path" stroke="#FFFFFF" stroke-width="1.00298805" stroke-linecap="round" stroke-linejoin="round"></line>
                <path d="M54.6354582,51.5215139 C53.1839641,48.3630478 44.1192231,51.6956175 40.252988,54.9108566 C41.3278884,58.4440239 42.4198207,61.5532869 43.0424303,62.2591633 C43.8050797,62.3386454 55.1123506,56.6159363 54.6354582,51.5215139 Z" id="Path" fill="#FFFFFF" fill-rule="nonzero"></path>
                <path d="M95.7693227,99.5173307 C90.3721116,95.164741 82.936753,92.2503984 80.7869522,91.3628486 C79.2238048,92.0384462 77.2140438,95.6075697 75.4427291,99.6573705 C72.2748008,105.605279 71.2793825,112.834363 71.2793825,112.834363 C76.1845618,115.883068 86.3601594,117.830378 88.1541833,117.830378 C89.9482072,117.830378 95.7693227,99.5173307 95.7693227,99.5173307 Z" id="Path" fill="#A6B3FF" fill-rule="nonzero"></path>
                <path d="M105.744323,93.0540794 C124.721614,88.3933789 133.394622,144.054352 137.516335,163.40062 C133.479781,166.478039 97.6731076,175.710296 90.5462151,173.415797 C77.4089641,137.986721 72.8500996,101.131335 105.744323,93.0540794 Z" id="Path" fill="#A6B3FF" fill-rule="nonzero"></path>
                <path d="M115.961554,128.887849 C114.966135,130.327988 105.880578,140.575498 104.440438,141.294622 C103.000299,142.013745 97.2870518,141.921016 96.1875498,141.294622 C89.762749,137.638446 69.0463147,105.455777 67.5494024,102.408964 C66.05249,99.3621514 63.8951195,95.0436255 61.9553785,93.4369522 C61.6431275,91.0733068 63.3368526,87.9791833 60.3297809,84.2359562 C60.8823705,81.5979084 59.3476096,69.9405378 68.088745,74.6337649 C70.3899402,75.8922311 73.5540837,80.8257968 73.1169323,84.8888446 C72.6797809,88.9518924 72.1517928,93.5675299 73.0260956,95.463745 C73.9003984,97.3599602 97.6466135,122.637151 98.259761,122.943725 C99.0167331,121.953984 102.031375,118.000697 102.031375,118.000697 L115.961554,128.887849 Z" id="Path" fill="#FFFFFF" fill-rule="nonzero"></path>
                <path d="M124.869223,101.82988 C134.051295,109.108167 122.884064,125.981076 118.749104,130.611853 C116.856673,130.69512 100.419024,121.017231 99.5768924,117.046912 C101.959462,113.491036 114.636853,93.7170319 124.869223,101.82988 Z" id="Path" fill="#A6B3FF" fill-rule="nonzero"></path>
                <path d="M161.611391,145 L152,116 L181,126.16317 L170.864593,130.255041 L183,141.998783 L178.148657,147 L165.950778,135.02911 L161.611391,145 Z" id="Combined-Shape" fill="#CED3F3" fill-rule="nonzero"></path>
                <path d="M160.328427,14.8284271 L170.671573,25.1715729 C172.23367,26.73367 172.23367,29.26633 170.671573,30.8284271 L160.328427,41.1715729 C158.76633,42.73367 156.23367,42.73367 154.671573,41.1715729 L144.328427,30.8284271 C142.76633,29.26633 142.76633,26.73367 144.328427,25.1715729 L154.671573,14.8284271 C156.23367,13.26633 158.76633,13.26633 160.328427,14.8284271 Z" id="Polygon" stroke="#CED3F3" stroke-width="0.75"></path>
                <circle id="Oval" fill="#FFFFFF" fill-rule="nonzero" cx="116.094024" cy="77.8641434" r="3.12250996"></circle>
                <g id="Group-2" transform="translate(38.917920, 48.036653)" stroke-linecap="round" stroke-linejoin="round">
                    <path d="M30.6071799,57.5383466 C29.3657457,56.823008 19.3699289,48.5114542 18.3839728,47.5273904 C17.3980166,46.5433267 13.463654,40.2793825 12.8315823,38.7824701" id="Path" stroke="#32324D" stroke-width="1.02758964"></path>
                    <path d="M44.8332125,59.2675203 C48.0802594,53.5716864 53.1953891,49.1215797 60.6597174,46.4086586 M71.6124991,45.7157989 C73.7146304,46.7327386 75.662864,48.5133954 77.4688316,50.8669748 M86.2498968,69.0259871 C91.6072463,84.7085484 94.9539073,103.949568 97.0844708,113.715139 C93.047917,116.720319 57.2412437,125.735857 50.1143512,123.495219 C43.2834366,105.505766 38.771808,87.1397426 40.638667,72.5436101" id="Shape" stroke="#40404B" stroke-width="1.00298805"></path>
                    <path d="M35.2095704,64.5838645 C33.7682786,64.0122599 32.3759,63.3242983 31.0462238,62.5267928 C30.9345704,62.074502 31.1067815,61.0620518 31.6612636,59.1582669" id="Path" stroke="#32324D" stroke-width="1.02758964"></path>
                    <path d="M35.3723194,48.9580677 C37.1436341,44.9082669 38.9811839,41.7308765 40.5443313,41.0552789 C42.6941321,41.9428287 49.7869608,44.5922311 55.184172,48.937251" id="Path" stroke="#32324D" stroke-width="1.00298805"></path>
                    <path d="M47.7790923,62.3924303 C41.3277975,55.8370518 34.0021999,48.0534861 32.7853672,45.1561753 C31.9735146,43.452988 32.546921,32.2687251 34.0873592,29.8710159" id="Path" stroke="#32324D" stroke-width="1.02758964"></path>
                    <path d="M60.6741122,69.2505976 C59.6824787,70.2952191 58.8024987,71.6426295 58.0247098,72.6361554 C57.801403,72.3787849 56.5240126,71.1222112 54.6486142,69.2638446" id="Path" stroke="#32324D" stroke-width="1.02758964"></path>
                    <path d="M65.9350684,89.4977092 C65.1307855,90.2830677 64.5043911,90.8337649 64.1978174,90.9870518 C62.7576779,91.7080677 57.0444309,91.6134462 55.9449289,90.9870518 C49.5201281,87.3308765 28.8036939,55.1482072 27.3067815,52.1013944 C25.8098692,49.0545817 23.6524987,44.7360558 21.7127576,43.1293825" id="Path" stroke="#32324D" stroke-width="1.02758964"></path>
                    <path d="M75.1398493,79.3202191 C74.8238134,79.7762948 73.7564827,81.0385458 72.3996102,82.5751992" id="Path" stroke="#32324D" stroke-width="1.02758964"></path>
                    <path d="M30.4255066,35.135757 C30.2362636,31.9186255 28.3286939,25.0737052 26.8847696,23.5919323" id="Path" stroke="#32324D" stroke-width="1.02758964"></path>
                    <path d="M27.1648493,35.135757 C26.6520007,33.0408367 24.6024987,26.4722112 22.5056859,23.2134462" id="Path" stroke="#32324D" stroke-width="1.02758964"></path>
                    <path d="M24.3697297,36.7197211 C24.2770007,35.6031873 22.5056859,30.8967131 21.2491122,29.5928287" id="Path" stroke="#32324D" stroke-width="1.02758964"></path>
                    <path d="M22.2256062,39.001992 C21.9928373,37.8381474 20.548913,34.7175299 19.4323791,33.6464143" id="Path" stroke="#32324D" stroke-width="1.02758964"></path>
                    <path d="M109,133.074873 C108.053785,131.025371 97.98716,118.016633 97.0844708,113.713247" id="Path" stroke="#32324D" stroke-width="1.00298805"></path>
                    <path d="M78.0276979,142.281375 C76.5137536,141.051295 70.5923393,133.386952 68.075407,129.92759" id="Path" stroke="#32324D" stroke-width="1.00298805"></path>
                    <path d="M59.6124588,152.559163 L52.0143512,151 C51.1362636,149.067829 50.8902477,128.262251 50.1143512,123.502789" id="Path" stroke="#32324D" stroke-width="1.00298805"></path>
                    <path d="M38.2090724,43.5305777 C36.6610644,42.8455179 33.5120604,41.2785857 32.4163433,41.0552789" id="Path" stroke="#32324D" stroke-width="1.02758964"></path>
                    <path d="M13.3520007,0.884661355 C12.6063831,0.0955179283 6.0112636,-2.72420319 11.1132556,8.6436255" id="Path" stroke="#32324D" stroke-width="1.02758964"></path>
                    <path d="M8.60200065,2.48944223 C7.84502854,1.7002988 1.2612636,-1.11942231 6.3613632,10.2484064" id="Path" stroke="#32324D" stroke-width="1.02758964"></path>
                    <path d="M3.05717993,5.13884462 C2.33427157,4.47460159 -3.27678421,2.67868526 2.78845483,13.0870518" id="Path" stroke="#32324D" stroke-width="1.02758964"></path>
                    <path d="M67.397917,74.6705179 C63.3689329,71.9454183 59.7203273,68.9345618 59.3342716,67.1159363" id="Path" stroke="#32324D" stroke-width="1.00298805"></path>
                    <path d="M87.3554867,64.8923307 C85.4971202,71.438247 80.8625584,78.0447211 78.5064827,80.6827689 C77.7362636,80.7168327 74.5796899,79.1461155 71.0408453,77.0038845" id="Path" stroke="#32324D" stroke-width="1.00298805"></path>
                    <path d="M64.195925,60.3788845 C69.4020007,53.9256972 77.5924389,46.3219124 84.634172,51.9007968 C84.9148397,52.1219874 85.1827336,52.3589218 85.4365624,52.6104582" id="Path" stroke="#32324D" stroke-width="1.00298805"></path>
                </g>
                <path d="M95.3113882,78.8194692 C94.7513882,75.6078692 92.3125882,68.9494692 92.3125882,63.1394692 C92.3125882,54.4006691 97.4798818,48.4393051 107.627082,48.4393051 C114.781082,48.4393051 117.837388,54.1430691 118.923788,56.4586691 C119.830988,58.3934691 119.290588,60.5158692 120.306988,62.5262692 C124.344588,70.5314692 129.968137,70.3246466 133.415576,81.600711 C134.257759,84.3553683 134.122265,94.2698197 133.654665,96.9158197 C132.890046,96.7677334 128.853852,92.452454 122.518324,95.7601554 C121.345124,94.7941554 120.208988,93.2310693 113.116588,93.2310693 C111.206988,93.2310693 103.100326,99.2953586 100.728726,101.087359 C100.314326,100.513359 93.1969539,98.334484 92.1497539,98.695684 C90.9653539,94.641284 94.01061,86.4932565 95.4177882,79.8946692 C95.4094919,79.5326338 95.3701476,79.1719778 95.3001882,78.8166692" id="Path" fill="#EA4C4D" fill-rule="nonzero" transform="translate(112.954513, 74.763332) rotate(17.000000) translate(-112.954513, -74.763332) "></path>
                <path d="M115.431909,75.8906594 C115.431909,75.8906594 114.846709,79.4634594 114.801909,80.5834594 C114.661909,82.4566594 115.454309,93.8246594 115.739909,95.7678595 C114.619909,97.0138595 106.525109,98.1590595 105.617909,97.4478595 C105.631909,95.8854595 104.836709,87.8186594 104.531509,86.6986594 C98.4667091,85.9146594 93.7122584,78.6234594 93.7122584,69.7446593 C93.7086351,67.9661628 93.9049347,66.1928915 94.2975091,64.4582593 C96.1231091,63.8702593 98.7775091,61.0002593 99.1807091,59.9502593 L98.7607091,58.9170593 C100.477109,64.4582593 110.865109,69.5570593 114.681509,69.9994593 L114.267109,70.6546593 C114.807509,69.5710593 115.770709,68.8514593 116.873909,68.8514593 C118.553909,68.8514593 119.937109,70.5538593 119.937109,72.6594594 C119.937109,74.7650594 118.565109,76.4674594 116.873909,76.4674594 C116.044605,76.4495658 115.266896,76.0612252 114.754309,75.4090594" id="Path" fill="#FFFFFF" fill-rule="nonzero" transform="translate(106.824684, 78.291836) rotate(17.000000) translate(-106.824684, -78.291836) "></path>
                <path d="M99.3009172,78.5501598 C96.3973172,75.4449598 94.515671,70.4861598 94.515671,64.9001598 C94.5122088,63.1216722 94.7085063,61.3484194 95.1009172,59.6137598" id="Path" stroke="#32324D" stroke-linecap="round" stroke-linejoin="round" transform="translate(96.908294, 69.081960) rotate(17.000000) translate(-96.908294, -69.081960) "></path>
                <path d="M109.269308,81.8079444 C107.365308,83.6531444 105.069308,84.7311444 102.596908,84.7311444 C101.5334,84.7296703 100.479454,84.5302753 99.4889079,84.1431444" id="Path" stroke="#32324D" stroke-linecap="round" stroke-linejoin="round" transform="translate(104.379108, 83.269544) rotate(17.000000) translate(-104.379108, -83.269544) "></path>
                <path d="M114.52407,71.9957863 C115.06447,70.9121863 116.03047,70.1897863 117.13087,70.1897863 C118.82487,70.1897863 120.19407,71.8949863 120.19407,73.9977864 C120.19407,76.1005864 118.82487,77.8057864 117.13087,77.8057864 C116.301761,77.7871066 115.524369,77.3989243 115.01127,76.7473864" id="Path" stroke="#32324D" stroke-linecap="round" stroke-linejoin="round" transform="translate(117.359070, 73.997786) rotate(17.000000) translate(-117.359070, -73.997786) "></path>
                <path d="M107.514679,65.6827711 C110.891479,67.8135711 114.609879,69.2807711 116.578279,69.5075711" id="Path" stroke="#32324D" stroke-linecap="round" stroke-linejoin="round" transform="translate(112.046479, 67.595171) rotate(17.000000) translate(-112.046479, -67.595171) "></path>
                <path d="M103.16362,55.8297874 C103.61162,57.2689874 104.64202,58.6801874 105.99442,59.9849874" id="Path" stroke="#32324D" stroke-linecap="round" stroke-linejoin="round" transform="translate(104.579020, 57.907387) rotate(17.000000) translate(-104.579020, -57.907387) "></path>
                <path d="M103.383235,55.8061318 C102.985635,56.8533319 100.325635,59.7261319 98.5000349,60.3113319" id="Path" stroke="#32324D" stroke-linecap="round" stroke-linejoin="round" transform="translate(100.941635, 58.058732) rotate(17.000000) translate(-100.941635, -58.058732) "></path>
                <path d="M119.222057,68.4241482 C122.447657,73.0441482 125.555657,73.8813482 130.422057,82.1217482 C131.841657,84.5213482 132.698457,92.8205483 132.230857,95.4637483" id="Path" stroke="#32324D" stroke-linecap="round" stroke-linejoin="round" transform="translate(125.790640, 81.943948) rotate(17.000000) translate(-125.790640, -81.943948) "></path>
                <path d="M112.227815,48.5272354 L112.675815,48.5272354 C119.829815,48.5272354 122.666215,53.2144355 123.752615,55.5272354 C124.262215,56.6108355 124.312615,57.7672355 124.441415,58.9068355" id="Path" stroke="#32324D" stroke-linecap="round" stroke-linejoin="round" transform="translate(118.334615, 53.717035) rotate(17.000000) translate(-118.334615, -53.717035) "></path>
                <path d="M93.2889329,88.8349637 C92.1017329,84.7805637 95.5625329,79.3429636 95.5625329,73.0177636 C95.5625329,70.4977636 92.4489329,62.8341636 92.4489329,56.2597635 C92.4489329,50.3097635 94.9465329,46.1209635 99.7457329,44.0517635" id="Path" stroke="#32324D" stroke-linecap="round" stroke-linejoin="round" transform="translate(96.097333, 66.443364) rotate(17.000000) translate(-96.097333, -66.443364) "></path>
                <path d="M112.123151,87.3873782 C111.938351,84.4137782 111.812351,81.6361781 111.876751,80.7905781" id="Path" stroke="#32324D" stroke-linecap="round" stroke-linejoin="round" transform="translate(111.991433, 84.088978) rotate(17.000000) translate(-111.991433, -84.088978) "></path>
                <path d="M105.226058,96.579332 C107.342858,96.218132 109.375658,95.660932 109.896458,95.0813319 C109.792858,94.3841319 109.616458,92.4801319 109.459658,90.2373319" id="Path" stroke="#32324D" stroke-linecap="round" stroke-linejoin="round" transform="translate(107.561258, 93.408332) rotate(17.000000) translate(-107.561258, -93.408332) "></path>
                <path d="M99.6476633,83.6898051 C99.9528633,84.8098051 100.750863,92.8738051 100.734063,94.4362051" id="Path" stroke="#32324D" stroke-linecap="round" stroke-linejoin="round" transform="translate(100.190994, 89.063005) rotate(17.000000) translate(-100.190994, -89.063005) "></path>
                <path d="M105.428534,66.3613827 C105.428534,67.2937827 105.067334,68.0413827 104.622134,68.0413827 C104.176934,68.0413827 103.812934,67.2853827 103.812934,66.3613827 C103.812934,65.4373827 104.174134,64.6813827 104.622134,64.6813827 C105.070134,64.6813827 105.428534,65.4373827 105.428534,66.3613827" id="Path" fill="#32324D" fill-rule="nonzero" transform="translate(104.620734, 66.361383) rotate(17.000000) translate(-104.620734, -66.361383) "></path>
                <path d="M100.071413,66.5532519 C99.9706127,67.3120519 99.3854127,70.4200519 98.1114127,71.6660519" id="Path" stroke="#32324D" stroke-linecap="round" stroke-linejoin="round" transform="translate(99.091413, 69.109652) rotate(5.000000) translate(-99.091413, -69.109652) "></path>
                <path d="M100.557009,76.9304989 C101.080609,77.0228989 103.203009,76.3284989 103.695809,74.8976989" id="Path" stroke="#32324D" stroke-linecap="round" stroke-linejoin="round" transform="translate(102.126409, 75.918173) rotate(17.000000) translate(-102.126409, -75.918173) "></path>
            </g>
        </g>
    </g>
</svg>
