<svg id="Icon_Delete" data-name="Icon/Delete" xmlns="http://www.w3.org/2000/svg" xmlns:xlink="http://www.w3.org/1999/xlink" width="18" height="18" viewBox="0 0 18 18">
  <defs>
    <clipPath id="clip-path">
      <path id="Combined_Shape" data-name="Combined Shape" d="M8.565,14.383l-.726-.7a1,1,0,0,0-1.393,0l-.726.7a.99.99,0,0,1-.692.283,1,1,0,0,1-.99-.83l-.173-1a1,1,0,0,0-.985-.829.944.944,0,0,0-.142.01l-1,.144a1.024,1.024,0,0,1-.147.011A1,1,0,0,1,.7,10.733l.446-.909A1,1,0,0,0,.712,8.5l-.9-.472a1,1,0,0,1,0-1.769l.9-.473a.994.994,0,0,0,.43-1.325L.7,3.551a1,1,0,0,1,.891-1.441,1.03,1.03,0,0,1,.148.011l1,.143a.944.944,0,0,0,.142.01,1,1,0,0,0,.985-.829l.173-1a1,1,0,0,1,.99-.83A.991.991,0,0,1,5.72-.1l.726.7a.991.991,0,0,0,.7.283.991.991,0,0,0,.7-.283l.726-.7a.991.991,0,0,1,.692-.284,1,1,0,0,1,.99.83l.173,1a1,1,0,0,0,.985.829.956.956,0,0,0,.143-.01l1-.143a1.03,1.03,0,0,1,.148-.011,1,1,0,0,1,.891,1.441l-.446.909a.994.994,0,0,0,.431,1.325l.895.473a1,1,0,0,1,0,1.769l-.895.472a1,1,0,0,0-.431,1.325l.446.909a1,1,0,0,1-.893,1.442,1.024,1.024,0,0,1-.147-.011l-1-.144a.956.956,0,0,0-.143-.01,1,1,0,0,0-.985.829l-.173,1a1,1,0,0,1-.99.83A.991.991,0,0,1,8.565,14.383ZM3.143,7.142a4,4,0,1,0,4-4A4,4,0,0,0,3.143,7.142Zm2,0a2,2,0,1,1,2,2A2,2,0,0,1,5.143,7.142Z" transform="translate(1.858 1.858)" fill="#d8d8d8"/>
    </clipPath>
  </defs>
  <g id="Group_153" data-name="Group 153">
    <path id="Combined_Shape-2" data-name="Combined Shape" d="M8.565,14.383l-.726-.7a1,1,0,0,0-1.393,0l-.726.7a.99.99,0,0,1-.692.283,1,1,0,0,1-.99-.83l-.173-1a1,1,0,0,0-.985-.829.944.944,0,0,0-.142.01l-1,.144a1.024,1.024,0,0,1-.147.011A1,1,0,0,1,.7,10.733l.446-.909A1,1,0,0,0,.712,8.5l-.9-.472a1,1,0,0,1,0-1.769l.9-.473a.994.994,0,0,0,.43-1.325L.7,3.551a1,1,0,0,1,.891-1.441,1.03,1.03,0,0,1,.148.011l1,.143a.944.944,0,0,0,.142.01,1,1,0,0,0,.985-.829l.173-1a1,1,0,0,1,.99-.83A.991.991,0,0,1,5.72-.1l.726.7a.991.991,0,0,0,.7.283.991.991,0,0,0,.7-.283l.726-.7a.991.991,0,0,1,.692-.284,1,1,0,0,1,.99.83l.173,1a1,1,0,0,0,.985.829.956.956,0,0,0,.143-.01l1-.143a1.03,1.03,0,0,1,.148-.011,1,1,0,0,1,.891,1.441l-.446.909a.994.994,0,0,0,.431,1.325l.895.473a1,1,0,0,1,0,1.769l-.895.472a1,1,0,0,0-.431,1.325l.446.909a1,1,0,0,1-.893,1.442,1.024,1.024,0,0,1-.147-.011l-1-.144a.956.956,0,0,0-.143-.01,1,1,0,0,0-.985.829l-.173,1a1,1,0,0,1-.99.83A.991.991,0,0,1,8.565,14.383ZM3.143,7.142a4,4,0,1,0,4-4A4,4,0,0,0,3.143,7.142Zm2,0a2,2,0,1,1,2,2A2,2,0,0,1,5.143,7.142Z" transform="translate(1.858 1.858)" fill="#d8d8d8"/>
    <g id="Mask_Group_156" data-name="Mask Group 156" clip-path="url(#clip-path)">
      <rect id="Color" width="18" height="18" fill="#8d91a3"/>
    </g>
  </g>
</svg>
