<?xml version="1.0" encoding="UTF-8"?>
<svg width="16px" height="16px" viewBox="0 0 16 16" version="1.1" xmlns="http://www.w3.org/2000/svg" xmlns:xlink="http://www.w3.org/1999/xlink">
    <title>F300C012-C15B-4B55-A6A5-73191F011688</title>
    <g id="Home" stroke="none" stroke-width="1" fill="none" fill-rule="evenodd">
        <g id="new-integration-stoped" transform="translate(-688.000000, -128.000000)" fill="#FFFFFF">
            <g id="Button/Primary/Square/Default" transform="translate(680.000000, 120.000000)">
                <g id="Icon/Download" transform="translate(8.000000, 8.000000)">
                    <path d="M8,0.222222222 C8.33750735,0.222222222 8.61643641,0.473025673 8.66058079,0.798426171 L8.66666667,0.888888889 L8.66715776,1.58967075 C9.35902418,1.66083007 10.0184427,1.84144261 10.6278091,2.11390403 L10.9782053,1.5082638 C11.1623002,1.18940205 11.5700271,1.08015194 11.8888889,1.26424686 C12.1811788,1.43300053 12.2973368,1.78966722 12.1728667,2.09354451 L12.1329058,2.17493046 L11.7823802,2.78172395 C12.3331492,3.1816313 12.8181476,3.66660543 13.2180824,4.21735314 L13.8250695,3.86709418 C14.1439313,3.68299926 14.5516582,3.79224936 14.7357531,4.11111111 C14.9045068,4.40340105 14.8267692,4.77036243 14.5670363,4.97129283 L14.4917362,5.02179471 L13.8856898,5.37128271 C14.158497,5.98116841 14.3392925,6.64120864 14.4104225,7.33374966 L15.1111111,7.33333333 C15.4793009,7.33333333 15.7777778,7.63181017 15.7777778,8 C15.7777778,8.33750735 15.5269743,8.61643641 15.2015738,8.66058079 L15.1111111,8.66666667 L14.4103293,8.66715776 C14.3391306,9.35940655 14.1583577,10.0191716 13.8856442,10.6288193 L14.4917362,10.9782053 C14.810598,11.1623002 14.9198481,11.5700271 14.7357531,11.8888889 C14.5669995,12.1811788 14.2103328,12.2973368 13.9064555,12.1728667 L13.8250695,12.1329058 L13.218276,11.7823802 C12.8183042,12.3332381 12.3332381,12.8183042 11.7823802,13.218276 L12.1329058,13.8250695 C12.3170007,14.1439313 12.2077506,14.5516582 11.8888889,14.7357531 C11.596599,14.9045068 11.2296376,14.8267692 11.0287072,14.5670363 L10.9782053,14.4917362 L10.6288193,13.8856442 C10.0191716,14.1583577 9.35940655,14.3391306 8.66715776,14.4103293 L8.66666667,15.1111111 C8.66666667,15.4793009 8.36818983,15.7777778 8,15.7777778 C7.66249265,15.7777778 7.38356359,15.5269743 7.33941921,15.2015738 L7.33333333,15.1111111 L7.33374966,14.4104225 C6.64120864,14.3392925 5.98116841,14.158497 5.37128271,13.8856898 L5.02179471,14.4917362 C4.8376998,14.810598 4.42997286,14.9198481 4.11111111,14.7357531 C3.81882117,14.5669995 3.70266325,14.2103328 3.82713334,13.9064555 L3.86709418,13.8250695 L4.21735314,13.2180824 C3.66660543,12.8181476 3.1816313,12.3331492 2.78172395,11.7823802 L2.17493046,12.1329058 C1.85606871,12.3170007 1.44834178,12.2077506 1.26424686,11.8888889 C1.09549319,11.596599 1.17323081,11.2296376 1.43296372,11.0287072 L1.5082638,10.9782053 L2.11390403,10.6278091 C1.84144261,10.0184427 1.66083007,9.35902418 1.58967075,8.66715776 L0.888888889,8.66666667 C0.520699056,8.66666667 0.222222222,8.36818983 0.222222222,8 C0.222222222,7.66249265 0.473025673,7.38356359 0.798426171,7.33941921 L0.888888889,7.33333333 L1.58957749,7.33374966 C1.6606684,6.64158909 1.84130435,5.98189362 2.11386068,5.37228789 L1.5082638,5.02179471 C1.18940205,4.8376998 1.08015194,4.42997286 1.26424686,4.11111111 C1.43300053,3.81882117 1.78966722,3.70266325 2.09354451,3.82713334 L2.17493046,3.86709418 L2.78191756,4.21735314 C3.18178782,3.6666943 3.6666943,3.18178782 4.21735314,2.78191756 L3.86709418,2.17493046 C3.68299926,1.85606871 3.79224936,1.44834178 4.11111111,1.26424686 C4.40340105,1.09549319 4.77036243,1.17323081 4.97129283,1.43296372 L5.02179471,1.5082638 L5.37228789,2.11386068 C5.98189362,1.84130435 6.64158909,1.6606684 7.33374966,1.58957749 L7.33333333,0.888888889 C7.33333333,0.520699056 7.63181017,0.222222222 8,0.222222222 Z M8,2.88888889 C5.17721128,2.88888889 2.88888889,5.17721128 2.88888889,8 C2.88888889,10.8227887 5.17721128,13.1111111 8,13.1111111 C10.8227887,13.1111111 13.1111111,10.8227887 13.1111111,8 C13.1111111,5.17721128 10.8227887,2.88888889 8,2.88888889 Z M8,5.55555556 C9.35002939,5.55555556 10.4444444,6.64997061 10.4444444,8 C10.4444444,9.35002939 9.35002939,10.4444444 8,10.4444444 C6.64997061,10.4444444 5.55555556,9.35002939 5.55555556,8 C5.55555556,6.64997061 6.64997061,5.55555556 8,5.55555556 Z M8,6.88888889 C7.38635028,6.88888889 6.88888889,7.38635028 6.88888889,8 C6.88888889,8.61364972 7.38635028,9.11111111 8,9.11111111 C8.61364972,9.11111111 9.11111111,8.61364972 9.11111111,8 C9.11111111,7.38635028 8.61364972,6.88888889 8,6.88888889 Z" id="Combined-Shape"></path>
                </g>
            </g>
        </g>
    </g>
</svg>