<?xml version="1.0" encoding="UTF-8"?>
<svg width="370px" height="399px" viewBox="0 0 370 399" version="1.1" xmlns="http://www.w3.org/2000/svg" xmlns:xlink="http://www.w3.org/1999/xlink">
    <title>4E2031C4-6D34-4ABA-AEF5-41C81301CD3D</title>
    <g id="First-screen" stroke="none" stroke-width="1" fill="none" fill-rule="evenodd">
        <g id="confirmation" transform="translate(-778.000000, -168.000000)">
            <g id="Group-2" transform="translate(779.000000, 168.000000)">
                <g id="drawkit-grape-pack-illustration-12" transform="translate(0.000000, 8.000000)">
                    <path d="M68.409375,269.246484 C68.1105469,272.160938 62.4539063,314.204297 61.2832031,324.392578 C60.1125,334.580859 52.5152344,361.148438 50.3460938,364.832812 C52.6136719,366.239062 59.3355469,369.99375 59.3355469,369.99375 C59.3355469,369.99375 79.8246094,338.423438 80.6613281,335.417578 C81.4980469,332.411719 85.059375,317.878125 85.059375,317.878125 L80.1585937,266.433984 L68.409375,269.246484 Z" id="Path" fill="#5567D5" fill-rule="nonzero"></path>
                    <path d="M289.772042,50.8214213 C321.361152,76.5005442 345.724239,109.877295 344.649161,141.823467 C343.574083,173.76964 317.135721,204.514332 294.307695,232.530234 C271.479669,260.546137 252.192448,285.711066 223.529048,302.755813 C194.865649,319.80056 156.895603,328.450209 125.926936,317.967791 C94.9582699,307.485374 70.9749364,277.957437 55.7580355,246.647642 C40.5411345,215.337848 33.8553257,182.200375 45.8469924,158.282747 C57.8386592,134.365118 88.4971042,119.590968 114.09038,92.9598233 C139.683657,66.3286791 160.275948,27.6369001 189.923499,17.3886696 C219.57105,7.14043921 258.263162,25.1473895 289.772042,50.8214213 Z" id="Path" fill="#FFFFFF" fill-rule="nonzero" opacity="0.148321243"></path>
                    <path d="M65.4971408,10.7714297 C52.2108609,21.1693879 57.1557812,63.277854 84.396842,68.5903789 C116.298959,74.8112704 118.45491,42.2406528 142.641588,45.161619 C163.674531,47.7036259 169.987679,70.446853 156.963973,84.7082076" id="Path" stroke="#CED3F3" stroke-width="0.851593625" stroke-linecap="round" stroke-linejoin="round" stroke-dasharray="5.109562039375305" transform="translate(111.075709, 47.739819) rotate(12.000000) translate(-111.075709, -47.739819) "></path>
                    <path d="M149.688846,120.844032 L142.480303,99.0940322 L164.230303,106.71641 L156.628748,109.785313 L165.730303,118.593119 L162.091796,122.344032 L152.943386,113.365865 L149.688846,120.844032 Z" id="Combined-Shape" fill="#CED3F3" fill-rule="nonzero" transform="translate(154.105303, 110.719032) rotate(12.000000) translate(-154.105303, -110.719032) "></path>
                    <path d="M65.8289063,215.953125 C64.4507813,214.0125 61.3253906,205.652344 61.3253906,204 C61.3253906,202.347656 70.8175781,169.265625 71.4152344,166.453125 C72.0128906,163.640625 71.9953125,155.684766 71.4152344,153.065625 C71.6683594,152.088281 72.3398438,151.771875 72.515625,152.3625 C72.9761719,152.735156 75.5953125,154.306641 75.5953125,154.306641 C75.5953125,154.306641 81.7195313,162.744141 80.3519531,164.649609 C79.2317473,166.160469 78.2515238,167.770248 77.4234375,169.458984 C77.0929688,171.585937 72.2589844,198.990234 72.5015625,200.748047 C72.7441406,202.505859 77.6132813,211.36875 77.7398438,211.998047 C76.6886719,212.557031 66.4476563,216.603516 65.8289063,215.953125 Z" id="Path" fill="#FFFFFF" fill-rule="nonzero"></path>
                    <path d="M65.3261719,182.167969 C67.5796875,174.057422 69.7417969,166.347656 70.0089844,165.046875 C70.5890625,162.234375 70.5890625,154.278516 70.0089844,151.659375 C70.2621094,150.682031 70.9335938,150.365625 71.109375,150.95625" id="Path" stroke="#40404B" stroke-linecap="round" stroke-linejoin="round"></path>
                    <path d="M64.4226563,214.546875 C63.0445313,212.60625 59.9191406,204.246094 59.9191406,202.59375 C59.9191406,201.971484 61.2832031,196.835156 63.009375,190.542187" id="Path" stroke="#40404B" stroke-linecap="round" stroke-linejoin="round"></path>
                    <rect id="Rectangle" fill="#EDEFFF" fill-rule="nonzero" transform="translate(178.737105, 131.533914) rotate(-14.420000) translate(-178.737105, -131.533914) " x="70.455855" y="54.7157496" width="216.5625" height="153.636328"></rect>
                    <rect id="Rectangle" fill="#CCD1F2" fill-rule="nonzero" transform="translate(95.624806, 152.901429) rotate(-14.420000) translate(-95.624806, -152.901429) " x="73.1599627" y="76.0832653" width="44.9296875" height="153.636328"></rect>
                    <circle id="Oval" fill="#EAF0FF" fill-rule="nonzero" cx="82.0359375" cy="100.067578" r="13.9183594"></circle>
                    <rect id="Rectangle" fill="#EAF0FF" fill-rule="nonzero" transform="translate(88.009426, 122.609882) rotate(-14.420000) translate(-88.009426, -122.609882) " x="71.1256366" y="120.987421" width="33.7675781" height="3.24492188"></rect>
                    <rect id="Rectangle" fill="#EAF0FF" fill-rule="nonzero" transform="translate(89.956042, 130.176248) rotate(-14.420000) translate(-89.956042, -130.176248) " x="73.0722528" y="128.553788" width="33.7675781" height="3.24492188"></rect>
                    <circle id="Oval" fill="#CCD1F2" fill-rule="nonzero" cx="141.75" cy="134.25" r="1.5"></circle>
                    <circle id="Oval-Copy" fill="#CCD1F2" fill-rule="nonzero" cx="143.25" cy="140.203066" r="1.5"></circle>
                    <rect id="Rectangle" fill="#CCD1F2" fill-rule="nonzero" transform="translate(206.486659, 117.338526) rotate(-14.420000) translate(-206.486659, -117.338526) " x="144.986659" y="116.588526" width="123" height="1.5"></rect>
                    <polygon id="Rectangle-Copy" fill="#CCD1F2" fill-rule="nonzero" transform="translate(176.119599, 131.193706) rotate(-14.420000) translate(-176.119599, -131.193706) " points="147.450576 130.726328 204.788621 130.161084 204.788621 131.661084 147.450576 132.226328"></polygon>
                    <rect id="Rectangle" fill="#FFFFFF" fill-rule="nonzero" transform="translate(195.147462, 87.375562) rotate(-14.420000) translate(-195.147462, -87.375562) " x="129.897462" y="61.9874761" width="130.5" height="50.7761719"></rect>
                    <rect id="Rectangle" fill="#FFFFFF" fill-rule="nonzero" transform="translate(187.260891, 163.565215) rotate(-14.420000) translate(-187.260891, -163.565215) " x="148.620657" y="138.177129" width="77.2804688" height="50.7761719"></rect>
                    <path d="M242.12132,285.62132 L255.87868,299.37868 C257.050253,300.550253 257.050253,302.449747 255.87868,303.62132 L242.12132,317.37868 C240.949747,318.550253 239.050253,318.550253 237.87868,317.37868 L224.12132,303.62132 C222.949747,302.449747 222.949747,300.550253 224.12132,299.37868 L237.87868,285.62132 C239.050253,284.449747 240.949747,284.449747 242.12132,285.62132 Z" id="Polygon" stroke="#CED3F3" stroke-width="0.5625"></path>
                    <path d="M331.74632,45.6213203 L348.87868,62.7536797 C350.050253,63.9252525 350.050253,65.8247475 348.87868,66.9963203 L331.74632,84.1286797 C330.574747,85.3002525 328.675253,85.3002525 327.50368,84.1286797 L310.37132,66.9963203 C309.199747,65.8247475 309.199747,63.9252525 310.37132,62.7536797 L327.50368,45.6213203 C328.675253,44.4497475 330.574747,44.4497475 331.74632,45.6213203 Z" id="Polygon-Copy" fill="#EDEFFF" fill-rule="nonzero"></path>
                    <polyline id="Path" fill="#FFFFFF" fill-rule="nonzero" points="48.6269531 367.553906 45.1640625 373.653516 40.8292969 376.993359 52.6769531 390.764063 62.3976563 390.764063 56.0660156 380.990625 57.1347656 372.394922"></polyline>
                    <polyline id="Path" fill="#FFFFFF" fill-rule="nonzero" points="93.1347656 377.271094 94.8363281 383.4375 93.6375 390.764063 119.79375 390.764063 104.4375 381.697266 104.810156 377.271094"></polyline>
                    <path d="M60.9035156,311.578125 C60.2917969,316.352344 59.7925781,320.317969 59.5253906,322.634766 C58.3582031,332.830078 50.7574219,359.401172 48.5882813,363.064453 C50.8558594,364.470703 57.5777344,368.225391 57.5777344,368.225391 C57.5777344,368.225391 78.0667969,336.655078 78.9035156,333.649219 C79.7402344,330.643359 83.3015625,316.109766 83.3015625,316.109766 L78.4007812,264.676172 L66.6515625,267.488672 C66.5039062,268.947656 65.0132813,280.187109 63.4171875,292.333594" id="Path" stroke="#40404B" stroke-linecap="round" stroke-linejoin="round"></path>
                    <line x1="88.74375" y1="373.020703" x2="106.079297" y2="373.020703" id="Path" stroke="#40404B" stroke-linecap="round" stroke-linejoin="round"></line>
                    <line x1="88.74375" y1="375.864844" x2="106.079297" y2="375.864844" id="Path" stroke="#40404B" stroke-linecap="round" stroke-linejoin="round"></line>
                    <polyline id="Path" stroke="#40404B" stroke-linecap="round" stroke-linejoin="round" points="115.195312 389.357813 118.3875 389.357813 103.03125 380.291016 103.403906 375.864844"></polyline>
                    <polyline id="Path" stroke="#40404B" stroke-linecap="round" stroke-linejoin="round" points="91.7285156 375.864844 93.4300781 382.03125 92.23125 389.357813 107.569922 389.357813"></polyline>
                    <line x1="46.3628906" y1="361.89375" x2="58.6078125" y2="368.858203" id="Path" stroke="#40404B" stroke-linecap="round" stroke-linejoin="round"></line>
                    <line x1="45.1464844" y1="364.966406" x2="57.3949219" y2="371.934375" id="Path" stroke="#40404B" stroke-linecap="round" stroke-linejoin="round"></line>
                    <polyline id="Path" stroke="#40404B" stroke-linecap="round" stroke-linejoin="round" points="55.4964844 380.878125 54.6597656 379.584375 55.7285156 370.988672"></polyline>
                    <polyline id="Path" stroke="#40404B" stroke-linecap="round" stroke-linejoin="round" points="44.8898438 370.250391 43.7578125 372.247266 39.4230469 375.587109 51.2707031 389.357812 60.9914063 389.357812 58.48125 385.483594"></polyline>
                    <line x1="0.375" y1="389.625" x2="60.9914062" y2="389.357812" id="Path" stroke="#40404B" stroke-linecap="round" stroke-linejoin="round"></line>
                    <line x1="272.625" y1="284.625" x2="332.625" y2="284.625" id="Path-Copy" stroke="#40404B" stroke-linecap="round" stroke-linejoin="round"></line>
                    <path d="M73.5914062,271.795313 C73.5914062,273.553125 75.0539062,294.45 80.0601562,310.994531 C83.3683594,326.79375 92.9625,374.778516 92.9625,374.778516 L105.161719,374.778516 L100.770703,267.587109 L73.5914062,271.795313 Z" id="Path" fill="#5567D5" fill-rule="nonzero"></path>
                    <path d="M85.059375,342.406641 C88.2515625,358.255078 91.2046875,373.020703 91.2046875,373.020703 L103.403906,373.020703 L99.0128906,265.829297 L71.8335937,270.048047 C71.8335937,271.805859 73.2960937,292.702734 78.3023437,309.247266 C79.0546875,312.836719 80.1304687,318.085547 81.3433594,324.058594" id="Path" stroke="#40404B" stroke-linecap="round" stroke-linejoin="round"></path>
                    <path d="M115.367578,224.524219 C118.180078,226.014844 127.130859,230.061328 128.210156,230.061328 C129.289453,230.061328 144.733594,224.963672 145.549219,223.40625 C146.364844,221.848828 147.208594,217.700391 148.621875,217.285547 C150.035156,216.870703 149.237109,220.519922 149.237109,220.519922 C150.073828,220.245703 163.282031,216.803906 163.222266,216.874219 C163.573828,218.765625 156.426562,224.126953 155.68125,224.320313 C152.007422,228.440625 129.13125,241.265625 128.136328,241.265625 C127.141406,241.265625 111.686719,237.046875 110.712891,236.695313 C110.90625,235.257422 114.031641,225.540234 115.367578,224.524219 Z" id="Path" fill="#FFFFFF" fill-rule="nonzero"></path>
                    <path d="M77.2617188,166.308984 C78.1441406,165.127734 79.1214844,163.848047 79.0757813,162.023438" id="Path" stroke="#40404B" stroke-linecap="round" stroke-linejoin="round"></path>
                    <path d="M76.0945313,209.976562 C75.3914063,207.839063 71.2183594,200.892188 71.109375,199.078125 C71.0039063,197.320312 75.159375,172.753125 75.9117188,168.966797" id="Path" stroke="#40404B" stroke-linecap="round" stroke-linejoin="round"></path>
                    <path d="M77.9859375,235.310156 C73.1238281,237.419531 62.165625,219.939844 64.5492187,217.158984 C67.8820312,213.326953 77.26875,210.377344 80.4855469,211.618359 C82.1097656,213.84375 86.2546875,231.741797 77.9859375,235.310156 Z" id="Path" fill="#A6B3FF" fill-rule="nonzero"></path>
                    <path d="M76.5796875,233.903906 C71.7175781,236.013281 60.759375,218.533594 63.1429688,215.752734 C66.4757813,211.920703 75.8625,208.971094 79.0792969,210.212109 C80.7035156,212.4375 84.8484375,230.335547 76.5796875,233.903906 Z" id="Path" stroke="#40404B" stroke-linecap="round" stroke-linejoin="round"></path>
                    <path d="M122.103516,239.019141 C124.2375,239.514844 125.970703,239.855859 126.554297,239.855859 C128.378906,239.855859 149.785547,227.494922 154.099219,223.016016 C158.251172,220.607812 160.863281,217.918359 161.816016,215.847656" id="Path" stroke="#40404B" stroke-linecap="round" stroke-linejoin="round"></path>
                    <path d="M109.841016,235.696875 C110.600391,235.985156 112.361719,236.505469 114.478125,237.082031" id="Path" stroke="#40404B" stroke-linecap="round" stroke-linejoin="round"></path>
                    <path d="M136.324219,225.638672 C140.152734,224.232422 143.75625,222.73125 144.142969,222 C144.972656,220.442578 145.802344,216.294141 147.215625,215.879297 C148.628906,215.464453 147.830859,219.113672 147.830859,219.113672" id="Path" stroke="#40404B" stroke-linecap="round" stroke-linejoin="round"></path>
                    <path d="M113.961328,223.117969 C116.773828,224.608594 125.724609,228.655078 126.803906,228.655078 C127.460214,228.546178 128.106794,228.38512 128.7375,228.173437" id="Path" stroke="#40404B" stroke-linecap="round" stroke-linejoin="round"></path>
                    <path d="M87.9140625,214.395703 C104.117578,214.395703 105.362109,246.553125 100.876172,271.478906 C96.5132812,273.236719 71.8371094,273.971484 67.7238281,269.98125 C66.2296875,264.500391 60.9105469,214.399219 87.9140625,214.395703 Z" id="Path" fill="#A6B3FF" fill-rule="nonzero"></path>
                    <path d="M66.2929688,235.313672 C68.5851562,223.437891 74.1785156,212.989453 86.5078125,212.989453 C97.603125,212.989453 101.684766,228.071484 101.716406,245.582813" id="Path" stroke="#40404B" stroke-linecap="round" stroke-linejoin="round"></path>
                    <path d="M67.2773437,269.246484 C66.9280584,269.067868 66.6050906,268.841909 66.3175781,268.575 C65.7972656,266.673047 64.8199219,259.402734 64.8902344,250.715625" id="Path" stroke="#40404B" stroke-linecap="round" stroke-linejoin="round"></path>
                    <path d="M101.220703,256.857422 C100.8375,261.343359 100.236328,265.811719 99.4628906,270.072656 C97.0019531,271.05 88.1882812,271.714453 80.1761719,271.408594" id="Path" stroke="#40404B" stroke-linecap="round" stroke-linejoin="round"></path>
                    <path d="M90.6351562,221.370703 C92.1503906,215.893359 114.460547,218.385937 115.209375,222.249609 C116.207812,227.607422 112.344141,237.454687 109.102734,239.321484 C106.110937,239.198437 88.0546875,230.694141 90.6351562,221.370703 Z" id="Path" fill="#A6B3FF" fill-rule="nonzero"></path>
                    <path d="M112.523437,219.419531 C113.258203,219.858984 113.71875,220.340625 113.817187,220.843359 C114.815625,226.201172 110.951953,236.048438 107.710547,237.915234 C106.754297,237.876563 100.858594,235.260938 97.996875,233.759766" id="Path" stroke="#40404B" stroke-linecap="round" stroke-linejoin="round"></path>
                    <path d="M88.9933594,222.249609 C88.9434527,221.480077 89.0230746,220.707625 89.2289063,219.964453 C90.1851563,216.512109 99.3890625,216.223828 106.258594,217.450781" id="Path" stroke="#40404B" stroke-linecap="round" stroke-linejoin="round"></path>
                    <path d="M89.109375,218.027344 C89.109375,219.458203 80.0390625,219.641016 80.0390625,218.027344 L80.0390625,205.160156 L89.109375,205.160156 L89.109375,218.027344 Z" id="Path" fill="#FFFFFF" fill-rule="nonzero"></path>
                    <path d="M83.9730469,217.739062 C81.4734375,217.865625 78.6328125,217.524609 78.6328125,216.621094 L78.6328125,203.753906 L87.703125,203.753906 L87.703125,209.530078" id="Path" stroke="#40404B" stroke-linecap="round" stroke-linejoin="round"></path>
                    <ellipse id="Oval" fill="#FFFFFF" fill-rule="nonzero" cx="86.6765625" cy="195.769922" rx="9.27421875" ry="12.1957031"></ellipse>
                    <path d="M91.6546875,203.627344 C90.0339844,205.455469 87.9246094,206.559375 85.621875,206.559375 C80.4996094,206.559375 76.3441406,201.099609 76.3441406,194.363672 C76.3441406,187.627734 80.4996094,182.167969 85.621875,182.167969 C90.7441406,182.167969 94.8960937,187.627734 94.8960937,194.363672 C94.9139295,196.562948 94.4507743,198.739537 93.5390625,200.741016" id="Path" stroke="#40404B" stroke-linecap="round" stroke-linejoin="round"></path>
                    <path d="M75.7957031,197.098828 C75.7957031,187.385156 79.0195312,178.086328 82.2679687,178.086328 C85.5164062,178.086328 83.7269531,182.695312 83.7269531,182.695312 C85.0769531,179.995313 89.25,175.822266 91.0746094,175.822266 C92.8992187,175.822266 93.3421875,178.634766 91.471875,181.503516 C93.1136028,179.674364 95.4158381,178.573845 97.8703125,178.444922 C99.9796875,178.444922 100.253906,180.948047 100.253906,183.4125 C100.253906,187.768359 91.1132812,194.455078 90.0832031,195.608203 C90.0023437,197.039062 88.8105469,208.679297 85.9101562,208.679297 C83.0097656,208.679297 75.7957031,207.965625 75.7957031,197.098828 Z" id="Path" fill="#FF9D52" fill-rule="nonzero"></path>
                    <path d="M87.6398438,203.964844 C87.0210938,205.863281 86.2160156,207.273047 85.2070313,207.273047 C83.5757813,207.273047 80.5804688,207.048047 78.2707031,204.917578" id="Path" stroke="#40404B" stroke-linecap="round" stroke-linejoin="round"></path>
                    <path d="M98.8125,184.432031 C97.1214844,187.596094 92.90625,191.136328 90.6878906,193.024219" id="Path" stroke="#40404B" stroke-linecap="round" stroke-linejoin="round"></path>
                    <path d="M94.7625,177.485156 C95.5354175,177.210135 96.3470614,177.059435 97.1671875,177.038672 C98.925,177.038672 99.4066406,178.778906 99.5191406,180.782812" id="Path" stroke="#40404B" stroke-linecap="round" stroke-linejoin="round"></path>
                    <path d="M75.1066406,194.507812 C75.3527344,185.233594 78.45,176.673047 81.5648438,176.673047 C84.8097656,176.673047 83.0238281,181.282031 83.0238281,181.282031 C84.3738281,178.582031 88.546875,174.408984 90.3714844,174.408984 C92.1960938,174.408984 92.6390625,177.221484 90.76875,180.090234" id="Path" stroke="#40404B" stroke-linecap="round" stroke-linejoin="round"></path>
                    <circle id="Oval" fill="#FFFFFF" fill-rule="nonzero" cx="90.5050781" cy="197.112891" r="2.94960938"></circle>
                    <path d="M86.859375,196.722656 C86.8540368,196.618428 86.8540368,196.513994 86.859375,196.409766 C86.8542944,195.369046 87.3986822,194.402863 88.2914841,193.868048 C89.184286,193.333233 90.2930186,193.309148 91.2082031,193.804688" id="Path" stroke="#40404B" stroke-linecap="round" stroke-linejoin="round"></path>
                    <path d="M90.6386719,199.239844 C90.36732,199.321719 90.0853881,199.36318 89.8019531,199.362895 C89.0435531,199.364166 88.3140889,199.071876 87.7664062,198.547266" id="Path" stroke="#40404B" stroke-linecap="round" stroke-linejoin="round"></path>
                    <rect id="Rectangle" stroke="#CCD1F2" stroke-width="0.703125" stroke-linecap="round" stroke-linejoin="round" transform="translate(29.634375, 116.152734) rotate(-270.000000) translate(-29.634375, -116.152734) " x="25.5" y="108" width="8.26875" height="16.3054687" rx="1.5"></rect>
                    <rect id="Rectangle" fill="#EDEFFF" fill-rule="nonzero" transform="translate(174.576174, 294.173263) rotate(46.980000) translate(-174.576174, -294.173263) " x="155.451174" y="258.548263" width="38.25" height="71.25" rx="3"></rect>
                    <circle id="Oval" stroke="#CCD1F2" stroke-width="0.703125" stroke-linecap="round" stroke-linejoin="round" cx="164.128125" cy="252.935156" r="10.5"></circle>
                    <line x1="87.703125" y1="212.483203" x2="87.703125" y2="216.621094" id="Path" stroke="#40404B" stroke-linecap="round" stroke-linejoin="round"></line>
                </g>
                <g id="Group" transform="translate(270.000000, 70.000000)">
                    <polygon id="Path" fill="#FFFFFF" fill-rule="nonzero" points="88.2247967 178.351172 93.0482342 185.888672 98.8490154 190.782422 82.6595623 209.017969 86.0802654 192.575391 79.7204998 186.672656"></polygon>
                    <path d="M26.0228436,201.266016 C26.1704998,202.450781 26.2970623,205.407422 26.4587811,207.421875 C27.3271404,209.088281 27.8263592,210.610547 28.5013592,211.872656 C27.0951092,213.535547 16.1755779,223.519922 15.3915936,223.825781 C14.6076092,224.131641 4.32792169,223.825781 4.32792169,223.825781 C4.32792169,223.041797 9.95292169,219.406641 12.5615154,216.95625 C13.5423748,215.732813 15.1701092,202.566797 15.1701092,199.923047 L26.0228436,201.266016 Z" id="Path" fill="#FFFFFF" fill-rule="nonzero"></path>
                    <path d="M62.2372967,101.879297 C62.6099529,104.593359 64.1146404,140.361328 64.1146404,146.105859 C66.2802654,148.739063 86.5197186,174.909375 86.5197186,178.013672 C84.1290936,180.713672 80.8736248,183.638672 78.8943279,185.449219 C77.6427654,186.598828 46.7017498,153.457031 46.1357342,151.751953 C45.5697186,150.046875 41.2419842,139.907813 41.2419842,137.538281 C41.2419842,135.16875 50.8431561,103.746094 50.8431561,103.746094 L62.2372967,101.879297 Z" id="Path" fill="#5567D5" fill-rule="nonzero"></path>
                    <path d="M61.8611248,137.851172 C61.9525311,140.702344 62.0052654,142.896094 62.0052654,143.996484 C64.1708904,146.629687 84.4103436,172.8 84.4103436,175.904297 C82.4345623,177.911719 78.3177654,181.638281 76.7849529,183.339844 C75.0904217,183.248437 44.5923748,151.347656 44.0263592,149.642578 C43.4603436,147.9375 39.1326092,137.798437 39.1326092,135.428906 C39.1326092,133.059375 48.7337811,101.636719 48.7337811,101.636719 L60.1279217,99.7699219 C60.3529217,101.411719 60.9962811,115.178906 61.4673748,127.054687" id="Path" stroke="#40404B" stroke-linecap="round" stroke-linejoin="round"></path>
                    <path d="M26.4763592,103.791797 C25.9244061,106.846875 15.0083904,199.156641 15.0083904,202.081641 C16.2845623,203.726953 23.6533123,203.9625 24.9329998,203.178516 C26.2126873,202.394531 37.6595623,148.334766 38.6122967,145.170703 C42.1841717,142.790625 56.8267498,109.606641 56.8232348,104.572266" id="Path" fill="#5567D5" fill-rule="nonzero"></path>
                    <path d="M45.0072186,45.5027344 C63.2884686,45.5027344 62.6591717,98.2371094 61.6185467,102.076172 C60.5779217,105.915234 25.9841717,106.425 25.9103436,103.440234 C25.1896404,75.3503906 23.2595623,45.5027344 45.0072186,45.5027344 Z" id="Path" fill="#A6B3FF" fill-rule="nonzero"></path>
                    <path d="M31.3349529,169.400391 C34.0068279,157.018359 36.5380779,144.924609 36.9915936,143.416406 C40.5599529,141.036328 55.2060467,107.852344 55.2025317,102.817969" id="Path" stroke="#40404B" stroke-linecap="round" stroke-linejoin="round"></path>
                    <path d="M20.4540936,137.844141 C17.3533123,163.771875 13.7744061,194.530078 13.7744061,196.238672 C16.0349529,196.811719 22.9958904,197.388281 24.5814373,197.585156 C25.0701092,197.286328 26.8525311,189.798047 28.9267498,180.474609" id="Path" stroke="#40404B" stroke-linecap="round" stroke-linejoin="round"></path>
                    <path d="M24.8556561,102.033984 C24.7255779,102.737109 24.0681561,107.985937 23.1259686,115.674609" id="Path" stroke="#40404B" stroke-linecap="round" stroke-linejoin="round"></path>
                    <path d="M21.1009686,216.217969 C17.8384686,219.216797 14.4212811,222.247266 13.9853436,222.408984 C13.2013592,222.704297 2.92167169,222.408984 2.92167169,222.408984 C2.92167169,221.625 8.54667169,217.989844 11.1552654,215.539453 C11.5630779,215.029687 12.0833904,212.463281 12.5615154,209.450391" id="Path" stroke="#40404B" stroke-linecap="round" stroke-linejoin="round"></path>
                    <path d="M13.3314373,203.610938 C13.5951092,201.315234 13.7638592,199.360547 13.7638592,198.50625 L24.6165936,199.859766 C24.7642498,201.044531 24.8908123,204.001172 25.0525311,206.015625 C25.9208904,207.682031 26.4201092,209.204297 27.0951092,210.466406 C26.7189373,210.905859 25.6888592,211.921875 24.3494061,213.191016" id="Path" stroke="#40404B" stroke-linecap="round" stroke-linejoin="round"></path>
                    <path d="M48.8919842,103.573828 C38.4892498,104.407031 24.9013592,103.900781 24.8556561,102.033984 C24.6341717,93.4207031 24.3001873,84.6386719 24.5708904,76.6089844" id="Path" stroke="#40404B" stroke-linecap="round" stroke-linejoin="round"></path>
                    <path d="M25.1896404,67.7214844 C26.7646404,53.9789063 31.4404217,44.0964844 43.9525311,44.0964844 C62.2337811,44.0964844 61.6044842,96.8308594 60.5638592,100.669922 C60.3740154,101.373047 59.1083904,101.942578 57.1572186,102.427734" id="Path" stroke="#40404B" stroke-linecap="round" stroke-linejoin="round"></path>
                    <path d="M48.8919842,49.2960937 C48.8919842,51.0292969 40.8728436,50.8746094 41.0134686,48.5613281 L41.7482342,36.3726562 L48.8919842,36.3726562 L48.8919842,49.2960937 Z" id="Path" fill="#FFFFFF" fill-rule="nonzero"></path>
                    <path d="M47.8372967,48.2414062 C47.8372967,49.9746094 39.8181561,49.8199219 39.9587811,47.5066406 L40.6935467,35.3179687 L47.8372967,35.3179687 L47.8372967,48.2414062 Z" id="Path" stroke="#54546B" stroke-width="0.75" stroke-linecap="round" stroke-linejoin="round"></path>
                    <ellipse id="Oval" fill="#FFFFFF" fill-rule="nonzero" transform="translate(49.348558, 26.154633) rotate(-77.905243) translate(-49.348558, -26.154633) " cx="49.3485584" cy="26.1546328" rx="13.4316822" ry="8.99908611"></ellipse>
                    <path d="M37.4802654,27.8859375 C37.434331,26.3362386 37.573598,24.7865982 37.8951092,23.2699219 C38.450729,20.4586008 39.6732809,17.8217951 41.4599529,15.58125" id="Path" stroke="#40404B" stroke-linecap="round" stroke-linejoin="round"></path>
                    <path d="M46.2939373,38.2640625 C45.5102623,38.403611 44.7071046,38.391677 43.9279217,38.2289063 C41.2947186,37.6769531 39.2943279,35.4515625 38.2607342,32.3753906" id="Path" stroke="#40404B" stroke-linecap="round" stroke-linejoin="round"></path>
                    <path d="M50.9451092,11.7984375 C58.6794842,11.7984375 62.5466717,19.9476562 64.3044842,28.6734375 C65.7107342,35.7046875 69.2263592,41.68125 69.2263592,47.6578125 C69.2263592,56.6121094 63.3658123,64.5328125 57.2732342,64.5328125 C47.8337811,64.5328125 44.2654217,55.3183594 44.2654217,51.1734375 C44.2654217,45.3128906 46.0232342,41.4914062 46.0232342,34.2984375 C46.0232342,28.603125 42.5076092,24.3667969 42.5076092,16.0171875 C42.5076092,13.89375 45.8966717,11.7984375 50.9451092,11.7984375 Z" id="Path" fill="#FF7B7C" fill-rule="nonzero"></path>
                    <path d="M43.3443279,51.665625 C43.2589298,51.1578936 43.2142563,50.6441479 43.2107342,50.1292969 C43.2107342,44.26875 44.9685467,40.4472656 44.9685467,33.2542969 C44.9685467,27.5589844 41.4529217,23.3226562 41.4529217,14.9730469 C41.4529217,12.8636719 44.8349529,10.7542969 49.8904217,10.7542969 C54.1091717,10.7542969 57.2064373,13.2152344 59.4142498,16.846875" id="Path" stroke="#40404B" stroke-linecap="round" stroke-linejoin="round"></path>
                    <path d="M63.6119061,59.5054688 C61.5025311,61.9664063 58.8833904,63.478125 56.2290936,63.478125 C52.7034903,63.5490461 49.3272788,62.0559446 47.0076092,59.4" id="Path" stroke="#40404B" stroke-linecap="round" stroke-linejoin="round"></path>
                    <path d="M63.7208904,29.6683594 C65.3134686,35.8277344 68.1716717,41.2171875 68.1716717,46.603125 C68.1700232,49.6287147 67.5114962,52.6178755 66.2415936,55.3640625" id="Path" stroke="#40404B" stroke-linecap="round" stroke-linejoin="round"></path>
                    <line x1="12.0130779" y1="196.017188" x2="27.0951092" y2="197.898047" id="Path" stroke="#40404B" stroke-linecap="round" stroke-linejoin="round"></line>
                    <line x1="11.5314373" y1="198.228516" x2="26.6099529" y2="200.109375" id="Path" stroke="#40404B" stroke-linecap="round" stroke-linejoin="round"></line>
                    <line x1="75.4138592" y1="184.735547" x2="86.7412029" y2="173.601563" id="Path" stroke="#40404B" stroke-linecap="round" stroke-linejoin="round"></line>
                    <line x1="76.4650311" y1="186.739453" x2="87.7923748" y2="175.608984" id="Path" stroke="#40404B" stroke-linecap="round" stroke-linejoin="round"></line>
                    <polyline id="Path" stroke="#40404B" stroke-linecap="round" stroke-linejoin="round" points="84.2486248 203.839453 80.9017498 207.611719 84.3224529 191.169141 77.9626873 185.266406 86.4669842 176.944922 91.2904217 184.482422 97.0912029 189.376172 89.1177654 198.355078"></polyline>
                    <path d="M23.2419842,44.5183594 C20.7562845,43.8639126 18.3061307,43.0812246 15.9013592,42.1734375 C15.1982342,40.6089844 6.17714044,7.4671875 4.65135919,1.07226563 C3.68104669,1.153125 2.44003106,2.72460938 3.33299981,6.05039063 C1.62792169,7.43203125 -1.15293769,10.2128906 3.16424981,14.6039063 C3.35409356,15.80625 8.75057794,48.3539063 9.27440606,49.0570313 C10.9759686,51.3597656 17.6134686,54.5871094 19.0689373,55.1671875 C19.5294842,53.9050781 18.8263592,51.8273438 23.2419842,44.5183594 Z" id="Path" fill="#FFFFFF" fill-rule="nonzero"></path>
                    <path d="M41.7974529,59.4 C43.2740154,55.18125 29.5208904,43.3511719 25.5236248,43.03125 C23.1822186,44.2335938 17.5642498,53.5429687 18.8439373,58.1167969 C23.2595623,60.9117188 39.3540936,66.3714844 41.7974529,59.4 Z" id="Path" fill="#A6B3FF" fill-rule="nonzero"></path>
                    <path d="M7.61503106,13.9675781 C5.93104669,7.70976562 4.48964044,2.22890625 3.96229669,0 C2.99198419,0.080859375 1.69471856,1.0546875 2.58417169,4.38046875" id="Path" stroke="#40404B" stroke-linecap="round" stroke-linejoin="round"></path>
                    <path d="M22.5388592,43.4636719 C20.0531595,42.8092251 17.6030057,42.0265371 15.1982342,41.11875 C14.8466717,40.3066406 12.2310467,30.9761719 9.59432794,21.3011719" id="Path" stroke="#40404B" stroke-linecap="round" stroke-linejoin="round"></path>
                    <path d="M6.89081231,40.9324219 C5.16815606,31.696875 2.93573419,16.4636719 2.47518731,13.5316406 C0.89667169,12.20625 -1.11778144,8.3953125 0.752531065,6.74296875" id="Path" stroke="#40404B" stroke-linecap="round" stroke-linejoin="round"></path>
                    <path d="M17.6767498,54.1265625 C16.3091717,53.9121094 9.87909356,49.8128906 8.58534356,48.0164062 C8.32679576,47.4989138 8.13879307,46.9490946 8.02635919,46.3816406" id="Path" stroke="#54546B" stroke-width="0.75" stroke-linecap="round" stroke-linejoin="round"></path>
                    <path d="M34.0314373,61.3898438 C37.2447186,61.3898438 39.8673748,60.4792969 40.7427654,57.9796875 C41.6779217,55.3113281 36.5240154,49.5949219 31.5845623,45.675" id="Path" stroke="#40404B" stroke-linecap="round" stroke-linejoin="round"></path>
                    <path d="M24.4689373,41.6109375 C22.1275311,42.8132812 16.5095623,52.1226562 17.7892498,56.6964844 C19.6919183,57.8077031 21.7071004,58.7139458 23.8009686,59.4" id="Path" stroke="#40404B" stroke-linecap="round" stroke-linejoin="round"></path>
                </g>
                <rect id="Rectangle" stroke="#C6CBF0" stroke-width="0.56063247" stroke-linecap="round" stroke-linejoin="round" transform="translate(282.500000, 8.000000) rotate(-90.300000) translate(-282.500000, -8.000000) " x="275" y="-4" width="15" height="24" rx="7.5"></rect>
                <circle id="Oval" stroke="#C6CBF0" stroke-width="0.56063247" stroke-linecap="round" stroke-linejoin="round" cx="214" cy="29" r="12"></circle>
                <circle id="Oval-Copy-2" fill="#EDEFFF" fill-rule="nonzero" cx="35" cy="73" r="15"></circle>
            </g>
        </g>
    </g>
</svg>
