<?xml version="1.0" encoding="UTF-8"?>
<svg width="16px" height="16px" viewBox="0 0 16 16" version="1.1" xmlns="http://www.w3.org/2000/svg" xmlns:xlink="http://www.w3.org/1999/xlink">
    <title>78949F63-2D7E-4A03-8C72-FEF00563E17F</title>
    <g id="Deploy" stroke="none" stroke-width="1" fill="none" fill-rule="evenodd">
        <g id="Deploy-in-progress-(live)" transform="translate(-97.000000, -696.000000)" fill="#40404B" fill-rule="nonzero">
            <g id="Icon/Check-Copy-3" transform="translate(97.000000, 696.000000)">
                <path d="M3,2.36851709 C3.29613748,2.36851709 3.58564902,2.45617413 3.83205029,2.62044165 L3.83205029,2.62044165 L10.0292747,6.75192456 C10.7185677,7.21145325 10.9048285,8.14275726 10.4452998,8.83205029 C10.3354475,8.99682873 10.1940531,9.13822315 10.0292747,9.24807544 L10.0292747,9.24807544 L3.83205029,13.3795583 C3.14275726,13.839087 2.21145325,13.6528262 1.75192456,12.9635332 C1.58765704,12.7171319 1.5,12.4276204 1.5,12.1314829 L1.5,12.1314829 L1.5,3.86851709 C1.5,3.04008997 2.17157288,2.36851709 3,2.36851709 Z M14,2.5 C14.2454599,2.5 14.4496084,2.67687516 14.4919443,2.91012437 L14.5,3 L14.5,13 C14.5,13.2761424 14.2761424,13.5 14,13.5 C13.7545401,13.5 13.5503916,13.3231248 13.5080557,13.0898756 L13.5,13 L13.5,3 C13.5,2.72385763 13.7238576,2.5 14,2.5 Z M3,3.36851709 C2.72385763,3.36851709 2.5,3.59237472 2.5,3.86851709 L2.5,3.86851709 L2.5,12.1314829 C2.5,12.2301954 2.52921901,12.3266992 2.58397485,12.408833 C2.73715108,12.6385974 3.04758575,12.7006843 3.2773501,12.5475081 L3.2773501,12.5475081 L9.47457446,8.41602515 C9.5295006,8.37940772 9.57663208,8.33227624 9.61324951,8.2773501 C9.76642574,8.04758575 9.7043388,7.73715108 9.47457446,7.58397485 L9.47457446,7.58397485 L3.2773501,3.45249194 C3.19521634,3.39773611 3.09871249,3.36851709 3,3.36851709 Z" id="Combined-Shape"></path>
            </g>
        </g>
    </g>
</svg>