<?xml version="1.0" encoding="UTF-8"?>
<svg width="200px" height="200px" viewBox="0 0 200 200" version="1.1" xmlns="http://www.w3.org/2000/svg" xmlns:xlink="http://www.w3.org/1999/xlink">
    <title>C05777AA-C96F-4F94-98B4-EA2832F76E27</title>
    <g id="Apps" stroke="none" stroke-width="1" fill="none" fill-rule="evenodd">
        <g id="apps-empty-new" transform="translate(-460.000000, -272.000000)">
            <g id="Group-3" transform="translate(416.000000, 232.000000)">
                <g id="Illustration/Observe" transform="translate(44.000000, 40.000000)">
                    <path d="M139.629797,187.303664 C109.970843,187.303664 91.9030922,180.123264 73.5117138,178.046787 C56.3023899,176.103769 38.3516452,179.683356 23.2939453,168.03418 C-7.85572065,143.935683 7.30195789,80.0732574 57.5166016,65.9090918 C107.731245,51.7449263 96.3245681,7.29492188 129.495312,7.29492188 C162.666055,7.29492188 199.882813,49.3182239 189.595703,110.6755 C179.308594,172.032776 197.041459,187.303664 139.629797,187.303664 Z" id="Path" fill="#F7F8FB" fill-rule="nonzero"></path>
                    <rect id="Rectangle" fill="#CED3F3" fill-rule="nonzero" transform="translate(62.190918, 59.293457) rotate(24.000000) translate(-62.190918, -59.293457) " x="41.190918" y="50.293457" width="42" height="18" rx="6.6"></rect>
                    <g id="Group" transform="translate(3.000000, 15.000000)">
                        <path d="M65.0041106,4.0428538 L102.425033,4.0428538 C102.840995,4.0428538 103.178198,4.5747891 103.178198,5.23096403 L103.178198,24.854744 C103.178198,25.5106907 102.84085,26.0423033 102.425033,26.0428538 L65.0041106,26.0428538 C64.5880464,26.0428538 64.2503057,25.5110804 64.2503057,24.854744 L64.2503057,5.23595609 C64.2494702,4.91981263 64.3285364,4.61617631 64.4700107,4.3922527 C64.6114849,4.16832908 64.8036996,4.04258576 65.0041106,4.0428538 Z" id="Path" stroke="#C6CBF0" stroke-width="0.74750996" stroke-linecap="round" stroke-linejoin="round"></path>
                        <path d="M27.8284271,71.8284271 L47.1715729,91.1715729 C48.73367,92.73367 48.73367,95.26633 47.1715729,96.8284271 L27.8284271,116.171573 C26.26633,117.73367 23.73367,117.73367 22.1715729,116.171573 L2.82842712,96.8284271 C1.26632996,95.26633 1.26632996,92.73367 2.82842712,91.1715729 L22.1715729,71.8284271 C23.73367,70.26633 26.26633,70.26633 27.8284271,71.8284271 Z" id="Polygon" stroke="#CED3F3" stroke-width="0.75"></path>
                        <path d="M125.895522,55.9909862 C125.872527,53.9612374 123.283284,49.5061697 122.351005,49.6688281 C121.418725,49.8314865 115.399732,53.0055402 113.487072,54.0080728 C111.574412,55.0106055 89.4408461,54.2966807 86.7148941,54.2175667 C83.9889421,54.1384527 82.8959031,52.043514 79.5965328,50.3643984 C76.2971625,48.6852829 75.0332372,57.1207341 74.9762751,58.6093432 C74.8826041,60.9289657 79.4281782,58.4371911 80.8933695,58.8397231 C82.3585608,59.2422552 110.7915,65.7897299 112.545932,65.8485907 C114.300364,65.9074515 122.542144,61.9131438 123.259866,60.7359275 C123.977589,59.5587112 125.91873,58.020735 125.895522,55.9909862 Z" id="Path" fill="#FFFFFF"></path>
                        <path d="M87.176287,117.022691 L165.814338,117.022691 C166.689023,117.022691 167.396618,118.015097 167.396618,119.237883 L167.396618,155.832856 C167.396618,157.056274 166.687757,158.048048 165.814338,158.048048 L87.176287,158.048048 C86.3022355,158.048048 85.5940053,157.055009 85.5940053,155.832856 L85.5940053,119.237883 C85.5927411,118.015097 86.3022355,117.022691 87.176287,117.022691 Z" id="Path" fill="#CED3F3" fill-rule="nonzero"></path>
                        <line x1="89.412998" y1="80.5536683" x2="99.3497166" y2="96.5884941" id="Path" stroke="#32324D" stroke-linecap="round" stroke-linejoin="round"></line>
                        <line x1="70.5117138" y1="122.033456" x2="79.6686847" y2="137.354989" id="Path" stroke="#32324D" stroke-linecap="round" stroke-linejoin="round"></line>
                        <line x1="100.813009" y1="159.664505" x2="118.601634" y2="158.190453" id="Path" stroke="#32324D" stroke-linecap="round" stroke-linejoin="round"></line>
                        <line x1="101.324402" y1="163.009445" x2="119.113027" y2="161.53476" id="Path" stroke="#32324D" stroke-linecap="round" stroke-linejoin="round"></line>
                        <path d="M139.966212,92.5077197 C138.388362,92.6384902 109.426309,99.9422948 105.671875,101.185967 C101.917441,102.429639 75.4737439,124.627762 74.2338693,125.880295 C75.0401992,127.291056 79.9193179,135.330937 79.9193179,135.330937 L100.799718,125.242319 C100.799718,125.242319 141.543429,92.3770975 139.966212,92.5077197 Z" id="Path" fill="#5567D5"></path>
                        <path d="M86.1129948,113.261295 C79.2142539,118.870794 72.8313363,124.281559 72.2370319,124.88156 C73.0433618,126.296118 77.9256451,134.3341 77.9256451,134.3341 L98.8060451,124.245483 C98.8060451,124.245483 139.549756,91.3802611 137.972539,91.5108833 C136.395322,91.6422867 107.433269,98.9448255 103.678202,100.18913 C102.48896,100.582802 99.022501,103.07964 94.8016109,106.346731" id="Path" stroke="#32324D" stroke-linecap="round" stroke-linejoin="round"></path>
                        <path d="M160.966865,85.5726605 C172.828902,114.929018 151.283311,123.515735 121.025687,124.602445 C120.547838,128.273335 117.880747,159.670834 117.880747,159.670834 L104.938963,160.732227 C104.938963,160.732227 96.2307262,118.018895 98.2041458,115.080917 C100.177565,112.14294 133.575699,93.5296303 136.528234,92.2460848 C139.480768,90.9625392 160.457371,84.3043049 160.966865,85.5726605 Z" id="Path" fill="#5567D5"></path>
                        <path d="M142.46748,120.232821 C135.821904,122.073962 127.895947,122.995482 119.257964,123.306242 C118.780115,126.977131 116.113024,158.37463 116.113024,158.37463 L103.171239,159.436024 C103.171239,159.436024 101.742757,152.429688 100.174401,143.896135" id="Path" stroke="#32324D" stroke-linecap="round" stroke-linejoin="round"></path>
                        <path d="M117.091506,100.676473 C125.417463,95.89862 133.386459,91.5473499 134.760511,90.9492481 C137.713678,89.6650696 158.684584,83.0081011 159.199142,84.2764567 C166.235858,101.690398 161.516233,111.795471 150.197234,117.361932" id="Path" stroke="#32324D" stroke-linecap="round" stroke-linejoin="round"></path>
                        <path d="M98.6851589,135.513848 C96.9231319,125.197383 95.5161685,115.156867 96.4376884,113.784713 C97.260474,112.560662 103.546556,108.609392 110.81112,104.327109" id="Path" stroke="#32324D" stroke-linecap="round" stroke-linejoin="round"></path>
                        <path d="M123.604803,42.930214 C124.933919,41.9757826 126.302907,41.1935034 127.282655,41.0732501" id="Path" stroke="#32324D" stroke-linecap="round" stroke-linejoin="round"></path>
                        <path d="M121.774422,53.8909841 C120.528218,51.6998428 118.769356,47.6580667 119.405432,46.6973062 C119.561762,46.4612301 119.949737,46.0390777 120.481383,45.5257861" id="Path" stroke="#32324D" stroke-linecap="round" stroke-linejoin="round"></path>
                        <path d="M124.182019,56.9182023 C123.348474,55.9808596 119.898471,48.6270549 120.646573,47.4985728 C121.394675,46.3700907 127.975061,40.8878069 131.912406,41.5289468 C130.855443,44.677684 125.014299,57.8555449 124.182019,56.9182023 Z" id="Path" fill="#A6B3FF"></path>
                        <path d="M135.685195,37.7340064 C155.780784,30.4156448 162.875728,81.1327828 161.675727,86.151775 C156.535848,91.2783623 136.218107,94.8353278 133.687092,93.2770984 C123.435183,82.166961 115.383276,45.1264186 135.685195,37.7340064 Z" id="Path" fill="#A6B3FF"></path>
                        <path d="M121.73708,65.047957 C120.795307,55.7397201 122.19341,46.4795845 127.623162,40.8548955" id="Path" stroke="#32324D" stroke-linecap="round" stroke-linejoin="round"></path>
                        <path d="M157.447874,64.9308683 C159.715598,74.4948017 160.485852,83.2081013 160.021928,85.1410146 C154.882049,90.2676018 134.564308,93.8245673 132.033293,92.2663379 C128.118732,88.0258275 124.525058,80.0005032 122.707967,71.291634" id="Path" stroke="#32324D" stroke-linecap="round" stroke-linejoin="round"></path>
                        <path d="M127.619997,40.8529967 C129.335822,39.074514 131.455444,37.6586898 134.031396,36.7213472 C144.553558,32.8896979 151.511793,44.9688235 155.580784,58.0682034" id="Path" stroke="#32324D" stroke-linecap="round" stroke-linejoin="round"></path>
                        <path d="M93.2376853,53.1314897 C89.2876814,53.1428821 86.1940075,53.1188315 85.751602,53.0416162 C84.4952717,52.8238945 79.0629879,48.7049031 77.5921004,48.684017" id="Path" stroke="#32324D" stroke-linecap="round" stroke-linejoin="round"></path>
                        <path d="M119.647838,49.18022 C117.468722,50.2397147 114.054161,51.9169316 112.566818,52.8245274 C111.388336,52.9150338 107.00099,53.0042744 102.102884,53.0637681" id="Path" stroke="#32324D" stroke-linecap="round" stroke-linejoin="round"></path>
                        <path d="M74.2167807,57.4220002 C76.0838711,58.8011155 78.6686838,57.2498482 80.1338751,57.6523802 C81.5990664,58.0549122 110.035803,64.6036528 111.788336,64.6612478 C113.54087,64.7188428 120.775687,61.2264343 121.49151,60.0479521" id="Path" stroke="#32324D" stroke-linecap="round" stroke-linejoin="round"></path>
                        <path d="M131.823799,61.465675 C130.747848,63.6992215 128.371264,69.8834048 127.682656,72.1283437 C125.66873,73.2751802 107.021243,82.2720244 101.690858,85.8960786 C100.304148,86.0473446 95.9705993,84.4891152 94.8921173,84.5922798 C93.8136352,84.6954445 93.5927489,85.3979768 93.5927489,85.3979768 C91.1509744,85.5302554 90.1997076,90.5441844 93.304141,91.5372233 C96.4085744,92.5302623 98.4307283,93.4100099 100.607946,92.1593758 C102.785163,90.9087417 134.348485,83.0030378 136.699753,81.3998717 C139.871908,79.239743 141.67634,74.564422 143.50862,70.7080891 C145.429508,66.6650472 144.551659,68.7985936 144.551659,67.2947946 C144.551659,65.7909957 132.901015,59.2321286 131.823799,61.465675 Z" id="Path" fill="#FFFFFF"></path>
                        <path d="M89.240213,85.0353182 C90.175657,85.8543064 92.5148998,86.6865857 94.0503443,86.9340543" id="Path" stroke="#32324D" stroke-linecap="round" stroke-linejoin="round"></path>
                        <path d="M90.4262901,87.6619031 C91.4946456,88.6036762 94.6592057,89.6157025 95.9414854,89.3587402" id="Path" stroke="#32324D" stroke-linecap="round" stroke-linejoin="round"></path>
                        <path d="M131.644052,81.5492389 C133.55418,80.9334155 134.906713,80.4448074 135.372536,80.1669591 C137.894058,78.6587298 142.856721,68.7979607 143.005455,66.422009" id="Path" stroke="#32324D" stroke-linecap="round" stroke-linejoin="round"></path>
                        <path d="M91.5237596,90.2416524 C92.8630014,91.0403874 96.2838908,91.9505149 97.6237655,91.7100083 C98.9636402,91.4695017 100.21111,90.2859563 102.244023,89.8220318 C103.402885,89.5568416 113.181376,86.9473454 121.845308,84.4739253" id="Path" stroke="#32324D" stroke-linecap="round" stroke-linejoin="round"></path>
                        <path d="M130.485823,60.5055475 C129.409872,62.7384611 127.033921,68.9232772 126.345312,71.1682161 C124.331386,72.3144198 105.683267,81.3118969 100.353515,84.9359511 C98.9668048,85.0878499 94.6332563,83.5283548 93.5547742,83.6327852 C92.4762921,83.7372157 92.2547729,84.4384822 92.2547729,84.4384822" id="Path" stroke="#32324D" stroke-linecap="round" stroke-linejoin="round"></path>
                        <path d="M148.400397,41.232744 C157.29471,45.0795831 149.982677,67.1966933 147.02951,69.2454295 C143.259886,70.0422657 130.520633,63.2087147 128.541517,61.0106113 C128.130757,59.0523816 137.513678,36.5264103 148.400397,41.232744 Z" id="Path" fill="#A6B3FF"></path>
                        <path d="M135.92317,64.7998555 C132.125698,62.9447904 128.601011,60.7701047 127.632023,59.6973189" id="Path" stroke="#32324D" stroke-linecap="round" stroke-linejoin="round"></path>
                        <path d="M131.985191,49.3852835 C135.680765,43.2846447 141.347859,37.2624869 147.491536,39.9207174 C156.385848,43.7669236 149.073816,65.8840338 146.120648,67.9327699 C145.068748,68.155555 143.318114,67.7834027 141.298492,67.0840349" id="Path" stroke="#32324D" stroke-linecap="round" stroke-linejoin="round"></path>
                        <polyline id="Path" fill="#FFFFFF" points="117.419354 163.046787 117.115557 169.549325 118.432014 177.003129 94.8130033 180.15693 105.918077 170.193629 105.043393 164.070838"></polyline>
                        <line x1="104.668709" y1="168.996792" x2="103.794025" y2="162.874002" id="Path" stroke="#32324D" stroke-linecap="round" stroke-linejoin="round"></line>
                        <polyline id="Path" stroke="#32324D" stroke-linecap="round" stroke-linejoin="round" points="116.172518 161.847418 115.868087 168.350589 117.180114 175.804394 93.563635 178.960726 99.6427548 173.50629"></polyline>
                        <polyline id="Path" fill="#FFFFFF" points="76.7788085 137.951825 72.4439942 139.913853 66.6414569 146.198669 52.4680253 126.907511 66.481963 131.940427 71.2680436 128.56131"></polyline>
                        <polyline id="Path" stroke="#32324D" stroke-linecap="round" stroke-linejoin="round" points="58.7344871 136.232836 50.6471375 125.224598 64.6617081 130.256881 69.4477887 126.87903"></polyline>
                        <polyline id="Path" stroke="#32324D" stroke-linecap="round" stroke-linejoin="round" points="74.9579207 136.26828 70.6231063 138.230307 64.820569 144.515123 61.9211991 140.56955"></polyline>
                        <line x1="67.7357617" y1="123.965736" x2="76.8920998" y2="139.28727" id="Path" stroke="#32324D" stroke-linecap="round" stroke-linejoin="round"></line>
                        <path d="M82.2585607,53.5935155 C81.335775,53.3859203 79.2541274,53.3871862 78.1952656,53.1776923 C76.2452637,52.7897172 74.5338696,51.7637669 73.2686785,51.6587035 C72.0034874,51.5536401 71.4965249,52.330856 71.438297,52.7454134 C71.1996891,54.4125036 76.0370356,55.9732646 77.6446321,56.1682015" id="Path" stroke="#32324D" fill="#FFFFFF" stroke-linecap="round" stroke-linejoin="round"></path>
                        <path d="M79.2845071,75.0865744 C79.2848567,71.0060375 82.593007,67.6983595 86.6735438,67.6985925 C90.7540807,67.6988255 94.0617367,71.0068814 94.0617367,75.0874182 C94.0617367,79.1679551 90.7536588,82.4758221 86.6731219,82.4758221 C84.7134298,82.4758221 82.8340108,81.6972941 81.4483585,80.3115232 C80.0627063,78.9257522 79.2843393,77.0462665 79.2845071,75.0865744 L79.2845071,75.0865744 Z" id="Path" fill="#FFFFFF" opacity="0.32796224"></path>
                        <path d="M79.5440011,69.8245439 C81.4593429,67.089271 84.9713086,65.9787659 88.111033,67.1155961 C91.2507575,68.2524262 93.2376337,71.3539497 92.9577864,74.6814019 C92.6779391,78.008854 90.2009449,80.7349545 86.9154469,81.331407 C83.6299489,81.9278595 80.3527969,80.2463722 78.9212157,77.2296144" id="Path" stroke="#32324D" stroke-linecap="round" stroke-linejoin="round"></path>
                        <path d="M132.473799,33.054255 C133.296585,34.5441298 134.372535,37.6327404 134.703548,40.0903378 C135.857347,40.3435026 140.827605,39.2561597 141.952923,38.2435005 C141.50672,36.1390681 139.984566,28.6169089 140.155452,27.4080469 C140.326339,26.199185 131.834558,31.8985576 132.473799,33.054255 Z" id="Path" fill="#FFFFFF"></path>
                        <path d="M137.428235,38.721982 C138.850388,38.3618551 140.213047,37.8726141 140.740263,37.3991959 C140.293427,35.2960293 138.771274,27.7726043 138.94216,26.5631094 C139.113046,25.3536146 130.621266,31.0567847 131.260507,32.2105833 C132.083293,33.7004581 133.159243,36.7890687 133.490256,39.2454002" id="Path" stroke="#32324D" stroke-linecap="round" stroke-linejoin="round"></path>
                        <path d="M121.481384,21.459307 C121.481384,14.2346164 125.830122,8.37701576 131.195317,8.37701576 C136.560512,8.37701576 140.909251,14.2346164 140.909251,21.459307 C140.909251,28.6839976 136.560512,34.5415982 131.195317,34.5415982 C125.830122,34.5415982 121.481384,28.6846305 121.481384,21.459307 Z" id="Path" fill="#FFFFFF"></path>
                        <path d="M126.002907,20.4327237 C125.863034,21.5998134 125.163033,23.2808277 124.346576,23.9086765" id="Path" stroke="#32324D" stroke-linecap="round" stroke-linejoin="round"></path>
                        <path d="M128.469998,19.5795583 C128.469998,18.7567727 128.841517,18.0953797 129.300379,18.0953797 C129.75924,18.0953797 130.130759,18.7599373 130.130759,19.5795583 C130.130759,20.3991794 129.75924,21.0631041 129.300379,21.0631041 C128.841517,21.0631041 128.469998,20.3991794 128.469998,19.5795583 Z" id="Path" fill="#1B3C87"></path>
                        <path d="M129.011138,27.3491861 C129.011138,26.7498185 129.476328,26.263742 130.049114,26.263742 C130.621899,26.263742 131.087089,26.7498185 131.087089,27.3491861 C131.087089,27.9485538 130.622532,28.4333644 130.049114,28.4333644 C129.475695,28.4333644 129.011138,27.947288 129.011138,27.3491861 Z" id="Path" stroke="#32324D" stroke-linecap="round" stroke-linejoin="round"></path>
                        <path d="M120.749104,22.74665 C120.648784,21.9826106 120.598676,21.2128147 120.599102,20.4422174 C120.599102,13.2156281 124.948476,7.35929325 130.313038,7.35929325 C135.6776,7.35929325 140.027604,13.2156281 140.027604,20.4422174 C140.027604,27.6688067 135.678233,33.5245086 130.313038,33.5245086 C126.632655,33.5245086 123.43012,30.7681768 121.782017,26.7042488" id="Path" stroke="#32324D" stroke-linecap="round" stroke-linejoin="round"></path>
                        <path d="M140.501655,23.6586762 C141.152922,22.682093 143.461785,9.04980122 138.599122,6.96562198 C137.628868,6.54853296 137.430133,7.65359733 136.890259,8.80802884 C136.101018,5.29346845 131.41114,0.937768007 129.806708,1.09852766 C128.202276,1.25928731 126.723161,5.03017706 126.74911,6.10929203 C125.728223,4.6162526 122.713663,2.39030107 121.563029,2.53144045 C118.495938,2.90739018 120.251003,9.92765018 120.759864,11.1909425 C119.510496,11.0517019 117.166823,12.2289182 117.025683,14.0225909 C116.79467,16.9156317 119.585812,18.9650008 120.943408,19.1314566 C122.301005,19.2979125 124.815564,16.0263903 127.114301,15.3580352 C128.526327,16.4061375 128.838353,16.7561378 129.493417,16.6649985 C130.148481,16.5738592 132.22823,15.546643 132.839623,15.899175 C133.451016,16.251707 134.914941,21.0960155 135.699119,21.3422183 C136.483297,21.588421 139.849756,24.6365253 140.501655,23.6586762 Z" id="Path" fill="#FF9D52"></path>
                        <path d="M119.849104,10.0985364 C118.599735,9.95802995 116.256062,11.1358792 116.114923,12.9301847 C115.884543,15.8225926 118.675685,17.8719617 120.033281,18.0384176 C121.011763,18.1586709 122.591511,16.4915806 124.258602,15.301706" id="Path" stroke="#32324D" stroke-linecap="round" stroke-linejoin="round"></path>
                        <path d="M139.236464,7.21119184 C138.828236,6.60612796 138.318742,6.14220345 137.688361,5.87258294 C136.718107,5.45549393 136.519373,6.56055829 135.979499,7.7149898 C135.190258,4.20042941 130.50038,-0.15463812 128.895948,0.00422279449 C127.291516,0.163083709 125.812401,3.93523928 125.836451,5.01562008 C124.815564,3.52384647 121.801004,1.29726203 120.649737,1.43776849 C118.85733,1.65802187 118.712394,4.14789772 119.004166,6.43144424" id="Path" stroke="#32324D" stroke-linecap="round" stroke-linejoin="round"></path>
                        <path d="M126.201641,14.2649962 C127.613668,15.3130985 127.925694,15.6624659 128.580125,15.5725924 C129.234556,15.4827189 131.31557,14.453604 131.926963,14.8061359 C132.538356,15.1586679 134.001649,20.0036094 134.78646,20.2491792 C135.571271,20.4947491 138.938996,23.5403217 139.590895,22.5662701 C139.970642,21.9966493 140.913048,17.1295559 140.671276,12.7561339" id="Path" stroke="#32324D" stroke-linecap="round" stroke-linejoin="round"></path>
                        <path d="M135.042789,23.7156383 C135.043139,22.1361149 136.323817,20.8559089 137.90334,20.8561419 C139.482864,20.8563749 140.763164,22.1369587 140.763048,23.7164821 C140.762931,25.2960056 139.482442,26.5764006 137.902919,26.5764006 C137.144256,26.5764006 136.416674,26.2749795 135.880278,25.7384643 C135.343881,25.2019491 135.042621,24.4743014 135.042789,23.7156383 Z" id="Path" fill="#FFFFFF"></path>
                        <path d="M135.042156,21.2776612 C136.104294,20.3519453 137.682448,20.337856 138.760944,21.2444608 C139.83944,22.1510656 140.096833,23.7081514 139.36747,24.9136036 C138.638106,26.1190558 137.139372,26.6135898 135.835828,26.0789317" id="Path" stroke="#1B3C87" stroke-width="1.1329125" stroke-linecap="round" stroke-linejoin="round"></path>
                    </g>
                </g>
            </g>
        </g>
    </g>
</svg>