<?xml version="1.0" encoding="UTF-8"?>
<svg width="16px" height="16px" viewBox="0 0 16 16" version="1.1" xmlns="http://www.w3.org/2000/svg" xmlns:xlink="http://www.w3.org/1999/xlink">
    <title>46C9F0E5-F608-4B44-ADB9-B5A5505226F3</title>
    <g id="Test" stroke="none" stroke-width="1" fill="none" fill-rule="evenodd">
        <g id="test-swagger" transform="translate(-93.000000, -84.000000)" fill="#40404B" fill-rule="nonzero">
            <g id="Icon/Control/Burger-Copy" transform="translate(93.000000, 84.000000)">
                <path d="M5.02102661,0.279431343 C5.43524017,0.279431343 5.77102661,0.615217781 5.77102661,1.02943134 C5.77102661,1.40912711 5.48887273,1.7229223 5.12279717,1.77258473 L5.02102661,1.77943134 L4.98000717,1.77943134 C4.33279848,1.77943134 3.80047327,2.27130601 3.73646078,2.9016261 L3.73000717,3.02943134 L3.73000717,6.06537056 C3.73000717,6.83325717 3.40761416,7.52584485 2.89079928,8.01516246 C3.36063099,8.45918431 3.66978347,9.07193645 3.7221101,9.7566009 L3.73000717,9.96406078 L3.73000717,13 L3.73646078,13.1278052 C3.79620577,13.716104 4.26390318,14.1838014 4.85220193,14.2435464 L4.98000717,14.25 L5.02102661,14.25 L5.12279717,14.2568466 C5.48887273,14.306509 5.77102661,14.6203042 5.77102661,15 C5.77102661,15.3796958 5.48887273,15.693491 5.12279717,15.7431534 L5.02102661,15.75 L4.81248484,15.7449812 C3.42934269,15.6618674 2.32182205,14.5564268 2.23543342,13.1741699 L2.23000717,13 L2.23000717,9.96406078 L2.22389106,9.8429393 C2.16727052,9.28540648 1.72403203,8.84216799 1.16649921,8.78554745 L1.04537773,8.77943134 L0.943607174,8.77258473 C0.577531613,8.7229223 0.295377731,8.40912711 0.295377731,8.02943134 L0.295377731,8 L0.295377731,8 C0.295377731,7.62030423 0.577531613,7.30650904 0.943607174,7.25684662 L1.04537773,7.25 C1.65873971,7.25 2.1632262,6.78384863 2.22389106,6.18649204 L2.23000717,6.06537056 L2.23000717,3.02943134 C2.23000717,1.56689951 3.37171177,0.371027064 4.81248484,0.284450137 L5.02102661,0.279431343 Z M11.0453777,0.279431343 L11.2539195,0.284450137 C12.6946926,0.371027064 13.8363972,1.56689951 13.8363972,3.02943134 L13.8363972,3.02943134 L13.8363972,6.06537056 L13.8425133,6.18649204 C13.9031781,6.78384863 14.4076646,7.25 15.0210266,7.25 L15.0210266,7.25 L15.1227972,7.25684662 C15.4888727,7.30650904 15.7710266,7.62030423 15.7710266,8 L15.7710266,8 L15.7710266,8.02943134 C15.7710266,8.40912711 15.4888727,8.7229223 15.1227972,8.77258473 L15.1227972,8.77258473 L15.0210266,8.77943134 L14.8999051,8.78554745 C14.3423723,8.84216799 13.8991338,9.28540648 13.8425133,9.8429393 L13.8425133,9.8429393 L13.8363972,9.96406078 L13.8363972,13 L13.8309709,13.1741699 C13.7445823,14.5564268 12.6370617,15.6618674 11.2539195,15.7449812 L11.2539195,15.7449812 L11.0453777,15.75 L10.9436072,15.7431534 C10.5775316,15.693491 10.2953777,15.3796958 10.2953777,15 C10.2953777,14.6203042 10.5775316,14.306509 10.9436072,14.2568466 L10.9436072,14.2568466 L11.0453777,14.25 L11.0863972,14.25 L11.2142024,14.2435464 C11.8025012,14.1838014 12.2701986,13.716104 12.3299436,13.1278052 L12.3299436,13.1278052 L12.3363972,13 L12.3363972,9.96406078 L12.3442942,9.7566009 C12.3966209,9.07193645 12.7057734,8.45918431 13.1756051,8.01516246 C12.6587902,7.52584485 12.3363972,6.83325717 12.3363972,6.06537056 L12.3363972,6.06537056 L12.3363972,3.02943134 L12.3299436,2.9016261 C12.2659311,2.27130601 11.7336059,1.77943134 11.0863972,1.77943134 L11.0863972,1.77943134 L11.0453777,1.77943134 L10.9436072,1.77258473 C10.5775316,1.7229223 10.2953777,1.40912711 10.2953777,1.02943134 C10.2953777,0.615217781 10.6311642,0.279431343 11.0453777,0.279431343 L11.0453777,0.279431343 Z M5.75,7.25 C6.16421356,7.25 6.5,7.58578644 6.5,8 C6.5,8.41421356 6.16421356,8.75 5.75,8.75 C5.33578644,8.75 5,8.41421356 5,8 C5,7.58578644 5.33578644,7.25 5.75,7.25 Z M8,7.25 C8.41421356,7.25 8.75,7.58578644 8.75,8 C8.75,8.41421356 8.41421356,8.75 8,8.75 C7.58578644,8.75 7.25,8.41421356 7.25,8 C7.25,7.58578644 7.58578644,7.25 8,7.25 Z M10.25,7.25 C10.6642136,7.25 11,7.58578644 11,8 C11,8.41421356 10.6642136,8.75 10.25,8.75 C9.83578644,8.75 9.5,8.41421356 9.5,8 C9.5,7.58578644 9.83578644,7.25 10.25,7.25 Z" id="Combined-Shape"></path>
            </g>
        </g>
    </g>
</svg>
