<?xml version="1.0" encoding="UTF-8"?>
<svg width="16px" height="16px" viewBox="0 0 16 16" version="1.1" xmlns="http://www.w3.org/2000/svg" xmlns:xlink="http://www.w3.org/1999/xlink">
    <title>30E0869E-6E6C-4EFE-8B7C-066B1720E1DB</title>
    <g id="Home" stroke="none" stroke-width="1" fill="none" fill-rule="evenodd">
        <g id="new-integration-started" transform="translate(-751.000000, -387.000000)" fill="#CBCEDB" fill-rule="nonzero">
            <g id="Icon/Time" transform="translate(751.000000, 387.000000)">
                <path d="M8,0.5 C12.1421356,0.5 15.5,3.85786438 15.5,8 C15.5,12.1421356 12.1421356,15.5 8,15.5 C3.85786438,15.5 0.5,12.1421356 0.5,8 C0.5,3.85786438 3.85786438,0.5 8,0.5 Z M8,1.5 C4.41014913,1.5 1.5,4.41014913 1.5,8 C1.5,11.5898509 4.41014913,14.5 8,14.5 C11.5898509,14.5 14.5,11.5898509 14.5,8 C14.5,4.41014913 11.5898509,1.5 8,1.5 Z M8,3.5 C8.24545989,3.5 8.44960837,3.67687516 8.49194433,3.91012437 L8.5,4 L8.5,8.793 L9.85355339,10.1464466 C10.0271197,10.320013 10.0464049,10.5894374 9.91140884,10.7843055 L9.85355339,10.8535534 C9.67998704,11.0271197 9.41056264,11.0464049 9.2156945,10.9114088 L9.14644661,10.8535534 L7.5,9.20710678 L7.5,4 C7.5,3.72385763 7.72385763,3.5 8,3.5 Z" id="Combined-Shape"></path>
            </g>
        </g>
    </g>
</svg>