<?xml version="1.0" encoding="UTF-8"?>
<svg width="232px" height="206px" viewBox="0 0 232 206" version="1.1" xmlns="http://www.w3.org/2000/svg" xmlns:xlink="http://www.w3.org/1999/xlink">
    <title>805911CE-490A-486B-A8A5-A77AA751CE02</title>
    <g id="Home" stroke="none" stroke-width="1" fill="none" fill-rule="evenodd">
        <g id="new-home-Box-Shaped-tooltip-boy" transform="translate(-727.000000, -339.000000)">
            <g id="Illustration/Samples" transform="translate(727.000000, 339.979626)">
                <path d="M212.679748,35.1205021 C233.621967,55.7225996 238.968019,105.619356 221.606417,140.489751 C204.244815,175.360147 160.492641,167.650702 128.331454,177.264552 C121.005039,179.469682 112.291797,187.731772 102.191727,202.050821 L27.6377947,200.447868 L0,160.124899 L0.588175088,52.9308576 C14.9184671,42.3040584 25.4347811,34.9495435 32.1371174,30.867313 C63.2781364,11.9655633 98.5946813,10.9901613 129.524558,11.0533492 C160.454435,11.116537 191.669903,14.4526606 212.679748,35.1205021 Z" id="Path" fill="#F7F8FB" fill-rule="nonzero" transform="translate(116.000000, 106.550821) scale(-1, 1) translate(-116.000000, -106.550821) "></path>
                <path d="M2.01906813,74.3157874 L2.026158,74.3157874 C3.01914533,74.3157874 3.8241206,75.1207627 3.8241206,76.11375 C3.8241206,77.1067373 3.01914533,77.9117126 2.026158,77.9117126 L2.01906813,77.9117126 C1.0260808,77.9117126 0.221105528,77.1067373 0.221105528,76.11375 C0.221105528,75.1207627 1.0260808,74.3157874 2.01906813,74.3157874 Z" id="Path-Copy-8" fill="#FFFFFF" transform="translate(2.022613, 76.113750) scale(-1, 1) translate(-2.022613, -76.113750) "></path>
                <g id="Group" transform="translate(47.060302, 0.000000)">
                    <path d="M75.918329,166.104023 C75.9625193,167.871747 76.1427011,172.409012 75.918329,202.844046 C76.7238214,202.819816 138.298146,202.957348 138.364351,202.819816 C142.837032,171.395985 122.386591,168.354114 122.386591,168.354114 C122.386591,168.354114 75.7933347,161.103 75.918329,166.104023 Z" id="Path" fill="#3C3744" transform="translate(107.460769, 183.613386) scale(-1, 1) translate(-107.460769, -183.613386) "></path>
                    <polygon id="Path" fill="#3C3744" transform="translate(91.261885, 184.943701) scale(-1, 1) translate(-91.261885, -184.943701) " points="107.460769 202.825126 105.203873 167.062275 78.1504708 170.421241 75.063001 202.825126"></polygon>
                    <polyline id="Path" stroke="#373754" stroke-linecap="round" stroke-linejoin="round" transform="translate(93.846462, 182.459744) scale(-1, 1) translate(-93.846462, -182.459744) " points="108.183312 185.546287 106.563015 163.045378 79.5096128 166.404343 79.5096128 201.87411"></polyline>
                    <path d="M140.868865,175.401935 L142.483607,164.027656 C142.483607,164.027656 95.8894251,156.776541 96.0144194,161.776641 C96.0579359,163.508333 95.906091,170.826068 95.6885083,200.367406" id="Path" stroke="#373754" stroke-linecap="round" stroke-linejoin="round" transform="translate(119.086058, 180.192729) scale(-1, 1) translate(-119.086058, -180.192729) "></path>
                    <path d="M16.1568684,78.4671798 C14.5805493,78.0176891 9.85159199,75.0959999 8.95083822,73.9722733 C8.05008445,72.8485466 5.91079425,75.5747074 9.79529488,79.2627782" id="Path" fill="#FFFFFF" fill-rule="nonzero"></path>
                    <path d="M14.3553608,76.6692172 C12.7790417,76.2197265 8.05008445,73.2980373 7.14933068,72.1743107 C6.24857691,71.050584 4.10928671,73.7767448 7.99378734,77.4648156" id="Path" stroke="#373754" stroke-linecap="round" stroke-linejoin="round"></path>
                    <path d="M34.1719437,85.4342848 C33.0460015,84.0858129 29.217798,78.4671798 28.5422327,76.6692172 C27.8666674,74.8712546 23.2660675,73.073292 26.2408068,85.4342848" id="Path" fill="#FFFFFF" fill-rule="nonzero"></path>
                    <path d="M31.9200593,83.1868316 C30.7941171,81.8383596 26.9659136,76.2197265 26.2903483,74.4217639 C25.7071102,72.8732686 22.2144375,71.3247733 23.157977,78.8267723" id="Path" stroke="#373754" stroke-linecap="round" stroke-linejoin="round"></path>
                    <path d="M59.2534324,105.832171 C57.8167302,108.807799 51.5114538,120.494555 51.5114538,120.494555 C51.5114538,120.494555 37.0993935,89.704446 35.5230744,89.03021 C33.9467553,88.3559741 9.85159199,80.040397 5.34782314,77.5681985 C3.54631561,76.6692172 -1.85820701,78.2424344 8.05008445,84.7600489 C17.9583759,91.2776633 27.6414789,96.6715511 28.7674211,98.9190043 C29.8933633,101.166458 38.0001473,136.001983 38.0001473,136.001983 C40.3762934,147.997039 42.856445,153.994568 45.4406021,153.994568 C49.5680614,153.994568 57.1553344,147.997039 68.2024211,136.001983 C70.2020945,136.001983 76.9577478,113.976941 76.9577478,113.976941 C76.9577478,113.976941 60.917575,103.984764 59.2534324,105.832171 Z" id="Path" fill="#FFFFFF" fill-rule="nonzero"></path>
                    <path d="M33.5842019,124.557951 C34.8362497,129.843961 35.7482628,133.75453 35.7482628,133.75453 C40.3444389,144.864627 43.8714627,150.419676 46.3293341,150.419676 C50.5830791,150.419676 57.12348,144.864627 65.9505367,133.75453 C67.9502101,133.75453 74.7058633,111.729488 74.7058633,111.729488 C74.7058633,111.729488 58.6656906,101.737311 57.001548,103.584717 C55.5648458,106.560345 49.2595694,118.247102 49.2595694,118.247102 C49.2595694,118.247102 34.8475091,87.4569928 33.27119,86.7827568 C32.7847829,86.5759911 30.1635895,85.643298 26.6371385,84.3802293" id="Path" stroke="#373754" stroke-linecap="round" stroke-linejoin="round"></path>
                    <path d="M11.8512654,86.4006897 C19.3500405,91.1203415 25.6215386,94.8893206 26.5155367,96.6715511 C27.1077823,97.8559589 29.6434042,108.102098 31.906548,117.523422" id="Path" stroke="#373754" stroke-linecap="round" stroke-linejoin="round"></path>
                    <path d="M20.7259419,82.251891 C13.5424306,79.6470927 5.50770694,76.6444952 3.09593872,75.3207452 C1.45431498,74.5026722 -3.17330751,75.7342766 3.49452226,80.883192" id="Path" stroke="#373754" stroke-linecap="round" stroke-linejoin="round"></path>
                    <path d="M65.9482848,133.790489 C66.529271,128.740461 67.3422013,123.092611 68.4726473,117.202036" id="Path" stroke="#373754" stroke-linecap="round" stroke-linejoin="round"></path>
                    <path d="M63.9073372,70.20949 C78.4224192,63.7826389 93.9568995,97.7881201 94.3328083,105.115932 C90.0570764,108.251274 70.3033432,116.567832 65.6239259,116.103029 C61.7055852,110.012536 46.6238622,77.8625714 63.9073372,70.20949 Z" id="Path" fill="#A6B3FF" transform="translate(75.060175, 92.763758) scale(-1, 1) translate(-75.060175, -92.763758) "></path>
                    <path d="M66.7137369,67.6738639 C81.2288189,61.2479368 96.7623733,95.2534181 97.139208,102.58123 C92.8634761,105.716572 73.1097429,114.03313 68.4303256,113.568327 C64.5156885,107.477834 49.4302619,75.3260213 66.7137369,67.6738639 Z" id="Path" stroke="#373754" stroke-linecap="round" stroke-linejoin="round" transform="translate(77.867015, 90.228703) scale(-1, 1) translate(-77.867015, -90.228703) "></path>
                    <path d="M110.477759,60.5918528 C142.526305,60.8894008 148.795465,116.189891 139.190345,167.55018 C134.135945,171.182668 85.6066654,173.906803 77.2144537,168.256163 C68.8222419,162.605524 67.0038059,60.1889618 110.477759,60.5918528 Z" id="Path" fill="#A6B3FF" transform="translate(107.875972, 116.044260) scale(-1, 1) translate(-107.875972, -116.044260) "></path>
                    <path d="M97.5134252,168.85588 C90.2378294,168.452065 84.3066171,167.515066 81.8409882,165.854526 C73.4497024,160.203887 71.6294146,57.7873247 115.10059,58.1902157 C132.336845,58.3510025 142.116957,74.4204405 145.98067,97.2299867" id="Path" stroke="#373754" stroke-linecap="round" stroke-linejoin="round" transform="translate(111.525752, 113.522455) scale(-1, 1) translate(-111.525752, -113.522455) "></path>
                    <path d="M100.412368,128.738652 C100.052199,140.573114 98.6670768,152.971254 96.3903283,165.146695 C94.3941226,166.580839 85.6185949,167.873602 75.2125856,168.565724" id="Path" stroke="#373754" stroke-linecap="round" stroke-linejoin="round" transform="translate(87.812477, 148.652188) scale(-1, 1) translate(-87.812477, -148.652188) "></path>
                    <path d="M150.174566,69.7040281 C166.663633,72.7534327 157.560342,112.96861 153.083693,119.819606 C147.41358,120.043229 125.253475,115.50054 121.597159,112.223817 C122.269351,104.330479 130.539346,66.0687682 150.174566,69.7040281 Z" id="Path" fill="#A6B3FF" transform="translate(140.624716, 94.644380) scale(-1, 1) translate(-140.624716, -94.644380) "></path>
                    <path d="M132.359066,109.478428 C133.030332,101.585091 141.301253,63.322456 160.935547,66.9586399" id="Path" stroke="#373754" stroke-linecap="round" stroke-linejoin="round" transform="translate(146.647307, 88.097065) scale(-1, 1) translate(-146.647307, -88.097065) "></path>
                    <path d="M146.939886,92.2455963 C145.968634,103.009994 142.792852,113.815051 140.663319,117.073294 C137.688454,117.19065 130.173054,115.995838 123.173372,114.360248" id="Path" stroke="#373754" stroke-linecap="round" stroke-linejoin="round" transform="translate(135.056629, 104.663421) scale(-1, 1) translate(-135.056629, -104.663421) "></path>
                    <path d="M130.673768,114.682865 C129.016436,119.781839 123.164323,139.896701 123.789294,146.166462 C124.414266,152.436222 152.161155,195.288673 156.44059,198.595891 C158.235879,195.495663 162.584756,187.778821 162.584756,187.778821 C160.23764,184.333918 146.154946,144.374705 146.289199,140.034386 C146.423452,135.694067 151.245787,122.307737 152.764237,119.827555" id="Path" fill="#FFFFFF" transform="translate(143.163773, 156.639378) scale(-1, 1) translate(-143.163773, -156.639378) "></path>
                    <path d="M136.591336,143.563379 C135.817297,140.807826 135.362688,138.808156 135.387687,138.009766 C135.525644,133.666675 140.886511,119.151509 142.404961,116.671327" id="Path" stroke="#373754" stroke-linecap="round" stroke-linejoin="round" transform="translate(138.895834, 130.117353) scale(-1, 1) translate(-138.895834, -130.117353) "></path>
                    <path d="M130.00723,121.915379 C127.935102,130.10534 125.766682,140.189629 126.15833,144.142766 C126.779599,150.412526 154.530191,193.264977 158.809627,196.572195 C160.604915,193.471967 164.953792,185.755125 164.953792,185.755125 C163.672369,183.874659 158.892956,171.109667 154.839436,159.200356" id="Path" stroke="#373754" stroke-linecap="round" stroke-linejoin="round" transform="translate(145.532960, 159.243787) scale(-1, 1) translate(-145.532960, -159.243787) "></path>
                    <path d="M100.159602,37.981904 C100.785499,41.0876764 103.277979,58.2188616 103.092802,68.1987311 C106.076,70.8110544 117.531036,70.4506702 119.502242,67.8854741 C119.068003,63.8196014 118.689316,53.8018453 119.655939,51.1423949" id="Path" fill="#FFFFFF" transform="translate(109.907770, 53.986884) scale(-1, 1) translate(-109.907770, -53.986884) "></path>
                    <path d="M81.0978663,21.9542361 C81.0978663,21.9395762 81.1213683,21.9263823 81.1522147,21.9249164 C81.1830612,21.9234504 81.2095009,21.9337123 81.2095009,21.9498381 C81.2095009,21.965964 81.1859989,21.9776919 81.1551525,21.9791579 C81.1243061,21.9806239 81.0993352,21.9703619 81.0978663,21.9542361 Z" id="Path" fill="#1B3C87" transform="translate(81.153684, 21.952037) scale(-1, 1) translate(-81.153684, -21.952037) "></path>
                    <path d="M121.340784,45.4455903 C120.480631,48.9693938 118.932355,56.5455715 119.448447,66.7646017 C116.523926,69.4074544 106.718178,69.9360249 102.245381,66.4122214 C103.105534,60.9503259 103.105534,55.6646206 102.933504,52.140817 C102.761473,48.6170135 121.340784,45.4455903 121.340784,45.4455903 Z" id="Path" fill="#FFFFFF" fill-rule="nonzero"></path>
                    <ellipse id="Oval" fill="#FFFFFF" fill-rule="nonzero" cx="107.386451" cy="32.9847026" rx="18.3609648" ry="22.7227952"></ellipse>
                    <path d="M128.68517,23.1226362 C128.68517,14.0130932 118.566239,7.82547907 111.762129,5.76294103 C106.261269,4.09572278 97.6305178,1.46598678 93.094445,1.46598678 C87.5115861,1.46598678 83.1499776,7.13796639 83.1499776,12.809946 C83.1499776,18.9975601 86.4648,23.6382707 90.4774799,24.6695397 C91.1753372,22.6070017 91.5242659,21.7476108 91.5242659,21.7476108 C92.2221233,22.6070017 110.889808,24.8414179 117.170524,24.6695397 C116.647131,26.9039559 116.298202,34.8103517 119.787489,34.9822299 C121.706597,35.1541081 128.68517,37.2166461 128.68517,23.1226362 Z" id="Path" fill="#FF9D52" fill-rule="nonzero"></path>
                    <ellipse id="Oval" fill="#FFFFFF" fill-rule="nonzero" cx="119.871907" cy="35.1836828" rx="4.40663156" ry="4.39796035"></ellipse>
                    <path d="M100.776504,64.9465612 C101.452729,60.6525238 101.563612,60.4792166 101.510942,57.1734846 M119.871907,43.9796035 C119.011754,47.503462 117.463478,55.0797576 117.97957,65.2989471 C116.247221,66.8635402 112.106443,67.6863612 108.086087,67.367452" id="Shape" stroke="#373754" stroke-linecap="round" stroke-linejoin="round"></path>
                    <path d="M113.996398,51.6426736 C111.578959,53.3233157 108.758811,54.225568 105.873276,54.241511 C100.293792,54.241511 95.3014381,50.8251462 91.9632407,45.4455903" id="Path" stroke="#373754" stroke-linecap="round" stroke-linejoin="round"></path>
                    <path d="M88.5092895,39.514271 C87.8725255,37.0896049 87.5523464,34.5934681 87.5565671,32.0874494 C87.5565671,28.8331553 88.0826608,25.7347136 89.0328156,22.9215552 M124.278739,32.0874494 C124.286626,35.1293489 123.811239,38.1534087 122.869879,41.04763" id="Shape" stroke="#373754" stroke-linecap="round" stroke-linejoin="round"></path>
                    <path d="M99.3076266,29.3197357 C99.124017,31.1522192 96.7370916,36.2831729 94.9009951,38.1156564" id="Path" stroke="#373754" stroke-linecap="round" stroke-linejoin="round"></path>
                    <path d="M99.3076266,45.4455903 C100.26559,45.4455903 102.181517,45.0267369 103.714258,42.5136167" id="Path" stroke="#373754" stroke-linecap="round" stroke-linejoin="round"></path>
                    <ellipse id="Oval" fill="#32324D" fill-rule="nonzero" transform="translate(104.591842, 30.585762) rotate(-80.470000) translate(-104.591842, -30.585762) " cx="104.591842" cy="30.5857624" rx="1.78239098" ry="1"></ellipse>
                    <path d="M116.934153,6.61994484 C115.037206,5.59429128 113.032504,4.7622139 110.953181,4.13746552 C105.490259,2.5321289 96.9190345,0 92.4142468,0 C88.1052441,0 84.5291357,3.29673253 83.1499776,7.32993392" id="Path" stroke="#373754" stroke-linecap="round" stroke-linejoin="round"></path>
                    <path d="M115.792227,23.4116867 C115.272951,25.6018713 116.934153,31.2179131 119.655939,30.5857624 C121.55995,30.7542382 127.216293,33.721872 127.216293,21.8954051 C127.216293,17.895791 125.201503,14.472364 122.36972,11.7278943" id="Path" stroke="#373754" stroke-linecap="round" stroke-linejoin="round"></path>
                    <path d="M81.6811004,14.6598678 C82.7341383,19.2847592 85.4983628,22.574321 88.7001672,23.4557885 C89.4116793,21.2052331 89.7674353,20.2675017 89.7674353,20.2675017 C90.2761665,20.9389174 100.185751,22.3811483 108.12089,23.080696" id="Path" stroke="#373754" stroke-linecap="round" stroke-linejoin="round"></path>
                    <path d="M123.883394,36.9816928 C123.155972,38.5613014 121.54371,39.5789705 119.764374,39.5816432 C119.382601,39.5816432 119.002335,39.5350733 118.632432,39.4431914" id="Path" stroke="#373754" stroke-linecap="round" stroke-linejoin="round"></path>
                    <path d="M115.465276,35.1836828 C115.464792,34.0902498 115.815784,33.0652778 116.417189,32.2600611" id="Path" stroke="#373754" stroke-linecap="round" stroke-linejoin="round"></path>
                </g>
            </g>
        </g>
    </g>
</svg>
