<svg width="115" height="80" viewBox="0 0 115 80" fill="none" xmlns="http://www.w3.org/2000/svg">
<path d="M21.916 33.9511C31.0198 26.6307 34.2302 22.2292 42.4853 13.5848C50.7246 4.96798 61.4007 -7.91557 71.3568 -8.31363C81.2861 -8.72695 90.5136 3.32245 97.6664 15.987C104.822 28.6761 109.925 41.9527 107.588 53.3923C105.241 64.8087 95.4618 74.3849 85.2885 79.1832C75.1153 83.9815 64.5532 84.0247 53.9748 84.5116C43.3964 84.9986 35.4577 85.9702 24.0436 82.2446C12.6122 78.5456 2.96181 70.1693 3.02169 60.8615C3.05783 51.5578 12.8146 41.271 21.916 33.9511Z" fill="white"/>
<path d="M103.638 13.4434H67.3047V57.9519H103.638V13.4434Z" fill="#CCD1F2"/>
<path d="M103.638 13.4434H67.3047V19.8017H103.638V13.4434Z" fill="#A6B3FF"/>
<path d="M71.3938 17.9848C72.1463 17.9848 72.7563 17.3748 72.7563 16.6223C72.7563 15.8698 72.1463 15.2598 71.3938 15.2598C70.6413 15.2598 70.0312 15.8698 70.0312 16.6223C70.0312 17.3748 70.6413 17.9848 71.3938 17.9848Z" fill="#F0F1FB"/>
<path d="M75.9348 17.9848C76.6873 17.9848 77.2973 17.3748 77.2973 16.6223C77.2973 15.8698 76.6873 15.2598 75.9348 15.2598C75.1823 15.2598 74.5723 15.8698 74.5723 16.6223C74.5723 17.3748 75.1823 17.9848 75.9348 17.9848Z" fill="#F0F1FB"/>
<path d="M80.4758 17.9848C81.2283 17.9848 81.8383 17.3748 81.8383 16.6223C81.8383 15.8698 81.2283 15.2598 80.4758 15.2598C79.7233 15.2598 79.1133 15.8698 79.1133 16.6223C79.1133 17.3748 79.7233 17.9848 80.4758 17.9848Z" fill="#F0F1FB"/>
<path d="M73.8477 23.9355H78.931C79.7595 23.9355 80.431 24.6071 80.431 25.4355V35.969C80.431 36.7974 79.7595 37.469 78.931 37.469H73.8477C73.0192 37.469 72.3477 36.7974 72.3477 35.969V25.4355C72.3477 24.6071 73.0192 23.9355 73.8477 23.9355Z" fill="#F0F1FB" stroke="#F0F1FB"/>
<path d="M86.3809 24.3438H99.0976" stroke="#F0F1FB" stroke-width="2" stroke-linecap="round" stroke-linejoin="round"/>
<path d="M73.6641 43.4189H99.0975" stroke="#F0F1FB" stroke-width="2" stroke-linecap="round" stroke-linejoin="round"/>
<path d="M73.6641 49.7773H99.0975" stroke="#F0F1FB" stroke-width="2" stroke-linecap="round" stroke-linejoin="round"/>
<path d="M86.3809 30.7021H99.0976" stroke="#F0F1FB" stroke-width="2" stroke-linecap="round" stroke-linejoin="round"/>
<path d="M86.3809 37.0605H99.0976" stroke="#F0F1FB" stroke-width="2" stroke-linecap="round" stroke-linejoin="round"/>
<path d="M75.4813 37.9688H17.3477V81.569H75.4813V37.9688Z" fill="#A6B3FF"/>
<path d="M50.047 44.3271H28.2469C25.2369 44.3271 22.7969 46.7672 22.7969 49.7772C22.7969 52.7871 25.2369 55.2272 28.2469 55.2272H50.047C53.057 55.2272 55.497 52.7871 55.497 49.7772C55.497 46.7672 53.057 44.3271 50.047 44.3271Z" fill="#F0F1FB"/>
<path d="M64.5809 55.2272C67.5909 55.2272 70.0309 52.7871 70.0309 49.7772C70.0309 46.7672 67.5909 44.3271 64.5809 44.3271C61.5709 44.3271 59.1309 46.7672 59.1309 49.7772C59.1309 52.7871 61.5709 55.2272 64.5809 55.2272Z" fill="#F0F1FB"/>
<path d="M23.7051 63.4023H56.4053" stroke="#F0F1FB" stroke-width="2" stroke-linecap="round" stroke-linejoin="round"/>
<path d="M23.7051 71.5771H43.2343" stroke="#F0F1FB" stroke-width="2" stroke-linecap="round" stroke-linejoin="round"/>
</svg>
