<?xml version="1.0" encoding="UTF-8"?>
<svg width="18px" height="18px" viewBox="0 0 18 18" version="1.1" xmlns="http://www.w3.org/2000/svg" xmlns:xlink="http://www.w3.org/1999/xlink">
    <title>FFEC43FB-287D-4FB0-BB6C-EE27DBA48124</title>
    <defs>
        <path d="M12,0.25 C13.4625318,0.25 14.6584043,1.3917046 14.7449812,2.83247767 L14.75,3 L14.75,11 C14.75,12.4625318 13.6082954,13.6584043 12.1675223,13.7449812 L12,13.75 L5,13.75 C3.53746816,13.75 2.34159572,12.6082954 2.25501879,11.1675223 L2.25,11 L2.25,10 C2.25,9.58578644 2.58578644,9.25 3,9.25 C3.37969577,9.25 3.69349096,9.53215388 3.74315338,9.89822944 L3.75,10 L3.75,11 C3.75,11.6472087 4.24187466,12.1795339 4.87219476,12.2435464 L5,12.25 L12,12.25 C12.6472087,12.25 13.1795339,11.7581253 13.2435464,11.1278052 L13.25,11 L13.25,3 C13.25,2.35279131 12.7581253,1.8204661 12.1278052,1.75645361 L12,1.75 L8,1.75 C7.58578644,1.75 7.25,1.41421356 7.25,1 C7.25,0.620304234 7.53215388,0.306509039 7.89822944,0.256846616 L8,0.25 L12,0.25 Z M5.53033009,4.46966991 C5.79659665,4.73593648 5.8208027,5.15260016 5.60294824,5.44621165 L5.53033009,5.53033009 L3,8.06066017 L0.969669914,6.03033009 C0.676776695,5.73743687 0.676776695,5.26256313 0.969669914,4.96966991 C1.23593648,4.70340335 1.65260016,4.6791973 1.94621165,4.89705176 L2.03033009,4.96966991 L3,5.939 L4.46966991,4.46966991 C4.76256313,4.1767767 5.23743687,4.1767767 5.53033009,4.46966991 Z M5.53033009,0.469669914 C5.79659665,0.735936477 5.8208027,1.15260016 5.60294824,1.44621165 L5.53033009,1.53033009 L3,4.06066017 L0.969669914,2.03033009 C0.676776695,1.73743687 0.676776695,1.26256313 0.969669914,0.969669914 C1.23593648,0.703403352 1.65260016,0.6791973 1.94621165,0.897051761 L2.03033009,0.969669914 L3,1.939 L4.46966991,0.469669914 C4.76256313,0.176776695 5.23743687,0.176776695 5.53033009,0.469669914 Z" id="path-1"></path>
    </defs>
    <g id="Test" stroke="none" stroke-width="1" fill="none" fill-rule="evenodd">
        <g id="test-start" transform="translate(-92.000000, -83.000000)">
            <g id="Icon/Control/Burger" transform="translate(92.000000, 83.000000)">
                <g id="Color" transform="translate(1.000000, 2.000000)">
                    <mask id="mask-2" fill="white">
                        <use xlink:href="#path-1"></use>
                    </mask>
                    <use id="Mask" fill="#40404B" fill-rule="nonzero" xlink:href="#path-1"></use>
                    <rect fill="#40404B" fill-rule="nonzero" mask="url(#mask-2)" x="-1" y="-2" width="18" height="18"></rect>
                </g>
            </g>
        </g>
    </g>
</svg>
