<?xml version="1.0" encoding="UTF-8"?>
<svg width="260px" height="218px" viewBox="0 0 260 218" version="1.1" xmlns="http://www.w3.org/2000/svg" xmlns:xlink="http://www.w3.org/1999/xlink">
    <title>61A740D9-63DE-4C4B-A7FE-A70CBD4C1980@1x</title>
    <g id="Home" stroke="none" stroke-width="1" fill="none" fill-rule="evenodd">
        <g id="home-unauthorized-access" transform="translate(-655.000000, -241.000000)">
            <g id="Group" transform="translate(655.000000, 241.000000)">
                <g id="drawkit-grape-pack-illustration-11">
                    <path d="M241.173868,76.4005833 C258.301979,90.3641021 263.14377,115.607281 258.118897,137.140274 C253.141031,158.698118 238.341037,176.573112 220.210919,186.202697 C202.103069,195.894407 180.689837,197.313373 160.758583,202.604053 C140.802589,207.932009 122.326099,217.134164 101.726842,217.092063 C81.1053182,217.092063 58.4303011,207.827637 38.3604988,192.621591 C18.305541,177.485127 0.912701888,156.419324 0.031926538,135.862957 C-0.801841138,115.32647 14.8764549,95.2770539 25.7896573,74.730627 C36.7251266,54.132014 42.860865,32.9518983 57.4950958,19.6841947 C72.1293267,6.4164911 95.2496796,0.954342296 114.64653,8.54369737 C134.04338,16.1330525 149.69941,36.6223231 172.193818,48.2076451 C194.72039,59.8203027 224.065549,62.5165863 241.173868,76.4005833 Z" id="Path" fill="#FFFFFF" fill-rule="nonzero"></path>
                    <path d="M159.928198,2.6434696 L183.898708,26.5646684 C185.364681,28.0276258 185.367126,30.4019932 183.904168,31.8679664 C183.90235,31.8697884 183.90053,31.8716086 183.898708,31.8734269 L159.928198,55.7946256 C158.464359,57.2554533 156.094199,57.2554533 154.63036,55.7946256 L130.659851,31.8734269 C129.193878,30.4104694 129.191433,28.036102 130.65439,26.5701288 C130.656209,26.5683068 130.658029,26.5664866 130.659851,26.5646684 L154.63036,2.6434696 C156.094199,1.18264192 158.464359,1.18264192 159.928198,2.6434696 Z" id="Polygon" stroke="#C8CEF0" stroke-width="1.34439771" opacity="0.503673735" stroke-linecap="round" stroke-linejoin="round"></path>
                    <rect id="Rectangle" fill="#F0F1FB" fill-rule="nonzero" x="15.903958" y="38.0920635" width="230" height="147"></rect>
                    <path d="M12.903958,88.4265361 L12.903958,40.0920635 M242.903958,40.0920635 L242.903958,160.194877 M160.216309,187.092063 L12.903958,187.092063 L12.903958,124.513938" id="Shape" stroke="#42425B" fill-rule="nonzero"></path>
                    <rect id="Rectangle" fill="#D7DFFF" fill-rule="nonzero" x="15.903958" y="38.0920635" width="230" height="19"></rect>
                    <rect id="Rectangle" fill="#FFFFFF" fill-rule="nonzero" x="62.903958" y="43.0920635" width="142" height="9" rx="4.5"></rect>
                    <rect id="Rectangle" fill="#B2C3FB" fill-rule="nonzero" x="214.903958" y="43.0920635" width="23" height="9" rx="4.5"></rect>
                    <circle id="Oval" fill="#FFFFFF" fill-rule="nonzero" cx="23.903958" cy="48.0920635" r="3"></circle>
                    <circle id="Oval" fill="#FFFFFF" fill-rule="nonzero" cx="34.903958" cy="48.0920635" r="3"></circle>
                    <circle id="Oval" fill="#FFFFFF" fill-rule="nonzero" cx="45.903958" cy="48.0920635" r="3"></circle>
                </g>
                <circle id="Oval" stroke="#FF7B7C" stroke-width="5" fill="#FFFFFF" cx="131" cy="118.092063" r="44"></circle>
                <path d="M130,70.0920635 C103.490332,70.0920635 82,91.5823955 82,118.092063 C82,130.982559 87.0812879,142.686257 95.3501432,151.309436" id="Path" stroke="#42425B"></path>
                <path d="M117,116.092063 L145,116.092063 C147.209139,116.092063 149,117.882924 149,120.092063 L149,135.092063 C149,141.71948 143.627417,147.092063 137,147.092063 L125,147.092063 C118.372583,147.092063 113,141.71948 113,135.092063 L113,120.092063 C113,117.882924 114.790861,116.092063 117,116.092063 Z" id="Rectangle" fill="#A6B3FF"></path>
                <circle id="Oval" fill="#D7DFFF" cx="131" cy="131.092063" r="3"></circle>
                <line x1="100.305145" y1="148.064949" x2="160.943558" y2="87.4265361" id="Path-12" stroke="#FF7B7C" stroke-width="5"></line>
                <line x1="127.903958" y1="115.336074" x2="155.990621" y2="86.3794733" id="Path" stroke="#42425B"></line>
                <path d="M141,96.0920635 L141,106.092063 C141,111.614911 136.522847,116.092063 131,116.092063 C125.477153,116.092063 121,111.614911 121,106.092063 L121,96.0920635" id="Path" stroke="#D7DFFF" stroke-width="4" transform="translate(131.000000, 106.092063) rotate(-180.000000) translate(-131.000000, -106.092063) "></path>
            </g>
        </g>
    </g>
</svg>
