<?xml version="1.0" encoding="UTF-8"?>
<svg width="15px" height="16px" viewBox="0 0 15 16" version="1.1" xmlns="http://www.w3.org/2000/svg" xmlns:xlink="http://www.w3.org/1999/xlink">
    <title>B72F2AC3-52E9-403C-A833-93287753DA2A</title>
    <g id="Observe" stroke="none" stroke-width="1" fill="none" fill-rule="evenodd">
        <g id="zoom" transform="translate(-1310.000000, -192.000000)" fill="#40404B" fill-rule="nonzero">
            <g id="Button/Secondary/32-with-icon/Default" transform="translate(1301.000000, 184.000000)">
                <g id="Icon/Download" transform="translate(9.708333, 8.250000)">
                    <path d="M5.82199675,6.21966991 C6.08826332,6.48593648 6.11246937,6.90260016 5.89461491,7.19621165 L5.82199675,7.28033009 C5.55573019,7.54659665 5.13906651,7.5708027 4.84545501,7.35294824 L4.76133658,7.28033009 L1.23100649,3.75 L4.76133658,0.219669914 C5.0542298,-0.0732233047 5.52910353,-0.0732233047 5.82199675,0.219669914 C6.08826332,0.485936477 6.11246937,0.902600159 5.89461491,1.19621165 L5.82199675,1.28033009 L4.102,2.999 L7.33333333,3 C10.785113,3 13.5833333,5.79822031 13.5833333,9.25 C13.5833333,12.6250735 10.9080965,15.3753119 7.56246021,15.495878 L7.33333333,15.5 L0.75,15.5 C0.335786438,15.5 3.04645198e-13,15.1642136 3.04645198e-13,14.75 C3.04645198e-13,14.3703042 0.282153882,14.056509 0.648229443,14.0068466 L0.75,14 L7.33333333,14 C9.9566859,14 12.0833333,11.8733526 12.0833333,9.25 C12.0833333,6.69951834 10.073192,4.61853034 7.55076133,4.50488786 L7.33333333,4.5 L4.102,4.499 L5.82199675,6.21966991 Z" id="Combined-Shape"></path>
                </g>
            </g>
        </g>
    </g>
</svg>