<?xml version="1.0" encoding="UTF-8"?>
<svg width="16px" height="16px" viewBox="0 0 16 16" version="1.1" xmlns="http://www.w3.org/2000/svg" xmlns:xlink="http://www.w3.org/1999/xlink">
    <title>ED7A0847-8851-4D1A-B0D8-EB681328459B</title>
    <g id="Apps" stroke="none" stroke-width="1" fill="none" fill-rule="evenodd">
        <g id="apps" transform="translate(-236.000000, -340.000000)">
            <g id="Table/Row/Default" transform="translate(216.000000, 320.000000)">
                <g id="Icon/Apps/Webhook" transform="translate(20.000000, 20.000000)">
                    <rect id="Rectangle" stroke="#CCD1F2" stroke-width="2.5" x="1.25" y="1.25" width="13.5" height="13.5" rx="6"></rect>
                    <path d="M8.90439024,9.2 C8.90439024,9.05945946 8.9804878,8.91351351 9.12682927,8.75675676 C9.27317073,8.6 9.44878049,8.44324324 9.65365854,8.28648649 C9.85853659,8.12972973 10.0634146,7.96216216 10.2682927,7.78378378 C10.4731707,7.60540541 10.6487805,7.37837838 10.7892683,7.10810811 C10.9297561,6.83783784 11,6.54594595 11,6.23783784 C11,5.58918919 10.724878,5.05405405 10.1746341,4.63243243 C9.62439024,4.21081081 8.91609756,4 8.0497561,4 C7.18341463,4 6.48097561,4.22702703 5.94243902,4.68648649 C5.40390244,5.14594595 5.08780488,5.7027027 5,6.35675676 L6.72682927,6.84324324 C6.81463415,6.47567568 6.97268293,6.17837838 7.20097561,5.95135135 C7.42926829,5.72432432 7.70439024,5.61081081 8.03219512,5.61081081 C8.32487805,5.61081081 8.55902439,5.67567568 8.73463415,5.80540541 C8.9102439,5.93513514 8.99804878,6.10810811 8.99804878,6.31891892 C8.99804878,6.48648649 8.92780488,6.65405405 8.79317073,6.82162162 C8.65853659,6.98918919 8.49463415,7.15135135 8.30146341,7.30810811 C8.10829268,7.46486486 7.91512195,7.62702703 7.72195122,7.79459459 C7.52878049,7.96216216 7.36487805,8.16756757 7.2302439,8.41081081 C7.09560976,8.65405405 7.02536585,8.91891892 7.02536585,9.2 L8.90439024,9.2 Z M7.95609756,12 C8.26634146,12 8.5297561,11.9027027 8.75219512,11.7027027 C8.97463415,11.5027027 9.08585366,11.2540541 9.08585366,10.9567568 C9.08585366,10.6756757 8.97463415,10.4378378 8.75219512,10.2432432 C8.5297561,10.0486486 8.2604878,9.95135135 7.9502439,9.95135135 C7.62829268,9.95135135 7.35902439,10.0486486 7.14243902,10.2432432 C6.92585366,10.4378378 6.81463415,10.6756757 6.81463415,10.9567568 C6.81463415,11.2540541 6.92585366,11.5027027 7.14243902,11.7027027 C7.35902439,11.9027027 7.62829268,12 7.9502439,12 L7.95609756,12 Z" id="?" fill="#5567D5" fill-rule="nonzero"></path>
                </g>
            </g>
        </g>
    </g>
</svg>
