<?xml version="1.0" encoding="UTF-8"?>
<svg width="16px" height="12px" viewBox="0 0 16 12" version="1.1" xmlns="http://www.w3.org/2000/svg" xmlns:xlink="http://www.w3.org/1999/xlink">
    <title>update-white-icon</title>
    <g id="Portal" stroke="none" stroke-width="1" fill="none" fill-rule="evenodd">
        <g id="Portal-API-Edit" transform="translate(-367.000000, -178.000000)" fill="#FFFFFF" fill-rule="nonzero">
            <g id="Button/Pill/32-with-icon/Default" transform="translate(359.000000, 168.000000)">
                <g id="Icon/Clear" transform="translate(8.000000, 10.000000)">
                    <path d="M2.49978212,4.2931111 L4.85333537,6.64376443 C5.04871785,6.83890617 5.04891301,7.1554886 4.85377127,7.35087108 C4.68031195,7.52454439 4.41089949,7.54399563 4.21594817,7.40911973 L4.14666463,7.35130698 L3.004,6.21 C3.11818189,8.87769329 5.3112453,11 8,11 C9.39729683,11 10.7013714,10.4245935 11.6406747,9.42719183 C11.8299941,9.22616253 12.1464342,9.21666976 12.3474635,9.40598915 C12.5484928,9.59530854 12.5579856,9.91174867 12.3686662,10.112778 C11.2423096,11.3088028 9.67581222,12 8,12 C4.75387017,12 2.10982762,9.42215794 2.00333424,6.20193573 L0.853553391,7.35355339 C0.679987039,7.52711974 0.410562638,7.54640489 0.215694497,7.41140884 L0.146446609,7.35355339 C-0.0271197425,7.17998704 -0.0464048927,6.91056264 0.0885911588,6.7156945 L0.146446609,6.64644661 L2.49978212,4.2931111 Z M8,0 C11.1796337,0 13.7815946,2.47331088 13.9869435,5.60099324 L15.1466646,4.44180412 L15.2159482,4.38399137 C15.4108995,4.24911547 15.6803119,4.26856671 15.8537713,4.44224002 C16.048913,4.6376225 16.0487179,4.95420493 15.8533354,5.14934667 L15.8533354,5.14934667 L13.4997821,7.5 L11.1464466,5.14666449 L11.0885912,5.0774166 C10.9535951,4.88254846 10.9728803,4.61312406 11.1464466,4.43955771 L11.1464466,4.43955771 L11.2156945,4.38170226 C11.4105626,4.24670621 11.679987,4.26599136 11.8535534,4.43955771 L11.8535534,4.43955771 L12.981647,5.56858086 C12.7629121,3.00913769 10.6160857,1 8,1 C6.62191244,1 5.33421489,1.55958014 4.39723754,2.53298892 C4.2057339,2.73193858 3.88920896,2.73797478 3.6902593,2.54647114 C3.49130964,2.3549675 3.48527345,2.03844256 3.67677709,1.8394929 C4.80037399,0.672208437 6.34725012,0 8,0 Z" id="Combined-Shape"></path>
                </g>
            </g>
        </g>
    </g>
</svg>
