<svg xmlns="http://www.w3.org/2000/svg" xmlns:xlink="http://www.w3.org/1999/xlink" width="136" height="32" viewBox="0 0 136 32">
  <defs>
    <clipPath id="clip-path">
      <path id="Path_28" data-name="Path 28" d="M239.491,419.4a6.127,6.127,0,0,1,10.327-2.667l.276-.858a.71.71,0,0,1,.859-.475.64.64,0,0,1,.456.782l-.01.032-.66,2.077.008,0-.406,1.291-.021-.006-.005.02-1.305-.343,0-.013-2.112-.536a.64.64,0,0,1-.464-.776l.01-.034a.709.709,0,0,1,.853-.479l1.393.354a4.6,4.6,0,1,0,1.106,4.566l.044-.166,1.482.4a6.126,6.126,0,1,1-11.834-3.17Z" fill="none"/>
    </clipPath>
  </defs>
  <g id="Group_155" data-name="Group 155" transform="translate(-299 -64.5)">
    <g id="Button_Square_32_with_icon_Default" data-name="Button Square 32 with icon Default" transform="translate(77.5 -306.5)">
      <g id="State">
        <rect id="Rectangle" width="136" height="32" rx="5" transform="translate(221.5 371)" fill="#36b475"/>
      </g>
    </g>
    <g id="Text" transform="translate(68.5 -341.465)">
      <g id="Group_152" data-name="Group 152">
        <path id="Path_15" data-name="Path 15" d="M269.913,417.3v4.588a3.271,3.271,0,0,1-.859,2.368,3.66,3.66,0,0,1-4.781.005,3.255,3.255,0,0,1-.859-2.373V417.3h1.2v4.566a2.286,2.286,0,0,0,.532,1.584,2.229,2.229,0,0,0,3.034,0,2.328,2.328,0,0,0,.527-1.59V417.3Z" fill="#fff"/>
        <path id="Path_16" data-name="Path 16" d="M274.5,419.328a2.6,2.6,0,0,1,1.966.827,3.134,3.134,0,0,1,0,4.158,2.61,2.61,0,0,1-1.966.832,2.28,2.28,0,0,1-1.982-.983v3.148h-1.155v-7.842h1.155v.838a2.278,2.278,0,0,1,1.982-.984Zm-.193,4.78a1.714,1.714,0,0,0,1.3-.532,1.872,1.872,0,0,0,.511-1.347,1.842,1.842,0,0,0-.505-1.338,1.742,1.742,0,0,0-1.3-.526,1.761,1.761,0,0,0-1.3.531,1.961,1.961,0,0,0,0,2.686,1.77,1.77,0,0,0,1.3.531Z" fill="#fff"/>
        <path id="Path_17" data-name="Path 17" d="M283.991,416.965v8.029h-1.144v-.838a2.314,2.314,0,0,1-1.993.984,2.608,2.608,0,0,1-1.966-.833,3.126,3.126,0,0,1,0-4.152,2.608,2.608,0,0,1,1.966-.833,2.291,2.291,0,0,1,1.993.984v-3.335Zm-2.965,7.143a1.767,1.767,0,0,0,1.3-.532,1.963,1.963,0,0,0,0-2.685,1.762,1.762,0,0,0-1.295-.532,1.724,1.724,0,0,0-1.294.527,1.836,1.836,0,0,0-.505,1.337,1.878,1.878,0,0,0,.51,1.348,1.722,1.722,0,0,0,1.3.533Z" fill="#fff"/>
        <path id="Path_18" data-name="Path 18" d="M287.933,425.14a2.608,2.608,0,0,1-1.966-.833,3.126,3.126,0,0,1,0-4.152,2.608,2.608,0,0,1,1.966-.833,2.291,2.291,0,0,1,1.993.984v-.838h1.144V425h-1.144v-.838a2.292,2.292,0,0,1-1.993.983Zm.172-1.032a1.767,1.767,0,0,0,1.3-.532,1.96,1.96,0,0,0,0-2.685,1.762,1.762,0,0,0-1.3-.532,1.724,1.724,0,0,0-1.294.527,1.84,1.84,0,0,0-.505,1.337,1.878,1.878,0,0,0,.51,1.348,1.722,1.722,0,0,0,1.3.533Z" fill="#fff"/>
        <path id="Path_19" data-name="Path 19" d="M295.99,424.822a3.109,3.109,0,0,1-1.219.264,1.614,1.614,0,0,1-1.3-.5,2.058,2.058,0,0,1-.43-1.38v-2.718h-1.01v-1.02h1.01V417.62h1.144v1.848h1.762v1.02h-1.762v2.718c0,.564.263.849.8.849a1.628,1.628,0,0,0,.725-.178Z" fill="#fff"/>
        <path id="Path_20" data-name="Path 20" d="M299.433,425.156a2.915,2.915,0,0,1-2.133-.806,2.82,2.82,0,0,1-.821-2.106,2.9,2.9,0,0,1,.789-2.078,3.022,3.022,0,0,1,4.125-.037,2.993,2.993,0,0,1,.719,2.465h-4.495a1.614,1.614,0,0,0,.537,1.128,1.9,1.9,0,0,0,1.3.429,1.583,1.583,0,0,0,1.573-.891l1.053.311a2.689,2.689,0,0,1-.982,1.113,2.953,2.953,0,0,1-1.676.461Zm1.584-3.325a1.626,1.626,0,0,0-.5-1.079,1.853,1.853,0,0,0-2.369.016,1.635,1.635,0,0,0-.532,1.063Z" fill="#fff"/>
        <path id="Path_21" data-name="Path 21" d="M309.24,417.3a3.574,3.574,0,0,1,2.718,1.074,4.3,4.3,0,0,1,.005,5.543A3.539,3.539,0,0,1,309.24,425H306.1v-7.7h3.136Zm-.021,6.634a2.372,2.372,0,0,0,1.869-.785,2.921,2.921,0,0,0,.692-2.013,2.858,2.858,0,0,0-.692-1.983,2.386,2.386,0,0,0-1.869-.773H307.3v5.543h1.923Z" fill="#fff"/>
        <path id="Path_22" data-name="Path 22" d="M314.268,418.361a.7.7,0,0,1,0-1,.738.738,0,0,1,1.031,0,.707.707,0,0,1,0,1,.753.753,0,0,1-1.031,0Zm-.071,1.107h1.145V425H314.2Z" fill="#fff"/>
        <path id="Path_23" data-name="Path 23" d="M319.321,425.14a2.608,2.608,0,0,1-1.966-.833,3.126,3.126,0,0,1,0-4.152,2.608,2.608,0,0,1,1.966-.833,2.288,2.288,0,0,1,1.993.984v-.838h1.144V425h-1.144v-.838a2.29,2.29,0,0,1-1.993.983Zm.172-1.032a1.765,1.765,0,0,0,1.3-.532,1.96,1.96,0,0,0,0-2.685,1.761,1.761,0,0,0-1.294-.532,1.728,1.728,0,0,0-1.295.527,1.84,1.84,0,0,0-.505,1.337,1.875,1.875,0,0,0,.511,1.348,1.719,1.719,0,0,0,1.3.533Z" fill="#fff"/>
        <path id="Path_24" data-name="Path 24" d="M329.516,419.489v5.333a2.519,2.519,0,0,1-.774,1.907,2.807,2.807,0,0,1-2.03.742,2.779,2.779,0,0,1-2.637-1.446l1.01-.37a1.757,1.757,0,0,0,1.648.838,1.528,1.528,0,0,0,1.193-.468,1.743,1.743,0,0,0,.435-1.2v-.81a2.283,2.283,0,0,1-1.944.934,2.642,2.642,0,0,1-1.982-.805,3,3,0,0,1-.005-4.029,2.653,2.653,0,0,1,1.981-.79,2.287,2.287,0,0,1,1.944.924v-.778Zm-2.933,4.431a1.758,1.758,0,0,0,1.284-.5,1.711,1.711,0,0,0,.516-1.268,1.678,1.678,0,0,0-.516-1.257,1.921,1.921,0,0,0-2.578-.005,1.673,1.673,0,0,0-.505,1.262,1.712,1.712,0,0,0,.51,1.273,1.778,1.778,0,0,0,1.3.5Z" fill="#fff"/>
        <path id="Path_25" data-name="Path 25" d="M332.2,420.354a1.666,1.666,0,0,1,.741-.774,1.9,1.9,0,0,1,1.155-.172v1.074a1.551,1.551,0,0,0-1.4.356,2.3,2.3,0,0,0-.489,1.664V425h-1.154v-5.532H332.2v.881Z" fill="#fff"/>
        <path id="Path_26" data-name="Path 26" d="M337.2,425.14a2.608,2.608,0,0,1-1.966-.833,3.126,3.126,0,0,1,0-4.152,2.608,2.608,0,0,1,1.966-.833,2.288,2.288,0,0,1,1.993.984v-.838h1.144V425h-1.144v-.838a2.29,2.29,0,0,1-1.993.983Zm.172-1.032a1.765,1.765,0,0,0,1.3-.532,1.96,1.96,0,0,0,0-2.685,1.761,1.761,0,0,0-1.294-.532,1.728,1.728,0,0,0-1.295.527,1.84,1.84,0,0,0-.505,1.337,1.875,1.875,0,0,0,.511,1.348,1.719,1.719,0,0,0,1.3.533Z" fill="#fff"/>
        <path id="Path_27" data-name="Path 27" d="M348.4,419.322a2.062,2.062,0,0,1,1.579.629,2.453,2.453,0,0,1,.59,1.74V425H349.41v-3.088a1.742,1.742,0,0,0-.311-1.112,1.125,1.125,0,0,0-.935-.4,1.237,1.237,0,0,0-1.01.462,1.92,1.92,0,0,0-.37,1.241V425H345.64v-3.088a1.779,1.779,0,0,0-.306-1.112,1.061,1.061,0,0,0-.892-.4,1.252,1.252,0,0,0-1.042.484,2.084,2.084,0,0,0-.381,1.321V425h-1.155v-5.532h1.155v.768a2,2,0,0,1,1.74-.914,1.764,1.764,0,0,1,1.7.946,2.168,2.168,0,0,1,1.938-.946Z" fill="#fff"/>
      </g>
    </g>
    <g id="Icon_Download" data-name="Icon Download" transform="translate(76.5 -299.5)">
      <g id="Group_124" data-name="Group 124" transform="translate(-4 -23.863)">
        <g id="Group_154" data-name="Group 154" transform="translate(-2 -17)">
          <g id="Group_153" data-name="Group 153" clip-path="url(#clip-path)">
            <g id="Mask_Group_129" data-name="Mask Group 129">
              <rect id="Color" width="14" height="14" transform="translate(238.5 414)" fill="#fff"/>
            </g>
          </g>
        </g>
      </g>
    </g>
  </g>
</svg>
