<svg id="Icon_User" data-name="Icon/User" xmlns="http://www.w3.org/2000/svg" xmlns:xlink="http://www.w3.org/1999/xlink" width="16" height="16" viewBox="0 0 26 16">
  <defs>
    <clipPath id="clip-path">
      <path id="person" d="M13.728,11.546c-.4-.919-2.347-1.532-3.642-2.1S8.965,8.526,8.921,8.053a1.484,1.484,0,0,1-.009-.2A3.942,3.942,0,0,0,9.954,6.293a.148.148,0,0,1,.018-.044,3.347,3.347,0,0,0,.131-.42.816.816,0,0,0,.534-.683,1.405,1.405,0,0,0,.175-.762c-.044-.438-.219-.639-.412-.718V3.588c0-.552-.053-.357-.149-.882a2.615,2.615,0,0,0-.1-.438A3.214,3.214,0,0,0,9.035.639,3.581,3.581,0,0,0,7,0,3.469,3.469,0,0,0,4.981.639,3.251,3.251,0,0,0,3.86,2.268a2.615,2.615,0,0,0-.1.438,2.459,2.459,0,0,0-.149.882v.07c-.21.079-.394.28-.438.727a1.477,1.477,0,0,0,.175.753c.07.306.245.63.552.683a3.479,3.479,0,0,0,.131.429c0,.009.009.018.009.026l.009.009A3.906,3.906,0,0,0,5.121,7.86c0,.061-.009.123-.009.184-.044.473.088.823-1.2,1.392S.673,10.618.27,11.538A2.285,2.285,0,0,0,.034,13a5.271,5.271,0,0,0,1.971,1h10a5.54,5.54,0,0,0,1.968-1A2.4,2.4,0,0,0,13.728,11.546Z" transform="translate(1 1)" fill="#AAB3EA"/>
    </clipPath>
  </defs>
  <g id="Group_12" data-name="Group 12">
    <path id="person-2" data-name="person" d="M13.728,11.546c-.4-.919-2.347-1.532-3.642-2.1S8.965,8.526,8.921,8.053a1.484,1.484,0,0,1-.009-.2A3.942,3.942,0,0,0,9.954,6.293a.148.148,0,0,1,.018-.044,3.347,3.347,0,0,0,.131-.42.816.816,0,0,0,.534-.683,1.405,1.405,0,0,0,.175-.762c-.044-.438-.219-.639-.412-.718V3.588c0-.552-.053-.357-.149-.882a2.615,2.615,0,0,0-.1-.438A3.214,3.214,0,0,0,9.035.639,3.581,3.581,0,0,0,7,0,3.469,3.469,0,0,0,4.981.639,3.251,3.251,0,0,0,3.86,2.268a2.615,2.615,0,0,0-.1.438,2.459,2.459,0,0,0-.149.882v.07c-.21.079-.394.28-.438.727a1.477,1.477,0,0,0,.175.753c.07.306.245.63.552.683a3.479,3.479,0,0,0,.131.429c0,.009.009.018.009.026l.009.009A3.906,3.906,0,0,0,5.121,7.86c0,.061-.009.123-.009.184-.044.473.088.823-1.2,1.392S.673,10.618.27,11.538A2.285,2.285,0,0,0,.034,13a5.271,5.271,0,0,0,1.971,1h10a5.54,5.54,0,0,0,1.968-1A2.4,2.4,0,0,0,13.728,11.546Z" transform="translate(1 1)" fill="#AAB3EA"/>
    <g id="Mask_Group_14" data-name="Mask Group 14" clip-path="url(#clip-path)">
      <rect id="Color" width="16" height="16" fill="#AAB3EA"/>
    </g>
  </g>
</svg>
