<?xml version="1.0" encoding="UTF-8"?>
<svg width="26px" height="15px" viewBox="-7 1 20 15" version="1.1" xmlns="http://www.w3.org/2000/svg" xmlns:xlink="http://www.w3.org/1999/xlink">
    <title>772EC9A3-F05A-4E09-B33F-64F884813D7B</title>
    <g id="Apps" stroke="none" stroke-width="1" fill="none" fill-rule="evenodd">
        <g id="apps-select-item-enter" transform="translate(-1148.000000, -406.000000)">
            <g id="Table/Row/Default" transform="translate(216.000000, 384.000000)">
                <g id="Button/40/Circle/Default" transform="translate(920.000000, 8.000000)">
                    <g id="Icon/More-Copy-2" transform="translate(12.000000, 16.000000)">
                        <path d="M7.99968604,0 C10.5341615,0 12.9631286,0.912931618 15.3233675,4.84341041 L15.3233675,4.84341041 L16,5.99892012 L15.5429964,6.78485035 C13.1152378,10.9599791 10.6138494,12 7.99968604,12 C5.46521057,12 3.03624344,11.0870684 0.677111073,7.15847082 L0.677111073,7.15847082 L0.456375667,6.78485035 L0,6 L0.456375667,5.21514965 C2.88413426,1.04002089 5.38552272,0 7.99968604,0 Z M7.99968604,1.09090909 C5.75314184,1.09090909 3.49641531,1.92250276 1.22425819,5.83003647 L1.22425819,5.83003647 L1.12513483,5.99890909 L1.43903599,6.53347531 C3.63943322,10.19771 5.82408945,10.9090909 7.99968604,10.9090909 C10.2462302,10.9090909 12.5029568,10.0774972 14.7751139,6.16996353 L14.7751139,6.16996353 L14.872378,6.00109091 L14.5603361,5.46652469 C12.4309194,1.92049108 10.3162446,1.20912337 8.21025615,1.09653739 L8.21025615,1.09653739 Z M8,3 C9.65685425,3 11,4.34314575 11,6 C11,7.65685425 9.65685425,9 8,9 C6.34314575,9 5,7.65685425 5,6 C5,4.34314575 6.34314575,3 8,3 Z M8,4 C6.8954305,4 6,4.8954305 6,6 C6,7.1045695 6.8954305,8 8,8 C9.1045695,8 10,7.1045695 10,6 C10,4.8954305 9.1045695,4 8,4 Z" id="path-1"></path>
                        <use id="Combined-Shape" fill="#FFFFFF" fill-rule="nonzero" xlink:href="#path-1"></use>
                    </g>
                </g>
            </g>
        </g>
    </g>
</svg>
