<?xml version="1.0" encoding="utf-8"?>
<svg width="70px" height="70px" version="1.1" id="Layer_1" xmlns="http://www.w3.org/2000/svg"
     xmlns:xlink="http://www.w3.org/1999/xlink" x="0px" y="0px"
     viewBox="0 0 58 51" style="enable-background:new 0 0 58 51;" xml:space="preserve">
    <style type="text/css">
        .st0{fill:#F7F8FB;stroke:#F0F1FB;stroke-width:2;}
        .st1{fill:#FF9D52;}
    </style>
    <g>
        <path class="st0" d="M34.9,5.6l18.4,31.9c2.6,4.5-0.7,10.2-5.9,10.2H10.6c-5.2,0-8.5-5.7-5.9-10.2L23.1,5.6
            C25.7,1.1,32.3,1.1,34.9,5.6z"/>
        <path class="st1" d="M28.7,33.9L28.7,33.9c1.2,0,2.1-0.9,2.1-2.1V15.7c0-1.2-0.9-2.1-2.1-2.1h0c-1.2,0-2.1,0.9-2.1,2.1v16.1
            C26.6,33,27.5,33.9,28.7,33.9z"/>
        <circle class="st1" cx="28.7" cy="38.3" r="2.1"/>
    </g>
</svg>
