<?xml version="1.0" encoding="UTF-8"?>
<svg width="16px" height="14px" viewBox="0 0 16 14" version="1.1" xmlns="http://www.w3.org/2000/svg" xmlns:xlink="http://www.w3.org/1999/xlink">
    <title>E32B3E37-4644-41B4-BAD3-B06A38F138DB</title>
    <g id="Deploy" stroke="none" stroke-width="1" fill="none" fill-rule="evenodd">
        <g id="Deploy-invoke-URL" transform="translate(-641.000000, -505.000000)">
            <g id="Icon/Alerts/Info-filled" transform="translate(641.000000, 505.000000)">
                <path d="M15.7099089,10.9101562 L9.79757659,1.01171875 C9.41078849,0.3828125 8.74772318,0 8.00177471,0 C7.25582624,0 6.59276093,0.3828125 6.20597283,1.01171875 L0.293640489,10.9101562 C-0.0931476076,11.5390625 -0.0931476076,12.3320313 0.266012768,12.9609375 C0.652800865,13.6171875 1.31586617,14 2.06181465,14 L13.914107,14 C14.6600555,14 15.3507486,13.6171875 15.7099089,12.9609375 C16.096697,12.3320313 16.096697,11.5390625 15.7099089,10.9101562 Z" id="Path" fill="#FF9D52" fill-rule="nonzero"></path>
                <path d="M8,3 C8.55228475,3 9,3.44771525 9,4 L9,8 C9,8.55228475 8.55228475,9 8,9 C7.44771525,9 7,8.55228475 7,8 L7,4 C7,3.44771525 7.44771525,3 8,3 Z M8,10 C8.55228475,10 9,10.4477153 9,11 C9,11.5522847 8.55228475,12 8,12 C7.44771525,12 7,11.5522847 7,11 C7,10.4477153 7.44771525,10 8,10 Z" id="Combined-Shape" fill="#FFFFFF"></path>
            </g>
        </g>
    </g>
</svg>
