<?xml version="1.0" encoding="UTF-8"?>
<svg width="16px" height="15px" viewBox="0 0 16 15" version="1.1" xmlns="http://www.w3.org/2000/svg" xmlns:xlink="http://www.w3.org/1999/xlink">
    <title>C1C6B30F-6A0F-4DAD-B799-76CE0520F926</title>
    <g id="Observe" stroke="none" stroke-width="1" fill="none" fill-rule="evenodd">
        <g id="Observe-Logs-View" transform="translate(-93.000000, -253.000000)">
            <g id="Icon/Control/Burger" transform="translate(93.000000, 253.000000)">
                <path d="M7.99994993,0 C9.01720544,0 9.91895011,0.634531535 10.5332604,1.72198432 L10.5332604,1.72198432 L15.4809384,10.4823141 C16.1000237,11.5787342 16.179673,12.7141003 15.6423654,13.629785 C15.1142195,14.5287288 14.1166601,15 12.8842041,15 L12.8842041,15 L3.11618334,15 C1.88391503,15 0.886079856,14.528515 0.358033622,13.6298046 C-0.179775352,12.7144786 -0.100212696,11.5787241 0.519480084,10.4822592 L0.519480084,10.4822592 L5.46683637,1.72208526 C6.08116119,0.634606826 6.98274423,0 7.99994993,0 Z M7.99993292,1.73076923 C7.531825,1.73076923 7.07703895,2.0527535 6.71392173,2.69929731 L6.71392173,2.69929731 L2.02223074,11.0552786 C1.66663326,11.6881355 1.62923222,12.2251517 1.85732541,12.6156225 C2.09485087,13.0222404 2.61453853,13.2692308 3.36861376,13.2692308 L3.36861376,13.2692308 L12.6317145,13.2692308 C13.3859774,13.2692308 13.9053932,13.0224133 14.142799,12.6159717 C14.3707407,12.2252429 14.3332683,11.6879706 13.9779957,11.0550974 L13.9779957,11.0550974 L9.28613781,2.69921339 C8.92305151,2.05272464 8.46817074,1.73076923 7.99993292,1.73076923 Z M8.02094631,9.60297767 C8.51430242,9.60297767 8.91424656,10.0029218 8.91424656,10.4962779 C8.91424656,10.989634 8.51430242,11.3895782 8.02094631,11.3895782 L7.97909681,11.3895782 C7.4857407,11.3895782 7.08579656,10.989634 7.08579656,10.4962779 C7.08579656,10.0029218 7.4857407,9.60297767 7.97909681,9.60297767 L8.02094631,9.60297767 Z M8.00002156,4.24317618 C8.50493408,4.24317618 8.91424656,4.65248865 8.91424656,5.15740118 L8.91424656,7.79545242 C8.91424656,8.30036494 8.50493408,8.70967742 8.00002156,8.70967742 C7.49510903,8.70967742 7.08579656,8.30036494 7.08579656,7.79545242 L7.08579656,5.15740118 C7.08579656,4.65248865 7.49510903,4.24317618 8.00002156,4.24317618 Z" id="path-1"></path>
                <use id="Combined-Shape" fill="#CBCEDB" fill-rule="nonzero" xlink:href="#path-1"></use>
            </g>
        </g>
    </g>
</svg>