<svg id="Icon_Controls_Plus" data-name="Icon/Controls/Plus" xmlns="http://www.w3.org/2000/svg" xmlns:xlink="http://www.w3.org/1999/xlink" width="18" height="18" viewBox="0 0 18 18">
  <defs>
    <clipPath id="clip-path">
      <path id="Shape" d="M5,11V7H1A1,1,0,0,1,1,5H5V1A1,1,0,0,1,7,1V5h4a1,1,0,0,1,0,2H7v4a1,1,0,0,1-2,0Z" transform="translate(3 3)"/>
    </clipPath>
  </defs>
  <g id="Group_141" data-name="Group 141">
    <path id="Shape-2" data-name="Shape" d="M5,11V7H1A1,1,0,0,1,1,5H5V1A1,1,0,0,1,7,1V5h4a1,1,0,0,1,0,2H7v4a1,1,0,0,1-2,0Z" transform="translate(3 3)"/>
    <g id="Mask_Group_144" data-name="Mask Group 144" clip-path="url(#clip-path)">
      <rect id="Color" width="18" height="18" fill="#8d91a3"/>
    </g>
  </g>
</svg>
