<svg width="132" height="20" viewBox="0 0 132 20" fill="none" xmlns="http://www.w3.org/2000/svg">
    <g clip-path="url(#clip0_2887_1305)">
        <path d="M129.562 0.5L130.345 1.85052L129.477 3.3502H131.213L132 4.70072H127.121L129.562 0.5Z" fill="#FF7300"/>
        <path d="M123.464 4.70072L124.251 3.34617L125.986 3.3502L125.118 1.85052L125.901 0.5L128.342 4.70072H123.464Z" fill="#FF7300"/>
        <path d="M128.602 7.84916L127.734 6.3535L126.862 7.84916H125.293L127.734 3.64844L130.171 7.84916H128.602Z" fill="black"/>
        <path d="M17.8877 19.4917V16.3392H25.8604C26.0346 16.3392 26.207 16.3051 26.3679 16.2388C26.5288 16.1726 26.675 16.0755 26.7981 15.953C26.9212 15.8306 27.0189 15.6853 27.0856 15.5254C27.1522 15.3654 27.1865 15.194 27.1865 15.0209C27.1865 14.8478 27.1522 14.6763 27.0856 14.5164C27.0189 14.3565 26.9212 14.2111 26.7981 14.0887C26.675 13.9663 26.5288 13.8692 26.3679 13.803C26.207 13.7367 26.0346 13.7026 25.8604 13.7026H22.3729C21.1833 13.7026 20.0425 13.2329 19.2014 12.3967C18.3602 11.5605 17.8877 10.4264 17.8877 9.24389C17.8877 8.06136 18.3602 6.92726 19.2014 6.09109C20.0425 5.25491 21.1833 4.78516 22.3729 4.78516H30.3456V7.92562H22.3729C22.0197 7.93668 21.6841 8.08136 21.4346 8.33012C21.1851 8.57887 21.0406 8.91292 21.0306 9.26404C21.03 9.43731 21.064 9.60898 21.1304 9.76916C21.1969 9.92934 21.2945 10.0749 21.4178 10.1974C21.541 10.3199 21.6874 10.417 21.8485 10.483C22.0097 10.5491 22.1823 10.5828 22.3566 10.5823H25.8442C27.0337 10.5823 28.1746 11.0521 29.0157 11.8882C29.8568 12.7244 30.3294 13.8585 30.3294 15.041C30.3294 16.2236 29.8568 17.3577 29.0157 18.1938C28.1746 19.03 27.0337 19.4998 25.8442 19.4998L17.8877 19.4917Z" fill="black"/>
        <path d="M38.898 19.4919C37.9128 19.5148 36.933 19.3418 36.0161 18.9828C35.0993 18.6239 34.2638 18.0864 33.5589 17.4019C32.854 16.7173 32.2939 15.8996 31.9115 14.9968C31.529 14.094 31.332 13.1243 31.332 12.1447C31.332 11.1651 31.529 10.1953 31.9115 9.29252C32.2939 8.38969 32.854 7.57198 33.5589 6.88745C34.2638 6.20293 35.0993 5.66541 36.0161 5.30649C36.933 4.94757 37.9128 4.77448 38.898 4.79743H45.1269V7.93789H38.898C37.7983 7.97174 36.7551 8.42978 35.9893 9.21501C35.2235 10.0002 34.7953 11.051 34.7953 12.1447C34.7953 13.2383 35.2235 14.2891 35.9893 15.0743C36.7551 15.8595 37.7983 16.3176 38.898 16.3514H41.9719V13.7149H39.6482V10.5744H45.131V19.4919H38.898Z" fill="black"/>
        <path d="M75.2707 19.4918L68.1415 12.4691V19.4918H64.9824V4.79737H72.9552C73.8422 4.79633 74.7096 5.05704 75.4475 5.54646C76.1853 6.03587 76.7605 6.73199 77.1001 7.54662C77.4397 8.36125 77.5285 9.25775 77.3551 10.1226C77.1818 10.9874 76.7541 11.7816 76.1264 12.4046C75.7585 12.7761 75.3309 13.0841 74.8611 13.3157L73.9203 13.7713L79.6869 19.4918H75.2707ZM72.9552 10.5744C73.2968 10.5556 73.6183 10.4075 73.8535 10.1605C74.0887 9.91342 74.2198 9.58618 74.2198 9.24602C74.2198 8.90586 74.0887 8.57862 73.8535 8.33156C73.6183 8.0845 73.2968 7.93639 72.9552 7.91767H68.1415V10.5542L72.9552 10.5744Z" fill="black"/>
        <path d="M80.8584 19.4919V4.79743H87.0873C88.0725 4.77448 89.0523 4.94757 89.9692 5.30649C90.886 5.66541 91.7215 6.20293 92.4264 6.88745C93.1313 7.57198 93.6914 8.38969 94.0739 9.29252C94.4563 10.1953 94.6533 11.1651 94.6533 12.1447C94.6533 13.1243 94.4563 14.094 94.0739 14.9968C93.6914 15.8996 93.1313 16.7173 92.4264 17.4019C91.7215 18.0864 90.886 18.6239 89.9692 18.9828C89.0523 19.3418 88.0725 19.5148 87.0873 19.4919H80.8584ZM87.0873 16.3393C88.187 16.3055 89.2302 15.8474 89.996 15.0622C90.7618 14.277 91.1901 13.2263 91.1901 12.1326C91.1901 11.0389 90.7618 9.98814 89.996 9.20292C89.2302 8.41769 88.187 7.95964 87.0873 7.9258H84.0175V16.3393H87.0873Z" fill="black"/>
        <path d="M116.403 19.4919C114.695 19.4913 113.04 18.9019 111.72 17.8243C110.4 16.7466 109.496 15.2473 109.163 13.5817C108.83 11.9162 109.088 10.1873 109.894 8.68976C110.699 7.19218 112.002 6.01846 113.58 5.36853C115.158 4.7186 116.914 4.63266 118.549 5.12533C120.183 5.61801 121.596 6.65884 122.545 8.07054C123.495 9.48223 123.922 11.1775 123.756 12.8675C123.589 14.5575 122.838 16.1378 121.631 17.3392C120.956 18.0367 120.143 18.5881 119.243 18.9585C118.344 19.329 117.377 19.5106 116.403 19.4919ZM116.403 7.93794C115.423 7.93621 114.472 8.27272 113.712 8.89008C112.953 9.50745 112.433 10.3675 112.24 11.3235C112.048 12.2795 112.195 13.2723 112.656 14.1327C113.118 14.993 113.865 15.6677 114.771 16.0415C115.677 16.4154 116.685 16.4654 117.623 16.1829C118.562 15.9004 119.373 15.303 119.918 14.4926C120.464 13.6821 120.709 12.7087 120.613 11.7384C120.517 10.7681 120.086 9.86091 119.392 9.17155C119.004 8.77547 118.539 8.4619 118.025 8.24985C117.511 8.0378 116.96 7.93169 116.403 7.93794Z" fill="black"/>
        <path d="M0 19.4918H3.53216L8.5364 10.8767L13.5366 19.4918H17.0647L8.5364 4.79736L0 19.4918Z" fill="black"/>
        <path d="M46.498 19.4918H50.0302L55.0304 10.8767L60.0306 19.4918H63.5628L55.0304 4.79736L46.498 19.4918Z" fill="black"/>
        <path d="M95.8428 19.4477V4.80566H108.191V7.91791H98.9937V10.6109H105.892V13.6465H98.9937V16.3314H108.191V19.4477H95.8428Z" fill="black"/>
    </g>
    <defs>
        <clipPath id="clip0_2887_1305">
            <rect width="132" height="19" fill="white" transform="translate(0 0.5)"/>
        </clipPath>
    </defs>
</svg>
