<svg width="50" height="50" viewBox="0 0 50 50" fill="none" xmlns="http://www.w3.org/2000/svg">
<path d="M37.6473 1H12.3527C6.0828 1 1 6.0828 1 12.3527V37.6472C1 43.9172 6.0828 49 12.3527 49H37.6473C43.9172 49 49 43.9172 49 37.6472V12.3527C49 6.0828 43.9172 1 37.6473 1Z" fill="#34B3EB"/>
<path d="M44.3047 31.8267V18.2648H47V31.8267H44.3047Z" fill="white"/>
<path d="M40.2285 31.8267L39.122 28.8854H33.022L31.8966 31.8267H29.1445L34.3366 18.2648H37.7885L42.9996 31.8267H40.2285ZM33.8921 26.54H38.233L36.0578 20.8088L33.8921 26.54Z" fill="white"/>
<path d="M22.995 32.101H22.9856C20.9428 32.101 19.2499 31.4295 17.8975 30.0771C16.5451 28.7247 15.8642 27.0413 15.8642 25.0268C15.8642 23.0313 16.5451 21.3574 17.8975 20.0144C19.2499 18.6715 20.9522 18 22.995 18C25.0378 18 26.7307 18.6715 28.0831 20.0144C29.4355 21.3574 30.107 23.0313 30.107 25.0268C30.107 27.0413 29.4355 28.7247 28.0831 30.0771C26.7307 31.4295 25.0378 32.101 22.995 32.101ZM22.9761 29.642V29.6515C24.2907 29.6515 25.3594 29.207 26.1822 28.3275C27.005 27.4479 27.4116 26.3509 27.4116 25.0363C27.4116 23.7406 27.005 22.653 26.1822 21.7735C25.3594 20.894 24.2907 20.4589 22.9761 20.4589C21.6615 20.4589 20.5929 20.894 19.7701 21.7735C18.9473 22.653 18.5406 23.7406 18.5406 25.0363C18.5406 26.3509 18.9473 27.4479 19.7701 28.3275C20.5929 29.207 21.6615 29.642 22.9761 29.642Z" fill="white"/>
<path d="M14.084 31.8267L12.9775 28.8854H6.87752L5.7521 31.8267H3L8.1921 18.2648H11.644L16.8551 31.8267H14.084ZM7.7476 26.54H12.0885L9.91334 20.8088L7.7476 26.54Z" fill="white"/>
</svg>
