<svg width="16" height="16" viewBox="0 0 16 16" fill="none" xmlns="http://www.w3.org/2000/svg">
<path fill-rule="evenodd" clip-rule="evenodd" d="M2.36066 2.03604C2.36066 2.49948 2.09356 2.90054 1.70491 3.09368V6.36386C1.70491 6.65358 1.93978 6.88845 2.2295 6.88845H3.40985V4.00325C3.40985 2.26492 4.81905 0.855713 6.55739 0.855713H12.8525C14.5908 0.855713 16 2.26492 16 4.00325V10.5942C16 12.1691 14.7233 13.4459 13.1483 13.4459C13.0492 13.4459 12.9606 13.5073 12.9258 13.6001L12.5383 14.6334C12.3625 15.1023 11.7992 15.2898 11.3774 15.0198L8.98269 13.4872C8.94048 13.4602 8.89141 13.4459 8.8413 13.4459H6.55739C4.81905 13.4459 3.40985 12.0367 3.40985 10.2983V7.93763H2.2295C1.36033 7.93763 0.655731 7.23302 0.655731 6.36386V3.09367C0.267087 2.90053 0 2.49948 0 2.03604C0 1.38416 0.528451 0.855713 1.18033 0.855713C1.83221 0.855713 2.36066 1.38416 2.36066 2.03604ZM7.34428 6.10161C7.77886 6.10161 8.13116 5.74931 8.13116 5.31473C8.13116 4.88014 7.77886 4.52784 7.34428 4.52784C6.90969 4.52784 6.55739 4.88014 6.55739 5.31473C6.55739 5.74931 6.90969 6.10161 7.34428 6.10161ZM12.8525 5.31473C12.8525 5.74931 12.5002 6.10161 12.0656 6.10161C11.631 6.10161 11.2787 5.74931 11.2787 5.31473C11.2787 4.88014 11.631 4.52784 12.0656 4.52784C12.5002 4.52784 12.8525 4.88014 12.8525 5.31473ZM12.2046 7.87706C12.4554 8.02213 12.5411 8.34304 12.396 8.59382C11.8072 9.61166 10.7054 10.2984 9.44265 10.2984C8.94663 10.2984 8.47402 10.1921 8.04748 10.0007C7.78317 9.88201 7.66508 9.57156 7.78373 9.30724C7.90237 9.04293 8.21283 8.92484 8.47714 9.04349C8.77121 9.17549 9.09762 9.24918 9.44265 9.24918C10.3158 9.24918 11.0789 8.77544 11.4878 8.06847C11.6329 7.81768 11.9538 7.73199 12.2046 7.87706Z" fill="url(#paint0_linear_1_26735)"/>
<defs>
<linearGradient id="paint0_linear_1_26735" x1="14.5" y1="13" x2="1.5" y2="-1" gradientUnits="userSpaceOnUse">
<stop offset="0.148766" stop-color="#415CFD"/>
<stop offset="1" stop-color="#D118FF"/>
</linearGradient>
</defs>
</svg>
