<svg width="50" height="50" viewBox="0 0 50 50" fill="none" xmlns="http://www.w3.org/2000/svg">
<path d="M44.6364 3H35.9091V11.7273H44.6364V3Z" fill="black"/>
<path d="M49 3H40.2727V11.7273H49V3Z" fill="#F7D046"/>
<path d="M9.72727 3H1V11.7273H9.72727V3Z" fill="black"/>
<path d="M9.72727 11.7273H1V20.4546H9.72727V11.7273Z" fill="black"/>
<path d="M9.72727 20.4546H1V29.1819H9.72727V20.4546Z" fill="black"/>
<path d="M9.72727 29.1818H1V37.909H9.72727V29.1818Z" fill="black"/>
<path d="M9.72727 37.9091H1V46.6363H9.72727V37.9091Z" fill="black"/>
<path d="M14.0909 3H5.36365V11.7273H14.0909V3Z" fill="#F7D046"/>
<path d="M49 11.7273H40.2727V20.4546H49V11.7273Z" fill="#F2A73B"/>
<path d="M14.0909 11.7273H5.36365V20.4546H14.0909V11.7273Z" fill="#F2A73B"/>
<path d="M35.9091 11.7273H27.1818V20.4546H35.9091V11.7273Z" fill="black"/>
<path d="M40.2727 11.7273H31.5454V20.4546H40.2727V11.7273Z" fill="#F2A73B"/>
<path d="M22.8182 11.7273H14.0909V20.4546H22.8182V11.7273Z" fill="#F2A73B"/>
<path d="M31.5454 20.4546H22.8182V29.1819H31.5454V20.4546Z" fill="#EE792F"/>
<path d="M40.2727 20.4546H31.5454V29.1819H40.2727V20.4546Z" fill="#EE792F"/>
<path d="M22.8182 20.4546H14.0909V29.1819H22.8182V20.4546Z" fill="#EE792F"/>
<path d="M27.1818 29.1818H18.4546V37.909H27.1818V29.1818Z" fill="black"/>
<path d="M31.5454 29.1818H22.8182V37.909H31.5454V29.1818Z" fill="#EB5829"/>
<path d="M49 20.4546H40.2727V29.1819H49V20.4546Z" fill="#EE792F"/>
<path d="M14.0909 20.4546H5.36365V29.1819H14.0909V20.4546Z" fill="#EE792F"/>
<path d="M44.6364 29.1818H35.9091V37.909H44.6364V29.1818Z" fill="black"/>
<path d="M49 29.1818H40.2727V37.909H49V29.1818Z" fill="#EB5829"/>
<path d="M44.6364 37.9091H35.9091V46.6363H44.6364V37.9091Z" fill="black"/>
<path d="M14.0909 29.1818H5.36365V37.909H14.0909V29.1818Z" fill="#EB5829"/>
<path d="M49 37.9091H40.2727V46.6363H49V37.9091Z" fill="#EA3326"/>
<path d="M14.0909 37.9091H5.36365V46.6363H14.0909V37.9091Z" fill="#EA3326"/>
</svg>
