<svg width="50" height="50" viewBox="0 0 50 50" fill="none" xmlns="http://www.w3.org/2000/svg">
<path d="M45.2405 20.6461C46.3295 17.3776 45.9545 13.797 44.213 10.8239C41.5939 6.26384 36.3288 3.91778 31.1867 5.02181C28.8991 2.44475 25.6126 0.979222 22.167 1.00022C16.9109 0.988222 12.2473 4.37229 10.6302 9.3734C7.25366 10.0649 4.3391 12.1785 2.63357 15.174C-0.00499105 19.7221 0.596522 25.4552 4.1216 29.3553C3.03257 32.6239 3.40758 36.2045 5.14912 39.1775C7.76817 43.7376 13.0333 46.0837 18.1754 44.9797C20.4614 47.5567 23.7495 49.0223 27.1951 48.9997C32.4542 49.0132 37.1193 45.6262 38.7363 40.6206C42.1129 39.9291 45.0275 37.8155 46.733 34.8199C49.3686 30.2718 48.7655 24.5432 45.242 20.6431L45.2405 20.6461ZM27.1981 45.8632C25.0935 45.8662 23.055 45.1297 21.4395 43.7811C21.513 43.7421 21.6405 43.6716 21.723 43.6206L31.2812 38.1005C31.7702 37.823 32.0702 37.3025 32.0672 36.74V23.2652L36.1068 25.5977C36.1503 25.6187 36.1788 25.6607 36.1848 25.7088V36.8675C36.1788 41.8296 32.1602 45.8527 27.1981 45.8632ZM7.87168 37.6085C6.81715 35.7875 6.43765 33.6529 6.79915 31.5814C6.86966 31.6234 6.99416 31.6999 7.08266 31.7509L16.6409 37.271C17.1254 37.5545 17.7254 37.5545 18.2114 37.271L29.8801 30.5329V35.198C29.8831 35.246 29.8606 35.2925 29.8231 35.3225L20.1614 40.9011C15.8578 43.3791 10.3617 41.9061 7.87318 37.6085H7.87168ZM5.35612 16.7446C6.40615 14.9205 8.06368 13.5255 10.0377 12.801C10.0377 12.8835 10.0332 13.029 10.0332 13.131V24.1727C10.0302 24.7337 10.3302 25.2542 10.8177 25.5317L22.4865 32.2684L18.4469 34.6009C18.4064 34.6279 18.3554 34.6324 18.3104 34.6129L8.64719 29.0298C4.3526 26.5428 2.87957 21.0482 5.35462 16.7461L5.35612 16.7446ZM38.5458 24.4682L26.8771 17.7301L30.9167 15.399C30.9572 15.372 31.0082 15.3675 31.0532 15.387L40.7164 20.9657C45.0185 23.4512 46.493 28.9548 44.0074 33.2569C42.9559 35.0779 41.2999 36.473 39.3274 37.199V25.8273C39.3318 25.2662 39.0333 24.7472 38.5473 24.4682H38.5458ZM42.5659 18.4171C42.4954 18.3736 42.3709 18.2986 42.2824 18.2476L32.7242 12.7275C32.2397 12.444 31.6397 12.444 31.1537 12.7275L19.4849 19.4656V14.8005C19.4819 14.7525 19.5044 14.706 19.5419 14.676L29.2036 9.1019C33.5072 6.61934 39.0093 8.09688 41.4904 12.402C42.5389 14.22 42.9184 16.3486 42.5629 18.4171H42.5659ZM17.2889 26.7318L13.2478 24.3992C13.2043 24.3782 13.1758 24.3362 13.1698 24.2882V13.1295C13.1728 8.16138 17.2034 4.13529 22.1715 4.13829C24.273 4.13829 26.3071 4.87631 27.9226 6.22033C27.8491 6.25934 27.7231 6.32984 27.6391 6.38084L18.0809 11.901C17.5919 12.1785 17.2919 12.6975 17.2949 13.26L17.2889 26.7288V26.7318ZM19.4834 22.0007L24.681 18.9991L29.8786 21.9992V28.0008L24.681 31.0009L19.4834 28.0008V22.0007Z" fill="black"/>
</svg>
