<svg width="16" height="17" viewBox="0 0 16 17" fill="none" xmlns="http://www.w3.org/2000/svg">
<path fill-rule="evenodd" clip-rule="evenodd" d="M8 0.365852C3.58172 0.365852 0 3.94757 0 8.36585C0 12.7841 3.58172 16.3659 8 16.3659L8.03287 16.3658L8.05 16.3659C8.06815 16.3659 8.08627 16.3656 8.10435 16.3652C12.4745 16.3093 16 12.7493 16 8.36585C16 3.98241 12.4745 0.422382 8.10435 0.366519C8.08627 0.366075 8.06815 0.365852 8.05 0.365852L8.03287 0.365918L8 0.365852ZM5.77915 1.72549C4.14789 2.27082 2.78418 3.40042 1.93648 4.86585H4.43749C4.73708 3.5963 5.19842 2.51164 5.77915 1.72549ZM1 8.36585C1 7.48505 1.16268 6.64225 1.45963 5.86585H4.24141C4.11657 6.65391 4.05 7.49468 4.05 8.36585C4.05 9.23703 4.11657 10.0778 4.24141 10.8659H1.45963C1.16268 10.0895 1 9.24665 1 8.36585ZM1.93648 11.8659C2.78418 13.3313 4.14789 14.4609 5.77916 15.0062C5.19843 14.2201 4.73708 13.1354 4.43749 11.8659H1.93648ZM5.4703 11.8659C6.0089 13.9568 6.9977 15.353 8.03561 15.3658L8.08391 15.3654C9.11469 15.3354 10.0945 13.9437 10.6297 11.8659H5.4703ZM11.6625 11.8659C11.3687 13.1107 10.9195 14.1778 10.3546 14.96C11.9266 14.3986 13.2391 13.291 14.0635 11.8659H11.6625ZM14.5404 10.8659H11.8586C11.9834 10.0778 12.05 9.23703 12.05 8.36585C12.05 7.49468 11.9834 6.65391 11.8586 5.86585H14.5404C14.8373 6.64225 15 7.48505 15 8.36585C15 9.24665 14.8373 10.0895 14.5404 10.8659ZM10.8428 10.8659H5.25717C5.12425 10.0913 5.05 9.24905 5.05 8.36585C5.05 7.48265 5.12425 6.64039 5.25717 5.86585H10.8428C10.9757 6.64039 11.05 7.48265 11.05 8.36585C11.05 9.24905 10.9757 10.0913 10.8428 10.8659ZM11.6625 4.86585H14.0635C13.2391 3.44066 11.9266 2.3331 10.3546 1.77173C10.9195 2.55393 11.3687 3.62101 11.6625 4.86585ZM8.03561 1.36594C6.9977 1.37874 6.0089 2.77489 5.4703 4.86585H10.6297C10.0945 2.78801 9.11469 1.39628 8.08391 1.36635L8.03561 1.36594Z" fill="#40404B"/>
</svg>
