<svg width="48" height="48" viewBox="0 0 48 48" fill="none" xmlns="http://www.w3.org/2000/svg">
<g clip-path="url(#clip0_1684_19733)">
<path d="M0 19C0 16.7909 1.79086 15 4 15H9.67157C10.202 15 10.7107 15.2107 11.0858 15.5858L15.6213 20.1213C16.1839 20.6839 16.947 21 17.7426 21H38C40.2091 21 42 22.7909 42 25V44C42 46.2091 40.2091 48 38 48H4C1.79086 48 0 46.2091 0 44V19Z" fill="#F0F1F4"/>
<path fill-rule="evenodd" clip-rule="evenodd" d="M15.7146 25.7274C15.8402 25.3326 15.622 24.9109 15.2273 24.7853C14.8326 24.6597 14.4108 24.8778 14.2852 25.2726L10.7852 36.2726C10.6596 36.6673 10.8778 37.0891 11.2725 37.2147C11.6672 37.3402 12.089 37.1221 12.2146 36.7274L15.7146 25.7274ZM9.03025 26.9696C9.32315 27.2625 9.32315 27.7374 9.03025 28.0303L6.06058 31L9.03025 33.9696C9.32315 34.2625 9.32315 34.7374 9.03025 35.0303C8.73736 35.3232 8.26249 35.3232 7.96959 35.0303L4.82315 31.8838C4.33499 31.3957 4.33499 30.6042 4.82315 30.1161L7.96959 26.9696C8.26249 26.6767 8.73736 26.6767 9.03025 26.9696ZM17.4696 35.0303C17.1767 34.7374 17.1767 34.2625 17.4696 33.9696L20.4393 31L17.4696 28.0303C17.1767 27.7374 17.1767 27.2625 17.4696 26.9696C17.7625 26.6767 18.2374 26.6767 18.5303 26.9696L21.6767 30.1161C22.1649 30.6042 22.1649 31.3957 21.6767 31.8838L18.5303 35.0303C18.2374 35.3232 17.7625 35.3232 17.4696 35.0303Z" fill="#40404B"/>
<path fill-rule="evenodd" clip-rule="evenodd" d="M26 0V11.5033L35.6491 15.2119V0H26ZM32.593 17.6499L26 15.1089V20.1566L32.593 17.6499ZM35.6491 20.088V25.6508L30.9447 41H26V23.7622L35.6491 20.088ZM48.6291 0V11.5033L38.98 15.2119V0H48.6291ZM48.6288 15.1089L42.0015 17.6499L48.6288 20.1566V15.1089ZM38.98 25.6508V20.088L48.6291 23.7622V41H43.65L38.98 25.6508Z" fill="url(#paint0_angular_1684_19733)"/>
</g>
<defs>
<radialGradient id="paint0_angular_1684_19733" cx="0" cy="0" r="1" gradientUnits="userSpaceOnUse" gradientTransform="translate(26 12) rotate(21.3706) scale(24.6982 27.8939)">
<stop stop-color="#C8D0FF"/>
<stop offset="0.0001" stop-color="#B1BDFF"/>
<stop offset="1" stop-color="#7E8FFA"/>
</radialGradient>
<clipPath id="clip0_1684_19733">
<rect width="48" height="48" fill="white"/>
</clipPath>
</defs>
</svg>
