<svg width="48" height="48" viewBox="0 0 48 48" fill="none" xmlns="http://www.w3.org/2000/svg">
<g clip-path="url(#clip0_529_26841)">
<rect x="-7.46875" y="18.9062" width="37.2999" height="51.221" rx="18.6499" transform="rotate(-45 -7.46875 18.9062)" fill="#F0F1F4"/>
<path fill-rule="evenodd" clip-rule="evenodd" d="M34.1917 18.7062C34.4752 19.101 34.1889 19.9999 33.7028 19.9999H4.3913C3.15127 19.9999 2.00746 20.7586 1.73143 21.9675C-0.218791 30.5088 6.25614 38.9999 15.3662 38.9999H21.0984C29.788 38.9999 37.0315 32.8087 38.6584 24.5969C38.9012 23.3717 40.8139 22.4898 42.0617 22.4362L43.4 22.3788C44.5056 22.3314 45.5212 21.8365 46.2363 21.0418C46.8248 20.3879 46.7813 19.3736 46.1389 18.7725C45.3583 18.042 44.3041 17.6359 43.1985 17.6834L41.8602 17.7408C40.3755 17.8045 39.053 18.6752 38.4026 19.9953C38.4012 19.9981 38.3983 19.9999 38.3952 19.9999C38.3892 19.9999 38.3852 19.9936 38.3878 19.9882C38.9936 18.6858 38.8575 17.1464 38.0093 15.9651L37.289 14.9619C36.6426 14.0616 35.667 13.4867 34.6075 13.3339C33.7515 13.2105 32.9428 13.7911 32.7861 14.6417C32.5921 15.6944 32.825 16.8027 33.4713 17.7029L34.1917 18.7062Z" fill="url(#paint0_angular_529_26841)"/>
<path fill-rule="evenodd" clip-rule="evenodd" d="M12.25 13.5C12.25 13.0858 12.5858 12.75 13 12.75H16C16.4142 12.75 16.75 13.0858 16.75 13.5C16.75 13.9142 16.4142 14.25 16 14.25H13C12.5858 14.25 12.25 13.9142 12.25 13.5ZM8.25 16.5C8.25 16.0858 8.58579 15.75 9 15.75H12C12.4142 15.75 12.75 16.0858 12.75 16.5C12.75 16.9142 12.4142 17.25 12 17.25H9C8.58579 17.25 8.25 16.9142 8.25 16.5ZM14.25 16.5C14.25 16.0858 14.5858 15.75 15 15.75H18C18.4142 15.75 18.75 16.0858 18.75 16.5C18.75 16.9142 18.4142 17.25 18 17.25H15C14.5858 17.25 14.25 16.9142 14.25 16.5ZM21 15.75C20.5858 15.75 20.25 16.0858 20.25 16.5C20.25 16.9142 20.5858 17.25 21 17.25H24C24.4142 17.25 24.75 16.9142 24.75 16.5C24.75 16.0858 24.4142 15.75 24 15.75H21ZM19 12.75C18.5858 12.75 18.25 13.0858 18.25 13.5C18.25 13.9142 18.5858 14.25 19 14.25H22C22.4142 14.25 22.75 13.9142 22.75 13.5C22.75 13.0858 22.4142 12.75 22 12.75H19Z" fill="#40404B"/>
</g>
<defs>
<radialGradient id="paint0_angular_529_26841" cx="0" cy="0" r="1" gradientUnits="userSpaceOnUse" gradientTransform="translate(22.5936 28.7238) rotate(-29.2781) scale(19.6289 12.6688)">
<stop stop-color="#C8D0FF"/>
<stop offset="0.0001" stop-color="#B1BDFF"/>
<stop offset="1" stop-color="#7E8FFA"/>
</radialGradient>
<clipPath id="clip0_529_26841">
<rect width="48" height="48" fill="white"/>
</clipPath>
</defs>
</svg>
