<svg width="490" height="213" viewBox="0 0 490 213" fill="none" xmlns="http://www.w3.org/2000/svg">
<path d="M152.476 106.151C151.352 120.47 145.056 132.681 136.421 141.818C127.768 150.933 116.759 156.99 103.487 160.511C90.2513 164.039 74.7542 165.034 61.6209 158.475C48.4703 151.895 37.6844 137.725 34.1255 123.384C30.5865 109.066 34.2724 94.5375 38.1329 79.5459C41.9934 64.5543 46.0098 49.0766 55.927 44.9609C65.8441 40.8452 81.6259 48.0854 97.5545 52.3203C113.464 56.5712 129.502 57.797 139.535 66.6118C149.551 75.4427 153.6 91.8324 152.476 106.151Z" fill="white"/>
<path d="M109.7 128.061C110.274 123.277 110.102 122.576 113.666 123.351L114.57 123.43C117.31 123.555 120.895 122.989 123.001 122.011C127.534 119.908 130.222 116.396 125.752 117.319C115.556 119.422 114.855 115.969 114.855 115.969C125.621 99.9949 130.122 79.7167 126.237 74.753C115.641 61.2139 97.2999 67.6162 96.993 67.7824L96.8953 67.8005C94.8807 67.3825 92.6261 67.1327 90.0934 67.0918C85.4794 67.016 81.9783 68.3014 79.3225 70.3158C79.3225 70.3158 46.6027 56.8356 48.1249 87.2684C48.4486 93.7424 57.4046 136.256 68.0862 123.415C71.9903 118.719 75.7633 114.749 75.7633 114.749C77.6368 115.994 79.8798 116.629 82.2323 116.4L82.4141 116.245C82.3572 116.828 82.3823 117.399 82.4869 118.074C79.7357 121.148 80.5441 121.688 75.0426 122.82C69.4767 123.968 72.7467 126.01 74.8811 126.544C77.4693 127.191 83.4569 128.108 87.5037 122.444L87.3426 123.09C88.422 123.954 88.349 129.297 88.5021 133.115C88.6553 136.933 88.911 140.496 89.6892 142.596C90.4674 144.696 91.3857 150.107 98.6159 148.557C104.659 147.262 109.279 145.399 109.7 128.061Z" fill="black" stroke="black" stroke-width="4.16703"/>
<path d="M125.753 117.318C115.556 119.421 114.855 115.969 114.855 115.969C125.621 99.9934 130.122 79.7148 126.238 74.7517C115.642 61.2134 97.2999 67.6161 96.9938 67.7824L96.8953 67.8C94.8807 67.3818 92.6261 67.1327 90.0922 67.0913C85.4782 67.0157 81.9783 68.3009 79.3225 70.3149C79.3225 70.3149 46.6021 56.8353 48.1239 87.268C48.4476 93.7423 57.4034 136.256 68.0854 123.415C71.9897 118.719 75.762 114.749 75.762 114.749C77.6357 115.994 79.8788 116.628 82.2303 116.4L82.4129 116.245C82.3562 116.828 82.3821 117.399 82.4861 118.074C79.7342 121.148 80.5429 121.688 75.0418 122.82C69.4754 123.968 72.7454 126.01 74.8804 126.544C77.4687 127.191 83.4567 128.108 87.5027 122.444L87.3413 123.09C88.4196 123.954 89.1767 128.708 89.0498 133.017C88.9229 137.326 88.8382 140.285 89.6878 142.596C90.5373 144.907 91.3841 150.107 98.6157 148.557C104.658 147.262 107.79 143.906 108.225 138.309C108.535 134.329 109.234 134.918 109.278 131.36L109.839 129.675C110.487 124.281 109.942 122.541 113.665 123.35L114.57 123.43C117.31 123.554 120.896 122.989 123.001 122.011C127.533 119.907 130.221 116.395 125.752 117.318H125.753Z" fill="#336791"/>
<path d="M87.9405 120.41C87.6598 130.448 88.0111 140.556 88.9932 143.012C89.976 145.469 92.0792 150.247 99.3114 148.697C105.354 147.402 107.552 144.895 108.506 139.362C109.209 135.291 110.563 123.985 110.737 121.669" stroke="white" stroke-width="1.38901" stroke-linecap="round" stroke-linejoin="round"/>
<path d="M79.2721 70.0907C79.2721 70.0907 46.5293 56.7083 48.0515 87.1409C48.3752 93.6152 57.3316 136.13 68.0135 123.288C71.9169 118.592 75.4472 114.909 75.4472 114.909" stroke="white" stroke-width="1.38901" stroke-linecap="round" stroke-linejoin="round"/>
<path d="M96.9579 67.6482C95.8245 68.0036 115.171 60.5757 126.167 74.6251C130.05 79.5883 125.55 99.867 114.783 115.843" stroke="white" stroke-width="1.38901" stroke-linecap="round" stroke-linejoin="round"/>
<path d="M114.783 115.843C114.783 115.843 115.485 119.296 125.682 117.192C130.15 116.269 127.461 119.781 122.93 121.885C119.211 123.611 110.873 124.054 110.737 121.669C110.387 115.515 115.125 117.385 114.783 115.843ZM114.783 115.843C114.474 114.454 112.355 113.091 110.953 109.693C109.73 106.727 94.1694 83.9787 115.269 87.3572C116.042 87.1972 109.766 67.288 90.0198 66.9642C70.2784 66.6405 70.9261 91.2418 70.9261 91.2418" stroke="white" stroke-width="1.38901" stroke-linecap="round" stroke-linejoin="bevel"/>
<path d="M82.4141 117.947C79.6619 121.022 80.4713 121.562 74.9698 122.694C69.4035 123.842 72.6739 125.884 74.8082 126.417C77.3965 127.065 83.3845 127.982 87.4305 122.316C88.6626 120.592 87.4232 117.839 85.7307 117.138C84.913 116.799 83.8195 116.374 82.4141 117.947Z" stroke="white" stroke-width="1.38901" stroke-linecap="round" stroke-linejoin="round"/>
<path d="M82.2339 117.894C81.9566 116.086 82.8279 113.935 83.7616 111.418C85.1648 107.643 88.4023 103.866 85.8125 91.889C83.882 82.9637 70.934 90.0316 70.9259 91.2418C70.918 92.4516 71.5115 97.3759 70.7096 103.11C69.6632 110.593 75.4709 116.922 82.1587 116.274" stroke="white" stroke-width="1.38901" stroke-linecap="round" stroke-linejoin="round"/>
<path d="M79.1531 91.0604C79.0947 91.4738 79.9098 92.5767 80.9726 92.7241C82.0336 92.8721 82.9418 92.0101 82.9994 91.5972C83.0569 91.1839 82.2428 90.7286 81.1796 90.5806C80.118 90.4324 79.2094 90.6481 79.1533 91.0604H79.1531Z" fill="white" stroke="white" stroke-width="0.463"/>
<path d="M111.471 90.2177C111.528 90.631 110.714 91.734 109.651 91.8814C108.589 92.0294 107.681 91.1674 107.623 90.7545C107.567 90.3411 108.381 89.8858 109.443 89.7379C110.505 89.5899 111.413 89.8054 111.471 90.2179V90.2177Z" fill="white" stroke="white" stroke-width="0.2315"/>
<path d="M115.269 87.3572C115.444 90.5994 114.57 92.8078 114.46 96.2592C114.297 101.276 116.852 107.018 113.002 112.767" stroke="white" stroke-width="1.38901" stroke-linecap="round" stroke-linejoin="round"/>
<path d="M221.076 24.7602C235.851 20.8397 253.967 31.3005 266.181 36.7512C278.38 42.2273 290.69 39.6131 298.897 51.7021C307.097 63.7517 308.052 78.9664 306.085 94.4708C304.103 110 295.903 121.373 277.086 134.897C258.27 148.422 235.211 152.602 216.89 137.514C198.57 122.427 177.85 116.281 176.323 96.5112C174.796 76.7414 176.759 67.5254 185.92 51.7021C195.08 35.8788 206.3 28.6808 221.076 24.7602Z" fill="white"/>
<path fill-rule="evenodd" clip-rule="evenodd" d="M276.136 106.74C271.403 106.622 267.732 107.094 264.655 108.39C263.769 108.747 262.347 108.747 262.23 109.863C262.704 110.332 262.761 111.099 263.176 111.748C263.885 112.927 265.13 114.515 266.253 115.339C267.497 116.282 268.74 117.224 270.04 118.049C272.348 119.461 274.951 120.286 277.2 121.7C278.502 122.525 279.803 123.584 281.106 124.469C281.769 124.94 282.171 125.707 283 126V125.822C282.586 125.294 282.467 124.528 282.054 123.937C281.461 123.35 280.87 122.818 280.277 122.23C278.562 119.933 276.43 117.93 274.122 116.282C272.228 114.986 268.087 113.22 267.318 111.042L267.201 110.923C268.501 110.805 270.04 110.333 271.284 109.98C273.297 109.452 275.131 109.568 277.2 109.038C278.148 108.801 279.094 108.508 280.042 108.214V107.686C278.977 106.626 278.208 105.212 277.084 104.211C274.067 101.62 270.751 99.0873 267.318 96.9674C265.484 95.79 263.116 95.0231 261.164 94.0239C260.451 93.6702 259.27 93.4933 258.856 92.9046C257.788 91.611 257.198 89.9017 256.428 88.3692C254.713 85.13 253.055 81.5384 251.576 78.1223C250.511 75.8256 249.859 73.5289 248.559 71.409C242.463 61.3971 235.834 55.3319 225.655 49.3828C223.466 48.146 220.863 47.6141 218.094 46.9673L213.656 46.7297C212.708 46.3179 211.762 45.1985 210.933 44.6679C207.56 42.5481 198.86 37.9546 196.374 44.0211C194.775 47.849 198.741 51.6175 200.087 53.5618C201.095 54.9161 202.395 56.4473 203.108 57.9784C203.505 58.9789 203.638 60.0402 204.053 61.1001C204.999 63.6912 205.888 66.578 207.131 68.9935C207.794 70.2303 208.49 71.5278 209.319 72.6458C209.793 73.2926 210.622 73.5883 210.798 74.6482C209.969 75.8269 209.912 77.5917 209.438 79.0661C207.307 85.7214 208.136 93.9659 211.153 98.8524C212.102 100.324 214.337 103.565 217.369 102.326C220.032 101.267 219.438 97.9099 220.207 94.9651C220.386 94.2589 220.267 93.7876 220.621 93.3151V93.4339L223.049 98.3217C224.883 101.207 228.08 104.211 230.742 106.215C232.161 107.275 233.286 109.102 235.06 109.749V109.57H234.944C234.588 109.042 234.055 108.805 233.581 108.393C232.516 107.333 231.333 106.037 230.504 104.859C228.02 101.562 225.831 97.9099 223.878 94.1414C222.929 92.3159 222.1 90.3135 221.334 88.488C220.975 87.7805 220.975 86.7193 220.385 86.3682C219.496 87.6617 218.197 88.7837 217.543 90.3729C216.418 92.9046 216.301 96.0263 215.887 99.2655C215.649 99.3249 215.755 99.2655 215.649 99.3843C213.757 98.9144 213.105 96.9688 212.395 95.3214C210.62 91.1398 210.323 84.4265 211.862 79.5967C212.276 78.3599 214.053 74.4726 213.343 73.2952C212.985 72.1759 211.805 71.5291 211.152 70.6448C210.383 69.5254 209.556 68.1131 209.023 66.8763C207.604 63.5764 206.894 59.9267 205.354 56.6281C204.642 55.0969 203.401 53.5064 202.394 52.094C201.269 50.5035 200.029 49.3841 199.14 47.5005C198.845 46.8538 198.431 45.7925 198.904 45.085C199.021 44.6138 199.26 44.4382 199.731 44.3194C200.5 43.6727 202.691 44.4963 203.46 44.8474C205.649 45.7318 207.483 46.5555 209.318 47.7909C210.147 48.3796 211.035 49.499 212.1 49.7946H213.345C215.239 50.2065 217.368 49.9134 219.141 50.4414C222.278 51.4446 225.118 52.915 227.664 54.5069C235.416 59.3947 241.809 66.3443 246.128 74.6495C246.837 76.0038 247.133 77.2406 247.786 78.6543C249.03 81.541 250.568 84.4846 251.809 87.3132C253.053 90.0812 254.236 92.9099 256.011 95.2066C256.899 96.4434 260.449 97.0902 262.046 97.7383C263.23 98.2663 265.063 98.7415 266.131 99.3883C268.142 100.625 270.154 102.039 272.047 103.393C272.992 104.098 275.953 105.571 276.129 106.746L276.136 106.74ZM215.785 55.5629C214.968 55.5557 214.152 55.6546 213.361 55.8572V55.976H213.477C213.951 56.9185 214.78 57.5666 215.371 58.3916L216.734 61.2189L216.85 61.1001C217.679 60.5114 218.094 59.569 218.094 58.1566C217.739 57.7448 217.681 57.3316 217.385 56.9198C217.029 56.3311 216.26 56.0328 215.785 55.5629Z" fill="#00678C"/>
<path d="M456.382 97.903C458.699 114.547 466.021 131.452 458.451 144.057C450.856 156.641 439.797 166.321 425.515 173.67C411.278 181.018 403.99 181.228 387.332 177.023C370.649 172.799 341.779 169.024 334.106 153.527C326.461 138.052 314.925 113.248 324.995 91.6693C335.065 70.0911 356.339 57.6578 384.303 52.6058C412.267 47.5538 417.765 52.4621 431.448 60.0213C445.114 67.6033 454.066 81.2587 456.382 97.903Z" fill="white"/>
<rect x="354.627" y="78" width="76" height="76" rx="6" fill="url(#paint0_linear_332_1552)"/>
<path fill-rule="evenodd" clip-rule="evenodd" d="M410.69 96.7995L407.669 87.5L404.647 96.7995H394.869L402.78 102.547L399.758 111.846L407.669 106.099L415.579 111.846L412.558 102.547L420.468 96.7995H410.69ZM378.377 112.833C384.498 112.833 389.46 107.871 389.46 101.75C389.46 95.6289 384.498 90.6667 378.377 90.6667C372.256 90.6667 367.294 95.6289 367.294 101.75C367.294 107.871 372.256 112.833 378.377 112.833ZM378.377 120.75L389.347 139.75H367.407L378.377 120.75ZM419.544 129.458L407.669 117.583L395.794 129.458L407.669 141.333L419.544 129.458Z" fill="white"/>
<defs>
<linearGradient id="paint0_linear_332_1552" x1="406.877" y1="78" x2="376.002" y2="154" gradientUnits="userSpaceOnUse">
<stop stop-color="#4A5ED9"/>
<stop offset="1" stop-color="#7D38C2"/>
</linearGradient>
</defs>
</svg>
