<?xml version="1.0" encoding="UTF-8"?>
<svg width="69px" height="70px" viewBox="0 0 69 70" version="1.1" xmlns="http://www.w3.org/2000/svg" xmlns:xlink="http://www.w3.org/1999/xlink">
    <title>api-icon</title>
    <defs>
        <path d="M3,12 L58,12 C60.209139,12 62,13.790861 62,16 L62,60 C62,62.209139 60.209139,64 58,64 L3,64 L3,64 L3,12 Z" id="path-1"></path>
        <filter x="-11.0%" y="-14.4%" width="128.8%" height="132.7%" filterUnits="objectBoundingBox" id="filter-3">
            <feOffset dx="2" dy="1" in="SourceAlpha" result="shadowOffsetOuter1"></feOffset>
            <feGaussianBlur stdDeviation="2.5" in="shadowOffsetOuter1" result="shadowBlurOuter1"></feGaussianBlur>
            <feColorMatrix values="0 0 0 0 0   0 0 0 0 0   0 0 0 0 0  0 0 0 0.0821131993 0" type="matrix" in="shadowBlurOuter1"></feColorMatrix>
        </filter>
        <path d="M65,64 L7,64 C3.13400675,64 0,60.8659932 0,57 L0,7 C0,3.13400675 3.13400675,0 7,0 L65,0 L65,0" id="path-4"></path>
        <filter x="-0.8%" y="-0.8%" width="101.5%" height="101.6%" filterUnits="objectBoundingBox" id="filter-5">
            <feMorphology radius="1" operator="erode" in="SourceAlpha" result="shadowSpreadInner1"></feMorphology>
            <feOffset dx="0" dy="0" in="shadowSpreadInner1" result="shadowOffsetInner1"></feOffset>
            <feComposite in="shadowOffsetInner1" in2="SourceAlpha" operator="arithmetic" k2="-1" k3="1" result="shadowInnerInner1"></feComposite>
            <feColorMatrix values="0 0 0 0 0.796078431   0 0 0 0 0.807843137   0 0 0 0 0.858823529  0 0 0 1 0" type="matrix" in="shadowInnerInner1"></feColorMatrix>
        </filter>
        <path d="M19,0 C20.6568542,1.39730022e-16 22,1.34314575 22,3 L22,15 C22,16.6568542 20.6568542,18 19,18 L3,18 C1.34314575,18 6.46995335e-16,16.6568542 0,15 L0,3 C2.41183085e-16,1.34314575 1.34314575,-1.39730022e-16 3,0 L19,0 Z M5.75,4.5 C4.40598489,4.5 3.2871626,5.46416507 3.04716953,6.73763663 C3.01667229,6.81929885 3,6.90770241 3,7 L3,7 L3,13 L3.00684662,13.1017706 C3.05650904,13.4678461 3.37030423,13.75 3.75,13.75 L3.75,13.75 L3.85177056,13.7431534 C4.21784612,13.693491 4.5,13.3796958 4.5,13 L4.5,13 L4.5,10.999 L7,11 L7,13 L7.00684662,13.1017706 C7.05650904,13.4678461 7.37030423,13.75 7.75,13.75 C8.16421356,13.75 8.5,13.4142136 8.5,13 L8.5,13 L8.5,7.25 L8.49498121,7.08247767 C8.40840428,5.6417046 7.21253184,4.5 5.75,4.5 Z M12.75,4.5 L11.25,4.5 L11.1482294,4.50684662 C10.7821539,4.55650904 10.5,4.87030423 10.5,5.25 L10.5,5.25 L10.5,13 L10.5068466,13.1017706 C10.556509,13.4678461 10.8703042,13.75 11.25,13.75 L11.25,13.75 L11.3517706,13.7431534 C11.7178461,13.693491 12,13.3796958 12,13 L12,13 L12,11 L12.75,11 L12.9344239,10.9948552 C14.6435452,10.8992459 16,9.48303146 16,7.75 C16,5.95507456 14.5449254,4.5 12.75,4.5 L12.75,4.5 Z M18.25,4.5 C17.8357864,4.5 17.5,4.83578644 17.5,5.25 L17.5,5.25 L17.5,12.75 L17.5068466,12.8517706 C17.556509,13.2178461 17.8703042,13.5 18.25,13.5 C18.6642136,13.5 19,13.1642136 19,12.75 L19,12.75 L19,5.25 L18.9931534,5.14822944 C18.943491,4.78215388 18.6296958,4.5 18.25,4.5 Z M12.75,6 L12.8935272,6.0058012 C13.7928897,6.07880766 14.5,6.8318266 14.5,7.75 C14.5,8.71649831 13.7164983,9.5 12.75,9.5 L12.75,9.5 L12,9.5 L12,6 L12.75,6 Z M5.75,6 C6.44035594,6 7,6.55964406 7,7.25 L7,7.25 L7,9.5 L4.5,9.5 L4.5,7.25 L4.50645361,7.12219476 C4.5704661,6.49187466 5.10279131,6 5.75,6 Z" id="path-6"></path>
    </defs>
    <g id="Portal" stroke="none" stroke-width="1" fill="none" fill-rule="evenodd">
        <g id="Portal-Overview" transform="translate(-4.000000, -476.000000)">
            <g id="Group-2" transform="translate(8.000000, 188.000000)">
                <g id="Menu/Default" transform="translate(0.000000, 288.000000)">
                    <mask id="mask-2" fill="white">
                        <use xlink:href="#path-1"></use>
                    </mask>
                    <g id="Mask" transform="translate(32.500000, 38.000000) scale(-1, 1) translate(-32.500000, -38.000000) " fill="black" fill-opacity="1">
                        <use filter="url(#filter-3)" xlink:href="#path-1"></use>
                    </g>
                    <g id="Path">
                        <use fill="#F7F8FB" fill-rule="evenodd" xlink:href="#path-4"></use>
                        <use fill="black" fill-opacity="1" filter="url(#filter-5)" xlink:href="#path-4"></use>
                    </g>
                    <g id="Icon/Develope" transform="translate(22.000000, 23.000000)">
                        <mask id="mask-7" fill="white">
                            <use xlink:href="#path-6"></use>
                        </mask>
                        <use id="Mask" fill="#40404B" xlink:href="#path-6"></use>
                        <rect id="Color" fill="#40404B" fill-rule="nonzero" mask="url(#mask-7)" x="-1" y="-3" width="24" height="24"></rect>
                    </g>
                </g>
            </g>
        </g>
    </g>
</svg>
