<?xml version="1.0" encoding="UTF-8"?>
<svg width="16px" height="16px" viewBox="0 0 16 16" version="1.1" xmlns="http://www.w3.org/2000/svg" xmlns:xlink="http://www.w3.org/1999/xlink">
    <title>api-analytics-icon</title>
    <g id="Apps" stroke="none" stroke-width="1" fill="none" fill-rule="evenodd">
        <g id="apps-API's" transform="translate(-1040.000000, -412.000000)" fill="#5567D5" fill-rule="nonzero">
            <g id="Table/Row/Default" transform="translate(216.000000, 392.000000)">
                <g id="Button/Rounded/32-with-icon/Default-Copy" transform="translate(816.000000, 12.000000)">
                    <g id="Icon/Clear" transform="translate(8.000000, 8.000000)">
                        <path d="M7.5,2.5 L7.5,8.5 L13.5,8.5 L13.5,9 C13.5,12.5898509 10.5898509,15.5 7,15.5 C3.41014913,15.5 0.5,12.5898509 0.5,9 C0.5,5.41014913 3.41014913,2.5 7,2.5 L7,2.5 L7.5,2.5 Z M6.5,3.523 L6.34319425,3.53881193 C3.61526146,3.86343541 1.5,6.18469481 1.5,9 C1.5,12.0375661 3.96243388,14.5 7,14.5 C9.81530519,14.5 12.1365646,12.3847385 12.4611881,9.65680575 L12.4611881,9.65680575 L12.476,9.5 L6.5,9.5 L6.5,3.523 Z M9,0.5 C12.5898509,0.5 15.5,3.41014913 15.5,7 L15.5,7 L15.5,7.5 L8.5,7.5 L8.5,0.5 Z M9.5,1.523 L9.5,6.5 L14.476,6.5 L14.4611881,6.34319425 C14.1621928,3.83062458 12.1693754,1.83780724 9.65680575,1.53881193 L9.65680575,1.53881193 L9.5,1.523 Z" id="Combined-Shape"></path>
                    </g>
                </g>
            </g>
        </g>
    </g>
</svg>