<?xml version="1.0" encoding="UTF-8"?>
<svg width="16px" height="15px" viewBox="0 0 16 15" version="1.1" xmlns="http://www.w3.org/2000/svg" xmlns:xlink="http://www.w3.org/1999/xlink">
    <title>business-info-icon</title>
    <defs>
        <path d="M10,0.25 C10.9181734,0.25 11.6711923,0.957110273 11.7441988,1.85647279 L11.75,2 L11.75,4.25 L14,4.25 C14.9181734,4.25 15.6711923,4.95711027 15.7441988,5.85647279 L15.75,6 L15.75,13 C15.75,13.9664983 14.9664983,14.75 14,14.75 L14,14.75 L2,14.75 C1.03350169,14.75 0.25,13.9664983 0.25,13 L0.25,13 L0.25,6 C0.25,5.03350169 1.03350169,4.25 2,4.25 L2,4.25 L4.25,4.25 L4.25,2 C4.25,1.0818266 4.95711027,0.32880766 5.85647279,0.2558012 L6,0.25 L10,0.25 Z M14.25,9.786 L1.75,9.786 L1.75,13 C1.75,13.1183467 1.83223341,13.2174868 1.94267729,13.2433973 L2,13.25 L14,13.25 C14.1380712,13.25 14.25,13.1380712 14.25,13 L14.25,13 L14.25,9.786 Z M14,5.75 L2,5.75 C1.86192881,5.75 1.75,5.86192881 1.75,6 L1.75,6 L1.75,8.286 L14.25,8.286 L14.25,6 C14.25,5.88165327 14.1677666,5.78251318 14.0573227,5.75660268 L14,5.75 Z M10,1.75 L6,1.75 C5.88165327,1.75 5.78251318,1.83223341 5.75660268,1.94267729 L5.75,2 L5.75,4.25 L10.25,4.25 L10.25,2 C10.25,1.88165327 10.1677666,1.78251318 10.0573227,1.75660268 L10,1.75 Z" id="path-1"></path>
    </defs>
    <g id="Portal" stroke="none" stroke-width="1" fill="none" fill-rule="evenodd">
        <g id="Portal-Overview" transform="translate(-93.000000, -308.000000)">
            <g id="Icon/Control/Burger" transform="translate(93.000000, 308.000000)">
                <mask id="mask-2" fill="white">
                    <use xlink:href="#path-1"></use>
                </mask>
                <use id="Combined-Shape" fill="#5567D5" fill-rule="nonzero" xlink:href="#path-1"></use>
            </g>
        </g>
    </g>
</svg>
