<?xml version="1.0" encoding="UTF-8"?>
<svg width="16px" height="14px" viewBox="0 0 16 14" version="1.1" xmlns="http://www.w3.org/2000/svg" xmlns:xlink="http://www.w3.org/1999/xlink">
    <title>documents-icon</title>
    <defs>
        <path d="M15.5,5.25 L15.5,12 C15.5,12.9664983 14.689481,13.75 13.6896552,13.75 L13.6896552,13.75 L2.31034483,13.75 C1.31051899,13.75 0.5,12.9664983 0.5,12 L0.5,12 L0.5,5.25 L15.5,5.25 Z M13.9482759,6.75 L2.05172414,6.75 L2.05172414,12 C2.05172414,12.1183467 2.13679319,12.2174868 2.25104548,12.2433973 L2.25104548,12.2433973 L2.31034483,12.25 L13.6896552,12.25 C13.8324874,12.25 13.9482759,12.1380712 13.9482759,12 L13.9482759,12 L13.9482759,6.75 Z M13.6896552,2.75 C14.118152,2.75 14.4655172,3.08578644 14.4655172,3.5 C14.4655172,3.87969577 14.1736339,4.19349096 13.7949351,4.24315338 L13.6896552,4.25 L2.31034483,4.25 C1.88184804,4.25 1.53448276,3.91421356 1.53448276,3.5 C1.53448276,3.12030423 1.82636608,2.80650904 2.20506494,2.75684662 L2.31034483,2.75 L13.6896552,2.75 Z M11.6206897,0.25 C12.0491864,0.25 12.3965517,0.585786438 12.3965517,1 C12.3965517,1.37969577 12.1046684,1.69349096 11.7259695,1.74315338 L11.6206897,1.75 L4.37931034,1.75 C3.95081356,1.75 3.60344828,1.41421356 3.60344828,1 C3.60344828,0.620304234 3.8953316,0.306509039 4.27403046,0.256846616 L4.37931034,0.25 L11.6206897,0.25 Z" id="path-1"></path>
    </defs>
    <g id="Portal" stroke="none" stroke-width="1" fill="none" fill-rule="evenodd">
        <g id="Portal-Documentation" transform="translate(-93.000000, -365.000000)">
            <g id="Icon/Control/Burger" transform="translate(93.000000, 365.000000)">
                <mask id="mask-2" fill="white">
                    <use xlink:href="#path-1"></use>
                </mask>
                <use id="Combined-Shape" fill="#979797" fill-rule="nonzero" xlink:href="#path-1"></use>
                <rect id="Color" fill="#5567D5" fill-rule="nonzero" mask="url(#mask-2)" x="-1" y="-2" width="18" height="18"></rect>
            </g>
        </g>
    </g>
</svg>
