<?xml version="1.0" encoding="UTF-8"?>
<svg width="18px" height="18px" viewBox="0 0 18 18" version="1.1" xmlns="http://www.w3.org/2000/svg" xmlns:xlink="http://www.w3.org/1999/xlink">
    <title>endpoint-config-selected-icon</title>
    <g id="API" stroke="none" stroke-width="1" fill="none" fill-rule="evenodd">
        <g id="Portal-Endpoint" transform="translate(-105.000000, -466.000000)" fill="#5567D5" fill-rule="nonzero">
            <g id="Icon/Control/Burger" transform="translate(105.000000, 466.000000)">
                <path d="M9.00476503,9.99915504 L12.754765,13.749155 L12.754765,16.0598152 C12.754765,16.9779886 12.0476548,17.7310076 11.1482922,17.804014 L11.004765,17.8098152 L7.00476503,17.8098152 C6.08659164,17.8098152 5.33357269,17.1027049 5.26056623,16.2033424 L5.25476503,16.0598152 L5.25476503,13.749155 L9.00476503,9.99915504 Z M9.00476503,12.1208152 L6.75476503,14.3708152 L6.75476503,16.0598152 C6.75476503,16.1544926 6.80739442,16.2368777 6.88499344,16.2793109 L6.94744233,16.3032125 L7.00476503,16.3098152 L11.004765,16.3098152 C11.1231118,16.3098152 11.2222519,16.2275818 11.2481624,16.1171379 L11.254765,16.0598152 L11.254765,14.3718152 L9.00476503,12.1208152 Z M4.25560999,5.25 L8.00560999,9 L4.25560999,12.75 L1.94494982,12.75 C1.02677642,12.75 0.273757478,12.0428897 0.200751017,11.1435272 L0.194949817,11 L0.194949817,7 C0.194949817,6.0818266 0.902060091,5.32880766 1.80142261,5.2558012 L1.94494982,5.25 L4.25560999,5.25 Z M16.0645803,5.25 C17.0310786,5.25 17.8145803,6.03350169 17.8145803,7 L17.8145803,11 C17.8145803,11.9664983 17.0310786,12.75 16.0645803,12.75 L13.7539201,12.75 L10.0039201,9 L13.7539201,5.25 L16.0645803,5.25 Z M3.63394982,6.75 L1.94494982,6.75 C1.85027243,6.75 1.7678873,6.80262938 1.72545416,6.88022841 L1.7015525,6.94267729 L1.69494982,7 L1.69494982,11 C1.69494982,11.1183467 1.77718323,11.2174868 1.88762711,11.2433973 L1.94494982,11.25 L3.63294982,11.25 L5.88394982,9 L3.63394982,6.75 Z M16.0645803,6.75 L14.3755803,6.75 L12.1255803,9 L14.3765803,11.25 L16.0645803,11.25 C16.2026514,11.25 16.3145803,11.1380712 16.3145803,11 L16.3145803,7 L16.3079776,6.94267729 C16.2820671,6.83223341 16.182927,6.75 16.0645803,6.75 Z M11.004765,0.190184784 C11.9712633,0.190184784 12.754765,0.973686471 12.754765,1.94018478 L12.754765,4.25084496 L9.00476503,8.00084496 L5.25476503,4.25084496 L5.25476503,1.94018478 C5.25476503,0.973686471 6.03826672,0.190184784 7.00476503,0.190184784 L11.004765,0.190184784 Z M11.004765,1.69018478 L7.00476503,1.69018478 L6.94744233,1.69678746 C6.83699845,1.72269796 6.75476503,1.82183805 6.75476503,1.94018478 L6.75476503,3.62918478 L9.00476503,5.87918478 L11.254765,3.62818478 L11.254765,1.94018478 C11.254765,1.8021136 11.1428362,1.69018478 11.004765,1.69018478 Z" id="Combined-Shape"></path>
            </g>
        </g>
    </g>
</svg>
