<?xml version="1.0" encoding="UTF-8"?>
<svg width="20px" height="20px" viewBox="0 0 20 20" version="1.1" xmlns="http://www.w3.org/2000/svg" xmlns:xlink="http://www.w3.org/1999/xlink">
    <title>from-rest-api-icon</title>
    <g id="Apps" stroke="none" stroke-width="1" fill="none" fill-rule="evenodd">
        <g id="apps-create-API" transform="translate(-614.000000, -494.000000)" fill="#5567D5" fill-rule="nonzero">
            <g id="create" transform="translate(504.000000, 176.000000)">
                <g id="Card/Mode/Default" transform="translate(72.000000, 280.000000)">
                    <g id="Icon/20/Develope" transform="translate(38.000000, 38.000000)">
                        <path d="M8.88893533,1.44845129 L6.737,6.408 L1.35438087,6.92262553 C1.04849004,6.95182159 0.765133237,7.09619909 0.561715001,7.32650896 L0.479682155,7.43012164 C0.127265878,7.92845399 0.199796944,8.62272221 0.667705142,9.03599612 L4.72,12.615 L3.54564885,17.8933961 C3.4788905,18.1933377 3.52863959,18.5074411 3.6848176,18.772073 L3.75800957,18.8821089 C4.12304918,19.3712699 4.80575083,19.5168294 5.34338926,19.199531 L10,16.451 L14.6566107,19.199531 C14.9212426,19.355709 15.2353461,19.4054581 15.5352876,19.3386997 L15.6548006,19.3056937 C16.2374494,19.1124742 16.590586,18.5054917 16.4543511,17.8933961 L15.279,12.615 L19.3322949,9.03599612 C19.5626047,8.83257788 19.7069822,8.54922109 19.7361783,8.24333025 L19.7417193,8.11946728 C19.738005,7.50562717 19.2698555,6.98220641 18.6456191,6.92262553 L13.262,6.408 L11.1110647,1.44845129 C10.9887721,1.16655389 10.7638989,0.941680665 10.4820015,0.81938809 C9.8683774,0.553186027 9.15513739,0.834827213 8.88893533,1.44845129 Z M8.10203688,8.28767787 L10,3.912 L11.8979631,8.28767787 L16.645,8.74 L13.0709688,11.8978183 L14.107,16.553 L10,14.1290077 L5.892,16.553 L6.92903116,11.8978183 L3.354,8.74 L8.10203688,8.28767787 Z" id="Star"></path>
                    </g>
                </g>
            </g>
        </g>
    </g>
</svg>