<?xml version="1.0" encoding="UTF-8"?>
<svg width="20px" height="20px" viewBox="0 0 20 20" version="1.1" xmlns="http://www.w3.org/2000/svg" xmlns:xlink="http://www.w3.org/1999/xlink">
    <title>from-choreo-app-icon</title>
    <g id="Apps" stroke="none" stroke-width="1" fill="none" fill-rule="evenodd">
        <g id="apps-create-API" transform="translate(-614.000000, -390.000000)" fill="#5567D5" fill-rule="nonzero">
            <g id="create" transform="translate(504.000000, 176.000000)">
                <g id="Card/Mode/Default" transform="translate(72.000000, 176.000000)">
                    <g id="Icon/20/Develope" transform="translate(38.000000, 38.000000)">
                        <path d="M10.003,9.80010398 L10.3584632,9.80381301 C12.3990401,9.8539075 14.374564,10.4593066 15.9953974,11.5308292 C16.383004,11.7729972 16.7465065,12.0438481 17.0782454,12.3371854 C18.4363941,13.5233558 19.3772468,15.0300248 19.7899494,16.6859223 C19.9661571,17.4396266 19.7500906,18.22319 19.2040336,18.8183501 C18.6396626,19.439426 17.7862613,19.8003468 16.8851446,19.7998504 L16.8851446,19.7998504 L3.13559759,19.7997909 C2.23667501,19.8097996 1.3806806,19.4600243 0.804185522,18.8441505 C0.245390841,18.2389512 0.0287356895,17.442187 0.216419177,16.6762615 C0.626788509,15.0300248 1.56764121,13.5233558 2.9284094,12.3349075 C4.81706125,10.6995972 7.36233853,9.78880002 10.003,9.80010398 L10.003,9.80010398 Z M10.00503,0.15 C12.4698237,0.15 14.4698012,2.13913404 14.4698012,4.59517268 C14.4698012,7.05121133 12.4698237,9.04034537 10.00503,9.04034537 C7.54023624,9.04034537 5.54025872,7.05121133 5.54025872,4.59517268 C5.54025872,2.13913404 7.54023624,0.15 10.00503,0.15 Z M10.00503,1.85 C8.47705763,1.85 7.24025872,3.08009324 7.24025872,4.59517268 C7.24025872,6.11025213 8.47705763,7.34034537 10.00503,7.34034537 C11.5330023,7.34034537 12.7698012,6.11025213 12.7698012,4.59517268 C12.7698012,3.08009324 11.5330023,1.85 10.00503,1.85 Z" id="Combined-Shape"></path>
                    </g>
                </g>
            </g>
        </g>
    </g>
</svg>