<?xml version="1.0" encoding="UTF-8"?>
<svg width="18px" height="18px" viewBox="0 0 18 18" version="1.1" xmlns="http://www.w3.org/2000/svg" xmlns:xlink="http://www.w3.org/1999/xlink">
    <title>resources-icon</title>
    <defs>
        <path d="M8.04994456,1.23581383 C8.62816605,0.862024511 9.37183395,0.862024511 9.95005544,1.23581383 L9.95005544,1.23581383 L16.593339,5.53034199 C17.4050087,6.05504312 17.6376427,7.13838573 17.1129416,7.95005544 C16.9784662,8.15807791 16.8013615,8.33518259 16.593339,8.46965801 L16.593339,8.46965801 L15.7725074,8.99947184 L16.593339,9.53034199 C17.4050087,10.0550431 17.6376427,11.1383857 17.1129416,11.9500554 C17.012085,12.1060723 16.8872495,12.2446979 16.7433758,12.3609914 L16.593339,12.469658 L9.95005544,16.7641862 C9.41313548,17.1112763 8.73356021,17.1360684 8.17626092,16.8385626 L8.04994456,16.7641862 L1.40666096,12.469658 C0.594991255,11.9449569 0.362357259,10.8616143 0.887058389,10.0499446 C0.987914954,9.89392771 1.11275048,9.75530211 1.25662419,9.63900855 L1.40666096,9.53034199 L2.22650742,8.99947184 L1.40666096,8.46965801 C0.640084017,7.97410694 0.389992628,6.98026147 0.80658999,6.18759596 L0.887058389,6.04994456 C1.02153381,5.84192209 1.19863849,5.66481741 1.40666096,5.53034199 L1.40666096,5.53034199 Z M14.3905074,9.89247184 L9.95005544,12.7641862 C9.37183395,13.1379755 8.62816605,13.1379755 8.04994456,12.7641862 L8.04994456,12.7641862 L3.60750742,9.89247184 L2.22099419,10.7900489 C2.1912767,10.8092596 2.16597603,10.8345603 2.14676525,10.8642778 C2.08251614,10.9636659 2.09775409,11.0915678 2.17643884,11.1732863 L2.22099419,11.2099511 L8.86427779,15.5044793 C8.93036025,15.5471981 9.01156924,15.5557418 9.0837023,15.5301106 L9.13572221,15.5044793 L15.7790058,11.2099511 C15.8087233,11.1907404 15.834024,11.1654397 15.8532347,11.1357222 C15.9174839,11.0363341 15.9022459,10.9084322 15.8235612,10.8267137 L15.7790058,10.7900489 L14.3905074,9.89247184 Z M9.13572221,2.4955207 C9.05311914,2.44212222 8.94688086,2.44212222 8.86427779,2.4955207 L8.86427779,2.4955207 L2.22099419,6.79004886 C2.1912767,6.80925963 2.16597603,6.8345603 2.14676525,6.86427779 C2.07180795,6.98023061 2.10504138,7.13499384 2.22099419,7.20995114 L2.22099419,7.20995114 L8.86427779,11.5044793 C8.94688086,11.5578778 9.05311914,11.5578778 9.13572221,11.5044793 L9.13572221,11.5044793 L15.7790058,7.20995114 C15.8087233,7.19074037 15.834024,7.1654397 15.8532347,7.13572221 C15.928192,7.01976939 15.8949586,6.86500616 15.7790058,6.79004886 L15.7790058,6.79004886 Z" id="path-1"></path>
    </defs>
    <g id="API" stroke="none" stroke-width="1" fill="none" fill-rule="evenodd">
        <g id="Portal-Resources-Specific-operation" transform="translate(-105.000000, -386.000000)">
            <g id="Icon/Control/Burger" transform="translate(105.000000, 386.000000)">
                <mask id="mask-2" fill="white">
                    <use xlink:href="#path-1"></use>
                </mask>
                <use id="Combined-Shape" fill="#5567D5" fill-rule="nonzero" xlink:href="#path-1"></use>
                <rect id="Color" fill="#5567D5" fill-rule="nonzero" mask="url(#mask-2)" x="0" y="0" width="18" height="18"></rect>
            </g>
        </g>
    </g>
</svg>
