<?xml version="1.0" encoding="UTF-8"?>
<svg width="87px" height="32px" viewBox="0 0 87 32" version="1.1" xmlns="http://www.w3.org/2000/svg" xmlns:xlink="http://www.w3.org/1999/xlink">
    <defs>
        <rect id="path-1" x="5.08086723e-13" y="0" width="87" height="32" rx="16"></rect>
        <filter x="0.0%" y="0.0%" width="100.0%" height="100.0%" filterUnits="objectBoundingBox" id="filter-2">
            <feOffset dx="0" dy="0" in="SourceAlpha" result="shadowOffsetOuter1"></feOffset>
            <feComposite in="shadowOffsetOuter1" in2="SourceAlpha" operator="out" result="shadowOffsetOuter1"></feComposite>
            <feColorMatrix values="0 0 0 0 0   0 0 0 0 0   0 0 0 0 0  0 0 0 0.07 0" type="matrix" in="shadowOffsetOuter1"></feColorMatrix>
        </filter>
    </defs>
    <g id="API" stroke="none" stroke-width="1" fill="none" fill-rule="evenodd">
        <g id="Portal-Deploy" transform="translate(-477.000000, -497.000000)">
            <g id="Button/Pill/32-with-icon/Default" transform="translate(477.000000, 497.000000)">
                <g id="Shadow" fill-rule="nonzero">
                    <g>
                        <use fill="black" fill-opacity="1" filter="url(#filter-2)" xlink:href="#path-1"></use>
                        <use fill-opacity="0" fill="#FFFFFF" xlink:href="#path-1"></use>
                    </g>
                </g>
                <path d="M71,0 C79.836556,-1.623249e-15 87,7.163444 87,16 C87,24.836556 79.836556,32 71,32 L16,32 C7.163444,32 1.082166e-15,24.836556 0,16 C-1.082166e-15,7.163444 7.163444,1.623249e-15 16,0 L71,0 Z M71,1 L16,1 C7.71572875,1 1,7.71572875 1,16 C1,24.2842712 7.71572875,31 16,31 L16,31 L71,31 C79.2842712,31 86,24.2842712 86,16 C86,7.71572875 79.2842712,1 71,1 L71,1 Z" id="Combined-Shape" fill="#CCD1F2" fill-rule="nonzero"></path>
                <g id="Icon/Clear" transform="translate(8.000000, 9.000000)" fill="#5567D5" fill-rule="nonzero">
                    <path d="M8,0.5 C11.5898509,0.5 14.5,3.41014913 14.5,7 C14.5,10.5898509 11.5898509,13.5 8,13.5 C6.2209022,13.5 4.55492158,12.7811056 3.33920314,11.5306756 C3.14670842,11.3326847 3.15116395,11.0161336 3.34915485,10.8236389 C3.54714574,10.6311441 3.86369687,10.6355997 4.05619159,10.8335906 C5.08551461,11.8923031 6.49380383,12.5 8,12.5 C11.0375661,12.5 13.5,10.0375661 13.5,7 C13.5,3.96243388 11.0375661,1.5 8,1.5 C5.54990317,1.5 3.43750151,3.11320078 2.74158608,5.38161335 L4.16013678,4.57481793 C4.37347491,4.45342023 4.63838537,4.50618266 4.79053972,4.68796984 L4.84199121,4.76209991 C4.96338891,4.97543803 4.91062649,5.24034849 4.72883931,5.39250285 L4.65470924,5.44395434 L1.7824912,7.07835818 L0.11227945,4.22681394 C-0.0272851099,3.98853607 0.0527378419,3.68223426 0.291015715,3.5426697 C0.502818269,3.41861231 0.768368133,3.46805617 0.922785018,3.64792543 L0.97515996,3.72140597 L1.78195959,5.09993144 C2.6008889,2.4117229 5.10004743,0.5 8,0.5 Z M8,2.5 C8.24545989,2.5 8.44960837,2.67687516 8.49194433,2.91012437 L8.5,3 L8.5,7.793 L9.85355339,9.14644661 C10.0271197,9.32001296 10.0464049,9.58943736 9.91140884,9.7843055 L9.85355339,9.85355339 C9.67998704,10.0271197 9.41056264,10.0464049 9.2156945,9.91140884 L9.14644661,9.85355339 L7.5,8.20710678 L7.5,3 C7.5,2.72385763 7.72385763,2.5 8,2.5 Z" id="Combined-Shape"></path>
                </g>
                <text id="Clear" font-family="GilmerRegular, Gilmer Regular" font-size="11" font-weight="normal" line-spacing="24" fill="#5567D5">
                    <tspan x="29" y="12">Restore</tspan>
                </text>
            </g>
        </g>
    </g>
</svg>
