<?xml version="1.0" encoding="UTF-8"?>
<svg width="16px" height="16px" viewBox="0 0 16 16" version="1.1" xmlns="http://www.w3.org/2000/svg" xmlns:xlink="http://www.w3.org/1999/xlink">
    <title>runtime-config-icon</title>
    <defs>
        <path d="M4,0 C4.41421356,-7.6089797e-17 4.75,0.335786438 4.75,0.75 L4.75,1.25 L4.74587445,1.3296468 C6.32053134,1.67143124 7.5,3.07297579 7.5,4.75 C7.5,6.42702421 6.32053134,7.82856876 4.74587445,8.1703532 C4.74856557,8.19618947 4.75,8.22292722 4.75,8.25 L4.75,14.75 C4.75,15.1642136 4.41421356,15.5 4,15.5 C3.58578644,15.5 3.25,15.1642136 3.25,14.75 L3.25,8.25 L3.25511741,8.17056834 C1.67996398,7.82915726 0.5,6.42737631 0.5,4.75 C0.5,3.07262369 1.67996398,1.67084274 3.25511741,1.32943166 C3.25142663,1.30366493 3.25,1.27699907 3.25,1.25 L3.25,0.75 C3.25,0.335786438 3.58578644,7.6089797e-17 4,0 Z M12,0 C12.4142136,0 12.75,0.335786438 12.75,0.75 L12.75,0.75 L12.75,7.25 C12.75,7.27707278 12.7485656,7.30381053 12.7458744,7.3296468 C14.3205313,7.67143124 15.5,9.07297579 15.5,10.75 C15.5,12.4270242 14.3205313,13.8285688 12.7458744,14.1703532 L12.7458744,14.1703532 L12.75,14.25 L12.75,14.75 C12.75,15.1642136 12.4142136,15.5 12,15.5 C11.5857864,15.5 11.25,15.1642136 11.25,14.75 L11.25,14.75 L11.25,14.25 C11.25,14.2230009 11.2514266,14.1963351 11.2551174,14.1705683 C9.67996398,13.8291573 8.5,12.4273763 8.5,10.75 C8.5,9.07262369 9.67996398,7.67084274 11.2551174,7.32943166 L11.2551174,7.32943166 L11.25,7.25 L11.25,0.75 C11.25,0.335786438 11.5857864,0 12,0 Z M12,8.75 C10.8954305,8.75 10,9.6454305 10,10.75 C10,11.8545695 10.8954305,12.75 12,12.75 C13.1045695,12.75 14,11.8545695 14,10.75 C14,9.6454305 13.1045695,8.75 12,8.75 Z M4,2.75 C2.8954305,2.75 2,3.6454305 2,4.75 C2,5.8545695 2.8954305,6.75 4,6.75 C5.1045695,6.75 6,5.8545695 6,4.75 C6,3.6454305 5.1045695,2.75 4,2.75 Z" id="path-1"></path>
    </defs>
    <g id="Portal" stroke="none" stroke-width="1" fill="none" fill-rule="evenodd">
        <g id="Portal-Overview" transform="translate(-93.000000, -196.000000)">
            <g id="Icon/Control/Burger-Copy" transform="translate(93.000000, 196.000000)">
                <mask id="mask-2" fill="white">
                    <use xlink:href="#path-1"></use>
                </mask>
                <use id="Combined-Shape" fill="#979797" fill-rule="nonzero" xlink:href="#path-1"></use>
                <rect id="Color" fill="#CBCEDB" fill-rule="nonzero" mask="url(#mask-2)" x="-1" y="-1" width="18" height="18"></rect>
            </g>
        </g>
    </g>
</svg>
