<?xml version="1.0" encoding="UTF-8"?>
<svg width="20px" height="15px" viewBox="-8 0 22 15" version="1.1" xmlns="http://www.w3.org/2000/svg" xmlns:xlink="http://www.w3.org/1999/xlink">
    <title>unblock</title>
    <g id="API" stroke="none" stroke-width="1" fill="none" fill-rule="evenodd">
        <g id="Portal-Subscriptions" transform="translate(-1232.000000, -564.000000)" fill="#40404B" fill-rule="nonzero">
            <g id="Button/Rounded/32-with-icon/Default" transform="translate(1222.000000, 556.000000)">
                <g id="Icon/Clear" transform="translate(10.000000, 8.000000)">
                    <path d="M6,0.5 C7.8685634,0.5 9.39512645,1.9642776 9.49482114,3.8079648 L9.5,4 L9.5,6 L10,6 C11.1045695,6 12,6.8954305 12,8 L12,13 C12,14.1045695 11.1045695,15 10,15 L2,15 C0.8954305,15 1.3527075e-16,14.1045695 0,13 L0,8 C-1.3527075e-16,6.8954305 0.8954305,6 2,6 L8.5,6 L8.5,4 C8.5,2.61928813 7.38071187,1.5 6,1.5 C5.66493467,1.5 5.34526498,1.5659166 5.05325115,1.68548958 C4.64096832,1.76446315 4.48299817,1.55327088 4.42003986,1.41024549 C4.35708155,1.26722009 4.37211091,0.875827653 4.67241969,0.760559202 C5.0818149,0.592604392 5.53009299,0.5 6,0.5 Z M10,7 L2,7 C1.48716416,7 1.06449284,7.38604019 1.00672773,7.88337887 L1,8 L1,13 C1,13.5128358 1.38604019,13.9355072 1.88337887,13.9932723 L2,14 L10,14 C10.5128358,14 10.9355072,13.6139598 10.9932723,13.1166211 L11,13 L11,8 C11,7.44771525 10.5522847,7 10,7 Z M6,9 C6.55228475,9 7,9.44771525 7,10 C7,10.5522847 6.55228475,11 6,11 C5.44771525,11 5,10.5522847 5,10 C5,9.44771525 5.44771525,9 6,9 Z" id="Combined-Shape"></path>
                </g>
            </g>
        </g>
    </g>
</svg>
