<svg width="518" height="293" viewBox="0 0 518 293" fill="none" xmlns="http://www.w3.org/2000/svg">
<rect width="518" height="293" rx="19" fill="url(#paint0_linear_214_2141)"/>
<g clip-path="url(#clip0_214_2141)">
<path opacity="0.1" d="M410 164.821C410.005 169.834 409.398 174.828 408.193 179.693C407.788 181.333 407.316 182.938 406.78 184.509C406.123 186.449 405.362 188.352 404.5 190.209C404.066 191.149 403.607 192.07 403.123 192.972C403.131 198.112 402.072 203.198 400.013 207.908C396.291 216.359 389.653 223.192 381.311 227.162C376.095 229.649 370.395 230.957 364.615 230.992H166.14C157.309 231.011 148.631 228.693 140.988 224.274L140.87 224.208C139.782 223.571 138.72 222.897 137.686 222.185C135.359 220.579 133.173 218.778 131.151 216.802C128.415 214.13 126.004 211.145 123.968 207.908C119.186 200.321 116.652 191.535 116.661 182.569C111.819 174.078 108.995 163.907 108.995 152.978C108.995 139.188 113.482 126.609 120.855 117.087C122.392 115.098 124.076 113.226 125.892 111.487C127.684 109.766 129.61 108.191 131.652 106.776C133.286 105.642 134.994 104.618 136.763 103.711C137.502 103.336 138.243 102.981 138.997 102.652C139.659 102.358 140.328 102.085 141.006 101.827C141.818 101.519 142.641 101.235 143.474 100.976C144.308 100.718 145.13 100.491 145.941 100.297C147.133 100.006 148.346 99.7694 149.58 99.5872C150.602 99.4365 151.624 99.3318 152.646 99.2527C153.459 99.1914 154.279 99.1582 155.105 99.148H155.552C156.462 99.148 157.366 99.1837 158.263 99.245C158.358 99.0561 158.46 98.8645 158.555 98.6781C158.913 97.9963 159.283 97.3171 159.656 96.6531C159.655 96.6472 159.655 96.6412 159.656 96.6353C159.72 96.5178 159.784 96.4029 159.85 96.2905C160.152 95.7466 160.466 95.2078 160.788 94.6741C160.937 94.4187 161.082 94.1787 161.233 93.9387C161.265 93.879 161.3 93.8211 161.338 93.765C161.491 93.5097 161.647 93.2543 161.805 92.9989C162.594 91.7392 163.415 90.5015 164.267 89.286L164.484 88.9745C164.617 88.7855 164.739 88.6017 164.888 88.4127C165.24 87.9199 165.603 87.4245 165.969 86.9393C166.224 86.592 166.48 86.2472 166.756 85.9178C167.42 85.0666 168.102 84.2154 168.8 83.3642C169.499 82.513 170.224 81.6729 170.977 80.8439C171.08 80.7289 171.182 80.6166 171.289 80.5042L172.38 79.3142C172.434 79.2581 172.48 79.207 172.531 79.1559C172.662 79.0155 172.787 78.875 172.927 78.7397C173.513 78.1192 174.113 77.5114 174.716 76.9062C177.786 73.8515 181.055 71.0047 184.504 68.3849C184.639 68.2776 184.777 68.1755 184.913 68.0733C185.562 67.5856 186.221 67.103 186.881 66.628C190.507 64.0283 194.298 61.6656 198.23 59.5546C198.501 59.3988 198.777 59.2532 199.055 59.1102C202.58 57.2469 206.205 55.5794 209.914 54.1154C211.936 53.3161 214.003 52.5654 216.083 51.8785C217.468 51.4239 218.859 50.9924 220.267 50.5864C222.468 49.9531 224.684 49.3853 226.916 48.8831C233.492 47.4089 240.181 46.4982 246.911 46.161C248.955 46.0571 251.023 46.0035 253.113 46.0001C263.2 45.9868 273.248 47.2567 283.014 49.7794C283.115 49.9319 283.253 50.0562 283.415 50.1406C283.577 50.2251 283.758 50.2668 283.941 50.262H284.8C285.173 50.3642 285.544 50.4663 285.917 50.5736C288 51.1728 290.054 51.8274 292.078 52.5373L292.589 52.7212C297.585 54.4961 302.445 56.6297 307.133 59.1051C311.359 61.3312 315.427 63.843 319.31 66.6229C319.908 67.0519 320.498 67.4843 321.079 67.9201C321.784 67.469 322.501 67.0366 323.231 66.6229C326.047 65.0204 329.037 63.7463 332.144 62.8257C338.64 60.9049 345.513 60.6363 352.139 62.0443C360.636 63.8446 368.329 68.3134 374.541 74.6693C377.071 77.2698 379.323 80.1265 381.26 83.1932C381.4 83.4128 381.541 83.6349 381.676 83.8596C383.341 86.5738 384.773 89.4245 385.954 92.381C385.998 92.4908 386.041 92.5929 386.08 92.7002C387.171 95.4686 388.051 98.3154 388.712 101.216C388.743 101.365 388.778 101.51 388.809 101.658C389.428 104.466 389.848 107.313 390.066 110.18C390.066 110.282 390.066 110.386 390.087 110.494C390.194 111.976 390.249 113.474 390.25 114.988C390.25 116.341 390.204 117.685 390.12 119.017C390.12 119.163 390.1 119.314 390.087 119.464C390.064 119.85 390.031 120.23 389.997 120.619C391.949 122.192 393.776 123.914 395.461 125.769C396.206 126.581 396.926 127.424 397.623 128.297C399.746 130.955 401.611 133.809 403.194 136.819C407.516 144.97 410 154.558 410 164.821Z" fill="#A1A1A1"/>
<path opacity="0.1" d="M381.122 226.217C381.122 227.961 375.109 229.596 364.616 231H166.14C157.309 231.019 148.631 228.701 140.988 224.282L140.87 224.215C143.886 223.117 149.329 222.093 156.738 221.169L157.07 221.128C160.392 220.722 164.106 220.336 168.164 219.971C168.266 219.971 168.371 219.956 168.473 219.943C171.693 219.657 175.119 219.389 178.749 219.139C178.864 219.139 178.977 219.118 179.092 219.113C180.492 219.013 181.921 218.917 183.38 218.827L183.942 218.791C194.56 218.133 206.63 217.606 219.72 217.259H219.735C221.569 217.208 223.421 217.163 225.294 217.124C227.376 217.075 229.483 217.031 231.616 216.994C233.244 216.958 234.892 216.932 236.546 216.907H236.584C244.044 216.794 251.752 216.738 259.633 216.738C279.122 216.738 297.542 217.093 313.865 217.732H313.911C316.42 217.829 318.884 217.936 321.286 218.046L323.33 218.143C326.041 218.272 328.682 218.411 331.253 218.559C361.485 220.278 381.122 223.069 381.122 226.217Z" fill="#049669"/>
<g opacity="0.2">
<path d="M282.85 215.566C282.842 215.841 282.81 216.116 282.756 216.386C280.977 216.103 279.188 215.848 277.389 215.62C277.389 215.548 277.389 215.474 277.389 215.4C277.406 214.634 277.626 213.887 278.028 213.235C278.554 212.402 279.354 211.881 280.236 211.909C281.118 211.937 281.882 212.507 282.354 213.367C282.712 214.043 282.883 214.802 282.85 215.566Z" fill="#3F3D56"/>
<path d="M282.997 211.202C283.059 209.227 281.886 207.588 280.377 207.54C278.868 207.493 277.593 209.055 277.531 211.03C277.468 213.005 278.641 214.644 280.151 214.692C281.66 214.739 282.935 213.177 282.997 211.202Z" fill="#3F3D56"/>
<path d="M283.136 206.83C283.199 204.856 282.026 203.216 280.516 203.168C279.007 203.121 277.733 204.683 277.67 206.658C277.608 208.633 278.781 210.272 280.29 210.32C281.8 210.368 283.074 208.805 283.136 206.83Z" fill="#3F3D56"/>
<path d="M283.273 202.459C283.336 200.484 282.163 198.844 280.653 198.797C279.144 198.749 277.87 200.311 277.807 202.286C277.745 204.261 278.918 205.9 280.427 205.948C281.937 205.996 283.211 204.433 283.273 202.459Z" fill="#3F3D56"/>
<path d="M283.41 198.087C283.473 196.112 282.3 194.472 280.79 194.425C279.281 194.377 278.006 195.939 277.944 197.914C277.882 199.889 279.055 201.529 280.564 201.576C282.073 201.624 283.348 200.062 283.41 198.087Z" fill="#3F3D56"/>
<path d="M271.376 167.753C271.016 167.266 270.691 166.754 270.405 166.22L277.627 165.268L269.853 165.082C269.159 163.437 268.808 161.669 268.822 159.884C268.835 158.1 269.213 156.337 269.932 154.704L280.185 160.437L270.793 153.072C271.74 151.541 272.994 150.221 274.474 149.196C275.955 148.17 277.632 147.461 279.399 147.112C281.166 146.763 282.987 146.782 284.747 147.167C286.506 147.553 288.168 148.297 289.627 149.353C291.086 150.409 292.311 151.754 293.227 153.305C294.142 154.855 294.728 156.578 294.947 158.365C295.166 160.151 295.015 161.964 294.501 163.69C293.988 165.415 293.124 167.017 291.963 168.394C292.523 169.151 292.999 169.967 293.382 170.827L283.903 175.373L293.954 172.352C294.587 174.439 294.689 176.65 294.251 178.786C293.813 180.923 292.848 182.916 291.445 184.586C292.904 186.564 293.777 188.913 293.963 191.364C294.149 193.814 293.641 196.268 292.498 198.444C291.354 200.619 289.621 202.43 287.496 203.668C285.371 204.905 282.941 205.521 280.482 205.443C278.024 205.366 275.637 204.599 273.595 203.23C271.552 201.86 269.936 199.945 268.932 197.701C267.928 195.458 267.576 192.977 267.917 190.543C268.257 188.109 269.276 185.82 270.857 183.937C269.114 181.573 268.216 178.692 268.309 175.757C268.402 172.821 269.479 170.002 271.368 167.753H271.376Z" fill="#049669"/>
<path opacity="0.1" d="M294.511 176.583C294.422 179.52 293.341 182.34 291.445 184.586C292.904 186.564 293.777 188.913 293.963 191.363C294.149 193.814 293.641 196.268 292.498 198.443C291.354 200.619 289.621 202.43 287.496 203.667C285.371 204.905 282.941 205.521 280.482 205.443C278.024 205.366 275.637 204.599 273.595 203.23C271.552 201.86 269.936 199.945 268.932 197.701C267.928 195.457 267.576 192.977 267.917 190.543C268.257 188.109 269.276 185.82 270.857 183.937C269.178 181.657 294.557 175.115 294.511 176.583Z" fill="black"/>
</g>
<g opacity="0.2">
<path d="M244.006 215.566C243.997 215.841 243.966 216.116 243.911 216.386C242.132 216.103 240.343 215.848 238.544 215.62C238.544 215.548 238.544 215.474 238.544 215.4C238.561 214.634 238.782 213.887 239.183 213.235C239.71 212.402 240.51 211.881 241.391 211.909C242.273 211.937 243.037 212.507 243.51 213.367C243.867 214.043 244.039 214.802 244.006 215.566Z" fill="#3F3D56"/>
<path d="M244.15 211.203C244.212 209.229 243.039 207.589 241.53 207.541C240.02 207.494 238.746 209.056 238.683 211.031C238.621 213.006 239.794 214.645 241.303 214.693C242.813 214.741 244.087 213.178 244.15 211.203Z" fill="#3F3D56"/>
<path d="M244.289 206.832C244.351 204.857 243.178 203.217 241.669 203.17C240.16 203.122 238.885 204.684 238.823 206.659C238.76 208.634 239.933 210.274 241.443 210.321C242.952 210.369 244.227 208.807 244.289 206.832Z" fill="#3F3D56"/>
<path d="M244.426 202.46C244.488 200.485 243.315 198.845 241.806 198.798C240.296 198.75 239.022 200.312 238.96 202.287C238.897 204.262 240.07 205.902 241.58 205.949C243.089 205.997 244.363 204.435 244.426 202.46Z" fill="#3F3D56"/>
<path d="M244.563 198.088C244.625 196.113 243.452 194.473 241.943 194.426C240.433 194.378 239.159 195.94 239.097 197.915C239.034 199.89 240.207 201.53 241.717 201.577C243.226 201.625 244.5 200.063 244.563 198.088Z" fill="#3F3D56"/>
<path d="M232.531 167.753C232.171 167.266 231.847 166.754 231.56 166.22L238.782 165.268L231.008 165.082C230.314 163.437 229.963 161.669 229.977 159.884C229.991 158.1 230.368 156.337 231.087 154.704L241.34 160.437L231.948 153.072C232.896 151.541 234.149 150.221 235.63 149.196C237.11 148.17 238.787 147.461 240.554 147.112C242.322 146.763 244.142 146.782 245.902 147.167C247.662 147.553 249.323 148.297 250.782 149.353C252.241 150.409 253.467 151.754 254.382 153.305C255.298 154.855 255.883 156.578 256.102 158.365C256.322 160.151 256.17 161.964 255.657 163.69C255.143 165.415 254.279 167.017 253.119 168.394C253.679 169.151 254.154 169.967 254.537 170.827L245.058 175.373L255.11 172.352C255.743 174.439 255.845 176.65 255.406 178.786C254.968 180.923 254.004 182.916 252.6 184.586C254.059 186.564 254.932 188.913 255.118 191.364C255.304 193.814 254.797 196.268 253.653 198.444C252.509 200.619 250.776 202.43 248.651 203.668C246.527 204.905 244.096 205.521 241.638 205.443C239.179 205.366 236.793 204.599 234.75 203.23C232.707 201.86 231.092 199.945 230.088 197.701C229.084 195.458 228.732 192.977 229.072 190.543C229.412 188.109 230.431 185.82 232.012 183.937C230.269 181.573 229.371 178.692 229.464 175.757C229.557 172.821 230.634 170.002 232.523 167.753H232.531Z" fill="#049669"/>
<path opacity="0.1" d="M255.667 176.583C255.577 179.52 254.496 182.34 252.6 184.586C254.059 186.564 254.932 188.913 255.118 191.363C255.304 193.814 254.797 196.268 253.653 198.443C252.509 200.619 250.776 202.43 248.651 203.667C246.527 204.905 244.096 205.521 241.638 205.443C239.179 205.366 236.793 204.599 234.75 203.23C232.707 201.86 231.092 199.945 230.088 197.701C229.084 195.457 228.732 192.977 229.072 190.543C229.412 188.109 230.431 185.82 232.012 183.937C230.333 181.657 255.713 175.115 255.667 176.583Z" fill="black"/>
</g>
<g opacity="0.2">
<path d="M350.113 218.36C350.093 218.882 350.031 219.401 349.926 219.912C346.502 219.366 343.053 218.877 339.579 218.447C339.579 218.309 339.579 218.168 339.579 218.025C339.611 216.551 340.036 215.111 340.811 213.855C341.833 212.254 343.366 211.251 345.06 211.302C346.755 211.353 348.229 212.453 349.149 214.111C349.843 215.416 350.176 216.883 350.113 218.36Z" fill="#3F3D56"/>
<path d="M350.391 209.952C350.511 206.149 348.252 202.992 345.344 202.9C342.437 202.808 339.982 205.817 339.862 209.62C339.742 213.423 342.001 216.581 344.909 216.672C347.816 216.764 350.271 213.756 350.391 209.952Z" fill="#3F3D56"/>
<path d="M350.656 201.536C350.777 197.733 348.517 194.575 345.61 194.483C342.702 194.391 340.248 197.4 340.128 201.203C340.007 205.006 342.267 208.164 345.174 208.256C348.082 208.347 350.536 205.339 350.656 201.536Z" fill="#3F3D56"/>
<path d="M350.925 193.119C351.045 189.316 348.785 186.158 345.878 186.067C342.971 185.975 340.516 188.983 340.396 192.786C340.276 196.59 342.535 199.747 345.442 199.839C348.35 199.931 350.804 196.922 350.925 193.119Z" fill="#3F3D56"/>
<path d="M350.891 184.319C351.005 180.514 348.739 177.359 345.83 177.272C342.922 177.185 340.471 180.198 340.357 184.003C340.242 187.808 342.508 190.964 345.417 191.051C348.326 191.138 350.776 188.124 350.891 184.319Z" fill="#3F3D56"/>
<path d="M328.02 126.313C327.33 125.376 326.706 124.392 326.152 123.369L340.054 121.535L325.091 121.175C323.755 118.01 323.079 114.606 323.104 111.17C323.129 107.735 323.856 104.341 325.239 101.196L344.981 112.23L326.903 98.0524C328.731 95.1116 331.146 92.5786 333.996 90.6112C336.847 88.6437 340.072 87.284 343.472 86.6168C346.871 85.9495 350.372 85.989 353.755 86.7329C357.139 87.4767 360.333 88.9089 363.138 90.9402C365.943 92.9715 368.3 95.5584 370.061 98.5396C371.822 101.521 372.949 104.833 373.373 108.268C373.797 111.704 373.508 115.19 372.525 118.51C371.541 121.829 369.884 124.91 367.657 127.562C368.733 129.021 369.649 130.592 370.389 132.247L352.139 141.004L371.488 135.182C372.707 139.194 372.906 143.448 372.065 147.556C371.225 151.665 369.373 155.5 366.675 158.713C369.484 162.522 371.164 167.043 371.522 171.761C371.88 176.478 370.902 181.201 368.701 185.39C366.499 189.578 363.162 193.063 359.072 195.446C354.982 197.828 350.303 199.013 345.57 198.864C340.838 198.715 336.243 197.238 332.311 194.603C328.379 191.967 325.269 188.279 323.336 183.96C321.402 179.642 320.725 174.867 321.379 170.181C322.034 165.495 323.995 161.089 327.039 157.464C323.684 152.913 321.957 147.367 322.135 141.718C322.313 136.068 324.386 130.642 328.02 126.31V126.313Z" fill="#049669"/>
<path opacity="0.1" d="M372.563 143.31C372.396 148.96 370.325 154.389 366.686 158.718C369.494 162.527 371.174 167.048 371.532 171.766C371.89 176.483 370.912 181.206 368.711 185.395C366.509 189.583 363.173 193.068 359.082 195.451C354.992 197.833 350.313 199.018 345.581 198.869C340.848 198.72 336.253 197.243 332.321 194.608C328.389 191.972 325.279 188.284 323.346 183.965C321.413 179.647 320.735 174.872 321.39 170.186C322.044 165.5 324.006 161.094 327.049 157.469C323.793 153.074 372.653 140.483 372.563 143.31Z" fill="black"/>
</g>
<path d="M149.332 218.809L152.013 218.801H155.792L160.571 141.228L207.898 62.3148L205.841 60.1085V54.5212L154.658 139.4L149.332 218.809Z" fill="#F1C0C0"/>
<path opacity="0.1" d="M152.299 218.802H155.792L160.571 141.229L207.898 62.3149L205.841 60.1086L157.024 140.046L152.299 218.802Z" fill="black"/>
<path d="M141.433 219.455L264.062 228.832L264.166 228.84L382.845 221.546L382.934 221.541V216.534L252.166 214.136L143.066 214.031H142.268L142.182 214.593L141.433 219.455Z" fill="#F1C0C0"/>
<path opacity="0.1" d="M141.433 219.455L264.062 228.832L264.166 228.84L382.845 221.546L382.934 221.449V216.638H382.829L264.062 220.602L143.066 214.031H143.048L142.833 214.172L142.182 214.593L141.433 219.455Z" fill="black"/>
<path opacity="0.1" d="M141.433 219.455L264.062 228.832V220.602L142.833 214.172L142.182 214.593L141.433 219.455Z" fill="black"/>
<path d="M205.825 60.0039L259.888 117.986L258.217 219.976L262.809 220.53L262.886 220.541H267.478L268.028 122.365L369.262 156.154L370.969 216.317L374.664 216.731L375.916 216.871L373.018 151.982L267.192 114.858L209.166 54.5801H205.825V60.0039Z" fill="#F1C0C0"/>
<path opacity="0.1" d="M267.611 120.488L268.028 122.365L369.262 156.154L370.969 216.317L374.664 216.731L371.766 154.903L267.611 120.488Z" fill="black"/>
<path opacity="0.1" d="M205.825 60.0039L259.888 117.986L258.217 219.976L262.809 220.53L264.062 114.648L205.825 54.5801V60.0039Z" fill="black"/>
<path d="M267.808 161.42L304.938 168.725L304.951 168.728L369.982 181.529L372.96 180.337L372.949 180.127L372.755 175.978L267.847 154.796L267.808 161.42Z" fill="#F1C0C0"/>
<path opacity="0.1" d="M304.951 168.728L369.982 181.529L372.96 180.337L372.949 180.127L304.951 168.728Z" fill="black"/>
<path d="M307.437 135.519L308.442 190.763L308.96 219.106L313.532 218.952L316.41 218.855L315.516 136.318L313.532 135.659L313.098 135.519H307.437Z" fill="#F1C0C0"/>
<path opacity="0.1" d="M307.478 135.506V135.519L308.442 190.763L308.96 219.105L313.532 218.952V135.506H307.478Z" fill="black"/>
<path d="M235.823 149.627C236.091 149.773 236.347 149.939 236.589 150.125C236.876 150.376 237.133 150.657 237.356 150.965C238.452 152.383 239.464 154.03 239.357 155.817C239.359 156.077 239.31 156.335 239.212 156.576C239.115 156.817 238.97 157.037 238.787 157.222C238.335 157.607 237.686 157.625 237.093 157.625C236.449 157.625 235.772 157.625 235.214 157.293C234.657 156.961 234.192 156.315 233.533 156.33C233.44 156.346 233.345 156.346 233.252 156.33C233.024 156.256 232.978 155.958 232.83 155.769C232.575 155.429 232.035 155.513 231.634 155.661C231.233 155.81 230.788 156.032 230.392 155.861C230.162 155.739 229.974 155.552 229.853 155.322C228.905 153.79 228.703 151.948 228.524 150.169C228.414 149.086 227.576 145.393 229.889 146.234C230.911 146.601 231.867 147.337 232.797 147.876L235.823 149.627Z" fill="#3F3D56"/>
<path d="M233.538 149.992C233.745 150.141 233.995 150.216 234.249 150.206C234.503 150.196 234.747 150.101 234.941 149.936C235.322 149.593 235.564 149.122 235.623 148.613C235.879 148.534 236.009 148.869 236.173 149.073C236.459 149.42 237.042 149.415 237.302 149.786C237.484 150.041 237.443 150.396 237.571 150.684C237.737 151.057 238.148 151.251 238.429 151.553C238.695 151.882 238.887 152.264 238.992 152.674L239.411 153.93C239.611 154.453 239.74 155 239.794 155.557C239.82 155.835 239.791 156.116 239.708 156.383C239.624 156.65 239.489 156.898 239.308 157.112C238.746 157.717 237.824 157.781 237.008 157.763C236.736 157.769 236.464 157.737 236.201 157.668C235.478 157.444 235.015 156.716 234.823 155.983C234.632 155.25 234.652 154.482 234.54 153.731C234.418 152.993 234.204 152.274 233.901 151.591C233.676 151.06 233.058 150.268 233.068 149.704C233.252 149.704 233.385 149.872 233.538 149.992Z" fill="#3F3D56"/>
<path d="M234.455 147.406C234.336 147.043 234.266 146.666 234.248 146.285C234.248 145.518 234.599 144.798 234.951 144.114L232.03 144.51C231.678 144.558 231.284 144.63 231.085 144.923C231.009 145.069 230.969 145.231 230.969 145.395C230.969 145.559 231.009 145.72 231.085 145.866C231.231 146.157 231.348 146.463 231.432 146.777C231.439 147.053 231.47 147.327 231.527 147.597C231.618 147.795 231.745 147.975 231.902 148.126C232.738 149.05 233.364 150.14 233.988 151.221C233.97 151.19 235.749 149.814 235.677 149.364C235.636 149.109 235.122 148.802 234.959 148.557C234.733 148.201 234.563 147.813 234.455 147.406Z" fill="#BE6F72"/>
<path d="M259.5 137.429V139.944L216.395 148.345L214.159 149.699H206.444V148.281L248.795 138.057L259.5 137.429Z" fill="#F1C0C0"/>
<path opacity="0.1" d="M259.5 139.944L216.395 148.345L214.159 149.699H206.444L249.109 140.575L259.5 139.944Z" fill="black"/>
<path d="M224.892 208.832C224.412 208.251 223.749 207.85 223.011 207.693C222.274 207.536 221.504 207.634 220.829 207.969C220.685 208.037 220.557 208.137 220.456 208.26C220.2 208.618 220.364 209.111 220.387 209.552C220.446 210.63 219.587 211.506 218.815 212.259C218.401 212.663 217.98 213.094 217.793 213.643C217.607 214.192 217.745 214.889 218.245 215.175C218.464 215.285 218.702 215.351 218.946 215.37C219.763 215.529 220.6 215.552 221.425 215.438C222.24 215.283 223.04 214.821 223.392 214.07C223.46 213.866 223.573 213.68 223.722 213.526C224.172 213.171 224.862 213.587 225.373 213.334C225.795 213.125 225.813 212.796 225.818 212.361C225.833 211.161 225.654 209.803 224.892 208.832Z" fill="#049669"/>
<path d="M231.026 208.786C231.34 209.614 231.384 210.515 231.425 211.399C231.448 211.909 231.463 212.456 231.187 212.887C230.911 213.319 230.372 213.546 229.855 213.654C228.79 213.873 227.555 213.666 226.868 212.821C226.341 212.175 226.232 211.289 226.329 210.451C226.41 209.764 226.584 208.96 226.091 208.472C225.963 208.342 225.797 208.25 225.68 208.11C225.424 207.798 225.465 207.328 225.603 206.945C225.783 206.579 225.917 206.192 226.004 205.794C226.025 205.605 229.464 205.926 229.781 206.082C230.213 206.294 230.147 206.649 230.277 207.078C230.459 207.676 230.806 208.214 231.026 208.786Z" fill="#049669"/>
<path d="M231.657 172.101C232.332 172.538 232.592 173.396 232.697 174.193C232.986 176.376 232.48 178.582 232.442 180.786C232.406 183.873 233.3 187.017 232.536 190.007C232.079 191.795 232.467 193.838 232.038 195.643C231.91 196.179 231.675 196.685 231.552 197.221C231.297 198.383 231.565 199.598 231.925 200.735C232.04 201.041 232.114 201.361 232.143 201.687C232.125 202.189 231.998 202.681 231.77 203.127L230.236 206.751C230.065 207.157 229.39 207.223 228.958 207.277C228.146 207.374 227.239 207.443 226.592 206.94C225.945 206.437 225.79 205.594 225.69 204.808C225.499 203.298 225.413 201.776 225.434 200.255C225.462 199.858 225.427 199.458 225.329 199.072C225.189 198.636 224.88 198.258 224.795 197.796C224.688 197.198 224.992 196.611 225.105 196.008C225.182 195.458 225.173 194.899 225.079 194.351C224.979 193.534 224.864 192.716 224.734 191.904C224.55 190.768 224.813 189.647 224.99 188.508C225.156 187.438 224.944 186.348 224.734 185.286C224.752 186.148 224.645 187.008 224.415 187.839C224.279 188.245 224.085 188.633 223.967 189.047C223.443 190.903 224.56 192.852 224.402 194.775C224.328 195.674 223.975 196.562 224.075 197.448C224.144 198.097 224.445 198.692 224.652 199.31C224.859 199.928 224.967 200.635 224.652 201.212C223.822 202.78 224.443 204.912 225.186 206.521C225.337 206.807 225.469 207.102 225.58 207.405C225.8 208.13 225.616 208.909 225.675 209.665C225.46 209.7 225.241 209.685 225.034 209.623C224.826 209.561 224.635 209.452 224.476 209.305C224.363 209.187 224.271 209.049 224.162 208.927C223.855 208.634 223.491 208.408 223.093 208.26C222.86 208.13 222.594 208.068 222.327 208.084C222.046 208.162 221.793 208.319 221.598 208.536C221.346 208.758 221.077 208.962 220.796 209.146C220.676 209.238 220.536 209.301 220.387 209.328C220.312 209.339 220.236 209.327 220.168 209.292C220.101 209.258 220.046 209.203 220.011 209.136C219.995 209.093 219.986 209.049 219.983 209.003C219.888 208.232 219.838 207.456 219.832 206.68C219.832 205.344 218.233 204.425 218.031 203.104C217.87 202.04 218.169 200.954 218.069 199.882C218.021 199.33 217.867 198.789 217.877 198.237C217.877 197.88 217.959 197.53 217.987 197.175C218.011 196.781 218.005 196.386 217.969 195.993L217.89 194.759C217.814 193.541 217.729 192.298 217.249 191.184C216.679 189.884 216.342 188.495 216.252 187.078C216.201 186.184 216.234 185.291 216.132 184.394C216.04 183.585 215.836 182.78 215.894 181.968C215.943 181.34 216.15 180.732 216.198 180.104C216.298 178.896 215.838 177.722 215.478 176.565C215.117 175.408 214.852 174.126 215.324 173.01C215.392 172.827 215.504 172.664 215.652 172.535C215.833 172.416 216.039 172.339 216.255 172.311C220.639 171.39 225.134 171.104 229.6 171.46C230.328 171.502 231.035 171.722 231.657 172.101Z" fill="#3F3D56"/>
<path d="M217.149 144.98C219.41 144.98 221.243 143.148 221.243 140.889C221.243 138.63 219.41 136.798 217.149 136.798C214.888 136.798 213.055 138.63 213.055 140.889C213.055 143.148 214.888 144.98 217.149 144.98Z" fill="#BE6F72"/>
<path d="M216.357 145.999C216.416 146.232 216.416 146.477 216.357 146.711C216.293 146.874 216.202 147.026 216.089 147.161C215.692 147.671 215.254 148.148 214.778 148.585C215.02 149.127 215.457 149.558 216.002 149.793C216.543 150.023 217.11 150.185 217.691 150.276C217.981 150.352 218.283 150.373 218.58 150.337C218.855 150.268 219.114 150.151 219.347 149.99L221.621 148.629C221.965 148.443 222.282 148.214 222.567 147.947C222.984 147.519 223.22 146.946 223.226 146.348C223.237 146.241 223.208 146.134 223.144 146.047C223.057 145.971 222.948 145.926 222.833 145.917C222.033 145.741 221.402 145.092 221.044 144.357C220.72 143.603 220.511 142.805 220.423 141.99L217.998 143.266C217.637 143.458 217.279 143.649 216.906 143.815C216.669 143.923 216.188 144.012 216.02 144.229C215.698 144.63 216.273 145.516 216.357 145.999Z" fill="#BE6F72"/>
<path d="M214.793 147.842C214.448 148.125 214.178 148.489 214.008 148.902C213.85 149.413 214.008 149.952 214.151 150.457C214.822 152.612 215.335 154.813 215.685 157.043C215.899 158.575 215.979 160.13 216.083 161.68C216.298 164.842 216.61 169.882 217.026 173.023C218.56 173.092 220.055 172.645 221.575 172.482C224.417 172.181 227.343 172.87 230.126 172.227C229.452 169.563 228.777 165.015 228.102 162.354C227.804 161.306 227.597 160.234 227.484 159.15C227.425 158.371 227.461 157.589 227.471 156.806C227.494 155.273 227.41 153.741 227.325 152.209C227.228 150.422 227.131 148.634 226.707 146.885C226.677 146.662 226.573 146.456 226.411 146.3C226.155 146.114 225.823 146.18 225.519 146.221C224.587 146.339 223.645 146.116 222.866 145.593C222.529 145.363 222.076 145.082 221.762 145.337C221.628 145.491 221.539 145.68 221.506 145.881C221.367 146.243 221.153 146.57 220.877 146.842C220.601 147.113 220.27 147.323 219.907 147.457C219.178 147.72 218.416 147.877 217.642 147.922C217.406 147.972 217.159 147.945 216.94 147.842C216.577 147.62 216.551 146.821 216.094 146.767C215.692 146.721 215.064 147.585 214.793 147.842Z" fill="#3F3D56"/>
<path d="M220.839 154.078C219.896 153.177 219.482 151.869 218.795 150.758C218.327 150.012 217.729 149.354 217.029 148.818C216.677 148.586 216.355 148.312 216.068 148.003C215.825 147.704 215.641 147.306 215.273 147.191C215.121 147.158 214.963 147.162 214.813 147.204C214.663 147.245 214.526 147.322 214.412 147.429C214.187 147.643 213.974 147.87 213.773 148.108C212.69 149.229 210.786 149.385 209.927 150.682C209.695 150.957 209.538 151.287 209.47 151.639C209.222 153.528 209.711 155.438 210.834 156.976C211.052 157.333 211.386 157.604 211.78 157.743C211.726 158.219 211.79 158.701 211.964 159.147C212.437 160.763 213.018 162.346 213.704 163.884C213.54 164.486 213.426 165.1 213.362 165.72C213.183 167.28 213.349 168.863 213.18 170.426C213.042 171.703 212.669 172.947 212.656 174.226C212.656 174.43 212.674 174.673 212.851 174.778C212.944 174.826 213.049 174.848 213.155 174.841L216.298 174.936C218.123 174.99 219.965 175.043 221.762 174.706C222.001 174.671 222.233 174.597 222.449 174.489C223.058 174.149 223.259 173.383 223.357 172.702C223.483 171.817 223.534 170.923 223.507 170.03C223.888 171.233 224.34 172.477 225.49 172.998C226.099 173.274 226.794 173.253 227.461 173.235C228.898 173.171 230.331 173.024 231.752 172.793C231.839 172.804 231.928 172.795 232.011 172.765C232.094 172.735 232.169 172.687 232.23 172.623C232.291 172.559 232.336 172.482 232.362 172.398C232.387 172.313 232.393 172.224 232.378 172.137L232.393 170.743C232.424 167.911 231.721 165.204 231.448 162.385C231.361 161.496 231.368 160.597 231.151 159.727C231.062 159.362 230.931 159.004 230.852 158.636C230.784 158.276 230.741 157.912 230.724 157.546L230.525 154.737C230.43 153.437 230.295 152.183 230.195 150.886C230.141 149.623 229.957 148.369 229.648 147.143C229.426 146.377 228.964 145.508 228.164 145.414C227.737 145.365 227.323 145.552 226.916 145.682C225.918 145.996 224.846 145.992 223.85 145.669C223.542 145.548 223.221 145.462 222.894 145.414C222.729 145.391 222.561 145.413 222.408 145.477C222.254 145.541 222.12 145.644 222.02 145.776C221.921 145.976 221.874 146.197 221.885 146.42C221.764 148.971 221.542 151.599 220.839 154.078Z" fill="#049669"/>
<path d="M216.727 154.155C215.549 152.914 214.341 151.65 212.823 150.861C212.225 150.549 211.545 150.314 210.883 150.432C210.221 150.549 209.605 151.124 209.636 151.795C209.656 152.212 209.909 152.579 209.988 152.988C210.08 153.447 209.948 153.938 210.091 154.382C210.207 154.675 210.381 154.941 210.602 155.166L212.411 157.308C213.178 158.202 213.944 159.109 214.931 159.727C215.917 160.345 217.195 160.633 218.279 160.194C219.05 159.836 219.691 159.248 220.114 158.511C220.563 157.796 220.88 157.015 221.302 156.277C221.958 155.098 222.824 154.048 223.857 153.179C223.326 153.041 222.659 152.847 222.324 152.413C222.229 152.275 222.148 152.128 222.081 151.974L221.667 151.08C221.527 151.073 221.386 151.095 221.254 151.144C221.122 151.194 221.002 151.271 220.901 151.369C220.723 151.574 220.533 151.767 220.331 151.948C219.97 152.219 219.482 152.293 219.155 152.602C219.029 152.735 218.914 152.878 218.813 153.031C218.565 153.356 218.251 153.625 217.892 153.818C217.532 154.012 217.135 154.127 216.727 154.155Z" fill="#3F3D56"/>
<path d="M223.952 148.815C224.839 147.199 224.798 145.261 225.051 143.435C225.078 142.951 225.248 142.487 225.539 142.099C226.05 141.522 226.952 141.514 227.724 141.589C227.952 141.614 228.235 141.721 228.222 141.949C228.204 142.03 228.165 142.105 228.107 142.166C227.359 143.13 226.919 144.298 226.845 145.516C227.246 145.794 227.867 145.222 228.253 145.516C228.509 145.73 228.391 146.154 228.238 146.461C227.882 147.171 227.515 147.875 227.136 148.575C226.834 149.192 226.441 149.759 225.968 150.258C225.644 150.57 225.263 150.815 224.933 151.121C224.167 151.839 223.704 152.852 222.912 153.552C222.845 153.625 222.754 153.671 222.656 153.682C222.556 153.675 222.461 153.633 222.388 153.562C221.992 153.241 221.664 152.844 221.422 152.395C221.12 151.839 221.166 151.675 221.642 151.282C222.531 150.58 223.397 149.826 223.952 148.815Z" fill="#BE6F72"/>
<path d="M215.245 153.057C215.399 153.151 215.588 153.259 215.756 153.179C215.825 153.138 215.884 153.081 215.928 153.013C216.22 152.624 216.463 152.2 216.653 151.752C216.686 151.689 216.704 151.619 216.707 151.548C216.707 151.384 216.561 151.264 216.426 151.17C215.7 150.708 214.92 150.337 214.103 150.067C213.428 149.811 212.723 149.589 212.007 149.653C211.738 149.671 211.476 149.743 211.236 149.865C210.996 149.987 210.782 150.156 210.609 150.363C210.098 151.019 210.954 151.218 211.491 151.456C212.733 152.02 214.077 152.347 215.245 153.057Z" fill="#049669"/>
<path opacity="0.1" d="M214.44 157.398C214.432 157.456 214.437 157.516 214.455 157.572C214.474 157.627 214.506 157.678 214.548 157.72C214.622 157.357 214.525 156.974 214.601 156.609C214.714 156.06 215.248 155.646 215.294 155.095C214.315 154.903 214.448 156.805 214.44 157.398Z" fill="black"/>
<path opacity="0.2" d="M259.5 137.429V139.944L249.109 140.575L248.795 138.057L259.5 137.429Z" fill="black"/>
<path d="M213.464 141.497C214.113 140.968 213.737 139.86 214.177 139.15C214.433 138.762 214.864 138.557 215.289 138.384C215.801 138.144 216.349 137.992 216.911 137.934C217.193 137.907 217.477 137.944 217.743 138.042C218.008 138.139 218.248 138.296 218.445 138.499C218.611 138.688 218.723 138.917 218.879 139.114C219.072 139.343 219.324 139.516 219.607 139.614C219.891 139.712 220.196 139.732 220.489 139.671C220.829 139.594 221.182 139.336 221.159 138.989C221.12 138.778 221.012 138.585 220.852 138.442L220.121 137.633C219.291 136.714 218.368 135.738 217.149 135.508C216.301 135.348 215.432 135.575 214.614 135.848C214.284 135.958 213.914 136.121 213.822 136.456C213.76 136.686 213.852 136.936 213.799 137.168C213.694 137.63 213.101 137.786 212.825 138.174C212.549 138.562 212.633 139.022 212.554 139.451C212.475 139.88 212.245 140.299 212.217 140.743C212.199 141.011 212.334 141.509 212.636 141.606C212.938 141.703 213.277 141.177 213.464 141.497Z" fill="#3F3D56"/>
<path d="M220.911 138.621C220.695 137.498 220.231 136.437 219.551 135.516C218.947 134.656 218.107 133.989 217.131 133.596C216.644 133.406 216.119 133.328 215.597 133.369C215.076 133.41 214.57 133.569 214.118 133.833C213.448 134.312 212.926 134.969 212.613 135.731C211.951 137.156 211.706 138.897 212.475 140.266C212.782 139.893 213.308 140.062 213.773 139.926C214.356 139.76 214.849 139.372 215.404 139.13C217.078 138.392 219.122 138.989 220.911 138.621Z" fill="#FED253"/>
<path opacity="0.1" d="M212.866 138.542C212.807 138.083 212.769 137.549 213.096 137.222C213.112 137.202 213.133 137.186 213.156 137.175C213.18 137.165 213.206 137.16 213.231 137.161C213.254 137.168 213.275 137.18 213.293 137.196C213.311 137.212 213.326 137.231 213.336 137.253C213.525 137.55 213.686 137.865 213.817 138.192C213.626 138.149 213.427 138.163 213.245 138.233C213.062 138.304 212.906 138.428 212.794 138.588" fill="black"/>
<path opacity="0.1" d="M218.838 137.245L218.746 136.333C218.732 136.258 218.738 136.18 218.764 136.109C218.803 136.048 218.862 136.005 218.931 135.986C219 135.967 219.074 135.974 219.137 136.006C219.263 136.076 219.367 136.18 219.436 136.305C219.649 136.632 219.826 136.98 219.963 137.345C219.551 137.265 219.128 137.27 218.718 137.36" fill="black"/>
<path opacity="0.1" d="M221.126 174.244V176.328L219.365 176.445H210.103V174.244H221.126Z" fill="black"/>
<path d="M221.126 174.244V176.445H210.103L180.822 139.793V138.062H186.96L221.126 174.244Z" fill="#F1C0C0"/>
<path opacity="0.1" d="M221.126 174.244V176.445H210.103L180.822 139.793V138.062H186.96L221.126 174.244Z" fill="black"/>
<path opacity="0.1" d="M221.126 174.244V176.445H210.103L180.822 139.793V138.062L210.262 174.244H221.126Z" fill="black"/>
<path d="M184.66 210.98C184.679 211.084 184.677 211.19 184.653 211.293C184.63 211.395 184.585 211.492 184.522 211.577C184.459 211.661 184.38 211.732 184.288 211.784C184.197 211.837 184.095 211.87 183.991 211.881C183.28 212.121 182.526 212.359 182.023 212.903C181.519 213.447 181.42 214.455 182.023 214.897C182.331 215.083 182.685 215.179 183.045 215.176C184.203 215.255 185.409 215.239 186.459 214.749C187.211 214.402 187.919 213.809 188.744 213.863C189.171 213.888 189.626 214.088 190.006 213.894C190.387 213.7 190.495 213.158 190.497 212.706C190.507 211.763 190.364 210.824 190.075 209.925C190.037 209.803 188.412 209.708 188.218 209.67L186.247 209.415C185.874 209.366 185.069 209.085 184.775 209.397C184.481 209.708 184.66 210.61 184.66 210.98Z" fill="#049669"/>
<path d="M196.418 204.606C196.502 205.066 196.637 205.515 196.822 205.944C197.096 206.639 197.446 207.377 198.115 207.714C198.723 208.018 199.47 207.908 200.088 207.619C200.346 207.512 200.572 207.341 200.745 207.121C200.944 206.774 201.034 206.374 201 205.975C201 204.987 200.942 203.965 200.489 203.087C200.101 202.321 199.424 201.662 199.413 200.814L197.085 201.263C196.961 201.275 196.842 201.322 196.743 201.399C196.669 201.476 196.618 201.573 196.595 201.677C196.346 202.633 196.286 203.628 196.418 204.606Z" fill="#049669"/>
<path d="M168.616 180.347C168.519 181.169 168.56 182.05 168.989 182.76C169.419 183.47 170.323 183.94 171.105 183.656C171.146 183.646 171.183 183.628 171.216 183.603C171.249 183.578 171.277 183.547 171.297 183.511C171.318 183.425 171.306 183.334 171.264 183.256C170.919 182.335 170.947 181.316 171.343 180.416C171.394 180.298 171.504 180.161 171.624 180.207C171.674 180.232 171.715 180.273 171.739 180.324C171.863 180.538 171.925 180.782 171.918 181.029C171.882 181.253 171.875 181.48 171.898 181.705C171.946 181.925 172.181 182.132 172.386 182.037C172.445 182.001 172.496 181.953 172.536 181.897C172.576 181.84 172.604 181.776 172.618 181.708C173.188 180.061 172.93 178.261 172.669 176.537C172.672 176.497 172.665 176.458 172.65 176.421C172.635 176.384 172.613 176.351 172.584 176.324C172.555 176.297 172.52 176.277 172.482 176.265C172.445 176.252 172.405 176.249 172.365 176.254C171.159 176.134 170.5 175.845 169.81 176.966C169.217 177.911 168.616 179.211 168.616 180.347Z" fill="#049669"/>
<path d="M182.718 176.157C182.36 177.643 182 179.147 181.977 180.674C181.983 181.625 182.055 182.575 182.191 183.516L182.46 185.727C182.552 186.473 182.641 187.216 182.772 187.954C182.855 188.334 182.9 188.722 182.907 189.111C182.882 189.495 182.821 189.875 182.726 190.247C182.565 191.029 182.475 191.824 182.457 192.622C182.429 193.899 182.588 195.176 182.687 196.453C182.886 198.997 182.856 201.554 182.598 204.093C182.495 204.778 182.644 205.478 183.017 206.062C183.168 206.246 183.293 206.45 183.388 206.669C183.579 207.254 183.132 207.839 183.017 208.439C182.943 208.907 183.059 209.385 183.338 209.768C183.616 210.151 184.036 210.408 184.504 210.482C186.549 210.725 188.649 210.615 190.492 211.549C190.686 210.983 190.262 210.339 190.456 209.762C190.579 209.404 190.916 209.172 191.146 208.871C191.455 208.412 191.609 207.866 191.586 207.313C191.595 206.591 191.466 205.875 191.208 205.201C190.99 204.639 190.679 204.085 190.696 203.483C190.696 203.186 190.801 202.875 190.681 202.602C190.599 202.445 190.487 202.305 190.351 202.19C189.588 201.354 189.118 200.292 189.015 199.164C188.915 198.046 188.951 196.919 189.122 195.809C189.247 194.752 189.416 193.636 190.088 192.811C189.777 190.31 189.96 187.772 190.627 185.342C190.694 185.117 190.799 184.857 191.029 184.803C191.12 184.794 191.212 184.806 191.298 184.84C191.383 184.874 191.459 184.928 191.519 184.997C191.921 185.373 192.112 185.916 192.286 186.437C192.478 187.002 192.672 187.604 192.526 188.181C192.465 188.437 192.342 188.662 192.271 188.907C192.115 189.399 192.142 189.931 192.347 190.406C192.447 190.579 192.51 190.771 192.531 190.97C192.508 191.141 192.456 191.306 192.378 191.46C192.283 191.762 192.253 192.081 192.29 192.396C192.326 192.71 192.429 193.014 192.59 193.286C192.916 193.828 193.318 194.321 193.784 194.749C193.561 195.729 193.619 196.752 193.95 197.701C193.974 197.744 193.989 197.791 193.994 197.84C194 197.888 193.996 197.938 193.983 197.985C193.937 198.082 193.819 198.118 193.727 198.186C193.472 198.396 193.63 198.792 193.801 199.065C194.271 199.815 194.789 200.533 195.353 201.215C195.864 201.825 195.818 203.003 196.579 203.222C196.899 203.291 197.23 203.291 197.55 203.222C198.302 203.107 199.14 202.89 199.508 202.226C199.659 201.953 199.72 201.621 199.955 201.417C200.19 201.212 200.494 201.177 200.625 200.932C200.755 200.686 200.609 200.365 200.653 200.081C200.696 199.798 200.944 199.571 201.023 199.272C201.213 198.582 200.408 198.015 200.298 197.311C200.139 196.289 201.427 195.523 201.374 194.502C201.261 192.283 201.19 190.053 201.075 187.834C200.93 185.846 200.91 183.852 201.013 181.861C201.103 180.623 201.269 179.326 200.814 178.174C200.16 176.55 198.355 175.638 196.61 175.465C194.865 175.291 193.124 175.705 191.394 175.975C188.523 176.418 185.605 176.478 182.718 176.157Z" fill="#3F3D56"/>
<path d="M187.906 151.749C190.167 151.749 192 149.918 192 147.658C192 145.399 190.167 143.568 187.906 143.568C185.645 143.568 183.812 145.399 183.812 147.658C183.812 149.918 185.645 151.749 187.906 151.749Z" fill="#FBBEBE"/>
<path d="M186.24 152.513C186.1 152.836 185.867 153.11 185.569 153.299C185.271 153.487 184.923 153.58 184.571 153.567C184.422 154.18 184.778 154.798 185.184 155.281C186.028 156.262 187.118 157 188.343 157.42C189.567 157.84 190.882 157.926 192.151 157.668C192.644 157.58 193.113 157.385 193.523 157.096C194.076 156.635 194.447 155.993 194.571 155.283C194.688 154.579 194.722 153.863 194.67 153.151C194.685 153.01 194.644 152.87 194.558 152.758C194.456 152.679 194.329 152.637 194.2 152.64C193.336 152.564 192.434 152.531 191.675 152.107C190.916 151.683 190.377 150.725 190.742 149.939C190.684 150.061 189.191 150.12 188.994 150.146C188.379 150.232 187.763 150.329 187.149 150.442C186.855 150.458 186.563 150.513 186.283 150.605C185.912 150.797 186.05 150.702 186.137 151.05C186.268 151.581 186.459 151.961 186.24 152.513Z" fill="#FBBEBE"/>
<path d="M189.355 155C188.803 155.006 188.253 154.945 187.717 154.819C187.175 154.692 186.697 154.374 186.372 153.922C186.183 153.636 186.061 153.276 185.759 153.115C185.266 152.86 184.704 153.292 184.31 153.687C183.952 154.078 183.536 154.412 183.078 154.678C182.531 154.967 181.892 155.069 181.376 155.409C180.973 155.713 180.627 156.087 180.354 156.512L176.733 161.44C175.279 163.422 174.014 165.549 172.718 167.64C171.596 169.451 171.008 171.534 170.162 173.488C170.095 173.607 170.068 173.745 170.083 173.881C170.114 174.014 170.275 174.121 170.387 174.045C170.007 174.423 170.341 175.066 170.252 175.597C170.15 175.969 169.938 176.301 169.644 176.55C170.206 176.476 170.777 176.503 171.33 176.629C171.902 176.791 172.441 177.05 172.925 177.395C173.234 177.346 173.206 176.797 173.436 176.593C173.574 176.473 173.779 176.488 173.96 176.453C174.642 176.32 174.913 175.5 175.437 175.038C175.874 174.652 176.493 174.527 176.955 174.165C177.706 173.575 177.867 172.525 178.261 171.654C178.596 170.916 179.122 170.273 179.416 169.517C179.608 169.027 179.7 168.496 179.973 168.044C180.41 167.313 181.233 166.925 182.018 166.575C182.513 166.353 183.04 166.123 183.574 166.159C183.546 167.347 183.395 168.516 183.653 169.675C183.743 170.084 183.868 170.482 183.975 170.888C184.463 172.717 184.578 174.622 184.601 176.506C185.776 176.238 186.975 176.094 188.179 176.077C189.127 176.049 190.073 176.172 191.021 176.154C192.145 176.133 193.257 175.916 194.382 175.84C195.506 175.763 196.682 175.84 197.676 176.351C197.595 174.732 197.64 173.11 197.811 171.499L198.082 168.96C198.143 168.223 198.257 167.491 198.422 166.769C198.57 166.187 198.785 165.625 198.948 165.046C199.523 163.003 199.419 160.822 199.309 158.695C199.252 157.602 198.831 156.527 198.335 155.554C198.156 155.193 197.951 154.845 197.722 154.512C197.123 153.687 196.324 153.028 195.401 152.595C194.478 152.161 193.46 151.969 192.442 152.035C192.312 152.039 192.184 152.067 192.064 152.117C191.848 152.255 191.679 152.455 191.581 152.692C191.052 153.641 190.285 154.437 189.355 155Z" fill="#3F3D56"/>
<path d="M184.305 149.015C184.42 148.759 184.729 148.665 184.918 148.46C185.281 148.072 185.118 147.452 185.174 146.928C185.266 146.162 185.902 145.521 186.631 145.248C187.373 145.01 188.164 144.96 188.931 145.102C189.3 145.129 189.656 145.248 189.968 145.447C190.101 145.544 190.224 145.669 190.349 145.759C190.577 145.897 190.85 145.94 191.11 145.879C191.37 145.819 191.596 145.659 191.739 145.434C190.834 144.347 189.833 143.197 188.458 142.863C187.986 142.767 187.505 142.721 187.024 142.728C186.388 142.715 185.731 142.705 185.143 142.947C184.343 143.277 183.781 144.035 183.492 144.852C183.24 145.68 183.105 146.54 183.091 147.406C183.039 147.983 183.039 148.565 183.091 149.142C183.19 149.931 183.483 150.683 183.945 151.331C184.007 151.431 184.095 151.513 184.2 151.568C185.366 152.079 184.21 149.226 184.305 149.015Z" fill="#3F3D56"/>
<path d="M191.606 144.803C191.466 143.601 190.607 142.607 189.695 141.808C188.959 141.115 188.083 140.588 187.126 140.263C186.163 139.98 185.054 140.041 184.228 140.616C183.564 141.078 183.142 141.813 182.818 142.554C182.391 143.428 182.18 144.391 182.202 145.363C182.266 146.328 182.736 147.306 183.574 147.794C183.876 147.349 184.399 147.12 184.903 146.938C187.097 146.106 189.335 145.394 191.606 144.803Z" fill="#FED253"/>
<path opacity="0.1" d="M183.855 144.303C183.937 144.303 183.991 144.387 184.032 144.456C184.24 144.78 184.418 145.122 184.566 145.478C184.267 145.542 183.753 145.613 183.605 145.35C183.525 145.217 183.62 144.29 183.855 144.303Z" fill="black"/>
<path opacity="0.1" d="M189.679 143.726C189.618 143.785 189.546 143.665 189.546 143.578V142.587C189.545 142.56 189.551 142.532 189.564 142.508C189.575 142.496 189.588 142.486 189.602 142.479C189.617 142.472 189.633 142.468 189.649 142.467C189.856 142.444 190.027 142.62 190.16 142.789C190.361 143.062 190.537 143.354 190.684 143.66L189.603 143.626" fill="black"/>
<path d="M203.17 160.133C203.405 159.91 203.656 159.704 203.921 159.517C204.629 159.045 205.486 158.858 206.28 158.557C207.075 158.256 207.883 157.768 208.192 156.976C208.347 156.481 208.397 155.96 208.34 155.444C208.347 155.228 208.309 155.014 208.228 154.814C208.13 154.637 207.992 154.486 207.824 154.374C206.745 153.578 205.299 153.514 203.96 153.595C201.008 153.778 198.114 154.5 195.422 155.725C195.279 155.772 195.155 155.861 195.064 155.981C195.011 156.091 194.988 156.213 194.995 156.335C194.947 157.089 195.045 157.844 195.284 158.56C195.636 159.469 196.362 160.202 196.666 161.129C196.804 161.545 196.85 161.987 196.97 162.405C197.069 162.838 197.325 163.218 197.688 163.473C198.698 164.075 199.651 163.266 200.351 162.638L203.17 160.133Z" fill="#3F3D56"/>
<path d="M189.95 163.669L188.655 160.845C188.465 160.454 188.301 160.05 188.164 159.637C188.016 159.144 187.944 158.634 187.806 158.138C187.351 156.489 186.204 155.115 185.644 153.498C185.609 153.353 185.537 153.218 185.434 153.108C185.353 153.05 185.259 153.011 185.161 152.993C185.062 152.976 184.961 152.98 184.865 153.006C184.083 153.141 183.472 153.736 182.756 154.073C182.424 154.226 182.066 154.328 181.734 154.505C181.568 154.583 181.421 154.697 181.303 154.837C181.184 154.978 181.098 155.142 181.049 155.319C180.97 155.71 181.164 156.085 181.328 156.466C182.023 158.034 182.181 159.785 182.212 161.501C182.235 162.656 182.176 163.894 181.494 164.821C180.183 166.609 181.021 169.234 181.512 171.397C181.57 171.652 181.639 171.928 181.68 172.198C181.724 172.537 181.743 172.878 181.739 173.22C181.739 174.366 181.675 175.549 181.195 176.588C181.669 176.84 182.192 176.988 182.728 177.022C184.212 177.211 185.702 177.344 187.198 177.421C187.667 177.465 188.139 177.44 188.601 177.349C189.149 177.201 189.633 176.875 189.975 176.421C190.317 175.968 190.498 175.414 190.489 174.847C190.571 175.554 190.722 176.322 191.236 176.813C191.749 177.303 192.498 177.377 193.196 177.415C195.165 177.52 197.139 177.464 199.099 177.249C199.224 177.244 199.347 177.215 199.462 177.165C199.84 176.976 199.861 176.455 199.83 176.036C199.774 175.253 199.715 174.469 199.62 173.69C199.54 173.193 199.499 172.691 199.498 172.188C199.537 171.671 199.622 171.158 199.753 170.656C200.096 169.063 200.367 167.436 200.252 165.804C200.206 165.407 200.19 165.006 200.203 164.607C200.27 163.705 200.745 162.847 200.655 161.951C200.4 159.316 200.193 156.611 199.457 154.068C199.324 153.613 199.155 153.126 198.759 152.865C198.248 152.523 197.53 152.702 196.945 152.485C196.67 152.357 196.409 152.202 196.165 152.023C195.636 151.692 195.029 151.505 194.405 151.481C193.934 151.463 193.41 151.568 193.127 151.946C192.995 152.159 192.908 152.396 192.871 152.643C192.501 154.201 192.066 155.741 191.632 157.28L191.215 158.756L190.098 162.72C189.989 163.141 190.063 163.271 189.95 163.669Z" fill="#049669"/>
<path d="M196.485 148.208L221.205 174.165V176.366H210.183L191.606 152.14" fill="#F1C0C0"/>
<path opacity="0.1" d="M196.485 148.208L221.205 174.165V176.366H210.183L191.606 152.14" fill="black"/>
<path opacity="0.1" d="M192 151.798L192.079 151.826L210.341 174.165H221.205V176.366H210.183L191.606 152.14L192 151.798Z" fill="black"/>
<path d="M194.844 152.344C193.95 152.735 192.956 153.235 192.687 154.175C192.634 154.34 192.623 154.516 192.654 154.686C192.719 154.886 192.844 155.062 193.011 155.19C193.179 155.318 193.381 155.393 193.592 155.403C194.013 155.414 194.431 155.337 194.821 155.179L200.098 153.437C200.241 153.391 200.405 153.322 200.441 153.182C200.45 153.094 200.432 153.004 200.39 152.926C200.226 152.528 200.065 151.714 199.723 151.435C199.442 151.21 198.884 151.29 198.545 151.295C197.236 151.305 196.007 151.834 194.844 152.344Z" fill="#049669"/>
<path d="M199.549 153.644C200.438 153.642 201.322 153.779 202.168 154.05C203.019 154.326 203.772 154.84 204.338 155.531C204.503 155.724 204.62 155.954 204.68 156.2C204.732 156.456 205.565 156.609 205.381 156.783C205.94 156.693 205.807 156.956 206.375 156.951C206.942 156.946 207.556 156.8 207.895 156.348C208.132 155.977 208.237 155.538 208.194 155.1C208.202 154.797 208.144 154.495 208.026 154.216C207.77 153.68 207.182 153.391 206.641 153.144L202.076 151.057C201.812 150.917 201.527 150.816 201.233 150.759C200.985 150.735 200.736 150.741 200.489 150.776L198.422 151.014C198.874 151.306 199.242 151.711 199.49 152.189C199.738 152.667 199.857 153.201 199.835 153.739" fill="#3F3D56"/>
</g>
<path d="M214.461 264.211L214.445 264.234C212.781 264.234 211.391 263.68 210.273 262.562C209.156 261.445 208.602 260.062 208.602 258.406C208.602 256.75 209.156 255.367 210.266 254.266C211.375 253.164 212.758 252.609 214.422 252.609C215.766 252.609 216.914 252.945 217.859 253.625C218.805 254.305 219.438 255.133 219.758 256.109L218.078 256.531C217.836 255.867 217.391 255.32 216.742 254.883C216.094 254.445 215.328 254.227 214.445 254.227C213.242 254.227 212.266 254.625 211.516 255.43C210.766 256.234 210.391 257.219 210.391 258.383C210.391 259.555 210.766 260.547 211.516 261.367C212.266 262.188 213.242 262.594 214.445 262.594C215.328 262.594 216.094 262.383 216.742 261.953C217.391 261.523 217.836 260.977 218.07 260.312L219.75 260.742C219.43 261.711 218.805 262.531 217.867 263.203C216.93 263.875 215.797 264.211 214.461 264.211ZM225.37 264.211H225.362C224.136 264.211 223.12 263.805 222.308 263C221.495 262.195 221.089 261.188 221.089 259.977C221.089 258.773 221.495 257.766 222.308 256.961C223.12 256.156 224.136 255.75 225.362 255.75C226.589 255.75 227.612 256.148 228.425 256.953C229.237 257.758 229.644 258.766 229.644 259.977C229.644 261.188 229.237 262.195 228.425 263C227.612 263.805 226.597 264.211 225.37 264.211ZM225.362 262.688C226.128 262.688 226.761 262.43 227.261 261.914C227.761 261.398 228.011 260.758 228.011 259.992C228.011 259.211 227.761 258.562 227.261 258.047C226.761 257.531 226.128 257.273 225.362 257.273C224.597 257.273 223.964 257.531 223.472 258.047C222.979 258.562 222.729 259.211 222.729 259.992C222.729 260.758 222.979 261.398 223.472 261.914C223.964 262.43 224.597 262.688 225.362 262.688ZM241.053 255.742H241.045C242.006 255.742 242.771 256.047 243.342 256.656C243.912 257.266 244.201 258.109 244.201 259.188V264H242.521V259.508C242.521 258.812 242.373 258.273 242.068 257.891C241.764 257.508 241.311 257.312 240.709 257.312C240.092 257.312 239.6 257.539 239.24 257.984C238.881 258.43 238.701 259.031 238.701 259.789V264H237.037V259.508C237.037 258.812 236.889 258.273 236.592 257.891C236.295 257.508 235.865 257.312 235.295 257.312C234.654 257.312 234.146 257.547 233.779 258.016C233.412 258.484 233.225 259.125 233.225 259.938V264H231.545V255.953H233.225V257.07C233.834 256.188 234.678 255.742 235.756 255.742C236.928 255.742 237.756 256.203 238.232 257.117C238.842 256.203 239.779 255.742 241.053 255.742ZM247.407 254.641C247.11 254.641 246.86 254.539 246.657 254.344C246.454 254.148 246.353 253.898 246.353 253.602C246.353 253.328 246.454 253.086 246.657 252.883C246.86 252.68 247.11 252.578 247.407 252.578C247.704 252.578 247.954 252.68 248.157 252.883C248.36 253.086 248.462 253.328 248.462 253.602C248.462 253.898 248.36 254.148 248.157 254.344C247.954 254.539 247.704 254.641 247.407 254.641ZM246.556 264V255.953H248.22V264H246.556ZM255.129 255.742V255.727C256.152 255.727 256.941 256.039 257.496 256.672C258.051 257.305 258.324 258.172 258.324 259.273V263.992H256.66V259.578C256.66 258.867 256.496 258.312 256.16 257.914C255.824 257.516 255.332 257.312 254.684 257.312C253.98 257.312 253.418 257.555 252.996 258.047C252.574 258.539 252.363 259.188 252.363 260V264H250.684V255.953H252.363V257.148C253.027 256.211 253.949 255.742 255.129 255.742ZM267.007 255.953L268.694 255.984V263.742C268.694 264.875 268.319 265.797 267.569 266.516C266.819 267.234 265.835 267.594 264.616 267.594C262.835 267.594 261.554 266.891 260.78 265.492L262.249 264.953C262.741 265.773 263.538 266.18 264.647 266.172C265.39 266.172 265.968 265.945 266.382 265.492C266.796 265.039 267.007 264.453 267.015 263.742V262.562C266.343 263.469 265.397 263.922 264.187 263.922C263.022 263.922 262.062 263.531 261.304 262.75C260.546 261.969 260.171 260.992 260.171 259.828C260.171 258.633 260.546 257.656 261.296 256.891C262.046 256.125 263.007 255.742 264.179 255.742C265.39 255.742 266.335 256.188 267.007 257.086V255.953ZM264.444 262.43H264.429C265.171 262.43 265.796 262.188 266.296 261.695C266.796 261.203 267.046 260.586 267.046 259.852C267.046 259.117 266.796 258.508 266.296 258.023C265.796 257.539 265.171 257.297 264.429 257.297C263.663 257.297 263.038 257.539 262.546 258.016C262.054 258.492 261.812 259.102 261.812 259.852C261.812 260.602 262.062 261.219 262.554 261.703C263.046 262.188 263.679 262.43 264.444 262.43ZM279.739 264.211L279.692 264.219C278.442 264.219 277.372 263.891 276.474 263.242C275.575 262.594 274.966 261.789 274.646 260.836L276.286 260.344C276.544 261.023 276.981 261.586 277.599 262.023C278.216 262.461 278.942 262.68 279.786 262.68C280.528 262.68 281.138 262.5 281.614 262.148C282.091 261.797 282.333 261.391 282.333 260.93C282.333 260.555 282.2 260.242 281.927 259.984C281.653 259.727 281.2 259.5 280.56 259.297L277.747 258.398C276.067 257.875 275.231 256.961 275.231 255.656C275.231 254.812 275.599 254.086 276.333 253.484C277.067 252.883 277.989 252.578 279.099 252.578C280.239 252.578 281.224 252.844 282.052 253.375C282.88 253.906 283.466 254.57 283.81 255.367L282.192 255.852C281.927 255.328 281.528 254.906 280.989 254.586C280.45 254.266 279.825 254.109 279.114 254.109C278.497 254.109 277.989 254.258 277.591 254.555C277.192 254.852 276.989 255.203 276.989 255.609C276.989 255.93 277.106 256.195 277.333 256.406C277.56 256.617 277.927 256.797 278.427 256.945L281.177 257.82C282.146 258.125 282.88 258.5 283.372 258.945C283.864 259.391 284.114 260.008 284.114 260.805C284.114 261.766 283.708 262.57 282.896 263.227C282.083 263.883 281.028 264.211 279.739 264.211ZM289.883 264.211H289.875C288.648 264.211 287.633 263.805 286.82 263C286.008 262.195 285.602 261.188 285.602 259.977C285.602 258.773 286.008 257.766 286.82 256.961C287.633 256.156 288.648 255.75 289.875 255.75C291.102 255.75 292.125 256.148 292.938 256.953C293.75 257.758 294.156 258.766 294.156 259.977C294.156 261.188 293.75 262.195 292.938 263C292.125 263.805 291.109 264.211 289.883 264.211ZM289.875 262.688C290.641 262.688 291.273 262.43 291.773 261.914C292.273 261.398 292.523 260.758 292.523 259.992C292.523 259.211 292.273 258.562 291.773 258.047C291.273 257.531 290.641 257.273 289.875 257.273C289.109 257.273 288.477 257.531 287.984 258.047C287.492 258.562 287.242 259.211 287.242 259.992C287.242 260.758 287.492 261.398 287.984 261.914C288.477 262.43 289.109 262.688 289.875 262.688ZM299.831 264.211H299.823C298.597 264.211 297.581 263.805 296.769 263C295.956 262.195 295.55 261.188 295.55 259.977C295.55 258.773 295.956 257.766 296.769 256.961C297.581 256.156 298.597 255.75 299.823 255.75C301.05 255.75 302.073 256.148 302.886 256.953C303.698 257.758 304.104 258.766 304.104 259.977C304.104 261.188 303.698 262.195 302.886 263C302.073 263.805 301.058 264.211 299.831 264.211ZM299.823 262.688C300.589 262.688 301.222 262.43 301.722 261.914C302.222 261.398 302.472 260.758 302.472 259.992C302.472 259.211 302.222 258.562 301.722 258.047C301.222 257.531 300.589 257.273 299.823 257.273C299.058 257.273 298.425 257.531 297.933 258.047C297.44 258.562 297.19 259.211 297.19 259.992C297.19 260.758 297.44 261.398 297.933 261.914C298.425 262.43 299.058 262.688 299.823 262.688ZM310.459 255.742V255.727C311.482 255.727 312.271 256.039 312.826 256.672C313.381 257.305 313.654 258.172 313.654 259.273V263.992H311.99V259.578C311.99 258.867 311.826 258.312 311.49 257.914C311.154 257.516 310.662 257.312 310.014 257.312C309.311 257.312 308.748 257.555 308.326 258.047C307.904 258.539 307.693 259.188 307.693 260V264H306.014V255.953H307.693V257.148C308.357 256.211 309.279 255.742 310.459 255.742Z" fill="#40404B"/>
<defs>
<linearGradient id="paint0_linear_214_2141" x1="0" y1="0" x2="251.119" y2="443.958" gradientUnits="userSpaceOnUse">
<stop stop-color="#D8FDEE"/>
<stop offset="0.5" stop-color="#D7E9F0"/>
<stop offset="1" stop-color="#D6E7FB"/>
</linearGradient>
<clipPath id="clip0_214_2141">
<rect width="301" height="185" fill="white" transform="translate(109 46)"/>
</clipPath>
</defs>
</svg>
