<svg xmlns="http://www.w3.org/2000/svg" width="190" height="190.737" viewBox="0 0 190 190.737">
  <g id="Home" transform="translate(32.063 -0.869)">
    <rect id="Rectangle_1" data-name="Rectangle 1" width="190" height="190" transform="translate(-32.063 0.869)" fill="none"/>
    <g id="Deploy-pre-release-state" transform="translate(-7.063 0.869)">
      <path id="Combined-Shape" d="M651.674,431.7a4.768,4.768,0,1,1,0,9.537H572.2a4.768,4.768,0,1,1,0-9.537Zm-12.716-25.432a4.768,4.768,0,1,1,0,9.537H584.916a4.768,4.768,0,1,1,0-9.537ZM613.83,250.5c28.651,5.853,48.507,32.573,46.267,62.259l-.785,9.957c13.741,10.562,21.94,24.769,22.529,40.312l.034,1.8v5.127h-26.3l-.864,10.954a10.142,10.142,0,0,1-10.034,9.468H582.8a10.1,10.1,0,0,1-9.74-7.669,10.5,10.5,0,0,1-.329-1.934l-.358-4.709-.5-6.212H542v-5.127c0-17.114,9.206-32.734,24.906-43.839l1-.69-.578-7.187c-2.19-29.015,16.649-55.2,44.184-61.989Zm44.491,84.772L656.385,359.7l15.053,0-.229-1.48C669.672,349.833,665.227,341.975,658.321,335.272ZM613.816,261l-2.053.56c-20.928,6.192-35.173,26.1-34.52,48.353l.121,2.31,3.577,47.424,65.525-.044,3.6-47.629c1.738-23.031-12.628-43.9-33.992-50.354Zm-44.954,71.2c-8.8,7.3-14.427,16.257-16.2,25.909l-.229,1.48,18.626,0ZM613.7,291.515a10.256,10.256,0,1,1-10.063,10.254A10.16,10.16,0,0,1,613.7,291.515Z" transform="translate(-542 -250.5)" fill="#40404b" fill-rule="evenodd"/>
    </g>
  </g>
</svg>
