<svg width="100%" height="100%"  viewBox="0 0 81 46" fill="none" xmlns="http://www.w3.org/2000/svg">
    <mask id="mask0_1399_39549" style="mask-type:alpha" maskUnits="userSpaceOnUse" x="0" y="0" width="81" height="46">
        <rect width="81" height="46" fill="#D9D9D9"/>
    </mask>
    <g mask="url(#mask0_1399_39549)">
        <path d="M18.1849 15.414C24.765 10.6042 28.9817 7.71979 34.9813 2.08083C40.9692 -3.5403 48.7563 -11.918 55.8274 -12.3341C62.8796 -12.7595 69.229 -5.23811 74.0962 2.70882C78.965 10.6714 82.3678 19.0415 80.5211 26.3636C78.6683 33.671 71.5718 39.9282 64.2744 43.1496C56.977 46.3709 49.4818 46.571 41.9678 47.0539C34.4538 47.5368 26.9385 48.3145 18.9007 46.1288C10.8502 43.9604 2.27407 38.814 2.46957 32.8865C2.64816 26.962 11.6066 20.2234 18.1849 15.414Z" fill="white"/>
        <path d="M72.9002 5.17505H49.7573V33.35H72.9002V5.17505Z" fill="#EAF0FF"/>
        <path d="M72.9002 5.17505H49.7573V9.20005H72.9002V5.17505Z" fill="#D8DFFF"/>
        <path d="M52.3605 8.04995C52.8398 8.04995 53.2284 7.6638 53.2284 7.18745C53.2284 6.71111 52.8398 6.32495 52.3605 6.32495C51.8812 6.32495 51.4927 6.71111 51.4927 7.18745C51.4927 7.6638 51.8812 8.04995 52.3605 8.04995Z" fill="#B2C3FB"/>
        <path d="M55.2536 8.04995C55.7329 8.04995 56.1215 7.6638 56.1215 7.18745C56.1215 6.71111 55.7329 6.32495 55.2536 6.32495C54.7743 6.32495 54.3857 6.71111 54.3857 7.18745C54.3857 7.6638 54.7743 8.04995 55.2536 8.04995Z" fill="#B2C3FB"/>
        <path d="M58.1467 8.04995C58.626 8.04995 59.0145 7.6638 59.0145 7.18745C59.0145 6.71111 58.626 6.32495 58.1467 6.32495C57.6674 6.32495 57.2788 6.71111 57.2788 7.18745C57.2788 7.6638 57.6674 8.04995 58.1467 8.04995Z" fill="#B2C3FB"/>
        <path d="M56.4356 11.5H54.6499C53.5453 11.5 52.6499 12.3954 52.6499 13.5V18.7C52.6499 19.8046 53.5453 20.7 54.6499 20.7H56.4356C57.5402 20.7 58.4356 19.8046 58.4356 18.7V13.5C58.4356 12.3954 57.5402 11.5 56.4356 11.5Z" fill="white"/>
        <path d="M61.9072 12.075H70.0072" stroke="white" stroke-width="2" stroke-linecap="round" stroke-linejoin="round"/>
        <path d="M53.8071 24.1499H70.0071" stroke="white" stroke-width="2" stroke-linecap="round" stroke-linejoin="round"/>
        <path d="M53.8071 28.175H70.0071" stroke="white" stroke-width="2" stroke-linecap="round" stroke-linejoin="round"/>
        <path d="M61.9072 16.1001H70.0072" stroke="white" stroke-width="2" stroke-linecap="round" stroke-linejoin="round"/>
        <path d="M61.9072 20.125H70.0072" stroke="white" stroke-width="2" stroke-linecap="round" stroke-linejoin="round"/>
        <path d="M52.6502 14.95H15.6216V42.5499H52.6502V14.95Z" fill="#D8DFFF"/>
        <path d="M36.4713 18.9751H22.5428C20.6374 18.9751 19.0928 20.5197 19.0928 22.4251C19.0928 24.3305 20.6374 25.8751 22.5428 25.8751H36.4713C38.3767 25.8751 39.9213 24.3305 39.9213 22.4251C39.9213 20.5197 38.3767 18.9751 36.4713 18.9751Z" fill="white"/>
        <path d="M45.7073 25.8751C47.6245 25.8751 49.1787 24.3305 49.1787 22.4251C49.1787 20.5197 47.6245 18.9751 45.7073 18.9751C43.7901 18.9751 42.2358 20.5197 42.2358 22.4251C42.2358 24.3305 43.7901 25.8751 45.7073 25.8751Z" fill="white"/>
        <path d="M19.6714 31.05H40.5" stroke="white" stroke-width="2" stroke-linecap="round" stroke-linejoin="round"/>
        <path d="M19.6714 36.2251H32.1107" stroke="white" stroke-width="2" stroke-linecap="round" stroke-linejoin="round"/>
        <path d="M32.9786 4.6001H0V17.2501H32.9786V4.6001Z" fill="#EAF0FF"/>
        <path d="M4.0498 8.625H24.8784" stroke="#B2C3FB" stroke-width="2" stroke-linecap="round" stroke-linejoin="round"/>
        <path d="M4.0498 12.6499H13.8855" stroke="#B2C3FB" stroke-width="2" stroke-linecap="round" stroke-linejoin="round"/>
    </g>
</svg>
