<?xml version="1.0" encoding="UTF-8"?>
<svg width="200px" height="200px" viewBox="0 0 200 200" version="1.1" xmlns="http://www.w3.org/2000/svg" xmlns:xlink="http://www.w3.org/1999/xlink">
    <title>668A20E2-EBC2-4FCF-97DE-19562993B7F5</title>
    <g id="Home" stroke="none" stroke-width="1" fill="none" fill-rule="evenodd">
        <g id="home-components-landing" transform="translate(-663.000000, -252.000000)">
            <g id="Illustration/Create" transform="translate(663.000000, 252.000000)">
                <g id="Choreo">
                    <path d="M199.815102,93.0349689 C202.014222,113.694367 184.266541,136.475778 164.16248,149.254151 C144.058418,162.032524 121.590367,164.802715 94.5668157,169.316814 C67.5990667,173.882356 36.1265469,180.243249 17.9096193,167.467448 C-0.307308255,154.691647 -5.30669063,122.774008 6.05923145,102.392401 C17.4251535,82.0107928 32.3474922,73.1292101 50.5771021,55.2400023 C68.806712,37.4073815 72.2148437,11.7421875 103.789421,5.82411637 C117.247931,0.985928035 135.47754,18.2758281 155.581602,36.1084489 C175.678054,53.9436418 197.671785,72.4295852 199.815102,93.0349689 Z" id="Path" fill="#F7F8FB" fill-rule="nonzero"></path>
                    <path d="M194.427708,94.9600037 C194.427708,105.563706 185.831709,114.159704 175.228007,114.159704 C164.624305,114.159704 156.028306,105.563706 156.028306,94.9600037 C156.028306,84.3563018 164.624305,75.760303 175.228007,75.760303 C185.831709,75.760303 194.427708,84.3563018 194.427708,94.9600037" id="Path" fill="#FFFFFF" fill-rule="nonzero"></path>
                    <path d="M115.887405,60.0382023 L115.468905,62.0524024 L112.660905,62.9272025 C112.660905,62.9272025 111.270405,58.5910023 111.078704,57.6109022 C109.728704,58.6180023 101.947304,60.7996024 100.605404,60.9940024 C100.419104,59.9491023 100.419104,50.893302 107.968304,50.893302 C114.618405,50.893302 117.599205,57.5542022 117.774705,58.3345023 C117.385905,58.5613023 115.884705,59.1175023 115.884705,60.0382023" id="Path" fill="#FF9D52" fill-rule="nonzero"></path>
                    <path d="M117.753105,77.472103 C116.065605,77.472103 103.818404,89.8300035 103.316204,92.4166036 L99.371504,112.825904 L119.802405,107.110004 L121.001205,81.1144032 L118.090605,77.464003 L117.753105,77.472103 Z" id="Path" fill="#A6B3FF" fill-rule="nonzero"></path>
                    <path d="M92.5161251,113.355104 C92.4811038,111.932204 104.209904,74.9044029 105.532904,73.6462029 C106.41147,72.7592413 107.625925,72.2879892 108.872804,72.3502028 C109.456004,72.3772028 112.258605,73.7002029 112.849905,75.0961029 C111.840105,77.488303 109.407404,78.8167031 109.407404,78.8167031 L104.674304,108.063104 L92.5161251,113.355104 Z" id="Path" fill="#FFFFFF" fill-rule="nonzero"></path>
                    <path d="M110.657504,118.636305 C111.668686,119.731751 118.169982,121.560108 124.724401,123.027541 L125.618004,123.225306 C131.570744,124.527452 137.363143,125.490224 138.910306,125.291805 C138.910306,126.957705 136.264305,138.605505 117.493905,138.605505 C116.603242,138.605505 113.077658,138.484098 109.462301,138.351309 L109.053052,138.336244 L109.053052,138.336244 L123.760605,156.541606 L115.539105,164.806307 L107.41664,157.706258 C109.104596,161.784597 110.52092,165.008676 110.843804,165.554207 L102.344204,173.116907 C101.224946,172.09952 94.2200445,163.56609 87.3661639,154.640606 L86.5280785,153.546215 C79.696583,144.600595 73.262503,135.553695 73.262503,133.529505 C73.262503,124.319805 83.7115034,121.055505 86.5627035,120.337305 C90.4912037,119.980905 107.917004,118.522905 110.657504,118.636305 Z" id="Combined-Shape" fill="#5567D5" fill-rule="nonzero"></path>
                    <path d="M126.628005,71.4349028 C141.820906,71.4349028 145.109506,98.8426039 145.109506,106.621304 C145.109506,116.538405 141.086506,124.462905 139.169506,125.205405 C133.739805,127.292505 113.808405,120.456105 112.544805,117.218805 C106.383404,101.450804 116.524605,71.4349028 126.638805,71.4349028" id="Path" fill="#A6B3FF" fill-rule="nonzero"></path>
                    <path d="M131.952405,78.0661031 C139.185706,80.5825032 135.502905,96.0751038 133.467105,96.5989038 C131.431305,97.1227038 119.157105,92.2654036 118.773705,90.9586036 C118.390305,89.6518035 123.504105,75.1231029 131.952405,78.0661031" id="Path" fill="#A6B3FF" fill-rule="nonzero"></path>
                    <path d="M119.618805,91.7200036 C119.030205,92.5840036 115.771305,103.122104 115.771305,103.122104 C115.771305,103.122104 92.7484038,113.050004 91.6009037,113.563004 C91.1824037,112.990604 89.8054036,111.943004 87.0109035,111.943004 C81.8944033,111.943004 81.0088033,115.336905 81.0088033,116.065905 C81.0088033,116.794905 88.7875036,118.414905 90.8746037,118.363605 C92.9617038,118.312305 122.146005,113.873504 123.188205,113.352404 C124.230405,112.831304 131.215305,96.3424038 131.215305,96.3424038 C129.325305,96.2425038 120.612405,93.5452037 119.624205,91.7227036" id="Path" fill="#FFFFFF" fill-rule="nonzero"></path>
                    <rect id="Rectangle" fill="#5567D5" fill-rule="nonzero" x="109.734104" y="137.852205" width="44.5581018" height="4.13370016"></rect>
                    <rect id="Rectangle" fill="#8088DC" fill-rule="nonzero" x="30.5026013" y="116.740905" width="67.7943027" height="3.40200014"></rect>
                    <polyline id="Path" stroke="#41415A" stroke-width="0.99630004" stroke-linecap="round" stroke-linejoin="round" points="48.195702 115.582605 97.1386039 115.582605 97.1386039 118.990005 29.3443012 118.990005 29.3443012 115.588005 39.7771017 115.588005"></polyline>
                    <rect id="Rectangle" fill="#5567D5" fill-rule="nonzero" x="61.7794025" y="113.878904" width="23.8761009" height="2.86200011"></rect>
                    <rect id="Rectangle" stroke="#32324D" stroke-width="0.99630004" stroke-linecap="round" stroke-linejoin="round" x="60.6211025" y="112.720604" width="23.8761009" height="2.86200011"></rect>
                    <polyline id="Path" fill="#FFFFFF" fill-rule="nonzero" points="103.318904 176.184107 111.148904 184.745807 106.866704 196.625808 120.002205 186.411707 112.388205 170.705807"></polyline>
                    <polyline id="Path" fill="#FFFFFF" fill-rule="nonzero" points="124.773105 159.033706 129.133605 166.437107 132.144105 168.003107 126.414705 181.308707 125.107905 172.938707 117.547905 166.045607"></polyline>
                    <path d="M103.869704,66.1240026 C103.837152,66.2942967 103.784587,66.460147 103.713104,66.6181026" id="Path" stroke="#1B3C87" stroke-width="0.847800034" stroke-linecap="round" stroke-linejoin="round"></path>
                    <rect id="Rectangle" fill="#5567D5" fill-rule="nonzero" opacity="0.291480655" x="3" y="53" width="70" height="21"></rect>
                    <path d="M69.2800028,64.7171149 C69.281132,67.338246 67.7030703,69.7019118 65.2817852,70.7057582 C62.8605002,71.7096046 60.0729193,71.155901 58.2191002,69.3028809 C56.3652811,67.4498607 55.8103757,64.6625187 56.8131781,62.240801 C57.8159805,59.8190832 60.1789656,58.2400023 62.8000968,58.2400023 C66.3777593,58.2400023 69.2784601,61.1394526 69.2800028,64.7171149" id="Path" fill="#F4F5FC" fill-rule="nonzero"></path>
                    <line x1="50.5771021" y1="61.5637024" x2="15.2233007" y2="61.5637024" id="Path" stroke="#EAF0FF" stroke-width="0.99630004" stroke-linecap="round" stroke-linejoin="round"></line>
                    <line x1="50.5771021" y1="68.8294027" x2="31.8445013" y2="68.8294027" id="Path" stroke="#EAF0FF" stroke-width="0.99630004" stroke-linecap="round" stroke-linejoin="round"></line>
                    <rect id="Rectangle" fill="#F4F5FC" fill-rule="nonzero" x="12.0400006" y="0.844900471" width="24.340501" height="10.1655004" rx="4"></rect>
                    <rect id="Rectangle" fill="#F4F5FC" fill-rule="nonzero" x="0.713500108" y="13.410701" width="24.340501" height="10.1655004" rx="4"></rect>
                    <g id="Group" transform="translate(42.444702, 49.926017)">
                        <path d="M71.2125028,2.74658547 C72.4733014,3.87973832 73.5148412,5.23520443 74.285103,6.74528562 C74.418303,7.00448563 74.542503,7.26368564 74.657703,7.52288566" id="Path" stroke="#32324D" stroke-width="0.99630004" stroke-linecap="round" stroke-linejoin="round"></path>
                        <path d="M58.6467023,14.7939859 C55.8090022,9.28058573 57.0105023,3.01118548 61.3305024,0.789085388 C62.7353127,0.0788796548 64.3313135,-0.16061513 65.8827026,0.105985361" id="Path" stroke="#32324D" stroke-width="0.99630004" stroke-linecap="round" stroke-linejoin="round"></path>
                        <path d="M73.6452029,19.1625861 C73.066822,19.8124308 72.3740355,20.3505529 71.6013028,20.7501862 C68.6529027,22.2675862 65.0133026,21.5061862 62.1000025,19.1166861" id="Path" stroke="#32324D" stroke-width="0.99630004" stroke-linecap="round" stroke-linejoin="round"></path>
                        <path d="M72.4788029,9.14558572 C72.9597634,7.93469226 74.265574,7.26978225 75.5277385,7.59308804 C76.7899031,7.91639383 77.6152448,9.12720244 77.4548281,10.4202038 C77.2944114,11.7132052 76.1982076,12.6856164 74.895303,12.6906859 C74.5042481,12.688345 74.1189878,12.5959565 73.7694029,12.4206858" id="Path" stroke="#32324D" stroke-width="0.99630004" stroke-linecap="round" stroke-linejoin="round"></path>
                        <path d="M74.665803,28.0725865 C74.285103,26.7090864 72.9162029,22.5078863 71.2071028,20.9364862" id="Path" stroke="#32324D" stroke-width="0.99630004" stroke-linecap="round" stroke-linejoin="round"></path>
                        <path d="M76.029303,13.3386859 C76.555803,15.109886 81.3159032,21.4953862 82.4877033,22.3809862 C82.4175033,23.1504863 80.9028032,24.6381863 79.1991031,25.8909864" id="Path" stroke="#32324D" stroke-width="0.99630004" stroke-linecap="round" stroke-linejoin="round"></path>
                        <polyline id="Path" stroke="#32324D" stroke-width="0.99630004" stroke-linecap="round" stroke-linejoin="round" points="69.9462028 11.8239858 72.0603029 11.1678858 72.4788029 9.15098572"></polyline>
                        <path d="M64.2600026,8.13038568 C65.8314026,7.60658566 67.1733027,7.08548564 67.6701027,6.71828562 C67.8078027,7.43108565 68.5827027,9.92048575 68.9931027,11.2218858" id="Path" stroke="#32324D" stroke-width="0.99630004" stroke-linecap="round" stroke-linejoin="round"></path>
                        <path d="M57.1941023,10.1013858 C57.7125023,10.0257858 59.1840024,9.65588574 60.8769024,9.17258572" id="Path" stroke="#32324D" stroke-width="0.99630004" stroke-linecap="round" stroke-linejoin="round"></path>
                        <path d="M72.6678029,68.8479881 C70.5348028,67.784188 69.0525027,66.750088 68.7366027,65.940088 M66.8649981,54.0726421 C66.8790304,52.2683668 66.9982038,50.4260643 67.2111027,48.5790873" id="Shape" stroke="#32324D" stroke-width="0.99630004" stroke-linecap="round" stroke-linejoin="round"></path>
                        <path d="M99.2088039,39.7068869 C100.791004,46.0518872 101.312104,52.2483874 101.312104,55.3425876 C101.312104,65.2623879 97.2891039,73.1868883 95.3721038,73.9266883 C92.8260037,74.9067883 87.0966035,73.9266883 81.6021032,72.2688882" id="Path" stroke="#32324D" stroke-width="0.99630004" stroke-linecap="round" stroke-linejoin="round"></path>
                        <path d="M80.8137032,20.5449862 C81.4575728,20.2933537 82.1420307,20.1615864 82.8333033,20.1561862 C86.8374035,20.1561862 90.0153036,22.0623862 92.5236037,25.0161864" id="Path" stroke="#32324D" stroke-width="0.99630004" stroke-linecap="round" stroke-linejoin="round"></path>
                        <path d="M70.2405028,35.4732868 C71.275649,32.4645138 72.6335644,29.5766805 74.290503,26.8602864" id="Path" stroke="#32324D" stroke-width="0.99630004" stroke-linecap="round" stroke-linejoin="round"></path>
                        <path d="M60.7932024,24.3762863 C61.2414024,23.2422863 61.5708024,22.5267863 61.7355025,22.3674862 C62.6140677,21.4805246 63.8285235,21.0092726 65.0754026,21.0714862 C65.6586026,21.0984862 68.4612027,22.4214862 69.0525027,23.8173863" id="Path" stroke="#32324D" stroke-width="0.99630004" stroke-linecap="round" stroke-linejoin="round"></path>
                        <path d="M52.0263021,50.5149874 C54.0162021,44.1537871 56.5434022,36.3750868 58.5360023,30.6024866" id="Path" stroke="#32324D" stroke-width="0.99630004" stroke-linecap="round" stroke-linejoin="round"></path>
                        <path d="M48.7188019,61.8846878 C48.7188019,61.6146878 49.115702,60.1215877 49.782602,57.8562877" id="Path" stroke="#32324D" stroke-width="0.99630004" stroke-linecap="round" stroke-linejoin="round"></path>
                        <path d="M65.5290026,23.5149863 C66.1068026,23.6067863 67.5027027,24.4572863 68.2290027,25.3077864" id="Path" stroke="#32324D" stroke-width="0.99630004" stroke-linecap="round" stroke-linejoin="round"></path>
                        <path d="M63.9117025,25.5642864 C64.4868026,25.6560864 65.8854026,26.5065864 66.6117026,27.3570864" id="Path" stroke="#32324D" stroke-width="0.99630004" stroke-linecap="round" stroke-linejoin="round"></path>
                        <path d="M60.8796024,56.6277876 C60.9255024,55.3317876 64.1196025,32.9811867 65.5317026,28.5882865" id="Path" stroke="#32324D" stroke-width="0.99630004" stroke-linecap="round" stroke-linejoin="round"></path>
                        <path d="M67.7403027,31.2963866 C69.7059028,29.1930865 72.0873029,26.9331864 73.9989029,26.0178864" id="Path" stroke="#32324D" stroke-width="0.99630004" stroke-linecap="round" stroke-linejoin="round"></path>
                        <line x1="5.75100023" y1="42.603987" x2="18.1710007" y2="62.7891879" id="Path" stroke="#32324D" stroke-width="0.99630004" stroke-linecap="round" stroke-linejoin="round"></line>
                        <path d="M95.1129038,74.0130883 C95.1129038,75.6789884 92.4696037,87.3267888 73.6965029,87.3267888 C71.7309029,87.3267888 56.9322023,86.7354888 56.6568023,86.7354888 C56.6568023,90.1995889 66.1419026,112.74729 67.0464027,114.27549" id="Path" stroke="#32324D" stroke-width="0.99630004" stroke-linecap="round" stroke-linejoin="round"></path>
                        <path d="M42.7653017,69.0639881 C40.0086016,70.0953881 29.4624012,73.0464883 29.4624012,82.2561886 C29.4624012,86.3871888 56.2545022,119.76729 58.5441023,121.84359" id="Path" stroke="#32324D" stroke-width="0.99630004" stroke-linecap="round" stroke-linejoin="round"></path>
                        <line x1="57.2076023" y1="123.33399" x2="69.4953028" y2="115.50399" id="Path" stroke="#32324D" stroke-width="0.99630004" stroke-linecap="round" stroke-linejoin="round"></line>
                        <line x1="58.5468023" y1="125.49399" x2="71.2179028" y2="117.81789" id="Path" stroke="#32324D" stroke-width="0.99630004" stroke-linecap="round" stroke-linejoin="round"></line>
                        <line x1="63.6147025" y1="106.41309" x2="71.4879028" y2="113.52759" id="Path" stroke="#32324D" stroke-width="0.99630004" stroke-linecap="round" stroke-linejoin="round"></line>
                        <line x1="68.2344027" y1="90.709889" x2="79.9524032" y2="105.26559" id="Path" stroke="#32324D" stroke-width="0.99630004" stroke-linecap="round" stroke-linejoin="round"></line>
                        <line x1="81.3105032" y1="104.220689" x2="70.9560028" y2="114.28359" id="Path" stroke="#32324D" stroke-width="0.99630004" stroke-linecap="round" stroke-linejoin="round"></line>
                        <line x1="82.6173033" y1="106.16199" x2="72.2628029" y2="116.22489" id="Path" stroke="#32324D" stroke-width="0.99630004" stroke-linecap="round" stroke-linejoin="round"></line>
                        <line x1="0.135000005" y1="69.0639881" x2="0.135000005" y2="123.33399" id="Path" stroke="#32324D" stroke-width="0.99630004" stroke-linecap="round" stroke-linejoin="round"></line>
                        <path d="M80.3250032,29.0715865 C82.4175033,26.9736864 85.0635034,25.7100864 88.1550035,26.7873864 C95.3883038,29.3037865 91.7055036,44.7963871 89.6670036,45.3201872 C87.6285035,45.8439872 75.357003,40.986687 74.973603,39.6798869 C74.881803,39.3720869 75.095103,38.3298869 75.589203,36.9474868" id="Path" stroke="#32324D" stroke-width="0.99630004" stroke-linecap="round" stroke-linejoin="round"></path>
                        <path d="M62.6589025,64.9059879 C55.2933022,66.031888 48.0789019,67.065988 47.0718019,67.087588 C46.1318805,67.1119068 44.0376266,66.7967161 42.0193715,66.3760475 M38.4845329,62.2527793 C39.3709937,61.3970455 40.8341335,60.6669878 43.2081017,60.6669878 C46.0080018,60.6669878 47.3850019,61.7118878 47.7981019,62.2869878 C48.9456019,61.7658878 71.9685029,51.8460874 71.9685029,51.8460874 C71.9685029,51.8460874 75.227403,41.316087 75.816003,40.443987" id="Shape" stroke="#32324D" stroke-width="0.99630004" stroke-linecap="round" stroke-linejoin="round"></path>
                        <polyline id="Path" stroke="#32324D" stroke-width="0.99630004" stroke-linecap="round" stroke-linejoin="round" points="93.8196037 90.709889 65.9340026 90.709889 65.9340026 86.5761888 110.484004 86.5761888 110.484004 90.709889 102.654004 90.709889"></polyline>
                        <line x1="73.1457029" y1="128.82039" x2="68.5854027" y2="119.41899" id="Path" stroke="#32324D" stroke-width="0.99630004" stroke-linecap="round" stroke-linejoin="round"></line>
                        <polyline id="Path" stroke="#32324D" stroke-width="0.99630004" stroke-linecap="round" stroke-linejoin="round" points="59.5242024 124.90539 67.3542027 133.467091 63.0747025 145.347091 76.207503 135.132991 74.868303 132.378991"></polyline>
                        <line x1="75.705303" y1="116.52999" x2="73.7748029" y2="114.76689" id="Path" stroke="#32324D" stroke-width="0.99630004" stroke-linecap="round" stroke-linejoin="round"></line>
                        <polyline id="Path" stroke="#32324D" stroke-width="0.99630004" stroke-linecap="round" stroke-linejoin="round" points="80.9757032 107.75769 85.3362034 115.15839 88.3467035 116.72709 82.6173033 130.032691 81.3105032 121.66269 79.6905032 120.18309"></polyline>
                        <path d="M68.5260027,15.938786 C68.6043027,16.543586 68.1804027,17.4831861 67.3623027,18.0312861" id="Path" stroke="#32324D" stroke-width="0.847800034" stroke-linecap="round" stroke-linejoin="round"></path>
                        <path d="M87.4125035,45.0609871 C87.4125035,45.0609871 80.4303032,61.5552878 79.3854032,62.0709878 C79.0884031,62.2194878 76.515303,62.6865878 72.9378029,63.2751879" id="Path" stroke="#32324D" stroke-width="0.99630004" stroke-linecap="round" stroke-linejoin="round"></path>
                        <path d="M64.4220026,11.1516858 C64.5543026,11.6106858 64.8621026,11.9238858 65.1105026,11.8509858 C65.3589026,11.7780858 65.4561026,11.3514858 65.3238026,10.8951858 C65.1915026,10.4388858 64.8864026,10.1229858 64.6353026,10.2039858 C64.3842026,10.2849858 64.2924026,10.7034858 64.4220026,11.1597858" id="Path" fill="#32324D" fill-rule="nonzero"></path>
                        <path d="M61.1388024,13.5222859 C61.353267,14.1181039 61.4717427,14.7442025 61.4898024,15.377186" id="Path" stroke="#32324D" stroke-width="0.847800034" stroke-linecap="round" stroke-linejoin="round"></path>
                        <line x1="98.9901039" y1="90.709889" x2="98.9901039" y2="102.881489" id="Path" stroke="#32324D" stroke-width="0.99630004" stroke-linecap="round" stroke-linejoin="round"></line>
                    </g>
                </g>
                <path d="M161.828427,13.8284271 L181.171573,33.1715729 C182.73367,34.73367 182.73367,37.26633 181.171573,38.8284271 L161.828427,58.1715729 C160.26633,59.73367 157.73367,59.73367 156.171573,58.1715729 L136.828427,38.8284271 C135.26633,37.26633 135.26633,34.73367 136.828427,33.1715729 L156.171573,13.8284271 C157.73367,12.26633 160.26633,12.26633 161.828427,13.8284271 Z" id="Polygon" stroke="#CED3F3" stroke-width="0.75"></path>
                <path d="M30.2474755,162.828427 L45.1715729,177.752524 C46.73367,179.314622 46.73367,181.847282 45.1715729,183.409379 L40.4093787,188.171573 C38.8472815,189.73367 36.3146216,189.73367 34.7525245,188.171573 L19.8284271,173.247476 C18.26633,171.685378 18.26633,169.152718 19.8284271,167.590621 L24.5906213,162.828427 C26.1527185,161.26633 28.6853784,161.26633 30.2474755,162.828427 Z" id="Polygon-Copy" stroke="#CED3F3" stroke-width="0.75" transform="translate(32.500000, 175.500000) rotate(-45.000000) translate(-32.500000, -175.500000) "></path>
            </g>
        </g>
    </g>
</svg>