<svg width="48" height="48" viewBox="0 0 48 48" fill="none" xmlns="http://www.w3.org/2000/svg">
<g clip-path="url(#clip0_4815_205)">
<path fill-rule="evenodd" clip-rule="evenodd" d="M16.0009 30.163L11.7928 25.7316C11.111 26.6722 10.0472 27.2375 8.9357 27.3014C8.10589 27.3562 7.44326 27.9721 7.36419 28.7758C7.29163 29.4958 7.26802 30.2363 7.30367 30.9729C7.33667 31.8528 8.04882 32.5567 8.92493 32.6656C10.2791 32.8027 11.5013 33.6636 12.0636 34.9971C12.6439 36.4249 12.3041 37.9848 11.3127 39.0395C10.7442 39.6373 10.6973 40.5701 11.2033 41.2161C11.6951 41.8272 12.2424 42.3751 12.8245 42.9088C13.4452 43.4876 14.3833 43.4495 15.0008 42.8723C16.0591 41.9323 17.6338 41.6138 19.0289 42.2011C20.4485 42.7986 21.3213 44.1474 21.3681 45.6104C21.4011 46.4902 22.0333 47.247 22.8952 47.3213C23.6489 47.3788 24.413 47.4117 25.159 47.3506C26.0133 47.3061 26.658 46.596 26.6984 45.7471C26.7597 44.3009 27.6483 42.9431 29.075 42.3602C30.5017 41.7773 32.1082 42.136 33.1603 43.1273C33.7952 43.741 34.7757 43.8073 35.4422 43.2508C36.0184 42.7717 36.556 42.2476 37.055 41.6783C37.6093 41.0457 37.5583 40.0719 36.9827 39.4543C36.0208 38.3855 35.7048 36.8092 36.3035 35.3871C36.9021 33.9651 38.2504 33.0893 39.7115 33.0406C40.5902 33.0064 41.3121 32.3866 41.3629 31.5131C41.4213 30.7584 41.4204 30.0075 41.3603 29.2606C41.3169 28.4053 40.6086 27.7607 39.7364 27.7111C38.642 27.6342 37.6047 27.0869 36.9337 26.1856C35.6057 27.2967 34.1386 28.5358 32.5617 29.8851C32.6271 31.1002 32.4257 32.348 31.9227 33.543C30.1474 37.7604 25.2758 39.7507 21.0661 37.9786C17.8507 36.6251 15.9353 33.4613 16.0009 30.163Z" fill="#CBCEDB" fill-opacity="0.7"/>
<path d="M40.5393 12.1058C44.4157 13.3839 47 16.9628 47 20.9251C47 25.9099 42.736 30 37.6966 30H10.3034C5.13483 30 1 25.9099 1 20.9251C1 16.1959 4.48876 12.2336 9.26966 11.7223C9.78652 8.52694 11.8539 5.97063 14.8258 4.82029C17.6685 3.66994 20.8989 3.92558 23.3539 5.58718C25.6798 1.36926 30.4607 0.0911006 34.7247 1.62489C39.118 3.2865 41.7022 7.50442 40.5393 12.1058Z" fill="#A6B3FF"/>
<path d="M11.4097 26C10.5436 26 10 25.4804 10 24.6586C10 24.4224 10.0645 24.1012 10.1843 23.7517L13.8144 13.6154C14.2014 12.5101 14.8555 12 15.9059 12C16.9931 12 17.638 12.4912 18.0342 13.6059L21.6828 23.7517C21.8118 24.1201 21.8578 24.3752 21.8578 24.6586C21.8578 25.4426 21.2774 26 20.4666 26C19.6834 26 19.2688 25.6316 19.0201 24.7436L18.3198 22.5897H13.5196L12.8193 24.7152C12.5614 25.6221 12.1468 26 11.4097 26ZM14.1277 20.3792H17.6749L15.9151 14.7962H15.8506L14.1277 20.3792Z" fill="#40404B"/>
<path d="M24.9444 26C24.0691 26 23.5531 25.4521 23.5531 24.5169V13.6721C23.5531 12.7368 24.0691 12.1889 24.9444 12.1889H28.9615C31.6887 12.1889 33.5683 14.0499 33.5683 16.8556C33.5683 19.6518 31.6242 21.5223 28.8233 21.5223H26.3356V24.5169C26.3356 25.4521 25.8197 26 24.9444 26ZM26.3356 19.2928H28.2152C29.8091 19.2928 30.7397 18.4238 30.7397 16.865C30.7397 15.3158 29.8184 14.4467 28.2244 14.4467H26.3356V19.2928Z" fill="#40404B"/>
<path d="M36.6088 26C35.7335 26 35.2175 25.4521 35.2175 24.5169V13.4926C35.2175 12.5479 35.7335 12 36.6088 12C37.484 12 38 12.5479 38 13.4926V24.5169C38 25.4521 37.484 26 36.6088 26Z" fill="#40404B"/>
</g>
<defs>
<clipPath id="clip0_4815_205">
<rect width="48" height="48" fill="white"/>
</clipPath>
</defs>
</svg>
