<svg width="48" height="48" viewBox="0 0 48 48" fill="none" xmlns="http://www.w3.org/2000/svg">
<g clip-path="url(#clip0_4828_105)">
<rect x="2" y="7" width="40" height="40" rx="5" fill="#CBCEDB" fill-opacity="0.5"/>
<path fill-rule="evenodd" clip-rule="evenodd" d="M17.75 27C15.6789 27 14 28.6789 14 30.75C14 32.8211 15.6789 34.5 17.75 34.5H19.2491C19.2494 34.5 19.2497 34.5 19.25 34.5L32.75 34.5C33.9926 34.5 35 35.5074 35 36.75C35 37.9926 33.9926 39 32.75 39L11.75 39C11.3358 39 11 39.3358 11 39.75C11 40.1642 11.3358 40.5 11.75 40.5L32.75 40.5C34.8211 40.5 36.5 38.8211 36.5 36.75C36.5 34.6795 34.822 33.0009 32.7517 33C32.7511 33 32.7506 33 32.75 33L19.25 33L17.75 33C16.5074 33 15.5 31.9926 15.5 30.75C15.5 29.5074 16.5074 28.5 17.75 28.5H26.75C27.1642 28.5 27.5 28.1642 27.5 27.75C27.5 27.3358 27.1642 27 26.75 27H17.75Z" fill="#40404B"/>
<mask id="path-3-inside-1_4828_105" fill="white">
<path d="M37.7156 4.91524C39.8779 2.75291 43.3837 2.75292 45.546 4.91525C47.7084 7.07758 47.7084 10.5834 45.546 12.7457L30.1821 28.1097C29.4716 28.8202 28.5198 29.2372 27.5159 29.278L21.999 29.502C21.4152 29.5257 20.9355 29.0461 20.9593 28.4623L21.1833 22.9454C21.2241 21.9415 21.6411 20.9897 22.3516 20.2792L37.7156 4.91524Z"/>
</mask>
<path d="M21.999 29.502L22.6482 45.4889L21.999 29.502ZM20.9593 28.4623L4.97243 27.8131L20.9593 28.4623ZM21.1833 22.9454L37.1701 23.5946L21.1833 22.9454ZM27.5159 29.278L26.8667 13.2912L27.5159 29.278ZM34.2323 1.43204L18.8684 16.796L41.4958 39.4234L56.8598 24.0595L34.2323 1.43204ZM33.6653 31.5929L49.0293 16.229L26.4018 -6.39846L11.0379 8.96552L33.6653 31.5929ZM26.8667 13.2912L21.3498 13.5152L22.6482 45.4889L28.1651 45.2648L26.8667 13.2912ZM36.9461 29.1115L37.1701 23.5946L5.19646 22.2962L4.97243 27.8131L36.9461 29.1115ZM21.3498 13.5152C30.1065 13.1596 37.3017 20.3549 36.9461 29.1115L4.97243 27.8131C4.56942 37.7373 12.724 45.8919 22.6482 45.4889L21.3498 13.5152ZM11.0379 8.96552C7.48563 12.5178 5.4003 17.2767 5.19646 22.2962L37.1701 23.5946C37.0478 26.6062 35.7966 29.4616 33.6653 31.5929L11.0379 8.96552ZM18.8684 16.796C20.9997 14.6647 23.8551 13.4135 26.8667 13.2912L28.1651 45.2648C33.1846 45.061 37.9435 42.9757 41.4958 39.4234L18.8684 16.796ZM34.2323 16.229C30.1463 12.1429 30.1463 5.51809 34.2323 1.43204L56.8598 24.0595C65.2705 15.6487 65.2705 2.01226 56.8598 -6.39846L34.2323 16.229ZM56.8598 -6.39846C48.449 -14.8092 34.8126 -14.8092 26.4018 -6.39846L49.0293 16.229C44.9432 20.315 38.3184 20.315 34.2323 16.229L56.8598 -6.39846Z" fill="#A6B3FF" mask="url(#path-3-inside-1_4828_105)"/>
</g>
<defs>
<clipPath id="clip0_4828_105">
<rect width="48" height="48" fill="white"/>
</clipPath>
</defs>
</svg>
