<svg width="50" height="50" viewBox="0 0 50 50" fill="none" xmlns="http://www.w3.org/2000/svg">
<path fill-rule="evenodd" clip-rule="evenodd" d="M27.3104 12.6859H22.1312V8H27.3104V12.6859ZM15.1023 18.3583H10.0465V13.6724H15.1023V18.3583ZM21.268 18.3583H16.0888V13.6724H21.268V18.3583ZM27.3104 18.3583H22.1312V13.6724H27.3104V18.3583ZM9.05998 24.0307H3.88082V19.3448H9.05998V24.0307ZM15.1023 24.0307H10.0465V19.3448H15.1023V24.0307ZM21.268 24.0307H16.0888V19.3448H21.268V24.0307ZM27.3104 24.0307H22.1312V19.3448H27.3104V24.0307ZM33.476 24.0307H28.2969V19.3448H33.476V24.0307Z" fill="#066DA5"/>
<path d="M50 21.9344C50 21.9344 47.7804 19.8381 43.2178 20.578C42.7245 17.0019 38.9018 14.9055 38.9018 14.9055C38.9018 14.9055 35.3257 19.2215 37.9153 24.0307C37.1754 24.4007 35.9423 24.8939 34.0926 24.8939H0.181423C-0.435144 27.2369 -0.435143 42.7744 16.5821 42.7744C28.7901 42.7744 37.9153 37.1019 42.2313 26.7436C48.6436 27.2369 50 21.9344 50 21.9344Z" fill="#066DA5"/>
</svg>
