<svg xmlns="http://www.w3.org/2000/svg" width="50" height="50" viewBox="0 0 50 50" fill="none">
<path d="M25 50C38.8071 50 50 38.8071 50 25C50 11.1929 38.8071 0 25 0C11.1929 0 0 11.1929 0 25C0 38.8071 11.1929 50 25 50Z" fill="#5C2D91"/>
<path d="M5.78125 29.1015C5.63542 29.1038 5.4907 29.0758 5.35623 29.0194C5.22176 28.9629 5.10046 28.8791 5 28.7734C4.89679 28.6714 4.81522 28.5497 4.76018 28.4154C4.70514 28.2812 4.67777 28.1372 4.67969 27.9921C4.67865 27.8472 4.70643 27.7035 4.76142 27.5694C4.81641 27.4352 4.89751 27.3134 5 27.2109C5.09947 27.1034 5.22041 27.0179 5.35498 26.96C5.48955 26.9022 5.63478 26.8732 5.78125 26.875C5.92752 26.8746 6.07231 26.9042 6.20667 26.962C6.34104 27.0198 6.46215 27.1045 6.5625 27.2109C6.66677 27.3125 6.74954 27.434 6.80591 27.5682C6.86228 27.7024 6.89109 27.8466 6.89063 27.9921C6.89199 28.1378 6.86359 28.2823 6.80717 28.4166C6.75075 28.551 6.66749 28.6724 6.5625 28.7734C6.46119 28.878 6.33974 28.961 6.20547 29.0174C6.07119 29.0738 5.92689 29.1024 5.78125 29.1015Z" fill="white"/>
<path d="M21.3047 28.9062H19.2578L11.9375 17.5469C11.7552 17.267 11.6033 16.9684 11.4844 16.6562H11.4219C11.4914 17.3048 11.5175 17.9573 11.5 18.6094V28.9062H9.83594V14.6641H12L19.125 25.8203C19.4219 26.2839 19.6146 26.6016 19.7031 26.7734H19.7422C19.6598 26.0787 19.6258 25.3791 19.6406 24.6797V14.6641H21.3047V28.9062Z" fill="white"/>
<path d="M32.5703 28.9062H25V14.6641H32.2188V16.1719H26.7031V20.9062H31.8437V22.4062H26.7031V27.3438H32.5781L32.5703 28.9062Z" fill="white"/>
<path d="M43.75 16.1719H39.6094V28.9062H37.9453V16.1719H33.8516V14.6641H43.75V16.1719Z" fill="white"/>
<path d="M20.4063 38.5938C19.8422 38.867 19.2201 38.9984 18.5938 38.9766C18.1776 38.9954 17.7622 38.9249 17.3755 38.7699C16.9888 38.615 16.6397 38.3791 16.3516 38.0782C15.7775 37.4356 15.4751 36.5954 15.5078 35.7344C15.4868 35.2682 15.5597 34.8026 15.7221 34.3651C15.8844 33.9276 16.1331 33.5271 16.4531 33.1875C16.7651 32.868 17.1401 32.6168 17.5544 32.4501C17.9686 32.2833 18.4131 32.2045 18.8594 32.2188C19.3936 32.2005 19.9257 32.2937 20.4219 32.4922V33.2735C19.9441 33.009 19.4054 32.8743 18.8594 32.8829C18.5152 32.8732 18.1729 32.938 17.856 33.0728C17.5392 33.2076 17.2552 33.4093 17.0235 33.6641C16.5362 34.2192 16.2841 34.942 16.3203 35.6797C16.2839 36.3785 16.519 37.0644 16.9766 37.5938C17.1961 37.8298 17.464 38.0156 17.762 38.1383C18.0601 38.261 18.3811 38.3178 18.7032 38.3047C19.303 38.3204 19.8954 38.169 20.4141 37.8672L20.4063 38.5938Z" fill="#F2F2F2"/>
<path d="M23.6016 38.9765C23.2906 38.9866 22.9811 38.9297 22.694 38.8097C22.4069 38.6898 22.1489 38.5095 21.9375 38.2812C21.5103 37.8044 21.2885 37.1783 21.3203 36.539C21.3008 36.204 21.3481 35.8685 21.4594 35.552C21.5707 35.2355 21.7439 34.9442 21.9688 34.6952C22.1983 34.4712 22.4713 34.2967 22.771 34.1825C23.0706 34.0683 23.3906 34.0168 23.7109 34.0312C24.0138 34.015 24.3165 34.0646 24.5984 34.1766C24.8802 34.2885 25.1345 34.4601 25.3438 34.6796C25.759 35.18 25.9685 35.8196 25.9297 36.4687C25.9625 37.1274 25.7352 37.7727 25.2969 38.2655C25.0815 38.4983 24.8188 38.6822 24.5263 38.8049C24.2339 38.9275 23.9185 38.986 23.6016 38.9765ZM23.6563 34.703C23.4414 34.694 23.2272 34.7336 23.0297 34.8188C22.8322 34.904 22.6565 35.0327 22.5156 35.1952C22.215 35.5823 22.0651 36.0653 22.0938 36.5546C22.0665 37.0293 22.2169 37.4972 22.5156 37.8671C22.6579 38.0274 22.8341 38.154 23.0314 38.2377C23.2287 38.3215 23.4421 38.3604 23.6563 38.3515C23.8659 38.3639 24.0756 38.328 24.2693 38.2468C24.4629 38.1655 24.6354 38.041 24.7734 37.8827C25.0575 37.4946 25.1958 37.0189 25.1641 36.539C25.195 36.0567 25.0568 35.5788 24.7734 35.1874C24.6373 35.0259 24.4656 34.898 24.2718 34.814C24.0779 34.7299 23.8672 34.692 23.6563 34.703Z" fill="#F2F2F2"/>
<path d="M29.5781 34.9375C29.4094 34.827 29.209 34.7748 29.0078 34.7891C28.8504 34.7948 28.6969 34.8391 28.5606 34.9181C28.4244 34.9972 28.3097 35.1084 28.2266 35.2422C27.994 35.6103 27.8821 36.0418 27.9062 36.4766V38.8672H27.125V34.1797H27.9062V35.1563C27.9921 34.8541 28.163 34.5829 28.3984 34.375C28.6022 34.1982 28.863 34.1011 29.1328 34.1016C29.2838 34.0948 29.4348 34.116 29.5781 34.1641V34.9375Z" fill="#F2F2F2"/>
<path d="M34.1563 36.7187H30.8516C30.8294 37.1554 30.9715 37.5847 31.25 37.9218C31.3948 38.0663 31.5685 38.1785 31.7597 38.2512C31.9508 38.3239 32.1552 38.3554 32.3594 38.3437C32.889 38.3384 33.4012 38.1539 33.8125 37.8203V38.5234C33.3295 38.8418 32.7575 38.9978 32.1797 38.9687C31.8882 38.9834 31.597 38.9336 31.3269 38.8229C31.0568 38.7122 30.8145 38.5432 30.6172 38.3281C30.2105 37.8208 30.0072 37.1802 30.0469 36.5312C30.0188 35.8806 30.2395 35.2437 30.6641 34.75C30.8573 34.5267 31.0977 34.3493 31.368 34.2304C31.6382 34.1115 31.9315 34.0541 32.2266 34.0625C32.493 34.0475 32.7594 34.0932 33.0057 34.196C33.252 34.2989 33.4717 34.4562 33.6484 34.6562C34.0082 35.1306 34.1856 35.7183 34.1484 36.3125L34.1563 36.7187ZM33.375 36.0859C33.3909 35.7239 33.2804 35.3676 33.0625 35.0781C32.9556 34.9573 32.8228 34.8622 32.674 34.8C32.5252 34.7378 32.3642 34.71 32.2031 34.7187C32.035 34.7166 31.8683 34.7496 31.7136 34.8155C31.5589 34.8814 31.4197 34.9788 31.3047 35.1015C31.0476 35.3735 30.8858 35.7218 30.8438 36.0937L33.375 36.0859Z" fill="#F2F2F2"/>
</svg>
