<svg width="50" height="51" viewBox="0 0 50 51" fill="none" xmlns="http://www.w3.org/2000/svg">
<path d="M18.4164 39.0957C18.4164 39.0957 16.5057 40.2068 19.7762 40.5828C23.7383 41.0349 25.7633 40.97 30.1296 40.1436C30.1296 40.1436 31.2775 40.8634 32.8807 41.4869C23.0927 45.6819 10.7284 41.2439 18.4164 39.0957Z" fill="#5382A1"/>
<path d="M17.2203 33.6216C17.2203 33.6216 15.0773 35.2079 18.3502 35.5464C22.5827 35.9831 25.9251 36.0188 31.7089 34.9051C31.7089 34.9051 32.5089 35.7161 33.7668 36.1596C21.9324 39.6202 8.75108 36.4325 17.2203 33.6216Z" fill="#5382A1"/>
<path d="M27.3034 24.3356C29.7152 27.1123 26.6697 29.611 26.6697 29.611C26.6697 29.611 32.7936 26.4497 29.9812 22.4909C27.3545 18.7991 25.3401 16.9648 36.245 10.6404C36.245 10.6404 19.1279 14.9154 27.3034 24.3356Z" fill="#F8981D"/>
<path d="M40.2489 43.1448C40.2489 43.1448 41.6629 44.3099 38.6917 45.2112C33.0419 46.9227 15.1766 47.4395 10.2137 45.2794C8.42967 44.5033 11.7752 43.4262 12.8276 43.2002C13.9252 42.9622 14.5524 43.0065 14.5524 43.0065C12.5683 41.6089 1.72842 45.7509 9.04622 46.9371C29.0029 50.1735 45.4254 45.4798 40.2489 43.1448Z" fill="#5382A1"/>
<path d="M19.3352 27.9498C19.3352 27.9498 10.2478 30.1082 16.1171 30.892C18.5954 31.2238 23.5356 31.1487 28.1373 30.7632C31.8981 30.4459 35.6744 29.7714 35.6744 29.7714C35.6744 29.7714 34.3483 30.3393 33.3889 30.9944C24.1608 33.4214 6.33379 32.2924 11.466 29.8098C15.8062 27.7118 19.3352 27.9498 19.3352 27.9498Z" fill="#5382A1"/>
<path d="M35.6369 37.0617C45.0177 32.1871 40.6804 27.5026 37.653 28.1337C36.911 28.2881 36.5802 28.422 36.5802 28.422C36.5802 28.422 36.8556 27.9904 37.3817 27.8037C43.3709 25.6981 47.9769 34.0138 35.4484 37.3074C35.4484 37.3074 35.5935 37.1777 35.6369 37.0617Z" fill="#5382A1"/>
<path d="M29.9812 0.428101C29.9812 0.428101 35.1765 5.62508 25.0538 13.6166C16.9364 20.0271 23.2028 23.6823 25.0504 27.8584C20.3122 23.5833 16.8349 19.82 19.1677 16.3174C22.5917 11.176 32.0774 8.6832 29.9812 0.428101Z" fill="#F8981D"/>
<path d="M20.2571 50.271C29.2615 50.8474 43.0887 49.9512 43.4162 45.6906C43.4162 45.6906 42.7867 47.3057 35.9746 48.5884C28.2891 50.0347 18.8102 49.8659 13.1882 48.939C13.1882 48.939 14.3391 49.8915 20.2571 50.271Z" fill="#5382A1"/>
</svg>
