<svg width="50" height="50" viewBox="0 0 50 50" fill="none" xmlns="http://www.w3.org/2000/svg">
<path fill-rule="evenodd" clip-rule="evenodd" d="M23.0635 49.4864C23.6505 49.8244 24.3155 50 24.9851 50L24.9833 49.9904C25.662 49.9904 26.327 49.8161 26.9141 49.4767L45.2312 38.8964C46.4144 38.2085 47.1528 36.929 47.1528 35.5577V14.4155C47.1528 13.0396 46.4144 11.7601 45.2312 11.0767L26.9141 0.491866C25.7629 -0.163955 24.222 -0.163955 23.0617 0.491866L4.72159 11.0722C3.53378 11.7509 2.79999 13.035 2.79999 14.4109V35.5531C2.79999 36.9244 3.53378 38.2085 4.72159 38.8964L9.5279 41.6665C11.8577 42.813 12.6924 42.813 13.7518 42.813C17.196 42.813 19.1772 40.7263 19.1772 37.0941V16.2178C19.1772 15.9197 18.9387 15.6904 18.6498 15.6904H16.3292C16.0311 15.6904 15.7972 15.9197 15.7972 16.2178V37.0849C15.7972 38.6992 14.1324 40.3044 11.4082 38.9423L6.39096 36.0438C6.21668 35.9475 6.10662 35.7549 6.10662 35.5531V14.4109C6.10662 14.2091 6.21944 14.0119 6.39692 13.911L24.7077 3.34446C24.8773 3.24357 25.1021 3.24357 25.2718 3.34446L43.5862 13.911C43.7595 14.0165 43.8696 14.2045 43.8696 14.4155V35.5577C43.8696 35.7595 43.7595 35.9567 43.5898 36.053L25.2681 46.6287C25.1108 46.7204 24.87 46.7204 24.7003 46.6287L20.0013 43.8403C19.8615 43.7578 19.6826 43.7302 19.5459 43.8082C18.2457 44.5466 17.9986 44.6429 16.7805 45.0694C16.4792 45.1735 16.0334 45.3542 16.9469 45.8651L23.0635 49.4864ZM20.947 28.6651C20.947 31.7516 22.6278 35.4315 30.6445 35.4315L30.6179 35.4531C36.424 35.4531 39.7535 33.1646 39.7535 29.1746C39.7535 25.2168 37.0798 24.162 31.448 23.4144C25.7611 22.6623 25.1833 22.2725 25.1833 20.9379C25.1833 19.8372 25.674 18.3696 29.8887 18.3696C33.6539 18.3696 35.0389 19.1814 35.6122 21.7175C35.6626 21.956 35.8782 22.1303 36.1258 22.1303H38.5061C38.6528 22.1303 38.795 22.0661 38.8959 21.9606C38.9968 21.8505 39.0518 21.7038 39.0381 21.5524C38.6712 17.1772 35.7635 15.141 29.8978 15.141C24.6742 15.141 21.5556 17.3423 21.5556 21.0388C21.5556 25.0517 24.6558 26.1569 29.6731 26.6522C35.6718 27.2393 36.1396 28.1152 36.1396 29.2939C36.1396 31.3416 34.4978 32.2139 30.6362 32.2139C25.7886 32.2139 24.7246 30.9976 24.3669 28.5862C24.3256 28.328 24.1055 28.1377 23.8441 28.1377H21.4776C21.1837 28.1377 20.947 28.3716 20.947 28.6651Z" fill="#689F63"/>
</svg>
