<svg width="50" height="50" viewBox="0 0 50 50" fill="none" xmlns="http://www.w3.org/2000/svg">
<path d="M0 24.4115C0 31.6744 11.1931 37.5624 25 37.5624C38.8068 37.5624 50 31.6744 50 24.4115C50 17.1486 38.8068 11.2605 25 11.2605C11.1931 11.2605 0 17.1486 0 24.4115Z" fill="#494D89"/>
<path d="M14.0394 26.3866C15.0868 26.3866 15.8686 26.1935 16.3633 25.8128C16.8527 25.4359 17.1907 24.7831 17.3679 23.8724C17.5331 23.0212 17.4702 22.4268 17.1809 22.1061C16.8852 21.7785 16.2458 21.6123 15.2805 21.6123H13.6068L12.6789 26.3866H14.0394ZM8.56522 32.2677C8.48753 32.2677 8.41375 32.233 8.36436 32.1729C8.31488 32.1129 8.29482 32.0339 8.30967 31.9576L10.7687 19.3056C10.7925 19.1833 10.8997 19.095 11.0243 19.095H16.3242C17.9898 19.095 19.2295 19.5472 20.0088 20.4393C20.7922 21.3361 21.0341 22.5897 20.7278 24.1651C20.6032 24.8069 20.3887 25.403 20.0906 25.9367C19.792 26.471 19.3975 26.9654 18.9177 27.4063C18.3434 27.9438 17.6934 28.3336 16.9875 28.5629C16.2928 28.7892 15.4006 28.904 14.3358 28.904H12.1898L11.5769 32.0569C11.5532 32.1793 11.446 32.2677 11.3214 32.2677H8.56522Z" fill="black"/>
<path d="M13.8215 21.8727H15.2805C16.4455 21.8727 16.8502 22.1283 16.9877 22.2807C17.2158 22.5336 17.2589 23.067 17.1123 23.823C16.9475 24.6693 16.6422 25.2694 16.2045 25.6064C15.7564 25.9513 15.0279 26.1262 14.0395 26.1262H12.9948L13.8215 21.8727ZM16.3242 18.8345H11.0243C10.775 18.8345 10.5606 19.0112 10.5131 19.2559L8.05404 31.9079C8.02436 32.0606 8.06446 32.2185 8.16333 32.3386C8.26229 32.4586 8.40969 32.5281 8.56524 32.5281H11.3213C11.5707 32.5281 11.785 32.3513 11.8326 32.1066L12.4045 29.1644H14.3358C15.428 29.1644 16.3474 29.0453 17.0684 28.8105C17.8098 28.5696 18.4919 28.1611 19.0956 27.5966C19.5949 27.1372 20.0062 26.6216 20.3178 26.0638C20.6296 25.5059 20.8535 24.8838 20.9835 24.2147C21.306 22.5564 21.044 21.2284 20.2049 20.268C19.374 19.3168 18.0683 18.8345 16.3242 18.8345ZM12.363 26.647H14.0395C15.1507 26.647 15.9784 26.4377 16.5222 26.019C17.0661 25.6003 17.433 24.9014 17.6236 23.9221C17.806 22.9818 17.7229 22.3183 17.3744 21.9317C17.0254 21.5452 16.3276 21.3519 15.2805 21.3519H13.3922L12.363 26.647ZM16.3242 19.3553C17.9185 19.3553 19.0816 19.7737 19.8127 20.6106C20.5437 21.4475 20.7639 22.6157 20.4722 24.1154C20.3521 24.7332 20.1491 25.298 19.8632 25.8098C19.577 26.3218 19.2034 26.7901 18.7415 27.2146C18.1912 27.7296 17.5798 28.0967 16.9071 28.3152C16.2343 28.5344 15.3775 28.6435 14.3358 28.6435H11.9751L11.3213 32.0072H8.56524L11.0243 19.3553H16.3242Z" fill="white"/>
<path d="M27.0471 28.9039C26.9694 28.9039 26.8957 28.8692 26.8463 28.8091C26.7967 28.7492 26.7766 28.6703 26.7915 28.5939L27.8792 22.9959C27.9827 22.4635 27.9572 22.0814 27.8075 21.9199C27.7158 21.8212 27.4404 21.6557 26.6263 21.6557H24.6556L23.288 28.6932C23.2642 28.8156 23.157 28.9039 23.0324 28.9039H20.298C20.2202 28.9039 20.1465 28.8692 20.097 28.8091C20.0476 28.7492 20.0275 28.6702 20.0424 28.5939L22.5014 15.9419C22.5252 15.8196 22.6324 15.7312 22.757 15.7312H25.4914C25.5692 15.7312 25.6429 15.7659 25.6924 15.8259C25.7418 15.886 25.7619 15.9649 25.747 16.0413L25.1536 19.0949H27.2736C28.8886 19.0949 29.9838 19.3796 30.6216 19.9654C31.2718 20.563 31.4746 21.5184 31.2246 22.8056L30.0806 28.6932C30.0568 28.8156 29.9496 28.9039 29.8249 28.9039H27.0471Z" fill="black"/>
<path d="M25.4914 15.4707H22.757C22.5076 15.4707 22.2933 15.6475 22.2458 15.8922L19.7867 28.5442C19.757 28.6969 19.7971 28.8548 19.8961 28.9748C19.9951 29.0949 20.1425 29.1643 20.298 29.1643H23.0324C23.2817 29.1643 23.4961 28.9876 23.5437 28.7429L24.8703 21.916H26.6263C27.4391 21.916 27.6096 22.0897 27.6165 22.0971C27.6658 22.1502 27.7306 22.3958 27.6236 22.9462L26.5359 28.5442C26.5062 28.6969 26.5463 28.8548 26.6452 28.9748C26.7442 29.0949 26.8916 29.1643 27.0471 29.1643H29.8249C30.0742 29.1643 30.2886 28.9876 30.3362 28.7429L31.4802 22.8553C31.7487 21.4732 31.519 20.4365 30.7978 19.7737C30.1096 19.1417 28.9569 18.8344 27.2736 18.8344H25.4695L26.0027 16.091C26.0323 15.9383 25.9923 15.7803 25.8933 15.6603C25.7944 15.5403 25.647 15.4707 25.4914 15.4707ZM25.4914 15.9916L24.8377 19.3553H27.2736C28.8063 19.3553 29.8635 19.6228 30.4454 20.1572C31.0273 20.6919 31.2016 21.5583 30.969 22.756L29.8249 28.6435H27.0471L28.1349 23.0456C28.2587 22.4088 28.2132 21.9744 27.9983 21.7428C27.7833 21.5112 27.3259 21.3952 26.6263 21.3952H24.4409L23.0324 28.6435H20.298L22.757 15.9916H25.4914Z" fill="white"/>
<path d="M35.5512 26.3866C36.5985 26.3866 37.3804 26.1935 37.8751 25.8128C38.3645 25.436 38.7025 24.7832 38.8798 23.8724C39.0449 23.0212 38.982 22.4268 38.6927 22.1061C38.3969 21.7785 37.7575 21.6123 36.7923 21.6123H35.1186L34.1907 26.3866H35.5512ZM30.0771 32.2677C29.9994 32.2677 29.9256 32.233 29.8762 32.1729C29.8267 32.1129 29.8066 32.0339 29.8214 31.9576L32.2804 19.3056C32.3043 19.1833 32.4114 19.095 32.5362 19.095H37.8359C39.5016 19.095 40.7413 19.5472 41.5206 20.4393C42.3041 21.336 42.5459 22.5896 42.2397 24.1651C42.1148 24.8069 41.9005 25.403 41.6023 25.9367C41.3038 26.471 40.9093 26.9654 40.4295 27.4063C39.8552 27.9438 39.2052 28.3336 38.4993 28.5629C37.8046 28.7892 36.9124 28.904 35.8476 28.904H33.7015L33.0889 32.0569C33.065 32.1793 32.9579 32.2677 32.8331 32.2677H30.0771Z" fill="black"/>
<path d="M35.3333 21.8727H36.7923C37.9573 21.8727 38.362 22.1283 38.4995 22.2807C38.7277 22.5336 38.7708 23.067 38.6241 23.8229C38.4593 24.6693 38.1538 25.2694 37.7162 25.6064C37.2681 25.9513 36.5397 26.1262 35.5512 26.1262H34.5067L35.3333 21.8727ZM37.8359 18.8345H32.5361C32.2868 18.8345 32.0725 19.0112 32.0249 19.2559L29.5659 31.9079C29.5362 32.0606 29.5763 32.2185 29.6752 32.3386C29.7741 32.4586 29.9215 32.5281 30.0771 32.5281H32.8332C33.0825 32.5281 33.2969 32.3513 33.3445 32.1066L33.9162 29.1644H35.8476C36.9398 29.1644 37.8592 29.0453 38.5801 28.8105C39.3215 28.5696 40.0038 28.1611 40.6076 27.5964C41.1069 27.1371 41.518 26.6216 41.8296 26.0638C42.1413 25.5059 42.3653 24.8838 42.4952 24.2147C42.8177 22.5563 42.5557 21.2283 41.7167 20.2679C40.8858 19.3168 39.5801 18.8345 37.8359 18.8345ZM33.8748 26.647H35.5512C36.6624 26.647 37.4901 26.4377 38.0339 26.019C38.578 25.6003 38.9447 24.9014 39.1353 23.9221C39.3178 22.9818 39.2347 22.3183 38.8861 21.9317C38.5372 21.5452 37.8393 21.3519 36.7923 21.3519H34.9039L33.8748 26.647ZM37.8359 19.3553C39.4303 19.3553 40.5934 19.7737 41.3245 20.6106C42.0556 21.4475 42.2756 22.6157 41.9839 24.1154C41.8639 24.7332 41.6609 25.298 41.375 25.8098C41.0888 26.3218 40.7151 26.7901 40.2533 27.2146C39.703 27.7296 39.0916 28.0967 38.4188 28.3152C37.7461 28.5344 36.8892 28.6435 35.8476 28.6435H33.4868L32.8332 32.0072H30.0771L32.5361 19.3553H37.8359Z" fill="white"/>
</svg>
