<?xml version="1.0" encoding="UTF-8"?>
<svg width="48px" height="48px" viewBox="0 0 48 48" version="1.1" xmlns="http://www.w3.org/2000/svg" xmlns:xlink="http://www.w3.org/1999/xlink">
    <title>A7C9F1AD-AFAF-48C5-8914-C4D4027E4084</title>
    <g id="Test" stroke="none" stroke-width="1" fill="none" fill-rule="evenodd">
        <g id="test-start" transform="translate(-1112.000000, -88.000000)" fill-rule="nonzero">
            <g id="Service-logo" transform="translate(1112.000000, 88.000000)">
                <g id="pm-orange-logo-horiz" transform="translate(2.000000, 2.000000)">
                    <g id="Group" fill="#FF6C37">
                        <path d="M43.7154229,24.8895522 C45.2477612,12.8935323 36.7761194,1.92636816 24.80199,0.394029851 C12.8278607,-1.13830846 1.81691542,7.33333333 0.284577114,19.3074627 C-1.24776119,31.281592 7.2238806,42.2706468 19.19801,43.8248756 C31.1940299,45.3572139 42.161194,36.8855721 43.7154229,24.8895522 Z" id="Path"></path>
                    </g>
                    <path d="M29.9024876,14.2726368 L20.6646766,23.5104478 L18.0597015,20.9054726 C27.1442786,11.8208955 28.041791,12.6089552 29.9024876,14.2726368 L29.9024876,14.2726368 Z" id="Path" fill="#FFFFFF"></path>
                    <path d="M20.6646766,23.7293532 C20.599005,23.7293532 20.5552239,23.7074627 20.5114428,23.6636816 L17.8845771,21.0587065 C17.7970149,20.9711443 17.7970149,20.839801 17.8845771,20.7522388 C27.1223881,11.5144279 28.0855721,12.3900498 30.0338308,14.1412935 C30.0776119,14.1850746 30.0995025,14.2288557 30.0995025,14.2945274 C30.0995025,14.360199 30.0776119,14.4039801 30.0338308,14.4477612 L20.7960199,23.6636816 C20.7741294,23.7074627 20.7084577,23.7293532 20.6646766,23.7293532 Z M18.3661692,20.9054726 L20.6646766,23.2039801 L29.5741294,14.2945274 C27.9542289,12.8497512 26.8597015,12.4119403 18.3661692,20.9054726 L18.3661692,20.9054726 Z" id="Shape" fill="#FF6C37"></path>
                    <path d="M23.3134328,26.159204 L20.7960199,23.641791 L30.0338308,14.4039801 C32.5074627,16.8995025 28.8079602,20.9492537 23.3134328,26.159204 Z" id="Path" fill="#FFFFFF"></path>
                    <path d="M23.3134328,26.3781095 C23.2477612,26.3781095 23.2039801,26.3562189 23.160199,26.3124378 L20.6427861,23.7950249 C20.599005,23.7512438 20.599005,23.7074627 20.599005,23.641791 C20.599005,23.5761194 20.6208955,23.5323383 20.6646766,23.4885572 L29.9024876,14.2507463 C29.9900498,14.1631841 30.121393,14.1631841 30.2089552,14.2507463 C30.7781095,14.7761194 31.0845771,15.520398 31.0626866,16.2865672 C31.0189055,18.7164179 28.2606965,21.8029851 23.4885572,26.3124378 C23.4228856,26.3562189 23.3572139,26.3781095 23.3134328,26.3781095 L23.3134328,26.3781095 Z M21.1024876,23.641791 C22.5034826,25.0646766 23.0945274,25.6338308 23.3134328,25.8527363 C26.9910448,22.3502488 30.559204,18.760199 30.5810945,16.2865672 C30.6029851,15.7174129 30.3840796,15.1482587 30.0119403,14.7104478 L21.1024876,23.641791 Z" id="Shape" fill="#FF6C37"></path>
                    <path d="M18.1034826,20.9711443 L19.9641791,22.8318408 C20.0079602,22.8756219 20.0079602,22.919403 19.9641791,22.9631841 C19.9422886,22.9850746 19.9422886,22.9850746 19.920398,22.9850746 L16.0676617,23.8169154 C15.8706468,23.838806 15.6955224,23.7074627 15.6517413,23.5104478 C15.6298507,23.400995 15.6736318,23.2915423 15.7393035,23.2258706 L17.9721393,20.9930348 C18.0159204,20.9492537 18.081592,20.9273632 18.1034826,20.9711443 Z" id="Path" fill="#FFFFFF"></path>
                    <path d="M16.00199,24.0358209 C15.6736318,24.0358209 15.4328358,23.7731343 15.4328358,23.4447761 C15.4328358,23.2915423 15.4985075,23.1383085 15.6079602,23.0288557 L17.840796,20.7960199 C17.9721393,20.6865672 18.1472637,20.6865672 18.278607,20.7960199 L20.1393035,22.6567164 C20.2706468,22.7661692 20.2706468,22.9631841 20.1393035,23.0945274 C20.0955224,23.1383085 20.0517413,23.160199 19.9860697,23.1820896 L16.1333333,24.0139303 C16.0895522,24.0139303 16.0457711,24.0358209 16.00199,24.0358209 L16.00199,24.0358209 Z M18.0378109,21.2119403 L15.8925373,23.3572139 C15.8487562,23.400995 15.8268657,23.4666667 15.8706468,23.5323383 C15.8925373,23.59801 15.958209,23.6199005 16.0238806,23.59801 L19.6358209,22.8099502 L18.0378109,21.2119403 Z" id="Shape" fill="#FF6C37"></path>
                    <path d="M34.7840796,9.15024876 C33.3830846,7.79303483 31.1283582,7.83681592 29.7711443,9.25970149 C28.4139303,10.6825871 28.4577114,12.9154229 29.880597,14.2726368 C31.040796,15.3890547 32.7920398,15.5860697 34.1711443,14.7542289 L31.6756219,12.2587065 L34.7840796,9.15024876 Z" id="Path" fill="#FFFFFF"></path>
                    <path d="M32.3323383,15.4766169 C30.2527363,15.4766169 28.5671642,13.7910448 28.5671642,11.7114428 C28.5671642,9.6318408 30.2527363,7.94626866 32.3323383,7.94626866 C33.2955224,7.94626866 34.2368159,8.31840796 34.9373134,8.99701493 C34.9810945,9.04079602 35.0029851,9.08457711 35.0029851,9.15024876 C35.0029851,9.2159204 34.9810945,9.25970149 34.9373134,9.30348259 L31.9820896,12.2587065 L34.3024876,14.5791045 C34.3900498,14.6666667 34.3900498,14.79801 34.3024876,14.8855721 C34.280597,14.9074627 34.280597,14.9074627 34.2587065,14.9293532 C33.6895522,15.279602 33.0109453,15.4766169 32.3323383,15.4766169 Z M32.3323383,8.40597015 C30.4935323,8.40597015 29.0049751,9.89452736 29.0268657,11.7333333 C29.0268657,13.5721393 30.5154229,15.0606965 32.3542289,15.038806 C32.8577114,15.038806 33.361194,14.9293532 33.8208955,14.6885572 L31.5223881,12.4119403 C31.478607,12.3681592 31.4567164,12.3243781 31.4567164,12.2587065 C31.4567164,12.1930348 31.478607,12.1492537 31.5223881,12.1054726 L34.4557214,9.1721393 C33.8646766,8.66865672 33.120398,8.40597015 32.3323383,8.40597015 L32.3323383,8.40597015 Z" id="Shape" fill="#FF6C37"></path>
                    <path d="M34.8497512,9.2159204 L34.8059701,9.1721393 L31.6756219,12.2587065 L34.1492537,14.7323383 C34.3900498,14.5791045 34.6308458,14.4039801 34.8278607,14.2069652 C36.2288557,12.8278607 36.2288557,10.5950249 34.8497512,9.2159204 L34.8497512,9.2159204 Z" id="Path" fill="#FFFFFF"></path>
                    <path d="M34.1711443,14.9731343 C34.1054726,14.9731343 34.0616915,14.9512438 34.0179104,14.9074627 L31.5223881,12.4119403 C31.478607,12.3681592 31.4567164,12.3243781 31.4567164,12.2587065 C31.4567164,12.1930348 31.478607,12.1492537 31.5223881,12.1054726 L34.6308458,8.99701493 C34.718408,8.90945274 34.8497512,8.90945274 34.9373134,8.99701493 L35.0029851,9.04079602 C36.4696517,10.5074627 36.4696517,12.8716418 35.0248756,14.360199 C34.8059701,14.5791045 34.5651741,14.7761194 34.3024876,14.9293532 C34.2368159,14.9512438 34.1930348,14.9731343 34.1711443,14.9731343 L34.1711443,14.9731343 Z M31.9820896,12.2587065 L34.1930348,14.4696517 C34.3681592,14.360199 34.5432836,14.2069652 34.6746269,14.0756219 C35.9223881,12.8278607 35.9880597,10.7920398 34.7840796,9.47860697 L31.9820896,12.2587065 Z" id="Shape" fill="#FF6C37"></path>
                    <path d="M30.2746269,14.6666667 C29.7492537,14.1412935 28.8955224,14.1412935 28.3701493,14.6666667 L20.1174129,22.919403 L21.4965174,24.2985075 L30.2308458,16.6368159 C30.8,16.1552239 30.8437811,15.3014925 30.3621891,14.7323383 C30.318408,14.7104478 30.2965174,14.6885572 30.2746269,14.6666667 L30.2746269,14.6666667 Z" id="Path" fill="#FFFFFF"></path>
                    <path d="M21.4746269,24.5174129 C21.4089552,24.5174129 21.3651741,24.4955224 21.321393,24.4517413 L19.9422886,23.0726368 C19.8547264,22.9850746 19.8547264,22.8537313 19.9422886,22.7661692 L28.1950249,14.5134328 C28.8079602,13.9004975 29.7930348,13.9004975 30.4059701,14.5134328 C31.0189055,15.1263682 31.0189055,16.1114428 30.4059701,16.7243781 C30.3840796,16.7462687 30.3621891,16.7681592 30.3402985,16.7900498 L21.6059701,24.4517413 C21.5840796,24.4955224 21.5402985,24.5174129 21.4746269,24.5174129 L21.4746269,24.5174129 Z M20.4238806,22.919403 L21.4965174,23.9920398 L30.0776119,16.4616915 C30.559204,16.0676617 30.6029851,15.3452736 30.2089552,14.8636816 C29.8149254,14.3820896 29.0925373,14.3383085 28.6109453,14.7323383 C28.5890547,14.7542289 28.5671642,14.7761194 28.5233831,14.79801 L20.4238806,22.919403 Z" id="Shape" fill="#FF6C37"></path>
                    <path d="M13.7910448,32.3104478 C13.7034826,32.3542289 13.6597015,32.441791 13.681592,32.5293532 L14.0537313,34.1054726 C14.1412935,34.3243781 14.0099502,34.5870647 13.7691542,34.6527363 C13.5940299,34.718408 13.3970149,34.6527363 13.2875622,34.521393 L10.879602,32.1353234 L18.7383085,24.2766169 L21.4527363,24.320398 L23.2915423,26.159204 C22.8537313,26.5313433 20.2049751,29.0925373 13.7910448,32.3104478 L13.7910448,32.3104478 Z" id="Path" fill="#FFFFFF"></path>
                    <path d="M13.6159204,34.8716418 C13.440796,34.8716418 13.2656716,34.8059701 13.1562189,34.6746269 L10.7701493,32.2885572 C10.7263682,32.2447761 10.7044776,32.200995 10.7044776,32.1353234 C10.7044776,32.0696517 10.7263682,32.0258706 10.7701493,31.9820896 L18.6288557,24.1233831 C18.6726368,24.079602 18.7383085,24.0577114 18.7820896,24.0577114 L21.4965174,24.1014925 C21.5621891,24.1014925 21.6059701,24.1233831 21.6497512,24.1671642 L23.4885572,26.0059701 C23.5323383,26.0497512 23.5542289,26.1154229 23.5542289,26.1810945 C23.5542289,26.2467662 23.5323383,26.2905473 23.4666667,26.3343284 L23.3134328,26.4656716 C20.9930348,28.5014925 17.840796,30.5373134 13.9223881,32.4855721 L14.2945274,34.039801 C14.360199,34.3243781 14.2288557,34.6308458 13.9661692,34.7840796 C13.8348259,34.8497512 13.7253731,34.8716418 13.6159204,34.8716418 Z M11.2079602,32.1353234 L13.4626866,34.3681592 C13.5283582,34.4776119 13.6597015,34.521393 13.7691542,34.4557214 C13.878607,34.3900498 13.9223881,34.2587065 13.8567164,34.1492537 L13.4845771,32.5731343 C13.440796,32.3761194 13.5283582,32.200995 13.7034826,32.1134328 C17.5781095,30.1651741 20.7084577,28.1512438 23.0069652,26.159204 L21.3870647,24.5393035 L18.8696517,24.4955224 L11.2079602,32.1353234 Z" id="Shape" fill="#FF6C37"></path>
                    <path d="M9.01890547,34.0179104 L10.9014925,32.1353234 L13.7034826,34.9373134 L9.23781095,34.6308458 C9.04079602,34.6089552 8.90945274,34.4338308 8.93134328,34.2368159 C8.93134328,34.1492537 8.95323383,34.0616915 9.01890547,34.0179104 L9.01890547,34.0179104 Z" id="Path" fill="#FFFFFF"></path>
                    <path d="M13.7034826,35.1343284 L9.2159204,34.8278607 C8.88756219,34.8059701 8.66865672,34.521393 8.69054726,34.1930348 C8.71243781,34.0616915 8.75621891,33.9303483 8.86567164,33.8427861 L10.7482587,31.960199 C10.8358209,31.8726368 10.9671642,31.8726368 11.0547264,31.960199 L13.8567164,34.7621891 C13.9223881,34.8278607 13.9442786,34.9154229 13.9004975,35.0029851 C13.8567164,35.0905473 13.7910448,35.1343284 13.7034826,35.1343284 L13.7034826,35.1343284 Z M10.9014925,32.441791 L9.1721393,34.1711443 C9.10646766,34.2149254 9.10646766,34.3243781 9.1721393,34.3681592 C9.19402985,34.3900498 9.2159204,34.4119403 9.25970149,34.4119403 L13.1343284,34.6746269 L10.9014925,32.441791 Z" id="Shape" fill="#FF6C37"></path>
                    <path d="M17.9721393,25.2835821 C17.840796,25.2835821 17.7532338,25.1741294 17.7532338,25.0646766 C17.7532338,24.999005 17.7751244,24.9552239 17.8189055,24.9114428 L19.9422886,22.7880597 C20.0298507,22.7004975 20.161194,22.7004975 20.2487562,22.7880597 L21.6278607,24.1671642 C21.6935323,24.2328358 21.7154229,24.2985075 21.6935323,24.3860697 C21.6716418,24.4517413 21.6059701,24.5174129 21.518408,24.5393035 L18.0159204,25.2835821 C17.9940299,25.2835821 17.9721393,25.2835821 17.9721393,25.2835821 L17.9721393,25.2835821 Z M20.0955224,23.2477612 L18.6507463,24.6925373 L21.0149254,24.1890547 L20.0955224,23.2477612 Z" id="Shape" fill="#FF6C37"></path>
                    <path d="M21.4527363,24.320398 L19.0447761,24.8457711 C18.8696517,24.8895522 18.6945274,24.7800995 18.6507463,24.6049751 C18.6288557,24.4955224 18.6507463,24.3860697 18.7383085,24.2985075 L20.0736318,22.9631841 L21.4527363,24.320398 Z" id="Path" fill="#FFFFFF"></path>
                    <path d="M19.000995,25.0646766 C18.6945274,25.0646766 18.4537313,24.8238806 18.4537313,24.5174129 C18.4537313,24.3641791 18.519403,24.2328358 18.6069652,24.1233831 L19.9422886,22.7880597 C20.0298507,22.7004975 20.161194,22.7004975 20.2487562,22.7880597 L21.6278607,24.1671642 C21.6935323,24.2328358 21.7154229,24.2985075 21.6935323,24.3860697 C21.6716418,24.4517413 21.6059701,24.5174129 21.518408,24.5393035 L19.1104478,25.0646766 C19.0666667,25.0646766 19.0228856,25.0646766 19.000995,25.0646766 L19.000995,25.0646766 Z M20.0955224,23.2477612 L18.9134328,24.4298507 C18.8696517,24.4736318 18.8696517,24.5174129 18.8915423,24.561194 C18.9134328,24.6049751 18.9572139,24.6268657 19.0228856,24.6268657 L21.0368159,24.1890547 L20.0955224,23.2477612 Z" id="Shape" fill="#FF6C37"></path>
                    <path d="M34.8716418,11.3174129 C34.8278607,11.1860697 34.6746269,11.120398 34.5432836,11.1641791 C34.4119403,11.2079602 34.3462687,11.361194 34.3900498,11.4925373 C34.3900498,11.5144279 34.4119403,11.5363184 34.4119403,11.558209 C34.5432836,11.8208955 34.4995025,12.1492537 34.3243781,12.3900498 C34.2368159,12.4995025 34.2587065,12.6527363 34.3462687,12.7402985 C34.4557214,12.8278607 34.6089552,12.8059701 34.6965174,12.6965174 C35.0248756,12.280597 35.0905473,11.7552239 34.8716418,11.3174129 L34.8716418,11.3174129 Z" id="Path" fill="#FF6C37"></path>
                </g>
            </g>
        </g>
    </g>
</svg>
