<svg width="50" height="50" viewBox="0 0 50 50" fill="none" xmlns="http://www.w3.org/2000/svg">
<path d="M24.7113 1.00209C22.7321 1.01119 20.8423 1.17815 19.1804 1.46936C14.2799 2.32573 13.3905 4.11748 13.3905 7.42337V11.7885H24.966V13.2433H13.3905H9.04699C5.68271 13.2433 2.73464 15.2439 1.81499 19.0478C0.751995 23.4087 0.704933 26.1337 1.81499 30.6867C2.63793 34.0772 4.6033 36.4913 7.96758 36.4913H11.948V31.2591C11.948 27.4791 15.254 24.1433 19.18 24.1433H30.7425C33.9613 24.1433 36.5325 21.5217 36.5325 18.326V7.42166C36.5325 4.31823 33.8858 1.98873 30.7425 1.46765C28.7539 1.14018 26.6905 0.991413 24.7108 1.00038L24.7113 1.00209ZM18.4507 4.51257C19.6467 4.51257 20.6229 5.49451 20.6229 6.70154C20.6229 7.9043 19.6463 8.87728 18.4507 8.87728C17.2509 8.87728 16.2786 7.90473 16.2786 6.70154C16.2786 5.49451 17.2509 4.51257 18.4507 4.51257Z" fill="url(#paint0_linear_1815_3622)"/>
<path d="M37.975 13.2397V18.3267C37.975 22.2694 34.5961 25.5877 30.743 25.5877H19.1805C16.0131 25.5877 13.3906 28.2691 13.3906 31.405V42.3093C13.3906 45.4128 16.1189 47.2383 19.1805 48.1267C22.8448 49.1928 26.3607 49.3854 30.743 48.1267C33.6574 47.2921 36.533 45.6118 36.533 42.3093V37.9442H24.9704V36.4894H36.533H42.3229C45.6872 36.4894 46.9427 34.1681 48.1128 30.6849C49.3213 27.0976 49.2699 23.646 48.1128 19.046C47.2812 15.7328 45.6932 13.2415 42.3229 13.2415H37.9794L37.975 13.2397ZM31.4727 40.8571C32.6726 40.8571 33.6449 41.8297 33.6449 43.0329C33.6449 44.2399 32.6726 45.2218 31.4727 45.2218C30.2767 45.2218 29.3005 44.2399 29.3005 43.0329C29.3005 41.8301 30.2772 40.8571 31.4727 40.8571Z" fill="url(#paint1_linear_1815_3622)"/>
<defs>
<linearGradient id="paint0_linear_1815_3622" x1="0.999232" y1="1.00115" x2="27.4593" y2="23.7856" gradientUnits="userSpaceOnUse">
<stop stop-color="#5A9FD4"/>
<stop offset="1" stop-color="#306998"/>
</linearGradient>
<linearGradient id="paint1_linear_1815_3622" x1="31.1996" y1="42.6802" x2="21.7415" y2="29.3031" gradientUnits="userSpaceOnUse">
<stop stop-color="#FFD43B"/>
<stop offset="1" stop-color="#FFE873"/>
</linearGradient>
</defs>
</svg>
