<?xml version="1.0" encoding="UTF-8"?>
<svg xmlns="http://www.w3.org/2000/svg" xmlns:xlink="http://www.w3.org/1999/xlink" width="42px" height="48px" viewBox="0 0 42 47" version="1.1">
<g id="surface1">
<path style=" stroke:none;fill-rule:nonzero;fill:rgb(38.039216%,85.490196%,98.431373%);fill-opacity:1;" d="M 42 23.503906 C 42 20.773438 38.515625 18.183594 33.171875 16.578125 C 34.40625 11.230469 33.859375 6.976562 31.445312 5.613281 C 30.886719 5.292969 30.238281 5.140625 29.527344 5.140625 L 29.527344 7.015625 C 29.921875 7.015625 30.238281 7.09375 30.503906 7.234375 C 31.667969 7.890625 32.171875 10.386719 31.777344 13.601562 C 31.683594 14.390625 31.53125 15.222656 31.339844 16.070312 C 29.664062 15.667969 27.832031 15.355469 25.90625 15.15625 C 24.75 13.601562 23.550781 12.1875 22.34375 10.953125 C 25.136719 8.40625 27.753906 7.007812 29.535156 7.007812 L 29.535156 5.132812 C 27.179688 5.132812 24.097656 6.78125 20.984375 9.640625 C 17.867188 6.796875 14.785156 5.167969 12.429688 5.167969 L 12.429688 7.042969 C 14.203125 7.042969 16.832031 8.429688 19.621094 10.960938 C 18.421875 12.195312 17.226562 13.601562 16.085938 15.15625 C 14.152344 15.355469 12.320312 15.667969 10.640625 16.082031 C 10.445312 15.238281 10.296875 14.425781 10.195312 13.640625 C 9.792969 10.429688 10.289062 7.933594 11.445312 7.269531 C 11.703125 7.117188 12.035156 7.050781 12.429688 7.050781 L 12.429688 5.175781 C 11.710938 5.175781 11.0625 5.328125 10.496094 5.648438 C 8.089844 7.007812 7.550781 11.253906 8.792969 16.585938 C 3.46875 18.199219 0 20.78125 0 23.503906 C 0 26.238281 3.484375 28.824219 8.828125 30.433594 C 7.59375 35.777344 8.140625 40.035156 10.554688 41.394531 C 11.113281 41.714844 11.761719 41.867188 12.480469 41.867188 C 14.835938 41.867188 17.917969 40.21875 21.035156 37.359375 C 24.152344 40.203125 27.230469 41.832031 29.585938 41.832031 C 30.304688 41.832031 30.957031 41.679688 31.519531 41.363281 C 33.925781 40 34.464844 35.753906 33.226562 30.421875 C 38.53125 28.816406 42 26.226562 42 23.503906 Z M 30.855469 17.894531 C 30.535156 18.980469 30.144531 20.097656 29.699219 21.21875 C 29.347656 20.542969 28.980469 19.871094 28.578125 19.199219 C 28.183594 18.527344 27.761719 17.871094 27.34375 17.230469 C 28.558594 17.410156 29.730469 17.628906 30.855469 17.894531 Z M 26.933594 26.851562 C 26.265625 27.984375 25.582031 29.0625 24.871094 30.0625 C 23.59375 30.171875 22.300781 30.230469 21 30.230469 C 19.707031 30.230469 18.414062 30.171875 17.148438 30.070312 C 16.4375 29.070312 15.742188 28.003906 15.074219 26.875 C 14.425781 25.773438 13.835938 24.65625 13.296875 23.53125 C 13.824219 22.402344 14.425781 21.277344 15.066406 20.175781 C 15.734375 19.039062 16.417969 17.964844 17.128906 16.964844 C 18.40625 16.855469 19.699219 16.796875 21 16.796875 C 22.292969 16.796875 23.585938 16.855469 24.851562 16.953125 C 25.5625 17.957031 26.257812 19.023438 26.925781 20.148438 C 27.574219 21.25 28.164062 22.371094 28.703125 23.496094 C 28.164062 24.621094 27.574219 25.75 26.933594 26.851562 Z M 29.699219 25.757812 C 30.160156 26.882812 30.554688 28.011719 30.878906 29.105469 C 29.757812 29.371094 28.578125 29.601562 27.351562 29.777344 C 27.773438 29.128906 28.191406 28.464844 28.585938 27.785156 C 28.980469 27.109375 29.347656 26.429688 29.699219 25.757812 Z M 21.015625 34.726562 C 20.222656 33.921875 19.425781 33.023438 18.636719 32.039062 C 19.40625 32.070312 20.195312 32.097656 20.992188 32.097656 C 21.796875 32.097656 22.59375 32.078125 23.371094 32.039062 C 22.601562 33.023438 21.804688 33.921875 21.015625 34.726562 Z M 14.648438 29.777344 C 13.433594 29.601562 12.257812 29.382812 11.136719 29.113281 C 11.453125 28.027344 11.847656 26.910156 12.292969 25.792969 C 12.644531 26.464844 13.011719 27.136719 13.414062 27.808594 C 13.816406 28.480469 14.226562 29.136719 14.648438 29.777344 Z M 20.972656 12.28125 C 21.769531 13.085938 22.566406 13.988281 23.355469 14.96875 C 22.582031 14.9375 21.796875 14.910156 21 14.910156 C 20.195312 14.910156 19.398438 14.929688 18.621094 14.96875 C 19.390625 13.988281 20.1875 13.085938 20.972656 12.28125 Z M 14.640625 17.230469 C 14.21875 17.878906 13.800781 18.542969 13.40625 19.226562 C 13.011719 19.898438 12.644531 20.570312 12.292969 21.242188 C 11.832031 20.117188 11.4375 18.988281 11.113281 17.894531 C 12.234375 17.636719 13.414062 17.410156 14.640625 17.230469 Z M 6.890625 27.757812 C 3.859375 26.488281 1.902344 24.824219 1.902344 23.503906 C 1.902344 22.183594 3.859375 20.511719 6.890625 19.25 C 7.628906 18.9375 8.433594 18.660156 9.261719 18.402344 C 9.75 20.046875 10.394531 21.765625 11.1875 23.519531 C 10.402344 25.269531 9.769531 26.976562 9.289062 28.617188 C 8.441406 28.355469 7.636719 28.070312 6.890625 27.757812 Z M 11.496094 39.773438 C 10.332031 39.117188 9.828125 36.621094 10.222656 33.410156 C 10.316406 32.617188 10.46875 31.785156 10.660156 30.9375 C 12.335938 31.339844 14.167969 31.652344 16.09375 31.851562 C 17.25 33.410156 18.449219 34.820312 19.65625 36.054688 C 16.863281 38.605469 14.246094 40 12.464844 40 C 12.078125 39.992188 11.753906 39.914062 11.496094 39.773438 Z M 31.804688 33.367188 C 32.207031 36.578125 31.710938 39.074219 30.554688 39.738281 C 30.296875 39.890625 29.964844 39.957031 29.570312 39.957031 C 27.796875 39.957031 25.167969 38.570312 22.378906 36.039062 C 23.578125 34.804688 24.773438 33.398438 25.914062 31.84375 C 27.847656 31.644531 29.679688 31.332031 31.359375 30.917969 C 31.554688 31.769531 31.710938 32.585938 31.804688 33.367188 Z M 35.101562 27.757812 C 34.363281 28.070312 33.558594 28.347656 32.726562 28.609375 C 32.242188 26.960938 31.597656 25.246094 30.800781 23.488281 C 31.589844 21.738281 32.222656 20.03125 32.703125 18.390625 C 33.550781 18.652344 34.355469 18.9375 35.109375 19.25 C 38.140625 20.519531 40.097656 22.183594 40.097656 23.503906 C 40.089844 24.824219 38.128906 26.496094 35.101562 27.757812 Z M 35.101562 27.757812 "/>
<path style=" stroke:none;fill-rule:nonzero;fill:rgb(38.039216%,85.490196%,98.431373%);fill-opacity:1;" d="M 24.902344 23.503906 C 24.902344 25.625 23.152344 27.347656 20.992188 27.347656 C 18.832031 27.347656 17.078125 25.625 17.078125 23.503906 C 17.078125 21.382812 18.832031 19.660156 20.992188 19.660156 C 23.152344 19.660156 24.902344 21.382812 24.902344 23.503906 Z M 24.902344 23.503906 "/>
</g>
</svg>
