<svg width="50" height="50" viewBox="0 0 50 50" fill="none" xmlns="http://www.w3.org/2000/svg">
<path fill-rule="evenodd" clip-rule="evenodd" d="M1.7998 1C1.3198 1 1 1.3198 1 1.7998V11.3998C1 11.8798 1.3198 12.1996 1.7998 12.1996H6.5998C7.0798 12.1996 7.3996 11.8798 7.3996 11.3998V7.4002H42.5998V11.4004C42.5998 11.8804 42.9196 12.2002 43.5598 12.2002H48.1996C48.6796 12.2002 48.9994 11.8804 48.9994 11.4004V6.6004V1.8004C49 1.3198 48.6802 1 48.2002 1H1.7998ZM48.2002 49C48.6802 49 49 48.6802 49 48.2002V38.7604C49 38.2804 48.6802 37.9606 48.2002 37.9606H43.5604C43.0804 37.9606 42.7606 38.2804 42.7606 38.7604V42.6004H7.4002V38.6002C7.4002 38.1202 7.0804 37.8004 6.4402 37.8004H1.7998C1.3198 37.8004 1 38.1202 1 38.7604V48.2002C1 48.6802 1.3198 49 1.7998 49H48.2002Z" fill="#0072C6"/>
<path fill-rule="evenodd" clip-rule="evenodd" d="M29.6626 26.0543C29.0517 26.6685 28.3251 27.1554 27.5247 27.4869C26.7244 27.8185 25.8663 27.988 25 27.9857C24.1335 27.9881 23.2752 27.8187 22.4746 27.4872C21.6741 27.1557 20.9473 26.6686 20.3362 26.0543L11.3998 17.1179V35.2841H38.5996V17.1167L29.6626 26.0543ZM25 26.6591C25.692 26.6611 26.3776 26.5258 27.017 26.261C27.6563 25.9962 28.2368 25.6072 28.7248 25.1165L38.5996 15.2417V14.7185H11.3998V15.2423L21.2746 25.1153C22.27 26.1107 23.5924 26.6591 25 26.6591Z" fill="#59B4D9"/>
</svg>
