<svg width="50" height="50" viewBox="0 0 50 50" fill="none" xmlns="http://www.w3.org/2000/svg">
<path d="M37.6473 1H12.3527C6.0828 1 1 6.0828 1 12.3527V37.6472C1 43.9172 6.0828 49 12.3527 49H37.6473C43.9172 49 49 43.9172 49 37.6472V12.3527C49 6.0828 43.9172 1 37.6473 1Z" fill="url(#paint0_linear_1815_3546)"/>
<path d="M15.0672 21.9004L16.4958 19.9316L27.7301 28.0855L26.3015 30.0543L15.0672 21.9004ZM22.2803 21.9004L23.7089 19.9316L34.9432 28.0855L33.5146 30.0543L22.2803 21.9004ZM25.0087 9.85425C19.0804 9.85425 14.2365 13.4652 14.0452 17.9585L14.0393 18.3287H16.4784V18.2347C16.4784 14.9556 20.3115 12.2865 25.0157 12.2865C29.7198 12.2865 33.5529 14.9556 33.5529 18.2347V18.3287H35.992V18.2347C35.9782 13.6141 31.0579 9.85425 25.0087 9.85425ZM33.5285 31.7618C33.5285 35.0407 29.6954 37.7099 24.9877 37.7099C20.2802 37.7099 16.4505 35.0407 16.4505 31.7618V31.6677H14.0114V31.7618C14.0114 36.3823 18.9315 40.1422 24.9808 40.1422C30.909 40.1422 35.753 36.5312 35.9444 32.038L35.9503 31.6677H33.511L33.5285 31.7618Z" fill="white"/>
<defs>
<linearGradient id="paint0_linear_1815_3546" x1="4351.83" y1="497.176" x2="603.074" y2="4245.59" gradientUnits="userSpaceOnUse">
<stop stop-color="#21D4FD"/>
<stop offset="0.03" stop-color="#27CDFC"/>
<stop offset="0.23" stop-color="#4E9CF4"/>
<stop offset="0.43" stop-color="#6E73EE"/>
<stop offset="0.61" stop-color="#8753E9"/>
<stop offset="0.77" stop-color="#993CE5"/>
<stop offset="0.9" stop-color="#A42EE3"/>
<stop offset="1" stop-color="#A829E2"/>
</linearGradient>
</defs>
</svg>
