<svg width="48" height="48" viewBox="0 0 48 48" fill="none" xmlns="http://www.w3.org/2000/svg">
    <path d="M24 9V3M24 3L28.5 2.5M24 3L19.5 3.5" stroke="#40404B" stroke-width="1.5"
        stroke-linecap="round" />
    <path
        d="M4 20.198C4 15.4312 7.3646 11.3271 12.0388 10.3922L14.1942 9.96116C20.6673 8.66654 27.3327 8.66654 33.8058 9.96116L35.9612 10.3922C40.6354 11.3271 44 15.4312 44 20.198V34.802C44 39.5688 40.6354 43.6729 35.9612 44.6078L33.8058 45.0388C27.3327 46.3335 20.6673 46.3335 14.1942 45.0388L12.0388 44.6078C7.3646 43.6729 4 39.5688 4 34.802V20.198Z"
        fill="#F0F1F4" />
    <path
        d="M7 21.015C7 17.3942 9.51006 14.2573 13.0426 13.4632C20.2575 11.8413 27.7425 11.8413 34.9574 13.4632C38.4899 14.2573 41 17.3942 41 21.015V23.985C41 27.6058 38.4899 30.7427 34.9574 31.5368C27.7425 33.1587 20.2575 33.1587 13.0426 31.5368C9.51005 30.7427 7 27.6058 7 23.985V21.015Z"
        fill="#A6B3FF" />
    <rect x="15" y="19" width="4" height="6" rx="2" fill="white" />
    <rect x="29" y="19" width="4" height="6" rx="2" fill="white" />
    <path d="M26.5 40.5C29 40.6667 34.5 40.3 36.5 37.5" stroke="#40404B" stroke-width="1.5"
        stroke-linecap="round" />
</svg>
    