<svg width="50" height="50" viewBox="0 0 50 50" fill="none" xmlns="http://www.w3.org/2000/svg">
<path d="M17.5718 19.8085C19.5927 19.8085 21.2346 20.8873 22.0766 22.7608L22.1398 22.9082L25.5289 21.7556L25.4605 21.582C24.1501 18.3823 21.1241 16.3983 17.5718 16.3983C15.0721 16.3983 13.0407 17.1982 11.3619 18.8454C9.6937 20.4821 8.85168 22.5398 8.85168 24.9606C8.85168 27.3656 9.69896 29.4127 11.3619 31.0441C13.0407 32.6913 15.0721 33.4913 17.5718 33.4913C21.1241 33.4913 24.1448 31.502 25.4605 28.3076L25.5289 28.1339L22.1345 26.9814L22.0766 27.134C21.3188 28.9812 19.6348 30.0811 17.5718 30.0811C16.1667 30.0811 14.9774 29.5917 14.0406 28.6233C13.0881 27.6445 12.6092 26.4078 12.6092 24.9606C12.6092 23.5028 13.0776 22.2924 14.0406 21.2662C14.9826 20.2979 16.1667 19.8085 17.5718 19.8085Z" fill="#1B1E2E"/>
<path d="M32.2861 48.8369L31.2757 45.5057C40.3905 42.7376 46.5162 34.4805 46.5162 24.9605C46.5162 22.3345 46.0478 19.7663 45.1216 17.335L48.3739 16.0983C49.4527 18.9295 50 21.9082 50 24.9658C49.9947 36.0225 42.8797 45.6162 32.2861 48.8369Z" fill="url(#paint0_linear_1875_3413)"/>
<path d="M45.5742 18.6665C42.7902 9.5832 34.5227 3.48384 24.9974 3.48384C23.7028 3.48384 22.4082 3.59962 21.1451 3.82591L20.5294 0.399958C21.9924 0.136828 23.4975 0 24.9974 0C36.0594 0 45.6636 7.08873 48.9001 17.6402L45.5742 18.6665Z" fill="#69D3A7"/>
<path d="M1.59983 33.7596C0.536786 30.9494 0 27.9866 0 24.9606C0 12.0672 9.67793 1.38937 22.5134 0.126343L22.8555 3.58914C11.8093 4.67849 3.47858 13.867 3.47858 24.9606C3.47858 27.5656 3.94169 30.1179 4.85212 32.5335L1.59983 33.7596Z" fill="url(#paint1_linear_1875_3413)"/>
<path d="M38.7959 16.714L33.9701 28.9443L29.1075 16.714H25.1289L31.9493 33.407L26.9814 45.4583L30.46 46.153L42.5534 16.714H38.7959Z" fill="#1B1E2E"/>
<path d="M27.6076 43.9428L26.8761 45.7162C26.7077 46.1215 26.3235 46.4004 25.892 46.4162C25.592 46.4267 25.2973 46.4372 24.9921 46.4372C15.4405 46.4372 6.9361 40.0432 4.31006 30.8862L0.963043 31.844C4.01535 42.4797 13.8933 49.9105 24.9868 49.9158H24.9921C25.3394 49.9158 25.6868 49.9105 26.0341 49.8948C27.8181 49.8211 29.4127 48.7001 30.0968 47.0424L31.0862 44.6374L27.6076 43.9428Z" fill="url(#paint2_linear_1875_3413)"/>
<defs>
<linearGradient id="paint0_linear_1875_3413" x1="51.9151" y1="25.1185" x2="29.5953" y2="39.5697" gradientUnits="userSpaceOnUse">
<stop offset="0.0814251" stop-color="#69D3A7"/>
<stop offset="1" stop-color="#69D3A7" stop-opacity="0"/>
</linearGradient>
<linearGradient id="paint1_linear_1875_3413" x1="16.6763" y1="0.315607" x2="2.65423" y2="30.0549" gradientUnits="userSpaceOnUse">
<stop stop-color="#69D3A7"/>
<stop offset="0.8232" stop-color="#2AB586"/>
<stop offset="1" stop-color="#1CAE7F"/>
</linearGradient>
<linearGradient id="paint2_linear_1875_3413" x1="-0.035357" y1="36.3882" x2="36.7326" y2="47.9274" gradientUnits="userSpaceOnUse">
<stop offset="0.0773521" stop-color="#1CAE7F"/>
<stop offset="0.1638" stop-color="#1CA379"/>
<stop offset="0.3161" stop-color="#1C8568"/>
<stop offset="0.5165" stop-color="#1B554D"/>
<stop offset="0.7187" stop-color="#1B1E2E"/>
</linearGradient>
</defs>
</svg>
