<svg width="50" height="50" viewBox="0 0 50 50" fill="none" xmlns="http://www.w3.org/2000/svg">
<path d="M14.9415 42.4174C13.0368 40.9192 11.0049 39.4828 9.61647 37.4602C6.69496 33.8934 4.44553 29.7638 2.90773 25.424C1.97824 22.6021 1.6599 19.5767 0.461657 16.8639C-0.791825 14.8935 0.676458 12.7396 2.83474 12.1133C3.79565 11.9288 5.48524 11.0225 3.44574 11.6703C1.61726 13.0118 1.4403 10.4526 3.31526 10.2905C4.59483 10.1204 5.06587 9.07293 4.6283 8.12995C3.25475 7.23423 7.95896 6.24983 5.59199 4.9133C3.12625 2.25304 9.04104 1.74093 7.58177 4.76218C7.23247 7.08539 11.7148 4.33638 10.6748 7.01918C11.7318 8.30756 14.6331 7.31242 14.5612 9.11989C16.101 9.22574 16.6295 10.5214 18.075 10.6208C19.5731 11.2974 22.289 11.8305 22.7988 13.5187C21.3124 14.6954 17.8707 11.0881 17.7053 14.3454C18.1543 19.1571 18.0399 24.1138 19.8004 28.696C20.6331 31.4705 22.6518 33.6546 24.4748 35.8156C26.2191 37.9319 28.5818 39.4218 30.99 40.6763C33.1025 41.6726 35.3801 42.3333 37.6823 42.748C38.6161 42.0337 40.2647 39.3783 41.7215 40.498C41.7906 41.7562 38.8301 43.1281 41.5822 42.989C43.1982 42.5015 44.319 44.2388 45.6497 42.6718C46.8757 44.124 50.7455 41.7439 49.8732 44.7123C48.6936 45.4733 46.9733 45.0134 45.7917 46.0603C43.8437 45.0874 42.2929 46.9309 40.1363 46.6978C37.7413 47.1268 35.3048 47.2999 32.8767 47.3037C28.8932 46.9889 24.8254 46.8563 21.0358 45.4694C18.9011 44.849 16.8178 43.6335 14.9415 42.4174ZM18.3057 43.875C20.3903 44.7765 22.4286 45.7266 24.7131 46.0132C28.3375 46.5173 32.0804 47.2927 35.7178 46.5854C34.0716 45.842 32.3696 46.875 30.7296 46.0538C28.7626 46.4771 26.6517 45.946 24.652 45.6845C22.378 44.6716 19.9239 43.9751 17.7944 42.6603C15.1335 41.6884 19.1706 43.9067 19.8892 44.0864C21.5526 45.0305 18.06 43.6024 17.5676 43.2099C16.1744 42.4284 15.9969 42.5917 17.4296 43.3854C17.7182 43.5543 18.0034 43.7312 18.3057 43.875ZM14.3392 41.0719C16.3592 41.8201 14.3303 39.6514 13.4047 39.7774C12.9946 39.0659 11.8378 38.6165 12.6538 38.2343C11.186 38.7438 11.1163 36.2966 10.4263 36.6462C8.87357 36.1559 9.822 34.419 7.97238 33.3524C7.80355 32.2285 6.13471 31.2536 5.60242 29.5584C5.36733 28.6904 3.71699 26.1979 4.7308 28.5175C5.594 30.7506 7.11275 32.663 8.37663 34.5732C9.35804 36.3919 10.5169 38.2926 12.3042 39.4272C12.9067 40.0052 13.4884 40.8907 14.3392 41.0719ZM8.52007 34.6829C8.59058 34.3779 8.88951 35.3432 8.52007 34.6829V34.6829ZM16.7583 41.9688C16.1151 41.7165 17.2056 41.7685 16.7583 41.9688V41.9688ZM17.8549 42.3688C17.3543 42.6776 17.7413 41.8165 17.8549 42.3688V42.3688ZM19.2274 42.9413C18.2204 42.549 19.8809 42.3192 19.2274 42.9413V42.9413ZM21.5799 44.2525C20.309 44.031 21.977 43.6656 21.5799 44.2525V44.2525ZM17.0625 41.1035C15.7516 41.0944 18.0775 40.4469 17.0625 41.1035V41.1035ZM18.0922 41.6169C17.7252 41.7723 18.0634 41.2698 18.0922 41.6169V41.6169ZM23.2384 44.8289C24.0656 45.351 28.0693 45.9732 25.5623 45.043C25.1428 45.1314 20.9136 43.8467 23.2384 44.8289ZM15.0686 38.4661C13.7845 38.0817 14.9882 38.118 15.0686 38.4661V38.4661ZM17.4644 39.8623C16.1703 39.5269 18.0879 39.4275 17.4644 39.8623V39.8623ZM19.4795 41.0979C18.0281 40.759 20.3742 40.7606 19.4795 41.0979V41.0979ZM14.0938 37.4044C15.0646 38.1488 18.0088 37.4998 15.5805 36.9599C14.4752 36.3708 11.9843 35.9675 13.6822 37.3152L14.0938 37.4044ZM20.8444 41.5245C19.1487 41.1311 21.2487 40.8356 20.8444 41.5245V41.5245ZM18.7931 39.8942C21.1668 40.5657 16.797 38.3931 18.2074 39.6472L18.52 39.7886L18.7931 39.8942ZM22.9058 42.2713C20.8753 41.9614 25.1538 42.2927 22.9058 42.2713V42.2713ZM13.2288 36.1037C12.6741 36.1388 13.141 35.685 13.2288 36.1037V36.1037ZM26.7085 44.4044C25.9749 44.9672 26.7685 43.6481 26.7085 44.4044V44.4044ZM17.0652 38.4531C16.3628 38.4368 16.9292 38.0548 17.0652 38.4531V38.4531ZM13.442 35.841C11.6751 35.2723 14.7326 35.7635 13.442 35.841V35.841ZM9.14986 33.0666C7.74548 31.9544 8.98923 32.4479 9.14986 33.0666V33.0666ZM20.4178 40.2175C20.1814 39.9479 20.3066 40.2765 20.4178 40.2175V40.2175ZM27.4313 44.5215C27.0494 44.6774 27.4088 44.1095 27.4313 44.5215V44.5215ZM19.7971 39.5766C18.6966 39.4159 19.9233 39.0458 19.7971 39.5766V39.5766ZM14.5721 36.2652C13.034 35.6161 15.5323 36.1624 14.5721 36.2652V36.2652ZM23.4107 41.7573C21.9523 41.4679 24.9069 41.1645 23.4107 41.7573V41.7573ZM18.8132 38.6364C20.5376 38.8588 16.7614 37.4635 18.4349 38.5116L18.8132 38.6364ZM24.8064 42.3215C26.4163 41.359 25.8856 44.5753 27.5378 42.5932C29.1675 41.4032 26.1303 44.0644 28.1389 42.8054C29.5915 41.8338 31.7371 43.2659 33.0925 43.7332C34.0673 43.6853 35.0148 44.576 36.0141 44.0341C37.9377 43.516 32.2526 43.2657 33.7428 42.3465C31.9828 42.8587 30.6823 41.7358 29.8162 40.6084C27.8419 40.1525 25.5592 39.1431 24.5739 37.3959C24.1721 36.7399 25.1542 37.4883 24.2271 36.416C23.0374 35.3578 22.4433 34.1567 21.6447 32.8704C20.6907 32.3615 20.5795 30.8634 20.4831 32.8202C20.4906 31.5852 19.3312 30.754 19.0482 31.0995C19.0431 29.9101 20.289 30.5063 19.4168 29.6263C19.2291 28.3936 18.611 27.109 18.4252 25.7172C18.1365 25.0463 18.3845 23.6094 17.44 25.1281C17.0959 26.7333 17.3258 23.1556 17.8609 24.3354C18.5633 23.1315 17.6087 23.2731 17.5696 23.4403C18.0272 22.4246 17.8592 20.9838 17.4503 21.5334C17.6941 20.4569 17.8354 17.5714 17.0853 18.0828C17.54 16.957 17.9476 12.9315 15.9738 14.4663C15.1739 14.4775 13.7886 14.7567 13.1338 15.0824C15.1869 16.2141 12.9272 15.4911 12.0915 15.3112C11.9826 16.3584 11.1548 15.9055 10.1206 15.9158C11.7724 16.1201 9.3162 17.6052 8.3686 17.0283C7.13792 17.6165 9.4307 19.0847 8.39329 19.5387C8.52078 20.2231 6.50789 19.2915 6.66597 20.872C5.47122 20.3694 6.50146 22.7469 7.09919 21.9428C9.13124 22.4928 8.52971 23.7467 8.58145 24.9377C8.25036 25.6317 6.94682 23.3064 8.29113 23.4141C7.23057 21.6912 7.11797 22.7913 6.23667 23.5917C6.03165 23.6498 8.48465 24.7305 6.94526 25.2648C8.2996 25.4738 8.33813 26.659 8.61384 27.4089C9.42788 28.2568 9.26127 26.4727 10.2353 27.4917C9.61892 26.5839 6.97051 24.934 9.10283 25.4632C9.09144 24.5495 8.71719 23.8128 9.37047 23.8307C10.0174 22.6591 8.69292 26.7194 10.1512 25.2304C10.5548 25.0541 10.6548 24.0573 11.3804 25.3245C12.4342 26.3613 11.761 27.1125 10.2745 26.1632C10.5404 27.0655 12.2631 27.3879 11.9394 28.7988C12.2826 30.0398 12.7628 29.5827 13.1813 29.511C13.5096 30.7167 13.6961 29.8301 13.7116 29.2563C15.2149 29.5781 14.8628 30.4668 15.3332 31.0876C16.3691 31.5552 13.8505 27.9182 15.6289 29.994C17.5 31.6833 16.3306 32.3885 14.6515 32.1179C15.7142 32.032 16.057 33.5547 17.3863 33.5012C18.5985 34.0779 19.4193 36.2928 17.3298 35.3708C16.605 34.7173 14.0404 33.9112 16.1351 35.1541C18.0698 36.05 19.6064 36.586 21.4723 37.7106C22.8076 38.6639 23.3846 39.7558 23.8907 39.9719C22.7684 40.508 20.5085 39.5439 22.1866 39.2484C21.1399 39.0577 19.9626 38.5284 20.9652 39.8325C21.8177 40.5443 23.9855 40.4689 24.3741 40.5496C24.0447 41.2754 23.4794 41.3331 24.3876 41.3894C23.3743 41.9293 24.7125 42.013 24.8064 42.3215ZM22.7344 36.4704C22.118 35.8257 21.9586 34.6181 22.625 35.6689C22.9667 35.8061 23.7196 37.6422 22.7344 36.4704ZM29.482 40.7566C29.4932 41.0487 29.8665 40.7317 29.482 40.7566V40.7566ZM21.7611 34.8896C21.7374 33.9149 21.984 35.6414 21.7611 34.8896V34.8896ZM21.0904 33.9873C20.315 32.4891 22.0679 34.4116 21.0904 33.9873V33.9873ZM12.9635 28.3781C13.1876 29.1572 13.419 28.2566 12.9635 28.3781V28.3781ZM19.4315 31.884C19.7113 30.8334 19.7603 32.7655 19.4315 31.884V31.884ZM14.8621 28.7067C14.5399 28.1269 15.5358 29.2504 14.8621 28.7067V28.7067ZM18.7836 29.9638C18.049 28.318 19.3037 29.0648 18.9461 30.2335L18.7836 29.9638ZM12.0209 25.4537C11.6924 24.9138 11.1492 23.3295 11.3241 22.8458C11.4823 23.6335 12.9991 26.2356 12.0681 23.9237C11.0393 21.9858 13.2979 24.5528 13.5303 25.0361C13.6384 25.517 12.8955 24.9048 13.3989 26.0322C12.4809 24.7486 12.8569 26.7413 12.0209 25.4537ZM9.9308 24.0135C10.0168 22.7581 10.4093 24.8744 9.9308 24.0135V24.0135ZM10.8709 24.3372C11.3196 23.3896 11.6316 25.6582 10.8709 24.3372V24.3372ZM8.60943 22.5877C7.83129 21.8145 7.26818 21.1017 8.64583 22.1078C9.17667 22.1285 7.46645 20.4869 8.77367 21.5865C10.1483 21.8371 9.45245 23.8403 8.60943 22.5877ZM9.79737 22.5566C10.0373 22.9975 10.2493 22.1088 9.79737 22.5566V22.5566ZM10.5283 22.791C9.84325 21.5069 11.3598 23.3293 10.5283 22.791V22.791ZM9.07523 21.4023C6.81312 19.3892 11.9177 22.455 9.44479 21.7755L9.07523 21.4023ZM15.5565 25.1681C14.5776 24.5811 15.2971 21.0361 15.6309 23.4606C16.5826 23.1528 15.5784 24.7128 16.2882 24.6984C16.1763 25.6826 15.8588 26.0365 15.5565 25.1681ZM17.9538 26.5849C18.0498 25.5165 18.1558 27.3154 17.9538 26.5849V26.5849ZM17.5374 26.1735C17.5485 26.711 17.6452 25.7171 17.5374 26.1735V26.1735ZM9.51898 20.7408C8.06572 18.7358 13.7425 22.769 10.4498 21.2494C10.1057 21.1594 9.6917 21.1272 9.51898 20.7408ZM14.1353 23.1884C13.9978 21.5001 14.4425 23.4682 14.1353 23.1884V23.1884ZM17.6402 25.4367C17.6604 26.0729 17.9114 24.475 17.6402 25.4367V25.4367ZM9.7416 19.9756C10.6053 19.7908 13.321 21.4925 10.8271 20.4616C10.55 20.1549 9.95933 20.2943 9.7416 19.9756ZM17.1587 23.6723C17.251 21.946 17.6743 22.6411 17.1618 23.9194L17.1587 23.6723ZM10.3845 19.3749C10.7365 18.8587 9.45034 17.0409 10.5699 18.7229C11.0537 19.1072 11.9706 19.3668 11.1611 19.5285C12.4343 20.6517 10.8505 19.8329 10.3845 19.3749ZM16.7918 23.133C17.0062 24.2852 17.0349 21.1665 16.7918 23.133V23.133ZM9.64954 17.5585C9.79151 17.9167 9.91835 17.4437 9.64954 17.5585V17.5585ZM11.3208 18.5533C11.7509 17.6508 12.1143 19.5598 11.3208 18.5533V18.5533ZM16.0351 21.1758C16.0306 20.8292 16.1241 21.68 16.0351 21.1758V21.1758ZM15.762 20.5712C15.1077 18.9569 16.3707 21.4259 15.762 20.5712V20.5712ZM15.3603 19.5128C15.2504 18.8458 15.7336 20.3508 15.3603 19.5128V19.5128ZM16.0141 18.45C15.5651 17.6587 16.5811 14.9631 16.6945 16.6349C16.2206 17.9375 16.5578 18.6662 16.8884 16.919C17.4989 15.544 16.7565 19.6325 16.0141 18.45ZM16.686 14.4411C16.7295 14.7307 16.8818 14.2007 16.686 14.4411V14.4411ZM15.5639 36.5521C15.2978 36.3198 15.5974 36.6999 15.5639 36.5521V36.5521ZM17.8756 37.7214C19.1614 38.0513 19.1548 37.5213 17.9927 37.3639C17.3676 36.7824 15.3952 36.1656 17.1606 37.2917C17.2775 37.5879 17.647 37.581 17.8756 37.7214ZM13.3102 34.6891C14.0186 35.2174 15.9784 36.1862 14.3193 34.8902C14.8787 34.2403 13.2487 33.8944 13.7894 33.4596C12.4141 32.618 12.7045 32.6929 13.668 32.7194C12.0151 31.9806 13.9066 32.0358 13.8175 31.6573C13.1802 31.5314 10.6518 30.5334 12.1392 31.7392C10.6272 30.9683 11.7789 32.0264 11.3219 31.9146C9.77571 31.493 12.6989 33.0922 11.0763 32.6952C11.9634 33.3981 13.464 34.4958 11.4514 33.4391C11.1862 33.8208 12.8916 34.3994 13.3102 34.6891ZM15.7279 36.0781C14.2866 34.9207 18.6675 37.0253 15.7279 36.0781V36.0781ZM28.104 43.5756C27.7023 44.0731 28.142 42.9924 28.104 43.5756V43.5756ZM29.3761 44.1109C30.0543 43.4537 29.4038 45.1578 30.4999 43.95C30.5118 43.0855 30.4662 42.5748 29.2403 43.625C28.9024 43.8124 28.7515 44.6093 29.3761 44.1109ZM9.18387 31.4298C7.72384 30.6153 8.97557 30.611 9.18387 31.4298V31.4298ZM10.5422 32.3199C8.74248 31.5628 10.0378 31.4836 10.5422 32.3199V32.3199ZM18.2696 36.9802C19.024 37.6503 21.7347 37.4719 19.1859 37.0626C18.8084 36.5045 16.7889 36.6388 18.2696 36.9802ZM28.8923 43.5405C27.7672 43.9752 30.0534 42.5662 28.8923 43.5405V43.5405ZM31.3072 45.2001C30.8067 45.337 31.3145 44.8874 31.3072 45.2001V45.2001ZM31.3109 44.7623C30.065 44.8429 32.5968 43.3999 31.3109 44.7623V44.7623ZM5.84304 28.6329C4.74711 27.0693 5.16178 26.3664 4.10493 25.0896C3.90485 24.1133 2.29186 21.8977 3.27065 24.2449C4.16717 25.6177 4.43357 27.7431 5.84304 28.6329ZM30.9076 44.3292C29.9366 43.6632 33.2733 42.8002 30.9076 44.3292V44.3292ZM32.7135 45.0367C31.9641 44.8239 33.8981 44.0195 32.7135 45.0367V45.0367ZM8.78125 29.7014C7.90563 29.6369 9.12029 29.197 8.78125 29.7014V29.7014ZM32.3364 44.5537C33.4834 43.8141 32.0721 43.9276 32.1285 44.6217L32.3364 44.5537ZM16.7698 34.742C16.1641 34.7844 16.7304 34.2426 16.7698 34.742V34.742ZM17.7318 35.2955C17.2618 35.3926 17.4261 34.6774 17.7318 35.2955V35.2955ZM34.1769 45.0534C35.6464 43.9934 33.2861 44.8505 33.8685 45.2543L34.1769 45.0534ZM33.6142 44.7815C32.3504 45.226 34.8113 43.7784 33.6142 44.7815V44.7815ZM36.4892 46.6961C35.5127 46.5219 37.2929 46.1577 36.4892 46.6961V46.6961ZM9.51837 29.3377C10.5957 29.5791 13.8238 31.991 11.9194 29.5045C10.944 29.2158 11.529 26.8316 10.5341 27.2536C11.2018 28.3691 11.0835 28.8439 9.68148 28.1406C7.91939 27.2805 8.69124 28.5669 9.03561 28.9214C8.56632 29.0281 9.65636 29.3287 9.51837 29.3377ZM4.60992 25.4613C4.8028 24.6635 2.83396 21.0726 3.68021 23.662C3.98568 24.2044 3.95462 25.2323 4.60992 25.4613ZM13.619 31.0156C13.0643 30.5516 13.5927 30.9499 13.619 31.0156V31.0156ZM14.9852 31.3335C13.4751 30.9904 14.9845 30.4885 14.9852 31.3335V31.3335ZM26.8239 38.7967C25.9313 38.7833 26.5981 38.2194 26.8239 38.7967V38.7967ZM27.3924 39.212C27.0644 39.2744 27.3084 38.8889 27.3924 39.212V39.212ZM32.0848 42.1677C31.5217 42.1251 32.5362 41.8343 32.0848 42.1677V42.1677ZM7.06173 26.0872C5.67865 25.7308 8.3526 25.5874 7.06173 26.0872V26.0872ZM25.7817 37.8809C24.9587 38.0882 25.7673 37.0452 25.7817 37.8809V37.8809ZM6.5517 24.8987C5.78463 24.7142 7.3809 24.6186 6.5517 24.8987V24.8987ZM8.95848 26.0646C8.70389 26.1685 8.94344 25.7899 8.95848 26.0646V26.0646ZM38.314 44.0658C39.3802 43.8496 41.81 44.6085 42.2028 43.783C40.9079 43.7516 37.7229 42.8695 37.5722 43.9936L37.8557 44.0382L38.314 44.0658ZM9.72341 26.2573C9.06305 26.2257 9.74195 25.4105 9.72341 26.2573V26.2573ZM3.39539 21.8677C2.30238 21.6235 3.10801 20.2543 3.39539 21.8677V21.8677ZM4.9044 22.247C3.5232 21.7808 4.92293 21.7289 4.9044 22.247V22.247ZM5.76675 22.6705C5.51747 22.4686 5.57163 22.9256 5.76675 22.6705V22.6705ZM11.1928 26.1514C10.588 25.9775 11.4482 25.9167 11.1928 26.1514V26.1514ZM5.19238 21.7153C3.44462 21.5328 5.04653 20.4967 5.19238 21.7153V21.7153ZM2.09868 19.708C1.7972 19.9201 2.05468 19.1456 2.09868 19.708V19.708ZM2.55886 19.3605C2.16376 19.4453 2.48378 18.6936 2.55886 19.3605V19.3605ZM5.10145 20.8782C6.1766 20.4558 3.14307 20.0046 4.88177 20.7984L5.10145 20.8782ZM39.1301 41.8971C38.2555 41.702 39.8182 41.2662 39.1301 41.8971V41.8971ZM43.241 44.028C42.5466 44.1354 43.5167 43.2123 43.241 44.028V44.028ZM5.3613 19.5455C4.50893 19.7022 5.47456 18.7564 5.3613 19.5455V19.5455ZM1.74381 17.1218C1.54947 16.0078 1.57606 14.0524 3.43484 14.7132C0.953671 15.2058 5.15209 17.797 4.6219 15.7512C5.66518 15.8022 6.66279 15.1346 6.11529 16.1478C8.17085 15.9208 9.59593 14.1383 11.5815 14.3881C13.1281 14.1834 14.8191 14.0282 16.4858 13.4056C17.8562 13.3069 19.1753 11.8315 18.4242 10.957C16.5554 10.7989 14.5993 11.0327 12.5338 11.4433C10.245 11.9191 8.16593 12.8231 5.85657 13.2111C3.60559 13.5135 6.30934 14.0443 5.66457 14.1625C4.48997 14.5701 7.06536 14.8449 5.51229 15.2745C4.55314 15.0921 3.55479 14.7626 3.9645 13.7518C1.80826 14.0316 -0.0864561 14.9265 1.6171 17.1208L1.74381 17.1218ZM6.93955 14.4756C7.44512 12.6132 9.64809 16.0082 7.7682 14.723C7.54366 14.555 7.17437 14.4179 6.93955 14.4756ZM7.03791 13.5727C7.4258 13.8774 7.76758 13.0291 7.03791 13.5727V13.5727ZM7.96442 13.5874C8.03029 12.7304 10.0854 14.0411 8.30328 13.8959L7.96442 13.5874ZM9.23181 13.0778C9.36484 13.5588 9.69464 12.537 9.23181 13.0778V13.0778ZM9.55603 12.8607C10.3267 11.9347 13.9204 12.2697 11.2899 12.7704C10.5849 12.2396 10.0444 13.0834 9.55603 12.8607ZM14.2458 12.1378C14.1286 9.6084 16.5758 13.0366 14.2458 12.1378V12.1378ZM15.5766 12.1305C16.0631 10.8557 17.4645 11.6189 15.8017 11.8743C15.8378 12.01 15.7529 12.5324 15.5766 12.1305ZM4.83656 18.8911C3.29336 18.1189 6.2902 18.001 4.83656 18.8911V18.8911ZM5.91137 19.1898C4.80396 18.97 6.42103 18.6479 5.91137 19.1898V19.1898ZM2.74447 16.9422C1.76156 16.6996 3.57508 16.3042 2.74447 16.9422V16.9422ZM45.6675 43.7949C45.0326 44.1285 45.6915 43.0546 45.6675 43.7949V43.7949ZM41.306 40.8185C40.7455 40.8928 41.43 39.9662 41.306 40.8185V40.8185ZM46.8668 44.0819C48.0281 44.0858 50.3855 43.7212 47.8587 43.7224C47.4622 43.7842 45.5483 43.771 46.8668 44.0819ZM6.8568 18.6674C7.79667 18.6029 8.32727 17.6307 6.67503 17.6866C4.11435 17.4215 8.93428 18.5634 6.34654 18.2369C5.99883 18.4671 6.83661 18.7311 6.8568 18.6674ZM7.68455 19.0864C7.39391 19.4069 7.58642 18.4829 7.68455 19.0864V19.0864ZM8.66643 16.4682C8.10205 16.3329 9.07428 15.9623 8.66643 16.4682V16.4682ZM5.54073 11.2434C7.21809 10.6728 9.51187 10.0316 10.3039 11.5244C9.49784 10.5542 9.97858 9.59922 10.7399 11.0176C11.8164 12.4527 12.3553 10.3649 11.6551 9.88352C12.453 10.8749 13.3605 11.3434 12.1893 9.94618C13.462 8.41527 9.641 10.1467 8.77251 10.1292C8.35465 10.3168 4.45841 11.1229 5.54073 11.2434ZM6.52376 9.36071C7.48038 8.63869 9.83225 9.79019 8.32307 8.64315C8.17551 8.51282 5.01794 9.51297 6.52376 9.36071ZM10.0113 9.50469C11.1309 9.53326 9.52837 8.00064 10.8625 8.69512C10.6434 7.97932 9.3092 7.84531 8.65692 7.55933C8.288 8.21378 9.40786 9.51349 10.0113 9.50469ZM7.13529 6.33888C6.45648 6.60507 7.52261 5.81382 7.13529 6.33888V6.33888ZM8.56069 6.68005C10.3649 6.44075 8.10079 5.90307 8.19713 6.66082L8.56069 6.68005ZM5.89917 4.59747C4.62879 2.93911 8.28827 4.87624 6.99758 3.13988C5.91124 2.27483 4.86733 4.11335 5.89917 4.59747ZM22.2024 13.3789C22.785 12.3459 19.7968 11.9866 21.8098 13.0128C21.9951 13.0747 21.9532 13.4503 22.2024 13.3789Z" fill="black"/>
</svg>
