<svg width="50" height="50" viewBox="0 0 50 50" fill="none" xmlns="http://www.w3.org/2000/svg">
<path d="M3.77335 21.6562C3.67597 21.6562 3.65163 21.6075 3.70032 21.5345L4.21154 20.8772C4.26023 20.8042 4.38195 20.7555 4.47933 20.7555H13.1702C13.2676 20.7555 13.2919 20.8285 13.2432 20.9016L12.8294 21.5345C12.7807 21.6075 12.659 21.6806 12.5859 21.6806L3.77335 21.6562Z" fill="#00ACD7"/>
<path d="M0.0973768 23.8959C0 23.8959 -0.0243442 23.8472 0.0243442 23.7741L0.535572 23.1168C0.584261 23.0438 0.705982 22.9951 0.803358 22.9951H11.9043C12.0017 22.9951 12.0504 23.0681 12.026 23.1412L11.8313 23.7254C11.8069 23.8228 11.7096 23.8715 11.6122 23.8715L0.0973768 23.8959Z" fill="#00ACD7"/>
<path d="M5.98867 26.1356C5.8913 26.1356 5.86695 26.0626 5.91564 25.9895L6.25646 25.3809C6.30515 25.3079 6.40252 25.2349 6.4999 25.2349H11.3687C11.4661 25.2349 11.5148 25.3079 11.5148 25.4053L11.4661 25.9895C11.4661 26.0869 11.3687 26.1599 11.2957 26.1599L5.98867 26.1356Z" fill="#00ACD7"/>
<path d="M31.258 21.218C29.7243 21.6075 28.6775 21.8996 27.1681 22.2892C26.803 22.3865 26.7786 22.4109 26.4621 22.0457C26.097 21.6319 25.8292 21.3641 25.318 21.1206C23.7843 20.366 22.2993 20.5851 20.9117 21.4858C19.2563 22.5569 18.4042 24.1393 18.4286 26.1112C18.4529 28.0587 19.7918 29.6654 21.715 29.9332C23.3704 30.1523 24.7581 29.5681 25.8535 28.3265C26.0726 28.0587 26.2674 27.7666 26.5108 27.4258C25.6344 27.4258 24.539 27.4258 21.8124 27.4258C21.3012 27.4258 21.1795 27.1093 21.3499 26.6955C21.6663 25.9408 22.2506 24.6749 22.5914 24.0419C22.6645 23.8959 22.8349 23.6524 23.2 23.6524C24.4416 23.6524 29.0183 23.6524 32.0613 23.6524C32.0126 24.3097 32.0126 24.967 31.9152 25.6243C31.6475 27.3771 30.9902 28.9838 29.919 30.3958C28.1662 32.7085 25.8779 34.1448 22.9809 34.5343C20.5952 34.8507 18.3799 34.3882 16.4323 32.9276C14.6309 31.5643 13.6084 29.7628 13.3406 27.5232C13.0241 24.8696 13.8032 22.4839 15.4099 20.3903C17.1383 18.1263 19.4267 16.69 22.2263 16.1788C24.5146 15.7649 26.7056 16.0327 28.6775 17.3716C29.9677 18.2237 30.8928 19.3922 31.5014 20.8042C31.6475 21.0233 31.5501 21.145 31.258 21.218Z" fill="#00ACD7"/>
<path d="M39.3159 34.6804C37.1006 34.6317 35.08 33.9987 33.3759 32.5381C31.9396 31.2965 31.0389 29.7142 30.7467 27.8397C30.3085 25.0888 31.0632 22.6544 32.7186 20.4877C34.4957 18.1507 36.638 16.9335 39.535 16.4222C42.0181 15.9841 44.3551 16.2275 46.4731 17.6638C48.3963 18.9784 49.5891 20.7555 49.9056 23.0926C50.3195 26.379 49.37 29.0569 47.106 31.3452C45.4993 32.9763 43.5274 33.9987 41.2634 34.4613C40.6061 34.583 39.9488 34.6073 39.3159 34.6804ZM45.1098 24.8453C45.0855 24.5289 45.0855 24.2854 45.0368 24.042C44.5986 21.6319 42.3833 20.2686 40.0706 20.8042C37.8065 21.3154 36.3459 22.7517 35.8103 25.0401C35.3721 26.9389 36.2972 28.8621 38.05 29.6411C39.3889 30.2254 40.7278 30.1524 42.0181 29.4951C43.9413 28.497 44.9881 26.9389 45.1098 24.8453Z" fill="#00ACD7"/>
</svg>
