<svg width="50" height="50" viewBox="0 0 50 50" fill="none" xmlns="http://www.w3.org/2000/svg">
<path d="M42.75 1H7.25C3.79822 1 1 3.79822 1 7.25V42.75C1 46.2018 3.79822 49 7.25 49H42.75C46.2018 49 49 46.2018 49 42.75V7.25C49 3.79822 46.2018 1 42.75 1Z" fill="#2DA6B0"/>
<path d="M15.1967 24.5509L15.1899 25.5432C15.1899 26.9256 14.7314 28.0479 13.8144 28.9102C12.8973 29.7725 11.6997 30.2036 10.2284 30.2036C8.72284 30.2036 7.47733 29.7177 6.48503 28.7391C5.49273 27.7605 5 26.5423 5 25.0847C5 23.6476 5.49273 22.4431 6.47819 21.4645C7.46364 20.4859 8.68178 20 10.1394 20C11.296 20 12.2883 20.2806 13.1163 20.8486C13.9444 21.4166 14.5192 22.1352 14.8409 23.0043L13.0616 23.5107C12.5073 22.3815 11.5355 21.8135 10.1463 21.8135C9.20873 21.8135 8.44226 22.1283 7.84003 22.7648C7.23781 23.4012 6.9367 24.1745 6.9367 25.0847C6.9367 26.0222 7.24465 26.8092 7.86056 27.4525C8.47648 28.0958 9.31138 28.4175 10.3653 28.4175C11.1591 28.4175 11.8092 28.2053 12.3157 27.7879C12.8221 27.3704 13.1163 26.8435 13.2053 26.207H10.1873V24.5509H15.1967Z" fill="white"/>
<path d="M22.8272 30.0051L20.6099 26.5766H18.5227V30.012H16.6133V20.1985H21.3901C22.3961 20.1985 23.2104 20.5201 23.8263 21.1702C24.4423 21.8204 24.7502 22.5595 24.7502 23.3875C24.7502 24.0513 24.5586 24.6535 24.1822 25.201C23.8058 25.7485 23.2789 26.1386 22.6082 26.3781L25.0445 30.0051H22.8272ZM18.5227 21.923L18.5158 24.8931H21.26C21.7459 24.8931 22.136 24.7494 22.4371 24.4619C22.7382 24.1745 22.8888 23.8186 22.8888 23.3944C22.8888 22.9906 22.7451 22.6416 22.4508 22.3541C22.1565 22.0667 21.787 21.923 21.3353 21.923H18.5227Z" fill="white"/>
<path d="M30.9504 20.1916L30.9367 20.1985C31.9564 20.1985 32.7776 20.5475 33.4072 21.2455C34.0368 21.9435 34.3516 22.7305 34.3516 23.6065C34.3516 24.503 34.0368 25.2968 33.4072 25.9812C32.7776 26.6655 31.929 27.0077 30.8683 27.0077H28.2609V30.0051H26.3516V20.1916H30.9504ZM30.793 25.3037L30.7793 25.29C31.2789 25.29 31.6826 25.1189 31.9974 24.7836C32.3122 24.4482 32.4696 24.0582 32.4696 23.6133C32.4696 23.1685 32.3191 22.7784 32.018 22.4431C31.7169 22.1078 31.3405 21.9367 30.8819 21.9367H28.2472V25.3037H30.793Z" fill="white"/>
<path d="M40.2985 30.2036L40.278 30.2104C38.7998 30.2104 37.5748 29.7246 36.5962 28.7459C35.6176 27.7673 35.1317 26.5492 35.1317 25.0915C35.1317 23.6476 35.6176 22.4363 36.5962 21.4645C37.5748 20.4927 38.793 20.0068 40.2506 20.0068C41.4893 20.0068 42.5295 20.3216 43.3644 20.9512C44.1993 21.5808 44.7468 22.3268 45 23.1891L43.118 23.6476C42.947 23.1343 42.6048 22.6963 42.0915 22.3405C41.5783 21.9846 40.9692 21.8067 40.2575 21.8067C39.3131 21.8067 38.5466 22.1215 37.9649 22.7579C37.3832 23.3944 37.089 24.1677 37.089 25.0778C37.089 25.9949 37.3832 26.775 37.9718 27.4251C38.5603 28.0753 39.3199 28.3969 40.2575 28.3969C40.9692 28.3969 41.5851 28.219 42.0984 27.87C42.6116 27.521 42.9538 27.0898 43.1249 26.5766L44.9863 27.0556C44.7468 27.911 44.2062 28.6501 43.3713 29.2729C42.5364 29.8956 41.5098 30.2036 40.2985 30.2036Z" fill="white"/>
</svg>
