<svg width="50" height="50" viewBox="0 0 50 50" fill="none" xmlns="http://www.w3.org/2000/svg">
<path d="M42.75 5H7.25C3.79822 5 1 7.33185 1 10.2083V39.7917C1 42.6681 3.79822 45 7.25 45H42.75C46.2018 45 49 42.6681 49 39.7917V10.2083C49 7.33185 46.2018 5 42.75 5Z" fill="#4B65BE"/>
<path d="M41.4411 29.1559H47V31.1646H39.2533V20H41.4411V29.1559Z" fill="white"/>
<path d="M35.0958 20H37.1901V31.1646H35.0023V23.815L31.4443 28.7433L27.8941 23.815V31.1646H25.7063V20H27.7928L31.4443 25.2787L35.0958 20Z" fill="white"/>
<path d="M24.4372 20V21.9775H20.6923V31.1646H18.5046V21.9775H14.7597V20H24.4372Z" fill="white"/>
<path d="M11.2873 20H13.4907V31.1646H11.2873V26.4776H6.18776V31.1646H4V20H6.18776V24.5001H11.2873V20Z" fill="white"/>
</svg>
