<svg width="50" height="50" viewBox="0 0 50 50" fill="none" xmlns="http://www.w3.org/2000/svg">
<path d="M4.17175 45.0657C3.2541 45.0657 2.4494 45.0163 1.75764 44.9175C1.06588 44.8328 0.480001 44.7269 0 44.5998V39.1363C0.522353 39.2493 1.07294 39.3481 1.65176 39.4328C2.21646 39.5175 2.83763 39.5599 3.51528 39.5599C4.16469 39.5599 4.76469 39.4893 5.31527 39.3481C5.87998 39.2069 6.36703 38.9599 6.77644 38.6069C7.19997 38.2681 7.52467 37.8093 7.75056 37.2305C7.99055 36.6516 8.11055 35.9246 8.11055 35.0493V5H14.6752V34.8375C14.6752 36.6163 14.414 38.1481 13.8917 39.4328C13.3835 40.7175 12.6635 41.7763 11.7317 42.6093C10.8141 43.4563 9.71289 44.0775 8.4282 44.4728C7.14349 44.8681 5.72468 45.0657 4.17175 45.0657Z" fill="url(#paint0_linear_1875_3417)"/>
<path d="M30.6448 35.9599L23.8472 11.6706H23.6566C23.7413 12.9694 23.8119 14.2259 23.8683 15.44C23.8966 15.9623 23.9177 16.4988 23.9319 17.0494C23.9601 17.6 23.9813 18.1435 23.9954 18.6799C24.0236 19.2164 24.0377 19.7317 24.0377 20.2258C24.0519 20.72 24.0589 21.1647 24.0589 21.5599V35.9599H18.1931V5H27.1295L33.8212 28.6752H33.9483L41.0636 5H50V35.9599H43.88V21.3058C43.88 20.9388 43.88 20.5223 43.88 20.0564C43.8941 19.5905 43.9082 19.0964 43.9224 18.5741C43.9365 18.0517 43.9506 17.5223 43.9647 16.9858C43.9929 16.4494 44.0141 15.927 44.0283 15.4188C44.0847 14.2329 44.1341 12.9976 44.1765 11.7129H44.0071L36.68 35.9599H30.6448Z" fill="black"/>
<defs>
<linearGradient id="paint0_linear_1875_3417" x1="1169.75" y1="-1824.82" x2="1175.95" y2="-1838.12" gradientUnits="userSpaceOnUse">
<stop stop-color="#F69923"/>
<stop offset="0.3123" stop-color="#F79A23"/>
<stop offset="0.8383" stop-color="#E97826"/>
</linearGradient>
</defs>
</svg>
