<svg width="50" height="50" viewBox="0 0 50 50" fill="none" xmlns="http://www.w3.org/2000/svg">
<path d="M34.2774 27.6938C32.3303 27.6938 30.5847 28.5564 29.3893 29.9145L26.3263 27.7461C26.6514 26.8509 26.8381 25.8896 26.8381 24.8834C26.8381 23.8947 26.6579 22.9496 26.3435 22.0676L29.3997 19.9221C30.5949 21.2734 32.336 22.1313 34.2774 22.1313C37.8712 22.1313 40.7954 19.2076 40.7954 15.6133C40.7954 12.019 37.8712 9.09524 34.2774 9.09524C30.6836 9.09524 27.7593 12.019 27.7593 15.6133C27.7593 16.2566 27.8565 16.877 28.031 17.4645L24.9727 19.611C23.6952 18.0262 21.8558 16.9196 19.76 16.5818V12.896C22.7125 12.2758 24.9371 9.65257 24.9371 6.51805C24.9371 2.92376 22.0129 0 18.4191 0C14.8253 0 11.901 2.92376 11.901 6.51805C11.901 9.61058 14.068 12.2015 16.9615 12.8659V16.5996C13.0127 17.2927 10 20.7389 10 24.8834C10 29.0482 13.0425 32.507 17.0198 33.1766V37.1191C14.0968 37.7616 11.901 40.3684 11.901 43.482C11.901 47.0762 14.8253 50 18.4191 50C22.0129 50 24.9371 47.0762 24.9371 43.482C24.9371 40.3684 22.7414 37.7616 19.8183 37.1191V33.1764C21.8314 32.8373 23.6527 31.7781 24.9429 30.196L28.0264 32.3785C27.8552 32.9607 27.7593 33.575 27.7593 34.2118C27.7593 37.8061 30.6836 40.7299 34.2774 40.7299C37.8712 40.7299 40.7954 37.8061 40.7954 34.2118C40.7954 30.6175 37.8712 27.6938 34.2774 27.6938ZM34.2774 12.453C36.0201 12.453 37.4375 13.8711 37.4375 15.6133C37.4375 17.3555 36.0201 18.7734 34.2774 18.7734C32.5347 18.7734 31.1173 17.3555 31.1173 15.6133C31.1173 13.8711 32.5347 12.453 34.2774 12.453ZM15.2588 6.51805C15.2588 4.77582 16.6764 3.35791 18.4191 3.35791C20.1618 3.35791 21.5792 4.77582 21.5792 6.51805C21.5792 8.26027 20.1618 9.67819 18.4191 9.67819C16.6764 9.67819 15.2588 8.26027 15.2588 6.51805ZM21.5792 43.482C21.5792 45.2242 20.1618 46.6421 18.4191 46.6421C16.6764 46.6421 15.2588 45.2242 15.2588 43.482C15.2588 41.7397 16.6764 40.3218 18.4191 40.3218C20.1618 40.3218 21.5792 41.7397 21.5792 43.482ZM18.4188 29.2908C15.9883 29.2908 14.011 27.3139 14.011 24.8834C14.011 22.4529 15.9883 20.4756 18.4188 20.4756C20.8493 20.4756 22.8265 22.4529 22.8265 24.8834C22.8265 27.3139 20.8493 29.2908 18.4188 29.2908ZM34.2774 37.3721C32.5347 37.3721 31.1173 35.954 31.1173 34.2118C31.1173 32.4696 32.5347 31.0517 34.2774 31.0517C36.0201 31.0517 37.4375 32.4696 37.4375 34.2118C37.4375 35.954 36.0201 37.3721 34.2774 37.3721Z" fill="#231F20"/>
</svg>
