<svg width="48" height="48" viewBox="0 0 48 48" fill="none" xmlns="http://www.w3.org/2000/svg">
    <path
        d="M21.5 5.44338C23.047 4.55021 24.953 4.55021 26.5 5.44338L38.8205 12.5566C40.3675 13.4498 41.3205 15.1004 41.3205 16.8868V31.1132C41.3205 32.8996 40.3675 34.5502 38.8205 35.4434L26.5 42.5566C24.953 43.4498 23.047 43.4498 21.5 42.5566L9.17949 35.4434C7.63249 34.5502 6.67949 32.8996 6.67949 31.1132V16.8868C6.67949 15.1004 7.63249 13.4498 9.17949 12.5566L21.5 5.44338Z"
        fill="#F0F1F4" />
    <path
        d="M23 16.5774C23.6188 16.2201 24.3812 16.2201 25 16.5774L29.9282 19.4226C30.547 19.7799 30.9282 20.4402 30.9282 21.1547V26.8453C30.9282 27.5598 30.547 28.2201 29.9282 28.5774L25 31.4226C24.3812 31.7799 23.6188 31.7799 23 31.4226L18.0718 28.5774C17.453 28.2201 17.0718 27.5598 17.0718 26.8453V21.1547C17.0718 20.4402 17.453 19.7799 18.0718 19.4226L23 16.5774Z"
        fill="#A6B3FF" />
    <path
        d="M23.5 0.288675C23.8094 0.110042 24.1906 0.110042 24.5 0.288675L28.6962 2.71132C29.0056 2.88996 29.1962 3.22008 29.1962 3.57735V8.42265C29.1962 8.77992 29.0056 9.11004 28.6962 9.28868L24.5 11.7113C24.1906 11.89 23.8094 11.89 23.5 11.7113L19.3038 9.28868C18.9944 9.11004 18.8038 8.77991 18.8038 8.42265V3.57735C18.8038 3.22008 18.9944 2.88996 19.3038 2.71132L23.5 0.288675Z"
        fill="#A6B3FF" />
    <path
        d="M6.5 8.28868C6.8094 8.11004 7.1906 8.11004 7.5 8.28868L11.6962 10.7113C12.0056 10.89 12.1962 11.2201 12.1962 11.5774V16.4226C12.1962 16.7799 12.0056 17.11 11.6962 17.2887L7.5 19.7113C7.1906 19.89 6.8094 19.89 6.5 19.7113L2.30385 17.2887C1.99445 17.11 1.80385 16.7799 1.80385 16.4226V11.5774C1.80385 11.2201 1.99445 10.89 2.30385 10.7113L6.5 8.28868Z"
        fill="#A6B3FF" />
    <path
        d="M40.5 8.28868C40.8094 8.11004 41.1906 8.11004 41.5 8.28868L45.6962 10.7113C46.0056 10.89 46.1962 11.2201 46.1962 11.5774V16.4226C46.1962 16.7799 46.0056 17.11 45.6962 17.2887L41.5 19.7113C41.1906 19.89 40.8094 19.89 40.5 19.7113L36.3038 17.2887C35.9944 17.11 35.8038 16.7799 35.8038 16.4226V11.5774C35.8038 11.2201 35.9944 10.89 36.3038 10.7113L40.5 8.28868Z"
        fill="url(#paint0_angular_3486_729)" />
    <path
        d="M23.5 36.2887C23.8094 36.11 24.1906 36.11 24.5 36.2887L28.6962 38.7113C29.0056 38.89 29.1962 39.2201 29.1962 39.5774V44.4226C29.1962 44.7799 29.0056 45.11 28.6962 45.2887L24.5 47.7113C24.1906 47.89 23.8094 47.89 23.5 47.7113L19.3038 45.2887C18.9944 45.11 18.8038 44.7799 18.8038 44.4226V39.5774C18.8038 39.2201 18.9944 38.89 19.3038 38.7113L23.5 36.2887Z"
        fill="url(#paint1_angular_3486_729)" />
    <path
        d="M6.5 28.2887C6.8094 28.11 7.1906 28.11 7.5 28.2887L11.6962 30.7113C12.0056 30.89 12.1962 31.2201 12.1962 31.5774V36.4226C12.1962 36.7799 12.0056 37.11 11.6962 37.2887L7.5 39.7113C7.1906 39.89 6.8094 39.89 6.5 39.7113L2.30385 37.2887C1.99445 37.11 1.80385 36.7799 1.80385 36.4226V31.5774C1.80385 31.2201 1.99445 30.89 2.30385 30.7113L6.5 28.2887Z"
        fill="#A6B3FF" />
    <path
        d="M40.5 28.2887C40.8094 28.11 41.1906 28.11 41.5 28.2887L45.6962 30.7113C46.0056 30.89 46.1962 31.2201 46.1962 31.5774V36.4226C46.1962 36.7799 46.0056 37.11 45.6962 37.2887L41.5 39.7113C41.1906 39.89 40.8094 39.89 40.5 39.7113L36.3038 37.2887C35.9944 37.11 35.8038 36.7799 35.8038 36.4226V31.5774C35.8038 31.2201 35.9944 30.89 36.3038 30.7113L40.5 28.2887Z"
        fill="url(#paint2_angular_3486_729)" />
    <path d="M24 5V18" stroke="#40404B" stroke-width="1.5" stroke-linecap="round" />
    <path d="M7 34L18.9 27" stroke="#40404B" stroke-width="1.5" stroke-linecap="round" />
    <path d="M7 14L18.9 21" stroke="#40404B" stroke-width="1.5" stroke-linecap="round" />
    <path d="M41 14L29 21.0588" stroke="#40404B" stroke-width="1.5" stroke-linecap="round" />
    <path d="M41 34L29 26.9412" stroke="#40404B" stroke-width="1.5" stroke-linecap="round" />
    <path d="M24 42V30" stroke="#40404B" stroke-width="1.5" stroke-linecap="round" />
    <defs>
        <radialGradient id="paint0_angular_3486_729" cx="0" cy="0" r="1"
            gradientUnits="userSpaceOnUse"
            gradientTransform="translate(41 14) rotate(-147.529) scale(6.5192)">
            <stop stop-color="#C8D0FF" />
            <stop offset="0.0001" stop-color="#B1BDFF" />
            <stop offset="1" stop-color="#7E8FFA" />
        </radialGradient>
        <radialGradient id="paint1_angular_3486_729" cx="0" cy="0" r="1"
            gradientUnits="userSpaceOnUse"
            gradientTransform="translate(24 42) rotate(-28.6105) scale(6.26498)">
            <stop stop-color="#C8D0FF" />
            <stop offset="0.0001" stop-color="#B1BDFF" />
            <stop offset="1" stop-color="#7E8FFA" />
        </radialGradient>
        <radialGradient id="paint2_angular_3486_729" cx="0" cy="0" r="1"
            gradientUnits="userSpaceOnUse"
            gradientTransform="translate(41 34) rotate(-90) scale(6.5)">
            <stop stop-color="#C8D0FF" />
            <stop offset="0.0001" stop-color="#B1BDFF" />
            <stop offset="1" stop-color="#7E8FFA" />
        </radialGradient>
    </defs>
</svg>
    