<svg width="48" height="48" viewBox="0 0 48 48" fill="none" xmlns="http://www.w3.org/2000/svg">
    <path
        d="M7 6C7 3.23858 9.23858 1 12 1H30C32.7614 1 35 3.23858 35 6V42C35 44.7614 32.7614 47 30 47H12C9.23858 47 7 44.7614 7 42V6Z"
        fill="#F0F1F4" />
    <path
        d="M9 6C9 4.34315 10.3431 3 12 3H30C31.6569 3 33 4.34315 33 6V35C33 36.6569 31.6569 38 30 38H12C10.3431 38 9 36.6569 9 35V6Z"
        fill="white" />
    <path
        d="M40.2273 23.571C39.2682 23.12 38.6027 22.1395 38.6027 21.0023C38.6027 19.8651 39.2682 18.8846 40.2469 18.4336C40.834 18.1591 41.1472 17.5317 40.9319 16.9238C40.7557 16.3944 40.5404 15.8845 40.286 15.3943C40.0119 14.8257 39.3465 14.5904 38.7397 14.8061C37.7611 15.1394 36.6259 14.9237 35.843 14.1394C35.0601 13.3551 34.8252 12.2178 35.1775 11.2374C35.3732 10.6491 35.1579 9.98247 34.5903 9.70795C34.0814 9.45304 33.5529 9.23735 33.0441 9.06086C32.4569 8.86477 31.8306 9.1589 31.537 9.70795C31.0672 10.6099 30.1277 11.2178 29.0317 11.2178C27.9356 11.2178 26.9961 10.61 26.5264 9.70795C26.2328 9.15892 25.6065 8.86482 25.0192 9.06086C24.5104 9.23733 24.0015 9.43341 23.5121 9.68832C22.9641 9.96284 22.6901 10.5903 22.8662 11.1785C23.1598 12.1394 22.9249 13.2374 22.1616 13.9825C21.3983 14.7472 20.3022 14.9825 19.3431 14.6884C18.7364 14.5119 18.0905 14.7668 17.7969 15.3355C17.562 15.8257 17.3467 16.3159 17.1706 16.8257C16.9748 17.3944 17.2489 18.0219 17.7773 18.316C18.6581 18.7866 19.2648 19.7277 19.2648 20.8062C19.2648 21.9239 18.6189 22.8847 17.699 23.3357C17.151 23.6102 16.877 24.2181 17.0531 24.7867C17.2097 25.2965 17.4054 25.8063 17.6403 26.2965C17.9143 26.8848 18.5994 27.1593 19.2257 26.9828C20.1848 26.6887 21.2612 26.924 22.0246 27.6691C22.8271 28.473 23.0423 29.6299 22.6705 30.6299C22.4552 31.1986 22.69 31.8456 23.2185 32.1398C23.7274 32.4143 24.2559 32.63 24.8039 32.826C25.3911 33.0417 26.0174 32.7476 26.2719 32.1789C26.722 31.2377 27.7007 30.571 28.8163 30.571C29.9515 30.571 30.9302 31.2377 31.3803 32.2181C31.6543 32.8064 32.3002 33.1397 32.907 32.9437C33.4354 32.7672 33.9639 32.5711 34.4532 32.3162C35.0208 32.0417 35.2557 31.375 35.0404 30.7868C34.6685 29.7868 34.8838 28.6103 35.6863 27.8063C36.4888 27.0023 37.6827 26.7867 38.681 27.1592C39.2877 27.3945 39.9727 27.1592 40.2664 26.5905C40.5208 26.1003 40.7361 25.5906 40.9123 25.0611C41.108 24.4729 40.7948 23.8259 40.2273 23.571ZM28.9928 27.1201C25.6262 27.1201 22.8861 24.3749 22.8861 21.0023C22.8861 17.6297 25.6262 14.8845 28.9928 14.8845C32.3593 14.8845 35.0994 17.6297 35.0994 21.0023C35.0994 24.3749 32.3593 27.1201 28.9928 27.1201Z"
        fill="#A6B3FF" />
    <rect x="23" y="15" width="12" height="12" rx="6" fill="white" />
    <path d="M22 5H20" stroke="#40404B" stroke-width="1.5" stroke-linecap="round" />
    <circle cx="21" cy="42" r="2" stroke="#40404B" stroke-width="1.5" stroke-linecap="round" />
</svg>
    