<svg width="50" height="50" viewBox="0 0 50 50" fill="none" xmlns="http://www.w3.org/2000/svg">
<path fill-rule="evenodd" clip-rule="evenodd" d="M45.8684 38.4676L26.548 49.6381C25.7194 50.1206 24.6915 50.1206 23.8629 49.6381L4.54258 38.4676C3.71396 37.9851 3.20001 37.0936 3.20001 36.1601V13.8399C3.20001 12.875 3.71396 12.0149 4.54258 11.5324L23.8629 0.361863C24.6915 -0.120621 25.7194 -0.120621 26.548 0.361863L45.8684 11.5534C46.697 12.0359 47.2109 12.9274 47.2109 13.8609V36.181C47.1795 37.125 46.676 38.0061 45.8684 38.4886V38.4676Z" fill="#8D6748"/>
<path d="M25.174 4.21121C25.4362 4.21121 25.6984 4.29512 25.9292 4.42098L42.6168 14.0602C43.0784 14.3329 43.3615 14.8363 43.372 15.3713V34.6496C43.372 35.1846 43.0888 35.688 42.6168 35.9607L25.9292 45.5894C25.688 45.7258 25.4572 45.7992 25.174 45.7992C24.9118 45.7992 24.6496 45.7258 24.4188 45.5894L7.74166 35.9607C7.28015 35.688 6.99696 35.1846 6.98647 34.6496V15.3818C6.98647 14.8468 7.26967 14.3434 7.74166 14.0707L24.4293 4.44196C24.6705 4.29512 24.9433 4.21121 25.174 4.21121ZM25.174 3.41406C24.7754 3.41406 24.3664 3.52944 24.0202 3.73921L7.3326 13.3679C6.61936 13.777 6.17883 14.5322 6.17883 15.3503V34.6182C6.17883 35.4468 6.60887 36.202 7.3326 36.6006L24.0202 46.2397C24.3664 46.4495 24.7754 46.5649 25.174 46.5649C25.5726 46.5649 25.9816 46.4495 26.3278 46.2397L43.0154 36.611C43.7287 36.202 44.1692 35.4468 44.1692 34.6287V15.3503C44.1692 14.5217 43.7391 13.7665 43.0154 13.3679L26.3278 3.72873C25.9816 3.51895 25.5831 3.41406 25.174 3.41406ZM27.5654 15.3503C27.5654 15.2139 27.4501 15.0776 27.2927 15.0776H22.2476C22.1113 15.0776 21.9749 15.193 21.9749 15.3503C21.9749 16.2628 22.1113 19.399 23.4538 20.9303C23.5063 20.9828 23.5692 21.0142 23.6426 21.0142H25.8872C25.9607 21.0142 26.0236 20.9828 26.076 20.9303C27.4186 19.4304 27.555 16.2943 27.5654 15.3503ZM25.5831 20.2381H23.9993C23.9258 20.2381 23.8629 20.2066 23.8105 20.1542C22.8979 19.0948 22.7931 16.9341 22.7616 16.1789C22.7616 16.0426 22.877 15.9062 23.0343 15.9062H26.569C26.7054 15.9062 26.8417 16.0216 26.8417 16.1789C26.8417 16.9341 26.7054 19.0528 25.7928 20.1542C25.7089 20.2066 25.6565 20.2381 25.5831 20.2381ZM25.2789 14.5427C25.2789 14.5427 26.2439 13.9763 25.6565 12.9588C25.3104 12.4239 25.1425 11.9624 25.2789 11.7736C24.9328 12.2037 24.3349 12.6547 24.9852 13.6196C25.2055 13.8714 25.3104 14.3853 25.2789 14.5427ZM24.2195 14.6266C24.2195 14.6266 24.8593 14.249 24.4608 13.5672C24.2195 13.2211 24.1146 12.8959 24.2195 12.791C23.9783 13.0847 23.6007 13.3784 24.0307 14.0497C24.1671 14.1755 24.2195 14.5217 24.2195 14.6266Z" fill="white"/>
<path d="M26.4012 17.7418C26.2858 18.4655 26.076 19.2942 25.625 19.8396C25.5726 19.892 25.5096 19.9235 25.4677 19.9235H24.1251C24.0727 19.9235 23.9888 19.892 23.9678 19.8396C23.6426 19.441 23.4328 18.8956 23.2965 18.3397C23.2965 18.3397 24.8488 18.5495 25.7404 18.2243C26.3697 17.9726 26.4012 17.7418 26.4012 17.7418ZM8.76954 22.0842H9.76597L11.4022 24.612L13.0385 22.0842H14.0349V27.4544H13.0909V23.6155L11.4022 26.1433H11.3708L9.71353 23.647V27.4859H8.76954V22.0842ZM18.8912 27.5383C18.5031 27.5383 18.1255 27.4649 17.7689 27.3286C17.4333 27.1922 17.1291 26.9929 16.8879 26.7412C16.6361 26.4895 16.4473 26.1853 16.3215 25.8601C16.1851 25.535 16.1117 25.1469 16.1117 24.8008V24.7693C16.1117 24.3917 16.1956 24.0456 16.3215 23.7099C16.4578 23.3848 16.6466 23.0911 16.9088 22.8289C17.1606 22.5771 17.4647 22.3674 17.7899 22.2415C18.136 22.0842 18.5136 22.0317 18.9122 22.0317C19.3003 22.0317 19.6779 22.1052 20.0345 22.2415C20.3701 22.3779 20.6743 22.5771 20.9155 22.8289C21.1673 23.0806 21.3561 23.3848 21.4819 23.7099C21.6183 24.0351 21.6917 24.4232 21.6917 24.7693V24.8008C21.6917 25.1784 21.6078 25.5245 21.4819 25.8601C21.3456 26.1853 21.1568 26.479 20.8946 26.7412C20.6428 26.9929 20.3387 27.2027 20.0135 27.3286C19.6674 27.4754 19.2898 27.5383 18.8912 27.5383ZM18.8912 26.6783C19.1639 26.6783 19.4052 26.6258 19.6149 26.5209C19.8247 26.416 20.0135 26.2797 20.1813 26.1224C20.3387 25.965 20.454 25.7448 20.5589 25.535C20.6428 25.3042 20.6848 25.0525 20.6953 24.8113V24.7798C20.6953 24.5071 20.6428 24.2658 20.5589 24.0246C20.475 23.7938 20.3491 23.5841 20.1813 23.4058C20.0135 23.2379 19.8247 23.1016 19.6149 23.0072C19.4052 22.8918 19.1639 22.8499 18.8912 22.8499C18.6395 22.8499 18.3877 22.9023 18.1675 23.0072C17.9577 23.1121 17.7689 23.2484 17.6011 23.4058C17.4438 23.5631 17.3284 23.7834 17.2235 23.9931C17.1396 24.2239 17.0976 24.4756 17.0871 24.7169V24.7483C17.0871 25.021 17.1396 25.2623 17.2235 25.5035C17.3074 25.7343 17.4333 25.944 17.6011 26.1224C17.7689 26.2902 17.9577 26.4265 18.1675 26.5209C18.3877 26.6258 18.6395 26.6783 18.8912 26.6783ZM26.2438 27.5383C25.8767 27.5383 25.5096 27.4649 25.174 27.3286C24.8488 27.1922 24.5551 26.9824 24.3139 26.7412C24.0622 26.4895 23.8734 26.1853 23.7475 25.8601C23.6112 25.514 23.5377 25.1469 23.5377 24.8008V24.7693C23.5377 24.3917 23.6216 24.0141 23.7475 23.7099C23.8839 23.3848 24.0727 23.0806 24.3139 22.8289C24.5656 22.5771 24.8698 22.3674 25.195 22.2415C25.5516 22.0947 25.9397 22.0212 26.3173 22.0317C26.5585 22.0317 26.7683 22.0632 26.9885 22.0842L27.5549 22.2415C27.7123 22.3254 27.8801 22.3988 28.006 22.5142L28.4045 22.8603L27.7857 23.5736C27.5864 23.3848 27.3557 23.2275 27.1144 23.1016C26.8522 22.9757 26.569 22.9023 26.2858 22.9128C26.0446 22.9128 25.8033 22.9652 25.583 23.0701C25.3733 23.175 25.1845 23.3114 25.0167 23.4687C24.8593 23.626 24.7439 23.8463 24.6391 24.0561C24.5551 24.2868 24.5132 24.5385 24.5027 24.7798V24.8113C24.5027 25.084 24.5551 25.3252 24.6391 25.5664C24.723 25.7972 24.8488 26.007 25.0167 26.1853C25.174 26.3426 25.3628 26.5104 25.583 26.5839C25.7928 26.6678 26.0341 26.7412 26.2963 26.7412C26.6214 26.7412 26.9151 26.6887 27.1249 26.5524C27.3766 26.4056 27.6074 26.2272 27.8276 26.0384L28.4465 26.6573C28.3101 26.8146 28.1738 26.93 28.0164 27.0559C27.8591 27.1922 27.6913 27.2656 27.5444 27.3495C27.3661 27.4439 27.1773 27.5069 26.9781 27.5383C26.7368 27.5908 26.5061 27.5908 26.2543 27.5908L26.2438 27.5383ZM30.3135 22.0842H31.2575V24.3078H33.8377V22.0842H34.7817V27.4544H33.8377V25.2098H31.268V27.4544H30.324L30.3135 22.0842ZM38.9353 22.0632H39.7953L42.1553 27.4544H41.1589L40.624 26.1538H38.0962L37.5298 27.4544H36.5648L38.9353 22.0632ZM40.2673 25.3357L39.3548 23.1855L38.4423 25.3357H40.2673ZM8.08777 29.1431H42.3231V29.4368H8.08777V29.1431ZM42.3231 19.0529H27.7647C27.7647 19.1683 27.7332 19.2417 27.7332 19.3466H42.3022V19.0529H42.3231ZM8.10875 19.0529V19.3466H21.8176C21.8176 19.2312 21.7861 19.1578 21.7861 19.0529H8.10875Z" fill="white"/>
</svg>
