<svg width="50" height="50" viewBox="0 0 50 50" fill="none" xmlns="http://www.w3.org/2000/svg">
<path d="M4.9506 3.94739H44.7512C45.8284 3.94739 46.7018 4.8207 46.7018 5.89799C46.7018 6.97527 45.8284 7.84859 44.7512 7.84859H4.9506C3.87331 7.84859 3 6.97527 3 5.89799C3 4.8207 3.87331 3.94739 4.9506 3.94739Z" fill="#696969"/>
<path d="M5.29752 0H13.3V1.84672H5.29752V0Z" fill="#009FE3"/>
<path d="M15.7623 0H23.7647V1.84672H15.7623V0Z" fill="#C7D302"/>
<path d="M26.0885 0H34.091V1.84672H26.0885V0Z" fill="#F07E16"/>
<path d="M36.3712 0H44.3737V1.84672H36.3712V0Z" fill="#DF2815"/>
<path d="M36.3712 9.88H44.3737V23.4072H36.3712V9.88Z" fill="#DF2815"/>
<path d="M26.0885 9.88H34.1059V31.856H26.0885V9.88Z" fill="#F07E16"/>
<path d="M15.7623 9.88H23.7643V42.7978H15.7623V9.88Z" fill="#C7D302"/>
<path d="M5.29752 9.88H13.3V50H5.29752V9.88Z" fill="#009FE3"/>
</svg>
