<svg width="50" height="50" viewBox="0 0 50 50" fill="none" xmlns="http://www.w3.org/2000/svg">
<path d="M45.5097 20.2H30.4256C30.062 20.1999 29.7133 20.0554 29.4562 19.7983C29.1991 19.5412 29.0546 19.1926 29.0544 18.829V3.10848C29.0544 1.94433 28.1104 1 26.9468 1H21.5622C20.3978 1 19.4544 1.94433 19.4544 3.10848V18.7338C19.4544 19.5444 18.799 20.2034 17.9884 20.2069L13.0451 20.2305C12.2275 20.2349 11.5633 19.5716 11.5649 18.7547L11.5956 3.11202C11.5982 1.9461 10.6539 1 9.48798 1H4.10777C2.94327 1 2 1.94433 2 3.10848V47.128C2 48.1622 2.83779 49 3.87111 49H45.5097C46.5439 49 47.3817 48.1622 47.3817 47.128V22.072C47.3817 21.0378 46.5439 20.2 45.5097 20.2ZM38.4362 36.7276C38.4362 38.0829 37.3374 39.1818 35.9822 39.1818H31.7268C30.3714 39.1818 29.2726 38.0829 29.2726 36.7276V32.4722C29.2726 31.1168 30.3714 30.018 31.7268 30.018H35.9822C37.3374 30.018 38.4362 31.1168 38.4362 32.4722V36.7276Z" fill="#FF6600"/>
</svg>
