<svg width="50" height="50" viewBox="0 0 50 50" fill="none" xmlns="http://www.w3.org/2000/svg">
<path d="M29.4721 25.2876C29.4721 27.7578 27.4696 29.7603 24.9995 29.7603C22.5293 29.7603 20.5268 27.7578 20.5268 25.2876C20.5268 22.8175 22.5293 20.815 24.9995 20.815C27.4696 20.815 29.4721 22.8175 29.4721 25.2876Z" fill="#61DAFB"/>
<path fill-rule="evenodd" clip-rule="evenodd" d="M24.9994 8.58357C24.2468 7.84839 23.4969 7.17704 22.7565 6.57525C20.8972 5.06415 19.0547 3.95685 17.3395 3.40195C15.6244 2.84711 13.9258 2.8141 12.4997 3.63747C11.0736 4.46084 10.2529 5.94832 9.87588 7.71107C9.49881 9.47395 9.5365 11.6233 9.91552 13.989C10.0665 14.9311 10.2729 15.9162 10.5333 16.9356C9.52031 17.2198 8.56397 17.5335 7.67257 17.8738C5.4343 18.7284 3.55409 19.7705 2.21592 20.9785C0.877852 22.1863 0 23.6408 0 25.2876C0 26.9343 0.877852 28.3888 2.21592 29.5967C3.55409 30.8047 5.4343 31.8467 7.67257 32.7013C8.56397 33.0417 9.52032 33.3554 10.5333 33.6396C10.273 34.659 10.0665 35.6441 9.91551 36.5862C9.53649 38.9519 9.49881 41.1012 9.87587 42.8641C10.2529 44.6269 11.0736 46.1144 12.4997 46.9377C13.9258 47.7611 15.6244 47.7281 17.3395 47.1732C19.0547 46.6184 20.8972 45.5111 22.7565 44C23.4969 43.3982 24.2468 42.7268 24.9994 41.9916C25.752 42.7268 26.5019 43.3982 27.2424 44C29.1016 45.5111 30.9442 46.6184 32.6594 47.1733C34.3745 47.7282 36.073 47.7612 37.4992 46.9378C38.9253 46.1144 39.746 44.627 40.123 42.8642C40.5001 41.1013 40.4624 38.952 40.0834 36.5863C39.9324 35.6441 39.7259 34.659 39.4655 33.6396C40.4785 33.3554 41.4349 33.0417 42.3263 32.7013C44.5646 31.8467 46.4448 30.8047 47.783 29.5967C49.121 28.3888 49.9989 26.9343 49.9989 25.2876C49.9989 23.6408 49.121 22.1863 47.783 20.9785C46.4448 19.7705 44.5646 18.7284 42.3263 17.8738C41.4349 17.5335 40.4786 17.2198 39.4655 16.9355C39.7259 15.9161 39.9324 14.9311 40.0833 13.9889C40.4624 11.6232 40.5001 9.47388 40.123 7.71099C39.746 5.94825 38.9253 4.46077 37.4991 3.6374C36.073 2.81402 34.3745 2.84703 32.6594 3.40188C30.9442 3.95678 29.1016 5.06408 27.2424 6.57517C26.5019 7.17698 25.752 7.84836 24.9994 8.58357ZM36.4991 5.36945C37.2644 5.81128 37.8599 6.69229 38.1672 8.12931C38.4746 9.56619 38.4649 11.4479 38.1085 13.6725C37.9673 14.5537 37.7731 15.4803 37.527 16.4437C35.4316 15.965 33.1419 15.604 30.7185 15.3817C29.3143 13.3941 27.8569 11.5918 26.3946 10.0165C27.1059 9.32159 27.8112 8.69011 28.5038 8.12722C30.2521 6.70625 31.877 5.75706 33.275 5.30478C34.6732 4.85246 35.7339 4.92762 36.4991 5.36945ZM23.6042 10.0165C22.8929 9.32162 22.1876 8.69016 21.4951 8.12729C19.7467 6.70632 18.1219 5.75713 16.7239 5.30486C15.3257 4.85253 14.265 4.92769 13.4997 5.36952C12.7344 5.81135 12.139 6.69237 11.8316 8.12939C11.5243 9.56627 11.5339 11.448 11.8903 13.6726C12.0315 14.5538 12.2257 15.4803 12.4719 16.4437C14.5673 15.965 16.8569 15.604 19.2803 15.3817C20.6845 13.3941 22.1419 11.5918 23.6042 10.0165ZM36.9802 18.3704C35.4837 18.0325 33.8757 17.7551 32.1803 17.5486C32.7332 18.4072 33.2747 19.2939 33.8012 20.2059C34.3278 21.1179 34.8249 22.0301 35.292 22.9382C35.9608 21.3667 36.5247 19.8355 36.9802 18.3704ZM36.4377 25.2876C37.4569 23.0777 38.2891 20.9144 38.9222 18.8603C39.8796 19.1288 40.7791 19.4239 41.6129 19.7423C43.7177 20.5459 45.3521 21.4784 46.4428 22.463C47.5336 23.4477 47.9989 24.4039 47.9989 25.2876C47.9989 26.1712 47.5336 27.1274 46.4428 28.1121C45.3521 29.0967 43.7177 30.0292 41.6129 30.8329C40.7791 31.1512 39.8796 31.4463 38.9222 31.7148C38.2891 29.6608 37.4569 27.4975 36.4377 25.2876ZM34.2271 25.2876C33.5799 23.9413 32.8599 22.5756 32.0692 21.2059C31.2784 19.8362 30.4556 18.5298 29.6132 17.2961C28.1237 17.1834 26.581 17.1241 24.9994 17.1241C23.4179 17.1241 21.8752 17.1835 20.3856 17.2961C19.5432 18.5298 18.7205 19.8362 17.9297 21.2059C17.1389 22.5755 16.4189 23.9412 15.7717 25.2876C16.4189 26.634 17.1389 27.9997 17.9297 29.3694C18.7205 30.739 19.5432 32.0453 20.3855 33.279C21.8751 33.3917 23.4179 33.451 24.9994 33.451C26.581 33.451 28.1237 33.3917 29.6133 33.279C30.4557 32.0453 31.2784 30.739 32.0692 29.3693C32.8599 27.9996 33.5799 26.6339 34.2271 25.2876ZM32.1803 33.0265C32.7333 32.168 33.2747 31.2813 33.8012 30.3693C34.3278 29.4573 34.8249 28.5451 35.292 27.637C35.9608 29.2085 36.5247 30.7397 36.9802 32.2047C35.4837 32.5427 33.8757 32.82 32.1803 33.0265ZM28.1111 35.3759C27.0911 35.4255 26.0525 35.451 24.9994 35.451C23.9463 35.451 22.9077 35.4255 21.8877 35.3759C22.9143 36.7409 23.9584 37.9948 24.9994 39.1218C26.0404 37.9948 27.0846 36.7409 28.1111 35.3759ZM26.3946 40.5587C27.8569 38.9834 29.3144 37.181 30.7186 35.1935C33.142 34.9711 35.4316 34.6101 37.5269 34.1314C37.7731 35.0949 37.9673 36.0214 38.1085 36.9027C38.465 39.1273 38.4746 41.009 38.1672 42.4459C37.8599 43.8829 37.2644 44.7639 36.4992 45.2058C35.7339 45.6476 34.6732 45.7227 33.275 45.2704C31.877 44.8181 30.2522 43.8689 28.5038 42.448C27.8112 41.8851 27.1059 41.2536 26.3946 40.5587ZM23.6042 40.5587C22.1419 38.9834 20.6845 37.181 19.2802 35.1935C16.8569 34.9711 14.5673 34.6101 12.4719 34.1314C12.2257 35.0948 12.0315 36.0214 11.8903 36.9026C11.5339 39.1272 11.5243 41.0089 11.8316 42.4458C12.139 43.8828 12.7344 44.7639 13.4997 45.2057C14.265 45.6475 15.3257 45.7227 16.7239 45.2703C18.1219 44.8181 19.7467 43.8689 21.4951 42.4479C22.1876 41.885 22.8929 41.2536 23.6042 40.5587ZM13.0186 32.2047C14.5151 32.5427 16.1231 32.82 17.8185 33.0265C17.2655 32.168 16.7242 31.2813 16.1977 30.3694C15.6711 29.4573 15.1739 28.5451 14.7069 27.637C14.038 29.2085 13.4742 30.7397 13.0186 32.2047ZM14.7069 22.9382C15.1739 22.0301 15.6711 21.1179 16.1976 20.2058C16.7242 19.2938 17.2656 18.4072 17.8185 17.5486C16.1232 17.7551 14.5151 18.0325 13.0186 18.3705C13.4742 19.8355 14.038 21.3667 14.7069 22.9382ZM13.5611 25.2876C12.542 27.4975 11.7098 29.6608 11.0767 31.7148C10.1192 31.4463 9.21973 31.1512 8.38597 30.8329C6.28121 30.0292 4.64678 29.0967 3.55608 28.1121C2.46526 27.1274 2 26.1712 2 25.2876C2 24.4039 2.46526 23.4477 3.55608 22.463C4.64678 21.4784 6.28121 20.5459 8.38597 19.7423C9.21972 19.4239 10.1192 19.1288 11.0766 18.8603C11.7098 20.9144 12.5419 23.0777 13.5611 25.2876ZM21.8878 15.1993C22.9078 15.1496 23.9463 15.1241 24.9994 15.1241C26.0525 15.1241 27.0911 15.1496 28.111 15.1993C27.0845 13.8343 26.0403 12.5804 24.9994 11.4534C23.9585 12.5804 22.9143 13.8343 21.8878 15.1993Z" fill="#61DAFB"/>
</svg>
