<svg width="48" height="48" viewBox="0 0 48 48" fill="none" xmlns="http://www.w3.org/2000/svg">
    <path d="M15 15.5C15 15.2239 15.2239 15 15.5 15H32.5C32.7761 15 33 15.2239 33 15.5V32H15V15.5Z" fill="#F0F1F4"/>
    <path fill-rule="evenodd" clip-rule="evenodd" d="M15.0094 28.5182V32.2221V32.2222C15.0094 33.7564 19.0346 35.0001 24 35.0001C28.9653 35.0001 32.9906 33.7564 32.9906 32.2222V32.2221V28.5182C32.9906 30.0524 28.9653 31.2961 24 31.2961C19.0346 31.2961 15.0094 30.0524 15.0094 28.5182Z" fill="#A6B3FF"/>
    <path fill-rule="evenodd" clip-rule="evenodd" d="M15.0094 22.9623V26.6662V26.6662C15.0095 28.2004 19.0347 29.4441 24 29.4441C28.9653 29.4441 32.9905 28.2004 32.9906 26.6662V26.6662V22.9623C32.9906 24.4965 28.9653 25.7402 24 25.7402C19.0346 25.7402 15.0094 24.4965 15.0094 22.9623Z" fill="#A6B3FF"/>
    <path fill-rule="evenodd" clip-rule="evenodd" d="M15.0094 17.4065V21.1104V21.1104C15.0094 22.6446 19.0346 23.8884 24 23.8884C28.9653 23.8884 32.9906 22.6446 32.9906 21.1104V17.4065C32.9906 18.9407 28.9653 20.1844 24 20.1844C19.0346 20.1844 15.0094 18.9407 15.0094 17.4065Z" fill="#A6B3FF"/>
    <path d="M42.2535 13.75C36.4545 3.70586 23.6111 0.264487 13.567 6.06348C5.97599 10.4461 2.15635 18.8524 3.24665 27.033M42.2535 13.75L44.0836 6.91988M42.2535 13.75L35.4234 11.9199M5.88045 34.75C11.6794 44.7942 24.5228 48.2355 34.567 42.4365C42.158 38.0539 45.9776 29.6476 44.8873 21.467M5.88045 34.75L4.41635 40.2141M5.88045 34.75L11.3446 36.2141" stroke="#40404B" stroke-width="1.5" stroke-linecap="round"/>
    <ellipse cx="24" cy="15.5" rx="9" ry="2.5" fill="#A6B3FF"/>
    </svg>
    