<svg width="48" height="48" viewBox="0 0 48 48" fill="none" xmlns="http://www.w3.org/2000/svg">
<path fill-rule="evenodd" clip-rule="evenodd" d="M8 10.5C7.72386 10.5 7.5 10.7239 7.5 11V20.5858C7.5 21.2488 7.23661 21.8847 6.76776 22.3536L5.12132 24L6.76776 25.6464C7.2366 26.1153 7.5 26.7512 7.5 27.4142V37C7.5 37.2761 7.72386 37.5 8 37.5H10.5C11.3284 37.5 12 38.1716 12 39C12 39.8284 11.3284 40.5 10.5 40.5H8C6.067 40.5 4.5 38.933 4.5 37V27.6213L0.878677 24L4.5 20.3787V11C4.5 9.067 6.067 7.5 8 7.5H10.5C11.3284 7.5 12 8.17157 12 9C12 9.82843 11.3284 10.5 10.5 10.5H8ZM4.64644 27.7678C4.64624 27.7676 4.64665 27.768 4.64644 27.7678V27.7678Z" fill="#A6B3FF"/>
<path fill-rule="evenodd" clip-rule="evenodd" d="M40.5 10.5C40.7761 10.5 41 10.7239 41 11V20.5858C41 21.2488 41.2634 21.8847 41.7322 22.3536L43.3787 24L41.7322 25.6464C41.2634 26.1153 41 26.7512 41 27.4142V37C41 37.2761 40.7761 37.5 40.5 37.5H38C37.1716 37.5 36.5 38.1716 36.5 39C36.5 39.8284 37.1716 40.5 38 40.5H40.5C42.433 40.5 44 38.933 44 37V27.6213L47.6213 24L44 20.3787V11C44 9.067 42.433 7.5 40.5 7.5H38C37.1716 7.5 36.5 8.17157 36.5 9C36.5 9.82843 37.1716 10.5 38 10.5H40.5ZM43.8536 27.7678C43.8538 27.7676 43.8534 27.768 43.8536 27.7678V27.7678Z" fill="#A6B3FF"/>
<path d="M14.5409 28.1007L12.5638 24.9799H10.7026V27.2556C10.7026 27.7258 10.3214 28.1069 9.85128 28.1069C9.38113 28.1069 9 27.7258 9 27.2556V20.0015C9 19.5447 9.3703 19.1744 9.82708 19.1744H13.2594C14.1565 19.1744 14.8827 19.4672 15.4319 20.0589C15.9811 20.6507 16.2557 21.3234 16.2557 22.0772C16.2557 22.6814 16.0848 23.2295 15.7492 23.7279C15.4136 24.2262 14.9437 24.5812 14.3457 24.7993L16.5181 28.1007H14.5409ZM10.7026 20.7441L10.6965 23.4476H13.1435C13.5768 23.4476 13.9246 23.3167 14.1931 23.0551C14.4616 22.7935 14.5959 22.4696 14.5959 22.0834C14.5959 21.7159 14.4677 21.3982 14.2053 21.1366C13.9429 20.8749 13.6134 20.7441 13.2106 20.7441H10.7026Z" fill="black"/>
<path d="M24.1339 19.9593C24.1339 20.3962 23.7797 20.7504 23.3428 20.7504H19.3618V22.7935H22.7269C23.1501 22.7935 23.4931 23.1365 23.4931 23.5597C23.4931 23.9828 23.1501 24.3259 22.7269 24.3259H19.3618V26.5185H23.3306C23.7675 26.5185 24.1217 26.8727 24.1217 27.3096C24.1217 27.7465 23.7675 28.1007 23.3306 28.1007H18.359C17.986 28.1007 17.6837 27.7983 17.6837 27.4254V19.8448C17.6837 19.4711 17.9866 19.1682 18.3603 19.1682H23.3428C23.7797 19.1682 24.1339 19.5224 24.1339 19.9593Z" fill="black"/>
<path d="M28.8144 28.2813L28.7839 28.3C27.777 28.3 26.9165 28.0384 26.2087 27.5151C25.5008 26.9919 25.0126 26.3503 24.7441 25.5904L26.3856 25.0858C26.5687 25.5779 26.8799 25.9766 27.3193 26.288C27.7587 26.5995 28.2835 26.7552 28.8876 26.7552C29.3819 26.7552 29.7846 26.6431 30.0959 26.4188C30.4071 26.1946 30.5596 25.933 30.5596 25.6277C30.5596 25.391 30.4742 25.1855 30.2972 25.0111C30.1203 24.8366 29.8213 24.6809 29.4002 24.5501L27.1667 23.8338C26.5565 23.6407 26.0744 23.3479 25.7144 22.9617C25.3543 22.5755 25.1774 22.1083 25.1835 21.5539C25.1774 20.85 25.4764 20.2458 26.0744 19.7475C26.6724 19.2492 27.423 19 28.3201 19C29.2293 19 30.0226 19.218 30.7 19.6541C31.3774 20.0901 31.8411 20.632 32.0913 21.2861L30.4986 21.7595C30.3155 21.392 30.0287 21.0992 29.6443 20.8749C29.2598 20.6507 28.8266 20.5386 28.3445 20.5386C27.9295 20.5386 27.5939 20.632 27.3315 20.8189C27.0691 21.0058 26.9409 21.2362 26.9409 21.5041C26.9409 21.8965 27.2217 22.1768 27.777 22.345L29.9494 23.0614C30.7122 23.2981 31.298 23.5971 31.7008 23.9583C32.1035 24.3196 32.3049 24.8366 32.3049 25.5094C32.3049 26.288 31.9815 26.9421 31.3346 27.4778C30.6878 28.0135 29.8457 28.2813 28.8144 28.2813Z" fill="black"/>
<path d="M39.2089 19.1682C39.6458 19.1682 40 19.5224 40 19.9593C40 20.3962 39.6458 20.7504 39.2089 20.7504H37.0648V27.2433C37.0648 27.7168 36.6809 28.1007 36.2074 28.1007C35.7339 28.1007 35.35 27.7168 35.35 27.2433V20.7504H33.2059C32.7689 20.7504 32.4148 20.3962 32.4148 19.9593C32.4148 19.5224 32.7689 19.1682 33.2059 19.1682H39.2089Z" fill="black"/>
</svg>
