<svg width="48" height="48" viewBox="0 0 48 48" fill="none" xmlns="http://www.w3.org/2000/svg">
<g clip-path="url(#clip0_1895_3503)">
<path fill-rule="evenodd" clip-rule="evenodd" d="M47.8798 21.601C47.5043 17.8637 46.257 14.2668 44.238 11.0995C42.219 7.93219 39.4849 5.28298 36.2554 3.36498C33.026 1.44698 29.3915 0.313727 25.6443 0.0563953C21.897 -0.200936 18.1417 0.424836 14.6804 1.88337L24 24L10.0347 4.4815C6.98002 6.6671 4.48097 9.53916 2.73857 12.8666C0.996176 16.1941 0.0590925 19.884 0.00270503 23.6397C-0.0536824 27.3953 0.772201 31.1117 2.41391 34.49C4.05563 37.8683 6.46734 40.8141 9.45503 43.0904L24 24.0001L14.4469 46.0169C17.8925 47.5119 21.641 48.1774 25.3908 47.9598C29.1405 47.7421 32.7868 46.6474 36.0364 44.7637C39.2859 42.88 42.048 40.2598 44.1003 37.1141C46.1527 33.9683 47.4381 30.3848 47.8531 26.6517L24 24.0001L24 24L47.8798 21.601Z" fill="#F0F1F4"/>
<rect x="12" y="12" width="24" height="24" rx="12" fill="#A6B3FF"/>
<path d="M19.039 21.9763C19.2733 22.2043 19.5467 22.4704 19.8702 22.4329C20.1713 22.398 20.4332 22.1414 20.4265 21.8384C20.4237 21.7122 20.3962 21.5931 20.3033 21.4572C20.0978 21.1565 19.8101 20.9218 19.4402 20.7531C19.0725 20.5844 18.642 20.5 18.1489 20.5C17.6643 20.5 17.2317 20.5844 16.851 20.7531C16.4703 20.9218 16.1707 21.1565 15.9522 21.4572C15.7359 21.7578 15.6288 22.1093 15.631 22.5117C15.6288 23.0027 15.79 23.3932 16.1145 23.683C16.4389 23.9729 16.8813 24.1859 17.4415 24.3222L18.1651 24.5039C18.4073 24.5623 18.6118 24.6272 18.7783 24.6986C18.947 24.77 19.0747 24.8565 19.1612 24.9582C19.2499 25.0598 19.2942 25.1853 19.2942 25.3345C19.2942 25.4946 19.2456 25.6363 19.1482 25.7596C19.0509 25.8829 18.9135 25.9791 18.7361 26.0484C18.5609 26.1176 18.3544 26.1522 18.1164 26.1522C17.8741 26.1522 17.6568 26.1154 17.4642 26.0419C17.2739 25.9662 17.1214 25.8548 17.0067 25.7077C16.8065 25.442 16.5447 25.162 16.2124 25.1773C15.8748 25.1928 15.5851 25.4766 15.6201 25.8128C15.6406 26.0093 15.6879 26.1842 15.803 26.3534C16.0258 26.6757 16.3351 26.919 16.7309 27.0834C17.129 27.2478 17.5962 27.33 18.1326 27.33C18.6734 27.33 19.1352 27.2489 19.5181 27.0867C19.9031 26.9223 20.1973 26.6919 20.4006 26.3955C20.6061 26.097 20.71 25.7444 20.7121 25.3378C20.71 25.0609 20.6591 24.8154 20.5596 24.6012C20.4623 24.3871 20.3249 24.2011 20.1476 24.0432C19.9702 23.8853 19.7604 23.7522 19.5181 23.6441C19.2758 23.5359 19.0098 23.4494 18.7199 23.3845L18.1229 23.2417C17.978 23.2093 17.8417 23.1704 17.7141 23.1249C17.5864 23.0773 17.474 23.0222 17.3766 22.9594C17.2793 22.8946 17.2025 22.8178 17.1463 22.7291C17.0922 22.6404 17.0673 22.5366 17.0716 22.4176C17.0716 22.2748 17.1127 22.1472 17.1949 22.0347C17.2793 21.9222 17.4004 21.8346 17.5583 21.7719C17.7162 21.707 17.9098 21.6746 18.1391 21.6746C18.4766 21.6746 18.7437 21.747 18.9406 21.892C18.973 21.9158 19.0031 21.9413 19.0309 21.9683L19.039 21.9763Z" fill="#40404B"/>
<path fill-rule="evenodd" clip-rule="evenodd" d="M26.5711 26.6731C26.5711 27.0739 26.8429 27.3272 27.2759 27.3272C27.6445 27.3272 27.8518 27.143 27.9808 26.7007L28.3309 25.6642H30.731L31.0811 26.7145C31.2055 27.1476 31.4128 27.3272 31.8044 27.3272C32.2098 27.3272 32.5 27.0554 32.5 26.6731C32.5 26.5349 32.477 26.4105 32.4125 26.2308L30.5882 21.2832C30.3901 20.7396 30.0676 20.5 29.524 20.5C28.9989 20.5 28.6718 20.7488 28.4783 21.2878L26.6632 26.2308C26.6033 26.4013 26.5711 26.5579 26.5711 26.6731ZM30.4085 24.5862H28.6349L29.4964 21.8636H29.5286L30.4085 24.5862Z" fill="#40404B"/>
<path fill-rule="evenodd" clip-rule="evenodd" d="M21.7766 26.6039C21.7766 27.06 22.0345 27.3272 22.4722 27.3272C22.9098 27.3272 23.1678 27.06 23.1678 26.6039V25.1436H24.4116C25.8121 25.1436 26.7841 24.2315 26.7841 22.8678C26.7841 21.4996 25.8444 20.5921 24.4807 20.5921H22.4722C22.0345 20.5921 21.7766 20.8593 21.7766 21.3154V26.6039ZM24.1076 24.0564H23.1678V21.6931H24.1122C24.9092 21.6931 25.3699 22.1169 25.3699 22.8725C25.3699 23.6326 24.9046 24.0564 24.1076 24.0564Z" fill="#40404B"/>
<path d="M14.39 10.5859C10.2178 13.5802 7.5 18.4727 7.5 24C7.5 29.3532 10.0493 34.1109 14 37.1255M17.6247 8.77675C19.5861 7.95437 21.74 7.5 24 7.5C32.5533 7.5 39.5866 14.0082 40.4178 22.3428M40.3984 25.8412C39.4829 34.0873 32.4903 40.5 24 40.5C21.6823 40.5 19.4762 40.0221 17.4749 39.1595" stroke="#40404B" stroke-width="1.5" stroke-linecap="round"/>
</g>
<defs>
<clipPath id="clip0_1895_3503">
<rect width="48" height="48" fill="white"/>
</clipPath>
</defs>
</svg>
