<svg width="50" height="50" viewBox="0 0 50 50" fill="none" xmlns="http://www.w3.org/2000/svg">
<path d="M44.5708 35.5786C38.6631 43.4499 26.0434 40.7929 17.9525 41.1751C17.9525 41.1751 16.5202 41.2548 15.0775 41.4923C15.0775 41.4923 15.623 41.2596 16.3187 41.0197C22.0013 39.0546 24.6868 38.6597 28.1397 36.8861C34.6274 33.5627 41.0842 26.3237 42.398 18.8037C39.9286 26.0363 32.4181 32.2612 25.5795 34.7889C20.8988 36.5162 12.434 38.1971 12.4328 38.1978C12.4368 38.2038 12.0955 38.0206 12.0907 38.0167C6.33407 35.2159 6.16796 22.7479 16.6232 18.7288C21.2072 16.9655 25.5919 17.934 30.5473 16.7545C35.8326 15.4979 41.954 11.5362 44.4421 6.35673C47.2313 14.63 50.5821 27.5737 44.5708 35.5786ZM44.6735 3.79304C43.9702 5.46394 43.112 6.96962 42.1224 8.31636C37.7672 3.84652 31.6883 1.06159 24.969 1.06159C11.7517 1.06159 1 11.8146 1 25.0294C1 31.9571 3.95703 38.205 8.67146 42.5844L9.19635 43.0495C8.31982 42.3347 8.18504 41.0475 8.89545 40.1701C9.61022 39.2924 10.8987 39.1564 11.7756 39.8673C12.6549 40.5797 12.7888 41.8701 12.0769 42.749C11.3676 43.6283 10.0768 43.7611 9.19873 43.0514L9.55592 43.3678C13.7261 46.8791 19.1017 49 24.969 49C37.6027 49 47.9767 39.1683 48.8647 26.7591C49.5223 20.6832 47.7277 12.9682 44.6735 3.79304Z" fill="#5FB832"/>
</svg>
