<svg width="684" height="482" viewBox="0 0 684 482" fill="none" xmlns="http://www.w3.org/2000/svg">
<path opacity="0.688056" d="M496.485 83.7885C572.062 101.859 638.759 103.65 673.336 149.737C707.791 195.887 649.975 247.903 623.969 306.51C598.087 365.054 543.386 416.051 482.416 437.937C421.505 459.666 354.079 452.415 272.477 449.291C190.999 446.103 95.2259 447.102 75.1686 411.481C54.9261 375.828 2.06614 254.362 34.0334 180.713C66.0616 107.16 154.39 63.5489 201.022 31.229C316.887 -39.6147 421.031 65.6529 496.485 83.7885Z" fill="white"/>
<path opacity="0.688056" d="M425.07 68.4271C458.478 77.259 489.011 99.3539 507.064 129.109C525.07 158.912 504.335 196.922 497.586 237.96C490.885 278.948 471.397 316.123 447.116 333.791C422.85 351.35 393.695 349.502 358.825 351.108C324.002 352.665 283.418 357.723 272.295 334.42C261.091 311.104 251.739 271.015 259.917 219.478C268.129 168.003 248.644 115.69 266.074 91.5834C310.073 38.1182 391.711 59.5455 425.07 68.4271Z" fill="#E7ECF8"/>
<path d="M131.602 58C134.642 64.2609 148.886 69 166 69C183.114 69 197.358 64.2609 200.398 58H201V68H200.974C200.989 68.166 201 68.3325 201 68.5C201 75.9558 185.33 82 166 82C146.67 82 131 75.9558 131 68.5C131 68.3325 131.011 68.166 131.026 68H131V58H131.602Z" fill="#E7ECF8"/>
<path d="M391 122.5C391 221.339 391 120.161 391 219" stroke="#40404B" stroke-linecap="round" stroke-linejoin="round"/>
<path d="M395.013 117.662L426.338 148.987C428.554 151.203 428.554 154.797 426.338 157.013L395.013 188.338C392.797 190.554 389.203 190.554 386.987 188.338L355.662 157.013C353.446 154.797 353.446 151.203 355.662 148.987L386.987 117.662C389.203 115.446 392.797 115.446 395.013 117.662Z" fill="white" stroke="#5567D5" stroke-miterlimit="5"/>
<path d="M371 23H405C408.314 23 411 25.6863 411 29V63C411 66.3137 408.314 69 405 69H371C367.686 69 365 66.3137 365 63V29C365 25.6863 367.686 23 371 23Z" fill="white"/>
<path d="M406 284L372 284C368.686 284 366 281.314 366 278L366 244C366 240.686 368.686 238 372 238L406 238C409.314 238 412 240.686 412 244L412 278C412 281.314 409.314 284 406 284Z" fill="white"/>
<path d="M408 22C411.314 22 414 24.6863 414 28V62C414 65.3137 411.314 68 408 68H374C370.686 68 368 65.3137 368 62M368 28C368 24.6863 370.686 22 374 22H391" stroke="#41415B" stroke-miterlimit="10" stroke-linecap="round"/>
<path d="M376 280C372.686 280 370 277.314 370 274L370 240C370 236.686 372.686 234 376 234L410 234C413.314 234 416 236.686 416 240M416 274C416 277.314 413.314 280 410 280L391 280" stroke="#41415B" stroke-miterlimit="10" stroke-linecap="round"/>
<rect x="2" y="229" width="124" height="25" rx="4" fill="white"/>
<rect x="2" y="197" width="124" height="25" rx="4" fill="white"/>
<circle cx="12.5" cy="209.5" r="3.5" fill="#CCD1F2"/>
<circle cx="27.5" cy="209.5" r="3.5" fill="#CCD1F2"/>
<circle cx="42.5" cy="209.5" r="3.5" fill="#CCD1F2"/>
<circle cx="57.5" cy="209.5" r="3.5" fill="#CCD1F2"/>
<path d="M117 228H101.25M64 228H5C2.79086 228 1 229.791 1 232V234.75M50 255H106.25M16.75 255H5C2.79086 255 1 253.209 1 251L1 244" stroke="#41415B" stroke-miterlimit="10" stroke-linecap="round"/>
<path d="M64 196H5C2.79086 196 1 197.791 1 200V202.75M85.5 223H123.625C125.489 223 127 221.489 127 219.625M16.75 223H5C2.79086 223 1 221.209 1 219L1 212M111.25 196H123C125.209 196 127 197.791 127 200V209.5" stroke="#41415B" stroke-miterlimit="10" stroke-linecap="round"/>
<path d="M289.816 275.398C294.695 266.164 292.33 256.113 290.185 259.422C289.47 260.529 280.697 282.39 278.792 284.687C277.191 284.859 275.928 285.166 275.424 285.648C273.455 287.518 275.138 299.47 274.431 300.584C273.723 301.697 247.256 350.129 246.047 351.677C245.955 352.215 240.824 334.687 239.428 331.623C236.621 334.272 229.503 339.119 227.316 340.018C227.724 342.036 230.863 367.123 229.961 375.417C231.421 377.853 239.675 384.953 242.939 384.709C249.224 384.239 255.727 381.307 257.393 379.957C264.348 374.346 287.764 306.859 289.734 305.347C293.665 302.309 299.85 292.381 300.368 286.35C300.171 283.713 302.192 281.832 289.795 275.38" fill="white"/>
<path d="M256.393 326.545C263.698 313.385 271.521 299.212 271.901 298.616C272.603 297.519 270.94 285.747 272.892 283.903C274.844 282.06 288.22 282.758 288.332 284.265C288.445 285.771 283.407 291.162 282.11 291.631" stroke="#40404B" stroke-linecap="round" stroke-linejoin="round"/>
<path d="M236.598 328.029C238.036 331.082 243.122 348.114 243.218 347.579C243.537 347.179 245.57 343.748 248.436 338.836" stroke="#40404B" stroke-linecap="round" stroke-linejoin="round"/>
<path d="M286.89 273.66C291.609 264.412 289.287 254.327 287.21 257.64C286.518 258.749 278.046 280.65 276.201 282.948" stroke="#40404B" stroke-linecap="round" stroke-linejoin="round"/>
<path d="M292.986 275C291.801 278.219 290.358 281.345 288.67 284.347" stroke="#40404B" stroke-linecap="round" stroke-linejoin="round"/>
<path d="M296.989 281C296.727 283.359 295.38 286.363 293.596 289.276" stroke="#40404B" stroke-linecap="round" stroke-linejoin="round"/>
<path fill-rule="evenodd" clip-rule="evenodd" d="M199.4 285.854C218.308 275.546 246.032 327.454 243.108 336.266C240.185 345.078 205.342 357.38 199.494 353.657C193.645 349.933 181.795 295.45 199.4 285.854Z" fill="#A6B3FF"/>
<path d="M525.79 11.9771V37.4173H525.949V64.5756L506.974 44.2871H452.413V11.9771H525.79Z" fill="white"/>
<path d="M449 24.4944V9H489.731" stroke="#40404B" stroke-linecap="round" stroke-linejoin="round"/>
<path d="M514.039 18.8085H460.626" stroke="#40404B" stroke-linecap="round" stroke-linejoin="round"/>
<path d="M479.611 31.4318H460.964" stroke="#40404B" stroke-linecap="round" stroke-linejoin="round"/>
<path fill-rule="evenodd" clip-rule="evenodd" d="M230.989 209.774C231.489 197.739 215.299 181 192.376 181C145.916 181 136.909 228.619 101.299 293.361C91.4121 311.336 41 349.815 41 396.66C41 443.504 78.1632 455 113.233 455C148.303 455 224.83 383.9 224.83 363.83C224.83 343.76 211.602 316.109 211.602 287.9C211.602 259.69 215.499 243.774 215.499 236.345C215.499 228.915 230.753 231.574 230.989 209.774Z" fill="#FF9D52"/>
<path d="M88.4494 302.873C70.6023 323.442 37 356.16 37 394.447C37 441.464 74.3588 453 109.613 453C144.868 453 221.797 381.641 221.797 361.497C221.797 341.354 208.496 313.605 208.496 285.294C208.496 256.983 212.413 241.006 212.413 233.551C212.413 226.095 227.753 228.761 227.989 206.882C228.491 194.803 212.219 178 189.173 178C152.814 178 139.273 206.963 118.171 250.452" stroke="#40404B" stroke-linecap="round" stroke-linejoin="round"/>
<path d="M207.637 298.224C224.155 294.445 236.946 339.704 234.755 348.206C228.74 350.38 221.483 350.663 220.149 348.586C218.815 346.508 197.735 300.489 207.637 298.224Z" stroke="#40404B" stroke-linecap="round" stroke-linejoin="round"/>
<path fill-rule="evenodd" clip-rule="evenodd" d="M184.343 287C256.074 287 232.489 445.826 220.502 458.799C208.514 471.773 123.814 487.302 116.345 480.228C108.876 473.154 116.15 286.799 184.343 287Z" fill="#A6B3FF"/>
<path d="M176 469.357C148.78 475.719 117.713 479.389 113.333 475.233C110.768 472.797 109.95 449.045 112.773 419" stroke="#40404B" stroke-linecap="round" stroke-linejoin="round"/>
<path d="M229.294 355C232.672 398.305 223.164 446.754 216.909 453.628C214.401 456.384 208.613 459.258 201 462" stroke="#40404B" stroke-linecap="round" stroke-linejoin="round"/>
<path d="M115 401C122.443 346.64 141.495 282.885 181.4 283C209.053 283 222.547 306.607 228 336.367" stroke="#40404B" stroke-linecap="round" stroke-linejoin="round"/>
<path fill-rule="evenodd" clip-rule="evenodd" d="M141.08 376.684C143.313 382.952 165.596 442.953 176.023 447.221C196.854 455.735 266.117 391.698 273.619 388.548C282.027 385.146 280.955 388.491 288.208 388.491C295.46 388.491 302 380.028 302 374.047C302 368.066 293.266 374.047 287 374.047C280.734 374.047 268.343 380.897 263.5 383C258.657 385.103 203.924 403.134 201.076 403.897C199.461 396.652 192.336 373.488 188.347 364.242C184.357 354.996 138.846 370.417 141.08 376.684Z" fill="white"/>
<path d="M208.749 400.766C213.5 399.139 260.831 375.485 263.634 372.984C266.437 370.482 277.6 355.326 278.482 354.365C279.365 353.404 284.114 352.158 284.579 352.723C287.434 356.197 280.295 365.02 279.388 366.401C283.034 364.083 305.638 352.027 307.931 353.226C324.415 361.851 313.704 384.125 301.71 387.88C298.427 388.911 280.857 392.293 279.034 393.395C277.211 394.496 197.716 440.088 195.969 440.921C195.816 436.775 203.99 402.388 208.749 400.766Z" fill="white"/>
<path d="M197.5 405.5C195.872 398.226 187.768 371.176 183.746 361.892C179.724 352.608 133.826 368.099 136.08 374.391C138.334 380.684 160.804 440.932 171.319 445.218C175.749 447.021 182.346 445.584 190.077 442.166" stroke="#40404B" stroke-linecap="round" stroke-linejoin="round"/>
<path fill-rule="evenodd" clip-rule="evenodd" d="M143.591 301.089C167.504 290.813 195.02 356.394 190.511 366.668C186.001 376.942 142.691 387.823 136.073 382.685C129.454 377.546 121.328 310.654 143.591 301.089Z" fill="#A6B3FF"/>
<path d="M180 371.487C165.802 379.065 138.996 384.686 133.903 380.659C132.18 379.303 130.363 373.709 129 366" stroke="#40404B" stroke-linecap="round" stroke-linejoin="round"/>
<path d="M127 329.562C128.309 315.382 132.372 302.834 141.108 299.087C160.011 290.983 181.165 330.13 187 352" stroke="#40404B" stroke-linecap="round" stroke-linejoin="round"/>
<path fill-rule="evenodd" clip-rule="evenodd" d="M176.576 255.233C177.451 261.752 177.187 287.216 175 295.821C178.239 299.21 193.638 303.041 202.562 299.732C202.037 294.082 202.738 279.829 203.963 274.874C205.188 269.92 175.701 248.715 176.576 255.233Z" fill="white"/>
<path d="M199.563 296.288C199.038 290.693 199.739 276.579 200.963 271.673C202.187 266.767 172.701 245.767 173.576 252.221C174.451 258.675 174.188 283.895 172 292.414C173.716 294.194 178.851 296.094 184.628 297" stroke="#40404B" stroke-linecap="round" stroke-linejoin="round"/>
<path fill-rule="evenodd" clip-rule="evenodd" d="M170.399 240.226C167.766 217.654 178.435 197.912 194.232 196.129C210.029 194.347 224.965 211.206 227.6 233.775C230.235 256.345 219.565 276.09 203.769 277.871C187.973 279.652 173.033 262.798 170.399 240.226Z" fill="white"/>
<path d="M225 242.689C223.251 259.418 213.778 272.45 200.939 273.872C185.064 275.633 170.051 258.979 167.402 236.687C164.753 214.394 175.479 194.888 191.354 193.128C206.734 191.423 221.31 207.001 224.607 228.252" stroke="#40404B" stroke-linecap="round" stroke-linejoin="round"/>
<path fill-rule="evenodd" clip-rule="evenodd" d="M224.967 221.26C221.867 221.26 213.771 218.509 211.622 211.694C209.279 218.134 190.81 239.454 179.297 243.204C180.246 247.518 181.069 263.023 169.492 271.15C157.915 279.277 149.185 226.7 154.69 217.384C160.195 208.069 183.599 189.938 190.429 190C197.258 190.062 226.107 190.188 224.967 221.26Z" fill="#FF9D52"/>
<path d="M195 229C189.143 234.446 182.746 239.211 177.658 240.805C178.411 244.099 179.089 253.919 174 262" stroke="#40404B" stroke-linecap="round" stroke-linejoin="round"/>
<path d="M223 218.532C220.061 218.532 212.383 215.503 210.344 208C209.615 210.324 207.244 214.411 204 219" stroke="#40404B" stroke-linecap="round" stroke-linejoin="round"/>
<path fill-rule="evenodd" clip-rule="evenodd" d="M170 245.501C170 244.018 170.439 242.568 171.263 241.334C172.087 240.101 173.259 239.139 174.629 238.571C175.999 238.003 177.507 237.855 178.962 238.144C180.417 238.433 181.754 239.147 182.803 240.196C183.852 241.245 184.566 242.581 184.856 244.036C185.145 245.491 184.997 246.999 184.429 248.37C183.862 249.74 182.9 250.912 181.667 251.736C180.434 252.56 178.983 253 177.5 253C176.515 253 175.54 252.806 174.63 252.43C173.72 252.053 172.893 251.501 172.197 250.804C171.5 250.108 170.948 249.281 170.571 248.371C170.194 247.461 170 246.486 170 245.501Z" fill="white"/>
<path d="M175.616 250C174.468 250 173.335 249.761 172.302 249.302C171.268 248.842 170.361 248.175 169.648 247.348C168.935 246.521 168.434 245.557 168.184 244.528C167.933 243.499 167.939 242.431 168.201 241.404C168.463 240.377 168.974 239.417 169.696 238.597C170.418 237.777 171.332 237.118 172.371 236.668C173.409 236.218 174.545 235.99 175.693 236C176.841 236.011 177.971 236.259 179 236.727" stroke="#40404B" stroke-linecap="round" stroke-linejoin="round"/>
<path d="M211 241C211 244.993 213.629 250.571 216 253" stroke="#40404B" stroke-linecap="round" stroke-linejoin="round"/>
<path fill-rule="evenodd" clip-rule="evenodd" d="M199 234.5C199 233.124 199.896 232 201.001 232C202.106 232 203 233.12 203 234.5C203 235.881 202.106 237 201.001 237C199.896 237 199 235.881 199 234.5Z" fill="#40404B"/>
<path d="M197 256C198.3 258.535 200.824 259.83 204 260" stroke="#40404B" stroke-linecap="round" stroke-linejoin="round"/>
<path d="M197.5 405.5C202.852 403.824 226 395.778 261.222 370.085C265.495 366.967 274.231 352.627 277.258 350.815C280.285 349.002 282.253 348.064 283.51 350.041C284.767 352.018 280.509 360.056 276.317 363.925C283.887 358.499 300.799 350.764 306.446 349.886" stroke="#40404B" stroke-linecap="round" stroke-linejoin="round"/>
<path d="M229.407 417.422C213.464 426.807 199.022 435.38 196.472 436.948" stroke="#40404B" stroke-linecap="round" stroke-linejoin="round"/>
<path d="M300.483 383.359C293.931 385.429 281.287 387.9 275.104 390.936C273.339 391.803 266.586 395.791 257.703 401.132" stroke="#40404B" stroke-linecap="round" stroke-linejoin="round"/>
<path d="M284.233 366.244C286.386 365.093 292.948 362.161 299.421 359.612C305.433 357.238 311.367 355.202 313.62 355.227" stroke="#40404B" stroke-linecap="round" stroke-linejoin="round"/>
<path d="M288.103 373.028C290.273 371.785 296.879 368.603 303.392 365.83C309.44 363.252 315.409 361.025 317.666 361.026" stroke="#40404B" stroke-linecap="round" stroke-linejoin="round"/>
<path d="M288.844 380.27C290.772 379.176 296.639 376.376 302.423 373.934C307.796 371.666 313.096 369.711 315.103 369.711" stroke="#40404B" stroke-linecap="round" stroke-linejoin="round"/>
<path d="M14.3633 236.565C14.4333 235.812 15.5667 235.812 15.6367 236.565L15.8658 239.03C15.9055 239.458 16.3698 239.718 16.7711 239.538L19.0863 238.497C19.7931 238.18 20.3598 239.132 19.723 239.567L17.6369 240.993C17.2753 241.24 17.2753 241.76 17.6369 242.007L19.723 243.433C20.3598 243.868 19.7931 244.82 19.0863 244.503L16.7711 243.462C16.3698 243.282 15.9055 243.542 15.8658 243.97L15.6367 246.435C15.5667 247.188 14.4333 247.188 14.3633 246.435L14.1342 243.97C14.0945 243.542 13.6302 243.282 13.2289 243.462L10.9137 244.503C10.2069 244.82 9.64016 243.868 10.277 243.433L12.3631 242.007C12.7247 241.76 12.7247 241.24 12.3631 240.993L10.277 239.567C9.64016 239.132 10.2069 238.18 10.9137 238.497L13.2289 239.538C13.6302 239.718 14.0945 239.458 14.1342 239.03L14.3633 236.565Z" fill="#CCD1F2"/>
<path d="M28.3633 236.565C28.4333 235.812 29.5667 235.812 29.6367 236.565L29.8658 239.03C29.9055 239.458 30.3698 239.718 30.7711 239.538L33.0863 238.497C33.7931 238.18 34.3598 239.132 33.723 239.567L31.6369 240.993C31.2753 241.24 31.2753 241.76 31.6369 242.007L33.723 243.433C34.3598 243.868 33.7931 244.82 33.0863 244.503L30.7711 243.462C30.3698 243.282 29.9055 243.542 29.8658 243.97L29.6367 246.435C29.5667 247.188 28.4333 247.188 28.3633 246.435L28.1342 243.97C28.0945 243.542 27.6302 243.282 27.2289 243.462L24.9137 244.503C24.2069 244.82 23.6402 243.868 24.277 243.433L26.3631 242.007C26.7247 241.76 26.7247 241.24 26.3631 240.993L24.277 239.567C23.6402 239.132 24.2069 238.18 24.9137 238.497L27.2289 239.538C27.6302 239.718 28.0945 239.458 28.1342 239.03L28.3633 236.565Z" fill="#CCD1F2"/>
<path d="M42.3633 236.565C42.4333 235.812 43.5667 235.812 43.6367 236.565L43.8658 239.03C43.9055 239.458 44.3698 239.718 44.7711 239.538L47.0863 238.497C47.7931 238.18 48.3598 239.132 47.723 239.567L45.6369 240.993C45.2753 241.24 45.2753 241.76 45.6369 242.007L47.723 243.433C48.3598 243.868 47.7931 244.82 47.0863 244.503L44.7711 243.462C44.3698 243.282 43.9055 243.542 43.8658 243.97L43.6367 246.435C43.5667 247.188 42.4333 247.188 42.3633 246.435L42.1342 243.97C42.0945 243.542 41.6302 243.282 41.2289 243.462L38.9137 244.503C38.2069 244.82 37.6402 243.868 38.277 243.433L40.3631 242.007C40.7247 241.76 40.7247 241.24 40.3631 240.993L38.277 239.567C37.6402 239.132 38.2069 238.18 38.9137 238.497L41.2289 239.538C41.6302 239.718 42.0945 239.458 42.1342 239.03L42.3633 236.565Z" fill="#CCD1F2"/>
<path d="M56.3633 236.565C56.4333 235.812 57.5667 235.812 57.6367 236.565L57.8658 239.03C57.9055 239.458 58.3698 239.718 58.7711 239.538L61.0863 238.497C61.7931 238.18 62.3598 239.132 61.723 239.567L59.6369 240.993C59.2753 241.24 59.2753 241.76 59.6369 242.007L61.723 243.433C62.3598 243.868 61.7931 244.82 61.0863 244.503L58.7711 243.462C58.3698 243.282 57.9055 243.542 57.8658 243.97L57.6367 246.435C57.5667 247.188 56.4333 247.188 56.3633 246.435L56.1342 243.97C56.0945 243.542 55.6302 243.282 55.2289 243.462L52.9137 244.503C52.2069 244.82 51.6402 243.868 52.277 243.433L54.3631 242.007C54.7247 241.76 54.7247 241.24 54.3631 240.993L52.277 239.567C51.6402 239.132 52.2069 238.18 52.9137 238.497L55.2289 239.538C55.6302 239.718 56.0945 239.458 56.1342 239.03L56.3633 236.565Z" fill="#CCD1F2"/>
<path d="M201 55.5C201 62.9558 185.33 69 166 69C146.67 69 131 62.9558 131 55.5C131 52.9372 131 45 132.5 45C138.638 41.1031 153.314 42 166 42C177.155 42 194.091 38.3647 200.5 41.5C202.5 42.4784 201 52.3467 201 55.5Z" fill="white"/>
<ellipse cx="164" cy="42.5" rx="35" ry="13.5" fill="#F7F8FB"/>
<path d="M131 68.5C131 75.9559 146.67 82 166 82C185.33 82 201 75.9558 201 68.5" stroke="#40404B" stroke-linecap="round" stroke-linejoin="round"/>
<path d="M131 80C131 83.2636 134.002 86.2567 139 88.5909M201 80C201 87.4558 185.33 93.5 166 93.5" stroke="#40404B" stroke-linecap="round" stroke-linejoin="round"/>
<path d="M131 43V80" stroke="#40404B" stroke-linecap="round" stroke-linejoin="round"/>
<path d="M201 42.2125V79.9999" stroke="#40404B" stroke-linecap="round" stroke-linejoin="round"/>
<path d="M131 55.5C131 59.3727 135.228 62.8645 142 65.3263M201 55.5C201 62.9558 185.33 69 166 69" stroke="#40404B" stroke-linecap="round" stroke-linejoin="round"/>
<path d="M201 42.5C201 35.0442 185.33 29 166 29C146.67 29 131 35.0442 131 42.5C131 49.9558 146.67 56 166 56" stroke="#40404B" stroke-linecap="round" stroke-linejoin="round"/>
<path d="M168 94V107.5" stroke="#40404B" stroke-linecap="round" stroke-linejoin="round"/>
<path d="M185.5 112L172 112" stroke="#40404B" stroke-linecap="round" stroke-linejoin="round"/>
<path d="M163.5 112L150 112" stroke="#40404B" stroke-linecap="round" stroke-linejoin="round"/>
<circle cx="168" cy="112" r="4" stroke="#40404B" stroke-linecap="round" stroke-linejoin="round"/>
<path fill-rule="evenodd" clip-rule="evenodd" d="M569 172.544C568.929 166.274 560.946 152.511 558.072 153.013C555.197 153.516 536.639 163.321 530.742 166.418C524.845 169.516 456.602 167.31 448.198 167.066C439.793 166.821 437.173 159.187 427 154C425.115 153.039 419 150 412.005 150C409.5 150 407.659 150.716 407.5 154C407.447 155.104 419.933 156.782 420 158C420.231 162.166 411.219 164.834 409 169.5C407.149 173.394 405.54 173.456 405.5 174.5C405.211 181.666 424.483 177.756 429 179C433.518 180.244 522.431 202.816 527.84 202.998C533.25 203.18 558.661 190.84 560.874 187.203C563.087 183.566 569.072 178.815 569 172.544Z" fill="white"/>
<path d="M562 132C565.975 129.43 570.07 127.324 573 127" stroke="#40404B" stroke-linecap="round" stroke-linejoin="round"/>
<path d="M556 166C552.018 159.452 546.397 147.372 548.43 144.501C548.929 143.796 550.169 142.534 551.868 141" stroke="#40404B" stroke-linecap="round" stroke-linejoin="round"/>
<path fill-rule="evenodd" clip-rule="evenodd" d="M563.206 175.852C560.641 172.948 550.022 150.158 552.324 146.661C554.627 143.164 574.881 126.174 587 128.161C583.747 137.919 565.768 178.757 563.206 175.852Z" fill="#5567D5"/>
<path fill-rule="evenodd" clip-rule="evenodd" d="M598.33 117.201C659.627 94.8457 681.268 249.773 677.608 265.105C661.93 280.765 599.956 291.631 592.235 286.871C560.964 252.932 536.404 139.783 598.33 117.201Z" fill="#5567D5"/>
<path d="M555.839 201C552.933 172.144 557.247 143.437 574 126" stroke="#40404B" stroke-linecap="round" stroke-linejoin="round"/>
<path d="M664.698 200C671.663 229.342 674.028 256.075 672.604 262.005C656.817 277.734 594.415 288.647 586.641 283.866C574.618 270.856 563.581 246.234 558 219.515" stroke="#40404B" stroke-linecap="round" stroke-linejoin="round"/>
<path d="M574 125.952C579.216 120.472 585.66 116.109 593.49 113.22C625.478 101.413 646.63 138.635 659 179" stroke="#40404B" stroke-linecap="round" stroke-linejoin="round"/>
<path d="M469.001 163.991C456.63 164.027 446.941 163.952 445.555 163.709C441.62 163.024 424.501 151 419.5 150C414.5 149 407.708 148.879 407 151C406 154 409.222 155.704 411 156C414 156.5 417.5 156.5 420 159" stroke="#40404B" stroke-linecap="round" stroke-linejoin="round"/>
<path d="M550 152C543.169 155.274 532.465 160.456 527.802 163.261C524.108 163.54 510.355 163.816 495 164" stroke="#40404B" stroke-linecap="round" stroke-linejoin="round"/>
<path d="M404 174.5C411 181 423.006 176.777 427.5 178C431.994 179.223 519.863 198.823 525.239 198.998C530.614 199.173 552.804 188.561 555 184.979" stroke="#40404B" stroke-linecap="round" stroke-linejoin="round"/>
<path fill-rule="evenodd" clip-rule="evenodd" d="M586.545 189.417C583.261 196.307 576.008 215.383 573.906 222.308C567.76 225.846 510.849 253.598 494.581 264.777C490.349 265.244 477.123 260.437 473.831 260.755C470.54 261.074 469.866 263.241 469.866 263.241C462.414 263.649 459.511 279.115 468.985 282.178C478.46 285.242 484.631 287.955 491.276 284.097C497.92 280.24 594.25 255.853 601.426 250.908C611.107 244.244 616.614 229.822 622.206 217.927C628.068 205.455 625.389 212.037 625.389 207.398C625.389 202.759 589.832 182.527 586.545 189.417Z" fill="white"/>
<path d="M456 262C458.917 264.588 466.212 267.218 471 268" stroke="#40404B" stroke-linecap="round" stroke-linejoin="round"/>
<path d="M460 270C463.293 272.71 473.048 275.623 477 274.883" stroke="#40404B" stroke-linecap="round" stroke-linejoin="round"/>
<path d="M586 251C591.884 249.127 596.051 247.642 597.486 246.797C605.254 242.21 620.542 212.225 621 205" stroke="#40404B" stroke-linecap="round" stroke-linejoin="round"/>
<path d="M463 277.441C467.108 279.856 477.6 282.608 481.709 281.881C485.819 281.154 489.645 277.575 495.88 276.172C499.435 275.37 529.427 267.479 556 260" stroke="#40404B" stroke-linecap="round" stroke-linejoin="round"/>
<path d="M583 187C579.679 193.761 572.346 212.487 570.22 219.284C564.004 222.754 506.447 249.996 489.997 260.968C485.717 261.428 472.341 256.707 469.012 257.023C465.684 257.339 465 259.462 465 259.462" stroke="#40404B" stroke-linecap="round" stroke-linejoin="round"/>
<path fill-rule="evenodd" clip-rule="evenodd" d="M636.923 126.976C664.192 138.762 641.774 206.526 632.72 212.803C621.164 215.244 582.107 194.307 576.04 187.573C574.781 181.573 603.547 112.557 636.923 126.976Z" fill="#5567D5"/>
<path d="M599 199C587.55 193.547 576.922 187.154 574 184" stroke="#40404B" stroke-linecap="round" stroke-linejoin="round"/>
<path d="M587 152.976C598.402 134.285 615.886 115.834 634.841 123.978C662.281 135.762 639.722 203.526 630.611 209.803C627.366 210.485 621.965 209.345 615.734 207.202" stroke="#40404B" stroke-linecap="round" stroke-linejoin="round"/>
<path fill-rule="evenodd" clip-rule="evenodd" d="M588.108 102.594C590.703 107.103 594.096 116.45 595.14 123.888C598.778 124.654 614.451 121.363 618 118.298C616.593 111.93 611.793 89.1648 612.332 85.5063C612.871 81.8479 586.093 99.0963 588.108 102.594Z" fill="white"/>
<path d="M603.905 120.371C608.239 119.25 612.393 117.727 614 116.253C612.638 109.706 607.998 86.2861 608.519 82.521C609.04 78.756 583.156 96.5095 585.105 100.101C587.613 104.739 590.892 114.354 591.901 122" stroke="#40404B" stroke-linecap="round" stroke-linejoin="round"/>
<path fill-rule="evenodd" clip-rule="evenodd" d="M555 67C555 44.91 568.43 27 585 27C601.57 27 615 44.91 615 67C615 89.09 601.57 107 585 107C568.43 107 555 89.0919 555 67Z" fill="white"/>
<path d="M569 64C568.578 67.3576 566.465 72.1937 564 74" stroke="#40404B" stroke-linecap="round" stroke-linejoin="round"/>
<path fill-rule="evenodd" clip-rule="evenodd" d="M576 58.0004C576 56.8915 576.671 56 577.5 56C578.329 56 579 56.8957 579 58.0004C579 59.1051 578.329 60 577.5 60C576.671 60 576 59.1051 576 58.0004Z" fill="#40404B"/>
<path d="M578 84.502C578 86.4316 579.343 87.9999 581 87.9999" stroke="#40404B" stroke-linecap="round" stroke-linejoin="round"/>
<path d="M552.456 70.6349C552.151 68.2696 551.999 65.8865 552 63.501C552 41.1295 565.208 23 581.499 23C597.79 23 611 41.1295 611 63.501C611 85.8724 597.792 104 581.499 104C570.323 104 560.597 95.4672 555.592 82.8864" stroke="#40404B" stroke-linecap="round" stroke-linejoin="round"/>
<path fill-rule="evenodd" clip-rule="evenodd" d="M613.543 73.4071C615.555 70.4031 622.685 28.471 607.668 22.0602C604.671 20.7772 604.058 24.1763 602.39 27.7273C599.953 16.9167 585.469 3.51881 580.514 4.0133C575.559 4.50778 570.991 16.1068 571.071 19.4261C567.918 14.8336 558.608 7.98672 555.055 8.42086C545.582 9.57726 551.003 31.1712 552.574 35.057C548.716 34.6287 541.478 38.2498 541.042 43.767C540.328 52.6658 548.948 58.9696 553.141 59.4816C557.334 59.9936 565.099 49.9306 572.199 47.8748C576.56 51.0987 577.523 52.1752 579.546 51.8949C581.569 51.6146 587.992 48.4549 589.881 49.5393C591.769 50.6236 596.29 65.5245 598.712 66.2818C601.133 67.0391 611.53 76.4149 613.543 73.4071Z" fill="#8D91A3"/>
<path d="M549.945 32.0356C545.963 31.5942 538.493 35.2947 538.043 40.9319C537.309 50.0191 546.205 56.4577 550.532 56.9807C553.651 57.3585 558.686 52.1209 564 48.3826" stroke="#40404B" stroke-linecap="round" stroke-linejoin="round"/>
<path d="M610 23.4328C608.736 21.5505 607.159 20.1073 605.207 19.2686C602.204 17.9711 601.589 21.4088 599.917 25C597.474 14.0668 582.955 0.518947 577.988 1.01314C573.021 1.50733 568.442 13.2419 568.517 16.6027C565.356 11.9621 556.024 5.03555 552.46 5.47264C546.911 6.15781 546.462 13.9034 547.365 21.0071" stroke="#40404B" stroke-linecap="round" stroke-linejoin="round"/>
<path d="M569 44.6767C573.38 47.9253 574.347 49.0081 576.377 48.7296C578.407 48.451 584.861 45.2613 586.758 46.3539C588.654 47.4466 593.192 62.4634 595.626 63.2246C598.061 63.9857 608.506 73.4254 610.528 70.4063C611.706 68.6408 614.629 53.5553 613.879 40" stroke="#40404B" stroke-linecap="round" stroke-linejoin="round"/>
<path fill-rule="evenodd" clip-rule="evenodd" d="M596 73.998C596 72.2181 596.529 70.4782 597.518 68.9984C598.507 67.5186 599.913 66.3654 601.557 65.6845C603.202 65.0036 605.011 64.8257 606.757 65.1732C608.503 65.5207 610.106 66.378 611.365 67.6367C612.623 68.8955 613.48 70.4991 613.827 72.2449C614.174 73.9907 613.996 75.8002 613.315 77.4446C612.633 79.089 611.48 80.4945 610 81.4834C608.52 82.4722 606.78 83 605 83C603.818 83 602.647 82.7671 601.555 82.3147C600.463 81.8623 599.471 81.1992 598.635 80.3633C597.8 79.5273 597.137 78.5349 596.685 77.4428C596.232 76.3506 596 75.1801 596 73.998Z" fill="white"/>
<path d="M596 66.0922C597.215 65.0979 598.691 64.4262 600.274 64.1465C601.858 63.8668 603.493 63.9891 605.01 64.501C606.526 65.0128 607.87 65.8956 608.902 67.0581C609.933 68.2206 610.616 69.6207 610.879 71.1137C611.142 72.6068 610.975 74.1386 610.397 75.5511C609.818 76.9635 608.849 78.2053 607.588 79.1482C606.328 80.0912 604.822 80.701 603.226 80.9148C601.631 81.1285 600.004 80.9384 598.513 80.3642" stroke="#40404B" stroke-linecap="round" stroke-linejoin="round"/>
<path d="M537.273 401.006C538.65 398.177 539.349 395.239 539.349 392.264C539.349 381.09 530.259 372 519.085 372C510.825 372 503.36 377.13 500.31 384.832C497.575 383.058 494.438 382.124 491.197 382.124C481.919 382.124 474.371 389.672 474.371 398.95C474.371 399.662 474.455 400.349 474.554 401.019C466.671 402.574 461 409.419 461 417.478C461 426.755 468.548 434.303 477.826 434.303C477.888 434.303 493.938 434.301 507.482 434.301C521.025 434.301 534.11 434.301 534.173 434.301C543.452 434.303 551 426.756 551 417.478C551 409.447 545.145 402.484 537.273 401.006Z" fill="white"/>
<path d="M541.273 397.006C549.145 398.484 555 405.447 555 413.478C555 422.756 547.452 430.303 538.173 430.301C538.11 430.301 525.025 430.301 511.482 430.301C497.938 430.301 481.888 430.303 481.826 430.303C472.548 430.303 465 422.755 465 413.478M543.349 388.264C543.349 377.09 534.259 368 523.085 368C514.825 368 507.36 373.13 504.31 380.832C501.575 379.058 498.438 378.124 495.197 378.124C485.919 378.124 478.371 385.672 478.371 394.95C478.371 395.662 478.455 396.349 478.554 397.019" stroke="#40404B" stroke-linecap="round" stroke-linejoin="round"/>
<path d="M509.5 456V401M509.5 401L499.5 411M509.5 401L519.5 411" stroke="#40404B" stroke-linecap="round" stroke-linejoin="round"/>
<path d="M391 280C391 378.839 391 220.661 391 319.5" stroke="#40404B" stroke-linecap="round" stroke-linejoin="round"/>
<path d="M391 83C391 181.839 391 -0.339117 391 98.5001" stroke="#40404B" stroke-linecap="round" stroke-linejoin="round"/>
</svg>
