<svg width="563" height="496" viewBox="0 0 563 496" fill="none" xmlns="http://www.w3.org/2000/svg">
<path opacity="0.68" d="M474.717 45.6349C504.772 63.8838 540.6 122.758 554.758 149.915C574.36 190.323 552.034 238.444 538.423 257.453C519.911 288.955 479.617 356.847 466.549 376.399C453.481 395.951 421.902 448.633 407.744 472.529L381.608 477.42L291.769 490.453C261.82 478.504 181.999 445.809 102.285 410.613C2.64309 366.621 -10.4248 294.929 5.91006 241.159C18.9777 198.144 54.9141 193.908 71.249 197.166C133.866 164.036 271.186 84.4138 319.538 30.9705C379.974 -35.8338 437.147 22.8237 474.717 45.6349Z" fill="white"/>
<path fill-rule="evenodd" clip-rule="evenodd" d="M139.892 351.451C134.019 345.898 131.747 337.963 133.157 330.571C133.49 331.022 133.864 331.444 134.279 331.838L136.643 334.073C139.133 336.428 142.69 337.272 145.973 336.293L149.089 335.362C152.372 334.38 154.883 331.723 155.675 328.387L156.428 325.22C157.22 321.887 156.175 318.382 153.684 316.028L151.321 313.792C150.906 313.399 150.462 313.05 149.994 312.743C157.291 310.917 165.336 312.736 171.208 318.289C177.775 324.497 179.84 333.683 177.289 341.759L245.319 406.081C249.305 409.845 249.481 416.13 245.718 420.119C241.953 424.104 235.671 424.283 231.685 420.515L163.656 356.197C155.741 359.201 146.458 357.659 139.892 351.451Z" fill="#CCD1F2"/>
<path d="M219.664 378.705L194.702 387.027L219.664 410.341L239.635 400.349L219.664 378.705Z" fill="white"/>
<path d="M151.868 333.923C153.743 331.422 157.493 325.671 157.493 322.668C157.493 320.039 153.655 316.258 151.022 314.099C150.521 313.686 150.532 312.909 151.099 312.596C156.2 309.762 167.425 307.804 174.367 318.916C181.867 330.923 178.117 338.926 176.242 341.427L191.241 354.56" stroke="#1D2028" stroke-linecap="round"/>
<path d="M168.742 362.063L189.366 380.826" stroke="#1D2028" stroke-linecap="round"/>
<path d="M168.742 362.063L164.992 358.312C159.368 359.562 146.618 360.189 140.618 352.685" stroke="#1D2028" stroke-linecap="round"/>
<path d="M299.978 184.049C297.363 184.049 297.629 192.738 294.362 200.342V228.87L292.485 242.001L299.978 245.753C296.711 257.159 301.612 319.287 304.879 338.839C307.49 354.48 320.123 395.324 326.114 413.789C331.558 414.333 350.616 413.789 383.283 407.274C415.953 400.755 445.902 388.262 456.79 382.831L445.356 322.546L427.387 249.223C426.3 252.482 425.428 254.763 430.654 237.818C437.188 216.636 427.387 205.23 422.487 200.342C418.568 196.432 406.698 195.454 401.251 195.454C398.64 191.544 390.364 185.135 386.55 182.419L384.916 195.454C380.997 198.061 364.771 197.627 357.15 197.084L355.517 184.049L344.984 187.598C339.757 182.384 310.866 188.937 299.978 184.049Z" fill="#A6B3FF"/>
<path d="M412.663 76.4896C413.955 99.9408 409.921 115.578 407.74 120.465L397.943 123.728L396.328 96.0422L348.996 84.6694L344.098 89.5579L340.835 87.9312C337.574 81.4188 337.628 73.081 339.214 66.7601C340.847 60.2449 345.745 62.4134 349.008 63.4974C349.012 59.6973 348.152 49.704 352.285 45.5811C357.182 40.6923 360.989 48.8333 363.707 53.7174C362.08 43.9467 365.589 39.441 373.511 34.1687C378.408 30.9085 383.846 39.0486 386.563 45.5613C386.563 45.5613 394.733 28.572 399.627 34.1536C403.435 38.4943 411.369 53.0387 412.663 76.4896Z" fill="#FF9D52"/>
<path d="M458.423 384.462L478.025 443.119C459.731 471.797 385.463 490.37 350.616 495.261C342.992 470.818 327.747 425.195 327.747 418.68C355.188 430.412 426.3 399.127 458.423 384.462Z" fill="#5567D5"/>
<path d="M393.397 126.026H410.944V144.545H393.397V126.026Z" fill="white"/>
<path d="M311.301 222.589C320.424 205.698 334.793 192.502 355.766 184.457M386.537 182.402C392.445 185.418 397.917 190.698 402.993 197.677M427.662 251.527C442.715 298.033 452.116 355.091 458.104 384.05C446.762 392.964 346.16 419.697 326.136 413.053C306.947 359.706 294.269 305.242 299.515 261.959" stroke="#1D2028" stroke-width="1.00299" stroke-linecap="round" stroke-linejoin="round"/>
<path d="M328.109 305.786L299.988 332.049L309.36 367.693L361.859 332.049L373.108 318.916L389.983 279.521L356.233 253.257V266.389L352.483 281.397L328.109 305.786Z" fill="white"/>
<path d="M301.861 247.056C297.494 247.498 301.736 247.352 297.325 247.056C296.411 246.026 295.407 243.156 294.083 237.451" stroke="#1D2028" stroke-width="1.02759" stroke-linecap="round" stroke-linejoin="round"/>
<path d="M296.155 212.242C294.806 199.312 294.854 188.566 297.76 184.71C304.322 184.142 325.583 181.541 345.054 185.632" stroke="#1D2028" stroke-width="1.00299" stroke-linecap="round" stroke-linejoin="round"/>
<path d="M305.176 328.399C286.271 347.082 263.798 368.323 255.311 371.985C250.331 374.409 217.15 373.741 209.924 369.615" stroke="#1D2028" stroke-width="1.02759" stroke-linecap="round" stroke-linejoin="round"/>
<path d="M354.823 258.928C357.994 261.626 357.153 279.754 348.28 287.49C347.535 288.139 324.09 309.739 318.736 315.164" stroke="#1D2028" stroke-width="1.02759" stroke-linecap="round" stroke-linejoin="round"/>
<path d="M384.028 275.097C386.419 277.29 388.1 279.004 388.58 279.853C390.83 283.839 374.093 318.427 372.322 321.571C370.17 333.968 285.232 382.332 276.323 386.797C267.417 391.259 254.797 397.685 250.19 403.273" stroke="#1D2028" stroke-width="1.02759" stroke-linecap="round" stroke-linejoin="round"/>
<path d="M367.776 250.563C368.85 251.773 371.682 255.644 375.087 260.512" stroke="#31314D" stroke-width="1.02759" stroke-linecap="round" stroke-linejoin="round"/>
<path d="M225.813 379.463C216.297 380.266 196.171 386.202 191.896 390.386" stroke="#1D2028" stroke-width="1.02759" stroke-linecap="round" stroke-linejoin="round"/>
<path d="M226.075 388.623C219.908 390.242 200.612 396.556 191.125 402.722" stroke="#1D2028" stroke-width="1.02759" stroke-linecap="round" stroke-linejoin="round"/>
<path d="M230.988 396.345C227.689 396.7 213.887 402.073 210.125 405.716" stroke="#1D2028" stroke-width="1.02759" stroke-linecap="round" stroke-linejoin="round"/>
<path d="M477.437 441.501C474.777 435.424 460.642 396.808 458.104 384.046" stroke="#31314D" stroke-width="1.00299" stroke-linecap="round" stroke-linejoin="round"/>
<path d="M291.549 190.728C286.763 190.337 276.854 189.058 273.737 189.508" stroke="#31314D" stroke-width="1.02759" stroke-linecap="round" stroke-linejoin="round"/>
<path d="M374.697 268.266C363.377 260.185 353.126 251.256 352.042 245.863" stroke="#1D2028" stroke-width="1.00299" stroke-linecap="round" stroke-linejoin="round"/>
<path d="M430.769 239.269C425.549 258.681 412.529 278.272 405.909 286.095C403.745 286.196 394.874 281.538 384.932 275.185" stroke="#31314D" stroke-width="1.00299" stroke-linecap="round" stroke-linejoin="round"/>
<path d="M365.701 225.884C380.329 206.748 403.339 184.199 423.123 200.743C423.912 201.399 424.667 202.101 425.38 202.847" stroke="#1D2028" stroke-width="1.00299" stroke-linecap="round" stroke-linejoin="round"/>
<path d="M401.855 36.8637C399.56 28.0979 389.852 26.2348 384.955 44.7204C382.826 38.2445 378.389 29.0409 373.757 29.0409C370.864 29.0409 366.846 32.1946 363.745 37.9413" stroke="#1D2028" stroke-width="1.02759" stroke-linecap="round" stroke-linejoin="round"/>
<path d="M355.207 172.251C355.987 165.046 356.457 158.064 356.089 154.344M396.226 142.598C393.976 150.55 386.559 176.893 386.332 195.165C384.13 196.545 374.208 197.438 365.35 196.753" stroke="#1D2028" stroke-width="1.00299" stroke-linecap="round" stroke-linejoin="round"/>
<path d="M374.118 160.253C370.452 161.015 366.679 160.983 363.026 160.158C353.615 158.025 346.173 150.864 341.797 141.077" stroke="#1D2028" stroke-width="1.02759" stroke-linecap="round" stroke-linejoin="round"/>
<path d="M337.999 127.491C337.094 120.765 337.337 113.924 338.712 107.288C340.087 100.548 342.478 94.3998 345.604 89.0961" stroke="#1D2028" stroke-width="1.02759" stroke-linecap="round" stroke-linejoin="round"/>
<path d="M359.442 114.174C358.713 117.26 354.286 122.367 352.042 123.287" stroke="#1D2028" stroke-width="1.02759" stroke-linecap="round" stroke-linejoin="round"/>
<path d="M374.812 115.112L377.491 107.855L381.617 109.368L378.939 116.625L374.812 115.112Z" fill="#31314D"/>
<path d="M371.89 137.575C371.033 139.568 365.887 144.18 363.144 144.54" stroke="#31314D" stroke-width="1.02759" stroke-linecap="round" stroke-linejoin="round"/>
<path d="M396.875 95.5982C395.699 101.737 394.836 107.937 394.289 114.174" stroke="#31314D" stroke-width="1.02759" stroke-linecap="round" stroke-linejoin="round"/>
<path d="M359.65 50.9779C359.008 46.5445 355.239 41.4375 353.084 41.4375C350.93 41.4375 345.764 41.7801 345.981 60.6418C344.258 58.3689 340.489 57.0051 338.536 57.0051C334.54 57.0051 328.93 77.2697 344.866 90.3681C345.757 88.5833 348.26 84.8123 348.411 84.8123C350.818 85.5025 370.423 90.671 386.873 93.8755" stroke="#1D2028" stroke-width="1.02759" stroke-linecap="round" stroke-linejoin="round"/>
<path d="M408.955 119.426C412.395 109.21 413.961 98.3962 413.574 87.5617C413.325 79.492 409.853 67.0726 406.817 57.0329" stroke="#1D2028" stroke-width="1.02759" stroke-linecap="round" stroke-linejoin="round"/>
<path d="M397.968 123.759C401.67 122.459 405.739 123.894 407.955 127.28C410.173 130.666 410.007 135.191 407.545 138.386C405.087 141.58 400.925 142.677 397.332 141.077" stroke="#1D2028" stroke-width="1.02759" stroke-linecap="round" stroke-linejoin="round"/>
<path d="M165.189 110.13C168.117 93.358 191.867 93.358 194.794 110.13C196.808 121.669 210.39 126.678 219.253 119.15C232.136 108.209 250.331 123.678 241.933 138.432C236.154 148.584 243.381 161.267 254.947 161.273C271.755 161.282 275.882 184.981 260.087 190.815C249.222 194.828 246.712 209.251 255.567 216.788C268.44 227.743 256.564 248.584 240.767 242.767C229.895 238.764 218.823 248.178 220.826 259.72C223.735 276.495 201.418 284.725 193.006 269.979C187.218 259.834 172.765 259.834 166.977 269.979C158.565 284.725 136.247 276.495 139.157 259.72C141.16 248.178 130.088 238.764 119.218 242.767C103.419 248.584 91.5442 227.743 104.415 216.788C113.271 209.251 110.761 194.828 99.8955 190.815C84.1028 184.981 88.2271 161.282 105.036 161.273C116.601 161.267 123.828 148.584 118.051 138.432C109.654 123.678 127.847 108.209 140.73 119.15C149.593 126.678 163.175 121.669 165.189 110.13Z" fill="#CCD1F2"/>
<path d="M85.1107 247.463C86.8183 237.68 100.673 237.68 102.381 247.463C103.555 254.195 111.478 257.116 116.648 252.725C124.163 246.343 134.776 255.366 129.878 263.973C126.508 269.895 130.723 277.293 137.47 277.297C147.275 277.302 149.681 291.127 140.468 294.53C134.13 296.871 132.666 305.284 137.832 309.682C145.34 316.069 138.413 328.227 129.197 324.836C122.856 322.501 116.398 327.99 117.566 334.723C119.263 344.51 106.244 349.311 101.338 340.71C97.9612 334.79 89.53 334.79 86.1537 340.71C81.2465 349.311 68.2279 344.51 69.9256 334.723C71.0937 327.99 64.6348 322.501 58.2943 324.836C49.0783 328.227 42.1512 316.069 49.6595 309.682C54.8252 305.284 53.3612 296.871 47.0229 294.53C37.8104 291.127 40.2162 277.302 50.0216 277.297C56.7679 277.293 60.9836 269.895 57.6134 263.973C52.7151 255.366 63.328 246.343 70.8427 252.725C76.013 257.116 83.9359 254.195 85.1107 247.463Z" fill="#A6B3FF"/>
<path d="M113.756 137.847C111.107 133.356 104.486 130.708 101.507 129.944C100.017 129.563 96.1941 129.298 92.8178 131.292C88.5979 133.784 98.2821 146.985 108.876 152.081C119.469 157.177 117.067 143.459 113.756 137.847Z" fill="white"/>
<path d="M82.3104 148.85C77.6749 140.992 86.7777 139.274 91.9086 139.397L107.468 152.912C108.765 154.038 111.292 157.465 111.028 162.162C110.764 166.859 101.209 164.808 96.4635 163.195C93.6773 161.688 86.9458 156.708 82.3104 148.85Z" fill="white"/>
<path d="M75.7745 160.278C72.4635 154.665 80.0216 154.616 84.2147 155.293L97.2915 164.599C99.1398 166.66 102.605 171.677 101.679 175.252C100.753 178.826 95.5004 177.639 92.9898 176.599C88.6312 173.497 79.0856 165.891 75.7745 160.278Z" fill="white"/>
<path d="M100.704 129.277C97.7109 128.327 77.5058 130.551 106.976 152.291" stroke="#1D2028" stroke-width="1.02759" stroke-linecap="round" stroke-linejoin="round"/>
<path d="M91.6283 140.163C88.6081 139.23 68.4305 141.436 97.896 163.18" stroke="#1D2028" stroke-width="1.02759" stroke-linecap="round" stroke-linejoin="round"/>
<path d="M82.2042 154.852C79.4545 154.189 63.173 157.62 93.5284 175.534" stroke="#1D2028" stroke-width="1.02759" stroke-linecap="round" stroke-linejoin="round"/>
<path d="M179.992 225.118C200.701 225.118 217.49 208.319 217.49 187.598C217.49 166.876 200.701 150.078 179.992 150.078C159.282 150.078 142.493 166.876 142.493 187.598C142.493 208.319 159.282 225.118 179.992 225.118Z" fill="white"/>
<path d="M179.992 228.87C202.772 228.87 221.238 210.392 221.238 187.598C221.238 164.805 202.772 146.327 179.992 146.327C157.211 146.327 138.743 164.805 138.743 187.598" stroke="#1D2028" stroke-width="1.00299" stroke-linecap="round" stroke-linejoin="round"/>
<path d="M93.7458 315.165C106.172 315.165 116.245 305.086 116.245 292.653C116.245 280.22 106.172 270.141 93.7458 270.141C81.3199 270.141 71.2468 280.22 71.2468 292.653C71.2468 305.086 81.3199 315.165 93.7458 315.165Z" fill="white"/>
<path d="M93.7458 307.661C104.1 307.661 112.495 299.261 112.495 288.901C112.495 278.54 104.1 270.141 93.7458 270.141C83.3909 270.141 74.9965 278.54 74.9965 288.901" stroke="#1D2028" stroke-width="1.00299" stroke-linecap="round" stroke-linejoin="round"/>
<path d="M288.736 240.126H262.488" stroke="#1D2028" stroke-width="1.02759" stroke-linecap="round" stroke-linejoin="round"/>
</svg>
