<svg width="220" height="220" viewBox="0 0 220 220" fill="none" xmlns="http://www.w3.org/2000/svg">
<g clip-path="url(#clip0_2497_18536)">
<path d="M75.5127 29.1294C116.281 24.45 153.584 46.3514 172.745 67.6521C191.906 88.9527 200.507 101.235 207.068 124.572C214.523 151.093 201.771 170.107 183.696 180.327C165.309 190.723 132.03 184.588 100.971 172.238C70.7082 160.205 55.9834 169.706 27.9215 151.638C5.33229 137.094 1.81166 119.885 3.48191 92.6635C4.86949 70.0487 23.5787 35.0904 75.5127 29.1294Z" fill="white"/>
<path d="M105.5 159C135.047 159 159 135.047 159 105.5C159 75.9528 135.047 52 105.5 52C75.9528 52 52 75.9528 52 105.5C52 135.047 75.9528 159 105.5 159Z" stroke="#FF7B7C" stroke-width="5" stroke-miterlimit="10"/>
<path d="M105 46C72.4152 46 46 72.7249 46 105.692C46 121.722 52.2458 136.276 62.4096 147" stroke="#41415B" stroke-miterlimit="10"/>
<path d="M105.5 159C135.047 159 159 135.047 159 105.5C159 75.9528 135.047 52 105.5 52C75.9528 52 52 75.9528 52 105.5C52 135.047 75.9528 159 105.5 159Z" stroke="#FF7B7C" stroke-width="5" stroke-miterlimit="10"/>
<path d="M71.9008 125.793L121.315 56.204C125.658 50.088 134.154 48.6851 140.232 53.0802L146.069 57.3008C152.075 61.643 153.457 70.0144 149.167 76.0567L99.6836 145.742C97.521 148.788 94.6341 151.247 91.2834 152.898L66.3814 165.169C65.3051 165.699 64.0727 164.814 64.2316 163.625L67.9443 135.84C68.4281 132.219 69.786 128.771 71.9008 125.793Z" fill="#CCD1F2" stroke="#5567D5" stroke-width="3" stroke-miterlimit="5"/>
<path d="M108.5 143L136 104" stroke="#40404B"/>
<path d="M97 81.5L113 59" stroke="#40404B"/>
<path d="M64.1058 164.579L68.2407 133.721C68.3952 132.568 69.3475 131.688 70.509 131.624L71.3873 131.576C82.1258 130.987 91.8073 138.005 94.5871 148.394C94.9634 149.8 94.2967 151.277 92.9932 151.925L65.507 165.582C64.8066 165.93 64.0019 165.354 64.1058 164.579Z" fill="#F0F1FB" stroke="#5567D5" stroke-width="3" stroke-miterlimit="5"/>
<path d="M133.218 71.8755L134.093 70.6574L131.657 68.9065L130.782 70.1245L133.218 71.8755ZM84.782 134.125C84.2985 134.797 84.4519 135.735 85.1245 136.218C85.7972 136.702 86.7345 136.548 87.218 135.875L84.782 134.125ZM130.782 70.1245L84.782 134.125L87.218 135.875L133.218 71.8755L130.782 70.1245Z" fill="#5567D5"/>
<path d="M105.5 159C135.047 159 159 135.047 159 105.5C159 75.9528 135.047 52 105.5 52C75.9528 52 52 75.9528 52 105.5" stroke="#FF7B7C" stroke-width="5" stroke-miterlimit="10"/>
<path d="M142 142L68 68" stroke="#FF7B7C" stroke-width="5" stroke-miterlimit="10"/>
</g>
<defs>
<clipPath id="clip0_2497_18536">
<rect width="220" height="220" fill="white"/>
</clipPath>
</defs>
</svg>
