<svg width="240" height="239" viewBox="0 0 240 239" fill="none" xmlns="http://www.w3.org/2000/svg">
<path d="M202.555 30.1337C215.38 37.9399 230.667 63.1242 236.708 74.7406C245.071 92.0258 235.546 112.61 229.738 120.741C221.839 134.216 204.647 163.257 199.071 171.621C193.495 179.985 180.02 202.521 173.979 212.743L162.828 214.834L124.494 220.41C111.716 215.299 77.6564 201.312 43.6436 186.258C1.12775 167.439 -4.4481 136.772 2.52172 113.772C8.09757 95.3712 23.4312 93.559 30.401 94.953C57.1186 80.7811 115.712 46.7219 136.342 23.8609C162.131 -4.71534 186.525 20.376 202.555 30.1337Z" fill="white"/>
<path d="M113.686 25.7724L71.1703 50.1668C58.6247 57.3689 38.0118 69.3424 34.2304 71.7733C24.4726 78.0461 15.7106 89.1978 25.8665 101.743C34.301 112.163 46.5436 108.016 50.9578 105.228L65.5945 117.077L64.2005 98.2586L119.262 66.1974L143.656 40.4091C144.353 38.5505 143.935 33.021 136.687 25.7724C129.438 18.5238 118.333 22.7522 113.686 25.7724Z" fill="#A6B3FF"/>
<path d="M100.099 99.1349C98.9841 99.1349 95.9174 105.64 94.5234 108.893L106.372 122.832L121.706 138.166L124.494 135.378L132.16 141.651L141.221 147.924L134.948 156.287L130.07 161.166L124.494 163.257L118.221 161.863L112.645 155.59L106.372 147.924L100.796 139.56C99.4023 144.439 101.493 163.257 102.887 171.621C104.002 178.312 109.392 195.783 111.948 203.682C114.271 203.914 122.403 203.682 136.342 200.894C150.282 198.106 163.06 192.763 167.707 190.44L162.828 164.651L155.161 133.287C154.696 134.681 154.324 135.657 156.555 128.408C159.343 119.347 155.161 114.469 153.07 112.378C151.397 110.705 146.332 110.287 144.009 110.287C142.894 108.614 139.363 105.872 137.736 104.711L137.039 110.287C135.367 111.402 128.443 111.216 125.191 110.984L124.494 105.408L116.827 108.196C114.597 105.965 104.746 101.226 100.099 99.1349Z" fill="#A6B3FF"/>
<path d="M44.9675 1C23.7306 18.5865 31.6346 89.8063 75.177 98.7916C126.17 109.313 129.616 54.2252 168.276 59.1656C201.895 63.465 211.986 101.932 191.169 126.052" stroke="#CED2F3" stroke-width="1.13546" stroke-linecap="round" stroke-linejoin="round" stroke-dasharray="6.81 6.81"/>
<path d="M76.6878 75.8974L67.3704 72.7334L70.3627 62.8719" stroke="white" stroke-width="1.00299" stroke-linecap="round" stroke-linejoin="round"/>
<path d="M92.2031 50.994L101.521 54.1603L98.5304 64.0194" stroke="white" stroke-width="1.00299" stroke-linecap="round" stroke-linejoin="round"/>
<path d="M116.827 80.3164C115.154 73.0678 119.382 66.1444 121.706 63.5888L141.918 67.7707V78.9224H143.312L146.797 80.3164L147.494 84.4983L146.1 87.2862H141.918L140.524 92.1651L137.039 110.287L129.373 110.984L125.191 110.287L124.494 104.711V94.256C122.635 92.6297 118.499 87.565 116.827 80.3164Z" fill="white"/>
<path d="M91.0385 98.4379L96.6144 101.923L86.1597 113.771L81.2809 113.075L72.2201 104.014L68.0382 95.65L72.9171 92.862C72.3595 91.1893 74.0788 89.8418 75.0081 89.3771C73.8929 86.5892 78.0282 87.9832 79.1898 87.2862C77.517 83.9407 77.7958 78.4578 79.1898 77.5284C81.9778 73.3466 84.0688 74.7405 84.7657 77.5284L86.8566 83.8013C87.3213 83.569 88.6688 82.9649 90.3415 82.4073C92.0143 81.8497 92.4325 83.569 92.4325 84.4983L91.0385 89.3771V98.4379Z" fill="white"/>
<path d="M70.8261 53.8311C70.8261 51.6007 68.9675 49.1845 68.0382 48.2552C67.5736 47.7906 66.2261 46.8613 64.5533 46.8613C62.4624 46.8613 63.1594 53.8311 65.9473 58.013C68.7352 62.1948 70.8261 56.619 70.8261 53.8311Z" fill="white"/>
<path d="M56.8864 51.0431C56.8864 47.14 60.6036 48.4875 62.4622 49.6492L65.2502 58.013C65.4825 58.7099 65.6685 60.5221 64.5533 62.1948C63.4381 63.8676 60.3713 61.0332 58.9773 59.4069C58.2803 58.2453 56.8864 54.9462 56.8864 51.0431Z" fill="white"/>
<path d="M52.0075 53.8311C52.0075 51.0431 54.7954 52.6694 56.1894 53.8311L58.9773 60.1039C59.2097 61.2655 59.3955 63.8676 58.2803 64.9828C57.1652 66.0979 55.4924 64.5181 54.7954 63.5888C53.8661 61.4979 52.0075 56.619 52.0075 53.8311Z" fill="white"/>
<path d="M79.0519 50.0914L85.7535 79.4167" stroke="white" stroke-width="1.00299" stroke-linecap="round" stroke-linejoin="round"/>
<path d="M198.091 5.28809L209.6 17.4663C211.631 19.6155 211.631 22.9767 209.6 25.1259L198.091 37.3041C195.976 39.5422 192.447 39.6419 190.209 37.5268C190.132 37.4547 190.058 37.3804 189.986 37.3041L178.477 25.1259C176.446 22.9767 176.446 19.6155 178.477 17.4663L189.986 5.28809C192.101 3.04996 195.63 2.95027 197.868 5.06542C197.944 5.13753 198.019 5.21178 198.091 5.28809Z" stroke="#CED2F3" stroke-width="0.75" stroke-miterlimit="10"/>
<path d="M50.1079 175.93L50.2574 162.981C50.2929 159.902 52.818 157.435 55.8973 157.47C55.8998 157.47 55.9024 157.47 55.905 157.47L85.5106 157.853C88.5868 157.893 91.0495 160.416 91.014 163.493L90.8645 176.442C90.829 179.521 88.3039 181.988 85.2246 181.953C85.2221 181.953 85.2195 181.953 85.2169 181.953L55.6113 181.57C52.5351 181.53 50.0724 179.006 50.1079 175.93Z" stroke="#C6CBF0" stroke-width="0.74751" stroke-linecap="round" stroke-linejoin="round"/>
<path d="M39.0713 235.73C49.4707 235.73 57.9011 226.809 57.9011 215.805C57.9011 204.801 49.4707 195.881 39.0713 195.881C28.6718 195.881 20.2414 204.801 20.2414 215.805C20.2414 226.809 28.6718 235.73 39.0713 235.73Z" stroke="#C6CBF0" stroke-width="0.74751" stroke-linecap="round" stroke-linejoin="round"/>
<path d="M148.888 59.4069C149.446 69.4435 147.727 76.1346 146.797 78.2255L142.615 79.6194L141.918 67.7707L121.706 62.8918L119.615 64.9828L118.221 64.2858C116.827 61.4979 116.848 57.9297 117.524 55.2249C118.221 52.4371 120.312 53.3664 121.706 53.8311C121.706 52.2048 121.337 47.9277 123.1 46.1643C125.191 44.0733 126.817 47.5582 127.979 49.6492C127.282 45.4673 128.779 43.5399 132.161 41.2854C134.251 39.8914 136.575 43.3763 137.736 46.1643C137.736 46.1643 141.222 38.8954 143.312 41.2854C144.939 43.144 148.331 49.3704 148.888 59.4069Z" fill="#FF9D52"/>
<path d="M168.403 191.137L176.767 216.228C168.961 228.495 137.272 236.44 122.403 238.531C119.15 228.077 112.645 208.561 112.645 205.773C124.354 210.791 154.696 197.409 168.403 191.137Z" fill="#5567D5"/>
<path d="M140.657 80.5881H148.144V88.51H140.657V80.5881Z" fill="white"/>
<path d="M88.5734 119.7C87.0852 118.793 75.1021 108.25 73.9201 107.001C72.7381 105.753 68.0216 97.8073 67.2639 95.9085" stroke="#31314D" stroke-width="1.02759" stroke-linecap="round" stroke-linejoin="round"/>
<path d="M105.628 121.894C109.52 114.669 115.652 109.024 124.601 105.582M137.731 104.703C140.251 105.993 142.586 108.252 144.751 111.238M155.278 134.273C161.701 154.166 165.713 178.573 168.267 190.961C163.428 194.773 120.502 206.209 111.959 203.367C103.77 180.547 98.3611 157.25 100.599 138.735" stroke="#3F3F4A" stroke-width="1.00299" stroke-linecap="round" stroke-linejoin="round"/>
<path d="M94.0909 128.638C92.363 127.913 90.6938 127.04 89.0998 126.028C88.966 125.454 89.1724 124.17 89.8371 121.755" stroke="#31314D" stroke-width="1.02759" stroke-linecap="round" stroke-linejoin="round"/>
<path d="M94.2858 108.816C96.4093 103.679 98.6122 99.6485 100.486 98.7915C103.063 99.9174 111.566 103.278 118.036 108.79" stroke="#31314D" stroke-width="1.00299" stroke-linecap="round" stroke-linejoin="round"/>
<path d="M109.159 125.858C101.425 117.542 92.6435 107.669 91.1847 103.994C90.2115 101.833 90.8989 87.6457 92.7456 84.6042" stroke="#31314D" stroke-width="1.02759" stroke-linecap="round" stroke-linejoin="round"/>
<path d="M124.618 134.557C123.429 135.883 122.374 137.592 121.442 138.852C121.174 138.526 119.643 136.932 117.394 134.574" stroke="#31314D" stroke-width="1.02759" stroke-linecap="round" stroke-linejoin="round"/>
<path d="M130.925 160.241C129.96 161.237 129.209 161.936 128.842 162.13C127.115 163.045 120.266 162.925 118.948 162.13C111.246 157.492 86.4112 116.669 84.6167 112.804C82.8221 108.939 80.2359 103.461 77.9105 101.423" stroke="#31314D" stroke-width="1.02759" stroke-linecap="round" stroke-linejoin="round"/>
<path d="M141.96 147.331C141.581 147.909 140.301 149.511 138.675 151.46" stroke="#31314D" stroke-width="1.02759" stroke-linecap="round" stroke-linejoin="round"/>
<path d="M88.3556 91.2825C88.1287 87.2016 85.8419 78.5188 84.1109 76.6391" stroke="#31314D" stroke-width="1.02759" stroke-linecap="round" stroke-linejoin="round"/>
<path d="M84.4468 91.2825C83.832 88.6251 81.375 80.2928 78.8613 76.159" stroke="#31314D" stroke-width="1.02759" stroke-linecap="round" stroke-linejoin="round"/>
<path d="M81.0958 93.2918C80.9846 91.8755 78.8611 85.9053 77.3547 84.2513" stroke="#31314D" stroke-width="1.02759" stroke-linecap="round" stroke-linejoin="round"/>
<path d="M78.5256 96.1869C78.2466 94.7106 76.5156 90.752 75.1771 89.3933" stroke="#31314D" stroke-width="1.02759" stroke-linecap="round" stroke-linejoin="round"/>
<path d="M176.516 215.536C175.382 212.936 169.349 196.418 168.267 190.959" stroke="#31314D" stroke-width="1.00299" stroke-linecap="round" stroke-linejoin="round"/>
<path d="M145.422 227.197C143.607 225.637 136.508 215.915 133.491 211.527" stroke="#31314D" stroke-width="1.00299" stroke-linecap="round" stroke-linejoin="round"/>
<path d="M121.068 237.594C120.015 235.143 112.889 209.414 111.959 203.377" stroke="#31314D" stroke-width="1.00299" stroke-linecap="round" stroke-linejoin="round"/>
<path d="M97.6865 101.931C95.8307 101.062 92.0557 99.0748 90.7421 98.7915" stroke="#31314D" stroke-width="1.02759" stroke-linecap="round" stroke-linejoin="round"/>
<path d="M67.8877 47.8348C66.9939 46.8337 59.0876 43.2569 65.2039 57.6771" stroke="#31314D" stroke-width="1.02759" stroke-linecap="round" stroke-linejoin="round"/>
<path d="M62.1932 49.8705C61.2857 48.8694 53.393 45.2926 59.5071 59.7128" stroke="#31314D" stroke-width="1.02759" stroke-linecap="round" stroke-linejoin="round"/>
<path d="M55.5462 53.2313C54.6796 52.3887 47.953 50.1105 55.2241 63.3136" stroke="#31314D" stroke-width="1.02759" stroke-linecap="round" stroke-linejoin="round"/>
<path d="M132.679 141.433C127.849 137.976 123.475 134.157 123.012 131.85" stroke="#31314D" stroke-width="1.00299" stroke-linecap="round" stroke-linejoin="round"/>
<path d="M156.604 129.029C154.376 137.333 148.82 145.713 145.996 149.059C145.072 149.102 141.288 147.11 137.046 144.393" stroke="#31314D" stroke-width="1.00299" stroke-linecap="round" stroke-linejoin="round"/>
<path d="M128.84 123.304C135.081 115.118 144.9 105.472 153.341 112.549C153.678 112.83 153.999 113.13 154.303 113.449" stroke="#31314D" stroke-width="1.00299" stroke-linecap="round" stroke-linejoin="round"/>
<path d="M144.267 42.4479C143.287 38.6983 139.144 37.9013 137.055 45.8087C136.147 43.0385 134.253 39.1016 132.277 39.1016C131.043 39.1016 129.328 40.4507 128.005 42.9088" stroke="#31314D" stroke-width="1.02759" stroke-linecap="round" stroke-linejoin="round"/>
<path d="M124.362 100.361C124.695 97.2791 124.895 94.2928 124.738 92.7013M141.864 87.6769C140.905 91.0785 137.74 102.347 137.642 110.163C136.703 110.753 132.47 111.135 128.69 110.842" stroke="#31314D" stroke-width="1.00299" stroke-linecap="round" stroke-linejoin="round"/>
<path d="M132.431 95.2291C130.867 95.5551 129.257 95.5413 127.699 95.1883C123.683 94.2761 120.507 91.213 118.64 87.0264" stroke="#31314D" stroke-width="1.02759" stroke-linecap="round" stroke-linejoin="round"/>
<path d="M117.02 81.2146C116.634 78.3378 116.737 75.4111 117.324 72.5726C117.91 69.6894 118.931 67.0596 120.265 64.7909" stroke="#31314D" stroke-width="1.02759" stroke-linecap="round" stroke-linejoin="round"/>
<path d="M126.17 75.5181C125.859 76.8384 123.969 79.0229 123.012 79.4166" stroke="#31314D" stroke-width="1.02759" stroke-linecap="round" stroke-linejoin="round"/>
<path d="M132.727 75.9181L133.868 72.8159L135.632 73.4646L134.49 76.5669L132.727 75.9181Z" fill="#31314D"/>
<path d="M131.48 85.5284C131.115 86.3806 128.919 88.3539 127.748 88.5075" stroke="#31314D" stroke-width="1.02759" stroke-linecap="round" stroke-linejoin="round"/>
<path d="M142.141 67.5722C141.639 70.1981 141.271 72.8505 141.038 75.5181" stroke="#31314D" stroke-width="1.02759" stroke-linecap="round" stroke-linejoin="round"/>
<path d="M126.258 48.4853C125.984 46.5889 124.375 44.4044 123.456 44.4044C122.538 44.4044 120.333 44.5508 120.426 52.6191C119.69 51.6469 118.082 51.0635 117.249 51.0635C115.543 51.0635 113.15 59.732 119.949 65.3349C120.33 64.5715 121.399 62.9583 121.462 62.9583C122.49 63.2536 130.855 65.4645 137.874 66.8352" stroke="#31314D" stroke-width="1.02759" stroke-linecap="round" stroke-linejoin="round"/>
<path d="M147.296 77.765C148.763 73.3948 149.432 68.7692 149.267 64.1346C149.16 60.6826 147.679 55.3702 146.384 51.0756" stroke="#31314D" stroke-width="1.02759" stroke-linecap="round" stroke-linejoin="round"/>
<path d="M142.608 79.6182C144.187 79.0623 145.923 79.676 146.87 81.1245C147.816 82.573 147.745 84.5085 146.695 85.8748C145.645 87.2412 143.869 87.7104 142.336 87.0264" stroke="#31314D" stroke-width="1.02759" stroke-linecap="round" stroke-linejoin="round"/>
<path d="M187.919 133.287L197.677 168.136L204.647 156.984L217.889 171.621L223.465 165.348L209.525 150.712L219.98 145.136L187.919 133.287Z" fill="#A6B3FF"/>
</svg>
