<svg width="560" height="400" viewBox="0 0 560 400" fill="none" xmlns="http://www.w3.org/2000/svg">
<path opacity="0.688056" d="M405.439 17.9739C474.243 36.059 517.023 45.3771 548.5 91.5C579.867 137.686 527.233 189.742 503.558 248.395C479.996 306.985 430.198 358.022 374.693 379.925C319.242 401.671 257.859 394.415 183.572 391.288C109.397 388.098 22.2082 389.098 3.94868 353.449C-14.4794 317.768 35.9665 245.341 65.0684 171.634C94.2258 98.023 174.637 54.378 217.089 22.0327C259.542 -10.3125 336.749 -0.175903 405.439 17.9739Z" fill="white"/>
<g style="mix-blend-mode:multiply" opacity="0.67">
<path d="M74.3479 46.1455H406.348V230.572H74.3479V46.1455Z" fill="#EAF0FF"/>
</g>
<path d="M310.65 94.4377C310.65 76.2833 325.367 61.5666 343.521 61.5666C361.674 61.5666 376.393 76.2833 376.393 94.4377C376.393 112.592 361.675 127.309 343.521 127.309C325.366 127.309 310.65 112.592 310.65 94.4377Z" fill="#D7E0FF"/>
<path d="M356.469 31.3284V56.7686H356.628V83.9269L337.653 63.6385H283.092V31.3284H356.469Z" fill="white"/>
<path fill-rule="evenodd" clip-rule="evenodd" d="M466.849 132.697L497.677 163.526C500.167 166.015 500.167 170.052 497.677 172.541L466.849 203.369C464.36 205.859 460.323 205.859 457.834 203.369L427.005 172.541C424.516 170.052 424.516 166.015 427.005 163.526L457.834 132.697C460.323 130.208 464.36 130.208 466.849 132.697Z" stroke="#CED3F3" stroke-width="1.275"/>
<path d="M190.377 74.8083V100.249H190.218V127.407L209.194 107.119H263.757V74.8083H190.377Z" fill="white"/>
<path opacity="0.859451" d="M448.387 193.785C439.585 194.003 420.566 197.413 420.566 197.413C420.457 206.705 422.99 305.188 423.372 320.004H477.689L496.931 208.26C496.931 204.421 495.406 200.739 492.692 198.024C489.977 195.31 486.295 193.785 482.456 193.785C482.456 193.785 459.078 194.124 450.001 193.785C449.513 193.769 448.974 193.77 448.387 193.785Z" fill="#40404B"/>
<path d="M499.612 206.384C499.612 201.791 493.801 191.665 483.251 191.665C483.251 191.665 459.573 192.01 450.379 191.665C449.885 191.649 449.339 191.65 448.745 191.665C439.829 191.887 422.266 195.354 422.266 195.354C422.155 204.802 424.721 304.939 425.108 320.004H480.123C487.479 277.119 492.996 244.955 496.674 223.513" stroke="#40404B"/>
<path d="M162.849 277.452C165.947 275.744 195.881 253.591 197.518 251.519C199.155 249.447 205.03 237.61 205.524 236.838C206.018 236.066 209.161 234.622 209.554 234.955C211.965 237.002 208.101 243.971 207.642 245.037C209.886 242.988 224.088 231.884 225.829 232.429C238.34 236.357 233.658 253.053 225.795 257.121C223.644 258.237 211.863 262.733 210.734 263.718C209.605 264.703 160.053 305.959 158.943 306.749C158.324 303.905 159.746 279.157 162.849 277.452Z" fill="white"/>
<path opacity="0.859451" d="M28.7272 190.911C24.888 190.911 21.206 192.436 18.4914 195.151C15.7767 197.865 14.252 201.547 14.252 205.387C14.252 205.387 24.6647 289.696 28.461 320.428H106.729C106.722 315.47 106.57 210.895 105.768 190.911H28.7272Z" fill="#40404B"/>
<path d="M125.583 187.451C74.9635 187.451 63.8239 273.267 64.6319 316.777C64.6552 318.029 68.2506 320.427 70.0105 320.427C90.0481 320.427 120.104 320.427 160.18 320.427C168.677 278.693 170.086 187.451 125.583 187.451Z" fill="#A6B3FF"/>
<path d="M161.211 253.601C162.501 278.224 159.886 303.862 156.2 320.249" stroke="#40404B" stroke-linecap="round" stroke-linejoin="round"/>
<path d="M135.406 187.441C144.677 192.375 150.995 202.68 155.093 215.693" stroke="#40404B" stroke-linecap="round" stroke-linejoin="round"/>
<path d="M93.8398 196.2C97.9565 192.136 102.546 188.903 107.652 186.734" stroke="#40404B" stroke-linecap="round" stroke-linejoin="round"/>
<path d="M161.844 274.851C165.342 273.009 193.034 252.538 195.608 249.822C198.182 247.105 202.461 235.972 204.333 234.325C206.205 232.678 207.451 231.775 208.565 233.003C209.679 234.231 207.723 240.392 205.298 243.625C209.869 238.88 220.623 231.353 224.423 230.033" stroke="#40404B" stroke-linecap="round" stroke-linejoin="round"/>
<path d="M179.284 286.799C169.529 295.203 160.702 302.866 159.15 304.256" stroke="#40404B" stroke-linecap="round" stroke-linejoin="round"/>
<path d="M224.577 254.353C220.312 256.526 211.894 259.697 208.002 262.475C206.891 263.268 202.722 266.752 197.251 271.4" stroke="#40404B" stroke-linecap="round" stroke-linejoin="round"/>
<path d="M211.322 244.507C212.65 243.407 216.765 240.467 220.866 237.813C224.674 235.343 228.47 233.126 230.008 232.856" stroke="#40404B" stroke-linecap="round" stroke-linejoin="round"/>
<path d="M214.629 248.349C215.956 247.25 220.071 244.309 224.172 241.656C227.98 239.189 231.777 236.969 233.314 236.699" stroke="#40404B" stroke-linecap="round" stroke-linejoin="round"/>
<path d="M216.221 253.547C217.401 252.556 221.054 249.904 224.695 247.509C228.077 245.285 231.447 243.286 232.812 243.04" stroke="#40404B" stroke-linecap="round" stroke-linejoin="round"/>
<path d="M59.9185 188.665H103.721" stroke="#40404B" stroke-linecap="round" stroke-linejoin="round"/>
<path d="M25.8133 320.226L11.35 203.131C11.35 199.291 12.8752 195.609 15.5902 192.894C18.3051 190.179 21.9874 188.655 25.8268 188.655H31.2806" stroke="#40404B" stroke-linecap="round" stroke-linejoin="round"/>
<path d="M187.308 114.457L187.293 123.932L206.888 103.913H260.907V71.5666H253.161" stroke="#40404B" stroke-linecap="round" stroke-linejoin="round"/>
<path d="M236.131 71.5666H187.323V98.4802" stroke="#40404B" stroke-linecap="round" stroke-linejoin="round"/>
<path d="M195.869 81.3751H249.284" stroke="#40404B" stroke-linecap="round" stroke-linejoin="round"/>
<path d="M195.869 93.9984H214.515" stroke="#40404B" stroke-linecap="round" stroke-linejoin="round"/>
<path d="M343.088 28.3513H353.263V60.6988L353.293 80.7179L333.699 60.6988H279.679V56.3471" stroke="#40404B" stroke-linecap="round" stroke-linejoin="round"/>
<path d="M279.679 43.8457V28.3513H320.411" stroke="#40404B" stroke-linecap="round" stroke-linejoin="round"/>
<path d="M344.718 38.1598H291.305" stroke="#40404B" stroke-linecap="round" stroke-linejoin="round"/>
<path d="M310.29 50.7831H291.643" stroke="#40404B" stroke-linecap="round" stroke-linejoin="round"/>
<path d="M51.164 244.117L51.219 244.259C49.3216 248.512 32.3179 296.65 33.0654 300.639C33.8168 304.655 37.802 311.733 40.7329 313.37C42.0724 314.119 55.4894 316.992 71.4923 320.428H168.004C166.033 315.408 157.794 311.268 150.171 311.253C147.585 311.168 143.539 311.345 140.601 314.703C111.526 301.283 78.9558 293.613 69.4873 291.148L68.4514 288.466C71.5999 282.444 81.0914 265.018 82.4166 262.303C77.3724 259.74 51.5114 244.325 51.2867 244.188L51.27 244.14C51.27 244.146 51.2596 244.163 51.2572 244.168L51.164 244.117Z" fill="white"/>
<path d="M36.5884 280.271C33.7196 289.31 31.6103 296.753 31.8868 298.22C32.6382 302.235 36.621 309.31 39.5519 310.949C41.1728 311.854 60.1591 315.896 80.4109 320.272" stroke="#40404B" stroke-linecap="round" stroke-linejoin="round"/>
<path d="M81.4715 259.721C79.5088 262.917 66.758 287.004 66.4369 288.011C72.466 289.772 108.28 297.642 139.659 312.125C142.598 308.766 146.642 308.59 149.228 308.676C158.029 308.693 167.505 313.245 167.505 320.231" stroke="#40404B" stroke-linecap="round" stroke-linejoin="round"/>
<path d="M95.6527 200.955C117.357 213.645 94.6104 261.925 88.7374 263.46C77.1963 264.257 50.6189 247.595 48.0609 240.85C45.503 234.105 74.2367 188.431 95.6527 200.955Z" fill="#A6B3FF"/>
<path d="M102.191 228.945C98.959 244.378 90.6189 259.375 87.3868 260.22C75.8456 261.017 49.2682 244.354 46.7103 237.608C45.7731 235.138 49.0379 227.436 54.6049 219.289" stroke="#40404B" stroke-linecap="round" stroke-linejoin="round"/>
<path d="M68.0211 204.007C76.3516 196.854 85.8926 192.795 94.3052 197.712C97.6521 199.67 99.9447 202.476 101.403 205.826" stroke="#40404B" stroke-linecap="round" stroke-linejoin="round"/>
<path d="M108.434 197.36C111.594 188.769 111.106 159.89 110.793 157.033C110.415 153.585 107.819 128.72 114.053 123.467C120.287 118.214 129.868 112.328 135.524 112.732C141.181 113.136 158.014 130.074 158.014 150.583C158.014 171.092 139.367 180.889 134.993 181.024C134.395 185.578 134.441 197.768 134.441 202.183C132.648 203.904 113.018 203.325 108.434 197.36Z" fill="white"/>
<path d="M111.546 139.055C108.624 138.876 106.355 141.512 103.915 144.028C101.729 127.844 109.354 99.3855 120.296 97.4387C122.177 97.5128 122.413 100.005 121.864 102.199C128.728 95.939 141.62 92.4606 147.092 92.4144C154.184 92.4144 156.691 98.0077 156.691 99.9274C156.691 104.788 153.503 112.051 152.331 113.932C154.207 112.934 155.71 112.57 157.159 112.57C160.808 112.57 161.702 118.228 161.702 119.914C161.702 125.798 155.471 131.787 152.378 131.787C150.929 131.787 146.922 129.53 145.708 127.845C146.135 129.096 146.61 129.447 146.628 131.37C146.642 132.956 144.335 133.827 142.962 133.827C139.327 133.827 132.12 126.735 125.527 126.735C123.333 126.735 120.565 129.879 120.565 131.651C120.565 133.423 121.491 141.79 120.934 142.08C119.231 143.422 118.442 139.432 111.684 138.999" fill="#FF9D52"/>
<path d="M152.882 160.825C148.67 171.238 140.062 178.373 130.126 178.373C125.094 178.373 120.404 176.541 116.451 173.385" stroke="#40404B" stroke-linecap="round" stroke-linejoin="round"/>
<path d="M151.923 129.74C154.434 134.701 155.633 140.025 155.633 146.339C155.633 147.813 155.553 149.285 155.394 150.75" stroke="#40404B" stroke-linecap="round" stroke-linejoin="round"/>
<path d="M132.09 199.569C131.815 194.489 131.97 181.247 132.656 178.364" stroke="#40404B" stroke-linecap="round" stroke-linejoin="round"/>
<path d="M108.396 181.273C107.997 186.463 107.336 191.323 106.276 194.673C108.295 197.041 113.71 198.852 119.345 199.7" stroke="#40404B" stroke-linecap="round" stroke-linejoin="round"/>
<path d="M108.381 154.764C108.691 156.246 109.001 163.12 108.859 171.035" stroke="#40404B" stroke-linecap="round" stroke-linejoin="round"/>
<path d="M126.512 140.052C126.512 138.52 127.171 137.277 127.984 137.277C128.798 137.277 129.456 138.52 129.456 140.052C129.456 141.585 128.797 142.828 127.984 142.828C127.172 142.828 126.512 141.586 126.512 140.052Z" fill="#1D2028"/>
<path d="M147.458 141.162C147.458 139.63 148.117 138.388 148.93 138.388C149.743 138.388 150.403 139.63 150.403 141.162C150.403 142.695 149.744 143.938 148.93 143.938C148.117 143.938 147.458 142.696 147.458 141.162Z" fill="#1D2028"/>
<path d="M141.557 147.384C141.902 149.83 143.899 153.928 146.104 155.513" stroke="#40404B" stroke-linecap="round" stroke-linejoin="round"/>
<path d="M140.352 161.437C138.838 161.231 134.013 158.648 133.049 156.788C131.258 157.649 130.362 163.745 134.013 164.677" stroke="#40404B" stroke-linecap="round" stroke-linejoin="round"/>
<path d="M151.957 129.731C151.579 129.874 151.18 129.952 150.776 129.962C147.858 129.962 142.958 125.062 142.958 125.062C144.059 127.76 144.719 128.53 144.719 129.632C144.719 130.733 143.342 131.943 141.306 131.999C136.347 132.14 130.867 124.929 123.906 124.929C122.091 124.929 118.546 127.413 118.546 130.415C118.546 132.441 119.184 138.264 119.184 139.659C119.184 140.217 118.865 140.59 118.27 140.839" stroke="#40404B" stroke-linecap="round" stroke-linejoin="round"/>
<path d="M141.663 91.1012C142.769 90.9506 143.883 90.8732 144.999 90.8693C150.395 90.8693 154.744 94.503 154.744 98.5775C154.744 102.652 151.716 110.69 149.678 112.618C152.377 111.406 153.147 110.966 155.017 110.966C158.964 110.966 159.698 115.15 159.698 118.288C159.698 123.797 155.064 128.637 151.96 129.73" stroke="#40404B" stroke-linecap="round" stroke-linejoin="round"/>
<path d="M107.968 107.053C111.518 99.607 115.664 95.6577 117.588 95.6577C121.302 95.6577 120.098 99.5727 119.947 100.828C121.302 99.4389 126.625 95.8569 133.052 93.3906" stroke="#40404B" stroke-linecap="round" stroke-linejoin="round"/>
<path d="M101.927 133.67C102.185 126.165 103.429 119.679 105.132 114.296" stroke="#40404B" stroke-linecap="round" stroke-linejoin="round"/>
<path d="M113.238 155.643C108.768 156.365 104.472 153.604 103.271 149.237C102.071 144.871 104.352 140.302 108.562 138.637C112.773 136.971 117.562 138.745 119.673 142.751" fill="white"/>
<path d="M112.217 154.792C107.746 155.514 103.45 152.752 102.25 148.386C101.049 144.02 103.33 139.451 107.541 137.786C111.751 136.12 116.541 137.894 118.651 141.9" stroke="#40404B" stroke-linecap="round" stroke-linejoin="round"/>
<path d="M17.3797 320.278H497.967" stroke="#40404B" stroke-linecap="round" stroke-linejoin="round"/>
<path d="M454.978 320.772C448.699 320.004 402.989 324.128 381.316 318.304C368.437 314.843 377.439 302.058 371.103 298.396C372.454 289.204 444.227 282.498 449.193 283.455C449.348 286.891 457.453 297.225 454.978 320.772Z" fill="#5567D5"/>
<path d="M415.509 99.5021C415.509 105.715 419.251 111.315 424.991 113.693C430.731 116.07 437.337 114.756 441.73 110.363C446.123 105.97 447.437 99.3637 445.059 93.6242C442.682 87.8846 437.081 84.1423 430.869 84.1423C426.795 84.1408 422.887 85.7585 420.006 88.6394C417.125 91.5202 415.508 95.428 415.509 99.5021Z" fill="#5567D5"/>
<path d="M367.487 126.134C366.394 125.62 364.804 122.159 364.804 117.031C364.804 104.283 374.486 98.3068 389.971 98.3068C400.783 98.3068 413.525 102.347 421.647 117.515C427.713 128.787 430.182 153.674 435.244 162.627C438.447 168.286 445.242 179.749 450.46 190.531C452.42 193.268 462.276 214.151 447.227 221.012C432.178 227.873 362.294 225.052 360.435 222.105C358.576 219.159 369.023 198.115 372.46 193.854C375.896 189.593 380.827 184.172 378.018 163.212C375.209 142.252 377.749 129.899 375.341 128.901C372.932 127.903 370.01 127.843 367.487 126.134Z" fill="#EA4C4D"/>
<path d="M406.329 140.8C406.329 144.401 409.248 147.321 412.85 147.321C416.451 147.321 419.37 144.401 419.37 140.8C419.37 137.199 416.451 134.28 412.85 134.28C409.25 134.283 406.332 137.2 406.329 140.8Z" fill="white"/>
<path d="M307.202 179.373C302.152 171.376 303.616 162.154 305.785 164.993C306.509 165.944 315.946 185.063 317.828 187.005C319.292 187.053 320.458 187.244 320.948 187.644C322.86 189.198 322.143 200.088 322.86 201.044C323.578 202 350.861 243.884 352.062 245.199C352.181 245.677 355.648 229.528 356.706 226.671C359.431 228.871 366.214 232.762 368.258 233.425C368.025 235.272 366.878 258.102 368.258 265.519C367.099 267.814 360.094 274.771 357.118 274.771C351.387 274.771 345.29 272.565 343.689 271.46C337.001 266.87 311.194 207.6 309.306 206.369C305.534 203.895 299.253 195.36 298.374 189.957C298.374 187.567 296.414 186.007 307.22 179.355" fill="white"/>
<path d="M383.385 187.549C366.549 182.05 351.231 220.276 352.427 223.36C353.622 226.444 370.619 235.66 374.325 235.17C378.03 234.68 389.924 189.671 383.385 187.537" fill="#A6B3FF"/>
<path d="M304.56 149.705C304.56 152.786 307.058 155.283 310.138 155.283C313.219 155.283 315.716 152.786 315.716 149.705C315.716 146.625 313.219 144.127 310.138 144.127C307.058 144.127 304.56 146.625 304.56 149.705Z" fill="white"/>
<path d="M285.435 149.705C285.435 152.786 287.933 155.283 291.013 155.283C294.094 155.283 296.591 152.786 296.591 149.705C296.591 146.625 294.094 144.127 291.013 144.127C287.933 144.127 285.435 146.625 285.435 149.705Z" fill="white"/>
<path d="M267.904 149.705C267.904 152.786 270.401 155.283 273.482 155.283C276.563 155.283 279.06 152.786 279.06 149.705C279.06 146.625 276.563 144.127 273.482 144.127C270.401 144.127 267.904 146.625 267.904 149.705Z" fill="white"/>
<path d="M248.779 149.705C248.779 152.786 251.276 155.283 254.357 155.283C257.438 155.283 259.935 152.786 259.935 149.705C259.935 146.625 257.438 144.127 254.357 144.127C251.276 144.127 248.779 146.625 248.779 149.705Z" fill="white"/>
<path fill-rule="evenodd" clip-rule="evenodd" d="M385.841 185.081C369.005 179.582 353.688 217.814 354.883 220.892C356.078 223.97 373.075 233.192 376.781 232.714C380.486 232.236 392.416 187.214 385.841 185.081Z" stroke="#40404B" stroke-linecap="round" stroke-linejoin="round"/>
<path d="M403.652 177.992C356 179.11 368.037 285.535 370.225 289.336C373.171 294.452 434.174 299.095 448.721 284.823C452.086 281.524 448.888 176.934 403.652 177.992Z" fill="#A6B3FF"/>
<path d="M411.642 175.942C409.82 175.618 407.97 175.48 406.12 175.53C391.477 175.871 382.471 186.156 377.08 200.357" stroke="#40404B" stroke-linecap="round" stroke-linejoin="round"/>
<path d="M370.063 238.864C368.772 262.991 371.719 285.17 372.693 286.867C375.639 291.983 436.642 296.627 451.189 282.355C454.249 279.367 451.882 192.503 417.356 177.664" stroke="#40404B" stroke-linecap="round" stroke-linejoin="round"/>
<path d="M371.498 114.36C371.402 120.277 412.646 125.877 412.873 134.28C413.101 142.683 413.238 147.536 413.238 147.536C411.762 155.371 414.959 183.072 415.862 185.965C412.401 189.186 395.045 188.953 393.151 187.005C393.396 185.057 393.36 171.789 392.864 170.271C392.135 170.369 391.4 170.418 390.665 170.42C377.391 170.42 366.627 154.755 366.627 135.427C366.627 125.327 366.794 122.655 371.486 114.342" fill="white"/>
<path d="M428.245 181.226C409.796 186.957 420.84 231.65 424.366 233.413C427.893 235.176 462.449 225.303 463.154 221.424C463.86 217.545 451.751 173.916 428.245 181.226Z" fill="#A6B3FF"/>
<path d="M420.338 201.791C420.488 215.376 424.851 229.953 426.835 230.945C430.361 232.708 464.917 222.834 465.623 218.956C465.832 217.814 464.935 213.248 462.963 207.546" stroke="#40404B" stroke-linecap="round" stroke-linejoin="round"/>
<path d="M453.245 188.481C447.591 180.987 440.049 175.853 430.713 178.757C429.958 178.989 429.229 179.299 428.538 179.684" stroke="#40404B" stroke-linecap="round" stroke-linejoin="round"/>
<path d="M341.412 223.109C333.827 211.563 325.699 199.125 325.311 198.605C324.594 197.649 325.311 186.76 323.398 185.206C321.486 183.652 309.294 185.206 309.294 186.593C309.294 187.979 314.272 192.569 315.491 192.91" stroke="#40404B" stroke-linecap="round" stroke-linejoin="round"/>
<path d="M359.025 224.609C357.967 227.472 354.632 243.244 354.512 242.766C354.208 242.426 352.205 239.455 349.378 235.2" stroke="#40404B" stroke-linecap="round" stroke-linejoin="round"/>
<path d="M309.67 176.905C304.62 168.908 306.084 159.686 308.254 162.525C308.977 163.475 318.414 182.594 320.297 184.537" stroke="#40404B" stroke-linecap="round" stroke-linejoin="round"/>
<path d="M307.985 178.99C308.66 180.269 311.756 185.427 311.756 185.427" stroke="#40404B" stroke-linecap="round" stroke-linejoin="round"/>
<path d="M304.674 181.028C305.987 184.001 307.532 186.867 309.294 189.599" stroke="#40404B" stroke-linecap="round" stroke-linejoin="round"/>
<path d="M301.703 183.252C303.241 186.588 305.007 189.815 306.987 192.91" stroke="#40404B" stroke-linecap="round" stroke-linejoin="round"/>
<path d="M309.706 202.227C310.336 202.852 311.023 203.419 311.756 203.919C313.645 205.156 339.451 264.419 346.139 269.015C347.741 270.115 353.837 272.32 359.569 272.32C362.557 272.32 368.91 266.344 370.063 264.067" stroke="#40404B" stroke-linecap="round" stroke-linejoin="round"/>
<path d="M300.825 187.507C301.189 189.76 302.498 192.557 304.166 195.235" stroke="#40404B" stroke-linecap="round" stroke-linejoin="round"/>
<path d="M374.486 155.114C378.897 162.961 385.596 167.97 393.103 167.97C397.884 167.97 402.361 165.926 406.114 162.405" stroke="#40404B" stroke-linecap="round" stroke-linejoin="round"/>
<path d="M373.954 111.892C370.687 118.433 369.025 125.659 369.107 132.971C369.097 136.66 369.497 140.338 370.302 143.938" stroke="#40404B" stroke-linecap="round" stroke-linejoin="round"/>
<path d="M411.642 143.675C414.214 145.446 417.68 145.142 419.904 142.95C422.127 140.758 422.481 137.295 420.746 134.699C419.012 132.103 415.678 131.104 412.802 132.319" stroke="#40404B" stroke-linecap="round" stroke-linejoin="round"/>
<path d="M391.776 130.981C391.776 132.361 392.374 133.485 393.139 133.485C393.904 133.485 394.495 132.361 394.495 130.981C394.495 129.6 393.898 128.471 393.139 128.471C392.38 128.471 391.776 129.594 391.776 130.981Z" fill="#1D2028"/>
<path d="M379.363 142.689C379.135 143.139 378.854 143.56 378.526 143.944" stroke="#40404B" stroke-linecap="round" stroke-linejoin="round"/>
<path d="M380.696 134.979C380.824 136.815 380.656 138.659 380.2 140.442" stroke="#40404B" stroke-linecap="round" stroke-linejoin="round"/>
<path d="M399.42 147.637C399.157 149.394 397.221 151.677 394.501 152.556" stroke="#40404B" stroke-linecap="round" stroke-linejoin="round"/>
<path d="M395.619 184.537C395.864 182.588 395.828 169.32 395.332 167.802" stroke="#40404B" stroke-linecap="round" stroke-linejoin="round"/>
<path d="M416.657 171.741C417.254 177.628 417.971 182.385 418.318 183.497C416.944 184.776 413.387 185.505 409.473 185.804" stroke="#40404B" stroke-linecap="round" stroke-linejoin="round"/>
<path d="M415.694 145.073C415.097 148.115 415.252 154.152 415.694 160.571" stroke="#40404B" stroke-linecap="round" stroke-linejoin="round"/>
<path d="M444.705 107.361C448.226 103.488 449.532 98.0876 448.169 93.0334C446.805 87.9792 442.961 83.9678 437.969 82.3912" stroke="#40404B" stroke-linecap="round" stroke-linejoin="round"/>
<path d="M419.185 91.0632C416.922 96.4156 417.872 102.586 421.638 107.011C425.404 111.436 431.344 113.359 436.989 111.981" stroke="#40404B" stroke-linecap="round" stroke-linejoin="round"/>
<path d="M379.751 97.5956C371.862 100.225 367.272 105.801 367.272 114.563C367.272 119.691 368.862 123.151 369.962 123.665" stroke="#40404B" stroke-linecap="round" stroke-linejoin="round"/>
<path d="M433.337 147.183C430.636 136.288 428.191 122.59 424.127 115.017C416.507 100.799 404.835 96.3644 394.495 95.8923" stroke="#40404B" stroke-linecap="round" stroke-linejoin="round"/>
<path d="M452.928 188.063C449.342 180.646 445.003 172.9 441.573 166.954" stroke="#40404B" stroke-linecap="round" stroke-linejoin="round"/>
<path d="M380.875 179.684C380.618 182.044 380.23 184.023 379.68 185.098" stroke="#40404B" stroke-linecap="round" stroke-linejoin="round"/>
<path d="M380.744 162.967C381.18 164.479 381.395 169.35 381.24 174.221" stroke="#40404B" stroke-linecap="round" stroke-linejoin="round"/>
<path d="M372.346 107.995C372.346 120.384 415.33 121.502 415.33 131.811" stroke="#40404B" stroke-linecap="round" stroke-linejoin="round"/>
<path d="M350.765 289.186C346.623 289.88 344.263 283.06 341.74 283.425C339.9 283.688 331.096 284.817 330.708 285.427C330.319 286.037 331.76 292.384 331.76 292.384" fill="#EAF0FF"/>
<path d="M394.387 281.834L400.929 320.721L338.302 331.258L331.76 292.371L394.387 281.834Z" fill="white"/>
<path d="M337.826 311.323L340.766 328.799L377.08 322.691" stroke="#40404B" stroke-linecap="round" stroke-linejoin="round"/>
<path d="M334.222 289.915L335.453 297.225" stroke="#1D2028" stroke-width="1.275" stroke-linecap="round" stroke-linejoin="round"/>
<path d="M397.687 319.224L403.395 318.244L396.82 279.355L343.492 288.32" stroke="#40404B" stroke-linecap="round" stroke-linejoin="round"/>
<path d="M353.233 286.718C349.092 287.411 346.725 280.592 344.209 280.957C342.368 281.219 333.565 282.349 333.176 282.959C332.788 283.568 334.228 289.915 334.228 289.915" stroke="#40404B" stroke-linecap="round" stroke-linejoin="round"/>
<path d="M350.446 293.588L353.239 310.191L344.139 311.722L341.346 295.119L350.446 293.588Z" fill="#5567D5"/>
<path d="M391.453 289.915L355.696 295.928" stroke="#40404B" stroke-linecap="round" stroke-linejoin="round"/>
<path d="M362.371 302.616L357.052 303.512" stroke="#40404B" stroke-linecap="round" stroke-linejoin="round"/>
<path d="M392.804 297.5L372.263 300.954" stroke="#40404B" stroke-linecap="round" stroke-linejoin="round"/>
<path d="M352.624 291.595C353.556 284.423 355.714 276.809 370.96 277.466C373.022 275.811 413.065 264.455 437.21 258.192C434.401 252.389 431.126 234.704 430.959 233.09C432.752 232.756 459.21 224.615 459.21 224.615C459.21 224.615 470.272 270.874 467.87 274.741C453.066 284.172 397.532 290.967 372.46 289.204C370.703 290.585 370.942 291.451 368.45 291.804C365.957 292.157 352.624 291.595 352.624 291.595Z" fill="white"/>
<path d="M400.4 266.457C386.128 270.545 374.516 274.113 373.434 274.998C358.176 274.34 356.024 281.925 355.092 289.126" stroke="#40404B" stroke-linecap="round" stroke-linejoin="round"/>
<path d="M433.427 230.646C433.6 232.236 436.875 249.92 439.678 255.747C431.275 257.917 420.942 260.708 410.955 263.517" stroke="#40404B" stroke-linecap="round" stroke-linejoin="round"/>
<path d="M368.294 282.385C367.603 284.841 367.35 287.401 367.547 289.945" stroke="#40404B" stroke-linecap="round" stroke-linejoin="round"/>
<path d="M363.692 282.385C362.995 284.84 362.742 287.401 362.945 289.945" stroke="#40404B" stroke-linecap="round" stroke-linejoin="round"/>
<path d="M359.981 282.385C359.288 284.841 359.037 287.401 359.24 289.945" stroke="#40404B" stroke-linecap="round" stroke-linejoin="round"/>
<path d="M469.723 260.463C470.768 266.906 471.211 271.723 470.32 272.273C449.623 285.421 387.073 287.477 374.91 286.736" stroke="#40404B" stroke-linecap="round" stroke-linejoin="round"/>
<path d="M461.678 222.171C461.905 222.972 464.039 231.937 466.184 242.079" stroke="#40404B" stroke-linecap="round" stroke-linejoin="round"/>
</svg>
