<svg width="120" height="80" viewBox="0 0 120 80" fill="none" xmlns="http://www.w3.org/2000/svg">
<mask id="mask0_3076_18493" style="mask-type:alpha" maskUnits="userSpaceOnUse" x="0" y="0" width="120" height="80">
<rect width="120" height="80" fill="#D9D9D9"/>
</mask>
<g mask="url(#mask0_3076_18493)">
<path d="M21.9155 33.9512C31.0193 26.6307 34.2297 22.2293 42.4848 13.5849C50.7241 4.96804 61.4002 -7.91551 71.3563 -8.31357C81.2856 -8.72689 90.5131 3.32251 97.6659 15.987C104.822 28.6762 109.925 41.9527 107.587 53.3924C105.241 64.8087 95.4613 74.3849 85.288 79.1832C75.1148 83.9815 64.5527 84.0247 53.9743 84.5117C43.3959 84.9986 35.4572 85.9703 24.0431 82.2447C12.6117 78.5457 2.96132 70.1693 3.0212 60.8616C3.05734 51.5578 12.8141 41.271 21.9155 33.9512Z" fill="white"/>
<path d="M103.639 13.4435H67.3059V57.952H103.639V13.4435Z" fill="#CCD1F2"/>
<path d="M103.639 13.4435H67.3059V19.8018H103.639V13.4435Z" fill="#A6B3FF"/>
<path d="M71.3935 17.9851C72.146 17.9851 72.756 17.3751 72.756 16.6226C72.756 15.8701 72.146 15.2601 71.3935 15.2601C70.641 15.2601 70.031 15.8701 70.031 16.6226C70.031 17.3751 70.641 17.9851 71.3935 17.9851Z" fill="#F0F1FB"/>
<path d="M75.935 17.9851C76.6875 17.9851 77.2975 17.3751 77.2975 16.6226C77.2975 15.8701 76.6875 15.2601 75.935 15.2601C75.1825 15.2601 74.5725 15.8701 74.5725 16.6226C74.5725 17.3751 75.1825 17.9851 75.935 17.9851Z" fill="#F0F1FB"/>
<path d="M80.4768 17.9851C81.2293 17.9851 81.8393 17.3751 81.8393 16.6226C81.8393 15.8701 81.2293 15.2601 80.4768 15.2601C79.7243 15.2601 79.1143 15.8701 79.1143 16.6226C79.1143 17.3751 79.7243 17.9851 80.4768 17.9851Z" fill="#F0F1FB"/>
<path d="M73.8477 23.9352H78.931C79.7595 23.9352 80.431 24.6068 80.431 25.4352V35.9686C80.431 36.797 79.7595 37.4686 78.931 37.4686H73.8477C73.0192 37.4686 72.3477 36.797 72.3477 35.9686V25.4352C72.3477 24.6068 73.0192 23.9352 73.8477 23.9352Z" fill="#F0F1FB" stroke="#F0F1FB"/>
<path d="M86.3811 24.3435H99.0978" stroke="#F0F1FB" stroke-width="2" stroke-linecap="round" stroke-linejoin="round"/>
<path d="M73.6643 43.4187H99.0978" stroke="#F0F1FB" stroke-width="2" stroke-linecap="round" stroke-linejoin="round"/>
<path d="M73.6643 49.777H99.0978" stroke="#F0F1FB" stroke-width="2" stroke-linecap="round" stroke-linejoin="round"/>
<path d="M86.3811 30.7019H99.0978" stroke="#F0F1FB" stroke-width="2" stroke-linecap="round" stroke-linejoin="round"/>
<path d="M86.3811 37.0603H99.0978" stroke="#F0F1FB" stroke-width="2" stroke-linecap="round" stroke-linejoin="round"/>
<path d="M75.4811 37.9686H17.3474V81.5689H75.4811V37.9686Z" fill="#A6B3FF"/>
<path d="M50.0475 44.327H28.2474C25.2374 44.327 22.7974 46.7671 22.7974 49.7771C22.7974 52.787 25.2374 55.2271 28.2474 55.2271H50.0475C53.0575 55.2271 55.4975 52.787 55.4975 49.7771C55.4975 46.7671 53.0575 44.327 50.0475 44.327Z" fill="#F0F1FB"/>
<path d="M64.5809 55.2271C67.5909 55.2271 70.0309 52.787 70.0309 49.7771C70.0309 46.7671 67.5909 44.327 64.5809 44.327C61.5709 44.327 59.1309 46.7671 59.1309 49.7771C59.1309 52.787 61.5709 55.2271 64.5809 55.2271Z" fill="#F0F1FB"/>
<path d="M23.7056 63.4021H56.4057" stroke="#F0F1FB" stroke-width="2" stroke-linecap="round" stroke-linejoin="round"/>
<path d="M23.7056 71.5771H43.2348" stroke="#F0F1FB" stroke-width="2" stroke-linecap="round" stroke-linejoin="round"/>
</g>
</svg>
