<svg width="220" height="220" viewBox="0 0 220 220" fill="none" xmlns="http://www.w3.org/2000/svg">
<g clip-path="url(#clip0_1356_10483)">
<path d="M163 19C194.819 31.788 225.7 64.0992 216.719 101.531C203.815 155.314 201.401 132.826 194.5 169.5C187.777 205.226 157.496 209.035 134.5 207C111.106 204.93 81.8489 184.856 69.5 155C58.6898 128.865 16.7524 115.374 7.134 88.9617C-2.67331 62.031 16.2415 28.2583 38.0849 13.3099C59.9282 -1.63861 105 -4.3099 163 19Z" fill="white"/>
<path d="M28.9445 96.6714C28.9445 46.9268 69.2704 6.60092 119.015 6.60092C168.76 6.60092 209.085 46.9268 209.085 96.6714V111.78C209.085 161.525 168.76 201.851 119.015 201.851C69.2704 201.851 28.9445 161.525 28.9445 111.78V96.6714Z" fill="#F0F1FB"/>
<path d="M37.5 212C42.1667 204.167 52.2 189.7 53 182.5C54 173.5 53.5 151 57.5 141.5C61.5 132 68 118.5 74 116C78.8 114 82.3333 114.5 83.5 115L87.5 110.5C88 108.167 91.4 104.2 101 107L108.5 87.5C110.167 83 114.3 74.4 117.5 76C121.5 78 123.5 84 122 95.5C120.8 104.7 110.5 133 104 147.5C103.266 148.692 102.432 150.994 101.33 153.157C104.551 149.401 109.485 144.177 113.5 141.5C131.5 129.5 135.5 127 140.5 128C145.5 129 147.5 129 144 132.5C141.2 135.3 135.833 145.667 133.5 150.5L127 161C123.833 162.833 117.5 166.8 117.5 168C117.5 169.5 102 183.5 98 195C94.8 204.2 94.6667 202.167 91.5 210L37.5 212Z" fill="white"/>
<path d="M86.8681 196.33C134.547 209.105 183.554 180.811 196.33 133.132C209.105 85.4534 180.81 36.4458 133.132 23.6704C100.143 14.831 66.5175 25.6532 44.6976 48.9538M20.6746 106.489C20.2692 116.566 21.5901 126.469 24.428 135.836" stroke="#41415A" stroke-width="1.5" stroke-miterlimit="10"/>
<path d="M135.118 35.4307L159.476 59.7881C160.818 61.1305 160.818 63.307 159.476 64.6494L135.118 89.0068C133.776 90.3492 131.599 90.3492 130.257 89.0068L105.899 64.6494C104.557 63.307 104.557 61.1305 105.899 59.7881L130.257 35.4307C131.599 34.0883 133.776 34.0883 135.118 35.4307Z" stroke="#E0E3F6" stroke-width="1.79253" stroke-linecap="round" stroke-linejoin="round"/>
<path d="M25.4375 69.4375C25.4375 62.9827 30.6702 57.75 37.125 57.75H57.75C64.2048 57.75 69.4375 62.9827 69.4375 69.4375C69.4375 75.8923 64.2048 81.125 57.75 81.125H37.125C30.6702 81.125 25.4375 75.8923 25.4375 69.4375Z" fill="#5567D5"/>
<path d="M166.375 161.219C166.375 151.537 174.224 143.688 183.906 143.688C193.588 143.688 201.437 151.537 201.437 161.219C201.437 170.901 193.588 178.75 183.906 178.75C174.224 178.75 166.375 170.901 166.375 161.219Z" fill="#5567D5"/>
<path d="M130.951 131.091C126.462 133.731 121.11 137.951 115.277 144.727" stroke="#41415A" stroke-width="1.5" stroke-linecap="round" stroke-linejoin="round"/>
<path d="M108.3 178.806C113.76 171.79 119.638 165.379 123.918 162.724C130.159 157.923 135.679 142.322 146 131.041C147.265 129.658 145.28 127.119 143.84 126.96C143.12 126.881 141.365 126.934 138.8 127.651" stroke="#41415A" stroke-width="1.5" stroke-linecap="round" stroke-linejoin="round"/>
<path d="M93.4349 202.813C93.9509 200.413 96.7208 195.372 100.528 189.611" stroke="#41415A" stroke-width="1.5" stroke-linecap="round" stroke-linejoin="round"/>
<path d="M104.044 99.6861C107.884 90.4524 111.065 82.8316 112.157 80.4001C115.776 72.3233 124.158 74.6395 121.998 93.6015" stroke="#41415A" stroke-width="1.5" stroke-linecap="round" stroke-linejoin="round"/>
<path d="M84.5539 144.967C86.6901 140.932 92.7004 126.797 98.6098 112.7" stroke="#41415A" stroke-width="1.5" stroke-linecap="round" stroke-linejoin="round"/>
<path d="M100.876 149.287C101.836 147.607 108.076 135.366 110.237 129.365" stroke="#41415A" stroke-width="1.5" stroke-linecap="round" stroke-linejoin="round"/>
<path d="M74.7033 129.365C80.7495 119.807 88.1447 108.483 89.1048 107.523C90.545 106.083 94.7934 103.906 101.07 106.803" stroke="#41415A" stroke-width="1.5" stroke-linecap="round" stroke-linejoin="round"/>
<path d="M67.7522 140.646C68.429 139.48 69.3819 137.903 70.5149 136.064" stroke="#41415A" stroke-width="1.5" stroke-linecap="round" stroke-linejoin="round"/>
<path d="M54.2436 163.557C54.3324 156.411 53.7203 150.523 55.5109 144.967C61.4443 126.54 71.6862 117.306 75.193 115.204C78.7933 113.044 81.1768 113.764 83.8339 115.204" stroke="#41415A" stroke-width="1.5" stroke-linecap="round" stroke-linejoin="round"/>
<path d="M37.269 209.294C44.8298 198.941 49.047 190.228 51.3849 182.716" stroke="#41415A" stroke-width="1.5" stroke-linecap="round" stroke-linejoin="round"/>
</g>
<defs>
<clipPath id="clip0_1356_10483">
<rect width="220" height="220" fill="white"/>
</clipPath>
</defs>
</svg>
