<svg width="160" height="142" viewBox="0 0 160 142" fill="none" xmlns="http://www.w3.org/2000/svg">
<path fill-rule="evenodd" clip-rule="evenodd" d="M15.8752 74.2276C15.8752 37.6159 45.5549 7.93582 82.167 7.93582C118.779 7.93582 148.459 37.615 148.459 74.2276C148.459 110.84 118.779 140.519 82.167 140.519C45.5549 140.519 15.8752 110.839 15.8752 74.2276Z" fill="#F7F8FB"/>
<path fill-rule="evenodd" clip-rule="evenodd" d="M20.2737 97.4495C22.1391 95.7273 28.6842 89.7199 30.0388 89.1075C31.3935 88.4952 47.1036 106.021 45.552 107.275C44.0003 108.529 35.7882 116.092 32.7 118.015C26.531 111.3 22.2416 103.59 20.2737 97.4495Z" fill="white"/>
<path d="M19.6458 95.9252C21.5112 94.203 27.8247 88.3794 29.1813 87.7671C30.5378 87.1547 46.3609 105.977 44.8092 107.231C43.2575 108.484 35.0218 116.523 32.588 118.064" stroke="#40404B" stroke-linecap="round" stroke-linejoin="round"/>
<path fill-rule="evenodd" clip-rule="evenodd" d="M60.9705 77.6537C69.9726 91.3448 47.8643 108.527 44.4803 109.514C41.0963 110.501 26.5253 90.5387 27.5804 87.9098C28.6355 85.2808 50.0997 61.1204 60.9705 77.6537Z" fill="#5567D5"/>
<path d="M37.8985 75.063C45.046 70.1046 53.9418 67.2436 59.7809 76.1242C68.783 89.8154 46.6747 106.997 43.2907 107.984C39.9066 108.971 25.3357 89.0069 26.3912 86.3803C26.5958 85.8719 27.5654 84.555 29.0755 82.8838" stroke="#40404B" stroke-linecap="round" stroke-linejoin="round"/>
<path fill-rule="evenodd" clip-rule="evenodd" d="M79.0579 66.0415C68.9185 65.9806 58.9417 67.9315 54.0244 71.7517C46.0391 77.9566 40.7282 116.312 43.0184 127.726C53.988 135.767 67.5199 140.518 82.1631 140.518C93.7229 140.518 104.589 137.555 114.051 132.354C115.726 118.102 111.598 77.3593 105.068 72.4028C99.5001 68.1763 89.1977 66.1025 79.0579 66.0415Z" fill="#5567D5"/>
<path d="M44.9963 88.0997C46.9175 79.6656 49.4898 72.6319 52.5374 70.2647C62.3721 62.6244 92.4448 62.4619 103.58 70.9149C110.508 76.1747 115.04 121.795 112.196 133.174" stroke="#40404B" stroke-linecap="round" stroke-linejoin="round"/>
<path d="M41.5651 126.428C41.1053 123.524 41.0765 118.815 41.4233 113.314" stroke="#40404B" stroke-linecap="round" stroke-linejoin="round"/>
<path fill-rule="evenodd" clip-rule="evenodd" d="M121.668 128.055C120.255 126.642 110.517 113.361 109.42 112.11C108.323 110.86 129.143 93.5954 130.423 95.105C131.704 96.6146 136.838 103.799 139.231 107.749C137.308 111.216 126.671 124.641 121.668 128.055Z" fill="white"/>
<path d="M122.141 127.003C120.959 125.392 110.405 110.852 109.307 109.602C108.21 108.351 129.031 91.0869 130.311 92.5965C131.592 94.1061 137.724 102.499 139.837 106.606" stroke="#40404B" stroke-linecap="round" stroke-linejoin="round"/>
<path fill-rule="evenodd" clip-rule="evenodd" d="M99.2947 70.363C109.808 63.1489 135.184 87.9254 135.121 95.311C135.057 102.697 112.495 116.117 108.737 114.179C104.595 112.045 83.1621 81.4261 99.2947 70.363Z" fill="#5567D5"/>
<path d="M92.9593 86.4866C91.5418 79.6193 92.4519 73.0317 98.3047 69.0178C108.82 61.8056 134.194 86.5816 134.13 93.9691C134.066 101.357 111.505 114.775 107.747 112.837C106.544 112.217 103.884 109.196 101.109 104.95" stroke="#40404B" stroke-linecap="round" stroke-linejoin="round"/>
<path fill-rule="evenodd" clip-rule="evenodd" d="M15.8752 74.2276C15.8752 37.6159 45.5549 7.93582 82.167 7.93582C118.779 7.93582 148.459 37.615 148.459 74.2276C148.459 110.84 118.779 140.519 82.167 140.519C45.5549 140.519 15.8752 110.839 15.8752 74.2276Z" stroke="#40404B" stroke-linecap="round" stroke-linejoin="round"/>
<path fill-rule="evenodd" clip-rule="evenodd" d="M139.15 85.261C139.216 83.3563 142.927 82.5838 147.44 83.5349C151.954 84.486 155.56 86.8008 155.495 88.705C155.43 90.6092 151.718 91.3817 147.205 90.4306C142.691 89.4794 139.084 87.1651 139.15 85.261Z" fill="#F7F8FB"/>
<path fill-rule="evenodd" clip-rule="evenodd" d="M140.489 77.9755C140.554 76.0713 144.266 75.2983 148.779 76.2494C153.292 77.2006 156.899 79.5153 156.834 81.4195C156.769 83.3237 153.057 84.0967 148.543 83.1456C144.03 82.1944 140.426 79.8796 140.489 77.9755Z" fill="#F7F8FB"/>
<path fill-rule="evenodd" clip-rule="evenodd" d="M140.316 70.4462C140.381 68.542 144.093 67.7695 148.607 68.7201C153.12 69.6708 156.726 71.9861 156.661 73.8902C156.596 75.7944 152.884 76.5674 148.37 75.6163C143.857 74.6651 140.251 72.3503 140.316 70.4462Z" fill="#F7F8FB"/>
<path d="M142.171 67.683C143.654 67.4089 145.64 67.4675 147.811 67.9249C152.324 68.876 155.93 71.1908 155.865 73.095C155.821 74.3807 154.115 75.1508 151.621 75.2212" stroke="#40404B" stroke-linecap="round" stroke-linejoin="round"/>
<path d="M141.059 75.5865C142.546 74.9425 145.102 74.8466 147.984 75.4542C152.497 76.4053 156.103 78.7201 156.038 80.6243C155.991 82.0125 154.006 82.7978 151.182 82.7553" stroke="#40404B" stroke-linecap="round" stroke-linejoin="round"/>
<path d="M141.985 82.3707C143.316 82.2648 144.921 82.3768 146.643 82.7397C151.157 83.6908 154.763 86.0051 154.698 87.9098C154.657 89.0995 153.192 89.847 150.997 90.0096" stroke="#40404B" stroke-linecap="round" stroke-linejoin="round"/>
<path fill-rule="evenodd" clip-rule="evenodd" d="M7.27101 73.2103C7.33622 71.3061 11.0482 70.5336 15.5615 71.4847C20.0748 72.4359 23.6809 74.7502 23.6157 76.6548C23.5505 78.5595 19.839 79.3315 15.3252 78.3804C10.8115 77.4292 7.20581 75.1145 7.27101 73.2103Z" fill="#F7F8FB"/>
<path fill-rule="evenodd" clip-rule="evenodd" d="M8.61098 65.9248C8.67618 64.0206 12.3881 63.2481 16.9015 64.1992C21.4148 65.1504 25.0209 67.4651 24.9557 69.3707C24.8905 71.2763 21.179 72.0475 16.6657 71.0963C12.1524 70.1452 8.54577 67.8294 8.61098 65.9248Z" fill="#F7F8FB"/>
<path fill-rule="evenodd" clip-rule="evenodd" d="M8.43811 58.3955C8.50332 56.4914 12.2153 55.7188 16.7286 56.67C21.2419 57.6211 24.848 59.9359 24.7828 61.8401C24.7176 63.7442 21.0061 64.5168 16.4928 63.5656C11.9795 62.6145 8.37338 60.2988 8.43811 58.3955Z" fill="#F7F8FB"/>
<path d="M9.37213 60.1962C7.98298 59.2796 7.14523 58.2552 7.17689 57.3286C7.2421 55.4244 10.9541 54.6519 15.4674 55.603C17.4892 56.0283 19.3286 56.7285 20.7381 57.5403" stroke="#40404B" stroke-linecap="round" stroke-linejoin="round"/>
<path d="M11.2831 68.6823C8.8894 67.5743 7.30652 66.1252 7.34999 64.8579C7.4152 62.9537 11.1272 62.1812 15.6405 63.1319C17.521 63.5283 19.2442 64.1615 20.6098 64.9028" stroke="#40404B" stroke-linecap="round" stroke-linejoin="round"/>
<path d="M12.5389 76.9308C8.766 75.8317 5.95226 73.8269 6.0099 72.1429C6.07511 70.2387 9.78707 69.4657 14.3004 70.4169C16.9402 70.9735 19.2701 71.996 20.7358 73.1304" stroke="#40404B" stroke-linecap="round" stroke-linejoin="round"/>
<path fill-rule="evenodd" clip-rule="evenodd" d="M89.2015 51.4748C88.772 53.9195 86.7917 63.7631 88.3094 74.4331C86.5588 75.7561 76.3514 76.712 73.5438 74.4331C73.643 70.1055 73.7418 61.4507 73.3458 59.2375C72.9499 57.0243 89.6324 49.0306 89.2015 51.4748Z" fill="white"/>
<path d="M72.3975 73.0137C72.4963 68.6861 72.5955 60.0313 72.1991 57.8181C71.8027 55.6049 88.4843 47.6121 88.0553 50.0554C87.6262 52.4987 85.6455 62.3437 87.1632 73.0137C86.3708 73.6114 83.8462 74.135 81.0589 74.3178" stroke="#40404B" stroke-linecap="round" stroke-linejoin="round"/>
<path fill-rule="evenodd" clip-rule="evenodd" d="M55.8681 37.3102C56.8395 25.3928 65.7835 16.3836 75.8444 17.1874C85.9054 17.9911 93.2745 28.3034 92.3025 40.2208C91.3306 52.1382 82.3871 61.1492 72.3262 60.346C62.2653 59.5427 54.8961 49.2276 55.8681 37.3102Z" fill="white"/>
<path d="M81.9459 56.2575C78.8349 58.3795 75.1957 59.4742 71.3978 59.1709C66.7125 58.7967 62.6093 56.36 59.6637 52.6599" stroke="#40404B" stroke-linecap="round" stroke-linejoin="round"/>
<path d="M55.7541 44.8976C54.9934 42.1746 54.6896 39.2092 54.94 36.1375C55.9115 24.2201 64.8554 15.2109 74.9169 16.0146C84.9783 16.8184 92.3464 27.1307 91.375 39.0481C91.082 42.6391 90.0657 45.9655 88.5126 48.8392" stroke="#40404B" stroke-linecap="round" stroke-linejoin="round"/>
<path fill-rule="evenodd" clip-rule="evenodd" d="M73.5556 32.9575C73.6945 31.6695 74.28 30.6763 74.863 30.7392C75.4461 30.802 75.8057 31.8977 75.6663 33.1853C75.5269 34.4729 74.9415 35.4665 74.3589 35.4032C73.7763 35.3399 73.4162 34.2451 73.5556 32.9575Z" fill="#40404B"/>
<path d="M65.5388 34.0367C65.0762 36.0307 63.7943 38.3091 62.2634 39.5177" stroke="#40404B" stroke-linecap="round" stroke-linejoin="round"/>
<path fill-rule="evenodd" clip-rule="evenodd" d="M69.2771 46.4441C69.2771 45.2743 70.2255 44.3259 71.3953 44.3259C72.5652 44.3259 73.5135 45.2743 73.5135 46.4441C73.5135 47.614 72.5652 48.5623 71.3953 48.5623C70.2256 48.5621 69.2774 47.6139 69.2771 46.4441Z" stroke="#40404B" stroke-linecap="round" stroke-linejoin="round"/>
<path fill-rule="evenodd" clip-rule="evenodd" d="M86.9912 40.5605C85.7122 40.4693 82.0408 35.2312 85.8071 31.6303C83.9592 29.8301 73.0884 21.6931 60.028 26.7394C58.3313 25.0139 53.6998 18.0757 57.6976 15.0843C61.6955 12.0929 63.3653 15.7103 63.8831 17.1482C62.6754 13.3521 63.3554 3.14137 73.5221 3.02812C83.6889 2.91551 94.6197 32.6206 94.178 37.9514C93.7362 43.2821 93.714 44.0022 86.9912 40.5605Z" fill="#FF9D52"/>
<path d="M86.55 16.8425C90.3961 24.815 92.9339 33.3445 92.7166 35.9683C92.2743 41.2991 92.2526 42.0192 85.5298 38.5775C84.2513 38.4863 80.5795 33.2481 84.3457 29.6472C82.8838 28.2226 75.7708 22.8295 66.3945 23.1418" stroke="#40404B" stroke-linecap="round" stroke-linejoin="round"/>
<path d="M58.5666 24.7568C56.8698 23.0313 52.2384 16.0931 56.2362 13.1017C60.234 10.1103 61.9062 13.7273 62.4217 15.1656C61.214 11.369 61.8944 1.15876 72.0607 1.04536C74.6122 1.01701 77.2143 2.86874 79.6713 5.74201" stroke="#40404B" stroke-linecap="round" stroke-linejoin="round"/>
<path fill-rule="evenodd" clip-rule="evenodd" d="M84.0867 43.0912C84.0867 40.519 86.1719 38.4338 88.7441 38.4338C91.3163 38.4338 93.4015 40.519 93.4015 43.0912C93.4015 45.6635 91.3163 47.7487 88.7441 47.7487C86.1719 47.7487 84.0867 45.6635 84.0867 43.0912Z" fill="white"/>
<path d="M86.3755 38.2292C88.3633 37.3148 90.7196 37.9073 92.0384 39.6532C93.3572 41.3991 93.2828 43.8277 91.8597 45.4896C90.4366 47.1516 88.0485 47.5989 86.1204 46.5646" stroke="#40404B" stroke-linecap="round" stroke-linejoin="round"/>
</svg>
