<svg width="220" height="220" viewBox="0 0 220 220" fill="none" xmlns="http://www.w3.org/2000/svg">
<g clip-path="url(#clip0_1355_9905)">
<path d="M173 17C144.6 3.8 119.5 21.6772 92.5 41.5C53 70.5 23 66.5 8.00002 94.5C-6.99998 122.5 7.78882 154.712 24.5 167C41.5 179.5 68.5 182.5 96 171.5C120.073 161.871 173.5 167 193 149.5C212.5 132 224.5 105.5 219.5 83.5C214.5 61.5 208.5 33.5 173 17Z" fill="white"/>
<path opacity="0.503674" d="M165.86 154H189.942C197.596 154 203.802 160.205 203.802 167.86C203.802 175.515 197.596 181.721 189.942 181.721H165.86C158.206 181.721 152 175.515 152 167.86C152 160.205 158.206 154 165.86 154Z" stroke="#C8CEF0" stroke-width="1.3444" stroke-linecap="round" stroke-linejoin="round"/>
<path opacity="0.503674" d="M30.1601 52.0816L47.8987 69.7837C49.3647 71.2467 49.3671 73.6211 47.9042 75.087C47.9023 75.0889 47.9005 75.0907 47.8987 75.0925L30.1601 92.7946C28.6962 94.2555 26.3261 94.2555 24.8622 92.7946L7.12357 75.0925C5.6576 73.6295 5.65515 71.2552 7.11811 69.7892C7.11993 69.7874 7.12175 69.7856 7.12357 69.7837L24.8622 52.0816C26.3261 50.6208 28.6962 50.6208 30.1601 52.0816Z" stroke="#C8CEF0" stroke-width="1.3444" stroke-linecap="round" stroke-linejoin="round"/>
<path d="M37 136.867H187V161C187 164.314 184.314 167 181 167H43C39.6863 167 37 164.314 37 161V136.867Z" fill="#F0F1FB"/>
<path d="M37 106.733H187V136.867H37V106.733Z" fill="#F0F1FB"/>
<path d="M187 106.733V136.867" stroke="#43435C" stroke-miterlimit="10"/>
<path d="M36 139.867V125.738V109.733" stroke="#43435C" stroke-miterlimit="10"/>
<path d="M37 76.6H187V106.733H37V76.6Z" fill="#F0F1FB"/>
<path d="M187 106.733H80.7741M187 106.733V108.999M55.6566 106.733H34V91.5471" stroke="#43435C" stroke-miterlimit="10"/>
<path d="M64.5 55H159.5L188.011 76.6H35.9894L64.5 55Z" fill="#D7DFFF"/>
<path d="M151.155 54H157.993C159.296 54 160.563 54.4239 161.603 55.2077L187.612 74.8013C187.906 75.0228 188.036 75.4896 188 76.2017L188.011 96.7551M170.691 76.6C124.268 76.6 92.5484 76.6 75.5304 76.6M36 83.0995C36 83.0763 36 80.542 36 75.4965C36.1098 75.145 36.239 74.9133 36.3877 74.8013L62.3969 55.2077C63.4373 54.4239 64.7045 54 66.0071 54H127.258" stroke="#43435C" stroke-miterlimit="10"/>
<path d="M88 136.867H133V141.907C133 144.116 131.209 145.907 129 145.907H92C89.7909 145.907 88 144.116 88 141.907V136.867Z" fill="#A6B3FF"/>
<path d="M110.273 145.907H92.5C90.0147 145.907 88 143.892 88 141.407V136.867H133V141.407C133 143.892 130.985 145.907 128.5 145.907" stroke="#43435C" stroke-miterlimit="10"/>
<path d="M182.5 167H38.5C36.0147 167 34 164.985 34 162.5V136.867H87.7818H133.154H184" stroke="#43435C" stroke-miterlimit="10"/>
<path d="M88 106.733H133V111.773C133 113.982 131.209 115.773 129 115.773H92C89.7909 115.773 88 113.982 88 111.773V106.733Z" fill="#A6B3FF"/>
<path d="M88 106.733H133V111.273C133 113.759 130.985 115.773 128.5 115.773H92.5C90.0147 115.773 88 113.759 88 111.273" stroke="#43435C" stroke-miterlimit="10"/>
<path d="M88 76.6H133V81.64C133 83.8491 131.209 85.64 129 85.64H92C89.7909 85.64 88 83.8491 88 81.64V76.6Z" fill="#A6B3FF"/>
<path d="M133 81.14C133 83.6253 130.985 85.64 128.5 85.64H92.5C90.0147 85.64 88 83.6253 88 81.14V76.6H133" stroke="#43435C" stroke-miterlimit="10"/>
<path fill-rule="evenodd" clip-rule="evenodd" d="M193.998 26C181.851 26 172 36.0989 172 48.5575C172 58.5234 178.303 66.9773 187.045 69.96C188.146 70.1677 188.547 69.4712 188.547 68.873C188.547 68.3385 188.528 66.9191 188.517 65.0373C182.398 66.3999 181.107 62.013 181.107 62.013C180.106 59.4069 178.664 58.7132 178.664 58.7132C176.666 57.3146 178.815 57.3423 178.815 57.3423C181.023 57.5015 182.185 59.6672 182.185 59.6672C184.147 63.1139 187.334 62.1182 188.588 61.5408C188.788 60.084 189.356 59.0898 189.984 58.5262C185.099 57.9571 179.963 56.0212 179.963 47.3777C179.963 44.9156 180.821 42.9008 182.228 41.3249C182.001 40.7544 181.246 38.4599 182.444 35.3553C182.444 35.3553 184.29 34.7488 188.493 37.6678C190.247 37.1666 192.13 36.9173 194.001 36.9076C195.87 36.9173 197.751 37.1666 199.508 37.6678C203.709 34.7488 205.552 35.3553 205.552 35.3553C206.753 38.4599 205.998 40.7544 205.772 41.3249C207.182 42.9008 208.033 44.9156 208.033 47.3777C208.033 56.0434 202.889 57.9502 197.989 58.5082C198.778 59.2047 199.481 60.5812 199.481 62.686C199.481 65.7006 199.454 68.1336 199.454 68.873C199.454 69.4767 199.851 70.1788 200.967 69.9586C209.702 66.969 216 58.5207 216 48.5575C216 36.0989 206.149 26 193.998 26Z" fill="#161514"/>
</g>
<defs>
<clipPath id="clip0_1355_9905">
<rect width="220" height="220" fill="white"/>
</clipPath>
</defs>
</svg>
