<svg width="280" height="220" viewBox="0 0 280 220" fill="none" xmlns="http://www.w3.org/2000/svg">
<path d="M68.0131 19.0935C103.692 6.82955 157.321 26.9194 189.768 51.0671C237.237 86.3942 248.274 79.3933 266.3 113.502C284.326 147.611 270.76 176.617 250.678 191.585C230.248 206.812 199.893 210.101 165.268 201.567C124.768 191.585 56.2019 199.885 32.768 178.567C9.33403 157.249 6.26802 136.567 4.26798 103.567C2.60645 76.1521 8.76795 39.4579 68.0131 19.0935Z" fill="white"/>
<path opacity="0.503674" d="M179.928 5.64347L203.899 29.5647C205.365 31.0276 205.367 33.402 203.904 34.868C203.902 34.8698 203.9 34.8716 203.899 34.8734L179.928 58.7946C178.464 60.2555 176.094 60.2555 174.63 58.7946L150.66 34.8734C149.194 33.4105 149.191 31.0361 150.654 29.5701C150.656 29.5683 150.658 29.5665 150.66 29.5647L174.63 5.64347C176.094 4.18264 178.464 4.18264 179.928 5.64347Z" stroke="#C8CEF0" stroke-width="1.3444" stroke-linecap="round" stroke-linejoin="round"/>
<path d="M35.9039 34.092H265.904V181.092H35.9039V34.092Z" fill="#F0F1FB"/>
<circle cx="150.5" cy="118.5" r="50.5" fill="white"/>
<path d="M32.9039 84.4265V36.092M262.904 36.092V156.195M180.216 183.092H32.9039V120.514" stroke="#41415B" stroke-miterlimit="10"/>
<path d="M35.9039 34.092H265.904V53.092H35.9039V34.092Z" fill="#D7DFFF"/>
<path d="M82.9039 39.092H224.904V48.092H82.9039V39.092Z" fill="white"/>
<path d="M234.904 39.092H257.904V48.092H234.904V39.092Z" fill="#B2C3FB"/>
<path d="M40.9039 41.092H46.9039V47.092H40.9039V41.092Z" fill="white"/>
<path d="M51.9039 41.092H57.9039V47.092H51.9039V41.092Z" fill="white"/>
<path d="M62.9039 41.092H68.9039V47.092H62.9039V41.092Z" fill="white"/>
<path d="M178.692 118C178.692 102.706 166.294 90.3077 151 90.3077C145.764 90.3077 140.868 91.7607 136.692 94.2854M123.308 118C123.308 133.294 135.706 145.692 151 145.692C156.236 145.692 161.132 144.239 165.308 141.715" stroke="#A6B3FF" stroke-width="6" stroke-miterlimit="10" stroke-linecap="round"/>
<path d="M132.342 119.684L124 111L114.398 118.267" stroke="#A6B3FF" stroke-width="6" stroke-linecap="round"/>
<path d="M169.5 116L178.5 125L187.5 116" stroke="#A6B3FF" stroke-width="6" stroke-linecap="round"/>
<path d="M150 152C134.77 152 121.932 141.002 118 126" stroke="#41415B" stroke-linecap="round"/>
<path d="M176 132L166 122" stroke="#41415B" stroke-linecap="round"/>
</svg>
