<svg width="140" height="80" viewBox="0 0 140 80" fill="none" xmlns="http://www.w3.org/2000/svg">
<mask id="mask0_2885_18241" style="mask-type:alpha" maskUnits="userSpaceOnUse" x="0" y="0" width="140" height="80">
<rect width="140" height="80" fill="#D9D9D9"/>
</mask>
<g mask="url(#mask0_2885_18241)">
<path d="M58.675 84.9212C49.9033 75.584 44.6229 69.5666 34.4669 61.2678C24.3425 52.984 9.33798 42.3939 8.0943 31.5462C6.83604 20.7291 19.3121 9.63627 32.6314 0.759514C45.9775 -8.12256 60.1346 -14.8106 72.8787 -13.2129C85.598 -11.6032 96.9001 -1.71654 102.991 9.00038C109.081 19.7173 109.984 31.2569 111.376 42.7773C112.768 54.2977 114.667 65.7696 111.503 78.5557C108.37 91.3585 100.149 105.483 89.9293 106.196C79.7158 106.935 67.4459 94.2557 58.675 84.9212Z" fill="white"/>
<path opacity="0.71" d="M84.2946 22.5893C92.1893 22.5893 98.5893 16.1893 98.5893 8.29463C98.5893 0.399925 92.1893 -6 84.2946 -6C76.3999 -6 70 0.399925 70 8.29463C70 16.1893 76.3999 22.5893 84.2946 22.5893Z" fill="#F0F1FB"/>
</g>
<path d="M88 18H24C20.6863 18 18 20.6863 18 24V62C18 65.3137 20.6863 68 24 68H30.0147C31.606 68 33.1321 68.6321 34.2574 69.7574L41.5 77L51 68" stroke="#40404B" stroke-linecap="round" stroke-linejoin="round"/>
<path d="M21 20C21 17.2386 23.2386 15 26 15H86C88.7614 15 91 17.2386 91 20V60C91 62.7614 88.7614 65 86 65H54L44.5 74L35.5 65H26C23.2386 65 21 62.7614 21 60V20Z" fill="#D8DFFF"/>
<path d="M33 39H74" stroke="white" stroke-width="2" stroke-linecap="round" stroke-linejoin="round"/>
<path d="M33 28H74" stroke="white" stroke-width="2" stroke-linecap="round" stroke-linejoin="round"/>
<path d="M33 51H54.5" stroke="white" stroke-width="2" stroke-linecap="round" stroke-linejoin="round"/>
<circle cx="86.5" cy="57.5" r="16.5" fill="#EAF0FF"/>
<path fill-rule="evenodd" clip-rule="evenodd" d="M94.2803 51.2803C94.5732 50.9874 94.5732 50.5126 94.2803 50.2197C93.9874 49.9268 93.5126 49.9268 93.2197 50.2197L86.75 56.6893L80.2803 50.2197C79.9874 49.9268 79.5126 49.9268 79.2197 50.2197C78.9268 50.5126 78.9268 50.9874 79.2197 51.2803L85.6893 57.75L79.2197 64.2197C78.9268 64.5126 78.9268 64.9874 79.2197 65.2803C79.5126 65.5732 79.9874 65.5732 80.2803 65.2803L86.75 58.8107L93.2197 65.2803C93.5126 65.5732 93.9874 65.5732 94.2803 65.2803C94.5732 64.9874 94.5732 64.5126 94.2803 64.2197L87.8107 57.75L94.2803 51.2803Z" fill="#40404B"/>
</svg>
