<svg width="96" height="96" viewBox="0 0 96 96" fill="none" xmlns="http://www.w3.org/2000/svg">
<circle cx="74" cy="24" r="15" stroke="#F0F1FB" stroke-width="2"/>
<path d="M77.0521 49.3399V47.7787V47.5381C77.0521 31.207 63.8702 18 47.8394 18H47.602C33.8253 18 21.9522 27.6067 19.1004 41.1748C9.59954 41.8954 2 49.9396 2 59.7877V60.389C2 70.7162 10.3123 79 20.4079 79H75.7475C83.5851 79 89.9982 72.5162 89.9982 64.5907V63.7508C90.1168 56.0638 84.4172 49.9394 77.0535 49.3393L77.0521 49.3399Z" fill="#F0F1FB"/>
<path d="M46.8394 16H46.602C32.8253 16 20.9522 25.6067 18.1004 39.1748C15.1623 39.3977 12.406 40.3209 10 41.7813M3.18413 49C1.79194 51.6175 1 54.6086 1 57.7877V58.389C1 61.9133 1.96807 65.1997 3.64473 68" stroke="#40404B" stroke-width="1.33333" stroke-linecap="round"/>
<path d="M62 82.2492H78.7474C86.5849 82.2492 92.998 75.7654 92.998 67.8398V67" stroke="#40404B" stroke-linecap="round"/>
<path d="M47.9744 40.2342L41.044 61.4267C40.9518 61.7085 41.1125 62.0166 41.3962 62.1021L43.8681 62.8471L47.2483 63.8197C47.5039 63.8933 47.7671 63.7525 47.8481 63.4989L54.5404 42.562C55.1288 40.7212 54.1186 38.7113 52.2899 38.0848C50.4885 37.4675 48.5661 38.425 47.9744 40.2342Z" fill="#A6B3FF"/>
<path fill-rule="evenodd" clip-rule="evenodd" d="M49.4393 40.9354C49.7747 39.916 50.8602 39.3777 51.8775 39.7263C52.9177 40.0827 53.4888 41.2285 53.1459 42.2708L46.6133 62.1248L42.847 60.9706L49.4393 40.9354ZM41.9095 63.82L41.1373 66.167L42.3855 68.7464L44.8694 67.4249L45.6758 64.9742L41.9095 63.82ZM52.7694 36.8644C50.2008 35.9842 47.4601 37.3434 46.6132 39.9173L38.1972 65.4956C38.0233 66.0242 38.0637 66.6062 38.3098 67.1147L40.4088 71.4522L41.0982 72.8769L42.4569 72.154L46.6098 69.9445C47.0707 69.6993 47.4188 69.2837 47.5841 68.7813L55.9719 43.289C56.8378 40.6572 55.3958 37.7643 52.7694 36.8644Z" fill="#5567D5"/>
<path d="M33.75 64.3034L25.4129 56.8001C25.1923 56.6014 25.1923 56.2554 25.4129 56.0568L33.75 48.5534" stroke="#A6B3FF" stroke-width="3" stroke-linecap="round"/>
<path d="M58.25 48.5534L66.5871 56.0568C66.8077 56.2554 66.8077 56.6014 66.5871 56.8001L58.25 64.3034" stroke="#A6B3FF" stroke-width="3" stroke-linecap="round"/>
</svg>
