<svg width="280" height="220" viewBox="0 0 280 220" fill="none" xmlns="http://www.w3.org/2000/svg">
<g clip-path="url(#clip0_4259_19266)">
<path d="M53.9716 24.5456C89.6504 12.2817 143.279 32.3715 175.726 56.5192C223.195 91.8464 234.233 84.8455 252.259 118.954C270.285 153.064 256.719 182.069 236.636 197.037C216.207 212.265 185.852 215.553 151.226 207.019C110.726 197.037 42.1604 205.337 18.7265 184.019C-4.70748 162.701 -7.77349 142.019 -9.77352 109.019C-11.4351 81.6043 -5.27356 44.91 53.9716 24.5456Z" fill="white"/>
<path opacity="0.503674" d="M165.887 11.0956L189.857 35.0168C191.323 36.4798 191.326 38.8541 189.863 40.3201C189.861 40.3219 189.859 40.3238 189.857 40.3256L165.887 64.2468C164.423 65.7076 162.053 65.7076 160.589 64.2468L136.618 40.3256C135.152 38.8626 135.15 36.4883 136.613 35.0223C136.615 35.0205 136.617 35.0186 136.618 35.0168L160.589 11.0956C162.053 9.63479 164.423 9.63479 165.887 11.0956Z" stroke="#C8CEF0" stroke-width="1.3444" stroke-linecap="round" stroke-linejoin="round"/>
<path d="M21.8625 39.5442H251.863V186.544H21.8625V39.5442Z" fill="#F0F1FB"/>
<path d="M127.2 75.0419C132.336 72.1876 138.581 72.1876 143.717 75.0419L173.049 91.3438C178.445 94.3425 181.791 100.03 181.791 106.203V137.701C181.791 143.874 178.445 149.562 173.049 152.56L143.717 168.862C138.581 171.717 132.336 171.717 127.2 168.862L97.8678 152.56C92.4722 149.562 89.1261 143.874 89.1261 137.701V106.203C89.1261 100.03 92.4722 94.3425 97.8678 91.3438L127.2 75.0419Z" fill="white"/>
<path d="M18.8625 89.8787V41.5442M248.863 41.5442V161.647M166.175 188.544H18.8625V125.966" stroke="#41415B" stroke-miterlimit="10"/>
<path d="M21.8625 39.5442H251.863V58.5442H21.8625V39.5442Z" fill="#D7DFFF"/>
<path d="M68.8625 44.5442H210.863V53.5442H68.8625V44.5442Z" fill="white"/>
<path d="M220.863 44.5442H243.863V53.5442H220.863V44.5442Z" fill="#B2C3FB"/>
<path d="M26.8625 46.5442H32.8625V52.5442H26.8625V46.5442Z" fill="white"/>
<path d="M37.8625 46.5442H43.8625V52.5442H37.8625V46.5442Z" fill="white"/>
<path d="M48.8625 46.5442H54.8625V52.5442H48.8625V46.5442Z" fill="white"/>
<rect width="46" height="8" rx="4" transform="matrix(-1 8.74228e-08 8.74228e-08 1 156.958 91.4521)" fill="#A6B3FF"/>
<rect width="46" height="8" rx="4" transform="matrix(-1 8.74228e-08 8.74228e-08 1 171 138)" fill="#A6B3FF"/>
<path d="M150.958 108.164C150.958 111.417 149.046 114.384 146.032 115.807L138.072 119.566C137.131 120.01 136.534 120.937 136.534 121.952C136.534 122.968 137.131 123.894 138.072 124.339L146.032 128.097C149.046 129.52 150.958 132.488 150.958 135.74V144.452C150.958 146.109 149.615 147.452 147.958 147.452L119.958 147.452C118.302 147.452 116.958 146.109 116.958 144.452V135.74C116.958 132.488 118.871 129.52 121.885 128.097L129.845 124.339C130.786 123.894 131.383 122.968 131.383 121.952C131.383 120.937 130.786 120.01 129.845 119.566L121.885 115.807C118.871 114.384 116.958 111.417 116.958 108.164V99.4522C116.958 97.7953 118.302 96.4522 119.958 96.4522L147.958 96.4521C149.615 96.4521 150.958 97.7953 150.958 99.4521V108.164Z" fill="#F0F1FB"/>
<path d="M125.708 125.931L121.391 128.082C118.675 129.435 116.958 132.208 116.958 135.242L116.958 139.371M138.833 123.752L143.208 125.931L147.526 128.082C150.242 129.435 151.958 132.208 151.958 135.242L151.958 145.452C151.958 147.109 150.615 148.452 148.958 148.452L134.458 148.452" stroke="#40404B" stroke-linecap="round"/>
<path d="M151.958 102.452L151.958 108.203C151.958 111.321 150.147 114.155 147.317 115.464L143.208 117.365M131.271 122.452V122.452C131.271 121.201 130.544 120.064 129.409 119.539L129.083 119.388L124.708 117.365L120.6 115.464C117.77 114.155 115.958 111.321 115.958 108.203L115.958 99.4522C115.958 97.7953 117.302 96.4522 118.958 96.4522L133.458 96.4522" stroke="#40404B" stroke-linecap="round"/>
<path d="M161.283 140H135.613C130.677 134.902 138.575 130.569 139.316 130.569C143.265 130.365 147.049 128.105 148.448 127C148.695 128.02 150.67 128.529 152.891 129.294C158.321 130.059 160.296 132.098 160.789 132.608C164.541 137.094 162.682 139.405 161.283 140Z" fill="#FF9133"/>
<circle cx="144.75" cy="110.75" r="0.75" fill="#40404B"/>
<circle cx="151.75" cy="126.75" r="0.75" fill="#40404B"/>
<circle cx="147.75" cy="112.75" r="0.75" fill="#40404B"/>
<circle cx="144.75" cy="131.75" r="0.75" fill="#40404B"/>
<circle cx="148.75" cy="115.75" r="0.75" fill="#40404B"/>
<circle cx="148.75" cy="119.75" r="0.75" fill="#40404B"/>
<path d="M151.5 110.75C151.5 111.164 151.164 111.5 150.75 111.5C150.336 111.5 150 111.164 150 110.75C150 110.336 150.336 110 150.75 110C151.164 110 151.5 110.336 151.5 110.75Z" fill="#40404B"/>
<circle cx="140.708" cy="114.202" r="0.75" fill="#40404B"/>
<circle cx="144.75" cy="125.75" r="0.75" fill="#40404B"/>
</g>
<defs>
<clipPath id="clip0_4259_19266">
<rect width="280" height="220" fill="white"/>
</clipPath>
</defs>
</svg>
