<svg width="124" height="124" viewBox="0 0 124 124" fill="none" xmlns="http://www.w3.org/2000/svg">
    <path d="M48.25 8.51591C56.7585 3.60351 67.2414 3.60351 75.7499 8.51592L101.044 23.1193C109.552 28.0317 114.794 37.1101 114.794 46.9349V76.1416C114.794 85.9664 109.552 95.0449 101.044 99.9573L75.7499 114.561C67.2414 119.473 56.7585 119.473 48.2499 114.561L22.9562 99.9573C14.4477 95.0449 9.20623 85.9664 9.20623 76.1416V46.9349C9.20623 37.1101 14.4477 28.0316 22.9562 23.1192L48.25 8.51591Z" fill="url(#paint0_linear_2668_10066)" fill-opacity="0.25" stroke="#1D2028"/>
    <path d="M35.2012 78.88V51.0198C35.2012 50.2637 36.0078 49.7812 36.674 50.1386L62.5457 64.0197C62.8704 64.1938 63.073 64.5324 63.073 64.9008V92.5912C63.073 93.345 62.2707 93.8278 61.6047 93.4748L35.7329 79.7636C35.4057 79.5902 35.2012 79.2502 35.2012 78.88Z" fill="#F7F8FB"/>
    <path d="M90.9448 78.1058V50.2456C90.9448 49.4896 90.1382 49.007 89.472 49.3644L63.6003 63.2455C63.2756 63.4197 63.073 63.7583 63.073 64.1267V91.8171C63.073 92.5708 63.8753 93.0536 64.5413 92.7006L90.4131 78.9894C90.7402 78.816 90.9448 78.4761 90.9448 78.1058Z" fill="#E0E2E9"/>
    <path d="M61.5246 97.3499L87.9157 81.8504C88.833 81.3116 89.3964 80.3273 89.3964 79.2635V49.9597C89.3964 48.8958 88.833 47.9115 87.9157 47.3728L82.4285 44.1501M47.5887 89.1653L35.1336 81.8504C34.2162 81.3116 33.6528 80.3273 33.6528 79.2635V49.9597C33.6528 48.8958 34.2162 47.9115 35.1336 47.3728L40.6208 44.1501" stroke="#1D2028" stroke-linecap="round"/>
    <path d="M63.073 65.054V92.7045" stroke="#1D2028" stroke-linecap="round"/>
    <path d="M58.1275 72.6897L62.5996 64.3844C62.8611 63.8987 62.6799 63.2929 62.1947 63.0306L35.1852 48.4309C34.7495 48.1953 34.2069 48.3143 33.9097 48.7106L28.1562 56.382C27.7892 56.8713 27.9435 57.5725 28.4821 57.8625L56.773 73.096C57.2592 73.3579 57.8657 73.1759 58.1275 72.6897Z" fill="white"/>
    <path d="M87.0629 10.7449C89.2936 10.7449 91.102 8.93645 91.102 6.70568C91.102 4.4749 89.2936 2.6665 87.0629 2.6665C84.8321 2.6665 83.0237 4.4749 83.0237 6.70568" stroke="#1D2028" stroke-linecap="round"/>
    <path d="M42.5562 65.4409L28.4821 57.8625C27.9435 57.5725 27.7892 56.8713 28.1562 56.382L33.9097 48.7106C34.2069 48.3143 34.7495 48.1953 35.1852 48.4309L62.1947 63.0306C62.6799 63.2929 62.8611 63.8987 62.5996 64.3844L58.1275 72.6897C57.8657 73.1759 57.2592 73.3579 56.773 73.096L50.1048 69.5055" stroke="#1D2028" stroke-linecap="round" stroke-dasharray="2 4"/>
    <path d="M67.5473 71.9196L63.5497 64.5276C63.2866 64.0411 63.4683 63.4335 63.9553 63.1714L88.472 49.9765C88.9069 49.7424 89.4475 49.8609 89.7446 50.2554L94.8882 57.0838C95.2572 57.5736 95.1024 58.277 94.562 58.5668L68.8994 72.3253C68.4139 72.5856 67.8093 72.4042 67.5473 71.9196Z" fill="white"/>
    <path d="M66.1699 68.925L63.5191 63.744C63.2712 63.2595 63.4562 62.6658 63.9354 62.4079L88.472 49.2023C88.9069 48.9683 89.4475 49.0867 89.7446 49.4812L94.8882 56.3096C95.2572 56.7994 95.103 57.5025 94.5626 57.7923C90.3945 60.0269 85.4788 62.6624 81.018 65.054" stroke="#1D2028" stroke-linecap="round" stroke-dasharray="2 4"/>
    <path d="M56.1051 32.5369L50.6855 37.9564L56.1051 43.3759" stroke="black" stroke-linecap="round"/>
    <path d="M69.2665 43.3757L74.686 37.9562L69.2665 32.5367" stroke="black" stroke-linecap="round"/>
    <path d="M59.9761 48.021L64.6214 27.1172" stroke="black" stroke-linecap="round"/>
    <circle cx="53.0081" cy="20.1495" r="0.774216" fill="#1D2028"/>
    <circle cx="83.9769" cy="24.7947" r="0.774216" fill="#1D2028"/>
    <circle cx="73.1378" cy="15.504" r="1.82265" stroke="#1D2028"/>
    <circle cx="39.0722" cy="24.7946" r="1.82265" stroke="#1D2028"/>
    <circle cx="43.7175" cy="4.66503" r="3.37108" stroke="#1D2028"/>
    <defs>
        <linearGradient id="paint0_linear_2668_10066" x1="123.538" y1="85.4698" x2="6.01721" y2="48.2904" gradientUnits="userSpaceOnUse">
            <stop stop-color="#5567D5"/>
            <stop offset="1" stop-color="#0095FF"/>
        </linearGradient>
    </defs>
</svg>
