<svg width="140" height="128" viewBox="0 0 140 128" fill="none" xmlns="http://www.w3.org/2000/svg">
    <path d="M61.902 8.51591C70.4105 3.60351 80.8934 3.60351 89.402 8.51592L116.401 24.1036C124.909 29.016 130.151 38.0945 130.151 47.9193V79.0946C130.151 88.9194 124.909 97.9979 116.401 102.91L89.402 118.498C80.8934 123.41 70.4105 123.41 61.902 118.498L34.9033 102.91C26.3948 97.9979 21.1533 88.9194 21.1533 79.0946V47.9193C21.1533 38.0945 26.3948 29.016 34.9033 24.1036L61.902 8.51591Z" fill="url(#paint0_linear_2714_1510)" fill-opacity="0.25" stroke="#1D2028"/>
    <ellipse cx="75.3275" cy="62.3583" rx="36.4911" ry="37.415" transform="rotate(90 75.3275 62.3583)" fill="white"/>
    <path d="M111.297 6.56537C104.997 9.14752 90.1896 17.7005 82.6745 31.062C75.116 44.5007 74.908 52.7671 75.8487 55.0464L92.979 63.7631C95.3753 63.182 101.935 58.1477 108.35 44.1269C114.727 30.1865 112.918 13.1782 111.297 6.56537Z" fill="#E0E2E9" stroke="#1D2028"/>
    <path d="M79.3088 60.5076L94.5345 38.5471L87.1748 64.5102L79.4148 70.9144L79.3088 60.5076Z" fill="#F0F1FB" stroke="#1D2028"/>
    <path d="M82.0205 32.1792C78.4698 35.3238 69.4463 44.5059 63.1877 56.8055L75.3277 53.1202" stroke="#1D2028"/>
    <path d="M107.764 45.2791C107.312 50.0004 105.201 62.7 98.9426 74.9995L94.7283 63.2822" stroke="#1D2028"/>
    <circle cx="101.078" cy="26.5725" r="4.97079" transform="rotate(26.9693 101.078 26.5725)" fill="white" stroke="#1D2028"/>
    <path d="M76.9058 71.8398C73.8976 76.0363 59.3712 90.7439 40.4285 78.5141C35.2843 75.1929 32.9147 64.0559 37.1446 59.2151C41.3745 54.3743 46.3458 55.0975 45.4145 63.882C44.4832 72.6665 25.4598 86.7579 0.840792 77.1005" stroke="#1D2028" stroke-dasharray="2 4"/>
    <defs>
        <linearGradient id="paint0_linear_2714_1510" x1="139.159" y1="88.2041" x2="17.8783" y2="49.8353" gradientUnits="userSpaceOnUse">
            <stop stop-color="#5567D5"/>
            <stop offset="1" stop-color="#0095FF"/>
        </linearGradient>
    </defs>
</svg>
