<svg width="128" height="128" viewBox="0 0 128 128" fill="none" xmlns="http://www.w3.org/2000/svg">
    <path d="M50.25 8.51591C58.7585 3.60351 69.2415 3.60351 77.75 8.51592L105.176 24.3501C113.684 29.2625 118.926 38.341 118.926 48.1658V79.8342C118.926 89.659 113.684 98.7375 105.176 103.65L77.75 119.484C69.2415 124.396 58.7585 124.396 50.25 119.484L22.8244 103.65C14.3158 98.7375 9.07437 89.659 9.07437 79.8342V48.1658C9.07437 38.341 14.3158 29.2625 22.8244 24.3501L50.25 8.51591Z" fill="url(#paint0_linear_2714_1508)" fill-opacity="0.25" stroke="#1D2028"/>
    <path d="M34.358 42.3414C34.358 41.1927 35.0086 40.1431 36.0374 39.6321C54.1726 30.624 75.4789 30.624 93.6142 39.6321C94.6429 40.1431 95.2935 41.1927 95.2935 42.3414V61.1059C95.2935 73.102 89.7018 84.4126 80.1702 91.6964L64.8258 103.422L49.4814 91.6964C39.9497 84.4126 34.358 73.102 34.358 61.1059V42.3414Z" fill="white" stroke="#1D2028"/>
    <path d="M64.2734 95.5894L63.9762 95.9915L60.5779 93.4796L60.8751 93.0775L59.176 91.8216L58.8788 92.2237L55.4806 89.7118L55.7778 89.3097L54.9282 88.6818C54.6599 88.4834 54.3946 88.282 54.1323 88.0774L53.8248 88.4716C52.7548 87.6371 51.7348 86.7518 50.7672 85.8206L51.1139 85.4603C50.633 84.9975 50.1652 84.5232 49.7109 84.038L49.3459 84.3798C48.4205 83.3917 47.55 82.359 46.7369 81.2865L47.1353 80.9844C46.7325 80.4531 46.3439 79.9119 45.9699 79.3614L45.5563 79.6424C44.797 78.525 44.097 77.3698 43.4587 76.182L43.8991 75.9453C43.5838 75.3585 43.2838 74.7636 42.9993 74.1613L42.5472 74.3748C41.9714 73.1554 41.4585 71.9059 41.0113 70.631L41.4831 70.4655C41.2627 69.8375 41.0585 69.2034 40.8707 68.5636L40.3909 68.7044C40.0118 67.413 39.6988 66.0991 39.4542 64.7677L39.946 64.6773C39.8259 64.0235 39.7225 63.3654 39.6362 62.7036L39.1404 62.7683C38.9667 61.4366 38.8611 60.0902 38.826 58.7337L39.3258 58.7207C39.3172 58.3882 39.3129 58.0551 39.3129 57.7214V56.7956H38.8129V53.0924H39.3129V51.2408H38.8129V47.5376H39.3129V46.6118C39.3129 46.4517 39.3279 46.2941 39.357 46.1405L38.8657 46.0476C39.008 45.2959 39.4303 44.6244 40.0463 44.1706L40.3428 44.5732C40.4686 44.4805 40.6042 44.3986 40.7485 44.3293C41.0608 44.1793 41.3741 44.0323 41.6884 43.8884L41.4803 43.4338C42.7545 42.8506 44.0451 42.3175 45.3493 41.8346L45.5229 42.3035C46.1726 42.0629 46.8257 41.8348 47.4819 41.6194L47.3259 41.1443C48.6556 40.7076 49.9977 40.3221 51.3494 39.9876L51.4695 40.4729C52.1416 40.3066 52.8162 40.153 53.4927 40.0122L53.3908 39.5227C54.7595 39.2378 56.1364 39.0045 57.5184 38.823L57.5835 39.3188C58.2697 39.2287 58.9571 39.1514 59.6455 39.087L59.599 38.5892C60.9896 38.4592 62.3839 38.3811 63.7789 38.3551L63.7883 38.855C64.4799 38.8421 65.1717 38.8421 65.8633 38.855L65.8726 38.3551C67.2676 38.3811 68.662 38.4592 70.0526 38.5892L70.006 39.087C70.6944 39.1514 71.3818 39.2287 72.068 39.3188L72.1331 38.823C73.5152 39.0045 74.892 39.2378 76.2607 39.5227L76.1588 40.0122C76.8354 40.153 77.5099 40.3066 78.182 40.4729L78.3021 39.9876C79.6538 40.3221 80.9959 40.7076 82.3256 41.1443L82.1696 41.6193C82.8258 41.8348 83.4789 42.0629 84.1286 42.3035L84.3022 41.8346C85.6064 42.3175 86.897 42.8506 88.1712 43.4338L87.9631 43.8884C88.2774 44.0323 88.5908 44.1793 88.903 44.3293C89.0473 44.3986 89.1829 44.4805 89.3087 44.5732L89.6052 44.1706C90.2212 44.6244 90.6435 45.2959 90.7858 46.0476L90.2945 46.1405C90.3236 46.2941 90.3387 46.4517 90.3387 46.6118V47.5376H90.8387V51.2408H90.3387V53.0924H90.8387V56.7956H90.3387V57.7214C90.3387 58.0551 90.3343 58.3882 90.3257 58.7207L90.8256 58.7337C90.7904 60.0902 90.6848 61.4366 90.5111 62.7683L90.0153 62.7036C89.929 63.3654 89.8256 64.0235 89.7056 64.6773L90.1973 64.7677C89.9528 66.0991 89.6397 67.413 89.2606 68.7044L88.7808 68.5636C88.593 69.2034 88.3888 69.8375 88.1685 70.4655L88.6403 70.631C88.193 71.9058 87.6802 73.1554 87.1043 74.3748L86.6522 74.1613C86.3677 74.7636 86.0677 75.3585 85.7524 75.9453L86.1928 76.182C85.5546 77.3698 84.8545 78.525 84.0952 79.6424L83.6817 79.3614C83.3076 79.9119 82.9191 80.4531 82.5162 80.9844L82.9146 81.2865C82.1015 82.359 81.231 83.3917 80.3056 84.3798L79.9407 84.038C79.4863 84.5232 79.0185 84.9975 78.5376 85.4603L78.8843 85.8206C77.9167 86.7518 76.8967 87.6371 75.8268 88.4716L75.5192 88.0774C75.257 88.282 74.9917 88.4834 74.7233 88.6818L73.8738 89.3097L74.171 89.7118L70.7727 92.2237L70.4755 91.8216L68.7764 93.0775L69.0736 93.4796L65.6753 95.9915L65.3781 95.5894L64.8258 95.9977L64.2734 95.5894Z" fill="white" stroke="#1D2028" stroke-dasharray="2 4"/>
    <path d="M78.0614 58.3644L62.8726 73.6011L53.1782 63.1332C52.2454 62.126 52.3214 60.5714 53.3512 59.6558C54.3869 58.7349 55.991 58.8122 56.9292 59.8253L62.6548 66.0076L63.0084 66.3894L63.3757 66.0208L74.4374 54.9243C75.4136 53.945 77.0196 53.9263 78.0195 54.8832C79.0136 55.8346 79.032 57.3908 78.0614 58.3644Z" fill="url(#paint1_linear_2714_1508)" fill-opacity="0.5" stroke="#1D2028"/>
    <circle cx="95.7807" cy="105.69" r="16.8291" fill="#E0E2E9" stroke="#40404B"/>
    <path d="M88.6993 103.358C88.6993 102.53 89.3709 101.858 90.1993 101.858H101.362C102.191 101.858 102.862 102.53 102.862 103.358V109.355C102.862 111.84 100.848 113.855 98.3623 113.855H93.1993C90.7141 113.855 88.6993 111.84 88.6993 109.355V103.358Z" fill="white" stroke="#1D2028"/>
    <path d="M99.0328 101.291V101.291C99.0328 99.4967 97.5781 98.042 95.7836 98.042V98.042C93.9891 98.042 92.5344 99.4967 92.5344 101.291V101.291" stroke="#1D2028"/>
    <circle cx="95.7836" cy="107.79" r="0.583071" stroke="#1D2028"/>
    <defs>
        <linearGradient id="paint0_linear_2714_1508" x1="128" y1="88.8889" x2="5.77777" y2="50.2222" gradientUnits="userSpaceOnUse">
            <stop stop-color="#5567D5"/>
            <stop offset="1" stop-color="#0095FF"/>
        </linearGradient>
        <linearGradient id="paint1_linear_2714_1508" x1="79.2774" y1="68.0144" x2="54.9022" y2="57.8354" gradientUnits="userSpaceOnUse">
            <stop stop-color="#5567D5"/>
            <stop offset="1" stop-color="#0095FF"/>
        </linearGradient>
    </defs>
</svg>
