<svg width="16" height="16" viewBox="0 0 16 16" fill="none" xmlns="http://www.w3.org/2000/svg">
<g clip-path="url(#clip0_167_11530)">
<path fill-rule="evenodd" clip-rule="evenodd" d="M0.878679 11.8787L4.12132 15.1213C4.68393 15.6839 5.44699 16 6.24264 16H9.75736C10.553 16 11.3161 15.6839 11.8787 15.1213L15.1213 11.8787C15.6839 11.3161 16 10.553 16 9.75736V6.24264C16 5.44699 15.6839 4.68393 15.1213 4.12132L11.8787 0.87868C11.3161 0.316071 10.553 0 9.75736 0H6.24264C5.44699 0 4.68393 0.31607 4.12132 0.878679L0.87868 4.12132C0.316071 4.68393 0 5.44699 0 6.24264V9.75736C0 10.553 0.31607 11.3161 0.878679 11.8787ZM1.93934 5.18198L5.18198 1.93934C5.46329 1.65803 5.84482 1.5 6.24264 1.5H9.75736C10.1552 1.5 10.5367 1.65804 10.818 1.93934L14.0607 5.18198C14.342 5.46329 14.5 5.84482 14.5 6.24264V9.75736C14.5 10.1552 14.342 10.5367 14.0607 10.818L10.818 14.0607C10.5367 14.342 10.1552 14.5 9.75736 14.5H6.24264C5.84482 14.5 5.46328 14.342 5.18198 14.0607L1.93934 10.818C1.65803 10.5367 1.5 10.1552 1.5 9.75736V6.24264C1.5 5.84482 1.65804 5.46328 1.93934 5.18198ZM10.5303 5.46967C10.8232 5.76256 10.8232 6.23744 10.5303 6.53033L9.06066 8L10.5303 9.46967C10.8232 9.76256 10.8232 10.2374 10.5303 10.5303C10.2374 10.8232 9.76256 10.8232 9.46967 10.5303L8 9.06066L6.53033 10.5303C6.23744 10.8232 5.76256 10.8232 5.46967 10.5303C5.17678 10.2374 5.17678 9.76256 5.46967 9.46967L6.93934 8L5.46967 6.53033C5.17678 6.23744 5.17678 5.76256 5.46967 5.46967C5.76256 5.17678 6.23744 5.17678 6.53033 5.46967L8 6.93934L9.46967 5.46967C9.76256 5.17678 10.2374 5.17678 10.5303 5.46967Z" fill="#FE523C"/>
</g>
<defs>
<clipPath id="clip0_167_11530">
<rect width="16" height="16" fill="white"/>
</clipPath>
</defs>
</svg>
