<svg width="16" height="17" viewBox="0 0 16 17" fill="none" xmlns="http://www.w3.org/2000/svg">
<path fill-rule="evenodd" clip-rule="evenodd" d="M7.6598 4.84541L5.82818 1.36533L0 12.4389H4.16875C5.0382 14.9095 7.45132 16.5743 10.1423 16.4332C13.4514 16.2598 15.9935 13.4366 15.82 10.1274C15.6466 6.81828 12.8234 4.27626 9.51423 4.44968C8.87146 4.48337 8.24749 4.61778 7.6598 4.84541ZM8.12928 5.73741L11.6564 12.4389H5.24252C6.05748 14.3121 7.9705 15.5457 10.0899 15.4346C12.8476 15.2901 14.9659 12.9374 14.8214 10.1798C14.6769 7.42214 12.3242 5.30379 9.56657 5.44831C9.06949 5.47436 8.58676 5.57237 8.12928 5.73741ZM5.82818 3.51187L10.0002 11.4389H1.65518L5.82818 3.51187Z" fill="#40404B"/>
</svg>
