<svg width="15" height="16" viewBox="0 0 15 16" fill="none" xmlns="http://www.w3.org/2000/svg">
<path fill-rule="evenodd" clip-rule="evenodd" d="M12.2803 0.969661L11.75 0.439331L11.2197 0.969661L8.71967 3.46966C8.42678 3.76255 8.42678 4.23743 8.71967 4.53032C9.01256 4.82321 9.48744 4.82321 9.78033 4.53032L11 3.31065V15C11 15.4142 11.3358 15.75 11.75 15.75C12.1642 15.75 12.5 15.4142 12.5 15V3.31065L13.7197 4.53032C14.0126 4.82321 14.4874 4.82321 14.7803 4.53032C15.0732 4.23743 15.0732 3.76255 14.7803 3.46966L12.2803 0.969661ZM5.25 5.49999C5.25 5.08578 4.91421 4.74999 4.5 4.74999C4.08579 4.74999 3.75 5.08578 3.75 5.49999V15C3.75 15.4142 4.08579 15.75 4.5 15.75C4.91421 15.75 5.25 15.4142 5.25 15V5.49999ZM1.75 11C1.75 10.5858 1.41421 10.25 1 10.25C0.585786 10.25 0.25 10.5858 0.25 11V15C0.25 15.4142 0.585786 15.75 1 15.75C1.41421 15.75 1.75 15.4142 1.75 15V11ZM8 8.24999C8.41421 8.24999 8.75 8.58578 8.75 8.99999V15C8.75 15.4142 8.41421 15.75 8 15.75C7.58579 15.75 7.25 15.4142 7.25 15V8.99999C7.25 8.58578 7.58579 8.24999 8 8.24999Z" fill="#5567D5"/>
</svg>
