<svg width="16" height="16" viewBox="0 0 16 16" fill="none" xmlns="http://www.w3.org/2000/svg">
<path fill-rule="evenodd" clip-rule="evenodd" d="M4 0.25C1.92893 0.25 0.25 1.92893 0.25 4C0.25 6.07107 1.92893 7.75 4 7.75C6.07107 7.75 7.75 6.07107 7.75 4C7.75 1.92893 6.07107 0.25 4 0.25ZM4 1.75C5.24264 1.75 6.25 2.75736 6.25 4C6.25 5.24264 5.24264 6.25 4 6.25C2.75736 6.25 1.75 5.24264 1.75 4C1.75 2.75736 2.75736 1.75 4 1.75ZM12 0.25C9.92893 0.25 8.25 1.92893 8.25 4C8.25 6.07107 9.92893 7.75 12 7.75C14.0711 7.75 15.75 6.07107 15.75 4C15.75 1.92893 14.0711 0.25 12 0.25ZM12 1.75C13.2426 1.75 14.25 2.75736 14.25 4C14.25 5.24264 13.2426 6.25 12 6.25C10.7574 6.25 9.75 5.24264 9.75 4C9.75 2.75736 10.7574 1.75 12 1.75ZM0.25 12C0.25 9.92893 1.92893 8.25 4 8.25C6.07107 8.25 7.75 9.92893 7.75 12C7.75 14.0711 6.07107 15.75 4 15.75C1.92893 15.75 0.25 14.0711 0.25 12ZM6.25 12C6.25 10.7574 5.24264 9.75 4 9.75C2.75736 9.75 1.75 10.7574 1.75 12C1.75 13.2426 2.75736 14.25 4 14.25C5.24264 14.25 6.25 13.2426 6.25 12ZM12 8.25C9.92893 8.25 8.25 9.92893 8.25 12C8.25 14.0711 9.92893 15.75 12 15.75C14.0711 15.75 15.75 14.0711 15.75 12C15.75 9.92893 14.0711 8.25 12 8.25ZM12 9.75C13.2426 9.75 14.25 10.7574 14.25 12C14.25 13.2426 13.2426 14.25 12 14.25C10.7574 14.25 9.75 13.2426 9.75 12C9.75 10.7574 10.7574 9.75 12 9.75Z" fill="#5567D5"/>
</svg>
