<svg width="280" height="220" viewBox="0 0 280 220" fill="none" xmlns="http://www.w3.org/2000/svg">
<path d="M68.0131 19.0935C103.692 6.82955 157.321 26.9194 189.768 51.0671C237.237 86.3942 248.274 79.3933 266.3 113.502C284.326 147.611 270.76 176.617 250.678 191.585C230.248 206.812 199.893 210.101 165.268 201.567C124.768 191.585 56.2019 199.885 32.768 178.567C9.33403 157.249 6.26802 136.567 4.26798 103.567C2.60645 76.1521 8.76795 39.4579 68.0131 19.0935Z" fill="white"/>
<path opacity="0.503674" d="M179.928 5.64347L203.899 29.5647C205.365 31.0276 205.367 33.402 203.904 34.868C203.902 34.8698 203.901 34.8716 203.899 34.8734L179.928 58.7946C178.464 60.2555 176.094 60.2555 174.63 58.7946L150.66 34.8734C149.194 33.4105 149.192 31.0361 150.654 29.5701C150.656 29.5683 150.658 29.5665 150.66 29.5647L174.63 5.64347C176.094 4.18264 178.464 4.18264 179.928 5.64347Z" stroke="#C8CEF0" stroke-width="1.3444" stroke-linecap="round" stroke-linejoin="round"/>
<path d="M35.9038 34.092H265.904V181.092H35.9038V34.092Z" fill="#F0F1FB"/>
<path d="M140.778 153.249C160.715 158.591 181.208 146.76 186.55 126.823C191.892 106.886 180.06 86.3937 160.123 81.0516C146.329 77.3554 132.268 81.8808 123.144 91.624M113.099 115.682C112.93 119.896 113.482 124.037 114.669 127.954" stroke="#41415A" stroke-miterlimit="10" stroke-linecap="round"/>
<path d="M32.9039 84.4265V36.092M262.904 36.092V156.195M180.216 183.092H32.9039V120.514" stroke="#41415B" stroke-miterlimit="10"/>
<path d="M35.9038 34.092H265.904V53.092H35.9038V34.092Z" fill="#D7DFFF"/>
<path d="M82.9038 39.092H224.904V48.092H82.9038V39.092Z" fill="white"/>
<path d="M234.904 39.092H257.904V48.092H234.904V39.092Z" fill="#B2C3FB"/>
<path d="M40.9038 41.092H46.9038V47.092H40.9038V41.092Z" fill="white"/>
<path d="M51.9038 41.092H57.9038V47.092H51.9038V41.092Z" fill="white"/>
<path d="M62.9038 41.092H68.9038V47.092H62.9038V41.092Z" fill="white"/>
<rect x="105" y="87" width="92" height="24" rx="4" fill="white"/>
<path d="M197 99V91C197 88.7909 195.209 87 193 87H185.5H179.75M151 111H109C106.791 111 105 109.209 105 107V91C105 88.7909 106.791 87 109 87H116.5" stroke="#40404B" stroke-linecap="round"/>
<rect x="105" y="119" width="92" height="24" rx="4" fill="#A6B3FF"/>
<path d="M151 143H128M105 131V139C105 141.209 106.791 143 109 143H116.5M174 119H193C195.209 119 197 120.791 197 123V131" stroke="#40404B" stroke-linecap="round"/>
<path d="M117.363 94.5646C117.433 93.8118 118.567 93.8118 118.637 94.5646L118.866 97.0304C118.906 97.4578 119.37 97.7179 119.771 97.5376L122.086 96.4973C122.793 96.1797 123.36 97.1321 122.723 97.5673L120.637 98.9928C120.275 99.2399 120.275 99.7601 120.637 100.007L122.723 101.433C123.36 101.868 122.793 102.82 122.086 102.503L119.771 101.462C119.37 101.282 118.906 101.542 118.866 101.97L118.637 104.435C118.567 105.188 117.433 105.188 117.363 104.435L117.134 101.97C117.094 101.542 116.63 101.282 116.229 101.462L113.914 102.503C113.207 102.82 112.64 101.868 113.277 101.433L115.363 100.007C115.725 99.7601 115.725 99.2399 115.363 98.9928L113.277 97.5673C112.64 97.1321 113.207 96.1797 113.914 96.4973L116.229 97.5376C116.63 97.7179 117.094 97.4578 117.134 97.0304L117.363 94.5646Z" fill="#A6B3FF"/>
<path d="M131.363 94.5646C131.433 93.8118 132.567 93.8118 132.637 94.5646L132.866 97.0304C132.906 97.4578 133.37 97.7179 133.771 97.5376L136.086 96.4973C136.793 96.1797 137.36 97.1321 136.723 97.5673L134.637 98.9928C134.275 99.2399 134.275 99.7601 134.637 100.007L136.723 101.433C137.36 101.868 136.793 102.82 136.086 102.503L133.771 101.462C133.37 101.282 132.906 101.542 132.866 101.97L132.637 104.435C132.567 105.188 131.433 105.188 131.363 104.435L131.134 101.97C131.094 101.542 130.63 101.282 130.229 101.462L127.914 102.503C127.207 102.82 126.64 101.868 127.277 101.433L129.363 100.007C129.725 99.7601 129.725 99.2399 129.363 98.9928L127.277 97.5673C126.64 97.1321 127.207 96.1797 127.914 96.4973L130.229 97.5376C130.63 97.7179 131.094 97.4578 131.134 97.0304L131.363 94.5646Z" fill="#A6B3FF"/>
<path d="M145.363 94.5646C145.433 93.8118 146.567 93.8118 146.637 94.5646L146.866 97.0304C146.906 97.4578 147.37 97.7179 147.771 97.5376L150.086 96.4973C150.793 96.1797 151.36 97.1321 150.723 97.5673L148.637 98.9928C148.275 99.2399 148.275 99.7601 148.637 100.007L150.723 101.433C151.36 101.868 150.793 102.82 150.086 102.503L147.771 101.462C147.37 101.282 146.906 101.542 146.866 101.97L146.637 104.435C146.567 105.188 145.433 105.188 145.363 104.435L145.134 101.97C145.094 101.542 144.63 101.282 144.229 101.462L141.914 102.503C141.207 102.82 140.64 101.868 141.277 101.433L143.363 100.007C143.725 99.7601 143.725 99.2399 143.363 98.9928L141.277 97.5673C140.64 97.1321 141.207 96.1797 141.914 96.4973L144.229 97.5376C144.63 97.7179 145.094 97.4578 145.134 97.0304L145.363 94.5646Z" fill="#A6B3FF"/>
<path d="M159.363 94.5646C159.433 93.8118 160.567 93.8118 160.637 94.5646L160.866 97.0304C160.906 97.4578 161.37 97.7179 161.771 97.5376L164.086 96.4973C164.793 96.1797 165.36 97.1321 164.723 97.5673L162.637 98.9928C162.275 99.2399 162.275 99.7601 162.637 100.007L164.723 101.433C165.36 101.868 164.793 102.82 164.086 102.503L161.771 101.462C161.37 101.282 160.906 101.542 160.866 101.97L160.637 104.435C160.567 105.188 159.433 105.188 159.363 104.435L159.134 101.97C159.094 101.542 158.63 101.282 158.229 101.462L155.914 102.503C155.207 102.82 154.64 101.868 155.277 101.433L157.363 100.007C157.725 99.7601 157.725 99.2399 157.363 98.9928L155.277 97.5673C154.64 97.1321 155.207 96.1797 155.914 96.4973L158.229 97.5376C158.63 97.7179 159.094 97.4578 159.134 97.0304L159.363 94.5646Z" fill="#A6B3FF"/>
<path d="M144 130.5H163M163 130.5L157.5 125M163 130.5L157.5 136" stroke="white" stroke-width="2" stroke-linecap="round"/>
</svg>
