<svg width="220" height="220" viewBox="0 0 220 220" fill="none" xmlns="http://www.w3.org/2000/svg">
<g clip-path="url(#clip0_2832_18382)">
<path d="M75.5127 29.1294C116.281 24.45 153.584 46.3514 172.745 67.6521C191.906 88.9527 200.507 101.235 207.068 124.572C214.523 151.093 201.771 170.107 183.696 180.327C165.309 190.723 132.03 184.588 100.971 172.238C70.7082 160.205 55.9834 169.706 27.9215 151.638C5.33229 137.094 1.81166 119.885 3.48191 92.6635C4.86949 70.0487 23.5787 35.0904 75.5127 29.1294Z" fill="white"/>
<path d="M139.5 159C125.417 159 114 147.583 114 133.5" stroke="#41415B" stroke-miterlimit="10"/>
<path d="M105.5 159C135.047 159 159 135.047 159 105.5C159 75.9528 135.047 52 105.5 52C75.9528 52 52 75.9528 52 105.5C52 135.047 75.9528 159 105.5 159Z" stroke="#FF7B7C" stroke-width="5" stroke-miterlimit="10"/>
<path d="M105 46C72.4152 46 46 72.7249 46 105.692C46 113.01 47.3018 120.021 49.6838 126.5" stroke="#41415B" stroke-miterlimit="10"/>
<path d="M105.5 159C135.047 159 159 135.047 159 105.5C159 75.9528 135.047 52 105.5 52C75.9528 52 52 75.9528 52 105.5C52 135.047 75.9528 159 105.5 159Z" stroke="#FF7B7C" stroke-width="5" stroke-miterlimit="10"/>
<path d="M105.5 159C135.047 159 159 135.047 159 105.5C159 75.9528 135.047 52 105.5 52C75.9528 52 52 75.9528 52 105.5" stroke="#FF7B7C" stroke-width="5" stroke-miterlimit="10"/>
<path d="M142 142L68 68" stroke="#FF7B7C" stroke-width="5" stroke-miterlimit="10"/>
<path d="M54.3535 132.893C54.3535 144.355 63.6452 153.647 75.107 153.647C86.5689 153.647 95.8606 144.355 95.8606 132.893C95.8606 121.431 86.5689 112.139 75.107 112.139C63.6452 112.139 54.3535 121.431 54.3535 132.893Z" fill="white"/>
<path d="M117.968 132.893C117.968 144.355 127.259 153.647 138.721 153.647C150.183 153.647 159.475 144.355 159.475 132.893C159.475 121.431 150.183 112.139 138.721 112.139C127.259 112.139 117.968 121.431 117.968 132.893Z" fill="white"/>
<path d="M76.0094 78.535L59.3163 116.884C61.4218 114.628 68.1592 110.387 78.2653 111.47C88.3713 112.553 93.6048 120.944 94.9583 125.005L96.763 83.9489L94.9583 80.3396C87.7397 68.7898 79.318 74.3241 76.0094 78.535Z" fill="#CCD1F2"/>
<path d="M138.721 79.4373L155.414 117.786C153.309 115.53 146.571 111.289 136.465 112.372C126.359 113.455 121.126 121.847 119.772 125.907L117.968 84.8513L119.772 81.242C126.991 69.6922 135.413 75.2264 138.721 79.4373Z" fill="#CCD1F2"/>
<path d="M86.8374 66.3535L83.6792 72.6698L90.8978 74.9256L91.349 69.9628L90.8978 66.8047L86.8374 66.3535Z" fill="#A6B3FF"/>
<path d="M127.893 67.2559L131.051 73.5722L123.833 75.828L123.382 70.8652L123.833 67.707L127.893 67.2559Z" fill="#A6B3FF"/>
<path fill-rule="evenodd" clip-rule="evenodd" d="M88.642 67.707C90.1206 67.707 90.8978 68.6696 90.8978 69.3807V74.3293C89.1451 73.4088 87.1497 72.8881 85.0327 72.8881C84.9844 72.8881 84.9361 72.8883 84.8879 72.8889L86.301 69.0964L86.3149 69.0591L86.3266 69.021C86.5064 68.4352 87.3795 67.707 88.642 67.707ZM81.8487 73.2927L83.7519 68.1847C84.3906 66.1846 86.5555 65 88.642 65C91.1501 65 93.6048 66.748 93.6048 69.3807V76.2415C96.0018 78.457 97.5386 81.5897 97.6578 85.0821L97.6652 85.0822L97.6632 85.2923C97.6646 85.3683 97.6653 85.4444 97.6653 85.5207H97.6611L97.6527 86.423H117.078L117.07 85.5207H117.065C117.065 85.4444 117.066 85.3683 117.067 85.2923L117.065 85.0822L117.073 85.0821C117.192 81.5897 118.729 78.457 121.126 76.2415V69.3807C121.126 66.748 123.581 65 126.089 65C128.175 65 130.34 66.1846 130.979 68.1847L132.882 73.2927C136.333 74.1888 139.21 76.5071 140.85 79.5827L140.868 79.5751L140.968 79.8084C141.16 80.186 141.333 80.5745 141.487 80.9728L141.468 80.9799L159.366 122.887L159.346 122.895C160.871 125.898 161.731 129.295 161.731 132.893C161.731 145.102 151.833 155 139.624 155C127.569 155 117.768 145.352 117.521 133.357L117.517 133.357L117.437 124.845C110.855 122.91 103.848 122.956 97.2924 124.978L97.2141 133.357L97.2093 133.357C96.9625 145.352 87.1615 155 75.1071 155C62.8977 155 53 145.102 53 132.893C53 129.295 53.8595 125.898 55.3845 122.895L55.3646 122.887L73.2624 80.9799L73.2439 80.9728C73.3976 80.5745 73.5709 80.186 73.7627 79.8084L73.8623 79.5751L73.8802 79.5827C75.5211 76.5071 78.3977 74.1888 81.8487 73.2927ZM97.3188 122.148C103.881 120.287 110.826 120.244 117.411 122.025L117.314 111.688H97.4166L97.3188 122.148ZM117.103 89.13L117.289 108.981H97.4419L97.6274 89.13H117.103ZM85.0327 75.5951C90.4428 75.5951 94.8419 79.9235 94.956 85.3062L94.6087 122.472C90.8843 115.517 83.5482 110.786 75.1071 110.786C69.959 110.786 65.2219 112.546 61.4645 115.496L76.2154 80.9577C77.8683 77.7703 81.1979 75.5951 85.0327 75.5951ZM94.5071 132.893C94.5071 122.179 85.8214 113.493 75.1071 113.493C64.3927 113.493 55.707 122.179 55.707 132.893C55.707 143.607 64.3927 152.293 75.1071 152.293C85.8214 152.293 94.5071 143.607 94.5071 132.893ZM126.089 67.707C124.61 67.707 123.833 68.6696 123.833 69.3807V74.3293C125.585 73.4088 127.581 72.8881 129.698 72.8881C129.746 72.8881 129.795 72.8883 129.843 72.8889L128.43 69.0964L128.416 69.0591L128.404 69.021C128.224 68.4352 127.351 67.707 126.089 67.707ZM129.698 75.5951C124.288 75.5951 119.889 79.9235 119.775 85.3062L120.122 122.472C123.846 115.517 131.182 110.786 139.624 110.786C144.772 110.786 149.509 112.546 153.266 115.496L138.515 80.9577C136.862 77.7703 133.533 75.5951 129.698 75.5951ZM120.223 132.893C120.223 122.179 128.909 113.493 139.624 113.493C150.338 113.493 159.024 122.179 159.024 132.893C159.024 143.607 150.338 152.293 139.624 152.293C128.909 152.293 120.223 143.607 120.223 132.893Z" fill="#5567D5"/>
<path fill-rule="evenodd" clip-rule="evenodd" d="M76.944 87.1963C77.6422 87.4633 77.9918 88.2457 77.7248 88.9439L71.8597 104.284C71.5927 104.982 70.8103 105.331 70.1121 105.064C69.4138 104.797 69.0642 104.015 69.3312 103.317L75.1963 87.9772C75.4633 87.2789 76.2457 86.9294 76.944 87.1963Z" fill="#5567D5"/>
<path fill-rule="evenodd" clip-rule="evenodd" d="M66.2322 69.7677L113.232 116.768L116.768 113.232L69.7678 66.2322L66.2322 69.7677Z" fill="#FF7B7C"/>
<path fill-rule="evenodd" clip-rule="evenodd" d="M49.5 105.5C49.5 74.5721 74.5721 49.5 105.5 49.5V54.5C77.3335 54.5 54.5 77.3335 54.5 105.5H49.5Z" fill="#FF7B7C"/>
<path d="M60 133C60 124.716 66.7157 118 75 118" stroke="#5567D5" stroke-width="3" stroke-linecap="round"/>
<path d="M155 133C155 141.284 148.284 148 140 148" stroke="#5567D5" stroke-width="3" stroke-linecap="round"/>
</g>
<defs>
<clipPath id="clip0_2832_18382">
<rect width="220" height="220" fill="white"/>
</clipPath>
</defs>
</svg>
