<svg width="280" height="220" viewBox="0 0 280 220" fill="none" xmlns="http://www.w3.org/2000/svg">
<path d="M68.0131 19.0935C103.692 6.82955 157.321 26.9194 189.768 51.0671C237.237 86.3942 248.274 79.3933 266.3 113.502C284.326 147.611 270.76 176.617 250.678 191.585C230.248 206.812 199.893 210.101 165.268 201.567C124.768 191.585 56.2019 199.885 32.768 178.567C9.33403 157.249 6.26802 136.567 4.26798 103.567C2.60645 76.1521 8.76795 39.4579 68.0131 19.0935Z" fill="white"/>
<path opacity="0.503674" d="M179.928 5.64347L203.899 29.5647C205.365 31.0276 205.367 33.402 203.904 34.868C203.902 34.8698 203.901 34.8716 203.899 34.8734L179.928 58.7946C178.464 60.2555 176.094 60.2555 174.63 58.7946L150.66 34.8734C149.194 33.4105 149.191 31.0361 150.654 29.5701C150.656 29.5683 150.658 29.5665 150.66 29.5647L174.63 5.64347C176.094 4.18264 178.464 4.18264 179.928 5.64347Z" stroke="#C8CEF0" stroke-width="1.3444" stroke-linecap="round" stroke-linejoin="round"/>
<path d="M35.904 34.092H265.904V181.092H35.904V34.092Z" fill="#F0F1FB"/>
<path d="M32.904 84.4265V36.092M262.904 36.092V156.195M180.216 183.092H32.904V120.514" stroke="#41415B" stroke-miterlimit="10"/>
<path d="M35.904 34.092H265.904V53.092H35.904V34.092Z" fill="#D7DFFF"/>
<path d="M82.904 39.092H224.904V48.092H82.904V39.092Z" fill="white"/>
<path d="M234.904 39.092H257.904V48.092H234.904V39.092Z" fill="#B2C3FB"/>
<path d="M40.904 41.092H46.904V47.092H40.904V41.092Z" fill="white"/>
<path d="M51.904 41.092H57.904V47.092H51.904V41.092Z" fill="white"/>
<path d="M62.904 41.092H68.904V47.092H62.904V41.092Z" fill="white"/>
<path d="M107 114.092C107 89.7915 126.699 70.092 151 70.092C175.301 70.092 195 89.7915 195 114.092C195 138.393 175.301 158.092 151 158.092C126.699 158.092 107 138.393 107 114.092Z" fill="white"/>
<path d="M151 158.092C175.301 158.092 195 138.393 195 114.092C195 89.7915 175.301 70.092 151 70.092C126.699 70.092 107 89.7915 107 114.092C107 138.393 126.699 158.092 151 158.092Z" stroke="#FF7B7C" stroke-width="5" stroke-miterlimit="10"/>
<path d="M150 66.092C123.49 66.092 102 87.5824 102 114.092C102 126.983 107.081 138.686 115.35 147.309" stroke="#41415B" stroke-miterlimit="10"/>
<path d="M133 112.092H169V143.092H133V112.092Z" fill="#A6B3FF"/>
<path d="M148 124.092H154V130.092H148V124.092Z" fill="#D7DFFF"/>
<path d="M120.305 144.065L180.944 83.4265" stroke="#FF7B7C" stroke-width="5" stroke-miterlimit="10"/>
<path d="M147.904 111.336L175.991 82.3795" stroke="#41415B" stroke-miterlimit="10"/>
<path d="M141 112.092V102.092C141 96.5692 145.477 92.092 151 92.092C156.523 92.092 161 96.5692 161 102.092V112.092" stroke="#D7DFFF" stroke-width="4" stroke-miterlimit="10"/>
</svg>
