<!--
Copyright (c) 2022, WSO2 Inc. (http://www.wso2.com). All Rights Reserved.

This software is the property of WSO2 Inc. and its suppliers, if any.
Dissemination of any information or reproduction of any material contained
herein is strictly forbidden, unless permitted by WSO2 in accordance with
the WSO2 Commercial License available at http://wso2.com/licenses.
For specific language governing the permissions and limitations under
this license, please see the license as well as any agreement you’ve
entered into with WSO2 governing the purchase of this software and any
associated services.
-->
<svg width="272" height="287" viewBox="0 0 272 287" fill="none" xmlns="http://www.w3.org/2000/svg">
<path opacity="0.688056" d="M143.519 25.7697C178.45 41.7071 184.577 55.0657 225.134 95.212C252.373 112.57 256.681 132.497 244.661 184.185C232.699 235.817 242.558 234.046 214.378 253.348C186.226 272.512 143.749 289.46 106.034 286.705C68.3758 283.893 70.6743 253.577 61.4041 222.161C52.0484 190.717 33.8655 197.748 12.3354 143.496C-9.19474 89.2443 29.803 56.7799 45.2513 43.7632C60.6995 30.7464 108.646 9.77517 143.519 25.7697Z" fill="white"/>
<path d="M66 34C66 21.8496 75.85 12 87.9997 12C100.149 12 110 21.8496 110 34C110 46.1504 100.15 56 87.9997 56C75.8495 56 66 46.1504 66 34Z" stroke="#CED3F3" stroke-width="1.275"/>
<path fill-rule="evenodd" clip-rule="evenodd" d="M235.756 76.5559L261.444 102.244C263.519 104.318 263.519 107.682 261.444 109.756L235.756 135.444C233.682 137.519 230.318 137.519 228.244 135.444L202.556 109.756C200.481 107.682 200.481 104.318 202.556 102.244L228.244 76.5559C230.318 74.4814 233.682 74.4814 235.756 76.5559Z" stroke="#CED3F3" stroke-width="1.275"/>
<path d="M230.978 268.772C224.699 268.003 178.989 272.128 157.315 266.304C144.437 262.843 153.439 250.058 147.103 246.396C148.454 237.204 220.227 230.498 225.193 231.455C225.348 234.891 233.453 245.225 230.978 268.772Z" fill="#40404B"/>
<path d="M191.509 47.5021C191.509 53.7145 195.251 59.3153 200.991 61.6927C206.731 64.0701 213.337 62.756 217.73 58.3631C222.123 53.9702 223.437 47.3637 221.059 41.6242C218.682 35.8846 213.081 32.1423 206.869 32.1423C202.795 32.1408 198.887 33.7585 196.006 36.6394C193.125 39.5202 191.508 43.428 191.509 47.5021Z" fill="#FF9D52"/>
<path d="M143.487 74.1336C142.394 73.6197 140.804 70.1592 140.804 65.0313C140.804 52.2833 150.486 46.3068 165.971 46.3068C176.783 46.3068 189.525 50.3469 197.647 65.5154C203.713 76.7872 206.182 101.674 211.244 110.627C214.447 116.286 221.243 127.749 226.46 138.531C228.42 141.268 238.276 162.15 223.227 169.012C208.178 175.873 138.294 173.052 136.435 170.105C134.576 167.159 145.023 146.115 148.46 141.854C151.896 137.593 156.827 132.172 154.018 111.212C151.209 90.2524 153.749 77.8989 151.341 76.9008C148.932 75.9027 146.01 75.8429 143.487 74.1336Z" fill="#FF9D52"/>
<path d="M182.329 88.8001C182.329 92.4012 185.248 95.3205 188.85 95.3205C192.451 95.3205 195.37 92.4012 195.37 88.8001C195.37 85.199 192.451 82.2797 188.85 82.2797C185.25 82.283 182.332 85.2003 182.329 88.8001Z" fill="white"/>
<path d="M83.2019 127.373C78.1517 119.376 79.6159 110.154 81.7854 112.993C82.5086 113.944 91.9456 133.063 93.8282 135.005C95.2924 135.053 96.4579 135.244 96.948 135.644C98.8605 137.198 98.1433 148.088 98.8605 149.044C99.5776 150 126.861 191.884 128.062 193.199C128.181 193.677 131.648 177.528 132.706 174.671C135.431 176.871 142.214 180.761 144.258 181.425C144.025 183.272 142.878 206.102 144.258 213.519C143.099 215.814 136.094 222.771 133.118 222.771C127.387 222.771 121.29 220.565 119.689 219.46C113.001 214.87 87.1942 155.6 85.3056 154.369C81.5344 151.895 75.253 143.36 74.3745 137.957C74.3745 135.567 72.4142 134.007 83.2198 127.355" fill="white"/>
<path d="M159.385 135.549C142.549 130.05 127.231 168.276 128.426 171.36C129.622 174.444 146.619 183.66 150.325 183.17C154.03 182.68 165.923 137.67 159.385 135.537" fill="#A6B3FF"/>
<path d="M80.5602 97.7052C80.5602 100.786 83.0576 103.283 86.1383 103.283C89.219 103.283 91.7164 100.786 91.7164 97.7052C91.7164 94.6245 89.219 92.1271 86.1383 92.1271C83.0576 92.1271 80.5602 94.6245 80.5602 97.7052Z" fill="white"/>
<path d="M61.4352 97.7052C61.4352 100.786 63.9326 103.283 67.0133 103.283C70.094 103.283 72.5914 100.786 72.5914 97.7052C72.5914 94.6245 70.094 92.1271 67.0133 92.1271C63.9326 92.1271 61.4352 94.6245 61.4352 97.7052Z" fill="white"/>
<path d="M43.9039 97.7052C43.9039 100.786 46.4013 103.283 49.4821 103.283C52.5628 103.283 55.0602 100.786 55.0602 97.7052C55.0602 94.6245 52.5628 92.1271 49.4821 92.1271C46.4013 92.1271 43.9039 94.6245 43.9039 97.7052Z" fill="white"/>
<path d="M24.7789 97.7052C24.7789 100.786 27.2763 103.283 30.3571 103.283C33.4378 103.283 35.9352 100.786 35.9352 97.7052C35.9352 94.6245 33.4378 92.1271 30.3571 92.1271C27.2763 92.1271 24.7789 94.6245 24.7789 97.7052Z" fill="white"/>
<path fill-rule="evenodd" clip-rule="evenodd" d="M161.841 133.08C145.006 127.582 129.688 165.814 130.883 168.892C132.078 171.97 149.076 181.192 152.781 180.714C156.486 180.236 168.416 135.214 161.841 133.08Z" stroke="#40404B" stroke-linecap="round" stroke-linejoin="round"/>
<path d="M179.652 125.992C132.001 127.11 144.037 233.535 146.225 237.336C149.171 242.452 210.174 247.095 224.721 232.823C228.086 229.524 224.888 124.934 179.652 125.992Z" fill="#A6B3FF"/>
<path d="M187.642 123.942C185.82 123.618 183.97 123.48 182.12 123.53C167.477 123.871 158.471 134.156 153.08 148.357" stroke="#40404B" stroke-linecap="round" stroke-linejoin="round"/>
<path d="M146.063 186.864C144.772 210.991 147.719 233.17 148.693 234.867C151.639 239.983 212.642 244.627 227.189 230.355C230.249 227.367 227.882 140.503 193.356 125.664" stroke="#40404B" stroke-linecap="round" stroke-linejoin="round"/>
<path d="M147.498 62.3598C147.402 68.2766 188.646 73.8766 188.873 82.2797C189.101 90.6827 189.238 95.5357 189.238 95.5357C187.762 103.371 190.959 131.072 191.862 133.965C188.401 137.186 171.045 136.953 169.151 135.005C169.396 133.057 169.36 119.789 168.864 118.271C168.135 118.368 167.4 118.418 166.665 118.42C153.391 118.42 142.627 102.755 142.627 83.4272C142.627 73.3268 142.794 70.6553 147.486 62.3419" fill="white"/>
<path d="M204.245 129.226C185.796 134.957 196.84 179.65 200.366 181.413C203.893 183.176 238.449 173.303 239.154 169.424C239.86 165.545 227.751 121.916 204.245 129.226Z" fill="#A6B3FF"/>
<path d="M196.338 149.791C196.488 163.376 200.85 177.953 202.835 178.945C206.361 180.708 240.917 170.834 241.623 166.956C241.832 165.814 240.935 161.248 238.963 155.546" stroke="#40404B" stroke-linecap="round" stroke-linejoin="round"/>
<path d="M229.245 136.481C223.591 128.987 216.049 123.853 206.713 126.757C205.958 126.989 205.229 127.299 204.538 127.684" stroke="#40404B" stroke-linecap="round" stroke-linejoin="round"/>
<path d="M117.412 171.109C109.827 159.563 101.699 147.125 101.311 146.605C100.594 145.649 101.311 134.76 99.3984 133.206C97.4859 131.652 85.2937 133.206 85.2937 134.593C85.2937 135.979 90.2722 140.569 91.4914 140.91" stroke="#40404B" stroke-linecap="round" stroke-linejoin="round"/>
<path d="M135.025 172.609C133.967 175.472 130.632 191.244 130.512 190.766C130.208 190.426 128.205 187.455 125.378 183.2" stroke="#40404B" stroke-linecap="round" stroke-linejoin="round"/>
<path d="M85.6702 124.905C80.62 116.908 82.0842 107.686 84.2537 110.525C84.9769 111.475 94.4139 130.594 96.2965 132.537" stroke="#40404B" stroke-linecap="round" stroke-linejoin="round"/>
<path d="M83.9848 126.99C84.6601 128.269 87.756 133.427 87.756 133.427" stroke="#40404B" stroke-linecap="round" stroke-linejoin="round"/>
<path d="M80.6738 129.028C81.9875 132.001 83.5322 134.867 85.2937 137.599" stroke="#40404B" stroke-linecap="round" stroke-linejoin="round"/>
<path d="M77.7034 131.252C79.2413 134.588 81.0065 137.815 82.9867 140.91" stroke="#40404B" stroke-linecap="round" stroke-linejoin="round"/>
<path d="M85.706 150.227C86.3364 150.852 87.0225 151.419 87.756 151.919C89.6446 153.156 115.451 212.419 122.139 217.015C123.741 218.115 129.837 220.32 135.569 220.32C138.557 220.32 144.91 214.344 146.063 212.067" stroke="#40404B" stroke-linecap="round" stroke-linejoin="round"/>
<path d="M76.8249 135.507C77.1894 137.76 78.4983 140.557 80.1658 143.235" stroke="#40404B" stroke-linecap="round" stroke-linejoin="round"/>
<path d="M150.486 103.114C154.897 110.961 161.596 115.97 169.103 115.97C173.884 115.97 178.361 113.926 182.114 110.405" stroke="#40404B" stroke-linecap="round" stroke-linejoin="round"/>
<path d="M149.954 59.8915C146.687 66.4331 145.025 73.6591 145.107 80.9708C145.097 84.6595 145.497 88.338 146.302 91.9378" stroke="#40404B" stroke-linecap="round" stroke-linejoin="round"/>
<path d="M187.642 91.6748C190.214 93.446 193.68 93.1417 195.904 90.9496C198.127 88.7576 198.481 85.2954 196.746 82.6993C195.012 80.1031 191.678 79.1044 188.802 80.3194" stroke="#40404B" stroke-linecap="round" stroke-linejoin="round"/>
<path d="M167.776 78.9806C167.776 80.3612 168.374 81.4848 169.139 81.4848C169.904 81.4848 170.496 80.3612 170.496 78.9806C170.496 77.6 169.898 76.4705 169.139 76.4705C168.38 76.4705 167.776 77.5941 167.776 78.9806Z" fill="#1D2028"/>
<path d="M155.363 90.6887C155.135 91.1387 154.854 91.56 154.526 91.9438" stroke="#40404B" stroke-linecap="round" stroke-linejoin="round"/>
<path d="M156.696 82.9789C156.824 84.8146 156.656 86.659 156.2 88.4415" stroke="#40404B" stroke-linecap="round" stroke-linejoin="round"/>
<path d="M175.42 95.6373C175.157 97.3944 173.221 99.6775 170.502 100.556" stroke="#40404B" stroke-linecap="round" stroke-linejoin="round"/>
<path d="M171.619 132.537C171.864 130.588 171.828 117.32 171.332 115.802" stroke="#40404B" stroke-linecap="round" stroke-linejoin="round"/>
<path d="M192.657 119.741C193.254 125.628 193.971 130.385 194.318 131.497C192.944 132.776 189.387 133.505 185.473 133.804" stroke="#40404B" stroke-linecap="round" stroke-linejoin="round"/>
<path d="M191.694 93.0734C191.097 96.1154 191.252 102.152 191.694 108.571" stroke="#40404B" stroke-linecap="round" stroke-linejoin="round"/>
<path d="M220.705 55.3613C224.226 51.4881 225.532 46.0876 224.169 41.0333C222.805 35.9791 218.961 31.9678 213.969 30.3912" stroke="#40404B" stroke-linecap="round" stroke-linejoin="round"/>
<path d="M195.185 39.0632C192.922 44.4155 193.872 50.5861 197.638 55.0111C201.404 59.4362 207.344 61.3592 212.989 59.9811" stroke="#40404B" stroke-linecap="round" stroke-linejoin="round"/>
<path d="M155.751 45.5955C147.862 48.2252 143.272 53.8013 143.272 62.563C143.272 67.6909 144.862 71.1513 145.962 71.6653" stroke="#40404B" stroke-linecap="round" stroke-linejoin="round"/>
<path d="M209.337 95.1831C206.636 84.2878 204.191 70.5895 200.127 63.0172C192.507 48.799 180.835 44.3644 170.496 43.8922" stroke="#40404B" stroke-linecap="round" stroke-linejoin="round"/>
<path d="M228.928 136.063C225.342 128.646 221.003 120.9 217.573 114.954" stroke="#40404B" stroke-linecap="round" stroke-linejoin="round"/>
<path d="M156.875 127.684C156.618 130.044 156.23 132.023 155.68 133.098" stroke="#40404B" stroke-linecap="round" stroke-linejoin="round"/>
<path d="M156.744 110.967C157.18 112.479 157.395 117.35 157.24 122.221" stroke="#40404B" stroke-linecap="round" stroke-linejoin="round"/>
<path d="M148.346 55.9948C148.346 68.3842 191.33 69.5018 191.33 79.8114" stroke="#40404B" stroke-linecap="round" stroke-linejoin="round"/>
<path d="M126.765 237.186C122.623 237.879 120.263 231.06 117.74 231.425C115.9 231.688 107.096 232.817 106.708 233.427C106.319 234.037 107.76 240.384 107.76 240.384" fill="#EAF0FF"/>
<path d="M170.387 229.834L176.929 268.721L114.302 279.258L107.76 240.371L170.387 229.834Z" fill="white"/>
<path d="M113.826 259.323L116.766 276.799L153.08 270.691" stroke="#40404B" stroke-linecap="round" stroke-linejoin="round"/>
<path d="M110.222 237.915L111.453 245.225" stroke="#1D2028" stroke-width="1.275" stroke-linecap="round" stroke-linejoin="round"/>
<path d="M173.687 267.224L179.395 266.244L172.82 227.355L119.492 236.32" stroke="#40404B" stroke-linecap="round" stroke-linejoin="round"/>
<path d="M129.233 234.718C125.092 235.411 122.725 228.592 120.209 228.957C118.368 229.219 109.565 230.349 109.176 230.959C108.788 231.568 110.228 237.915 110.228 237.915" stroke="#40404B" stroke-linecap="round" stroke-linejoin="round"/>
<path d="M126.446 241.588L129.239 258.191L120.139 259.722L117.346 243.119L126.446 241.588Z" fill="#5567D5"/>
<path d="M167.453 237.915L131.696 243.928" stroke="#40404B" stroke-linecap="round" stroke-linejoin="round"/>
<path d="M138.371 250.616L133.052 251.512" stroke="#40404B" stroke-linecap="round" stroke-linejoin="round"/>
<path d="M168.804 245.5L148.263 248.954" stroke="#40404B" stroke-linecap="round" stroke-linejoin="round"/>
<path d="M128.624 239.595C129.556 232.423 131.714 224.809 146.96 225.466C149.022 223.811 189.065 212.455 213.21 206.192C210.401 200.389 207.126 182.704 206.959 181.09C208.751 180.755 235.21 172.615 235.21 172.615C235.21 172.615 246.272 218.874 243.87 222.741C229.066 232.172 173.532 238.967 148.46 237.204C146.703 238.585 146.942 239.451 144.45 239.804C141.957 240.157 128.624 239.595 128.624 239.595Z" fill="white"/>
<path d="M176.4 214.457C162.128 218.545 150.516 222.113 149.434 222.998C134.176 222.34 132.024 229.925 131.092 237.126" stroke="#40404B" stroke-linecap="round" stroke-linejoin="round"/>
<path d="M209.427 178.646C209.6 180.236 212.875 197.92 215.678 203.747C207.275 205.917 196.942 208.708 186.955 211.517" stroke="#40404B" stroke-linecap="round" stroke-linejoin="round"/>
<path d="M144.294 230.385C143.603 232.841 143.35 235.401 143.547 237.945" stroke="#40404B" stroke-linecap="round" stroke-linejoin="round"/>
<path d="M139.692 230.385C138.995 232.84 138.742 235.401 138.945 237.945" stroke="#40404B" stroke-linecap="round" stroke-linejoin="round"/>
<path d="M135.981 230.385C135.288 232.841 135.037 235.401 135.24 237.945" stroke="#40404B" stroke-linecap="round" stroke-linejoin="round"/>
<path d="M245.723 208.463C246.768 214.906 247.211 219.723 246.32 220.273C225.623 233.421 163.073 235.477 150.91 234.736" stroke="#40404B" stroke-linecap="round" stroke-linejoin="round"/>
<path d="M237.678 170.171C237.905 170.972 240.039 179.937 242.184 190.079" stroke="#40404B" stroke-linecap="round" stroke-linejoin="round"/>
</svg>
