<svg width="550" height="534" viewBox="0 0 550 534" fill="none" xmlns="http://www.w3.org/2000/svg">
<path d="M272.926 0.0470868C268.066 0.29175 263.305 1.49647 258.921 3.59057L67.8322 94.8952C62.8862 97.2572 58.5403 100.694 55.1174 104.95C51.6944 109.207 49.2823 114.174 48.0604 119.481L0.918219 324.575C-0.170478 329.3 -0.292407 334.194 0.559647 338.967C1.4117 343.74 3.22042 348.295 5.87878 352.362C6.52331 353.356 7.21652 354.319 7.95591 355.246L140.221 519.696C143.645 523.951 147.991 527.387 152.937 529.748C157.883 532.109 163.302 533.334 168.791 533.333L380.899 533.285C386.386 533.289 391.803 532.067 396.749 529.711C401.694 527.354 406.041 523.923 409.467 519.673L541.683 355.197C545.109 350.939 547.523 345.971 548.745 340.661C549.968 335.351 549.968 329.836 548.746 324.525L501.53 119.432C500.308 114.124 497.896 109.158 494.473 104.902C491.05 100.645 486.704 97.2087 481.759 94.8467L290.644 3.58979C285.13 0.955962 279.038 -0.262202 272.926 0.0470868Z" fill="#326CE5"/>
<path d="M274.819 69.8433C268.502 69.844 263.38 75.5335 263.381 82.5516C263.381 82.6595 263.403 82.7628 263.405 82.8691C263.396 83.8232 263.351 84.9721 263.381 85.8018C263.531 89.8497 264.414 92.9482 264.945 96.6778C265.907 104.659 266.713 111.276 266.216 117.426C265.732 119.745 264.024 121.866 262.501 123.34L262.232 128.18C255.275 128.752 248.366 129.814 241.557 131.356C211.859 138.1 186.29 153.398 166.822 174.052C165.432 173.092 164.056 172.115 162.692 171.119C160.65 171.395 158.586 172.025 155.897 170.459C150.779 167.014 146.117 162.258 140.476 156.529C137.891 153.789 136.02 151.179 132.949 148.537C132.252 147.937 131.188 147.126 130.407 146.509C128.006 144.595 125.175 143.596 122.44 143.503C118.924 143.383 115.54 144.758 113.325 147.536C109.386 152.474 110.648 160.023 116.135 164.398C116.191 164.443 116.25 164.477 116.307 164.521C117.06 165.132 117.984 165.915 118.676 166.427C121.935 168.833 124.913 170.065 128.159 171.975C134.999 176.199 140.671 179.701 145.168 183.925C146.925 185.797 147.232 189.097 147.466 190.524L151.132 193.799C131.508 223.332 122.426 259.812 127.793 296.981L123.003 298.374C121.74 300.004 119.956 302.57 118.09 303.335C112.205 305.189 105.582 305.869 97.586 306.707C93.8322 307.02 90.5929 306.833 86.6123 307.587C85.7364 307.753 84.5164 308.071 83.5576 308.296L83.4598 308.321C83.4074 308.333 83.3394 308.358 83.2886 308.369C76.5473 309.998 72.217 316.195 73.6107 322.3C75.0058 328.406 81.5907 332.119 88.3719 330.658C88.4212 330.647 88.4923 330.645 88.544 330.634C88.6198 330.616 88.6871 330.579 88.7629 330.56C89.7092 330.353 90.8932 330.122 91.7206 329.901C95.6333 328.853 98.4674 327.314 101.985 325.966C109.553 323.252 115.82 320.984 121.927 320.1C124.477 319.901 127.165 321.674 128.501 322.422L133.487 321.566C144.96 357.137 169.003 385.886 199.448 403.927L197.371 408.912C198.12 410.848 198.946 413.467 198.387 415.38C196.168 421.136 192.365 427.212 188.035 433.987C185.939 437.116 183.793 439.545 181.901 443.127C181.448 443.984 180.872 445.301 180.434 446.206C177.495 452.496 179.652 459.74 185.298 462.459C190.98 465.194 198.033 462.309 201.085 456.007C201.09 455.997 201.106 455.991 201.11 455.982C201.113 455.975 201.107 455.965 201.11 455.958C201.545 455.064 202.161 453.89 202.527 453.049C204.148 449.337 204.687 446.155 205.827 442.565C208.853 434.963 210.516 426.987 214.681 422.017C215.823 420.656 217.682 420.132 219.611 419.616L222.201 414.924C248.743 425.112 278.451 427.846 308.129 421.108C314.799 419.591 321.356 417.615 327.754 415.193C328.482 416.484 329.835 418.967 330.197 419.592C332.157 420.229 334.295 420.559 336.039 423.136C339.155 428.461 341.286 434.761 343.883 442.369C345.024 445.96 345.587 449.142 347.207 452.854C347.576 453.7 348.189 454.891 348.625 455.786C351.67 462.109 358.746 465.004 364.437 462.263C370.083 459.543 372.241 452.3 369.301 446.011C368.863 445.105 368.262 443.789 367.809 442.932C365.917 439.35 363.772 436.945 361.675 433.816C357.345 427.042 353.753 421.414 351.533 415.657C350.604 412.688 351.689 410.842 352.412 408.912C351.98 408.416 351.053 405.612 350.507 404.294C382.146 385.611 405.483 355.789 416.443 321.347C417.923 321.58 420.496 322.035 421.331 322.202C423.051 321.068 424.633 319.587 427.734 319.832C433.841 320.715 440.109 322.984 447.677 325.697C451.194 327.045 454.028 328.609 457.941 329.656C458.768 329.877 459.952 330.084 460.898 330.292C460.974 330.31 461.041 330.347 461.118 330.365C461.169 330.376 461.241 330.378 461.29 330.39C468.072 331.849 474.657 328.137 476.05 322.031C477.442 315.926 473.114 309.728 466.372 308.101C465.392 307.877 464.001 307.499 463.049 307.319C459.069 306.565 455.83 306.75 452.076 306.439C444.079 305.601 437.456 304.92 431.571 303.066C429.172 302.136 427.465 299.28 426.635 298.105L422.015 296.761C424.411 279.435 423.765 261.403 419.621 243.361C415.437 225.152 408.046 208.497 398.188 193.824C399.372 192.746 401.61 190.765 402.244 190.182C402.429 188.13 402.271 185.978 404.395 183.705C408.892 179.482 414.564 175.98 421.404 171.755C424.651 169.844 427.653 168.613 430.911 166.207C431.648 165.663 432.655 164.801 433.429 164.178C438.915 159.802 440.178 152.254 436.239 147.316C432.3 142.378 424.667 141.912 419.18 146.289C418.4 146.908 417.34 147.715 416.639 148.318C413.568 150.959 411.672 153.568 409.087 156.309C403.447 162.039 398.784 166.819 393.666 170.264C391.448 171.555 388.199 171.109 386.725 171.021L382.375 174.125C357.569 148.114 323.796 131.484 287.429 128.253C287.328 126.729 287.195 123.975 287.16 123.145C285.671 121.721 283.873 120.505 283.421 117.426C282.924 111.276 283.754 104.659 284.716 96.6778C285.248 92.9482 286.13 89.8505 286.281 85.8018C286.315 84.8821 286.26 83.5464 286.256 82.5516C286.255 75.5335 281.135 69.8433 274.819 69.8433ZM260.497 158.558L257.101 218.555L256.856 218.678C256.628 224.045 252.21 228.331 246.787 228.331C244.566 228.331 242.514 227.618 240.848 226.401L240.75 226.449L191.554 191.574C206.675 176.708 226.014 165.72 248.302 160.66C252.329 159.751 256.399 159.049 260.497 158.558ZM289.165 158.558C315.186 161.758 339.251 173.541 357.692 191.599L308.814 226.254L308.642 226.181C304.304 229.349 298.191 228.563 294.81 224.324C293.473 222.66 292.702 220.614 292.61 218.482L292.561 218.458L289.165 158.558ZM173.714 213.986L218.633 254.164L218.584 254.408C222.639 257.932 223.236 264.049 219.855 268.289C218.522 269.964 216.69 271.171 214.625 271.735L214.576 271.93L156.998 288.549C154.067 261.752 160.383 235.703 173.714 213.986ZM375.606 214.009C382.28 224.827 387.333 236.91 390.343 250.009C393.315 262.95 394.061 275.869 392.835 288.353L334.963 271.686L334.915 271.442C329.732 270.026 326.547 264.754 327.754 259.467C328.223 257.387 329.345 255.512 330.955 254.114L330.931 253.992L375.606 214.01V214.009ZM265.605 257.267H284.007L295.445 271.564L291.34 289.405L274.819 297.347L258.249 289.38L254.143 271.539L265.605 257.267ZM324.601 306.194C325.383 306.155 326.162 306.226 326.923 306.366L327.021 306.243L386.579 316.312C377.863 340.801 361.183 362.015 338.898 376.212L315.779 320.369L315.851 320.271C313.728 315.337 315.853 309.549 320.739 307.196C321.991 306.594 323.297 306.26 324.601 306.194ZM224.572 306.438C229.116 306.503 233.193 309.657 234.25 314.284C234.744 316.45 234.503 318.595 233.687 320.491L233.859 320.711L210.984 375.993C189.597 362.268 172.561 341.72 163.45 316.507L222.495 306.488L222.592 306.61C223.253 306.488 223.923 306.43 224.572 306.438ZM274.452 330.659C276.082 330.602 277.702 330.946 279.169 331.66C281.171 332.624 282.717 334.142 283.69 335.961H283.909L313.017 388.554C309.196 389.831 305.314 390.916 301.384 391.805C279.123 396.859 256.932 395.327 236.84 388.481L265.874 335.986H265.923C266.755 334.43 267.98 333.119 269.477 332.184C270.973 331.25 272.689 330.723 274.452 330.658V330.659Z" fill="white" stroke="white" stroke-width="0.195513"/>
</svg>
